<svg width="91" height="97" xmlns="http://www.w3.org/2000/svg" viewBox="0 0 24.261 25.85"><title>sophie2 tool slingshot</title><g fill="#212121" class="nc-icon-wrapper"><g id="layer1" transform="translate(47.705 -369.963)"><path d="M-28.04 393.237c-2.767-6.318-3.861-8.396-4.913-9.327-.576-.51-3.21-2.474-5.855-4.365-4.285-3.065-4.81-3.522-4.819-4.194-.006-.515.28-1.044.906-1.669 1.1-1.101.723-1.254 5.683 2.307 2.014 1.446 3.854 2.63 4.088 2.63.373 0 .426-.509.426-4.108v-4.108l.728-.28c.827-.317 2.446-.136 2.718.304.1.162.199 2.742.22 5.733.02 3.017.167 5.924.33 6.528.161.6 1.359 3.292 2.661 5.983 1.302 2.69 2.391 5.132 2.42 5.424.037.387-.27.692-1.13 1.126-2.027 1.023-2.186.932-3.463-1.984zm2.28-.7l.811-.296-.869-1.917c-.546-1.203-1.024-1.916-1.287-1.916-.579 0-2.031.779-1.93 1.034.92 2.32 1.72 3.697 2.067 3.555.219-.09.762-.296 1.208-.46zm-1.472-5.058c0-.044-.35-.859-.777-1.81-.766-1.709-.787-1.729-1.579-1.502-.98.281-1.348.498-1.348.792 0 .124.347 1 .772 1.947l.773 1.721 1.08-.534c.593-.294 1.079-.57 1.079-.614zm-12.253-11.494l.579-.711-.822-.486-.822-.485-.617.717c-.777.904-.784 1.598-.022 2.138.547.387.617.386.86-.02.146-.243.525-.762.844-1.153zm10.136-2.982c0-.544-.158-.764-.634-.884-1.238-.31-1.873-.047-1.956.811-.077.787-.066.794 1.256.796 1.278.002 1.334-.029 1.334-.723zm-13.008 22.258c-.872-.33-1.21-1.032-.499-1.032.882 0 1.336-.307 1.336-.901 0-.8-.489-1.216-1.432-1.216-.76 0-.776-.022-.335-.463.351-.352 1.11-.505 3.165-.638 1.487-.096 3.431-.26 4.32-.364 1.02-.12 1.68-.09 1.785.08.092.15-.117.342-.464.429-1.432.36-1.004 2.015.52 2.015.832 0 .899.052.655.508-.31.577-1.294.938-3.583 1.314-2.733.448-4.736.546-5.468.268zm-2.116-1.546c-2.935-.572-4.019-3.132-2.637-6.23.695-1.557 1.275-2.225 3.135-3.61 1.267-.943 1.36-1.085 1.125-1.705-.341-.896-.326-2.481.033-3.512.337-.966.326-.962 1.154-.42.607.398.616.451.24 1.351-.359.858-.294 2.47.1 2.47.085 0 .726-.368 1.425-.816 1.177-.756 1.312-.786 1.845-.413.563.395.544.422-1.067 1.44l-1.642 1.038 1.08.855c.594.47 2.213 1.26 3.598 1.756 3.16 1.129 3.666 1.465 4.354 2.886.433.895.505 1.341.327 2.029-.43 1.663-3.247 2.798-3.448 1.39-.061-.428.16-.645.992-.971.933-.367 1.07-.527 1.07-1.248 0-1.201-.81-1.854-3.946-3.176-1.517-.64-3.349-1.56-4.073-2.048-1.27-.855-1.335-.87-1.873-.423-2.425 2.008-3.231 3.21-3.508 5.226-.146 1.065-.084 1.255.646 1.985.631.631 1.039.808 1.865.808 1.382 0 1.894.214 1.894.794 0 .77-.749.922-2.69.544zm9.99-16.655c-.43-.476-.41-.56.423-1.746l.875-1.245.084 1.135c.077 1.054-.337 2.356-.75 2.356-.098 0-.382-.225-.631-.5z" id="path2960" fill="#212121" stroke-width=".265"></path></g></g></svg>