<svg width="50" height="51" xmlns="http://www.w3.org/2000/svg" viewBox="0 0 13.408 13.629"><title>sophie2 element wind</title><g fill="#212121" class="nc-icon-wrapper"><g id="layer1" transform="translate(25.652 -343.827)"><path d="M-20.633 357.32c-1.238-.326-2.307-.967-3.211-1.929-1.406-1.494-1.8-2.52-1.808-4.718-.01-2.801.847-4.376 3.241-5.95.908-.598 1.51-.768 3.043-.859 1.702-.1 2.07-.031 3.366.636 5.06 2.604 4.996 9.939-.11 12.362-1.131.536-3.36.762-4.52.457zm2.108-2.79a2.642 2.642 0 0 0 1.577-2.945l-.174-.924-.432.847c-.906 1.774-3.107 2.54-4.821 1.68l-.903-.454.683.705c.578.597 2.245 1.415 2.963 1.455.114.006.612-.157 1.107-.364zm3.826-3.725c.022-1.328-.722-2.583-1.796-3.028-.986-.408-1.885-.22-2.83.592l-.7.603 1.076-.103c1.872-.178 3.7 1.491 3.759 3.431.017.583.033.589.246.092.125-.29.235-1.005.245-1.587zm-5.766.831c-.862-.917-.99-2.244-.353-3.682.293-.663.792-1.344 1.11-1.514 1.078-.577.3-.593-.889-.018-3.2 1.549-2.821 5.18.606 5.817.062.012-.152-.26-.474-.603zm2.346-.434c.624-1.167-1.01-2.206-1.859-1.183-.256.31-.265.558-.038 1.058.373.818 1.487.891 1.897.125z" id="path4819" fill="#212121" stroke-width=".07"></path></g></g></svg>