<svg width="50" height="51" xmlns="http://www.w3.org/2000/svg" viewBox="0 0 13.388 13.502"><title>sophie2 element light</title><g fill="#212121" class="nc-icon-wrapper"><g id="layer1" transform="translate(-13.51 -343.632)"><path d="M17.959 356.824c-.484-.155-1.46-.803-2.169-1.44-4.662-4.191-1.697-11.84 4.556-11.751 1.814.025 2.947.456 4.283 1.629 1.87 1.642 2.713 4.562 2.038 7.058-.737 2.723-3.555 4.864-6.336 4.813-.82-.015-1.888-.154-2.372-.309zm2.733-2.839c.106-.655.249-1.285.317-1.4.07-.116.65.097 1.293.474.642.376 1.168.622 1.168.547 0-.076-.238-.527-.529-1.003-.29-.477-.528-1.003-.529-1.169 0-.166.777-.456 1.728-.646 1.892-.375 1.803-.611-.34-.9-.764-.102-1.389-.298-1.389-.436s.243-.727.54-1.31l.54-1.058-1.058.54c-.583.297-1.17.54-1.304.54-.135 0-.328-.551-.429-1.225-.352-2.349-.561-2.473-.924-.549-.184.976-.47 1.774-.636 1.773-.165 0-.69-.238-1.167-.529-.476-.29-.928-.528-1.003-.528-.076 0 .176.535.56 1.19.783 1.335.867 1.242-1.601 1.753l-1.588.329 1.323.323c.728.178 1.591.334 1.919.348.327.014.595.07.595.125 0 .054-.322.675-.716 1.38l-.716 1.28 1.226-.718c.674-.395 1.28-.718 1.348-.718.066 0 .27.789.452 1.754.355 1.881.596 1.838.92-.167z" id="path1102-7" fill="#212121" stroke-width=".265"></path></g></g></svg>