<svg width="80" height="77" xmlns="http://www.w3.org/2000/svg" viewBox="0 0 21.343 20.43"><title>sophie2 race small groll</title><g fill="#212121" class="nc-icon-wrapper"><g id="layer1" transform="translate(-41.35 -312.026)"><path d="M52.82 331.966c-.701-.426-1.702-1.606-1.702-2.006 0-.078.531-.141 1.18-.141 1.15 0 1.189.028 1.5 1.066.411 1.374.09 1.73-.978 1.081zm3.348-.57c-.439-.606-.864-1.31-.945-1.565-.121-.382-.592-.49-2.72-.628-3.376-.217-4.472-.558-5.678-1.764-.79-.79-1.004-1.211-1.028-2.021-.051-1.811.049-2.32.74-3.765.558-1.162.615-1.46.316-1.65-.2-.126-.462-.232-.582-.234-.119-.002-.179-.271-.132-.597.125-.874.952-.918 1.276-.067.296.778.874.764 1.018-.024.118-.647 1.028-1.643 1.93-2.112.64-.334.734-.315 1.098.223.368.545.38.495.164-.686-.315-1.725-.92-2.665-2.167-3.365-1.304-.733-3.34-.603-5.01.32-.966.534-1.12.744-1.173 1.595-.088 1.383-.536 2.112-1.237 2.013-.679-.097-.913-1.193-.442-2.072.437-.817 3.272-2.563 4.634-2.853 1.458-.311 3.337.014 4.382.758.885.63 1.501 1.695 1.98 3.423.314 1.13.332 1.147.355.327l.023-.863 1.125.171c.618.094 1.344.362 1.613.597.269.234.778.388 1.132.341.446-.058.877.166 1.403.73.419.447.988.814 1.265.814.866 0 1.43.636 1.584 1.788.1.748.303 1.157.624 1.259.623.198 1.201 2.662.751 3.204-.207.25-.217.466-.03.694.15.182.264 1.076.255 1.987-.023 2.175-.376 2.496-1.875 1.703-1.14-.604-2.168-.734-2.774-.35-.244.155-.33.734-.282 1.913.088 2.144-.415 2.382-1.592.756zm5.397-4.422c-1.017-1.6-1.778-2.466-2.492-2.835-.534-.276-.8-.661-.928-1.341-.098-.525-.244-1.125-.324-1.333-.09-.234.023-.378.297-.378.387 0 .367-.134-.16-1.073-.83-1.476-1.469-1.944-.736-.54.393.756.496 1.195.307 1.312-.2.123-.177.638.078 1.735.347 1.497.686 1.993 1.367 2.002.174.002.865.718 1.537 1.591 1.266 1.646 1.861 2.132 1.054.86zm-8.065-3.767c0-.402-.18-.88-.397-1.061-.561-.466-1.13.063-1.354 1.26-.14.75-.074 1.016.324 1.308.441.323.556.299.964-.204.254-.314.463-.9.463-1.303zm-4.797 1.229c.54-.651.644-1.894.19-2.271-.821-.681-1.796 1.011-1.211 2.103.328.613.612.66 1.021.168zm6.92-4.556c.366-.964.32-1.431-.157-1.614-.643-.247-.91.227-.734 1.306.186 1.15.526 1.267.89.308z" id="path5428" fill="#212121" stroke-width=".07"></path></g></g></svg>