<svg width="79" height="108" xmlns="http://www.w3.org/2000/svg" viewBox="0 0 21.143 28.796"><title>sophie2 race dragonaire</title><g fill="#212121" class="nc-icon-wrapper"><g id="layer1" transform="translate(-64.163 -232.638)"><path d="M70.485 260.945c-.508-.269-1.272-.574-1.7-.679-2.057-.504-2.84-1.988-1.776-3.36.27-.348.444-.763.389-.922-.056-.16.023-.62.176-1.021.226-.595.348-.672.657-.415.572.474 1.54-.374 2.384-2.089.581-1.18.64-1.47.332-1.643a9.187 9.187 0 0 1-.978-.699c-.588-.476-.592-.512-.16-1.35.536-1.035 1.046-.96 1.158.171.062.618.185.786.49.669.224-.086.526.01.67.213.207.29.231.269.115-.094-.249-.771.108-1.259 1.348-1.842.99-.465 1.22-.495 1.418-.184.429.678.273 1.793-.294 2.096-.295.158-.463.406-.373.551.092.15.442-.035.802-.424.544-.587.825-.677 1.895-.608l1.256.08-.09 1.058c-.05.583-.287 1.285-.53 1.56-.311.357-.347.534-.121.613.585.205 1.667 1.17 1.665 1.485-.002.428-1.632 1.502-2.28 1.502-.29 0-.759-.175-1.041-.389-.58-.438-1.175-.524-1.175-.169 0 .13.295.31.656.4.362.091.842.522 1.067.959.4.772.392.8-.277 1.054-1.046.398-1.672.316-2.037-.268-.39-.626-.732-.688-.732-.132 0 .277-.28.397-.926.397-.51 0-.926.105-.926.234 0 .128-.238.296-.53.372-.29.076-.529.276-.529.445 0 .177.338.067.793-.256.515-.367 1.093-.535 1.653-.481l.862.083-1.281.922c-1.174.845-1.27.995-1.142 1.786.078.475.116.864.087.864-.03 0-.468-.22-.975-.489zm-.393-1.701c.417-.103.381-.137-.17-.16-.426-.02-.765.139-.866.403-.126.327-.084.367.17.16.185-.15.575-.332.866-.403zm-1.3-1.446c-.183-.184-.685.189-.685.509 0 .175.152.155.404-.054.221-.184.348-.389.282-.455zm3.287-3.045c.288-.473.521-.98.517-1.125-.004-.145-.12-.07-.26.17-.14.238-.523.501-.852.585-.33.083-.748.394-.932.69-.301.489-.27.54.335.54.47 0 .823-.256 1.192-.86zm4.187-2.018c.264-.168.2-.264-.253-.382-.691-.18-.893-.076-.64.332.208.337.42.35.893.05zm-8.095 1.489c-.668-.832-1.666-3.213-2.146-5.12-.603-2.398-.957-4.604-.739-4.604.082 0 .703.864 1.378 1.919.676 1.055 1.88 2.583 2.675 3.397l1.446 1.479-.468 1.034c-.481 1.065-1.365 2.225-1.694 2.225-.103 0-.306-.148-.452-.33zm10.512-1.17c-.36-.242-.696-.472-.747-.511-.051-.04.098-.343.33-.676.434-.62.55-1.703.264-2.45-.103-.268-.484-.419-1.058-.419h-.898l-.004-1.653c-.006-2.183-.746-3.547-2.367-4.366-.649-.327-1.264-.746-1.367-.93-.166-.297-.697-4.014-1.155-8.092-.21-1.875.292-1.728 1.015.297.527 1.475.527 1.508.031 2.056-.501.554-.5.556.167.389.55-.138.727-.043.99.533.286.63.25.756-.347 1.226-.822.647-.891 1.202-.079.633.714-.5.987-.504 1.618-.026.466.353.459.415-.199 1.536-.976 1.666-.85 1.752.454.312l1.138-1.256.707.463.706.463-.918 1.203c-1.265 1.656-1.153 1.995.216.653.624-.613 1.24-1.114 1.372-1.114.13 0 .506.253.836.563l.598.562 1.534-.866c1.583-.893 1.595-.782.095.89-.802.893-2.567 1.854-3.06 1.665-.192-.074-.418.044-.502.263-.17.444.456.325 1.75-.332.97-.494.979-.49 1.423.573.254.607.505.87.714.748a71.28 71.28 0 0 0 1.844-1.211c.837-.562 1.521-.912 1.521-.776 0 .597-3.246 3.219-4.44 3.586-.687.211-1.036.392-.777.402.259.01 1.152-.265 1.984-.61 2.062-.859 2.704-1.037 2.704-.754 0 .474-2.758 1.73-4.209 1.917l-1.48.19 1.29.035 1.29.034-.195.86c-.308 1.36-.292 1.856.063 1.98.182.063.33-.065.33-.285 0-.578.741-1.232 1.396-1.232.438 0 .492.071.245.318-.174.175-.317.747-.317 1.273 0 1.376-.817 2.171-2.133 2.076-.56-.04-1.104.011-1.207.114-.273.274-.437.238-1.165-.253zm.801-5.495c0-.28-.507-.397-.658-.153-.092.148.019.27.246.27s.412-.053.412-.117zM64.8 250.057c-.093-.15.13-.265.514-.265.372 0 .677.12.677.265 0 .145-.232.264-.514.264-.282 0-.587-.119-.677-.264zm3.687-1.607c-.306-.338-.473-.87-.436-1.389.052-.736-.09-.935-1.133-1.59-1.467-.92-1.544-1.336-.158-.847 1.116.394 1.347.32 1.347-.432 0-.637.225-.612 1.012.11l.649.595-.621-1.096c-.541-.954-.58-1.188-.295-1.813l.327-.717.553.703c.707.898.908.716.326-.297-.53-.925-.322-2.346.31-2.104.49.189.498-.084.013-.467-.505-.4-.834-2.014-.41-2.014.217 0 .235-.105.056-.33-.355-.45-.68-3.903-.366-3.903.474 0 1.595 3.867 1.903 6.56.292 2.565.647 3.494 1.334 3.494.157 0 .15.196-.019.512-.344.642-.351 2-.018 3.162.23.802.18.963-.493 1.592l-.748.699-.421-.734c-.547-.952-1.094-.93-1.504.06-.39.94-.55.973-1.208.246zm.414-2.098c0-.145-.052-.264-.117-.264-.064 0-.19.119-.28.264-.09.146-.037.265.117.265s.28-.12.28-.265zm-4.381 1.712c-.498-.391-.494-.402.127-.33.352.04.69.222.75.404.148.45-.255.416-.877-.074z" id="path5666" fill="#212121" stroke-width=".07"></path></g></g></svg>