<svg width="93" height="93" xmlns="http://www.w3.org/2000/svg" viewBox="0 0 24.643 24.689"><title>sophie2 race magical creature</title><g fill="#212121" class="nc-icon-wrapper"><g id="layer1" transform="translate(39.804 -209.068)"><path d="M-29.565 233.587c-2.195-.349-5.068-1.875-6.726-3.574-6.931-7.1-3.052-18.948 6.797-20.761 5.182-.954 10.653 1.88 13.025 6.748 2.367 4.858 1.478 10.24-2.317 14.035-2.98 2.98-6.688 4.202-10.78 3.552zm2.532-1.08a.453.453 0 0 0-.472-.473.453.453 0 0 0-.473.473c0 .277.196.472.473.472a.453.453 0 0 0 .472-.472zm-3.37-.477c.375-.003.383-.04.051-.25-.395-.25-.81.099-.776.651.01.146.077.116.15-.066.074-.182.332-.333.575-.335zm6.488-.133a.385.385 0 0 0-.496-.221.385.385 0 0 0-.22.496.385.385 0 0 0 .495.22.385.385 0 0 0 .22-.495zm-5.13-.855c-.005-.11-.232-.466-.505-.794-.4-.48-.769-.595-1.896-.595-1.637 0-1.515.288.448 1.055 1.408.55 1.967.645 1.953.334zm5.83-.753l1.19-.611-1.49-.013c-1.3-.01-1.546.072-1.919.64-.235.359-.427.718-.427.799 0 .254 1.409-.18 2.646-.815zm-3.969-.372c0-.145-.186-.264-.412-.264-.227 0-.34.119-.25.264.09.146.276.265.413.265.137 0 .25-.119.25-.265zm-4.22-2.098c-.452-.573-1.415-1.536-2.138-2.142l-1.315-1.1v.933c0 .513.116 1.239.258 1.612.348.916 1.767 1.735 3.006 1.736l1.014.001-.824-1.04zm5.245.684c.226-.273.125-.58-.431-1.313-.4-.527-.786-.962-.859-.967-.358-.026-1.565 1.856-1.424 2.223.201.525 2.289.569 2.714.057zm4.405-.061c1.032-.49 1.783-1.877 1.664-3.074l-.082-.83-1.524 1.396c-.838.767-1.77 1.74-2.069 2.16l-.545.765h.838c.461 0 1.234-.188 1.718-.417zm-7.977-2.03c-.212-1.384-.196-1.365-.873-1.003-.551.295-.55.3.176 1.212.402.503.762.915.8.915.038 0-.008-.506-.103-1.124zm1.707-1.36c-.39-.75-.35-.725-.842-.536-.308.118-.435.491-.435 1.285 0 1.484.222 1.631.956.636.498-.674.557-.93.32-1.385zm2.424.566c.002-.546-.046-.992-.107-.992s-.297-.072-.526-.16c-.284-.109-.498.062-.681.543-.218.573-.161.844.311 1.482.681.921.996.647 1.003-.873zm1.42-.127c-.253-.185-.542-.336-.642-.336-.214 0-.501.965-.506 1.703-.003.45.095.418.802-.26.744-.712.77-.797.346-1.107zm-12.05-1.97c-.336-.26-.713-.474-.838-.477-.309-.008.012 1.196.703 2.64l.57 1.19.088-1.442c.076-1.251.007-1.504-.523-1.912zm18.15 1.003c.242-.71.386-1.345.32-1.41-.064-.065-.426.084-.802.33-.601.395-.684.629-.684 1.933 0 1.336.036 1.431.364.961.2-.287.562-1.103.803-1.814zm-20.3.052c-.085-.21-.147-.148-.16.16-.012.279.05.435.139.347.088-.088.097-.316.02-.507zm6.938-.016c.257-.685-.138-.95-1.43-.963l-.794-.008.916.783c.504.43.954.783 1 .783.047 0 .186-.268.308-.595zm1.565-.295c.12-.609-.667-.547-1.002.079-.394.736-.346.82.322.574.327-.12.633-.415.68-.653zm2.958-.04c0-.426-.725-.72-.935-.379-.087.14-.08.499.014.796.137.432.247.478.546.23.206-.171.375-.462.375-.647zm2.922.159c-.162-.304-.47-.552-.683-.552-.61 0-.452.786.208 1.036.757.286.841.2.475-.484zm2.247-.763c-.153-.152-1.994.192-1.994.373 0 .075.13.38.288.676.282.528.303.524 1.055-.197.423-.404.715-.787.65-.852zm5.211.516c-.588-.137-.94.584-.383.783.285.102.514.003.616-.264.1-.261.009-.463-.233-.52zm-21.312.175c-.085-.211-.147-.149-.16.16-.011.278.051.435.139.347.088-.088.097-.316.02-.507zm9.08-.496c0-.136-.12-.249-.265-.249-.146 0-.265.186-.265.413 0 .227.12.339.265.249.146-.09.265-.276.265-.413zm3.175.148a.398.398 0 0 0-.397-.397c-.689 0-.466.522.33.773.037.012.067-.157.067-.376zm-5.048-1.153c.215-.4.14-.548-.407-.797-.691-.315-.95-.248-1.773.46-.464.399-.464.42 0 .602.916.361 1.91.24 2.18-.265zm.814.095c0-.218-.047-.397-.104-.397-.057 0-.172.179-.256.397-.084.218-.037.397.104.397.14 0 .256-.179.256-.397zm4.234.132c0-.145-.053-.264-.117-.264s-.19.119-.28.264c-.09.146-.038.265.116.265s.28-.12.28-.265zm.889-.132c-.084-.218-.259-.397-.389-.397s-.236.179-.236.397c0 .218.175.397.389.397.236 0 .329-.155.236-.397zm2.658.162c.46-.18.433-.25-.308-.778-.655-.466-.946-.528-1.497-.319-.747.284-.758.303-.523.913.17.444 1.414.542 2.328.184zm-11.157-.823c.543-.364.987-.721.986-.794-.005-.304-2.127-1.607-2.371-1.456-.297.184-.368 2.589-.084 2.872.216.217.21.22 1.469-.622zm13.166-.794c0-1.61-.49-1.853-1.737-.858-.5.399-.905.785-.9.858.006.073.432.452.948.843 1.26.956 1.689.742 1.689-.843zm-6.51.463c.425-.68-.117-1.39-1.06-1.39-.597 0-.784.134-.851.61-.177 1.252 1.25 1.834 1.91.78zm-3.215-.33c-.133-.696-.467-.818-1.115-.408-.437.276-.41.314.521.734.364.164.675.307.691.317.016.01-.027-.28-.097-.644zm-8.38-.19c0-.26-.188-.472-.416-.472-.23 0-.433.212-.452.472-.021.283.145.473.416.473.257 0 .452-.204.452-.473zm2.494.004c0-.427-.078-.504-.294-.288-.162.162-.214.424-.117.583.274.442.411.344.411-.295zm11.624.208c.249-.3.197-.411-.26-.556-.632-.2-1.203.195-.927.643.248.4.817.358 1.187-.087zm8.107-.212c0-.26-.188-.472-.416-.472-.23 0-.433.212-.452.472-.021.283.145.473.416.473.257 0 .452-.204.452-.473zm-12.935-.257c-.085-.211-.147-.149-.16.16-.012.279.05.435.139.347.088-.088.097-.316.02-.507zm10.138.33c0-.137-.12-.323-.265-.413-.145-.09-.264.022-.264.25 0 .226.119.412.264.412.146 0 .265-.112.265-.25zm-12.217-.701c.867-.608.302-1.167-1.177-1.167-1.34 0-1.451.266-.43 1.028.885.66.864.659 1.607.139zm8.579-.237c.4-.352.727-.705.727-.785 0-.08-.582-.145-1.294-.145-.957 0-1.338.113-1.462.435-.092.239-.134.46-.094.49.227.173 1.15.646 1.263.646.073 0 .46-.288.86-.64zm-7.342-.666c-.09-.145-.283-.264-.429-.264-.145 0-.19.119-.1.264.09.146.282.265.427.265.146 0 .191-.119.102-.265zm2.441.105c-.087-.088-.316-.097-.507-.02-.21.084-.148.146.16.16.28.01.435-.052.347-.14zm2.586-.105c.09-.145-.022-.264-.25-.264-.226 0-.412.119-.412.264 0 .146.112.265.25.265.136 0 .322-.119.412-.265zm-11.444-.742c.344-.296.458-.778.443-1.878l-.02-1.48-.773 1.587c-1.144 2.35-1.025 2.952.35 1.77zm18.332.015c-.1-.4-.437-1.264-.75-1.918l-.57-1.191-.086 1.401c-.074 1.2 0 1.475.523 1.91.846.705 1.094.648.883-.202zm-13.99-.063c.44-.003.538-.124.43-.537-.217-.832-.451-.827-1.421.034-.845.75-.86.792-.242.654.364-.08.918-.149 1.232-.15zm2.784-.325c-.19-.19-.313-.206-.313-.04 0 .15.08.353.177.45.097.097.238.115.313.04.075-.076-.004-.278-.177-.45zm1.903-.273c-.468-.903-.515-.903-.834.01-.241.694-.212.738.477.729.715-.01.724-.028.357-.738zm4.918.076c-.957-.818-1.313-.97-1.313-.561 0 .133-.069.423-.153.643-.149.387.02.443 1.995.659.213.023-.025-.31-.529-.74zm-7.663.131c0-.397-.999-1.083-1.234-.847-.073.072.002.38.164.683.338.631 1.07.744 1.07.164zm4.234.132c0-.141-.179-.188-.397-.104-.219.083-.397.199-.397.256 0 .057.178.104.397.104.218 0 .397-.116.397-.256zm1.6-.296c.162-.304.236-.61.163-.683-.235-.236-1.234.45-1.234.847 0 .58.732.467 1.07-.164zm-13.855-.292c-.085-.21-.147-.148-.16.16-.011.28.051.435.139.348.088-.088.097-.317.02-.508zm21.184.105c-.254-.052-.463-.224-.463-.383 0-.16-.062-.227-.138-.15-.313.312.197.968.623.8.403-.16.402-.182-.022-.267zm-21.713-.37c-.085-.21-.147-.148-.16.16-.012.28.05.436.139.348.088-.088.097-.316.02-.507zm10.304-.068c.242-.522.205-.794-.195-1.453-.271-.445-.613-.81-.761-.81-.396 0-.338 2.574.062 2.735.543.22.583.198.894-.472zm2.461-.618c-.01-.396-.108-.946-.217-1.224-.18-.46-.25-.432-.778.31-.492.691-.534.919-.275 1.487.249.547.396.622.797.408.303-.162.484-.538.473-.981zm5.115-1.724c-.615-1.056-1.632-1.564-2.916-1.458l-.99.082 2.117 2.117 2.117 2.116.082-1.005a3.27 3.27 0 0 0-.41-1.852zm-12.162.687c.976-.976 1.774-1.869 1.774-1.985 0-.115-.488-.21-1.085-.21-.88 0-1.254.169-1.984.9-.73.73-.9 1.103-.9 1.984 0 .596.095 1.084.21 1.084.117 0 1.01-.798 1.985-1.773zm2.934.233c.195-1.272-.017-1.28-.902-.038l-.56.788.614.232c.337.128.627.216.643.197.016-.02.109-.55.205-1.18zm5.845.758c.064-.105-.23-.596-.655-1.093-.76-.89-.772-.893-.78-.241-.013 1.241.26 1.8.807 1.657.28-.074.563-.219.628-.323zm-2.69-1.603c.41-.579.67-1.171.58-1.318-.09-.146-.745-.265-1.456-.265-.71 0-1.365.12-1.455.265-.152.245 1.154 2.37 1.455 2.37.073 0 .468-.474.877-1.052zm-3.008-3.079c.304-.386.5-.754.436-.818-.187-.188-2.886.693-3.447 1.125-.474.364-.399.395.973.395 1.293 0 1.558-.091 2.038-.702zm2.45.384c-.247-.246-.388-.246-.635 0-.247.247-.176.318.317.318.494 0 .565-.07.318-.318zm4.974.191c0-.221-1.95-1.124-2.844-1.317-.984-.212-1.042-.097-.397.79.386.531.695.639 1.852.646.764.005 1.39-.05 1.39-.119zm-8.306-2.18c-.403-.103-.43-.174-.133-.362.296-.187.277-.234-.094-.237-.47-.004-.608.292-.286.613.097.097.365.162.595.146.3-.022.277-.067-.082-.16zm6.217-.052c-.304-.192-.292-.256.072-.365.403-.121.402-.13-.006-.093-.617.054-.785.701-.182.696.383-.003.408-.053.116-.238zm-2.787-.552c0-.228-.212-.415-.472-.415s-.473.187-.473.415c0 .23.213.416.473.416s.472-.187.472-.416z" id="path5772" fill="#212121" stroke-width=".07"></path></g></g></svg>