<svg width="79" height="80" xmlns="http://www.w3.org/2000/svg" viewBox="0 0 20.904 21.414"><title>sophie2 race beast</title><g fill="#212121" class="nc-icon-wrapper"><g id="layer1" transform="translate(2.765 -210.287)"><path d="M.22 231.354c-.195-.236-.528-.43-.74-.43-.212 0-.737-.351-1.167-.781-.75-.751-.775-.85-.609-2.471.114-1.105.066-1.89-.137-2.27-.76-1.418-.15-5.552 1.157-7.839.332-.582.814-1.699 1.07-2.481.433-1.323.435-1.487.036-2.324-.587-1.232-.558-1.27.476-.632l.905.56.418-.597c.23-.328.417-.808.417-1.067 0-.259.11-.47.246-.47.356 0 1.327 1.305 1.509 2.027.198.79.388.778 1.176-.078.63-.683 3.496-2.213 4.147-2.214.182 0 .33.246.33.547 0 .428.117.51.533.378.7-.222 3.438-.218 3.66.005.095.096-.108.402-.451.68-.887.72-.503.628.65-.155 1.142-.775 2.81-1.326 3.367-1.112.578.222 1.069 3.607.888 6.131-.129 1.81-.612 3.833-1.376 5.763-.14.355-.05.463.39.463.315 0 .5.12.41.265-.09.145-.39.264-.668.264s-.632.239-.788.53c-.226.422-.2.529.123.529.567 0 .512.525-.056.548-.393.015-.383.05.066.229.464.185.357.318-.877 1.09l-1.406.879.678.355c.958.502.842.868-.276.868-.659 0-.912.102-.819.33.508 1.243.554 1.19-.897 1.05-.99-.095-1.323-.048-1.189.17.13.21-.206.302-1.11.302-.714 0-2 .25-2.86.557-2.149.767-6.711 1.02-7.225.4zm1.297-.43c.484-.312.066-.312-.661 0-.35.15-.394.233-.133.243.219.008.576-.101.794-.242zm6.73-.765c.154-.249-.43-.557-1.055-.557-.217 0-.304.162-.214.397.166.432 1.033.541 1.269.16zm-9.111-.542c0-.312-.516-.646-.706-.456-.19.19.145.705.457.705a.25.25 0 0 0 .249-.249zm11.368-.527c.394-.736.4-.732-1.045-.547-1.445.185-2.088.53-.99.53.38 0 .763.119.853.264.267.432.888.302 1.182-.247zm-2.58-2.153c.625-.842.418-1.948-.475-2.533-.585-.383-.68-.351-1.82.6-.66.554-1.201 1.084-1.201 1.179 0 .095.251.493.56.884.74.942 2.186.878 2.936-.13zm-6.13-2.296c.4-.67.63-.864.708-.595.063.218.167.56.23.76.172.537 1.96-2.99 1.956-3.855-.002-.408-.12-.92-.26-1.139-.207-.32-.258-.279-.26.21-.003.35-.507 1.143-1.19 1.874-1.07 1.144-1.99 2.745-1.99 3.464 0 .476.196.301.805-.72zm-1.73-2.185c.265-.292.968-.68 1.562-.86l1.082-.329-.926-.14-.926-.142.91-.487c1.089-.582 1.847-1.434 1.86-2.088.007-.428-.08-.414-.852.145-.473.343-1.174.779-1.558.97-.691.342-.964.728-1.605 2.272l-.33.793-.089-1.301c-.049-.716-.245-1.524-.436-1.797-.333-.475-.352-.472-.499.088-.084.32-.035.801.108 1.069.202.376.166.486-.157.486-.319 0-.243.219.321.926.864 1.082.904 1.092 1.535.395zm15.642-.24c1.03-.628 1.686-2.408 1.686-4.576 0-1.14-.106-1.59-.401-1.703-1.127-.432-3.395 1.562-4.517 3.97-.767 1.65-.814 2.151-.175 1.887.831-.343 2.153-.6 2.304-.45.082.082-.112.426-.43.764l-.577.615.641-.001c.353 0 1.014-.228 1.469-.505zm-14.593-4.124l.51-.793-.69.619c-.64.573-.7.583-.805.132-.183-.777-.727.787-.727 2.089v1.086l.6-1.17c.332-.643.832-1.526 1.112-1.963zm10.723-4.762c.342-.364.562-.661.49-.661-.074 0-.413.297-.755.661-.341.364-.561.661-.489.661.073 0 .412-.297.754-.661z" id="path5789" fill="#212121" stroke-width=".07"></path></g></g></svg>