<svg width="84" height="54" xmlns="http://www.w3.org/2000/svg" viewBox="0 0 22.324 14.497"><title>sophie2 category seafood</title><g fill="#212121" class="nc-icon-wrapper"><g id="layer1" transform="translate(-17.257 -355.454)"><path d="M35.378 369.144c-.39-.465-.815-1.12-.943-1.456-.184-.484-.452-.62-1.297-.657-2.356-.105-2.261-.128-2.168.539.098.695.095.694-1.767-.568-.935-.633-3.246-1.494-4.05-1.508-.096-.003-.112.235-.035.526.218.835-.219.63-1.644-.773a164.72 164.72 0 0 0-3.103-2.948c-1.715-1.584-3.114-3.74-3.114-4.798 0-.36.207-.477.84-.477h.84l-.606-.644-.604-.644.993-.186c1.393-.262 5.06.042 6.441.533.637.227 1.768.413 2.514.415 2.211.006 3.315.511 2.017.923-.29.092-.53.253-.53.358 0 .34 2.503 2.069 3.532 2.441 1.168.423 1.822 1.037 1.103 1.037-.573 0-.435.378.703 1.932.877 1.197.886 1.202 2.204 1.067.727-.075 1.672 0 2.1.165l.777.3-.807.491c-1.315.8-2.07 2.082-2.07 3.519 0 1.493-.33 1.596-1.326.413zm-12.353-6.937c1.075-.562 2.075-1.728 2.706-3.155.75-1.694.471-1.9-.363-.268-.642 1.255-1.769 2.486-3.077 3.36-.798.533-.256.58.734.063zm-.3-4.804c.22-.575-.34-1.115-.74-.714-.34.338-.13 1.129.299 1.129.154 0 .353-.187.44-.415z" id="path6172" fill="#212121" stroke-width=".07"></path></g></g></svg>