<svg width="80" height="102" xmlns="http://www.w3.org/2000/svg" viewBox="0 0 21.34 27.02"><title>sophie2 tool pickaxe</title><g fill="#212121" class="nc-icon-wrapper"><g id="layer1" transform="translate(14.962 -368.048)"><path d="M4.398 394.872c-.13-.167-1.818-3.22-3.75-6.786-1.93-3.565-4.09-7.522-4.798-8.792-.708-1.271-1.287-2.43-1.287-2.575 0-.222 1.847-1.333 2.216-1.333.066 0 1.61 2.888 3.431 6.416a4957.2 4957.2 0 0 0 4.851 9.38c1.508 2.902 1.53 2.973 1.012 3.357-.751.557-1.397.686-1.675.333zm-19.36-14.018c0-.598 2.874-4.11 4.383-5.357 2.781-2.297 6.7-4.456 11.473-6.321 3.346-1.307 3.865-1.392 4.24-.693.232.435.223.584-.042.662-.188.056-1.354.372-2.591.703-2.797.748-6.288 2.049-6.524 2.43-.108.175-.031.227.196.132 2.933-1.224 4.01-1.62 5.952-2.182 2.421-.701 3.55-.83 3.55-.403 0 .143-.327.33-.727.417-1.537.333-4.516 1.258-6.482 2.014-2.089.802-2.32 1.074-1.778 2.088.241.45.1.596-1.18 1.223-1.424.699-1.465.703-1.999.22-.506-.458-.606-.464-1.399-.082-1.155.556-3.699 2.463-5.55 4.16-.939.86-1.522 1.24-1.522.99zm6.77-8.548c-.201-.523-.325-.409 1.357-1.253 1.352-.68 1.385-.683 1.659-.172.247.461.126.6-1.04 1.19-1.553.788-1.755.812-1.977.235z" id="path5223" fill="#212121" stroke-width=".07"></path></g></g></svg>