<svg width="90" height="73" xmlns="http://www.w3.org/2000/svg" viewBox="0 0 24.013 19.394"><title>sophie2 race apparition</title><g fill="#212121" class="nc-icon-wrapper"><g id="layer1" transform="translate(-32.311 -209.12)"><path d="M39.247 228.387c-.104-.104-.189-.764-.189-1.467 0-1.555-.334-1.651-.762-.22-.285.95-.404 1.057-1.167 1.053-1.342-.006-1.602-.302-1.422-1.62.155-1.14.142-1.163-1.072-1.947-1.858-1.2-2.324-1.986-2.324-3.922 0-2.123.966-4.136 3.047-6.354 3.387-3.609 8.062-5.262 13.219-4.674 2.5.285 3.18.64 4.186 2.187.393.604 1.387 1.78 2.21 2.614.821.834 1.426 1.583 1.344 1.665-.082.082-.517.15-.967.15-.45 0-1.219.114-1.71.255-.822.236-.987.174-2.105-.781-.667-.57-1.255-.995-1.305-.945-.051.05.385.723.968 1.494 1.628 2.151 2.193 5.404 1.224 7.045-.906 1.534-2.82 2.403-6.286 2.854-1.218.159-1.257.191-1.257 1.055 0 1.379-.707 1.915-2.05 1.555-.503-.134-.596-.34-.596-1.319 0-.835-.107-1.16-.382-1.16-.269 0-.407.375-.463 1.257-.079 1.23-.1 1.259-1.016 1.336-.515.043-1.02-.006-1.125-.11zm7.16-5.129c.977-.595 1.446-1.569 1.33-2.76-.112-1.132-1.214-1.652-2.614-1.232-1.76.527-2.506 2.086-1.838 3.844.214.563.428.678 1.257.678.55 0 1.388-.239 1.865-.53zm-5.825.044c.625.625.779-.07.382-1.728l-.406-1.698-.763 1.564c-.8 1.64-.789 2.272.033 1.833.31-.167.569-.157.754.029zm-2.11-.897c.717-1.501-.563-3.908-2.077-3.908-.866 0-1.183.365-1.41 1.626-.211 1.175.17 2.094 1.117 2.69 1.002.63 1.953.467 2.37-.408z" id="path5806" fill="#212121" stroke-width=".07"></path></g></g></svg>