<svg width="82" height="89" xmlns="http://www.w3.org/2000/svg" viewBox="0 0 21.86 23.568"><title>sophie2 race golem</title><g fill="#212121" class="nc-icon-wrapper"><g id="layer1" transform="translate(-29.184 -242.863)"><path d="M40.437 265.424c-.379-.646-.858-1.315-1.066-1.488-.322-.267-.275-.449.308-1.213.807-1.059 1.477-1.137 3.08-.36l1.115.541-.767-.647c-.421-.356-1.124-.719-1.56-.806-.776-.155-.784-.172-.318-.687.78-.862 4.184-.638 5.557.367.451.33.464.423.12.837-.363.438-4.776 4.023-5.465 4.44-.2.121-.566-.237-1.004-.984zm-5.917-2.976c-1.302-1.579-2.258-5.01-2.274-8.165-.013-2.368.06-2.785.687-3.969.82-1.544 1.375-2.085 3.532-3.436.874-.547 2.2-1.57 2.948-2.273.748-.702 1.675-1.356 2.059-1.453.718-.18 4.386.83 4.386 1.207 0 .195-3.513 1.854-3.926 1.854-.12 0-1.554.88-3.188 1.954-1.904 1.252-3.275 2.366-3.816 3.101-.81 1.102-.844 1.251-.844 3.67 0 2.834.69 5.545 1.846 7.248.82 1.207.82 1.225.026 1.225-.417 0-.921-.338-1.436-.963zm-1.314-.088c-.995-.995-2.297-4.1-2.708-6.459-.626-3.595.315-6.468 2.652-8.1a7.966 7.966 0 0 0 2.144-2.32c.95-1.619 1.74-2.1 3.937-2.4l1.592-.218-1.12.947c-.615.522-1.357 1.193-1.649 1.492-.292.298-1.1.872-1.798 1.274-1.909 1.1-2.99 2.16-3.742 3.67-1.305 2.619-.74 8.07 1.192 11.512.872 1.553.681 1.783-.5.602zm3.47.191c-1.352-1.485-2.195-4.484-2.195-7.81v-2.454l1.087-1.18c1.48-1.604 5.151-4.001 7.537-4.92 1.08-.416 2.315-.938 2.745-1.16.753-.39.814-.374 1.73.43 1.382 1.214 2.17 2.873 1.364 2.873-.91 0-8.235 2.401-8.44 2.767-.126.224-.43.41-.678.41-.248.002-1.073.36-1.835.797-1.527.876-1.561.954-1.758 3.964-.11 1.676-.027 2.26.537 3.77.367.982.826 1.786 1.02 1.786.194 0 .602-.405.907-.899.306-.494.843-1.087 1.193-1.316.351-.23.676-.689.723-1.02.068-.478.304-.635 1.144-.763l1.058-.16-1.075-.038c-.985-.034-1.113.041-1.521.897-.245.514-.629 1.004-.853 1.09-.223.086-.584.5-.8.918-.563 1.089-1.004.945-1.52-.495-.561-1.565-.565-2.254-.017-3.409.518-1.092.948-1.346 2.792-1.653l1.407-.234-1.36-.031c-1.346-.03-1.361-.04-1.54-.991-.1-.538-.065-1.075.08-1.22.352-.352 2.688-.6 2.688-.286 0 .137.175.48.39.762.312.41.304.287-.044-.62-.26-.68-.337-1.225-.192-1.362.43-.405 8.026-2.444 8.353-2.242.212.131.898 2.208 1.16 3.517.178.883.17.893-.576.681-.914-.259-7.146-.33-6.502-.074.25.098 1.618.188 3.042.198 1.616.012 2.93.162 3.502.4.843.353.901.45.75 1.257-.09.481-.253.974-.362 1.095-.11.121-2.637.242-5.618.27-4.22.037-5.52.13-5.87.421-.55.457-1.302 1.862-1.102 2.062.241.24.952-.491.952-.98 0-.827.88-1.331 2.32-1.331.744 0 1.427.12 1.517.265.09.146.425.207.743.135.925-.21 5.814-.33 6.455-.159l.585.155-.491 1.092c-.626 1.393-.881 1.536-1.848 1.036-.433-.224-1.002-.406-1.264-.404-.262.002.09.27.783.595l1.259.592-.636.79-.636.79-.951-.454c-.524-.25-1.727-.578-2.675-.729-1.52-.243-1.839-.215-2.714.236-.545.282-1.444 1.058-1.997 1.725-1.139 1.375-1.906 1.547-2.752.618zm9.513-4.342a1.021 1.021 0 0 0-.662 0c-.182.073-.033.133.331.133s.513-.06.33-.133zm-15.563.84c-1.525-3.134-1.8-5.222-1.017-7.714.402-1.279.836-1.905 2.481-3.578 1.097-1.116 2.212-2.286 2.48-2.602.266-.315.549-.509.628-.43.293.293-1.002 1.92-2.348 2.951-1.988 1.523-2.867 3.297-2.867 5.788 0 2.138.507 4.369 1.472 6.482 1.14 2.497.469 1.77-.829-.897z" id="path5649" fill="#212121" stroke-width=".07"></path></g></g></svg>