<svg width="88" height="90" xmlns="http://www.w3.org/2000/svg" viewBox="0 0 23.385 23.827"><title>sophie2 race dragon</title><g fill="#212121" class="nc-icon-wrapper"><g id="layer1" transform="translate(-108.312 -200.686)"><path d="M114.38 223.992c-2.378-1.08-3.972-4.803-3.013-7.035.194-.451.23-.41.246.283.034 1.478.778 3.422 1.618 4.226.735.705.99.783 2.549.783 1.73 0 1.733 0 2.871-1.259 1.764-1.948 2.013-4.042.808-6.818-.532-1.228-.526-.592.01.985.693 2.044.11 5.858-.7 4.576-.208-.328-.25-.309-.254.11-.004.457-.046.467-.467.099-.255-.223-.82-.594-1.257-.824l-.794-.42.728-.01c.4-.006.728-.11.728-.233 0-.122-.328-.383-.728-.58-.694-.34-.7-.362-.146-.456.32-.054.844.042 1.165.214.506.271.56.253.41-.137-.095-.247-.172-1.52-.172-2.829 0-2.122-.05-2.37-.463-2.291-.255.047-.582.365-.728.706-.256.599-.347.616-2.84.518-3.061-.12-3.62-.441-1.997-1.15.623-.273 1.417-.71 1.764-.97.456-.344 1.118-.478 2.381-.484 1.33-.006 1.638-.073 1.283-.28-.258-.15-.674-.239-.926-.197-.252.041-.615-.023-.807-.143-.191-.12-.762-.218-1.267-.218-.789 0-.872-.057-.588-.4.24-.287.676-.365 1.577-.278l1.247.12-.407-.62c-.458-.7-.745-.825-.515-.225.116.303-.052.397-.706.397-.473 0-1.114.179-1.426.398-.527.368-.624.34-1.362-.397-.437-.437-.982-.795-1.211-.795-.23 0-.417-.215-.417-.479 0-.504-.911-1.637-1.317-1.637-.13 0-.178-.387-.106-.86.079-.51-.09-1.496-.414-2.425-.3-.86-.484-1.627-.408-1.703.077-.076.677.39 1.334 1.036.657.645 1.994 1.71 2.97 2.364 1.322.886 1.927 1.496 2.361 2.382.66 1.344.806 1.253.223-.141-.43-1.031-.427-1.035.503-.61.523.238.674.5.674 1.175 0 .547.242 1.144.653 1.611l.654.743.012-1.059c.008-.682.092-.933.236-.705.153.242.23.117.24-.397a13.15 13.15 0 0 1 .185-1.676c.162-.893.152-.907-.275-.397-.433.517-.44.513-.315-.205.112-.646.06-.713-.424-.559-.492.156-.471.078.19-.72.409-.494 1.087-1.462 1.507-2.154.421-.69.94-1.256 1.152-1.256.252 0 .628.76 1.08 2.182.382 1.2.765 2.362.853 2.58.137.34.097.345-.28.034-.389-.32-.443-.29-.46.264-.017.587-.033.594-.245.099-.176-.41-.232-.276-.246.595-.01.619.096 1.125.235 1.125.14 0 .401.49.581 1.09l.327 1.092.742-.831c.498-.557.742-1.12.742-1.71 0-.688.148-.947.681-1.19.375-.17.784-.247.908-.17.125.077.297.025.384-.115.132-.213 1.602-1.276 2.676-1.934.183-.112.244.09.172.578-.122.83-1.384 2.502-2.232 2.956-.501.268-.533.231-.401-.46.133-.7.118-.716-.229-.243-.204.28-.371.732-.371 1.004 0 .467.061.461 1.068-.105 1.317-.74 2.371-2.077 2.371-3.007 0-.49.455-1.176 1.515-2.287.833-.873 1.557-1.46 1.61-1.304.051.156-.166 1.065-.484 2.02-.318.955-.517 1.97-.442 2.253.089.34-.128.78-.635 1.287-.424.424-.77.956-.77 1.183 0 .226-.3.487-.666.579-.366.092-.897.461-1.18.82-.484.617-.55.63-1.113.236-.33-.23-.993-.42-1.475-.42-.806 0-.853-.044-.581-.551.162-.304.237-.61.166-.682-.072-.071-.208.117-.304.418-.095.301-.334.709-.53.905-.301.3-.16.339.887.238.92-.088 1.335-.01 1.592.299.305.368.237.414-.564.384-.501-.02-1.076.067-1.277.191-.201.125-.607.232-.902.24-.294.008-.595.126-.668.263-.076.143.657.264 1.72.285 1.549.03 2.17.192 3.791.99l1.94.953-1.014.281c-.557.155-1.887.282-2.956.283-1.698.001-1.96-.063-2.076-.51-.074-.28-.31-.578-.527-.661-.248-.095-.342-.029-.254.18.674 1.61 1.01 3.348.87 4.516-.137 1.163-.112 1.26.208.822.312-.426.317-.313.039.783-.18.705-.534 1.398-.788 1.54-.72.403-.8.054-.188-.807.566-.794.722-1.232.36-1.007-.11.068-.18-.669-.157-1.638l.042-1.761-.203 1.986c-.573 5.593-5.007 9.056-9.172 7.165zm7.871-6.708c-.403-.403-.904.098-.68.68.15.392.207.394.574.028.303-.304.33-.483.106-.708zm-.183-2.123c-.309-.173-.512-.141-.664.105-.294.476.295.82.753.44.294-.245.279-.34-.089-.545zm-.49-2.202c-.403-.436-.72.433-.335.915.233.291.317.269.454-.123.093-.264.039-.62-.12-.792zm.758-1.708c-1.07-2.217-1.017-1.756.083.715.397.893.755 1.54.794 1.437.04-.102-.355-1.07-.877-2.152zm-3.65.216c-.073-.182-.133-.033-.133.331s.06.513.133.33c.074-.181.074-.479 0-.66zm2.251-.404c-.359-.282-.457-.26-.594.132-.228.65.607 1.285.853.65.102-.265-.003-.58-.259-.782zm-2.503-1.445c-.064-.329-.118-.122-.12.46-.004.582.048.852.114.599.067-.253.069-.73.005-1.059zm1.896-.486c-.538-.333-.908.185-.491.687.322.39.373.387.601-.02.174-.31.14-.513-.11-.667zm1.008-.559c-.085-.21-.147-.148-.16.16-.012.28.05.435.139.348.088-.088.097-.317.02-.508zm-6.464-.81c-.233-.938-1.095-2.021-1.97-2.473-.805-.417-.834-.275-.13.634.207.266.311.27.465.021.134-.217.378-.027.75.583.616 1.01.68 1.301.285 1.301-.558 0-2.15-1.762-2.51-2.778-.328-.929-.375-.97-.385-.34-.013.808 1.24 2.392 2.502 3.161 1.028.628 1.172.612.993-.109zm5.185-.643c-.368-.443-.796.029-.566.626.106.278.224.29.507.055.286-.237.3-.39.06-.68zm5.059-.746c0-.145-.116-.086-.257.132-.141.219-.256.516-.256.662 0 .145.115.086.256-.132.141-.219.257-.516.257-.662zm2.235-.908c.437-.363.562-.819.22-.802-.11.005-.533.283-.943.618-.634.52-.667.604-.22.57.288-.02.712-.194.943-.386z" id="path2848" fill="#212121" stroke-width=".265"></path></g></g></svg>