<svg width="27" height="43" xmlns="http://www.w3.org/2000/svg" viewBox="0 0 7.27 11.583"><title>sophie2 race erde wiege</title><g fill="#212121" class="nc-icon-wrapper"><g id="layer1" transform="translate(86.092 -277.475)"><path d="M-84.523 288.27c-.163-.426-.06-1.01.229-1.3.767-.767 2.072-.093 2.072 1.07 0 1.217-1.851 1.402-2.301.23zm.821-3.668c0-1.096.23-1.48.888-1.48 2.094 0 2.877-2.989 1.04-3.971-.77-.413-1.397-.4-2.482.049-1.756.727-2.413.263-1.26-.89 1.153-1.152 4.406-1.102 5.722.089 1.957 1.77.74 6.203-1.703 6.203-.416 0-.883.333-1.04.74-.48 1.254-1.165.82-1.165-.74z" id="path81" fill="#212121" stroke-width=".493"></path></g></g></svg>