<svg width="75" height="81" xmlns="http://www.w3.org/2000/svg" viewBox="0 0 19.896 21.665"><title>sophie2 race jellyfish</title><g fill="#212121" class="nc-icon-wrapper"><g id="layer1" transform="translate(-88.057 -276.862)"><path d="M91.6 298.26c-.091-.15.157-.834.552-1.522.395-.688 1.153-2.025 1.685-2.97 1.89-3.363 2.902-4.763 3.437-4.763.284 0 .593.122.686.273.157.254-3.073 6.034-4.613 8.254-.668.962-1.41 1.271-1.746.727zm4.09-.146c-.366-.44-.033-1.227 2.284-5.405 1.157-2.087 1.533-2.502 2.076-2.294.688.264.488 1.105-.938 3.952-2.074 4.144-2.608 4.728-3.422 3.747zm6.856-2.068c-.925-.46-1.324-1.438-1.137-2.784.274-1.972.535-2.43 1.233-2.165.381.145.577.412.53.722-.041.271-.144.924-.229 1.45-.087.543-.037 1.031.117 1.126.544.336 1.08-.17 1.639-1.548.623-1.535 1.302-1.953 1.972-1.213.508.561.545.985.05.575-.463-.384-.759-.019-1.18 1.456-.586 2.053-1.769 2.993-2.995 2.381zm-12.75-.868c-.454-.454-.015-1.413 1.992-4.349 1.718-2.513 2.28-3.154 2.712-3.093 1.023.147.714 1.096-1.424 4.378-2.006 3.08-2.657 3.687-3.28 3.064zm11.642-5.645c-2.689-.91-6.372-2.695-7.28-3.53-1.478-1.358-1.999-3.536-1.265-5.291.542-1.298 2.63-2.945 4.418-3.487 1.994-.604 4.683-.44 6.296.384 1.3.663 3.29 2.598 3.913 3.802.68 1.315.533 4.881-.266 6.457-1.295 2.554-2.318 2.847-5.816 1.665zm3.98-1.124c1.158-1.266 1.47-2.29 1.343-4.413-.144-2.442-.63-3.441-2.19-4.515-2.638-1.815-5.383-2.148-7.875-.955-1.987.951-2.882 2.113-2.935 3.81-.073 2.352 1.521 3.673 6.971 5.776 2.72 1.05 3.927 1.127 4.686.297zm-3.363-.822a235.65 235.65 0 0 1-3.167-1.246c-3.857-1.544-5.486-3.731-3.893-5.228.782-.735.975-.724.975.054 0 .87.564 1.256 1.903 1.3 1.608.054 2.595-.647 2.595-1.845 0-.502-.124-1.145-.276-1.428-.652-1.218 1.729-.859 3.681.556 1.789 1.296 2.203 2.173 2.077 4.396-.141 2.49-.778 3.644-2.056 3.729-.502.033-1.33-.096-1.839-.288zm2.382-1.096c.262-.317.262-.477 0-.794-.704-.848-1.882-.221-1.492.794.084.218.38.397.657.397.278 0 .653-.179.835-.397zm-2.117-.677c0-.137-.179-.249-.397-.249-.41 0-.526.312-.228.61.212.212.625-.027.625-.361zm-13.876 2.603c-.633-.905-.494-1.87.448-3.116.473-.626.98-1.302 1.125-1.503.187-.258.149-.438-.132-.618-.324-.206-.293-.253.166-.257.31-.002.714.178.899.401.28.338.197.598-.496 1.563-.877 1.22-1.165 2.269-.672 2.445.161.057.798-.316 1.414-.831 1.295-1.083 1.48-1.123 1.861-.411.23.43.15.658-.454 1.274-1.722 1.76-3.371 2.177-4.159 1.053z" id="path5581" fill="#212121" stroke-width=".07"></path></g></g></svg>