<svg width="82" height="92" xmlns="http://www.w3.org/2000/svg" viewBox="0 0 21.776 24.427"><title>sophie2 race ghost</title><g fill="#212121" class="nc-icon-wrapper"><g id="layer1" transform="translate(16.186 -308.583)"><path d="M-3.753 332.89c-2.982-.606-5.586-3.417-6.446-6.958-.156-.645-.085-.742.689-.944.855-.223.863-.216.944.79.116 1.439.994 1.997 2.455 1.56.796-.24 1.165-.543 1.493-1.231.327-.686.557-.876.918-.762.27.086 1.104-.162 1.899-.564 1.388-.703 1.44-.709 2.639-.3.838.285 1.468.346 2.001.193.892-.256 1.081.002 1.081 1.47 0 .89-.325 1.184-.677.615-.104-.17-.467-.216-.875-.113-.383.097-1.27.22-1.97.271-.701.052-1.433.227-1.628.388-.867.72-.099 3.805 1.057 4.244.994.378.817 1.005-.338 1.194-1.93.315-2.325.333-3.242.147zm6.193-1.542l.166-.728-.51.596c-.28.327-.643.595-.806.595-.547 0-.614-.808-.114-1.378.462-.526.44-.523-.345.046-.552.4-1.007.544-1.323.42-.421-.167-.348-.31.576-1.121l1.058-.93-1.02.421c-1.526.63-2.139.017-.766-.767.633-.36.647-.393.108-.247-.503.136-.602.076-.526-.321.075-.393.429-.521 1.81-.656 1.855-.182 2.429-.01 3.033.913.468.714.173 3.269-.421 3.645-.736.466-1.093.276-.92-.488zm-18.182-.108c-.563-.315-.6-2.003-.06-2.773.212-.303 1.045-.884 1.851-1.292 1.236-.625 1.568-.695 2.12-.443.36.164.732.602.825.972.295 1.178-.882 1.985-1.457.998-.232-.4-.27-.368-.277.232-.004.383-.175.834-.378 1.002-.293.244-.486.16-.926-.4-.62-.789-.77-.528-.18.314.414.591.3.88-.526 1.337-.357.198-.701.216-.992.053zm.511-1.192c-.346-.638-.408-.67-.417-.208-.006.298.13.683.302.855.5.5.558.17.115-.647zm7.913-4.136c-.112-.26-.14-.87-.062-1.353l.143-.88-1.972.627c-1.94.616-3.54.812-3.54.433 0-.106.477-.628 1.059-1.16.883-.807 1.059-1.137 1.062-1.99.012-2.957 1.5-6.296 3.392-7.607 1.199-.83 1.542-.862 1.764-.161.71 2.238 4.962 4.284 7.247 3.488.783-.273.815-.253 1.088.694.155.537.355 1.553.445 2.259.154 1.213.227 1.31 1.33 1.784 1.314.563 1.283.812-.196 1.567-1.163.593-2.624.668-4.3.22-1.056-.282-1.217-.253-2.22.41l-1.08.716-1.651-.556c-.908-.306-1.7-.507-1.76-.447-.06.06-.207.631-.327 1.27-.165.881-.267 1.047-.422.686zm5.24-3.693c.25-.182.526-.775.614-1.318.281-1.732-1.115-3.018-2.052-1.889-.527.635-.447 2.339.141 2.988.582.643.692.662 1.298.219zm-6.64-.943c.248-.957-.06-2.473-.535-2.632-.708-.235-1.022 2.456-.404 3.455.257.417.723.008.939-.823zm7.744-4.58c-1.233-.293-2.902-1.386-3.642-2.383-.715-.964-.944-3.072-.358-3.296.71-.273 2.28 1.098 2.28 1.992 0 .768.615 1.348 1.983 1.868.476.181.748.151.99-.11.28-.3.539-.255 1.59.277.692.35 1.258.75 1.258.887 0 .692-2.475 1.153-4.101.766zm-.08-3.333c-.61-.396-1.112-.842-1.114-.992-.006-.621 1.207-3.651 1.508-3.767.544-.209 3.182 1.15 3.666 1.889.452.689.447.7-.837 2.113-.71.781-1.476 1.434-1.701 1.45-.226.015-.91-.296-1.522-.693z" id="path5513" fill="#212121" stroke-width=".07"></path></g></g></svg>