<svg width="102" height="90" xmlns="http://www.w3.org/2000/svg" viewBox="0 0 27.224 24.032"><title>sophie2 race elvira</title><g fill="#212121" class="nc-icon-wrapper"><g id="layer1" transform="translate(-105.362 -308.298)"><path d="M105.612 331.905c.247-.273.45-.634.45-.801 0-.167.327-.507.728-.756.972-.604 1.918-1.453 1.918-1.723 0-.12-.238-.218-.53-.218-.625 0-.678-.463-.14-1.23.212-.304.312-.627.221-.718-.09-.091.049-.402.31-.692.362-.399.405-.612.18-.883-.34-.41.006-.983.885-1.464.464-.253.409-.29-.441-.297-1.376-.011-1.76-.217-2.175-1.161-.628-1.432-.947-2.4-.971-2.948-.288-6.465-.174-8.233.64-9.922.472-.98 1.337-.95 3.495.116 2.127 1.05 2.228 1.206 2.382 3.65.055.88.284 1.88.51 2.224.224.344.353.625.285.625-.29 0-2.197-1.223-2.859-1.834-.613-.567-.698-.812-.565-1.64.13-.811.062-1.024-.404-1.273-.401-.215-.708-.22-1.088-.016-.947.507-.526 2.117.554 2.117.522 0 .786.535.607 1.231-.077.303.08.615.415.822.453.278.541.268.541-.067 0-.22.09-.398.198-.396.45.006 2.898 1.587 3.593 2.322 1.733 1.83 1.724 4.574-.013 3.907-.393-.15-.402-.212-.066-.445.34-.237.34-.257-.007-.162-.219.06-.397.277-.397.483 0 .262.298.365.992.344.64-.019.992.09.992.305 0 .184-.446.453-.992.598-.546.145-.754.272-.463.282.29.01 1.183-.207 1.981-.482.8-.276 1.482-.472 1.519-.436.09.09-2.457 4.86-2.847 5.33-.174.21-.411.322-.527.25-.117-.071-.572.076-1.012.329-.954.548-1.46.243-.598-.36.446-.313.56-.584.442-1.053-.115-.458-.048-.631.243-.631.226 0 .402-.233.402-.53 0-.616-.666-.715-.89-.132-.083.218-.282.397-.44.397-.159 0-.209-.13-.111-.287.113-.183-.049-.252-.448-.192-.343.052-.603.215-.577.363.026.148-.242.292-.595.321-.92.077-.794-.43.217-.869.721-.313.764-.375.264-.384-1.335-.023-.263-.984 1.522-1.364.514-.11-.03-.132-1.225-.052-1.182.08-2.348.035-2.59-.101-.402-.225-.391-.309.119-.957.307-.391.457-.711.332-.711-.124 0-.434.35-.688.78-.444.753-.442.79.058 1.059.286.152.899.277 1.363.277.726 0 .797.057.509.404-.184.221-.258.48-.164.573.093.094.002.36-.204.59-.206.23-.414.834-.464 1.344-.076.791-.003.938.506 1.01.368.052.596.268.596.566 0 .6 1.349.852 2.201.41.806-.418 1.767-.653 1.767-.433 0 .477-.883 1.357-1.362 1.357-.296 0-.842.239-1.213.53-.497.391-.765.456-1.017.247-.245-.204-.504-.198-.91.019-.311.167-.757.23-.99.14-.28-.107-.831.238-1.632 1.024-1.242 1.217-3.285 2.338-2.322 1.274zm3.162-11.347c-.562-.226-.366-.846.397-1.26l.727-.395-.66-.015c-1.048-.023-1.497-.405-1.076-.912.19-.23.54-.422.777-.428.274-.007.166-.154-.297-.405-.955-.518-.92-.882.101-1.086l.83-.166-.697-.365c-.83-.435-.9-.874-.168-1.066.467-.122.77-.605.38-.605-.897 0-1.583 1.37-.843 1.682.237.1.2.222-.132.432-.573.362-.602 1.024-.055 1.234.358.137.35.22-.064.678-.455.503-.451.539.105.99.41.331.495.548.293.75-.35.35-.087 1.12.374 1.092.265-.017.267-.05.008-.155zm2.39-4.365c-.486-.486-.496-.483-.477.104.01.33.195.873.41 1.206l.389.606.087-.71a1.49 1.49 0 0 0-.409-1.206zm-2.905-3.2c-.66-.727-.958-2.124-.542-2.54.167-.166.577-.303.912-.303.76 0 .804-.67.069-1.063-1.172-.628-2.338.738-1.616 1.893.166.268.303.71.303.983 0 .554 1.035 2.003 1.266 1.772.08-.08-.095-.415-.392-.741zm1.884-2.07c-.252-.28-.586-.508-.741-.508-.156 0-.018.185.305.412.336.235.604.718.624 1.124.034.655.046.663.154.096.068-.358-.076-.83-.342-1.125zm21.576 21.1c-.368-.17-1.178-.821-1.8-1.447-.818-.824-1.27-1.094-1.635-.978-.279.089-.73.04-1.005-.106-.347-.186-.59-.175-.802.036-.228.228-.498.16-1.088-.277-.432-.319-1.025-.58-1.318-.58-.324 0-.693-.31-.943-.794-.477-.92-.44-.936.868-.362 1.092.478 2.419.502 2.832.05.189-.207.166-.237-.075-.1-.189.107-.543.118-.786.025-.382-.147-.389-.205-.054-.417.214-.135.775-.248 1.245-.25.829-.004.854-.036.787-1.03-.038-.564-.229-1.219-.425-1.455-.196-.236-.278-.43-.182-.43.096 0 .046-.237-.11-.529-.255-.477-.197-.532.587-.56.478-.016-.262-.177-1.645-.356-1.382-.18-2.893-.412-3.358-.516-1.158-.26-.887-.875.323-.734.792.093.919.03.919-.45 0-.307-.116-.559-.257-.559-.14 0-.187.18-.104.397.188.489-.704.55-1.174.08-1.113-1.113.442-3.614 3.387-5.447.51-.317.803-.579.654-.581-.15-.002-.544.186-.877.42-.78.545-.908.39-.542-.66.163-.467.226-1.2.14-1.63-.086-.43-.05-.78.077-.78.129 0 .162-.268.075-.596l-.159-.595-.147.61c-.081.337-.237.605-.346.596-.109-.009-.397-.016-.641-.016-.367 0-.336-.113.178-.661.342-.364.765-.661.94-.661.175 0 .456-.166.623-.368.453-.546 3.655-2.014 4.393-2.014.714 0 1.188.673 1.188 1.687 0 .365.125.74.278.835.163.1.257 1.024.228 2.23-.027 1.133.013 2.165.09 2.292.255.421-.55 5.505-1.02 6.45-.584 1.175-.801 1.314-2.059 1.319l-1.028.004.717.564c.53.416.678.72.568 1.16-.093.368.006.726.256.934.224.185.339.514.256.73-.083.216.042.606.278.867.465.513.313 1.037-.3 1.037-.762 0-.354.83.745 1.514.62.386 1.388 1.096 1.708 1.578.625.942.573 1.002-.46.524zm-2.374-9.95c0-.283-.119-.588-.264-.678-.424-.262-.307-.589.264-.738.63-.165.676-.533.132-1.077-.354-.354-.34-.416.132-.566.618-.196.713-1.137.137-1.358-.32-.123-.29-.234.164-.602.528-.427.533-.476.103-.907-.373-.373-.395-.528-.121-.858.272-.328.257-.48-.086-.823-.384-.383-.361-.509.26-1.446.558-.844.628-1.132.394-1.618-.157-.324-.293-.433-.303-.24-.013.258-.132.235-.454-.087-.24-.24-.657-.379-.927-.308-.27.07-.423.02-.341-.112.36-.584-.446-.17-.84.43-.35.536-.378.789-.137 1.257l.303.586-.15-.59c-.083-.324-.053-.762.065-.973.136-.242.235.105.271.948.05 1.144-.019 1.351-.484 1.473-.4.104-.502.287-.391.7.082.308.151.702.153.877.002.175.296.048.653-.283.454-.421.603-.776.497-1.18-.122-.468.002-.634.64-.856.435-.152.918-.537 1.072-.857.155-.32.289-.43.299-.246.01.184-.408.75-.93 1.255l-.947.92.683.26c.904.343.86.617-.177 1.133-.85.424-.852.429-.165.445.382.01.842.194 1.021.41.27.325.204.438-.39.664l-.716.272.597.484c.706.571.493 1.098-.444 1.098h-.66l.742.65.742.652-.827.32c-.82.318-.823.327-.324.861.276.298.444.694.372.88-.071.188-.015.34.126.34.141 0 .256-.23.256-.513zm-2.116-5.656c0-.424-.068-.455-.397-.181-.218.18-.393.642-.389 1.024.008.669.024.676.397.182.214-.283.389-.744.389-1.025zm3.703-6.798c-.397-.74-1.273-.918-1.87-.378-.68.615-.644.91.11.91.341 0 .842.244 1.113.544l.493.544.208-.564c.116-.312.091-.784-.054-1.056zm-19.655 17.465a.704.704 0 0 0-.692-.53c-.623 0-.709-.268-.237-.74.463-.463.741-.39.741.196 0 .283.238.68.528.884.29.203.448.448.352.544-.31.31-.55.187-.692-.354zm12.836-.06c-.392-.39-.588-.465-.588-.223 0 .266-.152.228-.56-.14-.598-.54-2.996-5.106-2.789-5.313.068-.068.483.061.92.288.439.226 1.761.579 2.939.783 2.031.353 2.93.738 2.93 1.257 0 .128-.21.24-.464.25-.387.013-.375.052.075.234.297.12.686.396.866.613.274.33.217.416-.346.523-.37.071-.749.007-.84-.14-.101-.164-.02-.194.204-.078.205.106.14.005-.142-.224-.589-.477-.941-.534-.941-.152 0 .146-.12.265-.265.265-.145 0-.265-.179-.265-.397 0-.218-.227-.397-.504-.397-.374 0-.469.137-.366.53.076.29.303.529.504.529.202 0 .366.126.366.28 0 .154-.119.206-.264.116-.49-.302-.27.575.264 1.059.291.263.53.58.53.702 0 .42-.675.225-1.265-.364zm-11.7-.309c0-.057.184-.175.41-.261.235-.09.341-.046.249.104-.156.25-.66.371-.66.157zm14.477-.7c.162-.62.694-.556.821.098.057.292-.091.442-.438.442-.397 0-.49-.131-.383-.54zm-10.815-4.95c-.023-.11-.065-.497-.094-.86a13.958 13.958 0 0 0-.25-1.55l-.198-.888.822.608c.843.624.853.711.262 2.293-.223.594-.464.77-.542.396zm.994-.519c.253-1.074.605-1.356 1.01-.809.186.253.435.372.553.265.118-.107.129-.045.023.138-.105.183-.544.515-.976.739l-.785.405zm1.032-.341c-.09-.146-.276-.265-.413-.265-.137 0-.249.119-.249.265 0 .145.186.264.413.264.226 0 .339-.119.249-.264zm2.1.67c-.289-.22-.368-.393-.182-.397.182-.005.33-.132.33-.283 0-.185-.17-.183-.529.01-.676.361-.695-.034-.022-.454.576-.36.9-.102 1.15.916.17.693-.03.748-.746.207zm1.119.211c-.097-.097-.177-.447-.177-.778 0-.33-.119-.675-.264-.765-.441-.272-.302-.501.704-1.152.838-.544.933-.56.737-.133-.123.27-.23.938-.237 1.483-.007.546-.11.993-.228.993-.117 0-.14.119-.05.264.182.295-.208.365-.485.088zm-4.044-2.317c-3.812-2.568-5.595-5.708-3.703-6.522.522-.224.515-.236-.103-.176-.553.053-.676-.063-.75-.715l-.088-.779.838.647c.461.355.835.765.83.91-.004.146.289.42.65.61.902.472 2.918 3.272 3.464 4.809l.448 1.26 1.006-2.016c1.574-3.158 3.822-5.116 4.872-4.244.48.398.47 1.239-.026 2.192-.476.911-.491 1.052-.09.804.195-.12.233-.072.106.134-.11.178-.27.253-.356.168-.086-.086-.64.313-1.23.887-1.139 1.106-3.786 2.937-4.247 2.937-.15 0-.88-.408-1.62-.906z" id="path5479" fill="#212121" stroke-width=".07"></path></g></g></svg>