<svg width="111" height="87" xmlns="http://www.w3.org/2000/svg" viewBox="0 0 29.393 23.215"><title>sophie2 race apostle</title><g fill="#212121" class="nc-icon-wrapper"><g id="layer1" transform="translate(40.165 -246.183)"><path d="M-32.17 268.982c-.23-.228-.416-.652-.416-.941 0-.29-.102-.463-.226-.386-.477.294-2.354-2.373-2.354-3.345 0-1.12.646-1.11.865.013.162.827.223.894.405.445.118-.29.223-.39.233-.22.01.17.098.517.196.771.12.315.078.401-.133.27-.17-.105-.31-.128-.31-.052 0 .076.243.268.538.426.493.264.523.229.359-.427-.126-.5-.09-.659.12-.529.198.122.243.035.133-.252-.095-.248-.008-.538.201-.671.277-.175.284-.235.03-.238-.186-.002-.428.236-.536.529-.182.491-.235.468-.692-.306-.436-.737-.447-.873-.098-1.129.219-.16.65-.786.96-1.392.556-1.091 2.04-2.413 2.355-2.098.09.09.44-.096.778-.414l.615-.578.032.774.03.774.203-.794c.11-.437.216-1.305.233-1.929.035-1.277.846-3.08 1.497-3.33.236-.09.876-.165 1.42-.165 1.251 0 2.13.871 2.407 2.385.174.952.11 1.195-.496 1.912-.383.452-.835 1.129-1.005 1.504-.177.39-.318.508-.33.274-.012-.224.214-.87.503-1.437.289-.567.476-1.079.417-1.139-.163-.162-.783 1.172-1.48 3.181-.663 1.916-1.553 3.013-2.233 2.752-.523-.2-.776-.833-.56-1.398.151-.392.223-.386.757.066l.59.499-.488-.578c-.587-.694-1.232-.526-1.232.323 0 .692.635 1.445 1.219 1.445.638 0 2.307-2.08 3.183-3.968.236-.51 1.456-1.866 2.71-3.013 1.254-1.148 4.205-3.857 6.558-6.02 2.353-2.162 4.348-3.932 4.433-3.932.086 0-.62 1.101-1.567 2.448a91.596 91.596 0 0 0-3.213 4.96c-.82 1.383-1.89 3.01-2.38 3.617-1 1.24-1.084 1.469-.449 1.225.316-.121.38-.072.228.175-.117.189-1.183.792-2.369 1.34-1.186.548-2.33 1.21-2.543 1.472-.212.261-.25.393-.083.294.166-.1.371-.004.454.213.084.218.335.396.557.396.456 0 .544.412.14.661-.423.262-.306.613.266.794.711.226.667.61-.112.965-.377.171-.583.441-.5.655.08.21-.03.364-.26.364-.22 0-1.036.297-1.814.66-.779.362-1.654.66-1.945.66-.29.003-1.283.36-2.204.796-.922.436-1.636.704-1.588.595.049-.108.498-.763.999-1.454.807-1.114 1.023-1.257 1.903-1.257 1.39 0 2.422-.925 2.465-2.206.018-.533-.032-.96-.11-.948-.078.011-.672.344-1.321.738-.734.447-1.618 1.364-2.34 2.427-1.373 2.02-2.407 3.164-2.861 3.164-.181 0-.516-.187-.745-.415zm2.41-4.131c-.084-.211-.147-.149-.16.16-.011.278.051.435.14.347.087-.088.097-.316.02-.507zm1.095-.014c-.048-.337-.287-.61-.553-.635-.375-.033-.383-.016-.042.088.269.081.378.317.295.634-.073.278-.016.506.126.506.142 0 .22-.267.174-.593zm2.046-4.047c-.388-.293-.44-.465-.21-.694.203-.204.22-.46.05-.776-.163-.306-.159-.53.013-.637.146-.09.265-.455.265-.81 0-.76.18-.804.84-.208.45.408.483.407.483-.013 0-.265-.379-.61-.918-.835-1.147-.48-1.246-.477-1.876.033-.506.41-.505.415.024.305.685-.143 1.29.486 1.037 1.078-.162.379-.224.345-.394-.212-.11-.364-.228-.572-.261-.463-.067.222-.23 1.673-.267 2.376-.014.252-.166.547-.338.656-.196.123-.016.263.48.37 1.386.302 1.643.261 1.072-.17zm-.94-1.033c0-.227.119-.413.264-.413.146 0 .265.112.265.25 0 .136-.12.322-.265.412-.145.09-.264-.022-.264-.25zm5.91-.14c.412-.369.873-.898 1.024-1.176.151-.278-.389.067-1.2.767-.81.7-1.545 1.457-1.631 1.682-.164.428.136.216 1.806-1.274zm-2.838-3.92c-.224-.433-.6-.86-.835-.951-.635-.244-1.785-.192-2.237.1-.291.188-.102.258.71.26.87.004 1.269.169 1.853.768.9.924 1.05.87.509-.177zm-2.367 10.085c-.277-.277-.206-1.41.089-1.41.145 0 .264.357.264.793 0 .822-.054.916-.353.617zm-9.701-2.998c-.291-.291-.53-.827-.53-1.19 0-.762.39-.88.652-.2.36.936.725-.443.778-2.935.076-3.57 1.043-5.008 3.368-5.008.871 0 1.246.172 1.981.906 1.648 1.649 1.483 4.723-.254 4.723-.295 0-.813.259-1.15.575-.528.497-.612.514-.612.124 0-.249.175-.87.388-1.38.213-.51.274-.856.135-.77-.138.085-.44.833-.669 1.663-.647 2.335-.931 2.94-1.645 3.5-.847.667-1.77.663-2.442-.008zm1.516-.954c-.088-.088-.316-.097-.507-.02-.211.084-.149.146.16.16.278.01.435-.052.347-.14zm1.262-1.064c-.56-.409-.752-1.828-.325-2.401.13-.175.16-.562.064-.86-.219-.691.135-.689 1.02.007.557.439.696.468.696.147 0-.582-1.047-1.225-1.997-1.225h-.82l.023 1.919c.013 1.055-.082 2.067-.211 2.248-.168.238-.057.332.393.335.345.002.803.115 1.017.25.608.385.732.014.14-.42zm-1.19-1.01c0-.226.118-.412.264-.412.146 0 .265.112.265.25 0 .136-.12.322-.265.412-.146.09-.265-.022-.265-.25zm.04-1.721c.057-.175.191-.309.297-.298.316.033.255.396-.086.51-.175.057-.27-.038-.212-.212zm3.28-1.8c-.098-.4-.438-.933-.757-1.184-.624-.493-1.907-.625-2.156-.222-.084.136.203.237.637.224.9-.025 1.553.425 1.887 1.304.322.846.603.759.388-.122zM-36.46 258c-.166-.366-.447-1.374-.626-2.24-.178-.866-.482-1.881-.674-2.256-.53-1.034-2.543-7.17-2.399-7.313.07-.07.39.391.711 1.024.322.632 1.028 1.805 1.57 2.605 1.793 2.652 2.458 4.21 2.245 5.27-.104.522-.265 1.54-.358 2.262-.159 1.242-.185 1.277-.47.648z" id="path5632" fill="#212121" stroke-width=".07"></path></g></g></svg>