<svg width="64" height="84" xmlns="http://www.w3.org/2000/svg" viewBox="0 0 17.056 22.307"><title>sophie2 race puni</title><g fill="#212121" class="nc-icon-wrapper"><g id="layer1" transform="translate(41.764 -311.088)"><path d="M-37.713 332.996c-1.564-.42-2.82-1.107-3.597-1.965-.453-.5-.492-.958-.431-4.97.126-8.265.553-10.278 2.666-12.571 1.526-1.655 3.333-2.399 5.839-2.402 2.413-.003 3.97.618 5.5 2.194 2.323 2.394 2.848 4.644 3.006 12.883.064 3.37.007 4.098-.365 4.666-.612.934-1.94 1.7-3.78 2.179-1.993.519-6.885.511-8.838-.014zm6.527-11.483c.512-.312.86-.74.86-1.057 0-.686-.215-.672-.996.062-.477.448-.95.595-1.914.595s-1.438-.147-1.914-.595c-.782-.734-.997-.748-.997-.062 0 .777 1.48 1.581 2.91 1.581.722 0 1.53-.206 2.051-.524zm-4.696-4.256c0-1.387-.063-1.594-.463-1.519-.34.065-.485.394-.546 1.24-.1 1.384.061 1.886.604 1.886.319 0 .405-.34.405-1.607zm6.217.02c0-1.169-.089-1.465-.463-1.537-.4-.077-.463.13-.463 1.537 0 1.406.063 1.614.463 1.537.374-.072.463-.369.463-1.537z" id="path5496" fill="#212121" stroke-width=".07"></path></g></g></svg>