<svg width="87" height="88" xmlns="http://www.w3.org/2000/svg" viewBox="0 0 23.155 23.416"><title>sophie2 race rabbit</title><g fill="#212121" class="nc-icon-wrapper"><g id="layer1" transform="translate(-53.868 -273.019)"><path d="M57.637 296.329c-1.341-.342-2.454-1.042-3.19-2.007-.768-1.008-.767-.867-.027-5.163.493-2.856 1.098-4.615 2.05-5.954l.751-1.058-.814-2.249c-.448-1.237-1.026-3.045-1.283-4.02-.592-2.234-.298-2.859 1.346-2.859 2.318 0 5.036 1.882 7.245 5.016.825 1.17 1.609 2.128 1.742 2.128.134 0 .665-.837 1.18-1.859.514-1.022 1.354-2.322 1.865-2.888 1.079-1.194 2.817-2.138 3.572-1.94 1.257.329 3.775 4.067 4.465 6.626.306 1.138.084 2.035-.619 2.504-.635.424-1.985.19-2.784-.482-.904-.76-.99-.689-.446.367.203.393.688 1.667 1.079 2.831.742 2.216 1.308 3.293 2.266 4.317.315.337.503.683.418.768-.085.085.041.297.28.472.4.293.394.373-.07 1-1.158 1.567-3.523 2.225-4.878 1.36l-.654-.419.625.55c.343.303.85.551 1.124.551.693 0 .628.433-.095.627-.974.261-2.154.19-3.479-.208-1.068-.322-1.203-.322-.938-.003.351.423.215.497-1.404.766-.752.125-.992.29-.992.682 0 .618-.181.636-1.378.136-.773-.323-1.072-.328-1.95-.03-1.359.462-4.005.693-5.007.438zm-1.19-3.466a.265.265 0 0 0-.265-.265.265.265 0 0 0-.265.265.265.265 0 0 0 .53 0zm7.946-1.195c.855-.443 1.58-1.618 1.578-2.562-.003-.901-.955-2.302-1.785-2.624-.598-.232-.925-.179-1.828.295-2.203 1.156-2.652 2.077-1.807 3.711.737 1.426 2.386 1.932 3.842 1.18zm-9.023-2.708c-.013-1.391-.092-1.88-.246-1.521-.427.993-.3 3.572.176 3.572.049 0 .08-.923.07-2.05zm2.321-9.393c-.218-2.321-1.28-5.596-1.85-5.706-.351-.067-.453.104-.453.76 0 1.05 1.851 6.6 2.202 6.6.154 0 .194-.657.101-1.654z" id="path5530" fill="#212121" stroke-width=".07"></path></g></g></svg>