<svg width="51" height="51" xmlns="http://www.w3.org/2000/svg" viewBox="0 0 13.545 13.655"><title>sophie2 element fire</title><g fill="#212121" class="nc-icon-wrapper"><g id="layer1" transform="translate(-34.398 -343.438)"><path d="M39.534 356.935c-2.883-.757-4.846-3.174-5.095-6.273-.11-1.364-.022-1.87.53-3.055 1.21-2.6 3.098-3.942 5.831-4.148 5.87-.442 9.295 6.344 5.628 11.152-1.379 1.808-4.654 2.912-6.894 2.324zm3.933-4.353c.842-.642.962-.875.962-1.867 0-1.483-.235-1.666-.794-.619-.306.574-.684.88-1.155.937-1.029.123-1.117-.522-.277-2.016l.73-1.298-.597-.965c-.715-1.156-.967-1.206-1.163-.228-.085.425-.824 1.4-1.753 2.31-1.274 1.25-1.605 1.743-1.605 2.388 0 1.271 1.217 2.722 3.112 3.71.71.37.733.356 1.151-.62.235-.55.86-1.328 1.39-1.732z" id="path4908" fill="#212121" stroke-width=".07"></path></g></g></svg>