<svg width="116" height="89" xmlns="http://www.w3.org/2000/svg" viewBox="0 0 30.81 23.775"><title>sophie2 race bird</title><g fill="#212121" class="nc-icon-wrapper"><g id="layer1" transform="translate(-119.96 -271.488)"><path d="M129.35 294.778c-.432-.477-.515-.485-1.098-.103-.826.54-1.335.316-1.477-.652l-.115-.784 2-.12c1.478-.088 2.363-.305 3.39-.829 1.312-.67 1.791-1.228 1.058-1.23-.182-.001.016-.28.44-.618.45-.36.69-.745.58-.925-.105-.169-.005-.572.221-.896.227-.324.413-.92.413-1.323 0-1.35.773-.853 1.636 1.05.445.982 1.033 2.07 1.306 2.417.685.87.626 1.09-.297 1.09-.606 0-.793.12-.793.507 0 1.357-.531 1.63-1.845.951-.749-.387-.763-.38-.938.415-.217.989-.73 1.22-1.666.75-.39-.197-.8-.401-.91-.454-.108-.054-.198.087-.198.313 0 .225-.23.532-.511.683-.666.356-.652.36-1.197-.242zm-8.993-.866c-.63-.9-.506-2.114.338-3.275.412-.567.956-1.201 1.208-1.41.252-.207.64-.73.864-1.162.294-.568.465-.69.619-.442.167.27.361.235.915-.168l.703-.513 1.005.935c.756.703.937 1.022.729 1.286-.17.214-.18.42-.029.529.137.098.417.505.623.906.206.4.586.727.844.727s.537.11.62.246c.157.253.031.306-1.965.823-.651.169-1.884.66-2.739 1.091-1.503.76-2.01.832-1.642.235.232-.376 2.116-1.337 3.448-1.76.876-.277.94-.338.366-.352-.88-.023-4.392 1.722-4.809 2.388-.405.65-.595.635-1.098-.084zm2.212-2.247c.06-.042-.076-.075-.303-.075-.227 0-.487.195-.579.434-.145.378-.106.388.302.075.258-.198.52-.393.58-.434zm4.52 1.003c.218-.152.65-.278.96-.28.787-.006 1.392-.752.875-1.079-.21-.132-.478-.242-.597-.244-.265-.005-1.087-.798-.828-.798.101 0 .031-.184-.155-.408-.257-.31-.264-.483-.032-.715.413-.413.386-.73-.064-.73-.203 0-.744-.426-1.202-.948-.818-.932-.845-.94-1.511-.504-.889.582-1.363.18-1.001-.85.31-.88 1.917-2.026 3.684-2.625 1.523-.517 4.276-.572 4.725-.094.238.254.148.298-.409.2-.555-.099-.904.07-1.573.76-.473.488-1.121.887-1.44.887-.587 0-1.031.637-.756 1.082.271.439 1.152.25 1.453-.312.255-.476.495-.54 1.74-.463 1.357.084 1.456.049 1.603-.572.086-.364.274-.81.417-.992.186-.236.138-.33-.168-.33-.825 0-.42-.812.827-1.66.691-.47 2.21-1.783 3.374-2.917 2.666-2.6 5.353-4.045 7.394-3.98 1.77.057 2.586.178 3.005.447.19.122.634.15.985.061.478-.12.858.039 1.506.63l.868.788-1.374.008c-.755.004-1.437-.095-1.514-.221-.317-.512-2.079-.525-3.689-.028-2.038.63-3.389 1.519-6.191 4.075-1.202 1.097-2.667 2.24-3.257 2.54l-1.072.548.81.922c.898 1.023 1.004 1.3.412 1.072-.31-.119-.397.07-.397.86 0 .642-.24 1.368-.653 1.977-.397.585-.527.966-.331.972.63.017-.921 1.036-1.88 1.234l-.972.202 1.19.154 1.19.153-1.322.632c-1.375.656-5.486 1.14-4.63.546zm3.735-3.79c.218-.182.706-.756 1.086-1.276l.69-.945-1.5.203c-1.212.164-1.642.363-2.252 1.045-.593.662-.678.891-.397 1.069.532.337 1.92.281 2.373-.096zm-1.562-.248c-.242-.242-.215-.424.12-.794.557-.614 1.146-.616 1.146-.004 0 .46-.466 1.112-.793 1.112-.088 0-.3-.142-.473-.314zm-2.967-5.434c0-.106.29-.969.643-1.918.353-.95.946-2.75 1.318-4 .78-2.62 2.07-4.337 3.946-5.245 1.482-.717 3.113-.727 3.75-.022.264.29.64.529.835.529.219 0 .356.305.356.794 0 .436-.075.793-.167.793-.401 0-1.94-1.124-1.815-1.326.238-.386-.826-.552-1.621-.252-1.77.668-3.497 3.489-4.206 6.87-.324 1.549-1.413 3.438-2.14 3.714-.802.305-.899.312-.899.063z" id="path5615" fill="#212121" stroke-width=".07"></path></g></g></svg>