<svg width="85" height="86" xmlns="http://www.w3.org/2000/svg" viewBox="0 0 22.688 22.933"><title>sophie2 race dryad</title><g fill="#212121" class="nc-icon-wrapper"><g id="layer1" transform="translate(6.127 -243.705)"><path d="M4.034 266.231c0-.332-.103-.351-.563-.105-.478.256-.658.198-1.201-.387-.381-.411-.501-.69-.297-.692.187 0-.285-.361-1.05-.8-.765-.438-1.656-1.203-1.981-1.698-.325-.495-.975-1.084-1.445-1.308-1.488-.71-4.213-5.643-3.51-6.355.35-.355 2.705 1.185 3.116 2.038.39.812.847.95.841.255-.003-.38-.047-.395-.243-.085-.176.278-.291.105-.434-.655-.171-.914.038-2.54.588-4.575l.167-.619-1.36.69c-.747.378-1.36.603-1.36.498 0-.105.377-.579.837-1.053l.836-.863-.69-.262c-1.353-.515-1.844-2.146-1.134-3.773.15-.345.028-.468-.555-.558-.715-.109-.722-.123-.153-.315.327-.11.595-.365.595-.566 0-.201.238-.366.53-.366.29 0 .528-.124.528-.276 0-.152.15-.246.331-.21.182.038.61-.087.951-.275.574-.317.607-.301.445.209-.16.504-.07.552 1.013.552.893 0 1.391.17 2.003.685.447.377.814.857.814 1.068 0 .3.113.322.529.099.591-.316.652-.196.267.525-.244.455-.193.47.727.215.545-.151 1.859-.21 2.92-.13 1.848.139 1.923.122 1.76-.391-.142-.446-.08-.507.364-.366.393.125.58.026.706-.374.236-.743 1.472-1.331 2.796-1.331.869 0 1.068-.083.947-.397-.167-.438.49-.564.75-.144.086.14.332.186.545.104.214-.082.389-.017.389.144 0 .161.225.293.5.293.276 0 .57.179.654.397.083.218.334.397.557.397.223 0 .405.119.405.264 0 .146-.31.265-.69.265-.554 0-.651.09-.495.463.695 1.652.424 2.819-.825 3.556l-.934.551.81.836c.447.46.811.922.811 1.027 0 .105-.612-.12-1.36-.499l-1.36-.689.18.619c.743 2.55.83 5.795.146 5.372-.138-.085-.251-.029-.251.125 0 .538.544.275.794-.383.263-.691 2.555-2.323 3.033-2.16 1.133.39-2.14 6.124-3.795 6.65-.246.078-.665.51-.93.96-.267.45-1.037 1.169-1.712 1.597-.675.428-1.195.836-1.155.907.04.07-.213.436-.562.812-.538.58-.718.638-1.196.382-.46-.246-.563-.227-.563.105 0 .305-.296.406-1.19.406-.895 0-1.191-.1-1.191-.406zm2.529-2.386c.487-.39.481-.396-.12-.103-.35.17-1.114.245-1.706.165-.702-.094-.94-.06-.69.099.6.378 1.95.292 2.516-.161zm-4.514-1.441c-.09-.145-.46-.265-.825-.265-.373 0-.59.116-.497.265.09.146.46.265.825.265.373 0 .59-.116.497-.265zm7.806 0c0-.145-.291-.265-.646-.265-.355 0-.72.12-.81.265-.095.154.174.265.646.265.445 0 .81-.12.81-.265zm-6.671-2.51c-.042-.29-.428-.696-.857-.901-.685-.327-.873-.321-1.518.049-.657.377-.778.38-1.137.021-.6-.601-.484-.214.286.951.562.848.865 1.053 1.654 1.12 1.082.092 1.694-.39 1.572-1.24zm5.996 1.187c.411 0 .827-.336 1.301-1.053.78-1.177.9-1.568.296-.965-.359.359-.483.355-1.163-.036-.628-.36-.885-.381-1.459-.12-.88.4-1.1.965-.71 1.82.203.446.443.618.718.512.226-.087.684-.158 1.017-.158zm-2.33-4.286c.485-.441.646-.466 1.113-.175.476.297.635.257 1.24-.31l.694-.653.541.743.541.743.629-.59c.408-.384.628-.467.628-.236 0 .195.071.283.159.196.087-.088.075-.295-.028-.461-.128-.208-.378-.122-.798.272-.585.55-.623.553-.89.086-.696-1.222-.72-1.23-1.472-.478-.642.642-.763.677-1.12.32-.355-.356-.326-.51.274-1.423 1.014-1.542 1.404-3.27.974-4.308-.477-1.152-2.366-2.23-3.95-2.253-1.562-.023-3.607.956-4.136 1.98-.576 1.113-.487 1.782.517 3.878.76 1.584.848 1.944.54 2.199-.288.239-.519.152-1.075-.404-.74-.74-.765-.732-1.462.489-.266.467-.304.463-.89-.086-.419-.394-.669-.48-.797-.272-.103.166-.115.373-.028.46.088.088.159 0 .159-.195 0-.23.22-.148.628.235l.629.59.54-.742.542-.743.694.652c.605.568.764.608 1.24.311.466-.291.628-.266 1.113.172 1.335 1.207 1.927 1.207 3.251.003zm-2.714-.007c-.961-.742-1.25-1.115-1.97-2.549-.648-1.289-.905-2.672-.67-3.605.168-.669 1.427-1.57 2.604-1.864l.728-.182.015 1.815c.008.998.103 2.29.211 2.873l.196 1.058.186-1.293c.102-.712.185-1.992.185-2.845 0-1.073.103-1.55.335-1.55.501 0 2.396 1.044 2.774 1.529.89 1.14-.334 4.75-2.15 6.345-1.157 1.015-1.436 1.046-2.444.268zm-5.988-7.547c.068-.206-.142-.33-.555-.33-.403 0-.88-.275-1.213-.698-.518-.659-.548-.666-.548-.132 0 1.186 1.98 2.179 2.316 1.16zm15.94-.066c.291-.291.53-.783.53-1.094 0-.534-.03-.527-.55.132-.377.481-.798.697-1.354.697-.688 0-.759.06-.478.397.457.55 1.224.496 1.852-.132zm-15.081-1.211c0-.57-1.643-2.194-1.786-1.765-.155.463.957 2.182 1.41 2.182.207 0 .376-.187.376-.417zm13.884-.695c.288-.535.427-1.07.309-1.187-.267-.267-1.758 1.366-1.758 1.926 0 .735.905.274 1.45-.739zm-12.3-.66c-.485-.86-1.269-1.238-.816-.392.16.298.29.873.29 1.278 0 .699.023.712.46.275.417-.417.423-.528.067-1.16zm10.176-.586c.15-.244.104-.318-.148-.235-.202.067-.54.429-.752.803-.335.595-.335.74 0 1.144.353.425.396.39.532-.447.081-.5.247-1.07.368-1.265z" id="path5598" fill="#212121" stroke-width=".07"></path></g></g></svg>