<svg width="56" height="74" xmlns="http://www.w3.org/2000/svg" viewBox="0 0 15.007 19.761"><title>sophie2 category spices</title><g fill="#212121" class="nc-icon-wrapper"><g id="layer1" transform="translate(-53.67 -375.942)"><path d="M56.902 395.131c-2.314-1.12-3.497-3.02-3.183-5.114.176-1.174 1.68-3.695 2.873-4.814.625-.586.737-.602 2.146-.31 1.121.233 1.826.234 2.868.006l1.382-.302 1.245 1.378c1.75 1.935 2.412 3.446 2.268 5.176-.233 2.815-2.29 4.358-6.027 4.521-1.958.086-2.42.016-3.572-.541zm8.624-9.2c-.35-.14-1.105-.677-1.677-1.193-.73-.66-1.17-.88-1.48-.74-1.379.622-5.07.258-5.07-.501 0-.234.88-.316 3.278-.302 2.703.014 3.356.096 3.723.463.245.244.804.445 1.243.445.644 0 .856-.154 1.098-.794.352-.933.61-1.006.852-.24.121.381.332.512.68.421.277-.072.503-.018.503.121 0 .51-.807 1.794-1.38 2.195-.668.468-.875.483-1.77.125zm-7.698-3.492c-.52-.262-.678-.568-.742-1.44-.044-.608.088-1.429.295-1.824.364-.695.45-.718 2.705-.74l2.329-.02.502 1.134c.415.94.451 1.288.209 2.023-.18.547-.517.947-.877 1.044-1.028.276-3.737.167-4.42-.177zm1.059-4.4c-.524-.151-.65-.346-.608-.932.069-.938.094-.96 1.313-1.119 1.527-.2 2.47.257 2.47 1.196 0 .648-.13.793-.827.932-.977.196-1.455.18-2.348-.078z" id="path6022" fill="#212121" stroke-width=".07"></path></g></g></svg>