<svg width="50" height="51" xmlns="http://www.w3.org/2000/svg" viewBox="0 0 13.442 13.656"><title>sophie2 element magic</title><g fill="#212121" class="nc-icon-wrapper"><g id="layer1" transform="translate(7.102 -343.41)"><path d="M-2.597 356.683c-2.598-.927-4.252-3.148-4.482-6.022-.228-2.84 1.296-5.351 4.016-6.618 3.422-1.593 7.3-.085 8.92 3.47.645 1.415.644 4.141-.001 5.562-1.447 3.184-5.176 4.776-8.453 3.608zm4.37-3.748c-.66-1.033-1.28-2.349-1.378-2.923-.196-1.161-.17-1.147-1.447-.781l-.916.263 1.249-1.147c.966-.887 1.25-1.33 1.25-1.954 0-.854-.362-1.13-1.486-1.13-1.645 0-3.897 1.67-3.746 2.78.108.798 2.221.709 2.894-.123.647-.798.611-1.125-.11-1.015-.34.052-.561.248-.515.458.088.404-.463.852-.796.646-.797-.493 1.162-2.14 2.167-1.82.866.275.615 1.09-.658 2.132-.655.536-1.19 1.07-1.19 1.185 0 .115.477.29 1.061.389.704.119 1.161.372 1.356.75.518 1.01 3.179 4.457 3.326 4.31.078-.078-.4-.987-1.06-2.02z" id="path4891" fill="#212121" stroke-width=".07"></path></g></g></svg>