<svg width="78" height="80" xmlns="http://www.w3.org/2000/svg" viewBox="0 0 20.637 21.184"><title>sophie2 type exploration</title><g fill="#212121" class="nc-icon-wrapper"><g id="layer1" transform="translate(52.389 -412.167)"><path d="M-45.402 433.117c-2.346-.465-4.35-1.64-5.026-2.947-.38-.734-.375-.838.054-1.312.558-.616.826-3.34.406-4.126-.209-.39-.196-.65.049-.984.311-.426.437-.417 2.04.143 1.48.517 2.255.599 5.809.61 3.634.012 4.295-.056 5.809-.597 1.601-.572 1.728-.582 2.04-.156.245.335.257.595.049.984-.426.795-.152 3.51.417 4.139.461.51.46.559-.028 1.399-.7 1.204-2.929 2.479-4.948 2.83-1.885.329-5.06.337-6.671.017zm5.788-1.942c.468-.2 1.108-.646 1.423-.992.615-.678 1.273-2.726 1.012-3.15-.095-.152-2.149-.258-5.04-.258-5.35 0-5.083-.1-4.587 1.72.34 1.244 1.117 2.178 2.222 2.67 1.042.463 3.893.469 4.97.01zm-12.775-4.371c0-1.965.323-2.416 1.342-1.87.37.197.51.556.51 1.304 0 1.584-.399 2.39-1.184 2.39-.65 0-.668-.05-.668-1.824zm19.043 1.145c-.448-1.18-.32-2.709.252-3.015 1.02-.546 1.343-.095 1.343 1.87 0 1.773-.019 1.824-.668 1.824-.474 0-.744-.198-.927-.68zm-12.164-4.32c-2.479-.422-3.41-.82-4.13-1.763-.489-.64-.704-1.244-.704-1.971 0-1.24.328-1.694 1.774-2.458.957-.506 1.59-.58 5.75-.668 3.739-.079 4.967-.013 6.142.329 2.089.607 2.882 1.362 2.882 2.743 0 1.605-1.016 2.83-2.791 3.367-1.564.473-7.088.733-8.923.42zm4.445-.875c.175-.175.318-.532.318-.794 0-.395-.226-.476-1.323-.476-1.098 0-1.323.08-1.323.476 0 .674.52 1.111 1.323 1.111.378 0 .83-.143 1.005-.317zm-7.62-8.084c0-2.09.237-2.447 1.622-2.447 1.412 0 1.86.56 1.764 2.197-.085 1.456-.065 1.44-2.394 1.875l-.992.186zm11.179 1.433l-1.39-.272v-1.356c0-1.678.384-2.218 1.63-2.296 1.49-.093 1.81.341 1.81 2.458 0 1.301-.094 1.808-.33 1.779a45.766 45.766 0 0 1-1.72-.313z" id="path2322" fill="#212121" stroke-width=".265"></path></g></g></svg>