<svg width="99" height="98" xmlns="http://www.w3.org/2000/svg" viewBox="0 0 26.216 25.929"><title>sophie2 race sea serpent</title><g fill="#212121" class="nc-icon-wrapper"><g id="layer1" transform="translate(11.373 -279.326)"><path d="M-6.592 305.009c-.257-.31-.257-.391 0-.391.18 0 .262-.167.183-.371-.086-.224.07-.426.392-.51.345-.09.499-.31.435-.622a.858.858 0 0 1 .293-.78c.343-.262.336-.385-.063-.993-.437-.667-.971-.928-.971-.474 0 .12-.357.166-.794.102-.452-.066-.794.003-.794.162 0 .153-.327.256-.727.228-.547-.037-.719.065-.691.413.043.54-.197.594-.645.146-.217-.217-.318-.225-.318-.025 0 .163-.235.231-.529.154-.974-.254-.608-1.408.704-2.219l.916-.566-.546-.508c-.63-.587-.71-1.722-.174-2.487a3.23 3.23 0 0 0 .463-1.17c.056-.39.438-.842.977-1.156l.886-.515-.535 1.049c-.295.577-.723 1.204-.952 1.394-.546.454-.533 1.708.024 2.167.398.328.41.307.132-.215-.436-.818-.383-1.33.196-1.91.276-.276.579-.742.671-1.034.093-.292.333-.667.533-.834.287-.238.403-.181.545.266.131.413-.011.767-.524 1.302-.668.698-.995 2.154-.578 2.571.095.095.172-.135.172-.511s.075-.877.165-1.114c.201-.524 1.753-1.337 3.01-1.578.908-.174.916-.168.397.3-.29.261-.561.773-.601 1.136-.065.592-.002.558.6-.325.71-1.04 1.392-1.528 2.138-1.528.587 0 2.758 1.085 2.758 1.379 0 .454-.766.501-1.55.096-.443-.23-1.033-.416-1.311-.416-.738 0-1.84.959-2.428 2.112-.33.645-.8 1.105-1.316 1.284-.865.302-1.101-.021-.34-.465.689-.4.18-.34-.888.106-1.176.491-.945 1.051.348.841.503-.081 1.459-.412 2.125-.734 1.106-.535 1.343-.56 2.707-.278 2.24.463 3.197.381 4.784-.407 1.455-.722 5.285-4.295 5.27-4.915-.004-.177-.451.185-.993.806-.541.62-1.133 1.127-1.315 1.125-.44-.005-.423-.109.214-1.357.493-.966.63-1.06 1.445-.989.686.06 1.081-.094 1.654-.642.846-.812 1.444-.99.752-.224-.421.465-.421.507-.003.668.245.094.372.244.282.335-.09.09-.335.021-.544-.153-.311-.258-.52-.131-1.131.684-.413.55-1.384 1.654-2.159 2.455-.774.8-1.28 1.497-1.123 1.55.335.111.11.579-.278.579-.145 0-.19-.12-.1-.265.264-.427-.016-.315-1.483.596-1.31.813-1.522.86-3.92.862-1.955.002-2.74.113-3.43.488-.676.367-1.193.444-2.117.317-.874-.12-1.109-.09-.825.104.676.462 2.55.318 3.55-.272.685-.404 1.157-.503 1.762-.37 1.031.226.694.654-.734.93l-1.006.195 1.084.03c.774.022 1.22-.12 1.562-.498.263-.291.782-.53 1.151-.53h.673l-.898.926c-.721.745-1.099.927-1.921.927-.563 0-1.284-.128-1.602-.283-.55-.269-.549-.258.033.211l.61.494-.805.913c-.442.502-.806 1.02-.809 1.149-.004.241-.593.767-1.365 1.219-.308.18-.53.14-.76-.137zm.68-8.557c.395-.311.6-.566.457-.566-.47 0-1.662 1.286-1.645 1.774.014.4.053.387.242-.083.125-.308.55-.814.945-1.125zm5.604 6.108l-.996-.456.793-.448c.767-.433.807-.429 1.195.125.427.61.532 1.254.203 1.242-.11-.004-.647-.212-1.195-.463zm2.584-.23c-1.828-.957-2.011-1.137-1.715-1.69.153-.286.447-.52.653-.52.471 0 2.252 1.81 2.252 2.29 0 .45-.202.436-1.19-.08zm1.603-.499c-.283-.214-.382-.388-.22-.388.502 0 1.13.31 1.13.557 0 .338-.318.279-.91-.169zm.117-.653c-.219-.141-.655-.258-.97-.26-.738-.005-.9-.487-.459-1.362.495-.981 1.94-1.5 1.565-.56-.31.776-.334 1.956-.033 1.655.147-.147.633-.267 1.081-.267.847 0 1.885-.572 2.452-1.352.312-.428 3.512-2.352 3.914-2.352.103 0 .058.155-.1.345-.157.19-.56 1.113-.897 2.05l-.611 1.706H8.704c-.679 0-1.385.149-1.569.33-.394.39-2.568.436-3.14.067zm.395-1.325c-.386-.626.25-1.326 1.931-2.126 1.806-.86 6.65-2.899 6.887-2.899.514 0-1.207 1.284-2.697 2.011-1 .489-2.31 1.289-2.91 1.779-1.77 1.442-2.83 1.85-3.21 1.235zm-3.041-.102c0-.057.178-.172.397-.256.218-.084.397-.037.397.104 0 .14-.179.256-.397.256-.219 0-.397-.047-.397-.104zm-5.624-2.324c.255-.438.806-.974 1.224-1.192.684-.356.88-.35 1.944.056 1.146.438 1.205.435 1.913-.088.893-.66 1.21-.724 2.398-.476.529.111 1.269.072 1.72-.09l.79-.286-.877.81c-.615.566-1.05.766-1.455.666-.318-.078-.428-.073-.246.01.484.222.16.59-.912 1.038-1.569.655-5.16.43-4.564-.287.196-.237-.14-.191-1.056.144l-1.344.491.465-.796zm10.863-1.329c.247-.247.388-.247.635 0s.176.318-.318.318-.564-.071-.317-.318zm-7.183-1.32c-1.178-.771-1.352-.813-2.117-.515-.997.388-.895.37-1.934.332-.694-.026-.812-.12-.698-.554.075-.287.437-.823.805-1.19.606-.606.87-.669 2.83-.669 1.882 0 2.276-.084 3.046-.652.977-.722 1.486-.655 1.062.14-.574 1.071-1.46 1.386-3.373 1.198-1.275-.126-1.916-.08-2.25.164-.388.284-.027.319 2.146.209 2.833-.144 3.33-.362 3.899-1.717l.332-.79.19 1.008c.268 1.43-.164 2.223-1.33 2.442-.521.097-1.33.104-1.798.014-.606-.116-.737-.088-.454.097.219.143.919.262 1.557.264 1.366.005 2.584-.668 3.732-2.06.57-.692.797-.835.797-.501 0 .7-.748 2.35-1.36 3.002-.462.491-.658.537-1.32.306-.733-.256-1.151-.225-2.083.152-.223.09-.959-.208-1.68-.68zm-5.73-.747c0-.439-.141-1.025-.315-1.304-.274-.439-.11-.775 1.234-2.53 4.032-5.264 11.483-9.325 18.033-9.829 1.218-.093 2.216-.089 2.216.01 0 .1-.193.475-.428.833-.333.51-.667.658-1.521.68l-1.094.026.86.276c.473.152.86.36.86.463 0 .103-.277.592-.615 1.087-.525.766-.748.887-1.52.823-.83-.07-.863-.046-.399.293.487.356.487.378.02.64-.348.195-.815.159-1.654-.127-.801-.273-1.81-.362-3.201-.281-3.608.209-6.73 2.25-8.253 5.395-.443.915-.707 1.167-1.223 1.167-.847 0-2.163 1.31-2.374 2.364-.208 1.042-.625 1.051-.625.014zm-.528-.077c0-.238-.37-.705-.823-1.036-.8-.586-.82-.65-.676-2.191.298-3.199 1.634-5.49 4.654-7.983 1.671-1.38 4.655-3.007 6.164-3.363 1.183-.28.601.575-.615.902-1.284.346-1.342.54-.101.338l.93-.151-.491 1.16c-.435 1.027-.61 1.178-1.526 1.32-.995.155-1.001.163-.174.199 1.683.073.61 1.202-1.39 1.46-2.851.368-5.423 2.806-5.423 5.141 0 .492-.252 1.25-.56 1.683-.55.772-.552.804-.079 1.684.266.493.4.98.297 1.083-.103.103-.187-.008-.187-.246zm15.346-.131c0-.61.628-.81 1.362-.43 1.009.522.952.641-.304.641-.582 0-1.058-.095-1.058-.211zm-4.498-1.376c0-.146.119-.265.264-.265a.265.265 0 0 1 0 .53.265.265 0 0 1-.264-.265zm2.116-.53c0-.556.604-.679 1.786-.362 1.098.294.7.892-.595.892-1.014 0-1.19-.079-1.19-.53zm-7.836-.189c.104-.104.567-.312 1.03-.463.461-.15.974-.543 1.138-.873.48-.966.641-.997.641-.125 0 1.123-.612 1.65-1.915 1.65-.596 0-.998-.084-.894-.189zm6.366-.05c.081-.132-.09-.178-.381-.102-.369.097-.53.008-.53-.289 0-.503.022-.507.925-.164.641.244.712.795.102.795-.145 0-.198-.108-.116-.24z" id="path5700" fill="#212121" stroke-width=".07"></path></g></g></svg>