<svg width="99" height="99" xmlns="http://www.w3.org/2000/svg" viewBox="0 0 26.416 26.402"><title>sophie2 race dream eater</title><g fill="#212121" class="nc-icon-wrapper"><g id="layer1" transform="translate(47.407 -279.176)"><path d="M-39.082 305.366c-.64-.276-1.317-1.037-1.11-1.245.082-.081.389-.019.683.138.85.455 1.473.34 2.6-.477 1.424-1.03 1.855-2.085 1.297-3.165-.527-1.018-.543-3.213-.03-3.893.366-.482.39-.457.398.429.005.517.184 1.172.4 1.455.339.444.427.46.657.116.146-.218.268-.816.27-1.33.005-1.203.668-2.165 1.418-2.058.47.067.586.289.66 1.272.155 2.023-.447 4.647-1.372 5.988-1.57 2.277-4.17 3.504-5.87 2.77zm-6.915-.942c-.726-.316-1.41-1.086-1.41-1.587 0-.086.312.048.693.298 1.136.744 3.066.601 4.374-.325 1.682-1.19 1.807-1.537.896-2.488-.628-.656-.79-1.088-.882-2.357-.07-.971-.002-1.622.181-1.736.175-.107.295.014.295.297.001.692.939 2.125 1.508 2.306.33.104.63.689.932 1.81l.445 1.654-1.013.97c-1.535 1.473-4.143 1.974-6.019 1.158zm14.573-1.393c-.101-.55-.302-1.076-.446-1.17-.171-.11-.157-.472.04-1.038.167-.478.378-1.677.47-2.664.183-1.97-.26-3.139-1.19-3.139-.57 0-1.538.986-1.667 1.698-.161.88-.754.81-.754-.088 0-.962-.366-1.052-.9-.22-.686 1.063-.778 2.448-.271 4.06.457 1.453.456 1.51-.023 1.861-.272.2-.761.362-1.087.362-.765 0-1.762-1.257-1.614-2.035.062-.326.027-.626-.078-.668-.105-.041-.274-.343-.376-.67-.17-.546-.1-.596.825-.6.75-.003.908-.07.613-.26-.218-.141-.665-.258-.992-.26-.481-.004-.595-.153-.595-.782 0-.74.043-.77.926-.627.6.098.926.046.926-.149 0-.164-.374-.299-.83-.299h-.832l.167-1.389c.092-.764.168-1.884.17-2.488.001-.879.197-1.331.97-2.25.76-.901.935-1.013.81-.519-.096.38-.012.777.212 1.002.32.319.37.211.356-.762-.017-1.147 1.118-4.064 1.451-3.73.384.383.153 2.271-.358 2.92-.29.37-.521.865-.512 1.1.013.323.071.298.24-.101.203-.485 2.657-3.046 2.65-2.768-.001.067-.178.7-.392 1.408-.317 1.044-.323 1.23-.032.988.377-.313.758-2.35.514-2.745-.078-.127-.412.023-.741.332-.57.536-.606.539-.728.07-.071-.271.313-1.372.854-2.447.906-1.798 1.008-1.908 1.285-1.39.388.725.387 2.063-.003 2.79-.193.362.16.162.967-.55.7-.615 1.33-1.062 1.399-.992.193.193-1.237 3.1-1.885 3.834-.315.356.092.09.905-.59 1.285-1.076 2.761-2.734 4.056-4.555.207-.29.468-.437.58-.325.367.367.46 3.383.116 3.718-.25.242-.28.04-.14-.922.1-.678.072-1.428-.061-1.666-.198-.353-.377-.186-.973.909-.438.805-1.277 1.757-2.099 2.38-2.817 2.138-3.269 2.722-.708.914 1.327-.937 3.063-1.637 3.349-1.351.362.362-1.364 2.42-2.301 2.744-.72.249-.786.32-.307.33.335.009.93-.146 1.323-.343 1-.503 2.434-.748 2.434-.416 0 .15-.3.55-.669.891l-.67.62.797.278c.685.239 1.861 1.64 1.864 2.22 0 .106-.386.118-.859.028l-.86-.163.556.633c1.248 1.422 1.255 1.419-1.878.85l-.794-.143.777.823.777.823h-.917c-.504 0-1.169-.177-1.478-.393-.5-.35-.578-.347-.724.033-.13.339-.284.248-.755-.447-.325-.48-.766-.93-.98-1-.217-.071-.07.25.33.728.397.47.72 1.084.72 1.364s.146.509.324.509c.178 0 .752.497 1.275 1.104 1.008 1.17 1.577 1.196 1.577.07 0-.354.054-.645.12-.645.488 0 1.46.698 1.697 1.22.159.348.476.632.706.632.23 0 .345.12.255.265-.09.145-.398.264-.685.264-.736 0-.89.63-.397 1.62.233.466.39.881.348.922-.041.041-.526-.027-1.079-.152-1.242-.28-2.023-.957-2.023-1.754 0-.332-.102-.667-.227-.744-.124-.077-.17.158-.1.524.1.522-.104.877-.964 1.67-.6.555-1.09 1.138-1.09 1.298 0 .159-.114.36-.252.445-.138.085-.334-.295-.435-.845zm-6.127-2.63a1.021 1.021 0 0 0-.662 0c-.181.074-.033.134.331.134s.513-.06.33-.134zm2.583-6.704c.235 0 .76-.347 1.167-.772l.74-.773-1.008.228c-.555.125-1.22.502-1.479.838-.53.689-.652 1.285-.164.797.174-.175.51-.318.744-.318zm1.158.313c.073-.12-.217-.165-.646-.102-.43.063-.78.16-.78.216 0 .202 1.295.098 1.426-.114zm-1.584-1.886c.378-.203.687-.463.687-.58 0-.115-.523.143-1.163.575-1.275.86-1.647.954-1.814.454-.06-.182-.17-.014-.245.373-.099.516-.04.667.22.567.196-.075.356.004.356.176 0 .173.286-.026.636-.442.35-.416.945-.921 1.323-1.123zm7.366-3.604c.439-.414.677-.793.53-.842-.364-.122-2.567 1.23-2.916 1.789-.256.41-.2.421.654.128.513-.177 1.293-.66 1.732-1.075zm-.806 9.332c-1.012-1.044-1.125-1.645-.25-1.33.726.262 2.49.264 2.75.002.105-.104.05-.331-.122-.503-.686-.686-.016-.842 1.512-.35.596.19.624.154.47-.62-.126-.625-.07-.825.225-.825.214 0 .39-.123.39-.273 0-.657-.788-2.066-1.445-2.582-.678-.533-.694-.596-.297-1.162.503-.718.559-1.648.088-1.472-1.213.456-1.52.481-1.52.122 0-.207.297-.698.66-1.09.364-.393.662-.812.662-.931 0-.12.833-.886 1.852-1.703 1.019-.818 1.852-1.33 1.852-1.14 0 .867-.907 2.874-1.516 3.352-.878.691-.686.667 1.027-.127.778-.361 1.454-.544 1.5-.406.048.138-.298.73-.768 1.314-.584.726-1.137 1.116-1.751 1.23-.494.093-.84.227-.769.298.071.071.73-.025 1.463-.213.734-.188 1.418-.258 1.52-.156.238.238-1.695 2.229-2.412 2.485-.417.148-.266.225.648.331.978.114 1.182.23 1.145.654-.025.283.153.66.396.838.604.441.383.585-1.294.842l-1.438.221 1.125.204c.618.113 1.124.29 1.124.393 0 .44-.695.823-1.492.823-1.038 0-1.263.284-.757.953.364.481.548 1.693.257 1.693-.077 0-.847-.357-1.712-.794-.865-.436-1.704-.794-1.866-.794-.188 0-.23.285-.118.794.225 1.026-.09 1.004-1.14-.078zm-5.873.227c0-.227.12-.413.265-.413.145 0 .264.112.264.25 0 .136-.119.322-.264.412-.146.09-.265-.023-.265-.25zm-3.51-9.475c-.489-.372-.988-1.554-.988-2.341 0-.459.072-.483.596-.204.327.175.926.672 1.33 1.104.696.743.712.814.29 1.28-.527.581-.652.598-1.227.161zm1.024-1.852c-.385-.6-.504-1.415-.452-3.095l.028-.911.947.911c1.426 1.372 1.52 1.663.88 2.748-.65 1.1-.883 1.158-1.403.347zm2.361-1.292c.512-1.641.682-1.936.906-1.573.259.419-.308 1.936-.782 2.094-.223.074-.26-.083-.124-.52zm5.156-.107c.34-.896.082-1.335-.493-.835-.24.21-.705.519-1.032.688-.553.286-.595.252-.595-.478 0-.574.39-1.235 1.446-2.444.795-.912 1.519-1.991 1.608-2.399.228-1.039.597-.92.785.252.087.546.201 1.204.253 1.463.052.258-.207.829-.576 1.268-.37.438-.623.847-.562.907.098.099 1.219-1.243 2.21-2.645.351-.496.376-.466.383.463.005.545-.096.992-.223.992-.128 0-.795.684-1.482 1.521-1.511 1.84-2.113 2.276-1.722 1.247zm4.094-.936c-.154-.908-.087-1.181.42-1.72.771-.822 1.038-.81 1.038.046 0 .7-.687 2.39-1.067 2.625-.115.071-.29-.356-.391-.95zm-6.657-1.46c-.194-.504.614-2.313.943-2.11.422.261.487 1.456.108 1.997-.45.643-.832.684-1.051.114z" id="path5462" fill="#212121" stroke-width=".07"></path></g></g></svg>