<svg width="93" height="88" xmlns="http://www.w3.org/2000/svg" viewBox="0 0 24.838 23.536"><title>sophie2 race bat</title><g fill="#212121" class="nc-icon-wrapper"><g id="layer1" transform="translate(-11.665 -309.028)"><path d="M27.18 332.19c-.37-.528-.655-.577-3.67-.631-2.752-.05-3.438-.149-4.347-.626-1.638-.859-2.865-2.383-3.426-4.255-.48-1.605-.718-1.908-1.059-1.356-.116.187-.3.17-.57-.053-.329-.274-.482-.22-.882.311l-.484.642-.188-.749c-.256-1.018.03-3.792.508-4.932.214-.512.638-1.156.942-1.431.47-.425.656-.452 1.247-.183.817.372 1.246.106.532-.33-2.471-1.51-2.78-1.778-3.306-2.864-.645-1.332-.991-3.921-.718-5.374.171-.914.238-.973.941-.833.934.187 4.131 2.226 5.029 3.206.364.398 1.097 1.07 1.629 1.493.93.741 1.019.76 2.333.477 1.034-.221 1.33-.389 1.216-.686-.083-.216-.226-1.196-.317-2.177-.208-2.241.12-3.02 1.169-2.764 3.326.813 6.405 4.67 6.405 8.023 0 1.808.358 2.196 1.37 1.488.33-.232.89-.42 1.244-.42.987 0 2.459 1.726 3.05 3.579.576 1.803.906 5.68.484 5.68-.149 0-.336-.17-.416-.379-.08-.209-.385-.508-.677-.664-.43-.23-.633-.176-1.064.288l-.533.572-.48-.593c-.404-.499-.635-.563-1.464-.408-1.075.202-1.35.874-.455 1.108.645.168.66.433.085 1.408-.41.693-.411.833-.021 1.826.478 1.218.468 1.228-.623.663-.44-.226-1.177-.375-1.641-.33-.672.065-.861.216-.932.743-.131.982-.461 1.174-.912.53zm-6.442-6.634c.224-.244.217-.279-.028-.14-.18.1-.835.294-1.456.428l-1.128.244 1.156-.104c.636-.057 1.291-.25 1.456-.428zm-2.887-.049c-.082-.213.389-.482 1.325-.757 1.278-.376 1.516-.38 2.003-.039.652.457.66.45.871-.659.162-.852-.013-1.073-.498-.63-.477.435-2.862 1.093-3.961 1.093-1.13 0-2.206-.741-1.868-1.288a.307.307 0 0 0-.095-.422c-.532-.329.056-.88 1.12-1.05.607-.097.974-.26.816-.362-.158-.102-.478-.542-.712-.979l-.425-.794-.01.885c-.008.659-.147.92-.543 1.024-.729.19-.92 1.176-.416 2.15.23.446.419 1.009.419 1.252 0 .37.067.387.411.101.344-.285.506-.247.985.232.662.662.752.7.578.243zm.025-2.556c-.098-.159-.354-.288-.569-.288-.315 0-.333.108-.092.558.203.379.385.47.568.287.149-.148.19-.4.093-.557zm4.396-1.52c.582-.526.63-1.492.097-1.935-.313-.26-.59-.177-1.45.43-.584.414-1.065.878-1.068 1.03-.018.902 1.599 1.22 2.421.475zm5.511-2.886c0-.275-.59-1.3-1.057-1.835-.253-.291-.536-.849-.629-1.24-.092-.39-.387-.78-.656-.864-.411-.13-.47-.36-.367-1.43.135-1.406-.38-2.743-1.235-3.2-.416-.223-.527-.157-.665.396-.327 1.302.852 6.26 1.775 7.463.39.51 2.834 1.12 2.834.71zm-13.698-2.43c-.072-.4-.248-.875-.39-1.055-.142-.18-.186-.617-.097-.97.098-.393.038-.685-.155-.749-.196-.065-.292-.56-.254-1.304.042-.813-.068-1.307-.342-1.534-.332-.276-.433-.257-.572.103-.206.537.096 3.38.46 4.343.214.564 1.219 1.893 1.432 1.893.027 0-.01-.327-.082-.727z" id="path5547" fill="#212121" stroke-width=".07"></path></g></g></svg>