<svg width="99" height="99" xmlns="http://www.w3.org/2000/svg" viewBox="0 0 26.39 26.382"><title>sophie2 category talismans</title><g fill="#212121" class="nc-icon-wrapper"><g id="layer1" transform="translate(-33.528 -324.946)"><path d="M45.094 350.874a6.217 6.217 0 0 1-1.1-1.011c-.244-.307-.918-.7-1.496-.873-1.326-.397-3.911-2.288-4.893-3.578-.412-.541-1.086-1.723-1.497-2.627-.412-.904-1.116-1.992-1.564-2.418-1.44-1.37-1.338-3.44.233-4.725.394-.322.92-1.109 1.167-1.748.997-2.57 3.313-5.035 5.866-6.243.773-.366 1.519-.665 1.657-.665.137 0 .452-.308.698-.684.583-.89 2.105-1.52 3.181-1.319.46.087 1.185.524 1.611.971.426.448 1.514 1.152 2.418 1.564.903.411 2.086 1.085 2.627 1.497 1.243.946 3.13 3.49 3.551 4.786.177.545.781 1.493 1.343 2.109.88.964 1.021 1.289 1.021 2.355 0 1.104-.113 1.343-1.058 2.215-.582.537-1.058 1.127-1.058 1.311 0 .796-1.768 3.545-3.074 4.78-.78.738-2.193 1.705-3.139 2.147-.945.443-2.125 1.21-2.621 1.707-.752.752-1.096.902-2.061.902-.663 0-1.438-.193-1.812-.453zm2.39-.076c.122 0 .588-.308 1.036-.685.675-.568.814-.877.814-1.816 0-.744-.188-1.37-.548-1.829-.638-.81-.949-.86-1.614-.259-.45.408-.518.407-.99-.021-1.027-.929-2.37.78-2.032 2.585.236 1.261 1.783 2.461 2.758 2.141.194-.064.453-.116.575-.116zm-3.868-3.018c.088-.35.232-.826.321-1.058.14-.366-.144-.422-2.15-.422-2.309 0-2.312 0-1.683.495.825.647 2.657 1.622 3.046 1.622.168 0 .378-.286.466-.637zm8.813-.31c1.747-1.017 1.652-1.17-.729-1.17-2.114 0-2.16.014-2.003.596.087.327.16.816.163 1.087.003.403.135.46.73.312.401-.098 1.228-.47 1.84-.825zm-7.106-2.133c.05-.03-1.2-1.31-2.776-2.845-2.52-2.454-2.913-2.744-3.255-2.403-.34.342-.304.56.31 1.811 1.077 2.196 4.249 4.485 5.234 3.777.219-.157.438-.31.487-.34zm5.012.06c1.51-.773 2.974-2.263 3.756-3.827.532-1.062.545-1.194.157-1.582-.389-.388-.658-.189-3.245 2.398-2.433 2.433-2.774 2.878-2.477 3.235.431.52.33.533 1.81-.224zm-8.59-.02c-.31-.218-1.052-.949-1.647-1.625l-1.083-1.23v3.249h1.647c1.535 0 1.608-.026 1.082-.395zm6.07-.598l.968-.992h-4.22l1.074.992c.59.546 1.105.992 1.141.992.037 0 .503-.446 1.036-.992zm6.537-.53l-.01-1.52-.641.793a13.68 13.68 0 0 1-1.502 1.522l-.861.727H54.361l-.01-1.521zm-15.605-.793c-.003-.982-.092-1.916-.199-2.076-.11-.164-.628-.237-1.195-.168-.875.106-.98.192-.834.687.234.8 1.773 3.343 2.023 3.343.115 0 .207-.804.205-1.786zm17.968-.915l.527-1.268-.58-.004a5.687 5.687 0 0 1-1.176-.163c-.583-.156-.595-.114-.586 2.054l.01 2.214.64-.782c.351-.43.876-1.353 1.166-2.051zm-7.83.156c1.833-.929 2.83-2.501 2.83-4.464 0-5.04-6.361-6.995-9.174-2.82-1.66 2.463-.58 6.133 2.163 7.342 1.099.484 3.166.455 4.18-.058zm-10.306-2.706c.637-.664.674-.792.314-1.09-.513-.426-.519-.91-.015-1.327.755-.628-.807-2.121-2.218-2.121-1.615 0-2.877 1.6-2.567 3.253.381 2.032 3.04 2.794 4.486 1.285zm19.952.158c.934-.997 1.172-1.948.744-2.972-.826-1.976-3.711-2.286-4.666-.502-.297.554-.275.683.165 1.006.482.352.484.394.047.877-.624.69-.58.995.237 1.638.98.77 2.73.746 3.473-.047zm-5.11-3.084l-1.044-1.054v4.196l1.044-1.044 1.044-1.044zm-12.486 1.713c-.073-.644.005-1.566.173-2.047l.305-.876-1.195 1.173-1.194 1.173.955.875c.525.48.985.874 1.022.874.036 0 .006-.527-.066-1.172zm4.046-8.057c-1.412-1.411-6.96 4.14-5.68 5.684.288.346.735.004 3.197-2.45 2.486-2.479 2.813-2.904 2.483-3.234zm9.279 4.413c-.558-1.48-2.12-3.2-3.656-4.028-1.384-.746-1.543-.778-1.936-.389-.394.39-.2.65 2.404 3.243 2.494 2.482 2.87 2.766 3.154 2.378.24-.33.25-.633.034-1.204zM38.732 332.7c.018-1.728-.007-1.804-.447-1.406-.474.43-2.049 3.338-1.877 3.468.051.04.51.188 1.02.33 1.158.323 1.279.1 1.304-2.392zm17.68 2.29c.327-.07.595-.265.595-.432 0-.388-.977-2.22-1.622-3.044-.493-.63-.495-.625-.495 1.682 0 2.1.043 2.295.463 2.119a7.32 7.32 0 0 1 1.059-.324zm-14.782-3.92l.948-.645H39.015l.01 1.654.008 1.654.825-1.01c.453-.555 1.25-1.3 1.772-1.653zm12.731.943v-1.588h-3.164l1.516 1.545c.834.85 1.546 1.564 1.582 1.587.037.024.066-.67.066-1.544zm-5.291.704c0-.049-.52-.576-1.156-1.171l-1.155-1.083-1 1.024-1 1.025 1.427-.14c.786-.078 1.726-.02 2.09.13.801.329.794.326.794.215zm-2.195-2.82c.153 0 .43.183.616.406.298.36.426.323 1.09-.314 1.51-1.445.747-4.105-1.285-4.486-2.686-.504-4.394 2.985-2.277 4.65.622.49.738.504 1.136.144.243-.22.568-.4.72-.4zm-3.183.058c.238-.151.238-.43.003-1.184-.253-.807-.406-.958-.84-.832-.594.173-3.31 1.89-3.31 2.092 0 .21 3.807.14 4.147-.076zm10.14-.04c0-.265-2.429-1.707-3.338-1.98-.484-.146-.581-.035-.72.82-.104.645-.048 1.058.163 1.192.459.292 3.895.264 3.895-.031z" id="path6155" fill="#212121" stroke-width=".07"></path></g></g></svg>