<svg width="86" height="106" xmlns="http://www.w3.org/2000/svg" viewBox="0 0 23.015 28.192"><title>sophie2 tool hammer</title><g fill="#212121" class="nc-icon-wrapper"><g id="layer1" transform="translate(-17.285 -368.825)"><path d="M37.045 395.216c-5.634-8.823-8.146-12.81-8.255-13.1-.111-.296 1.919-1.737 2.097-1.488.193.272 8.392 13.474 8.856 14.261l.556.945-1.052.591-1.052.592zm2.2.152c0-.32-.725-.294-.926.032-.286.463.138.854.553.51.205-.17.373-.415.373-.542zm-.663-1.028c-.213-.346-.925-.01-.925.436 0 .298.114.317.537.091.295-.158.47-.395.388-.527zm-.751-.671c.086-.225.085-.48-.002-.567-.23-.229-.987.46-.815.74.226.366.644.277.817-.173zm-.735-.89c.2-.126.286-.357.19-.513-.232-.375-.951-.084-.951.384 0 .422.237.462.761.13zm-15.725-9.519c-2.051-.933-4.086-4.188-4.086-6.535 0-1.165.846-2.063 2.377-2.522 1.023-.306 1.219-.282 2.276.278 1.952 1.036 3.549 3.768 3.549 6.072 0 1.155-.104 1.39-.936 2.12-.514.451-1.04.82-1.169.82-.128 0-.392.058-.586.128-.193.07-.835-.092-1.425-.36zm2.71-2.151c-.168-1.414-1.135-3.59-2.017-4.537-.727-.78-1.915-1.542-2.398-1.537-.218.002-.004.198.476.434 1.799.887 3.757 4.11 3.757 6.183 0 .43.076.784.17.784.092 0 .098-.597.011-1.327zm-3.028-.927c-.149-.778-1.652-2.012-1.652-1.357 0 .428 1.241 2.023 1.575 2.023.112 0 .147-.3.077-.666zm4.704.27c-.018-2.145-1.996-5.626-3.462-6.091-.83-.264-.587-.657.406-.657 1.562 0 3.198-.995 4.255-2.587.691-1.041 1.267-1.568 2.13-1.95 1.518-.672 2.486-.39 4.008 1.167 1.375 1.407 2.169 3.139 2.176 4.748.006 1.189-.045 1.276-1.118 1.901-.619.36-1.694.797-2.39.97-.714.179-1.38.529-1.526.804-.336.627-2.533 1.92-2.889 1.7-.15-.093-.566.166-.925.574l-.654.743-.011-1.323zm7.777-6.55c-.503-1.514-2.879-4.167-3.73-4.165-.351 0-.266.131.313.485.945.576 2.344 2.123 2.91 3.217.223.432.492 1.353.596 2.047.147.97.21 1.091.279.525.048-.405-.117-1.354-.368-2.108zm-5.666 7.368c0-.45 2.282-1.837 2.65-1.61.467.289.28.515-1.036 1.254-1.487.835-1.614.863-1.614.356zm-4.498-8.177c0-.19.154-.557.343-.815.282-.385.506-.426 1.257-.227l.914.241-1.114.574c-1.303.671-1.4.687-1.4.227z" id="path5312" fill="#212121" stroke-width=".07"></path></g></g></svg>