<svg width="85" height="98" xmlns="http://www.w3.org/2000/svg" viewBox="0 0 22.642 26.167"><title>sophie2 race medium groll</title><g fill="#212121" class="nc-icon-wrapper"><g id="layer1" transform="translate(-72.49 -306.268)"><path d="M88.272 331.64c-.108-.535-.317-.793-.644-.793-.267 0-.717-.175-1-.388-.486-.368-.468-.39.33-.397 1.151-.012 2.224-.454 2.68-1.106.491-.701.833-.234.839 1.146.007 1.6-.395 2.333-1.28 2.333-.64 0-.793-.131-.925-.794zm-8.64-.405c0-.778-.146-1.022-.874-1.451-.482-.284-1.136-.981-1.455-1.549-1.02-1.813-.622-4.38.605-3.909.617.237 1.458 1.8 1.46 2.712 0 .89.948 2.502 1.588 2.701.218.068.079-.176-.31-.543-.49-.461-.765-1.062-.895-1.955-.261-1.778-1.137-3.269-1.923-3.271-.585-.002-.607-.068-.452-1.391.095-.816.008-2.175-.213-3.295-.45-2.294-.25-3.685.713-4.949.603-.79.66-1.017.416-1.66-.156-.41-.468-.949-.694-1.198-.514-.569-.272-1.267.44-1.267.415 0 .537.172.537.764 0 .42.247 1.045.549 1.389.302.344.474.476.381.294-.102-.2.01-.33.282-.33.247 0 .604-.21.793-.464.304-.41.414-.42.955-.09.526.322.569.322.305 0-.168-.205-.387-.922-.487-1.592-.143-.96-.066-1.446.358-2.278.67-1.312 1.685-1.775 3.507-1.6 1.13.109 1.507.295 2.352 1.158 1.205 1.232 1.458 1.937.943 2.63-.62.835-1.34.194-1.34-1.193 0-1.356-.783-2.128-2.159-2.128-1.352 0-2.38.641-2.73 1.705-.257.776-.224 1.101.212 2.087.48 1.086 1.306 2.064.942 1.116-.122-.317.032-.41.682-.41.883 0 1.686.327 2.46 1.003.444.387.444.43 0 .937-.33.377-.35.466-.068.305 1.172-.67 1.852-1.348 1.852-1.845 0-.685.474-1.194 1.111-1.194.862 0 .514.988-.848 2.409-.728.76-1.262 1.443-1.186 1.519.076.076.278-.001.448-.172.4-.4 1.265.837 1.267 1.814.001.37.137.81.302.974.165.165.333.92.374 1.677.041.758.22 1.468.4 1.578.214.133.276.573.18 1.287-.08.597-.038 1.151.094 1.233.255.157.34 1.44.095 1.44-.452 0-1.434-1.41-1.592-2.286-.264-1.47-.682-2.073-.478-.691.176 1.194.066 1.286-1.145.961-.457-.122-.603-.392-.681-1.253l-.1-1.097-.047 1.119c-.042 1.021-.138 1.166-1.102 1.658-1.492.76-2.483 2.727-2.23 4.42.1.664.374 1.374.61 1.577.235.202.784.669 1.22 1.036l.795.668-1.72-.107c-.946-.059-1.958-.2-2.25-.314-.49-.192-.495-.18-.065.16.439.347.436.41-.063 1.226-.405.664-.707.86-1.322.86-.737 0-.798-.072-.798-.935zm-.947-13.249c.23-.088.419-.386.419-.661 0-.597-.41-.665-.625-.104-.243.632-.698.46-.698-.265 0-.364-.12-.661-.265-.661-.452 0-.29 1.282.199 1.566.565.33.47.317.97.125zm6.164-.534c.527-.72.406-1.157-.321-1.157-.525 0-.662.133-.662.646 0 .91-.528 1.132-1.078.454-.437-.54-1.303-.557-1.303-.027 0 .856 2.75.925 3.364.084zm7.815 13.584c-1.464-.492-1.654-.635-1.654-1.246 0-.379-.107-.803-.237-.94-.13-.139-.172-1.195-.094-2.347.121-1.793.19-2.027.483-1.627.187.256.277.633.198.837-.083.218.024.371.26.371.52 0 1.771 1.488 1.771 2.106 0 .263.238.54.53.617.29.076.529.332.529.57 0 .236.188.718.42 1.07.43.66.319 1.212-.238 1.17-.173-.014-1.059-.275-1.968-.58zm-7.338-1.845c-1.833-1.052-2.169-2.512-1.073-4.673.685-1.352 1.548-1.873 3.103-1.873 1.146 0 2.766 1.675 2.963 3.063.127.892.022 1.287-.605 2.276-.52.819-.999 1.25-1.518 1.362-.417.09-.996.229-1.287.307-.298.08-.989-.122-1.583-.462zm2.509-.99c-.619-.484-1.323-.696-1.323-.398 0 .119 1.53.861 1.852.9.073.009-.165-.217-.53-.502zm-1.772-2.06c-.082-.612.032-1.4.293-2.025.618-1.48.304-1.484-.351-.004-.624 1.41-.666 1.793-.277 2.52.402.752.485.63.335-.49zm-11.371 2.427c-.993-.34-2.199-1.512-2.202-2.14 0-.175.129-.921.287-1.659.333-1.554 1.104-2.124 2.874-2.124 1.01 0 1.071.045 1.071.778 0 .428-.119.852-.264.942-.42.26-.315 2.983.141 3.68.385.588.373.626-.244.744-.358.069-1.107-.03-1.663-.221zm.84-1.16c-.265-.294-.542-.474-.614-.4-.073.072.084.371.35.664.264.293.54.473.613.4.073-.073-.084-.372-.35-.665zm-.576-2.54c.086-.532.37-1.207.63-1.501.367-.413.384-.507.078-.41-.463.144-.927 1.04-1.192 2.3-.117.558-.09.834.07.735.141-.088.327-.594.414-1.125zm.718-2.686c.005-.11.302-.556.66-.992l.65-.794.001.992c.002.882-.071.992-.66.992-.363 0-.657-.09-.652-.198z" id="path5445" fill="#212121" stroke-width=".07"></path></g></g></svg>