<svg width="80" height="81" xmlns="http://www.w3.org/2000/svg" viewBox="0 0 21.383 21.654"><title>sophie2 category catalysts</title><g fill="#212121" class="nc-icon-wrapper"><g id="layer1" transform="translate(-17.727 -407.75)"><path d="M24.631 428.296c0-.824-.105-1.108-.41-1.108-.715 0-3.173-1.748-4.172-2.967-1.252-1.528-2.025-3.305-2.19-5.037l-.132-1.389.66 1.22c.871 1.61 3.033 3.523 4.573 4.048 1.644.56 1.671.552 1.671-.43 0-.745.048-.802.385-.463.212.213.919 1.155 1.57 2.092l1.184 1.704-.75.942a20.486 20.486 0 0 1-1.57 1.718l-.819.778zm5.2-1.205a27.736 27.736 0 0 1-.313-1.804l-.18-1.239 1.02-.275c.561-.15 1.615-.455 2.343-.676.728-.22 1.353-.403 1.389-.404.245-.01-.027 1.05-.522 2.043-.611 1.224-2.036 2.53-3.029 2.777-.432.108-.607.003-.708-.422zm4.234-2.35c.548-1.071.738-1.887.83-3.558.066-1.192.04-2.482-.056-2.867-.172-.684-.19-.69-.849-.258-.37.242-.728.386-.795.32-.067-.068.348-1.14.923-2.384l1.044-2.26 1.902.489c1.046.269 1.961.548 2.034.62.072.073-.171.33-.54.572-.61.4-.672.603-.667 2.217.007 2.135-.168 2.932-1.017 4.63-.64 1.28-2.84 3.868-3.288 3.868-.128 0 .087-.625.479-1.39zm-14.67-5.028c-.421-.618-.903-1.529-1.072-2.023-.321-.943-.41-2.48-.16-2.732.081-.08.904.153 1.829.52l1.68.667-.365 1.036c-.2.569-.443 1.625-.539 2.346-.096.72-.272 1.31-.392 1.31s-.561-.505-.982-1.124zm.524-7.948c-.319-1.097-.58-2.07-.58-2.164 0-.094.343.032.762.28.74.437.786.43 1.668-.242 1.87-1.426 3.32-1.88 6.037-1.89 2.15-.006 2.723.09 3.956.665l1.442.673-1.839.016c-2.251.019-4.335.765-5.916 2.119l-1.125.963.749.613.749.613-1.086.01c-.597.005-1.795.083-2.662.174l-1.576.165-.58-1.994zm10.805-.048c-.934-.942-1.618-1.793-1.52-1.89.098-.098.763-.234 1.478-.303 1.443-.139 3.738.489 4.31 1.178.3.361.167.578-.965 1.573-.721.635-1.378 1.155-1.459 1.155-.08 0-.91-.771-1.844-1.713z" id="path6138" fill="#212121" stroke-width=".07"></path></g></g></svg>