<svg width="51" height="51" xmlns="http://www.w3.org/2000/svg" viewBox="0 0 13.528 13.703"><title>sophie2 element lightning</title><g fill="#212121" class="nc-icon-wrapper"><g id="layer1" transform="translate(-54.953 -342.818)"><path d="M59.734 356.232a6.978 6.978 0 0 1-4.01-3.447c-2.319-4.6.86-9.956 5.917-9.967 5.585-.013 8.844 6.47 5.474 10.889-1.765 2.314-4.846 3.368-7.38 2.525zm4.129-5.474l2.089-2.441-2.143.081c-1.178.045-2.2.023-2.272-.049-.115-.115.033-1.01.52-3.137.08-.352-.873.72-2.118 2.381l-2.264 3.022 2.009.077c2.264.088 2.125-.186 1.305 2.568l-.395 1.323.59-.692 2.679-3.133z" id="path1102" fill="#212121" stroke-width=".265"></path></g></g></svg>