<svg width="50" height="51" xmlns="http://www.w3.org/2000/svg" viewBox="0 0 13.473 13.649"><title>sophie2 element ice</title><g fill="#212121" class="nc-icon-wrapper"><g id="layer1" transform="translate(43.952 -343.462)"><path d="M-39.155 356.832c-3.98-1.26-5.96-5.929-4.083-9.63 1.329-2.624 3.698-3.95 6.635-3.713 2.466.198 4.245 1.414 5.518 3.772.81 1.502.807 4.582-.009 6.123-1.517 2.866-5.081 4.39-8.061 3.448zm2.436-2.163c0-.67.36-.884.664-.392.091.148.277.2.412.116.454-.28.253-.827-.415-1.13-.524-.24-.661-.496-.661-1.24v-.94l.777.402c.57.296.798.625.86 1.244.094.956.744 1.38.744.486 0-.498.103-.55.794-.398.906.2 1.089-.252.33-.814-.438-.326-.436-.364.041-.717.767-.568.284-1.126-.519-.6-.794.52-1.17.517-1.934-.017l-.612-.43.732-.48c.669-.438.799-.445 1.51-.077.98.507 1.659.059.834-.552-.505-.374-.505-.388-.011-.754.64-.475.334-1.096-.358-.725-.383.205-.512.15-.62-.264-.076-.288-.327-.523-.559-.523-.305 0-.422.254-.422.917 0 .635-.157 1-.511 1.19-.844.452-1.076.32-1.076-.61 0-.685.148-.95.661-1.184.364-.166.662-.496.662-.733 0-.328-.159-.391-.662-.265-.542.136-.661.07-.661-.368 0-.299-.175-.535-.397-.535-.228 0-.397.24-.397.56 0 .43-.123.528-.529.422-.835-.218-.944.37-.173.933.755.55 1.016 2.054.356 2.054-.665 0-1.352-.74-1.363-1.469-.013-.884-.648-1.193-.852-.413-.113.432-.285.52-.776.396-.738-.185-.805.062-.199.732.401.443.401.49 0 .645-.46.176-.606.903-.18.903.138 0 .555-.138.925-.307.507-.23.84-.232 1.336-.006.832.379.835.66.013 1.1-.529.282-.798.284-1.464.008-.995-.412-1.308-.182-.686.505.44.487.436.523-.09.804-.824.442-.687.9.215.719.621-.124.793-.05.908.392.203.773.837.454.85-.427.01-.687.898-1.73 1.474-1.73.13 0 .235.42.235.932 0 .737-.138.994-.661 1.233-.364.165-.662.473-.662.684 0 .277.184.337.662.217.574-.144.661-.078.661.5 0 .417.15.667.397.667.247 0 .397-.25.397-.661z" id="path4925" fill="#212121" stroke-width=".07"></path></g></g></svg>