<svg width="69" height="81" xmlns="http://www.w3.org/2000/svg" viewBox="0 0 18.499 21.5"><title>sophie2 usable</title><g fill="#212121" class="nc-icon-wrapper"><g id="layer1" transform="translate(135.448 -270.067)"><path d="M-127.39 289.783c-.855-1.527-.952-1.86-.674-2.305.179-.287.281-.565.227-.619-.054-.054-.806-.177-1.672-.273-2.202-.246-4.148-1.214-5.132-2.553-.658-.894-.807-1.354-.807-2.483 0-1.716.293-2.509 1.524-4.124l.966-1.265h1.667c1.589 0 1.653.024 1.345.517-.408.653-.018 1.095.428.485.488-.668 1.587-1.002 3.294-1.002.835 0 1.65-.133 1.812-.295.324-.323 2.952.736 3.857 1.555.545.493 2.542 3.454 3.187 4.724l.418.826-1.84 2.524c-1.013 1.388-1.842 2.65-1.842 2.806 0 .154.26.817.58 1.473.318.656.5 1.27.404 1.366-.095.095-1.652.23-3.46.3l-3.285.127zm5.242.668l1.527-.003-.56-1.097c-.677-1.328-.577-1.618 1.427-4.145.773-.973 1.496-1.923 1.609-2.111.127-.213-.363-1.28-1.294-2.819-1.363-2.253-1.642-2.552-3.092-3.325-1.405-.749-1.64-.804-1.984-.46-.344.344-.219.487 1.052 1.204 1.033.583 1.678 1.196 2.27 2.158.454.738.823 1.49.819 1.67-.008.387-1.502-1.326-1.72-1.974-.187-.554-2.593-2.065-3.289-2.065-1.214 0-.552 1.19 1.026 1.843.681.282 2.63 3.045 2.347 3.327-.071.071-.596-.498-1.166-1.264-1.043-1.401-3.52-3.055-4.07-2.716-.556.344-.222.929.907 1.591 1.175.688 2.942 3 2.745 3.592-.055.164-.541-.366-1.08-1.18-.942-1.417-2.49-2.548-3.488-2.548-.684 0-.454.925.385 1.545.436.322 1.144 1.202 1.574 1.955l.782 1.369-.913 1.271c-.502.7-.942 1.36-.978 1.468-.035.109.33.837.812 1.619.853 1.383.9 1.416 1.85 1.26.537-.09 1.663-.163 2.502-.165zm-10.003-15.63c-.404-.653.473-.788 4.66-.717 3.654.06 4.346.136 4.346.47 0 .333-.7.408-4.413.469-3.022.05-4.469-.02-4.593-.222zm-1.015-2.228c-.717-.542-.398-1.032 1.188-1.822 1.602-.798 3.666-.945 4.203-.299.374.452 1.21.528 1.455.133.205-.333 1.3-.34 2.362-.018.447.137 1.319.38 1.937.54 1.292.336 1.393.567.463 1.065-.364.195-.661.453-.661.574 0 .12-.679.22-1.508.22-1.173 0-1.438-.07-1.191-.318.175-.174.318-.412.318-.529 0-.358-.71-.234-1.059.185-.532.642-2.87.528-3.62-.177-.71-.668-1.052-.51-.625.287.283.53.235.551-1.236.543-.9-.005-1.734-.163-2.027-.384z" id="path362" fill="#212121" stroke-width=".07"></path></g></g></svg>