<svg width="105" height="97" xmlns="http://www.w3.org/2000/svg" viewBox="0 0 27.869 25.697"><title>sophie2 race plant</title><g fill="#212121" class="nc-icon-wrapper"><g id="layer1" transform="translate(-70.786 -200.178)"><path d="M82.108 225.359c.38-.421.474-1.048.504-3.374.034-2.665-.012-2.938-.683-4.08-.764-1.298-1.576-1.74-2.082-1.13-.168.203-.487.37-.707.37-.22 0-.676.297-1.013.66-.452.488-.884.662-1.643.662-1.164 0-1.857-.584-2.296-1.934-.185-.57-.63-1.033-1.406-1.46-1.448-.798-1.996-1.646-1.996-3.088 0-1.42.634-2.437 1.829-2.936.592-.248.905-.557.905-.895 0-.64.913-1.172 1.473-.858.648.363 1.93.06 2.108-.5.087-.275.27-.5.406-.5.135 0 .246-.48.246-1.067 0-2.11 1.005-3.498 3.254-4.493 2.381-1.053 5.949-.556 7.118.993.193.256.588.598.877.76.289.16.569.515.622.786.144.73.839 1.151 1.918 1.16 1.235.012 2.284.84 2.497 1.973.107.573.385.983.79 1.167.869.397 1.532 1.5 1.38 2.298-.105.545.024.738.708 1.062 1.014.482 1.738 1.632 1.738 2.762 0 1.135-2.422 3.712-3.488 3.712-.393 0-.787.119-.877.264-.245.396-1.08.32-1.455-.132-.195-.234-.772-.397-1.407-.397-.8 0-1.263-.177-1.793-.685-.596-.571-.806-.636-1.262-.393-.313.168-.677.773-.85 1.413-.167.616-.426 1.382-.576 1.702-.41.876-.097 5.215.436 6.028l.437.666h-3.09c-3.049 0-3.084-.007-2.622-.516zm4.112-7.744c0-.661.933-2.11 1.62-2.516.884-.523 1.012-.992.212-.783-.328.086-.732-.04-1.007-.315-.435-.435-.479-.43-.862.086-.67.903-.986 2.155-.832 3.301.118.88.214 1.029.507.785.2-.165.362-.416.362-.558zm-1.804-.338c.44-.966-.132-2.723-.993-3.05-.52-.198-.764-.137-1.205.305l-.553.553.605.831c.333.457.792 1.095 1.02 1.418.54.761.758.75 1.126-.057zm-3.17-2.302c-.17-.17-.397-.221-.504-.114-.107.108-.024.301.186.431s.437.18.504.114c.067-.068-.016-.262-.186-.431zm4.116-1.045c-.46-.285-.836.174-.613.749.177.459.203.457.564-.033.296-.402.306-.557.05-.716z" id="path5823" fill="#212121" stroke-width=".07"></path></g></g></svg>