<?xml version="1.0" encoding="UTF-8"?>
<svg width="25.455mm" height="37.485mm" version="1.1" viewBox="0 0 25.455 37.485" xmlns="http://www.w3.org/2000/svg">
 <g transform="translate(-55.365 -102.45)">
  <path d="m62.924 139.38c-9.3762-3.482-10.241-16.183-1.4064-20.647 0.8663-0.4377 1.9132-0.79584 2.3265-0.79584 1.0194 0 2.0226-1.6451 3.7695-6.1818 1.0168-2.6405 1.3136-3.9791 0.96062-4.3321-0.70414-0.70413-0.64162-2.1537 0.1044-2.4212 0.33832-0.12132 1.0064-0.0193 1.4845 0.22666 0.71644 0.36862 0.92086 0.18939 1.1626-1.0194 0.16134-0.80666 0.58986-1.5804 0.95229-1.7195 0.87691-0.3365 6.695 2.0175 7.4719 3.0231 0.49437 0.63992 0.47059 1.0095-0.12306 1.9156-0.67387 1.0284-0.65296 1.1669 0.24874 1.6495 1.3353 0.71464 1.2405 1.8957-0.19619 2.4419-0.83992 0.31936-1.4309 1.2033-2.0485 3.0639-0.47739 1.4383-1.2495 3.4679-1.7158 4.5103-0.82973 1.8547-0.82304 1.9388 0.31329 3.9374 0.63862 1.1232 1.2995 2.9621 1.4686 4.0864 0.39388 2.6186-0.84463 6.9763-2.5631 9.0186-2.7094 3.2198-8.2851 4.7011-12.21 3.2435zm7.3584-1.6894c3.4645-1.5739 6.1356-5.5821 6.1452-9.2213 0.01296-4.9042-4.6515-9.5478-9.5908-9.5478-3.957 0-6.9923 1.7394-8.6282 4.9446-2.1131 4.1402-1.6198 8.1515 1.3986 11.373 2.9901 3.1911 7.0135 4.1152 10.675 2.4517zm-7.8689-1.6842c-4.964-2.8114-5.6444-10.105-1.285-13.773 4.2438-3.5709 9.888-2.3522 9.888 2.1349 0 3.0248-2.697 3.0763-3.0469 0.0581-0.35965-3.102-3.8436-1.2803-3.8436 2.0098 0 2.8546 1.673 5.4564 4.4968 6.9933 1.3165 0.71655 2.3936 1.5048 2.3936 1.7516 0 0.79293-2.8459 1.9508-4.7743 1.9425-1.0285-4e-3 -2.7515-0.50731-3.8287-1.1174zm-0.01005-6.0178c0-0.6391-0.38346-1.0321-1.1074-1.1349-0.81558-0.11584-1.1074 0.0895-1.1074 0.77927 0 0.51509 0.15526 1.0919 0.3451 1.2817 0.65291 0.65289 1.8697 0.0502 1.8697-0.92607zm8.1524 1.029c-0.76404-0.92059-0.27922-1.7606 1.0161-1.7606 0.73581 0 0.94922 0.27411 0.83227 1.0688-0.19651 1.3356-1.0492 1.6547-1.8484 0.69173zm4.944-15.173c0.8427-2.0561 1.1016-3.1678 0.70226-3.0146-0.34803 0.13356-1.9684-0.29991-3.6009-0.96325l-2.9682-1.2061-1.0308 2.8272c-1.2964 3.5555-1.2886 3.9564 0.07654 3.9573 0.60907 0 1.8826 0.41463 2.83 0.92049 0.94745 0.50585 1.9326 0.87844 2.1894 0.82798 0.25672-0.0504 1.0675-1.5576 1.8018-3.3491z" style="fill:#ff80e5;stroke-width:.49218"/>
 </g>
</svg>
