<?xml version="1.0" encoding="UTF-8"?>
<svg width="32.517mm" height="27.212mm" version="1.1" viewBox="0 0 32.517 27.212" xmlns="http://www.w3.org/2000/svg">
 <g transform="translate(13.758 -9.7896)">
  <path d="m-6.0408 36.547c-0.54031-0.3951-0.57452-0.61513-0.26818-1.7244 0.44897-1.6256 0.24238-9.7649-0.25207-9.9301-0.19558-0.06533-0.84106 0.14266-1.4344 0.46217-1.3081 0.70443-1.9943 0.48779-2.7367-0.86405-0.30954-0.56367-1.117-1.9623-1.7945-3.108s-1.2317-2.2484-1.2317-2.4503c0-0.20193 1.2652-1.5647 2.8115-3.0285 1.5463-1.4638 3.0145-3.0539 3.2627-3.5337 0.34107-0.65961 0.91699-1.0015 2.3616-1.4019 3.0928-0.85722 6.5027-1.3369 8.036-1.1305 3.9932 0.53771 5.5485 0.87953 6.7187 1.4765 0.7057 0.36002 1.9191 0.82582 2.6966 1.0352 1.1239 0.30263 1.6274 0.6966 2.458 1.9229 0.57449 0.84828 1.7482 2.2286 2.6083 3.0674 0.86006 0.83881 1.5637 1.6319 1.5637 1.7625 0 0.13054-0.53213 0.96226-1.1825 1.8482-0.65037 0.88598-1.5404 2.3527-1.9778 3.2595-0.9131 1.8928-1.5302 2.2668-2.4167 1.4645-1.2564-1.137-1.4658-0.56499-1.8413 5.0303-0.19608 2.9212-0.4599 5.4146-0.58632 5.541-0.79915 0.79915-15.747 1.0673-16.795 0.30131zm12.217-1.2916c3.3134-0.14777 3.3852-0.28644 3.3852-6.5365 0-5.2528 0.35306-7.809 1.1726-8.4892 0.34962-0.29017 0.48257-0.17145 0.63251 0.56486 0.58089 2.8522 1.2594 3.5434 2.6889 2.7387 0.98827-0.55629 2.3804-3.0336 2.3943-4.2608 0.01323-1.1508-5.0049-6.0725-6.5337-6.4082-0.98626-0.21664-1.2167-0.11988-2.1553 0.90458-0.57801 0.63098-1.3564 1.2442-1.7297 1.3626-0.98478 0.31255-1.0471 0.47839-1.8607 4.953-0.76242 4.1932-0.69863 4.0018-1.4719 4.4156-0.54525 0.29184-0.79814 0.20333-1.4608-0.51136-0.72205-0.77872-0.81407-1.2063-0.92927-4.3186-0.11787-3.1841-0.18822-3.4957-0.89953-3.9834-0.42444-0.29099-1.3672-1.0833-2.0951-1.7607-0.7279-0.67744-1.5166-1.2317-1.7527-1.2317-0.91239 0-2.6441 1.0879-3.3338 2.0944-0.39706 0.57952-1.463 1.7638-2.3687 2.6318-0.9057 0.86797-1.6467 1.7189-1.6467 1.8911 0 1.1386 2.4419 4.5502 3.2569 4.5502 1.1696 0 2.3258-1.2698 2.3396-2.5693l0.0127-1.2079 0.54705 1.1496c0.37851 0.79542 0.62973 2.6169 0.81547 5.9122 0.14769 2.6194 0.30779 5.3748 0.35581 6.123 0.14243 2.2174 0.34335 2.3103 4.7329 2.1861 2.1282-0.060167 4.7848-0.15023 5.9036-0.20013zm-2.8662-19.338c0.35002-0.57558 1.2716-1.3515 2.048-1.7244 0.96189-0.46188 1.4116-0.88567 1.4116-1.3303 0-1.1128-1.6281-1.6472-5.0042-1.6423-2.6235 4e-3 -3.1251 0.09599-3.7115 0.68241-0.65924 0.65924-0.66143 0.6985-0.078952 1.4178 0.32949 0.40688 1.1128 0.84431 1.7407 0.97205 0.89225 0.1815 1.2679 0.49869 1.7191 1.4517 0.70623 1.4917 1.0537 1.5238 1.8752 0.17296z" style="fill:#4a0;stroke-width:.32845"/>
 </g>
</svg>
