<?xml version="1.0" encoding="UTF-8"?>
<svg width="25.096mm" height="25.296mm" version="1.1" viewBox="0 0 25.096 25.296" xmlns="http://www.w3.org/2000/svg">
 <g transform="translate(14.023 6.0854)">
  <path d="m-8.6887 18.373c-1.5814-0.57243-2.4938-1.3598-3.1856-2.7491-1.0402-2.0889-1.3004-7.1686-0.43714-8.5336 0.59571-0.94194 0.58682-0.95054 1.8224 1.7693 1.1211 2.4678 4.7769 5.2541 8.0382 6.1264 1.3001 0.34772 2.2789 0.89128 2.1751 1.2079-0.25342 0.77274-4.3218 3.0594-5.3658 3.0159-0.45707-0.01905-1.8283-0.3956-3.0471-0.83677zm9.6452-1.2126c3.9144-2.7706 6.0028-5.3906 6.6261-8.3129 0.34441-1.6147 0.62619-3.5468 0.62619-4.2936 0-2.2276 0.9597-1.5478 2.089 1.4795 0.93453 2.5052 0.97856 3.1808 0.3761 5.7724-0.37526 1.6143-0.86487 3.2305-1.088 3.5916-0.74335 1.2027-4.9462 2.733-7.4713 2.7204l-2.4931-0.012435 1.335-0.94485zm-2.8541-3.2478c-1.5033-0.79203-2.9814-2.7996-2.4514-3.3296 0.15094-0.15094 0.77803-5e-3 1.3935 0.32446 1.6016 0.85714 4.0696 0.73893 5.5008-0.26352 1.4914-1.0447 1.5937-0.34586 0.33716 2.3022-0.98952 2.0852-2.1942 2.3288-4.7801 0.96639zm-6.0502-3.0987c-3.916-3.1687-3.4245-7.733 1.0598-9.8408 1.3619-0.64016 2.6019-1.0382 2.7555-0.88461 0.15362 0.15362-0.2803 1.1848-0.96425 2.2914-1.0583 1.7123-1.201 2.5422-0.958 5.5693 0.29729 3.7037-0.10459 4.3118-1.893 2.8647zm3.846-1.6621c-1.0332-1.6025-1.5454-3.6345-1.1656-4.6241 0.46133-1.2022 1.0286-0.94507 2.6738 1.2119 1.352 1.7726 1.4396 2.1349 0.80317 3.3241-0.88575 1.6551-1.2911 1.6705-2.3113 0.088106zm2.8923 0.7321c0-0.64352 1.5797-2.2557 2.2103-2.2557 0.25802 0 0.86349-0.15134 1.3455-0.33629 1.2234-0.46945 1.1288 1.0441-0.13682 2.1895-1.0837 0.98076-3.419 1.2557-3.419 0.40246zm6.0942-0.49784c0-2.2542-3.1858-7.298-4.6096-7.298-0.2961 0 0.12134 0.61137 0.9276 1.3586 1.8587 1.7226 1.8669 2.9518 0.022754 3.4147-1.1848 0.29737-1.73 0.026591-3.0458-1.513-0.88146-1.0314-1.6033-2.0414-1.604-2.2445 0-0.20315 0.68429-0.61976 1.5223-0.9258 1.4607-0.53348 1.4693-0.55824 0.20918-0.60015-1.104-0.036751-1.204-0.17677-0.62471-0.87479 0.43796-0.52768 1.6614-0.831 3.3517-0.831 2.185 0 2.8588 0.25008 3.7598 1.3955 1.5638 1.988 2.1034 6.5039 0.97039 8.1215l-0.87963 1.2558zm-18.482-3.2496c-1.2439-1.2439 0.40899-6.9287 2.7303-9.39 1.4332-1.5197 2.1682-1.8606 4.0112-1.8606 3.8537 0 3.697 1.3827-0.52223 4.6065-1.5213 1.1624-3.4631 3.2127-4.3152 4.5562-0.85204 1.3435-1.7089 2.2831-1.9041 2.0879zm20.199-2.8445c-0.030136-0.70903-0.78351-2.0179-1.6742-2.9086-1.4616-1.4616-1.9746-1.6194-5.2631-1.6194-4.0217 0-4.5848-0.61174-2.3972-2.6043 2.1772-1.983 3.7231-2.5102 6.2501-2.1312 3.696 0.55425 5.2585 3.8007 3.9049 8.1135-0.52356 1.6681-0.78288 2.0317-0.82034 1.15z" style="fill:#4a0;stroke-width:.55402"/>
 </g>
</svg>
