<?xml version="1.0" encoding="UTF-8"?>
<svg width="26.138mm" height="30.034mm" version="1.1" viewBox="0 0 26.138 30.034" xmlns="http://www.w3.org/2000/svg">
 <g transform="translate(1.5875 -2.3813)">
  <path d="m5.2043 32.126c-0.99248-0.39976-1.4282-1.3089-2.4812-5.1766-0.52464-1.9271-1.426-5.2176-2.003-7.3122-1.5871-5.7615-2.3132-9.0521-2.3076-10.459 0.0127-3.2485 2.5853-5.1727 7.6277-5.7055 1.5832-0.16727 4.6945-0.51697 6.914-0.77713 6.0061-0.70406 6.2029-0.59558 7.7953 4.2978 1.5146 4.6542 4.1159 17.022 3.7699 17.924-0.11356 0.29583-0.61397 0.67998-1.112 0.8536-1.0599 0.36949-1.3448 1.046-1.0661 2.5315 0.28157 1.5009 0.93498 1.321-10.071 2.7733-2.0109 0.26535-4.2632 0.67948-5.0053 0.92027-0.742 0.24082-1.359 0.42918-1.371 0.41854-0.012171-0.01058-0.32237-0.14036-0.68964-0.28829zm8.5088-3.3809c4.2023-0.66728 5.1077-0.94864 5.1077-1.5873 0-0.73062-1.6937-1.0704-4.0224-0.80695-5.4071 0.61174-7.5553 1.2539-7.5553 2.2585 0 0.9838 0.99737 1.0047 6.47 0.1357zm-7.3204-1.948 1.2068-1.371h2.126c2.6644 0 12.097-1.4116 12.683-1.898 0.51639-0.42857 0.46913-0.82537-0.83759-7.0346-1.2824-6.0936-2.8627-11.424-3.6079-12.169-0.60211-0.60211-0.67164-0.6032-6.35-0.09951-6.5097 0.57737-8.746 0.94808-9.2288 1.5299-0.24828 0.29911-0.13068 1.2764 0.45323 3.7666l0.78854 3.3627-0.73038 1.1676c-1.5374 2.4577-1.539 2.6751-0.060986 7.9438 1.3885 4.9496 1.8154 6.1725 2.1543 6.1725 0.10814 0 0.7397-0.61696 1.4035-1.371zm2.882-2.9857c-0.91162-0.69339-1.5255-3.5815-0.84995-3.999 0.14721-0.09099 0.70937 0.05493 1.2492 0.32422 1.3106 0.65381 4.4133 0.87268 6.0589 0.42741 0.73147-0.19791 1.6599-0.68985 2.0633-1.0932 0.40338-0.40336 0.9879-0.86961 1.299-1.0361 0.49694-0.26596 0.61066-0.12816 0.93708 1.1354 0.20431 0.79095 0.42225 1.6092 0.48427 1.8183 0.21736 0.73298-1.2873 1.2806-5.2067 1.895-2.1745 0.34089-4.3137 0.68141-4.7539 0.75671s-1.0167-0.02773-1.2812-0.22878zm4.2143-5.8026c-0.24426-0.58462-0.86897-1.3655-1.3883-1.7352-0.77843-0.5543-0.90988-0.81275-0.74898-1.4726 0.10734-0.44016 0.44402-1.054 0.74816-1.3641 0.45889-0.46781 0.66709-0.50271 1.2231-0.20513 0.36856 0.19725 0.60359 0.53192 0.52231 0.74372s-0.01032 0.57833 0.15743 0.81452c0.23495 0.33044 0.26194 0.2966 0.11718-0.14692-0.16184-0.49599-0.12107-0.5207 0.29258-0.17738 0.93908 0.77936 1.0608 1.3949 0.56406 2.8527-0.62489 1.834-0.94729 1.9836-1.4876 0.6904zm-7.2672-5.423c-0.2576-0.39484-0.61891-1.3927-0.80293-2.2174-0.27138-1.2163-0.25352-1.5805 0.09443-1.9285 0.39082-0.39082 3.5819-0.92006 8.9636-1.4866l1.9019-0.20021 0.58928 1.3387c0.32411 0.73626 0.68773 1.7355 0.80804 2.2205 0.21116 0.85138 0.18828 0.874-0.66318 0.65553-0.48506-0.12443-2.1325-0.29395-3.661-0.37669-3.0892-0.16719-4.0347 0.12629-5.7997 1.8003l-0.96195 0.91231zm-5.2002-3.4827c0.26032-1.3878-0.30366-2.1017-0.95893-1.2139-0.45609 0.61796-0.58206 1.7512-0.23336 2.0999 0.49543 0.49546 1.004 0.11753 1.1923-0.88601z" style="fill:#4a0;stroke-width:.30468"/>
 </g>
</svg>
