<?xml version="1.0" encoding="UTF-8"?>
<svg width="23.717mm" height="21.967mm" version="1.1" viewBox="0 0 23.717 21.967" xmlns="http://www.w3.org/2000/svg">
 <g transform="translate(4.7625 -2.3813)">
  <path d="m15.116 23.034c-0.7919-0.72266-1.7745-1.4889-2.1837-1.7029-1.0212-0.53393-2.5396-0.48768-3.3829 0.10306-0.6341 0.44416-0.82346 0.40579-1.9489-0.39497-0.73565-0.52343-1.2465-1.1708-1.2465-1.5795 0-0.39058-0.79793-1.4655-1.8299-2.4649-1.8571-1.7988-7.2182-5.5885-7.9057-5.5885-0.2068 0-0.63958-0.29133-0.96184-0.64738-0.50297-0.55578-0.53115-0.85045-0.19918-2.0832 0.21265-0.78973 0.33756-2.5291 0.27763-3.8652l-0.10898-2.4293 4.0868 0.11097c3.3332 0.090514 4.1671 0.21614 4.5221 0.68112 0.23942 0.31361 1.3234 1.9495 2.409 3.6353 1.0856 1.6858 2.5243 3.6476 3.1971 4.3594 1.1064 1.1705 1.3724 1.2866 2.7804 1.2137 1.2232-0.06331 1.7345 0.08612 2.3847 0.69699 0.72998 0.68583 0.80616 0.98624 0.64532 2.545-0.17687 1.7133-0.12914 1.8368 1.5606 4.0414 0.95861 1.2507 1.743 2.4828 1.743 2.7379 0 0.56145-1.414 1.9449-1.9878 1.9449-0.22627 0-1.0593-0.59126-1.8512-1.3139zm1.1175-2.5995c-1.2688-1.309-1.9516-1.498-2.284-0.6319-0.14724 0.38365 0.19328 0.93845 1.0681 1.7401 1.1773 1.0789 1.3296 1.1315 1.8292 0.6319 0.49961-0.49964 0.44857-0.64452-0.61336-1.7401zm-4.316-3.2035c2.1987-2.2794 2.5809-3.0532 1.6594-3.3604-0.42886-0.14298-3.8215 2.9181-4.8768 4.4002-0.75613 1.0619-0.54467 2.1444 0.32732 1.6757 0.30911-0.16608 1.6096-1.3881 2.8901-2.7156zm-4.7355-1.5085c0.40762-0.29805 0.54441-0.68262 0.40214-1.1308-0.2671-0.84159-7.1028-7.6129-7.6853-7.6129-0.42725 0-2.4042 1.9277-2.3945 2.3348 0.011906 0.49797 0.62492 1.0269 2.8896 2.4929 1.3112 0.84873 3.1503 2.1732 4.0868 2.9433 1.9443 1.5986 1.8779 1.5747 2.7012 0.97274z" style="fill:#4a0;stroke-width:.34057"/>
 </g>
</svg>
