<?xml version="1.0" encoding="UTF-8"?>
<svg width="29.337mm" height="28.845mm" version="1.1" viewBox="0 0 29.337 28.845" xmlns="http://www.w3.org/2000/svg">
 <g transform="translate(-15.081 2.9104)">
  <path d="m25.655 25.325c-1.5411-0.78571-3.6126-2.5145-7.1648-5.9793-2.308-2.2513-2.9361-3.0694-3.1447-4.0963-0.95419-4.6978 0.60055-7.329 5.9454-10.062 1.0511-0.53737 2.1673-1.5108 3.1132-2.7149 1.4256-1.8146 5.7315-5.3837 6.4952-5.3837 0.20579 0 0.46842 0.40555 0.58362 0.9012 0.29736 1.2798 0.99174 1.7507 2.0104 1.3634 1.1978-0.45537 2.0503-0.065431 2.2712 1.0388 0.1741 0.87056 0.31316 0.95724 1.5431 0.96179 1.6278 0.00582 2.0272 0.22942 2.4639 1.3779 0.24082 0.63339 0.69366 0.97488 1.6254 1.2258 1.3365 0.35989 1.8091 0.95081 1.4691 1.8369-0.12099 0.31533 0.18587 0.91543 0.796 1.5566 1.2819 1.3472 1.1388 1.7054-2.0362 5.1005-2.5557 2.7329-3.1278 3.6863-3.1334 5.2221-0.0087 2.3978-2.9909 6.3992-5.6787 7.6197-1.8512 0.84058-5.5396 0.85659-7.1586 0.03114zm7.4955-1.5467c0.76544-0.44855 1.8756-1.5126 2.4672-2.3645 0.94636-1.3629 1.0755-1.8047 1.0755-3.679 0-1.1715-0.11245-2.5317-0.24985-3.0226-0.19894-0.71072-0.1523-0.85503 0.22916-0.70866 0.28527 0.10948 1.1152-0.40037 2.0522-1.2607 0.86529-0.79449 2.0525-1.776 2.6383-2.1811 1.4186-0.98118 1.351-1.5456-0.21537-1.7961-1.1256-0.18-1.2585-0.29406-1.0997-0.94308 0.099431-0.40611 0.32502-0.92266 0.50128-1.1479 0.49255-0.62952-0.33674-1.392-1.5203-1.3978-1.401-0.0068792-1.9622-0.41791-1.6997-1.245 0.26376-0.83103-0.6554-1.4133-1.6192-1.0258-1.3365 0.53734-2.1301 0.3624-2.1301-0.46958 0-1.0834-0.69263-1.5565-1.9194-1.3112-0.95224 0.19047-1.0455 0.12869-1.2348-0.81807-0.30181-1.5091-1.0744-1.2966-3.1283 0.86024-1.3183 1.3844-1.8976 2.2959-2.1833 3.4355-0.41177 1.6422-0.43259 1.6556-3.1163 2.0167-3.6434 0.49014-6.0957 5.4167-4.6674 9.3765 0.60751 1.6843 1.2178 1.5749 2.1581-0.38669 0.45061-0.94004 1.1506-1.9189 1.5556-2.1752l0.73628-0.46606-0.61804 1.432c-0.33994 0.78766-0.71281 2.1037-0.8287 2.9247-0.17449 1.2365-0.08035 1.686 0.54872 2.6194 1.0236 1.519 1.7467 1.602 2.4581 0.28223 0.92821-1.722 2.7227-3.5749 3.4623-3.5749 0.60595 0 0.5501 0.13986-0.49093 1.2289-2.1128 2.2102-2.4843 3.9629-1.1651 5.4965 1.4273 1.6593 5.4295 1.8099 8.0038 0.30123z" style="fill:#4a0;stroke-width:.32771"/>
 </g>
</svg>
