<?xml version="1.0" encoding="UTF-8" standalone="no"?>
<!-- Created with Inkscape (http://www.inkscape.org/) -->

<svg
   width="12.989583mm"
   height="12.989583mm"
   viewBox="0 0 12.989583 12.989583"
   version="1.1"
   id="svg1"
   xml:space="preserve"
   xmlns="http://www.w3.org/2000/svg"
   xmlns:svg="http://www.w3.org/2000/svg"><defs
     id="defs1" /><g
     id="layer1"
     transform="translate(-154.73252,-77.136534)"><rect
       style="fill:#1a1a1a;stroke-width:0.248571"
       id="rect3"
       width="9.1850224"
       height="9.1850224"
       x="168.54869"
       y="-59.461159"
       transform="rotate(45)" /><rect
       style="fill:#ffffff;stroke-width:0.22048"
       id="rect2"
       width="8.1470366"
       height="8.1470366"
       x="169.06769"
       y="-58.942165"
       transform="rotate(45)" /><path
       d="m 158.6252,86.534807 c -0.60032,-0.626597 -0.70933,-0.921898 -0.56162,-1.521354 0.26948,-1.093596 0.24901,-1.446523 -0.13843,-2.387387 -0.19246,-0.467389 -0.26455,-0.935177 -0.1602,-1.039529 0.10435,-0.104353 0.81335,0.06663 1.57555,0.379957 1.50211,0.617494 2.58874,0.599618 3.87143,-0.06369 0.91964,-0.475567 1.61543,-0.533107 1.61543,-0.133594 0,0.152747 -0.19393,0.652737 -0.43095,1.111088 -0.36023,0.696597 -0.37837,0.97879 -0.11053,1.719469 0.25544,0.706429 0.25126,0.97739 -0.0206,1.336307 -0.85066,1.122899 -1.40739,1.364429 -3.15869,1.370363 -1.57966,0.0054 -1.8037,-0.06432 -2.48135,-0.771632 z m 4.14639,-1.042675 c -0.82689,0.490516 -1.43804,0.09922 -1.5115,-0.07159 -0.39145,0.517101 -0.85199,0.436949 -1.32534,0.132426 0.14945,0.598543 0.67368,0.771195 1.30594,0.296304 0.10288,-0.05839 0.38254,0.465151 0.57399,0.612277 0.55994,0.430306 1.13867,-0.716206 0.95691,-0.969419 z m -2.44215,-1.387206 c 0,-0.293108 -0.29206,-0.290474 -0.7615,0.0069 -0.20055,0.127022 -0.27924,0.369106 -0.17488,0.537963 0.14377,0.232625 0.28019,0.231942 0.56306,-0.0028 0.20533,-0.170405 0.37332,-0.414312 0.37332,-0.542014 z m 2.7596,0.591542 c 0.17283,-0.279649 -0.58553,-0.969326 -0.8143,-0.740551 -0.22046,0.22045 0.0984,0.975155 0.41203,0.975155 0.1415,0 0.32252,-0.105571 0.40227,-0.234604 z"
       id="path1"
       style="fill:#000000" /><path
       style="fill:#000000;stroke-width:0.264583"
       d="m 161.54865,85.840814 c 0,0 0.38267,0.536332 0.53207,0.545557 0.26738,0.01651 0.57631,-0.630883 0.57631,-0.630883 0,0 -0.3713,0.129365 -0.54731,0.143127 -0.17601,0.01376 -0.56107,-0.0578 -0.56107,-0.0578 z"
       id="path2" /></g></svg>
