<?xml version="1.0" encoding="UTF-8"?>
<svg width="82.879" height="76.738" version="1.1" viewBox="0 0 82.879 76.738" xmlns="http://www.w3.org/2000/svg">
 <g transform="translate(-923.13 -607.96)">
  <path d="m949.01 683.19c0-0.825 0.45-1.5 1-1.5s1-0.675 1-1.5c0-1.2619 2.2222-1.5 14-1.5s14 0.2381 14 1.5c0 0.825 0.45 1.5 1 1.5s1 0.675 1 1.5c0 1.2708-2.4444 1.5-16 1.5s-16-0.22917-16-1.5zm-20-13.035c0-13.129-0.0588-13.504-1.958-12.487-1.5728 0.84176-2.163 0.66491-3-0.89908-1.641-3.0662-1.2915-3.7603 2.708-5.3786 3.7186-1.5046 23.06-10.469 24.5-11.356 0.4125-0.25394 0.75 1.5898 0.75 4.0973v4.559l-7.25 0.0153c-3.9875 8e-3 -7.9017 0.42762-8.6982 0.93154-0.94206 0.59599-1.5944 3.212-1.8665 7.4847-0.35371 5.5548-0.1688 6.5685 1.1982 6.5685 1.3809 0 1.6165 1.4575 1.6165 10v10h-8zm10 3.5352v-10h8v20h-8zm43.989 3.25c-6e-3 -3.7125-0.28993-8.4375-0.63084-10.5-0.55438-3.354-0.39483-3.75 1.511-3.75 2.0392 0 2.1308 0.45175 2.1308 10.5 0 8.6667-0.2619 10.5-1.5 10.5-1.1841 0-1.5023-1.4216-1.511-6.75zm5.011-5.2258c0-9.9623 0.3164-12.496 1.8818-15.07l1.8819-3.0945 2.1181 2.9747c1.8768 2.6358 2.1182 4.3527 2.1182 15.07v12.096h-8zm10 1.4758c0-9.8333 0.12698-10.5 2-10.5 1.873 0 2 0.66667 2 10.5s-0.127 10.5-2 10.5c-1.873 0-2-0.66667-2-10.5zm-47.233-5.75c-0.38526-8.2527-0.18036-9.7218 1.9005-13.626 1.8787-3.5248 2.3323-5.9171 2.3323-12.3 0-5.0795 0.53721-8.9626 1.4966-10.818 1.1138-2.1539 1.2417-3.5646 0.5-5.5154-1.3177-3.4659-1.3105-3.4911 1.0034-3.4911 1.6118 0 2-0.66667 2-3.4349 0-1.8892-0.44959-4.6174-0.99909-6.0627-0.868-2.283-0.75695-2.5868 0.84638-2.3152 1.015 0.17195 2.598-0.31194 3.5178-1.0753 1.4383-1.1937 1.9294-1.1553 3.509 0.27417 1.0419 0.94286 2.5564 1.3859 3.4999 1.0239 1.4353-0.55078 1.5236-0.27102 0.64462 2.041-0.56026 1.4736-1.0186 4.2249-1.0186 6.1141 0 2.6762 0.40889 3.4349 1.8512 3.4349 1.5252 0 2.4662 0.019 1.1345 2.7002-1.5495 3.1197-0.9854 3.2418-0.64042 5.6253 0.69567 4.8063 4.2346 22.27 5.2156 24.175 1.759 3.4142 2.0008 5.3547 1.6505 13.25l-0.41036 9.25h-8.801v-7.3114c0-5.9758-0.37249-7.7112-2.039-9.5-2.5158-2.7004-3.4206-2.729-5.961-0.18856-1.6444 1.6444-2 3.3333-2 9.5v7.5h-8.801zm20.233-23.601c0-7.838-1.4006-12.758-4.0327-14.167-4.7802-2.5583-7.9673 2.8291-7.9673 13.468v7.5497h12zm-10-1.5384c0-4.8384 0.46979-6.9622 1.9355-8.75 1.8464-2.2521 2.0175-2.28 3.7175-0.60757 1.2735 1.253 1.8948 3.7496 2.1774 8.75l0.39535 6.9968h-8.2257zm6-23.988c0-2.4822-1.6384-5.2527-2.161-5.2355-0.21498 7e-3 -1.839 3.2214-1.839 4.7797 0 2.1667 0.47059 2.8333 2 2.8333 1.4392 0 2-0.66667 2-2.3776zm-30 39.078c0-4.5596 1.5457-5.7 7.7257-5.7h5.3257l-1.5257 2.9503c-0.83912 1.6227-1.5257 3.6477-1.5257 4.5 0 1.1929-1.151 1.5497-5 1.5497-4.9899 0-5-7e-3 -5-3.3zm45 0.53213c0-0.97232-1.125-3.4234-2.5-5.4469-4.4634-6.5685-4.133-6.7852 10.345-6.7852 15.228 0 16.155 0.50642 16.155 8.8287v5.1713l-3.75-0.0316c-3.3562-0.0283-4.0348-0.50088-6.4615-4.5-1.4913-2.4576-3.1962-4.4684-3.7885-4.4684s-2.2971 2.0108-3.7885 4.4684c-2.7519 4.535-6.2115 6.0743-6.2115 2.7637z"/>
 </g>
</svg>
