<?xml version="1.0" encoding="UTF-8"?>
<svg width="109" height="116.08" version="1.1" viewBox="0 0 109 116.08" xmlns="http://www.w3.org/2000/svg">
 <g transform="translate(-34.267 -14.244)">
  <path d="m85.256 126.03c-1.9246-2.3588-4.096-5.0539-4.8253-5.989l-1.326-1.7003 7.3875 1.1988-0.4894-4.3991c-0.26917-2.4195-1.2001-6.1991-2.0687-8.3991-0.86859-2.2-1.6034-6.7-1.6329-10l-0.0536-6-3.4903-4.3907c-4.0493-5.094-4.2781-6.1093-1.3764-6.1093 1.1626 0 3.799-0.94712 5.8587-2.1047l3.7448-2.1047-1.8587-3.847c-1.0223-2.1158-1.8736-4.8812-1.8919-6.1453l0.4633-2.9035c-1.5475 2.144-2.273 0.56002-4.6502 5.5986-0.81118 1.7193 0.27688 5.5948 2.2952 8.0668l-3.3841 1.825c-3.5117 1.8937-5.4445 0.66491-5.9807-1.3852-0.35772-1.3679-1.364-2-3.184-2h-2.661l0.69407 2.25c1.685 5.4624 5.9301 11.246 9.8751 13.453 1.0033 0.56147 1.6535 1.5125 1.4449 2.1135-0.52203 1.5038-5.6809-1.0992-10.71-5.4037-2.1931-1.8772-4.6769-3.4131-5.5195-3.4131-1.8577 0-2.772-1.3612-3.5853-5.3379-0.91036-4.4512-3.0647-4.6237-3.0647-0.24539 0 1.9708-0.17048 3.5833-0.37885 3.5833s-3.0209-1.5943-6.25-3.5428-7.7837-4.027-10.121-4.6187-4.25-1.4013-4.25-1.7989c0-0.39765 1.7548-1.2488 3.8996-1.8913 2.1448-0.64259 6.8698-2.6632 10.5-4.4903l6.6004-3.322v3.832c0 4.9399 1.6336 4.9604 2.4664 0.03104 0.3532-2.0905 1.9358-6.3655 3.5168-9.5 3.0199-5.9869 3.0217-6.3072 0.02685-4.7044l-1.8585 0.99463-1.2111-3.7446c-0.66611-2.0595-2.2626-5.3419-3.0961-7.4946-0.78996-2.0403-1.2808-3.3104-0.85726-3.197 3.3 0.88357 1.7435 0.35222 4.5751 1.3296 2.2692 0.78323 5.4003 2.1962 7.1878 2.5795 3.2533 0.69756 4.1273 1.8777 2.25 3.0379-0.55 0.33992-1 1.0316-1 1.537 0 0.50543 2.1131-0.42113 4.6958-2.059 2.5827-1.6379 5.1052-2.978 5.6056-2.978 1.2193 0 7.2654-5.13 6.9486-5.8958-0.24859-0.60079-0.79632-0.74028-3.845-0.9792l-1.595-0.125 2.4687-4.25c1.3578-2.3375 3.4858-7.0625 4.729-10.5s2.3647-6.25 2.4923-6.25 1.2383 2.8125 2.4682 6.25 3.3341 8.1625 4.6761 10.5l2.44 4.25h-2.4831c-1.3657 0-2.7359 0.40898-3.0448 0.90885-0.64975 1.0513 4.9969 6.0912 6.8246 6.0912 0.67512 0 3.3406 1.3401 5.9233 2.978 3.3224 2.107 4.6958 2.563 4.6958 1.559 0-0.78043-0.48756-1.7203-1.0835-2.0886-0.5959-0.36829 1.7666-1.6716 5.25-2.8963 3.4834-1.2247 7.1055-2.5671 8.0491-2.9832l1.7156-0.75652-2.3899 5.8438c-1.3145 3.2141-2.6584 6.6925-2.9865 7.7299l-0.59654 1.8861-1.8103-1.6383c-2.9295-2.6512-3.2675-0.69406-0.65119 3.7704 1.3347 2.2776 2.9313 6.4933 3.5479 9.3683 1.3172 6.142 2.9553 6.8862 2.9553 1.3427v-3.8846l6.25 3.2922c3.4375 1.8107 8.1625 3.855 10.5 4.5429s4.25 1.5313 4.25 1.8741c0 0.34287-2.018 1.2193-4.4846 1.9475-2.4665 0.72827-7.021 2.8515-10.121 4.7183-3.1001 1.8668-5.8071 3.3942-6.0154 3.3942-0.20837 0-0.37885-1.6125-0.37885-3.5833 0-4.3783-2.1544-4.2058-3.0647 0.24539-0.83749 4.0949-1.7316 5.3379-3.8393 5.3379-0.9823 0-2.6432 0.95219-3.691 2.116-1.8604 2.0665-11.164 7.856-12.655 7.8746-1.8533 0.02319-0.4459-2.0154 2.7588-3.9961 3.3719-2.084 7.5471-8.0262 8.9547-12.745l0.67123-2.25h-2.661c-1.82 0-2.8263 0.63209-3.184 2-0.5371 2.0539-2.1262 2.4187-6.0058 1.3786l-3.7187-1.699 2.0897-3.1783c1.6773-2.5512-1.5592-10.923-3.9724-10.786l5.0855-3.8371c2.5861-1.9513 3.9406-4.5409 3.641-5.0257-0.86848-1.4052-8.1439-4.8528-10.241-4.8528h-1.9116l1.8376 7.75c2.147 9.055 2.9427 9.2007 0.07943 15.127l-1.8265 3.7803 3.3124 2.1714c1.8218 1.1942 4.4437 2.1714 5.8265 2.1714 1.3827 0 2.514 0.27721 2.514 0.61602s-1.514 2.7013-3.3643 5.25l-3.3643 4.634-0.537 8.1901c-0.33566 5.1193-1.1364 9.0459-2.1357 10.473-0.87927 1.2553-1.5987 4.0412-1.5987 6.1908v3.9083l7.0527-1.1445-2.0027 2.6914c-1.1015 1.4803-3.2535 4.1713-4.7822 5.9802l-2.7795 3.2887zm-12.867-60.256 1.6066-4.4677-3.6997-3.3482-1.9926 4.3918c-2.6638 5.871-2.6071 7.8918 0.22133 7.8918h2.2579zm38.856 2.7177c-0.0121-0.9625-0.91865-3.7263-2.0146-6.1418l-1.9926-4.3918-3.6997 3.3482 3.2131 8.9354h2.2579c1.4921 0 2.2504-0.59356 2.2359-1.75zm-25.176-19.08c-1.2802-0.53929-8.1568 1.9564-10.119 3.6723l-1.8169 1.5891 9.6337 8.3964 1.5431-6.6637c0.8487-3.665 1.1901-6.8124 0.75872-6.9941zm-7.1052 64.08c-1.4165-2.0625-3.0984-5.8569-3.7376-8.432-0.6392-2.5751-1.7915-4.9235-2.5606-5.2186-1.8297-0.70213-1.3002 1.3592 0.11472 6.0863 1.0297 3.4402 1.3357 3.7988 1.1189 4.0157-1.0915 1.0915-7.7865-8.7027-9.5807-14.016-2.9998-8.8829-2.6934-9.3671 3.0392-4.8028 2.7997 2.2292 6.5934 4.5965 8.4303 5.2608l3.3399 1.2077 0.69512 5.0541c0.38232 2.7798 1.3137 6.8073 2.0697 8.95 2.4403 6.9165 1.1108 7.7764-2.9289 1.8944zm15.303 2.9281c0-0.45202 0.64143-2.8145 1.4254-5.25s1.6988-6.4806 2.0329-8.9892l0.60754-4.561 3.3767-1.221c1.8572-0.67156 5.6674-3.0449 8.4671-5.274 5.7325-4.5643 6.039-4.0801 3.0392 4.8028-1.7942 5.313-8.4893 15.107-9.5807 14.016-0.21686-0.21686-0.10839-0.22439 1.1188-4.0157 1.5196-4.6944 1.9444-6.7884 0.11471-6.0863-0.76912 0.29514-1.9214 2.6435-2.5606 5.2186-1.1696 4.712-5.5706 12.182-7.177 12.182-0.4752 0-0.864-0.36984-0.864-0.82186z"/>
 </g>
</svg>
