<?xml version="1.0" encoding="UTF-8" standalone="no"?>
<svg
   width="101.66"
   height="111.82"
   version="1.1"
   viewBox="0 0 101.66 111.82"
   id="svg1"
   xmlns="http://www.w3.org/2000/svg"
   xmlns:svg="http://www.w3.org/2000/svg">
  <defs
     id="defs1" />
  <g
     transform="translate(-877.48 -347.31)"
     id="g1">
    <path
       d="m 928.8218,347.3393 c -0.99237,-0.094 -1.989,0.0181 -3.07617,0.29101 -1.444,0.363 -12.4283,10.40694 -25.6543,23.46094 -22.7517,22.4553 -23.11779,22.88178 -22.45899,26.17578 0.7556,3.7782 3.40573,6.9933 7.41993,9 5.94249,2.971 6.21875,3.56874 6.21875,13.46094 0,8.1578 -0.28203,9.62279 -2.48633,12.87109 -4.10593,6.0504 -4.11932,7.82833 -0.10742,14.32813 1.9772,3.2032 3.5957,6.34569 3.5957,6.98242 0,0.6368 1.12841,2.04586 2.50781,3.13086 2.366,1.86112 4.248,1.97862 33.25,2.07422 22.845,0.0753 31.38439,-0.22127 33.24219,-1.1543 1.375,-0.6906 3.40452,-3.05415 4.51172,-5.25195 1.1072,-2.1978 3.01974,-5.5711 4.24804,-7.4961 2.80552,-4.397 2.78472,-5.3547 -0.23828,-11.5 -2.04235,-4.1518 -2.45232,-6.442 -2.41992,-13.5 0.0214,-4.6754 0.3449,-9.25816 0.71875,-10.18359 0.3739,-0.9255 2.60745,-3.07625 4.96485,-4.78125 4.84939,-3.5069 6.74114,-6.80093 5.8789,-10.23633 -0.324,-1.292 -7.6652,-9.31262 -16.3125,-17.82422 -8.647,-8.511 -18.80647,-18.50744 -22.57617,-22.21484 -5.30288,-5.21496 -8.24946,-7.35099 -11.22656,-7.63281 z"
       id="path2"
       style="display:inline;fill:#d1ffff;fill-opacity:1" />
    <path
       d="m894.78 457.04c-1.3794-1.085-2.508-2.4937-2.508-3.1305 0-0.63673-1.6176-3.7785-3.5948-6.9817-4.0119-6.4998-3.9986-8.2786 0.10733-14.329 2.2043-3.2483 2.4874-4.7132 2.4874-12.871 0-9.8922-0.27621-10.49-6.2187-13.461-4.0142-2.0067-6.6646-5.2212-7.4202-8.9994-0.6588-3.294-0.2927-3.7207 22.459-26.176 13.226-13.054 24.21-23.099 25.654-23.462 4.3487-1.0915 7.2325 0.38892 14.303 7.3422 3.7697 3.7074 13.929 13.705 22.576 22.216 8.6473 8.5116 15.988 16.532 16.312 17.824 0.86224 3.4354-1.0288 6.7281-5.8782 10.235-2.3574 1.705-4.5921 3.8571-4.966 4.7826-0.37385 0.92543-0.69728 5.5076-0.71873 10.183-0.0324 7.058 0.37825 9.3482 2.4206 13.5 3.023 6.1453 3.0427 7.103 0.23718 11.5-1.2283 1.925-3.1391 5.2982-4.2463 7.496-1.1072 2.1978-3.138 4.5609-4.513 5.2515-1.8578 0.93303-10.397 1.2295-33.242 1.1542-29.002-0.0956-30.884-0.21298-33.25-2.0741zm9.5057-8.5776c0.0304-8.3517-1.83-7.7855 24.527-7.4648l23.439 0.28519 0.57206 2.2793c0.31464 1.2536 0.49095 2.7003 0.3918 3.2148-0.0991 0.51454-0.12697 1.9779-0.0618 3.252 0.0979 1.9152 0.59469 2.2616 2.8684 2 2.5649-0.29513 2.7703-0.66973 3.0523-5.5664 0.29432-5.1122 0.38185-5.25 3.3333-5.25 1.6671 0 2.8741-0.47105 2.6822-1.0468-0.2262-0.67862-8.6083-1.1451-23.833-1.3263-28.861-0.34355-49.163 0.27521-48.421 1.4758 0.30501 0.49352 1.653 0.8973 2.9956 0.8973 2.2921 0 2.441 0.33546 2.441 5.5 0 5.4444 0.0303 5.5 3 5.5 2.7976 0 3.0009-0.25303 3.0136-3.75zm41.486 2.75c0.40252-0.65129-5.1563-1-15.941-1-10.373 0-16.559 0.37359-16.559 1 0 0.62485 5.9803 1 15.941 1 9.5486 0 16.189-0.401 16.559-1zm-3.5833-5.4107c-0.86174-0.84933-26.99-1.28-27.501-0.45331-0.29368 0.47519 5.8676 0.86398 13.692 0.86398s14.038-0.1848 13.809-0.41067zm-29.917-15.48c0-3.7019-0.16975-3.9104-3.5-4.2992-1.925-0.22474-5.075-0.22474-7 0-3.3302 0.38878-3.5 0.5973-3.5 4.2992v3.8906h14zm26-6.0368c0-9.5337-0.1045-10.01-2.6349-12-1.7364-1.3659-4.0989-2.0726-6.9286-2.0726-4.5883 0-6.9477 1.584-8.5203 5.7203-1.0525 2.7684-1.2487 16.614-0.24958 17.613 0.36666 0.36667 4.6417 0.66667 9.5 0.66667h8.8333zm21.803 5.8047c0.36886-4.4134-0.67733-4.9521-8.1245-4.1835-5.2241 0.53917-5.5125 0.71743-5.9648 3.6864-0.26143 1.7159-0.26519 3.477-8e-3 3.9136 0.25684 0.43655 3.4658 0.66155 7.1309 0.5l6.6636-0.29373zm-47.803-12.377v-4.5h-14v3.8333c0 2.1083 0.3 4.1333 0.66667 4.5 0.36666 0.36667 3.5167 0.66667 7 0.66667h6.3333zm47.808-0.25 0.3075-4.25h-14.746l0.26083 4.25c0.14346 2.3375 0.28541 4.3831 0.31543 4.5457 0.03 0.16263 3.0921 0.16263 6.8046 0l6.75-0.29569zm-44.68-9.9049c2.2614-2.7268 7.4407-4.3451 13.906-4.3451 6.3043 0 8.9594 0.88013 12.578 4.1695 1.7776 1.6157 3.3605 1.873 10 1.625l7.8881-0.29455 0.31037-3.75 0.31036-3.75h-62.121v8h7.8776c6.1104 0 8.1854-0.37123 9.25-1.6549zm-17.128-15.528c4.675-4.4696 13.11-12.557 18.744-17.972s10.809-9.8238 11.5-9.7979c0.691 0.026 9.5706 8.126 19.733 18 10.162 9.874 18.98 17.953 19.595 17.953 0.61535 0 1.867-0.8267 2.7814-1.8371 1.5789-1.7447 1.0711-2.4163-10.095-13.349-25.082-24.559-31.634-30.813-32.279-30.813-0.36768 0-10.424 9.5158-22.346 21.146-20.69 20.183-21.601 21.231-20 23 0.92268 1.0196 2.1704 1.841 2.7726 1.8255 0.60225-0.0155 4.92-3.6852 9.595-8.1549zm14.254 1.0883c1.693-2.9746 1.59-4.9051-0.2618-4.9051-0.94191 0-4.5972 3.3228-6.8754 6.25-1.2376 1.5901-1.0539 1.7494 2.0104 1.7437 2.7178-5e-3 3.713-0.60466 5.1267-3.0885zm8.3484 1.5951c-1.9108-1.4464-3.6027-1.1839-3.6027 0.55879 0 0.51754 1.2375 0.92667 2.75 0.90918 2.6056-0.0301 2.6504-0.1072 0.85268-1.468zm17.397 0.49977c0-1.2529-1.0612-1.2529-3 0-1.213 0.78387-1.0694 0.9723 0.75 0.98469 1.2375 8e-3 2.25-0.43469 2.25-0.98469zm11.5-3c-4.2447-4.347-4.335-4.3903-6.4096-3.077-1.1769 0.74502-1.1981 1.4028-0.12868 3.9847 1.1681 2.8201 1.6842 3.0924 5.8625 3.0924h4.5816zm-20.082 1.393c3.0231-1.1601 1.7607-3.393-1.9182-3.393-3.781 0-4.5527 1.2875-1.75 2.9199 2.1379 1.2452 1.7773 1.1987 3.6682 0.47311zm-4.6682-7.9452c0.81106-0.24987 1.25-2.411 1.25-6.1546v-5.7695l-5.1749 5.1749c-4.4108 4.4108-4.9845 5.4043-3.8856 6.7284 1.1904 1.4343 3.2046 1.4397 7.8105 0.0207zm14.3 7e-3c1.84-1.6652 1.6648-1.9211-6.4212-9.3795l-2.6283-2.424v6.1048c0 5.5358 0.2097 6.1452 2.25 6.5381 4.2209 0.81297 5.0929 0.70536 6.7995-0.83909z"
       id="path1"
       style="fill:#1c90cb;fill-opacity:1;opacity:1" />
  </g>
</svg>
