<?xml version="1.0" encoding="UTF-8"?>
<svg width="215.11" height="216.07" version="1.1" viewBox="0 0 215.11 216.07" xmlns="http://www.w3.org/2000/svg">
 <g transform="translate(-1356.6 -288.74)">
  <path d="m1523.9 496.94-3.5847-7.866 36.659-36.659 7.8126 3.5603c7.02 3.1991 7.6752 3.7306 6.4585 5.239-1.2575 1.5591-30.589 30.868-39.716 39.684l-4.0448 3.9075zm-65.762-61.203-51.746-51.754v-18.02l13.763-13.737 13.763-13.737h17.967l104.5 104.49-22.239 22.256c-12.232 12.241-22.695 22.256-23.251 22.256-0.5565 0-24.298-23.289-52.758-51.754zm-67.939-86.034c-15.662-23.845-35.12-59.233-33.474-60.879 1.6717-1.6717 40.696 19.914 62.871 34.777l9.7043 6.5042-31.409 31.309z"/>
 </g>
</svg>
