<?xml version="1.0" encoding="UTF-8" standalone="no"?>
<svg
   width="70.006"
   height="71.063"
   version="1.1"
   viewBox="0 0 70.006 71.063"
   id="svg1"
   xmlns="http://www.w3.org/2000/svg"
   xmlns:svg="http://www.w3.org/2000/svg">
  <defs
     id="defs1" />
  <g
     transform="translate(-1294.3 -526.64)"
     id="g1">
    <path
       d="m 1335.5109,526.64195 c -0.1435,0.009 -0.2532,0.0312 -0.3183,0.0703 -1.6181,0.9724 -5.2861,7.56954 -6.584,5.21484 -3.1375,-5.6921 -5.5252,-5.39973 -7.0234,-5.0918 -1.4983,0.3079 -2.6864,0.59742 -3.1973,1.85742 l -0.9063,2.23243 0.8086,4.41211 c 1.1006,2.426 4.2037,5.71217 3.5489,7.04687 -6.919,14.102 0.344,1.57786 -21.752,37.63086 -3.281,5.3535 -5.75,10.81953 -5.75,11.99023 0,3.9849 3.5416,5.24219 14.7676,5.24219 11.3089,0 11.1615,0.0672 17.0937,-7.84765 2.8717,-3.83154 3.6723,-3.8966 6.4629,-0.5254 4.1984,5.072 7.0204,7.40437 9.8379,8.13477 v 0.002 c 1.5643,0.40544 6.1943,0.71606 10.2891,0.68946 11.1235,-0.073 14.1342,-3.74783 9.3828,-11.45313 -1.187,-1.925 -3.3554,-5.75 -4.8184,-8.5 -1.463,-2.75 -3.9617,-7.025 -5.5527,-9.5 -2.1771,-3.442 -8.0373,-13.50922 -9.9609,-16.69922 -3.7525,-6.223 -4.4127,-10.71597 -2.0352,-13.85937 2.1074,-2.7863 1.9739,-9.14185 -0.2168,-10.28125 -0.4211,-0.21901 -3.0717,-0.82673 -4.0762,-0.76563 z"
       id="path2"
       style="fill:#d1ffff;fill-opacity:1" />
    <path
       d="m1342.5 597.01c-2.8175-0.7304-5.6393-3.0641-9.8377-8.1361-2.7906-3.3712-3.5914-3.3061-6.4631 0.52544-5.9322 7.9149-5.7861 7.8478-17.095 7.8478-11.226 0-14.768-1.2571-14.768-5.242 0-1.1707 2.469-6.6375 5.75-11.991 22.096-36.053 14.833-23.528 21.752-37.63 0.6548-1.3347-2.4465-4.6216-3.5471-7.0476l-0.8085-4.4109 0.9055-2.2334c0.5109-1.26 1.6997-1.5488 3.198-1.8567 1.4982-0.30793 3.8858-0.601 7.0233 5.0911 1.2979 2.3547 4.9654-4.2419 6.5835-5.2143 0.5206-0.31286 3.912 0.44504 4.3933 0.69533 2.1907 1.1394 2.3256 7.4947 0.2182 10.281-2.3775 3.1434-1.7181 7.636 2.0344 13.859 1.9236 3.19 7.7835 13.258 9.9606 16.7 1.591 2.475 4.0898 6.75 5.5528 9.5s3.6313 6.575 4.8183 8.5c4.7514 7.7053 1.7413 11.379-9.3822 11.452-4.0948 0.0266-8.7247-0.28328-10.289-0.68872zm-24.1-5.0128c0.6282-0.6875 3.2334-4.8071 5.7895-9.1546 2.556-4.3475 5.0973-7.903 5.6473-7.9009 0.55 2e-3 3.0255 3.378 5.501 7.5022 6.7915 11.314 6.0557 10.803 15.562 10.803 4.5752 0 8.5232-0.3375 8.7733-0.75 0.25-0.4125-3.1628-6.825-7.5841-14.25-12.581-21.129-20.753-35.212-20.753-35.769 0-0.28042 1.3612-2.722 3.0248-5.4258 2.715-4.4125 3.128-6.8194 1.1662-6.7976-0.3801 4e-3 -1.7169 1.8042-2.9709 4-1.2539 2.1958-2.6876 3.9923-3.186 3.9923s-1.9178-1.8-3.1543-4c-1.2364-2.2-2.5887-4-3.0049-4-2.026 0-1.6479 2.339 1.1003 6.8052 1.6636 2.7038 3.0248 5.1503 3.0248 5.4368 0 0.48418-6.0517 10.933-22.254 38.424-3.6195 6.1414-6.3181 11.429-5.997 11.75 1.1904 1.1904 18.152 0.60538 19.314-0.66611z"
       id="path1"
       style="fill:#1c90cb;fill-opacity:1" />
  </g>
</svg>
