<svg xmlns="http://www.w3.org/2000/svg" width="220.045" height="219.336" viewBox="0 0 220.045 219.336"><path d="M168.399 217.54c-3.135-1.002-8.551-3.857-12.036-6.344-11.287-8.054-17.106-14.718-26.157-29.956-6.014-10.125-11.846-18.19-20.079-27.77-13.621-15.849-16.873-21.64-16.795-29.911.144-15.286 16.658-29.984 32.439-28.872 11.559.815 18.197 7.653 30.363 31.283 6.3 12.237 13.105 20.196 20.524 24.001 4.618 2.37 14.685 4.783 25.219 6.045 7.775.931 11.579 3.668 15.221 10.954 2.65 5.301 2.994 6.99 2.942 14.5-.05 7.265-.461 9.283-2.834 13.883-5.587 10.834-15.571 18.713-28.54 22.522-6.974 2.049-13.13 1.947-20.267-.335M17.781 195.636c-6.312-2.26-10.913-6.452-14.822-13.505-4.082-7.365-3.943-17.334.433-30.931 6.343-19.714 8.351-46.133 4.769-62.73-1.228-5.687-1.836-12.636-1.837-21 0-14.709 1.356-19.26 9.46-31.707 7.89-12.118 17.416-20.846 29.412-26.95C57.617 2.493 67.588.045 81.098.003c9.614-.031 10.6.18 25.5 5.467l15.5 5.5 20.5-.02c13.799-.014 21.92-.444 24.843-1.314 2.388-.71 8.085-1.303 12.66-1.316 9.737-.027 14.942 1.847 21.442 7.72 6.308 5.698 8.055 9.882 8.055 19.285 0 11.318-3.752 22.86-10.938 33.645-1.466 2.2-3.946 7.375-5.512 11.5-3.247 8.555-6.468 14.532-11.318 21-4.67 6.228-16.205 18.139-17.042 17.598-.38-.244-2.47-3.797-4.646-7.894l-3.957-7.45 4.794-5.332c9.61-10.69 11.704-18.904 7.253-28.463-5.58-11.983-19.717-17.272-43.134-16.137-12.91.626-19.059 1.956-28.038 6.067-14.107 6.459-31.866 23.306-37.858 35.916-5.287 11.123-8.033 23.3-8.052 35.695-.026 17.845 3.42 25.954 13.314 31.334 8.584 4.667 14.563 3.803 27.32-3.947l5.962-3.621 1.657 2.367c.91 1.302 3.177 4.051 5.036 6.11 1.858 2.058 3.157 4.308 2.886 5-.823 2.1-13.707 9.236-22.727 12.587-4.675 1.737-12.566 4.228-17.536 5.535s-10.82 3.278-13 4.38c-11 5.557-27.496 7.567-36.281 4.421zm51.217-37.88c-.605-.432-1.633-1.798-2.285-3.036-1.717-3.26-.016-5.665 5.076-7.18 2.37-.705 6.943-2.584 10.162-4.176 8.561-4.233 11.647-3.703 11.647 2.001 0 5.26-20.283 15.476-24.6 12.392m-7.745-22.114c-.91-1.006-1.655-2.961-1.655-4.345 0-4.37 2.66-5.621 14.725-6.93 12.173-1.32 14.275-.804 14.275 3.503 0 4.212-2.67 6.365-9.948 8.02-9.43 2.145-15.307 2.061-17.397-.248m14.798-20.978c-7.004-2.93-13.294-7.12-13.992-9.317-.815-2.57 2.338-7.24 5.176-7.668 1.81-.273 17.817 7.263 20.948 9.862 1.974 1.638 1.766 5.302-.413 7.274-2.303 2.084-6.51 2.03-11.72-.15m9.764-21.943C81.81 88.458 78.284 84 77.98 82.813c-1.111-4.344 3.459-8.72 7.895-7.56 2.903.759 14.619 15.266 15.328 18.978.79 4.138-.886 6.24-4.977 6.24-2.608 0-4.337-1.287-10.41-7.75m58.355 4.178c-2.132-2.132-2.053-2.497 1.74-8.066 1.823-2.675 4.78-7.45 6.574-10.613 2.72-4.796 3.713-5.75 5.988-5.75 5.965 0 6.628 4.403 1.977 13.129-3.47 6.512-9.786 12.871-12.782 12.871-1.06 0-2.633-.707-3.497-1.571m-33.68-8.06c-1.424-1.715-6.709-16.013-7.574-20.491-.994-5.144 6.523-9.054 9.86-5.128 2.675 3.148 6.037 12.528 6.56 18.303.464 5.104.284 5.819-1.834 7.303-2.977 2.085-5.29 2.09-7.012.014zm17.06-.997c-.763-2.006-.549-3.84.905-7.75 1.048-2.817 2.23-7.082 2.63-9.477 1.232-7.399 6.97-10.612 11-6.16 2.23 2.464 1.685 8.808-1.483 17.277-2.677 7.156-4.235 8.738-8.6 8.738-2.808 0-3.64-.49-4.452-2.628"/></svg>