<?xml version="1.0" encoding="UTF-8" standalone="no"?>
<!-- Created with Inkscape (http://www.inkscape.org/) -->

<svg
   version="1.1"
   id="svg1"
   width="244.9576"
   height="244.99171"
   viewBox="0 0 244.9576 244.99171"
   xmlns="http://www.w3.org/2000/svg"
   xmlns:svg="http://www.w3.org/2000/svg">
  <defs
     id="defs1" />
  <g
     id="g1"
     transform="translate(-568.41164,-455.59013)">
    <path
       d="m 690.70007,700.54096 c -0.32057,-0.53462 -1.59502,-5.74408 -2.83213,-11.57658 l -2.24928,-10.60455 -9.71214,-1.59424 c -18.17499,-2.9834 -31.02904,-8.57943 -48.47098,-21.1019 -0.87604,-0.62895 -7.33215,3.50395 -21.15299,13.54118 -22.84525,16.5911 -23.02755,16.7143 -21.85403,14.76857 0.46591,-0.77248 7.35749,-10.35248 15.31463,-21.2889 10.10545,-13.88909 14.19311,-20.26688 13.55741,-21.15298 -12.55024,-17.49355 -18.12217,-30.29633 -21.11178,-48.50917 l -1.59924,-9.7426 -11.27996,-2.31352 c -6.20397,-1.27244 -11.10502,-2.59658 -10.8912,-2.94254 0.21381,-0.34596 5.2911,-1.65775 11.28287,-2.9151 l 10.89412,-2.28609 1.59632,-9.72483 c 2.98654,-18.19409 8.56254,-31.00332 21.10887,-48.49141 0.6357,-0.8861 -3.45196,-7.26389 -13.55741,-21.15298 -7.95714,-10.93642 -14.84872,-20.51642 -15.31463,-21.2889 -1.17352,-1.94573 -0.99122,-1.82253 21.85403,14.76857 13.82084,10.03723 20.27695,14.17013 21.15299,13.54118 17.63139,-12.65849 30.08605,-18.08404 48.42226,-21.09391 l 9.78625,-1.6064 2.28609,-10.89412 c 1.25735,-5.99177 2.56914,-11.06906 2.9151,-11.28287 0.34596,-0.21382 1.6701,4.68723 2.94254,10.8912 l 2.31352,11.27996 9.80402,1.60932 c 18.3608,3.0139 30.7682,8.41802 48.44775,21.1017 0.8861,0.6357 7.26389,-3.45196 21.15298,-13.55741 10.93642,-7.95714 20.51642,-14.84872 21.2889,-15.31463 1.94573,-1.17352 1.82253,-0.99122 -14.76857,21.85403 -10.03723,13.82084 -14.17013,20.27695 -13.54118,21.15299 12.52528,17.44584 18.11839,30.29529 21.10399,48.48368 l 1.59632,9.72483 10.89412,2.28609 c 5.99177,1.25735 11.06906,2.56914 11.28287,2.9151 0.21382,0.34596 -4.68723,1.6701 -10.8912,2.94254 l -11.27996,2.31352 -1.59924,9.7426 c -2.98868,18.20714 -8.5777,31.05014 -21.1069,48.50144 -0.62895,0.87604 3.50395,7.33215 13.54118,21.15299 16.5911,22.84525 16.7143,23.02755 14.76857,21.85403 -0.77248,-0.46591 -10.35248,-7.35749 -21.2889,-15.31463 -13.88909,-10.10545 -20.26688,-14.19311 -21.15298,-13.55741 -17.48829,12.54647 -30.29728,18.12232 -48.49207,21.10898 l -9.72551,1.59643 -2.42629,11.57438 c -1.33445,6.36592 -2.68856,11.13698 -3.00913,10.60236 z m -6.79967,-28.72203 c 0.0112,-1.4008 -10.21313,-50.04153 -10.63987,-50.6178 -0.1498,-0.2023 -9.77319,6.53576 -21.3853,14.97346 l -21.11294,15.34127 3.31408,2.72667 c 4.32952,3.56215 20.85669,12.1196 27.65564,14.31957 4.62824,1.49758 17.16881,4.14658 20.90843,4.41658 0.6875,0.0496 1.25448,-0.47225 1.25996,-1.15975 z m 30.99004,-1.8631 c 8.1347,-1.99202 27.47717,-11.23449 32.81407,-15.67965 l 3.31408,-2.76032 -21.11294,-15.34127 c -11.61211,-8.4377 -21.2355,-15.17576 -21.3853,-14.97346 -0.42319,0.57147 -10.65109,49.21103 -10.63987,50.59867 0.0121,1.49814 6.02286,0.84655 17.00996,-1.84397 z m -80.8113,-54.68787 c 7.72348,-10.61554 13.87812,-19.42436 13.67699,-19.57516 -0.97132,-0.72828 -50.92795,-10.89494 -51.36882,-10.45407 -0.81966,0.81965 2.25519,16.81641 4.46497,23.22886 2.40543,6.98017 9.73406,21.02502 13.64957,26.15852 2.61468,3.42803 2.85291,3.53066 4.15418,1.7897 0.75923,-1.01579 7.69963,-10.53232 15.42311,-21.14785 z m 140.28159,7.62874 c 2.52115,-4.76973 5.48767,-11.29473 6.59226,-14.5 2.19059,-6.35662 5.25593,-22.34262 4.44058,-23.15797 -0.44177,-0.44177 -50.40011,9.72688 -51.37093,10.45618 -0.2023,0.15196 6.53576,9.77712 14.97346,21.38923 l 15.34127,21.11294 2.71972,-3.31408 c 1.49584,-1.82274 4.78248,-7.21657 7.30364,-11.9863 z m -77.43829,-9.00128 c 3.0074,-12.19543 5.95242,-22.65793 6.54449,-23.25 0.59207,-0.59207 11.05457,-3.53709 23.25,-6.54449 12.19543,-3.0074 22.17351,-5.7218 22.17351,-6.032 0,-0.3102 -9.97808,-3.0246 -22.17351,-6.032 -12.19543,-3.0074 -22.65793,-5.95242 -23.25,-6.54449 -0.59207,-0.59207 -3.53709,-11.05457 -6.54449,-23.25 -3.0074,-12.19543 -5.7218,-22.17351 -6.032,-22.17351 -0.3102,0 -3.0246,9.97808 -6.032,22.17351 -3.0074,12.19543 -5.95242,22.65793 -6.54449,23.25 -0.59207,0.59207 -11.05457,3.53709 -23.25,6.54449 -12.19543,3.0074 -22.17351,5.7218 -22.17351,6.032 0,0.3102 9.97808,3.0246 22.17351,6.032 12.19543,3.0074 22.65793,5.95242 23.25,6.54449 0.59207,0.59207 3.53709,11.05457 6.54449,23.25 3.0074,12.19543 5.7218,22.17351 6.032,22.17351 0.3102,0 3.0246,-9.97808 6.032,-22.17351 z m -74.032,-47.99531 c 13.475,-2.8538 24.66551,-5.31129 24.8678,-5.46109 0.2023,-0.1498 -6.53576,-9.77319 -14.97346,-21.3853 l -15.34127,-21.11294 -2.76032,3.31408 c -4.44516,5.3369 -13.68763,24.67937 -15.67965,32.81407 -2.69052,10.9871 -3.34211,16.99784 -1.84397,17.00996 0.67698,0.005 12.25587,-2.32497 25.73087,-5.17878 z m 162.34262,0.41882 c -1.83539,-14.08139 -10.722,-36.1635 -18.13537,-45.06407 l -2.76032,-3.31408 -15.34127,21.11294 c -8.4377,11.61211 -15.17576,21.2365 -14.97346,21.38752 0.7001,0.52266 47.37681,10.43197 49.59867,10.52963 2.09031,0.0919 2.19186,-0.20122 1.61175,-4.65194 z m -106.43104,-56.7567 c 2.97637,-14.02691 5.18649,-25.72857 4.91137,-26.00368 -0.78959,-0.78959 -16.75283,2.243 -22.82743,4.33661 -10.58276,3.64733 -31.08674,15.41588 -29.54491,16.95772 1.18251,1.1825 41.05813,30.14579 41.54939,30.17901 0.275,0.0186 2.93521,-11.44275 5.91158,-25.46966 z m 49.4468,11.57971 c 10.52789,-7.65985 20.00128,-14.56908 21.05198,-15.35384 1.80035,-1.34469 1.57003,-1.65772 -4,-5.43615 -7.2416,-4.91235 -17.06829,-9.92791 -24.40588,-12.45679 -6.0746,-2.09361 -22.03784,-5.1262 -22.82743,-4.33661 -0.52091,0.52091 10.0518,51.50593 10.68133,51.50877 0.1971,8.8e-4 8.9721,-6.26554 19.5,-13.92538 z"
       id="path1" />
  </g>
</svg>
