<?xml version="1.0" encoding="UTF-8" standalone="no"?>
<!-- Created with Inkscape (http://www.inkscape.org/) -->

<svg
   version="1.1"
   id="svg1"
   width="236.99332"
   height="237.49606"
   viewBox="0 0 236.99332 237.49606"
   xmlns="http://www.w3.org/2000/svg"
   xmlns:svg="http://www.w3.org/2000/svg">
  <defs
     id="defs1" />
  <g
     id="g1"
     transform="translate(-956.90929,-440.1018)">
    <path
       d="m 1084.4057,623.09786 v -54.5 h -24.7484 -24.7485 l 39.7485,-39.74843 39.7484,-39.74843 39.7484,39.74843 39.7485,39.74843 h -24.7485 -24.7484 v 54.5 54.5 h -30 -30 z m -83,2.5 v -3 h 25 25 v 3 3 h -25 -25 z m 0,-21 v -4 h 25 25 v 4 4 h -25 -25 z m 0,-54.5 v -40.5 h -22.24821 -22.2482 l 34.74803,-34.74803 34.74808,-34.74803 29.2319,29.23192 29.2319,29.23192 -5.4476,5.51611 -5.4476,5.51611 h -11.2841 -11.2842 v 11.24234 11.24235 l -23.7422,23.75765 -23.7422,23.75766 h 23.7422 23.7422 v 5.5 5.5 h -25 -25 z"
       id="path1" />
  </g>
</svg>
