<?xml version="1.0" encoding="UTF-8" standalone="no"?>
<!-- Created with Inkscape (http://www.inkscape.org/) -->

<svg
   version="1.1"
   id="svg1"
   width="235.65575"
   height="237.56726"
   viewBox="0 0 235.65575 237.56726"
   xmlns="http://www.w3.org/2000/svg"
   xmlns:svg="http://www.w3.org/2000/svg">
  <defs
     id="defs1" />
  <g
     id="g1"
     transform="translate(-551.43712,-543.18393)">
    <path
       d="m 633.30534,779.29727 c -18.5334,-4.98038 -31.1165,-22.22887 -31.2942,-42.89691 -0.1042,-12.12676 3.2706,-22.10737 10.8196,-31.99705 2.5535,-3.34525 3.1006,-4.56849 1.8066,-4.03924 -3.601,1.47278 -19.9886,1.82311 -25.4812,0.54473 -23.4649,-5.46134 -41.0015,-30.12765 -37.1995,-52.32347 4.591,-26.80192 33.4462,-43.47466 60.9272,-35.20411 2.6422,0.79519 4.9218,1.32798 5.0658,1.18398 0.144,-0.144 -0.8951,-3.12604 -2.3091,-6.62676 -6.9985,-17.32642 -2.3391,-38.84103 11.3837,-52.56379 24.7386,-24.73857 67.1508,-9.77117 74.8185,26.40371 0.772,3.6421 1.4115,8.35465 1.421,10.47234 l 0.017,3.85035 5.5023,-5.02883 c 8.9238,-8.15586 19.0525,-12.09953 31.1985,-12.14741 29.7653,-0.11735 51.071,22.90042 46.4909,50.22682 -3.1551,18.82486 -15.7286,32.67474 -35.5532,39.16237 -1.417,0.46369 -0.1825,1.44922 5.1686,4.12625 24.9859,12.49993 34.0084,46.97308 18.278,69.83645 -11.688,16.98787 -36.0919,22.48014 -56.6501,12.74952 -7.2022,-3.40897 -16.0628,-11.31232 -20.5875,-18.36348 l -3.3452,-5.21312 -0.742,5.93964 c -2.1091,16.88481 -11.6208,30.33934 -26.9343,38.09928 -10.4367,5.28866 -22.2081,6.65549 -32.8018,3.80873 z m 48.3331,-93.42941 c 6.9689,-2.60738 13.1377,-7.09032 15.1731,-11.02636 1.3443,-2.59955 1.4982,-5.29904 0.956,-16.76972 -0.3758,-7.95109 -0.2134,-16.58445 0.3883,-20.63347 0.569,-3.82913 0.8944,-7.10223 0.723,-7.27354 -1.6878,-1.6878 -11.0438,10.79645 -13.7969,18.4099 -0.6614,1.82913 -1.7856,3.32569 -2.4982,3.32569 -0.7126,0 -6.2472,-4.78382 -12.2991,-10.63071 l -11.0035,-10.63072 0.01,3.38072 c 0,1.85939 0.6688,8.97919 1.4756,15.82178 0.8068,6.84259 1.3148,12.59319 1.1289,12.77911 -0.186,0.18592 -4.2839,-0.35006 -9.1066,-1.19107 -4.8227,-0.84101 -10.3971,-1.52222 -12.3876,-1.5138 -3.9089,0.0165 -7.5235,1.767 -5.4229,2.62619 2.9478,1.20572 13.4781,8.57167 20.6419,14.43899 14.9949,12.28118 16.0157,12.62984 26.0193,8.88701 z"
       id="path1" />
  </g>
</svg>
