<?xml version="1.0" encoding="UTF-8" standalone="no"?>
<!-- Created with Inkscape (http://www.inkscape.org/) -->

<svg
   version="1.1"
   id="svg1"
   width="239.49025"
   height="219.69943"
   viewBox="0 0 239.49025 219.69943"
   xmlns="http://www.w3.org/2000/svg"
   xmlns:svg="http://www.w3.org/2000/svg">
  <defs
     id="defs1" />
  <g
     id="g1"
     transform="translate(-1193.8318,-473.93133)">
    <path
       d="m 1305.419,692.65481 c -14.0537,-1.80335 -32.1762,-7.84435 -41.3271,-13.77612 -9.8611,-6.39216 -10.8193,-9.42052 -1.4866,-4.69867 13.6749,6.91879 32.0553,9.49912 55.2888,7.76173 17.1414,-1.28183 26.6718,-3.3184 38.4243,-8.211 17.8302,-7.42272 26.3796,-17.57989 22.5597,-26.80205 -3.1637,-7.63774 -14.724,-7.98075 -39.0422,-1.15845 -19.7904,5.55205 -34.4765,7.37785 -54.0138,6.71508 -16.6036,-0.56324 -23.1784,-1.85062 -39.1759,-7.67081 -9.829,-3.57598 -14.3594,-6.6845 -18.4645,-12.66924 -2.6124,-3.80866 -3.2963,-4.19934 -8.3525,-4.77149 -13.8088,-1.5626 -26.027,-11.80357 -25.9973,-21.79036 0.035,-11.68351 15.1745,-25.68624 29.5713,-27.35038 10.072,-1.16422 9.8996,-0.95678 4.7375,-5.70003 -5.4706,-5.0267 -7.3186,-8.94787 -7.3186,-15.52917 0,-7.94785 2.6805,-14.03822 8.9333,-20.29763 6.9841,-6.99151 14.2037,-9.99329 25.661,-10.66942 l 8.0943,-0.47767 -0.8008,-4.13277 c -1.2252,-6.3239 -1.0361,-11.77691 0.5965,-17.20127 7.7761,-25.835 54.7151,-39.0043 85.2439,-23.91616 14.7891,7.30917 21.7933,18.01417 21.091,32.23466 l -0.3581,7.25 h 12.0594 c 19.1864,0 30.4361,4.11657 41.5087,15.18919 7.8853,7.88534 10.4708,13.39436 10.4708,22.31081 0,5.79891 -0.4618,7.7856 -2.6916,11.5785 -6.0237,10.24623 -18.1432,14.05658 -33.3084,10.47207 -3.6309,-0.85821 -6.1347,-1.04021 -6.3412,-0.46092 -1.214,3.40649 -7.4302,10.93706 -11.6588,14.12392 -11.6698,8.79491 -27.774,12.69724 -55.5,13.44862 -22.2718,0.60357 -36.676,-0.99381 -45.5353,-5.04972 l -5.2306,-2.39464 -0.5368,4.00267 c -0.9801,7.30681 -8.8748,12.56132 -17.3809,11.56828 -2.6291,-0.30694 -3.3164,-0.0278 -3.3164,1.34692 0,8.65684 13.1661,19.43927 28,22.93073 7.4503,1.75358 20.1047,1.55774 28,-0.43331 3.575,-0.90156 13.25,-5.0131 21.5,-9.13676 19.4451,-9.71937 26.8322,-11.68509 44.5,-11.84151 11.3204,-0.10022 14.6302,0.23419 20.5,2.07125 24.4694,7.65814 29.4223,25.52473 12.1843,43.95224 -14.6708,15.68314 -38.168,26.25864 -64.9874,29.24918 -11.0964,1.23732 -26.1562,1.20966 -36.1,-0.0663 z"
       id="path1" />
  </g>
</svg>
