<?xml version="1.0" encoding="UTF-8" standalone="no"?>
<!-- Created with Inkscape (http://www.inkscape.org/) -->

<svg
   version="1.1"
   id="svg1"
   width="237.28596"
   height="246.87158"
   viewBox="0 0 237.28596 246.87158"
   xmlns="http://www.w3.org/2000/svg"
   xmlns:svg="http://www.w3.org/2000/svg">
  <defs
     id="defs1" />
  <g
     id="g1"
     transform="translate(-1469.9178,-678.09462)">
    <path
       d="m 1697.4555,920.92465 c -8.1372,-3.43268 -10.871,-5.25679 -19.0577,-12.71611 C 1673.141,903.41885 1652.0514,884.2 1631.532,865.5 l -37.3081,-34 -5.6342,-0.6739 c -3.0988,-0.37065 -9.063,-0.96604 -13.2537,-1.3231 l -7.6195,-0.64918 -0.6945,-16.17691 -0.6946,-16.17691 3.4556,-12 c 1.9006,-6.6 4.6593,-19.09705 6.1305,-27.77122 2.3014,-13.56833 2.519,-16.52271 1.5581,-21.15138 -2.2014,-10.60403 -11.9811,-20.8627 -25.0161,-26.24126 -5.4958,-2.26772 -8.0449,-2.69397 -16.5,-2.7591 -9.0094,-0.0694 -10.5636,0.19975 -15.6901,2.7172 -6.7495,3.31448 -14.5687,11.4529 -18.2125,18.956 -7.3184,15.06953 -5.3175,33.90485 4.7399,44.619 3.9389,4.19618 8.3394,6.13509 13.8806,6.11602 7.5844,-0.0261 12.1913,-4.01042 13.3521,-11.54767 0.6199,-4.02524 0.59,-4.07307 -3.2637,-5.22768 -11.6002,-3.47548 -14.0546,-18.98083 -4.0078,-25.31757 2.5996,-1.63959 4.4266,-1.94153 9.7176,-1.60603 11.0469,0.70047 20.2877,6.4098 23.7372,14.66577 3.8256,9.15598 2.1678,26.91027 -3.4821,37.29102 -3.702,6.80172 -12.0132,14.13706 -19.0245,16.79066 -7.0064,2.65172 -19.8659,3.64255 -27.1105,2.08887 -17.7874,-3.81472 -33.1719,-19.74696 -38.7431,-40.12263 -2.7549,-10.07537 -2.5292,-28.34298 0.4689,-37.96476 11.2407,-36.07402 41.2814,-55.25174 76.2153,-48.65513 31.5738,5.9621 53.7763,28.05064 57.4146,57.11989 1.0164,8.1206 -3.9257,37.88334 -9.4644,56.99682 -1.1151,3.84825 -2.0275,7.51656 -2.0275,8.15181 0,0.66842 2.5435,1.4502 6.0374,1.85572 l 6.0375,0.70072 35.7125,39.56741 c 19.642,21.76207 40.5698,44.9525 46.5063,51.53427 5.9366,6.58177 11.4014,13.3678 12.1441,15.08006 0.7427,1.71225 2.5173,5.70069 3.9436,8.86319 1.4264,3.1625 2.4866,5.73475 2.356,5.7161 -0.1306,-0.0186 -4.5124,-1.8373 -9.7374,-4.04145 z"
       id="path1" />
  </g>
</svg>
