<?xml version="1.0" encoding="UTF-8" standalone="no"?>
<!-- Created with Inkscape (http://www.inkscape.org/) -->

<svg
   version="1.1"
   id="svg1"
   width="239.65157"
   height="195.49861"
   viewBox="0 0 239.65157 195.49861"
   xmlns="http://www.w3.org/2000/svg"
   xmlns:svg="http://www.w3.org/2000/svg">
  <defs
     id="defs1" />
  <g
     id="g1"
     transform="translate(-734.9377,-1221.2704)">
    <path
       d="m 931.7331,1416.4156 c -9.7774,-1.9001 -16.6956,-5.9533 -19.5359,-11.446 -3.19,-6.1688 -0.8391,-17.5704 4.6664,-22.6317 1.3169,-1.2106 4.6388,-3.2356 7.382,-4.5 4.3929,-2.0248 6.5372,-2.2988 17.9875,-2.2988 11.5344,0 13.5909,0.2671 18.2416,2.3695 9.3127,4.21 15.0828,12.9472 13.9801,21.1689 -0.9138,6.8129 -5.8964,11.4049 -16.2517,14.9778 -5.8849,2.0304 -21.1589,3.3924 -26.47,2.3603 z m 4.75,-23.6249 c 3.0317,-2.8299 3.0459,-8.0807 0.027,-10.1949 -3.4747,-2.4337 -9.4249,-2.0002 -12.323,0.8978 -3.9659,3.966 -3.1035,8.9055 1.9452,11.1403 3.7163,1.645 7.2962,1.0075 10.3503,-1.8432 z m -62.7339,15.7141 c -35.7068,-6.4592 -56.2728,-27.8241 -52.1724,-54.1989 4.2522,-27.3516 28.8277,-44.9063 65.6563,-46.8995 41.6915,-2.2563 73.3399,20.0805 73.4756,51.8577 l 0.024,5.725 -3.25,-0.725 c -1.7875,-0.3987 -8.65,-0.7063 -15.25,-0.6834 -21.2369,0.073 -33.918,5.9816 -40.4847,18.8616 -3.0064,5.8969 -3.4867,7.8136 -3.5,13.9659 -0.01,3.922 0.358,8.5934 0.8142,10.3809 l 0.8294,3.25 -9.3294,-0.09 c -5.1312,-0.05 -12.6973,-0.6995 -16.8134,-1.4441 z m -3.0605,-62.4431 c 13.9736,-7.1287 10.1724,-25.007 -5.3194,-25.0189 -15.6671,-0.012 -23.3878,18.9372 -10.3376,25.3722 4.3919,2.1656 11.0124,2.0163 15.657,-0.3533 z m -109.1922,38.0129 c -18.4028,-3.364 -27.9817,-13.0123 -26.3873,-26.5785 1.3199,-11.2305 7.282,-19.6865 17.3885,-24.6619 6.5092,-3.2044 7.0379,-3.294 19.2144,-3.2568 14.6752,0.045 20.8222,1.8938 28.3619,8.5306 12.8686,11.3273 13.6524,31.1197 1.5643,39.4968 -8.0551,5.5822 -27.6873,8.7464 -40.1418,6.4698 z m 5.4866,-33.9895 c 3.0198,-3.3795 3.3404,-5.069 1.5867,-8.3617 -1.8252,-3.4269 -4.0041,-4.6182 -8.51,-4.6525 -9.3312,-0.071 -13.7497,8.9102 -7.1256,14.484 4.307,3.6241 10.0324,3.025 14.0489,-1.4698 z m 40.8347,-27.7107 c -7.1514,-4.2854 -17.8012,-7.3698 -29.5847,-8.5684 -12.3558,-1.2568 -16.1043,-3.0474 -23.0351,-11.0033 -13.8948,-15.9502 -13.3654,-39.3547 1.2912,-57.0913 18.1437,-21.9564 57.1907,-30.7975 86.3756,-19.5574 29.6843,11.4325 44.294,40.3508 32.3216,63.9772 -2.1074,4.1588 -2.9516,4.9014 -6.1965,5.4508 -18.1121,3.0666 -35.7478,11.3122 -47.1635,22.0513 -4.3298,4.0732 -8.2596,7.4015 -8.7329,7.3963 -0.4732,-0.01 -2.8473,-1.2 -5.2757,-2.6552 z m -10.097,-63.4485 c 2.0771,-1.1674 4.7296,-3.8183 5.8944,-5.8908 8.5835,-15.2724 -13.0918,-27.0216 -26.0129,-14.1005 -7.1464,7.1464 -5.7703,16.3411 3.1308,20.9188 5.3262,2.7393 11.0163,2.4286 16.9877,-0.9275 z"
       id="path1" />
  </g>
</svg>
