<?xml version="1.0" encoding="UTF-8" standalone="no"?>
<!-- Created with Inkscape (http://www.inkscape.org/) -->

<svg
   version="1.1"
   id="svg1"
   width="212.85196"
   height="239.48389"
   viewBox="0 0 212.85196 239.48389"
   xmlns="http://www.w3.org/2000/svg"
   xmlns:svg="http://www.w3.org/2000/svg">
  <defs
     id="defs1" />
  <g
     id="g1"
     transform="translate(-863.63455,-725.34391)">
    <path
       d="m 887.37895,941.08346 -23.7444,-23.74434 49.0543,-49.06181 49.0543,-49.0618 -2.4671,-4.94139 c -4.4967,-9.00665 -6.0915,-16.17263 -6.107,-27.44138 -0.011,-8.20298 0.4912,-12.11737 2.2972,-17.89324 6.1243,-19.58606 20.3343,-34.22389 39.6537,-40.84743 6.91975,-2.37238 9.58325,-2.74748 19.51355,-2.74816 18.6418,-0.001 30.7966,5.0824 44.0181,18.41025 20.5139,20.67888 23.6828,52.37032 7.6785,76.79232 -7.9329,12.10548 -18.2828,20.08461 -32.3688,24.95435 -6.6056,2.28368 -9.5453,2.71367 -18.8278,2.75394 -11.8182,0.0513 -18.67005,-1.43572 -27.93895,-6.0634 l -4.9388,-2.46582 -24.3085,24.2933 -24.3085,24.2933 13.5026,13.52852 13.5026,13.52851 -8.01,7.9631 -8.0101,7.96309 -13.4986,-13.47079 -13.4986,-13.4708 -8.7361,8.7361 -8.7361,8.7361 13.4788,13.50654 13.4787,13.50654 -7.9943,7.99437 -7.9944,7.99437 z M 1029.8861,821.57714 c 7.9971,-3.66469 15.8337,-11.35928 19.3732,-19.02203 2.5272,-5.47121 2.8742,-7.3692 2.8742,-15.72237 0,-8.3075 -0.3513,-10.25316 -2.7985,-15.5 -3.673,-7.87502 -11.3748,-15.60984 -19.0969,-19.1787 -5.3416,-2.46869 -7.2919,-2.8213 -15.6046,-2.8213 -8.2282,0 -10.2701,0.36092 -15.25265,2.69589 -8.0481,3.77159 -15.8516,11.45774 -19.3732,19.08174 -2.5272,5.47121 -2.8742,7.3692 -2.8742,15.72237 0,8.35317 0.347,10.25116 2.8742,15.72237 4.4194,9.56773 13.4507,17.40542 24.12585,20.93712 6.493,2.14813 18.8992,1.22555 25.7526,-1.91509 z"
       id="path1" />
  </g>
</svg>
