<?xml version="1.0" encoding="UTF-8" standalone="no"?>
<!-- Created with Inkscape (http://www.inkscape.org/) -->

<svg
   version="1.1"
   id="svg1"
   width="220.04492"
   height="219.3358"
   viewBox="0 0 220.04492 219.3358"
   xmlns="http://www.w3.org/2000/svg"
   xmlns:svg="http://www.w3.org/2000/svg">
  <defs
     id="defs1" />
  <g
     id="g1"
     transform="translate(-478.05636,-979.76458)">
    <path
       d="m 646.4554,1197.305 c -3.1347,-1.0023 -8.5511,-3.8573 -12.0365,-6.3444 -11.2867,-8.054 -17.1058,-14.7182 -26.1566,-29.9556 -6.0143,-10.1253 -11.8463,-18.1912 -20.0788,-27.7701 -13.6213,-15.849 -16.8735,-21.6409 -16.7956,-29.9113 0.144,-15.2858 16.6584,-29.984 32.4395,-28.872 11.559,0.8145 18.1967,7.6534 30.3628,31.2833 6.3002,12.2367 13.1056,20.1952 20.5237,24.0011 4.6184,2.3696 14.6857,4.7823 25.2193,6.0442 7.775,0.9314 11.5787,3.6688 15.2216,10.9547 2.6505,5.3009 2.9932,6.9904 2.9419,14.5 -0.05,7.2649 -0.4615,9.2822 -2.8341,13.8828 -5.5874,10.834 -15.5713,18.7128 -28.5393,22.5218 -6.9754,2.0489 -13.1316,1.9473 -20.2679,-0.3345 z m -150.618,-21.9042 c -6.3125,-2.2606 -10.9133,-6.4525 -14.8222,-13.5051 -4.0821,-7.365 -3.9427,-17.334 0.4327,-30.9315 6.3433,-19.7137 8.3519,-46.1323 4.7692,-62.7293 -1.2277,-5.687 -1.8355,-12.6367 -1.8368,-21 0,-14.7089 1.3557,-19.2603 9.4604,-31.7073 7.8906,-12.1183 17.416,-20.84647 29.4117,-26.95041 12.4214,-6.32049 22.3919,-8.76725 35.9024,-8.81038 9.6131,-0.0307 10.5997,0.18086 25.5,5.46807 l 15.5,5.5 20.5,-0.0207 c 13.7984,-0.0139 21.9195,-0.44326 24.8421,-1.31335 2.3881,-0.71096 8.0852,-1.3031 12.6602,-1.31585 9.7375,-0.0271 14.9425,1.84658 21.4425,7.71898 6.3076,5.69854 8.0552,9.88264 8.0552,19.28574 0,11.3174 -3.7526,22.8595 -10.9388,33.6451 -1.4658,2.2 -3.9461,7.375 -5.5117,11.5 -3.2469,8.5547 -6.4684,14.532 -11.3182,21 -4.6694,6.2274 -16.2044,18.1387 -17.0422,17.5981 -0.379,-0.2445 -2.4697,-3.797 -4.646,-7.8943 l -3.9569,-7.4497 4.7939,-5.332 c 9.611,-10.6897 11.7042,-18.9041 7.253,-28.463 -5.5801,-11.9832 -19.7169,-17.2722 -43.1331,-16.1372 -12.9106,0.6257 -19.059,1.9561 -28.0382,6.067 -14.1074,6.4585 -31.8658,23.3055 -37.8586,35.9155 -5.2862,11.123 -8.033,23.301 -8.0513,35.6956 -0.026,17.8452 3.4189,25.9537 13.3137,31.3333 8.584,4.6671 14.5631,3.8033 27.3209,-3.9466 l 5.961,-3.6211 1.6566,2.3672 c 0.9111,1.302 3.1773,4.0514 5.036,6.1099 1.8587,2.0585 3.1577,4.3085 2.8865,5 -0.8233,2.1002 -13.7073,9.236 -22.7266,12.5871 -4.675,1.7371 -12.5664,4.2278 -17.5364,5.5349 -4.97,1.3072 -10.82,3.2778 -13,4.3792 -11.0001,5.5575 -27.4957,7.568 -36.281,4.422 z m 51.2171,-37.8796 c -0.6052,-0.4325 -1.6335,-1.7988 -2.2852,-3.0363 -1.7165,-3.2596 -0.016,-5.665 5.0765,-7.1803 2.37,-0.7052 6.9427,-2.5844 10.1616,-4.176 8.5611,-4.2329 11.6474,-3.7027 11.6474,2.001 0,5.2592 -20.2835,15.4763 -24.6003,12.3916 z m -7.7447,-22.115 c -0.9103,-1.0058 -1.655,-2.9611 -1.655,-4.3451 0,-4.3689 2.6603,-5.6209 14.7245,-6.9293 12.1729,-1.3203 14.2755,-0.8043 14.2755,3.503 0,4.2114 -2.6713,6.365 -9.9481,8.0201 -9.4297,2.1447 -15.3069,2.0607 -17.3969,-0.2487 z m 14.7971,-20.9772 c -7.0039,-2.9312 -13.2938,-7.12 -13.9913,-9.3175 -0.8154,-2.5692 2.3378,-7.2408 5.176,-7.6682 1.8096,-0.2725 17.8171,7.2635 20.9479,9.8619 1.9738,1.6381 1.7655,5.3028 -0.4134,7.2747 -2.3023,2.0836 -6.5097,2.0294 -11.7192,-0.1509 z m 9.7648,-21.9437 c -4.0057,-4.2627 -7.5315,-8.721 -7.835,-9.9073 -1.1117,-4.3441 3.4584,-8.7206 7.8947,-7.5605 2.9025,0.759 14.6187,15.266 15.3275,18.9784 0.79,4.1377 -0.8859,6.2389 -4.9765,6.2394 -2.6082,3e-4 -4.3372,-1.2868 -10.4107,-7.75 z m 58.3545,4.1782 c -2.132,-2.1321 -2.0533,-2.4968 1.7411,-8.0664 1.8219,-2.6742 4.7799,-7.4497 6.5734,-10.6122 2.7203,-4.7968 3.7129,-5.75 5.9875,-5.75 5.9648,0 6.628,4.4031 1.9775,13.1284 -3.471,6.5122 -9.7863,12.8716 -12.7824,12.8716 -1.0591,0 -2.6328,-0.7071 -3.4971,-1.5714 z m -33.6797,-8.059 c -1.4239,-1.7158 -6.7087,-16.0135 -7.5744,-20.4923 -0.9942,-5.1438 6.5236,-9.0532 9.8599,-5.1273 2.6751,3.1478 6.0376,12.5276 6.5613,18.3026 0.4628,5.1045 0.2834,5.8187 -1.8352,7.3026 -2.9768,2.085 -5.2892,2.0897 -7.0116,0.014 z m 17.0596,-0.9977 c -0.7627,-2.006 -0.5484,-3.8403 0.9053,-7.75 1.0475,-2.817 2.2309,-7.082 2.6297,-9.4777 1.2318,-7.3984 6.9705,-10.6119 10.9998,-6.1595 2.2302,2.4642 1.6857,8.8084 -1.4828,17.2768 -2.6772,7.1557 -4.2349,8.7385 -8.5995,8.7385 -2.8083,0 -3.6399,-0.4909 -4.4525,-2.6281 z"
       id="path1" />
  </g>
</svg>
