<?xml version="1.0" encoding="UTF-8" standalone="no"?>
<!-- Created with Inkscape (http://www.inkscape.org/) -->

<svg
   version="1.1"
   id="svg1"
   width="233"
   height="194.99995"
   viewBox="0 0 233 194.99995"
   xmlns="http://www.w3.org/2000/svg"
   xmlns:svg="http://www.w3.org/2000/svg">
  <defs
     id="defs1" />
  <g
     id="g1"
     transform="translate(-1015.8826,-960.99644)">
    <path
       d="m 1106.398,1120.7464 -25.7287,-35.25 26.1066,-0.2666 c 14.3587,-0.1466 37.8547,-0.1466 52.2134,0 l 26.1066,0.2666 -25.7287,35.25 c -14.1508,19.3875 -26.0689,35.25 -26.4846,35.25 -0.4157,0 -12.3338,-15.8625 -26.4846,-35.25 z m -40.8712,-23.3256 c -16.3043,-15.1666 -29.6442,-27.7553 -29.6442,-27.9748 0,-0.4729 11.4505,4.7386 22,10.013 7.2569,3.6283 7.7982,4.1596 16.7015,16.3936 5.0608,6.9541 11.9349,16.3563 15.2757,20.8938 3.3408,4.5375 5.9025,8.25 5.6927,8.25 -0.2098,0 -13.7214,-12.409 -30.0257,-27.5756 z m 110.249,19.5756 c 3.4121,-4.675 10.3445,-14.1897 15.4053,-21.1438 8.9033,-12.234 9.4446,-12.7653 16.7015,-16.3936 10.3125,-5.1559 22,-10.4896 22,-10.0399 0,0.3544 -52.8675,49.6594 -57.9053,54.0033 -1.3229,1.1407 0.3865,-1.751 3.7985,-6.426 z m -98.8932,-45.1883 c 0,-0.6536 2.7,-11.667 6,-24.4744 3.3,-12.8073 6,-23.5225 6,-23.8116 0,-0.2891 19.8,-0.5257 44,-0.5257 24.2,0 44,0.1984 44,0.4408 0,0.2424 2.6967,10.9299 5.9928,23.75 3.296,12.8201 5.996,23.8717 6,24.5592 0.01,0.9853 -11.8556,1.25 -55.9928,1.25 -42.5836,0 -56,-0.2847 -56,-1.1883 z m -36.25,-13.0606 -24.75,-12.0698 0.01,-4.0906 c 0.01,-3.1545 2.4037,-8.9862 10.4753,-25.4826 5.7568,-11.7655 10.6522,-21.57711 10.8786,-21.80348 0.3412,-0.3412 15.0996,8.40118 36.3879,21.55488 2.3375,1.4443 4.25,3.2765 4.25,4.0716 0,1.0878 -11.1006,45.5663 -12.2862,49.2293 -0.1176,0.3633 -11.3513,-4.7709 -24.9638,-11.4093 z m 153.4,-12.6579 c -3.4305,-13.5263 -6.2176,-25.0464 -6.1936,-25.6004 0.024,-0.554 1.9561,-2.189 4.2936,-3.6333 20.9386,-12.9377 36.043,-21.8998 36.3654,-21.57735 0.2141,0.21403 4.8881,9.56155 10.3869,20.77235 8.8228,17.988 9.9977,21.003 9.9977,25.6567 v 5.2734 l -12.25,6.1467 c -6.7375,3.3807 -17.6754,8.7136 -24.3064,11.8508 l -12.0564,5.7042 z m -126.6428,-46.11387 c -10.9717,-6.61139 -20.3255,-12.39764 -20.7862,-12.85833 -0.4607,-0.46069 1.3261,-2.19754 3.9707,-3.85967 2.6446,-1.66212 11.6541,-7.35088 20.0212,-12.64167 l 15.2128,-9.61962 h 47.0743 47.0743 l 15.2128,9.61962 c 8.3671,5.29079 17.3766,10.97955 20.0212,12.64167 2.6446,1.66213 4.4314,3.39898 3.9707,3.85967 -0.4607,0.46069 -9.8145,6.24694 -20.7862,12.85833 l -19.9486,12.02067 h -45.5442 -45.5442 z"
       id="path1" />
  </g>
</svg>
