<?xml version="1.0" encoding="UTF-8" standalone="no"?>
<!-- Created with Inkscape (http://www.inkscape.org/) -->

<svg
   version="1.1"
   id="svg1"
   width="239.89186"
   height="243.7997"
   viewBox="0 0 239.89186 243.7997"
   xmlns="http://www.w3.org/2000/svg"
   xmlns:svg="http://www.w3.org/2000/svg">
  <defs
     id="defs1" />
  <g
     id="g1"
     transform="translate(-958.55654,-1221.4387)">
    <path
       d="m 1180.4305,1462.8527 c -1.9151,-1.3122 -13.2398,-12.4899 -25.1658,-24.8394 l -21.6837,-22.4537 7.9407,-7.894 7.9406,-7.8941 19.5904,19.4835 c 23.2425,23.1155 29.3957,30.147 29.3957,33.5917 0,3.1048 -9.3111,12.3917 -12.424,12.3917 -1.1614,0 -3.6787,-1.0736 -5.5939,-2.3857 z m -89.9821,-26.7369 c -3.025,-1.701 -7.4702,-4.222 -9.8783,-5.6024 l -4.3783,-2.5097 42.8739,-42.8827 c 23.5807,-23.5854 43.1137,-42.8826 43.4066,-42.8826 0.2929,0 2.8659,4.4062 5.7177,9.7915 l 5.185,9.7915 -38.7133,38.6935 -38.7133,38.6935 z m -3,-55.0981 c -17.1666,-18.2892 -51.4092,-49.3423 -89,-80.7102 -10.725,-8.9495 -19.82024,-17.2388 -20.21164,-18.4205 -0.3914,-1.1817 -2.57779,-8.8986 -4.85863,-17.1486 -3.85192,-13.9327 -7.74409,-25.5635 -12.76658,-38.1498 l -2.05501,-5.1499 8.69593,3.518 c 16.75962,6.7803 32.93063,12.1561 48.87933,16.2493 3.8131,0.9786 5.4456,2.643 18.4423,18.803 30.5905,38.0361 54.8848,66.0583 76.2994,88.0075 l 14.925,15.2977 -4.9045,4.9795 -4.9046,4.9794 -58.5237,-58.5174 c -39.2399,-39.2357 -59.19804,-58.5173 -60.57045,-58.5173 -1.12577,0 -2.58685,0.54 -3.24685,1.2 -3.70133,3.7013 -3.01094,4.4825 57.0312,64.5312 l 58.2312,58.2376 -5.447,5.5156 c -2.9959,3.0336 -5.6875,5.4932 -5.9812,5.4659 -0.2938,-0.027 -4.8092,-4.6043 -10.0342,-10.171 z"
       id="path1" />
  </g>
</svg>
