<?xml version="1.0" encoding="UTF-8" standalone="no"?>
<!-- Created with Inkscape (http://www.inkscape.org/) -->

<svg
   version="1.1"
   id="svg1"
   width="190.74474"
   height="228.43333"
   viewBox="0 0 190.74474 228.43333"
   xmlns="http://www.w3.org/2000/svg"
   xmlns:svg="http://www.w3.org/2000/svg">
  <defs
     id="defs1" />
  <g
     id="g1"
     transform="translate(-831.89051,-258.39931)">
    <path
       d="m 919.74733,485.45355 c -4.45821,-1.35134 -6.82592,-3.00041 -12.5,-8.70603 l -7,-7.03891 6.17917,-0.71299 c 20.10284,-2.31959 41.84739,-19.0149 52.55289,-40.34971 4.48897,-8.94601 4.2493,-10.28533 -0.67353,-3.76371 -11.43903,15.1541 -30.63848,26.552 -50.49946,29.97939 -5.0343,0.86877 -10.57595,1.2003 -13.6478,0.8165 -5.08975,-0.63592 -5.26112,-0.77013 -10.79157,-8.45125 -3.09084,-4.29279 -5.6197,-8.21418 -5.6197,-8.7142 0,-0.50002 2.77255,-1.43603 6.16123,-2.08003 8.50556,-1.61641 17.26286,-6.16902 24.54781,-12.76152 5.96617,-5.39906 14.02972,-14.89182 17.85969,-21.02518 1.66356,-2.66404 1.34483,-2.52191 -2.84615,1.26918 -5.72863,5.18201 -16.43683,12.17073 -23.22258,15.15624 -10.14509,4.46352 -25.63514,6.49449 -31.76315,4.16463 -2.4237,-0.92149 -15.08269,-19.72145 -14.21971,-21.11779 0.24116,-0.3902 3.591,-1.02011 7.44408,-1.39978 5.01679,-0.49434 8.92656,-1.66251 13.77219,-4.11486 7.00984,-3.54766 17.45953,-12.04838 19.42935,-15.80559 1.07137,-2.04352 1.03269,-2.06988 -0.76725,-0.52262 -7.60298,6.53564 -28.56377,11.6355 -41.69434,10.14442 -4.29179,-0.48736 -4.99038,-0.92685 -6.61168,-4.15939 -2.49062,-4.96581 -7.62626,-20.85523 -10.05653,-31.11444 -5.86006,-24.73778 -4.95931,-71.2503 1.76115,-90.94189 1.02148,-2.99304 2.33172,-5.60005 2.91164,-5.79336 0.57992,-0.19331 2.44127,2.10594 4.13633,5.10943 8.63734,15.30451 33.75185,44.52163 48.97734,56.97809 18.18231,14.87551 47.70188,31.67673 70.38402,40.05944 5.3369,1.97237 18.05189,6.00346 28.25554,8.95798 19.65829,5.69218 25.38379,8.49174 28.09699,13.73856 8.2397,15.93381 -6.452,58.36213 -26.87709,77.61876 -10.58931,9.98353 -25.68691,18.52153 -40.39056,22.84168 -11.4652,3.36865 -25.49401,4.1015 -33.28832,1.73895 z"
       id="path1" />
  </g>
</svg>
