<?xml version="1.0" encoding="UTF-8" standalone="no"?>
<!-- Created with Inkscape (http://www.inkscape.org/) -->

<svg
   version="1.1"
   id="svg1"
   width="238.85556"
   height="222.79459"
   viewBox="0 0 238.85556 222.79459"
   xmlns="http://www.w3.org/2000/svg"
   xmlns:svg="http://www.w3.org/2000/svg">
  <defs
     id="defs1" />
  <g
     id="g1"
     transform="translate(-783.56147,-983.95497)">
    <path
       d="m 928.5516,1204.8703 c -1.925,-1.0092 -12.07273,-4.771 -22.55052,-8.3595 -20.66824,-7.0787 -47.44948,-17.6279 -47.44948,-18.6906 0,-0.3637 2.5875,-1.4688 5.75,-2.4556 3.1625,-0.9869 13.175,-4.8939 22.25,-8.6822 9.075,-3.7883 16.84354,-6.888 17.26342,-6.8883 0.41988,-3e-4 0.0824,1.6295 -0.75,3.6216 -3.70406,8.8651 -0.7045,14.2282 10.19528,18.2288 20.26021,7.4362 53.38852,3.5969 58.77069,-6.8111 2.06362,-3.9906 2.0007,-4.4044 -2.05859,-13.5398 -1.95513,-4.4 -3.80655,-8.5854 -4.11427,-9.3008 -0.42128,-0.9795 0.1511,-1.1272 2.31699,-0.5981 5.85919,1.4313 52.81238,15.5435 54.08508,16.2557 0.8368,0.4683 -1.7031,1.9632 -6.9446,4.0873 -8.7275,3.5369 -19.30976,8.8 -29.264,14.5546 -3.3,1.9077 -8.7,4.5898 -12,5.9602 -11.43083,4.7467 -38.68328,14.5409 -40.33787,14.4969 -0.91417,-0.024 -3.23713,-0.8699 -5.16213,-1.8791 z m -8.27733,-30.0307 c -6.62995,-2.119 -8.72267,-3.5676 -8.72267,-6.038 0,-0.9609 4.09518,-9.3433 9.10041,-18.6275 14.32801,-26.5773 12.84581,-24.3805 16.45009,-24.3805 3.1126,0 3.41829,0.4395 13.97102,20.0862 5.93383,11.0474 10.98883,21.1327 11.23332,22.4116 0.95024,4.9709 -9.8237,8.5001 -25.75484,8.4366 -7.35832,-0.029 -12.22862,-0.5944 -16.27733,-1.8884 z m -70.22267,-8.2672 c -10.98695,-1.1396 -21.95989,-4.2613 -28.39679,-8.0784 -11.29653,-6.699 -21.23127,-22.5636 -29.04151,-46.3759 -6.43114,-19.6076 -10.32525,-42.7757 -8.67146,-51.5911 1.23207,-6.5675 13.11517,-17.0885 21.72009,-19.2304 2.32909,-0.5797 2.67925,-0.3051 3.25,2.5486 1.11272,5.5637 0.76007,7.7754 -1.34636,8.444 -1.09232,0.3467 -3.34232,1.9866 -5,3.6443 -9.73391,9.7339 5.28494,20.6107 37.43343,27.1095 9.641,1.949 14.18165,2.2354 35.5526,2.2425 25.84744,0.01 31.95811,-0.6334 48.90025,-5.1374 17.19432,-4.571 29.09975,-11.8609 29.09975,-17.8183 0,-11.0929 -18.396,-18.4931 -53.58977,-21.5577 -7.10063,-0.6183 -19.31874,-0.9789 -27.15137,-0.8014 l -14.24114,0.3229 -1.00886,-2.8992 c -2.39749,-6.8899 -3.26132,-6.6012 19.74114,-6.5974 33.26301,0 55.00867,2.7935 71.55377,9.174 9.65621,3.7238 16.9293,10.1189 18.56365,16.3226 3.06858,11.6478 -3.22392,45.9623 -12.49925,68.1613 l -1.5381,3.6812 -4.01514,-4.6974 c -6.29968,-7.37 -11.73933,-9.297 -17.61459,-6.2401 -4.00006,2.0812 -6.13876,4.8523 -14.00953,18.1522 l -7.13537,12.0572 -22.27772,8.8637 c -28.41391,11.305 -28.4646,11.3187 -38.27772,10.3007 z m -5.5651,-93.7871 c -8.42694,-1.427 -19.93791,-4.1876 -20.3689,-4.8849 -0.72798,-1.1779 -12.566,-71.69405 -12.566,-74.85255 0,-7.69694 13.05699,-12.29325 18.316,-6.44758 0.83786,0.93133 7.23005,20.33763 14.20487,43.12523 6.97482,22.7875 12.90911,42.025 13.1873,42.75 0.57401,1.4958 -4.97464,1.6304 -12.77327,0.3098 z"
       id="path1" />
  </g>
</svg>
