<?xml version="1.0" encoding="UTF-8" standalone="no"?>
<!-- Created with Inkscape (http://www.inkscape.org/) -->

<svg
   version="1.1"
   id="svg1"
   width="236.7153"
   height="234.43353"
   viewBox="0 0 236.7153 234.43353"
   xmlns="http://www.w3.org/2000/svg"
   xmlns:svg="http://www.w3.org/2000/svg">
  <defs
     id="defs1" />
  <g
     id="g1"
     transform="translate(-1371.2982,-529.86896)">
    <path
       d="m 1535.8142,756.42051 c -5.7254,-12.52501 -10.6749,-32.33429 -10.6752,-42.72497 l -2e-4,-5.10695 11.973,0.49311 11.973,0.4931 1.027,-2.70125 c 0.5648,-1.48569 1.027,-6.72196 1.027,-11.63616 v -8.9349 h 3.0422 c 9.2211,0 29.1146,5.99938 42.2732,12.74855 8.6315,4.42714 12.4084,7.92277 11.4,10.55077 -0.2775,0.72312 -4.2645,2.11122 -8.86,3.08467 -4.5955,0.97345 -15.1644,3.37991 -23.4865,5.34768 l -15.131,3.57776 -5.1886,19.59528 c -2.8538,10.77741 -5.4126,20.38279 -5.6864,21.34529 -0.3851,1.35406 -1.5822,1.75 -5.2911,1.75 h -4.7935 z m -3.6754,-57.80664 c -22.9641,-2.41807 -52.9417,-12.01114 -73,-23.3606 -26.7153,-15.11612 -50.9701,-38.21451 -67.4314,-64.21651 -4.0296,-6.36503 -4.1173,-6.21544 4.219,-7.19305 2.9082,-0.34104 7.8974,-1.43235 11.0872,-2.42513 l 5.7997,-1.80505 2.4127,3.59012 c 6.73,10.01391 14.0494,15.49268 23.9128,17.89934 9.2738,2.26279 26.1642,3.31675 31.5,1.96561 4.7105,-1.1928 5.0171,-1.46912 5.2958,-4.77219 0.2476,-2.93471 -0.4552,-4.38597 -4.3127,-8.90512 -6.2688,-7.34408 -15.9959,-15.31157 -28.188,-23.0888 -5.6044,-3.575 -10.014,-6.95 -9.799,-7.5 0.215,-0.55 1.5442,-3.77548 2.9539,-7.16774 2.8262,-6.80111 2.4291,-10.25623 -1.4154,-12.31373 -3.1794,-1.70157 -4.8443,-0.0793 -8.464,8.24727 -4.1692,9.59068 -8.0882,14.55573 -15.2312,19.29703 -6.6921,4.44194 -14.6382,7.08978 -22.7475,7.58001 l -5.9081,0.35716 -2.7753,-6.54836 c -6.0875,-14.36339 -9.5358,-33.74356 -8.5959,-48.31042 0.3144,-4.87233 0.861,-9.14733 1.2147,-9.5 0.3536,-0.35267 7.0172,-0.60958 14.8079,-0.5709 11.0751,0.055 16.1226,0.55335 23.1403,2.2848 18.0301,4.44849 31.9182,10.69942 48.0066,21.6073 l 9.5463,6.47241 10.3554,1.05335 c 16.8171,1.71064 28.629,5.45966 38.9051,12.34822 7.7312,5.18259 8.1362,7.06486 2.4565,11.41573 -2.335,1.78868 -6.6603,5.40879 -9.6118,8.04469 l -5.3664,4.79255 5.952,9.06435 c 14.5828,22.20846 24.8412,49.83351 28.7702,77.47637 0.8107,5.70345 1.4822,11.38241 1.4923,12.61991 0.019,2.376 -0.4578,2.45894 -8.9817,1.56138 z M 1402.0662,561.66763 c 1.1399,-1.44917 2.0726,-3.63848 2.0726,-4.86514 0,-3.52044 -3.7094,-7.5 -6.9908,-7.5 -4.2193,0 -5.9181,0.92324 -7.5674,4.11255 -2.8418,5.49549 0.728,10.88745 7.2081,10.88745 2.2713,0 3.8087,-0.76759 5.2775,-2.63486 z m 48.6955,51.06604 c -16.7218,-2.81277 -21.6936,-5.7197 -27.1677,-15.88455 -1.8662,-3.46527 -1.865,-3.48155 0.448,-5.94364 2.7277,-2.90348 4.0565,-2.59466 13.488,3.13464 6.9021,4.19282 23.6088,17.83954 23.6088,19.28467 0,1.14322 -0.1007,1.13748 -10.3771,-0.59112 z"
       id="path1" />
  </g>
</svg>
