<?xml version="1.0" encoding="UTF-8" standalone="no"?>
<!-- Created with Inkscape (http://www.inkscape.org/) -->

<svg
   version="1.1"
   id="svg1"
   width="174.39453"
   height="219.27451"
   viewBox="0 0 174.39453 219.27451"
   xmlns="http://www.w3.org/2000/svg"
   xmlns:svg="http://www.w3.org/2000/svg">
  <defs
     id="defs1" />
  <g
     id="g1"
     transform="translate(-555.03543,-1201.6935)">
    <path
       d="m 659.72775,1415.1064 -26.80428,-6.296 -6.01647,-5.915 c -10.16293,-9.9915 -68.25279,-74.2679 -70.33073,-77.8209 -1.89811,-3.2456 -1.91972,-4.1929 -0.7334,-32.1403 1.85136,-43.6141 5.13269,-89.7307 6.48051,-91.0785 1.11929,-1.1193 12.26365,3.2327 59.23342,23.1314 26.93638,11.4115 51.1195,21.6537 53.74028,22.7603 4.46401,1.885 6.07498,3.8146 25.5,30.5423 11.40422,15.6916 21.05381,29.0555 21.44353,29.6976 0.38972,0.6421 2.31279,10.716 4.27347,22.3863 3.01647,17.9545 3.39664,21.864 2.47122,25.4128 -2.38529,9.1471 -17.19488,61.2165 -17.50729,61.5543 -0.64441,0.6967 -13.01276,2.9998 -18.94598,3.5278 -5.03845,0.4484 -10.29563,-0.475 -32.80428,-5.7621 z m 50.60291,-30.9321 6.73163,-27.306 -12.24394,-22.6318 c -6.73417,-12.4475 -12.4054,-22.4704 -12.60272,-22.273 -0.19732,0.1973 -1.67202,13.8322 -3.2771,30.2998 l -2.91834,29.9411 6.55374,18.8586 c 6.16646,17.7441 7.44974,20.3644 9.9916,20.4021 0.56843,0.01 4.06273,-12.2724 7.76513,-27.2908 z m -57.39449,9.9179 c 12.60811,-5.6401 15.17706,-7.2193 21.9381,-13.4852 l 7.65776,-7.097 -3.62802,-3.2648 c -3.86802,-3.4808 -59.74663,-34.2235 -60.61925,-33.3509 -0.28465,0.2847 -1.40332,8.3548 -2.48594,17.9337 l -1.96839,17.4162 10.82304,14.1181 c 5.95268,7.7649 11.53839,14.1181 12.41271,14.1181 0.87431,0 8.0158,-2.8747 15.86999,-6.3882 z m -36.90414,-65.004 c 0,-0.7656 -1.32291,-9.4281 -2.93981,-19.25 -5.6763,-34.4807 -6.38309,-39.3682 -5.78016,-39.9712 0.68765,-0.6876 4.77275,0.6703 30.13417,10.0165 9.85281,3.631 18.06536,6.4507 18.25011,6.2659 0.18475,-0.1847 -3.3641,-2.7458 -7.88633,-5.6913 -52.3488,-34.0965 -53.64993,-35.0568 -63.77798,-47.0713 -6.85808,-8.1354 -9.55984,-10.7323 -9.71519,-9.3379 -0.49153,4.4119 -3.24269,49.5931 -3.5029,57.5267 l -0.28191,8.5952 22,20.0824 c 12.1,11.0454 22.3375,20.115 22.75,20.1548 0.4125,0.04 0.75,-0.5541 0.75,-1.3198 z"
       id="path1" />
  </g>
</svg>
