<?xml version="1.0" encoding="UTF-8" standalone="no"?>
<!-- Created with Inkscape (http://www.inkscape.org/) -->

<svg
   width="22.12759mm"
   height="22.180077mm"
   viewBox="0 0 22.12759 22.180077"
   version="1.1"
   id="svg1"
   xml:space="preserve"
   xmlns="http://www.w3.org/2000/svg"
   xmlns:svg="http://www.w3.org/2000/svg"><defs
     id="defs1" /><g
     id="layer1"
     transform="translate(-104.05274,-225.96392)"><path
       d="m 112.23882,247.77021 c -5.81509,-1.56376 -9.31317,-7.38311 -7.85564,-13.06851 0.24157,-0.9423 0.72802,-2.20606 1.08099,-2.80837 0.91153,-1.55541 2.85047,-3.38259 4.51338,-4.25324 1.29859,-0.6799 1.46206,-0.709 1.84294,-0.32812 0.38088,0.38088 0.26573,0.49289 -1.29825,1.26283 -2.12449,1.04589 -3.89294,2.94167 -4.67226,5.00869 -0.4639,1.23039 -0.54935,1.92325 -0.46342,3.75751 0.0579,1.23693 0.24959,2.48709 0.42589,2.77813 0.28055,0.46316 0.29533,0.43015 0.11847,-0.26458 -0.44248,-1.73808 -0.16581,-4.26779 0.65723,-6.00931 1.13237,-2.39604 3.52642,-4.65382 5.42455,-5.11577 0.61827,-0.15047 0.7276,-0.0939 0.7276,0.37631 0,0.39638 -0.36584,0.73878 -1.28941,1.20679 -3.81329,1.93234 -5.36342,6.60154 -3.45774,10.41516 1.38876,2.77915 3.97756,4.36401 7.1284,4.36401 3.15084,0 5.73964,-1.58486 7.1284,-4.36401 1.42553,-2.85275 1.00098,-6.16123 -1.09636,-8.54395 -0.58959,-0.6698 -1.65221,-1.51185 -2.36138,-1.87121 -1.02123,-0.5175 -1.28941,-0.79004 -1.28941,-1.3104 0,-0.44778 0.14745,-0.65829 0.46302,-0.66105 0.39365,-0.003 0.40375,-0.0415 0.0674,-0.25414 -0.33934,-0.21452 -0.32053,-0.30679 0.13229,-0.64899 0.7189,-0.54325 0.86312,-0.52201 2.38601,0.35153 6.24749,3.58356 7.52722,11.70739 2.66336,16.90724 -2.72247,2.91055 -7.06262,4.12585 -10.9761,3.07345 z m 7.4198,-1.74003 c 3.0837,-1.43971 4.99232,-4.24537 5.19106,-7.63084 0.0641,-1.09141 0.0132,-2.37793 -0.11295,-2.85895 -0.18723,-0.71368 -0.23301,-0.49465 -0.24889,1.19063 -0.0282,2.99154 -0.78654,4.78843 -2.89709,6.86446 -2.40437,2.36504 -5.71524,3.43748 -8.57869,2.77877 -1.40856,-0.32403 -1.76492,-0.1811 -0.49921,0.20023 0.4889,0.14729 1.96047,0.24206 3.27016,0.21059 1.9408,-0.0466 2.65765,-0.18626 3.87561,-0.75489 z m -5.58381,-2.05293 c -0.14939,-0.27913 -0.19873,-0.87192 -0.10965,-1.31732 0.14276,-0.71381 0.0719,-0.84393 -0.59759,-1.09762 -1.00734,-0.38169 -1.89343,-1.23213 -2.4846,-2.38463 -0.44051,-0.85881 -0.56632,-0.93172 -1.4331,-0.83053 -1.04849,0.12241 -1.73665,-0.28163 -1.73665,-1.01964 0,-0.86512 0.7347,-1.32512 1.83533,-1.14912 0.91713,0.14665 1.01842,0.1015 1.17541,-0.52403 0.22155,-0.8827 1.82865,-2.4895 2.71164,-2.71111 0.61099,-0.15335 0.6693,-0.26993 0.53843,-1.07642 -0.1102,-0.67907 -0.0185,-1.03274 0.36808,-1.4193 0.28317,-0.28317 0.63392,-0.51486 0.77944,-0.51486 0.14552,0 0.49627,0.23169 0.77944,0.51486 0.38656,0.38656 0.47828,0.74023 0.36808,1.4193 -0.13087,0.80649 -0.0726,0.92307 0.53844,1.07642 0.88298,0.22161 2.49008,1.82841 2.71163,2.71111 0.15699,0.62553 0.25829,0.67068 1.17541,0.52403 1.10063,-0.176 1.83533,0.284 1.83533,1.14912 0,0.73801 -0.68816,1.14205 -1.73665,1.01964 -0.86677,-0.10119 -0.99258,-0.0283 -1.4331,0.83053 -0.59117,1.1525 -1.47726,2.00294 -2.48459,2.38463 -0.66952,0.25369 -0.74036,0.38381 -0.5976,1.09762 0.22668,1.1334 -0.21147,1.82482 -1.15639,1.82482 -0.49331,0 -0.87388,-0.18451 -1.04674,-0.5075 z m 0.1497,-4.94505 c 0.21938,-0.52505 0.34524,-1.00828 0.27968,-1.07383 -0.0656,-0.0656 -0.54878,0.0603 -1.07383,0.27968 -0.61761,0.25805 -0.95464,0.57489 -0.95464,0.89744 0,1.24365 1.21601,1.17183 1.74879,-0.10329 z m 3.49585,0.22152 c 0.0677,-0.47684 -0.11566,-0.68477 -0.88849,-1.00768 -0.53557,-0.22378 -1.0274,-0.35323 -1.09296,-0.28767 -0.0656,0.0656 0.0639,0.55738 0.28767,1.09295 0.32291,0.77284 0.53084,0.95617 1.00769,0.8885 0.38997,-0.0554 0.63075,-0.29612 0.68609,-0.6861 z m -3.12896,-2.64032 c -0.003,-0.58099 -1.11882,-1.94529 -1.52745,-1.86742 -0.78949,0.15045 -0.71155,1.18894 0.12319,1.64146 0.81361,0.44106 1.4058,0.53635 1.40426,0.22596 z m 2.41177,-0.21371 c 0.57793,-0.29886 0.77432,-0.57085 0.71447,-0.98949 -0.1325,-0.92669 -0.92757,-0.86077 -1.52969,0.12683 -0.84824,1.3913 -0.63777,1.61403 0.81522,0.86266 z m -3.46912,-7.84348 c 0,-0.59463 -0.25218,-1.10749 -0.84565,-1.7198 l -0.84565,-0.87249 h 3.2788 3.27881 l -0.84566,0.87249 c -0.59347,0.61231 -0.84565,1.12517 -0.84565,1.7198 v 0.8473 h -1.5875 -1.5875 z"
       id="path1" /></g></svg>
