<?xml version="1.0" encoding="UTF-8"?>
<svg width="192.76" height="180" version="1.1" viewBox="0 0 192.76 180" xmlns="http://www.w3.org/2000/svg">
 <g transform="translate(-1.8932 -41.708)">
  <path d="m15.009 220.08c-1.2812-0.89741-3.402-3.9349-4.7127-6.75l-2.3832-5.1184-0.00977-74.171-0.00977-74.171-3-0.65891c-1.65-0.3624-3-1.1493-3-1.7486s1.2268-4.3886 2.7262-8.4205c1.8319-4.9261 3.2522-7.3309 4.3295-7.3309 2.6562 0 25.654 6.5812 38.168 10.922 36.88 12.794 83.106 36.832 116.48 60.572 13.789 9.8076 27.507 22.087 29.948 26.806 2.9367 5.679 0.0302 20.014-8.6099 42.465-2.378 6.179-4.6275 11.235-4.999 11.235-0.37143 0-5.3714-6.4087-11.111-14.242l-10.436-14.242-0.55232 7.0774c-1.8007 23.074-24.729 37.446-46.653 29.243-7.8951-2.954-16.178-11.237-19.132-19.132-4.9092-13.121-1.9703-27.057 7.7574-36.785 7.0031-7.0031 14.075-9.92 24.052-9.92 3.7936 0 8.1141 0.46259 9.6012 1.028s2.8815 0.85022 3.0988 0.63297c0.73226-0.73227-16.099-16.884-25.172-24.156-15.959-12.791-31.686-22.63-54.094-33.844-12.331-6.1712-32.267-14.661-34.427-14.661-0.63017 0-0.9799 24.045-0.9799 67.37v67.37l4.5 1.2599c3.6189 1.0132 5.3811 1.0132 9 0l4.5-1.2599v-33.74h3.941c2.1675 0 4.1784 0.38419 4.4686 0.85376 1.2123 1.9615 5.5904 30.784 5.5904 36.803 0 7.7957-1.6347 10.617-8.8262 15.232-4.7033 3.0181-5.1922 3.1115-16.289 3.1115-8.9606 0-11.945-0.35362-13.769-1.6316zm116.98-34.918c3.8522-1.9921 7.6889-6.9389 8.9159-11.496 3.0685-11.395-8.6126-23.681-20.036-21.072-4.8873 1.1161-7.34 2.5723-10.342 6.1404-12.035 14.303 4.8059 35.041 21.462 26.427z"/>
 </g>
</svg>
