<?xml version="1.0" encoding="UTF-8" standalone="no"?>
<!-- Created with Inkscape (http://www.inkscape.org/) -->

<svg
   version="1.1"
   id="svg1"
   width="78.65789"
   height="94.538864"
   viewBox="0 0 78.65789 94.538864"
   xmlns="http://www.w3.org/2000/svg"
   xmlns:svg="http://www.w3.org/2000/svg">
  <defs
     id="defs1" />
  <g
     id="g1"
     transform="translate(-1350.1613,-353.29055)">
    <path
       d="m 1396.4847,446.29764 c -1.6708,-1.02672 -6.0132,-5.1268 -9.6498,-9.11129 l -6.6119,-7.24452 -1.6282,5.60078 c -1.5091,5.19112 -1.8471,5.60078 -4.6217,5.60078 -2.232,0 -3.2867,-0.6435 -4.1461,-2.52963 -1.0436,-2.29055 -0.7878,-2.90313 2.7065,-6.48164 2.1225,-2.17361 3.6633,-4.1107 3.424,-4.30464 -0.2392,-0.19394 -4.485,-1.16765 -9.435,-2.16382 -9.5692,-1.92574 -13.3086,-3.37985 -15.5085,-6.03055 -1.1543,-1.39079 -1.1431,-1.78121 0.073,-2.55062 2.5074,-1.58663 5.2094,-1.00886 14.3872,3.07638 8.7048,3.87473 11.861,4.97938 8.2985,2.90442 -0.9625,-0.5606 -1.75,-1.64956 -1.75,-2.4199 0,-0.77034 -0.7421,-1.81593 -1.6492,-2.32353 -1.3558,-0.75877 -1.0191,-1.13083 1.893,-2.09193 3.3351,-1.10066 3.9139,-0.93319 9.8992,2.86372 3.4964,2.21801 6.9306,4.03701 7.6318,4.04224 1.3003,0.01 3.2252,3.95462 3.2252,6.60978 0,1.16021 -0.4216,1.24447 -2,0.39972 -1.4574,-0.77997 -2,-0.76049 -2,0.0718 0,0.62819 -0.675,0.88315 -1.5,0.56656 -2.7881,-1.06988 -1.5242,0.16874 4.75,4.65524 7.23,5.16996 9.4356,7.43344 9.9097,10.17014 0.4635,2.67503 -1.9852,2.97179 -5.6975,0.6905 z m 0.079,-17.94621 c -1.3868,-1.38682 -0.3119,-3.20804 1.8935,-3.20804 3.6107,0 7.1332,-1.57864 12.2638,-5.49613 2.5239,-1.92713 5.1863,-3.50387 5.9165,-3.50387 1.3278,0 3.5893,6.26967 2.4381,6.7594 -2.8451,1.21039 -22.0918,5.86873 -22.5119,5.44864 z m -10.0487,-9.50431 c -6.1286,-2.92132 -11.1673,-8.45241 -12.0665,-13.24569 -1.8341,-9.77622 2.3107,-17.5159 12.7983,-23.8989 12.5241,-7.62246 22.3524,-19.42478 21.1562,-25.40559 -0.8857,-4.42831 0.6662,-4.14951 11.5427,2.07367 9.2163,5.2733 11.1428,7.90404 6.2942,8.59524 -1.6214,0.23114 -3.1084,1.99914 -5.2507,6.24309 -4.0744,8.07126 -5.9627,15.92086 -5.9889,24.89455 -0.026,8.87212 -1.9544,13.84687 -7.363,18.99296 -3.2112,3.05534 -4.3483,3.49248 -9.8721,3.79527 -4.9935,0.27372 -7.245,-0.13548 -11.2502,-2.0446 z m 15.4378,-2.16781 c 6.912,-3.57433 9.9884,-10.31185 9.9608,-21.81502 -0.01,-3.7285 0.7135,-9.28937 1.6054,-12.35748 0.8919,-3.06812 1.4825,-5.71733 1.3125,-5.88716 -0.1701,-0.16982 -2.3086,-1.44429 -4.7522,-2.83217 l -4.443,-2.5234 -4.7417,4.81708 c -2.608,2.64939 -7.7091,6.47653 -11.3359,8.50475 -9.5495,5.34041 -14.3339,13.71783 -11.7405,20.55748 0.8231,2.17084 1.1433,1.9169 0.8404,-1.84493 -0.21,-2.60892 0.3233,-4.69936 3.3781,-7.21279 1.9171,-1.57733 4.4896,-3.75995 5.7166,-4.85014 0.9938,-0.88296 2.2167,-1.95286 2.2332,-2.18193 0.075,-0.93979 0.4899,1.07891 0.8852,1.78512 1.1783,2.10533 2.5212,1.13281 4.7351,-3.4292 l 1.8277,-3.76613 0.5439,2.86035 c 0.5224,2.74706 0.6084,2.78667 2.1733,1 0.8962,-1.02319 2.342,-3.26832 3.213,-4.98917 0.871,-1.72085 2.2857,-3.39822 3.1438,-3.72749 1.3127,-0.50374 1.3787,-0.25981 0.4165,1.53809 -0.6688,1.24973 -0.9086,4.12061 -0.5776,6.91557 0.4503,3.80172 0.082,5.73378 -1.7986,9.44954 l -2.4249,4.1718 2.9481,-0.0786 c 3.0059,-0.0801 2.9495,-1.45499 2.2766,2.64118 -1.1663,7.10022 -2.9111,10.20267 -6.2242,12.43219 -3.8448,2.58733 -3.4131,3.01589 0.8284,0.82248 z m -0.4309,-8.89502 c 1.58,-2.41138 1.1347,-5.6409 -0.7778,-5.6409 -1.7218,0 -4.3115,2.04804 -4.7218,4.98832 -0.5114,3.66484 3.25,4.08598 5.4996,0.65258 z m -11.6994,-5.8409 c 1.6405,-1.6405 1.5138,-5.46559 -0.2028,-6.12433 -2.6615,-1.02129 -5.5291,3.53116 -4.7157,6.07433 0.4871,1.52285 3.3443,1.62417 4.9185,0.05 z"
       id="path1" />
  </g>
</svg>
