<?xml version="1.0" encoding="UTF-8" standalone="no"?>
<!-- Created with Inkscape (http://www.inkscape.org/) -->

<svg
   version="1.1"
   id="svg1"
   width="39.956619"
   height="43.374477"
   viewBox="0 0 39.956619 43.374477"
   xmlns="http://www.w3.org/2000/svg"
   xmlns:svg="http://www.w3.org/2000/svg">
  <defs
     id="defs1" />
  <g
     id="g1"
     transform="translate(-897.29736,-631.06978)">
    <path
       d="m 915.96317,673.924 c -0.37813,-0.37813 -0.6875,-1.96632 -0.6875,-3.52931 0,-2.57951 -0.1823,-2.72796 -1.97504,-1.60838 -1.43878,0.89854 -2.27431,0.93417 -3.07724,0.13124 -0.80293,-0.80293 -0.26666,-2.05381 1.97504,-4.60697 2.66787,-3.03853 4.19351,-7.74075 2.5115,-7.74075 -2.1228,0 -4.54349,2.63252 -5.56943,6.05682 -0.83689,2.79327 -1.68883,3.92279 -2.78525,3.69269 -0.96655,-0.20284 -1.48565,-1.19717 -1.33755,-2.56206 0.23526,-2.16818 0.15753,-2.18687 -2.77937,-0.66814 -5.25731,2.71866 -6.96876,-0.32873 -1.91176,-3.40407 2.80009,-1.70284 2.88229,-1.89945 1,-2.39168 -1.128,-0.29498 -2.0509,-1.25345 -2.0509,-2.12994 0,-1.67924 1.82497,-1.88193 6,-0.66641 2.42538,0.70613 7,-0.55334 7,-1.92721 0,-1.37388 -4.57462,-2.63335 -7,-1.92722 -4.12787,1.2018 -6,1.01302 -6,-0.60501 0,-0.84272 0.90577,-1.86729 2.01282,-2.27681 1.87197,-0.69249 1.80199,-0.86914 -1,-2.52431 -5.01971,-2.96522 -3.24161,-5.87056 1.94984,-3.18596 2.9369,1.51873 3.01463,1.50004 2.77937,-0.66814 -0.1481,-1.3649 0.371,-2.35923 1.33755,-2.56207 1.09642,-0.23009 1.94836,0.89942 2.78525,3.6927 1.02594,3.4243 3.44663,6.05682 5.56943,6.05682 1.68201,0 0.15637,-4.70222 -2.5115,-7.74075 -2.2417,-2.55316 -2.77797,-3.80405 -1.97504,-4.60697 0.80293,-0.80293 1.82442,-1.0392 3.0161,0.093 1.99557,1.89596 2.27329,2.18532 2.22504,-2.02504 -0.0237,-2.06698 0.85275,-3.22029 1.81114,-3.22029 0.95839,0 1.74769,1.15415 1.81114,3.22029 0.11586,3.77275 0.39356,3.8116 2.22504,2.02504 1.17668,-1.14782 2.21317,-0.89598 3.0161,-0.093 0.80292,0.80292 0.26666,2.05381 -1.97504,4.60697 -2.66787,3.03853 -4.19351,7.74075 -2.5115,7.74075 2.15758,0 4.53073,-2.64457 5.45571,-6.07966 0.80298,-2.98203 1.53489,-3.95267 2.78396,-3.69201 1.07967,0.22532 1.60676,1.16306 1.45256,2.58422 -0.23526,2.16818 -0.15753,2.18687 2.77937,0.66814 5.25731,-2.71866 6.96876,0.32872 1.91176,3.40407 -2.80009,1.70284 -2.8823,1.89945 -1,2.39168 1.128,0.29498 2.0509,1.25345 2.0509,2.12994 0,1.67924 -1.82497,1.88193 -6,0.6664 -2.42538,-0.70613 -7,0.55334 -7,1.92722 0,1.37387 4.57462,2.63334 7,1.92721 4.17503,-1.21552 6,-1.01283 6,0.66641 0,0.87649 -0.9229,1.83496 -2.0509,2.12994 -1.8823,0.49223 -1.80009,0.68884 1,2.39168 5.057,3.07534 3.34555,6.12273 -1.91176,3.40407 -2.9369,-1.51873 -3.01463,-1.50004 -2.77937,0.66814 0.1542,1.42116 -0.37289,2.3589 -1.45256,2.58421 -1.24907,0.26067 -1.98098,-0.70997 -2.78396,-3.692 -0.92498,-3.43509 -3.29813,-6.07966 -5.45571,-6.07966 -1.68201,0 -0.15637,4.70222 2.5115,7.74075 2.2417,2.55316 2.77796,3.80404 1.97504,4.60697 -0.80293,0.80293 -1.62186,0.77766 -3.0161,-0.093 -1.71831,-1.07311 -1.94569,-0.87404 -2.22504,1.94803 -0.30395,3.07063 -1.74778,4.52732 -3.12364,3.15147 z"
       id="path1" />
  </g>
</svg>
