<?xml version="1.0" encoding="UTF-8"?>
<svg width="110.93" height="110.48" version="1.1" viewBox="0 0 110.93 110.48" xmlns="http://www.w3.org/2000/svg">
 <g transform="translate(-763.74 -298.47)">
  <path d="m813.44 403.7-5.1848-5.25h21.876l-5.1848 5.25c-2.8516 2.8875-5.4405 5.25-5.7531 5.25s-2.9015-2.3625-5.7531-5.25zm-5.2226-10.289c-20.022-5.6164-32.791-25.683-29.302-46.048 4.2529-24.828 28.581-39.814 52.593-32.398 11.62 3.589 22.41 13.917 26.351 25.223 2.3866 6.8461 2.368 21.343-0.0355 27.762-4.0147 10.721-13.33 20.167-23.85 24.187-7.0189 2.6817-18.682 3.259-25.756 1.2748zm21.764-23.703c11.8-7.8091 10.492-26.572-2.2835-32.756-6.1063-2.956-13.702-2.4612-19.324 1.2589-11.598 7.6754-10.463 26.324 1.9869 32.649 5.9182 3.0066 14.058 2.5286 19.62-1.152zm-18.797-8.2672-7.4584-7.5085 15.467-15.467 15.467 15.467-7.4584 7.5085c-4.1021 4.1297-7.7059 7.5085-8.0084 7.5085s-3.9063-3.3788-8.0084-7.5085zm12.027-4.0104 3.4106-3.5189-7.4289-7.4289-7.4289 7.4289 3.4106 3.5189c1.8758 1.9354 3.6841 3.5189 4.0183 3.5189s2.1424-1.5835 4.0183-3.5189zm-54.03 2.0072-5.4432-5.5117 10.955-10.955v10.989c0 6.044-0.0154 10.989-0.0342 10.989s-2.4836-2.4803-5.4774-5.5117zm94.512-5.4883v-10.978l10.978 10.978-10.978 10.978zm-49.989-49.989 5.4891-5.4891 10.978 10.978h-21.957z"/>
 </g>
</svg>
