<?xml version="1.0" encoding="UTF-8" standalone="no"?>
<!-- Created with Inkscape (http://www.inkscape.org/) -->

<svg
   version="1.1"
   id="svg1"
   width="221.83827"
   height="239.62003"
   viewBox="0 0 221.83827 239.62003"
   xmlns="http://www.w3.org/2000/svg"
   xmlns:svg="http://www.w3.org/2000/svg">
  <defs
     id="defs1" />
  <g
     id="g1"
     transform="translate(-857.71492,-965.7153)">
    <path
       d="m 982.46371,1204.6076 c -1.99095,-0.5662 -5.00683,-2.2361 -6.70196,-3.7109 -1.69512,-1.4748 -17.33066,-19.3314 -34.74565,-39.6814 -37.64672,-43.9915 -37.94675,-44.4703 -37.90536,-60.5 0.0257,-9.9436 0.23739,-11.0034 3.9952,-20 6.82665,-16.3437 5.01336,-25.8452 -6.32187,-33.1262 -4.60824,-2.96 -4.8787,-3.0064 -13.7883,-2.3653 -10.54999,0.759 -14.43772,-0.3733 -18.70883,-5.4493 -2.96566,-3.5244 -3.54391,-8.1167 -1.26065,-10.0116 1.12075,-0.9301 3.0732,-0.9243 8.75,0.026 6.29766,1.0543 8.08539,0.9964 12.93825,-0.4185 6.37991,-1.8601 14.78673,-7.6889 23.77566,-16.4845 7.91325,-7.7431 10.37622,-13.19403 10.63141,-23.52877 0.13411,-5.43101 0.62152,-8.12891 1.57803,-8.73469 4.55244,-2.88317 11.41746,2.45122 13.26586,10.30808 0.35133,1.49338 -0.22463,6.59012 -1.27991,11.32608 -1.97863,8.8799 -1.8089,11.2572 1.22221,17.1187 3.24307,6.2714 11.40967,11.3166 18.34687,11.3344 1.19408,0 6.14408,-0.9406 11,-2.0972 16.1111,-3.8371 30.19829,-1.8107 40.14303,5.7745 1.8833,1.4365 18.4513,20.1839 36.8179,41.6609 35.9197,42.0029 36.0916,42.2586 35.0755,52.1674 -1.2759,12.443 -9.097,26.5522 -22.5617,40.7013 -20.5143,21.5571 -44.6621,35.4604 -63.14577,36.3567 -4.125,0.2 -9.12896,-0.1 -11.11992,-0.6657 z m 73.04299,-55.1742 c 5.53,-7.3244 9.4266,-16.2349 9.5089,-21.7444 0.056,-3.7428 -0.5539,-5.3439 -3.432,-9.0113 -6.3619,-8.1065 -57.2372,-67.427 -59.3895,-69.248 -1.1608,-0.982 -4.36047,-2.9888 -7.11047,-4.4594 -4.31427,-2.3072 -6.16575,-2.6698 -13.5,-2.6442 -4.759,0.017 -11.20424,0.7689 -14.64434,1.7094 -3.37939,0.9239 -9.18048,1.6798 -12.8913,1.6798 -7.37721,0 -6.4889,0.5773 -15.32956,-9.963 -2.65696,-3.1677 -3.12514,-3.3624 -5.49209,-2.284 -4.02163,1.8324 -4.17148,5.0449 -0.74914,16.0607 4.79916,15.4474 13.49676,26.8032 24.98977,32.6272 2.78506,1.4113 9.67773,3.7324 15.31704,5.1579 5.63931,1.4256 12.06371,3.505 14.27645,4.621 5.61779,2.8331 13.70754,9.9039 20.90754,18.2739 16.736,19.4557 35.0745,40.2486 37.2684,42.2563 3.7634,3.4439 5.8449,2.8294 10.2703,-3.0319 z M 868.08363,1015.6658 c -2.8388,-1.4755 -6.02373,-6.711 -8.63615,-14.1964 -2.04794,-5.86797 -2.13886,-6.94738 -1.01001,-11.99159 2.89146,-12.92043 16.133,-23.76251 29.02138,-23.76251 4.63881,0 14.81367,4.89777 19.64936,9.45841 3.13896,2.96042 3.47542,3.80397 3.47542,8.71332 0,7.17819 -3.76488,14.75352 -10.6258,21.38027 -7.85241,7.5843 -14.25511,10.7019 -22.80703,11.1049 -3.88694,0.1832 -7.96717,-0.1347 -9.06717,-0.7064 z"
       id="path1" />
  </g>
</svg>
