<?xml version="1.0" encoding="UTF-8" standalone="no"?>
<!-- Created with Inkscape (http://www.inkscape.org/) -->

<svg
   version="1.1"
   id="svg1"
   width="250.0955"
   height="195.85857"
   viewBox="0 0 250.0955 195.85857"
   xmlns="http://www.w3.org/2000/svg"
   xmlns:svg="http://www.w3.org/2000/svg">
  <defs
     id="defs1" />
  <g
     id="g1"
     transform="translate(-1376.6412,-957.48043)">
    <path
       d="m 1442.3785,1088.279 -65.7373,-65.0599 0.2977,-5.0699 0.2978,-5.0699 57.3835,-27.79943 c 31.561,-15.28969 57.7703,-27.79944 58.243,-27.79944 0.4727,0 10.4521,8.6625 22.1765,19.25 11.7243,10.5875 32.54,29.37187 46.257,41.74307 13.717,12.3712 34.0525,30.7528 45.19,40.8479 l 20.25,18.3548 -0.035,4.6521 -0.036,4.6521 -52.6675,29.5 c -28.9671,16.225 -55.6408,31.1557 -59.2749,33.1793 l -6.6075,3.6793 z m 115.3138,19.2238 c 3.2443,-1.6377 6.1624,-3.4044 6.4848,-3.926 0.3224,-0.5217 -3.8073,-2.3614 -9.1771,-4.0883 -48.9516,-15.7424 -70.3158,-22.6364 -79.1925,-25.5546 -5.7361,-1.8856 -10.5779,-3.2798 -10.7596,-3.0981 -0.1817,0.1818 11.7114,5.8869 26.4292,12.6782 14.7177,6.7912 33.7346,15.624 42.2596,19.6283 8.525,4.0044 16.0753,7.2936 16.7785,7.3094 0.7032,0.016 3.9329,-1.3112 7.1771,-2.9489 z m 41.3591,-23.1668 c 6.7019,-3.9295 12.3497,-7.2814 12.5507,-7.4488 1.103,-0.9186 -6.1985,-5.5932 -11.3654,-7.2764 -3.3,-1.0751 -27.375,-9.2308 -53.5,-18.1238 -26.125,-8.8931 -67.5329,-22.9662 -92.0174,-31.2736 l -44.5174,-15.1044 -7.2326,3.3338 c -3.978,1.8335 -7.2326,3.6122 -7.2326,3.9527 0,0.3405 4.8695,5.4735 10.8213,11.4068 l 10.8213,10.7877 11.4287,3.8885 c 21.5656,7.3373 106.4336,36.1474 129.8524,44.0808 12.883,4.3644 23.6455,8.157 23.9166,8.4281 1.4344,1.4344 5.4458,-0.1852 16.4744,-6.6514 z m -28.8147,-45.335 c -9.2449,-8.5515 -1.0455,-5.2678 -79.7322,-31.9311 l -48.7322,-16.513 -6.2678,2.84911 c -4.0713,1.85063 -5.7422,3.05784 -4.7678,3.44473 0.825,0.3276 23.55,8.05956 50.5,17.18216 26.95,9.1226 59.35,20.1247 72,24.4491 12.65,4.3245 23.45,7.8754 24,7.8909 0.55,0.015 -2.6,-3.3019 -7,-7.3719 z"
       id="path1" />
  </g>
</svg>
