<?xml version="1.0" encoding="UTF-8" standalone="no"?>
<!-- Created with Inkscape (http://www.inkscape.org/) -->

<svg
   version="1.1"
   id="svg1"
   width="248.74019"
   height="181.70694"
   viewBox="0 0 248.74019 181.70694"
   xmlns="http://www.w3.org/2000/svg"
   xmlns:svg="http://www.w3.org/2000/svg">
  <defs
     id="defs1" />
  <g
     id="g1"
     transform="translate(-1237.7423,-496.57651)">
    <path
       d="m 1425.694,674.94381 c -4.125,-1.82233 -10.6982,-4.93381 -14.6072,-6.9144 -17.5989,-8.91708 -29.482,-9.8752 -46.8928,-3.78089 -11.6462,4.07652 -24.844,8.05041 -25.282,7.61244 -0.3593,-0.35935 33.5606,-69.79814 54.2471,-111.05135 l 12.0349,-24 5.0219,-2.69143 c 5.7105,-3.06047 14.7557,-4.79505 24.9781,-4.79001 11.4226,0.006 14.1291,0.852 24.2827,7.59354 9.2594,6.14777 11.0795,6.83676 23.3615,8.84344 l 3.6443,0.59541 -1.8152,4.72452 c -0.9983,2.59849 -12.0217,30.37453 -24.4965,61.72453 -12.4747,31.35 -23.4073,58.9125 -24.2947,61.25 -0.8874,2.3375 -1.8539,4.23819 -2.1478,4.22376 -0.2939,-0.0144 -3.9093,-1.51723 -8.0343,-3.33956 z m -141.098,-2.60283 c -28.0659,-0.43105 -34.9254,-0.80328 -36.3316,-1.97154 -2.3978,-1.99192 -7.0554,-11.48058 -9.1177,-18.57471 -2.3816,-8.19234 -1.6088,-24.92153 1.3723,-29.70572 1.1238,-1.80367 6.4911,-11.8294 11.9273,-22.2794 5.4361,-10.45 19.4444,-36.18601 31.1294,-57.19113 22.4411,-40.34031 25.4099,-44.52254 32.5556,-45.86309 1.9562,-0.36698 6.5955,-0.15096 10.3097,0.48004 3.7141,0.631 16.428,1.56137 28.253,2.06748 28.1016,1.20275 29.3279,1.4013 33.3211,5.3945 4.3502,4.35018 5.6789,9.36305 5.6789,21.42526 v 10.08102 l -23.8786,48.80296 c -36.7037,75.01506 -42.0898,85.7051 -43.861,87.05296 -0.9035,0.6875 -2.7942,1.15162 -4.2015,1.03137 -1.4074,-0.12025 -18.128,-0.45775 -37.1569,-0.75 z m 22.1772,-9.62679 c 1.1041,-1.33035 1.0752,-2.03645 -0.1737,-4.25 l -1.4978,-2.65458 -16.4539,-0.12006 c -9.0496,-0.066 -17.4342,-0.17853 -18.6324,-0.25 -4.8453,-0.289 -7.0702,-6.54004 -3.6664,-10.3012 1.5236,-1.68358 3.766,-1.82991 28.25,-1.84348 30.0402,-0.0166 31.4043,-0.27604 31.8938,-6.06473 0.1644,-1.94341 -0.162,-4.74556 -0.7252,-6.227 l -1.0241,-2.69353 h -36.968 -36.9681 l -1.5567,2.22251 c -2.3928,3.4162 -2.1036,17.24079 0.5066,24.21721 3.5988,9.61852 3.4072,9.56028 31.4491,9.56028 20.9735,0 24.4213,-0.21515 25.5668,-1.59542 z"
       id="path1" />
  </g>
</svg>
