<?xml version="1.0" encoding="UTF-8" standalone="no"?>
<!-- Created with Inkscape (http://www.inkscape.org/) -->

<svg
   version="1.1"
   id="svg1"
   width="249.76576"
   height="178.84169"
   viewBox="0 0 249.76576 178.84169"
   xmlns="http://www.w3.org/2000/svg"
   xmlns:svg="http://www.w3.org/2000/svg">
  <defs
     id="defs1" />
  <g
     id="g1"
     transform="translate(-1233.9295,-1206.4148)">
    <path
       d="m 1284.1744,1377.3882 c -22.275,-4.2687 -42.1223,-8.0538 -44.105,-8.4113 l -3.6051,-0.6501 -0.6586,-19.2319 c -0.3622,-10.5776 -0.9325,-23.7503 -1.2674,-29.2728 l -0.6088,-10.041 45.8724,7.6027 45.8725,7.6027 0.2647,30.1882 c 0.1455,16.6036 -0.08,30.1403 -0.5,30.0816 -0.4206,-0.059 -18.9897,-3.5994 -41.2647,-7.8681 z m 53,-20.5388 v -25.6316 l 2.2705,1.8226 c 7.3128,5.8701 29.7295,24.6383 29.7295,24.8908 0,0.3398 -28.8156,22.6443 -30.75,23.8018 -0.9869,0.5906 -1.25,-4.646 -1.25,-24.8836 z m 75.5076,12.2636 c 0.3001,-1.2375 2.7188,-11.6651 5.3749,-23.1725 l 4.8291,-20.9225 30.2648,-13.8736 c 16.6456,-7.6305 30.378,-13.7403 30.5163,-13.5775 0.6255,0.7361 -9.3608,38.9441 -10.591,40.5222 -0.7606,0.9756 -4.4292,5.1954 -8.1524,9.3773 l -6.7695,7.6034 -22.2399,8.1534 c -12.2319,4.4843 -22.586,8.1503 -23.009,8.1466 -0.4229,0 -0.5234,-1.0193 -0.2233,-2.2568 z m -65.5878,-44.341 c -29.3809,-24.5215 -54.2159,-45.3537 -55.1888,-46.2936 -1.6905,-1.6331 -1.6108,-2.7061 1.7934,-24.1622 1.9594,-12.3493 3.8823,-23.2553 4.2732,-24.2357 0.5936,-1.4891 3.7552,0.7436 19.2065,13.5637 19.5135,16.1906 94.3716,77.9779 94.6717,78.1413 0.3641,0.1983 -10.2485,46.4835 -10.78,47.015 -0.3059,0.3059 -24.5951,-19.5069 -53.976,-44.0285 z m 67.0802,-15.0946 c -3.025,-2.5167 -19.3292,-16.0215 -36.2314,-30.0106 -16.9023,-13.9891 -30.9593,-25.8034 -31.2378,-26.254 -0.2785,-0.4506 1.3665,-3.1715 3.6556,-6.0465 l 4.162,-5.2272 -2.028,-7.7015 -2.0279,-7.7014 2.8128,-3.9366 c 3.0066,-4.2078 3.7058,-7.4366 1.6105,-7.4366 -0.7062,0 -3.6636,2.4094 -6.5718,5.3542 l -5.2876,5.3541 1.0227,5.3959 c 0.9856,5.2004 0.9248,5.4798 -1.6782,7.7148 -7.1151,6.1092 -5.3725,6.6883 -22.5834,-7.505 -12.1347,-10.0072 -15.1637,-12.9705 -13.8279,-13.5283 0.9407,-0.3929 14.8836,-3.1937 30.9841,-6.2241 l 29.2737,-5.5098 55.7263,40.0603 c 30.6495,22.0332 55.8239,40.359 55.9432,40.7241 0.165,0.505 -54.2565,25.9067 -57.5435,26.8589 -0.3704,0.1073 -3.1484,-1.8641 -6.1734,-4.3807 z m -136.25,-3.6281 c -19.6625,-3.3474 -35.4125,-6.399 -35,-6.7813 0.4125,-0.3823 8.7133,-4.1764 18.4463,-8.4314 l 17.6963,-7.7364 9.3037,7.357 c 16.1197,12.7468 28.0673,22.9356 25.5537,21.7921 -0.1375,-0.063 -16.3375,-2.8526 -36,-6.2 z"
       id="path1" />
  </g>
</svg>
