<?xml version="1.0" encoding="UTF-8" standalone="no"?>
<!-- Created with Inkscape (http://www.inkscape.org/) -->

<svg
   version="1.1"
   id="svg1"
   width="245.05063"
   height="247.77669"
   viewBox="0 0 245.05063 247.77669"
   xmlns="http://www.w3.org/2000/svg"
   xmlns:svg="http://www.w3.org/2000/svg">
  <defs
     id="defs1" />
  <g
     id="g1"
     transform="translate(-567.20379,-1170.0698)">
    <path
       d="m 699.05542,1416.7311 c -10.966,-2.5744 -22.1323,-11.8712 -28.414,-23.6569 l -3.2587,-6.114 -5.0128,3.1161 c -4.2899,2.6668 -6.0047,3.127 -11.8919,3.1916 -5.4321,0.06 -7.4746,-0.3561 -9.7097,-1.9765 -3.758,-2.7243 -7.3532,-10.0956 -7.6174,-15.6182 l -0.2132,-4.4578 -7.5712,0.4321 c -5.6846,0.3245 -8.3509,0.029 -10.7004,-1.186 -1.721,-0.8899 -4.1957,-1.6181 -5.4992,-1.6181 -1.3036,0 -11.0187,3.6316 -21.589,8.0702 -10.5704,4.4386 -19.7266,7.901 -20.3471,7.6942 -0.8037,-0.2679 16.5457,-15.4177 21.0271,-18.3611 0.1761,-0.1157 -1.6785,-2.209 -4.1213,-4.6518 -5.3929,-5.3929 -7.0483,-9.993 -6.5137,-18.1004 0.5274,-7.9967 4.3187,-16.1739 10.6192,-22.9037 l 4.9126,-5.2474 -0.4759,-6.2118 c -0.4123,-5.3814 -0.1296,-6.8027 2.115,-10.6328 1.425,-2.4316 3.2353,-4.6683 4.0228,-4.9706 1.2276,-0.471 1.2377,-1.0942 0.07,-4.3671 -1.8429,-5.1674 -1.794,-18.574 0.094,-25.8231 5.068,-19.4574 19.0277,-32.6822 34.7381,-32.9095 l 5.8815,-0.085 4.8901,13.3883 c 2.6896,7.3636 5.1906,13.6636 5.5578,14 1.1016,1.0094 -0.3759,-18.4207 -4.092,-53.8097 -1.9301,-18.3818 -3.3378,-33.593 -3.1282,-33.8026 0.487,-0.4871 2.1112,2.24 14.6302,24.5641 5.6567,10.087 10.7786,18.481 11.382,18.6532 0.6034,0.1723 3.3299,1.0015 6.0588,1.8426 l 4.9618,1.5294 3.4826,-4.0687 c 5.2422,-6.1243 11.8046,-8.7749 21.7548,-8.7868 13.8958,-0.017 24.9604,4.81 32.7119,14.2696 3.9621,4.8352 9.3162,15.566 10.2535,20.5504 0.3444,1.8314 1.1319,3.5128 1.75,3.7365 0.618,0.2236 13.4987,-4.9424 28.6237,-11.4799 15.6069,-6.7459 27.892,-11.5161 28.4065,-11.0299 0.5254,0.4964 -1.3492,2.8717 -4.4592,5.65 -2.9512,2.6364 -11.4592,10.3372 -18.9066,17.1129 -7.4474,6.7756 -20.3771,18.0256 -28.7326,25 -8.3556,6.9743 -15.2181,12.9969 -15.25,13.3835 -0.032,0.3865 9.2783,-4.676 20.6895,-11.25 14.1974,-8.1792 21.7182,-11.9529 23.8219,-11.9529 6.2237,0 12.7294,3.1509 18.5866,9.002 4.6715,4.6667 6.0206,6.8303 7.75,12.4294 5.9444,19.2458 -2.4948,44.6792 -18.1611,54.7322 -2.7004,1.7329 -7.8635,3.9697 -11.4735,4.9707 -3.6099,1.001 -7.3868,2.5651 -8.393,3.4757 -1.0063,0.9106 -4.0726,2.3869 -6.8141,3.2806 l -4.9846,1.625 12.4445,9.9922 c 10.8687,8.7269 14.4077,12.4967 11.7257,12.4904 -0.4125,-9e-4 -9.525,-3.332 -20.25,-7.4023 -10.725,-4.0702 -19.6422,-7.2647 -19.8161,-7.0988 -0.1739,0.166 5.7886,11.8686 13.25,26.0059 12.7251,24.1107 14.6952,28.497 12.799,28.497 -0.4218,0 -5.6699,-4.9182 -11.6624,-10.9293 l -10.8955,-10.9293 -2.1815,6.4825 c -5.6053,16.6562 -27.1581,26.8927 -46.8758,22.2638 z m -6.5169,-51.0407 c 3.7914,-1.2859 8.8992,-4.5781 8.8992,-5.7358 0,-0.414 -3.7125,-0.5809 -8.25,-0.3709 -11.1592,0.5165 -14.0332,-1.1922 -16.4151,-9.7594 -1.3374,-4.8104 -2.0098,-5.9214 -3.2599,-5.386 -5.7814,2.476 -10.2684,3.5854 -14.947,3.6955 -4.4991,0.1059 -5.6772,-0.2504 -7.25,-2.1928 -2.3842,-2.9443 -2.3982,-8.1175 -0.035,-13.0084 l 1.8428,-3.8141 -9.0928,-0.5439 c -14.5771,-0.872 -21.1741,-4.7488 -23.6354,-13.8893 -2.8998,-10.7693 3.5852,-20.8006 16.6871,-25.8124 4.3454,-1.6623 4.8322,-2.1554 4.6333,-4.6935 -0.8243,-10.5192 -0.8334,-10.4614 2.0423,-12.9349 2.083,-1.7917 3.9737,-2.4011 7.4499,-2.4011 4.2839,0 4.529,-0.1296 3.0474,-1.6112 -2.4677,-2.4676 -9.6764,-2.8297 -13.8035,-0.6934 -4.4959,2.3273 -6.2301,5.7088 -5.5942,10.9081 0.5,4.0883 0.4864,4.108 -3.7089,5.3394 -10.1045,2.9658 -18.4246,10.987 -21.2439,20.4807 -1.9566,6.5884 -1.8523,9.4713 0.5776,15.9657 3.6894,9.8609 13.0802,16.5695 25.5954,18.2849 4.0983,0.5618 4.3601,0.7869 4.3601,3.7498 0,1.7337 1.0125,5.1601 2.25,7.6141 3.7843,7.5045 11.5363,9.7505 22.3411,6.4727 2.6999,-0.819 4.9713,-1.494 5.0476,-1.5 0.076,-0.01 0.4277,1.5298 0.781,3.4128 0.4014,2.1398 1.9562,4.5773 4.1461,6.5 2.9726,2.61 4.3098,3.0764 8.8198,3.0764 2.9238,0 6.8456,-0.5188 8.7152,-1.153 z m 52.5194,-16.362 c 10.8564,-5.3115 15.9214,-14.9443 15.1896,-28.8877 -0.35,-6.668 -0.9545,-9.1685 -3.1026,-12.834 -4.8476,-8.2717 -13.152,-13.4377 -23.2823,-14.4832 -6.968,-0.7192 -6.9763,0.7088 -0.021,3.5918 5.9417,2.4626 11.6877,7.4711 14.2452,12.4167 0.9088,1.7575 1.8643,6.1578 2.1234,9.7784 1.2282,17.1665 -8.5498,29.1306 -25.8135,31.5846 -5.3834,0.7652 -5.4106,0.786 -1.9592,1.4925 6.5781,1.3465 16.9172,0.1311 22.6202,-2.6591 z"
       id="path1" />
  </g>
</svg>
