<?xml version="1.0" encoding="UTF-8" standalone="no"?>
<!-- Created with Inkscape (http://www.inkscape.org/) -->

<svg
   version="1.1"
   id="svg1"
   width="179.73534"
   height="219.11589"
   viewBox="0 0 179.73534 219.11589"
   xmlns="http://www.w3.org/2000/svg"
   xmlns:svg="http://www.w3.org/2000/svg">
  <defs
     id="defs1" />
  <g
     id="g1"
     transform="translate(-1180.5967,-663.26676)">
    <path
       d="m 1250.9662,881.68103 c -15.3315,-1.85304 -29.0097,-6.64703 -31.8952,-11.17877 -0.7834,-1.23043 -3.0151,-9.43714 -4.9594,-18.23714 -1.9442,-8.8 -6.751,-30.625 -10.6817,-48.5 -3.9307,-17.875 -10.5354,-47.575 -14.6772,-66 -4.1418,-18.425 -7.7461,-34.93042 -8.0096,-36.6787 -2.1992,-14.59213 20.5623,-29.11479 55.7028,-35.54034 16.6204,-3.03909 51.4202,-3.03909 68.0406,0 35.143,6.42601 57.9278,20.96558 55.6949,35.54034 -0.2679,1.74828 -5.7353,27.2537 -12.1498,56.6787 -6.4145,29.425 -14.3833,66.325 -17.7083,82 -3.3251,15.675 -6.7163,29.55485 -7.536,30.84411 -2.0786,3.26898 -10.6974,6.969 -21.5898,9.26837 -10.9291,2.30712 -38.0174,3.27966 -50.2313,1.80343 z m 44.5,-17.89525 c 9.3613,-1.98085 14.8836,-4.07296 15.4032,-5.83548 0.2733,-0.92685 4.3809,-19.68518 9.128,-41.68518 12.1692,-56.39725 12.1909,-56.5 11.9257,-56.5 -0.1315,0 -4.426,2.47414 -9.5434,5.49809 -25.0823,14.82156 -48.7374,18.96546 -68.1911,11.94569 -14.6176,-5.27471 -16.292,-5.65622 -25.2224,-5.74701 -10.3546,-0.10527 -16.8502,1.56824 -16.083,4.14356 0.2719,0.91282 4.3676,19.20967 9.1015,40.65967 4.7338,21.45 8.8471,39.99072 9.1405,41.20161 0.7255,2.99399 8.4812,5.40105 24.841,7.70965 5.5532,0.78363 33.9492,-0.21605 39.5,-1.3906 z m 5.6988,-146.56274 c 26.5806,-3.47333 44.3012,-10.71745 44.3012,-18.11021 0,-8.83897 -21.9245,-18.90488 -49.7956,-22.86205 -16.2014,-2.3003 -44.8609,-1.61274 -59.6437,1.43088 -18.7377,3.85789 -32.0281,9.43491 -37.5959,15.77635 -4.0907,4.65906 -3.8333,7.40785 1.0882,11.62047 6.6065,5.65489 22.0329,9.97717 46.447,13.01383 8.8395,1.09947 44.4205,0.53914 55.1988,-0.86927 z"
       id="path1" />
  </g>
</svg>
