<?xml version="1.0" encoding="UTF-8" standalone="no"?>
<!-- Created with Inkscape (http://www.inkscape.org/) -->

<svg
   version="1.1"
   id="svg1"
   width="242.8584"
   height="226.33369"
   viewBox="0 0 242.8584 226.33369"
   xmlns="http://www.w3.org/2000/svg"
   xmlns:svg="http://www.w3.org/2000/svg">
  <defs
     id="defs1" />
  <g
     id="g1"
     transform="translate(-1105.7482,-308.68078)">
    <path
       d="m 1291.7652,534.47679 c -9.957,-2.08487 -16.0954,-6.86083 -19.6008,-15.25028 -1.7823,-4.26562 -1.9837,-12.55744 -0.44,-18.11692 1.8874,-6.79777 0.6659,-9.32803 -10.5023,-21.75453 -26.637,-29.63831 -54.3989,-53.58631 -89.0886,-76.84972 -15.0902,-10.1197 -15.4759,-10.26919 -28.6844,-11.11691 -16.4559,-1.05614 -23.1402,-3.11957 -28.9608,-8.94016 -6.2019,-6.20187 -8.0625,-10.12007 -8.6402,-18.19536 -0.5891,-8.23298 1.4023,-14.21798 6.6712,-20.05004 6.3434,-7.02142 16.4225,-11.70465 25.1904,-11.70465 5.1316,0 15.6429,3.41374 20.2926,6.59041 4.11,2.80795 5.4391,2.32345 5.7344,-2.09041 0.3921,-5.86199 -2.4934,-8.9963 -9.7843,-10.62793 -2.9756,-0.66592 -5.6044,-1.525 -5.8418,-1.90907 -0.7675,-1.24196 9.0973,-10.70522 13.502,-12.95233 2.3519,-1.19983 6.6766,-2.42926 9.6104,-2.73207 9.4198,-0.9722 19.0923,5.49605 25.005,16.7214 2.0165,3.82841 2.4209,14.80262 0.9949,27 l -0.7598,6.5 14.2227,16.37655 c 37.8412,43.57176 53.9222,58.25123 88.7579,81.02233 l 8.2593,5.39888 12.781,1.26074 c 17.2979,1.70628 23.5302,4.53621 26.7784,12.15938 1.8137,4.25658 1.7856,18.35442 -0.045,22.73646 -2.6904,6.43909 -8.9726,8.08814 -13.1649,3.45572 -2.0722,-2.28975 -7.645,-2.54707 -9.3988,-0.43398 -0.8084,0.97415 -1.011,3.09944 -0.5956,6.25 1.7137,12.99701 1.7012,13.70825 -0.2969,16.90809 -2.3688,3.79356 -7.437,7.69134 -11.9755,9.20994 -4.8441,1.62086 -14.9595,2.19406 -20.0201,1.13446 z m -3.6574,-55.92891 c 0.8391,-1.62269 1.5257,-3.57336 1.5257,-4.33482 0,-1.63845 -13.3857,-13.27478 -22.8367,-19.85217 -3.6648,-2.55053 -11.1633,-6.98427 -16.6633,-9.85275 l -10,-5.21542 4.0355,3.85275 c 2.2195,2.11901 9.8695,9.10406 17,15.52232 7.1305,6.41827 15.4241,14.18077 18.4303,17.25 3.0063,3.06924 5.8072,5.58043 6.2244,5.58043 0.4171,0 1.445,-1.32765 2.2841,-2.95034 z"
       id="path1" />
  </g>
</svg>
