<?xml version="1.0" encoding="UTF-8" standalone="no"?>
<!-- Created with Inkscape (http://www.inkscape.org/) -->

<svg
   version="1.1"
   id="svg1"
   width="255.81335"
   height="242.15337"
   viewBox="0 0 255.81335 242.15337"
   xmlns="http://www.w3.org/2000/svg"
   xmlns:svg="http://www.w3.org/2000/svg">
  <defs
     id="defs1" />
  <g
     id="g1"
     transform="translate(-971.74534,-1444.0238)">
    <path
       d="m 1209.9169,1679.1484 c -14.7287,-12.3205 -24.3386,-23.4997 -27.7816,-32.3184 -0.8351,-2.1388 -2.4311,-8.1411 -3.5467,-13.3386 -1.1157,-5.1974 -3.3056,-12.1724 -4.8665,-15.5 -3.1051,-6.6194 -13.426,-20.035 -18.4751,-24.0148 -1.7536,-1.3822 -2.6168,-2.5181 -1.9184,-2.5242 2.3521,-0.021 12.8494,4.6839 18.4603,8.2732 5.1816,3.3146 5.9778,4.3766 11.4933,15.3301 3.2593,6.4728 6.4285,11.9362 7.0426,12.141 1.4139,0.4712 4.2339,-4.8879 4.2339,-8.046 0,-3.3729 -5.0907,-13.0449 -10.9539,-20.8116 -4.2511,-5.6314 -5.9812,-7.0473 -11.7651,-9.6282 -13.3881,-5.9741 -22.9214,-7.7634 -41.281,-7.7478 -15.0054,0.013 -34.0336,1.9108 -33.9777,3.3893 0.012,0.3239 0.9022,1.7139 1.9777,3.0889 1.0756,1.375 1.9655,3.0137 1.9778,3.6416 0.026,1.3156 1.5468,1.735 12.5222,3.4521 l 8,1.2515 12.7738,12.0774 c 11.4822,10.8562 15.1089,15.528 13.3892,17.2478 -0.3175,0.3174 -4.084,-1.6669 -8.3701,-4.4096 -11.1367,-7.1265 -15.6217,-9.2224 -23.1489,-10.8178 -9.5725,-2.029 -9.481,-2.0529 -8.6718,2.2605 1.5815,8.4301 7.065,16.4979 22.7072,33.4088 9.622,10.4024 12.0689,13.6489 12.5524,16.6545 0.5009,3.1134 0.3655,3.5555 -0.8156,2.6629 -26.0829,-19.7125 -37.865,-29.3476 -46.081,-37.6837 -4.6336,-4.7012 -5.8729,-6.6947 -6.774,-10.8961 -3.1008,-14.4585 -11.687,-23.8058 -26.0612,-28.3712 -9.0613,-2.878 -24.138,-9.5421 -29.9359,-13.2321 -2.9897,-1.9027 -8.0132,-5.9179 -11.1632,-8.9226 -6.4181,-6.1218 -7.0781,-5.7547 -5.7101,3.176 1.1393,7.4371 6.508,17.1452 13.3489,24.1384 5.3491,5.4681 8.1706,7.2238 24.6719,15.3528 17.5252,8.6333 24.4372,13.0088 20.5501,13.0088 -3.6171,0 -25.2513,-6.0934 -33.3345,-9.3889 -10.9597,-4.4683 -17.7108,-8.5146 -26.4598,-15.859 -12.7279,-10.6844 -22.84864,-26.9067 -21.54134,-34.528 1.37264,-8.0022 1.73276,-23.9526 0.67014,-29.6816 -0.60774,-3.2766 -2.46595,-8.4516 -4.12934,-11.5 -5.74778,-10.5336 -9.19458,-18.5925 -13.47912,-31.5152 l -4.3011,-12.9728 1.85889,-3.6437 c 2.07954,-4.0762 6.72642,-9.9108 7.89337,-9.9108 0.41859,0 1.98855,2.8881 3.48879,6.418 6.03838,14.2078 20.14381,32.582 25.01251,32.582 2.9295,0 1.5957,-3.2863 -6.4937,-16 -4.80209,-7.5472 -12.3292,-25.015 -12.16339,-28.227 0.049,-0.9498 1.47947,-3.7477 3.17875,-6.2175 3.50001,-5.0871 7.76714,-6.9157 14.89244,-6.3818 l 4.3543,0.3263 4.752,12 c 16.2435,41.0194 33.0994,63.4599 49.5963,66.0286 2.1687,0.3377 11.0618,-0.3181 19.7624,-1.4573 18.452,-2.416 42.3187,-2.7015 53.6807,-0.6421 6.9417,1.2581 20.8652,5.1003 40.5135,11.1796 l 8.0134,2.4794 2.8295,8.2059 c 1.5561,4.5132 5.03,12.7059 7.7197,18.2059 5.1239,10.4776 6.9674,18.473 6.8016,29.5 l -0.083,5.5 -1.2208,-5.5 c -3.1507,-14.1947 -7.1357,-21.8188 -18.772,-35.9144 l -7.3022,-8.8456 -8,-1.6011 c -15.177,-3.0375 -27.4325,-3.9228 -46.4524,-3.3553 -10.2012,0.3043 -21.2476,1.1057 -24.5476,1.7808 -3.3,0.6752 -12.6546,1.2744 -20.7879,1.3316 l -14.788,0.104 0.288,2.4768 c 0.1691,1.4548 1.3195,2.9961 2.7879,3.7353 3.3994,1.7111 17.8731,1.616 38,-0.2498 18.0318,-1.6716 40.4805,-1.9685 46,-0.6085 1.925,0.4743 7.775,2.1339 13,3.6878 l 9.5,2.8255 10.0943,10.0664 c 11.0091,10.9787 13.8422,15.7135 18.8016,31.4217 2.5497,8.0758 2.6158,8.8952 1.976,24.5058 -0.6535,15.9433 -0.6203,16.3174 2.5895,29.1448 1.7883,7.1468 5.0034,17.9069 7.1447,23.9112 2.1413,6.0044 3.7171,11.0932 3.5018,11.3085 -0.2153,0.2153 -4.3777,-2.943 -9.2497,-7.0184 z m 16.1418,-87.7071 c -0.3399,-0.55 -0.1415,-1 0.441,-1 0.5825,0 1.059,0.45 1.059,1 0,0.55 -0.1984,1 -0.441,1 -0.2425,0 -0.7191,-0.45 -1.059,-1 z m -158.1673,-76.0654 c -8.4901,-4.2005 -16.9382,-13.5661 -25.5871,-28.3657 -4.0705,-6.9654 -18.7456,-38.5949 -18.7456,-40.4029 0,-0.5107 1.9586,-1.4217 4.3523,-2.0245 3.6021,-0.907 5.5489,-0.7643 11.294,0.8277 12.4661,3.4545 12.3537,3.3768 12.3537,8.5482 0,11.4692 7.0811,35.1414 15.5894,52.1155 2.9586,5.9025 5.2493,10.8618 5.0904,11.0207 -0.1589,0.1589 -2.1151,-0.6147 -4.3471,-1.719 z"
       id="path1" />
  </g>
</svg>
