<?xml version="1.0" encoding="UTF-8"?>
<svg width="251.97" height="126.1" version="1.1" viewBox="0 0 251.97 126.1" xmlns="http://www.w3.org/2000/svg">
 <g transform="translate(-1292 -118)">
  <path d="m1320.5 242.65c-11.389-3.7716-20.025-11.278-24.858-21.606-5.4751-11.7-4.6548-27.731 1.9549-38.201 3.9606-6.274 10.414-11.922 17.354-15.188 5.2311-2.4616 8.2185-3.142 15.797-3.5974l9.3457-0.56167-2.5467-3.4443c-1.9856-2.6854-2.5467-4.6281-2.5467-8.8174 0-4.6383-0.2393-5.3057-1.75-4.8804-0.9625 0.271-3.2125 0.78708-5 1.1468l-3.25 0.65411v-10.78l5.9215-1.7738c7.7324-2.3162 9.3509-4.2219 9.8876-11.642l0.4313-5.9625h10.76v5.5657c0 3.0612-0.4804 6.4635-1.0676 7.5607-1.039 1.9414-0.9838 1.9515 2.0582 0.37845 4.1206-2.1308 17.435-5.5048 21.723-5.5048 2.6001 0 4.9589 1.2503 10.09 5.3482 10.091 8.0592 19.075 13.821 20.988 13.461 0.9397-0.17665 2.1528-1.3311 2.6957-2.5654 0.9827-2.234 1.0934-2.2442 24.528-2.2442 20.404 0 23.859 0.22327 25.933 1.6758 2.3629 1.655 2.4636 1.6003 8.1056-4.4023 3.1422-3.343 6.6361-6.5721 7.7642-7.1759 2.4241-1.2973 29.183-1.5188 29.183-0.24153 0 0.47091-1.5956 2.9459-3.5458 5.5-3.5198 4.6098-3.5895 4.6438-9.5109 4.6438-7.5189 0-13.768 2.8092-18.471 8.303-1.91 2.2314-3.4727 4.426-3.4727 4.877s-4.5 0.82-10 0.82-10 0.20666-10 0.45924c0 0.25259 1.2342 2.5026 2.7427 5 2.7409 4.5377 2.7465 4.5408 8.4556 4.5408 5.0513 0 6.3774-0.46548 11.451-4.0197 13.979-9.7924 34.612-10.731 49.287-2.2431 14.552 8.4168 23.063 23.241 23.063 40.17 0 17.178-8.3797 31.861-23.015 40.327-17.968 10.394-42.703 6.6448-56.757-8.6027-8.8816-9.6354-12.547-19.799-12.111-33.577 0.266-8.4037-0.6699-12.055-3.0902-12.055-0.4006 0-6.2231 6.5327-12.939 14.517-13.146 15.629-14.99 17.268-20.426 18.15-6.5417 1.0616-10.077-0.40672-19.816-8.2302-8.521-6.8453-9.6447-7.4548-12.727-6.903-2.8858 0.5167-3.8735 0.12737-6.75-2.6607-1.8533-1.7963-3.3696-3.6145-3.3696-4.0405s1.3315-2.7002 2.9589-5.0538c4.2006-6.0749 4.7985-9.3035 2.0004-10.801-2.1301-1.14-1.8134-1.5905 8.1428-11.581l10.359-10.395-17.93-18.013-17.133 17.112c-14.938 14.92-17.38 16.979-19.065 16.078-1.0626-0.56869-4.7225-1.3497-8.1331-1.7356l-6.201-0.70156v10.938l-4.0672 1.3423c-4.939 1.63-11.557 7.8343-13.618 12.766-1.9181 4.5906-1.9515 13.755-0.067 18.254 3.6892 8.8054 11.789 14.129 21.638 14.222 10.23 0.0964 19.549-6.3875 22.3-15.515 1.1222-3.7243 1.1666-3.75 6.4717-3.75h5.3422l-0.044-4.25c-0.024-2.3375-0.673-6.0158-1.442-8.1741-1.5516-4.3549-1.0761-5.8833 2.9015-9.3259 3.1867-2.7581 3.5844-2.7859 3.5844-0.25 0 1.1-0.4227 2-0.9393 2s-0.2471 2.0315 0.599 4.5145c1.0664 3.1299 1.4297 7.1938 1.1843 13.25-0.2954 7.2932-0.879 9.8458-3.5346 15.46-3.9863 8.428-10.749 15.135-19.309 19.152-5.4864 2.5741-7.9035 3.0928-15.5 3.326-5.5296 0.16974-10.542-0.23452-13-1.0484zm188.32-19.356c4.9205-2.0482 11.709-8.7594 14.182-14.02 1.5531-3.3039 2.177-6.5361 2.177-11.278s-0.6239-7.9737-2.177-11.278c-2.5615-5.4495-9.2999-11.984-14.682-14.238-3.6397-1.5242-14.759-2.3768-15.915-1.2203-0.3015 0.30149-0.1096 2.1367 0.4265 4.0783 0.9122 3.3037 0.8038 3.5898-1.6905 4.4593-3.9925 1.3918-8.684 5.7207-10.619 9.7983-1.6296 3.4341-1.9168 3.5919-5.4961 3.0195-3.5747-0.57163-3.8085-0.4441-4.3745 2.3859-1.4287 7.1434 2.5239 17.365 9.0579 23.423 7.3055 6.774 19.596 8.8295 29.111 4.8687zm-18.519-13.257c-8.6766-5.2904-8.3147-19.878 0.6076-24.492 9.7484-5.0411 21.081 1.5419 21.09 12.251 0.01 8.5349-5.5722 14.193-13.996 14.193-2.7031 0-5.7784-0.77946-7.7015-1.952zm-165.38 1.0364c-2.2925-2.2925-2.9231-3.8192-2.9231-7.0769 0-9.111 10.635-13.518 17.077-7.0769 6.4415 6.4415 2.0341 17.077-7.0769 17.077-3.2578 0-4.7844-0.63058-7.0769-2.9231zm24.744-9.7436c-0.3667-0.36666-0.6667-1.7154-0.6667-2.9971 0-3.4685-6.5071-10.126-11.108-11.365-3.6916-0.99405-3.8922-1.2523-3.8922-5.0095 0-3.6295 0.2245-3.9615 2.679-3.9615 1.4735 0 4.1858 0.54487 6.0275 1.2108l3.3485 1.2108 31.915-31.868 9.0614 8.8931-16.114 16.136-16.114 16.136 1.5984 3.0908c0.8791 1.7 1.5983 4.4632 1.5983 6.1405 0 2.8692-0.2269 3.0497-3.8333 3.0497-2.1084 0-4.1334-0.3-4.5-0.66667z"/>
 </g>
</svg>
