<?xml version="1.0" encoding="UTF-8" standalone="no"?>
<!-- Created with Inkscape (http://www.inkscape.org/) -->

<svg
   version="1.1"
   id="svg1"
   width="37.353195"
   height="47.789902"
   viewBox="0 0 37.353195 47.789902"
   xmlns="http://www.w3.org/2000/svg"
   xmlns:svg="http://www.w3.org/2000/svg">
  <defs
     id="defs1" />
  <g
     id="g1"
     transform="translate(-1058.2771,-621.5562)">
    <path
       d="m 1066.8803,668.79055 c -0.7275,-0.29354 -1.25,-2.29839 -1.25,-4.79605 0,-4.00667 0.2075,-4.33317 3.125,-4.91667 1.7188,-0.34375 4.7188,-0.625 6.6667,-0.625 1.9479,0 3.2013,-0.3375 2.7852,-0.75 -0.416,-0.4125 -3.7535,-0.75 -7.4166,-0.75 h -6.6603 l -2.4211,-4.58298 c -4.1059,-7.77237 -0.7745,-10.38119 6.5107,-5.09848 l 3.887,2.81854 3.2548,-3.45113 c 1.8673,-1.9799 3.6541,-3.39758 7.3158,-2.90645 2.7912,0.37438 3.9424,0.18917 3.6818,-0.59239 -0.2261,-0.67854 -2.0831,-1.01402 -4.605,-0.83194 -3.9954,0.28849 -7.124,-1.02325 -7.124,-2.98695 0,-1.44786 12.6169,-7.22919 14.3366,-6.5693 2.2081,0.84734 6.6634,10.0035 6.6634,13.69415 0,2.29281 -1.1277,4.18729 -4.5,7.55956 -4.098,4.09802 -4.5,4.93388 -4.5,9.35705 0,4.19162 -0.3083,4.93967 -2.25,5.46003 -2.6682,0.71506 -15.7077,0.69122 -17.5,-0.032 z m -7.2488,-28.33551 c -0.6238,-1.16553 -1.2167,-4.00534 -1.3177,-6.31068 -0.1558,-3.55948 0.1313,-4.2365 1.904,-4.48979 2.9808,-0.42588 4.358,1.76101 4.6542,7.39076 0.2304,4.37772 0.023,4.94104 -1.924,5.21818 -1.4117,0.20097 -2.5829,-0.43767 -3.3165,-1.80847 z m 8.1134,-1.36416 c -0.6658,-0.80216 -1.3014,-4.08638 -1.4125,-7.29826 -0.1955,-5.65026 -0.115,-5.84985 2.4806,-6.14972 3.5777,-0.41332 5.0048,2.39548 4.6185,9.08989 -0.2547,4.41387 -0.6236,5.2661 -2.3887,5.5183 -1.1481,0.16404 -2.6322,-0.35806 -3.2979,-1.16021 z m 7.3566,-6.98149 c -1.0364,-6.91129 -0.3921,-9.10813 2.7783,-9.47294 2.1939,-0.25244 3.2734,0.11992 3.75,2.3151 1.7522,8.07124 1.2621,8.31465 -1.9498,9.9756 -1.6227,0.83912 -3.1702,1.52568 -3.4388,1.52568 -0.2686,0 -0.7815,-1.95455 -1.1397,-4.34344 z m 8.5288,-4.48218 c 0,-5.30377 1.642,-7.01648 5.3591,-5.59007 2.367,0.90828 2.2779,8.54079 -0.1091,9.22712 -0.9625,0.27674 -2.5375,0.82737 -3.5,1.22362 -1.5305,0.63006 -1.75,-0.45331 -1.75,-4.86067 z"
       id="path1" />
  </g>
</svg>
