<?xml version="1.0" encoding="UTF-8"?>
<svg width="109.99" height="109.95" version="1.1" viewBox="0 0 109.99 109.95" xmlns="http://www.w3.org/2000/svg">
 <g transform="translate(-1645.5 -203)">
  <path d="m1721.5 288.45-24.482-24.497 9.4847-9.4847 24.497 24.482c13.473 13.465 24.497 24.957 24.497 25.537 0 1.3084-7.2276 8.4606-8.5498 8.4606-0.531 0-11.982-11.024-25.447-24.497zm-74.336 10.8c-2.3604-10.192-2.1867-24.939 0.4107-34.864 2.0179-7.7106 9.1118-23.521 11.409-25.427 0.7772-0.64498 3.1272 1.0635 7.4184 5.3933l6.281 6.3373-4.6454 6.3103c-10.033 13.629-15.886 26.973-17.946 40.912l-1.2612 8.5359zm41.365-41.425c-2.4577-1.0896-4.6829-2.1956-4.9451-2.4577-0.528-0.52802 12.972-14.42 14.014-14.42 0.3596 0 1.6464 2.3075 2.8596 5.1278l2.206 5.1278-4.291 4.3722c-2.3601 2.4047-4.5348 4.3404-4.8328 4.3016-0.298-0.0388-2.5526-0.96214-5.0102-2.0518zm-18.038-15.384-8.4626-8.5067 14.471-14.471 17.464 17.464-6.9562 7.0099c-3.8259 3.8554-7.2032 7.0099-7.5051 7.0099s-4.357-3.828-9.0114-8.5068zm-18.493-15.162c-2.75-1.4164-5.2021-2.76-5.449-2.9858-0.4949-0.45231 19.057-20.346 19.996-20.346 0.3217 0 1.8811 2.712 3.4654 6.0267l2.8805 6.0267-6.9198 6.9733c-3.8059 3.8353-7.3819 6.9523-7.9467 6.9267-0.5647-0.0256-3.2768-1.2055-6.0268-2.6219zm34.649-3.681-6.2931-6.3496 4.822-3.0606c6.2721-3.981 15.729-7.888 23.566-9.7358 8.5609-2.0184 25.17-1.9265 33.55 0.18566l6.7055 1.6902-8.5359 1.2378c-13.844 2.0076-27.26 7.8723-40.786 17.83-3.4012 2.5038-6.3082 4.5523-6.46 4.5523s-3.108-2.8573-6.5692-6.3496z"/>
 </g>
</svg>
