<?xml version="1.0" encoding="UTF-8" standalone="no"?>
<!-- Created with Inkscape (http://www.inkscape.org/) -->

<svg
   version="1.1"
   id="svg1"
   width="244.02345"
   height="246.51973"
   viewBox="0 0 244.02345 246.51973"
   xmlns="http://www.w3.org/2000/svg"
   xmlns:svg="http://www.w3.org/2000/svg">
  <defs
     id="defs1" />
  <g
     id="g1"
     transform="translate(-821.68507,-630.32692)">
    <path
       d="m 994.01007,876.20683 c -0.37385,-0.6049 -3.33786,-3.05663 -6.5867,-5.44829 l -5.90698,-4.34847 5.97195,-3.18301 c 3.28456,-1.75066 7.82409,-4.76839 10.08783,-6.70607 l 4.11593,-3.52305 4.9297,2.30898 c 3.0322,1.42019 4.9298,2.95528 4.9298,3.988 0,2.46866 -5.1593,9.16656 -10.1461,13.17193 -5.74806,4.61678 -6.59029,5.04271 -7.39543,3.73998 z m 55.54153,-11.01424 c -1.375,-0.44419 -6.4238,-2.00636 -11.2196,-3.47149 l -8.7197,-2.66386 1.5018,-2.90413 c 1.4492,-2.80242 1.4108,-2.93873 -1.0954,-3.89161 -1.4285,-0.54312 -2.8356,-0.98748 -3.127,-0.98748 -0.2913,0 -3.6255,-0.94036 -7.4094,-2.08968 l -6.8798,-2.08968 2.0641,-4.04597 c 1.1444,-2.24331 1.6562,-4.31969 1.1486,-4.66032 -0.5035,-0.33789 -3.018,-1.96435 -5.5878,-3.61435 -2.5697,-1.65 -4.673,-3.36332 -4.674,-3.80737 -10e-4,-0.44406 2.9187,-4.26906 6.4882,-8.5 3.5695,-4.23095 6.4753,-7.91763 6.4574,-8.19263 -0.018,-0.275 -4.7384,-3.84329 -10.49,-7.92954 -5.7516,-4.08624 -10.4574,-7.84649 -10.4574,-8.35609 0,-0.50961 1.39659,-2.6899 3.1035,-4.8451 l 3.1036,-3.91854 -2.841,-2.22536 c -9.42734,-7.38462 -14.53621,-12.15364 -15.95141,-14.89035 -2.05889,-3.98144 -1.22235,-8.38257 2.29017,-12.04884 3.49658,-3.64965 9.25491,-3.7154 19.37004,-0.22118 9.3721,3.23757 16.9099,3.00306 25.1238,-0.78163 l 5.6988,-2.62578 4.4419,3.90992 4.4418,3.90991 -3.5173,6.62396 c -2.048,3.85679 -3.1099,6.8902 -2.5421,7.26129 11.4007,7.45064 14.2782,9.5216 14.2782,10.27623 0,0.49719 -1.1686,2.66982 -2.5968,4.82807 l -2.5969,3.92408 3.3469,2.92335 c 1.8407,1.60784 4.7541,4.10089 6.4741,5.54011 l 3.1273,2.61676 -3.9585,7.55426 c -3.4695,6.62113 -3.8724,8.0743 -3.2619,11.76436 0.3831,2.31556 0.9211,4.58789 1.1955,5.04963 0.2744,0.46173 2.2835,-1.78827 4.4645,-5 2.181,-3.21174 3.7398,-4.93952 3.464,-3.83952 -0.2758,1.1 -0.8063,5.98769 -1.1789,10.86154 -0.585,7.65252 -1.3522,10.37597 -5.6233,19.96158 -2.7202,6.10502 -5.0381,11.16822 -5.1509,11.25155 -0.1128,0.0833 -1.3301,-0.21191 -2.7051,-0.6561 z m -75.05499,-14.37957 c -1.65354,-3.64682 -2.77991,-6.99712 -2.50303,-7.44512 0.27688,-0.448 2.59404,-1.1011 5.14925,-1.45133 2.5552,-0.35023 7.291,-1.82386 10.52399,-3.27474 l 5.87816,-2.63797 4.04273,2.67536 4.04269,2.67535 -2.05135,2.8809 c -4.1108,5.77309 -12.032,11.0399 -18.80172,12.5013 -3.24801,0.70115 -3.29839,0.65363 -6.28072,-5.92375 z m 3.20854,-18.23343 c -1.39379,-0.5554 -9.15355,-11.96639 -9.15355,-13.46061 0,-0.46473 1.27848,-0.84496 2.84107,-0.84496 4.66704,0 11.83107,-2.58587 16.32979,-5.89426 2.32273,-1.70816 4.55069,-3.10574 4.95103,-3.10574 0.97214,0 6.87811,10.97058 6.87811,12.77637 0,2.71723 -6.17622,7.1977 -12.69907,9.2124 -6.89994,2.13118 -7.04961,2.15272 -9.14738,1.3168 z m -153.8196,-7.07781 -2.16605,-1.72776 1.88584,-9.5 c 2.44945,-12.33925 2.43672,-17.61453 -0.0537,-22.26118 -2.54214,-4.7431 -2.51083,-5.52673 0.23654,-5.91927 2.64958,-0.37856 3.61594,-4.38231 3.70583,-15.35363 0.0475,-5.7928 1.03621,-9.93975 5.60309,-23.5 5.25081,-15.59104 5.51266,-16.83785 4.92826,-23.46592 -0.33946,-3.85 -0.81725,-7.71507 -1.06176,-8.58904 -0.31001,-1.10809 2.16544,-3.32597 8.17859,-7.32764 4.74274,-3.15623 11.36757,-8.67239 14.72185,-12.25813 3.35429,-3.58574 8.33696,-7.79785 11.07261,-9.36024 l 4.97392,-2.84072 3.03842,2.55666 c 2.77509,2.33509 3.63034,2.51431 9.86832,2.06799 5.82296,-0.41663 8.52205,-1.34655 18.3073,-6.3074 7.69315,-3.90022 12.30776,-6.9074 13.99585,-9.1206 l 2.51847,-3.30188 11.20635,0.20583 c 10.71979,0.19689 11.55371,0.0587 19.20636,-3.18248 9.6283,-4.07796 18.85398,-9.67898 39.76248,-24.14028 8.66938,-5.99614 15.92938,-10.90207 16.13338,-10.90207 0.2039,0 0.622,0.96057 0.9291,2.13459 0.3644,1.39352 -1.1435,5.52555 -4.3434,11.90199 -4.0548,8.08028 -6.0399,10.77753 -11.49223,15.61541 -8.53523,7.57334 -16.48937,17.24432 -16.48937,20.04848 0,2.98878 4.44147,3.75166 17.41124,2.99061 7.65696,-0.44929 12.82456,-1.46375 21.43836,-4.20857 6.2423,-1.98912 11.6423,-3.31675 12,-2.95029 1.0203,1.04527 -14.9205,15.59655 -21.1675,19.32239 -8.32265,4.96384 -16.72848,8.08293 -28.59216,10.60949 -5.82447,1.24041 -11.45556,2.62156 -12.51355,3.06921 -1.62528,0.68768 -1.79976,0.51558 -1.12506,-1.1097 2.56723,-6.18419 4.54867,-14.2338 4.54867,-18.47898 v -4.87718 l -3.25,1.91549 c -3.87085,2.28141 -13.88651,5.01706 -18.36827,5.01706 -2.7039,0 -3.63721,-0.69634 -6.03991,-4.50634 -1.97805,-3.13664 -3.29774,-4.31116 -4.34182,-3.86419 -7.30344,3.12659 -18.99261,6.44994 -25.99835,7.3916 -4.67409,0.62826 -8.57285,1.21803 -8.66392,1.31061 -0.0911,0.0926 0.67003,1.19898 1.69132,2.45868 3.12619,3.85595 9.87708,3.98631 19.70713,0.38055 l 8.23619,-3.02112 3.46402,4.04693 3.46403,4.04694 6.79979,-0.66391 c 3.73988,-0.36515 8.01937,-0.90179 9.50996,-1.19254 l 2.71017,-0.52862 -3.03574,7.45359 -3.03575,7.45359 -14.67442,0.63751 c -8.07094,0.35064 -17.66871,0.89467 -21.32839,1.20897 l -6.65396,0.57144 -16.72442,16.90816 c -14.2457,14.40219 -17.16897,16.90815 -19.72385,16.90815 -2.96392,0 -2.99146,-0.0498 -2.32662,-4.20752 0.37005,-2.31413 1.57312,-6.24281 2.67349,-8.73039 1.66024,-3.75324 1.79399,-4.90907 0.78602,-6.79248 -0.66806,-1.24828 -1.49354,-2.26961 -1.83439,-2.26961 -2.37429,0 -11.04231,19.69451 -11.04231,25.08909 0,1.051 -0.40133,1.91091 -0.89185,1.91091 -2.37901,0 -11.03948,9.48975 -14.61768,16.01739 -2.18567,3.98728 -5.39148,8.3308 -7.12402,9.65227 -3.35077,2.55576 -4.19975,5.022 -5.04186,14.64636 -0.50036,5.71852 -0.47345,5.79396 1.60515,4.5 1.7218,-1.07185 2.06359,-2.1439 1.84215,-5.77806 -0.25423,-4.17217 -0.0283,-4.62155 3.47811,-6.91754 2.0625,-1.35053 3.75,-3.13384 3.75,-3.96292 0,-0.82908 1.8277,-5.23139 4.06155,-9.7829 4.67888,-9.53332 9.94855,-14.98669 13.31761,-13.78187 1.16646,0.41715 6.861,0.93073 12.65454,1.1413 17.09851,0.62145 27.92331,-2.47506 40.35836,-11.54481 5.14297,-3.75112 8.81142,-10.05372 10.15057,-17.43922 0.91263,-5.03323 4.0527,-5.12167 7.23868,-0.20388 2.41807,3.73246 7.59905,7.44391 10.39998,7.45014 1.50058,0.003 1.41025,0.80988 -0.84036,7.50374 l -2.52166,7.5 -7.65963,0.0291 -7.65964,0.0292 -4.33449,5.97085 -4.33448,5.97085 h -10.39519 -10.39519 l -2.04065,4 c -1.92534,3.77398 -2.29555,4 -6.55187,4 -2.48117,0 -7.23496,0.91756 -10.56397,2.03902 -12.86318,4.3333 -22.26373,11.41714 -34.23941,25.80134 -10.45461,12.55721 -14.64475,19.08799 -14.64475,22.82542 0,3.77128 -0.58424,4.02021 -3.66605,1.56198 z m 21.91605,-10.965 c -2.8875,-0.202 -5.25,-0.73174 -5.25,-1.1772 0,-1.81438 16.99885,-16.84558 23.02652,-20.36115 7.74207,-4.51548 19.25188,-8.32611 28.05901,-9.28968 8.99434,-0.98405 11.68159,-2.60766 14.15108,-8.54992 1.85328,-4.45949 2.33824,-4.92545 4.66582,-4.4831 1.42866,0.27151 6.29197,0.78744 10.80734,1.1465 l 8.20977,0.65283 3.19449,-6.4781 3.19449,-6.47809 7.01792,0.12757 7.01792,0.12758 2.84389,-9.5 c 1.56413,-5.225 3.26508,-9.64281 3.77988,-9.81735 2.77414,-0.94059 7.65933,-5.09283 9.30305,-7.90728 1.03363,-1.76981 1.95792,-5.24874 2.05398,-7.73097 0.17067,-4.40987 0.28864,-4.56216 5.15574,-6.65593 2.73958,-1.17854 8.45743,-2.82768 12.70632,-3.66476 8.3937,-1.65365 7.22195,-1.81501 26.74518,3.68317 8.8161,2.48281 21.9088,2.79659 27.6919,0.66365 2.1316,-0.78621 8.546,-3.48621 14.2541,-6 5.7082,-2.51379 10.5457,-4.57053 10.75,-4.57053 2.8733,0 -6.5295,13.72112 -14.6567,21.38793 -14.471,13.65119 -30.5126,17.24321 -49.2349,11.02465 -3.93607,-1.30735 -5.21154,-2.30455 -6.30986,-4.93319 -1.79946,-4.30673 -5.93363,-7.47939 -9.74607,-7.47939 -7.2208,0 -15.6866,7.08386 -15.67713,13.11803 0.005,3.07661 3.2219,8.32848 6.36199,10.38595 2.04087,1.33723 2.32797,2.07722 1.68108,4.33281 -2.75743,9.61457 -13.14545,21.30265 -27.80354,31.28312 -8.17036,5.56307 -8.30182,5.61051 -12.99855,4.69047 -6.7956,-1.33117 -26.64924,-1.26333 -34.03221,0.1163 -14.47624,2.70513 -28.56732,8.72232 -41.43039,17.69168 -4.24484,2.9599 -8.29484,5.2984 -9,5.19666 -0.70517,-0.10174 -3.64462,-0.35026 -6.53212,-0.55226 z m 121.52124,-7.2998 c -2.02645,-1.67037 -5.76676,-3.95813 -8.31179,-5.08392 l -4.62734,-2.04689 4.22862,-2.09216 c 2.99055,-1.47961 5.28421,-3.76823 7.83395,-7.81676 5.14375,-8.16736 6.46215,-8.12447 15.01765,0.48851 l 7.05894,7.10637 -1.98351,3.26162 c -2.24206,3.68678 -10.31743,9.22027 -13.4557,9.22027 -1.142,0 -3.73438,-1.36667 -5.76082,-3.03704 z m -76.47259,-58.77269 c -2.99685,-0.28995 -3.13073,-0.46471 -2.09587,-2.73598 0.98984,-2.17247 5.61782,-6.11474 6.20331,-5.28419 0.12792,0.18144 1.17217,1.97245 2.32057,3.98 l 2.08801,3.6501 -2.65734,0.3499 c -1.46153,0.19245 -4.09794,0.21052 -5.85868,0.0402 z m 11.72946,-5.88166 c -3.2161,-4.08861 -2.26156,-6.20492 4.72189,-10.46886 l 6.25,-3.81612 v 4.26568 c 0,4.32365 -1.71807,7.75631 -5.46924,10.92742 -2.70128,2.28357 -3.03545,2.22842 -5.50265,-0.90812 z m -20.54927,-59.70056 c -1.61647,-2.46704 -1.5115,-2.76812 4.81632,-13.81503 3.55785,-6.21116 9.49801,-17.36802 13.20036,-24.79302 3.70235,-7.425 6.89459,-13.67663 7.09385,-13.8925 0.19926,-0.21588 1.10994,0.22798 2.02372,0.98636 1.4658,1.2165 1.58219,3.02886 0.98855,15.3925 -1.01161,21.06875 -2.03477,25.80874 -6.39792,29.63963 -3.79278,3.33011 -11.54681,7.14554 -16.88806,8.30991 -2.70423,0.58951 -3.43348,0.31392 -4.83682,-1.82785 z"
       id="path1" />
  </g>
</svg>
