<?xml version="1.0" encoding="UTF-8" standalone="no"?>
<!-- Created with Inkscape (http://www.inkscape.org/) -->

<svg
   version="1.1"
   id="svg1"
   width="240.41641"
   height="245.78528"
   viewBox="0 0 240.41641 245.78528"
   xmlns="http://www.w3.org/2000/svg"
   xmlns:svg="http://www.w3.org/2000/svg">
  <defs
     id="defs1" />
  <g
     id="g1"
     transform="translate(-802.87739,-300.39911)">
    <path
       d="m 805.88709,540.20518 c -4.9042,-12.84812 -2.2764,-29.90588 7.036,-45.67297 5.67,-9.60004 18.1866,-26.13998 21.645,-28.60258 3.5471,-2.52577 12.6077,-6.20365 15.2829,-6.20365 1.3952,0 2.2716,1.16418 3.1941,4.2431 1.2232,4.08285 8.6877,12.99282 11.6484,13.90419 1.8482,0.56892 4.2994,10.59577 3.5573,14.55142 -0.5433,2.89638 -0.01,3.91422 4.9906,9.52216 l 5.5989,6.27913 -10.7431,0.65332 c -12.265,0.74588 -23.0736,4.118 -32.474,10.13142 l -5.5158,3.52839 -3.1267,-4.4358 c -3.295,-4.67474 -3.8044,-7.24242 -2.0769,-10.47024 1.0173,-1.90081 1.1427,-1.90651 4.0575,-0.1847 2.9736,1.75656 3.0295,1.74836 4.928,-0.72284 2.4892,-3.24005 2.4852,-3.26094 -1.0352,-5.34048 -3.463,-2.04567 -3.6587,-3.14035 -1.2217,-6.83554 1.763,-2.67316 1.7683,-2.67411 4.2435,-0.77223 3.2111,2.46739 3.4268,2.43919 5.4959,-0.71872 1.7323,-2.64376 1.7192,-2.69075 -1.4765,-5.29898 l -3.2243,-2.63156 3.6358,-6.61463 c 2.4282,-4.41762 3.2669,-6.84266 2.5251,-7.30116 -1.3746,-0.84953 -1.0496,-1.22506 -5.4276,6.27102 -3.1726,5.43211 -3.9027,6.12443 -5.5366,5.25 -2.5987,-1.39077 -2.6156,-1.38223 -4.0298,2.03191 -1.0966,2.64734 -1.0326,3.20463 0.4961,4.32248 1.6439,1.20204 1.651,1.48454 0.1119,4.46083 -1.8562,3.58956 -2.6851,3.8177 -5.9938,1.64977 -2.1864,-1.43257 -2.4334,-1.37247 -3.9648,0.96481 -2.197,3.35306 -2.0938,3.79367 1.3476,5.75179 2.9333,1.66898 2.9509,1.73043 1.4937,5.21789 -2.0929,5.00894 -1.8727,10.81726 0.5255,13.86612 3.2061,4.07586 2.5113,6.51439 -3.75,13.16219 -3.1625,3.35771 -6.6916,7.43657 -7.8424,9.06414 l -2.0924,2.95921 z m 130.1018,1.41388 c -16.1509,-0.43494 -30.0911,-0.93061 -30.9784,-1.10147 -0.8872,-0.17087 6.2521,-2.67022 15.8652,-5.55412 15.175,-4.55246 19.0256,-5.32822 29.2186,-5.88664 l 11.7402,-0.64319 4.0476,-5.36103 c 3.1935,-4.22975 5.4405,-5.99256 10.6481,-8.35383 3.6303,-1.64604 7.025,-2.9928 7.5438,-2.9928 0.5188,0 0.01,1.51562 -1.1383,3.36803 -2.4311,3.93361 -2.6596,6.47296 -0.6516,7.24349 2.6884,1.03162 8.4984,-2.80387 15.6465,-10.32895 l 7.14541,-7.52221 3.027,3.02703 3.0271,3.02703 11.862,-9.42404 c 6.5241,-5.18323 11.851,-9.07897 11.8376,-8.65721 -0.1271,3.98617 -2.7804,10.7805 -6.0241,15.42578 -2.1733,3.11242 -3.9515,6.07148 -3.9515,6.57568 0,1.5755 4.23,4.93946 11.4698,9.12157 l 6.9699,4.02613 -2.9699,1.17722 c -3.6149,1.43291 -9.5298,1.58573 -19.4863,0.50348 l -7.5166,-0.81703 -6.3474,6.7854 -6.3474,6.7854 -6.13601,-2.29105 c -8.4067,-3.13884 -15.5169,-5.02575 -18.9381,-5.02575 h -2.8661 l 3.1681,4 3.1681,4 -6.8341,-0.15805 c -3.7587,-0.0869 -20.0483,-0.51392 -36.1992,-0.94887 z m -15.1348,-18.14381 c 0,-0.24591 1.7993,-12.95316 3.9984,-28.23834 l 3.9985,-27.79123 -2.7791,-4.5221 c -2.6389,-4.29401 -3.7674,-4.98992 -22.3729,-13.79653 l -19.5937,-9.27441 -4.0603,2.00884 c -2.4387,1.20657 -7.1101,2.23951 -11.697,2.58642 l -7.6369,0.57757 2.5715,-3.78929 c 3.9907,-5.88054 3.1825,-10.11061 -1.0235,-5.35736 -5.698,6.43937 -21.685,13.79196 -37.7084,17.34255 -7.2995,1.61747 -7.702,1.84112 -6.2339,3.46341 0.8632,0.95385 3.4292,2.29144 5.7021,2.97242 l 4.1325,1.23814 -3.5469,3.54692 -3.5469,3.54692 -5.8518,-3.27774 c -3.2184,-1.80275 -7.309,-4.14543 -9.09,-5.20595 l -3.2384,-1.92822 6.1929,-8.17564 c 3.4061,-4.49661 8.2383,-10.66051 10.7383,-13.69755 2.5,-3.03705 10.353,-15.18705 17.4511,-27 12.7269,-21.18069 13.0567,-21.61574 23.8166,-31.41815 6.001,-5.46702 12.7928,-10.78262 15.093,-11.81243 2.3002,-1.02981 9.8077,-2.56042 16.6835,-3.40135 6.8757,-0.84094 12.5495,-1.60034 12.6084,-1.68757 0.059,-0.0872 1.9651,-3.7586 4.2358,-8.1586 8.7645,-16.98292 34.6392,-47.46416 40.3183,-47.49626 0.3637,-0.002 -1.3919,3.03376 -3.9013,6.74626 -8.3819,12.40055 -17.9518,35.50129 -19.702,47.55845 l -0.698,4.80845 3.4486,-0.64695 c 2.2472,-0.42158 4.4568,-0.12553 6.3431,0.84986 l 2.8945,1.49681 5.5397,-6.65831 c 13.8365,-16.63031 23.1782,-30.42407 31.5403,-46.57174 l 6.1693,-11.91344 0.9216,5.41344 c 0.7645,4.49056 0.5902,6.26582 -1.0225,10.41343 -1.0693,2.75 -2.103,7.52345 -2.2972,10.60767 -0.4138,6.57149 -4.9735,20.09111 -10.5877,31.39233 -5.3505,10.77044 -7.4078,14.06931 -12.6436,20.27437 -2.4478,2.90091 -4.2358,5.48921 -3.9732,5.75179 1.0385,1.03843 10.2946,-2.58311 13.7981,-5.39861 l 3.7144,-2.98498 3.3974,2.05592 c 7.5436,4.56508 23.8631,23.80581 40.96801,48.30151 4.6087,6.6 12.8101,17.52988 18.2253,24.28862 10.4489,13.04114 10.2751,12.60027 8.0624,20.45986 -0.2707,0.96167 -6.0822,5.60103 -12.9143,10.30969 -9.4432,6.50818 -14.5081,9.26632 -21.1207,11.50152 -4.7842,1.61717 -8.83431,2.94031 -9.00021,2.94031 -0.1659,0 1.547,-3.0375 3.80651,-6.75 2.2595,-3.7125 4.2975,-7.07335 4.5288,-7.46857 0.2314,-0.39521 -3.3758,-3.16772 -8.01601,-6.16114 -8.0352,-5.18355 -8.4679,-5.64907 -9.0931,-9.78143 -0.903,-5.96821 -1.6646,-9.83886 -1.936,-9.83886 -0.1252,0 -5.1369,-0.90196 -11.1371,-2.00435 -10.2974,-1.8919 -11.143,-2.23358 -15.0723,-6.08982 -3.9308,-3.85782 -5.3776,-4.4418 -25.9652,-10.4805 -11.9913,-3.51727 -21.9597,-6.23774 -22.152,-6.04549 -0.1922,0.19225 8.846,5.79374 20.085,12.44775 19.8786,11.76915 20.4816,12.22162 22.1672,16.63531 l 1.7327,4.5371 h 8.7627 8.7626 l 0.7155,7.12402 0.7154,7.12402 5.886,2.5397 c 3.2374,1.39684 5.8861,2.88125 5.8861,3.2987 0,0.41745 -5.59,5.51495 -12.4223,11.32779 -9.3633,7.96615 -15.4581,12.19563 -24.75,17.17503 -6.7802,3.63343 -13.239,7.18133 -14.3528,7.88421 -1.9438,1.2266 -14.4749,3.1968 -14.4749,2.2758 z m -34.2656,-19.51429 c -11.4383,-11.46818 -11.7355,-11.87818 -11.7783,-16.25 -0.024,-2.46674 -0.6789,-6.26775 -1.4549,-8.4467 -0.7761,-2.17894 -1.3189,-4.02874 -1.2061,-4.11066 0.1127,-0.0819 4.3454,-0.43017 9.4061,-0.77391 l 9.2012,-0.62497 -0.5905,4.98563 c -0.5746,4.85126 -0.5206,4.98563 2.0035,4.98563 2.2105,0 2.6941,-0.55441 3.2709,-3.75 0.993,-5.50062 2.1871,-7.25 4.9489,-7.25 2.9108,0 2.8465,-0.33332 0.9648,5 -2.138,6.0598 -1.9559,8.00106 0.75,7.99476 1.815,-0.004 2.8628,-1.35749 5.4198,-7 l 3.1698,-6.99476 h 4.1597 4.1596 l -0.6541,3.25 c -1.1473,5.70039 -1.4416,6.21704 -4.5438,7.97734 -7.6715,4.35306 -7.9944,18.83293 -0.5446,24.41886 2.3376,1.75277 2.3963,2.03092 1.0762,5.1038 -1.3931,3.24317 -1.4114,3.25 -8.71,3.25 h -7.3139 z m -20.214,-38.52181 c -3.9628,-2.24441 -8.4722,-8.58816 -8.5039,-11.96317 -0.014,-1.48293 0.9434,-1.75 6.2734,-1.75 3.4594,0 8.9719,-0.70028 12.25,-1.55617 4.8745,-1.27271 6.7342,-1.34011 10.2101,-0.37004 4.9648,1.38561 5.2276,2.56377 2,8.96432 -4.0996,8.12975 -14.2694,11.1835 -22.2296,6.67506 z"
       id="path1" />
  </g>
</svg>
