<?xml version="1.0" encoding="UTF-8" standalone="no"?>
<!-- Created with Inkscape (http://www.inkscape.org/) -->

<svg
   version="1.1"
   id="svg1"
   width="242.07793"
   height="248.24843"
   viewBox="0 0 242.07793 248.24843"
   xmlns="http://www.w3.org/2000/svg"
   xmlns:svg="http://www.w3.org/2000/svg">
  <defs
     id="defs1" />
  <g
     id="g1"
     transform="translate(-831.73288,-404.86621)">
    <path
       d="m 1034.1774,651.29903 c 2.644,-8.24213 2.1468,-13.87224 -1.5179,-17.18873 -3.1182,-2.822 -5.389,-1.59632 -7.2105,3.89189 -0.9029,2.7207 -2.6569,6.00151 -3.8977,7.29069 -2.632,2.73468 -10.8287,7.72031 -11.5337,7.01534 -0.2655,-0.26554 -0.02,-1.69951 0.5452,-3.18659 0.5654,-1.48708 1.0082,-6.16199 0.9841,-10.38869 -0.07,-12.29157 -3.4518,-19.1849 -9.4111,-19.1849 -4.52988,0 -5.54505,1.57875 -5.54505,8.6234 0,5.59882 -0.36377,6.70781 -3.62464,11.05 -4.59221,6.11504 -8.50648,10.3266 -9.59763,10.3266 -0.46646,0 -0.33579,-0.95726 0.29037,-2.12724 1.75693,-3.28287 2.32495,-16.76938 1.03007,-24.45696 -1.57592,-9.35602 -6.21767,-18.80844 -10.00691,-20.378 -1.59576,-0.66098 -3.9566,-1.05239 -5.24632,-0.86979 -2.16722,0.30683 -2.32844,0.74883 -2.12718,5.83199 0.95644,24.15671 1.07263,22.90487 -2.87731,31 -2.01276,4.125 -4.80908,8.85 -6.21404,10.5 l -2.55448,3 -0.036,-4.71249 c -0.0586,-7.68431 -3.355,-14.85337 -9.5033,-20.66818 -2.97709,-2.81563 -5.58679,-5.11933 -5.79931,-5.11933 -0.21252,0 -0.35195,3.18686 -0.30986,7.0819 0.0709,6.56361 -0.1288,7.25887 -2.72922,9.5 -4.40194,3.79373 -5.23862,3.20552 -4.86353,-3.41927 0.24993,-4.41417 -0.19861,-6.96711 -1.83619,-10.45091 -3.31594,-7.05435 -4.78832,-7.72749 -4.29241,-1.96239 0.28222,3.28093 -0.14989,5.83348 -1.39673,8.25067 -1.68724,3.27097 -2.20715,3.54432 -7.94523,4.17734 -7.45169,0.82205 -14.94819,4.4505 -19.20017,9.29323 -4.01811,4.57638 -4.28435,2.17844 -0.58286,-5.24949 1.78431,-3.58064 4.55552,-6.74587 9.00815,-10.28893 3.53706,-2.81452 7.10235,-6.07578 7.92287,-7.24724 1.68798,-2.40992 1.96967,-9.29797 0.53461,-13.07246 -0.8541,-2.24646 -0.4671,-2.94918 3.59158,-6.52178 3.86273,-3.40011 5.02521,-3.91548 7.70725,-3.41687 5.64155,1.04878 13.0193,4.68353 18.39637,9.06321 2.89413,2.3573 5.26205,4.0379 5.26205,3.73466 0,-3.84282 -12.50949,-17.70599 -19.93528,-22.09251 -1.6856,-0.99571 -3.06472,-2.07916 -3.06472,-2.40768 0,-0.32851 1.32702,-1.86867 2.94894,-3.42256 2.87141,-2.75099 3.03572,-2.78423 6.25,-1.26421 5.1326,2.42719 8.14547,2.91504 11.08963,1.79567 3.03684,-1.1546 6.70199,-6.46233 6.70769,-9.7138 0.003,-1.53129 0.7799,-2.28252 2.75374,-2.6617 1.5125,-0.29055 2.75,-0.45551 2.75,-0.36658 0,0.0889 0.9,1.9617 2,4.1617 1.44455,2.88911 3.32134,4.65538 6.75776,6.35983 5.88856,2.92071 10.29769,2.3474 15.22613,-1.97983 2.68995,-2.3618 3.8273,-2.80523 5.21018,-2.03133 1.45182,0.81248 1.77548,2.39427 1.80485,8.82067 0.0407,8.90682 1.21864,11.49422 6.33903,13.924 4.5741,2.17054 9.0946,1.14537 13.4039,-3.03972 4.332,-4.20723 5.7575,-3.24291 5.7597,3.89638 0,6.25727 2.4381,11.30176 6.8963,14.28007 3.9296,2.62512 10.2298,3.02594 12.1021,0.76993 1.969,-2.37246 4.8129,-1.76251 6.4384,1.38088 5.2393,10.13155 16.6052,10.86794 24.0296,1.55687 l 2.179,-2.73274 3.2866,5.34137 3.2865,5.34137 -1.6349,5.88047 c -2.064,7.42399 -8.2111,19.73178 -9.8549,19.73178 -0.8562,0 -1.1361,-1.36523 -0.8968,-4.37428 0.4392,-5.52133 -1.9275,-10.36024 -5.5064,-11.25849 -3.3525,-0.84142 -5.5217,0.52894 -6.474,4.08998 -1.2696,4.74697 -5.8371,8.68522 -13.414,11.56595 -2.3787,0.90439 -2.5195,0.80765 -1.8524,-1.27217 z M 876.09075,639.97109 c -1.65,-0.77798 -5.25,-1.32641 -8,-1.21874 -7.27952,0.28503 -8.7762,-0.55489 -10.61683,-5.95808 -0.88926,-2.61043 -2.21893,-6.19156 -2.95483,-7.95806 -2.07317,-4.97659 -0.1488,-5.23372 3.90394,-0.52163 4.30686,5.00755 5.77492,5.29835 6.64934,1.31714 0.88297,-4.02013 -1.04189,-10.5013 -4.10375,-13.81773 -1.80436,-1.95438 -2.37989,-2.22521 -1.96149,-0.92305 0.32568,1.0136 0.88613,3.01419 1.24543,4.44578 l 0.65328,2.60287 -3.27332,-2.56176 -3.27332,-2.56176 0.16688,-12.09816 c 0.1617,-11.7217 0.038,-12.48571 -3.97449,-24.55192 l -4.14138,-12.45374 2.50252,-4.33211 c 2.20882,-3.82367 2.48771,-5.40748 2.37636,-13.49492 -0.12603,-9.15366 -0.12789,-9.15997 -1.86451,-6.30434 -2.57124,4.22808 -6.26897,6.33403 -9.57654,5.4541 -1.81844,-0.48376 -2.24654,-0.90096 -1.25729,-1.22527 1.63885,-0.53726 4,-3.16569 4,-4.4528 0,-0.44488 -0.59656,-0.80887 -1.32569,-0.80887 -2.1887,0 -5.46924,-4.2662 -6.15967,-8.01041 -0.75881,-4.115 0.67998,-8.48935 3.94357,-11.98959 1.28204,-1.375 2.64948,-4.00948 3.03877,-5.85441 l 0.70779,-3.3544 2.78826,4.8544 c 2.47896,4.31591 2.60242,4.9252 1.1129,5.49255 -2.92916,1.1157 -4.24433,3.61181 -3.92046,7.4408 0.36425,4.30631 3.22301,6.90905 4.85597,4.42106 0.54147,-0.825 0.86616,-2.81215 0.72153,-4.41589 -0.30196,-3.34819 1.75711,-4.67157 2.6909,-1.72946 0.34297,1.08061 1.30374,2.52922 2.13504,3.21914 1.22638,1.0178 1.80449,0.96138 3.06501,-0.29914 2.21029,-2.21029 1.02741,-6.44742 -3.81187,-13.65427 -4.82912,-7.19173 -5.78685,-10.87408 -5.81819,-22.37038 -0.0229,-8.41014 -0.11125,-8.74873 -2.27386,-8.71735 -1.2375,0.0179 -4.6125,0.8488 -7.5,1.84633 -6.48825,2.24146 -6.64855,1.44327 -1.31439,-6.5447 2.41086,-3.61028 5.51026,-6.77862 8,-8.17793 2.23541,-1.25638 4.06439,-2.60875 4.06439,-3.00528 0,-0.39653 -1.66994,-4.75523 -3.71097,-9.68601 -3.33053,-8.04597 -3.71497,-9.89553 -3.75,-18.04108 -0.0361,-8.38806 0.19058,-9.44926 2.99011,-14 3.04925,-4.95667 9.72287,-10.27038 15.37221,-12.23975 l 3.04128,-1.06019 -3.58686,3.58686 c -6.14239,6.14239 -9.3029,16.72874 -6.35577,21.2891 0.86167,1.33333 0.97116,1.33333 0.98548,0 0.009,-0.825 1.29819,-4.21006 2.86519,-7.52236 5.21242,-11.01793 16.67797,-18.72666 25.41511,-17.08756 3.65895,0.68642 7.77835,4.60003 14.54732,13.82059 4.98288,6.78759 9.88852,8.98399 15.17494,6.79428 3.48171,-1.44217 6.01196,-4.5256 6.01196,-7.32633 0,-3.60498 -3.33882,-8.86742 -7.15417,-11.27594 -5.83927,-3.68617 -4.85916,-8.88447 1.64039,-8.70024 4.43929,0.12584 10.87794,4.20674 13.54908,8.58758 2.80691,4.60352 2.59791,12.06037 -0.48937,17.45998 -2.70089,4.72383 -1.8492,5.34204 3.15552,2.29048 3.95007,-2.40849 5.79248,-5.8512 7.19679,-13.44784 1.19617,-6.47069 2.45605,-8.59264 5.10176,-8.59264 2.32089,0 3.53101,1.61588 5.05501,6.75 2.2354,7.53068 -1.60341,15.94181 -9.23279,20.22976 -5.86207,3.29467 -13.31437,4.99493 -21.95183,5.00837 -8.07696,0.0126 -7.56027,0.20399 -25.37039,-9.39949 -5.73136,-3.09043 -9.85398,-2.89625 -15.19671,0.71581 -7.80689,5.27799 -9.78872,16.3191 -5.46483,30.44555 2.26697,7.40637 4.14417,9.42558 4.1835,4.5 0.0359,-4.49952 3.52814,-10.96599 6.8498,-12.68368 1.6659,-0.86148 3.23223,-1.56632 3.48071,-1.56632 0.24849,0 -0.21861,2.1375 -1.038,4.75 -0.81939,2.6125 -1.72958,9.7 -2.02264,15.75 -0.49951,10.31172 -0.32942,11.68828 2.71824,22 1.7881,6.05 3.44252,11.33528 3.67648,11.74508 0.23397,0.40979 3.05524,-2.51521 6.26949,-6.5 3.21424,-3.9848 8.81935,-10.76088 12.45578,-15.05797 8.00656,-9.46117 10.12255,-13.42943 11.68629,-21.91615 1.0321,-5.60142 1.4605,-6.43764 3.08093,-6.01389 5.31096,1.38885 6.15286,8.32057 2.0085,16.53682 -1.97611,3.91768 -2.34783,5.32216 -1.25,4.723 3.00209,-1.63844 7.86095,-7.60072 15.09004,-18.51689 8.15398,-12.31281 12.95336,-18.50736 20.39929,-26.32936 6.3884,-6.71106 11.0625,-9.17064 17.42754,-9.17064 5.68595,0 8.719,2.34602 13.35711,10.33153 2.26467,3.8991 3.20031,4.66847 5.67742,4.66847 6.11206,0 8.88191,-7.82592 5.57292,-15.74552 -3.14806,-7.53437 -7.61571,-9.41693 -11.2832,-4.75448 -1.08158,1.375 -2.29002,2.5 -2.68543,2.5 -0.39541,0 -0.54175,-3.13561 -0.32519,-6.96803 1.25124,-22.144 21.71291,-15.84224 23.56721,7.25819 0.5188,6.4636 -0.7496,10.67007 -4.5108,14.95984 -1.431,1.63205 -1.2546,1.75 2.6177,1.75 5.8513,0 11.4733,-5.1527 13.8506,-12.6943 1.7112,-5.42861 1.7548,-5.47116 3.4553,-3.37115 0.9473,1.16977 2.2829,4.63226 2.9682,7.69442 3.0362,13.56705 -6.1598,24.37103 -20.7439,24.37103 h -3.2646 l 1.9069,5.54271 c 8.0044,23.26505 25.6951,33.43556 39.713,22.83123 4.1012,-3.10246 6.8402,-7.81553 14.8594,-25.56871 6.9691,-15.42873 10.2724,-20.01443 13.1223,-18.21679 5.8474,3.68846 2.2548,19.34166 -8.1199,35.37941 -2.7702,4.28227 -4.025,7.03215 -3.2088,7.03215 1.8981,0 8.7072,-4.71991 11.3334,-7.85606 l 2.214,-2.64394 0.036,3.29966 c 0.061,5.60925 -4.918,13.58058 -10.9948,17.602 -5.7721,3.8198 -13.3045,5.59834 -23.7097,5.59834 -10.2836,0 -10.694,0.48899 -3.8007,4.52875 5.5436,3.24875 14.3545,4.70182 21.5412,3.55252 3.025,-0.48377 5.6521,-0.73533 5.838,-0.55903 1,0.9482 -4.7446,6.65334 -9.0698,9.00737 -10.1717,5.53618 -24.7816,4.06683 -32.9513,-3.314 -5.8015,-5.24127 -8.4633,-9.90358 -13.5076,-23.6592 -4.4166,-12.04371 -13.01076,-30.68133 -15.49472,-33.6023 -4.44803,-5.23061 -10.31774,-6.26856 -16.78659,-2.9684 -5.62317,2.86873 -5.52212,3.55747 0.46619,3.17748 4.89858,-0.31084 5.61299,-0.0611 9.26497,3.2382 4.79673,4.33356 9.18517,13.65922 9.95986,21.16523 0.55843,5.41064 0.51652,5.51898 -3.67871,9.5098 -5.74184,5.46209 -8.14704,5.09758 -13.70115,-2.07642 -4.09714,-5.29208 -5.27988,-8 -3.49416,-8 0.46476,0 1.6595,0.9 2.65499,2 2.16473,2.392 6.04525,2.62744 6.89301,0.41821 0.33385,-0.86998 0.60699,-3.38998 0.60699,-5.6 0,-3.2225 -0.66162,-4.67983 -3.34106,-7.35927 -3.8593,-3.8593 -7.20717,-4.95388 -12.25529,-4.00684 -4.41467,0.82819 -11.44433,7.09411 -13.7869,12.289 l -1.7065,3.78433 4.92057,5.10501 c 3.33123,3.45608 5.49227,6.84348 6.69053,10.48728 0.97348,2.96025 1.97921,5.94907 2.23495,6.6418 0.25839,0.6999 -1.84976,0.0586 -4.74469,-1.44335 -3.31631,-1.72056 -7.26343,-2.83821 -10.86065,-3.07526 l -5.65099,-0.37238 -7.5,9.70486 c -11.32718,14.65715 -12.316,16.359 -12.7925,22.01703 -0.38811,4.60851 -0.16878,5.29488 2.31676,7.25 2.92271,2.29901 5.95954,2.80382 6.97574,1.15958 0.33992,-0.55 1.92564,-1 3.52383,-1 3.2271,0 5.38656,-2.76697 4.32284,-5.53897 -0.5231,-1.36318 -1.6367,-1.60171 -5.84755,-1.25251 l -5.20139,0.43133 1.01892,-3.31992 c 0.98183,-3.1991 1.20663,-3.31993 6.17682,-3.31993 4.18332,0 5.5936,0.46378 7.46381,2.45453 1.96207,2.08852 2.233,3.21334 1.81696,7.54321 -0.41715,4.34137 -0.18352,5.30261 1.59091,6.54547 1.14392,0.80123 2.82446,1.45679 3.73452,1.45679 1.37088,0 1.56719,-0.77596 1.14468,-4.5245 -0.38134,-3.38325 -0.0817,-4.9978 1.18814,-6.4009 1.62314,-1.79355 1.53993,-1.9286 -1.88458,-3.05879 -3.77646,-1.24634 -6.54791,-5.12599 -6.54791,-9.16615 0,-1.74974 -0.26667,-1.98299 -1.2,-1.04966 -1.41134,1.41134 -6.8,1.62323 -6.8,0.26739 0,-0.51294 0.90494,-1.21983 2.01097,-1.57087 2.15723,-0.68468 4.96087,-5.25055 5.03323,-8.19686 0.0276,-1.12304 0.78561,-0.3954 2.0162,1.93535 1.12863,2.13766 2.9692,3.9853 4.3037,4.32024 1.79379,0.45021 2.22949,1.11991 1.88865,2.90293 -0.68894,3.60395 1.3892,6.54182 4.62745,6.54182 5.65679,0 7.97819,6.36772 4.11284,11.28172 -1.60438,2.03963 -1.80994,3.06967 -1.02476,5.13486 1.35567,3.56567 -0.1912,7.12416 -4.19335,9.64656 -2.66323,1.67853 -4.42777,1.98147 -9.44696,1.62188 -5.03214,-0.36053 -6.0717,-0.18076 -5.62881,0.97338 0.6843,1.78326 5.5464,4.3416 8.25118,4.3416 3.04508,0 2.48986,1.56482 -1.41052,3.97539 -4.16291,2.57282 -11.5371,2.88824 -16.73631,0.71587 -4.40686,-1.8413 -6.31712,-6.41362 -4.83646,-11.57636 0.94656,-3.30048 0.92795,-3.32986 -1.00252,-1.5828 -1.08184,0.97905 -3.2023,4.29735 -4.71214,7.37399 -2.45344,4.99947 -2.7497,6.71398 -2.78785,16.1341 -0.0408,10.08446 -0.17046,10.71139 -2.99771,14.5 -1.62525,2.17789 -3.63267,4.36394 -4.46092,4.85788 -3.48646,2.07921 -9.9076,9.71703 -12.16869,14.47441 -1.79205,3.77051 -3.70278,5.92476 -7.25071,8.17479 -2.64959,1.68033 -5.04109,2.83148 -5.31444,2.55813 -0.27336,-0.27335 0.20526,-2.55805 1.06359,-5.07709 l 1.56059,-4.58009 -2.69813,1.61029 c -4.19321,2.5026 -6.4783,6.30202 -6.98942,11.62131 -0.35976,3.74412 -0.0543,5.33335 1.31639,6.84791 2.4275,2.68236 3.11156,2.53326 7.79651,-1.69932 4.63808,-4.19022 6.06894,-3.04606 2.36609,1.89199 -1.35259,1.80378 -3.41979,5.1921 -4.59379,7.5296 -2.3484,4.67579 -4.23281,5.20083 -9.5939,2.67305 z m -3.7,-32.62305 c 0.72021,-0.72021 1.20236,-4.21871 1.2059,-8.75 0.0109,-14.02211 6.08934,-44.0695 11.89412,-58.79635 l 1.96651,-4.98907 -2.68327,-3.18448 -2.68326,-3.18448 -3.20636,2.80219 c -2.99735,2.61952 -3.30567,3.51926 -4.72976,13.80219 -2.30826,16.66738 -3.50019,30.11199 -4.22213,47.62439 -0.64315,15.60107 -0.33096,17.46482 2.45825,14.67561 z m 16.26296,-24.91765 c 0.76901,-1.4369 2.12966,-1.88235 5.74972,-1.88235 5.52041,0 9.18732,-2.14102 9.18732,-5.36426 0,-1.63916 1.01909,-2.70202 3.75,-3.91107 2.0625,-0.91312 4.35403,-2.63512 5.0923,-3.82667 1.2797,-2.06542 1.20976,-2.1353 -1.5,-1.49861 -1.56327,0.36731 -5.642,1.01224 -9.06385,1.43318 -4.49449,0.55289 -6.9617,1.44574 -8.88786,3.21639 l -2.66631,2.45104 0.54927,-4.29892 c 0.48841,-3.82266 0.37534,-4.15501 -1.02062,-3 -2.73925,2.26645 -5.20825,9.11868 -5.23097,14.51754 -0.018,4.27535 0.25419,5.11264 1.50582,4.63235 0.84028,-0.32245 1.98111,-1.43333 2.53518,-2.46862 z m -24.01166,-5.12702 c -1.13356,-4.98335 -4.6969,-11.3314 -7.67606,-13.67481 -3.0848,-2.4265 -4.01096,-2.13689 -2.45626,0.76809 0.59456,1.11095 1.08102,3.74936 1.08102,5.86314 0,4.08827 2.24701,8.28825 4.43426,8.28825 0.72647,0 1.87694,0.67005 2.5566,1.48899 1.87472,2.25889 2.88976,0.9122 2.06044,-2.73366 z m 27.73591,-17.60024 6.2872,-4.9335 -3.06814,-1.06956 c -1.99579,-0.69574 -3.55418,-2.21988 -4.45877,-4.36079 l -1.39063,-3.29124 -2.03481,4.73113 c -1.11915,2.60213 -2.52937,6.56777 -3.13382,8.81255 -0.60446,2.24478 -1.36732,4.78062 -1.69526,5.6352 -0.80961,2.10982 1.41673,0.81452 9.49423,-5.52379 z m -24.79095,-5.40509 -0.004,-10.25 -2.04613,3.35618 c -1.71427,2.81183 -2.51606,3.28721 -4.94345,2.93094 -1.87403,-0.27505 -2.67644,-0.0477 -2.27194,0.64382 2.84364,4.86115 8.52866,13.56906 8.85864,13.56906 0.2257,0 0.40868,-4.6125 0.40662,-10.25 z m 31.46421,-26.69614 c 3.32174,-1.62038 7.47696,-3.46459 9.23381,-4.09824 3.46933,-1.2513 11.63452,-8.85634 20.26949,-18.87892 l 5.46376,-6.34178 -8.98107,0.42939 c -7.40694,0.35413 -10.11729,0.96903 -15.46376,3.50828 -13.96535,6.63269 -21.74734,17.95929 -18.37571,26.74562 0.79462,2.07075 0.82096,2.06618 7.85348,-1.36435 z m -20.8906,-6.70722 c 0.87537,-5.78725 -1.68244,-13.84494 -6.82265,-21.49288 -4.12441,-6.13656 -12.07568,-13.18338 -16.04737,-14.222 -1.83641,-0.48023 -1.92687,-0.0747 -1.48968,6.67848 0.64311,9.93404 3.3078,15.33343 11.56213,23.42806 3.79232,3.71893 7.7143,8.02605 8.71552,9.57137 2.14969,3.31791 3.12379,2.37221 4.08205,-3.96303 z m 172.45988,-61.84664 c -0.07,-4.76648 -1.2909,-8.04366 -6.1456,-16.5 -1.5693,-2.73357 -1.9096,-4.72976 -1.5537,-9.11582 0.5823,-7.17865 2.0224,-9.88418 5.261,-9.88418 3.4251,0 6.1491,6.28605 7.4962,17.2989 0.9938,8.12509 0.9371,8.57729 -1.9805,15.78293 l -3.0036,7.41817 z"
       id="path1" />
  </g>
</svg>
