<?xml version="1.0" encoding="UTF-8" standalone="no"?>
<!-- Created with Inkscape (http://www.inkscape.org/) -->

<svg
   version="1.1"
   id="svg1"
   width="242.70874"
   height="231.82777"
   viewBox="0 0 242.70874 231.82777"
   xmlns="http://www.w3.org/2000/svg"
   xmlns:svg="http://www.w3.org/2000/svg">
  <defs
     id="defs1" />
  <g
     id="g1"
     transform="translate(-969.83426,-914.08323)">
    <path
       d="m 1097.9594,1143.3623 c 5.984,-5.5486 6.637,-8.1488 5.3372,-21.2525 -0.6731,-6.7853 -0.551,-8.6115 0.6687,-10 4.8583,-5.5313 8.41,-18.2061 7.1606,-25.554 l -0.7048,-4.1448 -1.3212,5 c -0.7267,2.75 -1.3411,6.0275 -1.3654,7.2832 -0.1029,5.3249 -8.5374,18.2168 -11.9183,18.2168 -1.0486,0 -0.6854,-0.8503 1.2068,-2.8253 1.4887,-1.5539 3.1479,-4.3634 3.6871,-6.2434 1.1874,-4.1401 1.3059,-15.9313 0.1601,-15.9313 -0.4511,0 -2.8136,3.1746 -5.25,7.0546 -8.0228,12.7766 -10.6628,14.9502 -18.1477,14.9417 -2.7512,0 -9.7821,-3.1188 -9.7821,-4.3348 0,-0.2024 2.1375,-0.1839 4.75,0.041 3.5752,0.3077 5.5598,-0.1 8.0243,-1.6469 4.1695,-2.6178 12.0957,-13.4541 14.8405,-20.2893 1.4547,-3.6227 3.2272,-6.0065 5.679,-7.6379 1.9604,-1.3044 4.0835,-3.7794 4.7181,-5.5 3.0656,-8.3123 3.8805,-9.3765 9.6537,-12.6062 8.6563,-4.8426 13.5813,-9.2156 16.5082,-14.6579 3.1021,-5.7683 4.4172,-12.5153 2.9356,-15.0618 -0.9837,-1.6909 -1.0511,-1.6786 -1.0888,0.1975 -0.067,3.3554 -4.6097,12.0395 -8.6182,16.4763 -2.2523,2.4931 -6.918,5.769 -11.4916,8.0685 -7.4156,3.7285 -11.9108,7.7253 -11.9108,10.5901 0,0.7508 -0.45,1.3651 -1,1.3651 -1.3079,0 -1.2647,-1.911 0.1381,-6.1008 1.7699,-5.2861 5.3911,-9.4972 13.2592,-15.4192 7.1544,-5.3849 14.1005,-13.4866 13.3901,-15.6178 -0.2012,-0.6037 -1.5838,0.7429 -3.0724,2.9923 -1.4885,2.2494 -4.0584,4.7889 -5.7107,5.6433 l -3.0043,1.5536 0.043,-5.2757 c 0.062,-7.5706 1.4885,-13.9343 3.3567,-14.9798 1.9182,-1.0734 5.6776,-8.0992 6.5395,-12.2211 0.3364,-1.6089 1.1626,-3.1089 1.8359,-3.3333 0.909,-0.303 1.2243,2.0603 1.2243,9.1752 0,9.143 1.0056,12.1832 2.4255,7.3333 0.3623,-1.2375 0.9249,-6.5406 1.2502,-11.7847 0.46,-7.41496 0.2093,-10.84921 -1.1275,-15.44769 -1.7682,-6.08237 -7.3579,-18.04117 -8.0903,-17.30873 -0.2262,0.22617 0.5096,3.66521 1.6351,7.64229 1.1255,3.97709 1.8742,7.74747 1.6638,8.37862 -0.7402,2.22058 -11.9665,-14.91479 -15.6983,-23.96114 -4.424,-10.72457 -8.9182,-18.06025 -13.563,-22.13847 -4.9754,-4.36846 -13.7958,-7.42831 -21.7278,-7.53748 -6.2396,-0.0859 -6.6898,-0.23906 -6.1509,-2.09267 1.1351,-3.90441 6.1595,-9.03791 11.4839,-11.73325 3.864,-1.95601 4.7501,-2.73801 3.1161,-2.75 -6.6453,-0.0488 -15.9993,7.98215 -17.7702,15.25658 -0.3713,1.52533 -1.6164,3.43264 -2.7669,4.23846 -1.9368,1.35659 -2.2303,1.24627 -3.9622,-1.48904 -2.2909,-3.6183 -7.5926,-7.02275 -10.9365,-7.02275 -1.3657,0 -4.5766,1.11319 -7.1355,2.47375 l -4.6525,2.47375 2.4691,-4.87257 c 4.9113,-9.69186 13.2081,-14.03447 30.7564,-16.09802 13.1349,-1.54457 20.4006,-0.95683 31.6328,2.55882 14.4204,4.51351 19.8724,7.39776 25.5109,13.49578 4.9602,5.36438 13.5114,20.89051 15.0457,27.31804 1.2393,5.19144 8.6409,19.03225 14.519,27.15045 9.6957,13.39035 11.016,17.29377 6.5395,19.33337 -2.145,0.9774 -2.6344,0.8869 -3.1895,-0.5894 -0.3607,-0.9592 -2.4862,-3.544 -4.7233,-5.74397 -2.2372,-2.2 -5.5608,-6.25 -7.3859,-9 l -3.3184,-5 0.6754,4 c 0.3715,2.2 2.0146,7.825 3.6514,12.49997 6.8769,19.6425 7.0155,20.2201 6.4814,27 -0.7754,9.8436 -2.252,13.72 -6.1998,16.2764 -2.5835,1.673 -3.7975,3.463 -4.9024,7.2283 -1.5037,5.1248 -4.6599,8.7835 -13.2603,15.3712 -5.256,4.026 -10.5773,14.2847 -12.6413,24.3705 -0.8164,3.9895 -1.9201,14.6786 -2.4526,23.7536 -1.2889,21.9654 -4.6319,31 -11.4706,31 -1.5454,0 -1.3497,-0.591 1.2787,-3.8617 4.4196,-5.4996 6.3017,-12.3001 4.8542,-17.5398 l -1.1323,-4.0985 -1.3219,6.3443 c -1.708,8.1969 -4.8571,14.6265 -8.3993,17.1487 -3.9667,2.8246 -5.0182,2.4974 -1.7408,-0.5417 z m 44.4141,-133.6388 c -0.3192,-0.7977 -0.5562,-0.5607 -0.6042,0.6042 -0.043,1.0542 0.193,1.6448 0.5253,1.3125 0.3323,-0.3323 0.3678,-1.1948 0.079,-1.9167 z m 1.7928,-9.7172 c -3.7018,-14.6436 -8.8672,-29.0387 -14.7461,-41.09527 -4.2163,-8.64671 -6.3887,-11.75359 -12.3081,-17.60233 -6.9696,-6.88652 -15.7615,-12.39767 -19.7778,-12.39767 -1.0798,0 0.8954,1.42853 4.3894,3.1745 7.455,3.72531 16.9736,12.90732 21.7483,20.97931 3.9209,6.62841 7.4948,16.88011 13.2854,38.10865 2.4308,8.91151 4.625,15.23581 5.0484,14.55071 0.5055,-0.8178 1.3336,-0.1928 2.548,1.923 0.9895,1.7241 1.9315,3.0023 2.0934,2.8404 0.1618,-0.1619 -0.8645,-4.8785 -2.2809,-10.4813 z m -111.8828,129.1582 c -1.0925,-4.7258 0.7934,-9.2374 5.9806,-14.3081 6.7017,-6.551 8.7697,-10.3015 7.9853,-14.4823 -0.7905,-4.2139 -2.0258,-4.4315 -3.364,-0.5926 -1.0016,2.8732 -4.8304,7.1295 -6.4135,7.1295 -0.4628,0 0.1089,-1.2853 1.2704,-2.8563 1.3524,-1.8292 2.3057,-4.9956 2.6512,-8.806 0.4712,-5.1971 0.1305,-6.8816 -2.694,-13.3169 -4.034,-9.1912 -3.7896,-11.6818 2.6072,-26.5603 3.2209,-7.4915 4.9204,-13.0177 5.3699,-17.4605 l 0.6577,-6.5 1.7924,3.9916 c 0.9858,2.1953 2.8659,5.2673 4.178,6.8267 3.2363,3.846 3.2101,11.0473 -0.079,21.6817 l -0.7731,2.5 3.0956,-2.9149 c 1.7026,-1.6033 3.591,-4.4158 4.1963,-6.25 0.6054,-1.8343 1.4359,-3.3351 1.8455,-3.3351 0.4097,0 1.9616,1.8584 3.4487,4.1298 3.3023,5.0438 2.8237,7.105 -2.4178,10.4139 -4.4554,2.8125 -8.5933,8.519 -9.5135,13.1195 -0.4116,2.0584 0.2943,6.2585 2.0612,12.2636 2.8687,9.7501 2.8225,15.2223 -0.1684,19.9311 -0.8428,1.327 -5.1337,4.0378 -9.814,6.2001 -8.8995,4.1116 -9.4559,4.6081 -10.4839,9.3547 l -0.6686,3.0873 z m 114.3446,-15.2028 c -2.6637,-0.8081 -11.1134,-6.5911 -14.231,-9.7396 -8.8448,-8.9327 -9.8817,-13.7012 -3.4602,-15.9134 2.0606,-0.7098 5.2861,-2.4649 7.1677,-3.9001 4.6518,-3.5481 4.3884,-3.561 20.0858,0.9907 1.1,0.319 5.6,-0.4972 10,-1.8138 l 8,-2.3937 0.2889,-8.6404 c 0.2566,-7.6736 0.4984,-8.6404 2.1608,-8.6404 1.0295,0 5.1744,-2.6994 9.211,-5.9988 4.0366,-3.2993 7.9974,-5.9993 8.8017,-5.9999 0.8044,-7e-4 2.4096,-1.1891 3.5672,-2.6408 1.7966,-2.2532 2.999,-2.6833 8.2139,-2.9379 l 6.1091,-0.2983 -1.0209,2.9288 c -0.5616,1.6109 -2.7784,4.3207 -4.9264,6.0219 -2.1479,1.7012 -3.9053,3.6461 -3.9053,4.3219 0,2.053 -5.2881,6.3916 -8.9177,7.3166 -5.106,1.3012 -5.9036,3.2958 -3.7467,9.3688 0.9969,2.8067 1.5536,5.3618 1.2373,5.6782 -0.3164,0.3163 -3.0497,0.7803 -6.0741,1.0312 -5.1554,0.4275 -5.4984,0.62 -5.4926,3.0821 0,1.4444 0.6783,3.9151 1.5,5.4905 0.8216,1.5754 1.4938,2.9599 1.4938,3.0768 0,0.1169 -1.2375,0.032 -2.75,-0.188 -3.6355,-0.5295 -8.25,1.2982 -8.25,3.2676 0,0.8636 1.0772,2.6474 2.3938,3.964 l 2.3937,2.3937 -3.043,1.0608 c -5.1779,1.8051 -7.5915,1.2416 -12.0168,-2.8053 -4.5931,-4.2003 -10.5484,-7.6465 -11.5255,-6.6695 -0.3365,0.3366 -0.022,2.0573 0.6993,3.8238 0.7211,1.7665 1.9731,5.0118 2.7822,7.2118 0.8091,2.2 2.1113,4.7104 2.8937,5.5787 0.7824,0.8683 1.4226,1.8808 1.4226,2.25 0,0.8967 -7.84,0.6996 -11.0623,-0.278 z m -148.09834,-9.499 c 0.26737,-3.3616 0.9409,-4.8329 2.75724,-6.023 3.0727,-2.0133 3.0323,-3.1353 -0.1734,-4.8149 l -2.57672,-1.3501 4.15762,-1.6332 c 2.3622,-0.9279 4.3742,-2.4611 4.659,-3.5504 0.7832,-2.9949 11.656,-3.7478 16.1441,-1.118 1.8189,1.0659 4.1972,1.9379 5.2851,1.9379 1.6458,0 1.8042,0.3249 0.9429,1.9343 -0.5694,1.0638 -1.0352,2.8547 -1.0352,3.9796 0,1.4021 -1.3368,2.7225 -4.25,4.1979 -2.3375,1.1839 -5.9388,3.668 -8.0029,5.5203 -4.3145,3.8719 -5.7905,4.2498 -5.0149,1.2838 0.5081,-1.9429 0.1537,-1.8752 -5.2344,1 -3.1786,1.6963 -6.28174,3.0841 -6.89578,3.0841 -0.70762,0 -0.98689,-1.6289 -0.76266,-4.4483 z m 32.46194,-23.3239 c -3.2519,-2.5555 -4.3884,-6.629 -4.5127,-16.1744 -0.061,-4.7044 -0.3019,-7.4284 -0.5347,-6.0534 -0.6024,3.5582 -2.2539,4.9723 -2.2539,1.9299 0,-2.8494 3.596,-16.3064 5.1167,-19.1479 0.9849,-1.8404 1.1342,-1.8476 3.684,-0.1769 1.4616,0.9577 3.8859,2.0008 5.3874,2.3181 l 2.7299,0.5768 -4.447,9.3488 c -6.4122,13.4799 -6.8025,15.4507 -4.5399,22.9236 1.037,3.4252 1.8143,6.2176 1.7272,6.2054 -0.087,-0.012 -1.1477,-0.7998 -2.357,-1.75 z m 96.4587,-0.7526 c 0.4306,-2.2529 10.8417,-13.626 16.7942,-18.3462 1.1298,-0.896 2.9298,-3.429 4,-5.629 1.3717,-2.8198 2.6834,-4.102 4.4458,-4.3458 3.387,-0.4685 4.481,-1.5185 6.8643,-6.5888 4.0875,-8.6959 4.74,-21.5086 1.6328,-32.0654 -0.5104,-1.7343 0.2377,-2.2409 5.6315,-3.8141 4.9493,-1.4435 7.322,-2.8986 11.6135,-7.1222 4.7688,-4.69332 5.5445,-6.04114 6.6978,-11.63806 0.8408,-4.07978 0.9944,-7.41111 0.4323,-9.37121 -1.5658,-5.45979 -1.0613,-16.42753 0.8738,-18.99288 1.7358,-2.30125 1.7528,-2.27436 2.9162,4.63047 0.6436,3.81984 2.3798,9.41746 3.8582,12.43916 2.1798,4.45538 2.5659,6.30733 2.0427,9.79639 -0.3548,2.36633 -1.2874,5.15067 -2.0723,6.18743 -1.8279,2.41431 -1.8487,3.38503 -0.072,3.38503 2.5952,0 5.7143,-6.6467 6.2164,-13.24681 0.4334,-5.69758 0.8428,-6.62895 4.608,-10.48222 2.2728,-2.32597 4.273,-4.08848 4.4447,-3.91669 0.1718,0.17179 -0.1964,2.84595 -0.8183,5.94258 -0.9363,4.66212 -0.844,6.77185 0.537,12.26961 1.1983,4.77041 1.3669,7.00194 0.5989,7.92735 -0.5879,0.70839 -1.6281,3.21905 -2.3114,5.57935 -1.01,3.4882 -2.0339,4.7099 -5.4714,6.5276 -2.3259,1.23 -5.9149,3.5482 -7.9756,5.1516 -2.0607,1.6035 -4.5546,3.2088 -5.5419,3.5674 -0.9874,0.3587 -2.4423,2.2008 -3.2331,4.0937 -1.0202,2.4415 -2.9428,4.2617 -6.6163,6.264 -2.8481,1.5524 -5.2182,3.2725 -5.2669,3.8225 -0.049,0.55 2.0515,1.1373 4.6672,1.3051 4.3434,0.2785 4.6666,0.4715 3.7276,2.226 -0.9151,1.7098 -0.7783,1.8297 1.2443,1.0906 1.2498,-0.4567 2.7623,-1.7928 3.3611,-2.9691 0.5988,-1.1763 1.935,-3.0739 2.9693,-4.2168 1.0343,-1.1428 1.9299,-2.8334 1.9902,-3.7568 0.06,-0.9234 0.1866,-2.596 0.2807,-3.7169 0.1677,-1.9987 11.6064,-10.4621 14.14,-10.4621 0.6802,0 0.111,1.9545 -1.3835,4.75 -1.3967,2.6125 -2.9989,6.775 -3.5605,9.25 -3.1214,13.7567 -5.1222,19.5701 -7.2275,21 -1.2147,0.825 -4.5691,3.4194 -7.4543,5.7653 -2.8852,2.3458 -6.5197,4.52 -8.0767,4.8314 -2.651,0.5302 -2.9763,0.2156 -5.1171,-4.9495 -3.6517,-8.8104 -4.4928,-8.9011 -8.5127,-0.9186 -4.1103,8.1618 -4.9753,8.9592 -9.8731,9.1012 -2.8721,0.083 -4.4269,0.8673 -6.7207,3.3892 -3.4347,3.7763 -3.8867,5.303 -1.1337,3.8296 1.05,-0.562 4.2199,-1.193 7.0441,-1.4023 4.8517,-0.3595 10.0467,-3.3749 10.0467,-5.8315 0,-0.4601 0.9765,-2.9141 2.1701,-5.4533 2.0318,-4.3224 2.2605,-4.497 3.5887,-2.7391 1.11,1.4691 1.2771,3.9445 0.7682,11.3776 -0.9556,13.9587 -0.5887,13.3039 -8.447,15.0736 -6.5609,1.4775 -7.0417,1.4526 -12.6979,-0.658 l -5.8788,-2.1936 -5.5017,2.7586 c -3.0259,1.5172 -6.4538,3.0535 -7.6177,3.4139 -1.8462,0.5717 -2.0533,0.3269 -1.6239,-1.9193 z m 55.99,-66.1172 c 1.2375,-0.7722 2.25,-2.1936 2.25,-3.1585 0,-0.965 0.6591,-2.6955 1.4647,-3.8456 2.3584,-3.3671 0.5333,-3.5593 -3.1434,-0.3311 -1.865,1.6375 -3.8252,2.9772 -4.3561,2.9772 -0.5309,0 -0.9652,0.6199 -0.9652,1.3776 0,0.7576 -0.675,1.9377 -1.5,2.6224 -3.8424,3.189 1.2464,3.4804 6.25,0.358 z m -182.75,66.2475 c -8.28348,-1.8572 -20.50518,-11.5799 -22.7592,-18.1055 -0.56994,-1.65 -1.36113,-3.8024 -1.75822,-4.7831 -0.65583,-1.6198 -0.4591,-1.6695 2.14772,-0.5433 1.57833,0.682 4.72454,2.903 6.99158,4.9357 4.54267,4.073 11.54161,6.1274 19.40902,5.6971 2.458,-0.1345 6.0441,0.1119 7.9691,0.5475 l 3.5,0.792 -4.4694,-4.3229 c -3.0044,-2.906 -7.2422,-5.4702 -12.92862,-7.823 -8.44444,-3.4939 -8.46673,-3.5128 -12.79189,-10.8542 -2.38299,-4.0448 -5.82729,-9.1003 -7.654,-11.2344 -3.46812,-4.0517 -9.14638,-13.7544 -8.4544,-14.4464 1.1935,-1.1935 8.44716,2.4464 11.6246,5.8332 10.33746,11.0187 14.62012,14.7022 17.10605,14.7128 1.41226,0.01 4.23076,0.286 6.26336,0.6221 3.2513,0.5375 3.7324,0.9872 4,3.739 0.241,2.4774 0.8243,3.1975 2.8043,3.4626 2.0207,0.2705 2.2603,0.088 1.25,-0.95 -1.8781,-1.9302 -1.5158,-2.8847 1.095,-2.8847 1.2898,0 3.1595,-0.9 4.155,-2 1.7701,-1.9559 1.746,-2.0011 -1.095,-2.0524 l -2.905,-0.053 2.25,-1.5695 c 1.2375,-0.8633 2.25,-1.9647 2.25,-2.4476 0,-1.131 -4.0835,-1.1112 -5.8831,0.029 -1.0354,0.6558 -2.1376,-0.5422 -4.3841,-4.7653 -1.6505,-3.1027 -4.0656,-6.9133 -5.3668,-8.468 -1.3013,-1.5547 -2.3701,-3.8047 -2.3751,-5 0,-1.1953 -1.11601,-4.4233 -2.46878,-7.1733 -1.35277,-2.75 -2.47366,-6.167 -2.49086,-7.5934 -0.0172,-1.4264 -0.86014,-5.02645 -1.8732,-8.00005 -2.34937,-6.89601 -3.32744,-11.90652 -2.3242,-11.90652 2.11654,0 4.48178,3.32763 8.52944,12 6.3784,13.66597 7.9017,15.47747 20.3743,24.22847 1.7807,1.2493 3.2432,2.834 3.25,3.5215 0.019,1.9283 -1.0048,1.4979 -3.2616,-1.3711 -2.2297,-2.8346 -8.2203,-5.8095 -9.77,-4.8517 -1.2749,0.7879 -1.2127,4.1247 0.1234,6.6212 0.982,1.8349 1.1873,1.8691 2.2764,0.3798 1.5995,-2.1875 4.3232,-1.0496 6.2069,2.593 0.8187,1.5834 1.8422,2.8788 2.2744,2.8788 0.4322,0 1.7282,0.878 2.88,1.9511 2.2942,2.1374 2.134,3.8772 -1.2278,13.3336 -1.3974,3.9309 -1.9532,4.5752 -3.115,3.611 -1.2056,-1.0005 -1.3175,-0.1345 -0.7592,5.8726 0.6027,6.485 0.4848,7.1523 -1.4801,8.3795 -2.728,1.7036 -2.8743,4.2216 -0.1959,3.3715 2.4033,-0.7628 4.0609,1.969 4.0609,6.6925 0,1.8387 0.6223,4.2308 1.3828,5.3157 1.337,1.9071 1.1463,1.9742 -5.75,2.0243 -3.923,0.029 -8.0328,0.3297 -9.1328,0.6694 -1.1,0.3396 -4.475,0.063 -7.5,-0.6157 z m 90.7225,-36.2162 c -0.3974,-0.3975 -0.7225,-1.4869 -0.7225,-2.4211 0,-0.9341 -0.9,-2.8426 -2,-4.241 -1.1,-1.3985 -2,-3.2733 -2,-4.1663 0,-0.893 -0.675,-1.8827 -1.5,-2.1992 -0.825,-0.3166 -1.5,-1.0675 -1.5,-1.6687 0,-0.7312 0.3972,-0.6958 1.2,0.107 0.66,0.66 1.5075,1.2 1.8834,1.2 1.1857,0 1.8521,-4.2519 0.935,-5.9655 -0.4834,-0.9032 -0.5194,-2.2239 -0.08,-2.9347 0.5615,-0.9086 1.1046,-0.4154 1.8281,1.6601 0.6093,1.7479 0.6692,3.5213 0.1468,4.3464 -1.6833,2.6583 -0.8981,6.0627 2.0868,9.0476 1.65,1.65 3,3.3294 3,3.7319 0,1.4579 -2.5728,4.2081 -3.2775,3.5035 z m -57.039,-10.6013 c -3.9664,-4.1695 -3.9994,-4.1821 -3.2744,-1.25 0.5608,2.2679 0.4563,2.6907 -0.4461,1.8043 -0.6482,-0.6368 -1.4105,-4.2368 -1.6941,-8 -0.3404,-4.5164 -1.1138,-7.5221 -2.2753,-8.8423 -5.5122,-6.2651 -6.5195,-17.92669 -3.0665,-35.49997 1.0267,-5.225 1.695,-9.68059 1.4851,-9.90132 -0.2098,-0.22072 -1.0206,1.11858 -1.8017,2.97623 l -1.4201,3.37755 -0.7182,-4.78908 c -1.0141,-6.76273 -0.056,-13.40384 2.304,-15.97565 1.1043,-1.20325 2.3405,-3.75613 2.747,-5.67306 1.9403,-9.14967 11.7027,-18.06523 19.687,-17.97923 7.1514,0.077 12.7445,6.34086 12.8659,14.40884 0.042,2.78065 0.6826,6.63072 1.4239,8.55572 1.3201,3.42794 1.3494,3.3395 1.4239,-4.29545 0.067,-6.82854 0.3723,-8.09169 2.4644,-10.18373 4.6523,-4.65238 14.7674,-4.34304 25.99,0.79484 10.5383,4.82458 12.948,8.06037 23.1273,31.05561 4.4271,10.00085 4.6705,10.95065 3.0406,11.86283 -2.9235,1.63607 -5.5462,4.66097 -5.5462,6.39674 0,2.27088 -5.6897,1.26391 -12.2548,-2.16887 -4.3642,-2.28201 -4.9302,-2.38632 -4.32,-0.79623 1.327,3.45818 2.7696,11.47283 2.1725,12.06993 -0.3288,0.3287 -0.5977,-0.199 -0.5977,-1.1728 0,-3.86105 -7.6035,-15.88258 -16.1053,-25.46336 -4.9291,-5.55473 -9.3969,-10.09951 -9.9284,-10.09951 -0.5315,0 -1.3038,-0.008 -1.7163,-0.0169 -0.4125,-0.009 -0.975,2.80318 -1.25,6.25 l -0.5,6.26695 -2.6947,-4.58364 c -1.482,-2.52101 -4.552,-6.26167 -6.8221,-8.31258 -3.3217,-3.00094 -4.4062,-3.49758 -5.5553,-2.54391 -2.4204,2.00871 -1.6013,8.12166 2.5721,19.19655 4.6912,12.44893 5.1563,16.67016 0.9359,8.49358 -1.6324,-3.1625 -3.322,-5.75 -3.7546,-5.75 -0.4327,0 -0.4264,2.5875 0.014,5.75 0.4404,3.1625 1.0868,10.13976 1.4366,15.50502 0.5311,8.1474 0.3317,10.537 -1.2101,14.5 -1.0153,2.6097 -1.7252,5.42 -1.5775,6.245 0.1477,0.825 -0.7788,0.2257 -2.0589,-1.3318 l -2.3275,-2.8317 -1.884,2.0817 c -2.7272,3.0136 -3.6565,2.5546 -1.9113,-0.9438 1.2714,-2.5486 1.3273,-4.1647 0.3545,-10.25 -1.4997,-9.3822 -3.8369,-17.72447 -4.9656,-17.72447 -0.4909,0 -1.1423,1.2375 -1.4475,2.75 -4.0589,20.11517 -3.0371,30.64597 3.6873,37.99997 3.8808,4.2443 -0.4637,2.3944 -4.6078,-1.962 z m 62.6162,-23.788 c 0,-3.025 0.1874,-4.2625 0.4165,-2.75 0.2292,1.5125 0.2292,3.9875 0,5.5 -0.2291,1.5125 -0.4165,0.275 -0.4165,-2.75 z m -28.7719,-2.8638 c 1.7559,-1.6595 18.1964,-5.7453 19.1761,-4.7656 0.1998,0.1998 -1.2425,1.7732 -3.2051,3.4964 -3.2906,2.8891 -4.1279,3.133 -10.7558,3.133 -7.0512,0 -7.1501,-0.035 -5.2152,-1.8638 z m 37.6541,-7.63617 c -1.006,-2.20811 -0.908,-2.5 0.8395,-2.5 1.4438,0 1.9786,0.6757 1.9786,2.5 0,1.37497 -0.3778,2.49997 -0.8395,2.49997 -0.4617,0 -1.3521,-1.125 -1.9786,-2.49997 z m -40.0996,-4.25 c -0.023,-0.9625 -0.2689,-4.61165 -0.5462,-8.10923 -0.4517,-5.69673 -0.3407,-6.22346 1.066,-5.05601 1.0674,0.88584 1.3853,2.22809 0.9927,4.19109 -0.3176,1.58833 -0.1545,3.67828 0.3625,4.64434 1.018,1.90217 0.3228,6.07981 -1.0118,6.07981 -0.4517,0 -0.8401,-0.7875 -0.8632,-1.75 z"
       id="path1" />
  </g>
</svg>
