<?xml version="1.0" encoding="UTF-8" standalone="no"?>
<!-- Created with Inkscape (http://www.inkscape.org/) -->

<svg
   version="1.1"
   id="svg1"
   width="219.09044"
   height="230.6147"
   viewBox="0 0 219.09044 230.6147"
   xmlns="http://www.w3.org/2000/svg"
   xmlns:svg="http://www.w3.org/2000/svg">
  <defs
     id="defs1" />
  <g
     id="g1"
     transform="translate(-1183.2598,-606.20516)">
    <path
       d="m 1245.2598,836.73147 c 0,-0.31726 3.4176,-8.58151 7.5946,-18.36501 8.7443,-20.481 9.114,-20.92681 24.5541,-29.60849 5.6932,-3.20118 16.5197,-9.95118 24.0588,-15 l 13.7075,-9.17968 3.8916,-8.5 c 5.4129,-11.82263 12.6608,-34.39862 15.2495,-47.5 2.662,-13.47172 2.2512,-18.78927 -2.456,-31.79306 l -3.4575,-9.55166 5.1787,-4.88357 c 2.8483,-2.68596 6.6412,-5.74292 8.4287,-6.79325 2.6404,-1.55148 3.25,-2.53836 3.25,-5.26146 0,-2.89317 -0.2728,-3.2652 -1.9937,-2.719 -1.3919,0.44176 -1.8587,0.2357 -1.5465,-0.68261 0.246,-0.72346 2.4948,-7.65697 4.9974,-15.40778 3.3031,-10.23004 5.6481,-15.62561 8.5561,-19.68656 l 4.0059,-5.59418 4.0407,2.29513 c 2.2477,1.27674 4.9066,3.91089 5.9923,5.93656 l 1.9517,3.64144 -3.752,0.009 -3.7519,0.009 4.25,2.54722 c 2.3375,1.40097 4.2626,3.08421 4.2781,3.74054 0.015,0.65633 1.0986,9.21619 2.4069,19.02192 2.373,17.78454 2.3742,17.84497 0.4857,24.44883 -1.0413,3.64112 -2.5958,13.33627 -3.4544,21.54477 -0.8586,8.2085 -2.1959,16.76697 -2.9717,19.01882 -1.2572,3.64903 -1.2331,4.29048 0.2222,5.8985 1.4964,1.6535 1.5005,2.07391 0.05,5.03235 -0.8707,1.77547 -6.3775,8.62813 -12.2374,15.22813 -5.8599,6.6 -13.3885,16.41778 -16.7301,21.81728 -5.6968,9.20502 -6.644,10.19758 -15.1873,15.91529 -20.8806,13.9745 -35.54,26.32013 -45.2456,38.1041 -8.5488,10.37954 -9.7826,11.46291 -20.866,18.32149 -4.4,2.72279 -9.2375,5.76533 -10.75,6.76119 -1.5125,0.99587 -2.75,1.55109 -2.75,1.23383 z m -15.509,-14.65642 -3.9817,-14.49676 -7.2429,-7.55967 -7.2428,-7.55967 -1.2115,-10.44033 c -1.3411,-11.55828 -0.8937,-10.80744 -12.0235,-20.17832 -7.041,-5.9283 -14.7886,-15.99719 -14.7886,-19.21949 0,-4.25942 13.5567,-54.33998 18.8545,-69.65139 1.0673,-3.08487 5.462,-13.57516 9.7659,-23.31174 6.9824,-15.79614 8.7769,-18.90794 16.6603,-28.89113 4.8593,-6.15354 9.1625,-11.30608 9.5626,-11.45009 0.4002,-0.14401 2.391,1.44158 4.424,3.52354 l 3.6963,3.78537 -2.4818,22.41654 c -1.365,12.3291 -2.4818,23.76393 -2.4818,25.41073 0,4.49221 -3.2796,10.38047 -9.817,17.62565 l -5.865,6.5 0.4555,8.54313 c 0.4009,7.51865 0.141,9.32949 -2.1678,15.10058 l -2.6234,6.55744 5.0082,12.48425 c 5.9167,14.74868 11.1008,34.57149 13.6063,52.02727 l 1.8037,12.56682 -3.9638,20.35702 -3.9639,20.35702 z m -18.8698,-2.81123 c -6.4387,-5.46356 -8.7306,-8.23915 -12.5392,-15.18553 l -4.6605,-8.5 0.403,-13.67937 0.403,-13.67938 3.8863,4.4902 c 2.1374,2.4696 3.8868,4.80032 3.8876,5.17937 7e-4,0.37905 0.6482,4.36474 1.4388,8.85708 1.2351,7.01788 2.212,9.34105 6.9387,16.5 4.9693,7.52632 9.421,19.08101 8.4229,21.86207 -0.166,0.4626 -3.8473,-2.1674 -8.1806,-5.84444 z m 68.2465,3.55197 c 5.5047,-8.70082 10.999,-15.19907 17.2619,-20.41594 10.9445,-9.11671 23.7915,-18.0626 31.3704,-21.84458 6.6653,-3.32611 7.3107,-3.45476 13.5,-2.69096 5.7294,0.70705 7.3595,1.4459 13.75,6.23217 3.9875,2.98651 7.25,5.70423 7.25,6.03937 0,0.33514 -5.9625,2.77916 -13.25,5.43114 -23.2604,8.46467 -45.0823,17.46578 -50.75,20.93338 -5.4997,3.36479 -10.1218,5.5397 -17.3403,8.15927 l -3.8403,1.39364 z m 81.7963,-44.71078 c -3.7239,-3.94758 -7.2266,-8.37633 -7.7838,-9.84166 -1.2099,-3.18232 -0.3909,-8.27577 2.1126,-13.13855 2.7276,-5.29802 21.5781,-23.42513 23.5666,-22.6621 0.8823,0.33857 2.1932,0.61559 2.9132,0.61559 0.9344,0 0.5086,1.96693 -1.4878,6.87276 -3.1703,7.79032 -8.047,24.58598 -10.7371,36.97931 l -1.8129,8.35207 z m -109.1572,-1.70623 c -6.1612,-5.25967 -6.5068,-5.78578 -6.5068,-9.9062 0,-3.45718 0.3083,-4.23322 1.5,-3.77592 0.825,0.31659 1.5171,1.31496 1.5379,2.21862 0.021,0.90365 2.5238,3.36941 5.562,5.47945 l 5.524,3.83643 11.5661,-4.28613 c 7.3221,-2.71338 16.0141,-7.00299 23.6881,-11.69024 6.667,-4.07226 12.4999,-7.63401 12.962,-7.915 0.462,-0.28099 -0.3908,1.349 -1.8951,3.62221 -4.1277,6.23734 -16.9718,14.65215 -33.1882,21.74324 l -14.2431,6.22822 z m 5.4932,-10.82049 c 0,-3.06667 0.3095,-3.5 2.5,-3.5 2.1905,0 2.5,0.43333 2.5,3.5 0,3.06667 -0.3095,3.5 -2.5,3.5 -2.1905,0 -2.5,-0.43333 -2.5,-3.5 z m 10,-1.55202 c 0,-1.62139 0.3375,-2.95412 0.75,-2.96163 0.4125,-0.008 1.7625,-0.285 3,-0.61664 1.8974,-0.50848 2.25,-0.20825 2.25,1.91583 0,1.89961 -0.7375,2.7759 -3,3.56462 -2.8914,1.00794 -3,0.93909 -3,-1.90218 z m -14.75,0.91471 c -1.5063,-1.52162 -1.6682,-5.86269 -0.2186,-5.86269 1.3645,0 2.2065,2.3371 1.7977,4.98996 -0.2644,1.71573 -0.5748,1.88726 -1.5791,0.87273 z m 0.75,-9.6896 c -4.1238,-1.5745 -4.5263,-2.03466 -4.8139,-5.50432 l -0.3138,-3.78618 3.3138,1.74535 c 4.823,2.5402 15.995,2.42049 21.8139,-0.23374 l 4.5,-2.05263 -10.1271,-0.56963 c -6.9239,-0.38946 -11.556,-1.2017 -14.6447,-2.56795 -4.0985,-1.81298 -4.6627,-2.49377 -6.0835,-7.3405 -0.8613,-2.93821 -1.2462,-5.62608 -0.8554,-5.97306 0.3909,-0.34698 5.8857,-2.23718 12.2107,-4.20043 10.0029,-3.10487 11.6507,-3.07167 6.3768,0.12847 -0.6178,0.37484 -2.3163,3.05095 -3.7746,5.94691 l -2.6515,5.26538 2.7746,1.06454 c 2.4338,0.93377 4.0645,0.44093 13.2747,-4.01194 9.6578,-4.66934 32.9891,-11.92385 33.0075,-10.26323 0.012,1.08052 1.9619,13.46257 2.4882,15.80038 0.4269,1.89631 -1.2701,2.87788 -16.0503,9.28368 -21.7995,9.44802 -30.597,11.02912 -40.4454,7.2689 z m 13.456,-26.08808 c 0.8964,-1.73338 3.795,-4.154 7.1508,-5.97159 5.0992,-2.76182 6.22,-2.99634 11.6219,-2.43173 l 5.9784,0.62487 -8.3536,3.16954 c -4.5944,1.74326 -10.2481,4.14928 -12.5637,5.34673 -5.4101,2.79771 -5.6393,2.75361 -3.8338,-0.73782 z m 117.4348,-3.87601 c -2.0003,-1.75634 -4.8275,-5.90481 -6.3768,-9.35722 -2.6225,-5.84354 -2.7508,-6.78445 -2.2211,-16.27692 0.6781,-12.15286 2.7151,-19.30139 6.7221,-23.59089 3.8999,-4.17484 4.9438,-11.54957 2.6339,-18.60651 -1.6372,-5.00176 -3.0615,-13.73884 -4.1711,-25.58679 l -0.6283,-6.70933 5.5324,3.20933 5.5324,3.20933 3.2928,13.96775 c 2.2367,9.48748 4.0146,14.8263 5.5429,16.64436 3.3495,3.98457 3.0808,10.55665 -0.6582,16.09672 -5.1695,7.65979 -8.4591,19.97697 -10.4615,39.17049 l -1.146,10.98483 z m -148.7749,-7.35676 c -0.9381,-1.528 -1.4713,-6.27999 -1.6548,-14.74827 l -0.2708,-12.49389 3.9402,-5.80233 c 2.295,-3.37953 6.1121,-7.26489 9.1416,-9.30503 4.7257,-3.18253 5.8423,-3.50132 12.2145,-3.48741 10.4118,0.0227 10.6332,0.4659 4.5531,9.11274 l -5.1836,7.37195 0.6727,7 c 0.3701,3.85 1.4581,9.36384 2.4178,12.25298 l 1.745,5.25298 -3.973,1.06981 c -2.1852,0.5884 -4.3044,0.69956 -4.7093,0.24703 -1.7428,-1.94749 -2.6887,-7.22939 -2.2452,-12.53671 0.7887,-9.4372 -0.6708,-10.3381 -2.8935,-1.78609 -1.3386,5.15021 -1.7514,8.98495 -1.3175,12.23962 0.6959,5.22132 0.062,5.81853 -7.6964,7.24834 -2.7816,0.51266 -3.5938,0.23243 -4.7408,-1.63572 z m 21.5457,-54.70129 c -2.6611,-0.94351 -5.1939,-2.37595 -5.6284,-3.18321 -1.9934,-3.70329 -2.8823,-14.88122 -2.0254,-25.46774 0.4897,-6.05 0.9133,-12.4625 0.9413,-14.25 0.049,-3.10001 0.2301,-3.25 3.9344,-3.25 h 3.8835 l 0.7041,6.75 c 1.1344,10.87575 3.3587,21.42059 6.508,30.85386 1.6175,4.84515 2.8465,8.88882 2.7309,8.98593 -1.3819,1.1617 -7.1842,0.93123 -11.0484,-0.43884 z m -11.0364,-53.02023 c -2.3725,-2.47633 -2.5216,-2.95651 -1.0889,-3.50628 1.0486,-0.40238 3.0971,0.50123 5.5618,2.45331 2.1461,1.69967 3.9019,3.2775 3.9019,3.50628 0,0.22878 -1.2658,0.41597 -2.8129,0.41597 -1.7916,0 -3.811,-1.04177 -5.5619,-2.86928 z"
       id="path1" />
  </g>
</svg>
