<svg xmlns="http://www.w3.org/2000/svg" width="215.589" height="252" viewBox="0 0 215.589 252"><path d="M77.664 247.14c0-6.492-1.092-14.14-2.019-14.14-.411 0-1.028 1.012-1.37 2.25l-.623 2.25-1.977-2.5c-1.087-1.375-2.734-4.525-3.66-7-2.665-7.131-3.348-6.92-3.391 1.05l-.041 7.45-2.831-3.309c-1.667-1.947-3.75-6.471-5.065-11-1.23-4.23-3.987-10.932-6.129-14.894s-3.93-8.011-3.973-9c-.052-1.181-.425-.848-1.09.974-.698 1.912-.672 3.746.083 5.912 1.623 4.657.6 4.55-2.59-.268-2.523-3.814-2.821-5.13-2.794-12.342.017-4.602.615-9.363 1.39-11.073l1.36-3 1.34 4.399c.736 2.419 2.023 5.154 2.86 6.078.835.924 1.52 2.68 1.52 3.901 0 2.903 2.221 7.122 5.067 9.624 2.271 1.997 2.272 1.997 1.532-.002-1.575-4.26-1.769-7.456-.655-10.83 1.69-5.121 3.05-5.872 9.165-5.06 6.943.92 9.372 3.366 10.189 10.258.616 5.208 4.103 13.791 7.132 17.56 2.304 2.865 2.567 1.692.988-4.397-1.821-7.019-1.8-12.392.062-15.992 1.155-2.234 2.966-3.351 8.25-5.088 9.578-3.15 13.5-5.31 17.114-9.427 3.735-4.253 3.964-5.586.906-5.262-2.05.217-2.308-.297-2.892-5.762-.353-3.3-.69-8.97-.75-12.601l-.108-6.602 6.097-6.898c9.215-10.424 9.198-10.37 7.85-24.692-1.632-17.356-1.83-16.25 3.942-22.095l5.14-5.204-3.09-5.704L121.514 79h3.692c3.092 0 4.788-.973 10.46-6l6.768-6.002 10.365 1.019c15.53 1.526 19.133 2.518 29.58 8.15 8.673 4.676 9.394 5.28 7.734 6.494-1.007.737-2.42 1.339-3.14 1.339-2.661 0-1.099 1.915 7.596 9.31 4.898 4.166 10.036 9.062 11.418 10.882 3.78 4.975 11.208 24.808 9.292 24.808-.3 0-2.676-1.352-5.281-3.003-7.22-4.579-15.048-7.129-23.334-7.6-7.227-.412-7.371-.377-3.97.959 12.383 4.865 22.632 12.902 27.167 21.305 3.7 6.855 5.216 17.863 4.494 32.63-.823 16.804-.778 16.699-7.057 16.756l-5.134.047-8.481 14.486-8.482 14.487-8.16-.662c-8.5-.69-19.377.166-19.377 1.525 0 .432 2.7 2.452 6 4.49 3.3 2.036 6 4.092 6 4.569 0 .476-1.116 1.744-2.482 2.818-1.9 1.495-4.771 2.106-12.25 2.607-5.372.36-11.435.9-13.473 1.2-3.671.542-3.746.482-8.29-6.607l-4.585-7.153 5.79-7.894c4.5-6.135 6.348-7.905 8.29-7.942 4.192-.081 5.015-1.338 5.627-8.59.322-3.81 2.408-12.666 4.636-19.678 3.67-11.553 4.27-12.75 6.394-12.75 2.138 0 2.343.428 2.343 4.883 0 4.173.317 4.966 2.174 5.452 2.94.769 3.824.044 3.838-3.144.017-3.942 2.388-12.2 5.375-18.723 1.437-3.14 2.613-5.88 2.613-6.089 0-.208-.997-.38-2.215-.38-1.26 0-4.172 1.89-6.75 4.38-3.497 3.377-5.507 4.5-8.785 4.905-2.337.29-4.25.337-4.25.105 0-.23 1.64-2.889 3.643-5.906l3.643-5.487-2.529-5.589-2.528-5.59 2.513-5.823c4.163-9.65 1.4-16.253-8.961-21.416-6.73-3.354-8.019-3.261-12.63.905-5.753 5.197-9.35 10.892-9.35 14.8 0 8.61 9.143 18.897 19.467 21.903l4.767 1.388-3.55 3.441-3.551 3.442-3.018-3.229c-4.72-5.05-6.444-4.13-2.853 1.522 6.722 10.58 7.32 19.64 2.333 35.35-3.107 9.79-3.55 9.374-5.409-5.092-.671-5.22-1.682-10.62-2.246-12-.876-2.139-1.215-1.083-2.306 7.165-2.302 17.406-6.67 30.318-12.215 36.115-2.402 2.511-2.737 2.61-3.373 1-.388-.983-.77-4.488-.847-7.788s-.496-6.9-.93-8c-.645-1.63-.922-1.232-1.503 2.158-.391 2.286-1.34 4.986-2.107 6-1.297 1.711-1.405 1.63-1.517-1.158-.104-2.579-.306-2.329-1.436 1.778-1.212 4.407-3.944 9.722-4.998 9.722-.244 0-1.116-1.238-1.937-2.75-1.452-2.677-1.493-2.575-1.532 3.818-.046 7.52-2.239 15.994-5.33 20.59-1.8 2.679-2.29 2.93-3.227 1.648-.906-1.238-1.323-.78-2.318 2.54C86.548 246.121 81.487 252 79.088 252c-1.036 0-1.424-1.324-1.424-4.86m-51.561-12.332L16.04 231.82 9.353 218.4c-3.679-7.381-6.689-13.816-6.689-14.3 0-.483 1.575-1.174 3.5-1.535s3.5-1.079 3.5-1.594-2.287-2.098-5.084-3.515c-3.57-1.809-4.913-3.02-4.511-4.068.315-.821 4.065-6.382 8.334-12.358 6.466-9.051 8.397-11.076 11.57-12.127 4.515-1.497 9.565-7.411 10.727-12.562l.808-3.583-3.172 3.073c-2.887 2.796-3.516 2.994-7 2.207-2.107-.475-4.03-1.064-4.273-1.307-.244-.244 4.179-4.72 9.829-9.946 9.166-8.478 10.515-9.393 12.522-8.491 2.155.968 2.25 1.527 2.25 13.167v12.157l-4.86 5.043c-4.195 4.352-6.634 8.854-8.727 16.11-.202.7-.94 1.475-1.64 1.721s-2.568.922-4.152 1.502l-2.879 1.054 5.407 5.725c4.485 4.75 5.815 7.047 7.805 13.476 2.308 7.456 2.515 7.75 5.473 7.77 2.818.017 3.433.693 7.393 8.13 2.375 4.461 3.95 8.447 3.5 8.857-.769.7-12.146 5.113-12.607 4.89-.117-.056-4.74-1.446-10.274-3.09M73.252 183.5c-2.075-2.24-3.1-2.5-9.83-2.5-5.458 0-7.853.41-8.758 1.5-3.088 3.721-6.602-.332-5.619-6.481.327-2.043 1.381-5.47 2.343-7.617l1.748-3.902.27 4c.557 8.225 1.26 10.5 3.247 10.5 3.057 0 5.011-3.874 5.011-9.935 0-5.358-.132-5.616-5.5-10.692-4.3-4.066-5.5-5.859-5.5-8.216 0-3.074 2.178-6.157 4.349-6.157.663 0 3.12-3.858 5.458-8.574 2.49-5.023 4.757-8.407 5.473-8.172 1.971.647 13.533 15.946 14.773 19.55 1.854 5.383.652 7.781-4.56 9.093-2.634.664-6.194 2.645-8.51 4.738-3.766 3.402-3.983 3.91-3.983 9.359 0 6.306.81 7.517 6.018 9.01 2.82.81 3.55.582 6.002-1.87 2.798-2.798 4.964-8.496 4.975-13.084.01-3.666 1.55-1.44 3.927 5.668 2.696 8.066 2.62 10.83-.376 13.827-3.281 3.281-7.893 3.262-10.958-.045m-13.794-30.134c.339-2.273-3.145-5.885-4.73-4.905-1.581.977-1.287 4.173.553 6.012 1.993 1.993 3.787 1.518 4.177-1.107m11.178.648c2.141-1.092 4.152-2.406 4.47-2.92.728-1.178-2.118-4.094-3.997-4.094-2.476 0-7.843 5.519-7.143 7.344.822 2.142 1.933 2.087 6.67-.33m18.235-3.14c-.584-1.444-1.554-4.452-2.156-6.685-.804-2.987-2.601-5.384-6.798-9.065-3.138-2.752-5.45-5.26-5.137-5.573.312-.312 3.84.781 7.838 2.43l7.27 2.998 10.389-8.019c10.1-7.798 10.387-7.942 10.387-5.24 0 2.171-1.846 4.572-8.451 10.986-7.53 7.313-8.66 8.895-10.366 14.501-1.828 6.01-1.961 6.175-2.976 3.667M48.507 138.25c-1.477-3.664-2.33-13.25-1.178-13.25 1.106 0 8.335 8.504 8.335 9.806 0 1.353-3.983 6.194-5.097 6.194-.524 0-1.45-1.238-2.06-2.75m93.67-3.237c-1.43-1.58-1.59-2.335-.689-3.237.647-.647 1.176-2.86 1.176-4.92 0-2.623.605-4.166 2.023-5.16 2.357-1.65 1.767-4.31-1.163-5.24-2.813-.893-5.135 1.408-4.529 4.488.696 3.533-.31 8.056-1.792 8.056-1.773 0-4.539-3.346-4.539-5.49 0-1.01 1.144-3.786 2.543-6.172 2.102-3.587 3.06-4.338 5.54-4.338 1.648 0 4.78.91 6.957 2.02 3.682 1.879 3.958 2.318 3.93 6.25-.038 5.171-3.9 15.093-6.035 15.504-.857.165-2.397-.627-3.422-1.76M60.925 118.75c-.542-.688-1.258-2.397-1.591-3.8-.387-1.623-1.903-3.168-4.172-4.25-4.614-2.2-4.924-2.147-3.054.523 1.587 2.266 2.166 7.816.806 7.729-.412-.026-2.314-.814-4.226-1.75-4.629-2.266-5.903-5.936-3.98-11.457 2.02-5.798 6.969-9.085 12.729-8.454 3.822.419 4.143.296 3.043-1.161-2.135-2.831-5.253-5.085-7.066-5.108-1.394-.017-1.75-.904-1.75-4.361 0-3.646.396-4.52 2.473-5.466 1.36-.62 2.78-2.352 3.156-3.85.572-2.279-1.308-18.13-3.247-27.374-.444-2.116.017-2.79 2.823-4.129 5.985-2.854 9.636-6.8 13.259-14.333 2.917-6.065 5.017-8.699 11.721-14.7 4.492-4.02 10.282-9.447 12.867-12.059S100.076 0 100.885 0c1.644 0 4.78 3.089 4.78 4.709 0 .578 2.427 2.883 5.393 5.123 8.566 6.467 14.345 14.514 17.558 24.445.993 3.07 2.188 4.263 6.385 6.37 2.84 1.427 5.339 2.753 5.554 2.947.664.6-7.89 11.406-9.03 11.406-2.627 0-14.28-6.479-17.975-9.994-3.94-3.747-4.048-3.785-3.426-1.188 1.63 6.814 5.012 11.667 10.04 14.407 2.75 1.5 5.45 2.888 6 3.086.55.199-.717 2.46-2.816 5.025-4.902 5.99-8.077 6.222-14.385 1.052-2.425-1.986-4.562-3.449-4.751-3.25-.189.2.454 2.924 1.429 6.055 1.149 3.691 3.468 7.678 6.593 11.337l4.82 5.643-3.944 3.379c-2.307 1.976-4.569 3.14-5.446 2.803-4.16-1.6-15.165-1.563-19.424.063-7.864 3.003-7.586 4.346.79 3.809 9.07-.582 13.564.79 17.584 5.369 4.441 5.058 4.016 7.425-2.307 12.827-2.947 2.517-5.985 4.57-6.75 4.56-.766-.008-3.193-1.053-5.393-2.321l-4-2.305-6.925 2.321c-3.809 1.277-7.409 2.318-8 2.312-.59-.005-2.537-2.125-4.325-4.71l-3.25-4.7v4.71c0 3.94-.306 4.71-1.877 4.71-1.033 0-2.32-.563-2.862-1.25M75.45 92.137c3.628-2.398 4.06-3.02 2.814-4.054-1.141-.947-1.345-2.73-.909-7.935.5-5.953.256-7.32-2.148-12.065l-2.712-5.351-3.912 5.884c-3.495 5.256-3.913 6.546-3.915 12.084 0 4.788-.39 6.417-1.7 7.15-1.535.859-1.44 1.281 1 4.482 1.483 1.944 2.696 4.203 2.696 5.02s.308 2.285.684 3.264c.553 1.442.98 1.074 2.25-1.933.96-2.277 3.224-4.81 5.852-6.546"/></svg>