<?xml version="1.0" encoding="UTF-8" standalone="no"?>
<!-- Created with Inkscape (http://www.inkscape.org/) -->

<svg
   version="1.1"
   id="svg1"
   width="246.28897"
   height="251.37881"
   viewBox="0 0 246.28897 251.37881"
   xmlns="http://www.w3.org/2000/svg"
   xmlns:svg="http://www.w3.org/2000/svg">
  <defs
     id="defs1" />
  <g
     id="g1"
     transform="translate(-1020.1366,-325.78314)">
    <path
       d="m 1058.052,573.17733 c 1.6334,-5.42753 3.517,-20.30812 3.5107,-27.73605 0,-4.66108 -0.6753,-6.67411 -4.4017,-13.19755 l -4.397,-7.69755 2.4404,-1.59904 2.4405,-1.59905 -2.036,-2.58826 c -2.4598,-3.12711 -2.6501,-7.14564 -0.3797,-8.01688 1.6386,-0.62879 4.9041,2.30288 8.3438,7.49078 l 1.5,2.26239 9.9513,-7.47476 c 10.7625,-8.08413 13.452,-11.7458 13.7239,-18.6844 0.1849,-4.71743 -0.8548,-5.84408 -7.862,-8.52017 -4.1348,-1.57911 -4.5389,-1.5689 -7.8189,0.19748 -2.8394,1.52911 -3.6857,1.62896 -4.7265,0.55763 -1.0315,-1.06178 -0.2427,-2.23555 4.2322,-6.29776 9.5209,-8.64284 13.1033,-10.99204 14.7182,-9.65175 0.7815,0.64855 1.2077,1.99443 0.9471,2.99085 -0.5008,1.91496 3.0348,5.16378 11.1219,10.21977 4.2778,2.67448 6.2128,2.712 6.2128,0.12046 0,-0.75338 1.5156,-2.97683 3.3681,-4.94099 4.382,-4.64626 7.926,-4.67668 22.3004,-0.19141 15.2393,4.75516 23.3402,5.99578 34.9649,5.35475 11.5869,-0.63895 18.3499,-2.5315 24.9925,-6.99386 4.358,-2.92761 5.264,-4.25371 9.3783,-13.72685 2.5918,-5.96759 5.9124,-11.85052 7.7061,-13.65237 5.1855,-5.20905 13.0534,-7.66432 25.7897,-8.04798 12.6729,-0.38175 16.3264,-1.34413 21.1369,-5.56778 7.9067,-6.94224 8.4592,-15.89415 1.4925,-24.18476 -1.4114,-1.67969 -1.2061,-1.64531 1.5348,0.25698 7.4231,5.15193 9.2811,16.35604 3.9723,23.95476 -5.4324,7.77572 -11.5661,10.22465 -25.6299,10.2329 -11.1015,0.007 -14.8617,0.88247 -21.2911,4.9599 -6.2533,3.96574 -5.9899,5.34063 0.5345,2.78979 10.7378,-4.19813 38.4402,-2.27072 47.6225,3.31336 1.8442,1.12153 3.1747,2.21751 2.9567,2.43552 -0.218,0.21801 -3.7304,-0.0985 -7.8052,-0.70326 -12.2413,-1.81686 -29.4008,2.12852 -34.151,7.85213 -1.2002,1.44614 -0.9852,1.51896 2.1466,0.72704 1.9142,-0.48404 6.4054,-0.88006 9.9804,-0.88006 15.349,0 23.9143,10.04868 21.4684,25.1862 l -0.7778,4.8138 -0.9238,-3.66165 c -1.1973,-4.74638 -6.7115,-11.13336 -12.6008,-14.5954 -3.9001,-2.29269 -5.8151,-2.73998 -11.666,-2.72489 -10.6592,0.0275 -14.8351,1.65131 -18.6793,7.26337 -5.8883,8.59617 -17.3645,18.88384 -25.6131,22.96052 -6.6318,3.27761 -8.5054,3.75639 -14.6557,3.74509 -5.5985,-0.0103 -8.2829,-0.58669 -13.0248,-2.79671 -3.2851,-1.53107 -6.7401,-3.47812 -7.6779,-4.32679 -1.5596,-1.41144 -1.836,-1.28976 -3.2408,1.42683 -0.8447,1.63343 -2.7171,4.37382 -4.161,6.08975 l -2.6252,3.11988 h -16.5825 -16.5826 l 4.7906,3.17317 c 5.0642,3.35439 9.8303,9.0846 12.2466,14.7241 1.34,3.12748 1.3021,3.55077 -0.4773,5.3302 -1.9106,1.91057 -1.9625,1.88285 -4.4899,-2.39727 -1.4063,-2.38161 -4.2016,-5.9052 -6.2119,-7.8302 -3.5559,-3.40505 -3.6944,-3.44658 -5.1056,-1.5309 -0.7978,1.08301 -1.9247,3.73007 -2.5042,5.88236 -0.5796,2.15229 -1.5454,4.7004 -2.1462,5.66248 -0.9063,1.45129 -0.3401,2.49326 3.3242,6.11764 l 4.4166,4.36842 -10.5,0.53241 c -8.1298,0.41222 -11.4338,1.02451 -14.6365,2.71244 -6.944,3.65958 -18.6676,18.33604 -16.9138,21.17378 0.3047,0.49307 -2.0343,1.78953 -5.1978,2.88103 -3.1636,1.09149 -6.506,2.29342 -7.4277,2.67094 -1.5326,0.62777 -1.5621,0.30877 -0.3452,-3.73455 z m 13.161,-15.84471 c 2.4067,-7.15993 -1.982,-22.65435 -7.3754,-26.03892 l -3.2354,-2.03034 2.7354,5.83896 c 2.5401,5.42209 2.7186,6.65014 2.5004,17.20099 l -0.2351,11.36204 2.2351,-1.47069 c 1.2292,-0.80888 2.748,-2.9968 3.375,-4.86204 z m 13.9114,-13.05318 c 0.373,-1.17518 -1.1525,-4.35668 -4.3508,-9.07393 -2.7088,-3.99533 -5.704,-8.54984 -6.6559,-10.12113 -3.0789,-5.08191 -3.8971,-1.64762 -1.5427,6.47557 3.1354,10.81793 5.0273,17.19532 5.5741,18.79011 0.3609,1.05278 1.2307,0.69241 3.4419,-1.42606 1.6275,-1.55917 3.2175,-3.64922 3.5334,-4.64456 z m 7.0679,-15.15696 c -3.6188,-7.52398 -7.988,-13.6812 -9.7082,-13.6812 -2.4476,0 0.7266,11.48894 6.0654,21.95395 l 2.204,4.32013 2.5307,-2.5307 2.5307,-2.53069 z m 9.2921,-4.08685 c 2.6659,-2.83778 2.3318,-3.76608 -4.6232,-12.84435 -4.7433,-6.19145 -6.2761,-7.04172 -6.3093,-3.5 -0.022,2.29516 7.0505,18.63716 8.0968,18.70995 0.3166,0.022 1.5927,-1.04249 2.8357,-2.3656 z m 42.3228,-23.60007 c 3.212,-2.95621 3.2329,-3.03152 1.2658,-4.57135 -1.3525,-1.05879 -3.1331,-1.38422 -5.5,-1.00528 -1.925,0.30819 -10.1605,0.56529 -18.301,0.57134 l -14.8011,0.011 -1.4489,3.46788 c -0.797,1.90734 -1.449,3.70734 -1.449,4 0,0.29267 8.3179,0.53212 18.4842,0.53212 h 18.4842 z m 36.3064,-6.53873 c 2.7723,-1.31874 6.1033,-3.83515 7.4022,-5.59203 2.0677,-2.79668 2.1249,-3.09042 0.4594,-2.35966 -7.1123,3.12077 -18.9484,6.51943 -24.6863,7.08848 -3.7312,0.37004 -6.551,0.90586 -6.2662,1.19071 0.2849,0.28485 2.6627,1.10483 5.2841,1.82218 5.8976,1.61389 11.2543,0.96722 17.8068,-2.14968 z m -54.0406,-9.5291 c -8.4165,-4.09631 -10.9755,-3.83197 -12.8134,1.32355 -0.5677,1.59259 0.2503,1.7431 9.0948,1.67333 l 9.7186,-0.0767 z m -76.5014,58.57206 c -1.291,-1.37418 -3.1139,-2.49851 -4.051,-2.49851 -1.1673,0 -2.4137,-1.89834 -3.9584,-6.02901 -3.5777,-9.56649 -7.3869,-14.57555 -12.5976,-16.56552 -4.5467,-1.73641 -6.669,-4.39902 -8.4465,-10.59705 -0.6971,-2.43036 -0.5279,-2.80842 1.2567,-2.80842 3.4395,0 8.6687,-3.92289 11.3673,-8.52774 3.4426,-5.87434 5.9361,-15.30234 8.3236,-31.47226 1.7347,-11.74874 2.6471,-19.98443 5.7331,-51.75 l 0.6072,-6.25 h 3.4987 3.4987 l -0.5888,5.25 c -1.8204,16.22989 -2.8701,32.71836 -2.2824,35.85105 0.8887,4.7375 4.5066,9.26443 13.8216,17.29475 l 7.6809,6.6215 -7.4309,10.61431 c -8.4424,12.05937 -9.009,14.4822 -4.4155,18.88301 2.5608,2.45348 2.7788,3.02112 1.4462,3.76687 -1.0265,0.57443 -2.4028,0.33177 -3.9801,-0.70171 -3.5203,-2.30661 -4.9211,-1.9819 -8.3634,1.93856 -4.9654,5.65535 -4.9569,7.3271 0.1154,22.62866 4.2801,12.91183 4.4501,13.82948 2.8329,15.29303 -1.5716,1.42221 -1.9237,1.34071 -4.0677,-0.94152 z m 18.726,-38.25034 c -2.3896,-2.64049 -3.8022,-7.09086 -3.1171,-9.82052 0.8603,-3.42784 5.9674,-7.42765 9.4839,-7.42765 1.9326,0 4.1764,1.1349 6.5567,3.31636 4.2823,3.92441 3.9989,4.98901 -3.0607,11.49629 -4.9304,4.54466 -7.4018,5.15495 -9.8628,2.43552 z m 82.2754,-26.28753 c -1.925,-0.38355 -2.8579,-0.7566 -2.073,-0.829 0.7848,-0.0724 5.0999,-1.90945 9.5891,-4.08234 10.0264,-4.85307 14.7621,-9.75844 17.0635,-17.67497 2.8415,-9.77444 1.2975,-15.76108 -7.6255,-29.56665 -2.209,-3.41777 -4.7266,-8.65711 -5.5946,-11.64298 -1.1178,-3.84524 -1.8335,-5.0257 -2.4535,-4.04678 -1.9762,3.12018 -0.8577,8.27021 3.4279,15.78382 5.9176,10.37503 7.6661,15.23366 7.6661,21.30277 0,9.69679 -6.9359,18.88197 -16.7947,22.24121 -6.675,2.27438 -6.8264,2.01746 -1.7832,-3.02569 2.519,-2.51898 4.8635,-5.70974 5.2101,-7.09059 0.9387,-3.74016 -1.0993,-9.172 -5.7137,-15.2285 l -4.1134,-5.39906 1.0952,-14.21901 c 1.1091,-14.39726 2.745,-21.30609 5.876,-24.81557 1.6424,-1.84086 1.535,-1.8353 -2.2763,0.11784 -7.8034,3.99887 -15.4411,14.02636 -18.9307,24.8539 l -1.6563,5.13903 -4.7065,-1.43828 c -2.5886,-0.79105 -8.0815,-1.75563 -12.2065,-2.14351 l -7.5,-0.70522 0.316,-3.92792 c 0.3653,-4.53995 4.0972,-14.2281 7.1111,-18.46075 2.0171,-2.83275 2.0257,-3.0186 0.3227,-6.96224 l -1.7498,-4.0518 -6.2379,3.00673 c -8.9867,4.33167 -11.4833,8.01208 -12.0476,17.76066 l -0.4471,7.72328 -6.0173,0.16678 -6.0173,0.16679 0.6682,-6.52266 c 0.939,-9.16524 3.0623,-13.72202 8.7957,-18.87685 4.2904,-3.85747 13.3637,-9.04269 19.0235,-10.87158 0.9461,-0.30572 1.9748,-1.81263 2.2859,-3.34868 1.1294,-5.5751 5.8916,-13.48556 10.594,-17.59761 2.6386,-2.30736 9.3608,-6.67021 14.9382,-9.69521 5.5774,-3.025 11.8608,-6.96367 13.9632,-8.7526 4.2077,-3.58035 11.521,-14.49659 12.6047,-18.81448 0.6488,-2.58494 0.7703,-2.63849 2.0418,-0.89961 2.4969,3.4147 1.6479,9.58996 -2.2034,16.02552 -1.9554,3.26764 -4.6279,7.0284 -5.9388,8.35724 l -2.3834,2.41608 3.9379,4.47368 c 4.6982,5.33744 6.28,10.50925 5.7517,18.80575 l -0.3912,6.14332 6.9062,1.2342 c 15.2312,2.72196 24.2026,0.92394 30.0472,-6.02198 3.1014,-3.68579 3.4471,-9.77086 1.1058,-19.46712 -3.0857,-12.77919 -1.1283,-20.9336 6.7182,-27.98825 5.8655,-5.27364 9.0838,-6.16481 5.6911,-1.5759 -3.4737,4.69844 -3.5992,11.53555 -0.3223,17.56415 9.6861,17.82022 9.6456,17.71667 9.0972,23.25297 -1.0675,10.77732 -8.5282,22.03663 -17.4435,26.32508 -3.9576,1.90366 -6.9793,2.36379 -18.6925,2.84635 l -13.9717,0.5756 -2.1706,3.87593 c -5.2734,9.41665 -3.5872,16.65281 5.7693,24.75851 11.2609,9.75546 15.1908,18.2733 12.9828,28.1395 -3.2275,14.42212 -13.1358,21.39802 -32.638,22.97878 -2.75,0.2229 -6.575,0.0915 -8.5,-0.29208 z m -21.0251,-89.44374 c 6.0762,-4.08896 16.4076,-7.5169 22.6552,-7.5169 3.8238,0 4.5508,-0.34569 5.3947,-2.5651 2.1707,-5.70944 0.8486,-12.29 -3.6557,-18.19538 l -2.4936,-3.26936 -8.6878,4.49118 c -15.6185,8.07406 -20.123,13.61131 -20.1657,24.78866 -0.012,3.1625 0.3828,5.75 0.8775,5.75 0.4947,0 3.2287,-1.5674 6.0754,-3.4831 z m -33.8062,81.73146 c -6.7421,-9.92808 -10.6967,-11.4151 -17.7067,-6.65801 l -3.8171,2.59035 -1.8888,-2.34035 c -2.9849,-3.69847 -5.7122,-10.06785 -5.7122,-13.34035 0,-6.91765 7.4727,-16.74289 15.174,-19.95117 5.034,-2.09711 14.3133,-1.94504 19.2907,0.31615 14.9727,6.80198 16.4001,26.10152 3.0232,40.87678 l -4.1992,4.63823 z m 40.8313,0.5809 c -2.475,-1.0961 -7.6863,-2.24028 -11.5806,-2.54262 l -7.0807,-0.5497 2.4367,-6.0326 c 3.4074,-8.43576 2.8854,-16.51351 -1.5254,-23.60912 l -3.1674,-5.09522 2.7087,0.0309 c 1.4898,0.017 5.9968,0.45786 10.0157,0.97973 6.1578,0.79963 7.9945,1.51222 11.6785,4.53101 5.897,4.83218 9.5321,9.79213 10.202,13.92028 0.5923,3.6498 -3.5092,13.88619 -7.2921,18.19919 l -1.8954,2.1611 z m 101.2985,-36.78878 c -6.0695,-3.7008 -7.9251,-10.86054 -4.339,-16.74193 3.7008,-6.06953 10.8606,-7.92513 16.742,-4.33903 8.5606,5.21975 7.8334,17.82992 -1.2472,21.62401 -4.5777,1.91268 -7.3495,1.77775 -11.1558,-0.54305 z m -53.4475,-9.76575 c -4.8182,-5.0583 -5.6529,-6.55145 -6.7282,-12.0354 -1.9927,-10.16215 0.4881,-11.01454 8.0324,-2.75989 4.4459,4.86451 5.0532,6.07092 5.4117,10.75 0.2221,2.89881 0.5229,6.12213 0.6684,7.16293 0.5091,3.6397 -1.9277,2.61091 -7.3843,-3.11764 z m 20.7645,-2.74703 c -7.063,-2.51738 -15.9934,-13.44007 -12.6686,-15.49489 0.6964,-0.43037 3.6878,-1.0671 6.6477,-1.41498 10.359,-1.2175 19.9121,-6.96949 25.8816,-15.58351 2.2868,-3.29976 3.0686,-3.82703 4.2371,-2.8573 3.0148,2.50208 5.2867,8.71924 5.2867,14.46742 0,15.81304 -14.5659,26.16488 -29.3845,20.88326 z"
       id="path1" />
  </g>
</svg>
