<?xml version="1.0" encoding="UTF-8" standalone="no"?>
<!-- Created with Inkscape (http://www.inkscape.org/) -->

<svg
   version="1.1"
   id="svg1"
   width="229.75052"
   height="237.5025"
   viewBox="0 0 229.75052 237.5025"
   xmlns="http://www.w3.org/2000/svg"
   xmlns:svg="http://www.w3.org/2000/svg">
  <defs
     id="defs1" />
  <g
     id="g1"
     transform="translate(-671.42044,-902.36939)">
    <path
       d="m 722.21514,1136.1219 c 2.47149,-4.8329 9.48408,-12.7747 14.46787,-16.3849 3.76506,-2.7274 4.00626,-2.7707 6.66924,-1.1977 3.94119,2.3282 5.98583,1.1917 5.98583,-3.3271 0,-3.4254 0.11112,-3.5706 1.39179,-1.8192 1.20954,1.6542 1.61194,1.7207 3.07309,0.5081 0.92471,-0.7675 2.5668,-3.1311 3.64909,-5.2526 1.08228,-2.1215 3.08593,-4.2823 4.45254,-4.8019 1.36661,-0.5196 2.74536,-1.6239 3.0639,-2.4539 0.31854,-0.8301 1.00172,-1.2482 1.51818,-0.929 1.4839,0.9171 3.63307,-1.408 6.90837,-7.4741 1.66827,-3.0897 4.07415,-6.8951 5.3464,-8.4564 l 2.31317,-2.8386 4.9081,2.4871 c 3.54481,1.7963 5.41433,3.5487 6.73064,6.309 1.26372,2.6501 1.47067,3.9392 0.67497,4.2045 -3.82674,1.2755 -17.67955,11.829 -24.23791,18.4651 -6.80061,6.8812 -8.38934,7.9744 -13.5,9.2895 -3.18578,0.8198 -7.81733,2.8083 -10.29233,4.4189 -4.4976,2.9268 -23.48474,13.0032 -24.50216,13.0032 -0.29617,0 0.32448,-1.6875 1.37922,-3.75 z m -1.45243,-11.4836 c -0.6963,-2.1901 -0.74688,-2.1991 -1.50231,-0.2664 -1.72293,4.4079 -0.86254,-1.4259 1.1238,-7.6197 2.67031,-8.3267 3.59071,-14.8803 2.0898,-14.8803 -0.62475,0 -1.13592,0.4024 -1.13592,0.8942 0,2.1885 -5.99327,7.0269 -10.06074,8.1222 -2.43151,0.6547 -5.61952,2.0439 -7.08446,3.087 -3.14778,2.2414 -3.8548,2.3485 -3.8548,0.5837 0,-0.7221 1.38036,-2.6346 3.06746,-4.25 1.68711,-1.6154 4.63004,-5.2904 6.53985,-8.1666 4.7898,-7.2136 9.0869,-10.1767 20.11263,-13.8689 l 9.47206,-3.1719 -0.3952,3.3852 c -0.21736,1.8618 0.009,3.3851 0.50279,3.3851 1.61734,0 6.70741,-6.1732 7.31093,-8.8667 1.79491,-8.0105 2.68,-10.3251 5.00467,-13.0878 3.19976,-3.8027 4.37337,-3.8096 7.72723,-0.045 1.56425,1.7556 3.66733,3 5.07014,3 2.2194,0 2.35735,-0.2966 1.86061,-4 -0.72028,-5.3701 0.96059,-5.1636 4.29596,0.5277 2.3272,3.9711 2.60257,5.3543 2.2398,11.25 -0.26243,4.265 -1.27831,8.55 -2.77906,11.7223 l -2.36542,5 -0.68517,-5.6076 c -1.32914,-10.8778 -3.68434,-9.7985 -4.68584,2.1475 -0.55374,6.6049 -0.68745,6.9135 -2.34565,5.4129 -1.63373,-1.4786 -1.80286,-1.3892 -2.38477,1.2603 -0.34449,1.5684 -1.67605,4.591 -2.95902,6.7168 l -2.33268,3.8651 -0.71792,-4.7875 -0.71792,-4.7874 -2.08054,2.0805 c -1.44271,1.4427 -2.22188,3.7849 -2.54157,7.64 -0.25357,3.0577 -0.74281,5.5525 -1.0872,5.5441 -1.70834,-0.042 -3.3845,-2.0506 -4.55712,-5.4615 l -1.29843,-3.7769 -3.33167,4.8769 c -3.50247,5.1268 -7.35172,9.1104 -12.00458,12.4235 l -2.78918,1.9861 z m 99.12231,-10.6756 c -1.37589,-2.6607 -1.3262,-3.4082 0.58169,-8.75 1.14736,-3.2125 2.02649,-7.5341 1.95363,-9.6038 -0.20139,-5.7201 13.44667,-46.9157 17.83955,-53.8472 1.968,-3.1054 4.02819,-6.3557 4.57819,-7.2231 0.55,-0.8673 2.29796,-1.8861 3.88436,-2.264 2.822,-0.6721 2.8714,-0.6136 2.28497,2.7052 -0.70889,4.0118 -4.23092,27.2199 -5.75047,37.8921 -3.2781,23.023 -4.6036,28.3372 -9.0281,36.1956 -2.38306,4.2326 -4.40929,7.6076 -4.50273,7.5 -0.0934,-0.1076 0.43424,-4.6956 1.17262,-10.1956 0.73839,-5.5 1.3643,-10.8625 1.39093,-11.9166 0.081,-3.2074 -6.6903,5.3887 -7.41761,9.4166 -1.01572,5.6251 -3.61886,13 -4.58866,13 -0.49167,0 -1.57094,-1.3092 -2.39837,-2.9092 z m 37.45306,-0.01 c 0,-1.172 2.52962,-3.822 5.58775,-5.8537 1.83865,-1.2215 1.83527,-1.2363 -0.0878,-0.3844 -2.51367,1.1136 -20.5,2.4677 -20.5,1.5434 0,-0.3758 0.94906,-3.2862 2.10903,-6.4675 l 2.10903,-5.7842 8.14097,-3.2388 c 4.47753,-1.7814 14.75334,-6.0827 22.83514,-9.5585 12.93244,-5.562 17.80583,-6.7817 17.80583,-4.4566 0,0.5466 -7.53509,9.7892 -21.07084,25.8456 -1.03331,1.2258 -4.92759,3.6772 -8.65395,5.4478 -3.72637,1.7705 -7.11271,3.3926 -7.52521,3.6047 -0.4125,0.2121 -0.75,-0.1019 -0.75,-0.6978 z m -45.81972,-7.7097 c -2.37585,-2.4055 -4.73835,-4.3736 -5.25,-4.3736 -0.51165,0 -0.93028,1.8 -0.93028,4 0,2.2 -0.37062,4 -0.82359,4 -1.06695,0 -6.47258,-26.7118 -5.66881,-28.0123 0.33574,-0.5432 2.49638,-0.9535 4.80142,-0.9117 4.08247,0.074 4.35576,0.3001 10.55508,8.732 l 6.36411,8.6561 -1.75815,5.0179 c -2.68887,7.6744 -2.60051,7.6394 -7.28978,2.8916 z m -117.43028,-9.7524 c -0.9625,-2.029 -1.75,-4.3488 -1.75,-5.1551 0,-0.8404 -0.96032,-1.4854 -2.25,-1.5112 -1.2375,-0.025 -3.6,-0.6221 -5.25,-1.3273 l -3,-1.2823 2.25,-1.2078 c 2.25506,-1.2106 2.81067,-3.5128 1.60563,-6.6531 -0.35441,-0.9236 -2.67772,-2.5508 -5.16293,-3.6161 l -4.51855,-1.9369 3.05097,-3.2157 c 1.67804,-1.7686 3.83686,-4.7907 4.79738,-6.7157 0.96052,-1.925 3.7956,-5.396 6.30017,-7.7133 4.41345,-4.0835 4.49913,-4.2736 2.7808,-6.1724 -2.9039,-3.2088 -3.08451,-9.0428 -0.40599,-13.1143 l 2.30252,-3.5 0.3075,4.25 c 0.3638,5.0282 1.30279,5.3082 4.1925,1.25 1.1749,-1.65 2.6217,-3 3.2151,-3 0.5934,0 3.001,-1.575 5.3502,-3.5 2.34921,-1.925 4.75806,-3.5 5.353,-3.5 1.6904,0 1.27227,1.8395 -0.8183,3.6 -5.18422,4.3656 -9.1,8.2952 -9.1,9.132 0,0.5126 2.97918,-0.5674 6.62039,-2.4 6.62763,-3.3357 10.74741,-4.1639 11.8486,-2.3822 0.32287,0.5224 -0.40668,1.4817 -1.6212,2.1316 -2.13216,1.1411 -2.14376,1.229 -0.33688,2.5502 2.57533,1.8831 5.89226,1.7137 10.27893,-0.5252 4.24405,-2.1661 6.2881,-4.2618 8.58957,-8.8068 2.20186,-4.3482 2.03727,-5.0278 -0.62941,-2.5989 -2.65856,2.4215 -5.27141,3.7892 -8.88588,4.6514 -2.09218,0.499 -2.74359,0.2168 -3.15811,-1.3683 -0.31768,-1.2148 -1.67198,-2.227 -3.45754,-2.5841 -2.41436,-0.4829 -2.85701,-0.9967 -2.49413,-2.895 0.32304,-1.6899 -0.12057,-2.4862 -1.65658,-2.9737 -2.1698,-0.6887 -2.22634,-1.0145 -2.65311,-15.289 -0.07,-2.3419 -0.39415,-4.5248 -0.7203,-4.851 -0.32614,-0.3261 -2.19755,0.6309 -4.15867,2.1267 l -3.56568,2.7197 v -7.2248 c 0,-6.46107 0.30606,-7.61123 2.89525,-10.88036 1.5924,-2.01056 4.1005,-7.25031 5.57357,-11.6439 4.97743,-14.84569 10.51099,-21.63738 29.12304,-35.74451 10.98914,-8.32929 20.44624,-19.99462 23.48376,-28.96721 l 1.73454,-5.1237 1.08934,3.92354 c 1.6065,5.7862 1.3441,10.76098 -0.87577,16.6032 -1.08695,2.86062 -1.8601,5.31729 -1.71812,5.45928 0.14199,0.14198 2.73751,-1.8562 5.76782,-4.4404 7.13302,-6.08292 17.64152,-12.87323 21.32079,-13.7769 2.77748,-0.68219 2.86859,-0.5941 2.25877,2.18375 -0.3495,1.59203 -1.07464,5.01569 -1.61142,7.60814 -1.17258,5.6631 -5.57029,14.59783 -11.78603,23.94543 -4.16638,6.26566 -6.01079,7.8552 -20.66511,17.80944 -8.84974,6.01136 -18.41943,12.98325 -21.26599,15.49309 -9.5282,8.40113 -14.97201,18.68691 -16.88172,31.89711 -0.69131,4.782 -0.66486,4.8466 1.67745,4.0972 1.30891,-0.4188 4.83544,-1.0301 7.83673,-1.3586 l 5.45691,-0.5972 1.29778,-6.5 c 1.63272,-8.1776 6.0782,-17.34356 11.27481,-23.24721 2.20911,-2.50969 8.6284,-7.59879 14.26508,-11.30911 18.75096,-12.34274 27.38009,-23.90433 32.0494,-42.94083 2.10424,-8.57886 2.37169,-9.06357 6.19912,-11.23491 11.58054,-6.56978 38.37813,-11.34965 46,-8.205 l 3,1.23774 -4.15625,0.78151 c -8.39069,1.57771 -21.49067,9.87262 -31.39232,19.87765 -4.83124,4.88168 -7.91261,9.27245 -11.75,16.74306 -6.04937,11.77688 -7.00328,16.08571 -1.28338,5.79709 2.14038,-3.85 4.94693,-7.96242 6.23678,-9.13872 2.46892,-2.25157 4.58401,-2.62784 33.30813,-5.92545 14.23576,-1.63431 26.4572,-4.81596 32.28704,-8.4054 3.54233,-2.18102 3.82548,-2.00918 2.11781,1.28531 -4.13894,7.98496 -17.71663,18.81258 -27.78378,22.15635 -6.09206,2.02346 -7.12073,3.26387 -3.37493,4.06962 12.57524,2.70502 35.78834,12.08319 44.69269,18.056 l 4.90179,3.28799 -2.90179,0.64067 c -1.59598,0.35237 -3.57679,0.86829 -4.40179,1.14648 -2.90695,0.98022 -19.55298,3.2915 -23.83333,3.30921 -8.64929,0.0358 -2.56658,4.31113 10.6827,7.5085 5.19477,1.25363 9.14061,1.58636 13.45934,1.13496 l 6.10997,-0.63862 -3.83322,3.92561 c -2.10828,2.159 -6.58998,5.1339 -9.95935,6.6109 -3.36936,1.4769 -8.82611,3.9476 -12.12611,5.4905 -6.93527,3.2426 -12.5,4.6335 -12.5,3.1246 0,-0.5613 0.45,-1.2986 1,-1.6385 2.60397,-1.6094 0.57609,-2.2206 -2.75,-0.8289 -6.1339,2.5665 -27.6057,1.3769 -36.87099,-2.0428 -8.84143,-3.2633 -9.31116,-3.2627 -6.30332,0.01 4.65748,5.0638 10.19979,6.7072 24.19801,7.1751 11.40437,0.3812 12.63716,0.5936 11.5,1.9816 -2.75152,3.3584 -13.11728,10.1925 -18.54893,12.2293 -8.61644,3.2311 -21.48187,5.0672 -27.50339,3.9253 -7.82276,-1.4836 -8.61046,-1.0955 -3.30564,1.6285 2.70365,1.3883 6.20063,3.4391 7.77105,4.5573 3.5807,2.5497 12.51923,5.7279 18.36148,6.5287 2.44845,0.3356 4.45173,0.9397 4.45173,1.3424 0,1.5931 -13.07308,4.2777 -23.18867,4.7618 -8.29301,0.3969 -12.2231,0.1135 -17.53482,-1.2641 -6.37516,-1.6536 -7.06392,-1.6631 -10.01167,-0.1388 -3.35017,1.7325 -6.25701,2.0133 -10.12408,0.9781 -2.0752,-0.5555 -1.53344,-1.0655 4.5,-4.2363 5.72716,-3.0098 7.56031,-4.6507 11.10697,-9.9421 4.09889,-6.1152 8.86881,-18.8131 8.02171,-21.3543 -0.22657,-0.6798 -1.6536,1.0455 -3.17119,3.8338 -2.78892,5.1241 -9.76184,11.3289 -14.9468,13.3002 -3.73093,1.4185 -9.9681,1.341 -11.45145,-0.1424 -1.523,-1.523 -1.55217,-7.2617 -0.0514,-10.1157 0.63171,-1.2014 2.23164,-3.4859 3.55539,-5.0768 1.32375,-1.5909 3.53254,-5.1141 4.90842,-7.8292 1.46218,-2.8855 3.7635,-5.6309 5.53867,-6.6075 3.02693,-1.6652 3.03531,-1.6941 2.51008,-8.67077 -0.28984,-3.85 -1.37273,-9.7 -2.40642,-13 l -1.87944,-6 -0.63632,6.60338 c -1.03945,10.78691 -2.64371,15.50679 -6.92301,20.36839 -5.83891,6.6333 -14.81594,8.7503 -14.81594,3.4939 0,-1.1535 0.50972,-3.0496 1.13271,-4.2136 l 1.13271,-2.1165 -3.38271,2.1128 c -2.13234,1.3318 -3.90756,3.5641 -4.80262,6.0392 -1.31028,3.6233 -1.26364,4.1498 0.60418,6.8194 3.32012,4.7454 3.65574,8.0592 1.30753,12.91 -2.11003,4.3587 -8.50938,10.3948 -13.3667,12.608 -1.4438,0.6578 -2.6251,1.5534 -2.6251,1.9902 0,1.1434 6.38585,2.1753 10.49381,1.6957 l 3.50616,-0.4097 v 4.4309 4.4308 l -3.8832,-0.5208 -3.88319,-0.5209 -0.5401,4.0268 c -0.29706,2.2147 -1.25967,4.7463 -2.13913,5.6258 -1.66617,1.6662 -1.66605,0.8838 10e-4,-7.5072 0.42689,-2.1484 -0.97714,-3.0729 -7.47292,-4.9205 l -2.41738,-0.6875 2.16738,2.7553 c 3.06978,3.9026 2.74871,6.8421 -1.08263,9.9119 -4.30333,3.4479 -4.673,3.8228 -8.75,8.8749 -2.78993,3.4571 -4.71727,4.7142 -9.5,6.1963 -3.3,1.0225 -6.9,2.6227 -8,3.5559 -1.1,0.9332 -2.99114,2.2074 -4.20254,2.8315 -1.8486,0.9524 -2.25033,2.1223 -2.5,7.2802 l -0.29729,6.1454 z m 18.35552,-37.6212 c 5.48366,0 8.86572,-1.8585 8.92609,-4.905 0.0174,-0.8772 2.09928,-2.8506 4.62643,-4.3852 5.01623,-3.0462 5.39302,-4.8218 0.48455,-2.2836 -1.6738,0.8656 -4.7981,1.5738 -6.94289,1.5738 -2.77215,0 -5.13434,0.8944 -8.17014,3.0935 -4.15247,3.0081 -5.93317,3.2544 -10.2909,1.4238 -1.34266,-0.5641 -1.61783,-0.366 -1.15762,0.8333 0.33205,0.8653 1.48096,1.8517 2.55313,2.192 1.41009,0.4475 1.77334,1.1734 1.31299,2.6239 -0.55812,1.7585 -0.38682,1.8716 1.39247,0.9193 1.11589,-0.5972 4.38554,-1.0858 7.26589,-1.0858 z m -24.93426,35.9026 c -0.72041,-1.1535 -1.02919,-2.378 -0.68617,-2.721 0.73211,-0.7321 2.47744,1.7595 2.4996,3.5684 0.0212,1.7274 -0.2988,1.5779 -1.81343,-0.8474 z m 13.38167,-3.817 c -1.03208,-1.6699 4.37726,-5.1929 10.63977,-6.9294 4.63585,-1.2855 7.53072,-2.813 9.98767,-5.2699 2.40518,-2.4052 5.06186,-3.8295 8.71597,-4.673 6.82183,-1.5747 6.85539,-1.5709 7.62697,0.8601 0.84568,2.6645 -1.91268,4.8518 -6.17282,4.8948 -1.92624,0.019 -5.22764,1.4367 -8.5,3.6489 -3.02169,2.0428 -7.09149,3.8426 -9.35049,4.1351 -2.2,0.2848 -4.45,0.8418 -5,1.2378 -1.98228,1.4269 -7.46655,2.8731 -7.94707,2.0956 z m 92.75361,-4.1551 c -1.23908,-2.1053 -4.08388,-4.1513 -9.05654,-6.5135 -4.11605,-1.9553 -7.25,-4.075 -7.25,-4.9037 0,-0.8029 -0.97691,-3.4706 -2.1709,-5.9282 -2.54889,-5.2464 -2.03178,-6.3314 4.47181,-9.383 3.96519,-1.8606 4.58901,-1.8876 11.19909,-0.4862 5.01963,1.0643 10.32419,1.3284 18.75,0.9335 8.47414,-0.3972 11.75,-0.2318 11.75,0.5933 0,1.5923 -10.14964,11.2662 -13.80162,13.1547 -2.87049,1.4844 -3.25884,1.4201 -8.58355,-1.4213 -6.87688,-3.6697 -7.36399,-3.6963 -4.14426,-0.2261 3.48502,3.7561 4.03523,6.0336 2.00077,8.2817 -1.26883,1.402 -1.5379,2.8 -1.04482,5.4283 0.81563,4.3477 0.23743,4.476 -2.11998,0.4705 z m 58.14107,-1.5999 c 0.38768,-1.5568 2.19845,-5.0806 4.02395,-7.8306 2.87552,-4.3318 4.78439,-5.7684 14.28388,-10.75 6.03065,-3.1625 11.25275,-5.75 11.60468,-5.75 3.31061,0 -5.73958,12.5453 -14.67246,20.3388 -5.01947,4.3792 -7.10871,5.5328 -11.06629,6.1104 l -4.87863,0.7119 z m -178.89091,-3.5531 c -1.9548,-2.7909 -1.964,-4.1946 -0.0379,-5.7931 1.23572,-1.0255 1.84173,-0.9681 3.25183,0.308 0.95319,0.8626 2.96975,2.0386 4.48124,2.6132 1.74867,0.6649 2.74817,1.7813 2.74817,3.0696 0,1.7293 -0.64856,2.0248 -4.4433,2.0248 -3.45795,0 -4.7885,-0.4929 -6,-2.2225 z m 176.4433,-12.1633 c 0,-4.3216 2.38299,-16.6827 3.3679,-17.4699 0.62266,-0.4977 5.4071,-1.4244 10.6321,-2.0594 5.225,-0.6349 10.85,-1.3999 12.5,-1.6998 3.3415,-0.6075 4.40421,-1.8304 -10.5,12.083 -5.91695,5.5236 -16,11.2874 -16,9.1461 z m -22.61766,-23.2153 c -3.36471,-0.7068 -7.63971,-1.9491 -9.5,-2.7605 l -3.38234,-1.4753 3.0685,-0.082 c 4.18226,-0.1111 12.91369,-2.7892 18.78093,-5.7603 2.66719,-1.3506 5.0783,-2.2268 5.35803,-1.9471 0.53045,0.5304 -6.30713,12.3071 -7.51599,12.9451 -0.38031,0.2007 -3.44442,-0.2134 -6.80913,-0.9203 z m 25.8954,0.3197 c 1.30775,-3.4079 1.94247,-15.4645 0.84969,-16.1399 -2.29128,-1.416 1.74052,-5.3318 6.17446,-5.9967 2.3165,-0.3474 6.63407,-1.7539 9.59459,-3.1255 4.92489,-2.2817 5.87577,-2.4045 11.1784,-1.4429 3.96302,0.7186 7.77387,0.7323 12.05179,0.043 3.44088,-0.5542 6.45914,-0.8046 6.70724,-0.5565 0.50866,0.5087 0.13627,1.0095 -8.68595,11.6796 l -6.35204,7.6825 -6.64796,0.5878 c -7.12423,0.63 -19.71184,4.0349 -20.67447,5.5925 -0.32168,0.5205 -1.52805,1.4511 -2.68081,2.068 -1.73773,0.9301 -1.99664,0.863 -1.51494,-0.3923 z m -150.27774,-22.5636 c 0,-1.0148 0.9,-2.6595 2,-3.655 1.85722,-1.6808 2,-1.6872 2,-0.089 0,2.2547 -1.81078,5.5892 -3.03518,5.5892 -0.53065,0 -0.96482,-0.8303 -0.96482,-1.845 z m 1.4192,-45.97277 c 0.94732,-7.54518 6.09337,-21.13981 10.56585,-27.91244 2.09563,-3.17339 7.89194,-10.4948 12.8807,-16.2698 10.29522,-11.91778 14.04317,-18.09825 15.76686,-26 l 1.19977,-5.5 0.0838,6.76878 c 0.16577,13.38819 -8.06787,30.55163 -19.36064,40.35825 -7.63511,6.63033 -12.04269,13.11407 -16.6944,24.55819 -3.926,9.65874 -5.30904,10.90325 -4.44195,3.99702 z m 196.14574,1.92284 c -0.8972,-1.4517 -14.28484,-8.10508 -16.30869,-8.10508 -0.71509,0 -4.27419,-1.34849 -7.90911,-2.99664 -3.63492,-1.64815 -9.79275,-3.94482 -13.68406,-5.1037 l -7.07511,-2.10706 3.41175,-1.43453 c 1.87646,-0.78899 4.86414,-2.54233 6.63929,-3.8963 1.77515,-1.35397 3.71756,-2.46177 4.31647,-2.46177 2.94515,0 17.9767,8.76839 22.71699,13.25156 5.83808,5.52141 9.72471,11.0569 9.09333,12.95105 -0.2989,0.8967 -0.60159,0.87211 -1.20086,-0.0975 z m -76.61949,-41.04211 c 2.99173,-3.4534 6.96244,-7.00514 8.82381,-7.89276 3.18125,-1.51704 3.89052,-1.48301 11.82086,0.56706 9.47337,2.44896 17.40988,5.67841 17.40988,7.08425 0,1.02241 -9.93263,2.65096 -25.5,4.18097 -5.5,0.54055 -11.79866,1.28805 -13.99702,1.6611 l -3.99702,0.67827 z"
       id="path1" />
  </g>
</svg>
