<?xml version="1.0" encoding="UTF-8" standalone="no"?>
<!-- Created with Inkscape (http://www.inkscape.org/) -->

<svg
   version="1.1"
   id="svg1"
   width="236.76572"
   height="231.13545"
   viewBox="0 0 236.76572 231.13545"
   xmlns="http://www.w3.org/2000/svg"
   xmlns:svg="http://www.w3.org/2000/svg">
  <defs
     id="defs1" />
  <g
     id="g1"
     transform="translate(-955.19269,-572.16547)">
    <path
       d="m 955.38917,801.5347 c 0.2724,-0.9625 0.7994,-4.5835 1.1709,-8.04666 0.5762,-5.36982 1.0963,-6.60772 3.534,-8.40992 1.572,-1.1623 3.5763,-3.62628 4.4538,-5.4755 1.9627,-4.1362 2.2001,-13.25521 0.3744,-14.38357 -2.4413,-1.50882 1.6853,-11.08721 9.7233,-22.56874 9.0694,-12.95494 10.4375,-15.5367 13.898,-26.22652 2.3493,-7.25716 2.5517,-8.90497 1.7007,-13.84478 -0.8013,-4.65098 -0.6421,-6.56106 0.9335,-11.20075 1.0448,-3.07646 2.3331,-7.39356 2.8629,-9.59356 0.5298,-2.2 1.8653,-5.35 2.9677,-7 7.16623,-10.72558 12.21363,-15.76937 10.02803,-10.02088 -1.2907,3.39492 -1.3147,8.82853 -0.035,8.03792 0.5349,-0.33055 1.5324,-2.46991 2.2168,-4.75414 0.7864,-2.62468 3.4493,-6.51028 7.2357,-10.558 l 5.9915,-6.40488 1.1693,5.19175 c 1.8376,8.15926 2.5261,8.50971 16.6985,8.49901 6.7187,-0.005 13.6783,-0.39882 15.4658,-0.875 2.312,-0.6159 3.25,-0.52713 3.25,0.30753 0,1.61544 -13.311,15.01042 -17.9633,18.07669 -8.4599,5.57573 -16.1186,11.17158 -17.8852,13.06772 -1.0293,1.10489 -6.097,9.01574 -11.2615,17.57969 -5.1645,8.56394 -14.96893,23.9592 -21.78753,34.21169 -12.239,18.40247 -17.0898,27.38874 -20.5887,38.1409 -2.464,7.57224 -16.1426,23.27728 -14.1531,16.25 z m 48.97723,-82.88448 c 4.114,-6.29576 4.6621,-7.77856 4.6621,-12.61316 0,-5.27784 0.1817,-5.64865 4.9572,-10.11552 2.7264,-2.55026 5.4674,-4.63684 6.0911,-4.63684 1.379,0 15.155,-10.13003 14.5706,-10.71439 -0.2279,-0.22799 -4.173,1.27677 -8.7667,3.34391 -6.5428,2.94424 -9.5969,5.07037 -14.0979,9.81446 -4.8801,5.14374 -5.7463,6.61776 -5.75,9.78502 -0.01,4.49623 -3.6487,16.24493 -6.17933,19.92537 -1.833,2.66605 -2.5537,5.07182 -0.9871,3.29563 0.4608,-0.5225 2.93583,-4.16052 5.50003,-8.08448 z m 158.6621,69.76761 c -17.2887,-7.95797 -23.5115,-10.18083 -26.7098,-9.54116 -2.5251,0.50501 -3.2469,0.078 -5.5947,-3.30983 -1.4825,-2.1393 -2.6955,-4.32349 -2.6955,-4.85376 0,-0.53026 -1.0947,-2.57513 -2.4327,-4.54415 l -2.4327,-3.58004 5.6827,-5.59704 c 7.6783,-7.56252 14.0023,-9.67211 18.5889,-6.2009 1.0484,0.79345 4.4234,2.16948 7.5,3.05784 3.0766,0.88836 6.2688,2.18828 7.0938,2.8887 0.825,0.70042 3.6379,2.07138 6.251,3.04658 5.5753,2.08073 7.5867,3.92507 14.0677,12.89927 l 4.8186,6.67236 -5.1598,4.63911 c -2.8379,2.55151 -5.5576,5.68553 -6.0439,6.9645 -0.4862,1.27896 -1.2327,2.3178 -1.6588,2.30852 -0.4262,-0.009 -5.4998,-2.19178 -11.2748,-4.85 z m -187.38823,-8.84246 c 3.1145,-8.58671 6.7803,-15.0373 16.3355,-28.7454 4.2344,-6.0749 9.24113,-13.66356 11.12593,-16.86368 1.8847,-3.20013 5.1143,-7.38077 7.1768,-9.29031 2.0625,-1.90954 3.75,-3.92845 3.75,-4.48646 0,-1.31655 7.8217,-13.04989 9.719,-14.57941 1.1238,-0.90599 2.37,-0.85247 5.4495,0.23404 3.5218,1.24258 4.3662,1.21947 7.162,-0.19599 5.1917,-2.62841 6.5461,-4.35104 7.2564,-9.22863 0.7771,-5.33756 4.3117,-12.09486 8.9628,-17.13483 1.7765,-1.925 3.954,-4.93924 4.8391,-6.69832 0.885,-1.75908 2.9887,-5.24246 4.6748,-7.74085 1.6862,-2.49839 2.8225,-4.93605 2.5253,-5.41702 -0.3003,-0.48585 -4.2177,-0.27156 -8.8147,0.48219 -9.8609,1.61685 -24.0779,1.60363 -26.3045,-0.0245 -1.1066,-0.80916 -1.7659,-3.47924 -2.1662,-8.77198 l -0.5755,-7.60874 -4.244,3.23956 c -2.3343,1.78176 -5.6349,4.76958 -7.3347,6.6396 l -3.0907,3.40003 -0.029,-2.91214 c -0.032,-3.17232 4.4063,-11.58783 6.1114,-11.58783 2.1645,0 8.5019,-3.51598 12.859,-7.13412 4.5369,-3.76746 13.8182,-8.38101 14.8283,-7.37086 0.3,0.2999 -0.1555,3.47436 -1.0121,7.05435 l -1.5574,6.50907 2.5055,1.97078 c 1.378,1.08393 3.1421,1.97078 3.9202,1.97078 0.7782,0 2.8505,0.74242 4.6052,1.64983 2.1481,1.11078 5.2493,1.58317 9.492,1.44582 10.4389,-0.33795 10.3275,-0.46995 7.7445,9.17862 -1.2112,4.52415 -2.6884,9.80073 -3.2826,11.72573 -0.5943,1.925 -1.5664,6.2 -2.1602,9.5 -0.5939,3.3 -3.1387,10.275 -5.6552,15.5 -5.0441,10.47299 -4.0121,9.6358 -20.3946,16.54507 l -7.5995,3.20505 -3.967,-2.83411 c -4.8397,-3.45751 -5.6508,-3.56553 -5.0009,-0.66601 0.3647,1.62725 -0.7258,3.77228 -3.9401,7.75 -2.4445,3.025 -7.6786,10 -11.6315,15.5 -3.9529,5.5 -7.99943,10.57265 -8.99213,11.27256 -2.5928,1.82798 -13.493,18.41261 -14.7079,22.37794 -0.5644,1.84222 -1.2957,4.96377 -1.6252,6.93678 -0.5624,3.36854 -6.7007,11.91272 -8.5582,11.91272 -0.4581,0 0.2621,-3.0192 1.6006,-6.70933 z m 9.3882,3.21734 c 0,-0.15367 0.6792,-1.56833 1.5093,-3.1437 0.8302,-1.57537 1.7702,-4.44286 2.0891,-6.3722 0.4696,-2.84092 1.4158,-3.98173 4.9769,-6 2.4184,-1.37066 6.54083,-5.15945 9.16093,-8.41953 3.2873,-4.09025 7.0884,-7.29556 12.2638,-10.34159 12.5501,-7.38642 17.3285,-12.04319 31.8506,-31.03985 6.3299,-8.28024 8.6568,-9.41283 7.5834,-3.69114 -1.0231,5.45356 1.1563,4.26421 4.123,-2.25 1.4402,-3.1625 3.4638,-7.55 4.4967,-9.75 1.0329,-2.2 2.326,-5.22112 2.8736,-6.7136 0.6581,-1.79395 2.7394,-3.59728 6.1411,-5.32108 3.1021,-1.57192 4.9283,-2.08282 4.5983,-1.2864 -0.301,0.72659 -1.3044,3.76372 -2.2297,6.74916 -0.9254,2.98544 -2.9151,7.12968 -4.4216,9.20941 -3.1334,4.32551 -5.4253,14.16059 -4.4774,19.21345 0.4739,2.52592 0,4.62942 -1.8846,8.34637 -1.385,2.73315 -3.1111,4.97976 -3.8358,4.99249 -0.7247,0.0127 -8.0676,3.29583 -16.3176,7.29581 -8.25,3.99997 -16.8979,8.0923 -19.2175,9.09405 -2.5103,1.08412 -7.9859,5.58555 -13.5276,11.12085 -15.09153,15.07404 -16.96933,16.6129 -21.51993,17.63536 -2.3293,0.52334 -4.235,0.82581 -4.235,0.67214 z m 65.79873,-52.96547 c 1.1601,-2.54632 2.7835,-10.36838 1.9804,-9.54254 -1.9234,1.97777 -11.7791,14.03415 -11.7791,14.40919 0,0.25818 1.9623,-0.19921 4.3607,-1.01642 2.714,-0.92477 4.7675,-2.37866 5.438,-3.85023 z m 138.846,36.45746 c -3.9288,-18.39243 -24.2886,-74 -27.0938,-74 -0.2247,0 1.83,6.6375 4.5659,14.75 5.234,15.52005 15.349,54.11758 14.4244,55.04213 -0.2977,0.29766 -0.5412,0.0278 -0.5412,-0.59978 0,-0.62755 -1.3298,-1.82867 -2.9552,-2.66916 -2.2211,-1.14861 -3.1076,-2.45894 -3.5689,-5.27568 -1.0345,-6.31577 -13.1886,-42.89174 -19.4467,-58.52159 -7.9002,-19.73145 -14.0013,-31.78817 -20.3086,-40.13298 -2.8713,-3.79888 -5.6437,-7.47239 -6.1608,-8.16335 -0.6397,-0.85464 -0.032,-2.62868 1.9005,-5.54892 l 2.8407,-4.29263 6.3394,6.95598 c 7.0307,7.7145 21.9521,30.63643 29.4751,45.27898 8.0363,15.64167 16.3694,44.11873 21.8587,74.69861 1.86,10.36189 0.7833,12.36915 -1.3295,2.47839 z m -193.64473,-5.44098 c 0,-0.85746 0.45,-1.55902 1,-1.55902 0.55,0 1,0.42344 1,0.94098 0,0.51754 -0.45,1.2191 -1,1.55902 -0.55,0.33992 -1,-0.0835 -1,-0.94098 z m 2,-3.40403 c 0,-1.32642 3.93743,-4.55089 4.66673,-3.82166 0.3599,0.35993 -0.1626,1.55717 -1.1612,2.66054 -1.88673,2.08479 -3.50553,2.62098 -3.50553,1.16112 z m 91.77893,-8.90499 c 0.31,-5.36027 -0.047,-9.41745 -1.1583,-13.15764 -1.3046,-4.39145 -1.3897,-6.13088 -0.4533,-9.25644 0.6342,-2.11685 0.8701,-4.13187 0.5241,-4.47783 -1.083,-1.08304 -5.5813,2.5184 -8.3262,6.6662 -1.447,2.18664 -2.9087,3.96464 -3.2481,3.95111 -0.3394,-0.0135 -1.385,-1.56889 -2.3235,-3.45634 -1.7366,-3.49267 -1.5433,-6.48939 1.1944,-18.51906 4.8258,-21.20458 5.5999,-22.7356 13.512,-26.72426 2.75,-1.38633 7.8743,-4.51867 11.3874,-6.96075 4.5091,-3.13441 6.6999,-4.12767 7.45,-3.37757 0.5844,0.58442 2.0976,1.06258 3.3626,1.06258 2.7979,0 2.8478,0.64903 0.3418,4.45068 l -1.9451,2.95068 7.9031,2.54932 7.9031,2.54932 -4.4107,7.29701 c -3.8166,6.31413 -4.1805,7.37682 -2.7015,7.8895 0.9401,0.32587 4.6343,1.84247 8.2093,3.37023 3.575,1.52775 7.85,2.92748 9.5,3.1105 2.1061,0.23361 2.8705,0.7797 2.5654,1.83276 -0.239,0.825 -0.62,3.6375 -0.8465,6.25 -0.2266,2.6125 -0.6079,4.75 -0.8475,4.75 -0.2396,0 -2.0417,-0.67107 -4.0048,-1.49127 -3.5208,-1.4711 -3.6242,-1.44405 -7.6479,2.00002 -6.3687,5.45141 -7.6799,8.02356 -7.003,13.7382 l 0.5807,4.90375 -3.7675,-1.57418 c -3.7426,-1.56376 -3.7916,-1.55327 -7.3982,1.58446 -1.9969,1.73724 -6.3351,6.01172 -9.6404,9.49882 -8.1901,8.64037 -9.2823,8.4636 -8.7114,-1.4098 z m -93.07703,6.11852 c -0.989,-0.98891 1.203,-4.36852 2.8333,-4.36852 1.90913,0 1.86383,1.45818 -0.1066,3.42857 -1.7799,1.77989 -1.8594,1.80729 -2.7267,0.93995 z m 127.86113,-9.08291 c -1.2886,-15.65253 -1.574,-14.24773 3.6617,-18.02648 5.1722,-3.73293 6.8441,-3.714 11.5307,0.13053 1.5095,1.23831 5.2196,2.79053 8.2446,3.44939 9.9436,2.16577 19,7.29832 19,10.76792 0,1.90889 -8.6592,5.60819 -11.388,4.86506 -1.1616,-0.31635 -4.2334,-1.52137 -6.8263,-2.67782 -4.3873,-1.95681 -5.0774,-2.00525 -9.9508,-0.69842 -4.2756,1.14653 -5.8628,2.22999 -8.6492,5.90421 -1.8769,2.475 -3.7471,4.62852 -4.156,4.78561 -0.4088,0.15708 -1.0688,-3.66792 -1.4667,-8.5 z m -121.1024,6.65056 c -0.6283,-1.01648 2.1438,-3.83687 3.8374,-3.90437 0.4388,-0.0175 1.87,-1.2693 3.1804,-2.7818 1.8562,-2.14256 2.6512,-2.4856 3.599,-1.553 0.9509,0.93558 0.4201,1.66692 -2.4304,3.34877 -2.0059,1.18348 -3.647,2.5415 -3.647,3.01782 0,1.50717 -3.7972,3.07356 -4.5394,1.87258 z m -2.1379,-3.53765 c -0.8776,-2.28692 2.4727,-4.81322 4.3342,-3.26827 1.535,1.2739 1.021,2.43659 -1.7274,3.9075 -1.5485,0.8287 -2.0949,0.6947 -2.6068,-0.63923 z m 6.1362,-4.46505 c -0.6173,-0.99876 2.1351,-3.83145 3.7911,-3.90167 1.1755,-0.0498 0.8781,2.44007 -0.45,3.7682 -1.4823,1.48228 -2.4828,1.52225 -3.3411,0.13347 z m 7.1087,-0.82409 c -0.8437,-1.36507 4.452,-4.48979 5.6236,-3.31821 0.6365,0.63649 0.1728,1.54089 -1.3294,2.5931 -2.6281,1.84077 -3.5124,1.99009 -4.2942,0.72511 z m -1.5676,-3.45439 c 0,-0.73976 0.8553,-2.11907 1.9007,-3.06515 2.565,-2.32129 3.9179,-0.15185 1.5423,2.47317 -2.0439,2.25848 -3.443,2.49903 -3.443,0.59198 z m 7.4589,-0.72152 c -0.6822,-1.10373 2.2163,-3.84565 4.1244,-3.90167 2.0744,-0.0609 2.4102,1.31794 0.7639,3.13705 -1.8558,2.0506 -3.8963,2.36977 -4.8883,0.76462 z m -1.4589,-4.39829 c 0,-1.76469 3.6206,-3.8877 5.0858,-2.98215 0.6679,0.4128 0.4243,1.33078 -0.6756,2.54625 -2.0442,2.25874 -4.4102,2.4926 -4.4102,0.4359 z m 7,-0.88019 c 0,-0.73976 0.8906,-2.15101 1.9792,-3.13612 1.8123,-1.64015 2.0324,-1.65214 2.6118,-0.14225 0.7254,1.89021 -1.1743,4.62338 -3.2134,4.62338 -0.7577,0 -1.3776,-0.60526 -1.3776,-1.34501 z m -1,-3.54421 c 0,-1.89543 3.704,-5.41178 4.9133,-4.66439 0.9147,0.56535 0.6509,1.38859 -1.0124,3.15911 -2.3117,2.46068 -3.9009,3.07392 -3.9009,1.50528 z m 7.4237,-1.44896 c -0.3399,-0.88573 0.056,-2.28444 0.8799,-3.10824 1.2324,-1.23248 1.6919,-1.26392 2.5936,-0.17749 0.8232,0.9919 0.6043,1.76506 -0.8799,3.10824 -1.7827,1.61332 -2.0359,1.63065 -2.5936,0.17749 z m -1.757,-4.32849 c -0.9418,-0.94181 -0.8011,-1.57177 0.8338,-3.73171 1.1991,-1.58415 1.6946,-1.68456 2.9935,-0.60662 1.4043,1.16549 1.3922,1.47326 -0.1238,3.14838 -1.7944,1.98286 -2.6392,2.25429 -3.7035,1.18995 z m 6.4616,-0.67872 c -0.8989,-1.08312 -0.7433,-1.90853 0.6947,-3.68433 1.051,-1.29794 2.356,-1.97766 3.015,-1.57037 1.701,1.05122 1.4208,3.05592 -0.6946,4.97033 -1.5756,1.42586 -2.032,1.46891 -3.0151,0.28437 z m -2.1283,-6.09559 c 0,-1.79236 1.6522,-2.89201 3.0486,-2.02901 0.7168,0.44301 0.678,1.09446 -0.1225,2.05902 -1.5109,1.82058 -2.9261,1.80607 -2.9261,-0.03 z m 6.57,-1.44571 c -0.6532,-1.05695 2.213,-3.6636 3.0777,-2.79894 0.8332,0.8332 -0.372,3.68563 -1.5573,3.68563 -0.5348,0 -1.219,-0.39901 -1.5204,-0.88669 z m -8.9561,-20.97542 c -1.7322,-1.9251 -1.7491,-2.14879 -0.2069,-2.74058 2.1651,-0.83084 2.8348,-0.10314 2.4238,2.63387 l -0.3308,2.2029 z m 39.3861,-13.62016 c 0,-3.04624 2.9055,-7.23596 5.8695,-8.46367 3.6358,-1.50599 10.0373,-9.05964 12.5857,-14.85088 1.5518,-3.52639 3.608,-5.45702 11.4678,-10.76739 5.2673,-3.55881 10.927,-7.47524 12.577,-8.70318 8.0645,-6.00162 10.3552,-7.56877 14.75,-10.09092 2.6125,-1.4993 4.75,-2.33745 4.75,-1.86255 0,0.47489 -2.6865,5.10636 -5.9701,10.29215 -3.2835,5.18579 -7.446,11.88148 -9.25,14.87931 -1.8039,2.99783 -5.1932,7.32786 -7.5316,9.6223 -5.7014,5.59409 -28.0291,18.19928 -36.9983,20.88751 -1.6837,0.50465 -2.25,0.2674 -2.25,-0.94268 z m -12.5,-38.63971 c -1.1,-0.64514 -2.149,-1.29313 -2.3312,-1.43999 -0.1821,-0.14685 1.7304,-2.798 4.25,-5.89143 2.5197,-3.09344 4.5812,-6.05692 4.5812,-6.58551 0,-0.5286 0.7517,-0.96109 1.6705,-0.96109 0.9187,0 4.2789,-2.5875 7.467,-5.75 3.1881,-3.1625 8.1001,-7.775 10.9156,-10.25 2.8154,-2.475 6.7947,-6.20621 8.8428,-8.29157 2.2988,-2.34059 4.3001,-3.57043 5.2297,-3.21371 0.8283,0.31782 2.8263,-0.1107 4.4402,-0.95227 1.6138,-0.84157 3.4086,-1.5329 3.9884,-1.53629 0.5798,-0.003 3.1965,-1.36472 5.8147,-3.02518 2.6183,-1.66046 5.1757,-2.76245 5.6831,-2.44886 0.5074,0.31358 4.1837,-0.60621 8.1695,-2.04398 l 7.247,-2.61414 16.5761,1.2163 16.5761,1.21631 4.9396,-2.8118 c 2.7169,-1.54649 6.8428,-4.62491 9.1687,-6.84094 2.326,-2.21602 4.4684,-3.78985 4.7608,-3.49739 0.8197,0.81971 -6.0394,13.89699 -9.4332,17.98485 -1.6627,2.00273 -4.5227,4.52616 -6.3557,5.60762 l -3.3326,1.9663 -1.7253,-4.85763 c -2.3577,-6.63824 -3.8959,-6.24367 -3.479,0.89238 l 0.336,5.75 -7.25,0.29381 c -6.6635,0.27004 -7.25,0.13325 -7.25,-1.69098 0,-1.09164 -0.45,-2.26291 -1,-2.60283 -0.55,-0.33992 -1.0069,-2.05398 -1.0153,-3.80902 -0.01,-1.75504 -0.4275,-3.84251 -0.9313,-4.63883 -1.4214,-2.24675 -2.4211,3.118 -1.656,8.88619 l 0.641,4.83187 -3.7692,0.68214 c -2.0731,0.37517 -5.498,1.81058 -7.611,3.1898 -2.1129,1.37922 -3.9129,2.36146 -4,2.18276 -0.087,-0.1787 -0.9457,-1.74434 -1.9082,-3.4792 -0.9625,-1.73486 -1.75,-4.44723 -1.75,-6.0275 0,-3.0622 -2.4215,-7.31821 -4.1637,-7.31821 -0.6044,0 -0.7485,0.74297 -0.3395,1.75 0.3909,0.9625 1.0859,4.225 1.5443,7.25 0.4584,3.025 1.1218,6.64686 1.4742,8.04858 0.5699,2.26648 0.093,2.84674 -4.3084,5.24228 -2.7221,1.48154 -5.5123,3.37218 -6.2005,4.20142 -0.6882,0.82925 -1.6008,1.50772 -2.0279,1.50772 -1.2734,0 -4.9785,-7.8633 -4.9785,-10.56598 0,-2.46281 -2.5998,-7.43402 -3.8877,-7.43402 -1.167,0 0.6016,12.35805 2.4382,17.03749 l 1.7809,4.5375 -5.2757,7.25349 -5.2758,7.25349 -5.6399,-5.29099 c -3.102,-2.91004 -6.2062,-6.83216 -6.8982,-8.71584 -0.692,-1.88367 -1.4519,-3.61854 -1.6886,-3.85528 -0.7935,-0.79352 0.6901,11.26869 1.4945,12.15101 0.4367,0.47898 -1.5328,2.47158 -4.3768,4.428 -4.3766,3.01074 -6.1693,3.61051 -11.6709,3.90463 -3.8093,0.20365 -7.3279,-0.13806 -8.5,-0.82548 z m -10.0916,-5.25607 c -1.2654,-3.29764 1.1831,-8.1084 5.2848,-10.38357 4.1673,-2.31157 17.3068,-7.37518 17.3068,-6.6696 0,0.21482 -1.8177,1.31787 -4.0392,2.45123 -2.2216,1.13337 -4.8091,3.32132 -5.75,4.86211 -1.5473,2.53366 -10.6605,11.11788 -11.803,11.11788 -0.2588,0 -0.7085,-0.62012 -0.9994,-1.37805 z m -24.3386,-6.86535 c 0.5116,-1.78387 0.9302,-4.42877 0.9302,-5.87755 0,-1.44879 0.6525,-3.17568 1.45,-3.83753 2.7673,-2.29665 6.8436,-12.92693 8.0686,-21.04152 0.5657,-3.74727 2.4057,-7.44418 7.5744,-15.21803 1.0321,-1.55238 13.2757,-3.60745 18.1913,-3.05339 3.9594,0.44628 5.3657,0.10706 8.6979,-2.09812 2.1862,-1.44675 4.5471,-2.64298 5.2464,-2.65828 0.6993,-0.0153 3.065,-1.38461 5.2571,-3.04291 4.7585,-3.59969 5.3448,-2.6993 3.0316,4.65517 -1.4215,4.51926 -2.8929,6.49631 -8.8609,11.90626 -3.936,3.56794 -7.7301,6.49214 -8.4314,6.49823 -0.7012,0.006 -1.5435,-1.33163 -1.8718,-2.9727 -0.6375,-3.18797 -2.3532,-3.17445 -2.3532,0.0185 0,1.0542 -1.575,3.34995 -3.5,5.10166 -2.9017,2.64046 -3.5026,3.884 -3.5153,7.27425 -0.017,4.53627 -1.2893,7.52346 -2.4231,5.68897 -0.3786,-0.61263 -2.007,-1.79575 -3.6187,-2.62916 -2.7443,-1.41916 -3.2319,-1.35481 -7.6865,1.01446 l -4.7564,2.52975 4.7063,-0.61434 c 3.8659,-0.50463 5.1845,-0.2381 7.3848,1.49266 l 2.6786,2.10702 h -2.6598 c -2.1768,0 -2.773,0.5653 -3.2824,3.11267 -0.4551,2.27551 -1.4892,3.47475 -3.8446,4.45894 -1.7722,0.74045 -5.2494,2.89375 -7.7272,4.7851 -4.3642,3.33127 -8.1007,5.64329 -9.1202,5.64329 -0.2727,0 -0.077,-1.45953 0.4343,-3.2434 z m 30.3502,-31.10449 c -0.2845,-0.74133 -1.8686,-2.34698 -3.5203,-3.56811 -2.2251,-1.64511 -3.7637,-2.05314 -5.9399,-1.57518 -4.116,0.90402 -4.7063,2.49118 -0.9265,2.49118 1.7332,0 4.2954,0.9 5.6938,2 2.91,2.28898 5.4568,2.64288 4.6929,0.65211 z m 55.33,32.26779 c -2.5496,-1.48502 -2.1802,-2.4909 1.8235,-4.96535 2.9471,-1.82139 3.999,-2.01475 6,-1.103 3.1958,1.4561 3.0587,2.20874 -0.8922,4.89845 -3.6884,2.51096 -4.4175,2.63403 -6.9313,1.1699 z"
       id="path1" />
  </g>
</svg>
