<?xml version="1.0" encoding="UTF-8" standalone="no"?>
<!-- Created with Inkscape (http://www.inkscape.org/) -->

<svg
   version="1.1"
   id="svg1"
   width="223.71724"
   height="246.78813"
   viewBox="0 0 223.71724 246.78813"
   xmlns="http://www.w3.org/2000/svg"
   xmlns:svg="http://www.w3.org/2000/svg">
  <defs
     id="defs1" />
  <g
     id="g1"
     transform="translate(-159.11658,-856.19915)">
    <path
       d="m 196.02556,1100.0455 c -0.93692,-1.6465 -2.37849,-3.0064 -3.20349,-3.022 -0.825,-0.016 -3.49275,-0.9323 -5.92833,-2.0372 -4.37042,-1.9827 -4.39984,-2.029 -2.25,-3.5348 2.83072,-1.9827 3.23876,-10.4123 0.50401,-10.4123 -1.44329,0 -1.38626,-0.3105 0.4133,-2.25 1.14819,-1.2375 2.85566,-4.6194 3.79439,-7.5152 0.93873,-2.8959 2.0493,-5.4769 2.46794,-5.7356 0.41864,-0.2588 2.27711,1.9889 4.12992,4.9947 2.41838,3.9234 3.9907,5.471 5.57328,5.4856 3.85659,0.036 14.94429,-4.5396 20.26593,-8.3628 3.25908,-2.3414 4.81001,-3.0388 4.23682,-1.9051 -5.35905,10.5998 -7.20192,15.07 -7.76748,18.8414 -0.36678,2.4458 -1.00469,4.447 -1.41757,4.447 -0.93804,0 -15.60659,11.5185 -16.49108,12.9496 -1.11769,1.8085 -2.56177,1.16 -4.32764,-1.9433 z m 27.50413,-5.6704 c -1.30928,-2.1184 -1.78752,-8.3653 -0.87637,-11.4473 0.551,-1.8637 4.22333,-10.3636 8.16072,-18.8886 10.63908,-23.0351 15.06656,-40.7171 13.14574,-52.5 -0.98379,-6.0349 -1.23082,-5.1837 -3.5365,12.185 -2.5192,18.9771 -3.46524,19.1577 -3.53783,0.6755 -0.0712,-18.1385 -1.59522,-28.28014 -6.10774,-40.64472 -3.41952,-9.3697 -7.71803,-16.42471 -11.88389,-19.50466 -3.85531,-2.85036 -4.99335,-2.83149 -2.34211,0.0388 11.03237,11.94402 18.01984,39.74018 16.41192,65.28688 -0.9992,15.8753 -4.66851,24.3775 -13.14156,30.4505 l -2.5,1.7918 -0.12841,-8.6396 c -0.13367,-8.9941 -2.93196,-22.0246 -6.44546,-30.014 -2.66505,-6.0601 -16.79765,-29.67126 -17.33855,-28.96736 -0.14442,0.188 0.17218,3.9418 0.70357,8.34176 1.07642,8.913 0.22654,13.6547 -3.49507,19.5 -2.18124,3.4259 -2.23495,3.4471 -2.53728,1 -0.74246,-6.0097 -2.66667,-11.9429 -7.74224,-23.87286 -8.76968,-20.61299 -9.18889,-25.47298 -2.90713,-33.70253 4.04469,-5.29884 4.0949,-6.29103 0.14637,-2.89247 -5.14253,4.42625 -7.7558,9.34815 -7.7558,14.60743 0,3.36969 -0.40661,4.86045 -1.32569,4.86045 -0.72913,0 -2.30413,1.04151 -3.5,2.31446 -3.82376,4.07016 -2.52762,19.02002 2.5173,29.03492 3.00865,5.9726 4.03894,5.4338 1.97841,-1.0346 -2.10717,-6.6149 -3.07051,-14.94926 -1.81745,-15.72366 1.96795,-1.2163 4.14743,3.74196 4.14743,9.43516 0,5.0965 0.31144,5.8807 3.58532,9.0275 4.85205,4.6638 6.52326,8.1793 6.56691,13.8142 0.043,5.5582 -1.97767,10.9404 -5.29203,14.0955 -2.32652,2.2147 -2.33166,2.2631 -0.3602,3.3916 1.1,0.6297 4.63768,3.7106 7.86152,6.8464 l 5.86152,5.7015 -2.33324,3.7985 c -1.28328,2.0892 -4.02874,6.2289 -6.10103,9.1993 l -3.76781,5.4008 -2.11063,-4.7714 c -1.66486,-3.7637 -1.9896,-5.9604 -1.53758,-10.4008 l 0.57307,-5.6294 -1.60974,3.5 c -2.46085,5.3506 -2.31749,14.8175 0.28015,18.5 1.66378,2.3586 2.0164,4.0155 1.6493,7.75 -0.2568,2.6125 -0.83161,4.75 -1.27733,4.75 -3.11896,0 -9.9882,-14.8878 -9.9882,-21.6475 0,-6.4198 3.41409,-18.4784 7.54896,-26.663 2.44807,-4.8457 4.45104,-9.4882 4.45104,-10.3167 0,-0.8284 -1.08896,-2.9387 -2.4199,-4.6895 -7.61776,-10.0209 -15.23263,-32.56626 -14.18932,-42.01046 0.75206,-6.80773 4.24245,-13.82602 11.80547,-23.73783 3.59446,-4.71076 7.06159,-9.54826 7.70475,-10.75 0.86604,-1.61822 2.0924,-2.18499 4.7278,-2.18499 2.72389,0 3.68177,-0.47162 4.08431,-2.01093 0.62917,-2.40596 5.14185,-3.84178 6.28106,-1.99849 0.61365,0.9929 1.75721,0.88788 5.37441,-0.49354 3.89204,-1.48638 5.06128,-1.56162 7.64385,-0.49189 2.77433,1.14917 3.6289,0.96856 9.48757,-2.00515 5.88028,-2.98467 6.70551,-3.15751 9.51646,-1.99318 1.69282,0.70119 3.71499,2.50698 4.49371,4.01286 1.65436,3.19918 3.7325,4.2085 6.98454,3.3923 3.06918,-0.77032 8.36529,1.81663 12.54271,6.12664 3.18719,3.28834 3.24095,3.46138 1.07541,3.46138 -3.59784,0 -2.0426,1.96268 4.86489,6.13936 4.49748,2.71945 7.53108,3.86064 10.26257,3.86064 4.65134,0 4.15473,1.64767 -0.77537,2.57256 -1.90571,0.35752 -3.46492,1.03839 -3.46492,1.51305 0,1.46083 5.22071,3.66043 11.72527,4.94013 6.09888,1.19988 6.26297,1.31939 10.08715,7.34699 2.13807,3.36999 4.96745,8.00429 6.28749,10.29839 3.61845,6.2886 13.57787,13.05146 25.90009,17.58736 5.90461,2.1736 11.71652,5.0266 13.27962,6.5188 3.79198,3.6201 8.54849,13.4462 9.31841,19.2502 l 0.63412,4.7802 4.63393,0.6788 c 8.54453,1.2516 12.92922,3.8701 15.14803,9.0464 1.09224,2.5481 1.98589,4.9899 1.98589,5.4262 0,0.4363 -2.47846,0.9988 -5.50769,1.25 -3.76138,0.3119 -6.21865,1.1241 -7.75,2.5617 -4.98754,4.6822 -15.21519,7.5199 -20.2037,5.6056 -1.49201,-0.5725 -1.49369,-0.7686 -0.0205,-2.3964 1.61512,-1.7847 2.29304,-8.8586 1.04282,-10.8815 -0.36976,-0.5983 -1.58129,-1.5742 -2.69229,-2.1688 -1.83452,-0.9818 -1.91847,-0.8914 -0.91421,0.9851 1.52219,2.8442 1.6176,8.691 0.17028,10.4349 -0.65777,0.7926 -2.86741,1.7509 -4.91031,2.1296 -2.04291,0.3788 -5.17687,1.5875 -6.96437,2.6862 -1.7875,1.0987 -3.24812,1.8484 -3.24582,1.666 0.002,-0.1823 1.12688,-2.5444 2.49906,-5.2491 1.37218,-2.7047 2.33476,-5.0777 2.13908,-5.2734 -0.19568,-0.1957 -2.33276,0.7743 -4.74905,2.1555 -2.4163,1.3813 -5.70052,2.5168 -7.29826,2.5234 -2.75114,0.011 -2.81734,-0.085 -1.25,-1.8167 2.41183,-2.665 2.04368,-3.2027 -1.37654,-2.0104 -3.41186,1.1894 -10.85005,0.3801 -13.3447,-1.4518 -1.34555,-0.9882 -0.40264,-1.209 5.1616,-1.209 4.91378,0 7.58416,-0.5091 9.59802,-1.8299 3.8982,-2.5566 2.7063,-3.0574 -3.80748,-1.5997 -6.89784,1.5437 -11.69497,0.2315 -17.58509,-4.8103 -4.17628,-3.5747 -4.48014,-2.3793 -0.76,2.9899 1.04795,1.5125 1.44762,2.75 0.88816,2.75 -1.89077,0 -5.81969,-6.4589 -8.52443,-14.0136 -2.58566,-7.2221 -2.62812,-7.6618 -1.09434,-11.3327 1.35464,-3.2421 1.825,-3.6287 3.11368,-2.5592 0.83489,0.6929 2.22261,2.6426 3.08382,4.3327 2.18618,4.2902 6.6754,8.0266 14.52732,12.0914 10.16775,5.2636 15.92731,4.2361 11.21346,-2.0004 -0.82385,-1.0899 -2.63547,-5.5899 -4.02583,-10 -3.26658,-10.3611 -6.30961,-15.4571 -12.3233,-20.6372 -3.82691,-3.2964 -5.24421,-5.3957 -6.6086,-9.7887 -3.9135,-12.60036 -4.89217,-14.75766 -8.35829,-18.4247 -5.5601,-5.88234 -13.39967,-9.20487 -11.60313,-4.91758 1.14884,2.74162 2.66508,11.39892 2.09607,11.96792 -0.28188,0.2819 -2.21319,-0.8893 -4.2918,-2.6027 -5.24517,-4.32351 -6.75899,-4.04122 -8.76671,1.6348 -2.14081,6.0522 -2.22284,5.23 1.55941,15.63166 2.94751,8.106 3.62454,9.1322 7.7524,11.75 2.48757,1.5775 5.53319,2.8683 6.76805,2.8683 1.23486,0 2.44991,0.3375 2.7001,0.75 0.75839,1.2504 -4.20004,17.1527 -8.49665,27.25 -5.24258,12.3203 -11.15874,21.1301 -21.45701,31.9518 -4.58386,4.8169 -9.41772,10.6653 -10.74191,12.9966 -1.32419,2.3313 -2.64434,3.8557 -2.93367,3.3875 z m 45.04238,-45.4901 c -2.6125,-1.6582 -4.75,-3.3719 -4.75,-3.8082 0,-0.4364 0.71327,-2.5005 1.58504,-4.5869 1.20758,-2.8902 1.79928,-3.4551 2.48469,-2.3721 0.4948,0.7817 0.90653,2.1326 0.91496,3.0019 0.008,0.8693 1.0791,3.6818 2.3793,6.25 1.30019,2.5682 2.31269,4.6382 2.25,4.5999 -0.0627,-0.038 -2.25149,-1.4263 -4.86399,-3.0846 z m 90.28543,-36.3524 c -0.0195,-2.2036 0.37613,-5.4416 0.87914,-7.1955 0.50302,-1.754 1.23403,-6.17204 1.62448,-9.81804 l 0.70991,-6.629 -5.37379,-4.96627 c -5.35758,-4.95129 -5.38961,-4.96428 -10.62448,-4.31023 -2.88788,0.36082 -5.25069,0.34776 -5.25069,-0.029 0,-3.06849 14.854,-18.5454 17.799,-18.5454 0.59585,0 3.13745,2.025 5.64799,4.5 3.96713,3.91097 5.12017,4.49971 8.80881,4.49775 l 4.2442,-0.002 -0.34081,7.22541 c -0.22945,4.86448 -0.92197,8.05111 -2.11941,9.75221 -0.97824,1.3898 -2.80336,4.5519 -4.05583,7.0269 -1.25247,2.475 -3.78623,6.47717 -5.63058,8.89377 -1.84436,2.4166 -3.36932,5.3416 -3.38881,6.5 -0.0195,1.1584 -0.67854,3.2312 -1.46456,4.6062 -1.41866,2.4817 -1.42939,2.4706 -1.46457,-1.5066 z m -37.53543,-4.5224 c -4.4,-1.6043 -8.75298,-2.9292 -9.67328,-2.944 -0.9203,-0.015 -2.9453,-1.0905 -4.5,-2.3904 -1.5547,-1.2998 -4.6501,-3.28854 -6.87868,-4.41924 -2.94883,-1.4963 -5.06045,-3.7551 -7.75629,-8.2971 -2.03739,-3.4326 -3.53419,-6.41121 -3.32623,-6.61917 0.20795,-0.20796 2.34829,1.21618 4.75629,3.16477 6.05041,4.896 10.19195,6.6202 18.6179,7.7509 6.4748,0.8689 7.68983,0.7527 11.5,-1.0997 2.34316,-1.1392 5.57239,-3.294 7.17606,-4.7884 2.30318,-2.1462 4.5474,-2.9536 10.68173,-3.84285 l 7.76596,-1.12576 3.56827,3.26901 c 3.6186,3.315 4.04153,4.7086 3.6028,11.8709 -0.28251,4.61204 -1.56768,7.50004 -3.33758,7.50004 -0.67798,0 -2.88827,1.125 -4.91176,2.5 -5.42308,3.6851 -16.30684,3.4741 -27.28519,-0.529 z m -14.62018,-20.35104 c -4.04833,-1.0908 -7.64426,-3.00695 -17.87982,-9.52742 -2.48563,-1.58344 -2.46844,-1.59547 2.99133,-2.0926 4.52085,-0.41163 5.54393,-0.85346 5.78893,-2.5 1.22649,-8.24241 2.12084,-8.34169 6.20008,-0.68826 1.70369,3.19646 5.13998,8.14646 7.63619,11 4.16657,4.76298 4.34779,5.18278 2.21102,5.12078 -1.28016,-0.037 -4.40663,-0.6277 -6.94773,-1.3125 z m -34.37982,-14.52981 c -2.97679,-0.66796 -2.98267,-0.68275 -0.76035,-1.91133 1.80116,-0.99575 5.26035,-5.87947 5.26035,-7.42661 0,-0.19088 -2.86302,-0.16475 -6.36226,0.0581 -4.99479,0.31804 -7.4128,-0.0629 -11.25,-1.77251 l -4.88774,-2.17763 3.48088,-1.4789 3.48087,-1.4789 -3.90313,-2.2012 c -6.20987,-3.50209 -5.73595,-4.7012 1.85804,-4.7012 5.25,0 6.9884,0.40507 8.58334,2 1.61905,1.61905 3.33333,2 9,2 3.85,0 7,-0.37776 7,-0.83948 0,-1.20622 -4.66671,-3.16052 -7.54706,-3.16052 -2.71449,0 -6.45294,-3.17464 -6.45294,-5.47976 0,-0.81387 -0.73844,-3.32529 -1.64097,-5.58093 -1.93658,-4.84001 -3.3942,-3.62041 -2.61512,2.1881 l 0.51943,3.87259 h -5.53381 -5.5338 l 1.40214,-4.65893 c 0.77117,-2.56241 1.40213,-5.63397 1.40213,-6.82568 0,-1.19172 1.12828,-3.22672 2.50729,-4.52223 2.348,-2.20584 2.58835,-2.24462 3.78327,-0.61047 1.16672,1.59558 1.91538,1.23034 8.74271,-4.2652 24.42931,-19.66396 25.43693,-20.64612 29.03118,-28.29759 l 2.02925,-4.3199 -0.64496,6.5 c -0.35473,3.575 -1.52652,8.525 -2.60396,11 -1.50623,3.45995 -1.80375,5.63273 -1.28729,9.40097 0.62154,4.53491 0.53244,4.83744 -1.19289,4.05043 -1.02553,-0.4678 -4.8333,-1.01996 -8.4617,-1.22703 -6.36967,-0.36352 -6.68857,-0.2678 -9.25,2.77629 -3.16528,3.76172 -3.49075,8.81648 -0.90135,13.9982 1.92442,3.85099 4.6259,5.45653 10.88531,6.46934 3.69646,0.59811 4.52151,0.33164 7.75,-2.503 3.80326,-3.33931 4.68202,-7.09946 2.57795,-11.03094 -1.87737,-3.50791 -12.98146,-1.8019 -13.73486,2.1102 -0.15827,0.82183 0.39285,2.38552 1.22471,3.47489 1.49376,1.95615 1.5203,1.95282 2.14553,-0.26935 0.47098,-1.67391 1.37936,-2.25 3.54782,-2.25 3.30158,0 4.71873,2.25072 2.84142,4.51274 -0.78151,0.94166 -3.01074,1.48726 -6.07669,1.48726 -5.92055,0 -7.1513,-1.70112 -6.71396,-9.27996 l 0.30122,-5.22004 h 6.5 c 5.50289,0 7.267,0.47098 11.5,3.07022 3.97316,2.4397 5.27765,3.93325 6.35196,7.27258 1.34881,4.19257 1.34298,4.21293 -2.5,8.73707 -2.11858,2.4941 -5.98148,7.54644 -8.58423,11.22743 -4.01283,5.67522 -4.73496,7.40949 -4.75,11.40752 -0.0136,3.62648 -0.46422,4.95377 -1.95199,5.75 -2.10585,1.12702 -13.75142,1.20567 -18.56574,0.12539 z m 72.5,-9.58364 c 0,-1.43568 -1.00813,-4.362 -2.24029,-6.50292 l -2.24029,-3.89259 2.75998,-2.8808 c 3.24936,-3.3916 4.7206,-7.90252 4.7206,-14.47365 v -4.75661 h 7.03847 7.03848 l 2.71152,4.6577 c 1.49134,2.56173 6.20167,8.38152 10.4674,12.93288 l 7.75588,8.27519 -2.0413,3.45975 c -2.0877,3.53838 -4.28555,4.63673 -9.32655,4.66083 -3.40079,0.0163 -10.6439,-5.35436 -10.6439,-7.89224 0,-0.9558 1.33748,-3.50549 2.97218,-5.66597 3.51312,-4.64306 3.64492,-5.55969 1.1271,-7.83829 -1.35413,-1.22547 -2.10552,-1.38877 -2.61287,-0.56786 -0.39168,0.63375 -0.23864,1.62579 0.3401,2.20453 0.73633,0.73633 0.0196,2.40461 -2.38713,5.55667 -1.89166,2.47743 -3.43938,4.86341 -3.43938,5.30217 0,0.43876 -2.7,2.87535 -6,5.41464 -5.95516,4.58239 -6,4.59739 -6,2.00657 z m -10.08409,-17.46964 c -0.87125,-0.52284 -2.79823,-2.70261 -4.28218,-4.84395 l -2.69808,-3.89333 4.03217,-4.03218 c 4.30102,-4.30102 4.87773,-6.73167 2.62896,-11.0803 -1.90826,-3.69017 -2.96545,-11.40849 -2.15463,-15.73052 0.57579,-3.06922 0.96813,-3.4719 2.86255,-2.93801 4.9827,1.40424 9.26064,4.3016 14.57519,9.87145 5.3364,5.59275 13.50651,10.57858 17.37011,10.60014 0.9625,0.005 1.75,0.51524 1.75,1.13303 0,0.7918 -3.50894,0.99814 -11.89139,0.69928 l -11.89139,-0.42397 -0.60861,4.44029 c -0.33474,2.44216 -0.60861,6.57238 -0.60861,9.17827 0,2.60589 -0.56502,5.20691 -1.2556,5.78004 -1.96711,1.63256 -6.08677,2.28497 -7.82849,1.23976 z m -88.91591,-3.08448 c -1.925,-1.02774 -5.40095,-1.88748 -7.72432,-1.91053 -3.6612,-0.0363 -4.43077,-0.44114 -5.77299,-3.03671 -1.53306,-2.96462 -1.50561,-3.03829 2.72432,-7.30977 6.48543,-6.54915 11.77299,-15.59273 11.77299,-20.13594 0,-3.71663 0.0746,-3.79457 3.06218,-3.19706 3.34934,0.66987 8.50546,-1.07293 11.22748,-3.79495 1.10105,-1.10105 1.71034,-3.29476 1.71034,-6.15797 0,-4.25091 0.11114,-4.41973 2.51298,-3.8169 3.23772,0.81262 5.27498,-0.9006 7.83955,-6.59262 l 2.02749,-4.5 0.89524,4.38352 c 0.75261,3.6851 0.47146,5.54545 -1.76461,11.67636 -2.1022,5.76387 -2.43103,7.72038 -1.56846,9.33212 0.94189,1.75994 0.68523,2.24931 -1.87371,3.57259 -3.42442,1.77084 -8.06848,7.45746 -8.06848,9.8798 0,0.91059 -0.62264,1.65561 -1.38364,1.65561 -2.97698,0 -8.39273,7.63477 -9.68149,13.64831 -1.79808,8.39015 -1.87488,8.47173 -5.93487,6.30414 z m -50.09239,-5.56377 c -0.88712,-1.06891 -0.86489,-2.46963 0.0935,-5.89271 0.7775,-2.77697 0.99742,-6.44926 0.57631,-9.62369 -0.89598,-6.75426 1.61235,-9.87228 7.94188,-9.87228 4.02377,0 7.48068,-2.15219 7.48068,-4.65729 0,-0.5499 1.39346,-3.10356 3.09659,-5.67481 2.7114,-4.09348 2.96665,-5.04772 2.05202,-7.67145 -0.9653,-2.76905 -0.86809,-2.99645 1.28096,-2.99645 4.01949,0 4.7871,-2.09178 4.01514,-10.94142 -0.66245,-7.59411 -0.58918,-8.05858 1.27117,-8.05858 3.62495,0 5.78412,-3.67917 5.78412,-9.85601 0,-3.10419 0.45,-5.79193 1,-5.97275 0.55,-0.18082 1.61844,1.84418 2.37432,4.5 0.75587,2.65582 2.44337,8.00949 3.75,11.89703 2.95197,8.78288 2.9503,8.84889 -0.26005,10.31162 -2.5103,1.14377 -2.60803,1.46943 -2.05347,6.84257 0.35896,3.47795 1.41487,6.76779 2.7532,8.57798 1.76392,2.38583 1.91455,3.09875 0.80346,3.80264 -0.7521,0.47646 -1.92996,0.87319 -2.61746,0.88161 -2.33177,0.0286 -9.25,7.89314 -9.25,10.51531 0,2.92459 0.11113,2.90871 -7,1 -10.351,-2.77832 -11.06223,-1.65418 -1.75,2.76601 l 8.75,4.15331 v 6.19672 c 0,5.64958 -0.17203,6.15174 -1.9483,5.68723 -1.09382,-0.28604 -4.28428,0.75573 -7.27455,2.37533 -4.62092,2.50279 -5.83628,2.7642 -9.17765,1.97399 -2.4512,-0.5797 -5.06509,-0.53835 -7.18978,0.11374 -2.60212,0.79861 -3.59502,0.71533 -4.50211,-0.37765 z m 118.09239,-2.91102 c 0,-0.83729 -1.90418,-3.58813 -4.23151,-6.11298 -2.67083,-2.89751 -4.68703,-6.30087 -5.46661,-9.22766 -1.09545,-4.11269 -0.99895,-5.2872 0.85343,-10.38702 1.18972,-3.27544 2.69235,-5.75 3.49158,-5.75 2.61239,0 15.75612,-7.21841 21.16186,-11.62189 2.95602,-2.40796 5.81366,-4.37811 6.3503,-4.37811 1.33648,0 0.0636,3.68413 -2.88981,8.36426 -5.17826,8.20563 -6.86381,19.22237 -3.76924,24.63574 3.37598,5.90566 0.0259,12.37383 -7.58789,14.6504 -5.79228,1.73192 -7.91211,1.68564 -7.91211,-0.17274 z"
       id="path1" />
  </g>
</svg>
