<?xml version="1.0" encoding="UTF-8"?>
<svg width="69.626" height="60.854" version="1.1" viewBox="0 0 69.626 60.854" xmlns="http://www.w3.org/2000/svg">
 <g transform="translate(-1436.6 -865.94)">
  <path d="m1441.6 926.23c-3.532-0.68009-4.5576-3.6168-2.7629-7.912 0.8419-2.015 1.8166-6.096 2.166-9.0688 0.584-4.9687 0.412-5.6381-2.1295-8.2908-2.5094-2.6193-2.6611-3.1828-1.643-6.1033 0.6169-1.7696 1.1216-4.8604 1.1216-6.8683 0-4.2911 1.4321-6.0456 4.95-6.0644 7.1877-0.0385 8.5093-2.2495 5.5616-9.3044-2.6524-6.348-1.5593-6.682 21.869-6.682 23.451 0 25.09 0.44421 22.768 6.1692-3.3459 8.2487-2.6553 9.7888 4.4016 9.8155 4.5852 0.0173 6.45 1.3764 6.45 4.701 0 1.2571 0.5413 4.3096 1.203 6.7834 1.1524 4.3088 1.0872 4.6186-1.553 7.3744-2.5268 2.6374-2.7042 3.3249-2.1332 8.2666 0.3426 2.9645 1.3108 7.0242 2.1516 9.0216 1.9304 4.586 0.6689 7.3509-3.7579 8.2362-3.4585 0.6917-55.024 0.62672-58.663-0.0739zm59.752-4.7226c0-0.78572-0.6011-2.0297-1.3358-2.7644-0.8169-0.81686-1.6018-5.1182-2.0202-11.071l-0.6844-9.7356h2.8815c2.5344 0 2.824-0.30117 2.4037-2.5-0.4321-2.2601-0.9465-2.5-5.3614-2.5h-4.8834v12.5c0 9.9394-0.2817 12.5-1.375 12.5-1.8858 0-2.625-4.5015-2.625-15.985 0-5.3545-0.2862-11.823-0.6359-14.375-0.5526-4.0317-0.9457-4.6396-3-4.6396h-2.3641v17.5c0 14.889-0.2238 17.5-1.5 17.5-1.2821 0-1.5-2.8333-1.5-19.5v-19.5h-8v7.8057c0 6.7558 0.3363 8.2615 2.5 11.194 2.197 2.9778 2.5445 4.4018 2.5 11.747l-0.047 7.7255c-3.9551-0.0888-2.8414 0.0876-10.453 0.028l-0.2885-8.1276c-0.2648-7.4614-0.08-8.3748 2.25-11.144 2.2611-2.6871 2.5385-3.9026 2.5385-11.122v-8.1056h-8v19.5c0 16.667-0.2179 19.5-1.5 19.5-1.2762 0-1.5-2.6111-1.5-17.5v-17.5h-2.5c-1.8877 0-2.5316 0.55109-2.6291 2.25-0.071 1.2375-0.4085 8.9639-0.75 17.17-0.4407 10.589-0.9837 15.04-1.8709 15.333-0.9557 0.31623-1.25-2.5491-1.25-12.17v-12.583h-4.393c-3.0834 0-4.574 0.47156-5 1.5818-1.0584 2.758-0.6747 3.4182 1.9863 3.4182h2.5933l-0.7276 9.7058c-0.4494 5.9936-1.25 10.228-2.0933 11.071-0.7512 0.75111-1.3657 2.0085-1.3657 2.7942 0 1.2064 4.6667 1.4286 30 1.4286s30-0.22222 30-1.4286zm-30.293-15.777c-1.2667 0-0.841-0.49436-0.8858 1.7052-0.1516 7.4474 0.048 7.4861 1.0296 7.3685 0.6718-0.0805 1.0932 0.85569 1.0899-7.1507-9e-4 -2.1727-0.071-1.9231-0.7038-1.9231zm-20.707-18.352c0-2.3904-0.2777-2.5374-4.25-2.25-3.533 0.25563-4.3039 0.68708-4.5696 2.5575-0.2913 2.0517 0.083 2.25 4.25 2.25 4.235 0 4.5696-0.18729 4.5696-2.5575zm50.82 0.3075c-0.2657-1.8704-1.0366-2.3019-4.5696-2.5575-3.9723-0.2874-4.25-0.14039-4.25 2.25 0 2.3702 0.3346 2.5575 4.5696 2.5575 4.1668 0 4.5413-0.19831 4.25-2.25zm-41.82-10.75c0-1.8841 0.6667-2 11.5-2s11.5 0.11594 11.5 2c0 3.5386 4.316 2.5765 5.6075-1.25 0.6033-1.7875 1.4366-4.0375 1.8517-5 0.7043-1.633-0.5631-1.75-18.959-1.75s-19.664 0.11699-18.959 1.75c0.4151 0.9625 1.2484 3.2125 1.8517 5 1.2915 3.8265 5.6075 4.7886 5.6075 1.25z"/>
 </g>
</svg>
