<?xml version="1.0" encoding="UTF-8" standalone="no"?>
<svg
   width="71.837601"
   height="71.837601"
   version="1.1"
   viewBox="0 0 71.8376 71.837603"
   id="svg1"
   xmlns="http://www.w3.org/2000/svg"
   xmlns:svg="http://www.w3.org/2000/svg">
  <defs
     id="defs1" />
  <circle
     style="fill:#000000;stroke-width:0.853659"
     id="path4"
     cx="35.9188"
     cy="35.9188"
     r="35.9188" />
  <circle
     style="fill:#ffffff;stroke-width:0.908549"
     id="path3"
     cx="35.9188"
     cy="35.9188"
     r="33.499783" />
  <g
     transform="translate(-1330.281,-845.01318)"
     id="g1">
    <path
       d="m 1357.2,910.93 c -7.7016,-2.2938 -7.5145,-5.7734 0.4179,-7.7708 5.1377,-1.2937 6.7459,-3.9381 3.6471,-5.997 -2.6606,-1.7677 -2.6163,-3.9122 0.1414,-6.8477 1.9153,-2.0388 2.0587,-2.7398 1.0868,-5.3144 -0.6184,-1.6385 -0.7108,-2.9659 -0.2063,-2.9659 1.5477,0 1.0732,-10.983 -0.5444,-12.6 -0.8016,-0.80163 -1.2035,-2.1195 -0.893,-2.9286 0.3105,-0.8091 0.057,-1.4711 -0.5639,-1.4711 -0.6207,0 -1.6411,-1.125 -2.2676,-2.5 -1.0079,-2.2123 -1.7535,-2.5 -6.4785,-2.5 -4.6728,0 -5.3395,-0.24971 -5.3395,-2 0,-1.8385 0.6667,-2 8.2559,-2 8.2114,0 8.263,-0.0162 9.5838,-3 0.7304,-1.65 1.7025,-3 2.1603,-3 0.4578,0 1.4299,1.35 2.1603,3 1.3208,2.9838 1.3724,3 9.5838,3 7.5892,0 8.2559,0.1615 8.2559,2 0,1.7503 -0.6667,2 -5.3395,2 -4.725,0 -5.4706,0.28769 -6.4785,2.5 -0.6265,1.375 -1.6469,2.5 -2.2676,2.5 -0.6206,0 -0.8744,0.66198 -0.5639,1.4711 0.3105,0.80912 -0.091,2.1269 -0.893,2.9286 -1.6176,1.6176 -2.0921,12.6 -0.5444,12.6 0.5143,0 0.4465,1.2364 -0.1552,2.8305 -0.907,2.403 -0.7154,3.308 1.2688,5.9918 l 2.3373,3.1613 -2.2103,2.3527 c -2.6896,2.863 -1.9738,5.4701 1.7066,6.2156 4.1396,0.83848 7.6397,2.8877 7.6397,4.4729 0,3.6416 -15.627,6.2158 -23.5,3.8709 z m 11.444,-15.806 c 0.8312,-1.3448 -0.4635,-4.0902 -1.9287,-4.0902 -1.7595,0 -3.8265,2.6877 -3.0426,3.9562 0.7939,1.2845 4.2035,1.3764 4.9713,0.13404 z m -4.7192,-33.09 c -0.095,-1.2618 -0.8675,-2 -2.0928,-2 -1.8788,0 -1.8831,0.0652 -0.1322,2 0.9955,1.1 1.9373,2 2.0928,2 0.1556,0 0.2151,-0.9 0.1322,-2 z m 6.775,0 c 1.7509,-1.9348 1.7466,-2 -0.1322,-2 -1.2253,0 -1.9978,0.73823 -2.0928,2 -0.083,1.1 -0.023,2 0.1322,2 0.1555,0 1.0973,-0.9 2.0928,-2 z m -31.25,31.294 c -1.2995,-0.25031 -2.25,-1.1644 -2.25,-2.1638 0,-0.95175 -0.4075,-2.158 -0.9055,-2.6804 -0.5485,-0.57554 0.8501,-4.8876 3.5484,-10.939 2.7482,-6.1642 4.2475,-10.811 3.9151,-12.136 -0.7287,-2.9033 1.8437,-5.1164 3.9323,-3.383 0.8728,0.7243 1.2671,2.1262 0.9517,3.383 -0.3324,1.3243 1.1669,5.9714 3.9151,12.136 2.6983,6.0519 4.0969,10.364 3.5484,10.939 -0.498,0.5225 -0.9055,1.7038 -0.9055,2.625 0,2.5012 -8.2506,3.6637 -15.75,2.2193 z m 5.6388,-11.794 c -0.098,-3.575 -0.3546,-6.5 -0.5694,-6.5 -0.4352,0 -3.6364,7.257 -4.742,10.75 -0.6339,2.0027 -0.3714,2.25 2.389,2.25 h 3.1012 z m 7.5338,4.25 c -1.2638,-3.9927 -4.3357,-10.75 -4.8871,-10.75 -0.2945,0 -0.5355,2.925 -0.5355,6.5 v 6.5 h 3.0674 c 2.7253,0 2.988,-0.2509 2.3552,-2.25 z m 27.302,7.4077 c -0.9765,-0.38594 -2.3704,-1.8485 -3.0976,-3.2502 -1.1995,-2.3122 -0.9145,-3.4683 3.0737,-12.467 2.7035,-6.1001 4.1885,-10.745 3.8573,-12.065 -0.7287,-2.9033 1.8437,-5.1164 3.9323,-3.383 0.8728,0.7243 1.2671,2.1262 0.9517,3.383 -0.3324,1.3243 1.1669,5.9714 3.9151,12.136 2.6983,6.0519 4.0969,10.364 3.5484,10.939 -0.498,0.5225 -0.9055,1.7038 -0.9055,2.625 0,2.5459 -10.486,3.9757 -15.275,2.0827 z m 5.0965,-11.658 c -0.098,-3.575 -0.3395,-6.5 -0.5356,-6.5 -0.4083,0 -3.6438,7.3877 -4.7081,10.75 -0.6328,1.9991 -0.3701,2.25 2.3553,2.25 h 3.0675 z m 7.6015,4.25 c -1.2638,-3.9927 -4.3357,-10.75 -4.8871,-10.75 -0.2945,0 -0.5355,2.925 -0.5355,6.5 v 6.5 h 3.0674 c 2.7253,0 2.988,-0.2509 2.3552,-2.25 z"
       id="path1" />
  </g>
</svg>
