<?xml version="1.0" encoding="UTF-8" standalone="no"?>
<!-- Created with Inkscape (http://www.inkscape.org/) -->

<svg
   width="56.991661mm"
   height="57.017651mm"
   viewBox="0 0 56.991661 57.017651"
   version="1.1"
   id="svg1"
   xml:space="preserve"
   xmlns="http://www.w3.org/2000/svg"
   xmlns:svg="http://www.w3.org/2000/svg"><defs
     id="defs1" /><g
     id="layer1"
     transform="translate(-143.49671,-124.77062)"><path
       style="fill:#000000"
       d="m 145.30298,178.95523 c -0.91076,-1.55818 -1.65202,-2.95716 -1.64725,-3.10886 0.005,-0.15169 0.75461,-1.55573 1.6663,-3.12007 l 1.65763,-2.84428 h 3.38266 3.38266 l 1.72409,2.96131 c 1.45412,2.49761 1.67956,3.04655 1.43977,3.50573 -0.15638,0.29943 -0.92916,1.64575 -1.7173,2.99182 l -1.43299,2.44739 h -3.39982 -3.39983 z m 21.69583,0 c -0.91076,-1.55818 -1.65202,-2.95716 -1.64725,-3.10886 0.005,-0.15169 0.75461,-1.55573 1.6663,-3.12007 l 1.65763,-2.84428 h 3.38266 3.38266 l 1.72324,2.95986 c 1.97331,3.38936 2.01544,2.65726 -0.38698,6.72463 l -1.31229,2.22176 h -3.40502 -3.40503 z m -17.97189,-14.36487 v -3.43959 h 1.45521 1.4552 v 2.61277 c 0,1.43701 -0.0744,2.98483 -0.16536,3.43958 -0.15807,0.79036 -0.22225,0.82682 -1.45521,0.82682 h -1.28984 z m 21.69583,-0.0661 v -3.50573 h 1.45521 1.45521 v 3.50573 3.50573 h -1.45521 -1.45521 z m -25.50445,-8.39294 -1.72159,-2.91799 1.72159,-2.918 1.72159,-2.91799 3.47386,0.0737 3.47386,0.0737 1.66126,2.84427 1.66127,2.84428 -1.66127,2.84427 -1.66126,2.84427 -3.47386,0.0737 -3.47386,0.0737 z m 24.71342,2.57071 c -1.38008,-0.46331 -3.01245,-2.23364 -3.42796,-3.71768 -0.74117,-2.6472 0.19737,-5.26149 2.41599,-6.7297 0.96251,-0.63696 1.3604,-0.72987 3.12592,-0.72987 1.76551,0 2.1634,0.0929 3.12591,0.72987 0.6066,0.40142 1.43134,1.22616 1.83277,1.83276 0.63696,0.96251 0.72986,1.3604 0.72986,3.12592 0,1.76551 -0.0929,2.1634 -0.72986,3.12591 -1.10664,1.67224 -2.49677,2.47187 -4.48759,2.58136 -0.91395,0.0503 -2.07721,-0.0481 -2.58504,-0.21857 z m 22.48686,-0.0897 c -2.17304,-0.94125 -3.43958,-2.9293 -3.43958,-5.399 0,-4.54427 4.44236,-7.20049 8.49851,-5.08153 2.04446,1.06803 3.01086,2.69907 3.01086,5.08153 0,1.4973 -0.11958,1.9547 -0.79783,3.05175 -1.46487,2.36938 -4.76307,3.43397 -7.27196,2.34725 z m -10.24787,-15.51932 -5.59983,-5.88698 0.92841,-0.95359 0.9284,-0.9536 3.09284,3.20083 c 1.70107,1.76046 4.24335,4.39224 5.64952,5.84839 l 2.55668,2.64756 -0.86493,0.99218 c -0.47571,0.54571 -0.91585,0.99219 -0.97809,0.99219 -0.0622,0 -2.63309,-2.64914 -5.713,-5.88698 z m -25.54301,3.56768 -0.68083,-1.25257 4.80825,-5.05589 4.80826,-5.05589 0.98573,0.9361 0.98574,0.9361 -1.37483,1.47396 c -0.75616,0.81067 -3.05709,3.22823 -5.11317,5.37235 l -3.73832,3.89841 z m 14.09505,-4.82445 v -3.43958 h 1.45521 1.45521 v 3.43958 3.43959 h -1.45521 -1.45521 z m -1.19062,-5.99515 c -3.08387,-1.62291 -4.16234,-5.00768 -2.56799,-8.05961 1.06803,-2.04445 2.69907,-3.01086 5.08153,-3.01086 2.38245,0 4.01349,0.96641 5.08153,3.01086 1.58816,3.0401 0.52845,6.44029 -2.49131,7.99358 -1.23147,0.63344 -3.95853,0.66872 -5.10376,0.066 z"
       id="path1" /></g></svg>
