<?xml version="1.0" encoding="UTF-8" standalone="no"?>
<!-- Created with Inkscape (http://www.inkscape.org/) -->

<svg
   width="22.017031mm"
   height="23.089197mm"
   viewBox="0 0 22.017031 23.089197"
   version="1.1"
   id="svg1"
   xml:space="preserve"
   xmlns="http://www.w3.org/2000/svg"
   xmlns:svg="http://www.w3.org/2000/svg"><defs
     id="defs1"><linearGradient
       id="swatch1"><stop
         style="stop-color:#000000;stop-opacity:1;"
         offset="0"
         id="stop1" /></linearGradient></defs><g
     id="layer1"
     transform="translate(-103.21125,-139.35393)"><path
       d="m 115.71215,162.31259 c -4.70272,-1.2292 -7.26329,-5.97658 -5.70504,-10.57733 l 0.56897,-1.67989 -1.13613,-1.23421 c -4.46319,-4.84846 -4.95675,-5.32788 -5.48503,-5.32788 -0.30938,0 -0.62691,-0.16784 -0.70563,-0.37299 -0.35045,-0.91326 1.79748,-3.35178 3.28014,-3.72391 0.7064,-0.17729 1.16221,0.22104 0.93386,0.8161 -0.0716,0.18648 1.26903,1.84447 2.97908,3.68441 2.78255,2.99391 3.18098,3.32783 3.79261,3.17856 2.529,-0.61724 3.31418,-0.69046 4.55371,-0.42463 2.6743,0.57353 4.73131,2.21402 5.82772,4.64767 0.82645,1.83442 0.8141,4.77893 -0.0274,6.54468 -0.73843,1.54939 -2.32651,3.16898 -3.81282,3.88849 -1.24718,0.60376 -3.83909,0.90109 -5.06399,0.58093 z m 3.96875,-1.69721 c 1.56446,-0.45295 3.42989,-2.42551 3.94997,-4.17681 0.49397,-1.66338 0.31419,-1.96733 -1.14103,-1.92918 -0.73853,0.0194 -1.48516,0.35153 -2.77443,1.23431 -2.01185,1.37755 -3.92969,1.90596 -5.54396,1.52749 -1.26455,-0.29648 -1.96976,-0.9137 -2.5919,-2.26853 l -0.48599,-1.05834 -0.006,1.13298 c -0.0135,2.62645 1.87313,5.07108 4.4667,5.7879 1.25138,0.34586 2.2852,0.28327 4.12645,-0.24982 z"
       id="path1" /></g></svg>
