<?xml version="1.0" encoding="UTF-8"?>
<svg width="99.365" height="99.513" version="1.1" viewBox="0 0 99.365 99.513" xmlns="http://www.w3.org/2000/svg">
 <g transform="translate(-378.69 -436.36)">
  <path d="m410.69 534.88c0-0.58333 3.3333-1 8-1s8 0.41667 8 1-3.3333 1-8 1-8-0.41667-8-1zm31 0c0-0.58333 3.3333-1 8-1s8 0.41667 8 1-3.3333 1-8 1-8-0.41667-8-1zm-31.188-15.998 0.31239-11.002h9.2239l-2.1743 2.3144c-2.6606 2.8321-2.7339 3.6856-0.3168 3.6856 1.0554 0 5.0201-3.5025 9.1811-8.1108l7.3236-8.1108 7.9492 8.1108c4.8437 4.9421 8.7527 8.1108 10.006 8.1108 1.894 0 1.8294-0.23736-0.81742-3l-2.8742-3h9.3742v22h-16l-0.0318-3.75c-0.0546-6.4342-4.8851-10.356-10.097-8.1966-3.5899 1.487-4.8711 3.6913-4.8711 8.3808v3.5657l-16.5 4e-3zm19.819-8.8253-2.5767-2.5767-5.2402 4.8999 4.3428 0.53534c5.8569 0.722 6.514 0.18134 3.4741-2.8586zm16.369 2.5103c0-0.1721-1.264-1.5239-2.809-3.0041l-2.809-2.6912-5.7562 6.0082h5.6871c3.1279 0 5.6871-0.14081 5.6871-0.31291zm-9.5398-9.7287-2.9568-3.0862-5.6694 6.3451 5.5829 5.8273 6-6zm-55.46 3.0416v-11h13.5c9.1743 0 13.5 0.35345 13.5 1.1031 0 0.60669-2.0869 3.4192-4.6376 6.25l-4.6376 5.1469 3.6376 0.31037c3.5906 0.30635 3.6376 0.36769 3.6376 4.75v4.4396h-25zm9 4.5c0-3.2222-0.2381-3.5-3-3.5-3.6261 0-3.9581 2.0295-0.81144 4.961 3.0608 2.8516 3.8114 2.5639 3.8114-1.461zm6.9419-0.39144c1.2007-2.2435 0.47472-3.1086-2.6086-3.1086-2.0044 0-2.3333 0.49832-2.3333 3.5352 0 3.2116 0.18094 3.4384 1.9771 2.4771 1.0874-0.58196 2.4216-1.8886 2.9648-2.9037zm-6.9419-7.1086c0-3.3549-1.438-3.8186-4.1713-1.345-2.7714 2.5081-2.2763 4.345 1.1713 4.345 2.6667 0 3-0.33333 3-3zm8 2c0-0.55-0.9-1.9-2-3-2.7965-2.7965-4-2.4956-4 1 0 2.6667 0.33333 3 3 3 1.65 0 3-0.45 3-1zm14.814-5.8484c2.9226-2.619 8.1941-6.537 11.714-8.7067 5.3254-3.2821 6.4067-4.4068 6.4362-6.6948 0.0292-2.2572 0.48356-2.75 2.5356-2.75 2.1073 0 2.5 0.46802 2.5 2.9797 0 2.4577 0.68443 3.3288 3.9069 4.9728 2.1488 1.0962 7.4214 4.8179 11.717 8.2703l7.81 6.2772-15.934 0.59776-4.8209-5.0489c-2.6515-2.7769-5.214-5.0489-5.6945-5.0489s-2.8111 2.2498-5.1791 4.9995l-4.3055 4.9995-16-0.0856zm-34.814-9.0242c0-1.4511 8.7416-9.0365 12.454-10.807 3.2463-1.548 3.7234-1.5442 7.2797 0.0595 2.0931 0.94387 6.2718 3.925 9.2859 6.6248l5.4803 4.9087-17.25 0.0433c-9.4875 0.0238-17.25-0.3494-17.25-0.82935zm75.727-3.1274c-2.6716-2.1015-6.7271-2.7044-6.7271-1 0 1.7948-2.0448 1.0547-4.5478-1.646-1.3487-1.4553-2.4522-3.4803-2.4522-4.5 0-1.6152-0.83732-1.854-6.5-1.854-6.4212 0-6.5002 0.0333-6.5124 2.75-0.0206 4.5824-8.7085 9.1292-11.709 6.1281-1.4663-1.4663-0.51262-3.8566 1.5788-3.9571 1.0375-0.0498 1.1824-0.26482 0.39301-0.58333-0.6875-0.27741-1.25-1.6258-1.25-2.9964 0-2.1481-0.39678-2.4504-2.875-2.1905-3.7396 0.39227-6.125-1.6688-6.125-5.2923 0-2.5904 0.26431-2.8303 2.5-2.2691 1.5404 0.38661 2.5 0.20201 2.5-0.48095 0-0.60963-0.7875-1.1153-1.75-1.1237-1.4932-0.0131-1.5299-0.15562-0.25-0.97154 1.1607-0.73991 1.2495-1.358 0.39254-2.7323-0.92042-1.4761-0.63136-2.0656 1.7115-3.4904 1.6588-1.0088 3.1769-3.0676 3.6886-5.0024 0.82161-3.1066 1.0926-3.2714 4.9087-2.9851 3.8855 0.29143 4.101 0.14811 5.6688-3.7702 0.89637-2.2403 1.6298-4.7088 1.6298-5.4856s0.87698-1.6907 1.9488-2.0309c1.0719-0.3402 2.214-1.454 2.5381-2.475 0.82315-2.5935 3.4907-3.3715 5.4574-1.5917 0.91027 0.82378 3.6492 2.2014 6.0864 3.0613s4.7998 2.2218 5.25 3.0263c0.45026 0.80456 1.7488 1.4628 2.8856 1.4628 1.6785 0 1.939 0.42284 1.3863 2.25-1.3223 4.371-1.0949 5.2438 1.4474 5.5572 1.375 0.16947 3.4652 1.4677 4.6448 2.885 1.9555 2.3495 2.432 2.4767 5.399 1.4424 3.049-1.0629 3.464-0.9184 6.5804 2.2904 2.1173 2.1801 2.8809 3.5922 2.101 3.8852-0.82723 0.3108-0.57556 0.96583 0.77477 2.0165 1.6022 1.2466 1.78 1.915 0.89409 3.3599-0.84883 1.3844-0.77205 2.0478 0.33029 2.8539 0.78991 0.5776 1.5126 2.6048 1.6059 4.5049 0.14878 3.0287-0.10777 3.4253-2.0803 3.2165-1.6588-0.17562-2.25 0.28424-2.25 1.75 0 1.1092-0.66966 1.9882-1.5147 1.9882-0.83308 0-2.3232 1.3294-3.3113 2.9542-1.7314 2.8471-1.8995 2.9008-4.6358 1.4812-2.5125-1.3035-3.0324-1.2982-4.5175 0.0458-2.1303 1.9279-2.2441 1.9176-5.2936-0.48122zm-5.1943-9.0634c1.6518-3.1943 1.382-3.4965-1.6656-1.8655-1.5273 0.8174-2.5776 0.69351-4.4343-0.52305-3.1229-2.0462-3.0824-1.0883 0.13224 3.1263 2.832 3.7129 3.7231 3.6027 5.9676-0.73775zm14.015-2.3401c0.6144-3.2751 0.75735-3.3694 3.7887-2.5 5.3227 1.5265 5.5823 1.3432 4.291-3.0302-1.5019-5.0866-2.2414-5.7411-3.013-2.6669-0.58146 2.3167-0.84769 2.4152-3.7724 1.3956-2.8657-0.999-3.3193-0.86018-5.0779 1.5539-1.5404 2.1147-2.7739 2.6609-6.0977 2.7002l-4.1666 0.0492 6 2.8649c3.3 1.5757 6.3171 2.9036 6.7047 2.9508 0.38757 0.0472 0.99201-1.4457 1.3432-3.3176zm-28.57-7.8465c0.0122-0.4125-0.50483-0.75-1.149-0.75s-1.9618-0.71547-2.9281-1.5899c-1.2862-1.164-2.2337-1.3231-3.537-0.5937-1.3289 0.7437-2.0995 0.57639-3.0401-0.66007-1.0847-1.4259-1.2644-1.1347-1.2917 2.0937-0.0359 4.2338 0.13164 4.3442 3.3705 2.2221 2.2332-1.4632 2.3869-1.3952 3.6302 1.6064l1.2983 3.1344 1.8124-2.3564c0.9968-1.296 1.8224-2.6939 1.8346-3.1064zm15.158-4.1476c0.96535-2.1187 1.4564-2.2932 4.222-1.5 5.2549 1.5071 5.6691 1.2884 4.4543-2.3524-1.4342-4.2981-2.8115-5.7433-2.8115-2.95 0 2.5553-0.75292 2.7015-3.4411 0.6682-2.6739-2.0224-3.1456-1.8803-4.4843 1.3518-1.0079 2.4332-1.6074 2.7586-4.3713 2.3724-3.4682-0.48455-3.2403 0.1502 1.0392 2.8936 3.6765 2.3569 4.1166 2.3174 5.3928-0.48354zm-7.4495-12.517c0.6653 0.6653 1.4265 0.48379 2.279-0.54341 1.0567-1.2732 1.0183-1.5424-0.21994-1.5424-0.825 0-2.0684-0.68482-2.763-1.5218-1.1146-1.343-1.4327-1.2795-2.7074 0.54041-0.9656 1.3786-2.0793 1.8608-3.3594 1.4544-2.1819-0.69252-2.3556-0.16472-0.86313 2.6239 1.0447 1.9521 1.0708 1.952 3.8434-0.0223 1.8591-1.3238 3.1252-1.6541 3.7905-0.98878z"/>
 </g>
</svg>
