<?xml version="1.0" encoding="UTF-8" standalone="no"?>
<!-- Created with Inkscape (http://www.inkscape.org/) -->

<svg
   version="1.1"
   id="svg1"
   width="109.95916"
   height="127.4741"
   viewBox="0 0 109.95916 127.4741"
   xmlns="http://www.w3.org/2000/svg"
   xmlns:svg="http://www.w3.org/2000/svg">
  <defs
     id="defs1" />
  <g
     id="g1"
     transform="translate(-1432.3079,-1308.3075)">
    <path
       d="m 1459.0585,1428.4321 c -0.4624,-7.2046 -0.7313,-7.8269 -13.6316,-31.5458 -13.8172,-25.4051 -14.9522,-28.6901 -11.4098,-33.0243 0.9625,-1.1777 3.3588,-2.3987 5.3251,-2.7133 5.2144,-0.8343 7.6491,1.8428 16.4908,18.1329 4.1793,7.7 8.2528,14.675 9.0521,15.5 1.0513,1.085 3.647,1.5 9.382,1.5 5.735,0 8.3307,-0.415 9.382,-1.5 0.7993,-0.825 4.8728,-7.8 9.0521,-15.5 4.1793,-7.7 8.7414,-15.0125 10.1381,-16.25 3.3804,-2.9952 7.857,-2.9117 10.9733,0.2045 4.5727,4.5728 3.7166,7.2333 -11.0455,34.3274 l -13.5,24.7776 v 6.7203 6.7202 h -14.8685 -14.8685 z m 10.6238,-41.0384 c -4.9623,-2.2145 -7.4152,-6.1334 -7.4152,-11.847 0,-4.2901 0.4515,-5.4166 3.3211,-8.2862 10.2532,-10.2532 26.3888,0.7935 20.2022,13.8307 -2.9222,6.158 -10.1207,8.9745 -16.1081,6.3025 z m 14.5848,-28.3663 c 0,-0.4244 6.525,-7.285 14.5,-15.2458 l 14.5,-14.4741 14.5,14.4741 c 7.975,7.9608 14.5,14.742 14.5,15.0693 0,0.3274 -2.5875,0.3995 -5.75,0.1604 -5.6945,-0.4307 -5.8344,-0.5182 -14.5,-9.0615 l -8.75,-8.6265 -8.75,8.6118 c -8.5224,8.3879 -8.8995,8.6281 -14.5,9.2379 -3.1625,0.3443 -5.75,0.2788 -5.75,-0.1456 z m 0,-21 c 0,-0.4244 6.525,-7.285 14.5,-15.2458 l 14.5,-14.4741 14.5,14.4741 c 7.975,7.9608 14.5,14.742 14.5,15.0693 0,0.3274 -2.5875,0.3995 -5.75,0.1604 -5.6945,-0.4307 -5.8344,-0.5182 -14.5,-9.0615 l -8.75,-8.6265 -8.75,8.6118 c -8.5224,8.3879 -8.8995,8.6281 -14.5,9.2379 -3.1625,0.3443 -5.75,0.2788 -5.75,-0.1456 z"
       id="path1" />
  </g>
</svg>
