<?xml version="1.0" encoding="UTF-8" standalone="no"?>
<!-- Created with Inkscape (http://www.inkscape.org/) -->

<svg
   version="1.1"
   id="svg1"
   width="117.57533"
   height="119.10028"
   viewBox="0 0 117.57533 119.10028"
   xmlns="http://www.w3.org/2000/svg"
   xmlns:svg="http://www.w3.org/2000/svg">
  <defs
     id="defs1" />
  <g
     id="g1"
     transform="translate(-887.90547,-1320.9659)">
    <path
       d="m 911.12759,1433.1585 c -1.57733,-7.9355 -4.0174,-11.0458 -9.46782,-12.0683 -4.54883,-0.8534 -4.62454,-2.0424 -0.18309,-2.8756 5.46374,-1.025 7.49137,-3.3964 9.47321,-11.0794 l 1.80567,-7 1.18129,4.5 c 2.76049,10.5159 3.32807,11.3966 8.37712,13 2.59796,0.825 4.72357,1.725 4.72357,2 0,0.275 -2.12561,1.175 -4.72357,2 -5.08318,1.6142 -5.53047,2.3234 -8.49307,13.4655 l -1.32028,4.9655 z m 36.31454,5.0852 c -2.35116,-1.6971 -25.54351,-38.3285 -28.02116,-44.2584 -2.09548,-5.0152 -1.22118,-11.0613 2.62691,-18.1661 3.85442,-7.1164 3.88011,-11.0305 0.099,-15.0782 -2.40002,-2.5693 -3.66555,-3.1058 -7.32569,-3.1058 -3.38281,0 -4.95768,-0.5676 -6.68929,-2.4108 -2.70229,-2.8764 -2.43388,-6.2595 0.4545,-5.7286 1.07893,0.1983 4.25071,0.4233 7.0484,0.5 4.34061,0.1189 5.92252,-0.4155 10.78507,-3.6441 6.26594,-4.1603 9.61874,-8.7016 9.62448,-13.0361 0.003,-2.3428 0.37995,-2.7655 2.22871,-2.5 3.22105,0.4627 4.84106,4.26 3.4904,8.1816 -1.88894,5.4846 -1.42846,11.3691 1.08665,13.8867 1.93991,1.9418 3.61311,2.3231 12.16935,2.7737 14.21757,0.7488 14.91111,1.3593 31.06053,27.3415 9.2783,14.9274 12.9681,21.7375 12.9681,23.9343 0,8.5513 -11.1982,20.73 -25.64218,27.8874 -7.55606,3.7442 -9.70802,4.3559 -16.28231,4.6287 -5.58527,0.2317 -8.12877,-0.085 -9.68142,-1.2058 z m 40.52091,-22.2493 c 6.2023,-7.0461 5.9992,-7.7984 -8.17303,-30.2713 -14.31271,-22.6957 -14.76486,-23.0794 -27.22637,-23.1032 -8.75071,-0.017 -9.23907,-0.1918 -11.81175,-4.2347 -1.92798,-3.0298 -4.17183,-3.5788 -5.06916,-1.2404 -0.84286,2.1964 0.99958,10.8563 3.23882,15.2231 2.67104,5.2088 5.56615,7.6532 13.12649,11.083 8.18044,3.7111 10.68296,6.44 21.48984,23.4343 4.8091,7.5625 9.10296,13.75 9.54196,13.75 0.439,0 2.6365,-2.0884 4.8832,-4.6408 z m -91.82015,-18.125 c -1.34334,-5.4334 -3.84154,-8.175 -7.56736,-8.3048 -1.35418,-0.047 -0.65663,-0.6806 2.1005,-1.9072 3.74443,-1.6659 4.2474,-2.333 5.41311,-7.1794 0.70681,-2.9385 1.41247,-4.8928 1.56814,-4.3428 0.15566,0.55 0.78378,2.9465 1.39581,5.3256 0.92751,3.6055 1.72593,4.5819 4.79575,5.8645 l 3.68298,1.5389 -3.73097,1.4881 c -3.71055,1.48 -4.48679,2.88 -5.97853,10.7829 -0.2323,1.2307 -0.8783,-0.025 -1.67943,-3.2658 z m 96.77345,-21.7187 c -1.1645,-4.069 -2.1257,-5.3767 -5.2335,-7.12 l -3.807,-2.1355 2.8305,-0.7104 c 3.9177,-0.9832 5.1112,-2.1801 5.8521,-5.8687 1.4339,-7.1387 1.7314,-7.2985 3.1641,-1.7002 1.5044,5.8784 2.2584,6.7348 6.79186,7.7147 l 2.9664,0.6412 -4.1604,1.7669 c -3.57816,1.5196 -4.31576,2.3708 -5.27026,6.0817 -0.6104,2.3731 -1.2443,4.7648 -1.4085,5.3148 -0.1643,0.55 -0.9407,-1.243 -1.7253,-3.9845 z m -22.53001,-18.3251 c -0.59787,-0.3797 -1.41273,-2.2654 -1.81082,-4.1904 -1.14992,-5.5606 -3.15153,-7.8299 -8.20637,-9.3038 -4.97408,-1.4504 -4.90055,-1.7636 0.84891,-3.616 4.92225,-1.586 5.84955,-2.929 7.824,-11.3313 l 1.68608,-7.1752 1.80264,7.3558 c 2.03725,8.3132 3.85194,10.6675 8.96149,11.626 3.47188,0.6513 5.00478,2.4445 2.08968,2.4445 -0.8063,0 -3.06717,0.7635 -5.02409,1.6967 -3.0088,1.4348 -3.83023,2.5834 -5.32127,7.4405 -1.10576,3.602 -2.16856,5.4862 -2.85025,5.0532 z m -62.99427,-16.7881 c -0.98955,-1.5103 -1.73179,-4.6815 -1.77305,-7.5755 -0.0641,-4.4957 0.28441,-5.3036 3.59839,-8.3419 6.64148,-6.0888 14.89798,-5.4272 20.07828,1.6089 1.74694,2.3728 1.78565,2.8842 0.45419,6 -2.86421,6.7028 -9.31752,10.9062 -16.74388,10.9062 -3.10839,0 -4.26144,-0.5335 -5.61393,-2.5977 z"
       id="path1" />
  </g>
</svg>
