<svg width="101" height="116" xmlns="http://www.w3.org/2000/svg" viewBox="0 0 26.957 30.871"><title>firis race plant</title><g fill="#212121" class="nc-icon-wrapper"><g id="1677462931223-7485555_layer1" transform="translate(-26.914 -68.004)"><path d="M39.18 98.37l-.294-.498-.467.333c-.866.617-1.59.29-1.452-.653.065-.44.044-.47-.186-.269-.318.278-1.254.76-1.475.76-.37 0-.694-.54-.595-.992l.101-.459-.843.247c-1.392.409-2.06.011-1.585-.943.167-.333.175-.44.031-.385-.35.134-1.047-.234-1.169-.617-.17-.536.515-1.068 1.562-1.212.776-.106.876-.079 1.415.394 1.442 1.267 3.464 1.829 6.563 1.825 3.237-.005 4.923-.445 6.585-1.72.732-.562.875-.61 1.53-.52.865.118 1.518.553 1.525 1.016.007.47-.305.733-.868.733-.393 0-.457.052-.358.288.46 1.094.135 1.483-1.034 1.236-.429-.09-.895-.213-1.036-.273-.208-.089-.244-.007-.191.44.089.764-.258 1.034-1.008.787-.31-.103-.702-.34-.871-.528-.307-.341-.308-.34-.39.376-.07.604-.146.728-.476.775-.22.03-.605-.102-.877-.303-.266-.197-.5-.333-.521-.302l-.32.508c-.34.542-.918.595-1.346.123l-.298-.329-.23.33c-.36.513-1.07.429-1.423-.168zm-.71-2.976c-3.365-.562-5.704-2.867-6.183-6.094-.341-2.302.35-4.403 2.009-6.11.822-.845.996-.95 1.575-.945 1.18.01 3.962.446 4.44.696.415.218.534.217 1.055-.004.585-.247 3.386-.686 4.425-.693.432-.003.729.17 1.436.84 1.563 1.477 2.213 2.971 2.213 5.082 0 4.55-3.356 7.452-8.542 7.389-.868-.01-1.96-.083-2.428-.161zm1.92-2.207c.264-.318.478-.312.853.027.284.258.328.25.717-.115.396-.372.433-.377.87-.12.438.26.476.253 1.01-.165.421-.33.708-.422 1.192-.387.55.04.725-.041 1.272-.588.952-.953 1.2-2.073.746-3.361-.666-1.888-2.377-2.32-3.506-.884-.75.953-.76 2.908-.02 3.908l.373.506-.367.297c-.34.276-.396.278-.772.032-.382-.25-.427-.245-.795.1-.37.349-.41.354-.805.095-.38-.25-.45-.25-.814-.012-.37.243-.428.237-.843-.09-.429-.337-.456-.339-.771-.053-.316.285-.339.284-.648-.025-.318-.318-.318-.328.088-1.129 1.128-2.228-.278-4.976-2.244-4.387-1.89.566-2.196 4.192-.445 5.284.366.228.736.32 1.122.276.455-.05.693.036 1.129.415.505.438.576.457.836.222.388-.352.787-.323.999.072.209.391.54.424.823.082zm6.78-10.583l-.711-.615.62-.28c.34-.155.627-.265.637-.245.1.2.33 1.763.259 1.759-.053-.003-.415-.281-.806-.62zm-6.82-.159c-.334-.206-.427-.367-.354-.613.31-1.049.985-1.377 1.454-.707.372.53.315 1.039-.15 1.343-.484.318-.397.32-.95-.023zm-1.36-.198c-.18-.068-.885-.173-1.564-.233-2.883-.256-4.063-1-4.859-3.066-.66-1.713-.557-1.695-1.969-.354-1.582 1.503-2.125 1.834-3.007 1.835-.84 0-.91-.234-.148-.485 1.103-.364 1.813-1.627 2.606-4.633.824-3.118 1.717-4.27 4.25-5.474.88-.418 1.275-.509 2.226-.51 1.279 0 1.893.271 2.795 1.237.489.524.49.528.082.402-.226-.07-1.078-.161-1.893-.202-1.23-.062-1.64-.016-2.411.274-.805.302-2.567 1.588-2.402 1.753.032.032.61-.234 1.283-.59 2.368-1.255 4.74-1.455 6.03-.51l.627.46.615-.481c.935-.733 2.29-1.139 4.16-1.245l1.646-.094-.824-.215c-1.665-.436-3.196-.158-4.702.855-.472.318-.898.538-.947.49-.189-.19.483-1.853.915-2.266.908-.87 1.926-1.186 3.83-1.19 1.64-.004 1.78.023 2.774.542 1.205.629 2.475 1.489 3.343 2.263.856.764 1.257.943 1.889.84.653-.105.717.105.145.48-.299.195-.62.241-1.194.172-2.069-.252-4.288-.298-5.692-.12-.832.105-1.846.232-2.254.28l-.74.09-.397 1.243c-.423 1.326-1.254 2.732-1.661 2.81-.378.072-.234-1.775.16-2.05.382-.269.706-1.077.624-1.559-.062-.36-.075-.353-.201.108-.283 1.037-.934 1.376-1.827.95-.579-.276-.587-.274-1.768.324-1.1.558-1.697.756-3.794 1.258-.438.105-1.163.43-1.61.723l-.814.531 1.94.102c2.183.114 2.616.2 3.668.73.872.44 1.641 1.215 2.115 2.131.236.458.342.558.346.33.004-.182-.176-.626-.399-.988-.223-.362-.408-.713-.41-.779-.003-.066.304-.278.682-.47 1.458-.744 2.894-2.58 3.435-4.39.115-.384.257-.699.316-.699.058 0 .35.252.649.56.429.443.517.64.422.946-.181.582-1.41 2.408-2.318 3.447-.443.505-1.04 1.26-1.33 1.678-.288.417-.759.88-1.045 1.027-.493.255-.54.252-.874-.054-.529-.484-2.062-1.303-3.122-1.667-.515-.177-.936-.295-.936-.262 0 .033.648.411 1.44.84.793.43 1.753.993 2.135 1.253.633.43.686.52.596 1.002-.126.675-.225.772-.632.62zm3.21-.039c0-.029-.068-.29-.15-.58-.147-.51-.124-.545.74-1.118.491-.326 1.504-.926 2.25-1.334.747-.408 1.173-.691.947-.629a11.32 11.32 0 0 0-3.23 1.478c-1.38.925-1.711.838-1.097-.29.567-1.042 1.494-1.839 2.667-2.29 1.215-.469 5.61-.677 5.61-.266 0 .136-.106.336-.237.444-.13.108-.427.694-.66 1.302-.231.607-.537 1.27-.678 1.471-.497.71-2.222 1.425-3.848 1.595-.503.053-1.23.135-1.614.183-.385.047-.7.063-.7.034zm1.689-5.256c.15-.215.555-.816.898-1.336.343-.52.667-.946.72-.947.125-.002.973 1.55.973 1.78 0 .162-1.055.52-2.297.776l-.568.118z" id="1677462931223-7485555_path2711" display="inline" fill="#212121" stroke-width=".165"></path></g></g></svg>