<svg width="110" height="101" xmlns="http://www.w3.org/2000/svg" viewBox="0 0 29.145 26.814"><title>firis category foodstuff</title><g fill="#212121" class="nc-icon-wrapper"><g id="1677462931221-5471044_layer1" transform="translate(-22.457 -50.406)"><path d="M36.538 77.103c-.063-.104-.254-.188-.424-.188-.336 0-.57-.198-1.072-.904a8.67 8.67 0 0 0-.629-.78c-.165-.173-.326-.452-.358-.62-.032-.167-.268-.921-.523-1.675-.794-2.344-.599-5.676.382-6.5 1.06-.893 1.157-.926 2.698-.911.89.008 1.476-.052 1.476-.152 0-.091-.073-.12-.162-.066-.309.191-1.306-.107-1.405-.42-.082-.258-.158-.276-.5-.12-.221.1-.402.246-.402.322 0 .076-.26.138-.577.138-.316 0-.576.074-.576.164 0 .271-.496.186-.607-.104-.057-.148-.024-.395.072-.55.258-.412-.004-.757-.302-.398-.156.187-.219.602-.19 1.25.024.534-.034 1.113-.127 1.287-.612 1.144-.663 3.882-.106 5.676.62 1.995.686 2.623.327 3.115-.166.228-.383.417-.482.42-.233.006-1.298-1.167-2.424-2.673-.842-1.125-2.418-3.752-2.484-4.14-.05-.288-.44-.959-.92-1.578-.246-.317-.976-1.606-1.623-2.864l-1.175-2.288V61.08c0-1.369.028-1.491.43-1.864 1.639-1.518 4.843-2.205 6.321-1.355.712.41.976.91 1.368 2.593.149.642.254.885.262.606.018-.603.29-1.1.603-1.1.136 0 .388.315.559.7.384.865.43.635.065-.323-.355-.929-.098-1.895.754-2.837.512-.565.649-.641.809-.448.106.128.15.346.096.484-.053.139.057.553.244.92.439.86.432 1.563-.022 2.308l-.364.595.593-.622c.533-.558.658-.613 1.228-.537.349.046.904.113 1.234.149 1.024.11 1.313.552.579.886-.322.147-.372.267-.303.726l.082.55.144-.428c.148-.44.73-.806 1.284-.806.171 0 .575-.155.897-.345.48-.283.6-.303.674-.11.19.496-.848 2.349-1.453 2.592-.319.129-.293.149.213.164.466.014.644.124.933.578.302.475.321.59.125.752-.36.299-.157.43.823.53.497.052 1.027.192 1.178.312 1.317 1.05 1.603 1.582 1.82 3.387.21 1.742-.958 5.61-2.148 7.114-.786.994-.617.943-2.731.819-.317-.019-1.362.023-2.322.094-1.254.092-1.778.075-1.862-.06zm1.829-2.347c.85-.383.811-.383 1.334.028l.43.338.452-.873c.343-.663.454-1.115.46-1.874.006-.736.087-1.083.31-1.317.25-.264.274-.42.141-.944-.11-.434-.104-.683.021-.808.255-.255.64.1.775.715.06.272.193.46.299.42.105-.038.161-.172.126-.296-.036-.125-.082-.507-.104-.85-.021-.343-.17-.768-.328-.944-.254-.28-.258-.33-.036-.416.14-.053.293-.251.343-.44.086-.328.107-.33.51-.067.666.436.488.02-.236-.553-.484-.384-.919-.557-1.654-.661-.977-.138-1.97.03-1.97.332 0 .075-.045.253-.1.398-.074.192-.03.235.164.16.146-.056.265-.02.265.08s.149.183.33.183c.18 0 .329.11.329.243 0 .354-.785.811-1.38.803-.749-.01-1.912-.57-1.912-.92 0-.331.023-.335.864-.14.521.122.617.102.615-.127-.006-.61-.695-1.012-1.732-1.012-1.399 0-2.546 1.01-2.546 2.243 0 .356-.107.8-.239.988-.323.461-.293.85.215 2.819.343 1.33.496 1.686.724 1.687.158 0 .288.099.288.219 0 .318.675.893 1.152.98.57.106 1.275-.028 2.09-.394zm-8.939-5.29a14.132 14.132 0 0 0-.447-.68c-.302-.435-.306-.484-.052-.626.152-.085.231-.228.176-.317-.064-.103-.188-.09-.34.036-.372.308-.696-.082-.427-.514.278-.444.254-.53-.113-.414-.454.144-.561-.156-.264-.732.231-.446.089-.74-.162-.334-.17.277-.548.184-.657-.161-.07-.218.066-.573.408-1.07.368-.534.444-.744.27-.744-.134 0-.394.191-.578.425-.184.234-.412.378-.506.32-.313-.193-.178-.698.415-1.56.709-1.031.725-1.547.03-1-.248.197-.452.46-.452.586 0 .126-.138.304-.307.394-.644.344-.568 1.067.292 2.777.441.878 1.014 1.824 1.273 2.101.259.277.683.777.942 1.111.457.59.74.817.5.402zm10.06-4.24c-.45-.192-.577-.192-.577 0 0 .091.204.16.453.154.4-.01.415-.028.123-.153zm-.198-1.208c.046-.121.018-.325-.063-.452-.106-.17-.147-.11-.149.22-.003.492.078.58.212.232zm-12.977-2.31c.257-.336.612-.69.789-.784.239-.128.273-.22.135-.359-.14-.139-.268-.136-.504.012-.42.263-.666-.088-.266-.38.388-.284.037-.47-.387-.206-.34.213-.726 1.058-.585 1.285.043.07-.003.36-.103.645-.138.395-.128.642.04 1.047l.22.53.097-.588c.053-.323.306-.864.564-1.201zm8.74 1.137c.369-.28 1.08-.318 1.842-.099.432.124.534.106.534-.092 0-.135-.077-.198-.17-.14-.095.059-.545.01-1-.106-.76-.195-.824-.248-.75-.628.07-.369.055-.384-.13-.13-.262.357-.394.357-.8-.004-.317-.28-.32-.277-.12.101.112.215.172.604.134.865-.079.537.003.578.46.233zm8.586 2.388c-.342-.066-.897-.344-1.234-.617-.485-.392-.617-.616-.63-1.072-.01-.316-.06-.645-.113-.73-.129-.209.421-1.39.806-1.731.368-.326 1.636-.789 2.169-.792.695-.005.64.614-.17 1.887-.3.473-.67.745-.902.664-.111-.04-.445.036-.741.167l-.538.238.74-.088a128.9 128.9 0 0 0 1.153-.142c.226-.03 1.048-.007 1.826.05 1.233.089 1.405.07 1.346-.156-.077-.295.84-1.266 1.407-1.486.568-.222 1.28-.18 1.504.088.108.13.431.26.718.288.56.055.882.627.352.627-.153 0-.527.219-.831.486-.654.574-1.44.758-2.265.53-.553-.153-.585-.143-.435.138.089.166.356.455.593.642.717.563.425.838-.892.838-.923 0-1.187-.06-1.43-.33-.164-.18-.369-.328-.456-.328-.086 0 .011.136.217.302.212.172.322.386.255.494-.13.21-1.447.227-2.449.033zm1.524-1.384c-.225-.215-.444-.358-.488-.318-.076.069.652.697.817.704.044.003-.105-.171-.33-.386zm-.12-1.116c-.346-.346-.236-.697.494-1.577.604-.729.82-.87 1.583-1.036.754-.164.922-.155 1.139.063.23.23.212.316-.184.888-.242.349-.44.714-.44.812 0 .25-.647.645-1.234.753-.272.05-.642.138-.823.197-.183.059-.42.014-.535-.1zm-7.511-2.864c-.087-.226.162-.562 1.048-1.412l1.162-1.115-.662-.873c-.707-.932-.842-1.555-.375-1.733.159-.06.425-.282.592-.493.167-.211.594-.532.95-.714.739-.377.735-.381.859 1.018.068.775.018 1.028-.31 1.564-.36.584-.576 1.21-.278.802.067-.091.403-.376.747-.632.484-.361.584-.516.443-.685-.1-.12-.19-.578-.2-1.016-.025-1.143.55-2 1.659-2.467.465-.196.884-.293.931-.217.047.076.01.185-.081.242-.092.057-.17.414-.175.793-.004.38-.106.968-.227 1.308-.121.34-.174.616-.117.614.286-.007.438-.311.48-.961.06-.949.913-2.271 1.597-2.48.273-.083.84-.197 1.26-.254.443-.06.885-.238 1.054-.425.292-.322 1.228-.454 1.228-.173 0 .082-.328.342-.73.577-.401.235-.776.574-.833.753-.158.499-1.346 1.661-1.854 1.814l-.451.136.525.014c.289.008.568.082.62.166.05.084.314.2.585.26.635.14.622.405-.044.85-1.05.7-2.476.898-3.239.447-.415-.245-.488-.245-.93 0l-.48.267.447-.1c.308-.068.756.047 1.44.37 1.033.488 1.24.717.645.717-.491 0-1.615.664-1.524.9.056.146-.283.193-1.266.177-1.117-.017-1.381-.074-1.573-.336-.205-.28-.258-.288-.478-.068-.22.22-.137.27.743.452.544.112.99.28.99.374 0 .097.147.122.348.058.47-.149.336.268-.166.52-.203.103-.58.39-.84.638-.424.406-.622.461-1.94.536-1.307.075-1.479.051-1.58-.214zm-.881-.28c-.23-.295-.577-1.608-.564-2.135.01-.414.429-1.42.67-1.61.057-.046.233-.286.392-.535.158-.25.381-.453.495-.453.114 0 .298.204.41.453.11.249.311.637.445.864.432.733.296 1.318-.584 2.51-.85 1.15-.993 1.253-1.264.906zm-11.83-1.175c-.049-.126-.292-.27-.542-.32-.249-.05-.759-.335-1.133-.635-.539-.433-.682-.656-.688-1.08-.008-.504.025-.535.567-.535.434 0 .58.07.59.288.01.229.032.237.106.04a.83.83 0 0 1 .29-.364c.11-.064.205-.353.213-.642.009-.289.099-.576.2-.64.323-.199.984.025 1.315.446.397.505.661.363.661-.355 0-.301.14-.72.311-.932l.311-.384.822.385.822.385.349-.348c.716-.716.968-.333.992 1.506.021 1.637.142 1.495-1.714 2.012-1.412.393-1.9.588-2.549 1.02-.665.442-.804.465-.924.153z" id="1677462931221-5471044_path4358" display="inline" fill="#212121" stroke-width=".165"></path></g></g></svg>