<svg width="109" height="108" xmlns="http://www.w3.org/2000/svg" viewBox="0 0 28.971 28.708"><title>firis category puniball</title><g fill="#212121" class="nc-icon-wrapper"><g id="1677462931222-750019_layer1" transform="translate(-16.967 -61.39)"><path d="M27.067 89.97c-1.598-.258-2.377-.722-3.31-1.97-1.381-1.847-1.61-2.369-1.731-3.941-.068-.88-.047-1.508.055-1.638.091-.116.212-.457.27-.758.237-1.252 1.824-2.636 3.833-3.343.804-.283 1.24-.328 2.611-.266 2.033.09 2.835.425 4.412 1.836 1.327 1.19 1.97 2.386 2.347 4.376.225 1.184.224 1.4-.012 2.209-.143.493-.424 1.14-.625 1.437-.387.575-1.459 1.383-2.006 1.513-.181.043-.737.19-1.235.326-1.312.36-3.192.45-4.609.22zm.898-.752c.122-.197-.188-.392-.407-.256-.184.113-.063.41.167.41.08 0 .188-.07.24-.154zm-1.227-.247c0-.298-.755-.832-1.395-.987l-.49-.119.325.359c.252.278 1.269.931 1.519.976.022.004.04-.1.04-.229zm5.462-1.726c.662-.613.83-.857.687-1.003-.23-.236-.554-.082-1.52.726-.377.315-.834.62-1.015.677-.506.16-1.938-.39-2.544-.979a8.318 8.318 0 0 0-.98-.813c-.239-.157-.574-.515-.745-.794l-.31-.51-.104.561c-.122.647.119 1.397.574 1.791.73.634 2.378 1.102 3.981 1.133 1.1.02 1.1.02 1.976-.79zm-8.19-.584c-.242-.37-.27-.684-.18-2.125.098-1.618.008-2.078-.406-2.078-.212 0-.506 1.824-.395 2.444.104.575 1.07 2.389 1.202 2.257.035-.035-.064-.259-.22-.498zm9.148-1.971c0-.312-.074-.613-.165-.669-.09-.056-.164-.25-.164-.432 0-.263-.092-.32-.453-.278-.382.044-.461.14-.506.61-.097 1.018.072 1.335.715 1.335.543 0 .573-.03.573-.566zm-6.227-2.33c.398-.205.452-.296.292-.489-.269-.324-.382-.302-.966.19-.373.313-.506.563-.502.946l.006.52.34-.457a2.9 2.9 0 0 1 .83-.71zm7.38.027c0-.13-.124-.358-.274-.509-.254-.253-.284-.253-.426-.002-.083.15-.11.378-.06.508.117.308.76.31.76.003zm-10.431-.835c.052-.136.23-.247.395-.247.346 0 1.052-.904.9-1.151-.183-.295-.747-.176-1.17.247-.227.227-.37.481-.319.565.052.084.019.198-.073.255-.219.135-.217.578.002.578.094 0 .213-.111.265-.247zm8.85-.955c-.525-.617-1.024-.922-2.336-1.426-1.028-.396-1.567-.424-1.84-.095-.297.359-.06.583.622.584 1.215.003 2.254.486 3.465 1.615.156.145.287.162.399.05.112-.112.01-.35-.31-.728zM26.2 79.56c-.055-.055-.197-.061-.316-.013-.132.052-.093.091.1.1.173.006.27-.033.215-.087zm11.199.508c-.797-.163-1.57-.479-1.772-.723-.045-.054-.353-.3-.683-.547-.862-.642-1.451-1.792-1.709-3.337l-.22-1.317.558-.85c.788-1.203 1.47-1.665 2.9-1.967 1.997-.421 3.565-.105 6.376 1.285 1.611.797 2.547 1.687 2.797 2.659.513 2.001.363 3.067-.543 3.863-.685.601-1.804.884-3.797.96-.814.03-1.832.077-2.261.104a7.61 7.61 0 0 1-1.646-.13zm-.381-.957a4.29 4.29 0 0 1-.938-.474c-.25-.175-.453-.28-.453-.233 0 .21 1.42 1.04 1.635.958.164-.063.086-.143-.244-.25zm1.528.284c-.055-.055-.197-.06-.316-.013-.131.053-.092.092.1.1.173.007.27-.032.216-.087zm.912-.173c-.112-.045-.334-.048-.494-.006-.16.041-.07.078.202.082.272.003.403-.031.292-.076zm1.503-.836c.067-.067.32-.132.563-.145.242-.012.72-.189 1.063-.391.475-.282.58-.42.444-.582-.123-.148-.124-.246-.004-.32.206-.128.232-1.183.032-1.307-.077-.048-.278.014-.446.137-.258.189-.276.288-.116.64.167.368.143.448-.206.677-.218.143-.45.26-.516.26-.065 0-.296.166-.512.37-.298.28-.591.37-1.2.37-.697 0-.871-.071-1.288-.528-.446-.488-.708-.611-1.582-.743a.497.497 0 0 1-.387-.377c-.09-.5-.329-.671-.46-.33-.079.206-.003.392.241.59.197.159.357.351.357.427 0 .276.946 1.024 1.495 1.181.675.194 2.352.24 2.522.07zm-6.07-.966c-.144-.275-.25-.909-.25-1.496-.003-1.489-.403-1.617-.592-.188-.082.615-.022.822.433 1.502.568.85.814.96.408.182zm10.613-.477c0-.256-.093-.412-.247-.412-.153 0-.247.156-.247.412s.094.411.247.411c.154 0 .247-.155.247-.411zm.1-1.098c.079-.128.03-.159-.145-.091-.197.075-.316-.054-.463-.501a3.292 3.292 0 0 0-.627-1.049c-.408-.425-2.651-1.73-2.651-1.542 0 .05-.29-.058-.644-.239-1.304-.665-2.484-.707-2.484-.088 0 .294 1.06.586 2.39.66 1.2.066 2.502.645 2.218.986-.131.159-.102.205.12.187.203-.016.435.265.758.923.405.824.527.946.937.946.26 0 .525-.086.59-.192zm-8.428-1.006c.232-.369-.086-.68-.545-.535-.376.12-.472.668-.14.8.298.12.488.046.685-.265zm-14.965-.24c-.928-.086-2.587-.578-2.38-.706.141-.087.076-.206-.219-.4-.53-.346-2.068-2.557-2.27-3.262-.498-1.73-.5-4.29-.004-5.406.56-1.26 1.493-2.282 2.633-2.883.962-.507 1.176-.555 2.47-.553 1.634.004 3.326.322 4.238.798.35.182 1.228.842 1.952 1.466 1.075.927 1.43 1.359 1.932 2.356.338.672.692 1.535.787 1.92.205.823.042 2.34-.262 2.457a.23.23 0 0 0-.131.297c.248.647-2.132 2.828-3.897 3.569-1.04.437-1.293.477-2.75.437a51.037 51.037 0 0 1-2.1-.09zm1.243-.554c-.221-.088-.703-.402-1.07-.698-.367-.295-1.1-.752-1.631-1.016-.858-.428-2.246-1.71-2.246-2.074 0-.076-.155-.38-.345-.677l-.345-.539.11.576c.24 1.246.372 1.484 1.466 2.629 1.236 1.294 1.487 1.451 2.758 1.727 1.287.28 1.909.314 1.303.072zm4.308-.697c.934-.412 1.939-1.405 1.939-1.914 0-.177-.157-.363-.36-.427-.28-.089-.467.003-.824.403-.254.284-.462.688-.462.897 0 .378-.44.885-1.07 1.234-.575.318-.124.206.777-.193zm-1.735-2.51c1.224-.338 1.863-.923 1.863-1.704 0-.713-.251-.995-1.32-1.48-.847-.383-2.54-.478-2.425-.136.038.116.371.217.758.23 1.156.04 1.403.464.93 1.596-.41.98-1.003 1.136-2.448.644-.948-.323-2.409-1.63-2.409-2.156 0-.175-.146-.642-.325-1.036-.453-.998-.418-1.3.243-2.073.317-.37.576-.722.576-.781 0-.281-.745.047-1.054.463-.773 1.046-.105 5.479.945 6.265.814.61 2.809.682 4.666.168zm4.401-.168c.305-.117.333-.445.078-.921-.141-.264-.213-.291-.318-.12-.076.122-.394.212-.723.202-.69-.02-.707.025-.217.542.375.396.706.479 1.18.297zm-7.188-3.053c.285-.285-.058-.798-.531-.798-.552 0-.653.257-.257.652.385.385.523.41.788.146zm7.12-.305c0-.62-1.224-2.667-2.027-3.388-1.308-1.177-2.912-1.753-2.912-1.047 0 .26.276.466 1.193.888.657.302 1.424.76 1.705 1.02.802.737 1.424 1.838 1.344 2.38-.038.258.011.497.108.531.305.107.588-.078.588-.384zm-5.856-4.538c.142-.142.258-.285.258-.317 0-.231-.602-.577-1.004-.577-.652 0-.82.445-.322.85.459.37.73.382 1.068.044z" id="1677462931222-750019_path2976" display="inline" fill="#212121" stroke-width=".165"></path></g></g></svg>