<?xml version="1.0" encoding="UTF-8"?>
<svg width="29.606mm" height="23.18mm" version="1.1" viewBox="0 0 29.606 23.18" xmlns="http://www.w3.org/2000/svg">
 <g transform="translate(16.933)">
  <path d="m3.4012 22.87c-0.59526-0.46823-0.5779-1.0616 0.040402-1.3814 0.45802-0.23686 0.51427-0.22262 1.385 0.35078 0.51258 0.33758 0.93628 0.74779 0.97351 0.9426 0.060484 0.31636-0.017992 0.34848-0.948 0.3883-0.82164 0.03516-1.0968-0.0217-1.4509-0.30033zm1.2092-0.48448c-0.32856-0.21233-1.2013-0.21233-1.07 0 0.055959 0.09054 0.37515 0.16349 0.70935 0.16211 0.45289-0.0026 0.54472-0.04315 0.36068-0.16211zm-14.486-0.35891c-0.72377-0.2068-0.98772-0.4222-0.98772-0.80611 0-0.43918 1.0595-0.61354 1.63-0.26826 0.67204 0.40674 0.80505 0.72414 0.42413 1.0121-0.37269 0.28173-0.31094 0.27813-1.0664 0.06231zm0.57616-0.46418c-0.055959-0.09054-0.30107-0.15941-0.54472-0.15304-0.39555 0.01032-0.40772 0.02672-0.11374 0.15304 0.45736 0.19653 0.77994 0.19653 0.65847 0zm1.8108-0.67445c-0.18108-0.10528-0.60034-0.44955-0.9317-0.76507-0.34615-0.32962-0.68371-0.52348-0.79343-0.45566-0.10504 0.06493-1.0192 0.15105-2.0314 0.1914-1.0122 0.04035-1.9864 0.10419-2.1648 0.14187-0.61114 0.12906-2.1197-0.43757-2.694-1.012-0.52906-0.52904-0.54718-0.58812-0.43524-1.4172 0.14949-1.1069 0.20275-1.1993 1.2782-2.2164 0.66641-0.63024 1.1382-0.91932 1.8277-1.1197 0.95658-0.27808 1.874-0.21365 2.0033 0.14068 0.09893 0.27112-0.34941 1.4834-0.57661 1.5591-0.30295 0.10096-1.1583-0.31499-1.3379-0.65064-0.09025-0.16867-0.26694-0.30668-0.39259-0.30668-0.13316 0-0.01085 0.2177 0.29348 0.52194 0.39873 0.39875 0.70422 0.53946 1.2943 0.59616 0.72154 0.06932 1.0853 0.35179 0.8803 0.68347-0.04273 0.06916 0.1075 0.21008 0.33382 0.31319l0.41151 0.18751-0.41667-0.6132c-0.59706-0.87863-0.56848-1.7232 0.07377-2.1805 0.87662-0.6242 2.6932-1.3674 3.8719-1.5841 2.6451-0.48622 3.5148-0.16412 4.6813 1.7336 0.45471 0.73978 0.77155 1.1161 0.80296 0.95374 0.043577-0.22558 0.2268-0.25582 1.1523-0.19018 0.7647 0.05424 1 0.03045 0.77123-0.07792-0.18105-0.0858-0.72157-0.16121-1.2011-0.16756-0.79079-0.01058-0.89797-0.05744-1.1523-0.5044-0.15423-0.27104-0.33599-0.49326-0.40389-0.49384-0.067918 0-0.12345-0.09829-0.12345-0.21717 0-0.24884-0.73634-0.97372-1.265-1.2453-0.79991-0.41098-4.207-0.07265-5.1629 0.51266-0.28427 0.17407-0.36399 0.16531-0.48861-0.05374-0.081915-0.14396-0.30647-0.44027-0.499-0.65847l-0.35007-0.39674 0.34351 0.51927c0.45955 0.69466 0.44143 0.77232-0.25818 1.1059-0.67926 0.32393-0.76155 0.26715-1.043-0.7198-0.18862-0.66143-0.2214-1.8108-0.05167-1.8108 0.06294 0 0.34073 0.20193 0.61733 0.44873 0.33509 0.29903 0.29874 0.23315-0.10898-0.19754-0.3365-0.35544-0.6549-0.6032-0.70758-0.55054-0.05265 0.05265-0.10766 0.39513-0.12226 0.76105-0.02434 0.61391-0.05247 0.65183-0.36245 0.49094-1.2224-0.6346-3.0051-2.6539-4.4205-5.0073-0.66392-1.1039-0.7285-1.4012-0.36915-1.6994 0.19457-0.16148 0.40497-0.030295 1.1559 0.72062 1.1597 1.1597 1.4411 1.2031 0.38399 0.05924-0.43651-0.47236-0.76679-0.93536-0.73395-1.0289 0.18465-0.52575 3.8286 0.3207 5.7055 1.3254 0.40743 0.21807 1.8646 0.83693 3.2381 1.3753 1.3736 0.53827 2.6329 1.0556 2.7985 1.1496 0.41307 0.23447 3.182 1.3181 3.182 1.2452 0-0.03228-0.069003-0.24016-0.15333-0.46199-0.13693-0.36012-0.22948-0.39555-0.86424-0.33094-0.52604 0.053578-0.85214-0.016404-1.2541-0.26839-0.65913-0.41357-0.58465-0.58732 0.31335-0.73091 0.66699-0.10665 0.67604-0.11673 0.38968-0.43318-0.16126-0.17814-0.46553-0.32393-0.6762-0.32393-0.55002 0-1.8198-0.98303-2.0201-1.5639-0.093662-0.27162-0.13531-1.1066-0.092578-1.8554 0.062495-1.0954 0.16192-1.4977 0.50858-2.0577 0.63598-1.0275 1.3946-1.7662 1.8138-1.7662 0.49313 0 0.5933 0.20653 0.37253 0.76811-0.52599 1.338-0.45492 1.7841 0.11015 0.69136 0.20857-0.40333 0.29988-0.45868 0.49268-0.29864 0.29747 0.24688 0.30422 1.097 0.012965 1.6377-0.12192 0.22635-0.41778 0.77444-0.65744 1.218-0.56944 1.0538-0.55705 1.4379 0.058076 1.8013l0.49384 0.29173v-0.59296c0-0.67461 0.52755-1.3206 1.2205-1.4945 0.47562-0.11938 0.55229-0.3166 0.17878-0.45993-0.37055-0.14219-0.29713-0.5901 0.12348-0.75311 0.25884-0.1003 0.51911-0.061542 0.86423 0.12877 0.44789 0.24696 0.56658 0.24932 1.2749 0.0254 0.42958-0.13581 0.78145-0.32999 0.78192-0.43151 0-0.10149-0.36171-0.23265-0.80484-0.29144-0.85299-0.11316-1.2689-0.4272-1.111-0.83884 0.069532-0.18119 0.34623-0.24903 1.0158-0.24903 1.1421 0 1.0504-0.21635-0.25596-0.60418-0.68966-0.20473-0.98322-0.37354-0.98322-0.56541 0-0.35624 0.4713-0.47157 1.9379-0.47432 1.1616-0.0026458 1.2178 0.016669 1.8931 0.63474 0.38277 0.35033 0.86939 0.69085 1.0814 0.75663 0.44246 0.13737 0.91398 1.1061 0.76573 1.5732-0.060484 0.19058 0.0254 0.43212 0.22445 0.63116 0.31504 0.31504 0.32433 0.31525 0.40434 0.00926 0.3298-1.2611 3.0329 0.7533 3.1889 2.3764 0.061463 0.63966 0.049424 0.66297-0.18809 0.36388-0.13957-0.17576-0.25376-0.23569-0.25376-0.13319 0 0.18328 0.3044 0.44527 0.52311 0.45022 0.10978 0.00265 0.93033 1.0342 1.4926 1.8767 0.38251 0.57317 0.36457 1.5299-0.04363 2.3301-0.4455 0.87323-0.67368 0.83336-0.54639-0.09546 0.07639-0.55721 0.02328-0.9108-0.20892-1.3898l-0.31136-0.64241-0.45098 0.43122c-0.55385 0.52962-0.73112 0.4087-0.38425-0.26207 0.31329-0.60579 0.31393-0.67792 0.009525-1.08-0.22812-0.30149-0.28316-0.27358-1.2172 0.6173-0.58965 0.56242-1.1239 0.93308-1.345 0.93308-0.21513 0-0.6115 0.26506-0.95877 0.64111-0.39195 0.42447-0.84045 0.708-1.327 0.83897-0.40426 0.10882-0.91175 0.33687-1.1278 0.50684-0.36692 0.28861-0.42632 0.29165-0.90133 0.046011-0.27969-0.14462-0.63304-0.41675-0.78526-0.60471-0.25572-0.31581-0.29713-0.32142-0.54486-0.073686-0.35637 0.35637-0.34398 0.39603 0.18457 0.59124 0.24897 0.09194 0.9194 0.35441 1.4898 0.58327 0.96099 0.38552 1.0299 0.39322 0.93837 0.10499-0.19039-0.59986 0.89101-1.0198 3.21-1.2465 2.2013-0.21521 3.8718 1.852 2.4925 3.0844-0.44281 0.39563-0.66365 0.46665-1.4513 0.46665-0.82873 0-1.0231-0.07107-1.8012-0.65847-0.47966-0.36216-0.9379-0.65847-1.0183-0.65847-0.08038 0-0.28025-0.14817-0.4441-0.32925-0.16388-0.18108-0.41611-0.32655-0.56052-0.32329-0.32607 0.0074 0.13608 0.39518 1.5838 1.3291 1.3289 0.85728 1.8171 0.98711 2.9751 0.79118 0.5171-0.0875 1.3153-0.14436 1.7739-0.12636 0.45852 0.01799 0.92332-0.02275 1.0329-0.09038 0.27543-0.17021 1.1797 0.04887 1.1753 0.28477-0.0026 0.10599-0.48842 0.489-1.081 0.85116-1.6609 1.0151-1.5641 0.89762-1.3568 1.6462 0.21799 0.78722 0.2273 2.8042 0.01561 3.3579-0.15084 0.39428-0.15145 0.39407-0.51498-0.19412-0.20018-0.3239-0.43196-0.61267-0.51506-0.64172-0.088318-0.03085-0.094509-0.30231-0.014817-0.65339 0.07493-0.33033 0.072787-0.70072-0.00476-0.82309-0.1052-0.166-0.14163-0.13777-0.14351 0.11128-0.00423 0.55769-0.46699 1.0415-1.4518 1.5176-0.88112 0.42598-1.0716 0.45331-3.16 0.45331-1.8595 0-2.3164-0.05046-2.7985-0.30901-0.68988-0.36997-1.1068-0.78441-1.2996-1.2918-0.2222-0.58476 0.047704-1.8594 0.54602-2.5785 0.24916-0.35952 0.42415-0.78854 0.38888-0.9534-0.045985-0.21489-0.12872-0.12658-0.29236 0.31216-0.20323 0.54486-0.30615 0.62357-0.93935 0.71853-0.39113 0.05866-0.87715 0.0748-1.0801 0.0359-0.34367-0.06593-0.31538 0.03561 0.41299 1.4823 0.43008 0.85418 0.78195 1.6816 0.78195 1.8386 0 0.44172-0.71467 1.1091-1.4202 1.3263-0.90062 0.2772-5.8102 0.39031-6.2345 0.14367zm3.1552-0.42302c-0.060351-0.06033-0.15912-0.06033-0.2195 0-0.060352 0.06038-0.011113 0.10978 0.10975 0.10978 0.12073 0 0.1701-0.0494 0.10975-0.10978zm-1.3499-0.29726c-1.5003-0.3266-2.5116-0.86479-2.9935-1.5931-0.23066-0.34856-0.48821-0.63376-0.57235-0.63376-0.084138 0 0.088635 0.33644 0.38394 0.74766 0.85196 1.1863 1.8617 1.6837 3.4344 1.6917l0.74078 0.0037-0.99319-0.21622zm5.0263-0.7453c0-0.09054-0.11549-0.16462-0.25665-0.16462-0.14116 0-0.21085 0.07408-0.15489 0.16462 0.055933 0.09054 0.17142 0.16462 0.25662 0.16462 0.085196 0 0.15491-0.07408 0.15491-0.16462zm-13.348-0.06096c-0.21579-0.1918-1.6325-0.72168-1.6325-0.6106 0 0.14393 1.0871 0.62947 1.4679 0.65556 0.12824 0.0087 0.20233-0.01138 0.1646-0.04495zm11.866-0.25336c-0.13581-0.07684-0.43212-0.18494-0.65847-0.24029-0.34303-0.08382-0.32933-0.06099 0.082312 0.13729 0.52755 0.25411 0.98907 0.3366 0.57616 0.103zm3.4625-0.29218c-0.24527-0.31181-0.31864-0.57372-0.24924-0.88974 0.054266-0.24696 0.020108-0.49612-0.075883-0.55552-0.32536-0.20108-0.18701 1.0035 0.16693 1.4534 0.18764 0.23855 0.37822 0.43373 0.42349 0.43373 0.04527 0-0.07411-0.19886-0.2653-0.44188zm5.7561-0.05196c0.13581-0.08776 0.17285-0.15957 0.082312-0.15957-0.09054 0-0.27575 0.07181-0.41156 0.15957-0.13578 0.08779-0.17283 0.15957-0.082285 0.15957 0.09054 0 0.27572-0.07178 0.41153-0.15957zm2.6339-0.24694c0-0.04527-0.037042-0.08229-0.082312-0.08229s-0.082285 0.03702-0.082285 0.08229 0.037015 0.08231 0.082285 0.08231 0.082312-0.03704 0.082312-0.08231zm-19.589-0.15489c0-0.03993-0.074083-0.11837-0.16462-0.17433-0.09054-0.05596-0.16462-0.02328-0.16462 0.0726 0 0.09586 0.07408 0.17433 0.16462 0.17433 0.090541 0 0.16462-0.03268 0.16462-0.0726zm12.182-0.0098c0-0.04527-0.037042-0.08231-0.082312-0.08231s-0.082312 0.03704-0.082312 0.08231 0.037042 0.08231 0.082312 0.08231 0.082312-0.03704 0.082312-0.08231zm5.9045-0.7199c-0.033338-0.0979-0.19537 0.06104-0.3601 0.35324l-0.29948 0.53127 0.36007-0.35322c0.19804-0.19428 0.33282-0.43336 0.29951-0.53128zm-23.504 0.21077c0.83301 0.25868 1.0051 0.25202 0.48099-0.01852-0.70347-0.36327-0.80701-0.77679-0.32332-1.2916l0.36708-0.39076 0.41079 0.32314c0.22593 0.17772 0.56748 0.31644 0.75898 0.30829 0.24535-0.01032 0.19127-0.06019-0.18301-0.16835-0.713-0.206-0.93202-0.63468-0.5873-1.1495 0.18635-0.27826 0.08027-0.22471-0.35716 0.18031-0.76078 0.70443-1.2255 1.6618-1.1014 2.2691 0.06869 0.33602 0.10737 0.37177 0.15573 0.14378 0.04519-0.21299 0.15793-0.27429 0.37857-0.20577zm1.9055 0.31708c-0.06035-0.06035-0.15912-0.06035-0.2195 0-0.06035 0.06035-0.01111 0.10975 0.10975 0.10975 0.12073 0 0.1701-0.0494 0.10975-0.10975zm7.2877-0.55457c-0.8505-0.74082-1.7152-1.1478-2.4113-1.1349l-0.62386 0.01164 0.61524 0.22598c0.33838 0.1243 0.94586 0.45344 1.3499 0.73147 1.3241 0.91096 2.0556 1.0243 1.07 0.16581zm-7.8913 0.41738c0-0.04527-0.03704-0.08231-0.08231-0.08231s-0.08231 0.03704-0.08231 0.08231 0.03704 0.08231 0.08231 0.08231 0.08231-0.03704 0.08231-0.08231zm6.0908-0.32922c0-0.04527-0.037042-0.08231-0.082312-0.08231s-0.082312 0.03704-0.082312 0.08231 0.037042 0.08228 0.082312 0.08228 0.082312-0.03702 0.082312-0.08228zm17.779 0.0098c0-0.03993-0.085513-0.12547-0.19005-0.19005-0.11774-0.07279-0.14536-0.04516-0.072602 0.07258 0.11729 0.18976 0.26265 0.25477 0.26265 0.11748zm-19.425-0.17433c0-0.04527-0.037042-0.08231-0.082312-0.08231s-0.082312 0.03704-0.082312 0.08231 0.037042 0.08231 0.082312 0.08231 0.082312-0.03704 0.082312-0.08231zm12.676 0c0-0.04527-0.037042-0.08231-0.082312-0.08231s-0.082312 0.03704-0.082312 0.08231 0.037042 0.08231 0.082312 0.08231 0.082312-0.03704 0.082312-0.08231zm6.1415-0.40032c-0.045694-0.17473-0.1869-0.35753-0.3138-0.40622-0.27945-0.10726-0.28326-0.06511-0.042016 0.46437 0.21392 0.46953 0.48231 0.42564 0.35581-0.05816zm-17.928 0.08729c-0.04871-0.12689-0.25008-0.27207-0.44754-0.32266-0.33502-0.08581-0.3315-0.07062 0.052546 0.22706 0.4962 0.3846 0.50689 0.38719 0.395 0.09559zm11.375 0.06609c-0.055959-0.09054-0.17582-0.16462-0.26636-0.16462-0.09054 0-0.11882 0.07408-0.062865 0.16462 0.055959 0.09054 0.17582 0.16462 0.26636 0.16462 0.09054 0 0.11882-0.07408 0.062865-0.16462zm-12.572-0.2209c-0.10083-0.12152-0.12856-0.27572-0.061569-0.34271 0.066966-0.06697-0.020902-0.22606-0.19518-0.35354-0.46995-0.34364-0.19346-0.47249 0.30832-0.1437 0.23704 0.15528 0.47805 0.23529 0.53557 0.17775 0.057547-0.05752 0.023813-0.10459-0.074798-0.10459-0.09869 0-0.4018-0.18711-0.67358-0.41579-0.28594-0.24061-0.53687-0.34668-0.59552-0.25178-0.14065 0.2276 0.5992 1.6553 0.85781 1.6553 0.04527 0-1.852e-4 -0.0994-0.10104-0.2209zm-0.68006-1.1783c0-0.04527 0.03704-0.08231 0.08231-0.08231s0.08231 0.03704 0.08231 0.08231-0.03704 0.08231-0.08231 0.08231-0.08231-0.03704-0.08231-0.08231zm2.6339 1.3169c0-0.04527-0.037042-0.08231-0.082312-0.08231s-0.082312 0.03704-0.082312 0.08231 0.037042 0.08231 0.082312 0.08231 0.082312-0.03704 0.082312-0.08231zm9.5478-0.64876c0-0.17375-0.31594-0.24675-0.40989-0.0947-0.056859 0.09202 0.012171 0.1673 0.15325 0.1673 0.14116 0 0.25665-0.03265 0.25665-0.0726zm6.8372-0.41513c-0.16084-0.1777-0.25069-0.43177-0.19973-0.56462 0.1048-0.2731 1.3877-0.51668 1.8869-0.35825 0.21286 0.06755 0.35954 0.01614 0.42264-0.14835 0.05667-0.14769 0.32004-0.26112 0.6368-0.27427 0.31271-0.01296 0.4005-0.05032 0.20852-0.08866-0.1824-0.03646-1.1068 0.08398-2.0541 0.26763l-1.7224 0.3339-1.4028-0.70961c-0.77158-0.39029-2.0696-1.1174-2.8844-1.6158-1.5427-0.94353-2.6857-1.4649-3.1722-1.4469-0.15682 0.0058-0.025929 0.12332 0.29141 0.26157 0.31689 0.13809 0.98359 0.46384 1.4816 0.72387 0.49797 0.26006 1.2584 0.63905 1.6898 0.84217 0.43143 0.20312 0.75877 0.44675 0.72745 0.54139-0.031327 0.09464-0.67815 0.22884-1.4374 0.29826-0.75925 0.06943-1.4444 0.19021-1.5226 0.26842-0.079825 0.0798 0.17044 0.08176 0.57068 0.0045 0.39209-0.07575 1.3061-0.14097 2.0311-0.14491 1.4764-0.0082 2.2341 0.2903 3.7849 1.4903 0.92046 0.71226 1.0959 0.79666 0.66402 0.3194zm-6.0141-0.92522c0-0.29072-0.35438-0.24008-0.45614 0.06514-0.035825 0.10753 0.052123 0.1955 0.19547 0.1955 0.14338 0 0.26067-0.11729 0.26067-0.26064zm-12.511-0.31552c0-0.04527-0.03704-0.08231-0.08231-0.08231s-0.08231 0.03704-0.08231 0.08231 0.03704 0.08229 0.08231 0.08229 0.08231-0.03702 0.08231-0.08229zm15.268-0.031168c-0.15843-0.04143-0.41772-0.04143-0.57616 0-0.15843 0.04141-0.028813 0.07527 0.28808 0.07527 0.31689 0 0.44654-0.03387 0.28808-0.07527zm-13.852-0.68188c0.099669-0.13406 0.32319-0.25421 0.49676-0.26702 0.17354-0.0127 0.39751-0.0739 0.49773-0.13584 0.1002-0.06194 0.72856-0.16378 1.3963-0.22632 0.98912-0.09268 1.1267-0.13732 0.74237-0.2409-0.91231-0.24582-3.6398 0.5551-4.2036 1.2344-0.19619 0.2364-0.16325 0.24336 0.33584 0.0708 0.30435-0.10522 0.63489-0.30102 0.73456-0.43508zm17.79-2.2775c-0.060352-0.06035-0.10975-0.01111-0.10975 0.10975 0 0.1207 0.049398 0.1701 0.10975 0.10975 0.060351-0.06038 0.060351-0.15915 0-0.2195zm-4.2252-0.13719c0.11433-0.13774 0.13213-0.24694 0.040323-0.24694-0.09054 0-0.25683 0.11112-0.36954 0.24694-0.11433 0.13774-0.13216 0.24694-0.040323 0.24694 0.09054 0 0.25683-0.11112 0.36954-0.24694zm3.9508-0.16462c0-0.04527-0.037015-0.08231-0.082285-0.08231s-0.082312 0.03704-0.082312 0.08231 0.037042 0.08231 0.082312 0.08231 0.082285-0.03704 0.082285-0.08231zm-9.054-0.16462c0-0.04527-0.037042-0.08229-0.082312-0.08229s-0.082285 0.03702-0.082285 0.08229 0.037015 0.08231 0.082285 0.08231 0.082312-0.03704 0.082312-0.08231zm8.7247-0.08229c0-0.09054-0.2037-0.15724-0.4527-0.14822l-0.4527 0.0164 0.41156 0.13179c0.22635 0.0725 0.43005 0.1392 0.45268 0.14822 0.02249 9e-3 0.041169-0.05768 0.041169-0.14822zm-9.054-0.07808c0-0.10684-0.95597-0.5929-1.472-0.7484-0.23164-0.06982-0.5693-0.18608-0.75038-0.25834-0.30853-0.12314-0.31186-0.11388-0.052917 0.14748 0.15198 0.15338 0.41653 0.27884 0.58793 0.27884 0.17137 0 0.60262 0.14523 0.95829 0.32269 0.73141 0.36494 0.72903 0.36409 0.72903 0.25773zm7.6924-0.02143c-0.054716-0.05469-0.19669-0.06054-0.31552-0.01296-0.13134 0.05255-0.092313 0.09155 0.099457 0.09946 0.17351 0.0071 0.27075-0.03178 0.21606-0.08647zm-4.2355-0.31207c0-0.04527-0.037042-0.08231-0.082312-0.08231s-0.082312 0.03704-0.082312 0.08231 0.037042 0.08231 0.082312 0.08231 0.082312-0.03704 0.082312-0.08231zm-2.4281-0.19132c-0.11319-0.04567-0.29837-0.04567-0.41156 0-0.11316 0.04564-0.020638 0.08303 0.20579 0.08303 0.22635 0 0.31893-0.03739 0.20577-0.08303zm-3.8274-0.1379c0-0.04527-0.037042-0.08231-0.082312-0.08231s-0.082312 0.03704-0.082312 0.08231 0.037042 0.08229 0.082312 0.08229 0.082312-0.03702 0.082312-0.08229zm3.1277 0c0-0.04527-0.037042-0.08231-0.082312-0.08231s-0.082285 0.03704-0.082285 0.08231 0.037015 0.08229 0.082285 0.08229 0.082312-0.03702 0.082312-0.08229zm-0.49384-0.16462c0-0.04527-0.037042-0.08231-0.082312-0.08231s-0.082312 0.03704-0.082312 0.08231 0.037042 0.08231 0.082312 0.08231 0.082312-0.03704 0.082312-0.08231zm-3.7654-0.9267c-0.75814-0.35827-1.4125-0.61735-1.4541-0.57573-0.079428 0.079454 1.3705 0.76166 1.6188 0.76166 0.079031 0 0.1437 0.068633 0.1437 0.15256 0 0.15613 0.38243 0.29924 0.82309 0.30803 0.13581 0.0026-0.37338-0.28824-1.1315-0.64651zm-1.0085 0.43286c0-0.04527-0.037042-0.082312-0.082312-0.082312s-0.082312 0.037042-0.082312 0.082312c0 0.045244 0.037042 0.082285 0.082312 0.082285s0.082312-0.03704 0.082312-0.082285zm5.2677 0c0-0.04527-0.037042-0.082312-0.082312-0.082312s-0.082285 0.037042-0.082285 0.082312c0 0.045244 0.037015 0.082285 0.082285 0.082285s0.082312-0.03704 0.082312-0.082285zm11.468-0.19206c-0.06035-0.060351-0.10975-0.011112-0.10975 0.10975 0 0.1207 0.0494 0.1701 0.10975 0.10975 0.06035-0.060378 0.06035-0.15915 0-0.2195zm-11.798 0.027437c0-0.04527-0.037042-0.082312-0.082312-0.082312s-0.082312 0.037042-0.082312 0.082312 0.037042 0.082312 0.082312 0.082312 0.082312-0.037042 0.082312-0.082312zm1.2802-0.36938c-0.13981-0.15899-0.41249-0.60391-0.60595-0.98872-0.42691-0.84905-0.60865-0.92591-0.26937-0.1139 0.30475 0.72938 0.91742 1.6038 1.0387 1.4825 0.049927-0.049927-0.023548-0.22087-0.16338-0.37986zm10.468-0.42394c-0.19606-0.34637-0.6014-0.77055-0.73636-0.77055-0.07234 0 0.03175 0.25032 0.2313 0.55629 0.19955 0.30594 0.41958 0.52305 0.48895 0.48247 0.06937-0.040587 0.07665-0.16129 0.01614-0.26821zm-23.008-0.073448c0.19402-0.12954 0.55965-0.75935 0.55965-0.96398 0-0.068157-0.22066 0.087445-0.49035 0.34584-0.32094 0.3075-0.6644 0.46977-0.99417 0.46977-0.32441 0-0.42826 0.047969-0.2916 0.13467 0.26395 0.16745 0.97422 0.17547 1.2165 0.013758zm21.535-0.14449c0.15684-0.40873-0.01614-0.46453-0.22564-0.07284-0.10112 0.18894-0.11504 0.34332-0.030956 0.34332 0.084032 0 0.1995-0.12173 0.25659-0.27048zm-16.201-0.12594c0-0.10271-2.023-0.76316-2.1004-0.6858-0.085513 0.085513 0.54856 0.42862 1.1031 0.5969 0.47387 0.14377 0.99732 0.19045 0.99732 0.0889zm5.2678-0.015081c0-0.04527-0.037042-0.082312-0.082312-0.082312s-0.082312 0.037042-0.082312 0.082312 0.037042 0.082312 0.082312 0.082312 0.082312-0.037042 0.082312-0.082312zm8.3235-0.60164c0.4703-0.50506 0.3039-0.49911-0.29131 0.010583-0.25741 0.2204-0.39555 0.50882-0.24368 0.50882 0.02831 0 0.26908-0.23368 0.53499-0.51932zm-8.6528-0.047096c0-0.039899-0.085513-0.12541-0.19005-0.19002-0.11774-0.07276-0.14536-0.045138-0.072602 0.072602 0.11729 0.18973 0.26265 0.25477 0.26265 0.11742zm11.497-0.58584c-0.3297-0.4459-0.63243-0.63915-0.63243-0.40365 0 0.084005 0.84963 0.88082 0.95147 0.89231 0.0254 0.00291-0.11822-0.21704-0.31903-0.48866zm-20.057-0.17394c-0.366-0.25032-2.1137-1.143-2.2378-1.143-0.05895 0-0.01561 0.1103 0.09626 0.24511 0.11189 0.13481 0.26472 0.20725 0.33959 0.16097 0.07488-0.046276 0.27226 0.061939 0.4386 0.24051 0.31776 0.34107 0.94604 0.64402 1.3633 0.65738 0.2195 0.00714 0.2195-0.010848 0-0.16097zm18.725-0.31991c0.098504 0 0.2087 0.088847 0.2449 0.19743 0.04064 0.12195 0.10779 0.08808 0.17555-0.088529 0.16251-0.42347-0.28916-0.51906-0.77621-0.16433-0.22828 0.16629-0.41741 0.36938-0.42026 0.45133-0.0029105 0.081942 0.13031 0.026458 0.29588-0.12345 0.16558-0.14986 0.38164-0.27244 0.48014-0.27244zm-21.987-0.20029c-0.11814-0.11811-0.19481-0.12785-0.19481-0.024606 0 0.21971 0.19468 0.41439 0.30454 0.30454 0.04678-0.046778-0.0026-0.17269-0.10972-0.27985zm0.9575 0.20029c0-0.090541-0.03265-0.16462-0.07257-0.16462-0.03993 0-0.11838 0.074083-0.17433 0.16462-0.05596 0.09054-0.02328 0.16462 0.0726 0.16462 0.09586 0 0.17431-0.074083 0.17431-0.16462zm8.5601 0.082312c0-0.04527-0.037042-0.082312-0.082285-0.082312-0.04527 0-0.082312 0.037042-0.082312 0.082312s0.037042 0.082312 0.082312 0.082312c0.045244 0 0.082285-0.037042 0.082285-0.082312zm12.148-0.70982c-0.081994-0.42257-0.36698-0.38079-0.58362 0.085566-0.30192 0.64992-0.25508 0.74647 0.21323 0.43961 0.23048-0.151 0.39714-0.38732 0.37039-0.52517zm-9.0203 0.5452c0-0.04527-0.037042-0.082312-0.082312-0.082312s-0.082312 0.037042-0.082312 0.082312 0.037042 0.082312 0.082312 0.082312 0.082312-0.037042 0.082312-0.082312zm4.3953-0.1741c0.14102-0.141 0.35798-0.21741 0.4821-0.16978 0.12954 0.049715 0.22572-0.018785 0.22572-0.16095 0-0.19373-0.069215-0.2105-0.31843-0.077126-0.17513 0.093716-0.55967 0.17042-0.85455 0.17042-0.50676 0-0.51861 0.013229-0.21659 0.24167 0.3996 0.30223 0.37515 0.30239 0.68175-0.00423zm2.8478 0.1741c0-0.04527-0.037042-0.082312-0.082312-0.082312s-0.082312 0.037042-0.082312 0.082312 0.037042 0.082312 0.082312 0.082312 0.082312-0.037042 0.082312-0.082312zm-10.206-0.16462c0-0.04527-0.037042-0.082312-0.082312-0.082312s-0.082312 0.037042-0.082312 0.082312 0.037042 0.082312 0.082312 0.082312 0.082312-0.037042 0.082312-0.082312zm-9.054-0.31163c0-0.035586-0.11112-0.10732-0.24694-0.15944-0.13581-0.052123-0.24691-0.023019-0.24691 0.064691 0 0.087683 0.1111 0.15946 0.24691 0.15946 0.13581 0 0.24694-0.029131 0.24694-0.064717zm11.194-0.017463c0-0.04527-0.037042-0.082312-0.082312-0.082312s-0.082312 0.037042-0.082312 0.082312 0.037042 0.082312 0.082312 0.082312 0.082312-0.037042 0.082312-0.082312zm0.36404-0.35798c-0.065484-0.34258 0.021696-0.52909 0.39322-0.84055l0.47736-0.40024-0.55335 0.30551c-0.66016 0.36452-0.76782 0.57703-0.52353 1.0335 0.24609 0.45982 0.30739 0.43066 0.2063-0.098187zm3.7514 0.35798c0-0.04527-0.037042-0.082312-0.082312-0.082312s-0.082285 0.037042-0.082285 0.082312 0.037015 0.082312 0.082285 0.082312 0.082312-0.037042 0.082312-0.082312zm6.4268-1.2252c-0.36714-0.51559-0.50059-0.61182-0.50059-0.36092 0 0.21058 0.68249 1.0407 0.7775 0.94573 0.04482-0.04482-0.079772-0.308-0.27691-0.58481zm-23.437 0.37462c-0.06035-0.060351-0.15912-0.060351-0.21947 0-0.06038 0.060352-0.01085 0.10975 0.10975 0.10975 0.1207 0 0.1701-0.049398 0.10972-0.10975zm10.837-0.2195c-0.055959-0.09054-0.33811-0.15486-0.62704-0.14295l-0.52528 0.021696 0.57616 0.12126c0.31689 0.066701 0.59904 0.13105 0.62704 0.14295 0.027967 0.011906 0.00503-0.052414-0.050879-0.14295zm11.449 0c0.080301 0 0.10337-0.11112 0.05125-0.24694-0.13322-0.34711-0.34502-0.30702-0.56674 0.10729-0.16367 0.30581-0.15139 0.33954 0.089958 0.24691 0.15375-0.059002 0.34525-0.10726 0.42553-0.10726zm0.65019 0.082312c0-0.04527-0.037042-0.082312-0.082312-0.082312s-0.082312 0.037042-0.082312 0.082312 0.037042 0.082312 0.082312 0.082312 0.082312-0.037042 0.082312-0.082312zm-13.117-1.3992c0.065405-0.49464 0.049504-0.6314-0.047837-0.41153-0.1392 0.3144-0.23334 1.3639-0.10951 1.2209 0.032676-0.03773 0.10348-0.40196 0.15735-0.80939zm4.5572 0.74078c0-0.04527-0.037042-0.082312-0.082312-0.082312s-0.082312 0.037042-0.082312 0.082312 0.037042 0.082312 0.082312 0.082312c0.04527 0 0.082312-0.037042 0.082312-0.082312zm1.4936-0.42362c0.33785-0.33782 0.50729-0.38597 2.2103-0.62783l1.1523-0.16364-1.2346 0.080248c-1.5253 0.099192-2.2013 0.3057-2.7294 0.83376-0.38219 0.38219-0.386 0.40166-0.058182 0.29763 0.19293-0.061251 0.48974-0.25032 0.65958-0.42016zm5.7496-0.30745c0-0.1942-0.32107-0.40198-0.439-0.28408-0.1179 0.11792 0.089853 0.439 0.28408 0.439 0.085196 0 0.15491-0.069718 0.15491-0.15491zm0.49384-0.092022c0-0.04527-0.037042-0.082312-0.082312-0.082312s-0.082312 0.037042-0.082312 0.082312 0.037042 0.082312 0.082312 0.082312 0.082312-0.037042 0.082312-0.082312zm-7.9016-0.16462c0-0.04527-0.037042-0.082312-0.082312-0.082312s-0.082285 0.037042-0.082285 0.082312 0.037015 0.082312 0.082285 0.082312 0.082312-0.037042 0.082312-0.082312zm-3.7973-1.4816c2.646e-4 -0.09054-0.10816-0.020902-0.24109 0.15494-0.13293 0.17576-0.23905 0.43503-0.23585 0.57616 0.00635 0.27937 0.47588-0.44037 0.47694-0.7311zm1.4378 0.79566c-0.060378-0.060352-0.15915-0.060352-0.2195 0-0.060351 0.060378-0.011112 0.10975 0.10975 0.10975 0.1207 0 0.1701-0.049371 0.10975-0.10975zm-0.60362-0.13716c0-0.04527-0.037015-0.082312-0.082285-0.082312s-0.082312 0.037042-0.082312 0.082312c0 0.045244 0.037042 0.082285 0.082312 0.082285s0.082285-0.037042 0.082285-0.082285zm6.036-0.19206c-0.060351-0.060351-0.10975-0.011112-0.10975 0.10975 0 0.1207 0.049398 0.1701 0.10975 0.10975 0.060351-0.060378 0.060351-0.15915 0-0.2195zm0.87797 0.10975c0-0.09054-0.032676-0.16462-0.072602-0.16462s-0.11837 0.074083-0.17433 0.16462c-0.055959 0.09054-0.023283 0.1646 0.072602 0.1646s0.17433-0.074057 0.17433-0.1646zm1.4816 0.082312c0-0.04527-0.037042-0.082312-0.082312-0.082312s-0.082312 0.037042-0.082312 0.082312c0 0.045244 0.037042 0.082285 0.082312 0.082285s0.082312-0.037042 0.082312-0.082285zm-0.75218-1.2186c-0.043312-0.043312-0.20661 0.054769-0.3629 0.21794-0.27152 0.28347-0.268 0.28697 0.07874 0.07874 0.19958-0.11986 0.32745-0.25336 0.28416-0.29668zm-8.0102-0.27313c-0.055166-0.055166-0.18904 0.072681-0.2975 0.28416-0.18852 0.36756-0.1841 0.37198 0.10033 0.10033 0.16362-0.15629 0.25236-0.3293 0.19717-0.38449zm6.4028-0.017198c-0.060351-0.060325-0.10975-0.011113-0.10975 0.10975 0 0.12073 0.049398 0.1701 0.10975 0.10978 0.060351-0.060378 0.060351-0.15915 0-0.21952zm0.3841-0.30178c0-0.04527-0.037042-0.082312-0.082312-0.082312-0.045244 0-0.082285 0.037042-0.082285 0.082312 0 0.04527 0.037042 0.082312 0.082285 0.082312 0.04527 0 0.082312-0.037042 0.082312-0.082312zm-0.3841-0.35668c-0.060351-0.060352-0.15912-0.060352-0.2195 0-0.060351 0.060378-0.011112 0.10975 0.10975 0.10975 0.12073 0 0.1701-0.049371 0.10975-0.10975zm-0.72393-0.16282c-0.11144-0.045112-0.33369-0.047837-0.49384-0.006085-0.16018 0.041725-0.069003 0.078634 0.20262 0.081994 0.27162 0.003175 0.40267-0.030798 0.29123-0.075909z" style="fill:#00aad4;stroke-width:.16462"/>
 </g>
</svg>
