<?xml version="1.0" encoding="UTF-8"?>
<svg width="28.009mm" height="28.928mm" version="1.1" viewBox="0 0 28.009 28.928" xmlns="http://www.w3.org/2000/svg">
 <g transform="translate(17.198 -6.35)">
  <path d="m-12.831 34.6c-1.179-0.60066-3.2407-2.2621-3.2407-2.6116 0-0.0808-0.14076-0.28766-0.31276-0.45966-0.77422-0.77425-1.0656-3.337-0.56465-4.9663 0.15121-0.49175 0.25718-1.0596 0.23551-1.2618-0.02222-0.20841 0.12599-0.52927 0.34245-0.74078 0.21003-0.20521 0.75224-0.92236 1.2049-1.5937 0.45268-0.6713 1.0453-1.3533 1.3169-1.5156 0.27162-0.1623 1.1826-1.0373 2.0244-1.9445 1.3269-1.4299 1.5074-1.6926 1.3568-1.9742-0.09559-0.17862-0.37602-0.42167-0.62317-0.54012-0.24715-0.11848-0.47268-0.33658-0.50123-0.48469-0.07583-0.39381 2.4079-4.1253 2.6506-3.9822 0.10766 0.06345 0.48429 0.29501 0.83698 0.51451 0.42185 0.2626 0.91345 0.40735 1.437 0.42315l0.79581 0.02408 3.2362-3.2516c3.1474-3.1625 3.2654-3.2606 4.3007-3.5805 1.6745-0.51718 3.7036-0.36134 4.6326 0.35579 0.21593 0.16671 0.49435 0.30311 0.61873 0.30311 0.33763 0 1.943 1.4343 2.7576 2.4639 0.66577 0.84135 1.1202 2.3278 1.136 3.7155 0.01323 1.1749-0.04416 1.4424-0.513 2.387-1.2762 2.5713-2.1418 3.7629-4.4796 6.1669-1.9864 2.0426-2.63 2.7305-4.0541 4.3329-0.34769 0.39124-1.0211 1.1039-1.4964 1.5838-0.47532 0.47985-0.86423 0.94012-0.86423 1.0228 0 0.08271-0.22339 0.28231-0.49644 0.4436-0.27302 0.16129-0.97777 0.76988-1.5661 1.3524-0.5883 0.58256-1.1373 1.0592-1.22 1.0592-0.082682 0-0.17428 0.1002-0.20354 0.2227-0.088847 0.37166-1.9455 1.893-2.8373 2.3248-1.1601 0.56179-2.6303 0.91347-3.7118 0.88789-0.71102-0.01693-1.1954-0.16597-2.1983-0.67688zm3.1794-0.40039c-1.9392-0.19669-3.2547-0.8047-4.5229-2.0904-1.3256-1.3438-1.6203-2.1676-1.5427-4.3127 0.04305-1.1904 0.12039-1.6263 0.31425-1.7713 0.14142-0.10578 0.30292-0.31456 0.35891-0.46397 0.08977-0.23955 0.72655-0.70292 2.3191-1.6875 0.53123-0.32845 2.0571-0.75703 2.6951-0.75703 0.64259 0 2.1798 0.78692 2.666 1.3647 0.23553 0.2799 0.58653 0.66143 0.77999 0.84788 0.19349 0.18642 0.47543 0.56118 0.62653 0.8328l0.27474 0.49384-0.092313-0.56004c-0.059267-0.35944-0.37211-0.8596-0.87339-1.3963-0.62259-0.66667-0.72282-0.84767-0.49398-0.89223 0.15788-0.03077 0.60701 0.20627 0.99809 0.52673 0.61442 0.50345 0.77552 0.77914 1.1854 2.0284 0.26091 0.79518 0.51909 2.0014 0.57375 2.6804l0.099351 1.2346 0.13565-0.79171c0.17746-1.0358-0.00265-2.555-0.41278-3.4822-0.18031-0.40767-0.30644-0.76282-0.28027-0.78928 0.026194-0.02646-0.046276-0.15732-0.16103-0.29091-0.11475-0.13359-0.37576-0.50215-0.58007-0.81904-0.20428-0.31689-0.80756-0.86741-1.3406-1.2234-0.94827-0.63328-1.007-0.64878-2.7206-0.7194-1.5864-0.06538-1.8484-0.03302-2.7794 0.34303-1.7691 0.71456-2.1034 1.0257-2.9565 2.7521-0.76488 1.5478-0.7728 1.5808-0.7728 3.2101 0 1.8123 0.12446 2.157 1.2346 3.4195 0.64307 0.73128 1.4266 1.3028 2.6902 1.9622 0.70112 0.36587 1.05 0.44019 2.0015 0.42635 0.63376-0.0093 0.89305-0.04307 0.57616-0.07522zm2.3294-1.1646c0.11316-0.11319 0.32057-0.2063 0.4609-0.2069 0.27122-0.0026 0.94239-0.88522 1.284-1.6912 0.35803-0.84474 0.22603-0.83214-0.46696 0.04458-0.36999 0.46807-0.70951 0.81426-0.75449 0.76928-0.044979-0.04498-0.22085 0.05728-0.39082 0.22725-0.34872 0.34872-1.8728 0.83505-2.7716 0.88442-0.84569 0.04644-1.8535-0.20169-2.0806-0.51223-0.12438-0.17007-0.23204-0.20241-0.30123-0.09043-0.05924 0.09583 0.13316 0.32732 0.42757 0.51438 0.473 0.30057 0.7593 0.33586 2.4613 0.3034 1.2771-0.02434 1.9954-0.10607 2.1318-0.24252zm-1.7532-0.98145c0.4527-0.15547 0.96922-0.3779 1.1478-0.49429 0.17859-0.11639 0.45498-0.21159 0.61418-0.21159 0.17198 0 0.33168-0.16814 0.39344-0.41415 0.05715-0.22778 0.2654-0.54261 0.46273-0.69964 0.32218-0.25635 0.34795-0.38619 0.25262-1.2732l-0.10615-0.98772-0.024077 0.95922c-0.020902 0.83021-0.088159 1.0184-0.49972 1.3992-0.8341 0.77192-0.9806 0.85159-1.5655 0.85159-0.31538 0-0.61918 0.07408-0.67514 0.16462-0.12753 0.20635-1.7986 0.21685-2.1834 0.01376-0.15722-0.08297-0.53525-0.24371-0.84005-0.35716-0.80047-0.29792-1.5035-1.3384-1.5035-2.2251 0-1.2981 0.8564-2.7515 1.891-3.2091 0.3942-0.17436 0.74552-0.40336 0.78068-0.5089 0.0481-0.14433 0.32663-0.13764 1.1242 0.02701 1.1087 0.22884 2.3329 0.83227 2.8392 1.3994 0.29374 0.32906 0.29498 0.32808 0.102-0.07842-0.10745-0.22635-0.53758-0.72305-0.95583-1.1038-0.68416-0.62278-0.84619-0.693-1.6145-0.69961-1.2954-0.01111-2.9734 0.43926-3.8248 1.0268-1.5296 1.0555-1.4943 0.99245-1.4943 2.6641v1.5009l0.69961 0.6694c0.38481 0.36817 0.82926 0.71461 0.98772 0.76988 0.15843 0.05527 0.28808 0.21159 0.28808 0.3474 0 0.13581 0.09261 0.21151 0.20577 0.16817 0.11319-0.04331 0.45029 0.05162 0.74914 0.21095 0.74118 0.39516 1.7634 0.4287 2.749 0.0902zm-0.0082-1.5374c0.086016-0.08588 0.32329-0.15618 0.52726-0.15618 0.53306 0 1.1704-0.32525 1.2491-0.63738 0.037121-0.1474 0.0576-0.65693 0.045508-1.1323-0.012171-0.47532 0.029924-0.86424 0.093424-0.86424s0.16211-0.1216 0.21915-0.27022c0.086704-0.22593 0.062601-0.23611-0.147-0.06215-0.1379 0.11443-0.25069 0.15195-0.25069 0.0834s-0.14232 0.05625-0.31623 0.27734c-0.17394 0.22114-0.31044 0.5089-0.30332 0.63952 0.051858 0.95263-0.040984 1.1284-0.76533 1.4488-0.98081 0.43384-2.5173 0.35158-2.9363-0.15722-0.33091-0.40182-0.36962-0.64257-0.10329-0.64257 0.12607 0 0.11837-0.07998-0.02408-0.2518-0.15981-0.19254-0.16536-0.34753-0.02381-0.65847 0.10189-0.22365 0.26355-0.40666 0.35922-0.40666 0.11792 0 0.12171 0.09761 0.01164 0.30305-0.20251 0.37843 0.2663 1.5077 0.62592 1.5077 0.23709 0 1.0519-0.23302 1.7882-0.51136 0.36595-0.13838 0.53639-0.80558 0.20577-0.80558-0.09054 0-0.16462-0.14814-0.16462-0.32922 0-0.33663-0.23789-0.44564-0.4-0.1833-0.049636 0.0803-0.35557 0.19576-0.6799 0.25659-0.3243 0.06086-0.69551 0.15124-0.82489 0.2009-0.41264 0.15835-0.28792-0.72755 0.13515-0.95983 0.45508-0.24987 2.1202-0.46506 2.3458-0.30313 0.09054 0.06496 0.33978 0.16116 0.55385 0.21373l0.38926 0.09559-0.3715-0.39545c-0.20434-0.21749-0.64611-0.53131-0.98171-0.69734-0.6009-0.29731-0.61246-0.29681-0.75851 0.03321-0.10253 0.23164-0.42008 0.395-1.0283 0.52901-0.56952 0.12546-0.97605 0.32525-1.1523 0.56629-0.40688 0.55631-1.0132 1.6841-1.0132 1.8847 0 0.29112 1.1163 1.2803 1.6882 1.4959 0.56806 0.21421 1.747 0.14875 2.0075-0.11144zm6.5375-0.81465c0.31372 0 1.6678-1.3157 2.2254-2.1624 0.30403-0.46164 0.75501-1.0347 1.0022-1.2735 0.2472-0.23876 0.93096-0.98581 1.5195-1.6601 0.58851-0.67429 1.5388-1.6712 2.1117-2.2153 0.57296-0.54414 1.1217-1.1404 1.2195-1.3249 0.098399-0.18576-0.10729-0.05998-0.46077 0.28178-0.35118 0.33954-0.68863 0.61733-0.74994 0.61733-0.15642 0-4.919 5.2331-4.919 5.405 0 0.07734-0.37735 0.53422-0.83857 1.0153-0.58944 0.61479-0.87643 0.8133-0.96607 0.66828-0.15187-0.24574-0.51348 0.67326-0.47532 1.2081 0.017462 0.24336 0.044979 0.21172 0.093239-0.10686 0.037703-0.249 0.14489-0.4527 0.23815-0.4527zm0.55531-2.7485c0.44524-0.51573 1.0816-1.3587 1.4142-1.8732 0.33258-0.51456 0.6827-0.98375 0.77806-1.0427 0.095356-0.05892 0.33703-0.34568 0.537-0.63717 0.35618-0.51922 0.3501-0.51723-0.29729 0.09697-0.36348 0.34486-0.87553 0.92564-1.1379 1.2906-0.26236 0.36499-0.81034 1.0829-1.2178 1.5955-0.40743 0.51252-0.84243 1.0614-0.96671 1.2198-0.12425 0.15835-0.1569 0.28795-0.072549 0.28795 0.084349 0 0.51768-0.42198 0.96292-0.93771zm-2.4626-6.5929c0.44572-0.38447 1.1361-0.97711 1.5342-1.3169 0.39804-0.33986 1.1515-1.0439 1.6742-1.5645 0.52279-0.52062 1.0305-0.94655 1.1282-0.94655 0.097737 0 0.17769-0.06771 0.17769-0.15044 0-0.08274-0.38785-0.0087-0.86191 0.16462-0.47405 0.17328-0.95925 0.31504-1.0782 0.31504-0.11896 0-1.3941 1.0325-2.8336 2.2944l-2.6173 2.2944 0.51041 0.29837 0.51041 0.29834 0.52276-0.49384c0.28755-0.27162 0.88747-0.80841 1.3332-1.1929zm-7.222 1.1539c0.19971-0.04342 0.48689-0.26786 0.63815-0.49874 0.15129-0.23088 1.0083-1.1673 1.9045-2.0811 2.7276-2.781 2.9381-3.0066 2.9381-3.1505 0-0.23908 0.87268-1.0624 1.1261-1.0624 0.13279 0 0.51226-0.27779 0.84328-0.6173 0.53594-0.54972 1.7786-1.6656 3.2161-2.888 0.27162-0.23095 1.0734-0.88059 1.7818-1.4436 0.70842-0.56303 1.4446-1.2355 1.636-1.4944 0.19137-0.25887 0.40812-0.47067 0.48162-0.47067 0.073528 0 0.27951-0.14584 0.45776-0.32409 0.36425-0.36425 0.5117-0.35409-1.2076-0.083264-0.65633 0.10337-1.3876 0.71067-3.5354 2.9361-0.51215 0.53065-1.1087 1.1233-1.3256 1.3169-1.0437 0.93178-6.0437 6.0913-6.1743 6.3713-0.081756 0.17523-0.23529 0.31861-0.34121 0.31861-0.15944 0-2.1798 2.0225-3.1907 3.1942-0.25477 0.29528-0.25138 0.30588 0.0589 0.1846 0.18108-0.0708 0.49263-0.16425 0.69236-0.20767zm3.8347-0.65707c0.19431-0.24699 0.52716-0.56316 0.73967-0.70257 0.36798-0.24138 2.8493-2.5073 5.5157-5.0368 0.67903-0.64421 1.7161-1.6064 2.3046-2.1382 1.6476-1.4888 4.0832-3.855 3.9681-3.855-0.056647 0-0.28768 0.16669-0.51342 0.37039-1.225 1.1055-2.5151 2.1535-3.3046 2.6845-0.48998 0.32962-0.92795 0.65241-0.97322 0.71731-0.04527 0.0649-0.41992 0.34761-0.83254 0.62825-0.41264 0.28064-0.85701 0.63889-0.9875 0.79613s-0.64479 0.58092-1.1429 0.94149c-1.442 1.0439-2.6069 2.2436-2.516 2.591 0.083026 0.31739-0.8782 1.3922-1.8811 2.1033-0.7044 0.49945-1.3193 1.3493-0.97626 1.3493 0.13541 0 0.40516-0.20212 0.59944-0.4491zm-1.7779-3.7925c-0.10872-0.03625-0.19767-0.17343-0.19767-0.30488 0-0.18209 0.072998-0.19995 0.30652-0.07496 0.23929 0.12806 0.38373 0.08186 0.65847-0.21058 0.19357-0.20606 0.35195-0.45098 0.35195-0.5443 0-0.25834-0.52393-0.65791-1.0156-0.77452-0.37312-0.0885-0.49107-0.02064-0.78192 0.45003-0.40804 0.66019-0.42085 0.76229-0.09562 0.76229 0.15137 0 0.24694 0.15393 0.24694 0.39783 0 0.40032 0.27752 0.62272 0.56803 0.45522 0.088318-0.05091 0.070379-0.11896-0.041143-0.15613z" style="fill:#00aad4;stroke-width:.16462"/>
 </g>
</svg>
