<svg width="108" height="110" xmlns="http://www.w3.org/2000/svg" viewBox="0 0 28.784 29.302"><title>firis race undead</title><g fill="#212121" class="nc-icon-wrapper"><g id="1677462931223-1262061_layer1" transform="translate(-18.29 -55.724)"><path d="M29.378 84.624c-1.659-.542-2.395-.962-3.54-2.022-1.917-1.775-2.72-4.145-2.578-7.612.044-1.096.024-1.992-.046-1.992-.142 0-.336 1.77-.338 3.086 0 .476-.06.865-.133.865-.073 0-.49-.227-.926-.503-.757-.48-.79-.532-.707-1.112.048-.334.134-.756.191-.937.058-.18-.287.446-.766 1.394-.478.947-1.004 1.8-1.168 1.893-1.072.613-1.496-3.845-.56-5.888.612-1.34.943-1.612 1.813-1.493.752.103.993-.067 1.77-1.245l.255-.388.786.6c.433.33.937.6 1.12.6.252 0 .307.072.223.288-.63 1.63-.107 2.346 1.714 2.346.421 0 .859.093.972.206.146.145.914.207 2.626.21 3.606.005 3.983-.138 3.983-1.51 0-.792-.225-.692 2.387-1.06.724-.102 1.773-.357 2.331-.566.514-.223 1.11-.188 1.452-.502.132-.174.243-.28.246-.235.004.045.113.883.242 1.861.49 3.71-.475 5.711-2.752 5.711-.907 0-1.916.345-2.946 1.006-.431.277-.86.455-.954.397-.45-.278-.08-2.441.684-3.993.66-1.34.79-1.441 1.524-1.176.455.164.628.167.782.013.154-.154.122-.197-.142-.197-.187 0-.54-.157-.784-.35l-.443-.348-.387.363c-.548.515-1.35 2.085-1.646 3.222-.314 1.206-.327 2.71-.026 3.12.217.298.256.29 1.028-.2 1.11-.705 1.804-.966 2.942-1.109.537-.067 1.341-.265 1.786-.44.446-.176.838-.291.872-.257.035.035-.046.37-.178.747-.133.376-.21.684-.17.684.135 0 1.063-1.728 1.064-1.982.003-.324 1.238-1.522 1.928-1.869.647-.325 1.693-.34 2.4-.037.526.226 1.765 1.453 1.765 1.748 0 .084-.257.003-.572-.184-.689-.406-1.91-.447-2.468-.082-.217.142-.54.66-.73 1.167-1.6 4.274-4.264 7.007-7.695 7.892-1.597.412-4.775.346-6.232-.13zm-1.044-12.13c-.358-.144-.381-.23-.33-1.25.065-1.256-.243-1.648-.42-.536-.19 1.186-.354 1.357-1.193 1.242-1.214-.166-1.43-.354-1.324-1.15.05-.375.14-.84.198-1.032.086-.282.022-.37-.332-.46-1.266-.317-2.744-1.802-3.046-3.06-.155-.647-.143-.98.064-1.789.478-1.865 1.217-3.117 2.734-4.63 1.542-1.54 2.977-2.467 5.022-3.248 1.901-.725 3.246-.912 6.09-.844 2.326.055 2.526.086 3.433.531.817.401 1.075.646 1.703 1.618.949 1.466 1.572 2.17 2.463 2.783.393.27.715.556.715.634 0 .077-.39.19-.864.25-.476.059-1.294.187-1.82.284-.908.169-.975.158-1.399-.231-.244-.225-.74-.623-1.103-.884l-.658-.475.793.865c.435.476 1.028 1.363 1.316 1.972.468.99.523 1.265.524 2.6 0 2-.365 2.596-2.116 3.45-1.12.546-2.043.77-4.838 1.168-.526.076-.535.091-.535.942 0 .476-.09.954-.198 1.063-.24.24-1.882.264-2.027.028-.058-.093-.146-.574-.198-1.07-.062-.604-.166-.901-.317-.901-.16 0-.223.25-.223.894 0 .593-.087.98-.26 1.152-.284.285-1.244.328-1.854.084zm6.327-4.5c.686-.318.888-.514 1.111-1.07.403-1.008.359-1.764-.122-2.078-1.308-.858-3.341-.171-3.726 1.258-.18.666-.013 1.59.376 2.079.262.33 1.452.235 2.36-.188zm-4.54.024c.003-.336-.572-2.592-.661-2.591-.15.003-1.162 2.051-1.157 2.344.003.159.112.288.243.288.132 0 .319-.13.416-.288.164-.267.196-.261.44.083.284.4.715.498.719.164zm-2.912-.295c.58-.455.719-1.292.37-2.208-.407-1.065-.984-1.571-1.791-1.571-1.013 0-1.267.329-1.267 1.64 0 .982.048 1.142.453 1.53.388.371 1.382.918 1.706.939.056.003.294-.145.53-.33z" id="1677462931223-1262061_path4436" display="inline" fill="#212121" stroke-width=".165"></path></g></g></svg>