<svg width="31" height="42" xmlns="http://www.w3.org/2000/svg" viewBox="0 0 8.429 11.355"><title>firis resist magic</title><g fill="#212121" class="nc-icon-wrapper"><g id="1677462931224-3878827_layer1" transform="translate(-80.133 -80.03)"><path d="M80.385 91.386h-.252l.2-.33c.11-.183.7-1.078 1.31-1.99l1.109-1.66.171-1.146c.095-.63.41-1.402.701-1.714l.53-.568h.856c.472 0 1.122-.186 1.445-.412.324-.227.586-.614.584-.86a1.762 1.762 0 0 0-.22-.788l-.215-.34-.442.17c-.243.093-.442.272-.442.398 0 .125.167.164.37.086a.49.49 0 0 1 .572.183l.2.325-.62.503-.62.503-.679-.17c-.373-.093-.886-.357-1.14-.586-.256-.23-.464-.628-.464-.887 0-.258.184-.653.41-.878.224-.225 1.003-.586 1.73-.802l1.323-.392.651.296.651.297.283 1.051c.156.578.22 1.304.142 1.613-.077.31-.473.753-.88.986-.406.233-1.147.502-1.647.596-.5.095-1.125.368-1.389.607-.264.24-.48.625-.482.857-.001.232-.787 1.464-1.748 2.737-.96 1.273-1.86 2.315-1.998 2.315z" id="1677462931224-3878827_path19521" fill="#212121" stroke-width=".265"></path></g></g></svg>