<svg width="86" height="110" xmlns="http://www.w3.org/2000/svg" viewBox="0 0 22.882 29.297"><title>firis category accessory</title><g fill="#212121" class="nc-icon-wrapper"><g id="1677462931218-1830058_layer1" transform="translate(-15.828 -53.727)"><path d="M21.896 82.329c-1.048-1.688-2.492-4.917-2.356-5.271.05-.13 1.284-.887 2.743-1.682 2.973-1.622 3.141-1.646 3.909-.559.23.326.81 1.066 1.287 1.645.478.579.923 1.126.99 1.217.067.09.286.377.487.636.432.557.338.808-.46 1.228a130.6 130.6 0 0 0-3.972 2.19c-.604.35-1.17.637-1.257.637-.086 0-.196.149-.244.33-.144.551-.66.381-1.127-.371zm3.81-2.161c.86-.424 1.711-.884 1.892-1.023.324-.247.324-.256.014-.485-.338-.25-3.041-1.405-3.293-1.406-.14 0-.994 2.951-1.162 4.02l-.074.468.53-.402c.29-.22 1.232-.748 2.092-1.172zm-2.717-3.613c.215.006.42-.18.592-.535l.262-.544-.654.36c-.36.199-.886.493-1.168.653l-.514.292.576-.118c.317-.064.725-.113.906-.108zm4.974-.984c-.139-.36.267-1.02.628-1.02.26 0 .324.113.324.576 0 .5-.058.583-.432.627-.257.03-.467-.044-.52-.183zm1.439-.567c.3-1.202.29-1.487-.065-1.842-.456-.456-.289-.705.387-.578.332.062.775.003 1.16-.16.845-.353.937-.33.709.171-.206.451-.094.612.8 1.155.408.247.28.352-.769.624-.588.152-.982.37-1.19.655-.194.266-.47.428-.729.428-.372 0-.405-.049-.303-.453zm-8.283-.23c-.206-.557-.05-.912.498-1.14.436-.18.53-.163.848.155.333.334.34.388.106.807-.344.616-1.25.726-1.452.178zm-.43-1.941c-.298-.576-.505-.624-.955-.217-.304.276-.333.267-.711-.206-.506-.631-.501-.904.015-.904.46 0 .484-.05.244-.5-.137-.255-.088-.364.265-.595.404-.265.441-.265.587-.006.087.156.355.278.612.278.265 0 .607.16.815.38.448.478.45.607.01.607-.292 0-.334.074-.259.453.2 1.008.193 1.1-.083 1.156-.178.037-.373-.125-.54-.446zm12.787.226c-.26-.183-.302-.365-.238-1.03.05-.522.008-.852-.117-.93-.143-.088-.123-.198.073-.415.225-.248.355-.267.837-.119.452.139.683.121 1.112-.083.37-.176.63-.21.819-.104.256.144.257.185.009.563-.195.297-.24.608-.168 1.138.107.78-.056 1.058-.387.66-.297-.359-.782-.3-1.23.148-.345.345-.433.366-.71.172zM17.36 69.9c-.297-.39-.39-.426-.673-.257-.394.235-.529.132-.529-.406 0-.28.071-.374.235-.311.236.09.658-.26.502-.416-.046-.046-.11-.437-.143-.868-.059-.79-.297-1.116-.702-.96-.156.06-.221-.069-.221-.437 0-.304.068-.48.164-.42.157.097.988-.664.988-.906 0-.065.174-.085.386-.044.312.06.371.154.307.488-.088.462.167.703.748.707.49.003.472.078-.214.879-.438.512-.571.805-.535 1.178.042.428.123.504.584.548.524.051.725.388.364.612-.094.058-.128.243-.075.41.065.204-.012.365-.229.48-.474.254-.575.225-.957-.277zm18.851 0c-.045-.391-.125-.453-.587-.451-.601.002-.603-.003-.354-.718.132-.379.283-.519.559-.519.406 0 .625-.342.472-.74-.072-.188.031-.247.428-.247.438 0 .507.05.423.312-.071.225.053.436.442.75l.54.437-.37.258c-.26.181-.37.424-.37.814 0 .524-.033.556-.565.556-.495 0-.572-.056-.618-.452zm.512-3.311c.115-.214.104-.386-.035-.569-.257-.337-1.03-.624-1.35-.502-.19.073-.249-.028-.249-.419 0-.45.047-.504.37-.428.614.144 1.183-.261 1.276-.908.072-.498.149-.578.597-.621.504-.05.514-.037.496.633-.014.523.069.754.35.982.449.363.469.603.06.732-.168.054-.445.25-.613.436-.288.319-.29.348-.022.498.481.27.318.472-.38.472-.596 0-.647-.03-.5-.306zm-19.124-2.612c-.737-.077-1.16-.61-.6-.756.441-.115.354-.632-.142-.85-.401-.177-.482-.565-.18-.867.133-.133.284-.14.502-.023.494.264 1.181.11 1.364-.306.189-.43.866-.507 1.016-.115.055.144-.054.417-.252.628-.45.48-.441.572.08.77.352.134.393.206.229.404-.145.174-.283.196-.5.08-.53-.284-.864-.019-.763.603.049.304.038.54-.024.524-.062-.015-.39-.056-.73-.092zm19.136-1.117c0-.046.086-.222.191-.39.105-.168.141-.434.08-.592-.107-.28-.3-.28-.97-.004-.243.1-.288.025-.288-.476 0-.481.061-.593.325-.593.337 0 .835-.758.716-1.089-.082-.227.72-.772.939-.637.088.054.16.266.16.471 0 .205.185.533.411.73.227.197.412.466.412.598 0 .133-.185.426-.412.652-.258.26-.411.598-.411.913 0 .463-.044.502-.576.502-.317 0-.577-.038-.577-.085zm-18.51-2.699c-.05-.082-.05-.26.003-.397.052-.135-.1-.66-.34-1.165-.44-.929-.437-1.314.006-1.144.511.196 1.399-.13 1.991-.732l.6-.61-.119.494c-.244 1.017-.284 1.692-.107 1.801.319.197.192.547-.236.655-.23.057-.581.294-.782.526-.458.529-.89.773-1.015.572zm16.157-2.053c-.574-.51-.81-1.09-.445-1.09.09 0 .165.136.165.302 0 .405.121.502.503.402.417-.109.41-.488-.01-.621-.39-.124-.432-.615-.079-.908.204-.17.307-.156.56.072.23.21.46.252.9.17.48-.09.613-.056.705.185.067.174.033.323-.08.361-.309.103-.227.535.16.849.542.438.253.707-.618.577-.439-.066-.812-.04-.94.067-.158.131-.366.039-.821-.366zm-12.956-1.301c0-.426.105-.602.494-.832.271-.16.494-.358.494-.438 0-.307-.361-.347-.763-.084-.43.282-.673.245-.477-.073.125-.203 1.633-.996 1.893-.996.093 0 .17.104.17.23 0 .288.36.433.793.32.224-.059.39.023.513.254.149.278.121.403-.146.67-.181.182-.29.434-.241.56.084.22-.635.93-.941.93-.079 0-.143-.178-.143-.394 0-.217-.102-.434-.228-.482-.29-.111-.924.326-.924.638 0 .13-.111.238-.247.238-.17 0-.247-.17-.247-.541zm9.833-.869c-.478-.525-.777-.726-.993-.67-.264.07-.293.016-.2-.36.151-.6.181-.614.8-.39.738.266.877.25 1.278-.152.304-.303.397-.32.741-.136.216.115.393.346.393.512 0 .188.12.301.32.301.465 0 .578.303.249.667-.227.25-.42.296-.922.215-.6-.096-.634-.078-.634.332 0 .616-.252.539-1.032-.319zm-4.4-.204c0-.5-.31-.681-.842-.495-.261.09-.476.232-.476.314 0 .32-.45.126-.632-.27-.263-.579-.271-.57.482-.57.596 0 .694-.055.86-.493.152-.406.279-.494.707-.494.382 0 .543.088.607.33.109.417.868.445 1.307.047.268-.243.332-.249.463-.041.084.132.153.447.155.699.002.406-.035.438-.323.284-.259-.138-.394-.106-.659.159-.183.183-.333.444-.333.58 0 .178-.183.247-.658.247-.524 0-.659-.06-.659-.297zm3.786-1.843c0-.09.078-.165.174-.165.096 0 .128.074.073.165-.056.09-.135.164-.175.164-.04 0-.072-.074-.072-.164z" id="1677462931218-1830058_path3015" display="inline" fill="#212121" stroke-width=".165"></path></g></g></svg>