<?xml version="1.0" encoding="UTF-8"?>
<svg width="29.276mm" height="27.182mm" version="1.1" viewBox="0 0 29.276 27.182" xmlns="http://www.w3.org/2000/svg">
 <g transform="translate(-15.346 11.113)">
  <path d="m27.954 14.382c-0.88397-0.9253-1.715-1.8305-1.8467-2.0116-0.47088-0.64728-2.2849-2.9647-2.3839-3.0454-0.055509-0.04527-0.52612-0.71197-1.0458-1.4816-1.0837-1.6049-2.8819-4.0558-3.7549-5.1179-0.32824-0.39931-0.72591-0.98007-0.88371-1.2905-0.1578-0.31046-0.57444-0.92826-0.92591-1.3729-0.35142-0.44463-0.63963-0.85733-0.64042-0.9171 0-0.059769-0.26495-0.38671-0.58703-0.72655-0.4299-0.45358-0.57179-0.73594-0.53358-1.0619 0.04617-0.39402 0.17267-0.47808 1.122-0.7456 0.58851-0.16581 1.4266-0.46212 1.8625-0.65844 0.66606-0.30004 0.77494-0.41079 0.68252-0.69429-0.06048-0.18553-0.12811-0.48546-0.15028-0.66654-0.02222-0.18108-0.23503-0.95443-0.473-1.7185-0.23797-0.76412-0.39452-1.4275-0.34787-1.4741 0.16052-0.16055 4.3084-0.39875 4.6182-0.26524 0.25257 0.10882 0.1878 0.15965-0.34819 0.2731-0.36216 0.076623-0.84365 0.18381-1.07 0.23815-0.22635 0.054345-0.87995 0.13496-1.4524 0.17918-0.89022 0.068739-1.0243 0.11996-0.92636 0.35388 0.06294 0.15042 0.28189 0.71797 0.48649 1.2612 0.2046 0.54324 0.82934 1.8542 1.3883 2.9133 0.7901 1.497 1.0752 1.903 1.281 1.824 0.16309-0.062547 0.22347-0.034793 0.15724 0.07239-0.05913 0.095647-0.0026 0.26181 0.12782 0.36923 0.12943 0.10742 0.20611 0.28247 0.17036 0.38904-0.03572 0.10655 0.07694 0.45302 0.25038 0.76988 0.17341 0.31689 0.42958 0.83545 0.56925 1.1523 0.13967 0.31689 0.36476 0.78589 0.5002 1.0422 0.13544 0.25633 0.24627 0.57216 0.24627 0.70186 0 0.1297 0.06683 0.36444 0.14856 0.52168 0.0817 0.15719 0.24625 0.61918 0.36565 1.0266 0.11938 0.40743 0.44429 1.1482 0.72205 1.6462 0.27776 0.49797 0.60373 1.1461 0.72435 1.4404 0.24926 0.60799 0.57925 0.68903 0.83788 0.20577 0.14936-0.27911 0.12518-0.32922-0.15883-0.32922-0.49892 0-0.41095-0.40545 0.28228-1.3012 0.58494-0.75581 0.84532-1.1544 1.599-2.4476 0.17777-0.30501 0.72144-1.0123 1.2082-1.5718 0.95361-1.0961 1.5859-2.1671 1.4291-2.4208-0.13293-0.21508 0.02408-0.45701 1.0498-1.619 0.48538-0.54978 1.0683-1.3486 1.2955-1.7753l0.41294-0.77571-0.63698 0.50475c-1.04 0.82404-2.3018 2.2412-2.7664 3.107-0.61198 1.1404-0.963 1.7073-2.369 3.8256-0.96303 1.4509-1.3037 1.8464-1.5375 1.7852-0.22632-0.059187-0.33295 0.046805-0.43217 0.42966-0.18285 0.70575-0.60309 0.83529-0.45011 0.13872 0.09353-0.42577 0.06845-0.4962-0.14727-0.41341-0.19455 0.074639-0.25995-0.00476-0.25995-0.3157 0-0.22849-0.08276-0.44302-0.18388-0.47673-0.10115-0.033708-0.27691-0.53991-0.39055-1.1249-0.11366-0.58499-0.23463-1.1747-0.26882-1.3105-0.03741-0.1487 0.03609-0.22961 0.18478-0.20339 0.17769 0.031327 0.16081-0.023813-0.06025-0.19672-0.29858-0.23355-0.29718-0.26083 0.05072-0.97943 0.1968-0.40659 0.57576-1.0135 0.84214-1.3487 0.26638-0.33517 0.48466-0.65479 0.48509-0.71025 0-0.055457 0.20608-0.32306 0.45699-0.59468 0.63722-0.68972 1.8777-2.617 2.4123-3.7476 0.27506-0.58187 0.61878-1.0375 0.88821-1.1774 0.60055-0.31192 1.1793-1.134 1.0761-1.5285-0.07408-0.28329 0.04826-0.34303 1.039-0.50734 2.6701-0.44283 2.7622-0.43976 3.749 0.12486 0.89329 0.51107 0.9135 0.53951 1.3259 1.8667 0.23035 0.74128 0.46228 1.65 0.51543 2.0195 0.08816 0.61275 0.05069 0.70673-0.42659 1.07-1.341 1.0207-2.0204 1.7561-2.9918 3.2383-1.2335 1.8821-1.0869 1.686-2.722 3.6412-0.70959 0.84847-1.472 1.7745-1.6942 2.0577s-0.78523 0.95951-1.2511 1.5028c-0.89437 1.043-1.1703 1.6513-0.81145 1.789 0.11729 0.045006 0.26329 0.30969 0.32446 0.58822 0.06117 0.27853 0.17447 0.46733 0.25178 0.41955 0.07731-0.047784 0.1728 0.11824 0.21217 0.36896 0.0394 0.25069 0.05501 0.15949 0.03474-0.20264-0.05273-0.94208 0.12282-1.6462 0.41045-1.6462 0.15121 0 0.28435 0.22098 0.34711 0.57616 0.10078 0.57044 0.10216 0.5688 0.13986-0.16462 0.05075-0.98682 0.21257-1.5232 0.48712-1.6147 0.17624-0.058764 0.20579 0.074163 0.13459 0.6051-0.05498 0.40984-0.02487 0.6804 0.07554 0.6804 0.09459 0 0.12319 0.17375 0.06604 0.40145-0.05543 0.22079-0.03238 0.44373 0.0512 0.49535 0.08356 0.051673 0.2036-0.38825 0.2667-0.97761 0.08004-0.74734 0.18367-1.0715 0.3425-1.0715 0.16526 0 0.2331 0.25974 0.24723 0.94657 0.01058 0.52059 0.07601 1.1688 0.14515 1.4404 0.10739 0.42212 0.12848 0.36835 0.14512-0.37039 0.01058-0.47532 0.09356-0.86423 0.1841-0.86423 0.09054 0 0.16462-0.15253 0.16462-0.33896 0-0.18643 0.07083-0.29517 0.15743-0.24164 0.0866 0.053499 0.11856 0.19854 0.07109 0.32229-0.04749 0.12375-0.0071 0.27392 0.08948 0.33369 0.09673 0.059769 0.18444 0.38208 0.19494 0.71625 0.01958 0.62751 0.05128 0.55581 0.22632-0.51414 0.11999-0.73364 0.43849-0.73684 0.49609-0.00503 0.02196 0.27776 0.11015 0.63085 0.19622 0.78465 0.12803 0.22879 0.19426 0.15057 0.36401-0.4299 0.11411-0.39026 0.34192-0.82068 0.5062-0.9565 0.36531-0.302 2.6621-3.5323 3.0576-4.3005 0.39254-0.76224 1.3977-1.9695 1.5576-1.8707 0.07197 0.04445 0.09091-0.071808 0.04212-0.25834-0.06456-0.24691 0.0037-0.36338 0.25088-0.42799 0.20235-0.052943 0.30454-0.18021 0.25284-0.31491-0.09824-0.25601 0.28538-1.223 0.48519-1.223 0.07186 0 0.11634 0.16666 0.09882 0.37039-0.08488 0.98764 0.02328 1.4723 0.34788 1.5571 0.23574 0.061648 0.42233 0.3897 0.66085 1.1619 0.1828 0.59185 0.31276 1.1006 0.28885 1.1306-0.02408 0.029977-0.21354 0.25945-0.42135 0.50993-0.38976 0.46982-1.8354 2.6045-2.4263 3.5827-0.18412 0.30483-0.48043 0.72223-0.65847 0.92755l-0.32369 0.37333 0.4749-0.36216c0.2612-0.19918 0.53898-0.36216 0.61733-0.36216 0.26088 0 0.14676 0.47995-0.15219 0.63992-0.162 0.08673-0.39709 0.3492-0.52239 0.5833-0.25493 0.47636-0.56364 0.57682-3.0515 0.99317-0.9054 0.1515-1.8684 0.33689-2.14 0.41198-0.45323 0.12528-0.46 0.13708-0.08231 0.14351 0.22635 0.0037 0.78192-0.06051 1.2346-0.14298 3.2002-0.58314 4.4361-0.75639 6.3991-0.89699 1.4527-0.10406 2.2433-0.39526 2.2433-0.82624 0-0.11486 0.18521-0.24421 0.41156-0.28747 0.22632-0.043286 0.41153-0.014817 0.41153 0.063103 0 0.077973 0.11112 0.14179 0.24694 0.14179 0.33626 0 0.31993-0.15692-0.24982-2.4036-0.37446-1.4767-0.64536-2.1752-1.1007-2.8384-0.4291-0.625-0.61616-1.0867-0.64609-1.5948-0.02328-0.3933-0.23159-1.1293-0.46315-1.6356-0.23159-0.50628-0.42106-0.96904-0.42106-1.0283 0-0.24434-0.73202-1.6375-1.0408-1.9809-0.29496-0.328-0.86045-1.6514-2.185-5.1134-0.78986-2.0645-0.72898-2.0068-2.1187-2.0068-0.67135 0-1.2665 0.07408-1.3224 0.16462-0.05596 0.09054-0.33811 0.16571-0.62704 0.16706-0.2889 0.00265-0.99401 0.11292-1.5669 0.24797-0.63484 0.14965-1.1417 0.18957-1.2978 0.10218-0.14613-0.081809-0.51189-0.080222-0.85151 0.0037-0.83812 0.20698-2.9823 0.3085-2.9823 0.14118 0-0.076597 0.31324-0.19219 0.69604-0.25686 0.38283-0.064664 0.84598-0.21582 1.0293-0.33591 0.18325-0.12007 1.259-0.30118 2.3905-0.4024 3.2278-0.28879 4.7954-0.44802 5.5966-0.56843l0.74078-0.11131 0.45897 1.206c0.25241 0.66334 0.56724 1.4158 0.69961 1.6721 0.13234 0.25633 0.24111 0.55266 0.24167 0.6585 0 0.10583 0.10025 0.38256 0.22151 0.61494 0.12126 0.23238 0.27128 0.62489 0.33335 0.87223 0.0621 0.24736 0.32486 0.87209 0.58394 1.3883 0.25908 0.5162 0.69702 1.3865 0.97322 1.9341 0.49096 0.97338 0.87455 2.0064 1.0821 2.9141 0.05694 0.24897 0.17042 0.4527 0.25223 0.4527 0.19365 0 0.58219 1.1452 0.52271 1.5407-0.0254 0.16833 0.02707 0.26091 0.11639 0.20569 0.14809-0.091519 1.0201 2.0498 1.2831 3.1508 0.05953 0.24908 0.16658 0.52795 0.23794 0.61968 0.07138 0.091758 0.21574 0.53623 0.32083 0.98772 0.10509 0.45151 0.26892 1.0275 0.36404 1.2801 0.14282 0.3791 0.12197 0.49646-0.11967 0.67315-0.26617 0.19463-0.26823 0.22336-0.02275 0.31761 0.32232 0.12369 0.36719 0.98219 0.06424 1.229-0.11319 0.09221-1.0206 0.42908-2.0166 0.74864-0.99592 0.31954-2.8108 0.96324-4.0331 1.4304-1.2223 0.4672-2.7779 1.0329-3.457 1.257-1.9138 0.63169-2.9756 1.0666-3.8346 1.5706-0.43405 0.25466-0.95258 0.46082-1.1523 0.45813-0.24246-0.0034-0.89723-0.56398-1.9704-1.6874zm4.1204 0.17436c0.92953-0.45987 1.6542-0.87201 1.6103-0.91591-0.04389-0.04387-0.29263 0.0085-0.55277 0.11615-0.62206 0.25765-1.3329 0.15076-1.6299-0.24511-0.2245-0.29922-0.2354-0.289-0.18431 0.17277 0.0681 0.61563-0.38224 0.76557-0.64722 0.21545-0.13023-0.27043-0.18473-0.30054-0.19272-0.10657-0.02744 0.6658-0.65889 0.42384-1.1354-0.43508-0.17849-0.32173-0.18278-0.32102-0.18764 0.03146-0.0093 0.66905-0.29903 0.54917-1.1004-0.45535-0.43873-0.54999-1.3028-1.6056-1.92-2.3457-0.61725-0.7402-1.202-1.5097-1.2994-1.7101-0.10975-0.22564-0.30665-0.35094-0.51745-0.32925-0.26964 0.027755-0.41502-0.14991-0.70054-0.85614-0.19817-0.49014-0.64556-1.1936-0.9942-1.5633-0.57171-0.60619-1.4284-1.7836-2.646-3.6364-0.23799-0.36216-0.9012-1.3624-1.4738-2.2228-0.57258-0.86037-1.0411-1.6453-1.0411-1.7441 0-0.098875-0.14817-0.31385-0.32925-0.47773-0.4051-0.36663-0.41638-0.55541-0.04114-0.68919 0.15843-0.056488 0.39116-0.18381 0.5171-0.28292 0.12597-0.099139 0.49636-0.26506 0.82309-0.36872 0.32673-0.10369 0.48294-0.19595 0.34713-0.20508-0.28784-0.019315-2.2347 0.64794-2.7162 0.93088-0.28191 0.16566-0.28858 0.1942-0.04649 0.19846 0.33271 0.00582 1.2563 1.19 2.4693 3.1657 0.97266 1.5843 2.6767 3.9252 3.655 5.0212 0.35496 0.39764 0.65638 0.87223 0.66985 1.0546 0.02863 0.38896 1.0492 1.8351 2.5533 3.6179 0.58851 0.69757 1.4034 1.6958 1.8108 2.2183 1.4228 1.8247 2.5139 2.8776 2.8767 2.776 0.18336-0.0513 1.0939-0.46956 2.0235-0.92943zm-1.1962-4.0269c1.1885-0.12282 1.1254-0.21177-0.17833-0.2517-1.9665-0.06017-2.45-0.07938-2.6448-0.10491-0.10406-0.013759-0.32181-0.39357-0.48384-0.84421-0.16206-0.45064-0.3274-0.78658-0.36743-0.74657-0.04003 0.040032-0.20942 0-0.37642-0.08972-0.38486-0.20595-0.2926 0.043736 0.51154 1.3846l0.57616 0.9607 1.07-0.11155c0.58851-0.06136 1.4404-0.14983 1.8931-0.19661zm6.6722-1.4926c0.0095-0.22315 0.43871-0.69964 0.63024-0.69964 0.24633 0 0.2404 0.37526-0.0098 0.62555-0.21862 0.21863-0.62852 0.2676-0.62032 0.074083zm1.0202-0.23664c0.10173-0.30522 0.45614-0.35586 0.45614-0.065167 0 0.14335-0.11729 0.26064-0.26064 0.26064-0.14338 0-0.23132-0.087974-0.1955-0.19547zm-8.5978-8.0354c0-0.09054 0.07848-0.16462 0.17433-0.16462 0.09588 0 0.12856 0.074083 0.0726 0.16462-0.05596 0.09054-0.13441 0.16462-0.17433 0.16462-0.03993 0-0.0726-0.074083-0.0726-0.16462zm0.32925-0.49384c0-0.09054 0.07408-0.16462 0.16462-0.16462 0.09054 0 0.1646 0.074083 0.1646 0.16462 0 0.09054-0.07406 0.1646-0.1646 0.1646-0.09054 0-0.16462-0.074057-0.16462-0.1646zm9.2316-2.25c-0.0071-0.10575-0.05564-0.328-0.10774-0.49384-0.09006-0.28662-0.08541-0.28699 0.09398-0.00714 0.10377 0.16187 0.15224 0.3841 0.10771 0.49387-0.05845 0.14404-0.08459 0.14605-0.09395 0.00714zm-12.41-6.6267c0.10509-0.40185 0.31774-0.5761 0.44728-0.36653 0.0494 0.079931-0.05146 0.27316-0.2241 0.42939-0.30001 0.27152-0.30988 0.26874-0.22318-0.062865zm-3.8998-0.34182c0.32208-0.20815 0.65847-0.20815 0.65847 0 0 0.09054-0.2037 0.16349-0.4527 0.16208-0.35277-0.00265-0.3982-0.03773-0.20577-0.16208zm1.07-0.13303c0.24365-0.26032 1.8931-0.44977 1.8931-0.21741 0 0.10218-0.16669 0.18664-0.37039 0.18762-0.20373 0.00265-0.6667 0.047704-1.0289 0.10374-0.46368 0.071808-0.60978 0.049927-0.49387-0.073951zm11.53-0.67868c-0.11245-0.18193 0.14721-0.37841 0.29924-0.22638 0.1565 0.1565 0.12734 0.37962-0.04964 0.37962-0.08519 0-0.19754-0.068977-0.24961-0.15325z" style="fill:#00aad4;stroke-width:.16462"/>
 </g>
</svg>
