<svg width="65" height="79" xmlns="http://www.w3.org/2000/svg" viewBox="0 0 17.348 21.086"><title>firis heal</title><g fill="#212121" class="nc-icon-wrapper"><g id="1677809791895-712200_layer1" transform="translate(-43.368 -2.019)"><path d="M49.896 20.863c-2.466-2.882-4.634-5.653-5.057-6.463-.455-.87-.37-1.554.375-3.024.805-1.588.778-2.483-.075-2.483-.847 0-1.51-1.016-1.095-1.679.263-.42.217-.633-.266-1.248-.468-.595-.516-.8-.242-1.045.844-.759 4.765-3.034 4.989-2.896.137.085.434.512.66.95.34.655.48.739.799.475.213-.177.423-.275.468-.217.857 1.093.948 1.403.545 1.848-.662.732.416 1.298 2.475 1.298 1.41 0 1.772.1 2.303.63.758.76 2.144 3.457 3.882 7.563 1.018 2.402 1.216 3.097.954 3.34-.344.32-7.04 4.555-8.05 5.091-.526.28-.745.105-2.665-2.14zm2.219-7.924c2.38-1.479 4.328-2.822 4.328-2.985 0-.163-.345-.84-.767-1.506-.767-1.21-.769-1.21-2.508-1.321-1.255-.08-1.96-.274-2.53-.695l-.791-.585-1.817 1.121-1.816 1.12.117 1.223c.084.87-.043 1.586-.441 2.486-.308.695-.56 1.345-.56 1.443 0 .099.362.75.804 1.446.577.91.924 1.221 1.228 1.105.233-.09 2.372-1.373 4.753-2.852zm-2.352-7.821c.538-.35.835-1.12.431-1.12-.209 0-4.876 2.901-5.357 3.33-.2.178-.283.451-.187.607.153.248 1.76-.638 5.113-2.817zm-2.594.155c1.737-1.076 1.777-1.125 1.503-1.852-.155-.41-.373-.746-.483-.746-.11 0-1.096.57-2.189 1.268-1.934 1.233-1.976 1.283-1.578 1.852.225.321.534.584.686.584.152 0 1.08-.497 2.061-1.106z" id="1677809791895-712200_path1895" fill="#212121" stroke-width=".265"></path></g></g></svg>