<svg width="108" height="59" xmlns="http://www.w3.org/2000/svg" viewBox="0 0 28.735 15.786"><title>firis category sand</title><g fill="#212121" class="nc-icon-wrapper"><g id="1677462931222-8640877_layer1" transform="translate(-15.028 -68.208)"><path d="M30.471 83.755c-.198-.138-.788-.39-1.312-.56-.525-.169-2.437-.97-4.25-1.78-2.54-1.134-3.54-1.5-4.35-1.592-.579-.065-1.317-.261-1.641-.434a73.44 73.44 0 0 0-1.965-.98c-1.715-.828-2.461-1.645-1.502-1.645.172 0 1.149-.357 2.171-.793 1.023-.436 2.266-.948 2.764-1.139l2.47-.943c.86-.328 1.675-.655 1.81-.726.136-.071.988-.99 1.893-2.042 1.825-2.12 2.743-2.906 3.404-2.913.565-.006 1.257.583 2.28 1.943.45.597 1.377 1.54 2.06 2.096 1.134.922 1.343 1.026 2.428 1.208.653.109 1.483.298 1.846.421 1.359.46 3.177.457 4.815-.009.457-.13.492.207.101.963-.185.36-.21.539-.082.582.33.11.2.323-.414.686-.33.195-1.127.787-1.77 1.317-.643.529-1.54 1.163-1.992 1.408-.453.245-1.55.937-2.438 1.539-.888.601-2.295 1.526-3.127 2.056-.833.53-1.666 1.103-1.853 1.276-.411.378-.864.399-1.346.061zm1.4-.97c.66-.429 2.156-1.723 2.005-1.734-.05-.004-.34.176-.645.401-.417.307-.608.364-.771.228-.12-.099-.177-.246-.127-.326.05-.08-.026-.146-.167-.146-.36 0-.326-.111.251-.84l.508-.641-.796-.026c-1.096-.035-1.591.02-1.775.201-.25.245-.42.18-.42-.162 0-.173.093-.355.206-.403.113-.048-.437-.078-1.223-.066-1.234.019-1.44.063-1.508.322-.05.194-.17.264-.34.199-.313-.12-.347-.495-.057-.622.113-.05-.053-.055-.37-.012-.945.131-2.14.2-2.14.124 0-.616 1.325-1.22 1.947-.887.292.156.334.145.254-.064-.078-.202-.423-.25-1.774-.25-.987 0-1.752.073-1.857.178-.268.268-.96.118-.937-.202.014-.19-.161-.3-.59-.368-.804-.129-1.252-.608-1.003-1.073.1-.186.328-.417.507-.513.179-.096.325-.276.325-.4 0-.125.333-.389.74-.586.408-.197.742-.38.742-.408 0-.084-1.792.499-1.915.622-.064.064-.222.115-.352.115-.13 0-1.198.379-2.372.841-2.446.964-2.443.796-.04 2.042 1.416.735 1.796.834 3.375.881.596.018 1.026.193 2.057.84 2.019 1.264 3.134 1.82 5.008 2.494 2.05.738 2.444.767 3.255.24zm-2.76-2.655c0-.142.074-.212.165-.156.09.056.164.023.164-.073s.074-.174.165-.174c.272 0 .186.236-.165.455-.276.173-.329.165-.329-.052zm3.515-1.555c-.057-.283-.016-.593.095-.728.153-.184.138-.266-.071-.383-.227-.126-.236-.215-.06-.6.169-.372.166-.478-.019-.592-.185-.115-.175-.214.059-.57.277-.423.276-.428-.047-.227-.477.298-.63.028-.304-.54.265-.462.265-.486-.003-.441-.202.033-.28-.06-.271-.323.007-.204-.054-.37-.135-.37-.082 0-.123-.167-.093-.371.035-.235-.095-.51-.359-.752l-.414-.382.353-.244c.39-.27.357-.927-.04-.774-.288.11-.305-.3-.025-.582.165-.166.149-.186-.082-.098-.304.116-.407-.162-.124-.336.216-.134-.228-.997-.583-1.133-.795-.305-1.833.116-1.748.708.048.336 0 .375-.376.303-.379-.072-.616.13-1.99 1.7-.858.98-1.856 2.02-2.218 2.31-.444.357-.657.66-.657.932 0 .324-.066.386-.335.315-.435-.113-1.704.838-1.775 1.333-.047.32.02.363.585.363.352 0 .783.109.958.241.209.158.664.234 1.308.22.678-.016.794-.043.37-.087-.479-.05-.617-.136-.617-.384 0-.282.072-.337.417-.314.145.01.578-.47.554-.614-.053-.31.028-.544.188-.544.26 0 .742-.512 1.046-1.111.15-.294.34-.535.421-.535.082 0 .175-.167.206-.37.03-.204.153-.35.27-.326.118.025.168-.03.11-.123-.057-.093-.021-.169.08-.169s.134-.08.073-.18c-.062-.1.12-.391.401-.65.283-.257.514-.589.514-.736 0-.167.109-.248.288-.213.366.07.394.552.118 2.026-.118.634-.204 1.523-.19 1.976.021.656-.026.819-.232.804-.191-.013-.238.092-.18.398.065.34.029.396-.202.307-.222-.085-.26-.04-.183.206.067.21-.04.455-.326.74-.234.234-.337.425-.23.425.107 0 .277.113.378.25.1.139.405.249.677.245 2.583-.03 3.07.003 3.491.231.763.414 1.044.344.929-.231zm-4.832-.755c0-.29.354-.24.456.065.036.108-.052.195-.195.195a.261.261 0 0 1-.26-.26zm3.128-.48c0-.136.11-.247.247-.247.136 0 .247.11.247.247a.248.248 0 0 1-.247.247.248.248 0 0 1-.247-.247zm-2.305-.155c0-.13.066-.278.146-.328.181-.112.55.308.401.457-.195.196-.547.113-.547-.13zm1.676-.463c.029-.203.127-.37.217-.37s.189.167.217.37c.037.255-.031.37-.217.37-.185 0-.253-.115-.217-.37zm-7.89-.075c-.294-.108-.255-.707.046-.707.298 0 .513.459.305.65-.08.073-.238.098-.351.057zm1.276-.789c0-.137.146-.247.329-.247.183 0 .33.11.33.247s-.147.247-.33.247c-.183 0-.33-.11-.33-.247zm7.737-.094c0-.422.545-.374.627.055.038.197-.05.286-.286.286s-.341-.106-.341-.341zm-6.554-1.758c.03-.158.165-.288.298-.288.134 0 .268.13.298.288.039.202-.05.288-.298.288s-.337-.086-.298-.288zm.817-.033c.07-.212.296-.25.317-.053.007.065-.077.149-.186.185-.108.036-.167-.023-.131-.132zm3.967-.232c-.37-.183-.522-.764-.2-.764.303 0 .982.525.982.76 0 .263-.256.265-.782.004zm.494-2.848c-.113-.046-.206-.194-.206-.328 0-.341.559-.207.628.15.055.289-.044.33-.422.178zm3.745 7.497c0-.09-.074-.119-.165-.063-.09.056-.164.176-.164.267 0 .09.074.119.164.063.09-.056.165-.176.165-.267zm1.258-.934c-.168-.036-.377.007-.465.095-.103.103.005.126.306.065.344-.07.386-.112.16-.16zm-8.622.023c-.111-.045-.333-.048-.493-.006-.16.041-.07.078.202.082.272.003.403-.031.291-.076zm11.438-.648c.306-.198.54-.89.302-.89a2.1 2.1 0 0 1-.37-.114c-.266-.1-.275-.08-.076.165.28.344.05.676-.709 1.031l-.505.236.494-.094c.272-.052.66-.202.864-.334zm2.667-1.076c.311-.185.395-.187.458-.01.06.167.147.154.384-.061.169-.153.42-.234.558-.18.165.063.332-.058.484-.351l.231-.447-1.318.054c-.725.03-1.28-.008-1.232-.085.047-.077-.187-.114-.52-.082-.334.032-1.195-.093-1.915-.277-.719-.185-1.329-.314-1.355-.288-.083.083 2.306 1.583 2.522 1.583.114 0 .253.142.308.316.082.258.184.292.557.185.252-.072.628-.233.838-.357z" id="1677462931222-8640877_path2989" display="inline" fill="#212121" stroke-width=".165"></path></g></g></svg>