<svg width="86" height="81" xmlns="http://www.w3.org/2000/svg" viewBox="0 0 22.909 21.467"><title>firis armor</title><g fill="#212121" class="nc-icon-wrapper"><g id="1677809791895-6463407_layer1" transform="translate(-5.367 7.315)"><path d="M10.814 7.88V1.607l-1.17 1.148-1.17 1.148-1.468-1.388C6.2 1.75 5.468.905 5.381.632 5.27.277 5.813-.587 7.323-2.446c2.695-3.32 2.712-3.333 5.221-4.259 1.865-.687 2.185-.738 2.629-.413.65.475 2.372.474 3.125-.003.524-.332.82-.281 2.834.491l2.25.863 2.447 3c1.346 1.65 2.447 3.075 2.447 3.165 0 .3-1.866 2.35-2.643 2.904l-.765.545-1.067-1.131-1.068-1.132-.006 6.284-.007 6.284H10.814z" id="1677809791895-6463407_path1923" fill="#212121" stroke-width=".265"></path></g></g></svg>