<svg width="151" height="147" xmlns="http://www.w3.org/2000/svg" viewBox="0 0 40.032 38.952"><title>firis race demon</title><g class="nc-icon-wrapper"><g id="1678063623396-8821641_layer1" transform="translate(-106.302 -76.024)"><path d="M114.961 113.394c-2.108-2.953-4.54-5.656-6.138-6.822-.287-.21-.404-.402-.32-.53.16-.245 2.113-.764 2.341-.623.09.056.353.501.584.99.231.489.65 1.081.93 1.317.449.378.633.423 1.546.382.57-.026 1.073-.01 1.118.035.23.23 1.432 6.63 1.275 6.787-.077.077-.678-.614-1.336-1.536zm21.351 1.547c-.128-.208 1.094-6.59 1.302-6.798.045-.045.548-.06 1.118-.035.914.041 1.097-.005 1.546-.382.28-.236.699-.828.93-1.317.231-.489.494-.934.584-.99.229-.14 2.18.378 2.341.623.084.128-.033.318-.323.524-.25.177-1.197 1.066-2.106 1.975-1.385 1.386-2.656 2.955-4.944 6.105-.2.276-.385.397-.448.295zm-12.31-.366c-1.102-.431-1.713-.945-2.21-1.858-.349-.64-.488-.773-.663-.628-.424.352-1.183-.389-1.479-1.444-.133-.477.493-1.751 1.121-2.28.683-.574.807-.504.696.388l-.097.782.27-.741c.15-.407.411-.937.582-1.178.408-.575.4-.864-.02-.734-1.127.347-1.045.377-.948-.346.172-1.283-.576-1.4-.933-.145l-.176.621-.38-.405c-.209-.223-.577-.952-.818-1.62-.37-1.025-.437-1.47-.425-2.86.011-1.415.099-1.924.626-3.622.591-1.904.952-2.716 1.208-2.716.067 0 .32.184.562.409.388.36.422.471.286.945-.275.959-.183 1.527.355 2.204.432.543.492.727.396 1.216l-.198 1.029c-.107.564.18.595.532.059.503-.769.498-1.516-.017-2.258-.53-.767-.593-1.719-.156-2.386.215-.328.395-.395 1.072-.395.68 0 .912-.086 1.412-.525.33-.289.82-.918 1.092-1.4.27-.48.553-.873.626-.873.073 0 .355.393.626.874.272.48.763 1.11 1.092 1.4.5.438.732.524 1.412.524.677 0 .857.067 1.072.395.437.667.375 1.62-.156 2.386-.515.742-.52 1.49-.017 2.258.399.607.644.499.504-.224l-.2-1.03c-.056-.295.068-.599.428-1.052.536-.675.627-1.244.353-2.202-.136-.474-.102-.585.286-.945.242-.225.495-.409.562-.409.256 0 .617.812 1.208 2.716.527 1.698.615 2.207.626 3.622.012 1.39-.055 1.835-.425 2.86-.241.668-.61 1.397-.818 1.62l-.38.405-.176-.621c-.357-1.255-1.105-1.138-.933.145.097.723.179.693-.949.346-.42-.13-.427.159-.019.734.17.24.432.77.581 1.178l.271.74-.097-.781c-.111-.892.014-.962.696-.388.628.529 1.254 1.803 1.12 2.28-.295 1.055-1.054 1.796-1.478 1.444-.175-.145-.315-.01-.67.641-.49.901-1.244 1.509-2.359 1.901-1.017.359-3.496.328-4.475-.056zm.746-.997c.112-.182-.68-.958-1.121-1.098-.43-.137-.726.194-.5.557.338.54 1.402.895 1.621.54zm4.564-.285c.363-.329.386-.69.05-.818-.412-.159-1.66.8-1.462 1.123.14.226 1.04.032 1.412-.305zm-6.813-8.483c.259-.259.254-1.038-.008-1.23-.335-.244-2.091-.775-2.201-.665-.18.18.1 1.223.448 1.665.255.324.485.428.95.428.338 0 .703-.09.811-.198zm9.4-.23c.347-.442.628-1.485.448-1.665-.11-.11-1.866.421-2.202.666-.261.191-.267.97-.008 1.23.11.108.474.197.812.197.464 0 .695-.104.95-.428zm-18.941 2.317c-.57-.31-1.064-1.124-1.287-2.121l-.18-.798 1.053-1.008c.923-.883 1.196-1.303 2.21-3.395.637-1.312 1.37-2.584 1.628-2.825.414-.385 2.838-1.784 3.092-1.784.17 0 .1.637-.14 1.273-.128.34-.432 1.361-.674 2.266-.47 1.758-.885 3.025-1.076 3.293-.228.319-.947 2.312-1.05 2.909-.078.461-.337.82-1.095 1.522-1.075.996-1.612 1.14-2.481.668zm24.24-.668c-.758-.701-1.017-1.061-1.096-1.522-.103-.597-.821-2.59-1.05-2.91-.191-.267-.605-1.534-1.075-3.292-.243-.905-.546-1.925-.675-2.266-.24-.636-.31-1.273-.14-1.273.254 0 2.679 1.4 3.092 1.784.259.241.991 1.513 1.628 2.825 1.014 2.092 1.288 2.512 2.21 3.395l1.053 1.008-.18.798c-.338 1.51-1.168 2.372-2.283 2.372-.37 0-.74-.23-1.485-.919zm-28.884-.857c-.044-.072.06-.942.232-1.935.373-2.153.396-3.993.07-5.672-.131-.68-.315-1.77-.409-2.424-.161-1.131-.58-2.127-1.625-3.86-.287-.476-.335-.714-.227-1.13.118-.457.27-.577 1.12-.887 3.143-1.15 4.85-3.772 4.85-7.449 0-2.1.127-2.035 1.977 1.016l2.41 3.974c.665 1.1 1.21 2.04 1.21 2.09 0 .05-.543.5-1.208 1-.665.501-1.422 1.217-1.681 1.592-.45.648-.504.676-1.137.587l-2.393-.33c-1.829-.251-2.545-.463-3.916-1.158-.466-.236-.891-.43-.945-.43-.49 0 1.936 1.5 3.078 1.904.461.163 1.082.65 1.893 1.484 1.13 1.165 1.351 1.516 1.105 1.762-.172.173-1.213 3.271-1.47 4.379-.135.577-.292 1.93-.35 3.008l-.105 1.958-.718.181c-.395.1-.758.246-.807.325-.111.18-.845.191-.954.015zm35.055-.015c-.05-.08-.413-.225-.808-.325l-.718-.18-.105-1.96c-.058-1.076-.218-2.445-.356-3.04-.266-1.145-1.135-3.785-1.405-4.266-.088-.158-.16-.357-.16-.443 0-.086.543-.715 1.206-1.399.811-.835 1.432-1.321 1.893-1.484 1.143-.403 3.569-1.903 3.078-1.903-.053 0-.478.193-.944.429-1.371.695-2.088.907-3.916 1.158l-2.394.33c-.633.089-.688.06-1.137-.587-.26-.375-1.015-1.09-1.68-1.591-.665-.5-1.21-.95-1.21-1.001 0-.05.546-.99 1.212-2.09l2.41-3.974c1.85-3.051 1.976-3.116 1.976-1.016 0 3.677 1.708 6.3 4.85 7.449.85.31 1.002.43 1.12.886.108.417.06.655-.226 1.132-1.075 1.785-1.589 2.963-1.7 3.896a58.627 58.627 0 0 1-.352 2.367c-.315 1.846-.29 3.518.087 5.692.172.993.277 1.863.232 1.935-.109.176-.842.165-.953-.015zm-31.866-3.107c0-.665.59-3.579.976-4.824.184-.595.515-1.25.736-1.458l.403-.377.835.454c1.076.586 1.08.889.043 2.526-.436.688-.928 1.615-1.093 2.059-.322.863-1.298 2.073-1.673 2.073-.139 0-.227-.177-.227-.453zm28.603-.18a5.363 5.363 0 0 1-.872-1.44c-.166-.444-.658-1.37-1.094-2.059-1.037-1.637-1.032-1.94.043-2.526l.836-.454.402.377c.467.44.938 1.856 1.391 4.184.53 2.725.384 3.124-.706 1.918zm-25.311-6.629c-.498-.455-1.202-1.022-1.564-1.26-.947-.621-1.4-1.048-1.4-1.323 0-.198.205-.219 1.187-.122.652.064 1.39.222 1.638.35.249.129.83.234 1.292.234.463 0 1.152.07 1.531.156.38.086.968.2 1.308.254.819.13.788.473-.073.818a6.24 6.24 0 0 0-1.276.736c-.513.403-1.55 1.012-1.688.992-.028-.004-.457-.38-.955-.835zm21.482.565a9.147 9.147 0 0 1-1.079-.723 6.256 6.256 0 0 0-1.276-.735c-.861-.345-.892-.687-.073-.818.34-.054.928-.168 1.308-.254a8.428 8.428 0 0 1 1.53-.156c.463 0 1.045-.105 1.293-.234.249-.128.986-.286 1.638-.35.982-.097 1.186-.076 1.186.122 0 .267-.486.739-1.234 1.198-.272.167-.985.736-1.586 1.265-.6.53-1.12.96-1.152.955-.034-.003-.283-.125-.555-.27zm-14.858-.37a3.19 3.19 0 0 1-.863-.874c-.34-.558-.44-1.277-.177-1.277.084 0 .041-.224-.095-.496-.177-.355-.205-.624-.098-.947.135-.407.245-.46 1.128-.546 1.158-.112 1.68-.418 2.306-1.353l.507-.756c.024-.036.156.029.294.143.175.146.25.512.248 1.217-.004 1.338-.463 2.165-1.499 2.698-.669.344-.862.373-1.6.239-.933-.17-.977-.047-.127.357.77.365 1.294.335 2.208-.128.555-.281.866-.576 1.08-1.024.314-.66.447-.607.652.266.12.514-.603 1.89-1.24 2.36-.662.488-2.04.55-2.724.12zm7.536.134c-.608-.243-.983-.636-1.412-1.483-.328-.646-.361-.852-.22-1.362.187-.679.34-.662.644.071.235.568 1.5 1.312 2.23 1.312.432 0 1.491-.425 1.634-.656.041-.066-.303-.052-.765.032-.738.134-.931.105-1.6-.239-1.035-.533-1.495-1.36-1.499-2.698-.003-.705.073-1.07.248-1.217.138-.114.27-.179.294-.143l.507.756c.627.935 1.148 1.241 2.306 1.353.883.086.993.14 1.128.546.107.323.08.592-.098.947-.136.272-.179.496-.095.496.263 0 .164.719-.176 1.277-.63 1.032-1.977 1.466-3.126 1.008zm-9.912-2.866c-.048-.048-.783-.14-1.633-.206-1.21-.093-1.545-.172-1.545-.366 0-.302 1.872-.973 2.737-.982.64-.006.861.17 1.018.81.129.52-.277 1.043-.577.744zm14.055-.124c-.19-.229-.096-.88.178-1.23.241-.308 1.224-.239 2.425.17 1.563.533 1.453.83-.36.968-.786.06-1.572.154-1.746.21-.177.056-.396.004-.497-.118zm-12.912-1.933c-.42-.259-.847-1.15-.646-1.35.09-.09.502-.177.916-.193.96-.038 1.522-.453 2.164-1.597.275-.49.571-.878.659-.864.311.05.56 1.15.394 1.749-.197.714-.763 1.555-1.328 1.974-.507.375-1.744.536-2.159.28zm10.577-.017c-1.357-.54-2.267-2.606-1.654-3.752.243-.453.38-.348.983.75.56 1.022 1.15 1.438 2.089 1.476.98.039 1.15.22.816.864-.421.816-1.24 1.059-2.234.662zm-11.655-2.289c-.384-.357-.641-1.088-.45-1.279.063-.063.464-.115.89-.115 1.017 0 1.545-.366 2.009-1.393.563-1.244.975-1.065.975.425 0 .943-.497 1.911-1.208 2.35-.73.451-1.74.457-2.216.012zm12.183-.019c-.698-.446-1.187-1.412-1.187-2.343 0-1.49.413-1.67.975-.425.464 1.027.992 1.393 2.009 1.393.914 0 1.042.091.903.646-.266 1.058-1.617 1.423-2.7.73zm-14.564-2.392c-.584-.89-1.156-1.803-1.272-2.029-.115-.226-.708-1.152-1.317-2.058-1.383-2.057-1.87-2.99-1.635-3.135.096-.06.503-.06.904.002.716.108.73.1.73-.353.003-.872.511-2.228.748-1.991.06.06.206.67.325 1.356.373 2.148 1.32 3.592 3.157 4.81.48.319.873.67.873.78 0 .11-.22.41-.488.667-.553.53-1.269.599-1.9.185-.457-.3-1.388-1.662-2.057-3.01-.261-.525-.479-.834-.484-.686-.023.619.575 2.076 1.07 2.612 1.138 1.23 2.771 4.105 2.491 4.385-.045.046-.56-.645-1.145-1.534zm17.991 1.428c.007-.646 1.468-3.104 2.543-4.28.49-.537 1.087-1.998 1.065-2.612-.005-.148-.224.162-.485.687-.668 1.348-1.6 2.71-2.056 3.01-.632.414-1.348.344-1.9-.185-.269-.257-.488-.558-.488-.668 0-.11.392-.46.872-.779 1.836-1.219 2.784-2.663 3.157-4.81.12-.687.265-1.297.325-1.357.237-.237.746 1.12.748 1.991 0 .454.015.461.73.354.4-.06.808-.06.904-.003.234.145-.235 1.043-1.697 3.25-.644.971-1.566 2.418-2.049 3.213-1.032 1.7-1.673 2.54-1.669 2.188zm-16.343-1c-.34-.2-.832-1.09-.71-1.288.047-.076.397-.188.777-.248.516-.083.825-.265 1.214-.715.514-.595.53-.6.944-.329.867.568.66 1.976-.367 2.507-.551.285-1.433.32-1.858.072zm13.995-.08c-1-.543-1.186-1.941-.334-2.5.415-.271.43-.266.944.329.39.45.698.632 1.214.715.38.06.73.172.777.248.13.21-.383 1.103-.742 1.296-.45.24-1.33.198-1.86-.089zm-13.862-4.195c-.357-.178-.823-.487-1.035-.687-.457-.43-1.361-2.046-1.361-2.434 0-.198.426-.413 1.55-.784.853-.282 2.057-.824 2.676-1.204 1.847-1.136 2.004-1.22 2.106-1.117.087.087-1.293 3.726-2.192 5.78-.393.9-.685.974-1.744.446zm13.876-.445c-.899-2.055-2.279-5.694-2.192-5.781.102-.102.26-.02 2.107 1.117.618.38 1.822.922 2.675 1.204 1.125.371 1.55.586 1.55.784 0 .455-.972 2.099-1.51 2.55-.569.48-1.5.908-1.972.908-.218 0-.42-.241-.658-.782z" id="1678063623396-8821641_path4582" display="inline" fill="#000000" stroke-width=".165"></path></g></g></svg>