<svg width="73" height="85" xmlns="http://www.w3.org/2000/svg" viewBox="0 0 19.473 22.713"><title>firis weapon</title><g fill="#212121" class="nc-icon-wrapper"><g id="1677809791896-9930460_layer1" transform="translate(-10.413 7.632)"><path d="M27.376 14.749c-.238-.286-.057-.562.865-1.318 1.02-.835 1.208-.904 1.5-.553.28.336.188.553-.553 1.318-.963.994-1.35 1.111-1.812.553zm-.647-1.137c-.267-.383-.177-.59.771-1.313.77-.587.777-.792 1.176-.352.29.32-.02.586-.616 1.095-.908.778-1.058.96-1.33.57zM19.755 11.7l-.845-1.016.67-.305c.886-.404 7.132-5.725 7.332-6.246.122-.316.361-.185 1.077.59l.92.995-.603.265c-.769.337-6.626 5.276-7.242 6.107l-.464.626zm6.11.722c-.3-.437 1.507-1.81 1.827-1.569.54.406.07.512-.476 1.081-.833.87-.912 1.129-1.351.488zm-.9-1.098c-.1-.163.358-.69.796-1.11.614-.587.741-.738 1.11-.447.44.346.163.519-.449 1.109-.998.963-1.188.885-1.457.448zm-.922-.969c-.101-.132.233-.608.712-1.036.674-.602.859-.77 1.23-.48.3.234.207.435-.467 1.036-.878.785-1.03 1.06-1.475.48zM20.566 8.28c-6.832-6.188-8.514-7.706-9.2-8.306l-.82-.716 1.752-.011c.965-.006 2.104-.081 2.533-.167.738-.147.965.064 4.266 3.966 1.918 2.268 3.487 4.22 3.487 4.34 0 .12-.342.47-.761.78-.718.531-.79.537-1.257.114zm-.872-5.468l-3.476-4.093.489-2.574.489-2.575 1.189 1.841C23.093 2.7 24.7 5.276 24.7 5.526c0 .159-.345.534-.766.834l-.765.545zm-9.28-7.241c0-2.89.046-3.213.462-3.202.632.016 5.619.953 5.739 1.078.09.095-.864 4.773-1.003 4.912-.036.036-1.22.146-2.632.246l-2.567.18z" id="1677809791896-9930460_path1909" fill="#212121" stroke-width=".265"></path></g></g></svg>