<svg width="62" height="73" xmlns="http://www.w3.org/2000/svg" viewBox="0 0 16.478 19.578"><title>firis attack</title><g fill="#212121" class="nc-icon-wrapper"><g id="1677809791896-2377005_layer1" transform="translate(-45.777 -4.773)"><path d="M52.393 24.206c-2.509-.514-4.714-2.299-5.88-4.76-.99-2.09-.981-4.842.023-6.871.671-1.356.66-1.453.276-1.933-.75-.94-.94-.665-.338-1.218.338-.311.441-.42.152-.977-.258-.498-.296-.905-.125-1.356.135-.354.245-.98.245-1.392 0-1.034.73-1.273 1.079-.354.188.495.177.926-.039 1.445-.312.754-.19 1.544.238 1.544.13 0 .694-.363 1.254-.808l1.016-.808.439.582c.4.53.005.567 3.187.61 1.61-.008 2.86.093 4 .763 1.633.96 2.927 2.313 3.683 3.849.847 1.721.872 5.178.05 6.964-1.538 3.343-5.678 5.453-9.26 4.72z" id="1677809791896-2377005_path1785" fill="#212121" stroke-width=".265"></path></g></g></svg>