<svg width="36" height="42" xmlns="http://www.w3.org/2000/svg" viewBox="0 0 9.589 11.314"><title>firis resist pierce</title><g fill="#212121" class="nc-icon-wrapper"><g id="1677462931224-8889850_layer1" transform="translate(-50.617 -78.099)"><path d="M59.198 89.413c-.073-.003-.906-1.068-1.852-2.368-.946-1.3-1.828-2.368-1.96-2.373-.131-.005-.024-.247.24-.538.263-.29.58-.53.702-.53.123 0 .194.111.158.246-.037.134.75 1.34 1.747 2.679l1.814 2.434-.358.227c-.198.125-.419.226-.491.223zm-4.616-.516c-.082 0-.868-.97-1.746-2.154-.878-1.185-1.729-2.405-1.89-2.712l-.292-.558.6.529c.331.29 1.16 1.362 1.845 2.381.683 1.019 1.33 2.001 1.437 2.183.107.182.128.33.046.33zm5.59-2.382c-.064 0-.766-.863-1.56-1.918-.793-1.055-1.591-2.196-1.773-2.536-.181-.34-.277-.671-.211-.737.065-.065.829.928 1.697 2.206.868 1.278 1.665 2.473 1.77 2.655.106.182.14.33.076.33zm-6.082-.529c-.077 0-.674-.672-1.326-1.494-.652-.821-1.453-1.97-1.78-2.553-.328-.583-.461-.976-.296-.874.165.102.82.923 1.457 1.825a86.667 86.667 0 0 1 1.622 2.369c.256.4.4.727.323.727zm6.086-1.587c-.061 0-.763-.864-1.56-1.919-.798-1.055-1.648-2.212-1.89-2.572-.24-.36-.436-.776-.433-.926.003-.15.247.026.541.39.294.363 1.104 1.494 1.8 2.513.695 1.019 1.352 2.001 1.459 2.183.107.182.144.33.083.33zm-5.046-.273c-.164-.004-.863-.594-1.555-1.311-.69-.717-1.537-1.731-1.537-1.81 0-.08 1.171.233 1.415.254.852.927 1.27 1.558 2.144 2.478-.682-.973-1.508-2.067-1.946-2.658l.243-1.51.438.729c.19.315.705 1.104 1.065 1.806l.656 1.278-.312.376c-.172.207-.446.373-.61.368zm-1.443-3.82l-.178.797-.776-.138-.777-.138-.335-1.314c-.184-.723-.293-1.356-.24-1.408.051-.052.611.228 1.243.622.633.394 1.17.73 1.196.748.025.018-.035.391-.133.83z" id="1677462931224-8889850_path19507" fill="#212121" stroke-width=".265"></path></g></g></svg>