<svg width="84" height="109" xmlns="http://www.w3.org/2000/svg" viewBox="0 0 22.458 28.9"><title>firis category neutralizer</title><g fill="#212121" class="nc-icon-wrapper"><g id="1677462931221-5043331_layer1" transform="translate(-23.037 -50.554)"><path d="M24.182 79.283a1.368 1.368 0 0 1-.374-.51c-.064-.172-.164-.265-.221-.208-.058.058-.204.022-.326-.079-.263-.218-.31-2.372-.056-2.53.09-.055.164-.22.164-.365s.445-.802.988-1.458c.543-.657.988-1.27.988-1.36 0-.092.354-.524.786-.961.433-.437.893-1.054 1.023-1.37.242-.59.362-.773.866-1.329.158-.175.235-.317.17-.317-.066 0 .045-.116.246-.257.201-.14.366-.351.366-.468 0-.117.158-.353.352-.526.193-.172.454-.554.578-.848.125-.294.292-.535.373-.535.407 0 .523-1.234.51-5.419l-.012-4.348-.423-.423c-.567-.567-1.104-1.333-.937-1.336.074-.003.025-.072-.108-.156-.168-.107-.262-.528-.305-1.365-.056-1.113-.026-1.252.373-1.726.323-.384.671-.569 1.363-.724.565-.126.95-.146.982-.051.031.094 1.366.137 3.345.108l3.293-.048.883.624c1.455 1.028 1.498 1.833.183 3.438l-.573.699v4.938c0 3.464.054 4.956.182 4.999.1.033.234.54.298 1.125.124 1.133.958 2.95 1.984 4.32a117.97 117.97 0 0 1 1.98 2.835c.801 1.177 1.547 2.24 1.656 2.362.344.384.8 1.773.703 2.144-.051.194-.265.397-.476.45a.571.571 0 0 0-.433.45l-.05.355-10.042.034c-7.629.026-10.103-.013-10.299-.164zm18.448-1.186c.112-.136.306-.247.43-.247s.411-.162.639-.36c.605-.526.585-1.657-.04-2.274a8.126 8.126 0 0 1-.782-.916 7.545 7.545 0 0 0-.618-.764c-.158-.163-.288-.335-.288-.383 0-.139-1.257-1.765-1.719-2.224-.231-.23-.42-.503-.42-.609 0-.105-.095-.25-.21-.323-.116-.072-.542-.798-.947-1.613-.405-.815-.792-1.506-.86-1.536-.205-.091-.139-.817.082-.906.124-.05.093-.089-.078-.096-.263-.012-.284-.395-.275-5.133.009-4.955-.003-5.131-.331-5.482-.316-.336-.321-.381-.069-.633.253-.253.247-.265-.084-.179l-.356.093v5.71c0 4.18-.053 5.762-.195 5.904-.335.335-.267.82.14 1.006.211.096.384.25.384.343 0 .17.265.511.946 1.22.204.212.37.444.37.516 0 .246 2.53 3.915 3.077 4.46.3.3.545.614.545.696 0 .083.161.257.358.388.51.338.647 2.065.194 2.45-.559.474-1.629.645-4.057.645-2.591 0-2.915-.1-2.915-.9 0-.435.275-.582 1.088-.582.665 0 1.842-.922 1.55-1.215-.093-.092-.169-.338-.169-.546 0-.209-.064-.379-.142-.379-.08 0-.272-.463-.43-1.029-.157-.566-.361-1.121-.453-1.234-.092-.114-.103-.207-.024-.209.08-.002.07-.057-.02-.124-.258-.19-.943-1.537-.836-1.644.052-.053-.02-.224-.162-.38-.142-.156-.32-.734-.399-1.283-.077-.55-.202-1.094-.278-1.21-.075-.117-.173-1.188-.219-2.38-.074-1.96-.118-2.207-.452-2.563-.204-.217-.37-.478-.37-.581 0-.429-.399-1.013-.723-1.059-.322-.046-.351-.165-.396-1.608-.033-1.082-.121-1.64-.288-1.824-.207-.229-.21-.358-.02-.911.214-.619.263-.652 1.194-.814.72-.126.985-.245 1.027-.465.035-.182-.063-.326-.258-.377-.173-.045-.446-.304-.605-.574-.335-.566-.81-.576-.89-.018-.066.46-.291.473-.529.029-.119-.223-.126-.408-.022-.535.088-.108.186-.38.218-.607.056-.409.07-.412 1.95-.459 2.346-.058 2.633.058 2.633 1.063 0 .615.048.713.347.713.613 0 1.402-1.224 1.076-1.667-.445-.604-.947-.695-3.699-.668-1.478.015-2.76.071-2.849.126-.088.055-.346.053-.572-.004-.272-.068-.626.017-1.043.252-.521.293-.65.47-.737 1.012-.138.867.074 1.086 1.112 1.146l.85.05.071.823c.04.452.077 3.056.083 5.785.01 4.74-.003 4.979-.318 5.326-.318.352-.576.758-2.276 3.584-.436.726-.973 1.49-1.193 1.695-.22.207-.4.474-.4.594s-.078.218-.174.218c-.096 0-.128.074-.072.165.056.09.023.164-.073.164s-.174.113-.174.251-.297.572-.659.965c-.362.393-.658.79-.658.884 0 .093-.11.212-.246.264-.135.052-.23.227-.212.388.019.162-.027.788-.101 1.392-.074.604-.086 1.178-.025 1.276.076.123 2.666.177 8.475.177 7.235 0 8.393-.033 8.57-.247zm-14.934-.581c-.062-.238-.176-.306-.397-.236-.178.057-.42-.012-.571-.164-.24-.24-.234-.325.082-.997.19-.404.346-.805.346-.89 0-.085.092-.254.205-.375.114-.121.348-.478.522-.794.174-.315.488-.782.7-1.038.21-.256.384-.663.384-.905 0-.243.143-.7.318-1.017.174-.317.395-.744.49-.949.262-.566 1.137-1.355 1.502-1.355.316 0 .399.22.329.882-.035.327-1.103 2.091-1.377 2.272-.09.06-.248 1.074-.35 2.254l-.184 2.146.377.094c.473.12.479.462.017.993-.307.353-.498.413-1.332.413-.84 0-.986-.046-1.061-.334zm5.221-22.723c0-.095.074-.128.165-.072.09.056.165.134.165.174 0 .04-.075.073-.165.073-.09 0-.165-.079-.165-.175z" id="1677462931221-5043331_path4042" display="inline" fill="#212121" stroke-width=".165"></path></g></g></svg>