<svg width="109" height="79" xmlns="http://www.w3.org/2000/svg" viewBox="0 0 28.957 20.99"><title>firis category clay</title><g fill="#212121" class="nc-icon-wrapper"><g id="1677462931220-3643743_layer1" transform="translate(-14.238 -62.595)"><path d="M25.32 83.448c-.266-.076-.706-.203-.978-.283-.271-.08-1.012-.222-1.646-.315a28.165 28.165 0 0 1-2.47-.51c-.792-.207-2.116-.38-3.326-.437-1.81-.084-2.045-.13-2.36-.466-.304-.323-.34-.515-.273-1.417.148-1.972.304-2.34 1.47-3.466.589-.569 1.15-1.257 1.245-1.529.096-.271.22-1.142.278-1.935.094-1.314.16-1.527.736-2.394.347-.523.825-1.04 1.061-1.147.236-.108.429-.304.429-.437s.13-.338.288-.456c.159-.118.532-.565.83-.992.747-1.071 2.645-2.884 3.244-3.097.272-.097.902-.385 1.4-.64.498-.255 1.201-.557 1.564-.671.362-.115.762-.291.889-.392.128-.102 1.067-.21 2.112-.244 1.815-.057 1.897-.045 2.32.349.242.225.657.46.923.523.503.119.933.417 2.316 1.607.845.727 2.931 3.084 3.25 3.67.098.182.238.37.311.42.16.107.632 1.409.646 1.783.006.147.315.49.687.761.772.563 1.038.993 1.66 2.685.308.84.442 1.52.442 2.257 0 .943.164 1.57.678 2.587.231.456.182 2.428-.06 2.444-.573.038-1.237.192-1.606.373-.327.161-.495.16-.823-.007-.28-.144-1.23-.211-2.984-.213-2.931-.003-3.54.079-3.647.486-.056.214-.298.31-.93.371-.547.053-1.045.224-1.38.476-.502.377-.636.393-3.169.393-1.454 0-2.862-.062-3.127-.137zm5.884-1.377c.212-.2.654-.475.981-.612.956-.399.93-.68-.152-1.724-2.382-2.295-2.792-2.652-3.048-2.652-.298 0-.682-.645-1.014-1.704a46.44 46.44 0 0 0-.33-1.012c-.069-.2.132-.066.516.344.947 1.012 1.753 1.442 2.456 1.31.318-.06.723-.232.899-.383.348-.298.429-.938.14-1.116-.099-.061-.146-.288-.105-.504.041-.215.009-.392-.073-.392-.081 0-.127-.185-.1-.41.065-.572-.956-1.956-1.682-2.279-.461-.205-.732-.223-1.358-.087-.43.093-.782.225-.782.293 0 .068-.092.131-.205.14-.114.01-.577.141-1.03.291-.452.15-.931.307-1.065.348-.238.074.333.48 1.6 1.136.295.152.536.342.536.422 0 .254-.378.158-.748-.19-.197-.184-.646-.38-.998-.433-.616-.094-1.382-.605-1.382-.921 0-.084.145-.355.322-.604.233-.328.605-.528 1.364-.733.754-.205 1.086-.383 1.2-.644.088-.2.32-.385.518-.413.197-.028.456-.176.576-.33.192-.245.186-.253-.05-.068-.19.148-.39.163-.682.052-.228-.087-.57-.117-.76-.067-.484.126-.675-.412-.251-.712.173-.122.463-.36.644-.53.18-.168.616-.5.966-.738.546-.37.593-.447.33-.538-.17-.058-.679-.274-1.132-.48-1.53-.696-2.188-.801-2.929-.467-.36.162-.884.52-1.165.795-.66.647-1.932 2.265-1.847 2.35.114.114 1.318-.564 1.646-.927.307-.34.92-.48.92-.21 0 .074-.176.301-.393.505-.216.203-.436.586-.49.851-.07.352-.19.483-.445.483-.465 0-1.305.918-1.305 1.426 0 .222.062.366.138.319.076-.047.057.172-.041.486s-.29.607-.426.65c-.518.167-3.782 3.46-3.97 4.006-.103.302-.466.82-.806 1.152-.553.539-.63.719-.73 1.686-.083.805-.056 1.126.104 1.253.119.094.75.214 1.403.266.652.052 2.467.426 4.033.832 1.566.406 3.032.763 3.258.794.226.031 1.795.056 3.485.054 2.94-.002 3.09-.018 3.459-.364zM18.78 73.168c.162-.161.646-.574 1.076-.916.822-.655.973-1.1.564-1.66-.182-.249-.28-.267-.577-.109-.196.106-.487.392-.645.636a5.58 5.58 0 0 1-.576.735c-.178.18-.288.542-.288.95 0 .744.035.773.446.364zm14.363-1.277c-.267-.322-.08-.303.465.048l.447.288-.305-.472c-.298-.462-.297-.498.034-1.564.616-1.99.682-1.738-.925-3.561-1.571-1.782-1.912-1.983-3.665-2.167-.737-.077-1.026-.035-1.384.2l-.452.296.385.199c.212.109.645.253.962.32.797.166.987.362.987 1.015 0 .604-.594 1.372-1.062 1.372-.415 0-.29.597.19.911.655.43 1.16.974 1.227 1.324.033.17.225.39.426.49.201.1.63.528.95.949.323.421.785.87 1.029.998.401.21.464.202.667-.087.176-.251.181-.37.024-.56z" id="1677462931220-3643743_path4304" display="inline" fill="#212121" stroke-width=".165"></path></g></g></svg>