<svg width="111" height="104" xmlns="http://www.w3.org/2000/svg" viewBox="0 0 29.434 27.766"><title>firis category armor mat</title><g fill="#212121" class="nc-icon-wrapper"><g id="1677462931220-9329531_layer1" transform="translate(-17.533 -59.401)"><path d="M36.734 86.715c-.421-.282-.886-.695-1.032-.919-.302-.46-.727-.513-1.385-.173-.472.244-1.219.394-4.224.848-2.536.383-3.214.418-3.829.197-.416-.15-.692-.146-1.234.015-.384.115-1.488.244-2.453.286-1.605.071-1.844.042-2.799-.346-1.869-.758-2.349-1.443-2.228-3.184.256-3.69.743-6.514 1.174-6.812.096-.067.11-.122.031-.124-.079-.002-.062-.1.037-.22.1-.119.296-.73.437-1.358.585-2.604 1.98-7.312 2.493-8.42.304-.654.552-1.436.552-1.737 0-.301.064-.618.142-.704.079-.086.34-.738.582-1.45.945-2.783 1.319-3.128 3.474-3.203 1.654-.058 2.186.118 3.279 1.084.784.693 1.083 1.43 1.083 2.666v.993h.649c.356 0 .687.062.733.138.144.233 4.59.185 4.873-.052.136-.114.432-.248.659-.297.226-.05 1.071-.319 1.878-.598 1.782-.617 1.993-.623 2.544-.081.725.713 1.851 1.549 2.086 1.549.122 0 .267-.074.323-.165.056-.09.431-.164.833-.164.402 0 .731-.075.731-.165 0-.09.186-.165.412-.165.253 0 .411.094.411.243 0 .376-.52 1.144-1.112 1.642l-.536.452.526.664.526.665-.707.603-.707.603.429.51c.534.635.538.879.02 1.365-.592.556-.713 1.402-.27 1.874.42.447.445.808.076 1.113-.15.124-.416.546-.59.939-.288.651-.293.737-.055 1 .34.376.333.446-.152 1.401-.458.904-.5 1.326-.219 2.261.172.575.157.673-.149.958-.407.38-.608 1.401-.453 2.314.1.59.063.703-.327 1.01-.688.54-.814 1.062-.419 1.732.778 1.319.29 1.806-1.63 1.621-1.452-.14-1.608-.14-2.81 0-.828.096-.972.06-1.673-.408zm2.291-.285c.295-.049.577-.155.627-.235.05-.08.586-.147 1.192-.147h1.102V84.99c0-.916.058-1.122.432-1.523.366-.392.446-.659.523-1.749.05-.707.18-1.393.29-1.525.112-.135.206-.789.217-1.512.012-.819.115-1.46.286-1.792.165-.32.213-.604.126-.741-.259-.409-.15-1.236.265-2.016.386-.727.395-.796.146-1.176-.321-.49-.208-1.294.305-2.162.336-.57.339-.617.074-1.079-.406-.706-.347-.993.325-1.588l.602-.533-.602-.429c-.331-.236-.602-.51-.602-.608 0-.099.344-.457.764-.797.42-.34.683-.617.585-.617a.372.372 0 0 0-.28.165c-.288.466-1.706-.182-2.805-1.283-.444-.444-.595-.496-1.317-.452-.449.027-1.208.206-1.686.398-.479.192-.998.35-1.153.35-.155 0-.504.126-.775.278-.346.195-1.068.308-2.399.377l-1.904.098-.977 1.035c-.537.569-1.235 1.422-1.552 1.895-.317.473-.777 1.075-1.023 1.337-.367.392-.576 1.017-1.18 3.53a270.86 270.86 0 0 0-.938 4.001c-.112.52-.248.947-.301.947-.054 0-.114.23-.133.512-.02.281-.12.612-.222.735-.114.138-.209 1.185-.243 2.7-.032 1.36-.113 2.567-.18 2.68-.083.137-.031.13.155-.022.236-.191.279-.191.28 0 0 .124.178.448.395.72l.395.494 2.323.057c2.187.054 2.394.03 3.539-.387 1.379-.503 1.654-.468 2.542.318 1.024.906 1.392 1.105 1.834.996.226-.056.653-.142.948-.191zm-15.381-1.214c.926-.814 1.097-1.454.71-2.65-.146-.454-.414-1.032-.594-1.285-.46-.646-1.633-1.159-2.649-1.159-.777 0-.895.057-1.637.782-.79.772-.802.8-.944 2.144-.14 1.328-.132 1.374.293 1.883.573.686 1.286.925 2.81.94 1.237.013 1.262.004 2.011-.655zm-2.919-.571c-.692-.361-.91-.726-.915-1.535-.004-.595.082-.798.515-1.202.407-.38.645-.475 1.095-.436.798.069 1.21.662 1.241 1.788.023.82-.01.897-.535 1.255-.658.449-.77.459-1.4.13zm-2.619-2.578c-.052-.132-.091-.093-.1.1-.006.173.032.27.087.215.055-.054.06-.196.013-.315zm1.004-1.914c.193-.028.393-.189.447-.357.181-.572 2.127-.9 2.896-.489.178.095.593.207.923.25.574.073.588.063.325-.227-.308-.34-.362-.69-.107-.69.093 0 .255-.19.36-.422.14-.303.284-.399.515-.338.241.063.274.037.133-.105-.42-.42-.18-1.658 1.649-8.435.268-.996.712-2.663.986-3.704.274-1.041.609-2.017.744-2.168.136-.152.232-.485.215-.741-.058-.865-.003-1.042.324-1.042.176 0 .435.165.576.366.45.642.275.057-.213-.712-.744-1.174-2.2-1.461-3.75-.74-.718.335-.882.5-1.102 1.11-.42 1.166-1.052 3.149-1.173 3.68-.063.272-.283.901-.491 1.4-.516 1.235-.869 2.407-.993 3.291-.195 1.394-.608 2.964-.779 2.964-.162 0-.143-.164.106-.906.06-.18-.03-.07-.2.247-.172.317-.406 1.02-.521 1.564-.337 1.592-.819 3.164-1.148 3.742-.197.346-.343 1.037-.409 1.937-.056.77-.14 1.585-.186 1.811-.045.226.054.041.22-.411.218-.59.403-.838.653-.875zm.86-5.39c0-.142.073-.211.164-.156.09.056.164.172.164.257 0 .085-.074.155-.164.155-.09 0-.165-.115-.165-.257zm.164-.567c0-.09.074-.165.164-.165a.165.165 0 0 1 0 .33.165.165 0 0 1-.164-.165zm.247-.823c.056-.09.134-.165.174-.165.04 0 .073.074.073.165 0 .09-.079.164-.175.164-.096 0-.128-.074-.072-.164z" id="1677462931220-9329531_path3084" display="inline" fill="#212121" stroke-width=".165"></path></g></g></svg>