<?xml version="1.0" encoding="UTF-8"?>
<svg width="19.133mm" height="28.626mm" version="1.1" viewBox="0 0 19.133 28.626" xmlns="http://www.w3.org/2000/svg">
 <g transform="translate(-13.229 -4.7625)">
  <path d="m27.856 33.071c-0.73599-0.34311-0.92078-0.5784-0.92427-1.1769 0-0.2368-0.1679-0.64077-0.37005-0.89773-0.20212-0.25696-0.37285-0.54475-0.37939-0.6395-0.01296-0.1892-0.20743-0.67096-0.8514-2.11-0.54893-1.2266-0.39576-1.3757 0.25908-0.25228 0.27988 0.48017 0.51051 0.77676 0.5125 0.65908 0.0066-0.38502-0.45056-1.0909-1.1368-1.7553l-0.67368-0.6523 0.0808-1.4054c0.10165-1.7684 0.43955-3.4784 0.8903-4.5056 0.31631-0.72083 0.34912-1.095 0.34912-3.9813 0-1.7585-0.0749-3.3827-0.16722-3.6255-0.24963-0.65656-1.4424-1.9477-2.4667-2.6701-0.69712-0.49165-1.0853-0.6482-1.6873-0.68056-0.43008-0.023019-0.78195 0.026194-0.78195 0.10946 0 0.083264-0.37412 0.57899-0.8314 1.1015-0.45728 0.52258-0.79452 0.98703-0.74938 1.0322 0.13959 0.1396 1.5462-0.61434 2.0847-1.1174l0.51094-0.47731 0.68233 0.34811c0.89048 0.45429 2.7475 2.0988 2.7475 2.4331 0 0.14335-0.2222 0.44418-0.49376 0.6685-0.42796 0.35354-0.63984 0.84717-0.74184 1.7286-0.05607 0.48442-0.6301 1.4159-1.0621 1.7235-0.86778 0.61791-2.6612 1.3524-3.0586 1.2527-0.20447-0.05133-0.58304 0.01693-0.84122 0.15153-0.25821 0.13467-0.81912 0.24532-1.2465 0.24585-0.67302 0.0026-0.82584-0.06506-1.1421-0.49284-0.20079-0.27162-0.45244-0.49384-0.5592-0.49384-0.10676 0-0.40071-0.31483-0.65326-0.69961-0.25252-0.38481-0.78923-1.1223-1.1927-1.6388l-0.7335-0.93914 0.07109-1.777c0.06099-1.5248 0.14904-1.9757 0.6204-3.1763 0.45948-1.1704 0.71668-1.564 1.5728-2.4064 0.63648-0.62627 1.4516-1.2166 2.1554-1.5609 1.0744-0.52562 1.2385-0.55663 3.2313-0.61095 1.8549-0.050562 2.1616-0.019579 2.6339 0.26514 0.29395 0.1773 0.81732 0.41286 1.1631 0.52343 0.81888 0.26196 2.3582 1.5524 3.4933 2.9285 2.1286 2.5806 2.6857 4.7492 1.8389 7.1583-0.73673 2.0961-0.78679 2.4317-0.63349 4.2448 0.12621 1.4926 0.10496 1.8034-0.17851 2.61l-0.32179 0.91554 0.53308 2.2261c0.60322 2.5189 1.5261 4.8109 2.3768 5.9028 0.33369 0.42831 0.57629 0.92678 0.57629 1.1841 0 0.40397-0.06961 0.454-0.76377 0.54914-1.4041 0.19246-3.0682 0.09506-3.7418-0.21894zm2.7308-0.91964c0.05001-0.05001-0.22236-0.69818-0.60526-1.4404-0.38293-0.74221-0.83169-1.7199-0.99724-2.1725-0.16558-0.4527-0.36777-0.91128-0.44934-1.0191-0.22823-0.30162-0.6068-2.6505-0.60513-3.7549 0-0.54324 0.0943-1.2471 0.20775-1.5642 0.14028-0.39201 0.17145-0.99782 0.09742-1.8931-0.0599-0.72414-0.08676-1.3907-0.05972-1.4812s0.09313-0.56692 0.14687-1.0587 0.16177-0.97324 0.24006-1.07c0.07829-0.09681 0.26509-0.65749 0.4151-1.246 0.15002-0.58851 0.34316-1.2975 0.42923-1.5755 0.38968-1.2589 0.01879-2.7019-0.98941-3.8506-0.63058-0.7184-0.6278-0.60029 0.01667 0.70646 0.42736 0.86662 0.49636 1.1574 0.39849 1.679-0.08718 0.46482-0.15758 0.56891-0.26741 0.39537-0.08197-0.12954-0.15018-0.42442-0.15155-0.65529 0-0.23088-0.06943-0.49017-0.15116-0.57618-0.08176-0.08599-0.17536-0.30454-0.20804-0.48562-0.03265-0.18108-0.10615-0.29218-0.1633-0.24691-0.05718 0.04527-0.25987-0.05882-0.45045-0.2313-0.19058-0.17248-0.34652-0.23241-0.34652-0.13316 0 0.09922 0.07109 0.22434 0.15798 0.27805 0.08689 0.05368 0.28493 0.50041 0.44011 0.99269 0.23207 0.73612 0.24646 0.9734 0.08107 1.3364-0.23918 0.52499-0.3629 0.41402-0.75679-0.67879-0.27252-0.7561-0.72517-1.4744-0.85029-1.3493-0.02858 0.02858 0.09443 0.43725 0.27337 0.90816 0.31885 0.83918 0.46082 2.967 0.21439 3.2134-0.13811 0.13809-0.2028 0.53986-0.32094 1.9935-0.06908 0.84984-0.01958 1.3599 0.19206 1.9828 0.27853 0.81936 0.27689 0.85712-0.07115 1.6439-0.54084 1.2226-0.97917 3.1896-0.93461 4.1941 0.03376 0.76179 0.12793 1.0002 0.6177 1.5639 0.66461 0.76494 1.122 1.5869 1.1212 2.015 0 0.16296 0.16521 0.94435 0.3678 1.7364 0.35727 1.3968 0.38457 1.4432 0.90776 1.5414 0.29668 0.05564 0.57999 0.16687 0.6296 0.24715 0.09779 0.15822 1.2751 0.20373 1.4238 0.05501zm-1.8468-0.64984c0-0.13581 0.07408-0.24691 0.16462-0.24691 0.09054 0 0.1646 0.1111 0.1646 0.24691 0 0.13581-0.07406 0.24694-0.1646 0.24694-0.09054 0-0.16462-0.11112-0.16462-0.24694zm-9.7744-14.279c0.34115-0.15542 0.46278-0.15764 0.51223-0.0093 0.07239 0.21717 2.4725-0.99354 2.7721-1.3984 0.09731-0.1315 0.26842-0.58105 0.38021-0.99901 0.11179-0.41794 0.30758-0.87522 0.43513-1.0162 0.12753-0.14092 0.25276-0.50586 0.27826-0.81097 0.04209-0.50318-0.04334-0.62349-0.91988-1.2952-0.85696-0.65672-0.98409-0.70861-1.124-0.45871-0.08673 0.15497-0.4476 0.49178-0.80193 0.74845-0.51451 0.37269-0.59992 0.50345-0.42418 0.64929 0.12102 0.10044 0.35393 0.47953 0.51758 0.84241 0.28742 0.63741 0.28731 0.67109-0.0034 0.99248-0.1656 0.18296-0.70681 0.45064-1.2027 0.59478l-0.90165 0.26212-0.50977-0.57078c-0.28041-0.31396-0.71353-0.69461-0.9625-0.8459-0.68633-0.41706-0.59658-0.94244 0.27435-1.6064 0.39989-0.30483 0.84968-0.75991 0.99957-1.0112 0.14986-0.25135 0.45416-0.65302 0.67617-0.89257 0.22201-0.23958 0.44468-0.62653 0.4948-0.85995 0.15587-0.72567 0.44119-1.1729 1.2743-1.9973 0.47432-0.46937 1.0165-0.83873 1.3207-0.89974 1.1628-0.23326 1.2207-0.27662 0.68064-0.50953-1.1858-0.51147-3.8889-0.072787-5.4181 0.87924-0.99523 0.61957-1.3196 1.0257-1.3442 1.6828-0.04085 1.0927-0.78891 3.26-1.35 3.9113-0.67718 0.78602-0.66844 1.1725 0.03921 1.7371 0.64188 0.51218 1.5707 1.7847 1.5707 2.152 0 0.32753 1.11 0.90837 1.7619 0.92199 0.28998 0.0061 0.72858-0.0807 0.97462-0.1928zm0.88506-3.1712c0-0.04551-0.29631-0.35044-0.65847-0.67762-0.36216-0.32718-0.65847-0.71387-0.65847-0.85929 0-0.2027-0.05808-0.1815-0.24884 0.09088-0.22953 0.32769-0.21675 0.38997 0.1646 0.80145 0.22741 0.24538 0.41349 0.5094 0.41349 0.58674 0 0.07731 0.22222 0.14057 0.49384 0.14057s0.49384-0.03723 0.49384-0.08273z" style="fill:#00aad4;stroke-width:.16462"/>
 </g>
</svg>
