<svg width="38" height="40" xmlns="http://www.w3.org/2000/svg" viewBox="0 0 10.165 10.716"><title>firis resist lightning</title><g fill="#212121" class="nc-icon-wrapper"><g id="1677462931224-8840141_layer1" transform="translate(-51.134 -69.485)"><path d="M51.146 80.2c-.104 0 .49-.839 1.318-1.864l1.506-1.865-.833-.86c-.459-.473-.831-.973-.828-1.112.003-.138 1.14-1.085 2.53-2.104a201.387 201.387 0 0 1 3.103-2.246l.579-.393-.291.393a215.7 215.7 0 0 1-1.654 2.15c-.75.965-1.362 1.853-1.362 1.973 0 .12.438.667.975 1.216.536.55.923 1.04.86 1.089-.064.05-1.375.885-2.915 1.857-1.54.971-2.884 1.766-2.988 1.766zm5.734-.529c-.077 0 .035-.268.249-.595.214-.327.77-1.272 1.237-2.1l.848-1.504-1.072-.612c-.59-.337-1.073-.712-1.074-.834-.001-.122.409-.956.91-1.852.503-.897 1.09-1.869 1.304-2.16l.39-.53-.358 1.718c-.196.945-.336 1.732-.31 1.75.025.019.552.349 1.17.734.619.385 1.125.77 1.125.856 0 .085-.963 1.274-2.14 2.642-1.176 1.368-2.202 2.487-2.279 2.487z" id="1677462931224-8840141_path19563" fill="#212121" stroke-width=".265"></path></g></g></svg>