<svg width="109" height="71" xmlns="http://www.w3.org/2000/svg" viewBox="0 0 29.097 18.998"><title>firis category gunpowder</title><g fill="#212121" class="nc-icon-wrapper"><g id="1677462931221-9702239_layer1" transform="translate(-8.915 -64.57)"><path d="M13.522 83.26a78.765 78.765 0 0 1-3.415-.66l-1.192-.278.068-.604c.132-1.185.608-3.004.987-3.774.25-.507.413-1.187.462-1.934.047-.693.21-1.415.41-1.81.183-.363.502-1.162.707-1.776.206-.613.436-1.154.51-1.2.075-.046.38.043.676.198 1.036.542 6.968.434 7.66-.138a.65.65 0 0 0 .206-.438c0-.148.227-.417.505-.598.277-.18.592-.485.699-.676.107-.191.627-.697 1.156-1.125 1.284-1.039 1.468-.994 3.223.774.427.431 1.126 1.005 1.552 1.275.427.27.817.6.867.73.07.18.19.2.5.083.224-.085 1.172-.155 2.105-.155h1.697l.68-.737c.483-.525.679-.88.679-1.235 0-.274.06-.497.135-.497.246 0 1.536 1.71 2.038 2.702.336.663.567 1.478.726 2.552.128.867.38 2.466.56 3.553.345 2.075.393 5.29.08 5.409-.09.034-.794-.04-1.564-.164-2.38-.386-4.585-.321-6.667.198-1.952.485-5.776.779-6.792.52-.529-.134-4.857-.064-6.295.102-.429.05-1.678-.076-2.963-.298zm14.898-.928c2.176-.518 2.472-.548 5.309-.547 2.996.003 3.004.003 3.004-.364 0-.202.109-.475.241-.608.2-.2.215-.476.09-1.569-.082-.73-.253-1.533-.378-1.786-.126-.253-.363-.97-.527-1.595-.358-1.36-.82-2.218-1.765-3.281l-.707-.795-.74.173c-.408.096-1.355.175-2.105.177l-1.363.004.221.423c.122.232.396.51.61.617.214.107.556.512.76.9l.373.704-.4.905c-.22.498-.401 1.04-.401 1.205 0 .19-.24.408-.66.597-.362.164-.736.39-.831.505-.116.14-.547.192-1.316.161-.63-.025-1.144.014-1.144.087 0 .221.39.391.782.34.482-.061.48.272-.003.456-.549.209-5.711.114-6.252-.115-.273-.116-.453-.128-.453-.031 0 .267-.88.18-1.53-.151-.335-.171-.61-.245-.61-.165 0 .222-.353.18-1.53-.184-1.257-.388-1.942-.864-1.658-1.152.134-.137.272-.141.493-.015.17.097.715.28 1.213.407a24.61 24.61 0 0 1 1.235.342c.181.062.125-.006-.124-.15-.472-.275-.635-.688-.205-.523.414.16.277-.298-.237-.79-.478-.458-.483-.459-.39-.073.09.376.081.38-.21.104-.275-.26-.28-.313-.048-.544.211-.211.33-.22.693-.055.241.11.439.26.439.333 0 .359 3.015 1.298 3.288 1.024.045-.044-.103-.225-.328-.4-.383-.3-.39-.335-.12-.543.158-.122.287-.339.287-.482 0-.143.074-.305.163-.36.238-.148-.193-.556-.472-.449-.145.056-.2.003-.152-.144a.362.362 0 0 1 .31-.235c.129-.003.24-.039.247-.082.007-.044.104-.249.214-.455.19-.353.176-.37-.219-.27-.345.086-.42.046-.42-.223 0-.199.142-.365.361-.422.358-.094.359-.098.044-.446-.298-.328-.3-.364-.038-.556.2-.146.23-.255.103-.382-.262-.261-.02-.534.486-.549.244-.007.35-.05.238-.096-.114-.045-.206-.225-.206-.398 0-.343.172-.407.421-.158.1.1.249.1.403.003.209-.132.202-.156-.042-.158-.159-.003-.288-.077-.288-.167 0-.281-.261-.183-.765.288-.47.438-1.363 1.183-2.184 1.82-.219.17-.425.484-.457.698-.033.214-.134.436-.226.492-.091.057-.204.31-.25.565-.133.73-.566 1.467-.754 1.28-.107-.107.088-.661.571-1.624l.734-1.461-2.656.044c-1.46.024-2.868.045-3.126.046-.26.003-.576-.085-.704-.191s-.25-.164-.27-.129c-.02.036-.279.769-.573 1.629-.416 1.214-.537 1.84-.539 2.798-.003 1.39-.432 2.607-.968 2.747-.24.063-.346.29-.432.932-.063.466-.18.97-.258 1.12-.122.233.033.312 1.048.537 2.39.531 4.226.734 7.61.841 1.902.06 3.495.148 3.54.195.045.046 1.008.048 2.14.003 1.545-.06 2.632-.218 4.363-.63zm5.35-1.718c0-.242.12-.466.288-.534.206-.085.1-.142-.37-.201-.464-.058-.648-.156-.621-.33.064-.414-.686-.659-1.201-.392-.614.319-.841.285-.956-.143-.153-.573-.146-.586.59-1.05l.693-.438.887.464c.488.256.965.634 1.06.841.094.207.456.566.806.797 1.047.693.696 1.403-.693 1.403-.407 0-.483-.066-.483-.417zm-7.607-3.764c-.22-.237-.46-.197-.46.075 0 .085.152.155.336.155.279 0 .3-.039.124-.23zm1.434-1.087c.055-.09.023-.165-.073-.165s-.174.075-.174.165c0 .09.032.165.072.165.04 0 .119-.074.175-.165zm8.26-3.333c-.114-.915-.245-1.23-.7-1.686l-.377-.376-.371.395-.371.395.502.533c.277.293.674.737.884.985.21.25.412.453.45.453.039 0 .03-.315-.017-.7zm-13.53.207c.058-.093-.008-.12-.154-.064-.285.109-.338.227-.1.227.084 0 .2-.073.255-.163zm12.924-7.729c0-.186.074-.339.165-.339.09 0 .164.107.164.237s-.074.283-.164.34c-.09.055-.165-.052-.165-.238z" id="1677462931221-9702239_path4226" display="inline" fill="#212121" stroke-width=".165"></path></g></g></svg>