<svg width="110" height="79" xmlns="http://www.w3.org/2000/svg" viewBox="0 0 29.122 21.059"><title>firis category weapon mat</title><g fill="#212121" class="nc-icon-wrapper"><g id="1677462931222-1142611_layer1" transform="translate(-10.406 -59.4)"><path d="M21.72 80.313c-.15-.089-1.965-.234-4.032-.323-4.501-.192-6.804-.653-6.804-1.361 0-.093-.126-.26-.281-.374-.242-.177-.253-.27-.075-.66.258-.565.53-2.356.638-4.191l.082-1.4.683-.486a92.328 92.328 0 0 1 1.628-1.125c.521-.35.947-.7.947-.777 0-.077.76-.745 1.687-1.486.928-.74 1.838-1.468 2.021-1.617.184-.148.813-.599 1.4-1.001a31.39 31.39 0 0 0 2.053-1.565c1.274-1.075 1.884-1.497 2.39-1.65.225-.068.594-.289.82-.49.48-.428 2.077-1.408 2.293-1.408.082 0 .173-.055.204-.123.138-.311 1.254-.998 1.394-.858.084.083.631.185 1.217.227.586.04 1.732.121 2.547.179 1.77.125 3.315.468 4.465.991l.844.384.29 1.205c.159.663.353 1.286.43 1.385.22.282.967 2.67.967 3.094 0 .231-.212.557-.535.824-1.405 1.159-2.487 2.151-4.327 3.969-1.1 1.086-2.463 2.308-3.03 2.716a95.969 95.969 0 0 0-1.992 1.481 93.028 93.028 0 0 1-1.996 1.482c-.567.407-1.56 1.268-2.206 1.913l-1.176 1.172-1.135.017c-.624.01-1.259-.055-1.41-.144zm1.181-1.467c0-.266-.084-.536-.187-.6-.129-.08-.157-.542-.091-1.476.09-1.276.07-1.39-.307-1.828-.22-.257-.402-.553-.402-.657 0-.196-1.655-.407-2.897-.37-.37.012-1.074-.092-1.564-.23-.489-.14-1.445-.305-2.124-.37-.679-.064-1.584-.207-2.01-.317-.427-.11-.735-.135-.686-.055.05.08-.028.328-.174.55-.145.221-.308.755-.363 1.186-.054.43-.196.94-.316 1.131-.119.192-.223.563-.23.824-.008.26-.031.692-.052.958-.034.442.028.504.703.706 1.35.404 3.354.697 4.939.721.86.014 2.12.077 2.798.142.68.064 1.624.128 2.1.143.852.026.863.02.863-.458zm-.05-5.951c.75-.358 1.166-.676 1.398-1.07.182-.309.434-.561.56-.561.126 0 .36-.106.519-.237l1.524-1.23c1.384-1.112 3.016-2.619 5.992-5.53 1.112-1.088 2.294-2.185 2.627-2.44.333-.254.57-.52.525-.593-.104-.169-1.652-.466-3.135-.603a31.623 31.623 0 0 1-2.688-.415c-1.225-.246-1.577-.267-1.742-.104-.392.388-2.249 1.687-2.938 2.056-.38.203-1.238.87-1.908 1.481-.67.612-1.339 1.18-1.486 1.262-.147.082-.616.438-1.041.79-.426.353-1.315.995-1.976 1.427-.66.433-1.307.916-1.436 1.073-.13.157-.463.404-.741.547-.278.144-.84.579-1.247.966a38.808 38.808 0 0 1-1.801 1.572l-1.061.866.484.199c.267.109 1.115.249 1.884.311.77.063 1.77.19 2.223.281.452.092 1.527.222 2.387.289.86.067 1.664.133 1.787.147.123.014.704-.204 1.29-.484z" id="1677462931222-1142611_path3121" display="inline" fill="#212121" stroke-width=".165"></path></g></g></svg>