<svg width="97" height="110" xmlns="http://www.w3.org/2000/svg" viewBox="0 0 25.811 29.221"><title>firis category sweets</title><g fill="#212121" class="nc-icon-wrapper"><g id="1677462931222-6357775_layer1" transform="translate(-18.26 -44.749)"><path d="M29.935 73.895c-1.462-.154-3.143-.486-3.375-.667-.09-.07-.59-.222-1.11-.337-.521-.115-.947-.276-.947-.358 0-.081-.075-.101-.167-.045-.205.127-1.973-.69-1.973-.911 0-.088-.177-.16-.393-.16-.266 0-.824-.413-1.726-1.277l-1.333-1.277.013-2.468c.01-1.926-.053-2.685-.284-3.456-.415-1.386-.526-5.309-.155-5.452.146-.056.256-.293.256-.553 0-.58.395-1.706.799-2.278.174-.247.358-.877.416-1.43.39-3.687.387-3.677 1.817-5.187.473-.5.918-.82 1.139-.82.633 0 1.82.97 2.014 1.645.013.046.16.406.327.801l.302.72.832-.1a14.95 14.95 0 0 1 1.326-.104c.656-.003 1.234-.965 1.234-2.054 0-.415.102-.993.225-1.284.42-.99 2.003-2.094 3-2.094.525 0 .73.106 1.174.605.901 1.013 1.213 1.846 1.249 3.333l.032 1.326.604.003c.697.003 2.526.443 2.96.714.253.158.419.048 1.137-.757.819-.92.861-.943 1.69-.94.56.003.97.102 1.196.289.467.386.999 1.2 1.047 1.601.09.744.02 1.929-.126 2.11-.36.451-.375.928-.045 1.382.505.696.805 2.61.93 5.931.085 2.235.064 3.065-.083 3.241-.134.162-.207 1.182-.227 3.207l-.03 2.97-.658.664c-.588.595-2.938 1.937-3.91 2.233a12 12 0 0 0-1.053.42c-1.42.636-5.726 1.068-8.124.815zm4.033-3.795c1.722-.294 2.99-.65 3.705-1.04a9.322 9.322 0 0 1 1.398-.609c.362-.112.77-.29.906-.397.136-.106.604-.37 1.04-.587.792-.393 1.288-.92 1.496-1.59.06-.196.218-.397.35-.448.246-.094.344-.597.117-.597-.068 0-.343.233-.612.518-.268.284-.736.62-1.04.748-.304.126-.899.47-1.322.765-1.458 1.011-4.055 1.995-6.45 2.442-1.138.213-5.664.04-6.151-.235-.193-.11-.462-.215-.598-.235l-.728-.107c-.265-.04-.57-.19-.677-.337-.107-.147-.372-.268-.588-.27-.543-.005-2.47-.996-2.686-1.381-.215-.383-.422-.603-1.561-1.66l-.886-.824.114.622c.126.684 1.027 1.631 2.381 2.503.42.27.86.622.978.782.118.16.316.29.44.29s.445.186.714.412c.269.227.627.414.795.416.168.002.638.162 1.046.356a6.45 6.45 0 0 0 1.564.467c1.18.164 5.285.162 6.255-.004zm-4.192-2.309c.37-.293.673-.699.736-.988.06-.269.174-.49.256-.49.082 0 .193-.177.248-.395.055-.218.223-.437.373-.487.151-.05.608-.284 1.015-.52.666-.385.853-.418 1.843-.327.832.077 1.223.04 1.597-.154 1-.517 2.112-.158 2.633.85.16.309.3.356.911.308.398-.031.891-.175 1.097-.32.265-.185.435-.212.58-.091.234.194.558-.27.558-.799 0-.312.2-.557 1.01-1.238.389-.327.442-.505.506-1.687l.071-1.323-.5.458c-.276.252-.645.458-.82.458-.174 0-1.083.16-2.02.357-2.622.55-2.51.163.312-1.075.547-.24.947-.52.947-.663 0-.135.222-.378.494-.538.272-.16.494-.378.494-.483 0-.243-1.489-.89-2.047-.89-.233 0-.423-.074-.423-.165 0-.09.13-.165.289-.166.208 0 .156-.088-.191-.316l-.48-.316.644-.107c.86-.144 1.55-.415 1.55-.612 0-.088.147-.348.329-.578.18-.23.329-.552.329-.714 0-.244-.08-.273-.453-.168-.249.07-.892.078-1.428.018-.861-.097-1.039-.183-1.51-.728-.534-.617-.535-.618-.733-.248-.129.24-.164.736-.101 1.412.054.584.031 1.042-.052 1.042-.33 0-.662-.769-.662-1.53 0-.897.2-1.367.776-1.82.272-.213.379-.443.344-.737-.042-.357-.183-.463-.873-.656a28.753 28.753 0 0 1-1.428-.442c-.512-.18-.592-.176-.517.017.241.63-.537 1.729-1.467 2.07-.439.16-.443.176-.214.725.13.31.197.562.151.562-.046 0-.024.092.048.205.072.114.136.551.141.973.006.421.1.875.21 1.008.111.133.292.622.402 1.086.147.62.277.843.49.843.455 0 .392.923-.08 1.171-.203.108-.407.243-.452.302-.14.183-1.41.503-1.996.503-1.062 0-1.943-.39-1.952-.865-.003-.068.267-.123.596-.123.484 0 .697-.114 1.111-.597.72-.839.996-1.592.344-.94-.19.191-.603.285-1.362.31-1.035.033-1.113.008-1.616-.51-.499-.514-.543-.528-.79-.255-.516.57-.168 1.992.487 1.992.27 0 .437.454.218.59-.26.16-1.248-.436-1.448-.876-.306-.672-.209-1.645.235-2.348.311-.494.411-.874.411-1.569 0-.504.115-1.138.254-1.407.377-.73 1.196-1.444 1.868-1.631.77-.214.837-.21 1.394.08.546.285.767.208.652-.228-.051-.198.058-.413.304-.596.292-.218.31-.261.073-.18-.625.213-2.599.427-3.005.325-.229-.058-.616-.38-.86-.717-.358-.495-.481-.57-.644-.397-.293.315-.245 1.666.08 2.215.153.26.223.528.156.596-.16.16-.613-.13-.837-.535a7.125 7.125 0 0 0-.61-.837c-.238-.286-.46-.592-.493-.682-.034-.092-.42-.127-.9-.08-.786.078-.837.11-.807.517.047.65.063.681.328.681.134 0 .346.241.47.535.125.295.386.676.58.849.454.405.447.94-.02 1.369-.27.25-.68.367-1.522.437l-1.646.14c-.746.068-.626-.382.214-.806 1.094-.552 1.185-.672 1.185-1.556 0-.442-.03-.803-.066-.803-.036 0-.488.222-1.004.494-1.302.684-1.957.659-2.742-.108-.507-.495-.617-.546-.62-.288-.002.172-.048.54-.104.819-.08.395-.01.614.32 1.006.231.275.383.538.337.584-.046.046.142.128.416.183.613.123.647.365.072.51-.315.078-.57-.003-.97-.307l-.542-.413-.221.53c-.275.656-.236 1.883.083 2.647.273.654 1.797 2.245 2.15 2.245.127 0 .452.185.721.411.269.226.563.412.653.412.09 0 .208.11.26.247.059.153.31.246.662.246.692 0 1.118.149.996.347-.135.218-1.42.179-1.93-.058-.244-.114-.444-.305-.445-.425-.003-.153-.138-.189-.458-.119-.319.07-.703-.028-1.276-.328-.45-.235-1.004-.489-1.23-.563a13.667 13.667 0 0 1-.7-.253c-.251-.102-.288-.013-.288.696 0 .69.085.91.563 1.458.503.576.598.623.903.439a1.68 1.68 0 0 1 .734-.206c.502 0 .672.217.976 1.25.285.964.902 1.713 1.41 1.713.194 0 .352-.064.352-.144 0-.183.908-.37 1.218-.25.129.049.28.269.334.489.056.22.173.4.262.4.09 0 .162.08.162.177 0 .098.266.58.592 1.07l.592.892h.907c.76 0 1.008-.08 1.536-.498z" id="1677462931222-6357775_path3173" display="inline" fill="#212121" stroke-width=".165"></path></g></g></svg>