<svg width="79" height="108" xmlns="http://www.w3.org/2000/svg" viewBox="0 0 20.911 28.787"><title>firis race humanoid</title><g fill="#212121" class="nc-icon-wrapper"><g id="1677462931223-5940583_layer1" transform="translate(-26.627 -62.594)"><path d="M36.42 91.291c-.613-.135-2.044-.744-2.196-.934-.084-.105-.286-1.128-.45-2.275l-.297-2.085.443-.669c.243-.367.442-.74.442-.83 0-.088-.328-.353-.73-.588l-.73-.428.336-.568c.184-.312.4-.608.482-.659.082-.05.148-.235.148-.41 0-.212.114-.32.335-.32.574 0 1.44-.448 1.552-.804.164-.514-.348-1.42-1.072-1.899-.354-.233-.712-.425-.797-.425-.085 0-.205-.546-.268-1.213l-.113-1.213-1.464-1.133c-.804-.623-1.463-1.173-1.464-1.223 0-.05.35-.523.781-1.052 1.761-2.166 4.99-3.285 8.296-2.876 4.062.503 6.618 2.797 7.626 6.84.35 1.41.341 5.302-.017 6.775-.954 3.923-3.624 7.05-6.727 7.877-.769.204-3.375.276-4.116.112zm4.692-3.432v-.745l-2.758.045-2.757.045-.054.467c-.106.932-.106.932 2.847.932h2.722zm3.521-6.492c.537-.204 1.13-1.343.99-1.901-.123-.491-.768-.984-1.493-1.14-1.755-.38-4.018 1.762-2.895 2.74.158.138.4.292.535.342.42.154 2.425.126 2.863-.041zM39.39 75.61a12.63 12.63 0 0 0-.635-1.056l-.38-.558-.606.938c-.334.515-.607.995-.607 1.067 0 .071.267.57.595 1.109l.594.98.648-.992c.632-.968.642-1.004.391-1.488zm-6.88 13.384c-2.254-2.227-3.475-5.424-3.48-9.116-.002-1.869.433-4.245.948-5.177l.22-.397c.017-.033.665.398 1.44.958l1.408 1.017v1.938l-.57.107a2.352 2.352 0 0 0-.988.493c-.965.895-.137 2.707 1.237 2.707.465 0 .399.389-.234 1.377l-.555.868.802.45c.441.249.802.491.802.54 0 .049-.153.303-.34.566-.334.47-.335.503-.069 2.2.366 2.33.332 2.41-.621 1.47zm-4.677-12.443c-1.337-1.46-1.423-4.07-.238-7.138.499-1.289 1.887-3.528 2.262-3.647.124-.04.208.417.255 1.388.06 1.247.146 1.589.615 2.467.3.56.684 1.146.855 1.3.301.273.289.305-.417 1.06-.858.916-1.694 2.485-2.061 3.864-.3 1.128-.688 1.343-1.271.706zm-1.205-6.345c.002-.158.18-1.078.4-2.043.641-2.83 2.192-5.57 3.15-5.57.476 0 .509.314.168 1.594-.161.605-.398 1.004-.812 1.368-.825.724-1.863 2.437-2.294 3.785-.352 1.102-.615 1.474-.612.866z" id="1677462931223-5940583_path2551" display="inline" fill="#212121" stroke-width=".165"></path></g></g></svg>