<svg width="108" height="105" xmlns="http://www.w3.org/2000/svg" viewBox="0 0 28.728 28.015"><title>firis category plant</title><g fill="#212121" class="nc-icon-wrapper"><g id="1677462931221-9969647_layer1" transform="translate(-16.202 -56.278)"><path d="M20.483 84.133a15.423 15.423 0 0 0-1.761-.142c-.557-.009-.992-.099-1.07-.22-.073-.114-.354-.33-.626-.48-.753-.419-.902-1.06-.792-3.43.137-2.954.568-3.792 2.958-5.755.549-.45 2.056-1.007 3.203-1.182 1.305-.2 3.024-.039 3.739.35.151.083.92.456 1.706.83.787.373 1.454.729 1.482.79.028.06.347.258.709.44.362.18.756.42.876.534.644.61 1.556-.205 2.74-2.453.763-1.446.767-1.459.862-3.482l.096-2.03-.476-.181c-.262-.1-1.154-.219-1.983-.265-.828-.046-1.643-.157-1.81-.246-.168-.09-.731-.248-1.252-.353-.52-.105-.946-.264-.946-.353 0-.09-.063-.123-.14-.076-.258.16-1.416-.559-2.12-1.315-.395-.424-.78-1.045-.892-1.437-.26-.916-.251-5.204.013-6.431l.208-.968 1.095.103c2.36.222 2.988.314 2.988.44 0 .07.313.182.694.246.543.092.916.33 1.714 1.096.56.538 1.116 1.214 1.234 1.502.118.288.382.772.587 1.075.204.304.42.804.477 1.112.058.307.167.56.244.56.076 0 .187.258.246.574.105.558.45.658.383.11-.058-.475.384-1.861.624-1.953.126-.049.348-.32.493-.604.568-1.113 1.835-2.149 3.14-2.566.385-.123.7-.274.7-.336 0-.21 1.27-.494 2.217-.494.768 0 1.037-.077 1.434-.411.545-.458.989-.524 1.267-.19.258.311.25.8-.039 2.412-.516 2.886-.754 3.965-.99 4.485a8.719 8.719 0 0 0-.356.933c-.17.588-1.219 1.477-1.97 1.67a7.571 7.571 0 0 0-.987.32c-.181.084-.748.258-1.26.386-1.368.342-1.882.976-2.022 2.49-.132 1.427-.403 3.023-.589 3.462-.076.18-.261.718-.41 1.193-.15.476-.34.865-.424.865-.083 0-.151.108-.151.24 0 .368-1.954 2.375-2.664 2.738-.346.176-.629.384-.629.46 0 .078-.42.391-.934.697-.514.306-1.452 1.053-2.084 1.66-.633.608-1.224 1.06-1.314 1.004-.09-.056-.112-.019-.05.081.12.196-.36.857-.623.857-.088 0-.312.141-.499.314-.187.173-1.023.58-1.859.906-1.601.622-2.53.71-4.407.418zm3.95-1.342a9.83 9.83 0 0 1 1.03-.466c.294-.11.535-.256.535-.326 0-.069.26-.248.576-.399.392-.186.58-.39.588-.636.007-.225.315-.613.81-1.021.44-.362.884-.894.986-1.183.102-.288.274-.56.383-.604.108-.044.066-.086-.092-.093-.398-.018-.365-.342.035-.342.336 0 .665-.445.665-.898 0-.143-.26-.384-.577-.535-.316-.15-.576-.325-.576-.388 0-.1-.922-.577-3.045-1.574-.527-.248-1.034-.308-2.54-.304-1.327.004-1.9.065-1.948.206-.037.11-.198.2-.36.2-.575 0-2.962 1.953-2.969 2.428-.002.114-.074.206-.16.206-.165 0-.666 1.495-.666 1.986 0 .154.148.319.329.366.487.128.566.54.178.928-.254.254-.342.551-.342 1.159 0 .943.237 1.158 1.273 1.158.35 0 .707.07.793.154.405.4 4.347.382 5.095-.022zm-6.501-3.412c0-.805 2.219-2.314 3.747-2.548 1.584-.242 2.357-.256 2.949-.055.346.117 1.13.234 1.742.26.612.026 1.316.153 1.564.283.248.13.543.235.656.236.114 0 .206.075.206.164 0 .106-.86.127-2.428.06-2.42-.105-5.201.128-5.402.453-.05.08-.216.147-.37.147-.152 0-.759.296-1.348.659-1.222.751-1.316.776-1.316.341z" id="1677462931221-9969647_path4371" display="inline" fill="#212121" stroke-width=".165"></path></g></g></svg>