<svg width="110" height="74" xmlns="http://www.w3.org/2000/svg" viewBox="0 0 29.131 19.724"><title>firis category paper</title><g fill="#212121" class="nc-icon-wrapper"><g id="1677462931221-8052109_layer1" transform="translate(-15.675 -69.073)"><path d="M32.383 88.709c-.879-.111-1.875-.557-1.98-.887-.109-.346-.353-.4-.731-.16-.53.335-.915-.568-.417-.981.724-.601-.194-.507-1.018.105-.288.214-.652.389-.807.389-.267 0-1.346-.713-1.568-1.035a.386.386 0 0 0-.247-.156c-.407-.03-3.287-1.498-3.6-1.836-.327-.353-.34-.433-.136-.822.283-.541.147-.543-.625-.008l-.611.423-1.3-.737c-1.485-.843-2.497-1.164-3.189-1.012-.647.142-.638-.22.02-.751 2.036-1.649 2.766-2.301 4.71-4.213 1.209-1.19 2.198-2.271 2.198-2.403 0-.236.498-.784.712-.784.061 0 .11.105.11.233s.094.264.207.302c.282.095.671-.848.457-1.106-.113-.136-.038-.367.245-.75.225-.305.409-.686.409-.848 0-.161.193-.42.428-.574.478-.313 1.218-1.395 1.218-1.781 0-.427.395-.272.766.301.385.594 1.764 1.58 2.936 2.099.404.178 1.236.365 1.85.415.613.05 1.782.301 2.597.557.814.256 1.778.514 2.14.573.362.06.983.216 1.38.349.397.132.75.211.786.176.036-.036-.013-.27-.108-.521-.096-.251-.129-.599-.074-.772.056-.173.026-.406-.066-.516-.116-.14-.076-.322.135-.601.244-.324.348-.363.54-.203.132.108.824.245 1.539.303 1.527.123 2.022.34 2.882 1.267.63.677.795 1.146.476 1.344-.09.055-.165.235-.165.399 0 .163-.147.484-.327.713-.18.229-.74 1.436-1.244 2.683-1.081 2.678-1.134 2.783-1.751 3.53a76.79 76.79 0 0 0-1.18 1.482c-.496.639-.99 1.05-1.68 1.399-.672.339-1.289.845-1.966 1.613-1.084 1.227-3.019 2.928-3.287 2.89a57.362 57.362 0 0 0-.664-.088zm.818-.752c1.224-1.15 2.227-2.171 2.227-2.267 0-.33 1.021-1.207 1.893-1.624 1.577-.755 2.881-2.38 2.881-3.588 0-.909-.312-2.354-.597-2.764-.144-.207-.226-.786-.226-1.588 0-1.454.117-1.344-1.921-1.8-.74-.165-1.64-.451-2-.635-.36-.183-.903-.376-1.206-.427-.304-.052-1.108-.279-1.787-.505a47.073 47.073 0 0 0-2.183-.664c-.522-.14-1.162-.434-1.423-.654-.765-.643-1.224-.531-2.224.544-.79.848-.86.983-.699 1.336.155.34.119.446-.267.778-.246.211-.448.517-.45.68-.005.572-.26.762-.886.66-.505-.082-.636-.035-.88.317-.686.981-1.923 2.307-2.66 2.849-1.15.847-3.105 2.448-3.225 2.642-.056.091.015.166.158.166.143 0 .9.299 1.685.664l1.424.665 1.154-.585c1.528-.773 1.728-.62.924.708-.182.3-.287.617-.233.704.054.087 1 .6 2.102 1.14 1.102.54 2.243 1.136 2.535 1.325l.531.343.786-.535c.432-.295.993-.676 1.246-.847.519-.35.993-.329 1.066.05.027.139-.175.582-.448.985-.586.865-.607.98-.182.98.176 0 .427.154.559.342.131.187.562.442.956.565.916.286 1.103.291 1.37.04zm8.475-9.116c.185-.42.337-.833.337-.92 0-.244.997-2.468 1.313-2.928.155-.226.372-.67.482-.988.197-.57.19-.584-.592-1.288l-.792-.713-1.317.11c-.724.06-1.342.135-1.373.165-.031.031.128.895.355 1.92.685 3.106.959 4.475.99 4.95.041.65.212.562.597-.308z" id="1677462931221-8052109_path4252" display="inline" fill="#212121" stroke-width=".165"></path></g></g></svg>