<svg width="40" height="41" xmlns="http://www.w3.org/2000/svg" viewBox="0 0 10.796 10.848"><title>firis resist ailment</title><g fill="#212121" class="nc-icon-wrapper"><g id="1677462931223-2359008_layer1" transform="translate(-37.534 -77.677)"><path d="M43.196 88.509c-1.003.058-1.831-.041-2.249-.269a24.09 24.09 0 0 1-1.382-.833c-.397-.26-1.037-1.117-1.423-1.906-.557-1.14-.676-1.698-.577-2.722.068-.708.361-1.748.652-2.31.29-.563.994-1.347 1.563-1.742.57-.396 1.517-.825 2.106-.953.702-.152 1.493-.125 2.296.08.674.17 1.634.622 2.133 1.002.5.381 1.123 1.146 1.386 1.7.264.554.533 1.57.6 2.26.095.982-.03 1.559-.577 2.678-.474.97-1.058 1.667-1.82 2.175-.847.565-1.508.77-2.708.84zm-1.786-2.475c.255-.119.94-.216 1.521-.216.583 0 1.267.097 1.522.216.286.133.463.108.463-.067 0-.155-.461-.42-1.025-.589-.783-.235-1.25-.232-1.984.01-.528.174-.96.44-.96.59 0 .164.182.187.463.056zm-1.058-1.97c.109-.006.733-.291 1.387-.633l1.188-.621 1.25.633c.688.348 1.314.633 1.391.633.078 0 .142-.12.142-.269 0-.147-.417-.467-.926-.71-.51-.243-.926-.53-.926-.637 0-.107.416-.332.926-.5.509-.168.926-.416.926-.55a.244.244 0 0 0-.243-.244c-.134 0-.759.22-1.39.489-1.102.47-1.186.47-2.204.02-.582-.259-1.207-.479-1.389-.49-.182-.01-.33.09-.33.225 0 .134.416.382.925.55.51.168.926.393.926.5 0 .108-.416.394-.926.637-.509.243-.926.563-.926.71 0 .148.09.264.199.257z" id="1677462931223-2359008_path19615" fill="#212121" stroke-width=".265"></path></g></g></svg>