<svg width="87" height="79" xmlns="http://www.w3.org/2000/svg" viewBox="0 0 23.118 21.145"><title>firis accessory</title><g fill="#212121" class="nc-icon-wrapper"><g id="1677809791895-4140031_layer1" transform="translate(-5.492 11.284)"><path d="M15.722 9.458c-2.05-1.435-1.724-5.322.535-6.408.585-.282.864-.274 1.627.045 2.103.879 2.553 4.488.766 6.144-.794.737-2.055.83-2.928.22zm2.747-.751c.776-.776.9-1.076.899-2.183-.003-3.18-2.708-4.384-4.232-1.884-.65 1.067-.672 2.167-.067 3.375.443.883 1.383 1.58 2.143 1.588.197.002.762-.401 1.257-.896zm-2.338.086c-.858-.5-1.013-1.16-.573-2.449.29-.852.572-1.228.965-1.286.792-.117.883-.7.156-.991-.616-.247-.616-.248.088-.264 1.052-.025 1.52.23 1.95 1.06 1.165 2.254-.672 5.046-2.586 3.93zm-4.965-2.361c-.29-.291-.529-.827-.529-1.191 0-.8.856-1.72 1.6-1.72.641 0 1.84 1.12 1.84 1.72 0 .6-1.199 1.72-1.84 1.72-.298 0-.78-.238-1.07-.53zm9.57.107c-.881-.617-.718-2.186.286-2.745.654-.364.802-.364 1.455 0 1.004.56 1.168 2.128.287 2.745-.761.533-1.267.533-2.028 0zM8.112 4.459c-.689-.688-.706-1.381-.056-2.195.428-.534 1.99-.411 2.307.181.374.698.345 1.748-.056 2.07-.814.65-1.507.633-2.195-.056zm16.284.466c-.587-.21-1.059-.898-1.059-1.546 0-1.336 1.995-1.955 2.763-.857.59.843.511 1.412-.285 2.038-.733.577-.787.591-1.42.365zM5.976 1.526c-.8-1.22.28-2.466 1.687-1.946.804.298 1.049 1.44.451 2.1-.657.726-1.607.657-2.138-.154zm19.89.071c-.513-.783-.273-1.638.569-2.021 1.382-.63 2.59 1.13 1.514 2.207-.607.606-1.623.516-2.083-.186zM5.73-1.885c-.498-.76-.19-1.596.693-1.876C7.52-4.109 8.5-2.385 7.673-1.559c-.526.527-1.49.366-1.943-.326zm20.669.228c-.608-.608-.509-1.363.246-1.858.612-.401.71-.401 1.322 0 .755.495.854 1.25.246 1.858-.53.53-1.283.53-1.814 0zM7.25-4.47c-.175-.175-.318-.568-.318-.873 0-1.208 1.273-1.597 1.97-.603.512.732.512.861-.004 1.378-.496.495-1.209.537-1.648.098zm17.991 0c-.408-.408-.408-1.338 0-1.746.492-.493 1.199-.377 1.652.27.513.732.513.861-.004 1.378-.495.495-1.208.537-1.648.098zM9.102-6.85c-.609-.61-.184-1.8.643-1.8.372 0 1.157.719 1.157 1.059 0 .34-.785 1.058-1.157 1.058-.179 0-.468-.143-.642-.317zm14.51-.067c-.7-.844.333-2.171 1.158-1.486.498.413.544 1.11.102 1.553-.424.424-.872.4-1.26-.067zM11.484-8.438c-.794-.794.042-1.946.975-1.343.463.299.427 1.145-.062 1.458-.419.267-.547.251-.913-.115zm10.012-.067c-.508-.61-.226-1.335.518-1.335.745 0 1.026.724.519 1.335-.402.484-.635.484-1.037 0zM13.8-9.854c-.28-.338-.264-.486.1-.85.41-.41.47-.41.88 0 .364.364.382.512.1.85-.428.516-.651.516-1.08 0zm5.301.012c-.292-.353-.281-.49.07-.841.568-.568 1.316-.253 1.207.508-.103.725-.8.907-1.277.333zm-2.641-.26c-.18-.216-.258-.573-.173-.793.199-.519 1.2-.519 1.399 0 .152.396-.314 1.187-.7 1.187-.11 0-.346-.177-.526-.393z" id="1677809791895-4140031_path1937" fill="#212121" stroke-width=".265"></path></g></g></svg>