<svg width="96" height="112" xmlns="http://www.w3.org/2000/svg" viewBox="0 0 25.496 29.777"><title>firis category poison mat</title><g fill="#212121" class="nc-icon-wrapper"><g id="1677462931222-197140_layer1" transform="translate(-15.386 -57.723)"><path d="M22.061 86.833c-.633-.584-.794-.656-1.272-.567-.59.109-1.924-.279-2.143-.622-.205-.322-.151-1.568.073-1.711.114-.072.554-.255.979-.406.425-.151 1.017-.46 1.317-.686.3-.226.833-.49 1.187-.585.354-.097.847-.37 1.096-.609.249-.238.899-.708 1.444-1.043l.991-.61-1.223-.388c-.672-.213-1.222-.439-1.222-.502 0-.062-.479-.317-1.063-.565-.584-.249-1.225-.593-1.424-.766-.2-.172-.5-.314-.666-.314-.168 0-.304-.074-.304-.164 0-.09-.131-.165-.291-.165-.16 0-.564-.185-.897-.412-.462-.313-.818-.411-1.498-.411-1.338 0-1.76-.393-1.76-1.639 0-.86.054-1.008.536-1.481a7.36 7.36 0 0 1 1.281-.947c.679-.383.741-.47.684-.954-.08-.687.623-1.844 1.21-1.992.41-.102 1.037-.03 1.592.185.247.095.262.043.126-.43-.085-.296-.226-.582-.313-.636-.48-.296-.524-4.681-.057-5.522.101-.181.344-.75.54-1.263.726-1.903 2.864-3.376 5.455-3.756.832-.123 2.416-.176 4.01-.135 2.256.057 2.77.121 3.587.444.524.207 1.08.502 1.235.656.154.154.558.485.898.735.34.25.617.558.617.685s.102.29.227.362c.246.143.926 1.538.926 1.9 0 .123.072.296.16.385.171.17.557 3.767.535 4.977-.007.39-.122.877-.256 1.081-.22.337-.214.39.068.566.32.2.802 1.176.818 1.655.005.147.357.49.782.762.703.448.778.558.825 1.205.062.861-.112 1.094-1.197 1.611a9.14 9.14 0 0 0-2.723 1.97c-.317.338-.891.921-1.276 1.296-.385.374-.7.725-.7.78 0 .054.315.224.7.378.384.154.738.343.786.42.047.078.359.08.691.004.432-.097.736-.068 1.062.101.609.316.707.5.71 1.336.002.62-.083.785-.697 1.356-.385.358-.756.651-.823.652-.068.003-.124.259-.124.573 0 .434-.14.71-.582 1.152-.32.32-.691.582-.826.582-.418 0-1.56-.816-1.716-1.225-.114-.3-.347-.432-1.007-.574-.874-.187-2.124-.79-2.124-1.025 0-.224-.563.05-.906.443-.281.322-1.313.907-4.552 2.582-.33.171-.939.678-1.351 1.125-.434.47-.893.814-1.09.814-.187 0-.666-.3-1.065-.668zm2.13-2.007a.936.936 0 0 1 .62-.288c.536 0 1.954-.951 2.383-1.598.356-.539.359-.573.09-1.248-.513-1.29-.477-1.3-3.406.981-1.06.826-1.553 1.087-1.842.976-.13-.05-.385.056-.565.236-.18.18-.623.446-.984.59-1.104.442-.665.854.56.527.795-.213 1.21-.117 1.364.314.057.16.22.428.363.594.249.288.28.278.715-.247.25-.302.566-.679.703-.837zm11.785-1.235c.007-.068.025-.376.041-.686.016-.31.117-.592.224-.627.442-.148 1.533-1.052 1.533-1.271 0-.18-.212-.229-.896-.205-.74.026-.955-.032-1.24-.338-.19-.204-.474-.37-.63-.37-.277 0-1.98-.576-2.12-.717-.04-.039.125-.281.364-.54.24-.258.536-.71.66-1.006.123-.295.308-.536.412-.536.103 0 .57-.364 1.037-.81 1.561-1.486 3.109-2.647 3.964-2.972.596-.226.533-.395-.318-.846-.745-.395-.825-.505-.968-1.337-.153-.886-.427-.999-1.036-.427-.32.301-.381.524-.381 1.396 0 .951-.038 1.061-.453 1.328-.25.16-.601.43-.782.6a3.43 3.43 0 0 1-.828.522c-.274.119-.878.61-1.342 1.092-1.006 1.048-2.026 1.723-2.193 1.453-.076-.123-.28-.045-.615.237-.276.232-.577.422-.669.422-.367 0-1.898-.913-1.965-1.173-.057-.217-.17-.249-.524-.147-.26.074-.578.058-.749-.037-.205-.115-.263-.113-.189.008.06.096.041.215-.04.265-.14.087-.7-.282-1.408-.926-.173-.158-.704-.523-1.18-.811-.475-.288-.951-.687-1.057-.885-.106-.199-.596-.528-1.087-.732-1.212-.502-1.353-.842-.971-2.336.104-.409.068-.443-.582-.553-.826-.14-.974.017-.978 1.03-.003.385-.08.7-.176.7-.096 0-.374.214-.618.475a4.217 4.217 0 0 1-.976.743c-.579.293-.86.964-.585 1.4.113.181.466.279 1.132.313.533.028 1.08.15 1.218.272.137.122.768.463 1.402.76.634.295 1.197.605 1.253.688.055.083.13.131.164.107.18-.123.805.182.805.393 0 .14.372.394.87.596.478.194 1.311.653 1.852 1.02.54.367 1.538.924 2.217 1.238.679.313 1.579.752 2 .974.42.222.92.404 1.11.404.19 0 .347.058.347.13 0 .07.13.136.288.146.855.049 1.924.23 2.005.34a.37.37 0 0 0 .258.128c.09.003.55.1 1.02.22.886.225 1.31.541 1.125.84-.059.094-.028.172.068.172s.18-.056.187-.124zm-5.404-7.171c.34-.155.617-.3.617-.321 0-.093-2.616-.028-2.712.067-.102.102 1.226.646 1.395.571l.7-.317zm.123-.924c0-.084-.115-.27-.257-.41-.142-.142-.211-.333-.155-.424.056-.091-.046-.166-.227-.166-.18 0-.371-.069-.423-.153-.054-.087.303-.153.83-.153.885 0 .921.017.85.392-.045.235.014.426.148.477.134.052.222-.028.222-.202 0-.158.158-.423.352-.589.26-.222.298-.334.147-.427-.157-.097-.159-.155-.01-.248.114-.07.155-.286.097-.514-.121-.485.119-.507.545-.05.176.19.455.319.618.287.335-.064 1.7-2.632 1.705-3.206.003-.194.098-.389.213-.433.116-.045.42-.516.674-1.047.255-.53.57-1.163.697-1.405.152-.287.24-1.012.25-2.076.017-1.581-.004-1.682-.643-3.045-.72-1.537-1.217-2.015-2.981-2.868-.852-.412-1.114-.452-3.392-.511-2.646-.07-3.916.085-5.089.62-.405.184-.8.336-.877.336-.218 0-1.434 1.332-1.844 2.02-.767 1.287-1.014 3.2-.677 5.258.113.686.331 1.18.807 1.825.651.88 1.57 1.761 1.837 1.761.291 0 .855 1.024.855 1.553 0 .414.116.636.47.898.26.191.54.348.624.348.084 0 .36.108.613.24l.462.238-.454.173c-.339.129-.44.266-.402.54.041.286.195.391.685.47l.633.103-.06-.635c-.057-.586-.03-.635.355-.633.572.004.745.165.772.719.028.575.312.78.814.589.28-.106.473-.062.755.173.442.37.461.376.461.175zm-2.93-3.996c-.328-.328-.229-.776.196-.883.274-.068.425-.252.495-.604.15-.75.393-.95 1.159-.95.542 0 .779.098 1.106.453.608.662.87 1.41.64 1.838-.246.46-.591.433-1.113-.089-.41-.41-.443-.417-.65-.133-.121.165-.22.36-.22.433 0 .21-1.394.154-1.613-.065zm-1.103-3.608c-.271-.086-.883-.111-1.358-.057-.52.06-.864.036-.864-.06 0-.088-.23-.24-.512-.339l-.51-.178.058-1.284c.057-1.257.074-1.3.745-1.978.91-.92 1.26-.9 2.31.129.945.924 1.366 1.898 1.366 3.157 0 .718-.036.793-.37.78a4.064 4.064 0 0 1-.865-.17zm4.751-.063c-.052-.136-.198-.247-.324-.247-.287 0-.29.051.085-1.301.611-2.206 1.803-3.473 3.269-3.473.958 0 1.52.654 1.52 1.77 0 .464-.067.886-.149.937-.082.05-.115.225-.072.387.114.435-.503.9-1.39 1.046-1.603.264-1.808.339-2.019.732-.236.442-.774.529-.92.15zm-7.888 5.287c-.06-.237-.169-.43-.242-.43-.074 0-.433-.297-.8-.66-.795-.787-.973-.82-.877-.164.04.272.157.495.26.496.103.003.514.298.914.659.4.36.756.627.79.593.035-.035.014-.257-.045-.494z" id="1677462931222-197140_path4133" display="inline" fill="#212121" stroke-width=".165"></path></g></g></svg>