<svg width="30" height="43" xmlns="http://www.w3.org/2000/svg" viewBox="0 0 8.055 11.377"><title>firis resist ice</title><g fill="#212121" class="nc-icon-wrapper"><g id="1677462931223-3405404_layer1" transform="translate(-79.62 -83.378)"><path d="M83.915 94.004l-.263.75-.306-.77-.306-.77.274-.275.275-.275.294.295.294.294zm-3.832-1.945c-.255.091-.463.069-.463-.05 0-.118.218-.412.484-.653.266-.24.623-.438.794-.438.17 0 .31.105.31.232 0 .128-.15.348-.331.488-.182.141-.54.33-.794.421zm3.492.173c-.065-.005-.565-.373-1.11-.82l-.993-.81v-3.316l1.006-.697c.554-.384 1.098-.698 1.209-.698.11 0 .61.312 1.11.693l.908.693v3.569l-1.006.698c-.554.383-1.06.693-1.124.688zm.129-.793c.136.004.523-.25.86-.567l.612-.575-.014-1.343-.015-1.343-.737-.58-.737-.582-.832.581-.83.58-.005 1.368L82 90.345l.728.543c.4.298.839.546.975.551zm-.133-.52c-.659-.6-.687-.578-1.04-.968v-2.22c.878-.564.023-.032 1.133-.753.307.292.816.706 1.154.96l.024 1.06-.036 1.038c-.566.478-.562.488-1.235.882zm4.059 1.304c-.113-.01-.466-.144-.785-.298s-.642-.444-.719-.643l-.14-.364h.491c.27 0 .686.298.924.662.238.363.341.653.229.643zm-6.804-5.009c-.21 0-.565-.26-.788-.58-.223-.318-.366-.619-.316-.668.049-.05.403.03.787.176s.698.447.698.669a.394.394 0 0 1-.381.403zm5.454 0c-.17 0-.308-.09-.306-.198.002-.11.092-.332.198-.494.107-.162.463-.379.79-.48l.595-.187v.242c0 .133-.217.438-.483.68-.266.24-.624.437-.794.437zm-2.655-1.852c-.134 0-.3-.149-.37-.33-.07-.183-.01-.63.13-.993l.256-.661.248.644c.136.354.188.8.114.992-.073.191-.243.348-.378.348z" id="1677462931223-3405404_path19549" fill="#212121" stroke-width=".265"></path></g></g></svg>