<svg width="111" height="107" xmlns="http://www.w3.org/2000/svg" viewBox="0 0 29.514 28.405"><title>firis race animal</title><g fill="#212121" class="nc-icon-wrapper"><g id="1677462931223-11674_layer1" transform="translate(-26.953 -62.105)"><path d="M38.371 90.396c-4.281-.895-8.705-4.334-9.483-7.372-.144-.563-.239-1.251-.21-1.53l.05-.505 2.027 1.431c1.115.787 2.056 1.402 2.093 1.365.036-.036.191-.655.344-1.375.154-.72.325-1.364.382-1.43.057-.066.93.543 1.94 1.353l1.835 1.474.752-1.413c.413-.777.752-1.479.752-1.56 0-.307.297-.083 1.884 1.417l1.637 1.548.894-1.35c.492-.742.948-1.408 1.013-1.48.065-.073.667.167 1.337.532.67.366 1.264.666 1.32.667.056.002.484-.767.952-1.708 1.903-3.83 4.532-5.47 7.114-4.436l.685.274-.092 1.413c-.209 3.21-1.658 6.213-4.214 8.74-1.818 1.795-3.224 2.665-5.616 3.476-1.457.494-1.74.534-4.116.576-1.403.025-2.88-.023-3.28-.107zm-10.62-13.154l-.798-.81.085-1.452c.167-2.878 1.687-6.221 3.748-8.245 2.447-2.402 5.428-3.88 8.89-4.408 3.074-.468 5.465-.203 7.737.86 1.016.477 1.486.594 2.662.667 1.292.08 5.102-.17 6.021-.395.306-.075.37-.023.37.3 0 .491-.862 3.859-1.482 5.79l-.466 1.453.3.872c.365 1.06.72 2.72.607 2.832-.045.046-.29-.053-.542-.219-.727-.476-2.36-.393-3.64.184-.964.435-2.18 1.5-2.63 2.304-.162.29-.3.209-1.685-.99-.83-.717-1.56-1.318-1.623-1.334-.063-.017-.67.665-1.35 1.515-.678.849-1.289 1.548-1.356 1.552-.067.004-.575-.896-1.128-2l-1.006-2.006-1.238 1.266c-.681.696-1.256 1.266-1.277 1.266-.021 0-.504-.556-1.073-1.235-.568-.679-1.079-1.232-1.134-1.229-.055.004-.545.592-1.088 1.308-.543.716-1.04 1.306-1.105 1.311-.064.005-.578-.586-1.142-1.313l-1.025-1.323-1.304 2.023c-.717 1.112-1.355 2.077-1.417 2.144-.062.068-.472-.242-.91-.688zm17.63-6.185c.618-.405 1.043-1.23 1.043-2.027 0-.543-.057-.7-.243-.659-.134.03-1.099.646-2.143 1.37l-1.9 1.318.868.194c1.03.23 1.823.165 2.374-.196z" id="1677462931223-11674_path2642" display="inline" fill="#212121" stroke-width=".165"></path></g></g></svg>