<svg width="101" height="111" xmlns="http://www.w3.org/2000/svg" viewBox="0 0 26.897 29.428"><title>firis category object</title><g fill="#212121" class="nc-icon-wrapper"><g id="1677462931221-5140266_layer1" transform="translate(-11.308 -57.089)"><path d="M20.679 86.18c-.68-.175-1.26-.39-1.29-.48-.03-.088-.145-.161-.256-.161-.111 0-.42-.31-.686-.689-.267-.379-.815-.99-1.22-1.358-2.115-1.927-3.732-4.083-4.945-6.596-.789-1.634-1.055-3.301-.954-5.974.063-1.661.134-2.055.514-2.848.243-.507.441-.996.441-1.086 0-.355 1.322-2.166 2.362-3.235.623-.642 1.095-1.272 1.095-1.463 0-.184-.145-.57-.322-.856-.177-.286-.37-.821-.428-1.188-.098-.61-.058-.715.471-1.23.423-.41 1.03-.713 2.248-1.123 1.9-.638 2.054-.657 6.426-.78 3.629-.101 5.145.086 7.902.976 1.962.634 2.73 1.284 2.583 2.188a2.599 2.599 0 0 1-.433 1.006c-.43.546-.451 1.467-.04 1.687.328.175 2.066 2.207 2.426 2.835.356.622.465.98.598 1.365.018.05.057.187.134.327.073.108.307.452.515.881.345.713.379 1.01.384 3.415.006 2.536-.038 3.085-.279 3.47-.061.098-.232.543-.38.988-.273.822-.455 1.146-1.688 3.003-.38.573-.692 1.118-.692 1.212 0 .095-.815.963-1.81 1.93-.997.968-1.814 1.83-1.816 1.916-.01.301-.97 1.213-1.634 1.552-1.365.696-7.002.89-9.226.316zm4.897-.434a18.307 18.307 0 0 0-1.893 0c-.52.033-.095.06.947.06 1.04 0 1.467-.027.946-.06zm-3.207-.15c-.111-.046-.333-.048-.494-.007-.16.042-.069.079.203.082.272.004.403-.03.291-.075zm-1.465-.748c.097-.063.142-.146.1-.184-.093-.083-1.684-.264-1.602-.182.347.346 1.208.795 1.26.656a.71.71 0 0 1 .242-.29zm8.99-.067c.224-.217.32-.394.215-.394-.106 0-.29.13-.408.291-.118.16-.4.383-.627.495l-.411.203.411-.1c.227-.055.595-.278.82-.495zm-4.77.097c-.136-.089-1.036-.143-2-.12-2.277.052-1.922.282.436.282 1.244 0 1.733-.05 1.563-.162zm.658-.803c0-.08-.595-.155-1.321-.166-3.258-.048-6.177-.73-7.414-1.732-.232-.188-.112-.046.266.316.473.452 1.003.755 1.692.964 1.63.497 6.777.966 6.777.618zm2.975-.283c2.255-.386 3.204-.79 4.294-1.83.513-.49 1.143-1.2 1.4-1.578.257-.38.523-.714.59-.744.069-.03.124-.142.124-.248 0-.106.37-.933.822-1.838.452-.905.869-1.922.926-2.26.057-.337.206-.698.33-.802.125-.103.227-.438.227-.743 0-.306.057-.556.127-.556.23 0-.098-3.026-.43-3.951-.79-2.21-1.334-3.1-2.72-4.454l-.8-.782-.544.322c-.884.521-1.114.913-.289.493.88-.449.966-.444 1.454.082.373.403.47.613.425.917-.01.065.085.078.21.03.335-.128.49.235.235.547-.194.236-.176.257.15.172.288-.074.37-.025.37.219 0 .172.074.314.163.314.214 0 .694 1.158.591 1.426-.044.115-.003.258.095.318.1.061.137.349.086.664-.06.369-.025.555.105.555.108 0 .214.26.237.576.023.321-.036.576-.134.576-.095 0-.124.081-.062.18.194.314.262 2.783.077 2.783-.093 0-.17.185-.17.412 0 .226-.092.417-.205.424-.165.01-.165.03 0 .096.322.13.243.457-.214.887-.303.284-.394.5-.326.773.08.32.018.393-.403.478-.486.097-.662.431-.334.634.193.119-.249 1.07-.497 1.07-.088 0-.16.113-.16.25 0 .138-.183.334-.407.436-.223.102-.369.246-.323.32.045.073-.006.303-.113.51-.108.208-.245.483-.305.613s-.25.315-.42.412c-.172.096-.574.438-.895.76-.768.77-1.568 1.069-3.725 1.39-.982.145-1.819.298-1.86.338-.146.146.773.07 2.298-.191zm-2.564-.722c.181-.078.265-.147.186-.153-.231-.019.244-.506.493-.506.38 0 .963-.705.912-1.101-.037-.279.055-.395.378-.476.319-.08.384-.16.256-.313-.121-.146-.102-.264.068-.405.132-.109.195-.315.14-.457-.054-.142.013-.34.15-.441.256-.187.317-.93.091-1.097-.17-.127.05-1.636.24-1.636.083 0 .099-.085.034-.19-.064-.104.008-.28.16-.392.258-.188.257-.21-.016-.315-.254-.098-.216-.177.283-.591l.576-.479-.435-.004c-.424-.004-.725-.353-.5-.578.18-.18.129-1.073-.062-1.073-.096 0-.298-.092-.448-.206-.218-.164-.245-.327-.134-.808.108-.47.08-.662-.129-.874-.247-.251-.243-.29.045-.504.302-.223.299-.237-.082-.394-.54-.221-1.358-1.103-1.225-1.318.06-.097.252-.176.428-.176.481 0 .384-.309-.133-.422-.875-.192-.896-.211-.782-.73.085-.386.052-.494-.151-.494-.33 0-.334-.304-.01-.663.235-.259.055-.284-2.674-.383-5.29-.19-5.56-.22-6.763-.757-.606-.27-1.081-.574-1.056-.676.055-.22-.331-.122-.406.103-.087.259 1.595.946 2.993 1.224.977.194 1.33.334 1.37.542.038.197-.056.28-.314.28-.203 0-.317.053-.253.117s-.127.231-.425.372c-.419.198-.543.36-.55.718-.004.254-.106.522-.226.597-.12.074-.17.214-.111.31.135.219-.495.573-.77.432-.11-.058-.048.032.14.198.417.368.531 1.372.157 1.372-.158 0-.234.133-.209.364.027.25-.063.383-.29.427-.562.11-.656.34-.207.51.232.088.466.23.519.317.154.25-.346.56-.715.442-.391-.124-.465.16-.08.308.142.055.236.23.21.388a.83.83 0 0 0 .081.495c.175.279 0 .52-.523.73l-.437.174.494.17c.55.189.773.433.665.729-.04.108.08.245.265.304.25.08.317.21.261.502-.05.261 0 .396.149.396.32 0 .278.648-.05.773-.234.09-.222.124.083.237.195.072.355.273.355.446s.167.426.37.562c.365.243.366.253.06.593-.245.272-.262.36-.082.415.126.038.358.112.517.163.448.144.355.597-.124.597-.693 0-.458.274.453.528.633.176.864.32.865.537 0 .164.167.359.37.434.204.075.37.205.37.289 0 .245.502.403 1.646.52 1.566.16 3.163.158 3.54-.004zm-9.957-1.807a1.487 1.487 0 0 0-.54-.516c-.306-.158-.287-.104.116.326.56.597.668.645.424.19zm-1.483-1.98c-.097-.18-.214-.329-.259-.329-.045 0-.003.148.094.33.097.18.213.329.258.329.046 0 .003-.149-.093-.33zm-.705-1.358c-.04-.113-.007-.335.074-.494.108-.209.084-.288-.088-.288-.471 0-1.163-1.795-.872-2.263.081-.13.038-.206-.118-.206-.17 0-.279-.243-.35-.782-.166-1.262-.207-1.33-.226-.37-.01.498.06 1.201.156 1.564.184.695 1.277 3.045 1.416 3.045.045 0 .048-.093.008-.206zm-1.343-6.599c.33.127.295-.005-.093-.356-.322-.291-.328-.287-.316.18.007.263.05.39.093.282.044-.108.186-.156.316-.106zm-.093-1.426c.098-.362.237-.658.309-.658.178 0 .17-.553-.01-.672-.225-.148.033-.645.336-.648.22-.002.228-.03.041-.148-.126-.08-.182-.245-.124-.368.212-.448.524-.884.724-1.012.114-.073.206-.267.206-.433 0-.178.198-.383.482-.5.265-.11.522-.305.571-.432.17-.444-.246-.227-.936.485-1 1.034-1.712 2.57-1.824 3.933-.05.612-.06 1.112-.022 1.112.039 0 .15-.297.248-.659zm18.108-4.269c.345-.148.294-.16-.317-.074-.4.056-1.252.163-1.893.238l-1.164.137 1.481-.062c.815-.034 1.667-.141 1.893-.239zm-5.168-1.08c.043-.842.07-.886.6-.952.295-.036-.627-.078-2.047-.093-1.42-.014-2.782-.102-3.027-.195-.245-.093-.482-.132-.527-.087-.046.045.103.153.33.239.447.17.663.671.441 1.028-.112.18.169.242 1.46.319 2.488.148 2.75.123 2.77-.26zm2.658-1.189a3.638 3.638 0 0 0-.905 0c-.25.038-.046.069.452.069s.702-.031.453-.069zm1.238-.155c-.112-.045-.334-.047-.494-.006-.16.042-.07.079.203.082.271.004.402-.03.29-.075zm3.88-.568c-.022-.372-.122-.708-.223-.746-.172-.066-1.726.71-1.726.863 0 .038.278-.049.617-.194l.823-.35c.138-.056.206.077.206.4 0 .434.108.703.281.703.034 0 .044-.304.022-.676zm-2.981.412c-.055-.054-.197-.06-.316-.013-.131.053-.092.092.1.1.173.007.27-.032.216-.087zm.658-.164c-.055-.055-.197-.06-.315-.013-.132.052-.093.091.099.1.174.006.27-.033.216-.087zm-4.482-.205c.525-.097.587-.14.303-.218-.196-.054-.677-.035-1.07.042-.393.077-1.789.108-3.102.07-1.455-.044-2.194-.017-1.893.067.615.174 4.871.202 5.762.039zm-9.84-.29c-.054-.054-.196-.06-.315-.012-.132.053-.092.092.1.1.173.007.27-.032.215-.087zm9.77-.64c.853-.135 1.996-.317 2.539-.405.543-.088 1.284-.203 1.646-.256.85-.124 2.783-1.09 2.847-1.423.076-.398-1.354-.875-4.246-1.417-1.638-.307-5.381-.448-6.914-.262-.862.105-.348.151 2.634.237 4.13.118 5.356.302 6 .899.529.49.414.794-.548 1.46-.87.603-2.786.89-6.221.929-2.149.025-2.845-.03-3.971-.308-2.64-.655-2.948-1.871-.656-2.587.679-.212.685-.22.182-.231-.287-.006-1.176.211-1.974.483-.799.271-1.455.494-1.459.494-.003 0-.021.18-.04.402-.035.429.492.908 1.381 1.257.823.322 4.702.942 6.001.959.686.008 1.945-.095 2.798-.23zm-5.569-3.484a.635.635 0 0 0-.411 0c-.113.046-.02.083.206.083.226 0 .319-.037.205-.083z" id="1677462931221-5140266_path2922" display="inline" fill="#212121" stroke-width=".165"></path></g></g></svg>