<svg width="43" height="40" xmlns="http://www.w3.org/2000/svg" viewBox="0 0 11.416 10.668"><title>firis resist impact</title><g fill="#212121" class="nc-icon-wrapper"><g id="1677462931224-1274894_layer1" transform="translate(-37.09 -79.8)"><path d="M48.131 90.323l-.375.144-.37-.587c-.204-.322-.914-1.469-1.578-2.547s-1.145-2.06-1.07-2.183c.076-.122.23-.222.344-.222.114 0 .93 1.182 1.815 2.626l1.61 2.625zm-5.43-2.724l-.687 1.31-1.087-1.178c-.598-.649-1.278-1.634-1.512-2.19-.234-.555-.492-1.337-.573-1.737l-.149-.728 1.158-.003c.637 0 1.612-.127 2.168-.282l1.01-.28-.306-.368c-.168-.202-.225-.498-.126-.657l.178-.289.37.307c.204.17.313.402.241.518-.071.115.088.153.353.083l.483-.126.632.923.632.923.738-.526c.406-.289.738-.413.738-.277 0 .136-.497.576-1.104.978-.608.401-1.411 1.08-1.786 1.509-.375.428-.992 1.368-1.37 2.09zm-4.03-1.09l-.484.371.184-.976.183-.976H37.09l.479-.53.479-.528-.438-.484c-.241-.266-.438-.564-.438-.662 0-.097.298-.177.661-.177.364 0 .662-.052.662-.115 0-.064-.12-.429-.265-.812l-.265-.697.786.56.786.56.17-.675c.092-.37.261-.673.375-.673.114 0 .283.3.375.667l.168.667.522-.28c.288-.153.523-.208.523-.12 0 .087-.123.39-.274.67l-.274.512h-2.627v.67c0 .369.18 1.101.4 1.628.22.527.37.974.331.993a9.44 9.44 0 0 0-.554.406zm7.19-3.932l-.752.535.003-.349c0-.192.507-.636 1.124-.988l1.122-.64-.373.454c-.205.25-.711.694-1.124.988zm-1.204-.824h-.373l.168-.27c.092-.15.902-.638 1.801-1.087.9-.448 1.516-.7 1.37-.557-.146.142-.788.631-1.429 1.086-.64.456-1.332.828-1.537.828z" id="1677462931224-1274894_path19491" fill="#212121" stroke-width=".265"></path></g></g></svg>