<?xml version="1.0" encoding="UTF-8"?>
<svg width="30.11mm" height="27.641mm" version="1.1" viewBox="0 0 30.11 27.641" xmlns="http://www.w3.org/2000/svg">
 <g transform="translate(2.3812 10.583)">
  <path d="m22.445 14.795c-1.2224-1.2449-2.5018-2.6788-2.8432-3.1865-0.35819-0.53269-1.06-1.2456-1.6597-1.6859-0.5715-0.41963-1.9256-1.6711-3.009-2.7809-2.3271-2.3839-5.1828-5.3751-6.0071-6.2921-0.50742-0.56457-0.62209-0.62293-0.85069-0.43323-0.22251 0.18468-0.33449 0.17325-0.70945-0.072443l-0.44524-0.29173-0.64164 0.72496c-1.1163 1.2612-3.4878 4.4896-4.3657 5.943-1.419 2.3492-2.6565 5.2901-2.9555 7.0234-0.065987 0.38254-0.19407 0.70525-0.28461 0.7171-0.09054 0.01191-0.37391-0.38031-0.62976-0.87148-0.45556-0.87458-0.46363-0.93726-0.39116-3.0331 0.063897-1.8487 0.1451-2.3516 0.59648-3.6946 0.93745-2.7891 2.9919-6.4025 4.9174-8.6488 0.64839-0.75644 0.8223-1.0719 0.74994-1.3602-0.051832-0.20648 0-0.48826 0.11388-0.62616 0.1733-0.20884 0.12922-0.33308-0.26374-0.74321l-0.4718-0.49247 2.3732-2.3732 0.51374 0.51372c0.50969 0.50969 0.51623 0.5112 0.8354 0.19203 0.29789-0.29787 0.35084-0.30258 0.71604-0.063262 0.37907 0.24836 0.44921 0.22267 1.8041-0.66045 1.6223-1.0575 3.9333-2.1732 5.598-2.7027 1.6008-0.50914 4.26-0.64069 5.2566-0.26006 1.2056 0.46045 1.2223 0.66056 0.08131 0.97777-2.2301 0.62005-6.7114 3.178-8.9361 5.1008-0.58266 0.50358-0.61677 0.57827-0.41312 0.9044 0.18664 0.29885 0.18598 0.41317-0.0042 0.71766-0.21611 0.34608-0.0209 0.56401 4.388 4.8974 2.5378 2.4944 4.9315 4.9318 5.3193 5.4164 0.38783 0.48469 1.3028 1.2996 2.0333 1.8108 1.378 0.96438 4.8681 4.2108 4.8681 4.5282 0 0.18142-2.7918 3.0683-2.9673 3.0683-0.05133 0-1.0935-1.0186-2.3159-2.2635zm0.46281-0.23691c-1.0407-1.0241-2.205-2.3275-2.5873-2.8965-0.76676-1.141-1.4871-1.9195-2.0314-2.1954-0.19558-0.099166-0.0026 0.16534 0.43027 0.58777 0.43222 0.42243 0.98118 1.0786 1.2199 1.4582 0.4571 0.72681 4.6656 5.103 4.7889 4.9797 0.03948-0.03948-0.77967-0.90966-1.8203-1.9337zm-24.067-2.397c0.56838-1.9711 1.9317-4.6924 3.4053-6.7972 1.9788-2.8264 4.925-6.3984 6.5712-7.9668 0.84926-0.8091 1.2848-1.2973 0.96795-1.0847-0.31689 0.21249-1.5983 1.4203-2.8477 2.684-1.2493 1.2637-2.3024 2.2668-2.3401 2.2291-0.03773-0.037756 0.23302-0.50951 0.60172-1.0483l0.67032-0.97967-0.60799 0.63048c-0.65963 0.68403-0.95451 0.70297-0.51565 0.033126 0.15018-0.22918 0.20976-0.41667 0.13245-0.41667-0.077338 0-0.23971 0.18518-0.36087 0.41153-0.24979 0.46678-0.582 0.56256-0.42812 0.12345 0.055536-0.15843-0.18971 0.045191-0.54499 0.45254-0.35528 0.40733-0.68826 0.69831-0.73996 0.64662-0.0517-0.0517 0.13121-0.44908 0.40643-0.88307 0.63011-0.99359 0.54245-1.1252-0.16394-0.24625-0.62995 0.78388-0.87884 0.75144-0.32692-0.042651 1.4381-2.069 3.8961-4.4905 6.5714-6.4737 1.2957-0.96052 1.598-1.2444 0.82309-0.77295-2.1223 1.2912-5.4385 4.3716-7.4213 6.8937-1.7994 2.2888-3.5839 5.7071-4.1967 8.0393-0.41484 1.5786-0.41204 5.5147 0.00397 5.5147 0.037121 0 0.19031-0.42593 0.34041-0.94655zm18.802-3.1903c-0.15856-0.088741-0.47728-0.35031-0.70824-0.58126-0.39918-0.39918-0.67659-0.48107-0.43217-0.12756 0.20556 0.29734 1.2546 1.0443 1.3427 0.95612 0.04728-0.047281-0.04376-0.15856-0.20233-0.24731zm-2.4251-2.3306c0-0.025929-0.38891-0.41495-0.86426-0.86424l-0.86424-0.8169 0.8169 0.86424c0.75909 0.80309 0.9116 0.93975 0.9116 0.8169zm-2.311-2.3808c-0.84812-0.97999-2.0502-2.2414-2.3923-2.5104-0.17272-0.13578 0.38891 0.51189 1.2481 1.4393 1.5556 1.6793 2.161 2.2459 1.1442 1.0711zm-3.1025-3.3069c-0.18301-0.25704-0.44675-0.56192-0.58608-0.67757-0.2236-0.18558-0.19285-0.29009 0.26228-0.89077l0.51559-0.68053-1.2168 1.2322 0.62024 0.742c0.70014 0.83759 0.90424 0.97607 0.40479 0.27469zm-0.4591-2.4273c1.184-1.1577 1.4098-1.4558 1.2491-1.6494-0.16428-0.19793-0.35885-0.081994-1.1975 0.71348-1.2806 1.2147-1.9161 1.9327-1.9161 2.165 0 0.43238 0.50713 0.098081 1.8644-1.229zm-4.9922 1.0016c0-0.04527-0.037042-0.082312-0.082312-0.082312s-0.082285 0.037042-0.082285 0.082312 0.037015 0.082312 0.082285 0.082312 0.082312-0.037042 0.082312-0.082312zm2.0533-4.6793c0.63135-0.64053 1.0743-1.1646 0.98428-1.1646-0.090011 0-0.82881 0.67778-1.6418 1.5062-0.81299 0.82838-1.2559 1.3524-0.98428 1.1646 0.27162-0.18788 1.0104-0.86566 1.6418-1.5062zm-0.98904-0.15039c0.74504-0.69027 0.76126-0.72506 0.48162-1.0341-0.28363-0.3134-0.30517-0.30424-1.0823 0.46117-0.80711 0.79499-0.95509 1.1125-0.58708 1.2597 0.30041 0.12017 0.34361 0.095197 1.1877-0.68683z" style="fill:#00aad4;stroke-width:.16462"/>
 </g>
</svg>
