<svg width="109" height="109" xmlns="http://www.w3.org/2000/svg" viewBox="0 0 28.917 29.055"><title>firis category weapon</title><g fill="#212121" class="nc-icon-wrapper"><g id="1677462931222-9911937_layer1" transform="translate(-9.728 -55.028)"><path d="M34.199 83.907c0-.096-1.214-1.391-2.698-2.878l-2.698-2.703-1.653 1.644c-1.445 1.437-1.714 1.637-2.142 1.59-1.014-.111-2.162-1.639-1.406-1.873.17-.052.629-.45 1.02-.884l.713-.789-.507-.262c-.555-.287-.608-.525-.306-1.362.193-.533.177-.578-.392-1.115-.326-.308-.628-.524-.67-.481-.044.043-.173-.035-.287-.173-.115-.138-.292-.252-.394-.253-.102-.003-.433-.22-.736-.488-.303-.266-.691-.53-.864-.584-.173-.055-.314-.168-.314-.25 0-.084-.381-.356-.846-.607-1.213-.653-1.42-.781-1.759-1.087-.166-.15-.377-.274-.47-.274-.091 0-.3-.148-.465-.33-.164-.18-.361-.328-.438-.328-.078 0-.51-.26-.96-.576-.452-.317-.872-.577-.935-.577-.063 0-.283-.158-.49-.352a4.829 4.829 0 0 0-.686-.535c-.172-.1-.638-.403-1.035-.673-.947-.642-1.305-.86-1.742-1.059-.565-.256-.747-.78-.8-2.305-.027-.777-.12-2-.207-2.716-.087-.716-.12-1.586-.074-1.933.047-.35.003-.728-.098-.85-.12-.145-.16-.842-.114-2.019l.07-1.797 1.45.011c.797.006 1.832.087 2.299.179.63.124.945.116 1.224-.034.377-.201 1.867-.196 4.37.016 1.342.113 1.481.22 2.748 2.089.413.61.828 1.202.922 1.317.73.89 3.08 4.124 3.777 5.201.215.332.74 1.011 1.165 1.51a24.51 24.51 0 0 1 1.575 2.14c1.377 2.124 2.003 2.747 2.978 2.967.533.12.604.079 1.44-.845.482-.533.926-.97.985-.97.059 0 .404.268.766.595.55.497.659.7.659 1.225 0 .405-.103.71-.288.854-.158.122-.877.828-1.596 1.568l-1.308 1.344 2.831 2.811 2.831 2.81-.107 1.156c-.1 1.069-.158 1.207-.783 1.845-1.049 1.072-1.442 1.266-2.562 1.266-.594 0-.993-.07-.993-.176zm.823-1.462c0-.282.115-.55.274-.639.237-.133.193-.227-.33-.707-.352-.323-.603-.707-.603-.925 0-.206-.09-.353-.202-.33-.11.023-.227-.125-.258-.33-.031-.203-.12-.37-.2-.37-.078 0-.548-.412-1.044-.916l-.902-.917-.5.258c-.274.142-.717.258-.984.258-.45 0-.305.183 2.009 2.543 1.37 1.399 2.548 2.547 2.616 2.552.068.005.124-.21.124-.477zm-9.877-2.313c0-.09.12-.164.266-.164.146 0 2.31-2.038 4.806-4.527 2.498-2.49 4.6-4.527 4.673-4.527.072 0 .132-.186.132-.412 0-.226-.056-.412-.125-.412s-2.419 2.297-5.223 5.104c-2.97 2.972-4.979 5.103-4.813 5.103.156 0 .284-.074.284-.165zm3.79-5.741c1.537-1.529 2.794-2.899 2.794-3.046 0-.157-.135-.267-.329-.267-.181 0-.33.063-.33.139 0 .076-.258.278-.575.449-.317.17-.576.362-.576.426s-.13.158-.289.209c-.158.05-.503.278-.766.505-.263.227-.58.412-.704.412s-.294.182-.379.405a2.677 2.677 0 0 1-.418.7c-.145.162-.622.787-1.06 1.39-.575.794-.745 1.145-.614 1.276.099.099.24.18.315.18.075 0 1.394-1.25 2.93-2.778zm-3.345.377c.162-.233.5-.67.748-.968.25-.299.453-.573.453-.61 0-.037-2.273-2.342-5.052-5.122-4.098-4.103-5.134-5.056-5.49-5.056-.56 0-1.475.316-1.475.51 0 .082-.148.148-.33.148-.18 0-.329.073-.329.162 0 .089-.187.208-.416.266-.228.057-.491.245-.584.418-.092.173-.46.441-.818.596-.589.255-.859.534-.517.534.073 0 .277.13.452.29.176.158.505.415.731.569.226.154.93.652 1.564 1.107.634.455 1.67 1.18 2.304 1.612.634.431 1.227.863 1.317.96.18.193.834.64 1.63 1.117.28.168.807.546 1.169.84.362.295.825.589 1.029.653.203.065.37.183.37.264 0 .08.334.342.74.58.408.24.742.502.742.584 0 .081.098.149.218.149s.392.185.605.411c.483.514.572.513.939-.014zm3.592-3.164c-.05-.05-.183 0-.295.112-.161.163-.142.182.092.092.162-.061.254-.154.203-.204zM26.1 65.159c-.11-.177-.233-.29-.272-.25-.07.07.288.572.41.572.034 0-.028-.145-.138-.322zm-13.372-1.68c.187-.166.467-.302.622-.302a.43.43 0 0 0 .378-.248c.052-.135.423-.392.825-.57.401-.177.94-.472 1.196-.654.451-.322 1.49-2.153 1.5-2.647.003-.134.109-.38.235-.547.127-.167.279-.593.339-.947.1-.599.147-.643.662-.643.335 0 .611-.103.7-.262.132-.237.168-.237.378-.004.27.298.908 1.145 1.768 2.344 1.153 1.61 1.244 1.73 1.564 2.089.176.198.514.659.75 1.025.634.978 1.729 2.365 1.874 2.373.07.004-.119-.344-.417-.774-.666-.96-2.028-2.819-2.352-3.212-.13-.16-.238-.389-.238-.509s-.283-.515-.629-.879c-.781-.821-1.394-2.048-1.123-2.248.113-.083.064-.098-.125-.036-.202.065-.424-.017-.624-.232-.17-.183-.437-.34-.592-.347a13.892 13.892 0 0 1-.693-.06c-.472-.053-1.177.176-1.337.434-.06.097-.203.117-.32.045-.116-.072-.639-.114-1.16-.092-.522.021-1.09-.037-1.263-.13-.633-.339-3.248-.504-3.513-.222-.126.133-.356 2.213-.36 3.249-.003.362.081 1.584.185 2.716.103 1.132.19 2.12.191 2.194.005.158 1.075-.455 1.579-.904z" id="1677462931222-9911937_path3056" display="inline" fill="#212121" stroke-width=".165"></path></g></g></svg>