<svg width="39" height="43" xmlns="http://www.w3.org/2000/svg" viewBox="0 0 10.356 11.425"><title>firis resist fire</title><g fill="#212121" class="nc-icon-wrapper"><g id="1677462931223-1675589_layer1" transform="translate(-77.32 -81.983)"><path d="M81.768 93.407c-.02-.012-.394-.185-.831-.385-.437-.2-1.121-.368-1.521-.375-.4-.007-.728-.114-.728-.24 0-.125-.308-.68-.684-1.235l-.684-1.007.128-.551c.07-.303.276-.968.456-1.477.18-.51.507-1.283.725-1.72.218-.436.82-1.24 1.34-1.786.519-.545 1.036-.992 1.15-.992.114 0-.029.387-.317.86-.289.473-.525.95-.525 1.058-.001.11.122.199.272.199.15 0 .52-.417.82-.926.3-.51.699-.926.885-.926.186 0 .49-.184.678-.41.186-.225.688-.657 1.113-.96l.774-.55-.55 1.077-.55 1.079.269.166c.148.091.885-.349 1.64-.978.753-.63 1.282-1 1.175-.824-.108.176-.294 1.069-.414 1.984-.12.916-.314 1.903-.432 2.194l-.215.53.6-.528c.33-.29.764-.885.967-1.323l.368-.796-.16 1.19c-.087.656-.255 1.37-.372 1.588-.117.219-1.107 1.26-2.198 2.315l-1.985 1.919h-2.157V89.76l.768-.548c.423-.3.855-.547.96-.547.105 0 .112.495.016 1.099l-.176 1.099.374-.31c.205-.17.517-.826.694-1.457.177-.63.28-1.412.231-1.736l-.09-.59-1.887 1.367-1.888 1.367.423 1.102c.232.606.546 1.19.697 1.296.151.107.668.197 1.148.199.48.002 1.343-.264 1.916-.591.574-.328 1.049-.774 1.055-.993.007-.218.544-.787 1.193-1.265.65-.477 1.18-.793 1.18-.702 0 .091-.222.482-.494.868s-.751 1.209-1.064 1.827l-.57 1.124-.59.006c-.324.003-1.108.242-1.742.53-.635.287-1.17.513-1.191.501z" id="1677462931223-1675589_path19535" fill="#212121" stroke-width=".265"></path></g></g></svg>