<svg width="110" height="88" xmlns="http://www.w3.org/2000/svg" viewBox="0 0 29.303 23.38"><title>firis category animal mat</title><g fill="#212121" class="nc-icon-wrapper"><g id="1677462931219-9626351_layer1" transform="translate(-14.578 -54.972)"><path d="M32.137 78.238c-.06-.06-.11-.316-.11-.568 0-.456-.002-.457-.555-.226-.448.187-.657.194-1.082.034-.457-.173-.547-.161-.687.088-.207.37-.68.368-1.018-.006-.218-.24-.519-.291-1.667-.28-.77.009-1.452.067-1.515.13-.25.25-.734.095-.876-.28-.19-.499-.49-.602-.926-.32-.498.323-1.415-.009-1.377-.498.045-.568.004-.649-.229-.456-.12.1-.53.292-.91.426-.804.284-1.485.114-1.62-.405-.077-.292-.18-.315-.973-.222-.918.108-.965.075-.898-.62.02-.21-.171-.283-.888-.343-.67-.055-1.026-.181-1.337-.473-.233-.22-.454-.38-.492-.357-.234.139-.399-.014-.399-.37 0-.284.19-.549.622-.864.374-.273.6-.562.567-.727-.03-.15.103-.42.296-.6.224-.208.287-.366.174-.436-.33-.203-.18-.736.276-.983.249-.135.36-.249.246-.252-.303-.01-.25-.514.08-.756.272-.198.272-.225 0-.525-.415-.46-.352-.791.22-1.154l.507-.32-.506-.426c-.279-.235-.506-.575-.506-.757 0-.369.575-.843 1.024-.843.346 0 .35-.023.1-.573-.148-.324-.148-.469 0-.617.106-.106.193-.396.193-.644s.061-.49.137-.536c.075-.046.105-.301.066-.566-.039-.265.006-.53.1-.587.109-.067.046-.338-.174-.75-.326-.61-.33-.669-.07-1.065.15-.23.455-.464.676-.52.342-.085.388-.172.308-.573-.08-.395-.024-.504.336-.668.312-.143.431-.321.431-.647 0-.248.111-.492.247-.544.136-.052.247-.2.247-.33 0-.292.355-.434 1.084-.434.31 0 .562-.074.562-.164 0-.235.641-.204 1.567.074.714.215.815.213.987-.023.231-.316 1.015-.21 1.942.262.553.282.608.285.608.035 0-.487.488-1.007.946-1.007.244 0 .632.189.884.43l.448.43.564-.43c.412-.315.76-.43 1.297-.43.782 0 1.128.212 1.128.692 0 .397.31.373 1.405-.111.76-.336.975-.372 1.24-.207.175.11.318.33.318.489 0 .301.246.393.397.148.106-.17 1.753-.04 2.003.159.1.078.427.069.74-.021.876-.251 1.59-.198 1.83.137.366.505.585.545 1.445.264 1.015-.332 1.4-.14 1.234.616-.091.417-.057.468.311.468.266 0 .45.115.516.322.11.347-.28 1.067-.719 1.323-.245.143-.245.156.003.16.147.004.365.123.484.266.175.212.177.323.006.596-.15.24-.159.385-.03.513.289.29.203.74-.164.857-.313.1-.32.132-.082.394.338.375.33.945-.017 1.14-.245.136-.218.226.247.813.287.363.522.771.522.908 0 .275-.802.61-1.46.61h-.424l.366.256c.514.36.455.717-.153.93l-.519.18.437.318c.548.4.558.748.025.882-.463.116-.535.314-.165.456.395.152.286.664-.206.965l-.452.277.528.186c.916.323.877 1.15-.065 1.386l-.428.108.353.247c.596.418.357 1.216-.364 1.216-.302 0-.305.02-.05.301.339.374.352.832.028.956-.216.083-.216.134 0 .443.382.545.297.986-.25 1.297-.348.198-.493.406-.493.705 0 .528-.384.692-1.04.444-.365-.138-.557-.139-.718-.005-.126.104-.534.147-.954.1-.64-.073-.767-.033-.99.307a.84.84 0 0 1-1.295.144c-.28-.28-.6-.326-.6-.085 0 .275-.806.386-1.091.15-.226-.188-.319-.155-.648.228-.365.424-.874.579-1.114.338zm-8.67-2.277c0-.136-.073-.247-.164-.247-.09 0-.165.11-.165.247 0 .136.074.247.165.247.09 0 .165-.111.165-.247zm16.196-.338c.056-.147.029-.213-.065-.155-.09.055-.162.17-.162.256 0 .236.118.184.227-.101zm-1.709-.32c.307-.227.729-.412.937-.412.553 0 1.039-.534.829-.91-.121-.216-.102-.344.07-.475.13-.098.233-.434.229-.746-.006-.47.063-.584.404-.669l.412-.101-.37-.202c-.42-.228-.498-.819-.124-.936.828-.258.822-.245.268-.582-.613-.373-.632-.785-.05-1.075l.381-.19-.516-.18c-.451-.158-.51-.246-.465-.699.075-.74-.348-.982-1.021-.585-.466.275-.537.278-.904.038a1.904 1.904 0 0 0-.886-.26c-.268 0-.59-.102-.713-.227-.168-.167-.435-.193-1.04-.1-.818.126-1.392-.022-1.392-.357 0-.103-.17-.066-.406.088-.508.334-1.056.342-1.18.019-.053-.136-.193-.247-.313-.247s-.343-.125-.496-.279c-.165-.165-.515-.272-.855-.263-.435.013-.595-.06-.657-.297-.092-.35-.256-.387-.685-.158-.195.105-.426.086-.702-.058-.226-.117-.643-.179-.927-.137-.338.05-.608-.016-.78-.19-.151-.15-.536-.264-.892-.264s-.715-.107-.832-.247c-.125-.151-.486-.247-.93-.247-.514 0-.756-.077-.827-.263-.13-.34.263-.597.687-.451.181.062.682.118 1.112.124.43.006.782.078.782.159 0 .085.672.091 1.605.014.882-.072 1.806-.123 2.052-.111.246.01.491-.05.545-.137.129-.21.79-.202 1.003.01.092.093.644.198 1.226.236.883.056 1.116.013 1.403-.255.368-.344.89-.278.89.112 0 .176.096.188.44.058.327-.125.597-.105 1.052.078.564.225.634.221.884-.055.235-.26.472-.29 1.787-.227.834.04 1.668.146 1.852.235.38.184 1.31-.085 1.156-.334-.051-.083-.027-.324.054-.536.114-.298.07-.47-.193-.756l-.34-.37.37-.394c.26-.277.313-.43.178-.513-.106-.066-.158-.299-.116-.517.054-.286-.022-.451-.27-.583-.383-.206-2.242-.24-2.944-.053-.634.168-1.276-.023-1.276-.38 0-.259-.14-.29-1.15-.256-.9.03-1.183-.018-1.295-.218-.099-.177-.179-.199-.258-.07-.148.24-.962.24-1.202.002a.44.44 0 0 1-.09-.43c.07-.186.013-.22-.237-.141-.182.058-.452.058-.6.002-.298-.113-.367-.647-.106-.809.34-.21.144-.343-.41-.278-.394.046-.603-.007-.665-.168-.06-.156-.255-.211-.58-.164-.268.04-.592-.014-.72-.12-.157-.13-.264-.137-.337-.019-.193.313-.725.181-1.296-.32-.31-.272-.593-.495-.63-.495-.036 0-.084.236-.106.524-.049.638-.328 1.024-.587.81-.101-.084-.559-.295-1.017-.468l-.833-.317.01.338c.015.503-.451.509-1.49.017-1.016-.48-1.618-.452-1.758.082-.069.264-.223.331-.763.331-.637 0-.671.024-.576.405.086.34.03.422-.343.516l-.444.111.51.323c.282.178.511.39.511.472 0 .193 1 .188 1.308-.007.153-.097.398-.067.691.085.25.13.596.235.77.235.173 0 .508.152.744.338.33.26.73.352 1.722.398 1.16.053 3.302.375 3.475.522.193.163-.592.718-1.014.718-.266 0-.709.16-.983.355-.38.27-.566.314-.775.184-.2-.125-.362-.108-.596.064-.21.154-.64.22-1.246.19-.615-.03-1.02.033-1.207.188-.224.186-.346.193-.597.036-.18-.112-.316-.128-.316-.037 0 .088-.16.245-.353.35-.369.196-1.434-.03-1.936-.414-.26-.198-.819-.145-1.127.107-.113.093-.207.105-.208.026-.003-.08-.101.041-.221.268-.193.362-.18.455.108.777.284.316.297.402.1.64-.125.15-.205.447-.178.658.04.298-.071.438-.495.629-.505.227-.511.238-.08.148.323-.067.602.004.913.235.385.284.49.3.75.11.353-.258.916-.044.916.348 0 .148.16.24.417.24.229 0 .46.114.513.252.06.155.167.197.283.11.321-.242 1.643-.197 2.051.07.305.2.364.346.28.693l-.105.44.265-.371c.23-.321.38-.362 1.12-.304.553.042.872.146.901.293.073.355.632.628 1.48.722 1.926.213 2.588.414 2.794.85.109.23.159.483.11.561-.12.194-.684.179-.808-.022-.064-.104-.277-.073-.578.082-.617.32-1.097.313-1.282-.018-.135-.241-.194-.24-.686.014-.454.235-.69.252-1.512.107-.972-.171-1.457-.118-1.457.16 0 .24-.66.168-.756-.08-.05-.13-.223-.195-.395-.15-.183.048-.425-.058-.602-.265-.315-.368-.793-.455-.966-.175-.058.094-.465.14-.914.105-.553-.043-.87.008-.998.163-.125.151-.366.194-.72.127-.362-.068-.797.015-1.37.262-.737.317-.81.39-.598.602.35.35.3.528-.234.834l-.474.272.398.313c.283.223.367.409.292.646-.08.255-.053.3.117.19.537-.342 1.32-.499 2.151-.43.694.058 1.051-.005 1.583-.276.711-.363 1.51-.333 1.51.057 0 .11.13.2.289.2 1.077-.005 1.393.074 1.47.367.07.27.142.287.568.126.39-.147.516-.138.632.05.119.192.261.156.812-.208.79-.524 1.256-.56 1.53-.121.151.241.254.276.417.14.351-.29.453.001.127.362-.472.521-.168.569.33.052.3-.312.472-.395.525-.255.056.146.225.085.571-.206.867-.73 1.118-.455.301.328-.35.335-.443.525-.32.648.125.122.37-.034.835-.53.695-.744 1.084-.8.77-.113-.225.494-.023.765.27.364.258-.353.75-.38.75-.041 0 .136-.079.247-.176.247-.097 0-.152.13-.121.288.073.382.501.37.558-.015.024-.167.068-.315.098-.33.03-.014.3-.162.6-.33.683-.38.84-.243.457.403-.368.624-.212.827.252.328.246-.264.398-.32.523-.196.125.126.068.291-.196.573-.435.463-.244.673.39.432.24-.091.636-.118.878-.06.479.114 1.06.62.898.782-.29.29.465.041.943-.311zm-2.552-.906c-.056-.09.014-.165.155-.165s.257.074.257.165c0 .09-.07.164-.155.164-.085 0-.2-.074-.257-.164zm-1.563-5.515c0-.136.074-.247.164-.247.09 0 .165.111.165.247s-.074.247-.165.247c-.09 0-.164-.111-.164-.247zm.772.142c-.153-.154.032-.389.307-.389.13 0 .237.111.237.247 0 .248-.347.339-.544.142zM30.95 60.06c-.144-.233.173-.55.406-.406a.45.45 0 0 1 .179.348c0 .277-.424.319-.585.058zm-8.382 13.05c-.051-.05-.184 0-.296.113-.161.163-.142.182.093.092.162-.062.253-.154.203-.204zm-2.227-4.476c0-.09-.13-.163-.288-.162-.246.003-.252.026-.041.162.31.201.329.201.329 0z" id="1677462931219-9626351_path4317" display="inline" fill="#212121" stroke-width=".165"></path></g></g></svg>