<svg width="99" height="108" xmlns="http://www.w3.org/2000/svg" viewBox="0 0 26.327 28.632"><title>firis race alchemic</title><g fill="#212121" class="nc-icon-wrapper"><g id="1677462931222-1673716_layer1" transform="translate(-23.284 -61.316)"><path d="M28.22 89.596c-.989-.821-1.828-1.66-1.744-1.744.05-.05.205.004.345.12.14.117.283.183.316.148.203-.215.576-1.376.47-1.464-.07-.059-.433-.341-.808-.628l-.68-.522-.186.74c-.103.406-.247.739-.321.739-.236 0-1.199-1.311-1.774-2.415-.5-.959-.556-1.201-.554-2.412.003-1.068.082-1.516.39-2.17l.388-.822.286.7c.158.384.338.699.401.699s.354-.247.647-.55c.526-.542.53-.559.328-1.316l-.205-.767-.54.523c-.297.288-.588.475-.648.415-.138-.138.917-1.453 1.975-2.462l.82-.782h8.485l-.461 1.03c-.254.565-.602 1.361-.774 1.769-.45 1.07-1.71 2.411-1.71 1.82 0-.085-.16-.424-.353-.752l-.352-.596-.626.61-.626.612.415.82.415.82.611-.597c.741-.724.865-.742.74-.112-.105.523.292 1.33.943 1.913.346.31 1.466 2.424 1.466 2.767 0 .094-.322-.145-.715-.531l-.716-.702-.235.38c-.752 1.215-.752 1.237-.059 1.947.352.36.692.655.755.655.064 0 .315-.34.56-.757.244-.417.5-.695.568-.618.068.077.3.575.516 1.107l.391.967.479-1.09c.263-.6.524-1.09.579-1.09.055 0 .277.333.493.74.216.407.442.74.501.74.06 0 .395-.293.746-.652l.637-.652-.3-.666c-.458-1.016-.607-1.066-1.24-.412-.305.314-.61.572-.678.572-.192 0 .677-1.83 1.157-2.437.994-1.258 1.17-1.58 1.17-2.148v-.585l.656.64c.36.352.685.608.72.569.036-.04.229-.396.429-.792l.363-.72-.62-.635-.62-.635-.407.697c-.224.383-.433.727-.465.765-.179.217-1.013-.917-1.564-2.127-.35-.77-.778-1.677-.95-2.016l-.313-.618H45.8l.916.99c1.214 1.31 1.824 2.123 1.692 2.254-.058.059-.323-.1-.588-.354l-.481-.461-.258.616c-.142.34-.258.667-.258.728 0 .061.288.392.64.736l.64.625.238-.715c.131-.393.306-.715.389-.715.25 0 .872 1.924.882 2.728.005.414-.113 1.118-.263 1.564-.409 1.217-1.824 3.363-2.218 3.363-.126 0-.406-1.116-.34-1.358.065-.243-.179-.114-.952.5l-.784.625.252.652c.322.83.31.819.611.569.14-.117.304-.163.363-.103.123.122.15.093-1.17 1.236l-.973.842-7.752-.005c-7.6-.006-7.761-.013-8.164-.348zm1.564-2.444l.303-.673-.638-.652c-.35-.36-.69-.653-.754-.653-.065 0-.247.337-.404.75l-.286.748.628.644c.346.353.678.613.738.576.06-.038.246-.37.413-.74zm14.924-.66a5.062 5.062 0 0 1-.082-.618c-.014-.204-.112-.37-.218-.37s-.227-.093-.27-.206c-.049-.13-.338.05-.789.49l-.712.695.37.76.368.759.695-.631c.382-.347.67-.743.638-.879zm-12.481.483l.433-.75-.725-.71-.724-.712-.412.803-.412.803.676.696c.372.383.689.68.704.658.015-.02.222-.375.46-.788zm9.805-1.33c-.214-.395-.41-.75-.436-.79-.027-.04-.377.251-.78.646l-.73.717.446.793.446.794.72-.721.721-.721zm-11.914-6.223c-.166-.367-.347-.668-.403-.668-.056 0-.372.222-.702.494l-.6.494.35.827.35.828.653-.654.653-.653zm13.611-.187l-.61-.597-.384.737-.384.737.63.647.631.648.364-.788.364-.787zm2.157-.289c-.579-.518-.624-.532-.833-.247-.49.67-.443 1.037.217 1.713l.63.645.299-.781.298-.781zm-18.268 1.39l.631-.551-.348-.683c-.383-.751-.568-.749-1.285.017-.36.385-.362.413-.098 1.085.149.38.315.689.37.687.054-.003.382-.251.73-.555zm8.58 6.553c-.321-1.025-1.2-2.926-1.76-3.807-.954-1.5-.982-2.084-.165-3.46.364-.613.746-1.381.849-1.707.102-.326.41-.945.683-1.376.47-.741.514-.77.797-.513.165.149.543.805.84 1.458.296.653.798 1.613 1.113 2.132.497.817.562 1.045.489 1.7-.054.472-.27 1.014-.577 1.443-.64.894-1.24 2.11-1.601 3.238-.345 1.077-.531 1.326-.667.892zm.755-3.32c.676-2.101.674-2.964-.015-5.062l-.54-1.646-.554 1.646c-.674 2.008-.666 3.216.038 5.31.251.746.479 1.357.505 1.357.027 0 .282-.722.566-1.605zm-6.675-8.225c-.401-.097-1.07-.692-1.07-.952 0-.105.172-.35.381-.548.553-.519 1.892-.506 2.39.023.462.493.45.62-.105 1.152-.443.425-.845.507-1.596.325zm3.039-.41l-.483-.529.44-.46c.612-.638 1.811-.658 2.43-.04.23.23.418.464.418.518 0 .054-.221.31-.492.568-.718.686-1.655.663-2.313-.057zm4.287.412c-.364-.134-.988-.736-.988-.954 0-.471.76-.906 1.585-.906.687 0 .896.077 1.265.462l.442.462-.542.526c-.529.512-1.111.647-1.762.41zm3.134-.372l-.538-.525.461-.481c.384-.4.594-.482 1.247-.482.645 0 .86.081 1.204.451.512.553.512.556.017 1.021-.245.23-.684.41-1.128.46-.648.072-.784.025-1.263-.444zm-13.176-.582c0-.498.07-.906.157-.906.151 0 .995.768.995.905 0 .159-.796.906-.965.906-.117 0-.187-.34-.187-.905zm16.82.524c-.452-.48-.449-.629.023-1.072.61-.572.771-.458.771.548 0 1.018-.204 1.153-.794.524zm-16.984-1.73c-.882-.082-1.317-.587-1.317-1.527 0-.65.073-.84.433-1.124.428-.336.571-.341 10.05-.341h9.615l.404.404c.508.508.551 1.518.09 2.088l-.315.389-9.192.082c-5.056.045-9.452.058-9.768.029zm2.963-3.306c-.408-.058-.84-.168-.963-.245-.129-.08-.377-.055-.595.062-.304.163-.468.15-.89-.068-.283-.146-.515-.335-.515-.418 0-.083-.224-.283-.497-.444-.644-.38-.923-1.273-.566-1.818.136-.207.318-.377.406-.377.087 0 .264-.253.394-.563.13-.31.43-.69.668-.847.368-.241.528-.255 1.075-.091 1.359.407 2.12 1.846 1.346 2.546-.624.565-2.003.122-2.003-.643 0-.14-.077-.209-.172-.15-.094.058-.123.266-.064.462.186.618 1.024 1.346 2.214 1.922.632.306 1.15.616 1.15.689 0 .073-.056.122-.124.11-.068-.012-.457-.07-.864-.127zm3.127.06c0-.054.185-.34.41-.635l.41-.538-.41-.385c-.502-.472-.549-1.23-.091-1.475a1.41 1.41 0 0 1 1.456.086c.47.33.46.228-.046-.519-.227-.333-.412-.776-.412-.983 0-.232-.126-.418-.325-.481-.491-.156-.992-.89-.992-1.453 0-.714.59-1.839 1.08-2.062.552-.252.952-.24 1.643.048.508.213.622.21 1.032-.025.283-.163.617-.224.864-.158.778.206.835.316.547 1.05-.219.557-.362.694-.813.779-.327.06-.723.312-.986.624-.378.45-.428.633-.362 1.325.053.548.196.917.45 1.16l.371.357-.283-.45c-.619-.98-.195-2.189.903-2.571.445-.156.455-.145.537.586.153 1.357 1.331 2.345 2.804 2.35.693.002 1.761-.35 1.761-.582 0-.046-.218.03-.485.169-.692.357-1.951.32-2.603-.078-1.561-.952-1.604-3.388-.07-3.97.23-.089 1.17-.196 2.086-.24 1.944-.091 2.523.063 4.13 1.102 1.224.792 1.716 1.478 1.716 2.395 0 .84-.757 2.058-1.46 2.35-.347.144-.516.327-.518.564-.005.691-.666 1.146-1.442.991-.389-.078-.5-.033-.568.226-.058.22-.289.362-.723.443-.625.118-7.598.09-7.84-.032-.067-.034.057-.224.275-.423.218-.198.446-.546.505-.773.092-.347.055-.326-.237.134-.332.524-.9.854-1.86 1.082-.25.06-.454.064-.454.011zm10.063-4.479c.205-.26.199-.267-.062-.062-.159.124-.288.254-.288.288 0 .136.135.048.35-.226z" id="1677462931222-1673716_path4481" display="inline" fill="#212121" stroke-width=".165"></path></g></g></svg>