<svg width="95" height="108" xmlns="http://www.w3.org/2000/svg" viewBox="0 0 25.357 28.74"><title>firis category flower</title><g fill="#212121" class="nc-icon-wrapper"><g id="1677462931220-8451575_layer1" transform="translate(-14.325 -62.978)"><path d="M22.867 91.285c-.237-.623.069-1.165.656-1.165.518 0 1.181-.478 1.181-.85 0-.319.333-.631.673-.631.152 0 .385-.167.517-.37.668-1.033.749-3.417.116-3.417-.09 0-.42-.255-.733-.568-.786-.786-1.531-.905-2.523-.403-.963.488-3.318.676-3.318.266 0-.267-.335-.447-.834-.447-.172 0-1-.23-1.838-.512-.839-.282-1.733-.51-1.988-.505-.866.015-.435-.505.876-1.055.873-.367 1.22-.594 1.187-.778-.056-.313.31-.522 1.198-.684.766-.14 3.071-.13 3.447.014.183.07.257-.003.257-.248 0-.294.099-.347.648-.347.885 0 1.307.185 2.466 1.086.924.717 1.66 1.767 1.66 2.368 0 .122.039.183.086.136.048-.048-.03-.671-.173-1.386-.143-.714-.331-1.67-.419-2.122a8.74 8.74 0 0 0-.55-1.669l-.393-.845-1.062-.007c-.584-.003-1.332-.119-1.663-.257-.331-.138-.836-.222-1.123-.186-.286.037-.932-.078-1.434-.254-.502-.177-1.044-.321-1.206-.321-.457 0-.348-.548.16-.807.688-.35 3.931-.444 4.673-.134l.586.245-.181-.39c-.224-.482-.523-.61-.924-.395-.478.256-1.187.194-1.892-.165-.355-.181-.736-.33-.846-.33-.11 0-.335-.166-.5-.37-.165-.204-.55-.46-.856-.57-.461-.165-.64-.155-1.055.06-.664.343-1.622.204-2.334-.339-1.161-.886-1.356-3.555-.26-3.555.155 0 .287-.092.294-.205.042-.747.438-2.094.824-2.802.62-1.14 1.745-1.69 3.414-1.67 1.013.011 1.186-.032 1.448-.365.163-.208.55-.425.86-.483a2.36 2.36 0 0 0 .99-.5c.5-.464.729-.484 1.536-.134l1.139.493c.296.127.62.411.72.631.111.244.274.365.417.31.363-.14.962.535 1.458 1.64l.45 1.003-.29.835c-.339.977-1.026 2.235-1.22 2.235-.074 0-.334.198-.576.44-.34.341-.418.543-.342.89.076.349-.013.575-.405 1.021-.62.706-.64 1.254-.085 2.203.23.393.442.714.47.714.027 0 .18-.553.34-1.23.306-1.298.651-1.82.922-1.393.112.176.15.127.152-.196.005-.911.2-1.461.517-1.461.17 0 .308.074.308.164 0 .091.109.165.241.165.272 0 .533-.828.712-2.26.1-.8.17-.95.447-.95.576 0 1.228 1.579 1.347 3.262.055.786.17 1.43.254 1.43.252 0-.035.99-.643 2.222-.37.748-.956 1.544-1.67 2.269-.708.72-1.082 1.227-1.05 1.426.027.17-.029.357-.124.416-.197.121-.205 1.748-.015 2.968.07.452.138.725.15.606.035-.34.86-1.347 1.104-1.347.12 0 .28.108.354.241.11.195.261.126.786-.355.817-.748 1.67-1.127 3.089-1.374 1.208-.21 1.69-.13 1.544.253-.102.265.09.329 1.459.486.81.093 2.674.617 3.155.886.46.257-2.249 1.71-4.048 2.173-.44.113-.65.235-.53.31.336.207.03.634-.523.727-.288.049-1.042.197-1.676.328-.634.132-1.59.292-2.125.355-.876.104-1.06.198-1.864.958-.49.464-1.029 1.143-1.197 1.508-.367.796-1.76 2.54-2.222 2.783-.18.095-.52.299-.754.452-.234.154-.704.271-1.046.262-.503-.014-.65-.096-.778-.433zm5.76-7.626c.289-.52.489-.947.444-.947-.107 0-1.07 1.688-1.073 1.88-.002.2.02.166.63-.933zm2.155-.187c.304-.266 1.872-.849 3.151-1.172l.895-.226-.823.085c-1.174.122-2.827.686-3.344 1.141-.243.214-.374.392-.29.395.083.003.268-.097.411-.223zm-5.737-.892c-.387-.27-1.677-.727-1.776-.628-.044.045 1.906.884 2.094.9.045.004-.098-.118-.318-.272zm-6.622-1.114c.03-.025-.023-.181-.119-.346-.14-.241-.175-.25-.18-.044-.002.14-.208.337-.457.436-.436.174-.431.178.123.09.317-.049.602-.11.633-.136zm18.545.012c.34-.116-2.487-.045-2.88.073-.227.067.292.09 1.152.052.86-.038 1.638-.095 1.728-.125zm-4.856-.083c.136-.087.173-.16.082-.16-.09 0-.275.073-.411.16-.136.088-.173.16-.082.16.09 0 .275-.072.411-.16zm-9.836-.602a.635.635 0 0 0-.411 0c-.114.045-.021.083.205.083.227 0 .32-.038.206-.083zm-.744-.155c-.055-.055-.197-.061-.316-.013-.13.052-.092.091.1.099.173.007.27-.032.216-.086zm1.526-.33c0-.036-.111-.065-.247-.065s-.247.072-.247.16c0 .087.111.116.247.064.136-.052.247-.124.247-.16zm1.482-4.095c0-.12-1.275-.744-1.517-.742-.116.003.159.18.611.399.97.467.906.443.906.343zm.475-.291c-.244-.462-.805-1.193-.805-1.048 0 .136.844 1.418.933 1.418.037 0-.021-.166-.128-.37zm1.779-.244c-.042-.16-.079-.069-.082.203-.004.271.03.402.076.29.045-.11.047-.333.006-.493zm-4.353-.325a2.347 2.347 0 0 0-.741 0c-.204.04-.037.071.37.071.408 0 .574-.032.37-.071zm7.622-.62c.334-.8.285-.938-.091-.252-.328.6-.393.824-.239.824.05 0 .199-.257.33-.571zM27.483 74c.157-.097.166-.169.034-.25-.186-.116-.685.838-.66 1.261.007.116.1-.033.21-.332.107-.299.295-.604.416-.68zm-3.445.303c-.1-.19-.225-.302-.276-.251-.05.05.003.205.116.343.296.357.376.31.16-.092zm4.123.014c0-.09-.032-.165-.072-.165-.04 0-.119.074-.175.165-.056.09-.023.164.073.164s.174-.074.174-.164zm-4.844-1.012c1.097-.583 1.854-1.215 2.04-1.704.106-.277.005-.389-.634-.699-.418-.202-.845-.37-.95-.37-.104 0-.503-.263-.885-.582-.468-.39-.796-.549-1.003-.483-.37.118-.406-.132-.062-.418.276-.229.34-.988.083-.988-.09 0-.146.086-.124.191.023.106-.107.235-.288.289-.18.053-.328.208-.326.344.004.27.531 1.094.659 1.028.321-.167 1.231.655 1.231 1.113 0 .227-.153.289-.74.3-.646.014-.768-.04-.965-.431-.124-.246-.189-.558-.145-.694.064-.195.036-.205-.131-.048-.116.11-.226.443-.243.741-.018.298-.158.825-.31 1.171-.36.812-.232 1.174.524 1.487.879.365 1.177.333 2.269-.247zm-5.468-.717c.269-.269.929-.338.929-.097 0 .286.626-.018 1.151-.56.403-.416.493-.611.375-.821-.138-.247-.21-.228-.693.178-.422.356-.597.416-.81.278-.148-.097-.26-.295-.247-.44.015-.172-.107-.266-.343-.266-.558 0-.64-.202-.222-.544.324-.266.33-.291.048-.18-.18.073-.828.138-1.439.146-1.001.014-1.66.249-1.407.503.052.052.454.223.894.38.475.17.82.401.853.57.047.245-.037.27-.606.18-.594-.096-.653-.075-.579.208.163.623 1.616.945 2.096.465zm10.806-.155c0-.04-.074-.118-.165-.174-.09-.056-.164-.023-.164.073 0 .095.074.174.164.174.091 0 .165-.033.165-.073zm-8.395-1.985c0-.136-.075-.247-.165-.247-.09 0-.165.111-.165.247s.074.247.165.247c.09 0 .165-.111.165-.247zM26.115 70c.053-.166.277-.42.5-.566.938-.615 1.668-2.381 1.316-3.185-.428-.98-1.208-1.137-1.712-.347-.151.237-.628.76-1.06 1.162-.43.402-.784.773-.784.824 0 .052.239.093.53.093.369-.003.549.083.587.277.064.321-.698.529-1.981.538-.43.003-.782.058-.782.122 0 .063.315.257.7.43.384.174.869.466 1.076.65.486.433 1.473.434 1.61.003zm-8.436-.236c.06-.06.028-.205-.07-.324-.226-.272-.035-1.497.26-1.667.117-.068.241-.271.275-.453a.506.506 0 0 1 .418-.38c.196-.028.445-.157.553-.288a.727.727 0 0 1 .489-.237c.16 0 .337-.12.393-.265.066-.172.221-.235.439-.178.458.12.322-.24-.19-.501-.636-.325-1.8-.248-2.538.167-.907.51-1.234 1.23-1.234 2.717 0 1.09.033 1.212.37 1.347.458.185.695.202.835.062zm2.91-.386c-.32-.206-.494-.206-.494 0 0 .09.167.164.37.162.3-.002.323-.033.124-.162zm-1.284-.658c.184 0 .296-.122.296-.321 0-.5 1.093-1.239 1.88-1.269.917-.035.919-.035.919-.218 0-.238-2.342-.128-2.606.122-.12.114-.285.166-.366.117-.08-.05-.194.097-.251.327-.066.26-.221.419-.412.419-.205 0-.275.081-.21.249.052.137.01.352-.095.478-.145.174-.14.247.023.306a.397.397 0 0 0 .37-.066c.085-.08.289-.144.452-.144zM24 67.962c-.055-.055-.196-.06-.315-.013-.132.052-.093.091.1.1.173.006.27-.032.215-.087zm-1.766-.23c0-.09-.078-.165-.174-.165-.096 0-.129.075-.073.165.056.09.134.165.174.165.04 0 .073-.074.073-.165zm2.837-1.375c.568-.61.814-1.156.678-1.51-.12-.312-.908-.737-1.367-.737-.19 0-.337-.107-.337-.246 0-.35-.39-.307-.741.082-.164.18-.505.33-.757.33-.646 0-1.33.633-1.2 1.11.097.35.563.484 1.34.383.113-.015.208.106.211.268.009.435.475-.42.482-.884.01-.536.179-.878.435-.878.303 0 .302.864 0 1.45-.199.385-.336 1.149-.28 1.559.03.22 1.032-.385 1.537-.927z" id="1677462931220-8451575_path3002" display="inline" fill="#212121" stroke-width=".165"></path></g></g></svg>