<svg width="52" height="87" xmlns="http://www.w3.org/2000/svg" viewBox="0 0 13.836 23.197"><title>firis synthesis</title><g fill="#212121" class="nc-icon-wrapper"><g id="1677809791896-3825377_layer1" transform="translate(-119.739 -115.736)"><path d="M119.75 138.495c-.15-.395 1.14-3.195 3.596-7.798l1.334-2.501v-7.037H128.649v3.784c0 2.08.103 3.896.23 4.035.62.677 4.819 9.205 4.693 9.532-.22.573-13.601.558-13.821-.015zm11.28-4.847c0-.117-.108-.325-.24-.463-.133-.139-.787-1.303-1.456-2.588l-1.215-2.336v-6.864l-1.52.08-1.522.08-.133 3.703-.132 3.704-1.188 2.25a174.899 174.899 0 0 0-1.279 2.447c-.05.109 1.884.198 4.297.198s4.388-.095 4.388-.211zm-7.144-13.384c0-.44.779-.675 2.381-.715 1.729-.044 2.397-.294 3.02-1.13l.552-.743-.585-.476c-1.338-1.086-4.971-.802-4.971.388 0 .414.2.544.926.6.832.063.879.033.46-.297-.779-.613.065-1.074 1.584-.866 1.39.19 1.804.469 1.577 1.059-.286.746-2.1 1.067-4.288.76-2.126-.298-2.772-.628-2.772-1.415 0-1.127 3.834-2.03 6.68-1.571 1.996.321 2.948.961 3.057 2.056.072.716-.041.86-1.058 1.335-.626.293-1.972.61-2.991.706-1.019.095-1.965.286-2.103.424-.386.385-1.469.3-1.469-.115z" id="1677809791896-3825377_path1751" fill="#212121" stroke-width=".265"></path></g></g></svg>