<svg width="39" height="42" xmlns="http://www.w3.org/2000/svg" viewBox="0 0 10.388 11.161"><title>firis resist slash</title><g fill="#212121" class="nc-icon-wrapper"><g id="1677462931224-5326525_layer1" transform="translate(-52.28 -75.566)"><path d="M61.79 86.727c-.026-.003-.226-.12-.444-.26-.219-.142-.303-.259-.188-.261.115-.003.078-.153-.082-.335-.16-.182-.52-.718-.8-1.19l-.51-.86h-.71c-.392 0-.917.186-1.169.414l-.457.414-.17-.273-.168-.273 1.574-.794c.865-.437 2.018-1.096 2.56-1.465.543-.368 1.09-.67 1.215-.67s.228.12.228.265c0 .146-.138.265-.306.265-.167 0-.744.475-1.28 1.056.039.246.033.301.167.536l.454.952.454.952c.25.439.234.206.446.248l.018.202c.012.14-.14.436-.37.665-.228.229-.436.414-.462.412zm-6.342-.525c-.244 0-.971-.506-1.617-1.125-.645-.618-1.258-1.463-1.362-1.876l-.189-.751.304-1.014c.167-.557.82-1.583 1.449-2.278l1.145-1.265.475.725.475.724-.538.586c-.296.322-.789 1.002-1.095 1.511-.305.51-.556 1.224-.556 1.588 0 .364.248 1.078.552 1.587.303.51.742 1.075.975 1.257l.425.33zm.183-1.852c-.073 0-.29-.378-.484-.84l-.353-.838.224-.781a6.22 6.22 0 0 1 .636-1.41c.227-.346.529-.63.67-.63.143 0 .26.105.26.233s-.173.375-.384.55c-.21.175-.519.73-.685 1.231l-.3.913.273.786c.15.432.215.786.143.786zm3.538-1.651l-.457.1-1.48-2.293c-.813-1.261-1.543-2.46-1.621-2.664l-.316-.628 1.22.095c.452.036.377.31.56.492l2.462 4.122c-.765-1.411-.152-.205-2.297-4.233-.237-.445-.361-.44-.06-.864l.48-.678-.264.231c-.106.093-.204.245-.271.347l-.313.48h-1.524l.286-.82.285-.82.822.165c.452.09.957.31 1.124.489.166.178.915 1.506 1.665 2.95l1.363 2.625-.339.216c-.186.119-.486.162-.666.096-.18-.066-.3.018-.265.186.035.168-.143.35-.394.406zm.192-4.707c-.145 0-.086-.116.133-.257.218-.141.516-.256.661-.256.146 0 .086.115-.132.256-.218.141-.516.257-.662.257zm-.447-.786c-.1 0-.261-.127-.357-.282-.096-.155-.127-.33-.068-.389.058-.058.814-.174 1.68-.258l1.574-.151-1.323.54c-.728.297-1.406.54-1.506.54z" id="1677462931224-5326525_path19367" fill="#212121" stroke-width=".265"></path></g></g></svg>