<svg width="117" height="110" xmlns="http://www.w3.org/2000/svg" viewBox="0 0 31.026 29.282"><title>firis race spirit</title><g fill="#212121" class="nc-icon-wrapper"><g id="1677462931223-2736721_layer1" transform="translate(-26.386 -68.434)"><path d="M31.617 97.565c0-.256.95-.964 2.606-1.943a29.088 29.088 0 0 0 2.968-2.063c1.407-1.148 2.432-1.77 2.917-1.77.15 0 .764-.321 1.364-.714.601-.393 1.593-.923 2.206-1.178.612-.255 1.087-.49 1.055-.52-.176-.177-2.857.976-3.773 1.622-.556.391-.579.159-.065-.654.45-.71 1.514-1.723 2.575-2.449.75-.512 3.474-1.868 3.754-1.868.084 0 .348-.154.586-.342.911-.717.224-1.798-1.143-1.798-.39 0-.754.074-.81.164-.059.095.096.165.365.165.537 0 1.199.407 1.199.738 0 .38-.773.861-2.092 1.305-.813.273-1.534.656-2.04 1.083-.431.363-.822.66-.868.66-.047 0-.108-.352-.136-.782-.049-.769-.06-.782-.626-.807-.317-.014-.415.009-.218.05.213.046.427.278.531.575.217.624.04 1.076-1.118 2.847-.692 1.06-1.024 1.402-1.757 1.81-.497.278-1.253.808-1.681 1.178-.428.37-1.452 1.09-2.276 1.6-.824.51-1.592 1.04-1.707 1.179-.332.398-.546.3-.422-.194.105-.42 1.32-2.944 1.74-3.618.16-.258.08-.543-.482-1.703-.372-.766-.676-1.412-.676-1.435 0-.023.174-.042.387-.042.32 0 .466.188.854 1.1.394.927.494 1.054.642.812.096-.157.549-.819 1.007-1.47.457-.65.929-1.531 1.048-1.958.205-.734.194-.813-.205-1.494-.445-.76-.912-1.243-.968-1.002-.018.08-.036.805-.04 1.613l-.009 1.468-.74.191c-.408.105-1.23.237-1.829.293l-1.088.101-.107-1.4c-.06-.77-.265-2.08-.458-2.913-.547-2.368-.546-2.31-.047-3.065.446-.673.45-.697.18-1.26-.15-.316-.273-.636-.273-.712 0-.075.512-.1 1.137-.055 1.183.084 2.32-.047 2.32-.269 0-.07-.723-.123-1.605-.117-1.974.013-2.417-.172-2.262-.945.152-.754.873-2.204 1.395-2.805.247-.284.5-.793.562-1.13.175-.957 1.025-1.474 3.579-2.176.75-.206.948-.334 1.031-.664.135-.539 1.089-1.478 1.943-1.914.375-.192 1.1-.386 1.612-.433.798-.072 1.137 0 2.419.512 1.851.741 2.764.786 3.495.17.5-.421.506-.422.506-.065 0 .518-1.014 1.475-1.588 1.498-.258.01-1.507.006-2.774-.01-1.723-.022-2.471.033-2.963.22l-.659.25.741-.115c1.234-.194 3.323-.096 4.366.203 1.73.498 3.122 1.6 3.867 3.06.326.638.355.654 1.207.654.726 0 .94-.072 1.272-.425.338-.36.407-.621.458-1.736.07-1.522.236-1.598.844-.384.334.667.41 1.062.412 2.159.002 1.256-.03 1.383-.506 1.975-.28.348-.719.736-.976.862-.606.297-2.108.268-3.027-.058-.995-.353-1.068-.172-.103.255.52.23 1.378.397 2.536.492.962.08 1.976.185 2.254.233.986.17 2.047 1.715 2.047 2.98 0 .342.223 1.054.515 1.649.432.877.502 1.18.435 1.88-.167 1.737-1.801 3.07-3.979 3.245-1.137.091-1.263.017-.816-.478.15-.165.306-.658.348-1.095.19-1.989-1.533-3.348-4.539-3.578-4.009-.307-4.687-.543-4.77-1.655-.054-.732.544-1.852 1.839-3.442.418-.514.76-1.059.76-1.212 0-.408-.447-.976-.989-1.257-.706-.365-.782-.298-.146.13 1.024.687.866 1.226-1.185 4.047-.331.456-.553.986-.605 1.45-.147 1.304.732 1.86 3.337 2.114 3.65.354 5 .887 5.693 2.247.4.782.316 1.398-.287 2.114-.225.268-.385.615-.356.77.089.46 1.693.99 3.546 1.172 1.99.196 2.51.48 2.942 1.61.356.933.202 1.473-.567 1.991-.627.423-2.001.964-2.852 1.124l-.579.108.017-.741c.02-.934-.434-1.462-1.613-1.873-1.184-.414-4.718-.406-6.1.013-1.185.36-2.741 1.127-3.057 1.508-.202.243-.19.31.092.524.258.196.655.226 1.969.15 1.496-.086 3.518-.507 3.331-.694-.041-.042-.275 0-.52.093-.586.223-3.066.41-3.614.272-.602-.151-.54-.37.215-.755 1.898-.968 5.463-1.381 7.304-.846.994.288 1.762.98 1.762 1.586 0 .902-1.013 2.026-2.305 2.557-.957.393-5.277.3-7.325-.158-2.597-.581-2.873-.594-3.756-.179-1.031.485-1.28.928-.75 1.336.215.165.63.347.924.404.831.162.457.397-.632.397-.636 0-1.13-.095-1.398-.271-.47-.308-.89-1.031-.89-1.531 0-.186-.03-.338-.066-.338-.382 0-2.626.844-3.762 1.415-.792.398-1.44.657-1.44.575zm8.79-11.444c-.28-.122-.67-.445-.864-.718-.66-.928-.36-3.198.55-4.147.885-.924 1.182-2.527.578-3.13-.562-.563-1.166-.321-1.97.79-.282.389-.857.926-1.279 1.193-.816.518-.839.591-.095.312.753-.282 1.698-1.002 1.698-1.293 0-.52.499-1.024.962-.97.916.106.993 1.486.143 2.556a9.21 9.21 0 0 0-.685 1.033c-.177.317-.455.72-.618.897-.2.214-.243.374-.132.485.091.091.166.392.167.668.002 1.382.742 2.565 1.596 2.553l.46-.006zm-4.599-3.431c-.152-.767-.336-1.49-.409-1.608-.107-.174-.4-.159-1.55.082-.778.164-1.456.362-1.504.44-.122.198-.053.188 1.433-.191 1.402-.358 1.626-.33 1.626.197 0 .443.528 2.627.614 2.54.037-.036-.057-.693-.21-1.46zm.677-2.077c-.05-.081.02-.46.154-.844.136-.383.241-.854.235-1.047-.006-.213-.092-.092-.219.31-.115.361-.334.899-.487 1.193-.272.521-.27.535.064.535.189 0 .303-.066.253-.147zm-5.195 3.07a451.02 451.02 0 0 0-1.152-2.512 42.35 42.35 0 0 1-.676-1.51c-.037-.105-.432-.439-.877-.74-.908-.614-.84-.445-1.74-4.303-.292-1.25-.496-2.308-.454-2.35.042-.042.93 1.06 1.971 2.448l1.895 2.524-.15.99c-.147.974-.136 1.019.655 2.707.728 1.552 1.355 3.658 1.151 3.862-.044.044-.324-.458-.623-1.115z" id="1677462931223-2736721_path2698" display="inline" fill="#212121" stroke-width=".165"></path></g></g></svg>