<?xml version="1.0" encoding="UTF-8"?>
<svg width="28.667mm" height="19.293mm" version="1.1" viewBox="0 0 28.667 19.293" xmlns="http://www.w3.org/2000/svg">
 <g transform="translate(-1.0583 -7.4083)">
  <path d="m13.758 26.614c-1.2223-0.07951-2.3705-0.21172-2.5516-0.29385-0.18108-0.0821-0.55147-0.18518-0.82309-0.22905-1.8385-0.297-5.3501-1.6738-5.3501-2.0976 0-0.05972-0.23209-0.15497-0.51578-0.21169-0.30972-0.061939-0.78655-0.39142-1.1935-0.82463-0.37274-0.3968-0.77825-0.82262-0.90114-0.94626-0.1229-0.12367-0.48011-0.48411-0.79378-0.801l-0.57031-0.57616 0.05297-1.6536 0.053022-1.6535 0.6173-0.63521c0.33954-0.34933 0.61733-0.69109 0.61733-0.75943 0-0.23749 2.0666-1.2584 3.4573-1.7078 0.76941-0.24871 1.4835-0.52189 1.5868-0.60706 0.2223-0.18322 2.8261 0.0026 2.9547 0.2091 0.04778 0.07728-0.09835 0.14052-0.3247 0.14052-0.22635 0-0.45257 0.06641-0.50274 0.14756-0.12607 0.20399-1.3701 0.84016-1.6429 0.84016-0.12261 0-0.34428 0.18518-0.49257 0.41153-0.14833 0.22635-0.34221 0.41153-0.4309 0.41153-0.21228 0-1.3101 1.2208-1.5995 1.7786-0.32229 0.62119-0.11983 1.8904 0.40013 2.5083 0.2254 0.26786 0.4958 0.48906 0.60092 0.4916 0.10515 0.0026 0.48056 0.22357 0.83428 0.49123 0.35372 0.26768 0.9081 0.53636 1.2319 0.59711 0.32388 0.06077 1.1827 0.32748 1.9085 0.59267 0.72578 0.26522 1.8011 0.53922 2.3896 0.60891 0.58851 0.06967 1.1996 0.18246 1.3581 0.25064 0.2014 0.08668 0.28808 0.04969 0.28808-0.12295 0-0.2073 0.3234-0.24313 2.0166-0.22339 1.1091 0.01297 2.6085-0.06411 3.332-0.17121 1.0855-0.16071 1.3743-0.26858 1.6524-0.6173 0.18534-0.23241 0.44699-0.42259 0.58145-0.42259 0.31927 0 1.9011-1.0448 2.581-1.7047 0.33237-0.32261 0.53393-0.68032 0.53501-0.94959 0.0029-0.68556-0.4476-1.7785-0.9852-2.3908-0.27204-0.30983-0.49747-0.65334-0.50099-0.76338-0.0066-0.2118-1.3996-0.94842-1.7844-0.94364-0.12478 0.0026-0.62458-0.22471-1.1106-0.50282-0.77158-0.44146-0.8622-0.54594-0.71387-0.82309 0.20357-0.38039 0.43114-0.38878 1.7222-0.06331 0.54324 0.13695 1.2099 0.29062 1.4816 0.3415 0.27162 0.05091 0.51856 0.15994 0.54872 0.2423 0.03019 0.08239 0.12869 0.14978 0.21889 0.14978 0.09022 0 0.91742 0.36872 1.8382 0.81942 1.8794 0.9199 3.8965 2.6097 3.8965 3.2643 0 0.19849-0.07408 0.36089-0.16462 0.36089-0.09054 0-0.16544 0.24077-0.16645 0.53501-0.0045 1.3407-0.18021 1.7268-1.3763 3.0249-1.2578 1.3651-2.4041 2.2017-3.0165 2.2017-0.25855 0-0.37931 0.09641-0.37931 0.30282 0 0.30126-0.6105 0.6849-1.0899 0.6849-0.13822 0-0.80386 0.1855-1.4792 0.41219-1.1381 0.38206-3.2797 0.76814-5.2502 0.94652-0.4527 0.04098-1.8231 0.0093-3.0454-0.07006zm0.74078-4.5986c-0.54324-0.070724-1.6544-0.19727-2.4693-0.28125-1.431-0.14748-2.3112-0.44783-2.7058-0.92332-0.10388-0.12517-0.61169-0.43048-1.1285-0.67844-0.51678-0.24799-1.1063-0.60142-1.31-0.78542-0.42529-0.38412-0.48395-0.8568-0.12345-0.99512 0.15563-0.05972 0.24691-0.31186 0.24691-0.68196 0-0.74234 0.64452-1.3355 2.7281-2.5108 0.42791-0.24138 0.89345-0.11366 0.89345 0.24508 0 0.18986 0.11864 0.22619 0.49387 0.15113 0.27162-0.05432 0.49384-0.073 0.49384-0.04149 0 0.03148-0.15293 0.40296-0.33986 0.8255-0.57502 1.2999-0.05143 2.2167 1.4105 2.4697 4.0499 0.70112 7.1602 0.07668 7.1602-1.4375 0-0.27228-0.18013-0.80235-0.40026-1.178l-0.40024-0.68297 1.4957-0.40005 0.86561 0.73954c0.8242 0.70414 1.4023 1.5781 1.4023 2.1201 0 0.42889 0.19026 0.77052 0.42913 0.77052 0.39912 0 0.24627 0.39005-0.41928 1.07-0.94168 0.96205-1.5818 1.4086-2.3625 1.6481-0.38105 0.11687-0.90816 0.32634-1.1714 0.46543-0.52607 0.27808-2.9927 0.32507-4.7892 0.09126zm-7.1198-4.0116c-0.10798-0.56489-0.20566-0.52303-0.20566 0.08808 0 0.27697 0.064135 0.46392 0.14253 0.41548 0.078396-0.04845 0.10681-0.27506 0.06313-0.50356zm7.6055-0.41595c-1.0977-0.15864-1.4555-0.40534-1.9765-1.3627-0.47395-0.8708-0.47667-1.3173-0.0172-2.8346 0.13708-0.4527 0.40963-1.3787 0.60566-2.0577 0.19608-0.67905 0.42087-1.3587 0.49959-1.5103 0.07871-0.15161 0.23352-0.76613 0.34398-1.3656 0.17621-0.95636 0.24257-1.084 0.54136-1.0413 0.22426 0.032067 0.3566 0.18923 0.38751 0.46024 0.06522 0.57174 0.53128 1.8427 0.78478 2.14 0.11576 0.13581 0.33092 0.72842 0.47808 1.3169 0.14719 0.58851 0.40325 1.4034 0.56904 1.8108 0.35023 0.86066 0.58634 2.7985 0.34097 2.7985-0.08914 0-0.16208 0.17134-0.16208 0.38076 0 0.42119-0.72131 1.1846-1.2346 1.3068-0.18108 0.04308-0.70332 0.02434-1.1605-0.0418zm0.69916-1.4468c0.12377-0.07869-0.07533-0.22331-0.53499-0.38862-0.68363-0.24582-0.73218-0.24463-0.73218 0.01799 0 0.15476 0.0494 0.33078 0.10972 0.39113 0.14835 0.14835 0.91308 0.13473 1.1574-0.02064zm0.81724-1.2277c-0.04567-0.11316-0.083-0.02064-0.083 0.20577 0 0.22635 0.03733 0.31896 0.083 0.20579 0.04567-0.11319 0.04567-0.29837 0-0.41156zm-2.1366 0.01032c-0.05255-0.13131-0.09155-0.09231-0.09946 0.09946-0.0071 0.17351 0.03175 0.27077 0.08647 0.21606 0.05469-0.05469 0.06054-0.19669 0.01296-0.31552zm8.283 1.8319c0-0.09588 0.07408-0.12856 0.16462-0.0726 0.09054 0.05596 0.1646 0.13441 0.1646 0.17433 0 0.03993-0.07406 0.0726-0.1646 0.0726-0.09054 0-0.16462-0.07848-0.16462-0.17433zm-0.98772-1.0603c-0.11433-0.13772-0.13213-0.24691-0.0403-0.24691 0.09054 0 0.25683 0.1111 0.36954 0.24691 0.1143 0.13774 0.13213 0.24694 0.0403 0.24694-0.09054 0-0.25683-0.11112-0.36954-0.24694z" style="fill:#00aad4;stroke-width:.16462"/>
 </g>
</svg>
