<?xml version="1.0" encoding="UTF-8"?>
<svg width="16.364mm" height="15.829mm" version="1.1" viewBox="0 0 16.364 15.829" xmlns="http://www.w3.org/2000/svg">
 <g transform="translate(13.494 2.1167)">
  <path d="m-0.60577 10.646c-1.7999-1.7648-3.3601-3.2087-3.4671-3.2087-0.10702 0-0.49517-0.35719-0.86252-0.79375-0.71924-0.85479-1.5116-1.0899-1.2339-0.36608 0.13375 0.34854 0.071041 0.37962-0.33904 0.16804-0.53718-0.27718-1.1876-0.15483-1.4686 0.27625-0.25101 0.3851-1.0189-1.2425-1.0189-2.1597 0-0.43164 0.14883-0.84955 0.33073-0.92866 0.1819-0.07911 0.030083-0.082867-0.33734-0.0082-0.43892 0.089032-0.98348-0.078422-1.5875-0.48824-0.72996-0.49522-0.91887-0.79838-0.91673-1.4712 0.0026-0.56563-0.14634-0.89482-0.44535-0.98973-0.3859-0.12248-1.5417-2.0586-1.5417-2.5825 0-0.41532 1.8359-0.16177 2.1678 0.2994 0.19016 0.26424 0.55409 0.55816 0.80875 0.65315 0.36258 0.13526 0.46302 0.031009 0.46302-0.48043 0-0.36602 0.1542-0.65318 0.35076-0.65318 0.53922 0 1.5013 1.1554 1.5013 1.803 0 0.31803 0.10962 0.57825 0.24355 0.57825 0.13396 0 0.32202 0.35719 0.41791 0.79375 0.15962 0.72681 0.26741 0.79391 1.2778 0.7955 0.65574 0 1.4255 0.21503 1.8972 0.52742 0.5675 0.37584 0.66178 0.52618 0.33073 0.52745-0.5501 0.00265-0.63741 1.0357-0.13229 1.566 0.26982 0.28329 0.22109 0.31411-0.26458 0.1674-0.33277-0.10054-0.59531-0.066305-0.59531 0.077602 0 0.14163 1.6966 2.0093 3.7703 4.1503 3.8237 3.948 4.3313 4.5478 4.0696 4.8095-0.080354 0.08033-1.6187-1.2978-3.4186-3.0626zm-6.538-5.0833c0-0.12398 0.20836-0.14944 0.46302-0.056568 0.40891 0.14912 0.40193 0.094059-0.059849-0.47133-0.89392-1.0944-1.2719-1.3438-1.4936-0.98515-0.10758 0.17407-0.085778 0.52163 0.048419 0.7724 0.16364 0.30578 0.14213 0.48988-0.065299 0.55904-0.17013 0.0567-0.2286 0.23373-0.12994 0.39338 0.19902 0.32202 1.2372 0.1443 1.2372-0.21177zm1.7369-1.5372c-0.080513-0.13025 0.031512-0.30512 0.24895-0.38857 0.52612-0.20188 0.50146-0.81097-0.051038-1.2604-0.39092-0.318-0.42484-0.30557-0.27289 0.09988 0.19934 0.53192 0.087683 0.56843-0.60494 0.19772-0.78954-0.42254-0.94861 0.22804-0.22924 0.93747 0.62034 0.61177 1.1924 0.8722 0.90916 0.41389z" style="fill:#00aad4;stroke-width:.26458"/>
 </g>
</svg>
