<?xml version="1.0" encoding="UTF-8"?>
<svg width="19.857mm" height="19.261mm" version="1.1" viewBox="0 0 19.857 19.261" xmlns="http://www.w3.org/2000/svg">
 <g transform="translate(12.965 6.8792)">
  <path d="m-9.0016 11.855c-0.24789-0.43328-0.3452-0.78777-0.21627-0.78777 0.12896 0 0.31885-0.26593 0.42201-0.59095l0.18756-0.59097 0.21863 0.59097c0.12023 0.32501 0.35997 0.59095 0.53274 0.59095 0.20844 0 0.17841 0.15579-0.089244 0.46302-0.22185 0.25466-0.44865 0.60915-0.50403 0.78777-0.055377 0.17859-0.3035-0.02977-0.55139-0.46302zm-2.4598-0.78835c-0.10298-0.46892-0.44969-0.94263-0.83928-1.1468l-0.66384-0.34782 0.67829-0.44442c0.37304-0.24442 0.78812-0.83074 0.92236-1.3029l0.2441-0.85852 0.19664 0.87783c0.10814 0.48279 0.47707 1.0615 0.81981 1.2861l0.62315 0.4083-0.65982 0.51903c-0.3629 0.28546-0.65982 0.74147-0.65982 1.0134 0 0.84156-0.47649 0.83857-0.66159-0.0042zm17.084 0.19643c-0.00979-0.25606-0.25294-0.66683-0.54017-0.91279-0.51999-0.44521-0.51999-0.44932 0-0.93377 0.28723-0.2676 0.52692-0.69027 0.53261-0.93927 0.00556-0.249 0.17857-0.065775 0.38412 0.40717 0.20555 0.47294 0.52832 0.86368 0.71723 0.86831 0.25135 0.00609 0.23569 0.094906-0.05842 0.33073-0.22106 0.17727-0.54044 0.61997-0.70969 0.98377-0.22789 0.48974-0.31242 0.5406-0.32568 0.19584zm-11.527-1.5153-4.2333-1.5352-0.07366-3.7734c-0.10708-5.4856 0.6254-7.182 3.4268-7.9363 0.99822-0.26879 1.4237-0.17685 5.6104 1.2122 2.4916 0.82669 4.8531 1.6695 5.2477 1.8729 1.0259 0.5289 1.3112 1.8185 1.216 5.4968l-0.081386 3.1456-3.4304 1.5507c-1.8867 0.85288-3.4345 1.5397-3.4396 1.5263-0.00503-0.01349-1.9142-0.71527-4.2425-1.5597zm3.8804-1.6545c-0.085196-2.1048-0.27167-2.5688-1.0362-2.5782-0.23871-0.00291-0.33073 0.61558-0.33073 2.2229 0 2.2394 0.094139 2.4631 1.0583 2.5153 0.32914 0.01773 0.38179-0.35086 0.30856-2.16zm3.6807 1.0992c1.3712-0.5946 2.6418-1.2045 2.8237-1.3553 0.33303-0.27615 0.49662-4.4428 0.17444-4.4428-0.21807 0-5.2083 2.1705-5.5323 2.4063-0.21947 0.1597-0.24405 4.4729-0.0254 4.4729 0.036592 0 1.1884-0.48649 2.5596-1.0811zm-5.7496-1.7325c-0.04101-1.2565-0.13795-2.3479-0.21545-2.4254-0.077497-0.077496-0.14089 0.17433-0.14089 0.55962 0 1.1064-1.1332 1.256-2.1482 0.2835-0.48128-0.46109-0.74319-0.93999-0.66908-1.2234 0.066966-0.25612 9e-3 -0.5353-0.12859-0.62042-0.15235-0.094139-0.22032 0.76036-0.17362 2.1822l0.076782 2.3369 1.5875 0.57997c0.87312 0.31898 1.6547 0.58706 1.7368 0.59571 0.082127 0.00873 0.11576-1.0123 0.074745-2.2687zm-4.0605-1.5095c0-2.0968-0.032861-2.2215-0.66146-2.5079l-0.66146-0.30139v2.3535c0 2.3361 0.093345 2.5846 0.99219 2.6413 0.23982 0.015081 0.33073-0.58566 0.33073-2.1856zm2.569-0.70448c0.030533-0.43624-0.058764-0.79319-0.19844-0.79319-0.13965 0-0.25392 0.35719-0.25392 0.79372 0 1.0327 0.38013 1.0322 0.45236 0zm3.7025-1.1942c0.044397-1.5662 1.1107-3.3488 2.4375-4.0748 1.1365-0.62188 1.1509-0.6459 0.52917-0.87895-0.92464-0.34658-2.4592 0.18817-3.2554 1.1345-1.1773 1.3992-1.6634 4.3303-0.75726 4.5671 0.91922 0.24022 1.02 0.16814 1.046-0.74779zm5.8993-1.282c0.49948-0.245 0.64818-0.50768 0.60725-1.0727-0.12499-1.7252-1.7645-2.2402-3.5981-1.1303-1.3536 0.81941-2.0323 1.9139-2.0345 3.2806l-0.00265 1.1145 2.1828-0.93379c1.2006-0.51358 2.4805-1.0798 2.8443-1.2583zm-7.9803 0.20865c0.029898-1.4888 0.92268-3.1907 2.0843-3.9731l0.85082-0.57306-1.1242-0.42937c-1.5379-0.58732-2.2757-0.54031-3.3886 0.21595-1.1561 0.78557-1.9117 2.2722-1.9344 3.8057-0.016933 1.1355-0.00741 1.1472 1.306 1.6306 2.0535 0.75594 2.1781 0.71771 2.2061-0.67675zm-4.1945-1.5107c0.00265-0.40484 0.16491-1.1211 0.3615-1.5916 0.371-0.88789 2.0663-2.5545 2.6283-2.5838 0.17685-0.00926 0.05244-0.12491-0.27644-0.25704-1.1481-0.4613-2.9783 0.69382-3.6695 2.3158-0.54012 1.2677-0.48202 3.1857 0.10025 3.3083 0.58285 0.12269 0.85066-0.25022 0.85585-1.1917zm13.498-2.1319c0-0.22717-0.18611-0.51718-0.4136-0.6445-0.37507-0.20989-0.37507-0.26342 0-0.5747 0.22749-0.18878 0.42299-0.53702 0.4345-0.77388 0.017463-0.35999 0.04482-0.36552 0.16679-0.033734 0.080275 0.21828 0.29946 0.57547 0.48707 0.79375 0.28239 0.32853 0.25368 0.5044-0.16682 1.0215-0.36999 0.45498-0.50795 0.51244-0.50795 0.21159zm-15.865-1.0346c-0.0058-0.25466-0.22154-0.67424-0.47966-0.93234-0.44937-0.44937-0.44373-0.50729 0.13229-1.362 0.35936-0.53324 0.60161-0.72131 0.60161-0.46704 0 0.23413 0.26059 0.66847 0.57907 0.96517 0.31848 0.2967 0.4318 0.53949 0.2518 0.53949-0.18 0-0.49543 0.38695-0.70099 0.8599-0.21537 0.49551-0.37814 0.66368-0.38412 0.39688zm13.748-0.73813c0-0.31401-0.3519-0.89964-0.782-1.3014l-0.782-0.73049 0.64241-0.29271c0.36811-0.16769 0.71191-0.60722 0.80515-1.0293 0.089509-0.40513 0.19799-0.85566 0.24109-1.0012 0.087577-0.29583 0.28258 0.17301 0.51533 1.2391 0.086254 0.39505 0.39587 0.78642 0.698 0.88231 0.52858 0.16777 0.52507 0.18899-0.1329 0.79875-0.37174 0.34454-0.6759 0.8632-0.6759 1.1526 0 0.2894-0.11906 0.59976-0.26458 0.68972-0.14552 0.089932-0.26458-0.093398-0.26458-0.40741z" style="fill:#00aad4;stroke-width:.26458"/>
 </g>
</svg>
