<?xml version="1.0" encoding="UTF-8"?>
<svg width="18.256mm" height="19.407mm" version="1.1" viewBox="0 0 18.256 19.407" xmlns="http://www.w3.org/2000/svg">
 <g transform="translate(-20.638 -26.987)">
  <path d="m26.578 45.054c-1.8847-0.73713-3.4564-1.3559-3.4928-1.3749-0.036354-0.01905-0.44484-1.3345-0.90776-2.9231-0.46292-1.5886-0.99872-2.9836-1.1907-3.1-0.20974-0.12716-0.34898-0.7098-0.34898-1.4603v-1.2487l1.5875-0.87276c1.3275-0.7298 1.5877-0.98893 1.589-1.5824 0.0029-1.4482 0.59968-2.8357 1.6872-3.9232 1.8734-1.8734 4.286-2.0924 6.6354-0.60248 1.8322 1.162 2.3491 2.4099 2.4572 5.9326 0.09551 3.1139-0.15872 4.1135-0.82524 3.2441-0.22881-0.29842-0.3683-1.3515-0.39711-2.9976-0.05054-2.8889-0.38812-3.9306-1.6058-4.9552-1.6425-1.3821-3.9798-1.3363-5.4691 0.10726-0.84428 0.81833-1.6949 2.7006-1.3681 3.0274 0.07824 0.07826 1.1986-0.47098 2.4898-1.2205l2.3475-1.3628 1.4479 0.49123c1.3251 0.44955 1.4679 0.57663 1.6833 1.4978 0.12946 0.55361 0.16896 1.073 0.08776 1.1542-0.0812 0.0812-0.68987-0.03712-1.3526-0.26292l-1.205-0.41058v0.87789c0 0.89863 0.25355 1.0969 2.0505 1.6036 0.64998 0.18328 0.81677 0.66138 0.23074 0.66138-0.2005 0-0.79581-0.18018-1.3229-0.40042l-0.95835-0.40042v0.89731c0 0.63114 0.17661 1.0205 0.59531 1.3126l0.59531 0.41526-0.7276 0.01402c-0.40018 0.0077-0.7276 0.15674-0.7276 0.33136 0 0.23466-0.07744 0.24006-0.29684 0.02064-0.16325-0.16325-0.4609-0.23386-0.66146-0.1569-0.20053 0.07697-0.36462 0.0209-0.36462-0.12465 0-0.14552 0.17859-0.33311 0.39688-0.41688 0.25096-0.09631 0.39688-0.50207 0.39688-1.1036v-0.95128l-1.0583 0.59484c-0.62053 0.34875-1.0583 0.79121-1.0583 1.0696 0 0.40669-0.09215 0.43278-0.64257 0.18201-0.52313-0.23836-0.5897-0.3774-0.35817-0.74814 0.15642-0.25045 0.20799-0.75986 0.11459-1.132l-0.16981-0.67659-1.4473 0.78391c-1.2857 0.69633-1.5575 0.75345-2.4337 0.51152-0.54253-0.14981-1.0329-0.22582-1.0898-0.16894-0.05689 0.05688 1.3056 0.53615 3.0278 1.065 1.7222 0.52888 3.6585 1.134 4.3029 1.3446 1.5592 0.50975 1.7382 0.49242 2.8726-0.27842 1.1105-0.75459 1.3797-0.81256 1.3797-0.29697 0 0.20045 0.18082 0.51454 0.40185 0.69797 0.58695 0.48712 1.4156-0.35597 1.6227-1.651 0.14211-0.88876 0.37782-1.1733 1.7362-2.0957 0.86445-0.58703 1.5139-1.1251 1.4433-1.1957-0.07062-0.07062-0.59687 0.18161-1.1694 0.56052-0.57258 0.37891-1.2243 0.6186-1.4483 0.53266-0.38412-0.1474-0.90048-2.1623-0.62479-2.4379 0.06985-0.06988 0.96679 0.12806 1.9932 0.43979l1.8661 0.56684v1.2624c0 0.69432-0.10295 1.3755-0.22878 1.5137-0.12584 0.13824-0.55734 1.442-0.9589 2.8972s-0.90482 2.8459-1.1183 3.0903c-0.21352 0.24445-1.7821 1.5081-3.4858 2.8081l-3.0976 2.3637zm3.3202-0.19063c0-0.28244-0.04498-0.51356-0.09999-0.51356-0.05498 0-0.53123-0.18018-1.0583-0.40042-0.95324-0.3983-0.95835-0.3969-0.95835 0.26382 0 0.49903 0.21389 0.75398 0.8599 1.025 0.99468 0.41725 1.2568 0.33909 1.2568-0.37481zm1.3336-0.03413c0.70062-0.518 1.0933-1.5469 0.5846-1.5319-0.42275 0.01244-1.3257 0.94882-1.4615 1.5155-0.17666 0.73726-0.10012 0.73869 0.87686 0.0164zm-3.9795-0.8319c0-0.48101-0.21577-0.68329-0.97872-0.91744-1.1419-0.35047-1.1638-0.34121-0.96766 0.4087 0.0821 0.31398 0.46432 0.68633 0.84939 0.82746 1.0287 0.377 1.097 0.35713 1.097-0.31872zm-2.6319-1.066c-0.14597-0.38399-0.37769-0.69816-0.51493-0.69816-0.13721 0-0.43884-0.07266-0.67027-0.16145-0.68998-0.2648-0.08218 1.0275 0.66085 1.405 0.78367 0.39817 0.85495 0.32406 0.52435-0.54544zm10.04-1.1393c0-0.50263-0.22868-0.44278-1.2318 0.32232-0.48668 0.37121-0.88487 0.9126-0.88487 1.2031 0 0.47413 0.10832 0.44114 1.0583-0.32232 0.58208-0.46778 1.0583-1.0092 1.0583-1.2031zm-4.8102 1.2086c-0.05646-0.37087-0.41431-0.66826-1.0767-0.89487-0.95721-0.32745-0.99219-0.31798-0.99219 0.26882 0 0.42272 0.22193 0.68929 0.7276 0.874 1.1415 0.4169 1.4343 0.36277 1.3413-0.24794zm1.5829-0.17216c0.29453-0.25466 0.61788-0.74501 0.71856-1.0897l0.18307-0.62669-0.82153 0.4853c-0.45183 0.26691-0.82153 0.56893-0.82153 0.6712 0 0.10224-0.07226 0.37423-0.1606 0.60439-0.21262 0.55412 0.23532 0.532 0.90204-0.0445zm-4.181-0.60881c0-0.36915-0.2934-0.66524-0.91755-0.92604-1.2241-0.51147-1.4406-0.48443-1.2723 0.15904 0.07803 0.29832 0.51337 0.70533 0.96742 0.90445 1.1289 0.49506 1.2225 0.48453 1.2225-0.13745zm-2.8391-1.0651c-0.13319-0.50932-1.316-1.2045-1.5874-0.93308-0.24744 0.24744 0.23564 1.1886 0.6686 1.3026 0.91305 0.24032 1.0626 0.18021 0.91882-0.36949zm5.4363-0.15322c-0.0648-0.5438-0.30803-0.77994-1.0759-1.0445l-0.99219-0.34182v0.75785c0 0.58595 0.16505 0.81814 0.7276 1.0236 1.2014 0.43878 1.4318 0.37087 1.3405-0.39518zm4.1908 0.02775c0.77425-0.59052 1.198-1.4417 0.71766-1.4417-0.52663 0-1.9494 1.1744-1.9494 1.6091 0 0.66463 0.17158 0.64132 1.2318-0.16735zm2.3938-0.81473c-0.25678-0.25678-1.2444 0.69077-1.2444 1.1939 0 0.30472 0.19087 0.22511 0.71358-0.29758 0.39246-0.39246 0.63132-0.79581 0.53078-0.89636zm-4.0816-0.2739c0.14436-0.75517 0.07684-0.76052-0.89218-0.07051-0.42264 0.30096-0.76846 0.78393-0.76846 1.0733 0 0.50895 0.02514 0.51125 0.77129 0.07048 0.42418-0.25056 0.82439-0.73356 0.88934-1.0733zm-5.3648 0.20473c0-0.58753-0.14777-0.80214-0.63688-0.9249-0.35028-0.08792-0.82653-0.23262-1.0583-0.32157-0.31549-0.12107-0.42146 0.0026-0.42146 0.49215 0 0.61603 0.23722 0.78883 2.0505 1.4937 0.03638 0.01402 0.06614-0.31858 0.06614-0.73938zm9.7234-1.0584c0.66934-0.79798 0.37399-1.1537-0.46302-0.55774-0.44096 0.31398-0.79375 0.80679-0.79375 1.1088 0 0.47466 0.05868 0.49916 0.46302 0.19341 0.25466-0.19259 0.61185-0.52758 0.79375-0.74443zm-12.634 0.12962c0-0.47501-0.2105-0.70898-0.83323-0.92607-1.0653-0.37134-1.0189-0.38282-1.0189 0.25149 0 0.43646 1.0219 1.1802 1.7859 1.2998 0.03638 0.0058 0.06615-0.27564 0.06615-0.62521zm10.291-0.13205c0.45196-0.42217 0.82174-0.95967 0.82174-1.1944 0-0.34703-0.19772-0.29591-1.0583 0.2736-0.60677 0.40153-1.0583 0.91117-1.0583 1.1944 0 0.68974 0.34073 0.61775 1.2949-0.2736zm2.6239-1.624c0.3185-0.2967 0.57907-0.78105 0.57907-1.0763v-0.53689l-0.76163 0.54232c-0.80918 0.57621-1.2707 1.6104-0.71869 1.6104 0.17722 0 0.58277-0.24276 0.90125-0.53949zm-2.5959-1.0324c0-0.28244-0.10657-0.57941-0.23686-0.65992-0.28432-0.17574-0.62116 0.59087-0.40984 0.93276 0.26067 0.4218 0.6467 0.25892 0.6467-0.27284zm-4.7645-3.1245c0-0.47294-0.06223-0.8599-0.14078-0.8599-0.07856 0-0.61434 0.24056-1.1906 0.53454-1.0666 0.54414-1.1614 0.7344-0.88328 1.772l0.1573 0.58674 1.0277-0.58674c0.86156-0.49191 1.028-0.72572 1.0297-1.4466z" style="fill:#00aad4;stroke-width:.26458"/>
 </g>
</svg>
