<?xml version="1.0" encoding="UTF-8"?>
<svg width="17.977mm" height="16.253mm" version="1.1" viewBox="0 0 17.977 16.253" xmlns="http://www.w3.org/2000/svg">
 <g transform="translate(-9.2604 -.79375)">
  <path d="m23.829 15.658c-0.76308-0.7639-2.9273-2.9665-4.8093-4.8947-1.9886-2.0373-3.6299-3.5057-3.9185-3.5057-0.95583 0-3.7929 4.262-4.8413 7.2729l-0.46172 1.326-0.31925-0.79375c-0.71083-1.7674 0.36428-5.3836 2.4678-8.3007 1.0922-1.5146 1.2738-2.0019 0.88942-2.3863-0.4173-0.4173 0.92506-1.7781 1.4388-1.4585 0.53628 0.33367 1.5236 0.12896 2.5855-0.53607 2.1132-1.3233 4.859-1.9342 6.235-1.387 0.43712 0.17383 0.27281 0.31107-0.98388 0.82185-2.7467 1.1163-4.8514 2.6914-4.8329 3.6166 0.0082 0.41172 5.0861 5.5268 8.347 8.4081l1.6114 1.4239-0.86378 0.8912c-0.47509 0.49017-0.92975 0.89114-1.0103 0.89106-0.08059-5.3e-5 -0.77086-0.62513-1.534-1.3891z" style="fill:#00aad4;stroke-width:.26458"/>
 </g>
</svg>
