<?xml version="1.0" encoding="UTF-8"?>
<svg width="20.266mm" height="14.884mm" version="1.1" viewBox="0 0 20.266 14.884" xmlns="http://www.w3.org/2000/svg">
 <g transform="translate(1.5875 -7.9375)">
  <path d="m7.9791 22.006c-0.21897-0.76348-0.40121-0.88797-1.7995-1.2293l-1.5559-0.37973-0.68617 0.82915c-0.4753 0.57433-0.79621 0.75917-1.0442 0.60145-0.2749-0.17484-0.29027-0.35436-0.066146-0.77311 0.45352-0.84746 0.34888-1.4928-0.3483-2.1477-0.35211-0.33078-0.78327-0.94686-0.95814-1.369-0.36669-0.88527-0.41839-0.90538-0.95303-0.37076-0.21828 0.21828-0.61799 0.39688-0.88823 0.39688-0.58047 0-1.3871-0.73353-1.252-1.1386 0.1505-0.45148 0.72287-0.53253 0.72287-0.10234 0 0.21484 0.18934 0.46329 0.42074 0.55208 1.0633 0.40801 1.2446-0.87794 0.21863-1.5502-0.83944-0.55004-1.4978-2.0414-1.2815-2.903 0.37941-1.5116 2.2734-2.0755 3.3512-0.99769 0.5193 0.5193 0.52705 0.57676 0.099827 0.7407-0.25474 0.09774-0.59804 0.04286-0.76287-0.122-0.41902-0.41902-1.1263-0.37335-1.5175 0.09798-0.54036 0.65111-0.38235 1.7208 0.36449 2.4676 0.63431 0.63431 0.69461 0.64916 0.69551 0.17137 0.002646-0.77232 0.93628-2.1689 1.5909-2.3766l0.57005-0.18093-0.57359-0.61055c-0.77645-0.8265-0.5964-1.7012 0.50215-2.4397 1.3593-0.91384 2.7988-1.2247 5.7147-1.2342 2.8847-0.00926 4.329 0.30258 5.7147 1.2342 1.0986 0.73856 1.2786 1.6132 0.50215 2.4397l-0.57359 0.61055 0.57004 0.18092c0.65461 0.20775 1.5894 1.6043 1.5909 2.3766 0 0.47778 0.0612 0.46294 0.69551-0.17137 0.74684-0.74684 0.90485-1.8165 0.36449-2.4676-0.39119-0.47133-1.0985-0.517-1.5175-0.09798-0.16484 0.16486-0.50813 0.21974-0.76287 0.122-0.4272-0.16394-0.41947-0.2214 0.09983-0.7407 0.6445-0.6445 1.934-0.74356 2.5902-0.19899 1.1834 0.98211 0.96774 2.9763-0.42939 3.9711-0.75263 0.53591-1.0222 1.3898-0.53398 1.6915 0.36944 0.22831 1.0822-0.12912 1.0822-0.54271 0-0.51078 0.50946-0.46321 0.71276 0.06657 0.18812 0.49025-0.54364 1.1523-1.2736 1.1523-0.25284 0-0.63828-0.17859-0.85656-0.39688-0.53464-0.53462-0.58634-0.51451-0.95303 0.37076-0.17486 0.42217-0.60603 1.0383-0.95814 1.369-0.69718 0.65495-0.80182 1.3003-0.34827 2.1477 0.2241 0.41876 0.20873 0.59828-0.06615 0.77311-0.24802 0.15772-0.56893-0.02712-1.0442-0.60145l-0.68617-0.82915-1.5559 0.37973c-1.3983 0.34129-1.5805 0.46577-1.7995 1.2293-0.31176 1.0871-0.81616 1.0871-1.1279 0zm1.2803-1.3067c0.18807-0.11933 0.6396-0.224 1.0034-0.2326 0.3638-0.0087 1.1079-0.17502 1.6536-0.36976 0.5457-0.19476 0.99219-0.27181 0.99219-0.17124 0 0.10054 0.18672 0.41394 0.41489 0.69641 0.39555 0.48964 0.40722 0.47794 0.25032-0.25077-0.12941-0.60098-0.01561-0.92001 0.53284-1.4923 0.85778-0.89535 0.38936-1.3913-0.51321-0.5434l-0.59888 0.56261-0.66754-0.52506-0.66754-0.52509-0.61219 0.65164c-0.74176 0.78957-0.90853 0.80063-1.7766 0.11782-0.61936-0.4872-0.727-0.49842-1.2323-0.12856-1.0004 0.73216-1.2387 0.73877-1.9586 0.054239l-0.71181-0.67683-0.63524 0.5188c-0.63278 0.51676-0.63762 0.51657-1.2372-0.0467-0.93205-0.87561-1.3642-0.34454-0.4749 0.58367 0.66358 0.69265 0.7085 0.85122 0.44154 1.5585-0.36393 0.96414-0.019844 1.0525 0.41167 0.10567 0.27416-0.60169 0.41111-0.65834 1.1669-0.48265 0.47098 0.10948 1.3326 0.26742 1.9147 0.35097 0.919 0.13192 1.0923 0.26757 1.3166 1.0302l0.25834 0.87828 0.19346-0.72345c0.10642-0.39788 0.34737-0.82105 0.53544-0.94036zm2.4513-5.9975c-0.19738-0.2291-0.66212 1.84-0.47823 2.1292 0.13486 0.21214 0.27562-0.10279 0.38203-0.85474 0.09266-0.65484 0.13597-1.2284 0.0962-1.2745zm0.93554 0.88426c-0.41024-1.243-0.59931-1.0539-0.3714 0.3714 0.1147 0.71734 0.26834 1.0193 0.43421 0.85341 0.16587-0.16587 0.14364-0.59923-0.06281-1.2248zm-1.3676-0.81283c0.38798-0.85154 0.38465-0.91361-0.04882-0.91361-0.19574 0-0.55128 0.21595-0.79015 0.47988-0.33499 0.37015-0.36251 0.55163-0.12036 0.79375 0.45477 0.45477 0.61558 0.39441 0.95933-0.36002zm2.2724-0.40547c-0.25292-0.27948-0.61997-0.50813-0.81571-0.50813-0.43267 0-0.43643 0.06289-0.05374 0.90281 0.25138 0.55171 0.38843 0.61696 0.81571 0.38828 0.48908-0.26175 0.49162-0.29908 0.05374-0.78296zm-3.2824-0.41206c0.12552-0.12777-0.86267-0.23905-2.2433-0.25268-1.9125-0.018785-2.7122-0.14528-3.5547-0.56211-1.2276-0.60738-1.5155-0.3102-0.30562 0.31546 1.5413 0.79703 5.4934 1.1204 6.1036 0.49932zm1.8463-0.22836c0-0.07276-0.05953-0.13229-0.13229-0.13229-0.07276 0-0.13229 0.05953-0.13229 0.13229 0 0.07276 0.05953 0.13229 0.13229 0.13229 0.07276 0 0.13229-0.05953 0.13229-0.13229zm1.4661-0.67905c0.28043-0.45376 0.02932-0.49829-0.52488-0.09305-0.42918 0.31382-0.44249 0.37523-0.08133 0.37523 0.23749 0 0.5103-0.12697 0.60621-0.28218zm-1.2849-1.0593c0.71276-0.27099 0.72205-0.29625 0.21566-0.58698-0.60238-0.34584-6.466-0.43598-7.6068-0.11697-0.40018 0.11192-0.7276 0.32446-0.7276 0.47233 0 0.18188 0.16216 0.18206 0.50133 0 0.27575-0.14758 1.1985-0.33634 2.0505-0.4195 1.5392-0.1502 1.5437-0.14864 0.68929 0.24622-0.47294 0.21857-0.8599 0.4627-0.8599 0.54248 0 0.26816 4.9845 0.14817 5.7375-0.13811z" style="fill:#00aad4;stroke-width:.26458"/>
 </g>
</svg>
