<?xml version="1.0" encoding="UTF-8"?>
<svg width="19.881mm" height="11.036mm" version="1.1" viewBox="0 0 19.881 11.036" xmlns="http://www.w3.org/2000/svg">
 <g transform="translate(-17.198 -1.3229)">
  <path d="m18.223 10.247c0.73914-2.0887 0.74165-2.1167 0.23072-2.5791-1.9564-1.7705-1.5684-4.7808 0.76158-5.9088 1.5015-0.72686 2.7095-0.53044 3.9975 0.64998 0.81854 0.75012 0.96184 1.0638 1.0673 2.336 0.11472 1.3832 0.06805 1.5283-0.79425 2.4693l-0.91615 0.99968 0.75351 1.9568c0.88273 2.2924 0.87641 2.2512 0.32843 2.1409-0.26101-0.05252-0.72144-0.89921-1.1929-2.1937l-0.76782-2.1082 0.79605-0.62299c0.84736-0.66315 1.076-1.2779 0.37528-1.009-0.23143 0.088794-0.55885 0.072549-0.7276-0.036142-0.17949-0.11557 0.0775-0.25321 0.61918-0.33158 0.85262-0.12338 0.9326-0.21347 1.0088-1.1361 0.06988-0.84672-0.05935-1.1441-0.83344-1.9182-0.77158-0.77155-1.1026-0.91615-2.0975-0.91615-1.4516 0-2.4556 0.71334-2.8098 1.9964-0.3457 1.252 0.06943 2.5988 1.0336 3.3535l0.78129 0.61143-0.71427 2.1787c-0.5357 1.6341-0.83079 2.1787-1.1805 2.1787-0.42177 0-0.39497-0.20132 0.28101-2.1116zm12.204 1.8934c0-0.12004 0.29496-1.0854 0.65542-2.1453l0.65543-1.927-1.1786-0.95964 0.77219-0.80936 0.77219-0.80933-1.0368-0.42982c-0.57023-0.23641-1.0735-0.46395-1.1184-0.5057-0.0449-0.041725 0.08951-0.48548 0.29866-0.9861 1.0497-2.5123 4.3794-3.0349 6.1243-0.9611 1.1669 1.3868 0.84635 4.0401-0.62256 5.153-0.33936 0.2571-0.29715 0.5538 0.31986 2.249 0.81915 2.2505 0.83365 2.3497 0.34346 2.3497-0.3679 0-0.47464-0.21701-1.4622-2.9725l-0.5438-1.5173 0.737-0.38111c1.3151-0.68006 1.7231-2.3732 0.95956-3.9822-0.48472-1.0215-1.3346-1.4657-2.8039-1.4657-0.8581 0-1.2252 0.16399-1.8396 0.82174-0.4222 0.45193-0.76761 0.9748-0.76761 1.1619s0.47625 0.53073 1.0583 0.76361c1.2336 0.49361 1.2987 0.72948 0.39688 1.4388-0.80616 0.63413-0.81531 0.7639-0.09499 1.3472l0.56645 0.45868-0.72049 2.1634c-0.45032 1.3522-0.86114 2.1634-1.0956 2.1634-0.20632 0-0.37515-0.09821-0.37515-0.21823zm-3.2417-4.1952c-0.41651-0.41648-0.38529-0.48503 0.49302-1.0819 0.51575-0.35044 1.0016-0.57333 1.0796-0.4953 0.11636 0.11636-0.89583 2.0218-1.074 2.0218-0.02971 0-0.25411-0.2001-0.49866-0.44466zm-0.99166-2.4621c0-0.53975 0.0871-0.57568 0.99219-0.40934 1.0452 0.19206 1.8145 0.6703 1.0782 0.6703-0.22918 0-0.78878 0.074427-1.2435 0.16536-0.72885 0.14579-0.82682 0.09525-0.82682-0.42632zm-5.0271-0.64947c0-0.20968 0.1066-0.44712 0.23686-0.52763 0.27236-0.16833 0.60079 0.51223 0.36227 0.75076-0.2839 0.2839-0.59912 0.1665-0.59912-0.22312zm11.774 0.11668c-0.21577-0.34912 0.1006-0.84455 0.41516-0.65016 0.32136 0.19862 0.31927 0.91474-0.0026 0.91474-0.13692 0-0.32255-0.11906-0.41248-0.26458zm-5.1002-0.83484c-0.94636-0.59918-1.0267-0.80828-0.48355-1.259 0.29615-0.2458 0.48572-0.11832 0.9562 0.64296 0.32276 0.52226 0.54038 0.99602 0.48358 1.0528-0.05681 0.05678-0.4871-0.13975-0.95623-0.4368z" style="fill:#00aad4;stroke-width:.26458"/>
 </g>
</svg>
