<?xml version="1.0" encoding="UTF-8"?>
<svg width="10.317mm" height="15.292mm" version="1.1" viewBox="0 0 10.317 15.292" xmlns="http://www.w3.org/2000/svg">
 <g transform="translate(-12.435 .26458)">
  <path d="m15.61 14.366c0-0.63206-0.07057-0.66146-1.5875-0.66146h-1.5875v-4.8286c0-4.3266 0.05482-4.917 0.5188-5.6779 0.52126-0.8549 1.8806-1.6992 3.2771-2.0354 0.41479-0.099827 1.0735-0.41767 1.4639-0.70631 1.5731-1.163 3.6152-0.88892 4.5277 0.60772 0.48599 0.79714 0.52837 1.3364 0.52927 6.7357 0 5.363-0.03895 5.8807-0.46202 6.0025-0.87154 0.25101-5.8559 1.2252-6.2687 1.2252-0.26323 0-0.41214-0.239-0.41214-0.66146zm0-6.1028c0-3.0142 0.11052-5.1187 0.28601-5.4466 0.15732-0.29395 0.23336-0.58711 0.16899-0.65146-0.23598-0.23598-1.5517 0.44106-2.1849 1.1243-0.64003 0.69059-0.65132 0.78245-0.65132 5.2944v4.5916h2.3812zm2.5128-0.11253c0.20103-0.63341-0.02143-1.0607-0.55234-1.0607-0.54083 0-0.7639 0.71953-0.37015 1.194 0.44379 0.53472 0.72329 0.49435 0.9225-0.1333z" style="fill:#00aad4;stroke-width:.26458"/>
 </g>
</svg>
