<?xml version="1.0" encoding="UTF-8"?>
<svg width="16.404mm" height="17.198mm" version="1.1" viewBox="0 0 16.404 17.198" xmlns="http://www.w3.org/2000/svg">
 <g transform="translate(13.494 -3.9687)">
  <path d="m-11.163 20.439c-0.95994-1.0292-1.1683-1.5335-1.5297-3.7032-0.17568-1.0545-0.42778-1.9843-0.56023-2.0662-0.13248-0.08186-0.24085-0.62921-0.24085-1.2163 0-0.84497 0.1103-1.0964 0.52917-1.2059 0.29104-0.07612 0.52917-0.24532 0.52917-0.376 0-0.40307 1.679-1.2861 2.4474-1.2872 0.76076 0 0.81172-0.09025 0.50128-0.87752-0.18031-0.45728-0.22053-0.455-0.86077 0.048604l-0.67159 0.52829-0.43662-0.73909c-0.45948-0.77785-0.3724-1.0724 0.32118-1.0864 0.2304-0.0045 0.6213-0.16219 0.86863-0.35015 0.41423-0.3148 0.37679-0.46278-0.47461-1.8762-0.5084-0.84392-0.88934-1.5632-0.84659-1.5984 0.1846-0.15184 1.2462-0.66479 1.3759-0.66479 0.07826 0 0.3968 0.59156 0.70784 1.3146 0.77036 1.7908 1.0635 1.9913 1.9228 1.3154 0.7465-0.58719 1.0652-0.5229 1.5078 0.30403 0.24183 0.45183 0.17137 0.56118-0.51591 0.80076l-0.79597 0.2775 0.57327 0.8745c0.35047 0.53464 0.7189 0.81865 0.94798 0.73075 0.29202-0.11208 0.35002 0.067707 0.26281 0.81478l-0.11192 0.95861 0.69771-0.83574c0.38375-0.45969 1.0998-0.97115 1.5913-1.1366 0.86384-0.29086 0.90585-0.37055 1.2638-2.3967 0.20365-1.1527 0.40354-2.1333 0.44421-2.1791 0.040666-0.045746 0.50996-0.00265 1.0429 0.098584 0.70623 0.13248 0.92826 0.28776 0.81891 0.57274-0.082524 0.21503-0.28247 1.1928-0.44431 2.1729-0.28911 1.7507-0.28202 1.7942 0.40402 2.4803 0.38404 0.38407 0.76994 1.0566 0.85751 1.4945 0.087604 0.43791 0.27059 0.72742 0.40666 0.64331 0.13608-0.08408 0.53829-0.07988 0.89382 0.0093 0.55115 0.13832 0.64643 0.31872 0.64643 1.2239 0 0.65222-0.13909 1.115-0.36068 1.2-0.2196 0.08427-0.42495 0.75316-0.52496 1.7099-0.18857 1.8041-0.74451 3.2887-1.5543 4.1508-0.54748 0.58274-0.70305 0.59891-5.7587 0.59891h-5.196zm10.874-0.48286c0.86513-0.72797 1.6122-2.7026 1.6122-4.2615 0-0.70162-0.10631-0.87802-0.52917-0.87802-0.47038 0-0.52917 0.1764-0.52917 1.5875 0 1.2347-0.088186 1.5875-0.39688 1.5875-0.30869 0-0.39687-0.35277-0.39687-1.5875 0-1.5075-0.032623-1.5875-0.64696-1.5875-0.5824 0-0.655 0.12335-0.7276 1.2361-0.11517 1.7652-0.7421 1.8572-0.7421 0.10888v-1.345h-2.1167v1.1906c0 0.88194-0.1029 1.1906-0.39688 1.1906s-0.39688-0.30869-0.39688-1.1906v-1.1906h-2.3812v1.6095c0 2.1373-0.62688 2.045-0.74081-0.10909-0.077602-1.4672-0.096652-1.5005-0.8599-1.5005-0.76197 0-0.78055 0.03201-0.78055 1.345 0 0.95845-0.09504 1.3133-0.33073 1.2346-0.1819-0.0607-0.34253-0.39804-0.35692-0.74967-0.07104-1.7327-0.10639-1.8299-0.6653-1.8299-0.51657 0-0.54496 0.09509-0.37224 1.2469 0.2726 1.8177 0.88254 3.1629 1.7746 3.9135 0.76467 0.64344 0.8931 0.66048 4.9777 0.66048 4.1188 0 4.207-0.01191 5.0024-0.6813zm-10.328-6.4183c-0.28445-0.45551-1.0245-0.68485-1.0245-0.3175 0 0.2935 0.62238 0.80256 0.98121 0.80256 0.26948 0 0.27906-0.1075 0.04326-0.48506zm1.886-0.04411c-0.28657-0.53544-0.57526-0.65945-0.86371-0.371-0.29866 0.29864 0.12684 0.90016 0.63675 0.90016 0.42818 0 0.46466-0.08504 0.22696-0.52917zm1.8521 0c-0.15576-0.29104-0.51813-0.52917-0.80531-0.52917-0.45585 0-0.48017 0.06713-0.19161 0.52917 0.18174 0.29104 0.54414 0.52917 0.80529 0.52917 0.39285 0 0.42595-0.09136 0.19164-0.52917zm1.8521 0c-0.274-0.512-1.0583-0.74729-1.0583-0.3175 0 0.33316 0.59939 0.84667 0.98827 0.84667 0.27128 0 0.28755-0.12282 0.070062-0.52917zm1.8521 0c-0.23815-0.44498-1.0583-0.76933-1.0583-0.41852 0 0.48157 0.40891 0.94768 0.83137 0.94768 0.42818 0 0.46466-0.08504 0.22696-0.52917zm1.8521 0c-0.15576-0.29104-0.51813-0.52917-0.80531-0.52917-0.45585 0-0.48017 0.06713-0.19161 0.52917 0.18174 0.29104 0.54414 0.52917 0.80529 0.52917 0.39285 0 0.42595-0.09136 0.19164-0.52917zm1.8521 0.41852c0-0.48157-0.40891-0.94768-0.83137-0.94768-0.42818 0-0.46463 0.08504-0.22696 0.52917 0.23815 0.44498 1.0583 0.76933 1.0583 0.41852zm1.4552-0.43693c0-0.20418-0.19902-0.40955-0.44228-0.45638-0.33311-0.06416-0.40643 0.05191-0.29705 0.47022 0.15753 0.60232 0.73933 0.59142 0.73933-0.01376zm-2.0379-2.2342c0.10628-0.08858-0.67717-0.8608-1.1312-1.115-0.30993-0.17354-0.30938-0.46315 0.0037-1.9241 0.42942-2.0035 0.47077-2.6458 0.17029-2.6458-0.1193 0-0.37317 0.96229-0.56417 2.1384s-0.48035 2.1719-0.64299 2.2128c-1.2971 0.32655-1.8786 0.62839-2.2274 1.1562l-0.40487 0.61267 2.3589-0.18481c1.2974-0.10163 2.3943-0.21434 2.4377-0.25043z" style="fill:#00aad4;stroke-width:.26458"/>
 </g>
</svg>
