<?xml version="1.0" encoding="UTF-8"?>
<svg width="14.151mm" height="13.336mm" version="1.1" viewBox="0 0 14.151 13.336" xmlns="http://www.w3.org/2000/svg">
 <g transform="translate(1.8521 2.1167)">
  <path d="m7.0819 10.748c-0.45739-0.2817-1.1007-0.49001-1.5243-0.49358-0.51244-0.004233-0.88172-0.15497-1.2275-0.50078-0.27202-0.27204-0.69895-0.50488-0.94872-0.51742-0.7533-0.037835-0.82918-0.062098-1.3942-0.44527-0.31192-0.21153-1.1232-0.4327-1.8999-0.51795-1.5178-0.16661-2.5721-0.57999-1.5065-0.59068 0.58912-0.00582 0.63302-0.08091 2.5211-4.3091 1.2885-2.8855 1.9057-4.4986 1.8734-4.8966-0.033761-0.41706 0.04019-0.59354 0.24871-0.59354 0.20701 0 0.29678 0.20849 0.29678 0.68929 0 0.66588 0.06387 0.72461 1.8795 1.7284 1.0337 0.57155 1.9359 1.0404 2.0048 1.0418 0.068898 0.00265 0.17185-0.17539 0.22879-0.39301 0.056885-0.21762 0.25524-0.39568 0.44077-0.39568 0.27625 0 0.31451 0.12139 0.21143 0.67082-0.12377 0.65984-0.10933 0.67675 0.88561 1.0345 1.3911 0.50022 2.4542 1.458 2.8245 2.5447l0.30263 0.88821-0.9054-0.046672c-1.0173-0.05244-1.3153 0.26226-0.56981 0.6019 0.26813 0.12216 0.58878 0.41132 0.71255 0.64259 0.20542 0.38383 0.19039 0.40193-0.17264 0.20762-0.61444-0.32882-1.6608-0.24032-2.1693 0.18349-0.56269 0.46897-0.51086 1.1865 0.1079 1.4937 0.42696 0.21198 0.41857 0.22831-0.29247 0.56735l-0.73202 0.34909 0.4903 0.26628c0.26966 0.14647 0.82415 0.32411 1.2322 0.39476 0.98306 0.17021 0.937 0.39325-0.13708 0.66371-1.3079 0.32933-1.9045 0.27181-2.7811-0.26813zm2.473-0.0077c0-0.05577-0.49305-0.31946-1.0957-0.58595-1.0867-0.48059-2.4655-0.83722-2.4655-0.6377 0 0.057124 0.37367 0.37859 0.83034 0.71445 0.6558 0.48228 1.0301 0.61063 1.7806 0.61063 0.52263 0 0.95022-0.04561 0.95022-0.10141zm-3.2806-2.7884c0.17214-0.06604 0.31295-0.33311 0.31295-0.59351 0-0.4595-0.046064-0.47345-1.5676-0.47345h-1.5676l0.2961 0.59354c0.26792 0.53705 0.38727 0.59351 1.2546 0.59351 0.52718 0 1.0993-0.054028 1.2715-0.12009zm-4.6331-0.55118c0-0.51742-1.4864-0.73083-1.9389-0.27837-0.43331 0.43331-0.24799 0.55396 0.85074 0.55396 0.79817 0 1.0881-0.073422 1.0881-0.27559zm1.0386-0.044106c0.29438-0.10385 0.51419-0.6695 0.26019-0.6695-0.39934 0-1.101 0.44868-1.101 0.70403 0 0.18412 0.10419 0.26958 0.24731 0.20288 0.13602-0.063421 0.40309-0.17026 0.59351-0.23741zm0.30194-0.95694c0.030057-0.028945 0.030057-1.454 0-3.1668l-0.054636-3.1141-1.4099 3.1744-1.41 3.1745 0.51967 0.087207c0.48003 0.080566 2.2298-0.034793 2.3549-0.15523zm1.0384-0.22005c0.41082-1.0806 0.1324-3.6472-0.39568-3.6472-0.12554 0-0.20275 0.79089-0.20275 2.0773 0 2.0828 0.20198 2.6126 0.59843 1.5698zm3.3475-0.6136c0.0058208-0.12695 0.10374-0.26175 0.21717-0.29956 0.12853-0.042862 0.18441-0.73832 0.14838-1.8465l-0.057864-1.7778-0.33459 1.0881c-0.18399 0.59846-0.51292 1.7363-0.73096 2.5285l-0.39635 1.4403 0.57163-0.45111c0.31438-0.24813 0.57655-0.55499 0.58259-0.68194zm-0.78475-1.3667c0.34885-1.2595 0.59566-2.3285 0.54851-2.3757-0.047175-0.047149-0.73049 0.059849-1.5185 0.23781-1.3039 0.29448-1.4219 0.36132-1.3123 0.74351 0.27432 0.95626 0.33965 2.2529 0.14835 2.9456l-0.20397 0.73872h1.7036zm3.6559 1.3144c0.19823-0.32073-0.23252-0.4182-0.48794-0.11041-0.19881 0.23953-0.18666 0.29459 0.064796 0.29459 0.17013 0 0.36055-0.082894 0.42315-0.18418zm-1.3655-1.7002c0.057044-1.2898-0.06694-1.6637-0.55499-1.6737-0.18598-0.0037042-0.19762 2.8494-0.012171 3.0347 0.33486 0.33483 0.51104-0.087815 0.56735-1.361zm0.68151 1.1803c0-0.16962-0.089032-0.25342-0.19783-0.18616-0.10882 0.067257-0.19786 0.20606-0.19786 0.30845 0 0.10239 0.089032 0.18616 0.19786 0.18616 0.1088 0 0.19783-0.1388 0.19783-0.30845zm-5.4618-3.4878c0.21034-0.8332 0.04146-1.6552-0.37277-1.8141-0.24866-0.095435-0.29845 0.11822-0.29845 1.2806 0 1.0274 0.065193 1.3738 0.24731 1.3142 0.136-0.044529 0.32679-0.39584 0.42392-0.78071zm-0.82188 8.8084c-0.13727-0.055298-0.3407-0.27083-0.45209-0.47898-0.17269-0.32266-0.1342-0.37843 0.2612-0.37843 0.25506 0 0.63659 0.13184 0.8478 0.293 0.3324 0.2536 0.34412 0.3197 0.087259 0.49157-0.32396 0.21677-0.3746 0.22175-0.74417 0.07284zm5.9027-2.0171c-0.25339-0.4735 0.16296-1.0881 0.66969-0.98859 0.55436 0.10888 0.83 0.66582 0.51649 1.0436-0.35123 0.42323-0.94499 0.39568-1.1862-0.055007zm1.053-0.14409c0.14854-0.38711-0.01138-0.67461-0.37518-0.67461-0.356 0-0.55864 0.33912-0.41942 0.70191 0.14708 0.38328 0.64357 0.36621 0.7946-0.027332z" style="fill:#00aad4;stroke-width:.19784"/>
 </g>
</svg>
