<?xml version="1.0" encoding="UTF-8"?>
<svg width="17.436mm" height="17.042mm" version="1.1" viewBox="0 0 17.436 17.042" xmlns="http://www.w3.org/2000/svg">
 <g transform="translate(12.435 -1.3229)">
  <path d="m-9.9381 12.427c-1.3577-3.2656-2.4815-6.0229-2.4973-6.1273-0.021961-0.14589 8.0233-3.0866 10.158-3.7129 0.28146-0.082576 0.60341 0.38555 1.107 1.6096l0.71014 1.7261-0.79806 1.5474-0.79806 1.5474-3.0204 1.0356c-1.6612 0.56954-3.0206 1.1248-3.0209 1.234 0 0.33517 0.45384 0.23212 3.2111-0.7276 1.4633-0.50932 2.7109-0.92604 2.7725-0.92604 0.061648 0-0.12848 0.47151-0.42249 1.0478-0.63056 1.236-0.70459 2.3918-0.15322 2.3918 0.20971 0 0.9248-0.53578 1.589-1.1906 0.66424-0.65484 1.3856-1.2085 1.6031-1.2303 0.21743-0.0217 0.52126-0.05159 0.67511-0.06615 0.15388-0.01455 0.68178 0.89797 1.1731 2.0278l0.89329 2.0543-0.94081 0.39309c-0.51742 0.21619-0.99825 0.39309-1.0685 0.39309-0.07022 0-1.9747 0.65484-4.2321 1.4552-2.2574 0.80036-4.1871 1.4552-4.288 1.4552-0.10102 0-1.2946-2.6719-2.6523-5.9375zm7.8257-4.9874c0.51562-0.51562-1.6505 0.11197-6.2012 1.7967-0.19111 0.070776-0.2826 0.23365-0.20328 0.362 0.13608 0.22016 6.0032-1.7574 6.4045-2.1587zm-3.5708-0.65064c2.5438-0.87839 3.491-1.3891 2.5764-1.3891-0.45612 0-5.6175 1.8749-5.9044 2.1448-0.47778 0.44945 0.4441 0.24011 3.328-0.75573zm3.0184 5.1594c0.097737-0.32742 0.32089-0.83344 0.49588-1.1245 0.17502-0.29104 0.46974-1.0649 0.65495-1.7198 0.42709-1.5102 1.2843-2.827 3.1672-4.8657 0.82116-0.88911 1.6826-1.9089 1.9144-2.2662l0.4213-0.64966 0.50475 0.77031c0.66043 1.008 0.67908 3.1966 0.035613 4.1787-0.33605 0.51284-0.6926 0.71596-1.2568 0.71596-0.89858 0-0.98954 0.19018-0.32464 0.67879 0.43116 0.31684 0.41219 0.39344-0.27578 1.1137-0.40635 0.42537-1.3588 1.0593-2.1167 1.4087-0.75782 0.34941-1.4252 0.74758-1.4831 0.88485-0.18762 0.44492-1.3176 1.4702-1.6204 1.4702-0.18161 0-0.22635-0.22815-0.11679-0.59531z" style="fill:#00aad4;stroke-width:.26458"/>
 </g>
</svg>
