<?xml version="1.0" encoding="UTF-8"?>
<svg width="15.535mm" height="16.092mm" version="1.1" viewBox="0 0 15.535 16.092" xmlns="http://www.w3.org/2000/svg">
 <g transform="translate(-12.435 -3.4396)">
  <path d="m17.089 17.549c-0.16923-2.2379-1.1566-4.5334-2.6818-6.2353-1.1504-1.2836-1.7223-2.4311-1.9055-3.8241-0.2586-1.9652 0.077364-2.1601 4.0382-2.3419 3.0383-0.13946 3.6119-0.24641 5.455-1.0172 1.9395-0.81108 2.0971-0.8369 2.6996-0.44215 0.92109 0.60351 1.1562 2.1091 0.47262 3.0267-0.4772 0.64058-0.73583 0.71946-2.8782 0.87776-1.3527 0.09996-3.2541 0.46424-4.4705 0.85651-1.1642 0.37542-2.1898 0.68411-2.2791 0.68596-0.08935 0.0026458-0.23604-0.53329-0.32594-1.1892-0.17029-1.2425-0.8286-2.5115-1.3028-2.5115-0.15134 0-0.06832 0.22855 0.18449 0.50792 0.44027 0.48649 0.43363 0.5116-0.15743 0.59531-0.50451 0.071438-0.61074 0.23725-0.58227 0.90879 0.04448 1.0488 0.80732 2.2213 1.4453 2.2213 0.27122 0 1.3589-0.28768 2.417-0.63931 3.662-1.2169 7.3477-1.4256 7.3477-0.41598 0 0.15441 0.57147 1.0263 1.2699 1.9376 1.3704 1.7879 2.2582 4.0936 2.1218 5.5103-0.06937 0.72054-0.28406 0.98658-1.2046 1.4929-1.7009 0.93551-4.434 1.6335-7.1071 1.8151l-2.4064 0.16346zm4.4617-2.096c1.1796-0.41672 2.7274-0.83338 3.4396-0.92591 1.627-0.21138 2.4394-0.60627 1.271-0.61778-1.7135-0.01693-7.7814 1.8707-7.7814 2.4205 0 0.1593 0.19368 0.19166 0.46302 0.07734 0.25466-0.10808 1.4282-0.53747 2.6078-0.95419zm4.1262 0.74247c1.3283-0.35055 1.9161-0.7067 1.1663-0.7067-0.81489 0-2.8071 0.58563-2.8071 0.82516 0 0.29258 0.11478 0.28427 1.6408-0.11845zm-4.9653-2.8175c0.83651-0.28781 2.1053-0.60082 2.8196-0.69556 0.71422-0.09475 1.2986-0.2685 1.2986-0.38613 0-0.43656-4.8153 0.66667-5.8208 1.3336-0.62799 0.41653 0.05228 0.31589 1.7027-0.25194zm-1.4381-1.5934c1.2369-0.43267 2.6061-0.80013 3.0427-0.81658 0.43656-0.0164 1.0914-0.13287 1.4552-0.25874 0.43288-0.14976 0.06718-0.17799-1.0583-0.08168-1.7275 0.14782-5.1325 1.1566-5.6496 1.6737-0.38354 0.38354-0.32351 0.36949 2.2101-0.51673zm0.92842-1.8527c2.1954-0.56147 2.7064-0.79314 1.7497-0.79314-0.93565 0-4.0011 0.83547-4.0011 1.0905 0 0.2975-0.15412 0.31784 2.2513-0.29737zm-6.2108-1.3049c-0.3915-0.73152-0.33806-1.5237 0.11451-1.6973 0.46212-0.17735 0.59783 0.00265 0.6726 0.88617 0.12002 1.4202-0.25458 1.8062-0.78711 0.81113z" style="fill:#00aad4;stroke-width:.26458"/>
 </g>
</svg>
