<?xml version="1.0" encoding="UTF-8"?>
<svg width="14.631mm" height="18.903mm" version="1.1" viewBox="0 0 14.631 18.903" xmlns="http://www.w3.org/2000/svg">
 <g transform="translate(6.0854 14.023)">
  <path d="m-4.0071 4.6242c0-0.14094-0.19233-0.18246-0.42741-0.09226-0.33605 0.12896-0.39031 0.047096-0.25381-0.3829 0.095462-0.3008 0.049689-0.62349-0.10176-0.7171-0.17026-0.10522-0.27535-1.6351-0.27535-4.0088 0-3.78-0.00847-3.836-0.55597-3.6622-0.51094 0.16216-0.54099 0.10467-0.37097-0.70977 0.10176-0.48742 0.49459-1.5872 0.87299-2.4439 0.77306-1.7503 1.8095-2.6497 4.1461-3.5981 0.8023-0.32562 1.3901-0.703 1.3063-0.83857-0.083794-0.1356-0.039476-0.39015 0.098504-0.56568 0.13798-0.17552 0.33033-0.65143 0.42741-1.0576 0.20555-0.85976 0.69019-0.71284 0.69019 0.20926 0 0.3466 0.12719 0.70882 0.28263 0.80489s0.2231 0.32975 0.15036 0.5193c-0.087286 0.22746 0.42251 0.55208 1.4998 0.95496 2.3128 0.86495 3.5683 2.2119 4.4725 4.7985 0.39423 1.1278 0.65431 2.0505 0.5779 2.0505-0.076385 0-0.3692-0.12327-0.65066-0.2739-0.49535-0.26511-0.51178-0.14721-0.51178 3.6718 0 3.2381-0.073422 4.0066-0.40939 4.2854-0.32046 0.26596-0.3365 0.38484-0.073819 0.54718 0.51808 0.3202 0.063844 0.57814-0.49316 0.28006-0.31663-0.16947-0.65416-0.17312-0.9452-0.010319-0.28837 0.16137-0.62447 0.16137-0.92604 0-0.30446-0.16296-0.64109-0.15949-0.9434 0.0097896-0.32266 0.18058-0.58484 0.16777-0.83614-0.040799-0.26435-0.21939-0.51308-0.22519-0.89479-0.020902-0.90734 0.48559-1.6188 0.35076-1.6482-0.31237-0.025135-0.5661-0.035375-0.5629-0.21003 0.064744-0.10102 0.36303-0.3983 0.70141-0.66064 0.75195-0.377 0.072602-0.44016-0.024077-0.30131-0.46164 0.15841-0.49908 0.076385-0.55007-0.83434-0.51866l-1.01 0.034819 1.8521 0.38986-0.99219 0.034819c-0.5457 0.01905-0.99219 0.15391-0.99219 0.29943 0 0.14552-0.23812 0.26458-0.52917 0.26458s-0.52917-0.11533-0.52917-0.2563zm5.0271-3.4599c0-2.7501-0.038312-2.9607-0.64942-3.5719-0.85921-0.85918-2.0753-0.85918-2.9345 0-0.59163 0.59163-0.64945 0.85775-0.64945 2.9898 0 1.2872-0.11906 2.4832-0.26458 2.6579-0.18939 0.22725-0.17743 0.24537 0.042095 0.063738 0.16867-0.13957 0.80878-0.18494 1.4225-0.10081 0.61367 0.084111 1.3389 0.02749 1.6116-0.12581 0.3842-0.21603 0.24326-0.24511-0.62616-0.12928-1.6423 0.21881-1.9208-0.1301-1.9208-2.4066 0-2.3268 0.41503-3.0692 1.7159-3.0692 1.3858 0 1.7158 0.53165 1.7771 2.8632 0.029395 1.1174 0.032941 2.4186 0.007938 2.8915-0.025135 0.47294 0.070035 0.8599 0.21119 0.8599 0.15036 0 0.25667-1.2106 0.25667-2.9225zm2.3812 2.7902c0-0.07276-0.059531-0.13229-0.13229-0.13229-0.07276 0-0.13229 0.059531-0.13229 0.13229 0 0.07276 0.059531 0.13229 0.13229 0.13229 0.07276 0 0.13229-0.059531 0.13229-0.13229zm1.7639-0.044106c-0.097023-0.097023-0.25577-0.097023-0.3528 0-0.096996 0.097023-0.017727 0.1764 0.1764 0.1764 0.19402 0 0.27339-0.079375 0.1764-0.1764zm0.88194-0.48506c0-0.07276-0.059531-0.13229-0.13229-0.13229-0.07276 0-0.13229 0.059531-0.13229 0.13229 0 0.07276 0.059531 0.13229 0.13229 0.13229 0.07276 0 0.13229-0.059531 0.13229-0.13229zm-9.7896-2.9063c0-2.1041 0.048181-2.2987 0.76864-3.105 0.64897-0.72633 0.94147-0.85572 1.879-0.83114 0.81685 0.021431 1.2914 0.21016 1.7953 0.71398 0.61293 0.61296 0.69689 0.93602 0.7992 3.0759l0.1143 2.3911h5.2269v-7.6729h-0.69638c-0.38298 0-1.0974 0.24784-1.5875 0.55073l-0.89112 0.55073-1.7118-0.56962c-1.7311-0.57608-3.7667-0.71932-5.5275-0.38902l-0.96287 0.18063v3.6747c0 3.09 0.063156 3.6747 0.39688 3.6747 0.3216 0 0.39688-0.42582 0.39688-2.2448zm1.4982-0.20259c-0.073395-0.1819-0.13346-0.033073-0.13346 0.33073 0 0.3638 0.06006 0.51263 0.13346 0.33073 0.073395-0.1819 0.073395-0.47956 0-0.66146z" style="fill:#00aad4;stroke-width:.26458"/>
 </g>
</svg>
