<?xml version="1.0" encoding="UTF-8"?>
<svg width="17.626mm" height="13.141mm" version="1.1" viewBox="0 0 17.626 13.141" xmlns="http://www.w3.org/2000/svg">
 <g transform="translate(-11.377 2.1167)">
  <path d="m19.578 10.899c-0.10316-0.10316-0.18756-1.7155-0.18756-3.583v-3.3955h-0.68688c-1.0895 0-3.5796-0.8082-4.6281-1.5021-1.1265-0.74549-2.5911-2.6845-2.6874-3.558-0.05773-0.52385 0.09697-0.64714 1.08-0.86082 1.5913-0.34586 4.1249 0.16021 5.4669 1.092 0.58222 0.4042 1.3199 1.2513 1.6393 1.8823l0.58073 1.1474 0.37206-0.89046c0.88442-2.1167 3.9168-3.6036 6.7526-3.3109 0.79563 0.0821 1.5429 0.24559 1.6606 0.36327 0.32152 0.32152-0.64146 2.2264-1.5631 3.092-0.67879 0.63751-0.7888 0.67588-0.6735 0.23492 0.19534-0.74702-0.56028-0.95507-1.6283-0.44826-1.3325 0.63233-1.542 1.7003-0.33348 1.7003 0.97832 0 0.27813 0.32411-1.7059 0.7897l-1.9257 0.45188-0.13229 3.4141c-0.1234 3.1846-0.16859 3.4193-0.67233 3.4914-0.29705 0.04252-0.62447-0.0071-0.7276-0.11022z" style="fill:#00aad4;stroke-width:.26458"/>
 </g>
</svg>
