<?xml version="1.0" encoding="UTF-8"?>
<svg width="16.552mm" height="18.483mm" version="1.1" viewBox="0 0 16.552 18.483" xmlns="http://www.w3.org/2000/svg">
 <g transform="translate(-10.583 -11.906)">
  <path d="m22.752 30.035c-0.27093-0.32644-0.17582-0.82031 0.52224-2.712 0.46942-1.2721 1.0683-2.6193 1.3307-2.994 1.3001-1.8554 2.2618-7.5976 1.6054-9.5862-0.48421-1.4672-1.6414-2.3004-3.195-2.3004-1.62 0-2.5013 0.33181-3.0318 1.1415-0.51718 0.78933-0.35052 1.2225 0.73327 1.9053 0.94189 0.59349 1.2111 1.458 0.60952 1.9572-0.21712 0.18016-1.0087 0.48956-1.7592 0.68752-1.8172 0.47935-2.3696 1.0145-2.3696 2.2954 0 2.0388-1.3571 3.8958-3.3436 4.5752-0.85595 0.29276-1.0355 0.48281-1.1049 1.1697-0.04559 0.45109-0.14123 0.82016-0.21257 0.82016-0.22328 0-1.9534-1.446-1.9535-1.6326 0-0.09758 0.33351-0.25067 0.74112-0.3402 0.6495-0.14264 0.7788-0.3425 1.0461-1.6166 0.16769-0.7996 0.55862-1.8101 0.86865-2.2455 0.55306-0.77668 2.2685-1.838 2.9708-1.838 0.19579 0 0.76343-0.30057 1.2614-0.66794 0.49794-0.3674 1.3726-0.74269 1.9437-0.83402 0.5711-0.09131 1.2681-0.39574 1.5488-0.67649 0.48308-0.48305 0.48615-0.53729 0.05715-1.0113-0.24932-0.27548-0.67545-0.57139-0.94697-0.65757-0.63085-0.20021-0.89321-1.2292-0.50049-1.963 0.85302-1.5939 3.8869-2.1391 5.5746-1.0018 0.4866 0.32792 1.1293 1.0125 1.4282 1.5214 1.1291 1.922 0.50848 7.2829-1.5006 12.964-1.1739 3.3192-1.614 3.8952-2.3234 3.0405zm-8.2429-7.3472c-0.48585-0.47694-0.92763-0.76086-0.98174-0.63095-0.102 0.24498 1.2523 1.4719 1.6432 1.4886 0.12205 0.0053-0.1756-0.38074-0.66146-0.85767zm1.4317-0.46397c-0.32742-0.1316-0.59531-0.36219-0.59531-0.51239 0-0.15023-0.17859-0.27313-0.39688-0.27313-0.21828 0-0.40627-0.20836-0.41775-0.46302-0.01349-0.29893-0.06985-0.34086-0.15899-0.11837-0.18365 0.45836 0.96713 1.581 1.6351 1.5951 0.47662 0.01005 0.47006-0.0127-0.06615-0.22815zm0.46302-1.7116c0-0.21828-0.11202-0.39688-0.24897-0.39688-0.33364 0-0.57258 0.41317-0.36118 0.62458 0.29795 0.29795 0.61016 0.18145 0.61016-0.2277zm1.2871 5.8198c1.0891-0.48421 1.9714-0.5157 1.8231-0.06509-0.06326 0.19214-0.65461 0.35801-1.4111 0.39582l-1.3022 0.06506zm-0.06678-2.7561c0.50366-0.85265 1.1609-1.093 1.1609-0.42458 0 0.21452-0.36949 0.58113-0.82106 0.81465l-0.82108 0.4246zm-5.559-4.8252c-0.51922-0.74128-0.55129-1.5457-0.0616-1.5457 0.21267 0 0.4278 0.40394 0.52099 0.9783 0.19643 1.2104 0.08628 1.3465-0.4594 0.56745zm1.9574-2.6124c0-0.71729 0.13372-1.1179 0.40828-1.2233 0.6523-0.25032 0.7606 0.09496 0.3859 1.2303-0.44802 1.3576-0.79417 1.3545-0.79417-0.0069z" style="fill:#00aad4;stroke-width:.26458"/>
 </g>
</svg>
