<?xml version="1.0" encoding="UTF-8"?>
<svg width="28.198mm" height="28.696mm" version="1.1" viewBox="0 0 28.198 28.696" xmlns="http://www.w3.org/2000/svg">
 <g transform="translate(-19.579 1.0583)">
  <path d="m28.386 27.151c-0.36214-0.26765-0.86902-0.82068-1.1264-1.2289-0.25736-0.40825-0.68501-0.83217-0.95033-0.94205-0.85839-0.35557-2.2753-1.9191-2.8771-3.1749-0.30845-0.64365-0.56084-1.2915-0.56084-1.4396 0-0.15372-0.44167-0.53866-1.0289-0.8967-1.4548-0.8871-2.2635-1.5455-2.2635-1.8429 0-0.21201 0.1493-0.23823 0.87294-0.15317 0.48011 0.05644 1.1002 0.14804 1.3779 0.2036l0.50498 0.10099 0.08334-1.8682c0.05654-1.2672 0.19793-2.2258 0.4395-2.9794 0.33192-1.0356 0.38873-1.1111 0.83505-1.1111 0.43183 0 0.54631-0.12959 1.1646-1.3181 1.4369-2.7619 2.7958-4.0515 5.109-4.8485 1.3284-0.45765 4.4996-0.52845 5.9098-0.13195 1.2124 0.34089 1.2038 0.31835 0.73888 1.9361-0.18611 0.64749-0.29136 1.6398-0.30559 2.8808l-0.0217 1.8931 0.60669-0.01773c0.67-0.01984 2.5524-0.85815 3.9872-1.776 0.50993-0.3262 0.98663-0.59309 1.0594-0.59309 0.1927 0 1.271 2.2366 1.5873 3.2924 0.30594 1.0212 0.54234 4.1147 0.31459 4.1168-0.64482 0.0058-3.0779 0.36184-3.3848 0.49517-0.33147 0.14401-0.30514 0.15558 0.19201 0.08445 0.31686-0.04535 1.4542-0.13179 2.5273-0.19209 1.8338-0.10306 1.9477-0.09155 1.8931 0.19161-0.05615 0.29139-1.657 1.2115-3.515 2.0203-0.72567 0.31589-0.75488 0.34618-0.24691 0.25593 0.31686-0.0563 0.96507-0.23064 1.4404-0.38743 0.67649-0.22312 0.86424-0.23826 0.86424-0.06967 0 0.5548-0.90048 2.5493-1.4827 3.284-0.35679 0.45029-0.93615 1.1891-1.2874 1.6418-0.92059 1.1864-2.9436 3.0454-3.3141 3.0454-0.37581 0-0.48964-0.15378-0.53694-0.72551l-0.03524-0.42569-0.566 0.58274c-0.66418 0.68382-0.96565 0.67437-1.4178-0.04434-0.29684-0.47183-0.41421-0.5275-1.124-0.53319-0.68247-0.0056-0.85029 0.06226-1.2081 0.48752-0.52983 0.62966-0.73462 0.62077-1.3304-0.05778-0.54478-0.62047-1.3605-0.93472-1.3605-0.52411 0 0.13613-0.20373 0.47445-0.4527 0.75187l-0.4527 0.50443zm1.5925-5.9905-0.54123-0.53501-0.31985 0.38862c-0.47964 0.5828-0.40132 0.68141 0.54126 0.68141h0.86106zm6.1718-1.8855c0.41005-0.268 0.8782-1.3275 0.8782-1.9874 0-1.3737-0.82442-2.506-1.8245-2.506-1.612 0-2.3831 2.7042-1.1792 4.135 0.69318 0.82378 1.266 0.92041 2.1255 0.35851zm-10.489-0.04397c0.40706-0.21786 0.83286-1.3431 0.82844-2.1893-0.0026-0.38296-0.14534-1.0085-0.31858-1.3901-0.74089-1.6321-2.147-0.7588-2.147 1.3334 0 1.7638 0.71231 2.741 1.6372 2.246zm4.3527-6.6089 0.91043-1.1717-0.85744-1.1238c-0.47159-0.6181-0.90408-1.1279-0.9611-1.1329-0.09268-0.0082-1.3447 1.5479-1.6717 2.0775-0.08202 0.13287 0.18666 0.63122 0.73652 1.366 0.47612 0.63622 0.88077 1.1568 0.89924 1.1568 0.01852 0 0.44326-0.52729 0.94401-1.1718zm6.5282-2.387c0.0045-0.9293 0.10956-1.762 0.28808-2.2852l0.28088-0.82309 1.7955-0.71877c1.996-0.79899 3.0607-1.0289 3.0607-0.66101 0 0.35806-0.9875 3.2856-1.344 3.9843-0.26244 0.51443-0.54695 0.73795-1.539 1.2091-0.6694 0.3179-1.5169 0.6182-1.8832 0.66733l-0.66614 0.08935 0.0071-1.4621zm-13.596 0.61193c-1.213-0.69914-1.2465-0.76734-1.192-2.4281 0.04358-1.3278 0.07784-1.461 0.38748-1.5053 0.50575-0.072311 2.1422 1.2119 2.5217 1.9789l0.32091 0.6486-0.39301 0.85058c-0.21616 0.46784-0.48771 0.86945-0.60344 0.89249-0.1157 0.02302-0.58444-0.17367-1.0416-0.43714zm18.2-1.2098c0-0.022754 0.21233-0.67082 0.46942-1.4404 0.53732-1.6086 0.9158-3.1123 0.80997-3.2182-0.12533-0.12531-2.6284 0.58661-3.8224 1.0871-0.62796 0.26323-1.1706 0.44982-1.2058 0.41455-0.13761-0.13761 0.86519-1.4448 1.2654-1.6494 0.61666-0.31541 3.9606-1.3737 4.5391-1.4366l0.49384-0.053657-0.03948 1.1606c-0.0217 0.63833-0.18706 1.7495-0.3674 2.4693-0.29557 1.1797-0.40481 1.3776-1.1083 2.0083-0.6605 0.59211-1.0429 0.83555-1.0344 0.65847zm-16.998-1.7987c-1.0069-1.0255-1.9032-1.5631-2.3317-1.3987-0.18542 0.071173-0.26188 0.31546-0.26188 0.83672 0 0.76094-0.25233 1.1477-0.43619 0.6685-0.05755-0.14997-0.01931-0.87588 0.08496-1.6132 0.14708-1.04 0.27874-1.4297 0.5873-1.7383 0.36423-0.3642 0.44088-0.37986 0.9094-0.18582 0.50176 0.20783 3.2992 3.0269 3.2992 3.3247 0 0.32316-0.51266 1.1215-0.70384 1.0961-0.11086-0.014817-0.62712-0.46022-1.1473-0.98996zm19.529-0.55745c0.2186-0.56965 0.58891-2.4069 0.6962-3.4541l0.11388-1.1117-0.84413 0.11197c-0.46429 0.061595-1.5955 0.3352-2.5138 0.60801-0.91832 0.27281-1.737 0.47358-1.8194 0.44611-0.2372-0.079057 2.047-1.9454 3.4223-2.7963 1.2992-0.80378 3.5444-1.8141 4.4959-2.023l0.54893-0.12057-0.11369 0.71104c-0.31276 1.956-1.6155 4.9348-2.9368 6.7149-0.81352 1.0961-1.2729 1.496-1.0494 0.91361zm-18.013-0.77126c-0.96822-1.187-2.7948-2.9223-3.0759-2.9223-0.14687 0-0.40251 0.12261-0.56809 0.27244-0.46276 0.41878-0.35878 0.054636 0.24704-0.86524 0.92234-1.4005 2.2541-2.5081 3.943-3.2795 0.84788-0.38724 2.2583-0.70863 2.2583-0.51459 0 0.054928-0.1855 0.65254-0.41225 1.328-0.22675 0.67545-0.55478 2.1771-0.72898 3.337-0.30096 2.0041-0.68778 3.3435-0.9656 3.3435-0.06985 0-0.3837-0.31467-0.69742-0.69929z" style="fill:#00aad4;stroke-width:.16462"/>
 </g>
</svg>
