<?xml version="1.0" encoding="UTF-8"?>
<svg width="29.452mm" height="30.704mm" version="1.1" viewBox="0 0 29.452 30.704" xmlns="http://www.w3.org/2000/svg">
 <g transform="translate(17.992 4.2333)">
  <path d="m-11.407 26.089c0-0.76705-0.4508-1.5846-0.98483-1.7862-0.27321-0.10314-0.49514-0.22683-0.49318-0.27488 0.0026-0.04807 0.24273-0.19849 0.53501-0.3343 0.43251-0.20095 0.58944-0.42553 0.84302-1.2064 0.31446-0.96838 0.58579-1.017 0.59132-0.10604 0.0034 0.56253 0.43244 1.1368 1.0402 1.3924l0.50165 0.21093-0.49361 0.25524c-0.68239 0.35288-0.87334 0.62442-1.0126 1.4399-0.1352 0.79211-0.52705 1.0964-0.52705 0.40931zm18.725-0.25535c-0.044397-0.13581-0.20645-0.67707-0.3601-1.2028-0.21759-0.74451-0.39516-1.0265-0.80304-1.2752-0.288-0.1756-0.65328-0.31956-0.81172-0.31991-0.50191-0.002645-0.30102-0.23516 0.54062-0.62987 0.76412-0.35838 0.83145-0.44088 1.0745-1.3169 0.40608-1.4635 0.43532-1.4907 0.65146-0.60537 0.32798 1.3436 0.55827 1.6899 1.3366 2.0099 0.83357 0.34272 0.89075 0.47609 0.2653 0.61865-0.77004 0.1755-1.0463 0.51469-1.4364 1.7633-0.20704 0.66283-0.4128 1.094-0.45723 0.95822zm-22.381-0.09724c-0.04765-0.08234-0.13703-0.44601-0.19862-0.80817-0.32486-1.91-1.089-3.0405-2.2237-3.2897-0.27834-0.06112-0.50607-0.17391-0.50607-0.25061 0-0.07673 0.40272-0.32385 0.89498-0.5492 1.0346-0.47366 1.4193-1.0664 1.7587-2.7099 0.11586-0.56097 0.2604-1.02 0.32115-1.02 0.06075 0 0.16309 0.35187 0.22741 0.78195 0.06432 0.43005 0.24056 1.1523 0.39161 1.605 0.25506 0.76438 0.34962 0.85998 1.3259 1.3405l1.0512 0.51739-0.72202 0.32448c-1.1257 0.50594-1.4615 0.98936-1.8704 2.693-0.19997 0.8332-0.40259 1.4475-0.45022 1.3652zm7.0703-2.7118c-0.32499-0.26789-0.74721-0.74001-0.93829-1.0492-0.19106-0.30914-0.67077-0.7516-1.066-0.98322-0.39524-0.23162-1.0067-0.7484-1.3587-1.1484-0.65638-0.74568-1.5325-2.3492-1.5325-2.8048 0-0.14039-0.31483-0.45336-0.69964-0.69554-1.2011-0.75591-2.4281-1.7069-2.4281-1.8819 0-0.17187 1.8286-0.09575 2.3311 0.09708 0.22185 0.08514 0.27117-0.14295 0.34528-1.5972 0.04929-0.96782 0.22032-2.1207 0.39814-2.6842 0.28866-0.91469 0.35084-0.99153 0.84093-1.0393 0.29109-0.02839 0.52925-0.12226 0.52925-0.20862 0-0.36176 1.7428-3.2111 2.3126-3.7809 0.69805-0.69808 2.3151-1.5265 3.5365-1.8118 1.9374-0.45249 5.8462 0.00265 5.584 0.65027-0.26987 0.66654-0.72885 3.3268-0.73081 4.2358-0.002646 1.2435 0.17476 1.4391 1.0788 1.1898 0.7711-0.21267 2.5301-1.0856 3.4363-1.7053 0.62283-0.42593 0.65783-0.43148 0.87712-0.1392 0.87844 1.1708 1.5088 3.0806 1.6324 4.9457 0.11578 1.7477 0.26352 1.6095-1.8795 1.7587-0.65479 0.04556-1.3215 0.16603-1.4816 0.26768-0.24625 0.1564-0.22326 0.17055 0.14954 0.09205 1.6265-0.34258 4.4157-0.41124 4.4157-0.10872 0 0.18071-1.6707 1.1397-2.8963 1.6623-1.3176 0.56198-1.2011 0.63278 0.28181 0.17124 0.57004-0.17743 1.063-0.29602 1.0955-0.26355 0.10991 0.10991-0.323 1.4816-0.70633 2.2381-0.20963 0.41365-0.73919 1.1534-1.1768 1.6439-1.6981 1.9033-3.0807 3.2865-3.3798 3.3814-0.39658 0.12586-0.79052-0.19471-0.79052-0.64328 0-0.34309-0.002646-0.34293-0.25538 0.01879-0.46426 0.66286-0.8768 0.77272-1.324 0.35256-0.2178-0.20463-0.396-0.47024-0.396-0.59026 0-0.15076-0.2418-0.21791-0.78195-0.2172-0.69575 0.0026-0.81283 0.05535-1.0624 0.49384-0.35139 0.61754-0.69993 0.62362-1.2619 0.02196-0.68686-0.73528-1.0887-0.79097-1.3394-0.18563-0.33184 0.80116-0.67445 0.88098-1.3591 0.31663zm1.5246-5.3395c-0.21265-0.22635-0.43929-0.41156-0.50363-0.41156-0.064347 0-0.23834 0.18521-0.38664 0.41156l-0.26966 0.41153h1.5465zm5.6564-1.8328c1.3111-1.3111 0.61592-4.0111-1.0327-4.0111-0.49295 0-1.1463 0.63439-1.3486 1.3094-0.61995 2.0692 1.0824 4.0006 2.3813 2.7017zm-9.4513-0.05159c1.0463-1.0463 0.62942-3.7949-0.57563-3.7949-1.0636 0-1.4453 2.5511-0.55174 3.6872 0.40211 0.5112 0.6958 0.53927 1.1274 0.10769zm3.853-7.9073c-0.42317-0.54491-0.8227-0.99076-0.88784-0.99076-0.12496 0-1.4342 1.6776-1.5119 1.9372-0.024871 0.083423 0.31065 0.60669 0.74578 1.1628l0.79113 1.0111 1.6322-2.1295zm5.9749 1.2011c-0.21265-0.21262-0.10295-2.6382 0.1533-3.3903 0.25228-0.74041 0.29774-0.77769 1.5227-1.2486 1.8631-0.71625 2.9916-1.0644 3.0996-0.95636 0.16179 0.16179-0.090567 1.1096-0.73081 2.7449l-0.6123 1.5638-1.2346 0.59849c-1.3188 0.63923-2.0255 0.86048-2.1979 0.68802zm-12.124-0.54769c-1.2908-0.7094-1.387-0.85376-1.4433-2.1669-0.06125-1.4293 0.06937-1.7086 0.72247-1.5447 0.59402 0.14909 2.2024 1.7455 2.2024 2.1861 0 0.39762-0.62431 1.8599-0.78962 1.8495-0.06368-0.00397-0.37505-0.14978-0.69194-0.32393zm21.586-0.54515c-0.24768-1.1067-0.56692-1.562-1.3182-1.8796l-0.59579-0.25191 0.70638-0.303c0.74692-0.32036 1.0457-0.78962 1.2722-1.9981 0.11837-0.63148 0.4083-0.85725 0.4083-0.31795 0 0.16462 0.11192 0.67617 0.24868 1.1367 0.22458 0.75621 0.32025 0.8668 0.98708 1.141 0.79018 0.32496 0.95319 0.5506 0.39775 0.5506-0.58486 0-1.2463 0.83407-1.4762 1.8616-0.11533 0.5153-0.26019 0.93692-0.32192 0.93692-0.061727 0-0.20047-0.39436-0.30835-0.87635zm-5.2857-0.89329c0.0026458-0.067892 0.22384-0.82354 0.49384-1.6792 0.58563-1.8558 0.61926-2.3128 0.17021-2.3128-0.40264 0-2.8957 0.77925-3.5219 1.1009-0.25741 0.13219-0.50363 0.20473-0.54716 0.16118-0.13819-0.13819 0.42249-1.0672 0.80626-1.336 0.3393-0.23765 3.2163-1.2275 4.2868-1.4748 0.61674-0.14253 0.71813 0.17865 0.48501 1.5363-0.44574 2.596-0.53901 2.8575-1.2514 3.5086-0.66 0.6033-0.9276 0.74726-0.92168 0.49586zm-14.909-0.93562c-0.35875-0.54753-1.8677-1.689-2.4124-1.8249-0.43061-0.10742-0.4485-0.084005-0.55621 0.728-0.17468 1.3168-0.46027 1.0317-0.35512-0.35449 0.10136-1.3363 0.31694-1.936 0.80552-2.2412 0.43646-0.2726 0.86008 7.94e-5 2.3099 1.4868 1.2658 1.298 1.4104 1.6053 1.0291 2.1872-0.34192 0.52181-0.48884 0.52514-0.82084 0.018521zm17.112-1.081c0.60227-2.3576 0.76766-4.1167 0.38677-4.1139-0.28588 0.0026458-3.2292 0.75875-3.809 0.9792-1.2674 0.48194-0.31176-0.50427 2.0128-2.0771 1.2932-0.87495 3.6469-2.0088 4.6969-2.2626 0.47048-0.11372 0.47204-0.1115 0.35793 0.5112-0.4068 2.2195-2.0312 5.5926-3.3535 6.9632l-0.39701 0.41156zm-16.103-0.36036c-0.45569-0.65058-2.7322-2.932-2.9258-2.932-0.10409 0-0.32515 0.123-0.49128 0.27334-0.9943 0.89985 0.15206-1.1777 1.2123-2.197 0.77399-0.74411 2.3694-1.6672 3.4015-1.9681 1.0735-0.3129 1.3225-0.15965 0.9407 0.5788-0.27757 0.53673-0.80738 2.9261-0.9901 4.4652-0.112 0.9434-0.53956 2.14-0.76467 2.14-0.071649 0-0.24387-0.16216-0.38269-0.36036zm-6.0239-3.7966c-0.25913-1.1223-0.54446-1.5566-1.2405-1.8886-0.31247-0.14899-0.56811-0.31636-0.56811-0.37198 0-0.055562 0.26675-0.19748 0.5928-0.31538 0.45572-0.16481 0.66654-0.38111 0.91178-0.93551 0.17544-0.39664 0.33464-0.94456 0.35378-1.2176 0.05241-0.74877 0.34862-0.49392 0.4781 0.4114 0.13967 0.97639 0.57335 1.5918 1.2607 1.7889 0.64942 0.18624 0.65408 0.33404 0.01879 0.59716-0.7126 0.29517-1.1239 0.8986-1.2475 1.8302-0.059 0.44482-0.16425 0.84397-0.23387 0.88699-0.06964 0.043048-0.21638-0.31049-0.32607-0.78563zm15.486 0.019315c-0.17605-0.68686-0.30528-0.87871-0.68958-1.0238-0.59791-0.22566-0.59521-0.36388 0.013229-0.67852 0.44723-0.23127 0.82677-1.0048 0.82981-1.6913 0-0.11316 0.075009-0.20577 0.16555-0.20577 0.09054 0 0.16462 0.21876 0.16462 0.48612 0 0.72713 0.30099 1.2508 0.88056 1.5322l0.51869 0.25175-0.41833 0.16478c-0.59116 0.23283-0.83248 0.57991-0.93509 1.3449-0.049054 0.36573-0.13951 0.66495-0.201 0.66495-0.061516 0-0.20931-0.38039-0.32845-0.84529z" style="fill:#00aad4;stroke-width:.16462"/>
 </g>
</svg>
