<?xml version="1.0" encoding="UTF-8"?>
<svg width="68.522mm" height="66.636mm" version="1.1" viewBox="0 0 68.522 66.636" xmlns="http://www.w3.org/2000/svg">
 <g transform="translate(16.14 34.131)">
  <path d="m49.817 31.168c-1.5641-1.0317-4.9961-4.2775-13.987-13.228l-11.914-11.861-0.87487 0.32967c-0.81005 0.30522-0.9144 0.28083-1.4087-0.32927-0.29363-0.36243-0.80984-1.2035-1.1471-1.8691-0.59055-1.1654-4.6985-5.0345-5.5502-5.2274-0.20034-0.045376-0.66114 0.112-1.024 0.34975l-0.65974 0.43228 0.84249 1.5459c0.46334 0.85026 0.76335 1.6253 0.6667 1.7222-0.24635 0.24702-1.1467-0.2772-2.3624-1.3755l-1.0361-0.9361-1.7068 0.42876c-0.93877 0.2358-2.0225 0.42873-2.4084 0.42873-0.56457 0-0.66421 0.090408-0.51033 0.46302 0.30266 0.73295 0.68826 2.5065 0.57055 2.6242-0.17534 0.17534-2.689-2.8516-3.5525-4.2779-0.97375-1.6084-1.1975-2.5454-1.2637-5.2917-0.028046-1.1642-0.14227-2.6227-0.25379-3.2411-0.16809-0.93218-0.1316-1.1245 0.21333-1.1245 0.22886 0 0.48969 0.11906 0.57962 0.26458 0.27286 0.44151 0.55819 0.30115 0.94123-0.46302 0.20058-0.40018 0.4027-0.80031 0.4491-0.88921 0.046434-0.08887-0.21915-0.36052-0.59021-0.60362-0.65389-0.42844-0.68218-0.42212-0.92096 0.2059-0.19751 0.51956-0.54636 0.71022-1.7606 0.96229-1.8234 0.37854-2.0794 0.27874-6.2396-2.4331-2.635-1.7176-2.8566-1.9293-3.2272-3.0821-0.5189-1.6142-0.78886-3.5874-0.59595-4.356 0.087921-0.35031 0.61881-0.87297 1.2432-1.2239 0.59933-0.33684 0.99007-0.70559 0.86826-0.81942-0.12181-0.11382-1.0439-0.25606-2.0491-0.31604-1.6605-0.09911-1.8903-0.18444-2.5135-0.93316-1.64-1.9703-3.7354-6.2896-4.5662-9.4124-0.28906-1.0865-0.28162-1.3068 0.05128-1.5173 0.42283-0.26739 5.5894-0.34272 6.5128-0.09496 0.32366 0.08684 1.2671 1.1638 2.1974 2.5085 1.195 1.7273 1.8206 2.3979 2.3432 2.5119 0.39219 0.08554 1.0583 0.26477 1.4801 0.39825 0.4219 0.13348 0.85455 0.2427 0.96142 0.2427 0.10689 0 0.24209-1.1888 0.30043-2.6418 0.064347-1.6022 0.2341-2.7698 0.43135-2.967 0.49787-0.49784 1.4756-0.01588 4.3497 2.1445l2.5406 1.9097 0.16915 2.0341c0.26143 3.1441 0.31734 3.2887 1.5646 4.0484l1.1351 0.69141 0.18018 2.3442c0.11449 1.4894 0.30599 2.4146 0.52517 2.5372 0.18973 0.10618 0.56227 0.67493 0.82785 1.2639 0.26559 0.58896 0.65614 1.0708 0.86789 1.0708 0.2372 0 0.32335-0.15235 0.22439-0.39688-0.54671-1.351-0.6083-1.2778 0.92107-1.0962 0.78753 0.09348 2.563 0.20579 3.9454 0.24961 1.9315 0.0612 2.7605 0.20881 3.58 0.63738 1.396 0.73004 4.8866 3.4665 4.8866 3.8308 0 0.27607-0.96078 0.19201-2.3151-0.20259-0.54628-0.15917-0.59531-0.08723-0.59531 0.87371 0 0.57592-0.17523 1.6294-0.38941 2.3411-0.38727 1.2868-0.38531 1.2983 0.35488 2.0926 1.0288 1.1039 1.9738 2.5194 1.7988 2.6944-0.08004 0.080036-0.88421-0.2236-1.787-0.67477-1.5371-0.76809-1.6639-0.79095-1.9929-0.3592-0.79645 1.045-0.69085 1.3179 1.495 3.8628 1.1833 1.3777 2.4169 2.5715 2.7412 2.653 0.32435 0.081386 1.1006 0.51811 1.7251 0.97044 1.0114 0.73268 1.1208 0.914 1.0023 1.6612-0.12761 0.80407 0.35589 1.3309 11.696 12.745 8.3548 8.4089 12.233 12.502 13.203 13.934 2.0847 3.0776 1.9004 3.2699-1.1841 1.2354zm-25.696-27.257c-0.19177-0.19177-0.40103-0.034581-0.68495 0.51448-0.52821 1.0215-0.24932 1.3004 0.43296 0.43299 0.36676-0.46628 0.44376-0.7557 0.25199-0.94747zm-1.5619-0.58214 0.8132-1.0283-0.72702-0.62537c-0.92895-0.79904-1.0756-0.78698-1.7378 0.14309-0.68726 0.96517-0.68337 1.1657 0.04813 2.4698 0.46254 0.82463 0.61706 0.95067 0.69281 0.56518 0.05366-0.27286 0.46347-0.95888 0.91072-1.5244zm-3.5218-2.0184c-1.3826-1.232-7.1207-5.8961-7.6037-6.1805-0.21783-0.12827-0.2775-0.062124-0.17798 0.19719 0.08234 0.21458 0.30649 0.45032 0.49813 0.52385 0.55933 0.21463 3.2655 2.3571 5.6961 4.5094 1.2369 1.0954 2.368 1.9959 2.5135 2.0013 0.14552 0.00529-0.2712-0.46773-0.92604-1.0512zm-1.9844-3.4676c-4.4254-4.4077-4.6641-4.6783-4.3152-4.8939 0.15613-0.096494 0.3932 0.019844 0.52678 0.25858 0.13359 0.23871 0.36465 0.43402 0.51348 0.43402 0.14885 0 1.8262 1.6108 3.7274 3.5796 1.9012 1.9688 3.511 3.5253 3.5773 3.4591 0.06628-0.066252-1.2313-1.6473-2.8835-3.5134-2.8849-3.2584-4.189-4.8834-4.189-5.2197 0-0.086677 0.26194-0.15761 0.58208-0.15761 0.38018 0 0.49212-0.089932 0.32276-0.25932-0.73303-0.73303-3.7136 1.2025-3.5066 2.2772 0.05112 0.26548 0.70657 0.90234 1.4566 1.4152 0.74996 0.51289 2.6923 2.1641 4.3163 3.6694 1.624 1.5053 3.0334 2.6558 3.132 2.5568 0.09858-0.09906-1.3686-1.7217-3.2604-3.6059zm4.6045 1.9502c-0.19529-0.25466-0.83495-0.99989-1.4214-1.6561-0.58653-0.65614-1.4607-1.6509-1.9426-2.2106-0.48191-0.55965-0.92358-0.97017-0.9815-0.91226-0.112 0.112 0.10224 0.37208 2.7561 3.3458 1.5567 1.7443 2.4362 2.5373 1.5894 1.4331zm-12.22-0.34084c0.83005-0.29287 0.84749-0.33123 0.68599-1.5094-0.18034-1.3157-0.04387-1.3438 1.1782-0.24344 0.48593 0.43757 0.73594 0.49144 1.3229 0.28501 0.88368-0.31078 0.80674-0.47818-0.83884-1.8251-0.80179-0.65633-1.5863-1.6329-2.0523-2.5547-0.6473-1.2807-0.88421-1.5166-1.6709-1.6642-0.50416-0.094589-1.0934-0.42431-1.3094-0.73271-0.32184-0.45948-0.46411-0.50152-0.78782-0.23286-0.2173 0.18034-0.52366 0.7175-0.68083 1.1937-0.2463 0.74628-0.1751 1.1422 0.51565 2.8672 1.2094 3.0204 0.98277 3.6667-0.67098 1.9132-0.48035-0.50932-0.94088-0.92604-1.0234-0.92604-0.08255 0-0.15007 0.52665-0.15007 1.1703 0 0.88493 0.17388 1.377 0.7131 2.0178 0.69271 0.8232 0.75901 0.84309 2.3151 0.69464 0.88112-0.084058 1.9852-0.28805 2.4537-0.45331zm-5.5485-4.2232c0.097102 0 0.63095 0.44368 1.1863 0.98594l1.0097 0.98597-0.50456-1.449c-0.2775-0.79692-0.64841-1.7583-0.82423-2.1363-0.75965-1.6332 2.7735-6.2432 6.0541-7.8992 0.92543-0.46718 1.8751-0.79274 2.1103-0.7235 0.23524 0.06924 1.2612 0.43707 2.2798 0.8174l1.8521 0.69152-1.1466-1.0498c-1.5395-1.4095-1.2976-1.7112 1.2193-1.5209 1.5259 0.11541 1.91 0.07787 1.6688-0.16306-0.19587-0.19569-1.3248-0.32398-3.0118-0.34229-1.4841-0.01614-3.1747-0.16428-3.7568-0.32925-1.4549-0.41238-1.6091-0.3823-1.0734 0.20958 0.45559 0.50342 0.37513 1.075-0.15129 1.075-0.40264 0-2.6096 1.5368-3.759 2.6176-1.1068 1.0406-2.6559 3.25-2.9418 4.1954-0.20053 0.66328-0.65228 0.76417-1.1847 0.26458-0.29154-0.27353-0.31515-0.1706-0.13647 0.59531 0.11882 0.50932 0.18582 1.8946 0.14888 3.0784-0.038259 1.2261 0.083079 2.6493 0.28197 3.3073l0.34914 1.155 0.076835-2.1828c0.04228-1.2005 0.15632-2.1828 0.25344-2.1828zm12.767-1.3229c-0.31086-0.43656-0.62365-0.79375-0.69509-0.79375-0.16812 0 0.13928 0.53671 0.64405 1.1245 0.63585 0.74041 0.66754 0.53509 0.05104-0.33073zm0.99182-0.88569c0.23482-0.51538 0.17611-0.75189-0.34488-1.3891-0.86876-1.0625-0.80632-1.2356 0.4041-1.1202 1.2259 0.11689 1.4338-0.1959 1.8548-2.7898 0.38423-2.3679-0.41778-3.3402-2.7552-3.3402h-1.3191l1.1382 1.1597c0.64082 0.65294 1.0203 1.2326 0.86844 1.3264-0.30668 0.18952-2.3361-0.44871-3.816-1.2001-0.90281-0.45836-1.0631-0.4685-1.7545-0.11094-0.71303 0.3687-0.7524 0.47323-0.62516 1.6597 0.18928 1.7652 0.39227 2.0514 2.1179 2.9857 0.94541 0.51192 1.9023 1.3176 2.5315 2.1314 0.55631 0.71964 1.1028 1.3084 1.2143 1.3084 0.11155 0 0.33015-0.27951 0.4858-0.62111zm-5.4897-1.0987c0.49366-0.50932 1.0826-0.93131 1.3087-0.93774 0.22611-0.00635-0.04924-0.2545-0.61188-0.55129-0.72049-0.38002-1.1059-0.45667-1.3034-0.25919-0.19748 0.19748-0.39293 0.18701-0.66096-0.035428-0.30689-0.25469-0.50276-0.17378-1.0117 0.41794-0.72274 0.84021-0.80039 1.2334-0.2436 1.2334 0.21317 0 0.51501 0.23812 0.67077 0.52917 0.40238 0.75189 0.82682 0.66093 1.8521-0.39687zm3.3766 0.39428c-0.18587-0.2976-0.37581-0.40066-0.43138-0.234-0.05458 0.16378 0.06408 0.40127 0.26371 0.52774 0.52104 0.33004 0.53832 0.29977 0.16767-0.29374zm-6.8161-2.1179c0-0.27244-0.26125-0.67834-0.58055-0.90196-0.53335-0.37356-0.62124-0.36293-1.0814 0.13097-0.68503 0.7353-0.43836 1.1626 0.70374 1.219 0.77684 0.038391 0.95819-0.046408 0.95819-0.44802zm-9.1055-1.1207c-0.096679-0.47294-0.24839-1.3774-0.33713-2.01-0.11771-0.83899-0.40952-1.3911-1.0789-2.0412-0.9153-0.88892-0.91982-0.89008-1.8788-0.47614-1.2602 0.54393-2.7015 0.95694-2.8437 0.81484-0.062151-0.06215 0.69316-0.40934 1.6785-0.77152l1.7914-0.65855-0.033099-1.0337c-0.14555-4.5431-0.61748-4.9696-3.9289-3.5502-1.7756 0.76113-1.8839 1.0285-1.3733 3.3899 0.24228 1.1204 0.65474 2.3253 0.9166 2.6777 0.43773 0.58912 6.5011 4.4739 7.0314 4.5051 0.12734 0.0074 0.1524-0.37338 0.055747-0.84632zm5.2109-0.94073c-0.21341-0.1356-0.25495-0.45828-0.12269-0.95287l0.2-0.74784 0.3338 0.73258c0.40857 0.8967 0.85601 0.55658 0.64998-0.49408-0.11195-0.57089-0.26461-0.71856-0.64111-0.62008-0.40931 0.10702-0.49416-0.0217-0.49416-0.75041 0-1.0825 0.24151-1.7622 0.5569-1.5672 0.39828 0.24614 0.26302-0.3275-0.16002-0.6786-0.32808-0.27228-0.39688-0.2458-0.39688 0.15282 0 0.37502-0.070564 0.41164-0.3175 0.16468-0.17462-0.17462-0.48326-0.3175-0.68588-0.3175-0.20259 0-0.67059-0.2377-1.0399-0.52827-0.36938-0.29054-1.1269-0.65088-1.6835-0.80074-0.55655-0.14986-1.1817-0.44225-1.3892-0.64976-0.20751-0.20751-0.45101-0.30358-0.5411-0.21349-0.090064 0.09009-0.16378 0.02794-0.16378-0.13809 0-0.16605-0.34557-0.48059-0.76795-0.69903-0.69151-0.35758-0.78415-0.35491-0.93062 0.02675-0.15976 0.41632 0.049583 0.79026 0.97097 1.7344 0.25466 0.26096 0.46302 0.60203 0.46302 0.75795 0 0.15589 0.17859 0.46207 0.39688 0.68035 0.21828 0.21828 0.39687 0.50742 0.39687 0.64257 0 0.13512-0.17859 0.24567-0.39687 0.24567-0.50427 0-0.50808 0.38015-0.008731 0.8794 0.40558 0.40561 3.8786 0.88231 4.3418 0.59597 0.15274-0.0944 0.34007 0.36703 0.44622 1.0992 0.22191 1.5302 0.28919 1.6599 0.85878 1.6547 0.31343-0.0029 0.35076-0.06546 0.12472-0.20907zm-4.506-3.1371c-0.46262-0.18666-0.41283-0.79497 0.080592-0.98433 0.33216-0.12745 1.9699 0.76798 1.9699 1.077 0 0.13097-1.685 0.0548-2.0505-0.09271zm2.8452-1.0143c-0.34123-0.36325-0.54356-0.73729-0.44961-0.83124 0.17201-0.172 1.2172 0.92369 1.2336 1.2932 0.014288 0.32046-0.12716 0.23717-0.78396-0.46196zm-5.6068-3.7537c0.191-0.07644 0.41921-0.06702 0.50713 0.0209s-0.068368 0.15047-0.34727 0.13896c-0.30824-0.0127-0.37092-0.07538-0.15986-0.15984zm11.929 4.4361c0.30932-0.19584 0.28207-0.40185-0.16584-1.2527-0.47847-0.90895-0.63188-1.0102-1.4285-0.94308-1.1148 0.09398-2.1536 1.007-1.5628 1.3735 0.2381 0.14774 0.51006 0.13944 0.70403-0.0217 0.21153-0.17555 0.3764-0.16465 0.49853 0.03297 0.10586 0.17126-0.050879 0.35624-0.37333 0.44056-0.30567 0.07996-0.55578 0.25053-0.55578 0.37907 0 0.30382 2.4016 0.29652 2.8838-0.0087zm-1.8725-2.8013c0.4268-0.12433 0.56438-0.30946 0.45053-0.60616-0.090144-0.23495-0.23196-0.92371-0.31515-1.5306-0.12303-0.89757-0.24024-1.0802-0.62825-0.97869-0.6668 0.17436-1.3675 1.6728-0.99311 2.1239 0.157 0.1892 0.23876 0.38272 0.18164 0.43005-0.19841 0.16444-1.8236-0.37992-1.8236-0.61079 0-0.12774 0.23812-0.17 0.52917-0.09387 0.47157 0.12332 0.52917 0.0082 0.52917-1.0583 0-1.1079 0.044185-1.1859 0.59531-1.0508l0.59531 0.14586-0.59531-0.5324c-0.63503-0.56793-0.75337-1.0029-0.342-1.2571 0.13933-0.0861 0.44003 0.20452 0.66826 0.64585 0.46286 0.89511 1.1951 1.0769 1.1951 0.29676 0-0.58492-1.6485-2.0896-1.7979-1.6411-0.14243 0.42728-0.5833 0.36187-0.5833-0.08657 0-0.7652-0.53946-0.69178-0.69678 0.09485-0.20542 1.0272-0.41897 0.88069-1.3251-0.90884-0.40397-0.79782-0.82166-1.4506-0.92818-1.4506-0.51692 0-0.46744 0.72345 0.18584 2.7175 1.4117 4.3088 1.7539 5.1007 2.5717 5.9501l0.83026 0.86233 0.54105-0.64108c0.29758-0.35258 0.81754-0.72162 1.1555-0.82008zm-7.067-2.5885c-0.21609-0.21606-0.29435-0.18645-0.29435 0.11136 0 0.22312 0.08681 0.4925 0.19293 0.59862 0.1061 0.1061 0.23855 0.05599 0.29435-0.11136 0.055774-0.16735-0.031036-0.43672-0.19293-0.59862zm-1.3149-3.2576c-0.45733-0.64884-0.83153-1.3478-0.83153-1.5532s-0.11718-0.44596-0.2604-0.53446c-0.14322-0.0885-0.35758-0.53599-0.47636-0.99438-0.19161-0.73943-0.40825-0.89472-1.9199-1.376-1.6181-0.51522-1.7679-0.63595-2.9731-2.3947-2.0504-2.9921-1.8065-2.8636-5.3664-2.8283-1.7024 0.01693-3.1444 0.07972-3.2044 0.1397-0.18428 0.18428 1.9512 5.6369 2.9583 7.5533 1.4389 2.7382 2.0346 3.1976 4.3902 3.3854 1.0765 0.08586 2.0763 0.24686 2.2218 0.3578 0.4662 0.35544 3.0427 0.19304 3.0427-0.1918 0-0.52522 0.32628-0.4222 1.3329 0.4209l0.91604 0.76721 1.0016-1.5717zm-5.8255 0.23701c-0.74324-0.29517-1.3162-1.0992-1.1732-1.6462 0.1452-0.5552 0.61098-0.77187 0.61098-0.28422 0 0.14552 0.17156 0.26458 0.38126 0.26458 0.44479 0 0.54298 0.14195 0.77782 1.1245 0.17412 0.72848 0.082841 0.81127-0.59685 0.54136zm-2.7739-1.3409c-0.095091-0.15386-0.023283-0.33456 0.15949-0.40158 0.23987-0.08792 0.25265-0.20704 0.045879-0.42815-0.15756-0.16846-0.48802-0.22897-0.73435-0.13446-0.34787 0.13348-0.38005 0.2536-0.14414 0.53784 0.37047 0.4464 0.20709 0.46067-0.67464 0.05892-0.61402-0.27977-0.67392-0.44926-0.67392-1.9072v-1.6001l1.1906 1.1685c1.1026 1.0821 1.7384 1.0439 0.75274-0.0453-0.41542-0.45905-0.39505-0.48387 0.39687-0.48387 0.64992 0 0.83476 0.11372 0.83476 0.51356 0 0.28244 0.11906 0.58714 0.26458 0.67707 0.40489 0.25024 0.31451 0.92604-0.12385 0.92604-0.21362 0-0.55327 0.31467-0.75478 0.69924-0.21114 0.40299-0.43963 0.58071-0.53927 0.41947zm-2.9477-5.352c-0.9743-0.64524-1.1195-0.65281-1.2728-0.06615-0.10922 0.41799-0.12398 0.41524-0.15168-0.02807-0.01693-0.27009-0.40958-0.98446-0.87262-1.5875l-0.84196-1.0964 0.93054 0.86945c0.58171 0.54353 1.3188 0.93118 1.9664 1.0342 1.0869 0.17282 2.2265 0.77144 2.2265 1.1695 0 0.41812-1.1703 0.24413-1.9844-0.29501zm16.801 5.8208c0-0.29104 0.11906-0.52917 0.26458-0.52917 0.15314 0 0.26458-0.8454 0.26458-2.007 0-2.2605-0.0037-2.2659-3.2485-4.7692-1.864-1.438-2.757-1.8762-3.1079-1.5253-0.44746 0.44744-0.65543 5.8395-0.25413 6.5893 0.37632 0.70313 0.9462 0.91419 0.69403 0.25702-0.2068-0.53885 0.31017-0.50025 1.513 0.11298l1 0.50988 0.77568-1.2231c0.42661-0.67273 0.77568-1.3181 0.77568-1.4341 0-0.11607 0.29766 0.04776 0.66146 0.36409 0.65902 0.57301 0.94589 2.0672 0.39688 2.0672-0.14552 0-0.26458 0.47625-0.26458 1.0583 0 0.58208 0.11906 1.0583 0.26458 1.0583 0.14552 0 0.26458-0.23812 0.26458-0.52917zm-5.0288-3.176c-0.24739-0.1529-0.23852-0.23786 0.037888-0.3638 0.24162-0.11009 0.2639-0.21114 0.067469-0.30615-1.0303-0.49837-1.1437-0.75912-0.83016-1.9087 0.16865-0.61846 0.38267-1.1245 0.47556-1.1245 0.64505 0 1.5475 2.2028 1.0328 2.5209-0.35917 0.22198 0.18788 0.91869 0.72136 0.91869 0.20905 0 0.3157 0.10419 0.23701 0.23151-0.17547 0.2839-1.3009 0.30462-1.7419 0.03204z" style="fill:#00aad4;stroke-width:.26458"/>
 </g>
</svg>
