<svg width="90" height="95" xmlns="http://www.w3.org/2000/svg" viewBox="0 0 23.837 25.37"><title>totori category sundry</title><g class="nc-icon-wrapper"><g id="layer1" transform="translate(-75.396 -104.358)"><path d="M86.675 129.508c-.218-.124-1.11-.37-1.984-.548-4.536-.92-7.572-2.152-8.66-3.516-.673-.845-.568-2.05.326-3.749 1.042-1.982 1.088-3.808.132-5.216-.696-1.024-.822-1.794-.418-2.55.155-.29.108-1.116-.132-2.297-.759-3.733-.79-3.379.335-3.884.555-.25 1.588-.533 2.296-.63.844-.116 1.572-.426 2.116-.9.457-.399 1.429-1.027 2.16-1.396 1.474-.743 2.103-.622 2.935.567l.425.605.495-.814c.525-.863.867-.965 1.905-.571.46.175.724.567.93 1.389.16.63.46 1.378.67 1.663.367.502.394.493.872-.285 1.471-2.398 2.514-2.974 3.535-1.953.29.291.63.53.753.53.58 0 1.144 1.045.976 1.81-.186.847-.153.872 1.644 1.233 1.061.214 1.083.53.292 4.223-.618 2.885-.639 2.572.546 8.211.61 2.904.562 3.619-.316 4.709-.632.783-2.99 1.72-6.012 2.39-.946.209-2.41.573-3.254.808-1.711.477-1.995.496-2.567.17zm1.163-1.463c.16-.291.352-.589.425-.661.073-.073.147-.43.164-.794.018-.364.122-1.049.232-1.522.194-.837.176-.86-.694-.88l-.893-.02.843-.31c.674-.248.794-.398.598-.747-.163-.287-.112-.815.149-1.554.217-.616.395-1.432.396-1.813 0-.382.236-1.05.523-1.485.388-.59.483-1.059.373-1.852-.252-1.825-.624-2.517-1.352-2.517-.36 0-1-.247-1.424-.548-.655-.466-.992-.52-2.252-.363l-1.482.185.166 1.041c.092.573.231 1.778.31 2.678.188 2.145-.21 1.52-.811-1.273-.25-1.164-.563-2.324-.694-2.576-.13-.253-.238-.64-.238-.86 0-.247-.245-.4-.64-.4-.44 0-.81-.277-1.189-.89-.478-.773-.728-.91-1.924-1.052-.756-.09-1.433-.104-1.504-.034-.07.071.141.953.471 1.96.518 1.578.556 1.953.279 2.72-.28.777-.25 1.03.24 1.992.623 1.22.721 1.782.263 1.499-.216-.134-.25.146-.122 1.001.135.905.02 1.683-.49 3.279-.368 1.15-.67 2.29-.672 2.532-.004.515 1.876 1.644 3.94 2.366 1.694.593 1.878.609 1.878.16 0-.187.225-.783.5-1.323.276-.54.484-.985.463-.99-.862-.17-2.947-1.047-3.021-1.27-.262-.787 2.876.223 4.307 1.386.517.42.514.426-.136.28-.607-.136-.688-.046-.942 1.047l-.277 1.196 1.417.317c.78.174 1.482.422 1.562.551.232.376.94.12 1.258-.456zm-4.054-4.696c.015-.72.055-.774.245-.331.315.73.315 1.19 0 1.19-.145 0-.256-.386-.245-.86zm-1.21-1.257c-.1-.163.356-.265 1.19-.265.836 0 1.292.102 1.192.265-.09.145-.626.265-1.191.265-.565 0-1.1-.12-1.19-.265zm7.54 5.706c0-.402 1.506-1.686 3.378-2.881.992-.634 1.108-.807.96-1.442a5.155 5.155 0 0 0-.529-1.303c-.542-.87-.314-2.447.54-3.723.832-1.244 1.203-1.338.6-.152-.21.414-.457 1.407-.547 2.207-.144 1.278-.09 1.54.447 2.142.574.644 3.03 1.71 3.305 1.435.206-.205-.516-4.174-.91-5.006-.482-1.018-.464-4.145.038-6.53.22-1.05.338-1.972.26-2.05-.077-.077-.544.25-1.036.727-.822.797-1.012.86-2.311.777-1.047-.067-1.398-.003-1.347.248.038.186.18 1.407.315 2.713.225 2.175.198 2.479-.33 3.628-.552 1.203-.579 1.224-.666.499-.05-.416.051-1.097.224-1.513.243-.588.238-1.261-.023-3.014-.184-1.242-.426-2.258-.536-2.258-.11 0-.452.408-.76.906-.503.813-.533 1.072-.299 2.528.252 1.562.01 2.916-.521 2.916-.331 0-1.045 2.082-1.045 3.048 0 .578.204 1.125.547 1.468.374.374.466.646.289.86-.382.464-1.086 3.35-.921 3.779.186.486.879.48.879-.008zm5.09-.86c1.602-.481 2.43-.875 2.698-1.284.369-.562.347-.6-.459-.784-1.892-.432-2.647-.399-3.018.132-.198.283-1.011.946-1.807 1.474-.795.528-1.522 1.084-1.616 1.235-.232.376 1.322.09 4.202-.774zm-6.601-14.376c-.077-.294-.494-.786-.926-1.094l-.786-.56-.697.697-.697.697.92.004c.737.003 1.452.243 2.284.764.023.015-.021-.214-.098-.508zm2.366-.193c.223-.255.493-.761.599-1.125.106-.364.676-1.565 1.266-2.67.673-1.26 1.009-2.179.899-2.464-.305-.796-.443-.612-3.126 4.178-.562 1.003-1.021 1.985-1.021 2.183 0 .513.9.446 1.383-.102zm-7.444-1.97c-.214-1.047-.628-1.197-1.34-.485-.57.569-.517 1.065.112 1.065.194 0 .427.192.517.427.304.792.905-.058.711-1.006zm12.543.192l.794-.65-.765-.01c-.427-.006-.92.194-1.116.453-.795 1.047-.1 1.179 1.087.206zm-7.145-1.963c-.212-2.547-.509-3.564-.993-3.402-.24.081-.303.781-.234 2.602.099 2.574.256 3.063.987 3.063.377 0 .406-.275.24-2.263zm5.763.344c.843-1.664.934-1.998.584-2.132-.229-.088-.45-.115-.491-.06-.104.135-2.129 3.754-2.239 4.001-.048.11.19.19.53.18.495-.013.813-.405 1.616-1.99zm-7.845-.3c-.126-.915-.366-1.408-.896-1.843-.399-.326-.814-.597-.923-.603-.11-.005-.199.576-.199 1.292 0 1.11.106 1.38.728 1.843 1.202.898 1.486.746 1.29-.69zm-3.671-.01c.791-.112.86-.198.856-1.085-.003-.53-.074-1.226-.16-1.546-.15-.562-.182-.567-.856-.145-.385.24-1.134.77-1.664 1.178-.532.409-1.303.742-1.72.744a6.617 6.617 0 0 0-1.374.17c-1.007.269-.113.612 1.61.616.934.003 1.522.117 1.522.297s.18.215.463.092c.254-.11.85-.255 1.323-.322z" id="path120372-8" display="inline" fill="#000000" fill-opacity="1" stroke-width=".265"></path></g></g></svg>