<svg width="96" height="91" xmlns="http://www.w3.org/2000/svg" viewBox="0 0 25.577 24.269"><title>totori category cooking</title><g class="nc-icon-wrapper"><g id="layer1" transform="translate(-103.48 -107.037)"><path d="M111.37 130.745c-2.512-.665-3.087-.966-4.38-2.29-.742-.76-.86-1.065-.86-2.22 0-1.653.614-2.727 2.163-3.792 2.046-1.408 3.428-1.748 7.097-1.743 4.795.006 8.053 1.086 9.262 3.07.962 1.578.526 4.083-.96 5.525-.829.802-1.131.897-4.66 1.456-4.674.741-4.839.741-7.663-.007zm8.297-1.563c2.828-.66 3.246-.97 3.664-2.712.48-2.002.15-2.567-2.253-3.85-1.528-.817-2.267-1.032-4.233-1.235-3.406-.352-5.947.377-8.194 2.35-.845.741-.934.951-.934 2.201 0 1.802.627 2.404 3.365 3.23 2.381.719 5.55.724 8.585.016zm-5.864-1.21c-2.22-.714-2.646-1.01-2.646-1.841 0-.796.42-1.367 1.008-1.367.263 0 .325.19.21.646-.26 1.04.64 1.471 3.069 1.471 2.42 0 4.026-.545 4.574-1.553l.378-.696.01.841c.017 1.278-.873 1.992-3.284 2.634-1.632.434-1.537.438-3.32-.135zm13.94-.073c-.245-.138-.446-.435-.446-.66 0-.225-.426-1.69-.945-3.254-.864-2.601-1.022-2.881-1.845-3.274-.606-.289-.953-.67-1.06-1.164-.088-.405-.394-1.545-.68-2.534-.644-2.225-.867-9.71-.295-9.907.474-.163.863.898 2.839 7.764 1.678 5.828 3.008 9.898 3.595 10.993.329.615.086 1.978-.385 2.16-.182.069-.532.013-.777-.124zm-24.083-1.194c-.404-.404-.119-2.071.771-4.507.521-1.426 1.297-3.652 1.725-4.946.744-2.254.762-2.414.412-3.786-.369-1.45-.267-2.776.342-4.444.511-1.402.887-1.985 1.283-1.985.305 0 .353.262.23 1.257-.085.691-.236 1.6-.335 2.02-.335 1.412.468.623 1.057-1.04.956-2.695 1.69-1.826 1.128 1.335l-.188 1.059.734-1.442c1.277-2.506 2.043-1.93 1.264.95-.455 1.68-1.454 3.26-2.074 3.28-.169.004-.615.272-.992.595-.522.446-.858 1.246-1.414 3.363a130.404 130.404 0 0 1-1.643 5.623c-.81 2.518-.984 2.844-1.52 2.844-.331 0-.683-.08-.78-.176z" id="path120325-3" display="inline" fill="#000000" fill-opacity="1" stroke-width=".265"></path></g></g></svg>