<svg width="90" height="91" xmlns="http://www.w3.org/2000/svg" viewBox="0 0 24.011 24.169"><title>totori category magic tool</title><g class="nc-icon-wrapper"><g id="layer1" transform="translate(-46.354 -105.81)"><path d="M54.493 129.746c-4.617-.777-8.14-3.12-8.14-5.416 0-2.438 3.539-4.706 8.467-5.426 9.623-1.406 18.417 3.192 14.655 7.663-.918 1.09-4.046 2.555-6.507 3.046-2.138.426-6.342.492-8.475.133zm5.65-1.327c1.338-.638 1.503-.776.796-.661-.491.08-1.295.145-1.786.145-.776 0-.893.086-.893.661 0 .364.043.662.096.662.053 0 .857-.363 1.786-.807zm-4.661.277c-.291-.125-.886-.227-1.323-.227-.677 0-.716.034-.265.227.291.126.887.228 1.323.228.677 0 .716-.034.265-.228zm2.249-.264c0-.341-.177-.53-.496-.53-.273 0-.898-.065-1.39-.145-.883-.144-.88-.138.298.517 1.459.812 1.588.825 1.588.158zm5.027.264c.643-.206.64-.211-.132-.211-.437 0-1.092.095-1.456.211-.643.206-.639.212.133.212.436 0 1.091-.095 1.455-.212zm-9.922-1.322c-1.365-.632-1.455-.632-1.455 0 0 .457.17.526 1.257.51l1.256-.02zm-2.249-.412c0-.567-.24-.782-1.488-1.334-.818-.362-1.536-.61-1.594-.552-.29.29.38 1.118 1.455 1.8 1.471.933 1.627.941 1.627.086zm14.552.28c0-.488-.206-.488-1.058 0l-.662.377.86.01c.592.005.86-.115.86-.388zm2.909-.529c.977-.72 1.314-1.144 1.32-1.658.003-.217-.554-.053-1.583.466-1.138.575-1.587.95-1.587 1.327 0 .727.757.672 1.85-.135zm-5.09-.451c.764-.283 1.512-.744 1.662-1.025.253-.471.175-.51-1.047-.51-.972 0-1.578.175-2.295.662-.537.364-1.286.663-1.666.666-.884.005-1.474.378-1.228.776.257.416 2.75.106 4.573-.57zm-5.227.186c0-.261-.261-.397-.762-.397-.848 0-2.551-.64-2.808-1.055-.09-.147-.72-.268-1.4-.268h-1.233l.56.56c1.198 1.198 5.643 2.111 5.643 1.16zm-6.396-.912c-.5-.634-.813-.778-1.674-.77l-1.058.007 1.587.758c.873.417 1.627.764 1.674.771.047.007-.19-.337-.53-.766zm15.775-.761c-.743-.062-1.117.042-1.365.38-.591.81-.38.867 1.024.278l1.364-.573zm-6.782.123c.565-.313.579-.37.171-.708-.962-.798-5.414-.54-5.414.314 0 .719 4.102 1.027 5.243.394zm-9.225-1.336c.187-.35.739-.851 1.225-1.113 1.764-.95.654-.618-1.77.53l-2.484 1.176 1.344.022c1.16.018 1.39-.065 1.685-.615zm3.182.07c.448-.331 1.322-.62 2.106-.695 1.121-.108 1.34-.215 1.34-.659 0-.45-.13-.509-.86-.39-1.79.291-3.799 1.013-4.564 1.64l-.794.652 1.003.01c.622.006 1.294-.206 1.769-.557zm10.59.447c0-.066-.506-.464-1.125-.884-1.211-.824-3.04-1.378-4.549-1.378-.765 0-.941.1-.941.53 0 .43.176.529.952.529 1.005 0 2.752.69 2.752 1.088 0 .13.655.235 1.455.235s1.456-.054 1.456-.12zm3.144-.278c-.38-.207-1.309-.62-2.063-.916l-1.37-.54.74.927c.67.84.862.926 2.062.916 1.294-.01 1.308-.019.63-.387zm-18.894-.824c1.17-.554 1.462-.818 1.462-1.323 0-.347-.079-.63-.175-.63-.43 0-2.487 1.388-2.73 1.843-.536 1-.451 1.007 1.443.11zm20.248.416c0-.45-1.17-1.487-2.364-2.096l-1.112-.567.084.837c.074.738.256.909 1.54 1.446 1.708.716 1.852.746 1.852.38zm-4.498-1.84c0-.146-.268-.263-.596-.26-.481.002-.519.052-.198.26.513.331.794.331.794 0zm-8.335-.438c1.028-.141 1.19-.249 1.19-.786v-.622l-1.442.639c-.794.35-1.657.773-1.919.939-.403.256-.366.278.253.147a34.16 34.16 0 0 1 1.918-.317zm3.837-.488c-1.781-.784-2.117-.807-2.117-.148 0 .413.222.534 1.125.615 2.409.217 2.476.186.992-.467zm-4.829-.548c1.197-.49 1.074-.598-.411-.363-1.634.258-3.492.758-3.492.94 0 .238 2.99-.204 3.903-.577zm9 .266c-.182-.182-4.094-.895-4.833-.88-.35.007-.17.176.53.5.962.446 4.7.775 4.304.38zm-17.378-.414c-.012-.382-.204-.845-.426-1.03-.346-.287-.351-.395-.035-.76.203-.233.435-.603.515-.822.122-.331.15-.326.167.034.012.237.201.58.421.763.294.244.324.423.114.677-.157.19-.387.68-.51 1.09l-.223.744-.023-.696zm15.323-2.86c0-.469-.233-1.043-.553-1.363l-.553-.554.553-.387c.31-.218.553-.678.553-1.05 0-.374.115-.591.265-.499.145.09.265.388.265.662 0 .275.249.673.553.887l.553.387-.553.554c-.304.304-.553.844-.553 1.199 0 .355-.12.72-.265.81-.154.095-.265-.174-.265-.647zm6.109.373c-.013-.295-.203-.793-.423-1.107-.273-.39-.31-.626-.114-.747.158-.097.39-.433.516-.745.162-.403.234-.443.246-.138.009.237.196.58.417.763.294.244.324.424.113.677-.157.19-.386.68-.51 1.09-.166.556-.228.608-.245.207zm-15.979-2.833c-.083-.616-.357-1.262-.618-1.452-.442-.324-.436-.367.115-.752.338-.237.584-.689.584-1.071 0-.374.115-.591.264-.499.146.09.265.388.265.662s.249.673.553.886l.554.388-.554.553c-.31.311-.553.895-.553 1.332 0 1.22-.445 1.185-.61-.047zm5.54-1.128c-.307-2.073-.669-2.964-1.4-3.443l-.677-.444.815-.496c.476-.289.883-.802.978-1.231.09-.405.257-1.034.372-1.398l.208-.661.165.728c.091.4.228 1.029.305 1.397.076.368.506.893.955 1.165l.815.496-.688.452c-.686.449-1.005 1.242-1.434 3.567l-.22 1.19z" id="path120419-0" display="inline" fill="#000000" fill-opacity="1" stroke-width=".265"></path></g></g></svg>