<svg width="76" height="84" xmlns="http://www.w3.org/2000/svg" viewBox="0 0 20.335 22.46"><title>totori category liquid</title><g class="nc-icon-wrapper"><g id="layer1" transform="translate(-135.403 -52.223)"><path d="M141.592 74.274c-4.314-.924-6.685-2.988-6.102-5.31.268-1.068 1.958-2.53 3.69-3.193 2.303-.882 2.875-.716.954.276-2.732 1.412-3.09 2.934-1.037 4.421 3.177 2.301 10.928 1.98 13.465-.557 1.472-1.472.763-2.948-1.94-4.039-1.928-.778-1.63-1.059.44-.415 2.73.848 4.674 2.584 4.676 4.175.006 3.596-7.513 6.063-14.146 4.642zm1.18-4.026c-1.911-.63-2.908-1.504-2.908-2.55 0-.58 1.425-1.982 2.014-1.982.41 0 .396.067-.112.54-.728.679-.731 1.15-.011 1.82 1.303 1.215 5.219 1.32 6.902.186 1.074-.724 1.195-1.282.433-1.992-.517-.481-.533-.554-.127-.554.589 0 2.014 1.403 2.014 1.982 0 1.581-1.89 2.564-5.16 2.682-1.31.048-2.68-.011-3.044-.132zm.617-4.4c-1.273-.579-2.26-2.043-2.407-3.57-.114-1.192.047-1.666 1.931-5.678 1.13-2.407 2.199-4.377 2.373-4.377.175 0 1.199 1.875 2.276 4.167 1.717 3.65 1.96 4.353 1.96 5.669 0 1.613-.447 2.482-1.792 3.486-.894.668-3.189.828-4.341.304z" id="path120260" display="inline" fill="#000000" fill-opacity="1" stroke-width=".265"></path></g></g></svg>