<svg width="98" height="69" xmlns="http://www.w3.org/2000/svg" viewBox="0 0 26.145 18.39"><title>totori category meat</title><g class="nc-icon-wrapper"><g id="layer1" transform="translate(-45.578 -85.446)"><path d="M65.775 103.388c-.946-.297-2.077-.74-2.514-.983-.623-.348-1.45-.438-3.836-.419-2.593.021-3.297.124-4.763.696-1.395.545-2.094.659-3.704.601-1.091-.038-2.183-.154-2.425-.257-.713-.3-1.83-2.213-2.07-3.544a16.551 16.551 0 0 0-.612-2.29c-.602-1.634-.166-4.22.894-5.313.48-.495 1.017-1.51 1.327-2.504.286-.92.658-1.838.826-2.04.956-1.153 5.028-2.092 8.027-1.85 1.315.105 1.898.285 2.376.734.52.49 1.1.637 3.282.835 1.457.132 3.334.475 4.171.763 1.448.498 3.254 1.878 3.254 2.486 0 .156.298.721.661 1.257.364.535.662 1.267.662 1.627 0 .359.117.693.26.741.168.057.176 1.268.021 3.443-.423 5.962-1.73 7.308-5.837 6.017zm4.401-1.537c.848-1.767.49-4.09-.862-5.586-2.057-2.278-4.826-3.362-9.877-3.87-2.104-.21-3.868-.426-3.92-.479-.303-.302 2.31-.411 3.958-.165 1.064.158 2.458.307 3.099.33.833.03 1.534.29 2.466.917.716.482 1.744.995 2.284 1.14 1.076.29 2.619 1.715 3.093 2.857.28.677.314.609.49-1.01.158-1.44.097-1.976-.36-3.134-.752-1.91-2.003-3.346-3.582-4.115-1.321-.644-4.744-1.463-6.14-1.47-.406-.002-1.494-.24-2.416-.529-4.289-1.344-9.568.325-9.568 3.025 0 .221-.236.822-.524 1.336-.361.643-.423.94-.199.953 1.556.091 2.327.233 3.237.595.655.26 1.966.436 3.44.46 1.31.02 2.678.125 3.042.231.56.165.458.222-.661.37-1.54.205-5.59.05-6.328-.242-.366-.145-.45-.11-.305.126.111.18.482.432.823.562.437.166.677.528.806 1.216l.183.979.372-.71c.204-.389.307-.811.23-.938-.26-.42 1.807-.487 2.437-.079.433.28.965.34 1.903.216 1.107-.147 1.671-.031 3.765.772 3.087 1.184 3.236 1.267 3.353 1.862.185.939-.546 3.274-1.077 3.442-.793.252-.45.627 1.179 1.29 1.84.747 2.29.533 2.487-1.184.075-.65.262-1.513.415-1.918.263-.693.307-.71.763-.299.266.24.624.864.796 1.384.298.905.275.978-.535 1.654-.774.647-.81.743-.426 1.128.601.6 1.578.095 2.16-1.117zm-5.812-.206c-.316-.315-.193-.99.416-2.277.753-1.595 1.358-1.583 1.474.03.052.721-.072 1.38-.337 1.784-.4.61-1.175.841-1.553.463zm3.199-4.741c-1.05-.38-2.395-1.178-2.243-1.33.05-.05.758.099 1.573.33 1.008.287 1.523.582 1.612.92.072.275.112.486.09.469a22.27 22.27 0 0 0-1.032-.39zM60.8 94.152c-1.276-.302-1.426-.636-.185-.411 1.14.206 2.207.673 1.456.637-.219-.01-.79-.112-1.27-.226zm-8.519 7.556c0-.208-.417-.82-.926-1.36-.51-.54-.928-1.173-.93-1.408-.003-.322-.057-.343-.22-.085-.16.25-.398.272-.897.083-.897-.341-1.083-.69-1.061-1.987l.018-1.082-.265.925c-.147.51-.4 1.009-.565 1.11-.354.22-.509.083 1.875 1.646 1.059.694 2.13 1.545 2.382 1.89.54.743.589.766.589.268zm3.969-1.924c0-.921-.077-1.166-.298-.945-.183.182-.23.662-.12 1.243.245 1.306.418 1.183.418-.298zM46.725 94.6c0-.918.497-1.24 1.97-1.28.736-.02 1.07-.088.742-.15-.328-.064-.596-.225-.596-.36 0-.295-2.168.525-2.443.925-.288.418-.243 1.473.062 1.473.146 0 .265-.274.265-.608z" id="path120419" display="inline" fill="#000000" fill-opacity="1" stroke-width=".265"></path></g></g></svg>