<svg width="87" height="95" xmlns="http://www.w3.org/2000/svg" viewBox="0 0 23.184 25.297"><title>totori category fuel</title><g class="nc-icon-wrapper"><g id="layer1" transform="translate(-103.613 -80.123)"><path d="M107.38 104.503c-1.77-1.005-2.006-1.285-2.011-2.379-.003-.536-.3-1.086-.945-1.745-.927-.95-.936-.979-.636-2.17l.305-1.208 2.223-.331c1.223-.182 2.224-.428 2.224-.546 0-.119-.238-.606-.529-1.082-.64-1.05-.665-1.885-.105-3.413.49-1.34.946-4.563.902-6.383-.017-.691.033-1.257.11-1.257.263 0 1.473 2.623 1.492 3.232.018.574.03.577.246.075.125-.29.236-.986.246-1.545.01-.577.238-1.296.526-1.661.278-.355.711-1.296.962-2.093.447-1.42.912-1.915.912-.97 0 .263.298.881.662 1.374.363.494.661 1.172.661 1.507 0 .893.71.759 1.326-.25.573-.94.692-2.308.238-2.761-.207-.207-.206-.338.003-.467.16-.098.366.037.46.301.573 1.625.905 2.2 1.268 2.2.266 0 .41-.244.41-.694 0-.587.062-.643.397-.365.218.181.397.543.397.805 0 .553.966 2.9 1.194 2.9.085 0 .385-.507.665-1.125.482-1.06.704-.93.56.33-.115 1.019.297 4.284.5 3.955.122-.196.162-.452.09-.568-.071-.116-.003-.211.15-.211.154 0 .28.506.28 1.124 0 .619.197 1.68.44 2.36.423 1.178.419 1.307-.085 2.845-.29.886-.47 1.67-.397 1.742.072.072.466.13.875.13.574 0 .783.153.91.662.092.363.1.833.02 1.044-.098.255.292.653 1.162 1.189.72.443 1.309.872 1.309.953 0 .259-.856 1.815-1.414 2.569-.358.484-.779.728-1.259.728h-.721l.572-1.363c.412-.979.796-1.46 1.367-1.71.693-.302.718-.348.2-.357-.326-.005-1.142-.429-1.813-.941-2.024-1.545-2.458-1.688-1.505-.495a32.3 32.3 0 0 0 1.368 1.606l.545.577-.557 1.341c-.307.738-.673 1.342-.813 1.342-.14 0-.605-.374-1.031-.83-.884-.947-1.163-.892-.767.149.15.393.272.829.272.968 0 .288-2.335 1.83-2.77 1.83-.157 0-.9-.406-1.653-.901-1.35-.89-1.372-.894-1.727-.36-.305.46-.65.544-2.28.56-1.403.012-1.986-.086-2.158-.364-.193-.314-.367-.256-.975.325l-.74.706zm7.242-1.87c-.179-.542-.248-1.428-.156-2.002.094-.586.058-1.032-.084-1.032-.137 0-.287.268-.334.596-.071.501-.272.608-1.275.678-1.633.113-2.032.579-.497.579 1.156 0 1.217.04 1.8 1.207.7 1.4 1.012 1.386.546-.026zm3.159-.049c.602-.466 1.616-.41 2.225.124.526.462.526.46.03-.397-.274-.473-.577-.86-.674-.86-.097 0-.311-.535-.476-1.19-.37-1.467-.668-1.571-.428-.15.165.972.106 1.104-.887 2.002-.689.622-1.009 1.105-.907 1.37.133.348.196.336.429-.084.15-.27.459-.637.688-.815zm-10.737.067c.131-.341.262-.341 1.079 0 1.478.617 1.453.445-.072-.505l-1.415-.881 1.15-.918c.633-.505 1.494-1.177 1.914-1.494.42-.317.682-.576.582-.576-.396 0-1.935.908-3 1.77-.907.735-1.124 1.078-1.124 1.775 0 1.17.556 1.69.886.829zm-.092-4.554l1.659-.218c1.577-.207 1.38-.662-.286-.658-1.938.005-3.27.283-2.998.628.128.162.395.771.592 1.354l.359 1.058.138-1.056c.088-.664.286-1.075.536-1.108zm10.778-1.106c.71-.38 2.187-2.086 2.187-2.528 0-.195.17-.497.38-.67.553-.46.744-1.66.404-2.548l-.295-.774-.347.645-.346.644-.573-1.124c-.316-.618-.554-1.325-.53-1.57.127-1.276.02-1.4-.678-.794-.364.316-.661.785-.661 1.04 0 .257-.124.543-.275.637-.175.107-.221-.057-.128-.448.188-.787-.184-2.932-.527-3.036-.3-.092-1.187 1.701-1.187 2.402 0 .297-.138.417-.375.326-.207-.079-.454.056-.55.303-.139.35-.293.22-.724-.611-.546-1.055-.548-1.056-.799-.397a52.97 52.97 0 0 1-.612 1.509c-.268.632-.29 1.049-.086 1.635.151.432.236 1.104.189 1.493l-.086.707-.709-.56c-.451-.357-.771-.46-.881-.282-.158.255.007 1.908.29 2.928.117.418 2.146 1.466 3.152 1.628.77.125 3.154-.227 3.767-.555zm-3.473-10.203c.185-.482-.373-1.54-.704-1.336-.287.178-.34 1.27-.075 1.536.289.288.625.202.779-.2zm-7.625.115c-.093-.628-.046-.726.234-.494.402.333.461.92.116 1.134-.13.08-.287-.208-.35-.64zm15.24-5.711c-.096-.385-.04-.811.128-.98.22-.22.298-.045.298.681 0 1.14-.182 1.268-.426.299z" id="path120325-0" display="inline" fill="#000000" fill-opacity="1" stroke-width=".265"></path></g></g></svg>