<svg width="143" height="100" xmlns="http://www.w3.org/2000/svg" viewBox="0 0 38.013 26.697"><title>totori category fish</title><g fill="#212121" class="nc-icon-wrapper"><g id="layer1" transform="translate(77.51 -145.901)"><path d="M-61.412 172.408c0-.11.358-.437.795-.728.437-.29.862-.737.943-.992.183-.57.51-.567 1.7.014 1.131.551 1.39 1.49.478 1.734-.865.231-3.917.21-3.916-.028zm10.583-.461c-5.279-1.059-8.128-2.596-12.126-6.542-2.563-2.53-5.728-6.56-6.781-8.636-.548-1.08-.373-1.943.513-2.524.608-.398.921-.401 3.774-.037 1.71.219 4.658.586 6.55.816 3.69.45 5.614.966 6.879 1.847.436.304 1.443.827 2.236 1.163 2.373 1.004 3.454 1.804 6.248 4.63 2.667 2.698 3.624 4.155 3.963 6.037.149.823.096 1.016-.313 1.149-1.84.598-1.948.686-1.948 1.598v.894l-3.638-.025c-2-.014-4.412-.18-5.357-.37zm7.937-1.953c0-.432-.267-.51-2.094-.616-1.392-.08-2.335-.279-2.812-.591-.69-.452-.712-.54-.587-2.286.121-1.697.253-2.038 1.386-3.582.172-.234.16-.452-.038-.65-.448-.447-2.4 1.428-2.732 2.627-.444 1.605-.605 1.737-1.533 1.257-.445-.23-1.249-.955-1.787-1.613-.539-.657-1.127-1.194-1.307-1.194-.365 0-.721 2.248-.494 3.118.173.662.803.842 2.958.847 1.221.003 1.646.093 1.567.334-.155.469-3.289.565-4.578.14l-1.046-.344-.016-2.08-.016-2.08-1.174-.447c-2.022-.768-5.683-2.885-7.01-4.055-1.71-1.505-4.466-3.41-4.556-3.147-.158.461.764 2.089 1.822 3.216.615.655 1.738 1.905 2.496 2.778s1.899 2.135 2.535 2.804c1.356 1.427 4.557 3.678 5.229 3.678.257 0 1.231.316 2.166.702 2.545 1.052 5.574 1.622 8.777 1.653 2.612.024 2.844-.014 2.844-.469zm-.123-3.062c.946-.946.393-2.263-.949-2.263-1.702 0-2.139 1.748-.648 2.594.745.422.87.397 1.597-.33zm-6.095-10.012c-1.903-.681-4.54-1.89-5.217-2.39-1.154-.854-.95-1.238.657-1.238 1.017 0 1.843-.22 3.06-.813 1.25-.61 1.752-.74 2.015-.522.407.337 1.205 3.318 1.205 4.498 0 .887-.307.97-1.72.465zm-24.454-4.153c-.935-.703-1.913-1.676-2.172-2.163-.656-1.23-1.897-4.463-1.765-4.596.06-.06.937.182 1.948.539 2.461.868 4.677.869 7.129.003 2.937-1.039 3.165-.886 1.286.864-2.383 2.219-3.006 3.177-3.006 4.625 0 .665-.072 1.398-.16 1.628-.291.757-1.502.423-3.26-.9zm7.653-.223c0-.21.691-.885 1.643-1.604.394-.297.523-.227.992.542.296.486.539.973.54 1.082 0 .11-.714.198-1.587.198s-1.588-.098-1.588-.218z" id="path5982-6" fill="#212121" stroke-width=".265"></path></g></g></svg>