<svg width="135" height="136" xmlns="http://www.w3.org/2000/svg" viewBox="0 0 35.927 36.092"><title>totori category bug</title><g fill="#212121" class="nc-icon-wrapper"><g id="layer1" transform="translate(76.565 -104.678)"><path d="M-59.162 139.916c-.817-.728-1.003-1.087-1.087-2.098-.1-1.208-.879-2.497-2.263-3.747-.725-.653-.72-1.64.009-2.03.769-.411 2.637-.128 3.074.466.306.416.28.53-.189.844-.767.513-.674 1.207.282 2.1.813.76.818.78.363 1.474-.583.89-.384 2.372.436 3.245.843.897.523.767-.625-.254zm7.275-3.463c-2.411-.966-6.904-5.369-8.965-8.785l-.94-1.56 1.124-.97c2.112-1.824 2.028-1.831 4.124.356a458.566 458.566 0 0 1 4.848 5.184c3.002 3.26 4.247 4.208 2.09 1.593-.635-.77-1.217-1.46-1.293-1.532-.076-.073-.97-1.082-1.988-2.244a630.737 630.737 0 0 0-2.68-3.042 79.958 79.958 0 0 1-1.528-1.771l-.697-.84 1.545-1.188 1.545-1.19 1.967 1.258c2.143 1.369 3.268 2.75 5.204 6.39 1.336 2.51 1.656 4.584.978 6.343-.524 1.36-1.019 1.84-1.897 1.84-.343 0-.946.16-1.339.356-.627.313-.884.288-2.098-.198zm-14.359-4.62c0-1.151-.136-1.725-.529-2.225-.291-.37-.53-.914-.53-1.21 0-.296-.118-.612-.264-.702-.397-.245-.318-.661.127-.661.872 0 4.005 1.166 4.436 1.652.631.71.319 1.084-.474.565-.416-.273-.893-.361-1.342-.249-.655.165-.688.248-.557 1.41.183 1.617-.048 2.972-.505 2.972-.265 0-.362-.415-.362-1.552zm25-4.142c-.91-1.46-1.519-1.98-2.322-1.98-.57 0-1.037-.282-1.746-1.057-.532-.582-1.1-1.059-1.264-1.059-.34 0-.618.605-.618 1.345 0 .744-.422.619-.743-.22-.838-2.194-.955-2.743-.675-3.187.471-.748 1.103-.67 2.075.257 1.682 1.603 2.549 2.334 2.767 2.334.119 0 .364.179.545.397.181.219.544.397.807.397.694 0 1.255.668 1.583 1.884.386 1.434.193 1.854-.409.889zm-27.59-3.83c-.635-.727-1.289-1.24-1.483-1.166-.522.2-2.15-.86-2.5-1.627-.466-1.023-.386-1.038.654-.124.703.617 1.111.796 1.522.667 1.63-.51 1.66-.5 2.767 1 .604.819 1.351 1.519 1.718 1.61.356.09.717.343.8.563.124.322-.087.396-1.095.387-1.158-.011-1.33-.105-2.383-1.31zm5.955.934c-.812-.593-.858-.548 4.528-4.328 1.54-1.08 1.71-1.141 2.1-.75.235.234.374.464.31.51-.064.045-.588.435-1.164.865-.577.431-1.318.962-1.647 1.18-.33.219-1.29.95-2.136 1.626-1.317 1.054-1.602 1.182-1.991.897zm-1.86-2.792c-.867-1.225-1.16-2.595-.73-3.4.168-.313.893-1.033 1.612-1.602l1.308-1.033 1.261.345c.694.19 1.704.537 2.245.771 1.013.438 1.75 1.386 1.357 1.744-.778.71-5.804 4.237-6.031 4.232-.153-.003-.613-.478-1.022-1.057zm12.4-1.934c-.64-.47-.943-3.638-.41-4.28.467-.563.728-.498 1.535.379.392.426 1.333 1.085 2.092 1.464 2.1 1.05 2.07 1.312-.129 1.127-2.003-.168-2.315-.032-2.482 1.08-.083.554-.138.575-.606.23zm-4.032-2.625c.118-1.198-.378-2.816-1.187-3.872-.327-.427-.484-1.082-.484-2.02 0-1.19-.095-1.452-.661-1.823-.6-.393-.943-1.485-.463-1.476.788.017 2.273 2.226 2.101 3.126-.082.432.138 1.088.64 1.903.668 1.087.765 1.499.765 3.265 0 1.65-.076 2.021-.41 2.021-.324 0-.388-.237-.3-1.124zm-11.09-.07c-.547-.546-.916-.659-2.168-.662-1.625-.004-4.187-.688-4.959-1.324-.715-.59-1.975-2.403-1.975-2.843 0-.256.356-.085 1.045.502 2.556 2.18 3.722 2.659 5.87 2.408.977-.114 1.967.283 3.073 1.232.699.599.756.97.184 1.189-.245.094-.678-.11-1.07-.501zm2.64-2.39c-.37-.565-.392-.836-.138-1.684.509-1.7.367-3.248-.466-5.085-.883-1.947-1.148-3.537-.59-3.537.197 0 .812.748 1.365 1.663l1.006 1.663-.095 3.629a425.31 425.31 0 0 1-.109 3.826c-.031.422-.552.168-.973-.475z" id="path5982" fill="#212121" stroke-width=".265"></path></g></g></svg>