<svg width="96" height="94" xmlns="http://www.w3.org/2000/svg" viewBox="0 0 25.587 24.911"><title>totori category spice</title><g class="nc-icon-wrapper"><g id="layer1" transform="translate(-131.579 -79.252)"><path d="M141.978 103.824c-1.794-.561-3.282-1.525-3.489-2.258-.104-.371-.184-2.103-.177-3.85.012-2.721.095-3.33.584-4.266.692-1.323.99-1.457 2.48-1.115.636.145 2.168.225 3.405.177l2.248-.087.778 1.45c.747 1.394.776 1.58.76 4.826-.02 4.053-.211 4.486-2.245 5.09-1.631.485-2.872.494-4.344.033zm4.513-4.115c.418-.346.603-2.925.209-2.912-.11.003-.678.117-1.263.252-.725.168-1.818.133-3.44-.109-1.306-.195-2.42-.314-2.473-.264-.296.273.339 2.578.843 3.057.524.499.817.539 3.147.432 1.53-.07 2.735-.255 2.977-.456zm-5.605-8.203c-1.412-.86-1.472-2.43-.117-3.047.508-.23.555-.403.412-1.484-.096-.72-.04-1.45.135-1.778.647-1.21 3.83-.928 4.155.367.088.35.115 1.113.06 1.694-.092.953-.03 1.08.623 1.308.965.337 1.253 1.428.577 2.186-1.18 1.325-4.258 1.722-5.845.754zm2.152-.521c-1.178-.282-1.432-.497-1.432-1.213 0-.468-.11-.596-.41-.48-.607.233-.355 1.215.41 1.601.364.183 1.019.323 1.455.31l.794-.023-.817-.195zm.95-3.72c.309-.2.236-.257-.331-.26-.4-.003-.966-.242-1.257-.533-.606-.606-.794-.658-.794-.22 0 .955 1.49 1.59 2.382 1.014zm4.07 2.694c.092-.701.376-1.915.629-2.697l.46-1.422 2.513-.626c1.383-.344 2.656-.768 2.83-.94.245-.245.186-.64-.264-1.755-.494-1.225-.714-1.474-1.47-1.67-1.045-.268-1.041-.271-1.258.814l-.168.84h1.195c.807 0 1.244.126 1.345.389.191.499.117.533-2.015.949-2.149.418-2.308.313-2.468-1.636a34.188 34.188 0 0 0-.246-2.187l-.128-.766 2.066.172c3.102.259 4.325.682 4.632 1.604.14.42.536 1.178.88 1.685.866 1.276.794 1.745-.499 3.247l-1.124 1.305-1.985.004c-2.61.006-3.092.29-3.917 2.312-.81 1.988-1.244 2.15-1.009.378zm-10.369-1.838c-.633-1.473-.912-1.639-2.852-1.693-1.152-.033-1.412-.156-2.28-1.085l-.978-1.048.796-1.491c.895-1.679 1.039-1.762 3.486-2.024l1.759-.189-.146 1.42c-.22 2.142-.234 2.162-1.36 1.962-1.575-.279-1.952-.436-1.842-.765.058-.174.467-.27.94-.222.461.047.838-.032.838-.177 0-.671-.377-1.1-.968-1.1-.492 0-.741.228-1.044.952-.618 1.479-.44 1.742 1.512 2.234.962.243 1.868.515 2.013.605.312.193.979 3.154.818 3.636-.061.184-.372-.273-.692-1.015z" id="path120260-5" display="inline" fill="#000000" fill-opacity="1" stroke-width=".265"></path></g></g></svg>