<svg width="92" height="94" xmlns="http://www.w3.org/2000/svg" viewBox="0 0 24.342 25.102"><title>totori category elixir</title><g class="nc-icon-wrapper"><g id="layer1" transform="translate(10.231 -82.35)"><path d="M-1.367 107.137c-1.326-.749-4.252-2.713-4.42-2.965-.27-.41-.978-3.797-1.09-5.218-.084-1.052-.27-1.388-1.329-2.402-1.156-1.108-1.231-1.264-1.231-2.557 0-.98-.115-1.42-.397-1.529-.255-.097-.397-.506-.397-1.14 0-.796.128-1.045.661-1.288.451-.206.662-.514.662-.969 0-1.044.872-1.725 2.208-1.725 1.261 0 2.025.57 2.025 1.513 0 .362.224.602.662.712.364.091.682.372.706.624.122 1.234.112 1.536-.061 1.78-.184.26.139 1.456.392 1.456.07 0 .42-.133.777-.296.837-.38 1.119-1.983.383-2.176-1.14-.298-1.174-3.005-.047-3.743.483-.317.628-.65.628-1.445 0-1.572.864-2.13 3.297-2.13 1.646 0 1.98.083 2.478.613.374.398.575.95.575 1.581 0 .728.156 1.072.628 1.38 1.127.74 1.093 3.446-.047 3.744-.717.188-.457 1.794.35 2.162.826.376 1.268-.164 1.084-1.327-.203-1.282.07-2.05.792-2.23.431-.109.632-.348.632-.75 0-.892.814-1.468 2.072-1.468 1.288 0 2.162.697 2.162 1.726 0 .469.197.743.661.92.552.21.662.424.662 1.3 0 .577-.116 1.12-.257 1.208-.142.088-.336.78-.433 1.537-.15 1.18-.348 1.546-1.371 2.537-1.021.99-1.21 1.338-1.29 2.382-.158 2.018-.95 5.037-1.439 5.48-.252.227-1.385 1-2.52 1.716l-2.061 1.302-2.79-.008c-1.568-.004-3.02-.139-3.317-.307zm5.45-.783c1.422-.48 4.439-2.346 4.574-2.829.068-.241.19-.975.272-1.63l.149-1.19-.472 1.29c-.37 1.012-.697 1.41-1.519 1.853-.575.309-1.522.858-2.104 1.22-.886.55-1.383.656-3.043.65-1.878-.005-2.098-.072-4.096-1.238-1.918-1.12-2.153-1.349-2.576-2.504l-.466-1.271.149 1.19c.081.656.202 1.382.267 1.616.125.448 3.124 2.34 4.473 2.822 1.071.383 3.29.393 4.392.021zm-9.04-7.982c.118-.12 1.019.148 2.004.595 1.674.759 1.995.812 4.908.812 2.793 0 3.252-.068 4.428-.659.721-.362 1.594-.69 1.94-.727.56-.062.644.059.774 1.121l.145 1.191.21-1.222c.232-1.346-.06-2.157-1.308-3.64-.59-.703-.631-.85-.272-.987.474-.182 1.692.518 1.916 1.102.228.595 1.37.449 2.086-.268.84-.84.912-2.395.12-2.602-.659-.172-.699-.717-.053-.717.585 0 1.111-.496 1.111-1.045 0-.34-.414-.413-2.381-.427-1.31-.009-2.381.011-2.381.045 0 .468.514.995 1.284 1.317 1.026.428.798.925-.325.71-.339-.065-.744.066-.941.304-.191.23-.578.419-.86.419-.282 0-.439.119-.349.264.413.668-.256.704-1.46.08-1.21-.629-1.318-.762-1.318-1.639v-.954H-.44v.98c0 .91-.087 1.017-1.225 1.52-1.46.647-1.719.671-1.517.145.104-.27-.015-.396-.373-.396-.288 0-.667-.172-.842-.383-.174-.21-.754-.418-1.29-.463l-.971-.08 1.058-.53c.582-.29 1.093-.715 1.135-.942.064-.351-.287-.41-2.325-.397-2.241.015-2.395.051-2.325.543.042.29.43.696.862.903.777.371.78.379.199.638-.413.184-.589.492-.589 1.033 0 1.065.402 1.714 1.367 2.214.796.411.84.404 1.381-.237.707-.837 1.55-1.264 1.976-1 .251.155.229.285-.096.555-.234.194-.729.87-1.1 1.505-.59 1.006-.647 1.31-.456 2.402l.22 1.25.091-1.058c.051-.582.188-1.156.305-1.275zm2.2.056c-1.372-.68-1.471-1.366-.285-1.98 1.252-.647 2.164-.772 5.511-.752 2.598.015 3.207.102 4.167.6 1.489.772 1.483 1.41-.017 2.136-.985.477-1.632.553-4.697.553-3.08 0-3.704-.075-4.679-.557zm7.343-8.396c.584-.277.957-.659 1.01-1.035.1-.706.145-.7-1.275-.198-.619.218-1.69.397-2.381.397-.691 0-1.763-.179-2.381-.397-1.393-.491-1.323-.497-1.323.1 0 .679.595 1.117 2.065 1.52a6.19 6.19 0 0 0 4.285-.387zm-10.372.17c.384-.385.421-1.27.053-1.27-.146 0-.265.133-.265.297 0 .2-.349.243-1.058.13-.783-.126-1.058-.08-1.058.177 0 .554.578.983 1.323.983.378 0 .83-.143 1.005-.318zm17.367-.102c.6-.6.282-.893-.782-.72-.597.097-.922.044-.922-.15 0-.164-.119-.299-.264-.299-.369 0-.332.886.053 1.27.446.446 1.42.395 1.915-.1zm-7.934-2.27c.49-.223.674-.51.674-1.052 0-.69-.05-.725-.679-.486-.373.142-1.139.258-1.702.258s-1.33-.116-1.703-.258c-.629-.24-.678-.204-.678.489 0 .512.186.836.595 1.033.8.386 2.663.395 3.493.016zm-11.761-2.339c0-.29-.172-.529-.382-.529-.588 0-.803-.57-.317-.841.25-.14.434-.575.434-1.024 0-.889.169-.95 1.002-.367.339.238.816.343 1.118.247.604-.192.68.16.198.93-.263.422-.26.636.017 1.08.328.525.305.545-.432.383-.571-.125-.82-.062-.935.24-.226.588-.703.507-.703-.119zm16.763-.77c.024-.883.109-1.053.474-.937.245.078.522.018.615-.134.363-.587.668-.229.668.783 0 .668-.121 1.06-.33 1.062-.182.003-.584.072-.893.155-.509.136-.56.048-.534-.928z" id="path120540-0" display="inline" fill="#000000" fill-opacity="1" fill-rule="nonzero" stroke-width=".265"></path></g></g></svg>