<svg width="100" height="92" xmlns="http://www.w3.org/2000/svg" viewBox="0 0 26.611 24.557"><title>totori category seasoning</title><g class="nc-icon-wrapper"><g id="layer1" transform="translate(-18.795 -55.42)"><path d="M27.619 79.625c-.26-.679.242-2.357.733-2.45.62-.119.796.593.423 1.711-.36 1.08-.894 1.422-1.156.739zm-5.536-1.8c-.24-.622.37-1.728 1.185-2.15 1.579-.816 1.742-.416.541 1.33-.805 1.169-1.47 1.486-1.726.82zm7.865-.324c.05-.259.252-.525.447-.59.228-.076.323.052.265.353-.05.26-.252.525-.447.59-.228.076-.323-.051-.265-.353zm-4.758-.822c.052-.268.271-.487.487-.487.568 0 .486.769-.093.88-.354.069-.462-.04-.394-.393zm-6.395-.833c0-.308 1.416-1.221 2.315-1.494.921-.279.8.77-.133 1.137-1.245.493-2.182.646-2.182.357zm8.466-.546c0-.861.589-1.913 1.023-1.83.342.066 1.01 1.72.778 1.927-.044.04-.468.155-.94.256-.75.16-.86.115-.86-.353zm2.958-.1c.047-.327.204-.595.35-.595.145 0 .302.268.349.595.058.41-.051.595-.35.595-.298 0-.407-.185-.349-.595zm2.44-1.346c-.3-.17-1.272-.951-2.159-1.738-2.32-2.06-3.025-4.125-2.038-5.968.473-.883.595-.954 1.379-.808.96.18.991.097.606-1.566-.32-1.381-.154-1.66 3.174-5.313l2.768-3.04 1.966.133c2.254.154 2.636.356 4.973 2.637 1.182 1.153 1.66 1.815 1.66 2.296 0 .373.124 1.032.275 1.466.187.536.19 1.014.007 1.493-.147.388-1.758 2.202-3.579 4.03l-3.311 3.327-1.525-.084-1.524-.083-.08 1.117c-.063.863-.244 1.23-.795 1.61-1.145.793-1.221.814-1.796.49zm-1.164-2.528c0-.13-.179-.305-.397-.389-.404-.155-.542.127-.22.449.252.252.617.217.617-.06zm1.7-.263c.196-.316-.55-.912-.884-.706-.145.09-.197.338-.115.552.164.428.772.522 1 .154zm-3.334-3.24c-.867-.55-1.043.294-.285 1.365l.463.654.086-.898c.052-.54-.054-.987-.264-1.12zm1.661 1.28c-.34-.34-.684-.078-.432.329.097.158.298.212.446.12.18-.112.176-.26-.014-.45zm2.09-.299c0-.838-3.45-3.426-3.803-2.854-.07.113.49.528 1.243.924.753.395 1.607 1.075 1.898 1.512.602.903.661.94.661.418zm4.873-3.11c.521-.609.947-1.323.947-1.587 0-.797-1.794-2.529-3.504-3.383-.884-.442-1.737-.804-1.896-.804-.379 0-1.803 1.793-1.844 2.32-.019.241.502.69 1.253 1.08.707.368 1.83 1.302 2.498 2.074.667.773 1.3 1.405 1.406 1.405.107 0 .62-.497 1.14-1.106zM25.41 72.24c0-.989.594-1.391 1.588-1.076.696.221.662.66-.108 1.39-.942.892-1.48.778-1.48-.314zm3.837.38a.491.491 0 0 1 .072-.576c.177-.176.329-.161.457.046.105.171.073.43-.073.575-.176.177-.328.161-.456-.046z" id="path120481" display="inline" fill="#000000" fill-opacity="1" stroke-width=".265"></path></g></g></svg>