<svg width="77" height="94" xmlns="http://www.w3.org/2000/svg" viewBox="0 0 20.628 25.052"><title>totori category dessert</title><g class="nc-icon-wrapper"><g id="layer1" transform="translate(-135.548 -107.071)"><path d="M143.75 132.047c-1.862-.346-3.876-1.233-4.452-1.962-.536-.678-.579-.89-.332-1.638.317-.96 1.82-1.885 3.528-2.172.822-.138.992-.275.992-.798 0-.896-.588-1.37-1.95-1.575-.825-.124-1.757-.593-3.087-1.553-1.607-1.16-1.984-1.584-2.403-2.7-.274-.727-.497-1.448-.498-1.602 0-.154.458-.625 1.018-1.046.738-.555 1.103-1.084 1.328-1.926.421-1.575 2.409-3.85 3.75-4.292.566-.187 1.293-.62 1.614-.962.322-.342.795-.622 1.053-.622.257 0 .623-.222.813-.493.94-1.341 3.91-2.185 4.282-1.217.172.448-.01.538-1.521.75-.564.079-1.249.346-1.522.593-.485.439-.484.458.033.82.291.204.53.542.53.752 0 .21.126.382.281.382.606 0 2.106 1.425 2.543 2.414.335.76.569.993.868.864 1.931-.835 2.604-.966 4.046-.785 1.963.246 2.004.758.186 2.28l-1.336 1.119.602.64.601.64-.541 1.506c-.484 1.346-.745 1.652-2.463 2.883-1.336.958-2.28 1.432-3.103 1.555-1.361.204-1.95.68-1.95 1.575 0 .523.17.66.993.798 2.895.486 4.386 2.3 3.164 3.848-.945 1.198-5.014 2.306-7.067 1.924zm4.75-1.624c1.78-.889 2.198-1.468 1.462-2.032-.505-.387-2.02-.929-2.198-.787-.048.038.109.369.349.735l.435.665-.92-.283c-1.12-.343-1.908-1.843-1.795-3.413.072-.993.046-1.028-.76-1.028-.805 0-.831.035-.76 1.028.114 1.57-.675 3.07-1.794 3.413l-.92.283.435-.665c.24-.366.396-.697.348-.735-.178-.142-1.693.4-2.198.787-.735.564-.318 1.143 1.463 2.032 1.184.59 1.797.72 3.426.72 1.63 0 2.243-.13 3.426-.72zm.325-7.635c1.688-.584 2.271-.95 3.44-2.157.824-.851 1.188-1.376.878-1.266-5.849 2.067-8.935 2.255-13.484.825-1.595-.502-2.932-.881-2.97-.843-.038.038.553.676 1.313 1.417 2.716 2.648 6.811 3.414 10.823 2.024zm-3.465-3.734c.522-.81.82-1.007 1.617-1.073.974-.081 1.816.434 2.13 1.305.211.584 1.111-.098 1.209-.916.057-.481-.128-.894-.597-1.329-.567-.525-1.047-.655-2.862-.773l-2.18-.142-.927 1.011c-.803.877-1.127 1.035-2.443 1.185-1.388.16-2.056.488-1.704.84.255.256 2.945.826 4.037.855.971.027 1.144-.07 1.72-.963zm2.491.199c0-.93-1.226-1.078-1.826-.221-.635.906-.529 1.053.702.964 1.001-.073 1.124-.154 1.124-.743zm-9.398-.595c-.011-.63-.9-1.52-1.28-1.283-.465.29-.164 1.275.438 1.433.772.203.848.19.842-.15zm14.62-.3c.318-.484.23-.957-.18-.957-.376 0-1.205.963-1.205 1.4 0 .296 1.137-.068 1.385-.444zm-10.449-1.45c.3-.161.778-.61 1.06-.997.466-.64.7-.713 2.575-.8 1.207-.056 2.202.02 2.399.184.69.573.615-.244-.155-1.665-.888-1.64-1.464-1.938-2.352-1.219-.787.638-1.894.626-2.727-.029-.763-.6-1.77-.436-3.094.507-1.633 1.163-2.453 3.62-1.408 4.224.567.327 2.954.195 3.702-.205zm10.057-1.12c.763-.815 1.388-1.559 1.388-1.654 0-.095-.401-.173-.892-.173-.658 0-1.19.264-2.025 1.006l-1.133 1.005.474.724c.261.398.548.69.637.648.09-.041.787-.742 1.55-1.556zm-7.201-4.05c.421-.308.463-.499.243-1.125-.357-1.02-1.268-1.135-1.859-.233-.423.646-.422.714.025 1.207.56.619.906.652 1.59.151z" id="path120260-9" display="inline" fill="#000000" fill-opacity="1" stroke-width=".265"></path></g></g></svg>