<svg width="85" height="69" xmlns="http://www.w3.org/2000/svg" viewBox="0 0 22.61 18.4"><title>totori category ore</title><g class="nc-icon-wrapper"><g id="layer1" transform="translate(-77.286 -58.662)"><path d="M86.336 76.437c-1.601-.356-3.387-.684-3.97-.73-.935-.072-1.19-.253-2.2-1.57-.766-.998-1.334-1.491-1.72-1.494-1.012-.007-1.137-.316-1.157-2.874-.018-2.224.048-2.58.636-3.44.36-.527.991-1.613 1.402-2.413.827-1.614 2.681-3.54 3.701-3.846.364-.109 1.076-.479 1.583-.822 1.213-.821 2.073-.787 3.81.153.79.427 1.895.9 2.456 1.051 1.417.382 4.592 3.332 5.657 5.256.503.91.853 1.938.876 2.573.031.872.14 1.073.614 1.14.85.122 1.037.489 1.475 2.907l.397 2.194-.827.619c-1.698 1.27-2.488 1.535-3.555 1.19-.537-.172-1.101-.412-1.254-.532-.153-.12-.762-.296-1.354-.39-1.01-.162-1.122-.113-1.804.782-.852 1.117-.852 1.117-4.766.246zm2.513-2.022c0-.482.13-1.575.287-2.429.274-1.48.259-1.573-.33-2.019-1.082-.817-1.461-.753-3.099.525-1.666 1.3-2.174 2.1-2.24 3.528l-.042.876 2.25.15c1.236.081 2.457.17 2.711.198.358.038.463-.15.463-.829zm8.855.167c1.04-.496 1.228-1.23.423-1.661-.281-.15-.574-.274-.65-.274-.33 0-1.484 1.49-1.484 1.916 0 .584.514.59 1.71.02zm-2.143-1.136c.383-.579.69-1.144.682-1.256-.024-.344-1.952-3.07-2.236-3.162-.405-.131-.981.944-1.351 2.523-.436 1.858-.16 2.612 1.009 2.756.48.059.946.126 1.036.15.09.023.477-.432.86-1.01zm-13.305.524c.345 0 .304-.915-.176-3.885-.889-5.496-1.987-6.446-3.536-3.059-.43.943-.476 1.363-.277 2.584.284 1.744.39 1.94 1.222 2.256.353.134.72.454.814.71.364.99.962 1.681 1.331 1.54.209-.08.489-.146.622-.146zm8.922-.582c.174-.175.317-.632.317-1.017 0-.385.238-1.392.53-2.238.638-1.856.635-1.72.042-1.72-.706 0-1.18 1.185-1.35 3.374-.151 1.96-.095 2.156.46 1.6zm7.333-1.78c-.125-.567-.377-.863-.832-.977-.958-.241-.97-.05-.06 1.052.923 1.121 1.15 1.102.892-.076zM85.674 69.51l.926-.793-1.78-.814c-2.139-.977-2.431-1.006-2.232-.218.083.327.29 1.216.461 1.974l.31 1.379.695-.367c.382-.202 1.11-.725 1.62-1.16zm9.747-2.044c.05-.425.182-.892.295-1.038.115-.148-.26-.728-.856-1.323-.619-.617-.988-.851-.886-.562.108.306-.071.937-.47 1.65-.682 1.22-.669 1.26.636 1.866.916.426 1.177.305 1.281-.593zm-6.273.06c.49-.197 1.13-.444 1.421-.548.498-.18.502-.21.066-.532-.254-.187-.463-.49-.463-.673 0-.32.391-.287 1.371.118.524.216 1.275-1.013 1.275-2.085 0-.812-1.897-2.784-2.733-2.84l-.988-.067c-.228-.015-1.016-.308-1.751-.651-1.286-.6-1.364-.607-2.034-.168-.532.349-.696.674-.696 1.382 0 .923-.003.925-.652.499-.705-.462-1.73-.575-1.73-.19 0 .13-.295.517-.656.86-.76.72-.806 1.04-.295 2.024.26.5.914.94 2.183 1.464a76.74 76.74 0 0 1 2.87 1.253c1.265.602 1.641.623 2.812.154z" id="path120372-9" display="inline" fill="#000000" fill-opacity="1" stroke-width=".265"></path></g></g></svg>