<svg width="102" height="89" xmlns="http://www.w3.org/2000/svg" viewBox="0 0 27.104 23.678"><title>totori category bomb</title><g class="nc-icon-wrapper"><g id="layer1" transform="translate(-186.876 -79.877)"><path id="path120174" d="M193.798 103.355c-2.505-.432-5.596-3.006-6.322-5.263-.671-2.088-.77-3.545-.34-4.995.791-2.664 2.19-4.244 5.026-5.676 1.39-.7 1.872-.804 3.765-.804 2.39 0 2.846.163 4.666 1.673 1.074.89 1.328.992 1.917.769l.678-.258-.528-1.34c-.814-2.065-.637-2.328.844-1.254.451.328.866.476.922.33.055-.145.425-.85.822-1.569.856-1.549 1.38-1.84 1.386-.767.003.412.074 1.013.16 1.335.155.578.175.574 1.6-.337.792-.508 1.546-.858 1.675-.778.128.08.062.554-.147 1.056-.512 1.224-.483 1.526.126 1.333.647-.206.893.183.475.754-.244.333-.54.398-1.21.264-.835-.167-.879-.23-.743-1.065.13-.805.098-.863-.354-.621-.274.147-.561.369-.639.494-.077.125-.434.172-.793.103-.465-.089-.68-.327-.746-.824-.088-.654-.125-.625-.573.424-.443 1.038-.77 1.262-1.675 1.146-.205-.027-.264.133-.157.431.286.804.323.822 1.276.607.525-.119.927-.107.927.027 0 .13.18.237.397.237.641 0 .455.682-.277 1.016-.896.408-1.178.387-1.178-.09 0-.483-.535-.514-1.136-.066-.505.377-.343 1.521.216 1.521.211 0 .289-.202.203-.53-.16-.613.391-.73.621-.131.084.218.31.397.501.397.192 0 .892.414 1.555.92l1.207.922.168-.667c.16-.638.194-.649.805-.248.791.518 1.152.32 1.152-.636 0-.54.187-.821.707-1.058l.706-.322-.905-.565c-.709-.443-.804-.588-.44-.667.587-.127 2.37.952 2.244 1.358-.052.165-.48.474-.95.685-.786.352-.85.472-.779 1.455.077 1.055.065 1.07-.782 1.032-.741-.033-.86.048-.86.596 0 .82-.538.808-1.322-.027-.833-.886-1.173-.836-1.86.277-.813 1.314-1.2 1.044-1.102-.768.085-1.559-.158-1.851-.911-1.098-.329.328-.342.545-.078 1.274.214.593.256 1.541.127 2.916-.17 1.807-.318 2.222-1.317 3.686-.788 1.154-1.596 1.943-2.69 2.626-1.397.873-1.744.974-3.282.96-.946-.01-2.196-.1-2.778-.2zm-3.307-6.366c0-.146-.305-.265-.677-.265-.384 0-.607.115-.514.265.09.145.395.265.677.265.283 0 .514-.12.514-.265zm-.53-2.91c0-.146-.304-.265-.677-.265-.384 0-.606.114-.513.265.09.145.394.264.677.264.282 0 .513-.119.513-.264zm11.274-1.213c-.089-.23-.161-.732-.161-1.115 0-.63-.04-.657-.41-.286-.341.34-.356.532-.09 1.115.338.744.935 1.002.66.286zm-10.88-.363c.09-.285.514-.812.94-1.172.65-.546.751-.787.615-1.466-.09-.45-.33-.814-.538-.814-.966 0-3.075 3.323-2.387 3.76.568.362 1.202.219 1.37-.308zm12.165-1.507c.235.09.303-.032.213-.377-.159-.608-.422-.646-.855-.125-.2.24-.24.611-.108.992l.21.608.097-.615c.06-.376.232-.564.443-.483zm-8.72-2.958c-.29-.29-.728.464-.54.93.175.432.219.417.438-.153.134-.349.18-.698.101-.777zm-.928.617c0-.219-.12-.397-.265-.397-.145 0-.264.178-.264.397 0 .218.119.396.264.396.146 0 .265-.178.265-.396zm18.048 8.357c-.468-.85-.85-1.666-.85-1.814 0-.499.817-.587 1.469-.16.534.35.647.639.643 1.65-.006 1.967-.316 2.046-1.262.324zm-3.306.624c-.727-.628-1.756-3.138-1.423-3.471.282-.282 1.437.37 1.896 1.07.275.42.397 1.072.345 1.843l-.082 1.193zm.34-1.126c0-.117-.19-.445-.42-.727-.382-.47-.405-.473-.264-.03.085.267.154.595.154.728 0 .134.119.243.265.243.145 0 .264-.096.264-.214zm3.174-10.984c0-.69 2.423-2.342 2.833-1.932.063.063-.032.602-.21 1.198-.316 1.053-.359 1.084-1.474 1.084-.778 0-1.149-.113-1.149-.35zm-8.26-.377c-.993-1.14-1.085-1.65-.59-3.288.26-.855.6-1.513.757-1.46.36.12.65 1.715.67 3.69.015 1.595-.167 1.826-.836 1.058zm5.35-2.046c0-.238 1.845-3.012 2.113-3.178.341-.21.338.265-.01 1.52-.187.67-.525 1.12-1.044 1.388-.806.417-1.06.482-1.06.27z" display="inline" fill="#000000" fill-opacity="1" stroke-width=".265"></path></g></g></svg>