<svg width="98" height="80" xmlns="http://www.w3.org/2000/svg" viewBox="0 0 26.127 21.266"><title>totori category cloth</title><g class="nc-icon-wrapper"><g id="layer1" transform="translate(-17.831 -109.177)"><path d="M22.1 126.832c-.173-4.3-.647-5.989-2.588-9.21-1.551-2.575-1.965-3.554-1.502-3.559 2.291-.023 9.362-.874 9.93-1.195.392-.222 1.606-1.175 2.697-2.117 1.224-1.056 2.136-1.656 2.378-1.565.217.082 1.17.218 2.117.302.948.084 1.868.267 2.045.406.177.14 1.028 1.582 1.891 3.205a667.482 667.482 0 0 0 4.683 8.625c.314.568.29.766-.2 1.635-.305.544-1.138 1.563-1.85 2.264-1.192 1.174-1.395 1.274-2.552 1.257-1.724-.024-2.7-.68-3.615-2.427-.668-1.276-.807-1.408-1.048-.998-1.233 2.11-2.491 3.72-3.35 4.29-.561.37-2.31 1.011-3.887 1.424-1.576.412-3.193.873-3.593 1.025-1.402.533-1.401.535-1.557-3.362zm3.991 1.506c4.188-1.128 5.88-2.413 7.552-5.732 1.49-2.957 1.604-3.047 4.066-3.19 2.054-.118 2.176-.092 3.35.716.671.461 1.22.781 1.22.711 0-.33-4.071-7.897-4.76-8.848-.666-.919-1.052-1.158-2.638-1.63-2.16-.643-2.44-.562-4.134 1.183-.595.613-1.726 1.428-2.514 1.811-1.894.923-5.207 1.583-7.274 1.452l-1.657-.106.648 1.106c1.516 2.586 2.781 7.133 3.146 11.305.147 1.67.257 2.04.572 1.92.215-.083 1.305-.397 2.423-.698zm2.576-7.988c.1-.327.366-1.012.592-1.521.355-.801.425-.85.513-.358.125.7-.586 2.474-.991 2.474-.184 0-.227-.224-.114-.595zm1.542-.053c-.222-.58.521-5.723.825-5.708.312.015.36 4.282.06 5.364-.22.79-.65.957-.885.344zm10.805 3.943c.947-1.249.968-1.321.562-1.965-.562-.891-1.438-1.581-2.017-1.588-.433-.006-.428.052.074.73 1.097 1.484.849 3.806-.357 3.343-.342-.13-.432-.356-.322-.797.205-.815-.766-1.44-1.097-.706-.481 1.066-.237 1.776.722 2.104.507.174 1.04.284 1.186.245.146-.039.708-.654 1.249-1.366zm-4.291-1.413c0-.664.121-.787.926-.938 1.596-.3.928-1.218-.734-1.01-1.252.158-1.586.718-1.107 1.856.447 1.062.915 1.11.915.092z" id="path120481-64" display="inline" fill="#000000" fill-opacity="1" stroke-width=".265"></path></g></g></svg>