<svg width="95" height="97" xmlns="http://www.w3.org/2000/svg" viewBox="0 0 25.329 25.83"><title>totori category mystery</title><g class="nc-icon-wrapper"><g id="layer1" transform="translate(-186.303 -52.368)"><path id="path120172" d="M197.517 77.292c-2.123-.992-2.989-1.965-3.209-3.606-.133-.992-.19-1.053-.833-.896-1.019.25-2.673 1.96-2.678 2.768-.01 1.488-.441 1.432-1.21-.157-.62-1.28-.753-1.904-.761-3.58-.008-1.697.087-2.159.586-2.833.706-.955.728-1.09.178-1.09-.457 0-1.793 1.226-2.02 1.854-.311.86-.777-.24-.8-1.887-.033-2.46.701-3.774 2.592-4.64l1.439-.658v-1.292c0-1.267-.018-1.295-.93-1.466-.51-.096-1.076-.06-1.256.08-.536.414-1.227.592-1.374.355-.387-.627 3.01-3.31 4.592-3.626 1.22-.244 2.903.364 3.436 1.24l.475.781.966-.938c1.266-1.23 1.428-1.96.741-3.348-.302-.611-.486-1.175-.409-1.252.077-.077.936.273 1.908.78 1.954 1.016 2.873 2.114 3.133 3.743.09.557.242 1.013.34 1.013.097 0 .645-.48 1.218-1.067.876-.897 1.037-1.232 1.013-2.116-.015-.578.085-1.05.221-1.05 1.262 0 2.624 2.302 2.789 4.715.112 1.638.062 1.853-.696 2.957-.736 1.073-.773 1.217-.372 1.455.245.146.73.538 1.079.871.808.773 1.44.582 2.17-.657.439-.742.633-.882.88-.634.445.45.31 4.154-.195 5.364-.576 1.378-1.311 1.803-3.12 1.803h-1.528v1.052c0 .897.115 1.11.78 1.455.43.222 1.263.404 1.853.404 2.02 0 .85.986-2.179 1.836l-2.038.572-1.213-.537c-.667-.295-1.56-.908-1.983-1.361l-.77-.825-.293.753c-.405 1.043-.35 2.423.142 3.597.41.978.408.992-.182.97-.33-.012-1.447-.418-2.482-.902zm.784-1.991c-.203-1.015.494-2.883 1.39-3.725l.675-.634.707.839c1.057 1.251 2.637 2.202 3.663 2.202h.897l-.6-.813c-.483-.652-.605-1.175-.62-2.639l-.02-1.825 1.928.163c1.41.119 2.041.069 2.35-.187.547-.454 1.217-1.76 1.302-2.537l.068-.614-.777.654c-.974.82-1.147.816-1.702-.031-.247-.377-1.083-1.044-1.859-1.481l-1.41-.796.927-1.686c.767-1.396.927-1.957.927-3.266 0-.869-.12-1.654-.265-1.744-.146-.09-.265-.041-.265.108 0 .731-3.328 3.729-4.14 3.729-.197 0-.358-.191-.358-.425 0-.49-1.306-4.867-1.452-4.867-.054 0-.36.526-.682 1.17-.321.643-1.194 1.772-1.94 2.509l-1.357 1.34-.926-1.253c-1.075-1.455-2.386-1.97-3.604-1.415l-.713.325.832.506c.931.566 1.174 1.243 1.215 3.388l.028 1.47-1.548.314c-1.653.336-2.42.899-2.68 1.965-.158.648-.135.66 1.187.569 2.16-.148 3.887.883 2.617 1.562-.888.476-2.089 2.618-2.089 3.726 0 1.192.3 1.448.91.776.635-.702 2.961-1.653 3.806-1.555.638.073.724.214.872 1.423.207 1.7.581 2.392 1.639 3.037 1.128.688 1.254.654 1.067-.283zm-3.421-7.447c-.251-.486-.632-1.011-.846-1.168-.495-.363-.196-.957 1.114-2.218.912-.877 1.035-.915 2.962-.926l2.01-.01 1.161 1.282c.639.705 1.158 1.479 1.153 1.72-.005.24-.322.794-.705 1.23-.681.777-.759.796-3.545.884l-2.848.089-.456-.883zm1.26-.808c-.171-.172-.312-.601-.312-.954 0-.537-.064-.588-.394-.314-.345.286-.324.424.161 1.106.305.428.623.71.707.627.084-.084.011-.293-.161-.465zm4.98-.289c0-.19-.175-.577-.389-.86-.367-.486-.389-.467-.397.346-.006.592.116.86.389.86.218 0 .396-.155.396-.346zm-7.607 10.907c-.5-.188-.596-.423-.596-1.446 0-1.543.427-1.454 1.064.222.515 1.359.436 1.566-.468 1.224zm8.73-.308c-.434-.544-1.17-2.091-1.052-2.21.06-.06.427.183.814.542.387.359 1.15.735 1.695.837.545.101 1.468.396 2.05.654l1.058.47-2.15.02c-1.424.012-2.24-.094-2.415-.313zm-15.09-1.984c-.533-1.428-.583-1.704-.424-2.337.088-.352.316-.64.507-.64.244 0 .372.547.434 1.853.093 1.962-.07 2.318-.517 1.124zm21.71-3.078c-1.063-.367-1.126-.776-.15-.98 1.096-.227 2.373-.954 2.567-1.46.094-.245.24-.376.324-.292.226.226-1.008 2.577-1.48 2.82-.223.114-.79.075-1.261-.088zm-22.56-8.478c0-.207.313-.749.697-1.204.504-.6.882-.806 1.368-.748 1 .12 1.001.67.003 1.086-.483.202-1.041.564-1.241.805-.446.538-.827.566-.827.061zm22.19-1.863c-.093-.093-.056-.608.082-1.147.332-1.3.332-1.3.122-2.877-.101-.76-.075-1.436.06-1.519.372-.23 1.698 2.688 1.526 3.364-.183.726-1.564 2.405-1.79 2.179zm-20.338-5.677c0-.392 1.304-1.831 1.797-1.985.668-.208 2.833.507 2.833.935 0 .265-.37.368-1.323.368-.834 0-1.564.171-1.977.463-.712.504-1.33.606-1.33.219zm6.54-1.334c-.861-.641-.924-.757-.48-.873.335-.088.757.12 1.217.6.96 1.003.48 1.181-.738.273zm7.595-.362c-.083-.218-.62-.72-1.19-1.116-1.306-.905-1.321-1.25-.047-1.033 1.077.183 2.26 1.247 2.13 1.915-.109.563-.706.72-.893.234z" display="inline" fill="#000000" fill-opacity="1" stroke-width=".265"></path></g></g></svg>