<svg width="97" height="105" xmlns="http://www.w3.org/2000/svg" viewBox="0 0 25.666 28.045"><title>totori category poison</title><g class="nc-icon-wrapper"><g id="layer1" transform="translate(38.996 -81.304)"><path id="path120202-1" d="M-37.1 108.927c-.475-.332-.57-.581-.44-1.166.138-.631.04-.816-.647-1.222-.699-.413-.81-.63-.81-1.593 0-.66.17-1.284.417-1.53.553-.554 1.69-.529 2.118.047.297.4.423.415.917.113.498-.305.649-.282 1.14.167.313.285.955.714 1.428.953.865.437 1.144.942.53.959-.183.005-.6.232-.927.505-.455.38-.595.776-.595 1.683 0 .837-.123 1.233-.419 1.346-.767.295-2.102.166-2.713-.262zm17.982-.122c-.838-.512-.88-.607-.72-1.616.104-.645.056-1.213-.118-1.423-.216-.26-.167-.538.19-1.085l.481-.735-.882.652c-.864.638-.979.651-5.959.651h-5.078l-1.912-1.155c-2.206-1.333-2.193-1.287-1.47-4.968l.443-2.25 1.488-1.145c2.166-1.667 3.123-1.991 5.877-1.991 3.247 0 4.547.373 5.904 1.694.973.948 1.184 1.373 1.682 3.39.684 2.77.696 3.163.13 4.255-.392.761-.394.811-.012.494.241-.2.66-.278.967-.18.31.098.542.054.542-.104 0-.334 1.387-1.083 2.006-1.083.245 0 .846.425 1.336.945.945 1.002 1.152 2.048.56 2.833-.399.53-2.052 1.228-2.513 1.06-.218-.078-.33.152-.33.678 0 .879-.588 1.629-1.276 1.627-.245 0-.846-.246-1.336-.544zm-2.244-5.953c.602-.601.658-.816.502-1.918-.265-1.879-.348-2.042-1.261-2.475-.753-.356-.957-.357-1.855-.004-1.03.404-1.097.53-1.365 2.52-.12.893-.033 1.114.704 1.787 1.093.999 2.332 1.033 3.275.09zm-7.607-.523c.873-.994.994-1.664.537-2.973-.196-.564-.578-.93-1.249-1.198-.857-.342-1.065-.338-1.842.032-.481.23-.924.662-.984.96-.499 2.487-.424 2.79.912 3.679 1.004.668 1.72.532 2.626-.5zm1.51 6.073c-.088-.23-.16-.885-.16-1.455v-1.037h3.061l.061 1.456.061 1.455h-1.431c-1.06 0-1.472-.108-1.592-.419zm4.235.088c-.048-.182-.23-.776-.406-1.321-.175-.545-.244-1.11-.154-1.257.09-.146.687-.266 1.325-.266.899 0 1.253.132 1.572.588.706 1.009.515 1.503-.801 2.067-1.432.614-1.425.613-1.536.19zm-7.372-.126c-1.067-.112-1.146-.294-.824-1.904.163-.813.207-.838 1.387-.761.939.061 1.24.192 1.311.569.153.804-.22 2.292-.563 2.244a59.203 59.203 0 0 0-1.31-.148zm13.124-11.45c-.312-.125-.647-.355-.744-.511-.096-.156-.436-.219-.755-.139-.436.11-.84-.123-1.637-.942-.976-1.004-1.022-1.115-.593-1.432.352-.26.448-.655.396-1.636-.065-1.257-.04-1.306.933-1.781.928-.454 1.046-.458 1.653-.06.453.297.654.67.654 1.216 0 .668.103.788.675.788 2.258 0 3.222 1.974 1.772 3.628-.824.94-1.526 1.2-2.354.869zm-19.408-.448c-.683-.244-1.058-.939-1.058-1.962 0-1.328.222-1.82.945-2.095.458-.174.63-.474.692-1.21.104-1.227 1.142-2.114 2.172-1.856.885.222 1.583 1.562 1.4 2.688-.124.762-.04.908.766 1.342.497.268.904.576.904.685 0 .108-.387.393-.86.632s-1.119.671-1.435.96c-.317.29-.691.455-.833.368-.14-.088-.596.018-1.011.235-.794.414-1.035.445-1.682.213zm7.502-4.907l-1.218-1.123.147-1.721c.188-2.225.32-2.526 1.4-3.194.993-.613 1.09-.89.515-1.465-.441-.442-.266-1.164.282-1.164.202 0 .368-.234.368-.52 0-.487.699-1.068 1.284-1.068.518 0 2.475 2.122 2.323 2.518-.083.216-.273.393-.423.393-.61 0-.212.744.719 1.346 1.12.725 1.617 1.843 1.636 3.68.01 1.04-.125 1.334-1.064 2.316-1.063 1.112-1.096 1.124-2.913 1.124-1.794 0-1.867-.027-3.056-1.122zm5.255-.368c.47-.29.188-.634-.304-.371-.281.15-1.09.274-1.796.274-1.023 0-1.467-.153-2.186-.753-.886-.74-.897-.776-.651-2.05l.25-1.298 2.117-.179c1.969-.166 2.149-.138 2.574.397.251.317.479.992.505 1.502l.048.926.11-.897c.183-1.504-.111-2.117-1.233-2.566-.84-.336-1.057-.575-1.196-1.318-.224-1.194-.828-1.16-1.117.062-.18.764-.41 1.031-1.073 1.257-1.188.404-1.328.623-1.489 2.325l-.142 1.51 1.11.825c1.041.776 1.206.816 2.687.654.868-.094 1.672-.23 1.786-.3z" display="inline" fill="#000000" fill-opacity="1" stroke-width=".265"></path></g></g></svg>