<svg width="68" height="93" xmlns="http://www.w3.org/2000/svg" viewBox="0 0 18.182 24.75"><title>totori category accessory</title><g class="nc-icon-wrapper"><g id="layer1" transform="translate(-187.23 -104.455)"><path d="M193.25 128.764c-1.568-.567-3.8-2.653-4.478-4.183-.424-.96-.503-1.69-.46-4.265l.051-3.108 1.415-1.483c.778-.816 1.415-1.545 1.415-1.62 0-.074-.893-.4-1.984-.724-1.092-.324-1.982-.67-1.98-.767.003-.097.36-1.189.793-2.426.745-2.127 1.485-3.175 2.244-3.175.186 0 1.32-.284 2.52-.632l2.184-.632 1.22.766c2.478 1.556 2.673 1.693 2.674 1.888 0 .11-.35.765-.78 1.455l-.782 1.256 1.51.281c1.927.359 2.806.832 4.478 2.412 1.779 1.68 2.327 3.4 2.056 6.457-.378 4.275-2.665 7.289-6.41 8.445-2.077.642-4.013.66-5.686.055zm4.028-.72c3.28-.317 5.907-2.149 6.805-4.743.603-1.743.602-6.02 0-7.17-1.025-1.95-3.769-3.83-5.58-3.822-1.516.007-2.073.271-1.913.91.136.54-.365 1.568-1.016 2.088-.16.126-.051.142.25.035.29-.103 1.15-.412 1.91-.686 2.571-.928 4.295-.439 5.63 1.597.544.828.614 1.224.562 3.153-.1 3.671-1.474 6.042-4.339 7.488-1.823.92-2.614.89-4.86-.189-1.16-.557-1.472-.876-2.113-2.169-.88-1.772-.965-3.67-.26-5.793.414-1.246 1.664-2.759 2.543-3.077.218-.08 0-.154-.487-.165-.56-.013-1.048-.225-1.333-.577-.448-.553-.459-.547-1.703.91-1.676 1.96-2.034 2.912-2.03 5.392.003 2.21.69 4.212 1.778 5.179.885.786 3.343 1.973 3.907 1.887a65.253 65.253 0 0 1 2.25-.248zm1.265-2.747c2.21-1.119 2.78-2.03 2.918-4.669.144-2.752-.262-3.638-2.01-4.387l-1.237-.53-1.982 1.037c-2.327 1.219-2.823 1.802-3.188 3.747-.23 1.23-.19 1.686.273 3.079.539 1.617.56 1.639 1.922 2.04 1.81.534 1.579.556 3.304-.317zm-5.747-13.101l-.803-1.167-1.321.422c-.727.233-1.272.473-1.21.533.183.184 3.426 1.35 3.794 1.366.207.008.025-.45-.46-1.154zm3.83-2.995c-.024-.034-.423.081-.886.256-.821.31-.843.36-.833 1.914l.01 1.595.877-1.852c.482-1.018.856-1.88.832-1.913zm-2.258 1.966c0-.77-.118-1.52-.262-1.664-.173-.173-.173-.572 0-1.176.375-1.309.343-1.391-.466-1.189-1.093.274-3.24 1.237-3.24 1.453 0 .159 1.152.804 1.436.804.049 0 .151-.239.227-.53.217-.826.717-.62.717.296 0 .694.084.803.53.686.29-.076.529-.03.529.102 0 .131-.09.241-.199.243-.109.003-.354.103-.544.224-.274.174-.228.42.224 1.186.314.532.678.968.81.968.13 0 .238-.631.238-1.403zm-3.175-.736c0-.087-.328-.322-.728-.522l-.896-.452c-.154-.08-.757 1.35-.757 1.796 0 .106.535 0 1.19-.235.655-.236 1.19-.5 1.19-.587zm4.829-1.759c.613-.176.585-.516-.072-.868-.672-.36-.955-.188-1.12.676-.105.55-.047.647.3.503.235-.098.637-.237.892-.31zm6.69 1.267c-1.005-1.553-1.02-1.563-2.098-1.433l-1.087.13.738-.77c.703-.734.725-.831.454-2.037-.156-.697-.238-1.313-.182-1.37.056-.055.434.377.839.962.405.585.751 1.063.769 1.063.017 0 .418-.11.89-.246 1.03-.295 1.055-.196.205.814l-.654.776.641 1.766c.353.971.609 1.798.57 1.837-.04.04-.528-.632-1.085-1.492z" id="path119425-3" display="inline" fill="#000000" fill-opacity="1" stroke-width=".265"></path></g></g></svg>