<svg width="66" height="92" xmlns="http://www.w3.org/2000/svg" viewBox="0 0 17.702 24.546"><title>totori category supplement</title><g class="nc-icon-wrapper"><g id="layer1" transform="translate(5.176 -53.713)"><path d="M-.704 78.086c-.291-.123-1.085-.82-1.765-1.546-1.008-1.078-1.266-1.559-1.405-2.612-.094-.71-.416-2.6-.715-4.202-.3-1.6-.56-3.657-.579-4.57-.033-1.598 0-1.688.887-2.381 2.17-1.7 2.167-1.695 1.804-2.645-.26-.68-.263-.976-.01-1.38.196-.314.26-.955.166-1.648-.124-.913-.043-1.275.418-1.86 1.523-1.93 9.025-2.072 10.89-.206.673.673.73.892.73 2.806 0 1.142-.124 2.226-.276 2.41-.284.341.137.849 2.086 2.519.507.433.897 1.061.986 1.587.083.486-.244 3.13-.739 5.986l-.887 5.116-1.366 1.366-1.366 1.367-4.165.059c-2.29.032-4.403-.043-4.694-.166zm9.485-2.28c.853-.981.953-1.295 1.474-4.624.831-5.32 1.013-6.88.8-6.88-.106 0-.267-.297-.358-.661-.092-.364-.27-.661-.398-.661-.127 0-.601-.346-1.053-.768-.893-.834-1.05-1.688-.425-2.313.218-.218.397-.567.397-.775 0-.498-.904-.485-1.323.019-.484.583-7.983.583-8.467 0-.53-.64-1.154-.506-.932.198.558 1.767.505 2.02-.647 3.072l-1.111 1.016 1.493.606c1.723.7 1.634 1.24-.105.642-2.023-.697-2.092-.61-1.7 2.139 1.016 7.123 1.193 7.897 2.028 8.863.44.51 1.107 1.008 1.482 1.108.376.1 2.313.157 4.306.127l3.624-.054zm-8.427.412c-.29-.122-.982-.692-1.535-1.266-.83-.86-1.048-1.32-1.24-2.606a65.388 65.388 0 0 0-.389-2.355c-.278-1.4.154-1.594 1.51-.68l1.202.812h3.812c3.76 0 3.83-.01 5.032-.773l1.219-.773.164.653c.09.36.106.746.035.86-.07.114-.259 1.032-.419 2.039-.274 1.726-.37 1.903-1.661 3.088l-1.371 1.256-2.915-.016c-1.603-.01-3.153-.117-3.444-.24zm.926-6.521c-1.012-.384-2.562-1.155-3.032-1.508-.46-.345-.476-.443-.137-.851.211-.254.862-.772 1.446-1.15.965-.628 1.302-.69 3.708-.687 2.982.003 4.104.31 5.383 1.473.842.766.86.824.397 1.188-1.424 1.118-2.63 1.503-4.986 1.594-1.31.05-2.56.023-2.779-.06zM-.24 61.478c-.327-.228-.595-.49-.595-.581 0-.092 1.815-.166 4.034-.166 2.22 0 4.244-.102 4.499-.227.738-.362.575.489-.19.99-.925.607-6.873.594-7.748-.016zm8.235-3.638c.807-.659 1.007-1.706.455-2.37-1.037-1.25-8.53-1.26-9.566-.012-.56.676-.365 1.719.446 2.383.715.584.975.622 4.333.622 3.357 0 3.617-.038 4.332-.622zm-8.68-1.363c-.718-.718-.13-1.03 1.273-.677 1.53.385 4.619.385 6.15 0 1.345-.339 1.995-.045 1.343.607-.288.288-1.33.396-4.349.449-3.438.06-4.029.01-4.417-.379z" id="path120540" display="inline" fill="#000000" fill-opacity="1" stroke-width=".265"></path></g></g></svg>