<svg width="73" height="93" xmlns="http://www.w3.org/2000/svg" viewBox="0 0 19.41 24.655"><title>totori category gunpowder</title><g class="nc-icon-wrapper"><g id="layer1" transform="translate(-163.096 -52.989)"><path d="M170.2 77.287c-.904-.196-1.843-.468-2.086-.604-.81-.454-3.537-3.877-3.961-4.974-.414-1.07-.407-1.112.578-3.572.856-2.136 1-2.79 1.009-4.61.006-1.166-.155-2.625-.359-3.242-.203-.617-.288-1.203-.188-1.303.339-.34.956.591 1.881 2.837l.924 2.242.005-1.86c.003-1.12.147-2.067.362-2.381.196-.287.862-1.474 1.478-2.639 1.515-2.86 1.705-2.994 1.52-1.08-.165 1.708.174 2.871 1.07 3.669.515.458.54.449.86-.323.259-.627.262-1.363.016-3.482-.41-3.522-.091-3.884 1.112-1.264.493 1.073 1.09 2.368 1.325 2.877l.43.926.025-1.587c.023-1.412.066-1.534.392-1.104.202.266.809 1.695 1.349 3.175.54 1.48 1.039 2.75 1.109 2.824.07.072.082-.787.027-1.91-.055-1.123-.023-1.957.07-1.852.34.377 1.313 3.707 1.469 5.017l.158 1.341.605-.703c.827-.96 1.019-.624.65 1.148-.24 1.157-.236 2.104.018 4.188.327 2.683.326 2.698-.377 4.18-.388.818-1.137 2.053-1.665 2.745l-.96 1.256-1.352-.187c-1.888-.262-3.016-.185-3.886.265-.89.461-1.437.46-3.608-.013zm.354-1.68c-.368-.407-.42-.851-.296-2.567.207-2.88.469-3.056.925-.625.149.79.507 1.758.796 2.152.29.394.526.84.526.992 0 .544 1.55.294 1.981-.32 1.855-2.64 2.765-4.385 2.99-5.734.253-1.51.854-1.778.838-.373-.015 1.317-.51 3.06-1.342 4.735l-.667 1.339.666.314c.367.173.797.315.956.315.335 0 1.864-1.587 2.747-2.849.594-.85.597-.892.187-2.53-.23-.917-.418-2.033-.418-2.481 0-.48-.163-.878-.397-.967-.233-.09-.408-.512-.423-1.02-.015-.478-.112-1.167-.215-1.53l-.189-.662-.203.792c-.112.436-.327.942-.48 1.125-.576.695-.75.29-.58-1.358.132-1.299.064-1.972-.296-2.916-.258-.675-.531-1.164-.608-1.088-.076.077-.229 1.398-.339 2.935-.133 1.869-.338 2.987-.62 3.373-1.436 1.973-1.802 2.627-1.802 3.22 0 .365-.104.664-.231.664-.295 0-.29-.28.05-2.381.152-.946.434-1.961.626-2.256.552-.847.765-4.616.307-5.417-.376-.658-.384-.65-1.326 1.315-.52 1.087-.947 2.199-.947 2.47 0 .275-.146.444-.331.383-.193-.063-.364-.679-.41-1.474-.088-1.496-1.366-4.258-1.373-2.964-.003.361.248 1.262.555 2.002.502 1.211.527 1.497.246 2.85-.172.827-.401 1.503-.51 1.503-.108 0-.423-.923-.698-2.05-.329-1.345-.532-1.823-.59-1.39-.05.364-.342 1.531-.649 2.593-.542 1.874-.545 1.992-.119 3.975.532 2.476.535 2.573.073 2.19-.403-.335-1.43-3.416-1.545-4.636-.08-.844-.736-1.297-.733-.505 0 .266-.376 1.404-.839 2.528l-.84 2.044.507.952c.835 1.562 1.047 1.548.946-.066-.098-1.545.205-1.726.693-.415 1.317 3.545 1.409 3.706 2.26 3.98 1.378.443 1.656.402 1.141-.167zm-7.457-12.082c.013-1.845.075-2.164.366-1.873.619.619.849 2.286.428 3.1-.662 1.28-.81 1.05-.794-1.227zm17.848-5.622c-.23-1.416-.39-2.611-.355-2.657.035-.046.493.344 1.017.868 1.1 1.1 1.161 1.681.343 3.244l-.586 1.118zm-13.574.572a2.647 2.647 0 0 1-.146-.852c.014-.51 2.551-3.39 2.783-3.159.193.193-.49 1.532-1.619 3.172-.635.924-.901 1.143-1.018.84z" id="path120204" display="inline" fill="#000000" fill-opacity="1" stroke-width=".265"></path></g></g></svg>