<svg width="72" height="95" xmlns="http://www.w3.org/2000/svg" viewBox="0 0 19.064 25.229"><title>totori category healing</title><g class="nc-icon-wrapper"><g id="layer1" transform="translate(33.36 -53.763)"><path id="path120202" d="M-30.86 78.727c-1.483-.45-2.055-1.118-2.273-2.655-.7-4.926.235-7.409 2.633-6.995 2.64.455 4.422.471 4.777.044.493-.595 1.024-.53 2.048.251l.884.675v3.512c0 3.939-.104 4.181-2.177 5.047-1.084.453-4.564.524-5.892.12zm2.13-2.824c.156-.108.234-.737.175-1.42-.101-1.183-.138-1.23-1.073-1.368a34.308 34.308 0 0 1-1.828-.33l-.86-.185v1.191c0 .655.15 1.313.331 1.462.261.213 1.525.578 2.844.82.073.013.258-.063.412-.17zm7.178-7.153c-.457-.505-1.239-2.498-1.239-3.158 0-.935 3.328.848 3.6 1.928.361 1.442-1.358 2.338-2.36 1.23zm1.407-.979c0-.218-.119-.397-.264-.397-.146 0-.265.179-.265.397 0 .218.12.397.265.397.145 0 .264-.179.264-.397zm-9.817.896c-.7-.257-1.295-1.2-1.295-2.053 0-.989 1.183-1.682 3.105-1.82 1.672-.119 1.87-.075 2.658.588 1.268 1.067 1.1 2.48-.388 3.272-.684.364-3.102.372-4.08.013zm3.401-1.46c.831-.222.777-1.1-.08-1.315-.807-.203-2.48.034-2.85.403-.75.751 1.23 1.368 2.93.912zm.209-2.991c-.32-.518 1.633-3.335 3.211-4.632 1.165-.957 1.637-1.527 1.655-2 .05-1.27 1.184-2.087 2.032-1.463.469.344.47.379.037.547-.616.239-.603 1.501.02 2.066.562.508 1.542.58 1.694.126.192-.577.967-.025.81.577-.177.677-1.252 1.436-1.759 1.241-.411-.158-1.018.205-3.351 2-.899.691-1.912 1.257-2.252 1.257-.34 0-.919.114-1.287.254-.368.14-.733.152-.81.027zm4.307-3.249c.609-.467 1.107-.943 1.107-1.058 0-.504-.768-.125-1.72.85-1.243 1.274-.917 1.384.613.208zm-10.388 2.115c-.554-.792-.518-1.422.118-2.058.702-.702 1.628-.67 2.335.083.715.762.729 1.35.046 2.034-.72.719-1.975.69-2.499-.06zm13.574-4.953l-.624-.513.794-1.49c1.287-2.416 2.264-2.908 3.578-1.802.795.668 1.057 1.897.57 2.665-.156.244-3.258 1.654-3.64 1.654-.03 0-.334-.231-.678-.514z" display="inline" fill="#000000" fill-opacity="1" stroke-width=".265"></path></g></g></svg>