<svg width="83" height="82" xmlns="http://www.w3.org/2000/svg" viewBox="0 0 22.134 21.952"><title>totori category plant</title><g class="nc-icon-wrapper"><g id="layer1" transform="translate(-105.685 -55.48)"><path d="M113.51 77.353c-.365-.103-1.786-.2-3.16-.215l-2.499-.026-.99-1.063c-1.355-1.453-1.466-1.947-.704-3.122.356-.548.665-1.468.706-2.102.13-2.013 2.55-5.626 4.114-6.142 2.927-.966 6.073-.704 8.174.682.75.495 1.1.594 1.355.382a.848.848 0 0 1 .764-.125c.711.273.885-1.117.228-1.82-.3-.32-.77-1.176-1.046-1.904-.276-.727-.612-1.296-.746-1.263-.134.032-.78.251-1.434.487-1.676.603-3.023.374-5.047-.856-.95-.576-1.929-1.126-2.176-1.221-.248-.095-.447-.266-.443-.38.012-.388 4.621-2.3 5.559-2.305.52-.003 1.618.34 2.472.771 1.484.752 1.545.76 1.821.268.485-.867 1.44-1.689 2.177-1.874.831-.208 4.453.363 5.045.796.35.255.115.586-1.56 2.211l-1.971 1.911h-1.616c-2.102 0-2.123.407-.131 2.608 1.471 1.626 1.482 1.651 1.297 2.89-.102.687-.353 1.65-.558 2.141-.204.49-.371 1.081-.371 1.312 0 .23-.43.86-.955 1.398-.59.604-1.174 1.613-1.528 2.64-.557 1.617-.622 1.69-2.397 2.65-2.124 1.15-3.454 1.536-4.38 1.271zm.202-1.929c.443-.229.996-.607 1.23-.84.233-.234.571-.376.751-.316.2.067-.031.437-.59.947-.505.461-.796.839-.647.839.149 0 .383-.106.522-.236.138-.129.94-.431 1.783-.671 1.468-.419 2.57-1.168 2.57-1.748 0-.19-.16-.19-.513 0-1.257.673-1.076 0 .248-.917.582-.404 1.058-.89 1.058-1.08 0-.19.22-.501.487-.691.735-.522 1.175-1.46.794-1.695-.184-.113-.69.255-1.257.915-.523.607-1.072 1.102-1.22 1.1-.15-.003-.885.4-1.634.893-1.813 1.194-5.696 2.938-7.424 3.335-2.242.514-1.942.826.67.698 1.422-.07 2.689-.283 3.172-.533zm-3.82-1.25c.557-.137 1.596-.545 2.31-.906a35.91 35.91 0 0 1 2.691-1.198c1.787-.692 4.574-2.559 4.995-3.345.179-.335.424-.609.545-.609.121 0 .22-.238.22-.529 0-.383-.176-.53-.64-.53-.353 0-1.454-.412-2.448-.916-2.295-1.164-4.628-1.329-6.353-.45-2.096 1.07-3.497 3.477-3.517 6.042-.004.46-.206 1.185-.449 1.609-.243.424-.368.963-.278 1.197.136.355.312.381 1.037.155.48-.15 1.33-.384 1.887-.52zm-.88-2.927c-.004-.704 1.188-2.672 2.085-3.44 1.25-1.07 2.983-1.694 3.656-1.318.362.203-.014.546-2.054 1.874-1.373.895-2.764 1.949-3.091 2.343-.327.395-.595.638-.595.541zm4.762-1.658c0-.174.446-.566.992-.871 1.135-.634 4.002-1.517 4.22-1.3.359.36-.23.912-1.156 1.082-.557.103-1.698.461-2.535.797-1.02.409-1.521.505-1.521.292zm8.467-2.547c0-.3-.12-.471-.265-.381-.146.09-.265.335-.265.545 0 .21.12.381.265.381.145 0 .265-.245.265-.545zm-5.844-8.6c1.334-.14 1.596-.235 1.222-.444-.619-.346-2.828-.08-3.77.456l-.737.419.794-.127c.437-.07 1.558-.207 2.491-.304zm7.166-1.43c.608-.264.588-.275-.247-.145-1.018.16-1.87.806-1.87 1.418 0 .293.201.213.728-.29.4-.383 1.026-.825 1.39-.983z" id="path120325" display="inline" fill="#000000" fill-opacity="1" stroke-width=".265"></path></g></g></svg>