<svg width="79" height="94" xmlns="http://www.w3.org/2000/svg" viewBox="0 0 21.121 24.949"><title>totori category lumber</title><g class="nc-icon-wrapper"><g id="layer1" transform="translate(-18.631 -82.64)"><path d="M28.816 106.866c-2.138-.97-2.18-1.003-2.788-2.193-.4-.784-.69-1.04-1.18-1.04-.358 0-1.04-.238-1.516-.529-.477-.29-1.164-.531-1.528-.535-.904-.009-1.685-.697-2.389-2.104-.571-1.141-.58-1.27-.253-3.743.34-2.571.224-5.421-.276-6.736-.426-1.12-.302-3.077.253-3.988.363-.595.942-.996 2.026-1.401.835-.312 1.848-.846 2.252-1.186.634-.533 1.07-.629 3.199-.698 7.968-.262 11.151.152 12.472 1.62.722.804.742.9.583 2.856a93.775 93.775 0 0 1-.547 4.67c-.476 3.301-.513 4.281-.256 6.653.248 2.289.054 3.196-.763 3.568-.34.154-.808.682-1.042 1.171-.253.532-.831 1.098-1.434 1.406-.555.283-1.185.842-1.398 1.242-.422.791-2.11 1.692-3.167 1.689-.363 0-1.375-.326-2.248-.722zm3.807-1.147c.473-.507.949-2.492 1.166-4.865.04-.436.17.07.288 1.125.236 2.097.564 2.387 1.496 1.323.287-.328.938-1.06 1.446-1.628.509-.568.946-1.164.971-1.323.026-.16.058-2.406.072-4.992.021-4.11-.026-4.68-.378-4.528-.22.096-1.145.424-2.053.73l-1.65.557.169 2.582c.122 1.868.085 2.582-.135 2.582-.168 0-.31-.208-.318-.463-.035-1.2-.327-2.869-.542-3.095-.131-.138-.238-.538-.238-.888 0-.503-.098-.597-.463-.446-.255.105-1.113.266-1.907.359-1.427.166-1.447.18-1.66 1.207-.153.739-.12 1.098.112 1.241.2.125.35.947.388 2.136.055 1.744.039 1.817-.17.743a28.233 28.233 0 0 0-.643-2.513c-.228-.728-.415-1.707-.417-2.175-.003-.786-.1-.88-1.237-1.212-.679-.198-1.483-.312-1.786-.254-.594.113-.595.134-.253 3.905.092 1.009.053 1.491-.107 1.323-.419-.44-.853-2.001-.853-3.065 0-.55-.138-1.337-.307-1.746-.17-.41-.285-.885-.258-1.056.063-.393-.318-.63-1.858-1.155l-1.232-.42-.107 4.78c-.109 4.868.042 5.983.908 6.7.35.29.427.16.578-.98.096-.724.272-1.377.391-1.45.12-.074.374.521.567 1.323.43 1.794.694 2.166 1.754 2.468l.832.237.179-1.429c.098-.786.28-1.429.403-1.429.324 0 .586 1.41.4 2.152-.097.384.067 1.145.417 1.935.534 1.208.602 1.267.939.806.2-.273.362-.83.362-1.24 0-.483.139-.742.397-.742.294 0 .397.308.397 1.19 0 1.6.647 2.25 2.239 2.25.86 0 1.321-.152 1.701-.56zm1.06-14.757c3.52-.914 4.26-1.333 4.26-2.408 0-.428.2-1.197.445-1.71.687-1.44.183-2.131-2.041-2.793-2.311-.689-7.165-1.006-8.06-.528-.354.19-.592.43-.528.533.063.103-.547.003-1.356-.222-1.158-.323-1.564-.342-1.91-.092-.242.174-1.315.755-2.385 1.29-1.07.534-2.006 1.129-2.08 1.321-.074.193-.059.753.034 1.245.131.7.353.961 1.02 1.202.47.17 1.272.515 1.783.767.713.352 1.128.4 1.79.21.95-.272 1.389-.068.902.419-.475.475-.378.734.282.757.327.01 1.012.18 1.521.376 1.45.558 3.143.46 6.323-.367zm-3.089-2.048c-.389-.295-.18-.347 1.427-.354 2.883-.013 3.998-1.137 2.728-2.751-.51-.649-.695-.697-2.645-.697-1.222 0-2.098-.11-2.098-.265 0-.156.955-.265 2.335-.265 2.1 0 2.394.062 2.91.613.582.618.778 1.877.336 2.15-.132.082-.18.376-.107.655.09.341-.064.611-.471.829-.853.456-3.85.514-4.415.085zm-3.3-.786c-.783-.24-1.257-.54-1.257-.791 0-.25.123-.329.322-.206.176.11.913.332 1.637.495.723.163 1.363.438 1.42.61.136.409-.557.373-2.122-.108zm-4.643-.423c-.503-.503-.37-1.468.262-1.91.681-.478.962-.34.483.237-.2.242-.271.722-.176 1.197.167.835-.039 1.006-.57.476z" id="path120481-9" display="inline" fill="#000000" fill-opacity="1" stroke-width=".265"></path></g></g></svg>