<svg width="78" height="78" xmlns="http://www.w3.org/2000/svg" viewBox="0 0 20.795 20.879"><title>totori category key item</title><g class="nc-icon-wrapper"><g id="layer1" transform="translate(-162.078 -132.151)"><path d="M178.696 152.874c-.247-.065-1.28-1.212-2.294-2.55-1.015-1.336-3.114-3.918-4.664-5.737l-2.82-3.308-2.114.095-2.114.094-1.306-1.398c-1.413-1.513-1.556-2.09-1.014-4.082.338-1.244 1.245-2.278 2.79-3.184.911-.534 1.469-.653 3.059-.653 1.771 0 2.018.068 2.776.76 1.113 1.017 1.628 2.69 1.086 3.528a5.349 5.349 0 0 0-.578 1.357c-.188.765-.003 1.015 5.446 7.352.426.495.495.5 1.276.097.875-.453 1.581-.203 1.581.559 0 .286.134.298.654.061.5-.228.749-.219 1.058.038.526.437.503.789-.103 1.578-.66.859-.445 1.357.505 1.167.592-.118.779-.037.916.397.133.418-.076.77-.9 1.513-.589.533-1.072 1.131-1.072 1.329 0 .295-1.367 1.241-1.64 1.136a10.425 10.425 0 0 0-.528-.15zm1.128-.888c.723-.388.634-1.374-.193-2.128-.387-.352-.616-.489-.509-.303.118.205-.042.53-.407.826-.582.472-.587.51-.146 1.183.515.787.55.799 1.255.422zm-4.205-6.804c-.285-.4-.799-.966-1.142-1.257l-.624-.529.522.662c1.392 1.763 2.256 2.544 1.244 1.124zm-7.294-7.865c.74-.485.837-1.492.196-2.024-.649-.538-1.336-.31-2.33.776-.718.782-.838 1.065-.623 1.467.211.393.46.466 1.195.346.51-.082 1.213-.337 1.562-.565zm3.05-2.508c-.437-1.457-1.128-1.946-2.932-2.076-1.5-.109-1.616-.07-3.267 1.11-.942.672-1.782 1.484-1.865 1.804-.244.93.069.917.422-.018.245-.648.698-1.04 1.89-1.636 1.727-.863 2.973-.984 4.105-.399.847.438 1.469 1.715 1.415 2.906l-.036.81.281-.758c.2-.542.197-1.04-.014-1.743z" id="path120204-4" display="inline" fill="#000000" fill-opacity="1" stroke-width=".265"></path></g></g></svg>