<svg width="85" height="95" xmlns="http://www.w3.org/2000/svg" viewBox="0 0 22.661 25.16"><title>totori category vegetable</title><g class="nc-icon-wrapper"><g id="layer1" transform="translate(-76.601 -77.804)"><path d="M79.562 102.667c-1.76-.515-2.365-1.134-2.773-2.835-.414-1.725-.231-2.363 1.454-5.066 1.335-2.143 1.458-3.012.79-5.58-.675-2.591-.43-4.852.526-4.852.524 0 .784 1.508.785 4.549 0 2.553.283 3.162.37.796.133-3.656.614-8.257.976-9.348.317-.955.616-1.337 1.299-1.661 1.323-.628 3.15-.534 4.695.242l1.32.663.729-.78c.919-.984 1.758-1.196 3.197-.809 2.397.646 3.51 2.046 3.381 4.25l-.08 1.365-1.084.051c-.597.029-1.765.385-2.597.791-.831.407-1.594.658-1.694.558-.1-.1-.182-.944-.182-1.875 0-2.062-.454-2.152-.534-.106-.054 1.38-.829 3.444-1.433 3.817-.14.087-.377-.07-.526-.349-.287-.536-2.053-.922-2.534-.554-.171.131-.268-.648-.276-2.22-.006-1.364-.148-2.653-.324-2.951-.25-.425-.28-.133-.151 1.479.121 1.518.052 2.335-.285 3.35-.506 1.522-1.108 1.954-1.47 1.053-.205-.507-.24-.448-.255.417-.032 1.91-.635 3.475-2.246 5.823-3.085 4.497-3.792 6.18-2.95 7.022.379.378.417.373.417-.06 0-.623.638-.406.741.252.203 1.288.643 1.716 1.701 1.653l1.022-.06-.165-1.337c-.306-2.484 1.235-9.7 2.2-10.297.138-.085.447.062.687.327.407.45.4.529-.102 1.167-1.013 1.287-1.544 3.63-.823 3.63.097 0 .426-.174.73-.387.52-.363.888-.305.888.14 0 .108-.423.444-.94.75-1.11.655-1.706 1.91-1.706 3.597v1.206l.763-.395c.753-.39.764-.385.928.433.118.593.034.973-.297 1.338-1.029 1.137-2.236 1.37-4.172.803zm9.525.184c-2.172-.228-2.902-.588-3.728-1.837-.887-1.34-.785-2.519.377-4.35.68-1.073.768-1.383.524-1.848-.161-.308-.454-.655-.651-.771-.197-.117-.358-.325-.358-.463 0-.36 1.157-.311 1.534.066.247.247.316.232.312-.066-.013-.824-1.081-2.686-2.273-3.96-.952-1.018-1.176-1.41-.94-1.645.234-.235.591-.17 1.499.27l1.19.578v-1.074c0-1.616.783-1.313 1.312.507.224.773.607 1.518.85 1.653.244.136.52.603.616 1.037.246 1.119.629 1.233.96.285.342-.982.748-1.06.793-.152.019.364.063.78.1.926.036.146.08.382.099.526.018.143.58.398 1.247.566 1.64.413 3.675 2.053 4.083 3.292.539 1.63.203 3.186-.94 4.356-1.012 1.036-2.796 1.946-4.225 2.155-.436.064-1.508.04-2.381-.051zm.661-.627c0-.056-.177-.443-.395-.86-.217-.417-.393-1.115-.39-1.551l.004-.794.427.867c.556 1.127 1.815 2.175 2.614 2.175.718 0 1.207-.724 1.27-1.882.062-1.131.558-1.058.654.097.1 1.204.325 1.237 1.217.178 1.195-1.42 1.228-2.992.097-4.642-.554-.808-1.833-1.395-3.94-1.809-.397-.078-.958-.53-1.322-1.064-1.145-1.681-1.434-1.008-.357.831.448.763.558 1.146.331 1.142-.188-.003-.64-.622-1.003-1.376-.896-1.857-1.255-1.894-1.23-.127.017 1.154-.17 1.793-1 3.405-1.134 2.205-1.168 3.398-.123 4.351.577.527 3.147 1.391 3.147 1.06zm-2.116-11.48c0-.433-.8-1.322-1.308-1.455-.483-.127-.47-.058.155.76.648.85 1.153 1.153 1.153.694zm5.185 1.449c-.576-.193-.939-.846-.948-1.707-.003-.229.491-.33 1.6-.33 1.8 0 1.903-.359.188-.657l-1.13-.197 1.322-.615 1.323-.616-.926-.013c-.517-.007-1.422.271-2.05.63-1.208.69-1.37.612-.7-.343.733-1.048.194-.92-.586.14a58.359 58.359 0 0 0-.794 1.093c-.116.191-1.161-.632-1.161-.913 0-.167.53-.894 1.177-1.614 1.566-1.742 3.648-2.597 5.268-2.164 1.38.37 3.109 2.116 3.55 3.589.442 1.474.41 3.13-.066 3.525-.45.374-5.084.52-6.067.192z" id="path120372" display="inline" fill="#000000" fill-opacity="1" stroke-width=".265"></path></g></g></svg>