<svg width="98" height="66" xmlns="http://www.w3.org/2000/svg" viewBox="0 0 26.029 17.598"><title>totori category ingot</title><g class="nc-icon-wrapper"><g id="layer1" transform="translate(10.649 -112.715)"><path d="M-.501 129.997a666.769 666.769 0 0 0-6.918-2.606c-1.35-.502-2.02-.837-3.22-1.605-.14-.09 1.294-2.81 2.103-3.99.416-.607.87-1.4 1.007-1.763.171-.45.951-1.031 2.449-1.826 1.209-.641 4.011-2.14 6.228-3.33 2.216-1.19 4.141-2.162 4.278-2.162.136 0 1.117.416 2.18.926 1.063.509 2.174.927 2.469.93.698.005 1.01.245 1.371 1.054.162.364 1.138 1.781 2.168 3.15 1.03 1.368 1.823 2.568 1.763 2.666-.061.099-.86.636-1.777 1.195-.916.559-3.893 2.486-6.615 4.283-2.723 1.797-5.283 3.317-5.689 3.379-.406.061-1.215-.074-1.797-.3z" id="path120540-8" display="inline" fill="#000000" fill-opacity="1" stroke-width=".265"></path></g></g></svg>