<svg width="90" height="83" xmlns="http://www.w3.org/2000/svg" viewBox="0 0 23.933 22.023"><title>totori category pie</title><g class="nc-icon-wrapper"><g id="layer1" transform="translate(-157.74 -107.096)"><path d="M161.14 128.98c-.182-.073-.332-.331-.333-.574 0-.242-.193-.798-.427-1.235-.237-.442-.5-1.801-.595-3.071-.158-2.114-.243-2.371-1.17-3.561-.835-1.072-.97-1.415-.822-2.088.26-1.183 1.06-2.231 3.28-4.299 2.133-1.985 2.84-2.459 3.671-2.459.426 0 .566-.235.71-1.193.098-.656.512-1.654.92-2.217.929-1.281 2.065-1.49 4.357-.798.873.263 2.42.606 3.44.762 2.48.38 2.987.632 4.262 2.116.984 1.145 1.104 1.446 1.274 3.167.103 1.046.341 2.34.53 2.876.188.537.425 1.69.526 2.563.1.873.367 2.16.591 2.857.693 2.158.437 2.543-2.553 3.841-2.958 1.284-8.938 2.691-11.472 2.7-.748.003-2.194.18-3.213.396-1.92.407-2.416.443-2.976.218zm4.035-1.294c1.164-.21 2.987-.382 4.052-.382 1.065 0 2.182-.132 2.484-.294.686-.367 5.101-1.558 5.777-1.558.275 0 .628-.239.784-.53.155-.29.461-.529.68-.529.218 0 .72-.202 1.115-.449s.747-.465.783-.484c.036-.02-.1-.62-.304-1.337-.203-.716-.375-1.659-.382-2.095-.007-.437-.257-1.968-.556-3.403-.298-1.435-.543-2.879-.543-3.209 0-.793-.547-1.21-1.805-1.38-.87-.116-1.102-.04-1.466.48-.238.34-.433 1.103-.433 1.697 0 .977-.08 1.107-.86 1.386a3.326 3.326 0 0 1-1.817.089c-.978-.224-2.365.15-2.726.734-.186.3-.654.436-4.651 1.343-1.383.314-2.752.679-3.043.81-.29.133-1.094.398-1.784.59l-1.254.35.66.97c.362.533.658 1.095.658 1.248 0 .453 1.652.32 3.332-.267.86-.3 3.218-.894 5.24-1.32 3.454-.727 4.234-.928 6.489-1.676.95-.315 1.422-.956.704-.956-.29 0-.419-.247-.419-.81 0-.471.11-.74.265-.645.145.09.264.381.264.648 0 .298.178.47.463.447.355-.028.471.18.496.89.076 2.128.465 4.155.953 4.968.419.696.458.944.199 1.256-.178.215-.523.39-.767.39s-.557.103-.695.23c-.516.472-5.055 1.388-6.48 1.307-1.395-.08-1.3-.118 2.753-1.133 4.114-1.03 5.025-1.489 4.045-2.038-.24-.134-.437-.52-.437-.858v-.613l-2.58.475c-1.419.26-4.187.89-6.152 1.4-1.964.51-4.082 1.006-4.705 1.103-1.823.284-2.652.805-2.505 1.575.229 1.195.62 1.248 2.936.403 1.899-.693 2.328-.76 3.548-.557.763.127 1.12.245.791.262-.967.05-5.683 1.367-6.408 1.789-.76.442-1.094.474 3.3-.317zm-1.323-3.85c.727-.163 1.566-.448 1.864-.634.297-.185 1.66-.53 3.026-.764 1.367-.235 3.773-.735 5.346-1.111 2.402-.574 2.86-.765 2.86-1.19 0-.278-.1-.506-.222-.506-.451 0-5.596 1.122-9.964 2.174-2.474.596-4.944 1.067-5.49 1.048-.87-.03-.992.04-.992.576 0 .336.072.684.16.772.192.192 1.592.042 3.412-.365zm-3.034-5.532c.744-.293 2.748-.878 4.454-1.3 1.706-.422 3.536-1.023 4.068-1.337.53-.313 1.63-.638 2.443-.722 1.735-.179 2.048-.5 1.178-1.204-.514-.416-.874-.48-1.913-.342-1.224.162-1.277.143-1.196-.437.072-.51-.058-.628-.813-.74-1.151-.169-1.562-.78-1.144-1.699.171-.375.498-.682.726-.682.33 0 .379.188.24.926l-.173.926h1.072c.59 0 1.147-.12 1.238-.269.092-.148.28-.199.417-.114a.294.294 0 0 1 .097.403c-.084.137.048.326.294.42.297.114.608-.04.925-.46.578-.766.978-.496.575.387-.246.54-.193.725.362 1.245.357.337.619.796.58 1.021-.038.226.048.47.191.542.148.075.328-.5.415-1.323.085-.8.243-1.655.352-1.9.19-.425 1.743-1.156 1.743-.82 0 .09.069.094.153.01.262-.263-.413-1.258-.852-1.258-.619 0-4.04-.79-5.263-1.217-1.78-.619-2.706-.488-3.722.529-.787.787-.9 1.068-.9 2.244 0 1.454.16 1.312-1.975 1.754-.358.074-.93.401-1.268.727-.339.326-1.206 1.14-1.928 1.81-3.512 3.262-3.63 4.163-.376 2.88zm6.341-4.984c0-.109.143-.34.318-.515.366-.367 1.64-.438 1.418-.08-.197.32-1.736.846-1.736.595z" id="path120204-1" display="inline" fill="#000000" fill-opacity="1" stroke-width=".265"></path></g></g></svg>