<svg width="96" height="85" xmlns="http://www.w3.org/2000/svg" viewBox="0 0 25.532 22.728"><title>totori category jewel</title><g class="nc-icon-wrapper"><g id="layer1" transform="translate(-48.36 -57.35)"><path d="M59.976 79.51c-.306-.312-1.602-1.58-2.88-2.817-1.28-1.236-3.21-3.29-4.292-4.564l-1.966-2.315.604-.86c1.836-2.614 4.339-5.491 4.668-5.365.2.077 2.904.14 6.01.14h5.645l.611.992c.337.546 1.418 1.863 2.403 2.926 1.639 1.77 2.172 2.696 1.55 2.696-.131 0-.763.506-1.402 1.125-2.21 2.138-5.916 5.626-6.963 6.553-2.609 2.31-3.03 2.467-3.988 1.489zm1.823-3.28c.219-.545.95-1.885 1.624-2.976l1.225-1.984-.735-.147c-.405-.081-1.769-.081-3.032 0l-2.296.147 1.166 2.645c.64 1.456 1.168 2.795 1.171 2.977.013.664.488.305.877-.662zm-2.842-1.058a50.491 50.491 0 0 0-1.15-3.008c-.527-1.206-.557-1.227-2.263-1.548-.951-.18-1.862-.282-2.025-.228-.241.08 5.649 6.57 5.962 6.57.051 0-.185-.804-.524-1.786zm8.036-1.45c1.372-1.203 2.542-2.337 2.602-2.519.08-.244-.405-.33-1.87-.33-1.635 0-2.01.08-2.165.463a72.188 72.188 0 0 0-.664 1.786c-.262.727-.67 1.776-.909 2.33-.411.957-.409.993.04.732.26-.151 1.595-1.259 2.966-2.462zm-5.224-3.908h2.384l-1.312-1.642c-.722-.903-1.418-1.673-1.547-1.711-.208-.062-2.462 2.792-2.717 3.442-.057.147.096.184.353.086.25-.096 1.527-.175 2.839-.175zm6.88-.352c.828-.174 1.57-.383 1.649-.462.08-.08-.386-.666-1.035-1.302-.649-.637-1.22-1.106-1.271-1.042-.05.063-.47.8-.934 1.637-.956 1.726-.974 1.712 1.592 1.17zm-12.651-.904a23.14 23.14 0 0 0-.477-1.602l-.298-.874-.977 1.402c-1.094 1.57-1.002 1.746.933 1.783.957.017.99-.01.819-.71zm3.184-1.638c.67-.792 1.217-1.536 1.217-1.654 0-.118-.893-.214-1.984-.214-1.532 0-1.984.085-1.984.373 0 .684 1.137 3.358 1.337 3.144.108-.115.745-.858 1.414-1.65zm6.805.107c.77-1.742.544-1.975-1.912-1.975-1.438 0-2.088.098-2.088.315 0 .448 2.96 3.125 3.255 2.943.134-.083.47-.66.745-1.283zM50.3 77.752c.092-.963.045-1.059-.522-1.063-.486-.003-.538-.058-.236-.249.31-.196.23-.312-.396-.576l-.785-.33.727-.1c.401-.054.728-.265.728-.47 0-.212.161-.309.378-.226.28.108.424-.17.559-1.066.25-1.67.752-1.57.59.117-.12 1.253-.096 1.318.427 1.152.48-.152.509-.12.213.237-.29.348-.258.44.2.585.705.224.702.666-.005.666-.729 0-1.275.583-1.473 1.572-.234 1.172-.524.994-.405-.25zm20.05-13.119c-.089-.23-.161-.706-.161-1.058 0-.386-.154-.64-.389-.64-.221 0-.328-.157-.248-.364.096-.251-.151-.42-.793-.54-1.282-.24-1.418-.621-.297-.832 1.06-.199 1.104-.282.494-.957-.598-.66-.283-.885.511-.365l.647.424.354-1.66c.296-1.383.385-1.549.54-.998.103.364.198 1.123.213 1.687.023.879.082.977.423.695.336-.279.397-.223.397.364 0 .508.136.694.508.694.68 0 1.344.27 1.344.546 0 .123-.426.304-.946.401-.674.127-.864.26-.661.462.485.485.314.706-.35.453-.59-.224-.655-.16-.93.933-.322 1.28-.414 1.386-.656.755z" id="path120419-5" display="inline" fill="#000000" fill-opacity="1" stroke-width=".265"></path></g></g></svg>