<?xml version="1.0" encoding="UTF-8"?>
<svg width="17.969mm" height="18.064mm" version="1.1" viewBox="0 0 17.969 18.064" xml:space="preserve" xmlns="http://www.w3.org/2000/svg"><g transform="translate(-22.551 -129.52)"><path d="m38.703 147.47c-0.78406-0.20238-0.77448-0.24009-0.64992-1.2899 0.04114-0.34673-0.91015-1.9176-2.1558-4.0182l-2.2648-3.8193 0.96058-1.1069c0.16278-0.12906 0.17819-0.12441 2.6054 4.1054l2.3438 4.0844 0.50048 0.15885c0.57095 0.18121 0.60246 0.34969 0.24245 1.2966l-0.25804 0.67869c-0.48951 0.0357-0.85761 0.0339-1.3243-0.0896zm-11.74-4.856c-2.6479-2.5759-4.3919-5.8654-4.4062-8.3109l-0.0056-0.95332 2.4474-0.14836c1.3461-0.0816 3.9561-0.41307 5.8-0.73662 3.8776-0.68037 3.8222-0.72383 3.899-0.64127l1.4315 2.7035-2.7028 3.2751c-1.4866 1.8013-3.1426 3.9531-3.6801 4.7817-1.19 1.8346-0.93106 1.8318-2.7831 0.0301zm2.6467-1.537-1.2529-1.1354c-1.2606-1.1424-2.4171-3.5865-2.7298-4.8836l-0.21945-1.0138c-1.4452 0.18176-1.3679 0.13211-2.1046 0.13211 0 0 0.01141 4.4858 5.0932 8.7382 0.47676-0.48171 0.9051-1.2409 1.2136-1.8375zm-0.05611-9.9417s-0.40601-0.71825-0.37621-1.1115c0.01005-0.13255 0.28861-0.22485 0.43502-0.3175 0.66277-0.41938 0.76347-0.1658 1.3904 0.94963l0.75466 1.3413c-0.64831 0.11827-0.99704 0.16707-1.6625 0.37055z"/></g></svg>
