<?xml version="1.0" encoding="UTF-8"?>
<svg width="18.467mm" height="18.224mm" version="1.1" viewBox="0 0 18.467 18.224" xml:space="preserve" xmlns="http://www.w3.org/2000/svg"><g transform="translate(-61.78 -102.6)"><path d="m78.461 119.99c0.03997-0.37032-1.6085-1.5429-3.09-2.9405-2.2015-2.0768-2.6618-2.6411-2.5198-3.0887 0.09561-0.30125 0.29404-0.54773 0.44095-0.54773 0.14691 0 1.5712 1.2204 3.1651 2.712 1.5939 1.4916 2.9319 2.9853 3.1541 3.034 0.4948-0.1328 0.68135 0.15364 0.62481 0.73653-0.06718 0.69258-0.16315 0.84107-0.76468 0.91029-0.56485 0.065-1.104 0.0493-1.0106-0.81587zm-15.919-4.0073c-1.0515-1.0515-0.80827-1.571-0.48433-1.9183 0.31733-0.34021 0.75967-0.41476 1.6536-0.32938l1.2088 0.11544 0.0196-0.87401c0.02222-0.99121 0.74808-1.9446 1.4805-1.9446 0.80668 0 1.3394 1.5312 1.4356 2.8022 0.12081 1.5962-0.72516 1.344-0.50759 1.4263 0.47817 0.18091 0.8723 0.43495 0.77797 0.68075-0.12809 0.3338-0.36718 0.40779-0.94456 0.29231-0.68937-0.13787-0.78202-0.0772-0.85582 0.56079-0.09993 0.86385-0.90277 1.2406-0.96916 0.45417-0.02851-0.33776-0.0094-0.25393-0.08855-0.75454-0.44659 0.82358-1.8978 0.30997-2.7261-0.51117zm7.1439-1.2169c-0.43478-0.0914-0.82576-0.3491-0.86883-0.57274-0.06268-0.32547 0.18509-0.35755 1.2885-0.16128 0 0 0.89921 0.0475 1.2267-0.28403 0.09733-0.0985 0.50348-1.7112-0.64137-3.3173-2.2053-3.0937-6.3057-3.9289-5.4399-1.1081 0.18479 0.60209 0.19098 0.9708 0.0181 1.0776-0.4218 0.26069-0.77688-0.28241-0.92974-1.422-0.41579-3.0999 3.6765-2.8893 6.5008 0.33463 2.6131 2.9828 1.9519 6.1059-1.1543 5.4532zm3.3595-2.1808c-0.01875-0.15 0.68805-1.1115 1.2733-1.8784 0.58528-0.76694 1.2475-2.0158 1.4716-2.7752 0.37294-1.2639 0.36996-1.4597-0.03519-2.3135-0.71669-1.5103-2.0626-2.5235-3.3522-2.5235-1.279 0-3.0517 0.80078-4.5995 2.0319-1.9556 1.5555-2.2661 1.1733-0.67339-0.18437 1.8938-1.6143 3.7257-2.4656 5.4766-2.3204 1.2633 0.10476 1.6063 0.26153 2.5163 1.1502 1.3179 1.2869 1.6993 2.5489 1.277 4.2258-0.1967 0.78118-1.5996 2.8341-2.3367 3.8602-0.73715 1.0261-1.0178 0.72727-1.0178 0.72727z"/><path d="m66.253 106.12s1.5498 0.25142 1.851 0.37871c0.90711 0.38337 1.7656 0.92233 2.4912 1.5882 0.61648 0.56568 1.0957 1.2754 1.5259 1.993 0.32244 0.53788 0.77851 1.7127 0.77851 1.7127l0.20319 0.77883 1.9766-2.6784 1.0899-2.3044 0.09342-1.5259-2.0241-2.8338-2.1175-0.40482-2.0241 0.56053-2.4601 1.4324z" style="fill-opacity:.66667;fill:#2a2b2d;stroke-width:.26458"/></g></svg>
