<?xml version="1.0" encoding="UTF-8"?>
<svg width="40.982mm" height="45.934mm" version="1.1" viewBox="0 0 40.982 45.934" xml:space="preserve" xmlns="http://www.w3.org/2000/svg"><g transform="translate(-22.884 -46.361)"><path d="m41.006 91.728c-2.282-0.74271-5.227-2.208-7.2243-3.5945-3.5125-2.4383-5.9062-5.2589-7.757-9.1405-2.244-4.706-3.1385-9.3046-3.1411-16.147-0.0014-3.725 0.30682-7.9307 0.66839-9.1212 0.07625-0.25107 3.733-1.6768 9.9535-3.8809l9.833-3.484 9.871 3.484c9.0832 3.206 9.8821 3.5368 10.01 4.1455 0.73448 3.4866 0.86526 10.675 0.276 15.17-0.95334 7.2725-3.3465 12.424-7.7098 16.597-2.8825 2.7564-5.9528 4.5808-9.9894 5.9358-2.3739 0.7969-2.4511 0.79748-4.7907 0.0361zm5.4175-3.7813c5.1716-1.9334 9.473-5.719 11.627-10.233 1.044-2.1875 2.0473-5.7327 2.4248-8.568 0.32654-2.4527 0.18347-10.837-0.21296-12.48l-0.21622-0.89617-8.0651-2.8793c-4.4358-1.5836-8.2436-2.8982-8.4619-2.9214-0.21828-0.02312-4.0716 1.2591-8.5628 2.8495-6.8363 2.4207-8.2033 2.989-8.3952 3.4901-0.12611 0.32924-0.35724 2.201-0.51363 4.1595-0.48407 6.0622 0.45001 12.61 2.3905 16.756 2.4739 5.2865 6.923 9.1228 12.832 11.065 2.0482 0.67305 2.5219 0.64161 5.1529-0.34199zm-5.6004-3.8955c-5.0222-2.1927-8.0776-5.4629-9.7223-10.406-0.98909-2.9726-1.3397-5.5853-1.3397-9.9842 0-5.495-0.77662-4.6582 6.9395-7.4771l6.6326-2.4231 6.6416 2.4113c3.6529 1.3262 6.6682 2.4264 6.7008 2.4447 0.0326 0.01836 0.13817 1.5149 0.23465 3.3255 0.29273 5.494-0.54734 10.569-2.3621 14.27-1.0236 2.0876-3.5702 4.8547-5.8102 6.3133-1.5308 0.99686-4.8119 2.4245-5.5552 2.4171-0.17858-0.0018-1.2404-0.40304-2.3596-0.89169z"/></g></svg>
