<?xml version="1.0" encoding="UTF-8"?>
<svg width="40.447mm" height="40.962mm" version="1.1" viewBox="0 0 40.447 40.962" xml:space="preserve" xmlns="http://www.w3.org/2000/svg"><g transform="translate(-14.787 -168.58)"><path d="m31.034 209.18c-7.0999-1.4234-13.222-6.908-15.509-13.893-0.672-2.0529-0.73632-2.5949-0.73792-6.2177-0.0017-3.7668 0.04155-4.0985 0.84952-6.5192 2.2998-6.89 8.4162-12.236 15.563-13.604 6.5073-1.245 12.809 0.63241 17.762 5.2913 2.5447 2.3939 4.274 5.0584 5.3801 8.2894 0.83641 2.4432 0.88158 2.768 0.8913 6.4101 0.0088 3.3011-0.07626 4.1134-0.60968 5.8208-2.3252 7.443-8.2375 12.862-15.707 14.398-2.4079 0.49488-5.4888 0.5045-7.8825 0.0246zm-9.8673-18.192c0.29901-0.32742 1.1786-1.7639 1.9547-3.1922 2.5803-4.7485 4.9589-7.0961 9.611-9.4857 2.9351-1.5077 3.8579-2.2755 3.8579-3.2102 0-1.3382-1.6443-2.0879-4.5503-2.0746-2.3643 0.0108-4.9996 0.81156-7.0941 2.1556-2.9845 1.9151-6.1474 6.1942-6.8583 9.2787-0.58183 2.5243-0.22125 5.5258 0.81363 6.7727 0.45433 0.54744 1.6613 0.41729 2.2654-0.24429zm25.198-6.4421c0.01514-0.28094 0.41522-0.48322 3.3891-1.7135 0.76398-0.31605 1.3891-0.65402 1.3891-0.75103 0-0.097-1.0472-0.6198-2.3271-1.1618l-2.3271-0.98539-0.91404-2.1573c-0.50272-1.1865-1.0444-2.2006-1.2037-2.2536-0.1593-0.053-0.67812 0.90853-1.1529 2.1367l-0.86329 2.233-2.3615 0.99029c-1.2988 0.54466-2.3231 1.1056-2.2761 1.2465 0.04697 0.1409 1.0927 0.6597 2.3238 1.1529 2.1623 0.86621 2.2557 0.93936 2.7472 2.1513 0.2798 0.69002 0.74188 1.7904 1.0268 2.4452l0.51811 1.1906 1.008-2.1167c0.55441-1.1642 1.0151-2.2474 1.0237-2.4072z"/></g></svg>
