<?xml version="1.0" encoding="UTF-8"?>
<svg width="22.92mm" height="51.197mm" version="1.1" viewBox="0 0 22.92 51.197" xml:space="preserve" xmlns="http://www.w3.org/2000/svg"><g transform="translate(-41.452 -23.086)"><path d="m50.839 72.099c-0.93854-1.2006-1.7997-2.3359-1.9136-2.523-0.12626-0.20733 0.11125-0.83648 0.60805-1.6107 0.76616-1.194 0.81524-1.4238 0.81524-3.8176 0-2.2476-0.0602-2.5794-0.51177-2.8211-0.65574-0.35094-4.4318-0.35851-4.6476-9e-3 -0.08994 0.14552-0.4992 0.26458-0.90948 0.26458-0.59151 0-0.97787-0.30059-1.866-1.4518-1.3431-1.7409-1.296-2.3743 0.24122-3.2446 0.88751-0.50242 1.446-0.59531 3.5789-0.59531 2.1407 0 2.5273-0.0648 2.5273-0.42351 0-0.57489-2.2838-16.386-2.7436-18.995-0.43098-2.445-0.31038-3.064 1.1709-6.0108 1.0683-2.1252 3.5972-5.6491 5.0108-6.9825l0.84155-0.79375 1.1675 1.3229c2.9956 3.3944 5.7176 8.2676 5.7611 10.314 0.01243 0.58446-0.59865 5.3489-1.358 10.588s-1.4202 9.8524-1.4686 10.253l-0.088 0.72761h2.5603c2.4261 0 2.6179 0.0417 3.6583 0.79541 0.62466 0.4525 1.098 1.0126 1.098 1.2992 0 0.27707-0.47902 1.1098-1.0645 1.8504-0.84441 1.0682-1.2241 1.3467-1.8365 1.3467-0.42459 0-0.84557-0.11906-0.9355-0.26458-0.24725-0.40006-4.1461-0.31394-4.6964 0.10373-0.38146 0.28957-0.46302 0.77673-0.46302 2.7657 0 2.2366 0.06035 2.5123 0.8199 3.7468 0.45095 0.73288 0.76346 1.4788 0.69448 1.6576-0.26987 0.6995-3.672 4.6907-3.9984 4.6907-0.19046 0-1.1142-0.98226-2.0527-2.1828zm2.1447-31.221-0.01075-15.412-0.8057 0.92604c-2.0465 2.3522-4.729 7.0919-4.729 8.3557 0 0.31101 0.40634 3.1719 0.90298 6.3575 0.49664 3.1856 1.1786 7.9054 1.5155 10.488l0.61255 4.6964h2.5252z"/></g></svg>
