<?xml version="1.0" encoding="UTF-8"?>
<svg width="45.98mm" height="52.293mm" version="1.1" viewBox="0 0 45.98 52.293" xml:space="preserve" xmlns="http://www.w3.org/2000/svg"><g transform="translate(-14.166 -3.6672)"><path d="m53.059 55.453c0-0.27892 0.14883-0.55903 0.33073-0.62249 0.54335-0.18953 0.99219 0.0949 0.99219 0.62875 0 0.35786-0.18885 0.50086-0.66146 0.50086-0.47548 0-0.66146-0.14259-0.66146-0.50712zm-6.597-1.5767c-0.41497-0.77538-0.35301-1.0326 0.36155-1.5008 0.95461-0.62549 1.797-0.11486 1.6868 1.0225-0.07096 0.73247-0.19144 0.85296-0.92392 0.92391-0.62368 0.0604-0.91556-0.0553-1.1245-0.44562zm7.8065-2.3007c-0.53353-0.53353-0.52328-0.71575 0.08231-1.4636 0.4396-0.54289 0.5794-0.57806 1.1906-0.29956 0.4575 0.20845 0.69254 0.524 0.69254 0.92975 0 1.1683-1.1451 1.6538-1.9655 0.83344zm-3.3262-0.37797c0-0.39851 0.13815-0.54137 0.46302-0.4788 0.25466 0.049 0.46302 0.2645 0.46302 0.4788 0 0.21429-0.20836 0.42975-0.46302 0.47879-0.32487 0.0626-0.46302-0.0803-0.46302-0.47879zm7.7686-0.39688c-0.2096-0.54621 0.07459-1.1906 0.52508-1.1906 0.52966 0 1.0541 0.71371 0.87236 1.1872-0.19836 0.51691-1.1994 0.51933-1.3974 3e-3zm-7.1461-2.652c-0.42799-1.1153 0.95707-2.0124 1.6481-1.0674 0.1737 0.23755 0.4185 0.41335 0.54399 0.39067 0.59442-0.10745 0.88963 0.0637 0.88963 0.51578 0 0.42194-0.21564 0.49631-1.4718 0.50759-1.0066 9e-3 -1.5154-0.1005-1.6099-0.34661zm-26.202-0.72545c-0.44271-0.47076-1.0163-1.2267-1.2745-1.68-0.25829-0.45322-0.7955-1.0165-1.1938-1.2518-0.72201-0.4265-0.72828-0.42347-2.0808 1.0066-0.74614 0.78893-1.3668 1.5904-1.3794 1.781-0.01251 0.19062-0.1286-8e-3 -0.25798-0.44189-0.38004-1.2738 0.1891-4.4106 1.1531-6.3553 1.1175-2.2543 3.7308-5.0592 6.8005-7.2992 1.3079-0.9544 3.1206-1.7797 4.7494-2.1624 1.2525-0.29427 1.5906-0.54392 3.2844-2.4248 2.1463-2.3835 6.4176-6.0494 6.8751-5.9009 0.16755 0.05442 0.59118 0.61385 0.9414 1.2432l0.63676 1.1442-0.76905 0.52344c-0.42298 0.28789-2.3207 2.0983-4.2171 4.0232-3.1867 3.2344-3.5394 3.5134-4.6525 3.6803-2.9401 0.44089-6.645 3.6473-7.6282 6.6019-0.64007 1.9234-0.77992 5.6662-0.2695 7.2127 0.16959 0.51385 0.25857 0.98405 0.19774 1.0449-0.06083 0.0608-0.47282-0.27457-0.91554-0.74533zm22.14-0.72364c-0.42832-0.80033 0.09857-1.5875 1.0626-1.5875 0.61177 0 0.81529 0.143 0.94628 0.6649 0.09571 0.38135 0.02763 0.83268-0.15965 1.0583-0.46864 0.56468-1.5155 0.48784-1.8492-0.13573zm2.7347-2.7959c-0.08752-0.22806-0.03225-0.54153 0.12281-0.69659 0.41155-0.41155 1.1112-0.05026 1.1112 0.57378 0 0.65252-0.99288 0.75133-1.2341 0.12281zm-0.78099-2.8772c-0.28699-0.74788 0.02452-1.3371 0.75132-1.4212 0.57668-0.0667 0.74852 0.04628 0.88254 0.58027 0.09154 0.36471 0.08866 0.78893-0.0064 0.94273-0.25602 0.41425-1.4583 0.33905-1.6275-0.1018zm-5.4195-2.1526-1.4599-1.4599-1.258 0.33646c-1.1326 0.30292-1.3549 0.28439-2.2305-0.18589-1.3094-0.70327-1.734-1.6551-1.4994-3.3611 0.17204-1.2509 0.3627-1.5329 2.6007-3.8463 2.7662-2.8594 3.3606-3.2349 5.1859-3.276 2.3844-0.05372 3.5629 1.4184 2.9551 3.6912l-0.32204 1.2041 2.9068 2.949-5.4189 5.4082zm3.5253-1.8907c0.98592-0.97836 1.7926-1.9075 1.7926-2.0648 0-0.15726-0.43193-0.69623-0.95985-1.1977-0.73929-0.70228-0.99095-0.8206-1.0952-0.51492-0.07443 0.21828-0.80336 1.0649-1.6198 1.8814s-1.6631 1.5454-1.8814 1.6198c-0.30568 0.10424-0.18735 0.3559 0.51492 1.0952 0.50149 0.52792 1.0343 0.95985 1.184 0.95985 0.1497 0 1.0788-0.80048 2.0648-1.7788zm-24.401-8.3335c-5.7064-2.0017-8.9958-6.4308-8.9958-12.113 0-8.1096 7.4154-14.239 15.25-12.605 5.735 1.1958 9.642 5.4845 10.309 11.317 0.19662 1.7181-0.24578 4.6458-0.93436 6.1833-0.26352 0.58842-1.6687 2.2554-3.1648 3.7543-3.2796 3.2858-4.381 3.8168-8.2312 3.9681-2.1057 0.08274-2.7926 8.77e-4 -4.2333-0.5045zm14.841-8.9933c0.74802-1.4542 0.67478-3.5426-0.17775-5.0679-1.2202-2.1833-1.6535-2.0152-1.0261 0.39793 0.53262 2.0485 0.40888 3.9226-0.36333 5.5029-0.31557 0.6458-0.57376 1.2932-0.57376 1.4386 0 0.46323 1.6164-1.2517 2.1409-2.2715zm-18.478 0.65092c-0.54361-1.2395-0.58954-4.8959-0.08725-6.9453 0.49368-2.0143 1.1567-3.2357 2.5402-4.6796 0.65131-0.67974 1.1842-1.2741 1.1842-1.3208 0-0.04673-0.31131-0.08496-0.6918-0.08496-1.7651 0-4.4564 2.3686-5.4114 4.7625-0.60813 1.5245-0.48644 4.916 0.23259 6.4823 0.65256 1.4215 1.7926 2.7781 2.3347 2.7781 0.25077 0 0.22556-0.24696-0.10127-0.99219z"/></g></svg>
