<?xml version="1.0" encoding="UTF-8"?>
<svg width="41.01mm" height="44.713mm" version="1.1" viewBox="0 0 41.01 44.713" xml:space="preserve" xmlns="http://www.w3.org/2000/svg"><g transform="translate(-7.9862 -58.739)"><path d="m7.9862 91.159v-12.293l2.5797-1.96c1.4188-1.078 2.9679-2.4833 3.4424-3.1228 0.47448-0.6395 1.0911-1.3054 1.3703-1.4797 0.49437-0.30874 0.48548-0.40051-0.3411-3.5186-0.78608-2.9653-0.90902-3.2308-1.6659-3.5974-1.4597-0.70694-1.8845-2.7263-0.82135-3.9043 0.45716-0.50658 1.4188-0.87508 4.1438-1.588 3.2319-0.84547 3.6254-0.89616 4.4105-0.56812 0.47411 0.19809 0.99066 0.60055 1.1479 0.89434 0.40829 0.76291 0.35298 2.2075-0.10983 2.8683-0.35899 0.51252-0.31686 0.86159 0.45406 3.7618 0.84754 3.1884 0.85208 3.1973 1.7299 3.3619 1.0214 0.19161 7.378 0.0198 7.6033-0.20552 0.08353-0.0835 0.51435-1.5048 0.95737-3.1583 0.75485-2.8174 0.77922-3.0509 0.38767-3.7137-0.6826-1.1556-0.54003-2.5286 0.35557-3.4242 0.42537-0.42537 1.0504-0.7727 1.3891-0.77184 0.66487 2e-3 5.994 1.3953 7.1298 1.8645 1.4268 0.58941 1.736 2.7568 0.56094 3.9319-0.40158 0.40158-0.87762 0.77937-1.0579 0.83954-0.18025 0.0602-0.61433 1.1512-0.96462 2.4245l-0.6369 2.3151h8.9458l-0.02696 24.739-11.334 8.599h-29.649zm22.748-12.644c-0.01304-0.74226-1.0814-2.6228-2.1464-3.7782-1.3166-1.4284-3.1039-2.41-5.1285-2.8166-1.3939-0.27994-1.4412-0.31906-1.8231-1.5096-0.21564-0.67222-0.52668-1.758-0.69121-2.4128-0.16453-0.65485-0.47227-1.7987-0.68387-2.542l-0.38472-1.3514-1.7498 0.48521c-0.9624 0.26686-1.8066 0.54194-1.8759 0.61129-0.10337 0.10337 1.3172 5.8426 1.7207 6.952 0.06377 0.1753-0.55968 0.98898-1.3854 1.8082-1.3449 1.3342-2.7699 3.6711-2.7768 4.5538-2e-3 0.25775 1.8658 0.33073 8.4641 0.33073 6.6 0 8.4654-0.0729 8.4609-0.33073zm8.3689-0.91092c0.93008-0.68291 1.691-1.3336 1.691-1.446 0-0.25931-1.4744-1.9619-2.5135-2.9026l-0.79375-0.71856 0.89676-3.5263c0.49322-1.9395 0.88672-3.6395 0.87445-3.7779-0.02043-0.23038-3.4687-1.3182-3.6335-1.1462-0.03948 0.0412-0.49612 1.6729-1.0148 3.6261-0.91979 3.4638-1.182 3.9771-2.0359 3.9854-0.22825 2e-3 -1.0353 0.18826-1.7934 0.4134l-1.3784 0.40935 0.90163 1.112c0.98604 1.2161 1.7752 2.6814 2.2731 4.2208l0.32091 0.99219h4.5144z"/></g></svg>
