<?xml version="1.0" encoding="UTF-8"?>
<svg width="13.022mm" height="9.7951mm" version="1.1" viewBox="0 0 13.022 9.7951" xml:space="preserve" xmlns="http://www.w3.org/2000/svg"><g transform="translate(-109.12 -134.98)"><path d="m109.81 144.56c-0.0706-0.1142-0.21205-0.94764-0.31438-1.8521l-0.18604-1.6444h0.79595c0.30164 2.5238 0.18418 0.95674 0.33073 3.175h0.74421l-0.0918-0.46302c-0.0505-0.25467-0.14705-0.96904-0.21464-1.5875l-0.12287-1.1245h2.182l2.7948 2.76 1.3974-1.38 1.3974-1.38h2.0361l-0.1796 1.5875-0.17961 1.5875h0.26573c0.14616 0 0.33752-0.44649 0.42526-0.99219 0.0877-0.5457 0.21446-1.2601 0.28161-1.5875l0.12209-0.59531h0.84104l-0.14199 0.59531c-0.0781 0.32742-0.22358 1.1609-0.32331 1.8521l-0.18132 1.2568h-5.7752c-3.1764 0-5.8329-0.0934-5.9035-0.20763zm4.3283-4.1892 1.5861-1.5196c0.77162 0.79764 0.78154 0.8075 1.4806 1.5508-1.4313 1.4263 0.0444-0.0366-1.4942 1.4827-1.1325-1.0507-0.5008-0.47522-1.5725-1.514zm-5.0249-0.98506c0-1.6085 1.6538-4.4077 2.604-4.4077h0.38838l-0.42333 0.46778c-0.63793 0.7049-1.4984 2.7444-1.505 3.5671l-6e-3 0.7276h-0.52917c-0.29104 0-0.52917-0.15967-0.52917-0.35482zm1.6887 0.32341c-0.13317-0.6066 0.5767-3.0567 1.5634-4.1358l0.54434-0.59531h5.6364l0.54992 0.59531c0.71175 0.77049 1.3944 2.4378 1.3944 3.4058v0.76144h-1.9677l-1.3974-1.38-1.3974-1.38-2.7948 2.76h-0.93977c-0.51687 0-0.81518-8e-3 -1.1914-0.0314zm10.237-1.4404c-0.50031-1.568-0.47143-1.5418-1.1278-2.3812-0.7447-0.95237-0.65329-1.1628 0.35401-0.62377 0.64872 0.34719 1.8066 2.7454 1.8102 3.7493l3e-3 0.7276h-0.70954z"/></g></svg>
