<?xml version="1.0" encoding="UTF-8"?>
<svg width="21.476mm" height="15.454mm" version="1.1" viewBox="0 0 21.476 15.454" xml:space="preserve" xmlns="http://www.w3.org/2000/svg"><g transform="translate(-45.345 -15.847)"><path d="m46.166 27.461v-3.5278h2.1167v3.4396h1.0583c0.99954 0 1.0583 0.0441 1.0583 0.79375v0.79375h12.171v-0.79375c0-0.67028 0.10289-0.79375 0.66146-0.79375 0.63771 0 0.66146-0.06174 0.66146-1.7198v-1.7198h2.1316l-0.07361 3.638-0.01078 3.7237c-6.5952-0.0012-13.17 0.01514-19.76 0.0011-0.0084-2.8708-0.01462-1.4231-0.01462-3.835zm8.7312-2.8164-1.4552-0.87392-0.01838-2.9891 3.0479-0.02339h3.1882v2.8721l-1.556 0.9452c-0.85578 0.51986-1.5999 0.94471-1.6536 0.9441-0.05373-6.01e-4 -0.75252-0.39436-1.5529-0.87501zm-9.5251-8.7968 10.716 0.01557 10.731 0.0078c-0.0066 4.3387 0.0057 1.0224 6.63e-4 6.4745h-5.308v-3.6412c-3.396-0.03138-6.9313-2e-3 -10.327 0.04592l-0.01614 3.5953h-5.8129c-0.02237-2.7579-0.0074-1.6298 0.01622-6.4979z"/></g></svg>
