<?xml version="1.0" encoding="UTF-8"?>
<svg width="10.362mm" height="13.463mm" version="1.1" viewBox="0 0 10.362 13.463" xml:space="preserve" xmlns="http://www.w3.org/2000/svg"><g transform="translate(-83.531 -105.66)"><path d="m86.158 118.83c-1.1635-0.40562-2.1304-1.4174-2.4848-2.6004-0.39192-1.3081-0.0218-2.1148 1.7293-3.7694 1.2056-1.1391 1.2352-1.2061 1.3946-3.1552 0.0941-1.1502 0.3288-2.1915 0.55562-2.465 0.33496-0.40387 1.806-1.1853 2.2313-1.1853 0.0746 0 0.062 0.53822-0.0282 1.196-0.16347 1.1926-0.1593 1.2004 1.4603 2.7178 1.4649 1.3725 1.6242 1.6255 1.6242 2.5801 0 0.79173-0.20533 1.3075-0.815 2.0471-0.44824 0.5438-0.76822 1.129-0.71106 1.3005 0.14226 0.42678 2.3178-1.7854 2.3279-2.3671 7e-3 -0.42795 0.0294-0.4263 0.28993 0.0218 0.15504 0.26666 0.20782 0.87966 0.1173 1.3622-0.323 1.7217-1.9287 3.0477-3.6905 3.0477-0.50616 0-1.0989 0.17859-1.3172 0.39687-0.60127 0.60128-0.69926 0.4973-0.69926-0.74204 0-0.93991 0.16725-1.3213 0.95714-2.1828 1.1708-1.277 1.4856-2.0385 1.1688-2.8272-0.23723-0.5904-0.24047-0.58934-0.25703 0.084-0.0137 0.55782-0.26825 0.79858-1.3986 1.3229-2.5597 1.1874-3.3261 3.5486-1.6032 4.9392 0.79317 0.64014 0.48018 0.74238-0.8515 0.27815z"/></g></svg>
