<?xml version="1.0" encoding="UTF-8"?>
<svg width="12.048mm" height="13.913mm" version="1.1" viewBox="0 0 12.048 13.913" xml:space="preserve" xmlns="http://www.w3.org/2000/svg"><g transform="translate(-42.483 -5.9179)"><path d="m47.58 18.83c-0.82475-1.0006-0.82484-1.001-0.3276-1.6916 0.72518-1.0072 0.95431-2.1389 0.43186-2.146-0.57716-0.0078-0.53836-0.20836-0.6923-0.46302-0.25236-0.41748-0.35775-0.37292-1.0715 0.45303-0.43538 0.50383-0.79159 1.1369-0.79159 1.4069 0 0.34075-0.14159 0.45098-0.46302 0.36048-0.25466-0.0717-0.84997-0.20825-1.3229-0.30344-0.47294-0.09519-0.8599-0.20193-0.8599-0.2372 0-0.03528 0.18927-0.6196 0.42059-1.2985 0.36416-1.0688 0.48583-1.1995 0.90688-0.97412 0.26745 0.14314 0.64373 0.21109 0.83618 0.15101 0.19244-0.06009 0.64826-0.17072 1.0114-0.25292 1.4169-0.32079 0.66897-0.30452 0.68035-1.0575 0.0025-0.16435 1.0051-0.73434-1.0785-1.0784-0.60219-0.09943-1.283-0.09338-1.5097-0.0064-0.30808 0.11822-0.84764-1.2952-1.1583-2.2068-0.05998-0.13918-0.15617-0.15496 1.5448-0.43766 0.7814-0.12986 0.99219-0.07999 0.99219 0.23476 0 0.21981 0.37728 0.82935 0.83839 1.3545 0.70148 0.79894 0.89925 0.89867 1.0715 0.53837 0.06214-0.12999-0.04569-0.56771 0.55076-0.55963 0.28808 0.0039 0.44979-0.03929 0.44979-0.26225 0-0.6739-0.7461-2.2405-1.0671-2.2405-0.16518 0 0.09091-0.49396 0.56907-1.0977l0.86939-1.0977 1.7028 1.9699-0.64023 0.94344c-0.68244 1.0057-1.0497 1.7958 0.03299 1.7298 0.17013-0.01038 0.1256-0.04926 0.39334 0.6025 0.20854 0.50763 0.5091 0.3226 1.1453-0.51151 0.3842-0.50371 0.69854-1.1163 0.69854-1.3612 0-0.33276 0.15053-0.40505 0.59531-0.28585 0.32742 0.087746 1.4579 0.29617 2.1923 0.43144-0.55172 1.1889-0.17522 0.34853-0.58651 1.3962-0.36454 0.92857-0.53416 1.1607-0.78953 0.94872-0.19827-0.16454-0.76984-0.20446-1.401-0.09782-1.1066 0.18696-1.5101 0.09845-1.0725 0.79331 0.11374 0.18058 0.14725 0.31231 0.0036 0.66368-0.19166 0.4688-0.19192 0.68413 1.1294 0.93201 0.60253 0.11304 1.1291 0.07341 1.339-0.10075 0.27097-0.22489 0.43704-2e-3 0.76684 1.0293l0.42096 1.3164-0.63745 0.13131c-0.3506 0.07222-0.92243 0.18992-1.2707 0.26157-0.48995 0.10078-0.6892 0.02799-0.66427-0.44745 0.01915-0.36523-0.596-0.96604-0.96305-1.4026-0.60436-0.71881-0.69276-0.75003-0.93632-0.33073-0.14792 0.25466-0.12128 0.43188-0.7712 0.46302-0.44871 0.0215-0.4719 0.09079-0.21479 0.8599 0.15811 0.47294 0.50317 1.0994 0.7668 1.3921 0.46648 0.51791 0.4562 0.55974-0.38298 1.5593l-0.86232 1.0271zm1.9873-5.4281c0.27315-0.43739 0.25937-0.64357-0.07741-1.1576-0.84103-1.2836-2.4687-0.48692-2.0898 1.0228 0.1346 0.53629 0.33065 0.66689 1.0011 0.66689 0.54874 0 0.94732-0.1819 1.1661-0.53218z"/></g></svg>
