<?xml version="1.0" encoding="UTF-8"?>
<svg width="11.121mm" height="11.794mm" version="1.1" viewBox="0 0 11.121 11.794" xml:space="preserve" xmlns="http://www.w3.org/2000/svg"><g transform="translate(-18.336 -30.677)"><path d="m28.038 41.57c-0.7276-0.64821-1.87-1.7136-2.5386-2.3676-0.66865-0.65399-1.3348-1.1891-1.4803-1.1891s-0.48012-0.23812-0.74351-0.52917l-0.47889-0.52917 0.41387-0.46302c0.3806-0.4258 0.56013-1.3483 0.48993-2.5174-0.01542-0.2568-0.40452-0.69586-0.86466-0.97569l-0.83662-0.50878-2.0613 1.0516 0.08133 0.97906c0.06987 0.84101 0.18154 0.99064 0.79202 1.0611l0.71068 0.08209 0.16614-1.9485 0.59715 0.4953c0.53579 0.44441 0.56851 0.59721 0.31841 1.4871-0.18773 0.66795-0.52959 1.1215-1.047 1.3891-1.1156 0.5769-1.5235 0.4989-2.4192-0.4626l-0.80101-0.8599 0.15523-1.5675c0.17433-1.7604 0.48575-2.2151 2.1056-3.0744 1.3597-0.7213 2.045-0.60445 3.6497 0.62228l1.1453 0.87553-0.08934 1.7085c-0.07653 1.4635-0.01012 1.7802 0.46302 2.2084 0.3038 0.27494 0.55236 0.72562 0.55236 1.0015s0.40342 0.88253 0.8965 1.3481c1.1508 1.0865 2.35 2.9429 2.2353 3.4602-0.06475 0.29191-0.45068 0.07958-1.412-0.77686z"/></g></svg>
