<?xml version="1.0" encoding="UTF-8"?>
<svg width="11.487mm" height="10.823mm" version="1.1" viewBox="0 0 11.487 10.823" xml:space="preserve" xmlns="http://www.w3.org/2000/svg"><g transform="translate(-6.1082 -17.997)"><path d="m9.0488 27.38c-0.74871-0.79165-1.3613-1.6647-1.3613-1.9401 0-0.74269 1.9733-2.2079 3.194-2.3716l1.0394-0.13941v0.67712c0 0.44818-0.28801 0.90252-0.85183 1.3438-1.0674 0.83538-0.89327 1.0458 0.46508 0.56202 0.57651-0.20534 1.3459-0.38824 1.7097-0.40644l0.66146-0.0331-1.561-0.68823 1.3526-0.68542c0.74393-0.37698 1.6004-1.0333 1.9032-1.4586l0.55054-0.77317-0.39503-0.94544c-0.47242-1.1307-0.4898-1.3168-0.10046-1.0762 0.40963 0.25316 1.1977 2.1036 1.6729 3.928 0.35687 1.3701 0.3563 1.6149-0.0054 2.3144-0.25482 0.49277-0.84402 0.97062-1.5923 1.2914-0.6533 0.28003-1.5805 0.8087-2.0605 1.1748-0.63426 0.48377-1.1988 0.66565-2.0661 0.66565h-1.1934zm-2.3669-4.0795-0.57383-1.021 0.45896-0.39397c0.93198-0.79999 1.0924-0.77284 1.6272 0.27536l0.52704 1.0331-0.60009 0.56376c-0.33005 0.31007-0.65979 0.56376-0.73276 0.56376-0.07296 0-0.39089-0.45945-0.7065-1.021zm5.1604-1.0295c-0.33784-0.5457-0.88047-1.4316-1.2058-1.9687l-0.59158-0.97651 0.52366-0.28026c1.0017-0.53612 1.3327-0.3057 2.2892 1.5936 0.74652 1.4824 0.87864 1.9522 0.63239 2.249-0.51071 0.61536-0.99776 0.43296-1.6479-0.61711zm-3.0042-0.60827-0.70895-1.0713 0.4201-0.4201c0.58587-0.58587 1.1394-0.28833 1.7726 0.95272l0.54161 1.0617-0.51227 0.27416c-0.72646 0.38879-0.72924 0.38732-1.5131-0.79714zm4.668-1.3144c-0.64828-1.2842-0.75528-1.7048-0.50917-2.0014 0.54731-0.65946 0.96095-0.40904 1.5373 0.93072 0.74258 1.7262 0.81338 2.4837 0.24326 2.6026-0.32569 0.06794-0.67818-0.35679-1.2714-1.5319z"/></g></svg>
