<?xml version="1.0" encoding="UTF-8"?>
<svg width="17.937mm" height="14.927mm" version="1.1" viewBox="0 0 17.937 14.927" xml:space="preserve" xmlns="http://www.w3.org/2000/svg"><g transform="translate(-90.014 -72.78)"><path d="m94.947 87.4c-2.0085-0.50712-2.8586-0.96963-3.8432-2.091-2.5691-2.9261-0.33777-9.4533 4.0154-11.746 1.9816-1.0436 5.7481-1.0437 7.7299 0 3.5012 1.8439 5.8334 6.6919 4.8929 10.171-0.38586 1.4275-1.9492 2.8407-3.7812 3.4177-1.9448 0.61264-7.0167 0.75209-9.0139 0.24784zm8.0388-3.4052c0.2077-0.45585 0.20359-0.78221-0.015-1.1906-0.37174-0.69459-0.44583-0.6947-2.0094-0.0031-1.4338 0.63425-3.0699 0.55648-4.363-0.2074-0.6252-0.36932-0.8256-0.3868-1.1688-0.10197-0.41449 0.344-0.57005 1.6225-0.23783 1.9547 0.097 0.09701 1.826 0.17639 3.8421 0.17639 3.6013 0 3.6708-0.01105 3.9519-0.62799zm-9.624-0.59711c0.80885-0.21676 0.78079-1.0995-0.0415-1.3059-0.66153-0.16603-1.7444 0.25304-1.7444 0.67508 0 0.22166 0.74574 0.77546 1.0583 0.78593 0.0728 0.0024 0.40018-0.06736 0.7276-0.1551zm12.519-0.10713c0.28147-0.15064 0.51177-0.38458 0.51177-0.51986 0-0.42528-1.0801-0.84565-1.7444-0.67892-0.7498 0.18819-0.87361 1.1074-0.17379 1.2903 0.76673 0.20037 0.87414 0.19338 1.4065-0.09151zm-10.345-1.8254c0.34091-0.63698 0.35123-2.6604 0.0163-3.1902-0.37068-0.58632-0.81393-0.01453-0.98658 1.2727-0.25682 1.9147 0.34028 3.0947 0.9703 1.9175zm7.8919-1.0968c0.0751-1.3924-0.44149-2.7457-0.88052-2.3066-0.34151 0.34151-0.43644 2.4526-0.1443 3.2092 0.44522 1.1531 0.93732 0.71972 1.0248-0.90251z"/></g></svg>
