<?xml version="1.0" encoding="UTF-8"?>
<svg width="20.809mm" height="26.687mm" version="1.1" viewBox="0 0 20.809 26.687" xml:space="preserve" xmlns="http://www.w3.org/2000/svg"><g transform="translate(-41.507 -17.417)"><path d="m47.655 43.749c-4.5624-0.99259-6.4445-3.2349-6.1108-7.2801 0.27203-3.2982 2.2388-6.9137 4.6774-8.5986l1.1488-0.79375h9.086l1.1497 0.79375c4.192 2.8941 6.1366 10.261 3.5272 13.362-0.90172 1.0716-2.9002 2.0656-5.0833 2.5284-2.1732 0.46063-6.2493 0.45479-8.395-0.01203zm8.9585-4.1794c0-1.868-0.44798-2.2768-2.1851-1.4822-3.9764 1.8188-6.0458-1.4126-6.7747-0.17042-0.42562 0.58206-0.52842 1.8114-0.11397 2.1416 0.8572 0.68294 3.0175 0.03845 4.4486 0.08008 1.1758-0.12462 4.4717 1.2308 4.6252-0.56908zm-10.255-1.5125c-0.0053-0.2361-0.71102-0.79423-1.5875-0.7941-1.095 1.64e-4 -1.5822 0.558-1.5875 0.7941-0.0052 0.23174 0.446 1.0064 1.5875 1.058 0.68302 0.03088 1.5927-0.82624 1.5875-1.058zm14.288 0c-0.0052-0.2361-0.71789-0.76019-1.5875-0.7941-0.99778-0.03891-1.5822 0.558-1.5875 0.7941-0.0052 0.23174 0.47171 1.0841 1.5875 1.058 0.94444-0.02209 1.5927-0.82624 1.5875-1.058zm-12.845-1.1755c0.4306-0.51884 0.46246-3.774 0.041-4.1896-0.5626-0.55474-1.0865 0.51508-1.0865 2.2187 0 2.2039 0.33228 2.8303 1.0455 1.9709zm9.167-0.28971c0.19427-0.77403 0.02387-3.7328-0.22957-3.9862-0.0938-0.0938-0.35428-0.10004-0.57883-0.01387-1.1311 0.43404-0.27502 5.9225 0.8084 4.0001zm-8.7788-10.534c-0.07543-0.19657-0.10716-0.46446-0.0705-0.59531 0.03665-0.13085-0.19555-0.73919-0.51601-1.3519-0.76073-1.4544-0.73678-2.3279 0.0864-3.151 0.47819-0.47819 0.91219-0.6528 1.5214-0.6121 0.46877 0.03132 1.1875-0.07892 1.5971-0.24497 0.93987-0.38097 1.5392-0.38097 2.4791 0 0.40966 0.16605 1.1284 0.27629 1.5971 0.24497 0.60917-0.0407 1.0432 0.13392 1.5214 0.6121 0.82222 0.82222 0.84706 1.6948 0.08972 3.151-0.31863 0.61267-0.54824 1.3818-0.51023 1.7093l0.0691 0.59531h-3.8637c-3.0006 0-3.8943-0.07983-4.0008-0.3574zm1.5753-2.6376c-0.13253-0.45687-0.18971-1.1094-0.17726-1.4368 0.0299-0.7865-1.1005-0.82922-1.5137-0.0572-0.22765 0.42537-0.16565 0.78307 0.29595 1.7073 0.50518 1.0115 0.49168 1.2811 1.0894 0.8987 0.60084-0.31443 0.53296-0.32814 0.30558-1.112zm6.0531 0.01797c0.39163-0.75465 0.43587-1.0769 0.20666-1.5051-0.34166-0.63841-1.7485-0.79497-1.5078-0.1678 0.0796 0.20743 0.02266 0.81921-0.12653 1.3595-0.21051 0.7624-0.23345 1.13 0.08202 1.2061 1.0118 0.24383 0.79893 0.16095 1.3457-0.89262zm-2.2565-0.61085c0.2345-1.1461-0.11104-1.2143-0.50098-1.6042-0.41076-0.41076-1.7166-0.33291-2.1274 0.07785-0.38994 0.38994-0.34576 1.4512-0.19931 2.2212 0.11382 0.59845 0.55686 0.48727 1.3136 0.51177 1.4422 0.04671 1.2872-0.0979 1.5141-1.2066zm-2.3728-3.7912-0.46187-0.4684 1.2256-1.1514 1.1433 1.2169-0.52714 0.45135c-0.6445 0.55184-0.79301 0.54662-1.3798-0.0485z"/></g></svg>
