<?xml version="1.0" encoding="UTF-8"?>
<svg width="25.121mm" height="27.913mm" version="1.1" viewBox="0 0 25.121 27.913" xml:space="preserve" xmlns="http://www.w3.org/2000/svg"><g transform="translate(-115.5 -83.035)"><path d="m126.99 110.44c-0.93295-0.56889-2.0566-1.9569-2.3412-2.8919-0.17104-0.56202-0.12971-0.60114 0.43231-0.40918 0.34179 0.11674 0.97862 0.2178 1.4152 0.22456 0.70867 0.011 0.80793-0.087 0.92604-0.91374 0.12798-0.89591 0.16969-0.92604 1.2816-0.92604 0.93667 0 1.2567-0.13461 1.7297-0.72761 0.31924-0.40018 0.70634-0.7276 0.86022-0.7276 0.34641 0 1.1556 0.8696 1.1556 1.2419 0 0.1508-0.94765 0.82481-2.1059 1.4978-2.3458 1.363-2.7839 1.9228-2.5365 3.2413 0.0927 0.494 0.13334 0.89774 0.0904 0.8972-0.043-5.5e-4 -0.4513-0.22854-0.90739-0.50664zm-5.683-2.743c-1.1076-0.93848-1.6017-1.924-1.6017-3.195 0-1.5505 0.31484-2.078 1.9706-3.3012 1.75-1.2928 1.8741-1.4565 2.4387-3.2177 0.46552-1.452 1.4242-2.5568 5.37-6.1885 0.82027-0.75497 1.1621-1.3039 1.283-2.0603 0.20303-1.2697 0.90658-1.8053 2.3711-1.8053 1.2018 0 1.4162 0.30614 1.4236 2.0325 3e-3 0.63909-0.19111 0.98054-0.8048 1.4175-1.0176 0.72462-0.99132 1.6694 0.0499 1.7901 0.56952 0.066 0.74746-0.06507 0.97517-0.7183 0.31933-0.91602 1.1494-1.2303 2.6192-0.99183 1.3002 0.211 1.4839 0.46725 1.2648 1.7643-0.21831 1.2922-0.92558 2.1141-1.8192 2.1141-0.72318 0-1.3568 0.62774-1.0822 1.0721 0.11989 0.19399 0.58294 0.24205 1.2984 0.13476 1.3314-0.19966 2.2541 0.39094 3.051 1.9529l0.50665 0.99311-1.0131 0.56938c-1.3278 0.74625-2.2739 0.71935-3.2382-0.09208-1.2087-1.017-1.9601-0.84295-1.5097 0.34974 0.13447 0.35602 0.67973 0.80101 1.2968 1.0583 0.85357 0.35593 1.1254 0.64364 1.3705 1.4503 0.2076 0.68333 0.22323 1.2353 0.0487 1.7198-0.23052 0.63992-0.3785 0.70915-1.4352 0.67146-1.8613-0.0664-2.6334-0.4691-2.6334-1.3736 0-0.64763-0.12889-0.79301-0.82682-0.93259-1.423-0.2846-1.8366-0.1885-2.6379 0.61286-0.75764 0.75764-0.80292 0.76792-1.7111 0.38846-0.51307-0.21438-1.0303-0.32952-1.1495-0.25588-0.11915 0.0736-0.36629 0.66838-0.54919 1.3216l-0.33255 1.1878-0.9383-0.39205c-0.87734-0.36658-0.97619-0.35644-1.5218 0.1561-0.32091 0.30148-0.80447 0.95851-1.0746 1.4601-0.27011 0.50155-0.55332 0.90763-0.62937 0.9024-0.0761-5e-3 -0.44939-0.27313-0.82964-0.59532zm2.4112-4.1775c0-0.35644-0.11267-0.47651-0.33073-0.35245-0.87326 0.49679-1.2562 1.0493-1.249 1.8023l8e-3 0.81889 0.786-0.86407c0.43229-0.47524 0.78599-1.1073 0.78599-1.4047zm5.7547-5.0892c0.68985-0.62516 0.81078-2.1681 0.23196-2.9597-0.35118-0.48027-0.36941-0.47778-0.54466 0.07437-0.0997 0.3142-0.64462 0.96785-1.2109 1.4525-1.0356 0.88645-1.5853 1.885-1.5853 2.88 0 0.51372 0.0547 0.50565 1.2568-0.18532 0.69122-0.39732 1.5247-0.96517 1.8521-1.2619zm-8.1857-2.4888c-2.732-2.7929-5.2044-7.8308-5.6203-11.452l-0.16711-1.4552 0.73574 0.92164c2.472 3.0966 6.0308 6.4801 8.0118 7.6172 0.65484 0.37588 1.2355 0.717 1.2903 0.75803 0.0548 0.04104-0.39017 0.65965-0.98884 1.3747-0.59867 0.71505-1.2989 1.7954-1.556 2.4008l-0.46748 1.1007z"/></g></svg>
