<?xml version="1.0" encoding="UTF-8"?>
<svg width="19.661mm" height="13.898mm" version="1.1" viewBox="0 0 19.661 13.898" xml:space="preserve" xmlns="http://www.w3.org/2000/svg"><g transform="translate(-49.241 -133.45)"><path d="m49.795 147c-0.71256-0.28641-0.71006-0.26235-0.14943-1.438 0.67044-1.4059 1.0003-1.2505 1.2981 0.61158 0.18925 1.1835 0.02814 1.2994-1.1486 0.82641zm17.498-0.78769c0.30612-1.9144 0.62898-2.0664 1.3184-0.62054 0.50733 1.0639 0.40258 1.2881-0.7328 1.5688l-0.76761 0.18974zm-16.755-3.6359c0.70486-4.4012 1.6868-6.4904 3.3804-7.1919 1.0656-0.4414 3.3233-0.26982 3.4238 0.2602 0.09211 0.48596-2.2621 1.5452-3.932 1.7692-1.3771 0.18471-1.9251 1.0848-1.1691 1.9203 0.44732 0.49429 0.45017 0.56306 0.04198 1.0141-0.27002 0.29837-0.43788 0.93736-0.43788 1.6669 0 1.241-0.34014 1.818-1.0717 1.818-0.37288 0-0.40731-0.18376-0.23546-1.2568zm16.229 1.0543c-0.28857-0.19257-0.60955-1.2252-0.74012-2.3811-0.03723-0.32957-0.40744-0.95385-0.8227-1.3873l-0.75501-0.78806 0.63425-0.67513c0.92709-0.98684 0.46535-1.5774-1.2333-1.5774-1.5413 0-3.2741-0.56153-3.2741-1.061 0-0.79664 2.6284-0.95503 4.0081-0.24154 1.4465 0.748 2.5298 3.1309 3.0881 6.7927 0.20051 1.315 0.17461 1.5208-0.191 1.5173-0.23263-2e-3 -0.55405-0.0915-0.71426-0.19843z" style="fill-opacity:.8;fill:#444446"/><path d="m55.38 145.09c-0.90471-0.85443-1.116-0.52592-1.4209-0.52592-1.1963 0-2.0931-1.7952-1.2953-2.5929 0.7237-0.7237 1.6575-0.28974 2.2472 1.0443 0.72247 1.6346 3.0688 2.635 5.2294 2.2296 1.1418-0.2142 2.6332-1.4629 3.2173-2.6937 0.6753-1.4231 2.2178-1.1191 2.2178 0.43709 0 0.86805-0.81873 1.4458-1.7249 1.5646-0.3361 0.044-0.34587-0.0356-0.50816 0.0606-1.1997 0.71129-3.1176 1.5326-4.1714 1.5236-1.145 0.0894-2.7392-0.56527-3.791-1.0473zm-1.4976-1.9883c-0.17001-0.37314-0.4052-0.56809-0.53217-0.44112-0.31227 0.31227 0.02829 1.1098 0.47392 1.1098 0.29211 0 0.30347-0.13043 0.05824-0.66864zm10.81 0.25398c0.08752-0.22807 0.02425-0.54954-0.1406-0.71438-0.21864-0.21863-0.29972-0.21968-0.29972-4e-3 0 0.16272-0.07227 0.48419-0.1606 0.71437-0.08848 0.23059-0.02535 0.41852 0.1406 0.41852 0.16566 0 0.3728-0.1866 0.46031-0.41466zm-8.0647-0.25092c-0.10983-0.70625-0.16143-1.7735 0.54674-1.6662 0.4567-6e-3 0.46302 0.10585 0.46302 0.98949 0 0.79141-0.10776 1.0694-0.40518 1.0777-0.55761 0.0156-0.56381-0.13879-0.60459-0.40099zm3.6556-0.65734c0-0.88195 0.08819-1.0583 0.52917-1.0583 0.44097 0 0.52917 0.17638 0.52917 1.0583 0 0.88194-0.08819 1.0583-0.52917 1.0583-0.44097 0-0.52917-0.17639-0.52917-1.0583zm-1.6536-0.83344c-0.57261-0.55734-0.99219-1.2202-0.99219-1.5675v-0.60175l-0.59531 0.54434c-0.99538 0.91015-2.2256 1.4-3.5161 1.4h-1.2273l0.68498-0.81405c0.8516-1.0121 0.85078-1.1331-0.01138-1.698-0.54713-0.35849-0.618-0.50589-0.33073-0.68784 0.20109-0.12736 0.68503-0.23339 1.0754-0.23562 0.39039-2e-3 1.5215-0.33147 2.5135-0.73165 1.7492-0.70562 1.8013-0.75346 1.7212-1.5831-0.13301-1.3779 0.87214-2.1872 2.7164-2.1872 0.80698 0 1.4672 0.0571 1.4672 0.12691 0 0.0698-0.45445 0.35876-1.0099 0.64212-1.1135 0.56808-1.4894 0.9474-1.7347 1.7508-0.13964 0.45731 0.0197 0.58768 1.0921 0.89353 0.69058 0.19696 1.9402 0.37273 2.7769 0.39061 1.632 0.0349 1.9404 0.37047 0.96689 1.0523-0.69742 0.48849-0.504 1.2239 0.55659 2.1164l0.76759 0.64589-0.86603 0.16247c-1.1829 0.2219-2.4689-0.0509-3.7924-0.80458l-1.1105-0.6324-0.16016 2.7841z"/></g></svg>
