<?xml version="1.0" encoding="UTF-8"?>
<svg width="16.361mm" height="13.612mm" version="1.1" viewBox="0 0 16.361 13.612" xml:space="preserve" xmlns="http://www.w3.org/2000/svg"><g transform="translate(-88.372 -101.51)"><path d="m90.738 115.06c-0.20932-0.0574-0.29451-1.0667-0.21643-1.1632l1.124-1.1678c0.02367 0.8395 0.6142 2.7485-0.90761 2.3311zm1.886-0.34574c-0.05884-0.22124-0.35429-0.51798-0.13064-3.3194 0.01405-0.17605 1.0448-1.1574 1.183-1.1574 0.37413 0 0.07208 4.2754-0.06638 4.445-0.33906 0.41533-0.98593 0.0317-0.98593 0.0317zm1.7444-1.2135c-0.09701-0.097-0.24646 0.32714-0.17639-1.8428 0.04443-1.376 0.08896-1.714 0.51177-1.9403 1.0839-0.5801 1.249-0.37794 1.1268 1.3798-0.06326 0.90951-0.16938 0.79545-0.35692 2.1167-0.24516 0.46923-0.78312 0.60875-1.1052 0.28663z" style="fill-opacity:.8;fill:#2f2f2f"/><path d="m88.372 114.62c0-0.21106 0.41843-1.5397 0.92985-2.9525 1.4208-3.925 3.2387-5.814 6.4785-6.7316 0.71038-0.20122 1.64-0.76482 2.3047-1.3973l1.1141-1.06 1.0883 0.49074c1.1089 0.50004 3.4305 2.8224 3.4305 3.4317 0 0.18472-0.18889 0.49263-0.41976 0.68423s-0.88858 1.248-1.4616 2.3475c-0.57301 1.0995-1.4259 2.4785-1.8953 3.0643s-1.0407 1.3509-1.2695 1.7c-0.2791 0.42588-0.56209 0.57874-0.8599 0.46446-0.59997-0.23023-0.57531-1.5539 0.06269-3.3656 0.83982-2.3848 0.17727-2.8196-2.9563-1.9404-1.49 0.41806-1.6511 0.55173-3.6684 3.0427-1.9708 2.4336-2.8777 3.1338-2.8777 2.2217zm15.257-9.245c-0.67829-1.0352-2.248-2.4596-3.0989-2.8121-0.8888-0.36816-1.0489-1.0529-0.24619-1.0529 1.2212 0 4.6201 2.9831 4.4424 3.899-0.1326 0.68348-0.63746 0.66782-1.0973-0.0341z"/></g></svg>
