<?xml version="1.0" encoding="UTF-8"?>
<svg width="21.649mm" height="31.016mm" version="1.1" viewBox="0 0 21.649 31.016" xml:space="preserve" xmlns="http://www.w3.org/2000/svg"><g transform="translate(-12.945 -21.504)"><path d="m22.336 51.924c-1.5244-2.4906-2.0291-3.4385-2.0291-3.8112 0-0.23638 0.65875-1.2451 1.4639-2.2416l1.4639-1.8118-1.0877-1.9819c-0.63902-1.1643-1.5176-2.3224-2.1298-2.8073-1.2036-0.95325-1.6267-1.6209-1.4007-2.2098 0.22208-0.57873 1.0587-0.51912 2.1885 0.15592 1.4849 0.88725 2.1047 1.5236 3.5273 3.622 0.96697 1.4263 1.3971 1.8666 1.6126 1.651 0.65188-0.65188-2.2146-4.4641-4.2482-5.6498-1.1555-0.6737-1.5416-1.0535-1.6035-1.5769-0.14617-1.2363 0.80108-1.2041 2.936 0.09981 1.717 1.0487 2.7505 2.0865 4.5893 4.6086 0.73492 1.0081 1.1407 0.61476 0.50617-0.49058-0.99607-1.735-2.4039-3.2036-4.1604-4.3399-1.4156-0.91578-1.8051-1.3066-1.8051-1.8113 0-1.2016 1.0457-1.1134 3.3788 0.28479 1.8285 1.0958 2.2443 1.4952 3.3309 3.1995 1.1392 1.7868 1.7569 2.3743 1.7569 1.6709 0-0.15209-0.59545-1.159-1.3232-2.2375-1.1047-1.6371-1.629-2.1395-3.175-3.0424-1.4739-0.86082-1.8518-1.2104-1.8518-1.7135 0-1.0737 0.83613-1.0501 3.0907 0.08708 1.1378 0.57388 2.3225 1.3235 2.6326 1.6657 0.73902 0.81542 4.5954 7.0162 4.5954 7.3891 0 0.15866-1.3105 2.0068-2.9122 4.107l-2.9122 3.8186 0.81327 1.6111c0.4473 0.8861 0.7495 1.7773 0.67156 1.9804-0.11193 0.2917-0.92059 0.3693-3.8481 0.3693h-3.7064zm-5.8041-6.1388c-3.4178-1.9523-3.7109-2.2129-3.5541-3.1598 0.18677-1.1283 3.479-10.182 4.5437-12.495l0.867-1.8837 1.29-0.47094c3.6641-1.3377 4.0675-1.715 3.7286-3.4875-0.24291-1.2707 0.59509-2.386 1.5248-2.0292 0.33549 0.12874 0.34039 0.24792 0.03424 0.83222-0.25515 0.48698-0.28847 0.93133-0.11651 1.5541 0.41105 1.4887-0.26753 2.368-2.6435 3.4256-1.1173 0.4973-2.21 1.0041-2.4283 1.1261-0.68134 0.38097-1.3887 1.9092-3.5489 7.6674-1.7901 4.7717-2.0411 5.6379-1.7391 6.0019 0.5159 0.62162 4.008 2.5036 4.6266 2.4934 0.29677-0.0049 0.87776-0.46279 1.3229-1.0426 0.90237-1.1753 1.0718-1.2455 1.423-0.5893 0.19822 0.37038 3.91e-4 0.75993-0.94056 1.8521-0.75516 0.87651-1.4009 1.3823-1.7631 1.3811-0.31432-0.0011-1.4963-0.53026-2.6267-1.1759zm11.646-14.718c-1.0348-0.60274-0.07577-3.683 1.1467-3.683 0.30756 0 0.88704-0.35096 1.2877-0.7799 0.54819-0.58684 0.80371-0.70473 1.0322-0.47625 0.66471 0.66471 0.11991 1.8261-1.0203 2.175-1.1232 0.34369-1.5865 0.93722-1.5865 2.0326 0 1.0726-0.11149 1.1675-0.8599 0.73155zm-0.27218-5.4979c-0.98645-0.55265-1.9145-1.1258-2.0623-1.2736-0.34856-0.34856 0.64313-2.8954 1.0859-2.7887 0.74642 0.17992 4.4888 2.512 4.4798 2.7915-0.0055 0.16916-0.39242 0.75037-0.8599 1.2916l-0.84996 0.98399z"/><path d="m17.435 43.262c-0.96729-0.38594-1.5929-1.0369-1.5929-1.6574 0-0.30126 0.3166-1.3547 0.70356-2.341l0.70356-1.7933 0.45552 0.72837c0.25054 0.4006 0.95539 1.2046 1.5663 1.7867 1.6135 1.5373 1.7239 1.8356 1.0279 2.777-0.62942 0.85133-1.5707 1.0155-2.8639 0.49956zm1.5052-10.112c1.169-3.1269 1.4937-3.468 3.0153-3.1671 1.389 0.27469 1.7702 1.0502 0.58307 1.1863-0.53749 0.06163-0.85323 0.32177-1.1402 0.93941-0.2601 0.5598-0.5879 0.85614-0.95118 0.8599-0.67655 7e-3 -1.3285 0.69002-1.5656 1.6402-0.09723 0.38965-0.32777 0.7664-0.5123 0.83721-0.20387 0.07823 0.02017-0.82266 0.57097-2.296z"/></g></svg>
