<?xml version="1.0" encoding="UTF-8"?>
<svg width="23.663mm" height="21.642mm" version="1.1" viewBox="0 0 23.663 21.642" xml:space="preserve" xmlns="http://www.w3.org/2000/svg"><g transform="translate(-41.375 -92.837)"><path d="m59.937 114.3c-0.097-0.097-0.17639-0.42787-0.17639-0.73524 0-0.33459-0.66657-1.2195-1.661-2.2051l-1.661-1.6463-1.6463 1.661c-0.90544 0.91357-1.6463 1.8067-1.6463 1.9846 0 0.17799-0.14883 0.32524-0.33073 0.32722-0.1819 2e-3 -0.59862 0.0754-0.92604 0.16315-0.54679 0.14654-0.59531 0.0708-0.59531-0.92965 0-0.71438 0.11774-1.0892 0.34217-1.0892 0.4256 0 8.1245-7.7286 8.1245-8.1558 0-0.1789 0.39314-0.31088 0.92604-0.31088 0.88319 0 0.92604 0.0432 0.92604 0.93259 0 0.72127-0.13489 0.98572-0.59531 1.1671-0.32742 0.12896-1.2463 0.90009-2.0419 1.7136l-1.4465 1.4791 1.5788 1.6031c0.86836 0.88168 1.8957 1.6682 2.283 1.7478 0.70827 0.14558 1.0049 0.69475 1.012 1.8739 3e-3 0.52633-0.12924 0.59531-1.1429 0.59531-0.63059 0-1.2259-0.0794-1.3229-0.17639zm-17.77-0.35068c-0.25555-0.41349 0.05361-0.77259 3.6371-4.2246 2.8921-2.786 3.4323-3.2014 3.7837-2.9098 0.83388 0.69206 0.27991 1.4711-3.1618 4.4466-3.3056 2.8578-3.9159 3.2429-4.259 2.6878zm8.8622-5.8696v-1.6676l-9.0459-9.057-0.3452-1.8243c-0.18986-1.0034-0.30302-1.8685-0.25146-1.9226 0.05156-0.05409 0.90277 0.04821 1.8916 0.22733l1.7978 0.32568 8.9958 8.8875 1.6481 0.10788c0.90644 0.0593 1.7159 0.17572 1.7988 0.25863 0.0829 0.0829 0.0713 0.46722-0.02578 0.85403-0.23534 0.93765-2.1089 1.9436-2.8074 1.5074-1.2237-0.76422-2.0524 0.0217-1.115 1.0575 0.39195 0.4331 0.37638 0.55721-0.20176 1.6083-0.51171 0.93035-0.7834 1.1542-1.4831 1.2219l-0.85657 0.0829zm4.2333-6.5693c0-1.6326 0.31448-1.8507 2.6683-1.8507 3.015 0 3.9463-0.5574 3.9463-2.3619 0-1.4569-1.81-2.1474-2.7901-1.0644-0.41521 0.4588-0.44463 0.66496-0.19086 1.3373l0.30002 0.79485-2.2138-0.161-0.06848-1.4552c-0.08466-1.7992 0.30446-2.5907 1.661-3.3789 0.83172-0.48324 1.3479-0.59097 2.4533-0.51209 2.3892 0.17048 3.701 1.6363 3.9532 4.4169 0.16245 1.7915 0.0848 1.9373-1.8471 3.4677-1.318 1.0441-1.393 1.0622-5.9535 1.437l-1.9182 0.15765z"/></g></svg>
