<?xml version="1.0" encoding="UTF-8"?>
<svg width="24.209mm" height="23.819mm" version="1.1" viewBox="0 0 24.209 23.819" xml:space="preserve" xmlns="http://www.w3.org/2000/svg"><path d="m12.355 23.128c-1.7274-0.86081-2.8603-2.2124-3.3999-4.0564-0.77585-2.6514 0.43368-5.5707 2.909-7.0214l1.1705-0.68597-0.4054-1.6468c-0.22297-0.90575-0.4463-1.6957-0.49628-1.7554-0.04998-0.05974-0.29997 0.07522-0.55552 0.2999-1.3692 1.2039-2.8018 1.6571-5.2271 1.6536-2.5389-0.0036-3.8192-0.42386-5.5562-1.824l-0.79375-0.63978 0.50972-0.95671c0.66579-1.2497 2.5428-2.9647 3.9378-3.598 2.1215-0.96316 4.6618-0.42361 6.983 1.4832l0.8472 0.69595 0.59684-1.2697c1.7695-3.7644 5.4304-4.8271 9.5842-2.7822 1.8865 0.92872 2.0769 1.2927 1.375 2.6277-0.60651 1.1535-2.567 2.894-3.9437 3.5011-1.5607 0.68827-3.6365 0.91934-5.1395 0.57211-0.61846-0.14288-1.1225-0.24268-1.1201-0.22176 0.0024 0.02091 0.28674 0.81193 0.63182 1.7578l0.62743 1.7198 1.4045 0.20374c2.8003 0.40622 4.9475 2.3642 5.5513 5.0621 0.4532 2.0251-0.17054 4.0294-1.7435 5.6023-0.64371 0.64371-1.2926 1.1704-1.4419 1.1704-0.14935 0-0.2806-0.50602-0.29168-1.1245-0.02418-1.3507-0.54437-2.9001-1.0277-3.0613-0.26223-0.08741-0.30403 0.07437-0.16676 0.64549 0.10075 0.41917 0.25007 1.3711 0.33182 2.1153 0.13251 1.2064 0.08162 1.4001-0.46919 1.7859-0.96007 0.67246-3.052 0.5596-4.6819-0.25259zm0.81842-17.918c0.66594-0.8731 3.465-2.5636 4.2447-2.5636 0.2257 0 0.49544-0.13765 0.59942-0.30588 0.13631-0.22055-0.06055-0.25596-0.70564-0.12695-1.3157 0.26314-2.8845 1.0922-4.0643 2.1479-0.57214 0.51193-1.0632 0.93079-1.0912 0.93079s-0.55715-0.17859-1.1758-0.39687c-1.1811-0.41671-5.2917-0.55734-5.2917-0.18103 0 0.11871 0.92274 0.21788 2.0505 0.22036 1.513 0.00333 2.3626 0.14898 3.2411 0.55561 1.5446 0.71492 1.4218 0.73062 2.1929-0.28033z"/></svg>
