<?xml version="1.0" encoding="UTF-8"?>
<svg width="25.721mm" height="23.672mm" version="1.1" viewBox="0 0 25.721 23.672" xml:space="preserve" xmlns="http://www.w3.org/2000/svg"><g transform="translate(-54.921 -44.581)"><path d="m63.713 62.493c-2.9932-3.2188-3.8841-4.3758-3.8841-5.0441 0-1.3666 2.1091-3.5804 3.9313-4.1263 0.56369-0.16888 1.5784-0.30706 2.2549-0.30706 1.1037 0 1.2838 0.08827 1.7543 0.8599 0.55697 0.91339 1.8234 4.5798 2.4872 7.2005 0.46164 1.8227 0.32972 2.0921-1.5637 3.1938-2.1606 1.2571-2.1577 1.2581-4.9797-1.7766z"/><path d="m61.51 64.303c-2.1781-2.2731-3.9528-4.3639-4.1939-4.9408-0.4111-0.9839-0.39421-3.1723 0.0406-5.2608 0.15322-0.73593 0.08283-0.83653-0.88346-1.2629-1.3328-0.58803-1.8573-1.6648-1.3763-2.8259 0.27377-0.66095 0.40632-0.74438 0.82585-0.51986 0.31249 0.16724 0.49974 0.55321 0.49974 1.0301 0 0.61871 0.18727 0.85415 0.99219 1.2475 1.4343 0.70086 1.8078 1.6337 1.2773 3.1905-0.49137 1.4421-0.51859 2.8359-0.07475 3.8271 0.47535 1.0617 7.3002 8.1515 7.8468 8.1515 0.81271 0 4.0744-1.7821 4.9891-2.7259l0.8755-0.90334-0.53049-1.6911c-0.29176-0.93011-0.70908-2.3162-0.92737-3.0802l-0.39689-1.3891h0.72652c0.69199 0 0.76676 0.13148 1.5732 2.7664 0.46569 1.5215 0.84672 3.0897 0.84672 3.4849 0 1.6263-4.864 4.8731-7.2686 4.8518-1.0242-0.0091-1.2133-0.16339-4.8418-3.9501zm9.4645-8.8459c0-0.14479 4.0604-5.1217 4.2675-5.2309 0.0916-0.04825 1.1368 1.1029 2.3228 2.5581l2.1562 2.6458-1.1227 0.08413c-1.0499 0.07867-1.193 0.0031-2.206-1.1646l-1.0833-1.2487-1.0085 1.2307c-0.92081 1.1237-1.1092 1.2307-2.1672 1.2307-0.63732 0-1.1588-0.04742-1.1588-0.10537zm-1.4347-1.6821c-0.33654-1.0603-2.1254-2.3757-3.7147-2.7313-1.972-0.4413-2.6353-1.222-2.3957-2.8196 0.15376-1.0253 0.11041-1.1513-0.47226-1.3729-0.67294-0.25585-1.1107-1.2299-0.67402-1.4998 0.42428-0.26222 1.4994 0.12729 2.0851 0.75545 0.41233 0.44218 0.5347 0.87676 0.48328 1.7163-0.03787 0.6183 0.04438 1.2302 0.18279 1.3598 0.13841 0.12957 0.93824 0.43127 1.7774 0.67043 1.0882 0.31013 1.866 0.76082 2.712 1.5714 0.65242 0.62513 1.1836 1.2463 1.1803 1.3804-0.0032 0.13408-0.22705 0.53149-0.49736 0.88313-0.48506 0.63098-0.49378 0.63211-0.66687 0.08673zm0.56257-3.0412c0.96067-1.2659 4.9176-6.0354 5.1012-6.149 0.12475-0.07711 1.2651 1.1409 2.5342 2.7067 1.269 1.5658 2.4876 3.0553 2.7078 3.3099 0.37476 0.43326 0.30859 0.46302-1.0296 0.463-1.4163-1.8e-5 -1.443-0.01505-2.7741-1.5579l-1.344-1.5579-2.5222 3.1159h-1.4622c-1.1272 0-1.4047-0.07576-1.2112-0.33073zm-13.423-1.6637-1.1304-1.4652 0.75823-0.79142c0.75872-0.79194 3.1878-2.099 3.9008-2.099 0.21095 0 0.69113 0.72046 1.0841 1.6266l0.70544 1.6266-0.58908 0.62705c-0.48098 0.51198-3.0445 1.9406-3.4822 1.9406-0.06408 0-0.62519-0.65935-1.2469-1.4652z"/></g></svg>
