<?xml version="1.0" encoding="UTF-8"?>
<svg width="27.781mm" height="29.101mm" version="1.1" viewBox="0 0 27.781 29.101" xml:space="preserve" xmlns="http://www.w3.org/2000/svg"><path d="m0.17639 28.928c-0.09701-0.09701-0.17639-3.2932-0.17639-7.1027v-6.9264l0.52917-0.47889c0.29104-0.26339 0.52917-0.6839 0.52917-0.93447 0-0.62512 2.0944-1.4886 4.5286-1.867 2.3247-0.36141 5.0057-0.1585 7.0573 0.5341 1.3103 0.44235 1.5769 0.45867 2.203 0.13488 2.0393-1.0545 6.8546-1.0893 9.8913-0.07133 1.8347 0.61502 2.249 0.89911 2.249 1.5424 0 0.2554 0.17859 0.61259 0.39688 0.79375 0.33438 0.27751 0.39688 1.4259 0.39688 7.2928 0 4.05-0.10384 7.0276-0.24818 7.1168-0.1365 0.08436-1.1188-0.08853-2.1828-0.38419-3.5954-0.99906-7.2322-0.9417-10.365 0.16346l-1.0217 0.36049-1.8888-0.58802c-2.589-0.80601-6.9323-0.79636-9.4294 0.02096-1.8616 0.60931-2.1996 0.66316-2.4694 0.39334zm3.9247-3.6654c2.4324-0.58733 6.2843-0.45683 8.67 0.29374l0.46794 0.14722-0.07107-6.17-0.07107-6.17-1.0583-0.38416c-1.6552-0.60082-6.7859-0.5129-8.4667 0.1451l-1.3229 0.51789-0.07111 6.0112c-0.03911 3.3061 0.02042 6.0069 0.13229 6.0017 0.11187-0.0052 0.91778-0.18192 1.7909-0.39274zm12.435 0c2.0513-0.4953 5.11-0.48895 7.2481 0.01505 0.93054 0.21935 1.764 0.32697 1.8521 0.23916 0.0881-0.08781 0.19839-2.7064 0.24508-5.8192l0.08489-5.6595-0.84256-0.51239c-1.8716-1.1382-6.8325-1.3963-9.3814-0.4882l-1.0583 0.37706-0.07102 6.1251c-0.03906 3.3688 0.02047 6.1208 0.13229 6.1157 0.11182-0.0052 0.91769-0.18192 1.7908-0.39274zm7.0115-15.728c0-0.31649 1.8525-1.597 2.3104-1.597 0.6668 0 0.31477 0.75369-0.60571 1.2968-1.0051 0.593-1.7047 0.71623-1.7047 0.30026zm-21.233-0.47474c-0.74935-0.4646-0.98241-1.1231-0.39688-1.1213 0.48749 0.00146 2.0505 1.0061 2.0505 1.318 0 0.40813-0.83907 0.30831-1.6536-0.19672zm4.7233-1.2736c-0.78583-0.9401-0.9436-1.2848-0.69748-1.524 0.24459-0.23768 0.55922-0.039419 1.362 0.8582 0.57414 0.642 1.0032 1.2894 0.95344 1.4387-0.19992 0.59977-0.65042 0.38457-1.6179-0.77288zm12.129 0.92117c-0.17392-0.28141 1.6339-2.3574 2.0528-2.3574 0.43892 0 0.18191 0.70833-0.60213 1.6595-0.85076 1.0321-1.154 1.178-1.4507 0.69786zm-2.6244-1.0237c-0.24928-0.40335 1.7611-5.8281 2.1605-5.8301 0.59888-0.00293 0.53995 0.40567-0.42926 2.9763-1.0297 2.731-1.4148 3.3658-1.7313 2.8538zm-6.8454-2.6872c-0.90075-2.5114-0.9903-3.1445-0.44482-3.1445 0.24142 0 1.7982 3.8805 2.0433 5.0932 0.10773 0.53306 0.04202 0.7276-0.24576 0.7276-0.25821 0-0.72174-0.9171-1.3527-2.6764zm3.9227 2.0957c-0.24146-0.62925-0.02596-3.3866 0.2702-3.4572 0.3556-0.084811 0.49904 3.2479 0.15461 3.5923-0.18302 0.18302-0.3194 0.13966-0.42481-0.13504zm-9.4023-2.6227c-0.43566-0.81403 0.16105-1.3714 0.69447-0.64863 0.20848 0.28247 0.37906 0.66943 0.37906 0.8599 0 0.54892-0.74518 0.40227-1.0735-0.21127zm18.271 0.40789c0-0.42475 0.59672-1.1732 0.93535-1.1732 0.46842 0 0.50797 0.56751 0.07007 1.0054-0.32432 0.32432-1.0054 0.438-1.0054 0.16781zm-8.9002-3.6868c-0.18925-0.49317 0.05982-1.1906 0.42518-1.1906 0.15009 0 0.27289 0.35719 0.27289 0.79375 0 0.83084-0.43635 1.0789-0.69807 0.39688z"/></svg>
