<?xml version="1.0" encoding="UTF-8"?>
<svg width="26.104mm" height="20.762mm" version="1.1" viewBox="0 0 26.104 20.762" xml:space="preserve" xmlns="http://www.w3.org/2000/svg"><g transform="translate(-22.381 -7.0927)"><path d="m42.727 21.826 1.0056-0.09354 0.95883 0.44434 0.88867 1.0173-0.11693 1.2512-0.39756 0.53788-13.868 2.6075-1.333-4.0341 10.5-1.6487z" style="fill-opacity:.73333;stroke-width:.26458"/><path d="m26.085 12.847-1.8686-3.2411-1.1741 0.3638-0.56224 1.3725 0.79375 1.4552 0.95911 0.31419z" style="fill-opacity:.73333;stroke-width:.26458"/><path d="m30.339 27.692c-1.5378-0.44134-1.704-0.8742-3.014-7.8513l-1.2291-6.5459-1.1422 0.0747c-1.3894 0.09087-2.2906-0.43685-2.5186-1.475-0.20868-0.95012 0.20523-2.0803 0.83268-2.2737 0.263-0.081043 3.5544-0.62012 7.3143-1.1979 5.1655-0.79386 7.0061-0.98594 7.532-0.78603 1.4962 0.56885 1.4822 0.74742-0.17618 2.2482-1.9709 1.7836-3.0979 3.5361-3.9017 6.0673-0.66467 2.0931-0.86467 5.2378-0.35323 5.5539 0.66008 0.40795 1.5447-0.18194 2.3122-1.5418 1.4629-2.5922 3.0014-3.9342 4.8087-4.1946l0.65049-0.09372 0.6766 2.9069 0.6766 2.9069 0.98559 0.1602c1.9471 0.31649 2.6654 1.9222 1.4503 3.2423-0.52888 0.57457-1.304 0.7702-6.9453 1.7529-3.4925 0.6084-6.5286 1.1455-6.7469 1.1935s-0.76375-0.01798-1.2121-0.14667zm7.902-1.4461c3.6694-0.66225 6.7808-1.3131 6.9142-1.4464 0.78031-0.77957-0.15064-2.9024-1.2757-2.909-0.51536-3e-3 -12.386 1.8689-12.522 1.9747-0.03385 0.02631 0.07817 0.41798 0.24894 0.87039 0.23002 0.60938 0.23524 1.0677 0.02016 1.7685-0.15967 0.52026-0.23784 0.94594-0.17371 0.94594 0.06413 0 3.1188-0.54184 6.7883-1.2041zm-12.638-13.62c0.21294-0.34455-1.0479-2.5247-1.5777-2.728-1.0124-0.3885-1.6133 1.5819-0.76741 2.5166 0.47388 0.52364 2.0636 0.66691 2.3451 0.21136zm9.1232 6.3103c0-0.07129 0.2499-0.89085 0.55533-1.8212 1.4825-4.5158 3.651-6.9655 6.6669-7.5312l0.97988-0.18383v-0.8642c0-0.85724 0.53698-1.5922 1.0353-1.417 0.66504 0.23374 4.5209 4.0181 4.5209 4.437 0 0.40231-3.4014 3.7396-4.4434 4.3595-0.54392 0.32365-1.1129-0.35605-1.1129-1.3295 0-0.94651-0.10561-1.0017-1.7198-0.89938-1.0266 0.0651-2.9931 0.92943-3.8047 1.6723-0.34995 0.32031-1.0956 1.2855-1.6569 2.1448-0.56137 0.85931-1.0207 1.504-1.0207 1.4328z"/></g></svg>
