<?xml version="1.0" encoding="UTF-8"?>
<svg width="27.145mm" height="27.117mm" version="1.1" viewBox="0 0 27.145 27.117" xml:space="preserve" xmlns="http://www.w3.org/2000/svg"><path d="m12.639 24.482c-0.45927-1.5053-1.1624-3.8086-1.5625-5.1182l-0.72748-2.3812-1.6977-0.58473c-0.93374-0.3216-3.2842-1.0767-5.2233-1.6779-1.9391-0.60125-3.4811-1.1376-3.4267-1.192 0.05436-0.05436 2.2957-0.77365 4.9808-1.5984 2.6851-0.82477 5.0182-1.6326 5.1847-1.7951 0.1665-0.16255 0.97183-2.4899 1.7896-5.172 0.81779-2.682 1.5253-4.9148 1.5722-4.9618 0.04694-0.046945 0.77036 2.1474 1.6076 4.8764 0.83722 2.729 1.6604 5.0938 1.8292 5.2551 0.23816 0.22754 5.521 1.9478 9.7858 3.1866 0.26563 0.07716 0.43844 0.18481 0.38402 0.23922-0.05441 0.05441-2.2958 0.77375-4.9809 1.5985-2.6851 0.82477-5.0213 1.6326-5.1917 1.7951-0.17036 0.16255-0.97803 2.4923-1.7948 5.1772-0.81679 2.6849-1.532 4.9286-1.5894 4.986-0.05738 0.05738-0.4801-1.1273-0.93937-2.6327zm2.3294-3.7953 1.2783-4.2333 1.7034-0.58493c0.93689-0.32171 2.8345-0.93801 4.217-1.3696l2.5135-0.78464-5.6224-0.01949-5.6285-0.15532 0.02697 6.0228c0.0145 3.2378 0.06871 5.7679 0.12716 5.6224 0.05845-0.14552 0.68148-2.1696 1.3845-4.4979zm-2.9216-7.1829 1.3801 0.0088-0.0059-5.6289-0.0148-5.4532-2.5158 8.2021-1.7039 0.58467c-0.93713 0.32157-3.0136 0.99571-4.6143 1.4981l-2.9104 0.91343 4.4979 0.02096c2.4739 0.01153 5.123-0.05412 5.887-0.14589z"/></svg>
