<?xml version="1.0" encoding="UTF-8"?>
<svg width="25.897mm" height="24.159mm" version="1.1" viewBox="0 0 25.897 24.159" xml:space="preserve" xmlns="http://www.w3.org/2000/svg"><g transform="translate(-32.58 -5.7576)"><path d="m39.957 28.66c0.0018-2.3322 1.512-3.7703 3.9593-3.7703h1.0668s-0.03662-0.53467 0-0.7982c0.21497-1.5469-0.79048-0.72323-2.15-2.5383-0.39973-0.53368-0.48001-1.4511-1.0275-1.9348-0.74378-0.65706-1.0558-1.2819-1.0558-1.6442 0-0.39944 0.11906-0.79984 0.26458-0.88978 0.14552-0.08994 0.26525-0.60298 0.26606-1.1401 0.0034-2.2456 1.1902-4.319 3.0144-5.2662 1.0704-0.55577 3.4894-0.55153 4.5671 8e-3 1.7355 0.90103 3.0004 3.1951 3.0004 5.4415 0 0.4363 0.11906 0.86685 0.26458 0.95678 0.55815 0.34496 0.25749 1.5318-0.59531 2.35-0.47294 0.45374-0.99246 1.6105-1.397 2.2067-0.40455 0.59621-1.2281 0.94375-1.5875 1.1361-0.49417 0.26447-0.65351 0.56464-0.65351 1.2311v0.88133h1.2609c2.4193 0 4.0308 1.5586 4.0308 3.8985v1.1286h-13.229zm-3.6626-3.0907c-0.40084-1.1085-1.9279-2.4986-2.9747-2.708-1.0001-0.20002-0.98444-0.52875 0.03593-0.75286 1.0977-0.2411 2.8521-1.9595 3.0596-2.9968 0.17788-0.88942 0.48151-0.98879 0.63034-0.36882 0.21658 0.90221 1.348 2.4786 2.6983 3.1042l1.3234 0.61315-1.1597 0.51299c-1.2613 0.55792-2.5036 1.8472-2.7585 2.8629-0.22103 0.88066-0.46759 0.80368-0.8547-0.26685zm17.954-12.967c-0.34076-1.0325-1.7998-2.4383-2.7881-2.6864-0.83955-0.21071-0.83955-0.53332 0-0.74403 0.98832-0.24805 2.4474-1.6539 2.7881-2.6864 0.3022-0.91567 0.49093-0.96555 0.78858-0.1613 0.25096 0.67809 1.5181 2.3666 2.5209 2.7292 0.50529 0.18272 0.91871 0.40344 0.91871 0.49049 0 0.087054-0.41342 0.30777-0.91871 0.49049-1.0028 0.36261-2.3591 2.0245-2.5209 2.7292-0.21497 0.93654-0.48638 0.75437-0.78858-0.1613z"/></g></svg>
