<?xml version="1.0" encoding="UTF-8"?>
<svg width="22.095mm" height="22.275mm" version="1.1" viewBox="0 0 22.095 22.275" xml:space="preserve" xmlns="http://www.w3.org/2000/svg"><g transform="translate(-4.3196 .5752)"><path d="m9.9308 13.674 6.6279-10.966-3.8534-1.2992-5.9453 2.9726-0.52847 6.6719z" style="fill-opacity:.73333;stroke-width:.26458"/><path d="m21.156 18.929-2.6563-2.7756-1.577 0.64826c-2.0942 0.86088-4.7675 0.89511-6.923 0.088631-2.0889-0.78157-4.2805-2.9732-5.0621-5.0621-1.2989-3.4716-0.5213-7.159 2.0525-9.7327 2.5738-2.5738 6.2611-3.3514 9.7327-2.0525 2.1137 0.79083 4.2787 2.9701 5.0849 5.1183 0.83776 2.2323 0.71404 5.2218-0.30092 7.2716l-0.71798 1.45 1.3794 1.1889c3.458 2.9803 4.2458 3.8666 4.2458 4.7764 0 1.0267-0.84135 1.8453-1.9034 1.852-0.54409 0.0034-1.2849-0.60854-3.3546-2.7712zm-4.6862-5.1783c2.5044-1.4363 3.6622-4.2305 2.875-6.9385-0.81473-2.8026-3.0341-4.4309-6.0391-4.4309-5.1884 0-7.9118 6.0837-4.505 10.064 1.3149 1.5362 2.504 2.0819 4.5606 2.0929 1.4382 0.0077 1.9472-0.12118 3.1085-0.78721z"/></g></svg>
