<?xml version="1.0" encoding="UTF-8"?>
<svg width="27.102mm" height="21.994mm" version="1.1" viewBox="0 0 27.102 21.994" xml:space="preserve" xmlns="http://www.w3.org/2000/svg"><g transform="translate(-15.078 -7.2744)"><path d="m18.65 14.352-1.4717-3.3734-1.5214 0.41341-0.46302 1.6702 0.76068 1.1906 1.2733 0.33073z" style="fill-opacity:.73333;stroke-width:.26458"/><path d="m35.897 23.133 1.1906 0.19844 0.99219 0.95911 0.16536 1.1741-0.1819 0.69453-1.2568 0.71107-12.816 2.1993-0.99219-4.2333z" style="fill-opacity:.73333;stroke-width:.26458"/><path d="m23.036 29.118c-1.5366-0.43382-1.7037-0.86901-3.014-7.8475l-1.2291-6.5459-1.1422 0.0747c-1.3895 0.09087-2.2906-0.43686-2.5186-1.475-0.20868-0.95012 0.20523-2.0803 0.83268-2.2737 0.263-0.08104 3.5544-0.62012 7.3143-1.1979 7.2619-1.116 7.6072-1.1144 8.8405 0.040846 0.7002 0.65592 0.76275 1.32 0.17062 1.8114-0.83136 0.68996-2.4402 3.3324-2.8318 4.651-0.21882 0.73686-0.48374 2.1595-0.5887 3.1615-0.10496 1.002-0.41382 2.2635-0.68635 2.8034-0.65114 1.29-0.62578 1.5319 0.16057 1.5319 0.49572 0 0.78415-0.25103 1.18-1.027l0.52394-1.027 1.1105-0.01533c0.6459-0.0089 1.6512-0.29584 2.4028-0.68582 1.3848-0.71847 1.3358-0.7439 1.7384 0.90123 0.19626 0.80198 0.35512 0.94517 1.2011 1.0827 1.9769 0.32133 2.6824 2 1.3856 3.2968-0.35719 0.35719-0.76081 0.64943-0.89693 0.64943-0.19673 0-10.407 1.7969-12.609 2.219-0.29104 0.0558-0.89604-0.0021-1.3444-0.12873zm7.832-1.4246c3.6886-0.65251 6.8236-1.3034 6.9666-1.4464 0.78327-0.78327-0.11589-2.9235-1.2282-2.9235-0.53538 0-12.44 1.8623-12.552 1.9635-0.03385 0.03066 0.07817 0.42589 0.24894 0.87829 0.23002 0.60938 0.23524 1.0677 0.02016 1.7685-0.15967 0.52026-0.26144 0.94594-0.22614 0.94594 0.0353 0 3.0821-0.53387 6.7708-1.1864zm-12.6-13.586c0.20805-0.33663-0.89773-2.4059-1.4411-2.6966-1.0711-0.57325-1.7865 1.423-0.87206 2.4335 0.44664 0.49353 2.0575 0.67678 2.3131 0.26313zm12.332 6.609c3e-3 -0.23874 3.3549-4.7762 4.1857-5.6663 0.41468-0.44424 1.08-0.7965 1.6879-0.89371 1.0468-0.16739 1.3934-0.62199 0.47425-0.62199-0.52801 0-0.71938-0.38038-0.3166-0.62931 0.11691-0.07225 0.80152-0.88162 1.5214-1.7986l1.3088-1.6672-1.2901 0.92307c-1.8555 1.3276-4.6867 4.4499-6.5188 7.1888-1.3923 2.0814-1.5838 2.2738-1.5838 1.5898 0-1.5225 0.30667-2.4317 0.82021-2.4317 0.40119 0 0.46125-0.14114 0.33299-0.78247-0.12559-0.62793 0.03847-1.0481 0.83066-2.1272l0.98716-1.3448 1.2374 0.81077-0.7324-2.0758 1.9-1.4294c1.045-0.78617 2.1528-1.5644 2.4618-1.7295 0.89054-0.47573 3.0662-0.88983 3.7601-0.71567 0.79169 0.1987 0.69945 0.84182-0.50804 3.5423l-0.84198 1.8831h-0.89062c-0.99144 0-1.1098 0.17828-0.4423 0.66636l0.44832 0.32782-0.43292 0.62739c-0.23811 0.34506-0.84221 1.1009-1.3424 1.6797-0.79155 0.91582-1.0539 1.0523-2.0226 1.0523h-1.1131l1.3452 1.1571-0.70283 0.46051c-0.38656 0.25328-1.1166 0.44495-1.6224 0.42594-0.70488-0.0265-0.84692 0.03809-0.60838 0.27662 0.42841 0.42841 0.39054 0.64517-0.15182 0.86901-0.81914 0.33806-2.1829 0.60884-2.1807 0.43297z"/></g></svg>
