<?xml version="1.0" encoding="UTF-8"?>
<svg width="23.283mm" height="22.622mm" version="1.1" viewBox="0 0 23.283 22.622" xml:space="preserve" xmlns="http://www.w3.org/2000/svg"><g transform="translate(-5.6886 -24.011)"><path d="m23.727 45.233-0.58021-1.3999-3.3026-1.6355 3.1665-1.5265 1.5413-3.1665 1.4841 3.246 1.4681 0.60851c0.80747 0.33468 1.4681 0.69693 1.4681 0.80501s-0.65936 0.49837-1.4652 0.86731c-1.303 0.59654-1.5395 0.83306-2.1361 2.1361-0.36895 0.80589-0.75924 1.4652-0.86731 1.4652-0.10808 0-0.4576-0.62994-0.77671-1.3999zm-8.8609-2.0684c-1.8974-4.4072-2.3843-5.4491-2.7199-5.82-0.21258-0.23489-1.7524-1.0574-3.4218-1.8277-1.6694-0.77034-3.0353-1.5312-3.0352-1.6908s1.28-0.87543 2.8443-1.5907c1.5643-0.71532 3.0823-1.5202 3.3733-1.7885 0.29104-0.26838 1.1304-1.8262 1.8652-3.4619 0.73481-1.6357 1.4879-2.974 1.6736-2.974s0.9572 1.4288 1.7144 3.175l1.3768 3.175 3.3657 1.6407c1.8511 0.9024 3.3657 1.7395 3.3657 1.8603s-1.3587 0.85188-3.0193 1.6246c-1.6606 0.77277-3.2468 1.662-3.5247 1.9761-0.27795 0.3141-1.0156 1.7617-1.6393 3.2169-1.4527 3.3897-1.7067 3.6742-2.2188 2.4849zm1.2575-6.9766c0.39368-1.0308 0.64382-1.2813 1.759-1.761 0.71505-0.30761 1.3001-0.64333 1.3001-0.74606s-0.5861-0.46129-1.3025-0.79681c-1.1095-0.51964-1.3884-0.81059-1.8826-1.9635l-0.58012-1.3534-0.6654 1.4264c-0.57504 1.2327-0.84037 1.5003-1.9539 1.9707-0.70867 0.2994-1.2857 0.61004-1.2823 0.6903 0.0034 0.08026 0.59058 0.40254 1.3048 0.71618 1.1181 0.491 1.3789 0.75711 1.8769 1.9147 0.31809 0.73942 0.66578 1.2904 0.77264 1.2243 0.10686-0.06604 0.40082-0.66086 0.65324-1.3218z"/></g></svg>
