<?xml version="1.0" encoding="UTF-8"?>
<svg width="23.426mm" height="17.488mm" version="1.1" viewBox="0 0 23.426 17.488" xml:space="preserve" xmlns="http://www.w3.org/2000/svg"><g transform="translate(-16.272 -11.769)"><path transform="translate(16.272 11.769)" d="m12.039 8.5776v-6.0278l1.0282-0.57789c1.2829-0.72106 1.353-0.71893 1.353 0.0411 0 0.4035-0.23028 0.72391-0.66146 0.92037l-0.66146 0.30138v9.7529l0.9993-0.48281c1.0933-0.52824 3.1102-0.92598 6.0783-1.1987l1.9182-0.17625v-9.4713h-0.66146c-0.51349 0-0.66146-0.13589-0.66146-0.60748v-0.60748l2.5135 0.28891 0.07123 5.7289 0.07123 5.7289-2.8494 0.19015c-3.1621 0.21102-6.3147 0.91317-7.6577 1.7055l-0.88024 0.51935zm-2.161 5.098c-1.7308-0.87991-3.3243-1.206-6.8348-1.3988l-3.0427-0.16708v-11.377l1.9844-0.08295c3.732-0.15601 8.705 1.0016 9.1368 2.1269 0.07396 0.19273 0.10226 2.8651 0.06289 5.9387l-0.07158 5.5882zm0.17664-3.5456c0-0.59938-2.3722-1.3444-5.2543-1.6503-2.1175-0.2247-2.6496-0.21031-2.8268 0.07646-0.36432 0.58948-0.085 0.70448 2.1902 0.90178 1.2027 0.10429 2.8416 0.40527 3.642 0.66884 1.6681 0.54932 2.249 0.55015 2.249 0.0032zm0.07378-2.7166c-0.18413-0.59352-1.9213-1.2497-4.0765-1.5397-2.6651-0.35867-4.1994-0.2553-4.1994 0.28295 0 0.30613 0.51424 0.44213 2.249 0.5948 1.2369 0.10886 2.8443 0.3661 3.5719 0.57165 1.7119 0.48362 2.587 0.51581 2.455 0.09031zm-0.07378-2.5833c0-0.65984-3.1611-1.5455-5.84-1.6362-1.9588-0.06632-2.3621-0.01221-2.3621 0.3169 0 0.29919 0.45586 0.43768 1.8521 0.56266 2.2201 0.19873 4.6125 0.67703 5.1594 1.0315 0.54324 0.3521 1.1906 0.20263 1.1906-0.27489zm5.1594-0.32886v-3.6177l0.58528-0.31324c0.32191-0.17228 1.3935-0.37106 2.3812-0.44174l1.796-0.1285v7.5403l-0.7276-0.46788c-0.40018-0.25733-0.96174-0.62771-1.2479-0.82306-0.46826-0.31966-0.63365-0.24393-1.6536 0.75712l-1.1334 1.1123z"/><path d="m24.941 28.301-1.9844-0.97112-6.4823-0.17545v-2.4194l3.1378 0.16872c3.4394 0.18493 5.7044 0.7525 7.2824 1.8248l0.99414 0.67553 1.1058-0.61441c1.6519-0.91781 5.0143-1.723 7.9188-1.8963l2.5797-0.15394v2.4038l-6.4823 0.19638-2.0298 0.98735c-2.5609 1.2457-3.4494 1.2419-6.0399-0.02591z" style="fill-opacity:.73333"/></g></svg>
