<?xml version="1.0" encoding="UTF-8"?>
<svg width="23.81mm" height="25.699mm" version="1.1" viewBox="0 0 23.81 25.699" xml:space="preserve" xmlns="http://www.w3.org/2000/svg"><g transform="translate(-32.5 .041364)"><path transform="translate(33.25 14.313)" d="m0 0.2202 21.843-0.2202 0.74867 2.5983-0.7927 2.6864-2.6423 3.2149-3.8314 1.8056-5.3287 0.74867-5.4168-1.1891-3.7874-3.6552z" style="fill-opacity:.73333;stroke-width:.26458"/><path d="m41.23 25.38c-0.87312-0.20293-1.9122-0.49513-2.3091-0.64933-0.56658-0.22015-0.88379-0.18727-1.4768 0.15307-1.0804 0.62004-1.6371 0.31299-1.6425-0.90584-0.0036-0.81294-0.20162-1.1948-1.0562-2.0371-1.5994-1.5763-2.2453-3.1049-2.2453-5.3134 0-2.0748 0.58654-3.591 1.9774-5.1118 0.74632-0.81599 0.77508-0.91892 0.40454-1.4479-0.21939-0.31322-0.39889-0.83652-0.39889-1.1629 0-0.83995 1.3594-2.2839 2.6989-2.8667 0.62563-0.27221 1.1779-0.52185 1.2273-0.55476 0.049375-0.032905-0.39711-0.89348-0.99219-1.9124-1.2788-2.1895-1.3706-2.999-0.39089-3.4454 0.91759-0.41808 1.1399-0.21118 2.6774 2.4919l1.2479 2.1939 2.2559-0.14405c4.1825-0.26708 8.328 0.7877 10.127 2.5768 1.0801 1.074 1.247 1.8903 0.58099 2.8411-0.38683 0.55228-0.3631 0.63807 0.40055 1.4479 1.3946 1.479 1.9937 3.0098 1.9937 5.0942 0 2.2085-0.64594 3.7371-2.2453 5.3134-0.85461 0.84228-1.0526 1.2242-1.0562 2.0371-0.0054 1.2161-0.56185 1.5261-1.6344 0.91052-0.69845-0.40085-0.84623-0.39407-2.2705 0.10416-1.9876 0.69527-5.7519 0.8805-7.8735 0.38742zm7.0115-1.0046c3.6532-0.87791 6.5962-3.8901 7.0524-7.218 0.15711-1.1462 0.13743-1.1915-0.5185-1.1915-0.37499 0-0.75592-0.11991-0.84649-0.26646-0.09058-0.14656-0.52181-0.45114-0.95829-0.67685-0.75149-0.38861-0.8549-0.37447-1.9486 0.26646-1.4266 0.83607-2.6699 0.87298-3.4889 0.10359-0.77795-0.73084-1.9075-0.73084-2.9338 0-1.0397 0.74031-2.424 0.74031-3.3652 0-0.40083-0.3153-1.0575-0.57326-1.4592-0.57326-0.40175 0-1.0584 0.25797-1.4592 0.57326-0.92088 0.72437-2.3801 0.7431-3.4355 0.0441-0.43656-0.28912-0.88305-0.52646-0.99219-0.52742-0.33323-0.0029-0.19804 2.977 0.1836 4.0469 1.6837 4.7204 7.6241 6.9922 14.17 5.4192zm-0.20862-14.859c1.7104-0.40253 2.8545-1.052 2.8545-1.6205 0-0.56847-1.144-1.2179-2.8545-1.6205-1.6848-0.3965-6.1414-0.49275-6.1414-0.13265 0 0.12719 0.30784 0.78204 0.68408 1.4552l0.68408 1.224-0.88252-0.00361c-1.4616-0.0059864-2.0395-0.27631-2.6288-1.2298-0.52179-0.84427-0.60172-0.8821-1.1275-0.53362-2.705 1.7929 4.3798 3.6458 9.412 2.4615z"/></g></svg>
