<?xml version="1.0" encoding="UTF-8"?>
<svg width="46.75mm" height="45.193mm" version="1.1" viewBox="0 0 46.75 45.193" xml:space="preserve" xmlns="http://www.w3.org/2000/svg"><g transform="translate(-51.516 -158.7)"><path d="m76.555 203.29c-1.7899-0.94651-2.625-2.7425-2.625-5.6452v-2.2307l0.99219 0.1838c0.5457 0.10109 1.647 0.40978 2.4474 0.68596 0.80036 0.27619 2.1981 0.57316 3.1061 0.65994l1.6509 0.15778 0.66365-1.4496c0.365-0.79728 0.93499-2.511 1.2666-3.8083l0.60299-2.3587 1.8627-0.18657c2.6664-0.26707 3.1973-0.52612 3.5602-1.7372 0.24502-0.81782 0.21922-1.5315-0.12933-3.5777l-0.43542-2.5561 0.79189-2.5334c0.94384-3.0195 1.5401-4.0533 2.8674-4.9718 0.94053-0.65084 2.977-1.5028 3.5921-1.5028 0.15577 0-0.0845 0.38696-0.53391 0.8599-0.44943 0.47294-1.0712 1.3672-1.3817 1.9873-1.0767 2.15-1.3486 7.7362-0.37661 7.7362 0.54309 0 3.0008 1.0807 3.0008 1.3195 0 0.10782-0.54058 0.27014-1.2013 0.3607-2.0766 0.28462-2.2383 0.46813-2.2383 2.5396v1.82l1.6536 1.3167c1.5777 1.2563 2.8045 2.433 2.5364 2.433-0.0689 0-0.71244-0.17048-1.4301-0.37885-0.71764-0.20837-1.8458-0.45634-2.5071-0.55105l-1.2023-0.17219-1.1128 1.488c-0.61203 0.8184-1.1128 1.6205-1.1128 1.7825 0 0.16199 0.77633 1.7818 1.7252 3.5997 0.94884 1.8178 1.6872 3.3431 1.6409 3.3895-0.0464 0.0464-0.7824-0.33625-1.6356-0.85024-0.85324-0.51399-2.2568-1.2906-3.119-1.7259-1.71-0.86322-1.6172-0.8782-3.3739 0.54417l-0.66145 0.53557 1.1448 6e-3c1.4707 8e-3 2.6916 1.0997 2.6916 2.4078 0 0.81166-0.0246 0.83286-0.48385 0.41723-0.6497-0.58797-2.5131-0.5561-5.337 0.0913-3.1498 0.72211-5.4261 0.6939-6.9-0.0855zm-14.026-5.5502c-2.5487-2.8977-4.0712-5.4432-4.3688-7.3046-0.19391-1.2126 0.07311-1.3794 0.84433-0.52718 0.7373 0.81471 3.5487 2.8842 3.9182 2.8842 0.17473 0 0.77826-0.94467 1.3412-2.0993l1.0235-2.0993 1.4933 1.1732c0.82133 0.64528 1.5799 1.1732 1.6857 1.1732 0.10582 0 0.81279-0.41816 1.571-0.92925l1.3786-0.92924 0.19186 1.1277c0.11945 0.70206 0.4412 1.3452 0.8525 1.7039l0.66063 0.57625-1.1171 0.41126c-0.61439 0.2262-2.3034 0.82846-3.7533 1.3384s-2.9226 1.2135-3.2726 1.5635c-0.35302 0.35302-0.77055 1.2322-0.93776 1.9746l-0.30141 1.3383zm15.341-4.2476c-1.8477-0.76006-3.0645-1.6122-3.2823-2.2986-0.0919-0.28954-0.02754-0.94927 0.14301-1.4661 0.17056-0.51679 0.24666-1.0031 0.16911-1.0806-0.31952-0.31953-3.6933-1.4111-4.3614-1.4111-0.40733 0-1.1308 0.33742-1.6616 0.77497l-0.94018 0.77497-1.4352-1.1618c-0.78937-0.63897-1.5214-1.1663-1.6268-1.1718-0.10535-6e-3 -0.76793 0.81065-1.4724 1.8138-1.4862 2.1163-1.7748 2.1183-2.838 0.0203-0.6299-1.243-0.69178-1.2889-1.386-1.0272-2.529 0.95354-4.1283 2.5487-4.6774 4.6653l-0.32811 1.2646-0.8481-1.3229c-1.8581-2.8983-2.3445-6.5035-1.1812-8.7551 0.73493-1.4225 2.1096-2.3082 5.4668-3.5225 1.5746-0.5695 3.1096-1.2547 3.4112-1.5227 0.30161-0.26798 1.0562-1.275 1.6768-2.2378 1.6218-2.516 2.6412-3.1365 8.8716-5.401 3.8272-1.391 4.8516-2.1053 5.7108-3.9822 0.93316-2.0383 1.8536-2.2783 5.3204-1.3876 0.83833 0.21539 1.1009 0.40095 1.0153 0.7174-0.0635 0.23477-0.2584 1.0817-0.43301 1.8821-0.44448 2.0374-0.83983 2.5635-2.0845 2.7738-1.1971 0.20225-1.5462 0.52295-1.7602 1.617-0.17206 0.87986 0.25207 1.5544 1.1441 1.8195 0.48375 0.14377 0.83389-0.0622 1.8058-1.0622 1.1544-1.1878 1.2528-1.2331 2.3103-1.064 1.0112 0.16166 2.4678 0.86794 3.7128 1.8001 0.47272 0.35398 0.46109 0.42803-0.30421 1.9383-0.43764 0.86362-1.1012 1.855-1.4745 2.203-0.6074 0.56625-0.83399 0.61458-2.1539 0.45945-1.8294-0.21501-2.512 0.0993-2.512 1.1567 0 0.98212 0.64151 1.343 2.2775 1.2811 1.0904-0.0412 1.3361 0.0558 1.9877 0.78507 0.67779 0.75857 1.2508 2.2727 1.683 4.4475 0.15828 0.79645 0.12268 0.83551-1.0249 1.1245-0.65388 0.16465-1.9016 0.29936-2.7726 0.29936-1.7395 0-2.2366-0.30147-2.8271-1.7147-0.5571-1.3333-1.8912-2.2265-2.4664-1.6513-0.16325 0.16325-0.29682 0.76117-0.29682 1.3287 0 1.0655 0.7999 2.12 2.3718 3.1269 0.56273 0.36045 0.65107 0.61333 0.64515 1.8468-0.0084 1.7538-0.9066 3.9458-1.613 3.9365-0.26284-3e-3 -1.1455-0.28093-1.9616-0.61661zm-9.5527-12.871c3.9235-0.9406 4.554-1.5327 4.554-4.2763 0-0.97768-0.10176-1.8405-0.22612-1.9174-0.12437-0.0769-0.51132 0.17138-0.8599 0.55165-0.34858 0.38028-1.6029 1.1434-2.7874 1.6959-2.2131 1.0323-2.9139 1.7057-3.6779 3.5341-0.38335 0.91749-0.37813 0.94135 0.20553 0.93954 0.32938-1e-3 1.5856-0.23842 2.7917-0.52756zm-8.2964-6.9451c-0.94085-1.1134-1.8837-3.2559-2.4019-5.4579-0.43388-1.8438-0.37814-7.566 0.08873-9.1074 0.21288-0.70284 0.26918-0.63499 1.0979 1.3229 1.7823 4.211 4.0972 7.7652 5.9155 9.0824l1.012 0.7331-1.1672 0.68404c-1.1173 0.65475-3.3362 2.8998-3.3362 3.3755 0 0.46525-0.50392 0.20154-1.2088-0.63257z"/></g></svg>
