<?xml version="1.0" encoding="UTF-8"?>
<svg width="43.463mm" height="51.135mm" version="1.1" viewBox="0 0 43.463 51.135" xml:space="preserve" xmlns="http://www.w3.org/2000/svg"><g transform="translate(-10.057 -1.2005)"><path d="m29.366 52.109c-4.1538-0.53388-10.287-3.5884-13.199-6.5736-1.5693-1.6087-4.0868-5.4703-4.798-7.3596-1.2308-3.2697-1.6412-7.1782-1.0349-9.8557 0.26626-1.1758 2.1061-5.1079 2.2995-4.9145 0.0549 0.0549-0.08981 0.73664-0.32158 1.515-0.88656 2.9773-0.77188 8.2429 0.22213 10.199 0.23075 0.45404 0.296-0.27127 0.29757-3.3073 0.0018-3.5492 0.06612-4.0787 0.73615-6.0623 1.02-3.0197 2.8335-5.588 6.6853-9.4678 1.8076-1.8207 3.6028-3.7885 3.9895-4.3728 0.38667-0.5843 0.75054-1.0149 0.80861-0.95678 0.05807 0.05807-0.38727 1.2213-0.98963 2.5851-2.3049 5.2181-2.9061 6.7257-2.8339 7.1062 0.10785 0.56887 3.7808-4.5599 4.8293-6.7434 1.8613-3.8762 2.2359-7.6727 1.0756-10.902l-0.64598-1.798 0.66991 0.79375c0.93198 1.1043 2.371 4.1665 2.9218 6.2177 0.59649 2.2213 0.59842 5.7041 0.0044 7.9375-0.58439 2.1971-2.0374 5.1707-3.3219 6.7984-3.8069 4.8239-6.1056 9.9855-6.1214 13.745-0.0051 1.2139 0.94811 4.5919 1.2957 4.5919 0.1214 0 0.16057-1.0552 0.08703-2.345-0.24056-4.2191 0.82232-7.4135 4.0837-12.273 0.95218-1.4188 1.7721-2.5797 1.8221-2.5797 0.12831 0-1.0253 2.4574-1.5071 3.2102-0.22042 0.34444-0.70591 1.4002-1.0789 2.346-1.9834 5.0302-1.7282 10.496 0.64396 13.793 1.8734 2.6037 5.0698 4.7355 8.2497 5.5021 2.5284 0.60952 6.7638 0.31874 9.0066-0.61836 0.69535-0.29053 0.93892-0.55166 0.93443-1.0018-0.01069-1.0743-1.5386-6.8364-2.0433-7.7059-0.64476-1.1108-2.6378-2.175-5.1415-2.7454l-2.0315-0.46284 1.9599-0.46247c2.2983-0.54232 4.4109-1.5488 4.9919-2.3784 0.5967-0.85191 1.1297-2.5956 1.8472-6.0427 0.67906-3.2626 0.63584-3.2712 1.3597 0.2712 0.66476 3.2533 1.4006 5.4232 2.0368 6.0061 0.94276 0.86389 2.6775 1.6367 4.9003 2.1832 1.1267 0.27698 1.7336 0.51222 1.3487 0.52275-1.121 0.0307-4.2407 1.064-5.3131 1.7598-0.54217 0.35178-1.1621 0.90877-1.3777 1.2377-0.41348 0.63105-2.0022 6.6408-2.0022 7.5738 0 0.51949 0.06708 0.507 1.355-0.25237 0.74524-0.43941 1.3941-0.75978 1.442-0.71193 0.17532 0.17532-4.8252 3.5777-6.1062 4.1547-4.2675 1.9222-7.535 2.4228-12.037 1.8442zm3.2298-19.232c-0.89414-4.329-1.374-5.0058-4.0621-5.7289-0.77917-0.20961-1.3571-0.39316-1.2844-0.40789 0.07276-0.0147 0.89722-0.29045 1.8321-0.61272 2.1096-0.7272 2.4811-1.2215 3.2555-4.3322l0.60334-2.4233 0.61004 2.6116c0.70824 3.0321 1.1531 3.5638 3.6341 4.3442l1.5411 0.48473-1.4001 0.35831c-1.697 0.4343-2.7607 1.1517-3.1641 2.1341-0.16588 0.40396-0.51344 1.7241-0.77236 2.9337l-0.47076 2.1993zm7.7685-12.098c-0.35312-2.3271-0.77492-2.998-2.311-3.6759l-1.3846-0.61106 0.95995-0.18009c1.5536-0.29145 2.0556-0.89306 2.5692-3.0788l0.46306-1.9706 0.19033 1.054c0.44185 2.4469 0.74538 3.0582 1.7808 3.5864 0.55014 0.28066 1.1906 0.51029 1.4233 0.51029 0.6645 0 0.21956 0.44455-0.61125 0.61072-1.3266 0.26532-1.8746 0.97358-2.3934 3.0935l-0.4857 1.9844z"/></g></svg>
