<?xml version="1.0" encoding="UTF-8"?>
<svg width="42.02mm" height="51.59mm" version="1.1" viewBox="0 0 42.02 51.59" xml:space="preserve" xmlns="http://www.w3.org/2000/svg"><g transform="translate(-59.295 -94.385)"><path d="m73.061 133.08c-8.6152-12.828-8.6376-12.865-8.2078-13.542 1.3868-2.1874 1.6498-2.3996 2.9741-2.3996 1.6747 0 2.0668-0.47104 3.3454-4.0189l1.0192-2.8283 2.3981-0.83305c3.0884-1.0728 3.5887-1.5281 3.5887-3.2654 0-1.0812-0.13233-1.4666-0.71096-2.0705-0.39102-0.40815-0.86727-0.74209-1.0583-0.74209-0.19105 0-0.34737-0.0765-0.34737-0.17006 0-0.0935 1.2696-2.1166 2.8212-4.4958l2.8212-4.3257 8.4499 12.632c4.6475 6.9475 8.5014 12.81 8.5644 13.029 0.063 0.21828-0.92138 1.8852-2.1874 3.7042s-5.1211 7.5559-8.5668 12.749l-6.2649 9.4414zm15.97-12.767c3.9268 0 7.1397-0.0606 7.1397-0.13473 0-0.0741-3.2444-4.9854-7.2099-10.914l-7.2099-10.779-0.0691 10.777-0.0691 10.777-13.885 0.141 2.1658 1.1664c2.8988 1.5611 5.7398 3.786 7.2873 5.7069 1.1122 1.3805 2.4781 3.8565 4.0902 7.4142 0.47811 1.0551 0.47978 1.0352 0.54977-6.5484l0.0702-7.6068zm6.047 24.937c-0.15721-0.40019-0.55507-1.4328-0.88414-2.2947l-0.59831-1.5671-2.0285-0.79216c-1.1157-0.43569-1.9352-0.88312-1.8213-0.9943 0.11395-0.11117 0.98109-0.48903 1.927-0.83969l1.7198-0.63756 0.94281-2.2858c0.51855-1.2572 1.0064-2.3495 1.0842-2.4272 0.0778-0.0778 0.62627 0.96166 1.2189 2.3098l1.0776 2.4512 1.7346 0.67727c0.95405 0.3725 1.7912 0.7338 1.8602 0.80288 0.0691 0.0691-0.80973 0.45795-1.9529 0.86413l-2.0785 0.73853-0.85142 2.3612c-0.46827 1.2987-0.89928 2.3612-0.9578 2.3612-0.0585 0-0.23502-0.32742-0.39223-0.7276zm-28.826-33.821-1.17-3.0632-5.7869-2.2564 1.9674-0.73979c3.8402-1.444 3.5208-1.1895 4.5344-3.6138 0.50877-1.2169 1.086-2.6591 1.2827-3.2048s0.42981-0.99219 0.51799-0.99219c0.0882 0 0.79702 1.4294 1.5752 3.1765 0.77818 1.7471 1.5453 3.2771 1.7048 3.4 0.15944 0.12295 1.1858 0.54516 2.2808 0.93825 1.095 0.39309 2.1344 0.80336 2.3097 0.91171 0.1867 0.11539-0.85762 0.60675-2.5211 1.1862l-2.8398 0.98919-1.1592 3.1657c-0.63757 1.7412-1.2418 3.1657-1.3426 3.1657s-0.70987-1.3784-1.3534-3.0632zm28.723-10.745c-0.45792-1.1849-0.66627-1.4081-1.6486-1.7663-0.61846-0.22546-1.1245-0.48554-1.1245-0.57795 0-0.09241 0.48163-0.31232 1.0703-0.48869 0.67429-0.20202 1.1528-0.53567 1.2932-0.90178 0.12259-0.31961 0.40095-0.99783 0.61858-1.5072l0.3957-0.92604 0.67939 1.4995c0.55395 1.2227 0.85278 1.5622 1.6184 1.8391 0.51647 0.18676 0.93903 0.41564 0.93903 0.50864 0 0.093-0.47331 0.32529-1.0518 0.51621-0.89705 0.29606-1.1176 0.52611-1.4989 1.5637-0.24592 0.66911-0.51901 1.3022-0.60685 1.4068-0.0878 0.10462-0.39558-0.42013-0.68387-1.1661z"/></g></svg>
