<?xml version="1.0" encoding="UTF-8"?>
<svg width="44.938mm" height="32.539mm" version="1.1" viewBox="0 0 44.938 32.539" xml:space="preserve" xmlns="http://www.w3.org/2000/svg"><g transform="translate(-52.833 -73.41)"><path d="m56.041 105.83c-1.2549-0.30707-2.2248-1.1034-2.45-2.0114-0.30732-1.2391-0.75745-6.37-0.75745-8.6339 0-1.7013 0.12198-2.3202 0.67073-3.4031 0.80593-1.5904 2.3283-3.3332 3.1202-3.572 0.8737-0.26347 2.0084-1.444 2.5374-2.64 0.72303-1.6345 2.0351-2.9868 3.0902-3.1847 0.68746-0.12897 1.3249-0.62851 2.5937-2.0325 1.6141-1.7862 1.7439-1.8699 3.2061-2.0683 1.2533-0.17008 1.701-0.37979 2.5217-1.1812 0.59951-0.58541 1.0651-1.3327 1.1663-1.8719 0.34205-1.8233 2.0908-2.2299 6.13-1.4251 2.0553 0.40949 3.7086 0.95683 5.7876 1.9161 2.2081 1.0188 3.3573 1.3888 4.7625 1.5334 2.4484 0.25186 6.5489 1.8136 7.7057 2.9348 1.0952 1.0615 1.7949 3.0608 1.6187 4.6247-0.0765 0.67906-0.53961 1.8429-1.1199 2.8147-0.7522 1.2597-0.98435 1.9289-0.96836 2.7914 0.01156 0.62394 0.08887 1.2442 0.17181 1.3784 0.08293 0.13419 0.06869 1.5138-0.03165 3.0658-0.15015 2.3224-0.28112 2.9365-0.74005 3.4701-0.50312 0.58492-1.6432 0.86683-11.667 2.8848-12.035 2.423-23.025 4.4748-25.132 4.6922-0.7276 0.0751-1.725 0.0381-2.2165-0.0822zm5.1565-3.8469c7.7203-1.3635 14.488-2.7446 16.968-3.4628 3.2508-0.94138 6.44-1.4287 9.3505-1.4287 2.3016 0 3.8772-0.30474 3.9815-0.77007 0.01923-0.08578 0.05156-1.6145 0.07185-3.3971 0.03555-3.1231 0.01675-3.2411-0.5161-3.2411-1.0198 0-3.2782 0.80529-4.6647 1.6633l-1.374 0.85027-3.7213-0.06063c-2.0467-0.03334-4.0956-0.12565-4.553-0.20513-0.63856-0.11095-1.016 0.01062-1.6257 0.52364-0.50802 0.42747-1.1139 0.66661-1.6819 0.66389-1.0054-0.0048-4.9975 0.83392-7.767 1.6319-2.518 0.72547-4.7176 0.98853-8.4005 1.0046l-3.1089 0.01359v0.68251c0 2.0705 0.61422 5.8254 1.0028 6.1305 0.53409 0.41933-0.05771 0.47799 6.0382-0.5986zm1.4256-7.0893c0.50932-0.17369 0.91414-0.46462 0.89958-0.64652-0.01455-0.1819-0.04432-0.55938-0.06615-0.83884-0.03311-0.42395-0.32482-0.53864-1.7612-0.69246-1.2186-0.13051-1.8369-0.08855-2.1167 0.14363-0.46057 0.38224-0.50991 1.142-0.1213 1.8681 0.31982 0.59759 1.6896 0.66947 3.1657 0.16611zm10.848-3.1861 1.1906-0.56924-0.0096-1.4552c-0.01432-2.1642-0.64336-4.7118-1.3794-5.5866-1.2871-1.5296-3.6204-0.71754-3.5983 1.2523 0.03209 2.855 0.4669 6.5229 0.81446 6.8705 0.44388 0.44388 1.2854 0.29947 2.9822-0.51177zm-5.4779-0.24326c0.84345-0.21696 1.598-0.45891 1.6768-0.53768 0.18427-0.18427-0.40589-3.0481-0.66057-3.2055-0.10603-0.06553-1.5565 0.05038-3.2233 0.25758-1.6668 0.2072-3.7449 0.38064-4.6181 0.38543-2.6428 0.01449-3.5638 0.3515-4.9609 1.8151-0.69122 0.72414-1.2568 1.4576-1.2568 1.63 0 0.46887 11.011 0.17766 13.043-0.34494zm16.115-1.9016c2.4681-0.16749 5.3177-0.80158 6.5385-1.4549 0.46404-0.24835 0.56529-0.50539 0.5006-1.2709-0.07085-0.83838-0.19166-0.98804-0.95656-1.1849-0.52049-0.13397-1.6469-0.11026-2.7781 0.0585-6.0024 0.89543-7.6817 1.1098-9.774 1.2477-2.5706 0.1694-2.6175 0.21886-2.0585 2.1679 0.51945 1.8112 0.76901 1.8972 3.5263 1.2141 1.3391-0.33176 3.5899-0.68158 5.0017-0.77739zm-21.28-3.1799c0.40116-2.1147 0.41322-3.2284 0.03748-3.4607-0.4377-0.27051-2.0325 1.4255-2.7398 2.9137-0.83693 1.7609-0.58878 2.2598 1.1241 2.2598h1.2533zm30.016-2.0602c-0.98668-1.7022-3.6409-3.3579-6.2447-3.8953-0.85595-0.17667-2.7609-0.83567-4.2333-1.4645-3.0874-1.3185-3.1833-1.3456-6.4653-1.8305-1.4308-0.21138-2.6611-0.5414-2.9319-0.78648-0.25663-0.23225-0.54624-0.34263-0.64357-0.2453-0.41891 0.41892-0.11005 1.1353 0.78319 1.8166 0.9211 0.70256 2.7471 1.2039 7.1936 1.975 0.78766 0.13659 2.5221 0.83108 3.9406 1.5779 1.6301 0.85817 2.8608 1.3339 3.4507 1.3339 0.76974 0 1.199 0.27378 2.6728 1.7048l1.7558 1.7048 0.58855-0.55291c0.57071-0.53615 0.57475-0.57672 0.13343-1.3381zm-7.7873 1.0639c0.48678-0.40399 0.26976-2.1726-0.35072-2.8582-0.59223-0.65441-2.6269-1.4227-3.1928-1.2056-0.38077 0.14612-0.4232 0.45324-0.29563 2.14 0.08192 1.0832 0.23395 2.1069 0.33785 2.275 0.23432 0.37913 2.9494 0.10678 3.5013-0.35121zm-16.48-2.15c1.3097-0.22142 3.9291-0.53014 5.8208-0.68605 4.0046-0.33003 4.9963-0.55091 5.1094-1.1379 0.04528-0.23501-0.20314-0.61433-0.55204-0.84294-1.2616-0.82663-9.7593-0.32607-12.825 0.75543-1.3319 0.46994-2.7567 1.4789-2.6302 1.8626 0.0976 0.29604 1.6368 0.6476 2.2985 0.525 0.21828-0.04045 1.4684-0.2547 2.7781-0.47612zm4.2995-3.5011c0.47294-0.07175 0.8599-0.24954 0.8599-0.39508 0-0.38343-1.2383-1.5634-1.6416-1.5642-0.66443-0.0014-2.5917 1.1957-2.5917 1.6098 0 0.81222 0.19211 0.83212 3.3734 0.34947z"/></g></svg>
