<?xml version="1.0" encoding="UTF-8"?>
<svg width="39.344mm" height="50.399mm" version="1.1" viewBox="0 0 39.344 50.399" xml:space="preserve" xmlns="http://www.w3.org/2000/svg"><g transform="translate(-21.406 -97.128)"><path d="m33.628 147.03c-2.964-0.84747-5.046-2.0893-7.3413-4.3786-2.3455-2.3395-3.7212-4.7195-4.5093-7.8014-0.64967-2.5405-0.41802-7.1965 0.47743-9.5957 1.8994-5.0893 5.5731-8.6572 10.762-10.452 1.7319-0.59903 2.4515-0.696 5.2024-0.70101l3.1925-6e-3 2.3719-3.583c2.2658-3.4226 2.3611-3.6252 2.1303-4.5275-0.29318-1.146 0.33455-2.6913 1.3685-3.3687 1.3334-0.87368 2.2966-0.5957 6.6296 1.9133 4.5423 2.6302 5.1748 3.274 4.9574 5.0457-0.16141 1.3152-1.6103 2.7783-2.7515 2.7783-0.67286 0-0.95374 0.34504-2.9143 3.58-1.1933 1.969-2.1697 3.6797-2.1697 3.8014 0 0.12177 0.53155 1.0141 1.1812 1.9829 1.3954 2.081 2.4296 5.1411 2.6597 7.8699 0.66404 7.8766-4.9019 15.574-12.694 17.554-2.1678 0.55105-6.4283 0.4951-8.5527-0.11233zm8.0236-1.2106c5.5282-1.4052 9.9577-5.7425 11.359-11.122 0.5095-1.9561 0.5166-5.8909 0.01404-7.7794-0.52532-1.974-1.7631-4.4134-2.9329-5.7798l-0.97382-1.1376 2.746-4.5509c2.5635-4.2485 2.7942-4.5459 3.4704-4.4749 1.4841 0.1557 2.5941-1.156 2.0286-2.3972-0.33012-0.72453-7.5438-4.9548-8.4492-4.9548-0.33904 0-0.83418 0.19705-1.1003 0.43788-0.54496 0.49318-0.64958 1.9364-0.1748 2.4112 0.23569 0.23569-0.40476 1.3835-2.6978 4.8351l-3.0068 4.5261-0.90613-0.16999c-0.49837-0.0935-1.9713-0.16494-3.2732-0.15877-5.5627 0.0264-10.633 3.1652-13.295 8.2298-1.336 2.5425-1.82 4.861-1.6563 7.9346 0.1661 3.1191 0.86395 5.2103 2.6097 7.8205 2.0208 3.0213 5.3353 5.3588 8.9517 6.3129 1.9243 0.50768 5.3269 0.51604 7.2866 0.0179zm-6.6251-1.8193c-2.2638-0.55279-4.3193-1.667-5.9569-3.229-3.1115-2.9679-4.2982-5.6478-4.3239-9.7644-0.01297-2.0775 0.11102-3.0214 0.57722-4.3943 1.4899-4.3876 4.2661-6.8418 7.7463-6.8479 2.8276-5e-3 3.7303 1.1062 5.6942 7.0089 1.5829 4.7576 2.4304 6.4246 3.9435 7.7565 1.4226 1.2522 3.1348 1.8906 5.7086 2.1284l1.8321 0.16929-0.90324 1.3229c-3.302 4.8362-8.9756 7.1542-14.318 5.8497zm-5.2917-10.748c0-0.46896-0.16126-0.68084-0.56164-0.73797-0.67248-0.096-1.0413 0.64164-0.59174 1.1834 0.47439 0.5716 1.1534 0.30941 1.1534-0.44538zm-1.0772-3.5872c0.55741-0.55741 0.52365-1.0638-0.11339-1.7009-0.64366-0.64366-1.0004-0.66361-1.6328-0.0913-0.55273 0.50021-0.63392 1.4229-0.16635 1.8904 0.44523 0.44523 1.4191 0.39518 1.9126-0.0983zm3.8362-3.721c0.68605-0.87217 0.68605-1.1731 0-2.0453-0.71818-0.91302-2.1412-0.96961-2.7439-0.10911-1.3499 1.9273 1.2913 4.0011 2.7439 2.1544zm22.198-22.411c-3.4763-2.0497-3.6578-2.1988-3.6578-3.0051 0-0.89288 1.2673-2.9773 2.0181-3.3194 0.53603-0.24423 1.0459-0.03527 3.8638 1.5834 1.8526 1.0642 3.4093 2.1464 3.6261 2.5209 0.35213 0.60828 0.31271 0.76958-0.54024 2.2103-1.2695 2.1444-1.6886 2.1451-5.3099 0.01z"/></g></svg>
