<?xml version="1.0" encoding="UTF-8"?>
<svg width="27.969mm" height="46.234mm" version="1.1" viewBox="0 0 27.969 46.234" xml:space="preserve" xmlns="http://www.w3.org/2000/svg"><g transform="translate(-74.192 -76.766)"><path d="m85.128 122.7c-1.9825-0.45199-3.98-1.4211-5.7637-2.7963-5.7949-4.4678-6.8999-13.279-2.4005-19.143l0.98723-1.2865-0.6501-0.69783c-0.86368-0.92707-1.2439-1.7053-1.2439-2.5457 0-1.5717 1.5641-3.3115 2.977-3.3115 0.64104 0 0.76462-0.09296 0.65924-0.49592-0.87254-3.3366-2.0862-9.6255-1.8938-9.8138 0.13311-0.13024 2.4947-1.4982 5.248-3.0399l5.006-2.8031 5.513 2.9674c4.1197 2.2175 5.4819 3.0717 5.3899 3.3799-0.26153 0.87634-1.9972 9.069-1.9972 9.4271 0 0.20797 0.1845 0.37813 0.41001 0.37813 0.76413 0 1.9604 0.79908 2.3636 1.5788 0.22075 0.42687 0.40136 1.3297 0.40136 2.0064 0 1.0355-0.13613 1.3661-0.8599 2.0886l-0.85989 0.8584 1.108 1.5032c1.352 1.8342 2.1438 3.8768 2.5238 6.5103 0.70779 4.9054-1.9023 10.513-6.1675 13.25-3.1044 1.9921-7.3123 2.7691-10.751 1.9852zm6.4614-5.2174c2.111-0.78984 4.2774-2.9692 5.0877-5.1183 0.48986-1.2992 0.57841-1.9698 0.49024-3.7132-0.13062-2.5824-0.83759-4.2142-2.5782-5.9506-1.7173-1.7132-3.385-2.4327-5.9644-2.5733-2.9863-0.16276-4.7303 0.51938-6.919 2.7062-1.3743 1.3732-1.7137 1.9056-2.1828 3.4245-0.66369 2.1488-0.69437 3.2822-0.14076 5.2005 0.87959 3.0478 3.2174 5.4426 6.1981 6.3492 1.407 0.42798 4.4342 0.26426 6.0091-0.32498zm2.8068-23.718c0.59583-0.62192 0.87666-1.4905 1.7323-5.3578 0.56165-2.5386 0.93605-4.7114 0.832-4.8285s-1.1043-0.13003-2.2227-0.02868c-1.4677 0.133-2.0942 0.30269-2.2514 0.60983-0.11985 0.23405-0.49839 2.4198-0.84119 4.8573l-0.62327 4.4318h-2.8522c-1.5687 0-2.8539-0.0893-2.8558-0.19844-2e-3 -0.10914-0.2971-2.1034-0.65581-4.4318-0.35871-2.3283-0.65474-4.3792-0.65785-4.5575-4e-3 -0.23972 1.1055-0.34312 4.2594-0.39688l4.265-0.0727-1.9044-2.427c-1.0474-1.3349-2.0524-2.4838-2.2333-2.5532-0.42929-0.16473-8.7346 4.4723-8.8347 4.9326-0.15906 0.73121 2.0163 9.746 2.4738 10.252 0.42997 0.47511 0.86292 0.51166 6.0611 0.51166h5.598z"/></g></svg>
