<?xml version="1.0" encoding="UTF-8"?>
<svg width="24.624mm" height="22.443mm" version="1.1" viewBox="0 0 24.624 22.443" xml:space="preserve" xmlns="http://www.w3.org/2000/svg"><g transform="translate(-4.7045 -7.7183)"><path d="m24.943 29.985c-0.09701-0.09701-0.17639-0.42788-0.17639-0.73525 0-0.33459-0.66657-1.2195-1.661-2.2051l-1.661-1.6463-1.6463 1.661c-0.90544 0.91356-1.6463 1.8067-1.6463 1.9846 0 0.17799-0.14883 0.32524-0.33073 0.32722-0.1819 2e-3 -0.59862 0.0754-0.92604 0.16315-0.54679 0.14653-0.59531 0.07076-0.59531-0.92965 0-0.71438 0.11774-1.0892 0.34217-1.0892 0.4256 0 8.1245-7.7286 8.1245-8.1558 0-0.1789 0.39314-0.31088 0.92604-0.31088 0.87848 0 0.92604 0.04664 0.92604 0.90821 0 0.63811-0.13993 0.95262-0.47053 1.0576-0.25879 0.08214-1.1778 0.86407-2.0422 1.7376l-1.5717 1.5883 1.5792 1.6034c0.86857 0.8819 1.8961 1.6686 2.2834 1.7482 0.70827 0.14557 1.0049 0.69475 1.012 1.8739 0.0032 0.52633-0.12924 0.59531-1.1429 0.59531-0.63059 0-1.2259-0.07937-1.3229-0.17639zm-18.564-0.61527c-0.25555-0.41349 0.05361-0.77259 3.6371-4.2246 2.8921-2.786 3.4323-3.2015 3.7837-2.9098 0.83388 0.69206 0.27991 1.4711-3.1618 4.4466-3.3056 2.8578-3.9159 3.2429-4.259 2.6878zm9.5462-5.5397 0.17302-1.3043-4.3384-4.5992c-4.2709-4.5277-5.304-5.9618-6.6559-9.2394l-0.39967-0.969 0.969 0.39967c3.278 1.352 4.7116 2.3848 9.2422 6.6586l4.602 4.3411 2.6029-0.30827v1.021c0 0.97898-0.05082 1.0383-1.2347 1.4417l-1.2347 0.42069-2.8002-2.724c-1.5401-1.4982-3.3828-3.1225-4.0948-3.6096l-1.2946-0.88562 0.50087 0.89759c0.27548 0.49368 1.8996 2.336 3.6092 4.0941l3.1084 3.1965-0.42126 1.2363c-0.40603 1.1916-0.45897 1.2363-1.4638 1.2363h-1.0426zm3.5494-6.9866c0-1.4959 0.37601-1.7131 3.1324-1.8093 2.223-0.07758 2.5217-0.14891 2.9766-0.71086 0.64424-0.79587 0.65526-2.2006 0.02177-2.774-0.66069-0.59792-1.7138-0.55018-2.3063 0.10454-0.41223 0.45551-0.44368 0.66748-0.19628 1.3229 0.2941 0.77916 0.29289 0.78049-0.71244 0.78049-1.1467 0-1.3302-0.26886-1.3243-1.9399 0.0053-1.4884 0.46491-2.2968 1.7209-3.0265 0.83172-0.48324 1.3478-0.59097 2.4533-0.51209 2.4208 0.17274 3.7264 1.6633 3.9554 4.5158l0.13316 1.6589-1.4214 1.2456c-1.639 1.4364-2.3211 1.6532-5.8531 1.861l-2.5797 0.15174z"/></g></svg>
