<?xml version="1.0" encoding="UTF-8"?>
<svg width="13.229mm" height="15.198mm" version="1.1" viewBox="0 0 13.229 15.198" xml:space="preserve" xmlns="http://www.w3.org/2000/svg"><g transform="translate(-48.579 -82.396)"><path d="m55.259 89.279c-0.07785-5.2783-0.07785-5.2939-0.07785-5.2939l1.884-0.84079 3.0362-0.12456 0.28026 0.14013 0.04671 5.1849z" style="fill:#fbfaf6;stroke-width:.26458"/><rect x="49.731" y="83.207" width="5.2783" height="5.652" rx="1.0666" ry=".75515" style="fill:#fbfaf6;stroke-width:.26458"/><path d="m52.145 91.07-0.90307 3.7368 7.8629 0.06228-0.09342-1.6037-0.79408-2.2265z" style="fill:#fbfaf6;stroke-width:.26458"/><path d="m50.167 95.648-1.3079 1.5259 12.472-0.01558-1.5726-1.7283z" style="fill:#fbfaf6;stroke-width:.26458"/><path d="m49.801 88.423-0.02336 1.6115 5.4729 0.87193 5.0608-0.85751 0.06606-1.6625-2.9396 0.12111-2.3451 0.85876-2.5763-0.85876z" style="fill:#cbcbcb;stroke-width:.26458"/><path d="m48.579 97.114c0-0.5961 1.3269-1.9016 1.9327-1.9016h0.44854v-2.3165l0.39688-0.32938c0.21828-0.18116 0.39688-0.66326 0.39688-1.0713v-0.74195l0.46302-0.121c0.25466-0.06655-0.26416-0.13481-1.1529-0.15169l-1.616-0.03069c-0.03935-7.3086-0.01817-4.7235-0.03352-7.9866l2.1505 0.11855c1.0901 0.06009 2.322 0.32692 2.7409 0.54354l0.76161 0.39385 0.75108-0.39353c0.4131-0.21644 1.6436-0.46104 2.7345-0.54354l1.9834-0.15001 0.30086-0.0365c-0.03661 3.7779-0.16311 8.0543-0.16311 8.0543l-1.616 0.03603c-0.88878 0.01982-1.3481 0.08763-1.0206 0.15069l0.59531 0.11466v0.74295c0 0.40862 0.17859 0.89117 0.39688 1.0723l0.39688 0.32938v2.3165h0.47966c0.5961 0 1.9016 1.3269 1.9016 1.9327v0.44854h-13.229zm11.906-0.71096-0.62141-0.66146h-9.3405l-1.2428 1.3229h11.826zm-7.1438-3.1657v-1.4459l-1.0583-0.5664v0.77066c0 0.42386-0.17859 0.91888-0.39688 1.1-0.21828 0.18116-0.39688 0.61246-0.39688 0.95844v0.62906h1.8521zm2.3812 0.12298v-1.3229h-1.0583v2.6458h1.0583zm3.175 0.69386c0-0.34598-0.17859-0.77728-0.39688-0.95844s-0.39688-0.67618-0.39688-1.1v-0.77066l-1.0583 0.5664v2.8918h1.8521zm-2.4776-3.7349c0.41682-0.21738 1.4425-0.39598 2.2792-0.39688l1.5214-0.0016v-1.3061s-1.6462-0.20843-2.7795 0.1697c-1.5096 0.50367-1.4018 0.68932-2.4148 0.94764l-0.99991-0.31948c-0.49545-0.2363-0.99154-0.52992-1.5328-0.656-0.84258-0.19627-2.5917-0.13832-2.5917-0.13832l4.5e-4 0.8053 4.51e-4 0.3649 1.4151 0.04921c0.77831 0.02707 1.8199 0.22571 2.3147 0.44144 1.1763 0.51289 1.8621 0.52277 2.7875 0.04015zm-1.7557-3.8516v-2.3948l-0.91754-0.38337c-0.50465-0.21086-1.5762-0.38337-2.3812-0.38337h-1.4637v4.7625l1.5214 0.01193c0.83674 0.0066 1.8785 0.17549 2.3151 0.37539 0.43656 0.1999 0.82352 0.37312 0.8599 0.38494 0.03638 0.01182 0.06615-1.0561 0.06615-2.3733zm4.0925 1.601h1.4637v-4.8336l-1.796 0.1285c-0.98778 0.07068-2.0593 0.26946-2.3812 0.44174l-0.58528 0.31324v4.7169l0.91754-0.38337c0.50465-0.21086 1.5762-0.38337 2.3812-0.38337z" style="fill:#1a1a1a"/></g></svg>
