<?xml version="1.0" encoding="UTF-8"?>
<svg width="12.708mm" height="14.438mm" version="1.1" viewBox="0 0 12.708 14.438" xml:space="preserve" xmlns="http://www.w3.org/2000/svg"><g transform="translate(-4.2546 -6.205)"><path d="m4.2546 20.639c0-0.10118 0.31993-0.70506 0.71096-1.1132l0.71096-0.74208h9.8562l0.71096 0.74208c0.39103 0.40814 0.80435 1.1168 0.70318 1.1168-2.861-2.8e-5 -2.8497-0.0068-6.3422-0.0068-3.4925 0-2.0121-0.0057-6.35 0.0032zm2.3813-3.2781c0-0.4915 0.17859-1.0419 0.39688-1.223 0.21828-0.18116 0.39688-0.67199 0.39688-1.0907 0-0.8116 0.25454-1.2682 1.0757-0.82876l0.51177 0.27389v3.7623h-2.3812zm3.175-0.69386v-1.8848h1.5875v3.4723h-1.5875zm2.3813-0.12298 0.02202-1.9637 0.53379-0.31793c0.8002-0.47661 1.0317-0.02687 1.0317 0.78472 0 0.41874 0.17859 0.90957 0.39688 1.0907 0.21828 0.18116 0.39688 0.73152 0.39688 1.223v0.89364h-2.3812zm-2.8522-2.6706c-0.32377-0.22678-1.4218-0.48217-2.4401-0.56754l-1.8514-0.15522v-0.4657l-0.01101-0.60883c1.8962 0.15629 3.727 0.36709 5.3973 1.3018 1.6624-1.0286 3.5931-1.0803 5.4836-1.3041l-0.02202 0.57912v0.50206l-1.7197 0.13804c-0.94585 0.07592-2.0132 0.33035-2.3719 0.56539-0.82284 0.53914-1.7087 0.54454-2.4647 0.01502zm0.13778-1.6157c-0.40151-0.21142-1.5663-0.45452-2.5885-0.54021l-1.8585-0.15581c-0.027957-5.3639-0.00259-0.05884-0.0042-5.3567l1.8499 0.091217c0.9326 0.045985 2.0935 0.2464 2.5797 0.44952l0.88389 0.36931v2.7916c0 1.5354 0.0473 2.8671 0.01092 2.8516-0.03638-0.01544-0.47173-0.28913-0.87324-0.50055zm1.1269-2.3215v-2.7756c1.5739-0.97551 3.507-0.90964 5.3027-0.94292l-0.01101 2.7663v2.5792l-1.8322 0.15361c-1.0077 0.08448-2.1984 0.34294-2.6458 0.57434l-0.8136 0.42073z"/></g></svg>
