<?xml version="1.0" encoding="UTF-8"?>
<svg width="14.288mm" height="11.06mm" version="1.1" viewBox="0 0 14.288 11.06" xml:space="preserve" xmlns="http://www.w3.org/2000/svg"><g transform="translate(-118.53 -89.638)"><rect transform="translate(1.0208e-6)" x="123.48" y="91.787" width="6.9443" height="3.9548" rx=".87227" ry=".81275" style="fill-opacity:.8;fill:#444447;stroke-width:.28628"/><path d="m120.65 98.9c0-0.2743-0.29437-0.63285-0.65416-0.79678s-0.72988-0.59976-0.82243-0.96851c-0.0926-0.36875-0.27443-0.67046-0.40418-0.67046-0.12974 0-0.2359-0.17265-0.2359-0.38367 0-0.28149 0.40518-0.4048 1.5214-0.46302l1.5214-0.07935-0.01-2.1828c-5e-3 -1.2005 0.0802-2.1722 0.18913-2.1828 0.33763-0.03303 0.47984-0.12856 0.56427 0.23489 0.14712 0.63337 0.18239 1.5558 0.18239 2.2613v1.4726h8.7312l4e-3 -1.3891c5e-3 -1.7769-0.0457-2.5852 0.35261-2.5852 0 0 0.44489-0.06407 0.48131 0.03303 0.17349 0.46248 0.11566 1.097 0.11566 1.097-0.0757 0.61846-0.20829 1.8717-0.2947 2.7849l-0.1571 1.6604 0.54306 0.6904c0.29869 0.37972 0.54307 0.97741 0.54307 1.3282 0 0.84133-0.78024 1.9702-1.9844 1.9367-1.3985-0.0389-1.9844-1.0603-1.9844-1.7078v-0.4089h-4.2333v0.4089c0 0.64747-0.81393 1.6822-1.9844 1.7078-1.2895 0.0282-1.8157-0.8305-1.9845-1.7976zm2.6902 0.31405c0.22056-0.27249 0.11965-0.8471-0.0945-1.0612-0.79262-0.79261-1.9752 0.24328-1.2606 1.1043 0.4114 0.4957 1.1346 0.22934 1.3551-0.04304zm8.2571-0.16515c0.12241-0.19397 0.0646-0.68195-0.14956-0.89608-0.79261-0.79261-1.9752 0.24328-1.2606 1.1043 0.4114 0.4957 1.0232 0.40491 1.4102-0.20819zm-9.889-2.3611c0-0.12297-1.6081 0.0048-2.1902 0.0048 0.1935 0.37758 0.0382 0.34017 0.43981 0.70845l0.79448 0.37538 0.47794-0.43253c0.26287-0.23789 0.47794-0.53314 0.47794-0.6561zm1.1906-5.7375c-1.2693-0.23164-1.7198-0.48244-1.7198-0.9575v-0.3548h11.112v0.47186c0 0.29861-0.26714 0.53208-0.7276 0.63586-1.1763 0.26514-7.5134 0.41475-8.6651 0.20457z"/></g></svg>
