<?xml version="1.0" encoding="UTF-8"?>
<svg width="19.118mm" height="16.236mm" version="1.1" viewBox="0 0 19.118 16.236" xml:space="preserve" xmlns="http://www.w3.org/2000/svg"><g transform="translate(-75.976 -107.09)"><path d="m88.254 116.2 2.1579-1.0349c-1.7192-2.2633-1.5739-2.1614-2.6423-2.9726-2.0499-1.5564-3.2552-2.0076-4.8893-2.3786l-0.96794-0.21974-2.268 0.44039 1.5193 0.96886 3.0387 1.101z" style="fill-opacity:.8;fill:#242628;stroke-width:.26458"/><path d="m84.046 122.75c0-0.67061 0.44846-1.2436 0.97336-1.2436 0.25192 0 0.2215 0.23492-0.11906 0.91954-0.5307 1.0668-0.8543 1.1896-0.8543 0.32401zm6.3976-0.44294c-0.78854-0.78855-1.6351-2.7789-1.6351-3.8443 0-0.58717 1.2423-1.917 1.7612-1.917 0.41496 0 0.30776 2.3451 2.0588 3.9896 0.91748 0.86166 0.88834 2.1566 0.25934 2.398-0.88118 0.33814-1.6862 0.13189-2.4443-0.6263zm-9.8371 0.0715c-0.94583-0.34416-1.8521-1.5072-1.8521-2.3768 0-1.1533 0.63632-1.162 1.2135-0.0166 0.23831 0.47294 0.8005 1.2468 1.2493 1.7198 0.70258 0.74034 0.74444 0.85699 0.30111 0.83901-0.28321-0.0115-0.69352-0.0859-0.9118-0.1653zm2.1193-3.6503c-0.0078-0.29104-0.24455-1.0366-0.52605-1.6568-0.50083-1.1034-0.501-1.1218-0.0078-0.85785 0.56697 0.30343 1.325 1.2927 1.325 1.7292 0 0.15809-0.17481 0.51855-0.38846 0.80103-0.38331 0.50678-0.38865 0.50657-0.40268-0.0156zm4.9389-2.395c-0.70213-1.4724-2.7148-3.444-4.2649-4.178-1.7834-0.8444-4.3312-1.3145-6.0758-1.121l-1.3477 0.14944 1.5513-0.77291c4.1098-2.0476 9.0825-1.5075 12.954 1.4071 1.669 1.2564 2.1139 1.7808 2.6991 3.1814l0.38096 0.91176-1.4204-0.14659c-1.1694-0.12069-1.6127-0.0385-2.5089 0.46519-0.59869 0.33648-1.0885 0.70892-1.0885 0.82765 0 0.52333-0.46846 0.13764-0.87933-0.72397zm1.8054-0.91225c0.57086-0.29104 1.4295-0.52917 1.908-0.52917 0.47855 0 0.8701-0.10277 0.8701-0.22838 0-0.1256-0.59593-0.78579-1.3243-1.4671-2.41-2.2543-6.2022-3.5779-9.1761-3.2028l-1.5382 0.19402 1.6935 0.52185c2.6237 0.80851 4.8351 2.4386 6.0127 4.432 0.26276 0.44481 0.48643 0.80874 0.49704 0.80874 0.01062 0 0.48637-0.23812 1.0572-0.52916zm3.0427-2.8183c0-0.84872 1.4873-1.6455 2.2621-1.2119 0.28785 0.16108 0.04259 0.36508-0.93604 0.77853-0.72935 0.30815-1.3261 0.50315-1.3261 0.43334zm1.3344-3.1487c0.18749-0.22591 0.42013-0.85099 0.51699-1.3891l0.17611-0.97833 0.34668 0.71677c0.29702 0.61408 0.28358 0.81308-0.09382 1.3891-0.24228 0.36976-0.63093 0.6723-0.86368 0.6723-0.3525 0-0.36624-0.0686-0.08229-0.41074z"/></g></svg>
