<?xml version="1.0" encoding="UTF-8"?>
<svg width="18.862mm" height="17.482mm" version="1.1" viewBox="0 0 18.862 17.482" xml:space="preserve" xmlns="http://www.w3.org/2000/svg"><g transform="translate(-115.25 -109.98)"><path d="m117.21 111.92 3.3034 7.6274 3.1048 1.0349 1.0736-1.0387z" style="stroke-width:.26458"/><path d="m126.22 122.34c-0.49012 0.36957-0.0243-5e-3 -0.75778 0.60979-0.46789 0.39226-0.99111-0.40687-1.3557-0.67342-0.0501-0.0394 0.0165-0.0381 1.6458-1.6844l1.7088-1.7266 0.46986 0.57713c0.43629 0.53589 0.43883 0.61141 0.0356 1.057-0.4094 0.45238-0.12478 0.17958-0.41712 0.49352 3.603 3.6244 3.8509 3.9777 4.9958 5.6274-0.22983 0.50325-0.35358 0.69469-0.93188 0.84242-0.38014-0.12751-5.3934-5.1228-5.3934-5.1228zm-6.4286-2.5594c-1.6807-3.634-0.29517-0.93074-2.9598-6.6663-1.2483-2.6869-0.61963-1.185-1.5886-3.133 2.2952 1.0266 1.6123 0.7511 3.3008 1.5909 5.2659 2.6189 1.8149 0.91827 6.6866 3.2252 0 0 0.12192 1.1203 0.37102 1.9198s0.62537 1.2782 0.69368 1.4925c0.22914 0.71879 0.15224 0.86745-0.99228 1.9182-0.68237 0.62648-1.3093 1.1214-1.3933 1.0998-0.0419-0.0108-0.82301-0.43184-1.9173-0.87153-1.0942-0.43967-1.7644-0.46849-2.2009-0.57561zm5.4797-1.2383s-0.31929-0.60285-0.93877-3.1619c-7.0798-3.4731-0.0113-8.3e-4 -7.0664-3.3924 2.6897 5.6367 2.6956 5.6585 3.4102 7.1265 2.287 0.83281 2.7444 0.97589 2.9229 1.0013 0.47437-0.33271 1.672-1.5735 1.672-1.5735zm2.0579-0.51647c2.5e-4 -0.50165 2.338-3.3734 2.7462-3.3734 0.19653 0 0.66005 0.23812 1.03 0.52916 0.80467 0.63296 1.1401 0.65261 2.15 0.12593 0.42183-0.21998 0.80047-0.36648 0.84141-0.32553 0.14597 0.14597-1.7514 2.9627-2.1436 3.1822-0.23541 0.13174-0.77808 0.0867-1.3212-0.10973-0.7249-0.26213-1.1094-0.26545-1.8004-0.0156-1.1192 0.40471-1.5026 0.4014-1.5024-0.013z"/></g></svg>
