<?xml version="1.0" encoding="UTF-8"?>
<svg width="15.819mm" height="14.819mm" version="1.1" viewBox="0 0 15.819 14.819" xml:space="preserve" xmlns="http://www.w3.org/2000/svg"><g transform="translate(41.642 2.3833)"><path d="m-39.117 11.952c-0.34954-0.38624-0.43788-1.0502-0.43788-3.2913v-2.8074l2.6966-1.8681c1.4831-1.0274 2.8922-1.8681 3.1313-1.8681 0.23905 0 1.6152 0.81054 3.0581 1.8012l2.6234 1.8012 0.07456 2.934c0.0612 2.4084-0.0014 3.01-0.34963 3.3582-0.35906 0.35906-1.1867 0.42418-5.3914 0.42418h-4.9672zm-2.1363-7.6024c-0.55622-0.55622-0.52895-0.7818 0.17711-1.465 1.2043-1.1654 6.8989-5.2654 7.3131-5.2654 0.23521 0 1.0214 0.42214 1.7471 0.93809 1.4134 1.0049 1.3514 1.021 1.8235-0.47507 0.17056-0.54058 1.4704-0.637 1.9619-0.14552 0.17891 0.17891 0.3175 1.0361 0.3175 1.9638v1.6463l1.0583 0.90589c1.1168 0.95593 1.3033 1.5131 0.67964 2.0307-0.30673 0.25456-1.0318-0.14149-3.8155-2.0843-1.8903-1.3192-3.574-2.3986-3.7416-2.3986s-1.6951 0.98697-3.3943 2.1933c-1.6993 1.2063-3.2288 2.2789-3.399 2.3837s-0.49759 0.0022-0.7276-0.22778z"/></g></svg>
