<?xml version="1.0" encoding="UTF-8"?>
<svg width="15.346mm" height="14.42mm" version="1.1" viewBox="0 0 15.346 14.42" xml:space="preserve" xmlns="http://www.w3.org/2000/svg"><g transform="translate(6.6146 28.84)"><path d="m-6.6146-15.442c0-0.66 0.21111-1.2909 0.59531-1.7791 0.39214-0.49829 0.64046-1.2554 0.7276-2.2185l0.13229-1.462h1.8521l0.07997 1.3891 0.07997 1.3891h8.439v-1.0367c0-1.4793 0.21758-1.8737 1.0337-1.8737 1.0406 0 1.3475 0.46405 1.3475 2.0373 0 0.77126 0.09995 1.4023 0.22211 1.4023 0.36293 0 0.83622 1.2799 0.83622 2.2614v0.91359h-15.346zm0.53947-7.4939c-0.29671-0.31848-0.53947-0.79473-0.53947-1.0583v-0.47928h15.346v0.52917c0 1.4022-2.1462 2.1017-3.1482 1.0262l-0.52298-0.56135-0.71364 0.56135c-0.84911 0.66791-1.7473 0.71633-2.6246 0.1415l-0.64077-0.41985-0.59942 0.41985c-0.81881 0.57352-1.8618 0.52687-2.6842-0.12007l-0.68639-0.53992-0.53992 0.53992c-0.71488 0.71488-1.961 0.69644-2.6463-0.03914zm-0.2664-2.7944c0.0047-0.10914 0.33209-0.85328 0.7276-1.6536l0.71911-1.4552h12.171l0.71911 1.4552c0.39551 0.80036 0.72293 1.5445 0.7276 1.6536 0.0047 0.10914-3.3848 0.19844-7.5321 0.19844-4.1473 0-7.5368-0.0893-7.5321-0.19844z"/></g></svg>
