<?xml version="1.0" encoding="UTF-8"?>
<svg width="15.209mm" height="14.288mm" version="1.1" viewBox="0 0 15.209 14.288" xml:space="preserve" xmlns="http://www.w3.org/2000/svg"><g transform="translate(-10.029 -27.252)"><path d="m16.141 41.077c0.30713-0.74558 0.60977-4.2958 0.46085-5.4061l-0.1369-1.0207-0.8634 0.16198c-0.5838 0.10952-1.2523-0.01006-2.0644-0.36927-1.3303-0.58848-2.029-1.647-2.5833-3.9137-0.17379-0.71078-0.48206-1.6232-0.68503-2.0277-0.49412-0.98461-0.26648-1.249 1.0754-1.249 1.9472 0 3.7098 0.68585 4.7655 1.8544 0.97149 1.0753 1.1456 1.6685 0.69764 2.3771-0.2068 0.32711-0.42209 0.22786-1.2527-0.57746-1.0099-0.97913-2.4582-1.594-2.4582-1.0436 0 0.15756 0.32742 0.45681 0.7276 0.665 1.8075 0.94032 3.3069 3.7076 4.0754 7.5214 0.29925 1.485 0.47582 2.8779 0.39237 3.0954-0.10079 0.26266-0.51929 0.39539-1.2467 0.39539-0.93908 0-1.0678-0.06591-0.90421-0.46302zm2.1772-6.3097c-0.37503-0.37503 0.24746-0.98129 1.7696-1.7234 1.49-0.72649 2.5095-1.6704 2.1704-2.0095-0.07447-0.07447-0.46967 0.09945-0.87823 0.38648-1.4744 1.0358-3.6217 1.9169-3.8389 1.5752-0.67646-1.0644 0.79215-3.1965 2.9638-4.3028 0.96413-0.49117 4.2584-0.7061 4.6629-0.30422 0.11651 0.11576 0.0842 0.41485-0.0718 0.66464-0.156 0.2498-0.49013 1.1645-0.74251 2.0326-0.57201 1.9676-1.2922 2.9992-2.4242 3.4722-0.87771 0.36673-3.3123 0.50749-3.611 0.20878z"/></g></svg>
