<?xml version="1.0" encoding="UTF-8"?>
<svg width="13.903mm" height="13.925mm" version="1.1" viewBox="0 0 13.903 13.925" xml:space="preserve" xmlns="http://www.w3.org/2000/svg"><g transform="translate(-5.9757 -10.723)"><path d="m6.2709 24.359c-0.5205-0.5205-0.36852-1.632 0.58234-4.2588 1.8389-5.08 2.9262-6.2716 5.7228-6.2716 1.7705 0 3.6962 2.1988 3.6962 4.2203 0 2.2352-2.2731 4.0926-7.3448 6.0016-1.8965 0.71382-2.2143 0.75073-2.6565 0.30851zm4.0975-4.0149c-0.084262-0.21958-0.46337-0.60247-0.84247-0.85087-0.53899-0.35316-0.75841-0.38179-1.0064-0.13134-0.2471 0.24954-0.11261 0.48837 0.6089 1.0813 0.91358 0.75078 1.5467 0.70019 1.24-0.09909zm2.1401-0.91294c0.1757-0.52708-1.6603-2.163-2.4276-2.163-1.0168 0-0.83918 0.5374 0.54886 1.6607 1.2257 0.9919 1.6754 1.1121 1.8787 0.50232zm1.5962-1.7006c0.10697-0.55139-1.2575-2.0096-1.9335-2.0664-1.6181-0.13588-1.5948 0.4615 0.06615 1.6912 1.325 0.98098 1.7339 1.0631 1.8674 0.3752zm2.4993-2.3582c-1.3085-0.29307-1.5365-0.62728-1.7842-2.616-0.14976-1.2022-0.10252-1.5359 0.25999-1.8367 0.55532-0.46088 1.2868-0.06995 1.4092 0.75315 0.101 0.67891 0.26784 0.7023 1.0586 0.14845 0.47487-0.33261 0.6795-0.35336 0.98491-0.0999 0.46378 0.3849 0.50016 1.093 0.07784 1.5153-0.23384 0.23384-0.14476 0.3696 0.37117 0.56576 0.89022 0.33846 1.0825 0.69086 0.73317 1.3436-0.31736 0.59298-1.1902 0.6565-3.1107 0.22636z"/></g></svg>
