<?xml version="1.0" encoding="UTF-8"?>
<svg width="12.248mm" height="12.462mm" version="1.1" viewBox="0 0 12.248 12.462" xml:space="preserve" xmlns="http://www.w3.org/2000/svg"><g transform="translate(-8.4206 -12.609)"><path d="m18.75 24.973c-0.1819-0.07657-0.33073-0.34131-0.33073-0.58831s-1.0256-1.667-2.2792-3.1555c-1.9005-2.2568-2.2249-2.7719-1.952-3.1007 0.17998-0.21687 0.47051-0.3943 0.64562-0.3943 0.17511 0 1.2619 1.1277 2.415 2.506s2.3708 2.5834 2.706 2.678c0.51428 0.14523 0.59685 0.32187 0.52917 1.1321-0.06763 0.80956-0.18384 0.96797-0.74166 1.011-0.3638 0.02806-0.81029-0.01163-0.99219-0.08819zm-9.9866-2.5682c-0.5821-1.5242-0.41462-3.4373 0.43294-4.9453 0.32404-0.57655 0.66555-1.0483 0.7589-1.0483 0.09336 0 0.40451 0.26789 0.69144 0.59531 1.1861 1.3535 1.1867 1.3566 0.43217 2.4644-0.39003 0.57271-0.96447 1.7449-1.2765 2.6049l-0.56738 1.5636zm2.6798-5.9047c-0.52879-0.67873-0.96144-1.3249-0.96144-1.436 0-0.29692 1.3382-1.2987 1.7349-1.2987 0.43092 0 2.2339 2.0863 2.2339 2.5849 0 0.47013-1.0512 1.3634-1.6183 1.375-0.2352 0.0048-0.86027-0.54652-1.3891-1.2252zm3.024-1.8721c-0.44574-0.54076-0.81043-1.0659-0.81043-1.167 0-0.34345 1.9791-0.85378 3.3073-0.8528 0.87715 6.45e-4 1.7241 0.21173 2.5135 0.62645l1.1906 0.62548-1.6453 0.33982c-0.90489 0.1869-2.1178 0.58089-2.6953 0.87552l-1.05 0.53569z"/></g></svg>
