<?xml version="1.0" encoding="UTF-8"?>
<svg width="17.87mm" height="13.068mm" version="1.1" viewBox="0 0 17.87 13.068" xml:space="preserve" xmlns="http://www.w3.org/2000/svg"><g transform="translate(-75.75 -69.771)"><path d="m81.098 82.729c-0.58859-0.2375-0.3571-0.70748 1.0505-2.1328l1.3812-1.3986-1.9685-1.9817c-1.8639-1.8764-1.9443-2.006-1.5121-2.4381 0.43216-0.43216 0.56169-0.35183 2.4377 1.5116l1.9813 1.9681 1.3248-1.3049c1.2507-1.2319 1.3502-1.2796 1.7779-0.85186 0.4277 0.42771 0.38008 0.52718-0.85066 1.7767l-1.3037 1.3236 1.4365 1.4545c1.3572 1.3742 1.4114 1.4796 0.98249 1.9085-0.42892 0.42892-0.53111 0.37782-1.8512-0.92584-0.76845-0.7589-1.478-1.3798-1.5767-1.3798-0.0987 0-0.73636 0.59531-1.417 1.3229-1.2608 1.3479-1.315 1.3808-1.8926 1.1477zm-5.2666-4.4665c-0.25012-0.6518 0.09476-2.1801 0.7204-3.1924l0.57681-0.9333 1.4776 1.4156-1.2109 1.5593c-0.66598 0.8576-1.255 1.5593-1.309 1.5593-0.05398 0-0.16867-0.1838-0.25487-0.40843zm14.555-0.41029c-0.24076-0.35445 2.3857-2.998 2.748-2.6209 0.7329 0.76294 0.68035 0.91666-0.48063 2.004-1.5715 1.4718-1.5201 1.717-2.2674 0.61687zm-2.4174-2.165c-0.9053-0.91342-1.646-1.7811-1.646-1.9282s0.59583-0.85429 1.3241-1.5716l1.3241-1.3042 1.7186 1.7034c0.94524 0.93684 1.7868 1.8461 1.7186 1.9855-0.2202 0.45003-2.2898 2.6767-2.6626 2.7758-0.06958 0.0185-0.87155-0.74734-1.7768-1.6608zm-9.9309-1.4626c-0.87852-0.91698-0.89003-1.2451-0.06268-1.7872 0.617-0.40428 0.69321-0.38892 1.5796 0.31837l0.93135 0.74314-0.70309 0.73386c-0.3867 0.40363-0.7776 0.73386-0.86867 0.73386-0.09107 0-0.48551-0.33394-0.87654-0.74208zm2.0874-1.618-0.68538-0.71538 1.03-0.57892c1.0119-0.56869 3.4715-0.82719 3.4715-0.36484 0 0.11774-0.70444 0.70018-1.5654 1.2943l-1.5654 1.0802zm4.9606 0.08609c-0.16722-0.25312 0.28442-0.86828 1.1958-1.7796 1.2511-1.2511 1.3913-1.3241 1.786-0.92941 0.39465 0.39466 0.326 0.53439-0.87426 1.7796-1.3679 1.4192-1.5127 1.8297-2.1075 0.92941z"/></g></svg>
