<?xml version="1.0" encoding="UTF-8"?>
<svg width="18.11mm" height="15.449mm" version="1.1" viewBox="0 0 18.11 15.449" xml:space="preserve" xmlns="http://www.w3.org/2000/svg"><g transform="translate(-4.5122 -15.692)"><path d="m6.9239 23.942c-2.5679-2.2504-2.3937-1.5133-2.4113-3.6949-0.017528-2.1699 0.45718-2.9985 2.2397-3.9093 1.4031-0.71693 2.6746-0.74868 4.0956-0.10227 1.2033 0.54738 1.5408 0.89651 2.2238 2.3008l0.48476 0.99661 0.3155-0.95597c1.2581-3.8121 8.4702-3.9146 8.7044 0.10043 0.1727 2.961-0.02519-1.0195-2.7037 5.2202-1.4101 3.2848-2.4634 0.12155-6.7141 0.45622-2.8883 0.2274-4.8857 0.77712-6.2347-0.41184z" style="fill-opacity:.73333"/><path d="m13.097 30.58c0-0.49794-1.5228-2.0249-4.448-4.4602-1.6539-1.3769-3.2375-2.8759-3.5192-3.3313l-0.47371-0.89164 0.78418-0.63572c1.0556-0.85573 2.8248-1.392 4.2833-1.2247 0.61843 0.07095 2.0254 0.5578 3.1267 1.0819 1.1013 0.52409 2.4852 1.0301 3.0755 1.1245 1.5102 0.24148 3.6322-0.44926 5.3071-1.7276l1.3891-1.0601-0.0058 0.85583c-0.01187 1.748-0.85753 2.9276-3.9102 5.4542-1.6005 1.3247-3.4462 3.0049-4.1015 3.7337-1.1839 1.3168-1.1684 1.9581-1.1684 1.4902z"/></g></svg>
