<?xml version="1.0" encoding="UTF-8"?>
<svg width="19.535mm" height="19.643mm" version="1.1" viewBox="0 0 19.535 19.643" xml:space="preserve" xmlns="http://www.w3.org/2000/svg"><g transform="translate(-110.6 -93.658)"><path d="m127.53 112.72c-0.40437-0.42208-0.66314-0.88404-0.57504-1.0266 0.16912-0.27364-3.449-3.4883-3.9254-3.4876-0.15293 2.2e-4 -1.0379 0.71929-1.9666 1.5979-0.92867 0.87865-1.8216 1.5532-1.9844 1.499-0.68844-0.22919-0.38054-1.0454 0.88408-2.3437l1.3472-1.3831-1.2636-1.2969c-1.2343-1.2668-5.5646-5.0863-7.5686-6.6758l-1.0048-0.79693-0.48499-2.5104c-0.26674-1.3807-0.43606-2.5616-0.37626-2.6243 0.0598-0.06268 1.2279 0.09682 2.5957 0.35444l2.487 0.46841 2.3614 2.8206c2.6924 3.216 6.1132 6.9216 6.3894 6.9216 0.10241 0 0.80656-0.60746 1.5648-1.3499 0.86089-0.843 1.5263-1.2932 1.772-1.1989 0.68935 0.26453 0.43118 0.86081-1.0618 2.4522-0.80036 0.85315-1.4552 1.7553-1.4552 2.0049 0 0.52539 3.0786 3.9126 3.5561 3.9126 0.64493 0 1.46 1.1737 1.2912 1.8592-0.20849 0.84643-0.6088 1.3502-0.92007 1.1578-0.1354-0.0837-0.39938-0.025-0.58661 0.13037-0.25408 0.21087-0.52689 0.0879-1.0756-0.48489zm-4.9108-7.2224c0-0.43206-5.8481-6.288-6.2795-6.288-0.18427 0-0.33504 0.08751-0.33504 0.19446 0 0.25948 6.1528 6.4201 6.412 6.4201 0.11141 0 0.20257-0.14696 0.20257-0.32659z"/></g></svg>
