<?xml version="1.0" encoding="UTF-8"?>
<svg width="20.962mm" height="20.943mm" version="1.1" viewBox="0 0 20.962 20.943" xml:space="preserve" xmlns="http://www.w3.org/2000/svg"><g transform="translate(-97.469 -100.67)"><path d="m103.83 103.99c-0.13927-0.43571 1.3662-1.4009 2.2823-1.7967 0.94411-0.40786 1.9085-0.78702 2.9066-1.0349 1.0366-0.25746 2.1029-0.44012 3.1708-0.46241 2.3567-0.24342 4.477 1.6173 4.7122 1.8717 0.67105 0.72588 1.2682 1.8876 1.4092 3.1268 0.09 0.7512 0.16389 1.5152 0.0881 2.268-0.0651 0.64651-0.25401 1.2782-0.46241 1.8937-0.25193 0.74401-0.59031 1.458-0.94684 2.1579-0.3434 0.67415-0.6829 1.3607-1.145 1.9597-0.0444 0.0575-0.0923 0.19234-0.15413 0.15414-0.3554-0.21964 0.2417-0.80094 0.39635-1.1891 0.13492-0.3386 0.34684-0.6452 0.46241-0.99088 0.20221-0.60482 0.31992-1.2385 0.39635-1.8717 0.0836-0.69261 0.13849-1.398 0.0661-2.0919-0.0674-0.64627-0.21431-1.2931-0.46241-1.8937-0.26531-0.6422-0.62974-1.2535-1.079-1.7836-1.3425-1.5843-3.2221-2.0455-5.2765-2.2425-3.2365-0.23452-6.229 1.9876-6.3642 1.9253z" style="fill-opacity:.73333;stroke-width:.26458"/><path d="m100.27 108.66c-0.54601-0.17434-0.71064 0.90452-0.99649 1.4013-0.4008 0.69658-0.71806 1.4415-0.99649 2.1954-0.31071 0.8413-0.63115 1.6954-0.74737 2.5846-0.09351 0.7155-0.0866 1.4551 0.04671 2.1643 0.12861 0.68418 0.35659 1.3658 0.71623 1.9618 0.34358 0.56945 0.81522 1.0694 1.339 1.4792 0.44076 0.34482 0.7714 0.47448 1.4792 0.79408 1.4639 0.66102 4.2913 0.29715 5.7765 0 1.3279-0.26568 2.6612-0.61794 3.877-1.2145 0.67144-0.32944 2.0406-0.90536 1.8407-1.283-0.17228-0.32545-0.96202 0.47066-1.467 0.6446-0.53677 0.18488-1.1 0.28149-1.6504 0.4204-0.45647 0.11519-0.90575 0.26549-1.3702 0.34254-0.61144 0.10144-1.2331 0.1475-1.8528 0.1557-0.45224 6e-3 -0.90997 5e-3 -1.3546-0.0778-1.1683-0.21746-2.4233-0.40483-3.3943-1.0899-0.83801-0.59126-1.4408-1.5123-1.8684-2.4445-0.46216-1.0076-0.67614-2.1457-0.68509-3.2542-0.0082-1.0097 0.28915-2.0058 0.5761-2.9739 0.1846-0.62281 0.60754-1.1686 0.7318-1.8061 0-2e-5 2e-5 -4e-5 0-5e-5z" style="fill-opacity:.73333;stroke-width:.26458"/><path d="m107.28 117.78c-0.3297-1.819-0.67974-3.3073-0.77789-3.3073-0.0982 0-0.59304 0.27546-1.0998 0.61214-1.9922 1.3237-2.9942 1.8615-2.7742 1.4889 0.12387-0.2097 0.68073-1.0593 1.2375-1.8881 0.55675-0.82876 1.0123-1.6106 1.0123-1.7374s-1.4883-0.51237-3.3073-0.85681c-1.819-0.34445-3.3073-0.70163-3.3073-0.79375 0-0.0921 1.4883-0.44931 3.3073-0.79375 1.819-0.34445 3.3073-0.73001 3.3073-0.85682 0-0.1268-0.45551-0.90863-1.0123-1.7374-0.55674-0.82876-1.1136-1.6784-1.2375-1.8881-0.22007-0.37256 0.78194 0.16522 2.7742 1.4889 0.50672 0.33668 1.0016 0.61215 1.0998 0.61215 0.0981 0 0.44819-1.4883 0.77789-3.3073 0.32969-1.819 0.67453-3.3073 0.7663-3.3073 0.0918 0 0.44246 1.4304 0.77929 3.1786 0.33684 1.7482 0.69761 3.2312 0.80172 3.2956 0.10411 0.0643 0.59613-0.15322 1.0934-0.48346s1.376-0.88618 1.9528-1.2354l1.0487-0.63498-0.63497 1.0487c-0.34924 0.57677-0.91044 1.4633-1.2471 1.97-0.33668 0.50672-0.61215 0.99089-0.61215 1.0759 0 0.085 1.4883 0.43643 3.3073 0.78088 1.819 0.34444 3.3073 0.71401 3.3073 0.82127s-0.38695 0.27052-0.85989 0.36282-1.9548 0.40772-3.2931 0.70097l-2.4332 0.53317 1.0756 1.7674c0.5916 0.9721 1.1421 1.8795 1.2233 2.0164 0.14784 0.24926-1.1261-0.47471-2.8466-1.6178-0.50394-0.33479-0.99323-0.52096-1.0873-0.41371-0.0941 0.10725-0.45239 1.594-0.79623 3.3039-0.34383 1.7099-0.69724 3.1088-0.78535 3.1088-0.0881 0-0.42994-1.4883-0.75963-3.3073z"/></g></svg>
