<?xml version="1.0" encoding="UTF-8"?>
<svg width="18.289mm" height="15.03mm" version="1.1" viewBox="0 0 18.289 15.03" xml:space="preserve" xmlns="http://www.w3.org/2000/svg"><g transform="translate(-20.154 -46.133)"><path d="m28.719 60.54c-0.28343-0.62205-2.3762-2.5762-5.622-5.2498-2.7344-2.2523-3.6182-4.8441-2.4199-7.0962 0.77999-1.4658 2.2063-2.1499 4.2779-2.0516 2.065 0.09794 3.174 0.76027 3.8541 2.3018l0.45311 1.027 0.5554-1.0841c0.88213-1.7218 1.7122-2.1734 3.995-2.1734 1.5596 0 2.0938 0.1098 2.6926 0.55349 1.2494 0.92575 1.9376 2.17 1.9376 3.5031 0 1.9122-0.8583 3.3182-3.1453 5.1523-1.1077 0.88837-2.9465 2.5433-4.086 3.6776-1.1396 1.1343-2.1027 2.0624-2.1403 2.0624-0.03762 0-0.19608-0.28024-0.35213-0.62274z"/></g></svg>
