<?xml version="1.0" encoding="UTF-8"?>
<svg width="21.012mm" height="20.86mm" version="1.1" viewBox="0 0 21.012 20.86" xml:space="preserve" xmlns="http://www.w3.org/2000/svg"><g transform="translate(-5.6332 -1.6172)"><path d="m9.7123 22.256c-3.4483-0.4132-4.1073-1.093-4.0782-4.2075 0.02566-2.7501 0.64402-4.471 2.0832-5.7976 2.7481-2.5331 7.6574-2.5136 10.311 0.04097 1.3886 1.3368 2.0027 3.116 2.0027 5.803 0 3.0958-0.61507 3.701-4.2333 4.1656-2.2608 0.29029-3.6338 0.28927-6.0854-0.0045zm6.35-3.0317c0-0.33161-0.54387-0.39688-3.3073-0.39688-2.7634 0-3.3073 0.06526-3.3073 0.39688 0 0.33161 0.54387 0.39688 3.3073 0.39688 2.7634 0 3.3073-0.06526 3.3073-0.39688zm-7.9964-0.27959c0.77112-0.54012 0.74374-1.0614-0.08426-1.6039-0.53837-0.35276-0.8019-0.38145-1.3229-0.14406-0.77695 0.354-0.88826 1.466-0.1876 1.8741 0.63898 0.37217 0.91449 0.35039 1.5948-0.1261zm10.924 0.13798c0.74825-0.40045 0.66588-1.5193-0.13885-1.886-0.52102-0.23739-0.78454-0.20869-1.3229 0.14406-0.828 0.54252-0.85538 1.0638-0.08426 1.6039 0.69365 0.48585 0.8671 0.50133 1.546 0.13798zm-8.4775-2.2569c0.40884-1.0753 0.30574-2.6434-0.21619-3.2879 0 0-0.22304-0.58413-0.47423-0.58564-0.19423-0.0012-0.37214 0.4484-0.37214 0.4484-0.48709 0.58691-0.51175 3.0918-0.03608 3.6657 0.50699 0.61172 0.7989 0.54781 1.0986-0.24054zm5.7745-0.22555c0.418-0.85797 0.20936-2.859-0.34618-3.3201-0.87722-0.72803-1.5674 1.9044-0.93528 3.5671 0.31971 0.84089 0.79617 0.74903 1.2815-0.24706zm4.0747-6.121-1.9182-1.4591v-2.6408l1.9418 1.4615c1.068 0.80383 2.0268 1.4615 2.1307 1.4615 0.10393 0 1.0756-0.65569 2.1593-1.4571l1.9703-1.4571v2.6458l-1.9703 1.4571c-1.0837 0.8014-2.0659 1.4549-2.1828 1.4522-0.11689-0.0027-1.0757-0.66151-2.1308-1.464zm0-4.7625-1.9182-1.4591v-2.6408l1.9418 1.4615c1.068 0.80383 2.0268 1.4615 2.1307 1.4615 0.10393 0 1.0756-0.65569 2.1593-1.4571l1.9703-1.4571v2.6458l-1.9703 1.4571c-1.0837 0.8014-2.0659 1.4549-2.1828 1.4522s-1.0757-0.66151-2.1308-1.464z"/></g></svg>
