<?xml version="1.0" encoding="UTF-8"?>
<svg width="20.303mm" height="21.075mm" version="1.1" viewBox="0 0 20.303 21.075" xml:space="preserve" xmlns="http://www.w3.org/2000/svg"><g transform="translate(-111.62 -88.076)"><path transform="translate(111.62 88.031)" d="m5.2112 3.1857c-1.0889-0.867-1.2982-1.155-1.0536-1.4497 0.45059-0.54292 0.71393-0.46718 2.1298 0.61262 1.428 1.089 1.5102 1.262 0.78409 1.6506-0.40797 0.21834-0.75492 0.06662-1.8603-0.81352zm8.0232 0.70272c-0.47997-0.35686-0.46137-0.40794 0.42405-1.1644 1.5176-1.2965 2.0632-1.5227 2.535-1.0509 0.36056 0.36056 0.28358 0.49918-0.73541 1.3244-1.5807 1.2801-1.6584 1.3112-2.2236 0.89093zm-3.8093-2.1234v-1.7198h1.5875v3.4396h-1.5875z" style="fill-opacity:.73333"/><path d="m118.24 109.01c-0.0685-0.11329-0.34555-1.1985-0.61559-2.4116l-0.49098-2.2056-1.3941-0.66022c-0.76675-0.36313-2.009-1.2256-2.7606-1.9167l-1.3665-1.2565 0.88906-2.4656c1.1245-3.1185 1.5808-3.6433 3.3622-3.8664 1.3147-0.16466 1.3834-0.14239 1.5448 0.50055 0.32471 1.2938 0.0781 1.6429-1.1429 1.6179-0.61397-0.01256-1.1163-0.01218-1.1163 8.42e-4 0 0.01302-0.22972 0.82697-0.51049 1.8088l-0.51049 1.7851h1.5777c1.5215 0 1.5972 0.03291 2.1219 0.92228 0.61133 1.0361 1.8968 1.5387 3.9359 1.5387 2.0391 0 3.3246-0.50254 3.9359-1.5387 0.52475-0.88937 0.60046-0.92228 2.1219-0.92228h1.5778l-0.51049-1.7851c-0.28077-0.9818-0.51049-1.7958-0.51049-1.8088 0-0.01302-0.50234-0.0134-1.1163-8.42e-4 -1.221 0.02498-1.4676-0.32417-1.1429-1.6179 0.16136-0.64294 0.23007-0.66521 1.5448-0.50055 1.7814 0.2231 2.2377 0.74788 3.3622 3.8664l0.88906 2.4656-1.3412 1.2332c-0.73767 0.67829-1.97 1.5303-2.7384 1.8934l-1.3972 0.66019-0.55655 2.3612-0.55656 2.3612-3.4802 0.0737c-1.9141 0.0405-3.5363-0.019-3.6048-0.13229zm2.8345-8.0392c-0.45178-0.12747-1.1288-0.53919-1.5046-0.91493-1.3432-1.3432-1.2423-3.3033 0.2371-4.6022 2.107-1.85 5.3962-0.40531 5.3962 2.3702 0 2.1792-2.0421 3.7358-4.1287 3.147z"/></g></svg>
