<?xml version="1.0" encoding="UTF-8"?>
<svg width="20.638mm" height="20.669mm" version="1.1" viewBox="0 0 20.638 20.669" xml:space="preserve" xmlns="http://www.w3.org/2000/svg"><g transform="translate(-14.952 -43.662)"><path d="m30.295 62.303c-0.2676-1.1717-0.61196-2.2138-0.76523-2.3158-0.15328-0.10201-0.99567-0.43761-1.872-0.74577l-1.5933-0.5603 1.5875-0.46383c0.87312-0.25511 1.7164-0.56656 1.874-0.69213 0.15755-0.12556 0.50452-1.1831 0.77104-2.35 0.26652-1.1669 0.53161-2.0746 0.58909-2.0172 0.05748 0.05748 0.36536 1.0902 0.68417 2.2948l0.57966 2.1903 3.4396 1.1462-3.4396 1.0268-0.57966 2.204c-0.31882 1.2122-0.62669 2.2511-0.68417 2.3086s-0.32346-0.85412-0.59106-2.0258zm-8.828-4.3386-0.87314-3.5557-5.6418-1.7886 2.3812-0.72466c1.3097-0.39856 2.5766-0.7809 2.8153-0.84963 0.3122-0.08988 0.68775-1.144 1.3375-3.7543l0.90347-3.6294 0.85219 3.3073c0.4687 1.819 0.94897 3.4821 1.0673 3.6958 0.11829 0.21368 1.3951 0.75949 2.8374 1.2129l2.6223 0.82439-1.8521 0.55788c-1.0186 0.30684-2.1746 0.63591-2.5688 0.73128-0.39421 0.09537-0.82389 0.31054-0.95483 0.47817-0.13094 0.16762-0.56897 1.674-0.97339 3.3475-0.40442 1.6735-0.81273 3.1912-0.90736 3.3727-0.09463 0.18149-0.56496-1.2701-1.0452-3.2257z"/></g></svg>
