<?xml version="1.0" encoding="UTF-8"?>
<svg width="20.359mm" height="20.093mm" version="1.1" viewBox="0 0 20.359 20.093" xml:space="preserve" xmlns="http://www.w3.org/2000/svg"><g transform="translate(-119.92 -96.369)"><path d="m129.6 115.99c-0.24083-0.26612-0.43788-0.54878-0.43788-0.62813 0-0.0794-0.30926-0.6976-0.68724-1.3739l-0.68723-1.2296-0.89602 0.55378c-1.8399 1.1371-2.9825-0.0557-1.2025-1.2553 0.99739-0.67214 0.84416-0.81446-1.0039-0.93238l-1.1696-0.0746-1.6546-4.4979c-1.1718-3.1854-1.7076-5.0515-1.8361-6.395-0.0998-1.0434-0.13818-2.0271-0.0852-2.1859 0.22748-0.68244 3.9663 2.6056 6.8413 6.0163l2.9677 3.5208-0.61613 1.1614c-0.33887 0.63877-0.53823 1.2393-0.44302 1.3345 0.0952 0.0952 0.65191-0.096 1.2371-0.4249 0.88167-0.49553 1.134-0.53989 1.4726-0.25889 0.67112 0.55698 0.4732 1.0388-0.74379 1.8106l-1.1524 0.73082 0.62322 0.90953c0.34277 0.50024 0.62322 1.049 0.62322 1.2194 0 0.17043 0.17859 0.37842 0.39687 0.46218 0.47508 0.1823 0.52519 1.2577 0.0794 1.7035-0.4584 0.45839-1.1219 0.39051-1.6259-0.16636zm8.9131-1.699c-0.13137-0.1819-0.52125-0.86651-0.86641-1.5214-1.0051-1.9068-0.99821-1.9026-2.1499-1.3151-1.3115 0.66909-1.8367 0.66333-1.8367-0.0201 0-0.32463 0.31721-0.72198 0.79207-0.99219 0.43565-0.24789 0.79283-0.53774 0.79375-0.64411 2e-3 -0.22391-0.80206-0.42698-2.0941-0.52893l-0.90517-0.0714-1.6526-4.5045c-1.1618-3.1668-1.7086-5.0723-1.841-6.4161-0.11848-1.2024-0.092-1.9116 0.0714-1.9116 0.77935 0 3.9481 2.9091 6.5826 6.0433l2.967 3.5298-0.63715 0.9389c-0.35043 0.51639-0.63715 1.1706-0.63715 1.4538 0 0.4871 0.0648 0.47865 1.2016-0.1567 1.2874-0.71958 1.9734-0.67783 1.9734 0.12009 0 0.31169-0.39258 0.69576-1.0583 1.0354-0.58209 0.29695-1.0583 0.65425-1.0583 0.79399 0 0.13973 0.41672 0.9055 0.92605 1.7017 1.0055 1.5718 1.162 2.3842 0.50752 2.6354-0.60703 0.23294-0.81055 0.20084-1.0784-0.17013z"/></g></svg>
