<?xml version="1.0" encoding="UTF-8"?>
<svg width="18.673mm" height="19.94mm" version="1.1" viewBox="0 0 18.673 19.94" xml:space="preserve" xmlns="http://www.w3.org/2000/svg"><g transform="translate(-4.0098 -4.9825)"><path d="m10.354 24.548c-3.7071-0.99804-5.9712-3.1923-6.3183-6.1235-0.176-1.486 0.56848-3.5841 1.6234-4.5752l0.61488-0.57765-0.42373-0.7383c-0.25845-0.45033-0.38892-0.79143 0.02888-1.4291 1.0778-1.645 2.7707-1.9405 2.4688-0.43104-0.12548 0.62742-0.03765 0.86399 0.43076 1.1602 0.70544 0.44616 3.0209 0.95391 4.35 0.95391 1.6707 0 4.2977-0.56815 4.9065-1.0612l0.58762-0.47583-0.47702-0.5271c-0.60099-0.66408-2.3443-1.1109-4.3344-1.1109-1.2524 0-1.6005-0.098526-1.8695-0.52917l-0.33047-0.52917 1.6559 0.00459c2.0379 0.00565 5.0107 0.61321 6.0881 1.2442 0.44227 0.25903 1.0531 0.80496 1.3574 1.2132 0.5246 0.70378 0.38177 1.041 0.119 1.4989l-0.43427 0.75666 0.61488 0.57765c0.33818 0.31771 0.87635 1.1854 1.1959 1.9283 0.96437 2.2417 0.45011 4.4704-1.476 6.3965-2.3525 2.3525-6.7348 3.3549-10.378 2.3739zm-0.66884-13.461c-0.32047-0.35291-1.1692-1.6756-1.8861-2.9392-1.3948-2.4587-1.4226-3.166-0.12454-3.166 0.52492 0 0.97563 0.56741 2.6796 3.3734l2.0486 3.3734h-1.0675c-0.79327 0-1.2171-0.16482-1.6501-0.64166z"/></g></svg>
