<?xml version="1.0" encoding="UTF-8"?>
<svg width="19.976mm" height="20.9mm" version="1.1" viewBox="0 0 19.976 20.9" xml:space="preserve" xmlns="http://www.w3.org/2000/svg"><g transform="translate(-6.3277 -10.317)"><path d="m15.834 24.142c-2.7292-3.8927-5.0123-7.3246-5.0735-7.6265-0.06774-0.33391 0.16884-0.88189 0.60402-1.3991l0.71538-0.85018-0.46983-0.51915c-0.29012-0.32058-0.81159-0.51915-1.3634-0.51915-1.1806 0-2.4423-0.55867-3.2578-1.4424l-0.66146-0.71688 1.0284-0.75202 0.73621 0.70534c0.53106 0.50879 1.1525 0.76183 2.2302 0.90808 1.0632 0.14428 1.7002 0.40034 2.2093 0.88807l0.71534 0.68534 1.2523-0.55396c1.0103-0.44691 1.3284-0.4908 1.6462-0.22712 0.65524 0.5438 10.158 14.278 10.158 14.681 0 1.0858-3.6142 3.8049-5.0688 3.8134-0.27511 0.0016-2.288-2.6353-5.4007-7.075zm-2.2162-8.4876c1.2903-0.82115 2.0027-1.556 1.7516-1.807-0.19425-0.19425-1.766 0.42261-1.766 0.6931 0 0.10451-0.29031 0.32229-0.64513 0.48396-0.77637 0.35374-1.424 1.3785-0.87118 1.3785 0.19491 0 0.88371-0.33685 1.5307-0.74856z"/></g></svg>
