<?xml version="1.0" encoding="UTF-8"?>
<svg width="16.996mm" height="19.58mm" version="1.1" viewBox="0 0 16.996 19.58" xml:space="preserve" xmlns="http://www.w3.org/2000/svg"><g transform="translate(-5.737 -16.01)"><path d="m8.8345 35.239c-2.087-0.80705-3.0616-2.2965-3.096-4.7313-0.02977-2.105 0.39879-2.949 2.5978-5.1157 2.0642-2.0339 2.5711-2.2393 3.4626-1.4026 0.54191 0.50861 0.94135 0.61864 2.2186 0.61114 1.3224-0.0078 1.6696-0.11636 2.2984-0.71881l0.74073-0.70966 1.3302 0.75968c2.5439 1.4529 4.3489 4.065 4.3463 6.2898-3e-3 2.6125-0.88622 4.0884-2.9666 4.9574-1.226 0.51214-9.6434 0.55837-10.932 0.06005zm4.6397-11.999c-1.0372-0.3245-1.5797-0.75083-1.8809-1.4781-0.25485-0.61526-0.80655-1.0225-2.4648-1.8196-1.2696-0.61025-1.8144-0.97357-1.3428-0.89542 0.43656 0.07233 1.5081 0.20522 2.3813 0.29531l1.5875 0.1638 2.3812-0.84309c1.7001-0.60194 3.0245-0.87928 4.6302-0.96962l2.249-0.12653-1.5875 0.87565c-1.3478 0.74344-1.7147 1.1153-2.4303 2.4631-0.46353 0.87312-1.0588 1.7224-1.3229 1.8872-0.61994 0.387-1.6943 0.6054-2.1999 0.44721zm-4.9519-5.7345c1.1108-0.90922 3.038-1.4975 4.9009-1.496 1.5432 0.0012 4.171 0.4674 3.9395 0.6989-0.05527 0.05527-1.065 0.22143-2.2438 0.36924-1.1788 0.14781-2.6414 0.44449-3.2502 0.65929-0.60882 0.2148-1.7766 0.38627-2.595 0.38104l-1.4881-0.0095z"/></g></svg>
