<?xml version="1.0" encoding="UTF-8"?>
<svg width="19.137mm" height="19.083mm" version="1.1" viewBox="0 0 19.137 19.083" xml:space="preserve" xmlns="http://www.w3.org/2000/svg"><g transform="translate(-24.422 -10.013)"><path d="m38.256 28.866c-0.58208-0.11605-1.7132-0.46013-2.5135-0.76463-0.80036-0.3045-1.6243-0.55369-1.831-0.55377-0.50264-1.78e-4 -3.9899-1.6165-3.9899-1.8493 0-0.10082-0.66234-0.33154-1.4719-0.5127-2.6184-0.58598-4.4099-2.9593-3.9572-5.2425 0.10845-0.54704 0.17887-1.5021 0.15648-2.1225-0.04244-1.1758 0.61915-2.9301 1.1872-3.1481 0.18106-0.06948 0.4031-0.5203 0.49344-1.0018 0.33051-1.7618 2.1627-2.8605 3.1401-1.8832 0.20884 0.20884 0.58432 1.0053 0.83441 1.7699 0.42747 1.3069 1.7037 3.4577 2.2532 3.7973 0.13623 0.08419 0.45603-0.43351 0.71066-1.1504l0.46297-1.3035 0.80727 0.61517c1.2782 0.97402 4.1655 2.2415 5.1067 2.2417 0.47294 1.14e-4 0.8599 0.04864 0.8599 0.10784 0 0.0592-0.34181 0.86945-0.75957 1.8006-1.2056 2.687-1.2342 2.8543-0.48837 2.8543 1.7657 0 3.6608 1.2706 4.1625 2.7907 0.2224 0.67388 0.18755 1.0848-0.16716 1.9714-0.6738 1.684-2.1483 2.1513-4.9964 1.5835zm-6.5965-5.0339c1.8675-1.1542 1.687-3.9611-0.41848-6.5066-0.90413-1.0931-2.1131-3.5576-2.1131-4.3077 0-0.3792-0.66433-0.79561-0.96145-0.60265-1.0427 0.67719-1.1658 2.7502-0.23796 4.0078 0.59748 0.80984 0.6691 1.3348 0.18209 1.3348-0.10579 0-0.56572-0.4858-1.0221-1.0795-0.78213-1.0176-0.84607-1.049-1.115-0.54656-0.15688 0.29314-0.28525 0.9452-0.28525 1.449 0 0.71563 0.20259 1.0939 0.92604 1.7291 0.84124 0.73862 1.1875 1.3584 0.75883 1.3584-0.09196 0-0.56821-0.24784-1.0583-0.55075l-0.89113-0.55075 9.89e-4 1.0138c0.0028 2.845 3.7394 4.7938 6.2348 3.2515zm-1.7998-1.52c-0.19905-0.76118 0.25582-1.6438 0.84717-1.6438 0.55375 0 0.72786 0.78407 0.37709 1.6982-0.21818 0.56858-1.0713 0.53069-1.2243-0.05437zm8.4159-6.2703c-2.2209-0.78362-4.2183-1.9782-4.3368-2.5937-0.04795-0.24899 0.22007-1.1238 0.59561-1.9441l0.68279-1.4914 1.428 0.16784c1.949 0.22907 4.1822 1.125 5.3757 2.1567l0.99248 0.85794-0.34391 1.2858c-0.64197 2.4002-1.3263 2.6433-4.3939 1.561z"/></g></svg>
