<?xml version="1.0" encoding="UTF-8"?>
<svg width="19.579mm" height="19.579mm" version="1.1" viewBox="0 0 19.579 19.579" xml:space="preserve" xmlns="http://www.w3.org/2000/svg"><g transform="translate(-98.261 -101.51)"><path d="m107.28 117.78c-0.3297-1.819-0.67974-3.3073-0.77789-3.3073-0.0982 0-0.59304 0.27546-1.0998 0.61214-1.9922 1.3237-2.9942 1.8615-2.7742 1.4889 0.12387-0.2097 0.68073-1.0593 1.2375-1.8881 0.55675-0.82876 1.0123-1.6106 1.0123-1.7374s-1.4883-0.51237-3.3073-0.85681c-1.819-0.34445-3.3073-0.70163-3.3073-0.79375 0-0.0921 1.4883-0.44931 3.3073-0.79375 1.819-0.34445 3.3073-0.73001 3.3073-0.85682 0-0.1268-0.45551-0.90863-1.0123-1.7374-0.55674-0.82876-1.1136-1.6784-1.2375-1.8881-0.22007-0.37256 0.78194 0.16522 2.7742 1.4889 0.50672 0.33668 1.0016 0.61215 1.0998 0.61215 0.0981 0 0.44819-1.4883 0.77789-3.3073 0.32969-1.819 0.67453-3.3073 0.7663-3.3073 0.0918 0 0.44246 1.4304 0.77929 3.1786 0.33684 1.7482 0.69761 3.2312 0.80172 3.2956 0.10411 0.0643 0.59613-0.15322 1.0934-0.48346s1.376-0.88618 1.9528-1.2354l1.0487-0.63498-0.63497 1.0487c-0.34924 0.57677-0.91044 1.4633-1.2471 1.97-0.33668 0.50672-0.61215 0.99089-0.61215 1.0759 0 0.085 1.4883 0.43643 3.3073 0.78088 1.819 0.34444 3.3073 0.71401 3.3073 0.82127s-0.38695 0.27052-0.85989 0.36282-1.9548 0.40772-3.2931 0.70097l-2.4332 0.53317 1.0756 1.7674c0.5916 0.9721 1.1421 1.8795 1.2233 2.0164 0.14784 0.24926-1.1261-0.47471-2.8466-1.6178-0.50394-0.33479-0.99323-0.52096-1.0873-0.41371-0.0941 0.10725-0.45239 1.594-0.79623 3.3039-0.34383 1.7099-0.69724 3.1088-0.78535 3.1088-0.0881 0-0.42994-1.4883-0.75963-3.3073z"/></g></svg>
