<?xml version="1.0" encoding="UTF-8"?>
<svg width="19.831mm" height="20.973mm" version="1.1" viewBox="0 0 19.831 20.973" xml:space="preserve" xmlns="http://www.w3.org/2000/svg"><g transform="translate(-56.734 -91.418)"><path d="m56.816 111.99c-0.26934-0.70189 0.15755-2.1433 0.8187-2.7645 0.39746-0.3734 1.0995-0.65381 1.848-0.73818 1.5023-0.16934 1.6029-0.75891 0.3472-2.0349-1.5803-1.6058-2.6126-3.1236-2.4248-3.5654 0.09822-0.23105 0.27315-0.97417 0.38874-1.6514 0.4458-2.6119 1.7695-3.9261 3.9543-3.9261 2.18 0 3.4914 1.2979 3.9669 3.9261 0.12252 0.67721 0.29528 1.4694 0.3839 1.7604 0.12236 0.40184-0.25436 0.97351-1.5657 2.3759-2.152 2.3014-2.247 2.9206-0.4786 3.12 1.654 0.18643 2.7206 1.3009 2.7206 2.8427v1.0542h-4.9031c-4.1251 0-4.9274-0.0633-5.0562-0.39887zm11.563-11.567 0.01646-1.3954 4.1327-2.988 4.0364 3.1474v2.6313l-1.9418-1.4615c-1.068-0.80382-2.0396-1.4615-2.1593-1.4615-0.11961 0-1.0913 0.65768-2.1593 1.4615l-1.9418 1.4615zm-0.0091-4.9011 0.0074-1.2568 1.9108-1.3921c1.051-0.76565 2.0097-1.4205 2.1305-1.4552 0.12085-0.03471 1.0977 0.59173 2.1708 1.3921l1.9511 1.4552 0.01201 1.2568c0.0066 0.69122-0.05277 1.2568-0.13193 1.2568-0.07917 0-0.99412-0.64327-2.0332-1.4295l-1.8893-1.4295-1.933 1.4295c-1.0631 0.78622-1.9936 1.4295-2.0678 1.4295-0.07417 0-0.13152-0.56555-0.12744-1.2568z"/></g></svg>
