<?xml version="1.0" encoding="UTF-8"?>
<svg width="27.132mm" height="26.846mm" version="1.1" viewBox="0 0 27.132 26.846" xml:space="preserve" xmlns="http://www.w3.org/2000/svg"><g transform="translate(-32.361 -86.455)"><path d="m32.361 106.32c0-5.8808-0.01362-7.1657 0.39688-7.3084 0.39444-0.13712 0.39688-0.55715 0.39688-0.83555 0-0.34927 0.37588-0.66729 1.2126-1.0259 1.5133-0.64868 1.6979-0.64804 1.6979 0.0059 0 0.35062-0.30832 0.65444-0.92604 0.91254l-0.92604 0.38692v11.466l0.7276-0.16107c2.9227-0.647 4.9152-0.78893 6.8792-0.49002 1.1278 0.17165 2.3184 0.38837 2.6458 0.4816 0.59183 0.16853 0.59531 0.15229 0.59531-2.7718v-2.9413h1.3229v2.9413c0 2.924 3e-3 2.9403 0.59531 2.7718 0.32743-0.0932 1.518-0.30995 2.6458-0.4816 1.965-0.29907 3.953-0.15728 6.8844 0.49102l0.73286 0.16208-0.1428-11.557-1.3152-0.48813c-0.72333-0.26847-2.3009-0.55769-3.5057-0.64272-1.9-0.13408-2.1906-0.21958-2.1906-0.64446 0-0.42281 0.21921-0.48987 1.6014-0.48987 3.0943 0 6.8653 1.2436 6.8653 2.264 0 0.23081 0.02445 0.81845 0.39687 0.81654 0.84053-0.0043 0.59338 13.794-1e-3 14.022-0.21885 0.084-1.3283-0.0983-2.4654-0.40518-2.7184-0.7335-6.1229-0.74677-8.6955-0.0339-1.8846 0.52226-1.8976 0.52226-3.9396 0-2.6993-0.69036-5.9991-0.6884-8.711 5e-3 -1.138 0.29104-2.2286 0.52916-2.4236 0.52916-0.28739 0-0.35455-1.3221-0.35455-6.9791zm11.642-6.001c0-0.42102 0.23768-1.1553 0.52818-1.6318 0.74808-1.227 0.69013-2.9565-0.1482-4.4232l-0.67198-1.1756 6.6359-6.6359 1.1846 1.1846-5.401 5.4213 0.39142 1.2988c0.47646 1.5811 0.4802 2.6206 0.0141 3.9267l-0.35409 0.99219h3.1126v1.8511l-5.2917-0.0428zm-3.8365-1.0284c-1.6675-0.68248-2.1266-3.1675-0.82554-4.4686 0.9834-0.9834 2.7702-0.99755 3.7381-0.02959 2.102 2.102-0.17501 5.6186-2.9126 4.4982zm1.8521-2.528c0-0.70475-0.0886-0.79375-0.79013-0.79375-0.55186 0-0.81791 0.14428-0.88227 0.47848-0.16528 0.85821 0.16974 1.2819 0.94329 1.1929 0.6151-0.07075 0.72911-0.20799 0.72911-0.87762z"/></g></svg>
