<?xml version="1.0" encoding="UTF-8"?>
<svg width="9.8736mm" height="9.5849mm" version="1.1" viewBox="0 0 9.8736 9.5849" xmlns="http://www.w3.org/2000/svg">
 <g transform="translate(12.7 2.1167)">
  <path d="m-12.7 6.1848c0-0.70588 0.16502-1.2834 0.36669-1.2834 0.20166 0 0.36669-0.55988 0.36669-1.2442 0-1.1582 0.47056-1.6893 1.4967-1.6893 0.18518 0 0.33668 0.66003 0.33668 1.4667 0 0.80671 0.16502 1.4667 0.36669 1.4667 0.20169 0 0.36669-0.24749 0.36669-0.55002 0-0.38412 0.38709-0.55002 1.2834-0.55002 0.89633 0 1.2834 0.16589 1.2834 0.55002 0 0.30252 0.24752 0.55002 0.55004 0.55002 0.38034 0 0.55002-0.38206 0.55002-1.2385 0-0.68114 0.23937-1.4371 0.53189-1.6799 0.2989-0.24802 0.57999-1.2395 0.64169-2.2632 0.098134-1.6285 0.17328-1.7713 0.70802-1.3452 0.46707 0.37211 0.645 1.4214 0.81158 4.7851l0.21339 4.3085h-9.8736zm3.3141-3.9418c0.00767-0.2521 0.83275-1.3362 1.8334-2.409l1.8195-1.9506-0.011642 1.7673c-0.00635 0.97203-0.23088 2.0561-0.49877 2.409-0.576 0.75875-3.1646 0.90974-3.1424 0.18336z" style="fill:#d28900;stroke-width:.36668"/>
 </g>
</svg>
