<?xml version="1.0" encoding="UTF-8"?>
<svg width="10.13mm" height="10.106mm" version="1.1" viewBox="0 0 10.13 10.106" xmlns="http://www.w3.org/2000/svg">
 <g transform="translate(-56.885 -11.377)">
  <path d="m57.979 20.415c-1.2519-1.2519-1.4314-2.798-0.52782-4.5454 0.69718-1.3482 2.0346-2.0575 4.4855-2.3788 1.0254-0.13443 2.4997-0.66487 3.2764-1.1788 0.77655-0.51395 1.5001-0.9344 1.6077-0.9344 0.3656 0 0.19764 1.4016-0.35602 2.9708-0.30345 0.86008-0.3879 1.4625-0.18767 1.3388 0.58822-0.36354 0.40338 1.0101-0.36298 2.698-0.67252 1.4812-1.6792 2.3763-2.6725 2.3763-0.3433 0-0.34274-0.12443 0.0037-0.54033 0.71723-0.86424 0.30586-2.5021-0.84291-3.3561-0.96808-0.71961-1.1281-0.73615-2.0644-0.21294-0.68805 0.38447-1.0495 0.92612-1.1222 1.6814l-0.10705 1.1143 0.49112-0.9384c0.65982-1.2607 2.3288-1.4681 2.9202-0.3629 0.61095 1.1416 0.14269 2.5768-0.97996 3.0037-1.5643 0.59478-2.4032 0.42153-3.5599-0.73512z" style="fill:#a70000;stroke-width:.37536"/>
 </g>
</svg>
