<?xml version="1.0" encoding="UTF-8"?>
<svg width="19.779mm" height="15.781mm" version="1.1" viewBox="0 0 19.779 15.781" xmlns="http://www.w3.org/2000/svg">
 <g transform="translate(9.2604 -6.8792)">
  <path d="m-8.9708 19.691c0.17185-3.3209 0.46233-4.6591 1.1798-5.4363l0.48723-0.52776-0.86241-0.86241c-2.2944-2.2945-0.75213-5.9599 2.5078-5.9599 1.8285 0 3.2169 1.1459 3.5132 2.8996 0.21299 1.2609-0.53761 2.9793-1.5777 3.6119-0.45622 0.27742-0.65736 0.53028-0.49959 0.62783 0.34094 0.21074 1.0598 1.596 0.90715 1.7486-0.064029 0.06408-0.44844-0.05517-0.85413-0.26493-1.4815-0.7661-2.5361-0.29684-2.849 1.2678-0.22839 1.142 0.30909 1.7394 2.5399 2.823l1.9713 0.9575v2.0845h-6.6172zm12.768 1.9392v-1.0302l2.1139-1.0908c2.5202-1.3004 2.896-1.8953 2.1168-3.3507-0.58383-1.0903-1.4542-1.2706-2.6702-0.55303-0.97044 0.57258-1.0655 0.33385-0.39272-0.98586l0.44424-0.87138-0.79907-0.63762c-1.4112-1.126-1.67-3.4247-0.54642-4.853 1.8939-2.4077 5.8613-1.4992 6.4183 1.4697 0.20026 1.0676-0.44818 2.8178-1.2891 3.4793-0.59264 0.46612-0.60254 0.5117-0.20653 0.94925 0.68395 0.75576 1.0885 2.5567 1.2613 5.6153l0.16328 2.8892h-6.6174v-1.0302zm-6.3041-1.9149c-4.3061-2.2612-4.3193-2.2741-3.4344-3.3669l0.44381-0.54816 2.8583 1.4909c1.572 0.81997 3.0101 1.4909 3.1957 1.4909 0.18558 0 1.6541-0.66003 3.2634-1.4667 3.1514-1.5797 3.6112-1.6079 3.6112-0.22127 0 0.6227-0.26159 0.81349-3.2828 2.3943-1.8055 0.94472-3.4144 1.7116-3.5753 1.7042-0.16092-0.0074-1.547-0.67215-3.0801-1.4772z" style="fill:#80a;stroke-width:.2424"/>
 </g>
</svg>
