<?xml version="1.0" encoding="UTF-8"?>
<svg width="21.234mm" height="25.156mm" version="1.1" viewBox="0 0 21.234 25.156" xmlns="http://www.w3.org/2000/svg">
 <g transform="translate(.79375 10.319)">
  <path d="m-0.44544 14.512c-0.46442-0.4645-0.46442-17.552 0-18.017 0.42005-0.41997 2.1771-0.41997 2.5971 0 0.2173 0.2173 0.32467 1.4248 0.32467 3.6521 0 1.9955 0.10623 3.3275 0.26546 3.3275 0.16362 0 0.29326-2.3597 0.33811-6.1544l0.072708-6.1544 1.5981-0.082391c1.0953-0.056462 1.6685 0.028628 1.8219 0.27054 0.12308 0.1941 0.22569 3.0007 0.22794 6.2368 0 3.7395 0.10279 5.8839 0.27469 5.8839 0.17293 0 0.27054-2.3716 0.27054-6.5738 0-4.7522 0.089958-6.6637 0.32464-6.8984 0.48109-0.48112 2.5321-0.40505 3.0503 0.11316 0.37973 0.37976 0.43429 1.2674 0.41151 6.6955-0.01429 3.4417 0.0066 6.3794 0.04744 6.5282 0.04024 0.1488 0.13785-2.5294 0.21646-5.9515l0.14295-6.2221 1.5981-0.082391c1.0954-0.056462 1.6685 0.028628 1.8219 0.27054 0.12306 0.1941 0.22569 3.0096 0.22799 6.2567 0.0056 5.3537 0.0458 5.8956 0.45315 5.8163 0.29287-0.057071 0.61309-0.66971 0.92104-1.7625 0.57169-2.0281 0.69736-2.248 1.2835-2.2461 0.93022 0.003175 2.4374 0.56274 2.5907 0.96197 0.13753 0.35854-2.8557 11.767-3.6032 13.733l-0.27501 0.72324h-8.3388c-6.1251 0-8.4251-0.08617-8.6635-0.32462zm10.49-0.63982c-0.43222-1.1369-0.34147-2.0241 0.18635-1.8216 0.30271 0.11615 0.38605 0.06906 0.25453-0.14375-0.27456-0.44424 0.25202-0.39362 1.2701 0.12208l0.86572 0.4386-0.81156-0.87998c-0.50874-0.5516-0.69107-0.92369-0.48861-0.99711 0.17764-0.06445 0.25918-0.28345 0.18116-0.4867-0.09829-0.2562 0.13457-0.40222 0.75909-0.47609l0.90099-0.10657-0.89403-0.2195c-0.56838-0.13957-0.84492-0.34758-0.75914-0.57105 0.07422-0.19333-0.01058-0.40357-0.18806-0.46715-0.20902-0.074851-0.0844-0.38026 0.35335-0.86577 0.62807-0.69665 0.63418-0.72824 0.08546-0.44291-0.72739 0.3782-1.529 0.40264-1.3047 0.03982 0.09797-0.15854-0.02275-0.19532-0.2962-0.090329-0.40502 0.15542-0.44244 0.030903-0.30588-1.0176l0.1556-1.1947-0.56295 1.0821c-0.30964 0.59515-0.61627 0.92485-0.68136 0.73263-0.088212-0.26056-0.21063-0.27281-0.48133-0.048154-0.28504 0.23656-0.47823 0.079163-0.89921-0.73266l-0.53623-1.0339 0.15515 1.1912c0.11221 0.86135 0.068845 1.1378-0.15658 0.99851-0.18473-0.11422-0.31168-0.019315-0.31168 0.23273 0 0.38571-0.09361 0.38629-1.0031 0.00635l-1.0031-0.41913 0.66498 0.72313c0.4966 0.54007 0.57158 0.75626 0.29617 0.85402-0.30607 0.10864-0.30739 0.16886-0.0076729 0.35414 0.2776 0.17156 0.2377 0.26313-0.17227 0.39563-0.2934 0.094827-0.77692 0.27572-1.0746 0.40203-0.45405 0.1927-0.40227 0.23257 0.32224 0.24791 0.90517 0.01905 1.4109 0.41566 0.8292 0.65016-0.1869 0.07535-0.1029 0.14663 0.18669 0.15838 0.45246 0.01826 0.39537 0.15875-0.40582 0.99872l-0.93231 0.97737 1.1498-0.57708c0.98441-0.49411 1.1497-0.51565 1.1497-0.14983 0 0.25466 0.12644 0.34909 0.31308 0.23376 0.22844-0.14116 0.27043 0.16552 0.15539 1.1338-0.15682 1.3194-0.1555 1.3222 0.22029 0.46876 0.44585-1.0127 0.81994-1.3039 1.0977-0.85466 0.13973 0.22614 0.26006 0.16592 0.39653-0.19846 0.16341-0.43627 0.2925-0.30977 0.77756 0.76189 0.61412 1.3568 0.99748 1.769 0.54965 0.59105z" style="fill:#80a;stroke-width:.27053"/>
 </g>
</svg>
