<?xml version="1.0" encoding="UTF-8"?>
<svg width="24.872mm" height="24.448mm" version="1.1" viewBox="0 0 24.872 24.448" xmlns="http://www.w3.org/2000/svg">
 <g transform="translate(-10.054 -6.8792)">
  <path d="m20.425 28.949-0.92689-2.3165-2.216 0.79126c-4.4246 1.5799-5.1199 0.93408-3.4074-3.1647 0.49906-1.1942 0.83632-2.2364 0.74948-2.316-0.08676-0.07961-1.1695-0.56401-2.4062-1.0765-2.8846-1.1954-2.8846-2.5892 0-3.7847 1.2366-0.51252 2.3271-1.0046 2.4235-1.0938 0.09623-0.08903-0.27744-1.2924-0.83032-2.6742-1.3748-3.436-0.5919-4.1084 2.9562-2.5389l2.728 1.2067 0.83317-2.4995c1.2586-3.7759 3.0703-3.4183 4.6009 0.90805l0.56925 1.609 2.4477-1.1827c1.3463-0.65042 2.7331-1.0063 3.0818-0.79079 0.71022 0.43894 0.17232 4.3242-0.75385 5.4453-0.40561 0.49099 0.09234 0.91093 1.7025 1.4359 3.7874 1.2348 3.9451 3.0212 0.37084 4.2008-1.7487 0.57708-2.0359 0.90686-1.7224 1.9776 0.20698 0.70678 0.53602 2.1619 0.73126 3.2337 0.41521 2.28-0.34361 2.49-3.7917 1.0493-1.1839-0.49466-2.2118-0.89937-2.2842-0.89937-0.07242 0-0.45503 1.0792-0.85021 2.3983-0.97335 3.2487-2.7239 3.2845-4.0054 0.08178zm3.5407-1.2809c1.1617-6.4103 0.6536-5.7756 5.5463-6.9278 2.4515-0.57735 4.4408-1.3659 4.4408-1.7602 0-0.39299-1.5514-1.0464-3.4476-1.4521-1.8962-0.40571-3.895-0.86368-4.4417-1.0177-0.68371-0.19259-1.3074-1.6878-1.9971-4.7878-0.62585-2.8131-1.2643-4.4207-1.6982-4.276-0.85315 0.28437-2.0972 4.2413-2.1597 6.8695-0.03598 1.5084-0.34475 1.9985-1.3951 2.2141-5.3951 1.1072-7.691 1.7341-7.9631 2.1745-0.45344 0.73369 1.5586 1.668 4.5903 2.1315 3.9037 0.59682 4.5123 1.0962 4.9148 4.0333 0.1995 1.4554 0.69024 3.3649 1.0906 4.2435 0.59137 1.298 0.87029 1.4528 1.4879 0.82582 0.41804-0.42439 0.88236-1.4461 1.0318-2.2705zm-7.3806-0.97737c2.0876-0.83534 2.4163-1.2058 2.2606-2.5482-0.12639-1.0895-0.58597-1.6283-1.4999-1.7583-1.0195-0.14504-1.5961 0.35833-2.5482 2.2246-1.8058 3.5397-1.8186 3.5249 1.7875 2.082zm14.37 0.39812c0-1.0292-2.0042-4.817-2.5488-4.817-1.1157 0-2.8474 1.2803-2.8474 2.1053 0 0.47516 1.0118 1.3981 2.2484 2.0509 2.5675 1.3554 3.1478 1.4772 3.1478 0.66074zm-12.098-13.074c0.15224-1.0727-0.2571-1.5497-1.9294-2.2484-3.1931-1.3342-3.4997-1.1124-2.1419 1.549 0.96311 1.8878 1.5392 2.3937 2.5604 2.2484 0.84008-0.11956 1.3877-0.68101 1.511-1.549zm11.088-0.45754c1.4975-3.1403 1.2794-3.3925-1.6877-1.9509-3.4014 1.6525-3.7641 4.0698-0.61066 4.0698 0.88395 0 1.6049-0.66455 2.2984-2.1189z" style="fill:#80a;stroke-width:.59958"/>
 </g>
</svg>
