<?xml version="1.0" encoding="UTF-8"?>
<svg width="24.356mm" height="17.11mm" version="1.1" viewBox="0 0 24.356 17.11" xmlns="http://www.w3.org/2000/svg">
 <g transform="translate(11.112 5.0271)">
  <path d="m-8.3293 12.03c0-0.02905 0.19053-0.67154 0.4214-1.4277 0.23093-0.75618 0.42053-1.3834 0.42143-1.3938 0.00556-0.039793-2.6564-2.1126-3.1293-2.4387l-0.49668-0.34253 1.7609-1.3664c0.96851-0.7515 1.7486-1.5016 1.7336-1.6669-0.014817-0.16529-0.2631-1.1262-0.55129-2.1354l-0.52385-1.8349 2.2905-0.14846c2.0878-0.13533 2.3021-0.1882 2.4214-0.59753 0.071993-0.24699 0.41778-1.1817 0.76835-2.0771l0.63746-1.628 1.7208 1.1521c0.94644 0.63365 1.8415 1.1521 1.989 1.1521 0.14751 0 1.0715-0.51821 2.0533-1.1516l1.7851-1.1516 0.62084 1.6275c0.34147 0.89511 0.68588 1.8417 0.76536 2.1034 0.12777 0.42048 0.29686 0.48046 1.4523 0.51496 0.71924 0.021431 1.4981 0.05969 1.7307 0.084905 0.2327 0.025135 0.67434 0.055245 0.98152 0.066702l0.55851 0.020902-0.60772 2.0623c-0.3342 1.1342-0.60931 2.08-0.61135 2.1017 0 0.021696 0.75777 0.62844 1.6885 1.3484 0.93065 0.71996 1.6921 1.3862 1.6921 1.4806 0 0.094377-0.76047 0.75988-1.69 1.4789-1.8526 1.4332-1.8071 1.303-1.1333 3.241 0.15677 0.45088 0.28504 0.85542 0.28504 0.89895 0 0.04352-0.75965 0.07916-1.6881 0.07916-1.6716 0-1.6892-0.0058-1.8075-0.58166-0.25972-1.2651-0.5878-2.3081-0.94977-3.0193-0.37949-0.74565-2.1754-2.5721-2.7557-2.8025-0.24773-0.098398-0.21976-0.19743 0.14338-0.508 0.51062-0.43659 0.88437-1.0974 1.1555-2.0428 0.64606-2.2527-2.08-4.801-4.4525-4.1622-2.8329 0.76282-3.7095 3.9653-1.6758 6.1219 0.38362 0.4068 0.42048 0.53382 0.17658 0.6083-0.16952 0.051805-0.84233 0.63614-1.4951 1.2985-1.2358 1.2542-2.041 2.8895-2.1455 4.3576l-0.051858 0.7294h-1.745c-0.9598 2.11e-4 -1.7443-0.02328-1.7434-0.05247z" style="fill:#80a;stroke-width:.21152"/>
 </g>
</svg>
