<?xml version="1.0" encoding="UTF-8"?>
<svg width="17.013mm" height="11.978mm" version="1.1" viewBox="0 0 17.013 11.978" xmlns="http://www.w3.org/2000/svg">
 <g transform="translate(2.8107 4.1517)">
  <path d="m4.8792 5.6195c0-2.0893-0.088979-2.2067-1.6727-2.2067-5.5584 0-8.1905-4.7848-3.8442-6.9883 1.4731-0.74681 3.4851-0.16936 5.2857 1.517 1.1327 1.0608 1.1608 1.061 2.1086 0.013758 0.52832-0.5838 1.6859-1.3619 2.5725-1.7291 1.35-0.55917 1.8413-0.51734 3.0239 0.25755 1.7156 1.1241 2.1318 2.0868 1.6802 3.8863-0.42026 1.6743-2.9123 3.0429-5.5407 3.0429-1.9168 0-1.9582 0.046672-1.9582 2.2067 0 1.5937-0.22987 2.2067-0.82748 2.2067-0.59764 0-0.82751-0.61296-0.82751-2.2067z" style="fill:#80a;stroke-width:.55166"/>
 </g>
</svg>
