<?xml version="1.0" encoding="UTF-8"?>
<svg width="15.197mm" height="21.968mm" version="1.1" viewBox="0 0 15.197 21.968" xmlns="http://www.w3.org/2000/svg">
 <g transform="translate(-16.933 1.0583)">
  <path d="m24.093 20.707c-0.17278-0.17278-0.31414-1.0223-0.31414-1.8878 0-1.5038-0.09944-1.5848-2.2412-1.8262-3.774-0.42539-5.7647-3.2178-3.8233-5.363 0.75652-0.83594 0.75652-0.9608 0-1.7967-1.0603-1.1717-1.0377-2.8561 0.04667-3.4679 0.68856-0.38851 0.73746-0.6085 0.24562-1.1052-1.6877-1.7042 0.01552-4.6171 2.3942-4.0946 0.82724 0.18169 1.413 0.10506 1.413-0.18485 0-0.89423 1.5211-2.0391 2.7091-2.0391 0.64754 0 1.5053 0.48555 1.9307 1.0929 0.58652 0.83737 1.1631 1.0587 2.4657 0.94645 1.4719-0.12681 1.7428 0.023285 2.0175 1.1177 0.17451 0.6953 0.18198 1.8033 0.0166 2.4622-0.16538 0.65891-0.07881 1.3351 0.19237 1.5027 0.80513 0.4976 0.57021 3.1022-0.32499 3.6032-0.74504 0.41694-0.72311 0.57848 0.24562 1.81 0.58502 0.74373 1.0637 1.726 1.0637 2.1829 0 1.4534-2.2388 3.0631-4.6363 3.3333-2.1586 0.24331-2.2412 0.31254-2.2412 1.8791 0 1.5981-0.54074 2.4537-1.1596 1.8349zm-0.3029-8.7768c0.47535-1.2503 1.4625-1.2462 1.4625 6e-3 0 0.83619 1.3428 1.3595 2.5255 0.9841 1.0277-0.32618 1.1856-1.7445 0.3649-3.2779-0.45449-0.84923-0.42061-0.97566 0.19788-0.73832 0.41045 0.1575 1.1114 0.019394 1.5576-0.30691 1.0677-0.78073 0.50882-2.2072-1.0146-2.5896l-1.1728-0.29436 1.227-0.96518c0.67486-0.53084 1.227-1.2571 1.227-1.6138 0-1.1117-1.3563-1.2332-2.6252-0.23508-1.5484 1.2179-1.593 1.2085-1.5698-0.33365 0.02191-1.4572-1.1672-2.4596-2.3701-1.998-0.50132 0.19237-0.80365 0.87287-0.80365 1.8089 0 1.4864-0.0115 1.4929-1.2243 0.69828-0.67338-0.44122-1.5576-0.67431-1.965-0.51799-1.0647 0.40855-0.91239 2.1536 0.24183 2.7713 1.2387 0.66291 1.2717 1.4737 0.06015 1.4737-0.50729 0-1.2174 0.35552-1.578 0.79003-0.55582 0.66972-0.5203 0.88902 0.23323 1.44 0.48889 0.35749 1.199 0.53098 1.578 0.38553 0.82005-0.31469 0.91187 0.40392 0.14908 1.1667-0.29702 0.29703-0.39266 1.0044-0.21252 1.572 0.50293 1.5846 3.0827 1.4277 3.7113-0.22574zm-0.66624-3.4911c-0.18013-0.18012-0.3275-0.93895-0.3275-1.6863 0-1.6661 1.6719-2.4198 2.8203-1.2714 1.1133 1.1133 0.43339 3.2852-1.0285 3.2852-0.62529 0-1.2843-0.14737-1.4644-0.3275z" style="fill:#80a;stroke-width:.49125"/>
 </g>
</svg>
