<?xml version="1.0" encoding="UTF-8"?>
<svg width="16.135mm" height="21.371mm" version="1.1" viewBox="0 0 16.135 21.371" xmlns="http://www.w3.org/2000/svg">
 <g transform="translate(14.552 6.8792)">
  <path d="m-7.2831 12.407c0-2.0409-0.039158-2.085-1.8502-2.085-2.1538 0-4.6588-1.1582-5.1234-2.3689-1.3058-3.4029 1.9298-5.5364 5.5402-3.653l1.4334 0.74774-0.016404-1.9238c-0.0092605-1.058-0.36089-2.3791-0.78182-2.9355-0.4209-0.5565-0.76531-1.4454-0.76531-1.9754 0-1.1819 1.9444-5.092 2.5321-5.092 0.23429 0 0.85712 1.2684 1.3841 2.8186 0.90019 2.6484 0.90527 2.8991 0.084614 4.1516-0.48032 0.73313-0.87344 2.1369-0.87344 3.1195v1.7865l1.869-0.95282c1.0279-0.52406 2.2593-0.81497 2.7365-0.64646 4.8174 1.7012 2.7392 6.9241-2.7552 6.9241-1.8111 0-1.8503 0.04408-1.8503 2.085 0 1.5058-0.21714 2.085-0.78182 2.085-0.56467 0-0.78187-0.57917-0.78187-2.085z" style="fill:#80a;stroke-width:.52124"/>
 </g>
</svg>
