<?xml version="1.0" encoding="UTF-8"?>
<svg width="30.652mm" height="31.158mm" version="1.1" viewBox="0 0 30.652 31.158" xmlns="http://www.w3.org/2000/svg">
 <g transform="translate(3.4396 8.7313)">
  <path d="m6.2838 21.933c-0.59992-0.48617-0.62463-0.64577-0.62463-4.0349 0-5.4416 0.10991-5.8293 2.2471-7.9287 1.6743-1.6446 1.7334-1.7403 0.84614-1.3696-1.2454 0.52038-4.8243 0.51996-6.5778 0-3.9371-1.1692-5.912-4.0915-5.5778-8.2539 0.25635-3.1935 2.2919-6.2974 5.059-7.7142 2.748-1.407 6.6361-1.7671 9.5065-0.88053 2.828 0.87347 4.8223 2.5773 6.6945 5.7194 0.26765 0.44921 0.32644 0.42122 0.72207-0.34385 1.0588-2.0476 3.8957-3.4299 6.5458-3.1896 0.84312 0.076438 1.6601 0.21757 1.8155 0.31361 0.45117 0.27884 0.31591 2.5579-0.22209 3.7426-1.033 2.2747-3.1833 3.6099-5.9777 3.7118l-1.8521 0.067548-0.17193 1.1736c-0.41918 2.8612-1.9657 5.0305-5.4872 7.6974-1.4521 1.0997-2.8266 2.2657-3.0545 2.5911-0.32917 0.46995-0.41442 1.3686-0.41442 4.3692 0 3.4248-0.049398 3.827-0.52917 4.3068-0.67868 0.67868-2.1242 0.68995-2.9472 0.02302zm7.1915-16.84c1.88-2.7325 1.5177-5.5811-1.0252-8.0608-1.6755-1.6339-2.8389-2.1098-5.1581-2.1098-4.2682 0-7.1693 2.9952-6.7042 6.9216 0.088133 0.74417 0.37227 1.5875 0.63143 1.874 0.65572 0.72509 2.2976 1.5231 3.1339 1.5231h0.6994l-0.82116-0.93525c-0.6413-0.73044-0.82092-1.1795-0.82016-2.0505 0-1.3516 0.74282-2.6589 1.8263-3.2191 0.9117-0.47146 3.347-0.54142 4.4394-0.1275 2.9887 1.1324 3.7035 5.0822 1.4799 8.178-0.4477 0.62333-0.42153 0.61791 0.54044-0.11181 0.556-0.42177 1.3561-1.2687 1.7781-1.882z" style="fill:#80a;stroke-width:.26458"/>
 </g>
</svg>
