<svg width="128" height="143" xmlns="http://www.w3.org/2000/svg" viewBox="0 0 33.948 38.052"><title>shallie category gas</title><g fill="#212121" class="nc-icon-wrapper"><g id="layer1" transform="translate(-67.134 -117.159)"><path d="M71.526 154.782c-.587-.587-.516-1.6.144-2.063.614-.43 1.245-.316 1.755.317.467.579.413 1.022-.198 1.632-.637.637-1.144.671-1.701.114zm13.058-.358c-.885-.885-1.034-2.177-.362-3.136.346-.493.66-.588 1.952-.588 1.002 0 1.648.13 1.85.372.406.49.092 3.038-.453 3.662-.65.746-2.08.598-2.987-.31zm-14.358-6.65c-.838-.658-.897-1.378-.174-2.101.675-.675 1.335-.672 2.067.01 1.495 1.393-.283 3.358-1.893 2.092zm17.66-1.515c-1.672-1.09-1.96-1.477-1.96-2.641 0-.86.875-2.697 1.718-3.606.564-.608.844-.69 2.382-.69 3.037 0 4.894 1.477 4.896 3.894.002 2.436-1.28 3.777-3.796 3.97-1.544.117-1.71.07-3.24-.927zm-14.539-2.294c-.962-.963-.923-2.802.078-3.588.583-.46.935-.539 1.783-.403 1.473.235 2.252 1.037 2.252 2.317 0 1.428-.917 2.323-2.381 2.323-.796 0-1.254-.171-1.732-.65zm-3.427-6.935c-1.167-.617-1.717-1.162-2.277-2.261-1.04-2.036-.469-3.971 1.55-5.251 2.872-1.822 6.207-.4 6.926 2.954.39 1.822.132 2.988-.905 4.088-.82.87-.942.91-2.68.9-1.133-.007-2.12-.17-2.614-.43zm16.536.254c-.937-.34-1.852-1.507-1.852-2.362 0-1.626 1.813-2.191 3.467-1.081 1.229.825 1.322 1.791.275 2.838-.78.782-1.113.888-1.89.605zm4.895-4.356c-2.367-.901-4.519-2.27-5.283-3.36-.772-1.1-.801-1.244-.774-3.83.042-3.917.325-4.696 2.255-6.203 2.686-2.097 3.577-2.492 5.302-2.35 2.27.186 4.432 1.456 6.34 3.722.856 1.017 1.662 2.232 1.79 2.7.263.95-.02 4.067-.474 5.218-.564 1.433-1.915 3.096-2.936 3.617-1.261.643-5.034.938-6.22.486z" id="path4674" fill="#212121" stroke-width=".265"></path></g></g></svg>