<svg width="167" height="124" xmlns="http://www.w3.org/2000/svg" viewBox="0 0 44.234 32.993"><title>shallie category dragon material</title><g fill="#212121" class="nc-icon-wrapper"><g id="layer1" transform="translate(-117.024 -131.86)"><path d="M127.764 163.696c-.595-.636-1.41-1.365-1.81-1.619-.72-.457-.738-.452-1.56.35-1.113 1.089-2.582 1.776-3.1 1.45-.68-.43-.915-1.03-.716-1.823.248-.987 2.804-3.552 3.54-3.552.827 0 3.23 1.002 4.235 1.767.483.367.913.626.956.574.043-.05.476-1.157.963-2.458.486-1.302 1.278-2.882 1.758-3.511.77-1.008.855-1.28.716-2.265-.294-2.082-2.37-7.812-2.708-7.473-.085.085-.365 1.19-.62 2.455-.26 1.276-.881 3.14-1.397 4.184-1.745 3.53-6.49 7.62-7.854 6.768-.269-.168-.826-.306-1.237-.306-1.407 0-2.46-1.72-1.588-2.593.175-.174.8-.32 1.39-.323 1.323-.007 2.957-.74 3.899-1.747 1.013-1.085 2.495-4.356 3.152-6.957.43-1.704.537-2.773.452-4.545-.11-2.294-.122-2.328-1.221-3.52-1.16-1.26-1.318-1.697-.799-2.216.24-.24.087-.406-.653-.715-.53-.221-1.078-.403-1.218-.403-.473 0-1.086-.828-1.086-1.468 0-.826.84-1.363 2.726-1.742 2.076-.416 3.574.027 5.038 1.491.618.618 1.463 1.177 1.9 1.257 11.78 2.157 17.812 4.341 22.774 8.247 2.871 2.26 4.905 5.313 7.205 10.815.855 2.046.155 2.406-1.883.97-2.02-1.425-3.609-1.794-8.685-2.016l-3.866-.169-.169.899c-.249 1.328-2.208 6.352-2.774 7.116-.52.701-1.296.935-2.281.688-.33-.083-1.643-1.093-2.92-2.246-2.544-2.297-3.337-2.822-3.924-2.596-.213.082-.749 1.08-1.19 2.218-1.208 3.12-2.16 5.19-2.622 5.707-.714.796-1.642.568-2.823-.693zm14.904-8.126c.461-1.32.942-2.954 1.068-3.63.404-2.16.71-2.266 6.031-2.087 2.51.084 4.564.107 4.564.05 0-.17-4.28-3.444-5.424-4.148-2.283-1.406-12.409-5.492-12.755-5.146-.053.053.752.916 1.789 1.917 4.903 4.732 6.585 7.983 4.601 8.887-.907.413-1.983-.397-2.451-1.846-.623-1.924-8.007-9.123-8.674-8.456-.088.088.316 1.03.898 2.094 1.193 2.18 2.715 6.118 3.365 8.707.416 1.655.512 1.79 2.2 3.08.972.743 2.116 1.717 2.544 2.165.427.449.918.815 1.091.815.173 0 .692-1.08 1.153-2.402z" id="path4691" fill="#212121" stroke-width=".265"></path></g></g></svg>