<svg width="154" height="158" xmlns="http://www.w3.org/2000/svg" viewBox="0 0 40.82 41.901"><title>shallie category poison</title><g fill="#212121" class="nc-icon-wrapper"><g id="layer1" transform="translate(24.673 -202.547)"><path d="M4.042 244.1c-1.91-.97-2.647-2.75-1.858-4.48.305-.67.229-.784-1.819-2.725-2.277-2.16-3.588-3.217-3.988-3.217-.34 0-6.481 3.396-6.844 3.785-.162.174-.423 1.13-.58 2.126-.333 2.1-.838 3.006-1.812 3.25-1.118.281-2.038-.193-2.373-1.222-.28-.86-.393-.93-1.966-1.214-1.321-.24-1.823-.473-2.401-1.12-1.366-1.53-1.336-4.015.063-5.192 1.09-.917 1.9-1.077 3.793-.747 1.449.252 1.728.221 2.925-.325.727-.332 1.552-.78 1.833-.996.5-.385.5-.404-.067-1.124-.317-.403-.576-1.014-.576-1.357 0-.911-1.533-2.9-3.75-4.865-2.972-2.634-2.714-2.503-3.626-1.83-.955.707-3.06.949-3.975.457-.35-.188-.879-.669-1.175-1.068-1.017-1.37-.442-4.674.886-5.095.525-.167 1.323-1.46 1.715-2.778.362-1.218 1.184-1.852 2.401-1.852 1.767 0 2.284.603 2.623 3.055.378 2.736.832 2.855.713.187-.173-3.898 1.125-7.58 3.582-10.157 1.893-1.986 2.776-2.434 5.643-2.866 2.644-.399 4.06-.183 6.72 1.023 3.446 1.562 6.025 3.845 7.878 6.974 1.086 1.834 1.135 2.008 1.135 4.065 0 2.01-.074 2.294-1.146 4.408-.755 1.49-1.602 2.692-2.485 3.528-.736.697-1.224 1.306-1.083 1.353.14.047 1.23-.467 2.421-1.142 1.643-.93 2.206-1.395 2.333-1.925.44-1.84 2.34-3.74 3.739-3.74 1.513 0 3.243 1.864 3.226 3.48-.003.341-.282 1.292-.62 2.113-.532 1.292-.567 1.576-.268 2.117.19.343.35 1.195.356 1.893.011 1.515-.668 2.353-2.304 2.843-1.346.403-2.323-.016-3.202-1.374l-.62-.959-2.683 1.267c-1.476.697-2.759 1.428-2.85 1.624a15.3 15.3 0 0 0-.458 1.254c-.287.884-.262.929 1.595 2.91 1.08 1.154 2.066 1.982 2.307 1.94 1.99-.352 2.35-.335 3.51.166 1.364.59 1.704 1.044 1.956 2.618.313 1.96-1.081 3.24-3.532 3.242-1.21 0-1.426.081-1.626.607-.507 1.334-2.193 1.832-3.666 1.084zm-6.336-15.78c-.111-1.418-.048-1.757.447-2.381.72-.91 1.145-.917 1.842-.03.424.539.548 1.077.548 2.38 0 1.24.095 1.685.358 1.685.36 0 .695-2.698.699-5.636.002-1.563.557-2.694 1.582-3.224.473-.245 1.22-1.146 1.904-2.298.93-1.565 1.144-2.183 1.231-3.547.091-1.426.003-1.846-.647-3.065-2.494-4.683-8.664-7.813-12.735-6.461-3.202 1.063-5.621 5.279-5.621 9.794 0 1.904.102 2.359.898 3.993.556 1.144 1.26 2.125 1.852 2.584l.954.738v2.847c0 3.043.16 3.48 1.278 3.48.63 0 .639-.03.46-1.614-.15-1.329-.102-1.704.271-2.117 1.134-1.252 2.174-.23 2.571 2.529l.288 1.997h1.95zm-2.041-6.28c-2.548-.491-2.717-3.366-.228-3.864 1.703-.34 3.587 1.337 3.127 2.785-.142.448-1.472 1.427-1.778 1.31-.044-.017-.548-.121-1.121-.232zm4.428-3.962c-1.737-1.059-2.225-3.54-.986-5.012 1.424-1.692 4.37-1.662 5.416.055.925 1.516.481 4.523-.765 5.19-.853.456-2.73.337-3.665-.233zm-9.864-1.145c-1.755-.888-1.07-3.158 1-3.312 1.965-.146 2.875 1.65 1.52 3.003-.716.717-1.52.815-2.52.31z" id="path5102" fill="#212121" stroke-width=".265"></path></g></g></svg>