<?xml version="1.0" encoding="UTF-8" standalone="no"?>
<!-- Created with Inkscape (http://www.inkscape.org/) -->

<svg
   width="30.894119mm"
   height="37.971298mm"
   viewBox="0 0 30.894119 37.971299"
   version="1.1"
   id="svg5213"
   sodipodi:docname="shallie-category-oil.svg"
   inkscape:version="1.1 (c68e22c387, 2021-05-23)"
   xmlns:inkscape="http://www.inkscape.org/namespaces/inkscape"
   xmlns:sodipodi="http://sodipodi.sourceforge.net/DTD/sodipodi-0.dtd"
   xmlns="http://www.w3.org/2000/svg"
   xmlns:svg="http://www.w3.org/2000/svg">
  <sodipodi:namedview
     id="namedview5215"
     pagecolor="#ffffff"
     bordercolor="#666666"
     borderopacity="1.0"
     inkscape:pageshadow="2"
     inkscape:pageopacity="0.0"
     inkscape:pagecheckerboard="0"
     inkscape:document-units="mm"
     showgrid="false"
     inkscape:zoom="0.47433592"
     inkscape:cx="1134.2173"
     inkscape:cy="-89.598949"
     inkscape:window-width="1920"
     inkscape:window-height="1057"
     inkscape:window-x="1912"
     inkscape:window-y="-8"
     inkscape:window-maximized="1"
     inkscape:current-layer="layer1" />
  <defs
     id="defs5210" />
  <g
     inkscape:label="Layer 1"
     inkscape:groupmode="layer"
     id="layer1"
     transform="translate(236.90416,-92.460782)">
    <path
       d="m -208.65587,130.06754 c 0,-0.20045 -0.18825,-0.52073 -0.41836,-0.71168 -0.33822,-0.28072 -0.52054,-0.28339 -0.95182,-0.014 -0.61288,0.38275 -0.88201,0.23752 -0.65518,-0.35356 0.0862,-0.22458 0.44831,-0.40831 0.80478,-0.40831 0.35647,0 0.82111,-0.0664 1.03254,-0.1475 0.2114,-0.0811 0.59428,0.0624 0.85082,0.31893 0.29876,0.29874 0.35856,0.50236 0.16639,0.56642 -0.16499,0.055 -0.30001,0.32821 -0.30001,0.60714 0,0.27889 -0.11906,0.5071 -0.26458,0.5071 -0.14552,0 -0.26458,-0.16402 -0.26458,-0.36447 z m -9.525,-0.14687 c 0,-0.15531 0.14552,-0.28239 0.32337,-0.28239 0.17955,0 0.0726,-0.25083 -0.24051,-0.56391 -0.76305,-0.76306 -2.05967,-0.51048 -1.78715,0.34814 0.14954,0.4712 0.0993,0.52755 -0.3157,0.35404 -0.27146,-0.11348 -0.76145,-0.26442 -1.08887,-0.33544 -0.32742,-0.071 -0.59531,-0.2218 -0.59531,-0.33507 0,-0.2912 -1.92461,-0.57279 -4.10104,-0.60005 -1.17565,-0.0148 -2.57683,0.18617 -3.83646,0.55002 -2.3626,0.68244 -3.25713,0.72403 -3.71472,0.17267 -0.27932,-0.33655 -0.26152,-0.57399 0.0999,-1.33189 0.24191,-0.50726 0.43982,-1.07841 0.43982,-1.26921 0,-0.69939 -1.07249,-1.34022 -2.25549,-1.34765 -2.09095,-0.0132 -2.21801,-0.88736 -0.25514,-1.75562 0.62442,-0.27622 1.1856,-0.72855 1.26084,-1.01631 0.0746,-0.2852 0.41606,-0.57603 0.75886,-0.6463 0.34276,-0.0703 0.98041,-0.20442 1.41697,-0.29813 0.47339,-0.10163 1.22089,-0.65411 1.85208,-1.36888 3.67245,-4.15877 4.76878,-4.88667 7.62164,-5.06029 3.89541,-0.23709 7.91523,1.76178 9.21457,4.582 0.2744,0.59553 0.66252,0.88085 1.55435,1.14261 2.09089,0.61364 2.37924,0.79121 2.37924,1.46515 0,0.76301 0.38584,1.11517 1.7327,1.58147 1.29201,0.44731 1.39438,0.77235 0.36555,1.16068 -0.44932,0.16959 -0.88101,0.55332 -0.9593,0.85267 -0.17169,0.65656 -0.32004,0.67982 -0.73308,0.11499 -0.43106,-0.58952 -1.46421,-0.24697 -1.46421,0.48551 0,0.51996 -0.0966,0.54001 -1.78593,0.37055 -3.39834,-0.34087 -3.10394,-0.39987 -3.15222,0.63158 -0.0238,0.50932 -0.0536,1.0718 -0.0662,1.24997 -0.0394,0.56002 -2.66861,1.69217 -2.66861,1.14909 z m -9.26042,-2.94386 c 0,-0.13692 -0.11906,-0.24895 -0.26458,-0.24895 -0.14552,0 -0.26459,0.18561 -0.26459,0.41249 0,0.22685 0.11907,0.3389 0.26459,0.24897 0.14552,-0.09 0.26458,-0.27556 0.26458,-0.41251 z m 17.98931,-1.64857 c 0.98465,-0.49818 0.97454,-1.13226 -0.0236,-1.48021 -0.91463,-0.31885 -2.01893,-0.39981 -1.74723,-0.12811 0.0919,0.0919 0.0515,0.38306 -0.0898,0.64704 -0.17986,0.3361 -0.63307,0.50646 -1.51204,0.56846 -1.1793,0.0832 -1.2152,0.10699 -0.59372,0.39454 0.88942,0.41148 3.15163,0.4105 3.96639,-0.003 z m -2.90806,-2.77778 c 0,-0.35152 -3.2013,-3.85238 -4.14303,-4.53072 -1.17441,-0.84593 -1.44746,-0.49903 -0.45347,0.57615 0.43521,0.47075 1.11138,1.35896 1.50262,1.97377 0.78473,1.23317 3.09388,2.71155 3.09388,1.9808 z m -13.21178,-4.03399 c 0.29855,-0.15979 0.51178,-0.55224 0.51178,-0.942 0,-0.60738 -0.0878,-0.66067 -0.96539,-0.58603 -1.14424,0.0973 -1.69558,0.7492 -1.16969,1.38288 0.40349,0.48614 0.90273,0.5308 1.6233,0.14515 z m 17.74023,1.76588 c -0.22461,-0.27062 -0.19979,-0.59722 0.0999,-1.3144 0.43251,-1.03516 0.52541,-3.00773 0.16817,-3.57121 -0.16444,-0.2594 -0.36066,-0.11674 -0.75219,0.54686 -0.54565,0.9248 -2.69486,2.84676 -3.18336,2.84676 -0.57832,0 -0.53268,-0.78528 0.1165,-2.0048 0.50932,-0.95673 0.708,-1.80171 0.81068,-3.44757 0.0748,-1.19915 0.0578,-2.38411 -0.0378,-2.6333 -0.16377,-0.42672 -0.20328,-0.4264 -0.68082,0.006 -0.73245,0.66286 -0.971,0.36352 -1.16131,-1.45727 -0.20003,-1.9136 -1.91566,-5.45528 -3.64689,-7.52845 -0.60758,-0.72761 -1.61628,-2.012501 -2.24155,-2.855305 l -1.13686,-1.532361 -0.45331,0.691833 c -0.24931,0.380497 -1.35662,1.466109 -2.4607,2.412493 -3.16765,2.71518 -3.92629,3.51692 -4.51692,4.77338 -0.66151,1.40737 -1.31611,1.44277 -1.75331,0.0948 -0.28795,-0.88771 -0.30311,-0.85733 -0.72816,1.45843 -0.68498,3.73216 -0.48204,5.52876 1.00661,8.91125 0.13737,0.31213 0.0684,0.51237 -0.21387,0.62066 -0.54292,0.20836 -2.95097,-1.6356 -3.39907,-2.60281 -0.38089,-0.82217 -0.61002,-0.9112 -0.83516,-0.32451 -0.30636,0.79838 0.15407,2.73227 0.79357,3.33303 0.68519,0.64371 0.84124,1.55554 0.26625,1.55554 -0.19868,0 -0.64516,-0.21542 -0.99219,-0.47871 -0.73814,-0.55996 -2.57818,-1.63796 -2.79588,-1.63796 -0.33843,0 0.22852,1.73681 0.74721,2.28891 0.3397,0.36161 0.49234,0.76716 0.38955,1.03503 -0.15039,0.39195 -0.23421,0.39825 -0.76108,0.0573 -1.3086,-0.8468 -1.82581,-2.92431 -1.24687,-5.00859 0.33245,-1.19695 0.88482,-1.44008 1.57895,-0.69501 l 0.53107,0.57002 v -0.75425 c 0,-1.27532 0.8699,-3.64831 1.38698,-3.78354 0.259,-0.0677 0.53197,-0.43632 0.60661,-0.81912 0.0746,-0.3828 0.37806,-1.58896 0.67431,-2.68037 0.84164,-3.10059 3.86668,-7.695322 4.71567,-7.162583 0.31382,0.196929 0.31848,0.425053 0.0296,1.456663 -0.18835,0.67276 -0.27921,1.28643 -0.2019,1.36374 0.0773,0.0773 0.4807,-0.20182 0.89641,-0.62029 0.41571,-0.41846 1.3076,-1.19618 1.98197,-1.728255 1.39462,-1.100349 2.97693,-3.347297 3.82283,-5.428589 0.3166,-0.778986 0.69805,-1.538764 0.84767,-1.688385 0.33031,-0.330306 0.69742,0.299085 0.95038,1.629463 0.23892,1.256241 1.94366,4.006876 4.03903,6.516976 0.95927,1.14917 1.92238,2.35728 2.14021,2.6847 0.49091,0.73787 0.97399,0.77843 0.78772,0.0661 -0.18849,-0.7207 0.37441,-0.6773 1.08958,0.084 0.95835,1.0201 1.92037,3.82011 2.08669,6.07333 0.13663,1.85092 0.20092,2.04062 0.64405,1.89997 0.29212,-0.0927 0.53427,-0.0143 0.59558,0.19272 0.74162,2.50563 0.9621,3.56212 1.09423,5.24378 0.13444,1.71088 0.0812,2.10288 -0.38595,2.84427 -0.59404,0.94274 -0.86092,1.04434 -1.31283,0.4998 z m -6.78122,-4.14399 c -0.2087,-0.33771 -3.26996,-1.73902 -4.27672,-1.95773 -1.28995,-0.28019 -5.23291,0.25956 -6.54855,0.89646 -1.8084,0.87543 -2.08134,0.65554 -1.87692,-1.51204 0.13546,-1.4365 1.16181,-4.7544 1.65618,-5.35408 0.0582,-0.0706 0.32787,0.16608 0.59931,0.52594 l 0.49353,0.65426 0.5467,-1.27548 c 0.3007,-0.70149 0.54674,-1.35704 0.54674,-1.45679 0,-0.0998 0.48405,-0.76713 1.07566,-1.48307 0.59164,-0.71594 1.19113,-1.51744 1.33223,-1.7811 0.14111,-0.26365 0.35259,-0.47937 0.46996,-0.47937 0.25156,0 0.82632,1.8048 0.82632,2.59477 0,0.89424 0.46079,0.91697 1.22406,0.0603 0.88527,-0.99356 1.15676,-1.01124 1.15867,-0.0754 0,0.40018 0.13253,1.19967 0.29271,1.77662 0.25797,0.92925 0.32914,0.99722 0.62301,0.59532 0.58809,-0.80428 1.158,-0.54081 1.4509,0.67077 0.14949,0.61846 0.63201,2.19604 1.07225,3.50573 0.86074,2.56069 0.9766,3.547 0.47548,4.04812 -0.38886,0.38886 -0.91673,0.41048 -1.14152,0.0468 z m 7.28946,-10.56563 c -0.57709,-0.36499 -0.0429,-1.70609 0.72331,-1.81586 0.49284,-0.0706 0.59,0.0404 0.59,0.67469 0,0.68431 -0.40222,1.4007 -0.78052,1.39017 -0.08,-0.003 -0.3198,-0.11427 -0.53279,-0.249 z m -3.3019,-4.30374 c -1.08595,-1.550403 0.0899,-5.185276 1.34144,-4.146627 0.46673,0.387323 0.50379,3.959227 0.0459,4.417167 -0.47445,0.47445 -0.92734,0.38613 -1.38729,-0.27054 z m -18.22714,-4.350859 c -0.52769,-0.527659 -0.0513,-2.204852 0.62627,-2.204852 0.63071,0 0.78105,0.743267 0.33443,1.653645 -0.35676,0.727234 -0.62868,0.883259 -0.9607,0.551207 z"
       style="fill:#000000;stroke-width:0.264583"
       id="path4309" />
  </g>
</svg>
