<svg width="90" height="158" xmlns="http://www.w3.org/2000/svg" viewBox="0 0 24.041 42.002"><title>shallie category feather</title><g fill="#212121" class="nc-icon-wrapper"><g id="layer1" transform="translate(-36.104 -158.575)"><path d="M57.031 199.383c-.726-.652-1.504-1.575-1.73-2.05-.226-.476-.763-1.202-1.194-1.614-.756-.723-.811-.735-1.578-.338-1.192.616-2.842.807-3.745.432-.824-.34-1.604-1.3-1.604-1.972 0-.218-.225-.518-.5-.665-.277-.148-.628-.628-.78-1.068-.154-.44-.466-.8-.694-.8-.703 0-1.463-1.585-1.464-3.055 0-.735.125-1.462.279-1.616.197-.197-.167-.9-1.225-2.368-.827-1.149-1.832-2.803-2.232-3.676-3.9-8.505-4.66-11.113-4.42-15.158.126-2.093.287-2.785.983-4.198.458-.93 1.117-1.878 1.464-2.106 1.76-1.153 4.828-.46 7.068 1.598 1.246 1.143 1.257 1.169 1.26 2.836.003 2.04.25 3.667.556 3.667.124 0 .527-.596.896-1.323.369-.728.78-1.323.913-1.323.883 0 6.099 8.79 6.099 10.277 0 .261.235 1.36.522 2.44.288 1.082.526 2.63.53 3.44.005 1.285.106 1.567.8 2.232.436.418.793.962.793 1.21 0 .246.298.643.662.882.53.347.663.656.67 1.552.004.615.183 1.35.397 1.632.213.282.388.825.388 1.206 0 .38-.175.924-.388 1.206-.214.282-.393.826-.397 1.209-.011.913-.606 1.372-2.004 1.545l-1.141.14 1.03 2.382c.565 1.31 1.033 2.635 1.038 2.944.006.31.189.711.407.893.218.18.397.433.397.561 0 .537-.822.156-2.056-.954zm-4.863-5.896c1.173-1.225 2.104-1.675 3.624-1.751 1.583-.08 1.967-.273 1.491-.749-.5-.5-.365-.994.349-1.266.8-.304.833-.559.132-.997-.555-.346-.737-1.384-.243-1.384.158 0 .237-.148.177-.33-.06-.18-.338-.33-.617-.33-.433 0-.508-.197-.508-1.324v-1.323h-1.141c-.811 0-1.217-.134-1.402-.463-.144-.255-.42-.463-.615-.463-.431 0-1.204 1.129-1.216 1.776-.004.26-.188.71-.408 1.002-.399.527-.404.527-1.485-.065-.998-.547-1.11-.56-1.406-.155-.176.241-.84.509-1.476.594-1.127.151-1.16.184-1.355 1.326-.23 1.35.104 1.975.919 1.717.487-.155.513-.081.348 1.016-.17 1.134-.144 1.196.627 1.516.762.315.914.538.833 1.226-.052.439.532.833 1.427.964.437.064.895.134 1.018.156.124.021.54-.29.927-.693zm-4.01-8.947c.047-.142-.689-.64-1.636-1.108-.948-.467-1.723-.774-1.723-.68 0 .092.417.676.925 1.297.805.982 1.019 1.104 1.637.939.391-.105.75-.306.797-.448zm1.404-1.021c0-.599-1.293-2.064-2.2-2.493-3.135-1.483-4.68-2.092-4.68-1.846 0 .966 1.038 1.841 3.683 3.107 2.703 1.292 3.197 1.483 3.197 1.232zm4.13-1.628c.273.105.367-.111.366-.843-.002-1.265-.488-3.024-.786-2.84-.126.078-.554 1.123-.95 2.322a201.716 201.716 0 0 1-.865 2.577c-.08.218.308.003.861-.48.553-.483 1.171-.814 1.374-.736zm-1.74-3.234c.81-2.169 1.039-3.075.83-3.284-.33-.33-.538.11-1.527 3.236-.547 1.732-.84 3.478-.53 3.153.059-.06.61-1.458 1.226-3.105zm-3.894.775c-.242-.929-2.093-2.536-4.406-3.826-2.911-1.624-3.824-1.398-2.583.642.619 1.018 1.655 1.678 4.392 2.796 2.482 1.015 2.773 1.058 2.597.388zm2.478-1.815c.316-.983.784-2.334 1.04-3.004.462-1.205.46-1.233-.178-2.707-.355-.82-.719-1.492-.808-1.495-.28-.008-.994 2.684-1.31 4.936-.23 1.646-.228 2.388.01 3.109.172.52.394.947.492.947.1 0 .439-.804.754-1.786z" id="path4869" fill="#212121" stroke-width=".265"></path></g></g></svg>