<svg width="160" height="157" xmlns="http://www.w3.org/2000/svg" viewBox="0 0 42.521 41.681"><title>shallie category cloth</title><g fill="#212121" class="nc-icon-wrapper"><g id="layer1" transform="translate(-160.214 -68.778)"><path d="M177.496 109.802c-.38-.405-.967-.677-1.567-.728-.764-.063-.977-.201-1.044-.675-.069-.481-.205-.566-.709-.44-.498.126-.702.005-1.016-.602-.216-.417-1.177-1.94-2.136-3.384-.959-1.444-1.743-2.712-1.743-2.817 0-.218-3.242-5.784-4.063-6.976-1.816-2.636-3.079-4.69-3.71-6.033-.66-1.406-.692-1.611-.376-2.49.273-.763.276-.981.013-1.07-.182-.06-.335-.31-.34-.552-.005-.242-.173-.735-.372-1.095-.317-.572-.301-.776.122-1.606.622-1.22.963-1.487 2.18-1.715 1.147-.214 1.538.026 2.484 1.524.522.827.779.996 1.51.996 1.031 0 1.328.3 2.62 2.646 1.068 1.94 4.23 6.825 6.85 10.583 1.846 2.65 4.285 6.877 4.084 7.078-.066.066-.657.153-1.313.194-1.428.09-2.94.962-3.63 2.093-.78 1.279-.6 1.302.622.082 1.108-1.107 2.602-1.774 3.975-1.774 1.507 0 2.6 2.55 1.638 3.821-.213.283-.388.959-.388 1.502 0 1.88-2.398 2.814-3.691 1.438zm2.449-1.234c.195-.312.107-.755-.328-1.653-.665-1.375-.848-1.455-1.603-.701-.526.526-.526.529.058 1.73.616 1.268 1.322 1.503 1.873.624zm-16.51-25.872c.414-.318.578-.642.47-.926-.403-1.047-1.768-.67-1.768.49 0 1.039.358 1.16 1.298.436zm19.211 24.38c.425-1.016.6-2.589.341-3.072-.147-.275-.68-1.04-1.184-1.7a19.467 19.467 0 0 1-1.592-2.547c-.811-1.617-3.827-6.145-5.918-8.887-.832-1.091-1.906-2.698-2.387-3.572a50.513 50.513 0 0 0-1.843-3.042c-.534-.8-1.165-1.833-1.401-2.293-.29-.565-.696-.896-1.244-1.017-1.177-.258-.914-.894.79-1.912 2.017-1.205 3.187-1.564 6.348-1.95 5.43-.66 8.986-3.268 10.244-7.513.18-.605.391-.793.89-.793.7 0 .709.054.466 3.042-.107 1.323.53 1.203 1.296-.245.34-.644.677-1.229.747-1.3.209-.208 1.19.8 1.19 1.224 0 .457-.92 2.054-1.659 2.881-.55.616-.43 1.144.26 1.144.636 0 2.19-1.283 2.481-2.048l.257-.674.653.613c.36.338.653.758.653.935 0 .532-1.933 2.253-2.712 2.414-.828.17-.906.504-.315 1.347.629.899 1.278.714 2.58-.734.654-.728 1.246-1.323 1.316-1.323.069 0 .28.371.468.826.335.81.317.85-1.027 2.09-1.489 1.377-1.632 1.79-.863 2.486.476.43.557.43 1.39.01.485-.246 1.142-.683 1.458-.972l.574-.525.404.78c.35.676.354.854.032 1.314-.205.293-.735.682-1.177.865-.938.389-1.026.99-.265 1.807.625.671.933.702 1.841.182 1.015-.58 1.556-.486 1.754.306.214.851-.41 1.414-1.568 1.414-.63 0-.737.084-.58.463.104.255.25.671.323.926.186.646.526.579 1.233-.243.677-.787 1.327-.72 1.557.161.094.361-.074.82-.475 1.297-1.13 1.342-1.119 3.136.011 1.888.585-.646 1.15-.667 1.61-.06.58.763.42 1.278-.557 1.804-.51.274-.926.643-.926.82 0 .613.544.651 1.435.1l.897-.555.554.704c.304.387.553.805.553.928s-.522.494-1.16.824c-1.037.537-1.135.666-.924 1.223.17.45.364.574.697.445 1.223-.474 2-.482 2.335-.025.186.255.277.625.202.822-.176.457-2.623 1.278-3.178 1.066-.274-.106-.856.246-1.675 1.011-1.286 1.204-2.594 1.743-4.234 1.745-1.728.003-4.986.777-6.72 1.596-1.504.71-1.849 1.018-2.681 2.389-.526.865-1.139 1.573-1.362 1.573-.284 0-.348-.139-.213-.463z" id="path4487" fill="#212121" stroke-width=".265"></path></g></g></svg>