<svg width="144" height="143" xmlns="http://www.w3.org/2000/svg" viewBox="0 0 38.121 38.098"><title>shallie category adventure</title><g fill="#212121" class="nc-icon-wrapper"><g id="layer1" transform="translate(-162.944 34.735)"><path d="M170.246 3.167c-.262-.428 2.124-2.122 3.588-2.547.83-.241 1.692-.51 1.916-.595.75-.288.428.566-.585 1.554-.546.532-1.435 1.151-1.976 1.376-1.03.43-2.735.552-2.943.212zm18.875-.239c-2.116-.321-4.516-1.033-5.533-1.642-2.996-1.792-7.054-6.772-6.563-8.053.09-.234 1.033-.829 2.095-1.321 1.554-.72 2.05-.843 2.534-.629 1.913.848.813-1.709-2.2-5.116-.966-1.091-2.303-2.758-2.97-3.704a116.448 116.448 0 0 0-2.905-3.87c-1.818-2.314-1.668-2.22-6.55-4.092-4.236-1.623-4.584-2.077-2.845-3.71 2.438-2.29 7.018-5.526 7.82-5.526.23 0 .604.265.83.588.331.473.412 1.416.412 4.793v4.205l1.287 1.49c.708.82 2.107 2.571 3.109 3.89a563.269 563.269 0 0 0 6.334 8.154c.829 1.047 1.263 1.373 1.918 1.437.626.061.846-.025.846-.33 0-.264-.237-.414-.652-.414-.392 0-.771-.222-.95-.558-.254-.473-.155-.762.656-1.918 1.29-1.84 1.908-2.551 2.214-2.551.323 0 2.492 2.149 2.331 2.31-.065.064-.483-.152-.929-.482-1.305-.965-1.276-.346.038.81 1.602 1.411 3.313 4.835 3.692 7.391.31 2.092.058 3.438-.36 1.925-.333-1.201-.894-.943-.804.37.066.968.044 1.003-.33.53-.36-.459-.445-.47-.867-.107-.257.22-.689.48-.96.577-.353.126-.45.341-.34.758.203.78-.51 1.528-1.457 1.528-.485 0-.753.138-.753.388 0 .213-.213.501-.474.64-.906.486-3.452-1.049-5.805-3.5-1.17-1.219-2.209-2.471-2.308-2.783-.185-.582-.673-.787-.673-.283 0 .933 5.35 6.596 6.231 6.596.202 0 .831.242 1.398.538 1.944 1.013 6.524 1.411 7.3.635.667-.667.814-1.62.814-5.274 0-3.542-.258-4.703-1.633-7.363-.747-1.445.249-.378 1.09 1.168 1.086 1.995 1.462 3.75 1.466 6.84.006 4.954-1.321 6.308-5.554 5.665zm-18.52-32.006v-2.28l-.993.746c-1.914 1.438-2.712 2.096-2.712 2.235 0 .078.387.306.86.508 1.86.796 2.456 1.032 2.646 1.052.11.01.199-1.006.199-2.26zm-4.379 31.143c-2.09-1.2-2.677-2.185-.939-1.58.47.164 1.293.226 1.829.139.94-.154 4.018.314 4.018.611 0 .08-.41.473-.912.873-1.185.946-2.292.934-3.996-.043zm9.312-.089a17.81 17.81 0 0 0 1.393-1.72c.324-.473.775-.86 1.002-.86.336 0 .387.233.273 1.247-.175 1.55-.876 2.193-2.391 2.193h-1.08zm3.092-.227c.093-.348.171-1.02.173-1.493.003-.473.093-.85.202-.837.433.049 1.99 2.128 1.761 2.35-.132.128-.704.318-1.272.422-.994.183-1.027.166-.864-.442zM164.6-.324c-.897-.407-1.16-.694-1.388-1.515a8.907 8.907 0 0 1-.268-2.072l.013-1.058.58.785c.32.431 1.16 1.41 1.87 2.175.814.88 1.23 1.539 1.132 1.795-.201.525-.59.503-1.94-.11zm-.285-3.851c-1.04-1.624-1.067-2.351-.135-3.71l.723-1.053.146 1.058c.08.582.218 1.178.305 1.323.087.146.08 1.039-.016 1.985l-.174 1.72-.849-1.323zm31.059-3.11c-.483-1.799.435-3.315 2.723-4.502 1.607-.834 1.697-.566.427 1.265-.503.726-1.047 1.617-1.208 1.981-.318.719-1.294 1.852-1.595 1.852-.103 0-.26-.268-.347-.595zm-29.624.155c-.097-.097-.176-.757-.176-1.467 0-1.018.137-1.428.649-1.94.357-.358.772-.65.923-.65.15 0 .35-.479.444-1.064.093-.585.276-1.13.407-1.21.13-.081.74.086 1.354.37.615.285 1.326.588 1.58.673.964.325.211 1.49-1.53 2.368-.44.222-1.368 1.01-2.06 1.75-1.358 1.452-1.33 1.431-1.591 1.17zm31.975-6.204c.365-1.18.89-2 2.115-3.3l1.224-1.3-.152 1.323c-.184 1.605-.761 2.445-2.252 3.277l-1.13.632zm-15.903-4.334c-1.26-1.924 1.538-5.452 6.167-7.774.906-.454 1.71-.826 1.786-.826.474 0-.187.815-2.77 3.416-1.601 1.612-2.91 3.069-2.91 3.238 0 .186.19.134.483-.13.499-.452 3.22-.646 3.22-.23 0 .115-.507.633-1.127 1.151-2.318 1.938-4.064 2.354-4.85 1.155zm17.04-1.92c-.097-1.861.466-4.38.944-4.221.306.102 1.171 2.448 1.201 3.256.022.588-1.402 2.752-1.81 2.752-.133 0-.283-.804-.334-1.786zM186.212-20.7c0-.676 1.327-1.526 2.62-1.68 1.267-.15 1.337-.128 1.088.339-.452.843-1.75 1.594-2.757 1.594-.523 0-.951-.114-.951-.253zm2.117-2.22c0-.643 2.97-3.83 4.112-4.412 1.229-.627 1.18-.621 1.18-.127 0 .242.246.397.632.397.673 0 .955.436.955 1.477 0 .594-.098.64-1.36.64-1.218 0-1.478.11-2.507 1.058-.632.582-1.38 1.058-1.662 1.058-.282 0-.702.073-.932.161-.271.104-.418.016-.418-.252zm8.795-.917c-.695-.573-.862-.904-.86-1.704.003-1.206.413-1.28 1.594-.286.708.596.813.83.676 1.513-.238 1.19-.456 1.264-1.41.477zm-13.318-3.123c-.142-.17-.235-.413-.207-.537.028-.125-.047-.452-.166-.728-.28-.643.34-1.117 1.777-1.36.913-.154 1.158-.087 1.715.47.627.627.636.685.247 1.617-.396.947-.431.965-1.756.908-.744-.033-1.469-.2-1.61-.37zm7.83-2.483c0-1.238.11-2.115.265-2.113.471.007.952.43 1.34 1.177.621 1.198.48 1.889-.512 2.502-.49.303-.936.55-.992.55-.056 0-.101-.952-.101-2.116zm-4.17.12c-.826-.71-.907-1.052-.306-1.282.555-.214.47-.247 1.262.488.828.767.843.843.235 1.169-.347.186-.649.091-1.19-.375zm1.59-.777c-1.001-.882-.917-1.134.445-1.339 1.372-.205 1.631-.092 1.8.788.249 1.304-1.032 1.618-2.245.55z" id="path3981" fill="#212121" stroke-width=".265"></path></g></g></svg>