<svg width="123" height="152" xmlns="http://www.w3.org/2000/svg" viewBox="0 0 32.655 40.346"><title>shallie category vegetable</title><g fill="#212121" class="nc-icon-wrapper"><g id="layer1" transform="translate(-13.276 -58.862)"><path d="M30.635 98.544c-1.294-.347-2.498-.752-2.675-.899-.176-.146-.77-1.163-1.32-2.26-.815-1.628-1.042-2.436-1.24-4.41-.391-3.901-1.745-6.313-3.313-5.902-.407.107-1.42.251-2.251.321-1.366.115-1.578.06-2.208-.57-.518-.519-.657-.864-.537-1.34.137-.548.006-.72-.91-1.187-1.224-.624-1.19-.921.135-1.17.511-.095.93-.288.93-.426 0-.342-.462-.302-1.72.15-.956.344-1.091.338-1.39-.061-.476-.638-.414-.853.331-1.136.983-.374.806-.784-.265-.61l-.926.15v-1.357c0-1.72.406-1.764 1.532-.167.795 1.128 1.379 1.517 1.379.918 0-.15-.427-1.17-.948-2.27-.907-1.91-.928-2.02-.488-2.506.253-.28.798-.508 1.212-.508.515 0 .753-.134.753-.425 0-.301.135-.37.463-.235 1.587.654 1.982.247.463-.477-.82-.391-.926-.558-.926-1.454 0-.556.158-1.228.351-1.493.32-.436.46-.291 1.522 1.58 1.212 2.134 1.892 2.825 2.326 2.366.153-.162-.25-1.123-1.074-2.562-.726-1.266-1.242-2.427-1.148-2.58.248-.4 1.279-.339 1.875.112 1.088.823 1.208.225.335-1.66-.425-.916-.581-1.775-.596-3.276-.018-1.971.009-2.064.893-2.977 1.096-1.132 1.336-1.171 1.338-.214 0 .4.25 1.136.554 1.636.305.499.96 1.685 1.455 2.635.495.95.898 1.613.896 1.473-.003-.14-.403-1.716-.89-3.502-.488-1.786-.808-3.296-.712-3.355.096-.06.687-.04 1.313.045 1.114.149 1.134.17.96.974a33.65 33.65 0 0 0-.325 1.814c-.232 1.568.35 1.18.761-.51.202-.826.495-1.544.65-1.596.156-.052.567.135.913.415.54.437.587.598.333 1.133-.64 1.345-1.177 3.138-1.018 3.396.334.54.549.238 1.034-1.455.271-.949.6-1.791.73-1.871.13-.08.536.533.903 1.363l.668 1.51.627-.59.627-.588.301.564c.166.31.476 1.482.69 2.604.473 2.501 1.13 4.554 1.456 4.554.367 0 .29-1.153-.29-4.344-.66-3.629-.66-3.593.137-3.593.77 0 .789.101.278 1.547-.483 1.37-.027 1.777.521.465.215-.515.391-1.06.391-1.21 0-.424.402-.323.899.225.425.47.42.589-.092 2.109-.627 1.861-.686 2.685-.194 2.685.218 0 .478-.65.693-1.732.49-2.463 1.249-1.942 1.314.901l.026 1.154.926-.174c.787-.147.926-.1.926.315 0 .268-.132.62-.294.783-.304.303-.115.87.29.87.125 0 .365-.417.534-.927.328-.995.509-1.105 1.005-.608.477.476.388.996-.333 1.94-.592.777-.636 1.182-.125 1.182.107 0 .444-.424.75-.942.654-1.11.975-1.014 1.207.36.309 1.826-.775 3.556-2.521 4.026-.829.223-1.064.462-1.54 1.567-.308.718-.56 1.48-.56 1.695 0 .518 1.612 2.519 3.884 4.821 2.395 2.427 3.6 4.788 3.633 7.121.02 1.363-.088 1.779-.659 2.537-.375.5-.967 1.484-1.316 2.188-.719 1.455-1.478 2.084-3.099 2.57-.86.257-1.358.267-2.092.041-.87-.267-1.04-.232-1.736.354-.65.546-1.033.645-2.406.62-.898-.015-2.692-.312-3.986-.66zm3.581-.64c1.596-.443 1.728-.837.79-2.361-.448-.727-.89-1.623-.982-1.991-.23-.92.355-.872.708.059 1.013 2.668 2.668 3.993 4.404 3.523 2.19-.592 2.596-1.436 1.79-3.722-.503-1.424-.512-2.38-.022-2.38.226 0 .62.71.992 1.785l.617 1.786.082-1.15c.105-1.462-1.368-4.536-2.883-6.015-1.066-1.041-1.32-1.698-.66-1.698 1.045 0 3.848 3.604 4.425 5.688.276.998.309 1.024.566.46.405-.888-.199-3.202-1.198-4.59-.46-.638-1.49-1.876-2.286-2.749-2.188-2.396-3.47-4.514-3.47-5.73 0-.84-.092-1.017-.53-1.017-.735 0-.69.916.127 2.528.658 1.3.57 1.928-.229 1.621-.598-.23-1.352-1.91-1.863-4.149-.624-2.74-.831-3.175-1.514-3.175-.319 0-.798-.198-1.065-.44-.267-.24-.56-.365-.65-.274-.09.09-.014 1.138.171 2.327.283 1.814.523 2.44 1.49 3.882.634.945 1.152 1.763 1.152 1.816 0 .388-.929-.055-1.67-.796-.96-.96-2.373-4.116-2.253-5.031.096-.733-.143-.79-1.143-.273-.499.258-1.129.368-1.585.277-.47-.094-.757-.04-.757.142 0 .162.774 1.16 1.72 2.216 1.626 1.817 2.031 2.504 1.477 2.504-.641 0-1.203-.486-3.089-2.674-1.12-1.3-2.098-2.304-2.171-2.23-.073.073.182.741.568 1.485.72 1.386.878 2.096.47 2.096-.127 0-.738-.178-1.356-.397-2.15-.758-2.177-.29-.066 1.152 1.596 1.09 2.338 1.81 3.102 3.013.394.62.405.746.073.873-.244.094-1.036-.5-2.143-1.607-.966-.966-1.899-1.709-2.073-1.65-.175.058-.36.474-.411.924-.082.721.035.892.972 1.419 1.944 1.092 2.921 3.4 2.925 6.905.003 1.35 1.18 4.616 1.985 5.506.754.833.761.443.02-1.021-.785-1.548-.8-1.623-.33-1.623.193 0 .672.696 1.065 1.547.765 1.657 1.422 2.407 2.686 3.064.941.49.816.48 2.022.145zM19.362 75.166c0-.14-.238-.383-.53-.539-.582-.312-.71-.023-.211.476.383.383.74.413.74.063zm4.017-1.39c-.19-.19-.313-.205-.313-.04 0 .353.313.666.49.49.075-.075-.005-.278-.177-.45z" id="path4436-0" fill="#212121" stroke-width=".265"></path></g></g></svg>