<svg width="137" height="106" xmlns="http://www.w3.org/2000/svg" viewBox="0 0 36.3 28.167"><title>shallie category ore</title><g fill="#212121" class="nc-icon-wrapper"><g id="layer1" transform="translate(-6.162 90.624)"><path d="M15.005-62.792c-1.915-.831-4.344-1.565-5.686-1.718l-1.452-.166-.182-1.19c-.1-.656-.446-2.62-.768-4.366-.322-1.747-.64-4.068-.704-5.16-.117-1.96-.106-2.001.877-3.307 1.004-1.334 2.558-3.183 3.63-4.32.32-.338 1.533-1.098 2.697-1.689a50.83 50.83 0 0 0 3.986-2.295c1.91-1.248 5.273-2.894 7.074-3.462.992-.312 1.034-.296 3.307 1.287a118.18 118.18 0 0 0 4.794 3.131c2.822 1.729 4.784 3.373 4.784 4.008 0 .236.327 1.838.726 3.56l.726 3.132 1.824 1.474 1.824 1.473-.154 2.142c-.175 2.433-1.075 5.684-1.71 6.177-.543.421-8.032.454-10.659.046-1.588-.246-2.47-.191-6.533.41-2.583.383-5.196.81-5.806.947-1.402.317-1.624.307-2.595-.114zm6.977-3.565c1.11-.423 2.657-.928 3.438-1.123l1.419-.354-.16-1.332a24.72 24.72 0 0 1-.162-2.352c-.003-.96-.042-1.01-.675-.852-.419.105-.889.016-1.25-.236-.317-.223-.79-.405-1.05-.405-.798 0-4.826 2.777-5.918 4.08-.962 1.147-1.576 2.858-1.23 3.43.257.426 3.541-.077 5.588-.856zm14.785.323c.816-.218.755-.476-.412-1.727l-1.007-1.08-1.176.592c-.646.325-1.592.904-2.101 1.288l-.926.697 1.587.154c2.404.233 3.38.252 4.035.076zm-22.688-2.67c0-1.806-.173-2.532-1.497-6.283-.823-2.333-1.543-4.296-1.599-4.363-.158-.188-1.294 1.3-2.074 2.718l-.702 1.273.579 2.431c1.126 4.734 1.156 4.791 2.856 5.567 2.375 1.085 2.437 1.05 2.437-1.342zm19.248-1.365c.859-.436 1.125-.723 1.125-1.215 0-.704-.51-1.991-.79-1.991-.208 0-2.74.835-2.878.95-.134.111-.81 3.313-.82 3.891-.009.41.145.37 1.114-.294a24.262 24.262 0 0 1 2.25-1.341zm6.151.829c0-.8-.198-1.58-.544-2.147-.482-.792-.635-.872-1.38-.723-1.16.232-1.402.54-1.043 1.327.42.923 2.164 2.8 2.602 2.8.26 0 .366-.363.365-1.257zm-21.31-2.994c.716-.592 1.518-1.191 1.782-1.332.263-.142.479-.345.479-.452 0-.234-4.727-1.498-4.911-1.313-.111.11.367 2.249.829 3.702.208.658.35.61 1.821-.605zm16.994-4.832c.237-.234.242-.618.022-1.567-.266-1.144-.361-1.257-1.061-1.257-.56 0-1.14.355-2.138 1.307l-1.37 1.308.881.91.88.91 1.237-.65c.68-.358 1.377-.79 1.549-.961zm-8.609-1.575c1.652-1.225 3.275-2.37 3.607-2.545.331-.175.542-.415.469-.534-.311-.504-5.23-2.698-7.498-3.345l-2.458-.701-3.23 1.92c-1.778 1.055-3.274 1.954-3.326 1.996-.052.042.275.817.727 1.722.452.905.822 1.786.822 1.958 0 .502 1.269.94 3.557 1.231 1.172.149 2.49.367 2.926.485.436.117.93.175 1.097.127.167-.047 1.655-1.088 3.307-2.314z" id="path3598" fill="#212121" stroke-width=".265"></path></g></g></svg>