<svg width="139" height="163" xmlns="http://www.w3.org/2000/svg" viewBox="0 0 36.895 43.35"><title>shallie category slag part</title><g fill="#212121" class="nc-icon-wrapper"><g id="layer1" transform="translate(-68.306 -163.723)"><path d="M93.32 206.487c-.226-.324-.416-.89-.42-1.257-.006-.368-.183-1.383-.394-2.256-.534-2.211-.506-3.916.073-4.44.26-.234 1.558-.596 2.938-.818 1.361-.22 2.535-.46 2.61-.534.074-.074-.003-.528-.171-1.008-.32-.916-.187-1.137 1.165-1.935.427-.253.426-.325-.018-1.257-.26-.544-.629-.989-.82-.989-.192 0-.79.614-1.328 1.364-1.064 1.481-3.324 3.099-5.32 3.81-.682.242-1.562.558-1.956.703-.47.173-.819.574-1.014 1.164-.565 1.714-1.66 1.734-2.534.045-.38-.736-.438-.754-1.9-.593-.97.107-2.21.018-3.472-.248l-1.964-.414-.977 1.059c-1.226 1.327-1.622 1.205-2.64-.81-.486-.964-1.1-1.73-1.668-2.081-1.215-.75-3.187-2.895-3.84-4.175-.69-1.351-1.369-3.986-1.364-5.286.01-2.455 1.526-6.715 3.024-8.495.77-.914.83-1.316.311-2.057-.2-.287-.677-1.51-1.058-2.719-1.3-4.117-.72-7.63 1.403-8.51.7-.29.908-.258 1.762.27 1.556.961 2.68 3.075 3.863 7.262l.373 1.323 3.56.159c1.957.087 4.333.248 5.279.357l1.72.199.794-1.945c2.172-5.324 6.37-9.43 8.719-8.528.646.248 1.202 1.527 1.202 2.764 0 1.507-2.214 6.06-3.811 7.837-.669.743-1.216 1.458-1.216 1.59 0 .13.487.708 1.082 1.283.594.576 1.376 1.623 1.737 2.328.733 1.434 1.676 4.85 1.685 6.103.004.582.337 1.196 1.156 2.132 1.077 1.233 1.193 1.296 1.837 1.002.86-.392 1.095-.179 2.606 2.364 1.202 2.023 1.206 1.987-.308 2.856-.342.197-.338.286.03.71.384.444 1.023 1.998 1.023 2.49 0 .458-.9 1.056-2.009 1.336-.646.162-1.224.376-1.285.474-.06.098.125.887.412 1.753.295.893.488 2.088.445 2.76-.075 1.156-.106 1.194-1.389 1.669-1.67.618-6.18 1.771-6.94 1.774-.32 0-.766-.262-.993-.585zM91.37 187.32c1.56-1.412 1.587-3.232.067-4.567-1.47-1.29-3.602-.926-4.476.765-.777 1.502-.368 3.03 1.072 4.007.931.632 2.52.535 3.337-.205zm-14.583-.892c.383-.205.512-.558.512-1.403 0-1.382-.347-1.763-1.608-1.763-1.07 0-1.432.295-1.707 1.393-.39 1.555 1.26 2.599 2.803 1.773z" id="path4886" fill="#212121" stroke-width=".265"></path></g></g></svg>