<svg width="158" height="149" xmlns="http://www.w3.org/2000/svg" viewBox="0 0 41.969 39.641"><title>shallie category metal</title><g fill="#212121" class="nc-icon-wrapper"><g id="layer1" transform="translate(-105.457 -16.88)"><path d="M129.434 54.98c0-1.268-.108-1.642-.612-2.116-.337-.316-.821-.575-1.076-.575-.671 0-1.528-.514-1.347-.807.086-.138.595-.255 1.132-.26 1.173-.01 1.747-.665 2.025-2.312.292-1.725.936-1.304.936.612 0 1.158.85 1.973 2.057 1.973 1.326 0 .936.633-.49.794-1.056.12-1.2.222-1.486 1.058-.173.51-.322 1.432-.33 2.05-.011.817-.124 1.125-.412 1.125-.307 0-.397-.347-.397-1.541zm-12.965-1.383c-.509-.117-2.859-.58-5.222-1.029-5.601-1.065-5.525-1.026-5.72-2.887-.215-2.05-.057-2.538 2.234-6.917 2.46-4.704 2.836-5.792 2.406-6.98-.172-.475-.312-1.231-.312-1.682 0-1.046 1.832-4.522 3.41-6.47.671-.829 1.442-1.822 1.713-2.207.41-.582.633-.674 1.323-.546.8.148.866.087 1.818-1.66 1.16-2.13 1.632-2.612 2.141-2.189.194.16 1.533.467 2.977.681 1.444.214 3.697.582 5.006.818 1.31.235 2.835.463 3.39.505.555.043 1.131.2 1.281.35.15.15.387 1.214.526 2.364l.252 2.092-1.213 1.809c-.667.995-1.172 1.942-1.123 2.104.05.163 1.573 1.07 3.384 2.015 1.812.946 4.008 2.151 4.881 2.678.873.527 2.986 1.652 4.696 2.5 1.71.847 3.109 1.681 3.109 1.853 0 .172-.177.735-.392 1.25a8.82 8.82 0 0 0-.514 1.92c-.067.541-.463 1.414-.881 1.94-.866 1.09-2.315 3.296-3.34 5.084-.983 1.714-1.66 2.286-2.231 1.888-.246-.171-1.281-.77-2.3-1.332-1.018-.561-4.273-2.485-7.232-4.275-4.547-2.751-5.435-3.199-5.735-2.89-.524.54-5.157 8.767-5.157 9.157 0 .377-1.647.406-3.175.056zm21.829-3.954c-.09-.145-.283-.265-.429-.265-.145 0-.19.12-.1.265.09.146.282.265.427.265.146 0 .191-.12.102-.265zm-17.027-7.937c3.876-7.63 5.978-11.517 8.005-14.805.67-1.085 1.216-2.048 1.216-2.142 0-.093-.922-.304-2.05-.47a213.377 213.377 0 0 1-5.077-.838c-1.665-.295-3.114-.446-3.22-.336-.245.254-3.715 6.337-5.322 9.33-.664 1.237-2.315 4.57-3.668 7.408-1.353 2.838-2.735 5.528-3.071 5.979-.336.45-.61.935-.61 1.078 0 .261 8.705 2.167 9.614 2.105.36-.025 1.449-1.928 4.183-7.31zm20.554 4.347c.933-1.3 2.11-2.93 2.616-3.624l.92-1.262-2.606-1.232c-1.433-.677-3.347-1.684-4.253-2.237-2.098-1.281-7.99-4.305-8.117-4.167-.48.52-3.848 7.763-3.682 7.92.12.114 2.122 1.24 4.45 2.504 2.33 1.264 4.358 2.4 4.51 2.525.544.447 3.963 2.077 4.21 2.007.14-.04 1.018-1.134 1.952-2.434zM113.69 31.099c.873-1.603 1.633-3.046 1.69-3.206.244-.7-1.81 1.89-2.353 2.965-.33.654-.822 1.474-1.093 1.821-.567.726-.643 1.358-.162 1.345.182-.005 1.045-1.32 1.918-2.925zm-3.671-1.178c-.091-.236-.165-.942-.165-1.57 0-1.406-.618-2.233-1.859-2.486-1.308-.268-1.11-.66.458-.91 1.452-.231 1.31-.032 1.828-2.564.267-1.307 1.16-.873 1.16.564 0 .98.752 2.03 1.583 2.213.44.097.799.337.799.533 0 .351-.216.452-1.619.763-.546.12-.753.39-.986 1.28-.161.622-.326 1.418-.366 1.77-.086.763-.6 1.014-.833.407zm29.309-5.163c-.144-1.086-.336-1.458-1.026-1.984-.467-.356-.972-.648-1.123-.648-.15 0-.412-.167-.581-.371-.253-.305-.072-.45 1.005-.809 1.63-.54 1.913-.875 2.087-2.458.221-2.014 1.12-2.19 1.12-.218 0 1.387.791 2.533 1.748 2.533.667 0 1.956.696 1.956 1.055 0 .11-.472.276-1.05.369-.577.092-1.354.306-1.726.476-.67.305-.749.483-1.057 2.4-.12.747-.285.992-.668.992-.41 0-.542-.256-.685-1.337z" id="path4220" fill="#212121" stroke-width=".265"></path></g></g></svg>