<svg width="149" height="163" xmlns="http://www.w3.org/2000/svg" viewBox="0 0 39.674 43.318"><title>shallie category book</title><g fill="#212121" class="nc-icon-wrapper"><g id="layer1" transform="translate(87.07 .832)"><path d="M-75.064 42.214c-1.23-.396-2.068-2.101-5.57-11.325a75.333 75.333 0 0 0-1-2.513c-.19-.437-.555-1.27-.811-1.853-.256-.582-.917-2.308-1.47-3.836a194.065 194.065 0 0 0-2.114-5.52c-1.03-2.55-1.102-2.888-1.015-4.806.139-3.044.77-3.702 5.89-6.144.534-.255 1.162-.463 1.395-.463.234 0 1.925-.587 3.76-1.303 1.834-.717 4.406-1.66 5.716-2.096 1.31-.435 3.87-1.337 5.688-2.004 3.424-1.255 4.504-1.446 4.973-.881.15.182.568 1.104.927 2.05.36.946 1.391 3.327 2.293 5.292 2.27 4.945 4.6 10.392 5.825 13.613a95.645 95.645 0 0 0 2.106 5.038c.591 1.279 1.074 2.493 1.074 2.697 0 .205-.35.574-.779.82-.694.398-.8.631-.96 2.125-.116 1.091-.07 1.916.132 2.359.17.374.215.762.099.86-.116.1-1.045.431-2.063.737-1.02.306-3.043.988-4.498 1.516-1.456.528-4.076 1.355-5.823 1.84-2.897.801-8.321 2.664-10.772 3.698-1.096.463-1.803.487-3.003.1zm2.212-1.921c.992-1.262 1.416-2.907.623-2.416-.303.187-1.626 2.493-1.626 2.835 0 .436.491.23 1.003-.42zm-2.855-1.975c0-.28.427-1.069.95-1.753l.949-1.244-.71-1.885a364.426 364.426 0 0 1-1.614-4.399c-1.172-3.264-1.72-4.498-1.996-4.498-.123 0-.7.43-1.282.957-1.543 1.393-1.469 2.174.688 7.245.96 2.256 1.93 4.548 2.155 5.093.443 1.07.86 1.305.86.484zm10.451-1.34a584.88 584.88 0 0 1 7.652-2.525c3.752-1.196 6.545-2.341 6.507-2.667-.052-.45-1.602-.064-3.774.937-2.36 1.09-9.36 3.458-10.216 3.458-.71 0-5.593 2.143-5.593 2.455 0 .136.208.16.463.054.255-.106 2.487-.877 4.961-1.713zm-4.75.303c.426-.376 4.333-1.794 7.387-2.681 3.916-1.137 11.236-4.081 10.924-4.393-.185-.185-3.214.786-7.079 2.27-1.819.698-5.212 1.895-7.54 2.66-2.329.766-4.315 1.516-4.415 1.668-.352.538.225.918.724.476zm-.306-3.103c4.614-1.463 10.161-3.407 11.74-4.114.91-.409 2.915-1.107 4.454-1.551 4.438-1.283 4.982-1.696 4.27-3.248a67.498 67.498 0 0 1-1.116-2.71 46.288 46.288 0 0 0-1.604-3.572c-.485-.946-1.727-3.685-2.76-6.086C-58.405 5.737-60.825.991-61.398.991c-.271 0-1.667.465-3.101 1.033a84.875 84.875 0 0 1-4.857 1.737c-4.398 1.376-12.067 4.225-12.634 4.694-.182.15-.33.615-.33 1.033 0 .417 1.327 4.242 2.95 8.5 1.623 4.258 3.352 8.873 3.842 10.255.836 2.357 2.739 6.593 2.968 6.608.057.004 1.069-.3 2.249-.673zm-2.577-3.752c-2.15-4.302-2.223-5.554-.249-4.25 1.536 1.014 2.72 1.3 5.55 1.34 2.722.038 2.897-.006 7.227-1.796 3.115-1.288 4.663-2.96 5.059-5.467.239-1.51.597-2.07 1.042-1.625.678.679 2.72 5.573 2.74 6.571.022 1.03-.009 1.067-1.168 1.414-.655.196-1.548.476-1.985.623-.436.147-2.4.734-4.365 1.303-4.184 1.213-8.544 2.69-10.55 3.575-.782.345-1.585.627-1.784.627-.198 0-.881-1.042-1.517-2.315zm5.913-6.192c-.655-.302-1.411-.744-1.682-.982-1.546-1.362-2.016-4.563-.843-5.736.445-.446.944-.65 1.587-.65.803 0 .938-.088.938-.608 0-.335-.103-.722-.228-.86-.343-.378-.832-1.971-.605-1.971.11 0 .356.148.549.33.281.266.378.256.489-.05.267-.74 1.366-1.603 2.038-1.603a1.09 1.09 0 0 1 .814 1.836c-.256.283-.8.588-1.21.678-.686.151-1.242.824-.935 1.131.072.072.73-.127 1.46-.441 1.225-.527 1.393-.541 2.102-.174 1.53.791 1.879 1.561 1.85 4.083-.04 3.375-.078 3.451-2.327 4.594-1.074.546-2.145.988-2.38.983-.234-.005-.962-.257-1.617-.56zM-78 14.42c-.115-.182-.597-1.275-1.072-2.43-.799-1.943-.831-2.133-.436-2.57.234-.258.858-.61 1.387-.782.528-.17 1.787-.724 2.799-1.23 1.011-.506 3.035-1.314 4.498-1.795 1.462-.482 3.85-1.303 5.304-1.826 3.837-1.378 3.917-1.352 5.178 1.703.57 1.382 1.037 2.653 1.038 2.822.003.377-.822.695-7.406 2.86-6.223 2.045-7.16 2.383-8.48 3.056-1.161.592-2.5.683-2.81.192zm-6.215 1.389c.326-.441.833-.794 1.14-.794.441 0 .52-.119.397-.595a128.5 128.5 0 0 1-.573-2.448c-.496-2.193-.873-2.7-1.682-2.267-.926.496-1.438 1.794-1.252 3.172.2 1.463.922 3.726 1.19 3.726.107 0 .458-.358.78-.794z" id="path4114" fill="#212121" stroke-width=".265"></path></g></g></svg>