<svg width="153" height="142" xmlns="http://www.w3.org/2000/svg" viewBox="0 0 40.542 37.811"><title>shallie category fish</title><g fill="#212121" class="nc-icon-wrapper"><g id="layer1" transform="translate(25.063 -155.908)"><path d="M9.306 193.227c-2.605-.595-3.659-.94-6.296-2.053-2.026-.856-2.283-.904-3.354-.635-1.34.338-1.807.214-2.96-.78a13.96 13.96 0 0 0-1.646-1.198c-.995-.588-1.163-.983-.777-1.83.249-.546.215-.752-.2-1.21l-.499-.552-.55.69-.549.688-.601-.64c-.58-.616-.585-.672-.167-1.481.398-.77.4-.895.015-1.482-.537-.82-.884-.814-1.093.02-.092.363-.322.661-.511.661-.436 0-1.715-3.301-1.715-4.426 0-.463-.29-1.269-.643-1.79-.354-.522-.842-1.468-1.085-2.103-.368-.964-.628-1.225-1.578-1.589-1.422-.542-3.266-.887-6.443-1.202-2.753-.273-3.328-.562-3.126-1.575.074-.372-.03-.974-.233-1.338-.52-.937-.468-2.374.12-3.338.276-.454.49-1.243.476-1.754-.035-1.228.628-2.182 1.999-2.877 1.284-.651 1.508-.915 1.513-1.78.005-.744 1.428-2.157 2.172-2.157.34 0 .63-.28.824-.794.165-.436.427-.794.583-.794.155 0 .725.804 1.265 1.786.54.983 1.847 3.275 2.905 5.094l1.923 3.307 1.41.08c1.249.072 1.61-.04 3.17-.977 2.405-1.446 4.63-1.858 6.73-1.248.832.242 1.512.544 1.512.67 0 .127-.42.855-.933 1.618-.513.762-.9 1.413-.86 1.446.185.15 1.244.66 1.37.66.079 0 .561-.655 1.073-1.455.512-.8.998-1.456 1.08-1.456.329 0 3.033 1.863 3.033 2.09 0 .134-.487.86-1.081 1.611-1.038 1.313-1.062 1.388-.62 1.876.253.28.546.509.651.509.105 0 .642-.655 1.194-1.455.55-.8 1.158-1.456 1.349-1.456.506 0 3.19 3.332 4.063 5.043.667 1.309.765 1.824.88 4.663.088 2.162.264 3.45.545 3.994.228.442.728 1.856 1.11 3.143.762 2.563.966 6.232.421 7.565-.285.698-.37.727-2.09.696-.986-.018-2.685-.236-3.777-.485zm-7.418-5.551c.15-.282.274-1.077.274-1.769 0-2.552 1.455-4.284 4.183-4.977.953-.242 1.26-.45 1.325-.896.053-.36-.087-.646-.371-.755-.726-.279-2.799.398-3.889 1.268l-1 .8-1.469-1.343c-1.506-1.376-2.227-1.716-3.316-1.562-.75.106-1.897 2.253-2.354 4.408-.265 1.251-.244 1.47.187 1.949.598.665 3.101 1.801 3.967 1.801.35 0 .693.179.76.397l.249.794c.177.566 1.13.49 1.454-.115zm-4.18-3.21c-1.079-.479-1.135-.556-.964-1.331.307-1.4 1.19-3.15 1.589-3.15.52 0 2.77 2.194 2.77 2.701 0 .226-.18.841-.4 1.368-.473 1.131-1.161 1.226-2.994.413zm11.333 2.399c.687-.687.667-1.133-.087-2.01-.477-.554-.766-.679-1.278-.55-.591.148-1.28 1.106-1.28 1.778 0 .45 1.043 1.31 1.587 1.31.29 0 .767-.237 1.058-.528zm-14.009-7.03c.272-.327.28-.594.033-1.275-.383-1.059-.403-2.191-.042-2.414.148-.091.668.08 1.156.381 1.62 1.002 2.347.47 1.573-1.152-.235-.494-.355-1.087-.266-1.318.213-.557 1.655-.561 1.868-.006.247.643 1.335.368 1.439-.364.12-.85-.31-1.269-1.653-1.606-1.543-.389-2.743.011-2.955.985-.275 1.261-.335 1.332-1.295 1.512-1.202.225-1.724 1.162-1.724 3.095 0 1.062.136 1.564.54 1.998.64.688.869.716 1.326.164zm-3.349-3.974c.09-.232-.077-.756-.368-1.166-.292-.41-.53-1.059-.53-1.443 0-.656.057-.688.929-.524 1.1.206 1.717-.194 1.717-1.116 0-.622.017-.627.796-.224 1.518.785 2.44-.398 1.274-1.638-1.034-1.1-3.658-.673-3.658.597 0 .208-.228.378-.507.378-1.268 0-2.139 1.08-2.139 2.65 0 1.889 1.963 3.85 2.486 2.486zm-7.028-5.615c-.222-.54-2.37-2.183-3.997-3.056-.986-.53-1.85-.963-1.918-.963-.07 0-.122.387-.118.86.009.817.131.922 2.448 2.09 2.242 1.131 3.802 1.596 3.585 1.069zm1.799-2.293c.095-.25-.69-1.305-2.16-2.902-1.97-2.143-2.38-2.472-2.803-2.245-.273.146-.496.41-.496.587 0 .485 4.413 4.95 4.892 4.95a.656.656 0 0 0 .567-.39z" id="path4852" fill="#212121" stroke-width=".265"></path></g></g></svg>