<svg width="126" height="129" xmlns="http://www.w3.org/2000/svg" viewBox="0 0 33.463 34.27"><title>shallie category w bell</title><g fill="#212121" class="nc-icon-wrapper"><g id="layer1" transform="translate(-6.522 42.875)"><path d="M32.24-11.383c-1.776-1.528-3.32-2.778-3.431-2.778-.111 0-.945.736-1.854 1.637l-1.652 1.637-1.722-1.174c-.947-.646-1.721-1.293-1.72-1.439.003-.145.956-.904 2.12-1.686 2.576-1.729 8.771-7.862 10.187-10.084.558-.875 1.139-1.589 1.291-1.586.257.006.965.91 2.131 2.724l.48.745-1.803 1.674-1.803 1.675 1.032 1.284c.567.707 1.848 2.268 2.847 3.468 2.111 2.537 2.134 2.824.375 4.732-1.09 1.182-2.232 1.949-2.904 1.949-.19 0-1.8-1.25-3.575-2.778zm-13.225-10.41a1675.046 1675.046 0 0 0-8.934-6.377c-1.538-1.083-2.755-2.095-2.704-2.249.23-.687 2.728-1.285 5.87-1.404l3.175-.12 1.433 1.548c.789.852 3.38 3.516 5.758 5.92l4.325 4.372-1.393 1.358-1.392 1.358zm3.823-5.192l-5.755-5.941.003-1.532c.004-3.174 1.12-7.42 1.884-7.165.28.094 1.215 1.395 5.092 7.089.743 1.091 2.692 3.923 4.33 6.292 1.639 2.37 2.98 4.474 2.98 4.676 0 .325-2.306 2.522-2.646 2.522-.073 0-2.722-2.674-5.887-5.941zM6.645-37.465c-.106-2.921-.152-5.352-.103-5.4.107-.105 10.37.665 10.494.788.047.046-.177.958-.497 2.027-.397 1.329-.591 2.718-.614 4.39l-.032 2.446-2.387.003c-1.57 0-3.04.182-4.296.53-1.05.291-2.014.53-2.141.53-.128 0-.318-2.391-.424-5.313z" id="path3892" fill="#212121" stroke-width=".265"></path></g></g></svg>