<svg width="121" height="120" xmlns="http://www.w3.org/2000/svg" viewBox="0 0 32.016 31.972"><title>shallie race elemental</title><g class="nc-icon-wrapper"><g id="layer1" transform="translate(-227.726 -57.251)"><path d="M229.842 87.71c0-4.373 2.433-8.172 5.983-9.344l.875-.289-1.749-1.766c-2.433-2.457-4.477-5.043-5.102-6.457-1.013-2.29-2.123-8.518-2.123-11.908 0-.732.056-.78.727-.619 4.171 1.005 11.695 7.01 13.543 10.806.87 1.79 1.605 4.342 1.605 5.58 0 1.285.368.52.701-1.455.667-3.96 3.272-7.662 7.785-11.063 1.916-1.443 5.579-3.443 7.074-3.86.61-.17.612-.16.56 2.168-.093 4.243-.849 8.165-2.031 10.539-.808 1.62-2.883 4.233-5.042 6.345l-1.618 1.583 1.53.695c.843.382 1.983 1.146 2.534 1.697 1.73 1.73 2.919 5.048 2.743 7.654l-.081 1.207-3.728-1.678c-4.21-1.894-5.72-2.842-7.114-4.469-.85-.993-2.402-3.846-2.914-5.361-.142-.42-.308-.19-.798 1.103-.735 1.937-1.18 2.678-2.694 4.494-1.194 1.43-3.813 2.959-8.53 4.978l-2.136.914z" id="path3286-5" display="inline" fill="#000000" stroke-width=".265"></path></g></g></svg>