<svg width="44" height="44" xmlns="http://www.w3.org/2000/svg" viewBox="0 0 11.642 11.642"><title>shallie fire</title><g fill="#212121" class="nc-icon-wrapper"><g id="layer1" transform="translate(-145.68 -70.17)"><path d="M145.68 75.99v-5.82h11.641V81.81H145.68zm6.019 3.803c.664-.42.83-1.874.278-2.427-.543-.543-1.427-.37-1.751.344-.384.843-.842.853-.842.02 0-.645 1.082-1.74 1.72-1.74.178 0 .647.253 1.04.563.588.462.702.742.642 1.576-.04.557.008 1.095.108 1.195.588.588 1.535-2.586 1.984-3.263.69-1.042-.588-.124-.141-.803.183-.28.464-.756.544-1.12.08-.364.228-.93.33-1.257.23-.741-.256-.784-1.604-.142-.82.391-.983.401-1.187.071-.195-.316-.365-.264-.976.301-.408.376-1.306.95-1.996 1.276-2.258 1.063-2.78 2.304-1.786 4.252.875 1.715 2.12 2.11 3.637 1.154z" id="path6886" fill="#212121" stroke-width=".265"></path></g></g></svg>