<svg width="118" height="142" xmlns="http://www.w3.org/2000/svg" viewBox="0 0 31.28 37.624"><title>shallie category plant</title><g fill="#212121" class="nc-icon-wrapper"><g id="layer1" transform="translate(84.99 95.352)"><path d="M-74.819-57.826c-3.621-.184-5.325-.575-7.386-1.697-1.589-.865-1.606-.884-2.383-2.738-.72-1.72-.499-2.5.876-3.074.82-.343.92-.51 1.179-1.98.58-3.3 2.95-6.124 6.816-8.127 2.698-1.397 4.543-1.927 6.711-1.927 2.362 0 4.459.589 6.644 1.865 1.72 1.004 1.856 1.04 2.444.656.604-.396.619-.493.497-3.232-.111-2.496-.206-2.942-.817-3.834-.539-.788-.806-.971-1.22-.835-.29.097-1.57.224-2.844.283-2.401.112-3.726-.206-6.23-1.494-1.414-.728-3.229-2.873-3.229-3.818 0-.206.627-.806 1.392-1.333 1.338-.921 1.48-.958 3.699-.958 2.483 0 3.921.405 5.411 1.522l.845.634.3-1.115c.609-2.262 2.907-4.84 5.184-5.816 2.168-.93 2.523-.721 3.04 1.783.66 3.2-.52 6.278-3.102 8.098-.637.45-1.158.918-1.158 1.041 0 .123.242.699.538 1.278.445.873.58 1.88.788 5.858.137 2.641.371 4.925.52 5.073.533.534.25 1.434-1.019 3.24-.709 1.01-1.595 2.44-1.97 3.18-1.397 2.758-4.87 5.792-7.923 6.923-1.726.64-3.392.759-7.603.544zm5.003-2.846a12.528 12.528 0 0 0 5.171-3.19c.575-.589.974-1.071.885-1.071-.088 0-1.168.483-2.4 1.074-1.231.591-3.118 1.304-4.192 1.586-3 .784-6.022 1.716-6.224 1.92-.101.1 1.017.182 2.483.182 1.874 0 3.145-.149 4.277-.501zm-7.38-1.722c4.076-1.03 8.252-2.54 11.431-4.135 3.466-1.74 3.91-2.063 3.91-2.837 0-.377.19-.894.421-1.15.254-.28.354-.675.253-.995-.197-.622-2.73-2.368-4.135-2.852-1.558-.537-5.543-.749-6.748-.36-1.645.533-4.52 2.31-5.67 3.509-1.235 1.284-2.533 4.378-2.87 6.837-.12.886-.374 1.707-.563 1.824-.348.215-.195 1.06.192 1.06.117 0 1.817-.406 3.78-.901zm-.774-3.966c-.255-.307-.205-.611.25-1.501.92-1.806 2.795-3.597 4.825-4.613 2.023-1.012 3.1-1.156 3.755-.501.61.61.142 1.049-1.666 1.568-2.514.723-5.036 2.634-5.898 4.47-.433.921-.83 1.103-1.266.577zm9.038-3.262c-.182-.065-.33-.325-.33-.578 0-.662 3.882-2.59 4.47-2.22 1.068.673.518 1.826-.992 2.077-.53.088-1.382.313-1.891.5-.51.186-1.075.286-1.257.22z" id="path3526" fill="#212121" stroke-width=".265"></path></g></g></svg>