<svg width="116" height="143" xmlns="http://www.w3.org/2000/svg" viewBox="0 0 30.894 37.971"><title>shallie category fuel</title><g fill="#212121" class="nc-icon-wrapper"><g id="layer1" transform="translate(-280.857 -19.833)"><path d="M309.105 57.44c0-.201-.188-.521-.418-.712-.339-.281-.52-.284-.952-.014-.613.382-.882.237-.655-.354.086-.224.448-.408.804-.408.357 0 .822-.067 1.033-.148.211-.08.594.063.85.32.3.298.36.502.167.566-.165.055-.3.328-.3.607 0 .279-.119.507-.264.507-.146 0-.265-.164-.265-.365zm-9.525-.147c0-.156.146-.283.323-.283.18 0 .073-.25-.24-.564-.763-.763-2.06-.51-1.787.348.15.472.1.528-.316.354a7.589 7.589 0 0 0-1.089-.335c-.327-.071-.595-.222-.595-.335 0-.291-1.925-.573-4.101-.6-1.176-.015-2.577.186-3.837.55-2.362.682-3.257.724-3.714.173-.28-.337-.262-.574.1-1.332.241-.508.44-1.079.44-1.27 0-.699-1.073-1.34-2.256-1.347-2.091-.013-2.218-.888-.255-1.756.624-.276 1.185-.728 1.26-1.016.075-.285.417-.576.76-.646.342-.07.98-.205 1.416-.299.474-.101 1.221-.654 1.853-1.368 3.672-4.16 4.768-4.887 7.621-5.06 3.896-.238 7.915 1.761 9.215 4.581.274.596.662.881 1.554 1.143 2.091.614 2.38.791 2.38 1.465 0 .763.385 1.115 1.732 1.581 1.292.448 1.394.773.366 1.161-.45.17-.881.553-.96.853-.171.656-.32.68-.733.115-.43-.59-1.464-.247-1.464.485 0 .52-.097.54-1.786.37-3.398-.34-3.104-.399-3.152.632-.024.51-.054 1.072-.066 1.25-.04.56-2.669 1.693-2.669 1.15zm-9.26-2.944c0-.137-.12-.25-.265-.25-.145 0-.265.186-.265.413 0 .227.12.34.265.25.146-.09.265-.276.265-.413zm17.989-1.649c.985-.498.974-1.132-.024-1.48-.914-.319-2.019-.4-1.747-.128.092.092.052.383-.09.647-.18.336-.633.506-1.512.568-1.179.083-1.215.107-.593.395.889.411 3.151.41 3.966-.003zm-2.908-2.778c0-.351-3.201-3.852-4.143-4.53-1.175-.846-1.448-.5-.454.576.436.47 1.112 1.359 1.503 1.974.785 1.233 3.094 2.711 3.094 1.98zm-13.212-4.034c.299-.16.512-.552.512-.942 0-.607-.088-.66-.966-.586-1.144.098-1.695.75-1.17 1.383.404.486.904.531 1.624.145zm17.74 1.766c-.224-.27-.2-.597.1-1.314.433-1.035.526-3.008.168-3.571-.164-.26-.36-.117-.752.546-.545.925-2.695 2.847-3.183 2.847-.578 0-.533-.785.116-2.005.51-.956.708-1.801.811-3.447.075-1.2.058-2.384-.038-2.633-.164-.427-.203-.427-.68.005-.733.663-.972.364-1.162-1.457-.2-1.914-1.916-5.455-3.647-7.528a76.74 76.74 0 0 1-2.241-2.856l-1.137-1.532-.454.692c-.249.38-1.356 1.466-2.46 2.412-3.168 2.715-3.927 3.517-4.517 4.774-.662 1.407-1.316 1.442-1.753.094-.288-.887-.304-.857-.729 1.459-.685 3.732-.482 5.529 1.007 8.911.137.312.068.513-.214.62-.543.21-2.95-1.635-3.399-2.602-.38-.822-.61-.911-.835-.324-.306.798.154 2.732.793 3.333.686.643.842 1.555.267 1.555-.199 0-.645-.215-.992-.479-.739-.56-2.579-1.638-2.796-1.638-.339 0 .228 1.737.747 2.29.34.36.492.766.39 1.034-.151.392-.235.399-.762.058-1.308-.847-1.825-2.925-1.247-5.009.333-1.197.885-1.44 1.58-.695l.53.57v-.754c0-1.275.87-3.648 1.387-3.784.26-.067.532-.436.607-.819.075-.383.378-1.589.674-2.68.842-3.1 3.867-7.695 4.716-7.163.314.197.319.425.03 1.457-.189.673-.28 1.286-.202 1.364.077.077.48-.202.896-.62.416-.42 1.308-1.197 1.982-1.729 1.395-1.1 2.977-3.347 3.823-5.428.317-.78.698-1.54.848-1.689.33-.33.697.3.95 1.63.239 1.256 1.944 4.006 4.039 6.517.96 1.149 1.922 2.357 2.14 2.684.491.738.974.779.788.066-.189-.72.374-.677 1.09.084.958 1.02 1.92 3.82 2.086 6.074.137 1.85.201 2.04.644 1.9.292-.093.535-.015.596.192.741 2.506.962 3.563 1.094 5.244.135 1.711.081 2.103-.386 2.844-.594.943-.86 1.045-1.313.5zm-6.78-4.144c-.21-.337-3.27-1.739-4.278-1.958-1.29-.28-5.233.26-6.548.897-1.809.875-2.081.655-1.877-1.512.135-1.437 1.162-4.754 1.656-5.354.058-.07.328.166.6.526l.493.654.547-1.275c.3-.702.546-1.357.546-1.457 0-.1.484-.767 1.076-1.483.592-.716 1.191-1.518 1.332-1.781.141-.264.353-.48.47-.48.252 0 .827 1.805.827 2.595 0 .894.46.917 1.224.06.885-.993 1.156-1.01 1.158-.075 0 .4.133 1.2.293 1.777.258.929.33.997.623.595.588-.804 1.158-.541 1.45.67.15.62.633 2.197 1.073 3.506.86 2.561.977 3.547.476 4.048-.39.39-.917.41-1.142.047zm7.289-10.565c-.578-.365-.043-1.706.723-1.816.493-.07.59.04.59.674 0 .685-.402 1.401-.78 1.39-.08-.002-.32-.114-.533-.248zm-3.302-4.304c-1.086-1.55.09-5.185 1.341-4.147.467.388.504 3.96.046 4.417-.474.475-.927.387-1.387-.27zm-18.227-4.351c-.528-.528-.052-2.205.626-2.205.63 0 .78.743.334 1.654-.357.727-.628.883-.96.551z" id="path4309" fill="#212121" stroke-width=".265"></path></g></g></svg>