<svg width="110" height="141" xmlns="http://www.w3.org/2000/svg" viewBox="0 0 29.201 37.552"><title>shallie category liquid</title><g fill="#212121" class="nc-icon-wrapper"><g id="layer1" transform="translate(-275.687 28.578)"><path d="M282.637 8.717c-1.55-.443-3.318-1.647-3.956-2.693-.444-.727-.485-1.53-.486-9.558 0-9.12-.1-10.04-1.176-10.934-.58-.48-.512-1.222.167-1.855.432-.402.936-.54 1.984-.54.836 0 1.406-.116 1.406-.287 0-.158-.406-1.021-.902-1.918-2.444-4.423-4.121-7.974-3.978-8.424.202-.637.843-.958 2.117-1.06 1.017-.082 1.06-.05 1.74 1.29.383.756.978 1.818 1.322 2.36.345.542 1.461 2.543 2.482 4.447l1.855 3.46 1.46.03c1.607.032 2.695.486 3.673 1.533.353.378.78.687.951.687.17 0 .81-.506 1.422-1.125l1.113-1.124 5.117-.086c5.084-.086 5.12-.082 5.543.522.589.84.536 1.447-.243 2.776l-.67 1.143.063 9.25c.06 8.857.04 9.276-.455 9.83-.927 1.035-2.336 1.748-4.09 2.067-2.691.49-14.928.646-16.459.209zm18.276-4.608c.859-.64 1.09-1.656.377-1.656-.268 0-.73.169-1.025.376-.296.206-.947.481-1.448.61-.665.172-.935.402-1 .852-.086.587-.03.61 1.154.477.684-.078 1.558-.374 1.942-.66zm-.76-2.41c.97-.303 1.484-.615 1.546-.937.17-.884-.343-1.007-1.836-.44-.785.298-1.63.543-1.875.543-.55 0-.84.425-.643.939.19.494.995.464 2.808-.104zm.068-2.747c.834-.354 1.257-.693 1.257-1.008 0-.693-.524-.76-1.72-.216-.582.264-1.24.482-1.463.485-.222.004-.674.196-1.004.427-.486.34-.54.494-.282.805.376.453 1.324.307 3.212-.493zm-3.523-2.317c2.998-.571 4.496-1.325 5.135-2.582.3-.591.323-1.342.12-3.98-.236-3.063-.218-3.307.299-4.183.302-.512.549-.983.549-1.047 0-.065-1.827-.118-4.06-.118-3.739 0-4.099.043-4.544.535-.544.601-2.748 2.111-3.08 2.111-.12 0-.872-.592-1.671-1.317-1.293-1.17-1.55-1.298-2.318-1.152-.475.09-.892.185-.927.211-.034.026.526 1.154 1.246 2.508.72 1.353 1.403 2.747 1.52 3.097.207.62.298.638 3.65.744 4.05.128 5.812.463 6.872 1.308l.775.618-.807.807c-.443.443-1.271.92-1.84 1.058-1.803.439-5.779.803-6.218.57-.644-.342-2.434-2.854-3.196-4.486-.63-1.348-1.957-3.79-6.973-12.83-2.706-4.875-2.865-5.136-3.234-5.278-.587-.228-.355.558.727 2.469.583 1.027 1.059 1.94 1.059 2.03 0 .089.697 1.372 1.55 2.852 1.555 2.7 4.27 7.914 4.27 8.2 0 .43 3.544 7.426 3.985 7.867.694.694 3.43.69 7.11-.012zm-13.803-1.326c-.193-.31-.617-.53-1.02-.53-.378 0-.878-.209-1.11-.465-.385-.426-.38-.518.063-1.106.522-.691 2.264-1.328 3.65-1.335.473-.002.86-.129.86-.282 0-.38-.605-1.558-2.2-4.286-1.159-1.979-1.456-2.315-2.05-2.315-1.333 0-1.611.692-1.558 3.877.027 1.578-.037 3.378-.142 4-.136.8-.087 1.255.167 1.563.46.556 2.298 1.395 3.073 1.402.532.005.561-.052.267-.523z" id="path2698-9" fill="#212121" stroke-width=".265"></path></g></g></svg>