<svg width="152" height="149" xmlns="http://www.w3.org/2000/svg" viewBox="0 0 40.237 39.639"><title>shallie category ancient relic</title><g fill="#212121" class="nc-icon-wrapper"><g id="layer1" transform="translate(-31.181 -215.849)"><path d="M32.753 253.54l-1.226-1.946-.238-14.383c-.147-8.9-.143-14.607.01-14.972.136-.325.437-.653.67-.73.233-.076.932-.612 1.554-1.19.916-.853 1.1-1.175.969-1.697-.125-.498.049-.876.766-1.659l.929-1.013 2.733-.085c3.28-.102 4.747.273 4.982 1.275l.155.662 10.836.03 10.836.031 1.112.736c.761.504 1.171.995 1.299 1.557.102.451.21 4.571.24 9.155.028 4.584.07 8.47.09 8.636.02.166.46.38.978.478 1.468.275 1.97.954 1.97 2.665 0 1.658-.752 3.13-2.114 4.136-.965.713-1.014 1.214-.151 1.542.83.315 1.26 1.132 1.156 2.2-.062.644-.32 1.001-1.074 1.488-.795.512-.992.803-.992 1.458 0 .479-.359 1.368-.864 2.139l-.863 1.32-16.268.057-16.269.058-1.226-1.947zm13.458 1.011c-.088-.088-.316-.097-.507-.02-.211.084-.149.147.16.16.278.01.435-.052.347-.14zm5.934-3.015c1.752 0 1.942-.294.686-1.063-.82-.502-1.277-.523-9.724-.46l-8.863.068v1.323l5.027.16c2.765.087 6.445.117 8.177.065 1.733-.05 3.847-.093 4.697-.093zm11.787 0c1.674 0 2.21-.083 2.126-.33-.074-.22-.704-.332-1.884-.333-1.284 0-1.842-.11-2.023-.397-.368-.582-.313-1.087.18-1.631.42-.465.346-.484-1.969-.484-1.324 0-2.48.12-2.57.265-.09.145-.553.264-1.03.264-.646 0-.952-.163-1.21-.643-.189-.354-.271-.833-.183-1.065.134-.347.071-.372-.359-.142-.38.204-.896.172-1.912-.117-1.541-.438-2.541-.482-9.878-.44-5.034.03-5.049.031-5.62.69-.654.751-1.432.831-2.526.26-.957-.498-.962-.498-.962.117 0 .28.208.574.463.651.254.077 4.57.165 9.59.194l9.129.055 1.455 1.472c1.453 1.47 1.458 1.472 3.44 1.64 1.091.093 2.326.125 2.745.071.418-.053 1.768-.097 2.998-.097zm2.145-2.844c-.066-.349-.397-.483-1.342-.544-1.383-.089-1.664.284-.527.7 1.202.438 1.97.375 1.87-.156zm-4.108-2.946c-.109-.812-.02-1.145.422-1.587.712-.712 1.775-.727 2.148-.031.165.31.554.529.935.529.643 0 .652-.033.652-2.288v-2.289l-2.183.155c-2.574.182-3.032.326-3.254 1.026-.092.287-.726 1.11-1.41 1.827-1.054 1.105-1.395 1.304-2.226 1.304-.912 0-.981.056-.981.788 0 .741.048.777.834.62.584-.117.92-.049 1.124.228.418.568.894.701 2.58.725l1.497.02-.138-1.027zm3.099.763c.32-.207.283-.257-.199-.26-.327-.003-.595.115-.595.26 0 .332.28.332.794 0zm-10.701-1.564c-.206-.332-.94-.392-.94-.076 0 .116.142.354.317.529.37.37.895-.013.623-.453zm-18.139-.658c-.206-.206-.353-.18-.522.095-.333.538-.037.894.425.51.276-.229.304-.4.097-.605zm5.557-8.114v-8.75l.727.085.728.083.132 8.6c.085 5.535.227 8.574.397 8.532.25-.063.29-3.773.159-14.221l-.047-3.704-.831-.53c-1.34-.853-1.624-2.858-.597-4.216.548-.724 3.373-.934 4.07-.303.461.417.518.39 1.05-.512.309-.523.562-1.004.562-1.067 0-.064-1.187-.05-2.637.029-2.884.158-3.582-.032-3.984-1.09-.228-.6-.378-.646-2.095-.646-2.124 0-2.383.232-2.417 2.166-.018 1.051-.127 1.226-1.389 2.215l-1.37 1.073-.069 9.717-.069 9.716.664-.434c.46-.301.94-.383 1.564-.266 1.018.19 1.334.5 1.584 1.544.169.708.224.727 2.02.727h1.848zm-3.749 3.24c-.242-.1-.808-.508-1.256-.91-1.055-.943-1.125-2.293-.167-3.25.765-.765 1.097-.794 2.528-.222 1.612.645 2.016 1.803 1.145 3.279-.347.587-1.452 1.406-1.755 1.301-.03-.01-.252-.1-.495-.198zm-.93-6.65c-1.48-.9-1.792-2.097-.858-3.284.682-.868 1.832-.922 2.934-.137 1.021.727 1.338 1.574.977 2.61-.481 1.38-1.623 1.684-3.054.812zm.785-5.232c-.763-.139-1.927-1.532-1.927-2.306 0-.814.892-1.9 1.734-2.112 1.28-.321 3.028 1.261 3.028 2.742 0 1.104-1.408 1.936-2.835 1.676zm8.391 7.718c0-8.518-.124-10.284-.633-8.959-.215.56-.207 18.232.009 18.448.525.525.624-.983.624-9.49zm2.701-1.191l.078-10.864 1.52-1.462c.838-.804 1.522-1.51 1.522-1.571 0-.06-.346-.11-.77-.11-.844 0-1.668.807-2.701 2.646-.447.794-.764 1.061-1.274 1.072l-.679.014.596.415.595.415v10.154c0 9.905.013 10.154.518 10.154s.52-.28.595-10.863zm2.856 10.234c0-.968.617-1.307 2.118-1.163l1.321.127v-.987c0-.55.174-1.131.394-1.313.379-.315 1.485-.265 2.675.122.45.146.62.023.9-.655.466-1.125 1.159-1.514 3.043-1.707.873-.09 2.1-.227 2.726-.305l1.139-.14-.08-1.107c-.078-1.07-.111-1.106-.995-1.106-.757 0-.941.113-1.07.661-.253 1.079-1.595 1.347-6.322 1.264l-4.123-.073-.348-.728c-.278-.578-.53-.727-1.232-.727-.98 0-1.364-.531-.946-1.311.282-.528.839-.806 1.615-.806 1.063 0 .45-.48-.75-.588-.69-.062-1.279-.1-1.307-.086-.028.014-.087 2.553-.132 5.642l-.081 5.616h.727c.59 0 .728-.12.728-.63zm17.472-1.553c.299-.484.5-1.207.46-1.654-.06-.651-.192-.794-.734-.794-.627 0-.666.088-.74 1.654-.09 1.879.202 2.108 1.014.794zm-3.185-8.798c0-.435-1.706-.582-1.961-.169-.23.372.141.566 1.08.566.607 0 .881-.123.881-.397zM51.2 230.923c-.857-.947-.195-2.141 1.188-2.141.512 0 .775-.134.775-.397 0-.262-.263-.397-.775-.397-1.476 0-2.1-1.371-1.064-2.337.465-.433.484-.529.133-.664-.226-.086-.411-.34-.411-.562 0-.223-.12-.406-.265-.406-.164 0-.264 1.503-.264 3.979 0 3.948.004 3.975.55 3.683.507-.271.518-.333.133-.758zm14.927.77c0-.146-.417-.265-.926-.265-.51 0-.926.119-.926.264 0 .146.417.265.926.265.51 0 .926-.12.926-.265zm-.049-2.58c-.1-.524-1.445-.795-1.865-.375-.44.441.043.838 1.023.838.743 0 .912-.094.842-.463zm.05-2.58c0-.218-.12-.397-.265-.397-.146 0-.265.179-.265.397 0 .218.12.397.265.397.145 0 .264-.179.264-.397zm-21.319-2.136c.55-.549.53-1.336-.04-1.554-.552-.212-1.131.484-1.131 1.36 0 .71.563.803 1.171.194zm21.054-1.78c0-1.15-.129-2.06-.318-2.249-.434-.434-10.06-.445-10.878-.012-.625.33-3.346 2.898-3.353 3.164-.01.449 1.388-.175 1.591-.71.39-1.024 1.067-1.172 5.387-1.172 4.765 0 5.365.167 5.617 1.562.232 1.29.284 1.349 1.175 1.349h.779v-1.932z" id="path5119" fill="#212121" stroke-width=".265"></path></g></g></svg>