<svg width="141" height="147" xmlns="http://www.w3.org/2000/svg" viewBox="0 0 37.542 39.125"><title>shallie category bee hive</title><g fill="#212121" class="nc-icon-wrapper"><g id="layer1" transform="translate(-220.912 -124.56)"><path d="M254.46 160.973c-.568-2.271-2.788-8.769-3.64-10.65-.161-.357-.244.395-.257 2.324-.017 2.839-.407 4.532-1.152 5.005-.492.313-3.062.25-3.712-.09-.317-.167-.996-.631-1.508-1.032-.66-.517-1.39-.785-2.513-.924-1.38-.17-1.774-.359-3.057-1.466-1.412-1.22-1.56-1.28-3.54-1.46-2.017-.182-2.11-.222-3.981-1.728-1.614-1.298-1.942-1.699-2.08-2.54-.405-2.45-.66-2.892-2.557-4.424-1.321-1.068-1.847-1.666-1.847-2.103 0-1.24-.646-2.45-2.155-4.04-1.467-1.545-1.549-1.7-1.549-2.962 0-2.18.587-2.636 3.97-3.089 4.319-.578 8.807-.508 10.867.169 2.259.74 3.313 1.3 4.86 2.58l1.294 1.069.707-.503c1.565-1.115 1.59-.951-.909-5.827-1.878-3.665-2.226-4.523-1.889-4.653.228-.087.587-.093.798-.012.829.318 4.976 7.884 9.159 16.71l1.128 2.382.332-3.44c.182-1.891.341-4.128.353-4.969.016-1.144.128-1.57.445-1.692.562-.216.89.355.896 1.553l.004.977 1.124-.643c1.835-1.05 3.905-.717 3.902.626-.003.792-1.031 2.16-1.959 2.602-.834.398-.987.398-1.974.003-.589-.235-1.132-.329-1.206-.208-.075.121-.218 2.023-.317 4.228l-.181 4.007 1.485 3.505c3.987 9.411 4.938 12.114 4.585 13.033-.11.287-.573.394-1.7.394h-1.55l-.677-2.712zm-5.81-5.458c.142-1-2.1-3.129-3.428-3.255l-1.027-.098v1.232c0 1.178.056 1.27 1.257 2.062 1.575 1.039 3.056 1.066 3.198.06zm-5.777-2.426c0-1.118-.344-1.577-2.307-3.086-.717-.552-1.022-.626-1.933-.472-1.048.177-1.077.21-.915 1.017.291 1.453.389 1.607 1.66 2.62.997.796 1.466.992 2.369.992h1.126zm-7.295-2.964c-.127-.904-.417-1.37-1.477-2.381-1.162-1.106-1.458-1.257-2.476-1.257-.636 0-1.229.117-1.316.259-.421.681.42 2.316 1.748 3.396 1.137.924 1.553 1.108 2.52 1.108h1.158zm10.138-.613c-.203-1.796-2.473-3.583-4.261-3.355l-1.021.13.168 1.092c.23 1.496 2.175 3.266 3.726 3.392.582.047 1.161.04 1.287-.017.126-.056.171-.615.1-1.242zm-6.584-1.585c.053-.049-.043-.67-.214-1.38-.255-1.065-.575-1.525-1.816-2.617-1.367-1.202-1.658-1.34-3.16-1.496l-1.653-.172v1.284c0 1.272.018 1.299 2.05 3.054l2.051 1.77 1.323-.177c.728-.098 1.366-.218 1.42-.266zm-8.11-4.747c-.063-.896-.287-1.251-1.454-2.312-1.182-1.075-1.539-1.255-2.489-1.257-.61-.003-1.18.113-1.268.256-.088.142-.033.729.122 1.304.208.774.638 1.33 1.65 2.136 1.172.933 1.522 1.078 2.442 1.01l1.074-.079zm10.428-.33c-.1-.74-.374-1.421-.662-1.654-2.354-1.906-2.359-1.908-3.463-1.722-.775.131-1.067.308-1.067.647 0 .99.616 2.04 1.758 2.993.992.828 1.388.992 2.397.992h1.209zm-7.573-3.019c0-.987-.142-1.23-1.39-2.38-1.208-1.113-1.536-1.28-2.521-1.28-1.336-.004-1.538.313-1.123 1.756.42 1.464 2.381 2.962 3.91 2.986l1.124.018zm11.866-2.481c-.68-1.574-1.034-1.753-1.678-.85-.411.574-.383.634.835 1.747.707.646 1.306 1.018 1.363.846.056-.168-.177-.953-.52-1.743zm-18.422.788c.08-.08.029-.532-.115-1.002-.314-1.021-2.71-2.82-3.758-2.82-1.167 0-.917 1.2.563 2.703 1.033 1.05 1.411 1.266 2.205 1.266.527 0 1.024-.066 1.105-.147z" id="path4725" fill="#212121" stroke-width=".265"></path></g></g></svg>