<svg width="152" height="149" xmlns="http://www.w3.org/2000/svg" viewBox="0 0 40.367 39.684"><title>shallie category ancient power</title><g fill="#212121" class="nc-icon-wrapper"><g id="layer1" transform="translate(81.597 -202.068)"><path d="M-63.454 241.106c-2.013-1.033-4.026-3.737-4.085-5.487-.044-1.317.338-1.626 1.408-1.14.373.17.744.245.823.165.288-.287-.893-.916-1.734-.925-.687-.007-.86.099-.86.521 0 .291-.07.53-.156.53s-1.066-.831-2.179-1.847c-1.636-1.492-2.555-2.08-4.805-3.074a440.03 440.03 0 0 1-3.636-1.621c-1.201-.552-2.656-2.254-2.861-3.348-.4-2.126 1.315-4.484 4.422-6.082 1.926-.991 1.968-1.035 2.92-3.052 1.115-2.364 3.463-4.907 5.698-6.17 1.25-.707 1.492-1 2.422-2.943 2.323-4.847 4.72-5.782 7.827-3.053.999.876 2.246 3.096 2.252 4.004.002.31.578.735 1.743 1.285 2.205 1.042 5.198 3.953 6.393 6.216.77 1.46 1.019 1.697 2.592 2.472 2.236 1.1 3.378 2.25 3.827 3.853.578 2.064.079 3.048-2.646 5.22-1.236.985-2.623 1.969-3.081 2.186-.459.218-1.622 1.11-2.586 1.984-.964.873-1.845 1.588-1.957 1.588-.521 0-3.243 2.92-3.84 4.118-.766 1.54-2.756 4.072-3.662 4.66-1.235.8-2.601.781-4.24-.06zm4.083-3.752c.31-.543.51-1.04.445-1.105-.185-.185-4.201-.258-4.38-.08-.27.272.97 2.028 1.712 2.423.878.467 1.423.164 2.223-1.238zm-3.636-3.114c.09-.145-.03-.264-.265-.264-.235 0-.354.119-.264.264.09.146.208.265.264.265.056 0 .175-.12.265-.265zm7.623-4.22c4.75-1.223 7.128-2.062 6.992-2.469-.053-.16-.414-.527-.802-.817-.693-.518-.742-.519-2.762-.055-5.047 1.158-6.737 1.424-9.232 1.453-2.859.034-3.48.227-4.216 1.31-.355.524-.646 1.014-.646 1.09 0 .075 1.101.129 2.447.12 1.346-.01 2.745.07 3.11.175.363.106.747.203.854.215.106.013 2.02-.447 4.255-1.023zm-12.124-.08c-.36-1.089.129-9.799.784-13.956.422-2.677 1.365-5.921 2.182-7.507.349-.678.346-.806-.021-1.174-.374-.374-.538-.147-1.748 2.405-1.619 3.414-2.341 6.239-3.06 11.964-.42 3.356-.526 7.012-.235 8.17.151.605.31.694 1.234.694.982 0 1.046-.044.864-.595zm1.695-2.413c.301-.364.144-1.224-.224-1.224-.375 0-1.122 1.027-.95 1.306.242.391.814.351 1.174-.082zm-5.213-4.2c.053-1.784.05-3.39-.006-3.573-.19-.616-1.619-.373-2.332.397-.624.673-.667.879-.58 2.802.09 1.956.145 2.12.956 2.845.474.423 1.087.77 1.364.77.461 0 .51-.267.598-3.242zm12.062 2.827c2.49-1.743 1.368-5.952-1.86-6.984-2.004-.64-3.583.462-4.17 2.91-.395 1.646-.18 2.89.657 3.794.588.634.82.693 2.713.693 1.448 0 2.248-.124 2.66-.413zm-16.611-2.543c-.073-.898-.256-1.673-.408-1.723-.151-.05-.687.338-1.19.862l-.916.952.916.771c1.458 1.227 1.754 1.067 1.598-.862zm24.342 1.273c1.812-.42 2.266-1.141 2.186-3.476-.046-1.34-.161-1.68-.738-2.183-.902-.785-2.003-.763-2.823.058-.689.688-1.271 2.248-1.271 3.403 0 .696.765 2.568 1.041 2.547.082-.006.804-.163 1.605-.349zm5.45-2.166c.152-.604-.01-1.174-.254-.891-.268.31-.412 1.565-.18 1.565.146 0 .341-.303.434-.674zm-13.76-15.506c.104-.167-.031-.465-.3-.661-.637-.466-.896-.45-1.095.067-.267.697.998 1.237 1.395.594z" id="path5047" fill="#212121" stroke-width=".265"></path></g></g></svg>