<svg width="174" height="148" xmlns="http://www.w3.org/2000/svg" viewBox="0 0 46.194 39.357"><title>shallie category magic herb</title><g fill="#212121" class="nc-icon-wrapper"><g id="layer1" transform="translate(-269.502 -120.74)"><path d="M288.13 159.948c-4.156-.221-5.54-.52-9.841-2.122-3.774-1.405-4.462-1.877-4.965-3.401-.448-1.357-.234-1.874 1.32-3.183.724-.611 1.316-1.212 1.316-1.337 0-.416-2.938-4.597-4.46-6.347-2.4-2.758-2.285-2.47-1.474-3.695.392-.592.805-1.077.917-1.077.112 0 .57.625 1.017 1.389.448.764 1.798 2.98 3.002 4.926 2.065 3.336 2.255 3.559 3.365 3.93 1.093.365 1.253.356 2.256-.131 1.17-.569 2.793-.938 6.093-1.385 1.164-.157 2.46-.353 2.88-.436l.763-.149-.189-3.47c-.103-1.907-.245-3.561-.316-3.674-.07-.114-1.162-.207-2.426-.208-1.265 0-2.743-.124-3.284-.275-1.198-.332-2.456-1.353-3.043-2.467-.58-1.104-.583-3.988-.004-5.088.669-1.27 2.202-2.487 3.133-2.487 1.86 0 5.13 2.906 5.987 5.32.253.713.534 1.267.625 1.23.091-.038.837-.863 1.658-1.835 2.345-2.776 5.052-4.181 8.06-4.185 1.207-.003 1.522.11 2.183.772 1.438 1.438.912 3.375-1.506 5.546-1.985 1.782-3.086 2.351-6.167 3.19l-2.494.677.071 1.72c.04.946.15 2.494.245 3.44l.174 1.72 2.645.158c1.456.087 3.312.25 4.127.362l1.48.204 1.062-1.817c.584-1 2.226-3.663 3.647-5.919 1.422-2.255 3.666-6.276 4.986-8.934 1.32-2.658 2.526-4.793 2.678-4.744.152.048.675 1.077 1.161 2.286l.885 2.199-1.448 1.488c-1.535 1.577-4.12 5.006-6.72 8.91a97.925 97.925 0 0 1-2.94 4.159c-2.155 2.83-2.142 2.748-.54 3.223 1.257.374 1.412.371 1.855-.03.266-.24.483-.541.483-.67 0-.2 2.708-3.907 4.977-6.814.392-.5.89-1.266 1.109-1.7.218-.434.52-.83.673-.879.24-.078.886 2.5 1.005 4.02.028.359-.98 1.507-3.134 3.572-1.746 1.673-3.213 3.192-3.26 3.374-.048.183.301.54.775.794 1.565.84 3.147 2.453 3.145 3.207-.005 1.74-2.412 3.688-6.727 5.444-2.859 1.163-9.11 1.608-16.82 1.199zm13.087-2.373c2.952-.484 5.2-1.335 6.344-2.402.59-.55.984-1.088.876-1.196-.107-.107-2.369.355-5.025 1.027-2.657.673-5.217 1.297-5.69 1.387-.817.156-1.16.792-.683 1.268.256.257 2.356.214 4.178-.084zm-14.939-.202c0-.285-2.696-1.654-3.255-1.654-.257 0-1.547-.417-2.866-.926-2.985-1.153-3.468-1.182-3.355-.2.1.866 1.623 1.7 3.92 2.147 4.34.844 5.557.983 5.556.633zm5.292-1.918v-1.059l-1.256-.011c-.692-.006-1.733-.184-2.315-.393-.633-.228-2.016-.379-3.44-.375-2.298.006-2.355.021-1.627.415 1.082.587 3.473 1.396 5.448 1.843.937.213 1.76.443 1.83.512.07.07.404.126.743.126.544 0 .617-.126.617-1.058zm5.487-.027c1.344-.41 3.16-.893 4.035-1.074.875-.18 1.591-.423 1.591-.54 0-.325-6.462-.258-6.79.07-.155.155-.863.364-1.574.465-1.084.155-1.307.283-1.38.796-.048.337-.021.786.06.997.169.44.405.399 4.058-.714zm-1.922-2.607c.26-.422-1.884-.874-2.524-.532-.388.208-.78.213-1.334.02-.837-.292-2.088.003-2.088.493 0 .35 5.73.367 5.946.019zm-7.788-.948c.347-.37 1.141-.8 1.766-.958 1.492-.376 1.5-.875.01-.65-1.42.214-6.02 1.798-6.02 2.073 0 .114.813.206 1.807.206 1.591 0 1.88-.08 2.437-.671zm15.846.412c-.228-.134-1.24-.428-2.248-.653a622.43 622.43 0 0 1-4.083-.934c-1.237-.287-2.59-.525-3.009-.529-.64-.005-.709.056-.436.384.178.214.723.465 1.21.556.489.092 1.161.44 1.495.773.569.567.829.608 4.047.626 2.207.013 3.291-.067 3.024-.223zm-20.222-1.248c3.631-1.11 4.403-1.546 2.25-1.272-1.874.239-6.697 1.833-6.84 2.26-.136.41.378.3 4.59-.988zm25.14.72c-.252-.407-2.645-1.037-6.09-1.602-3.575-.587-3.925-.614-3.727-.294.077.124.888.378 1.802.562.913.185 2.206.507 2.871.715 2.265.708 5.435 1.09 5.144.62zm-28.082-4.553c-.826-1.305-3.424-6.761-5.192-10.902-.531-1.244-1.718-3.467-2.571-4.817-.314-.496-.233-.727.773-2.209.618-.91 1.225-1.553 1.348-1.43.124.124.99 2.547 1.926 5.384.936 2.837 2.427 6.934 3.314 9.104 1.615 3.951 2.04 5.69 1.44 5.9-.174.061-.641-.402-1.038-1.03zm11.156-19.068c-.057-.182-.301-1.754-.542-3.493-.405-2.925-.405-3.187-.006-3.48.445-.325 2.463-.21 2.875.164.2.182-.734 4.143-1.482 6.28-.31.888-.663 1.108-.845.53zm7.74-1.33c-.187-.982.516-5.807.88-6.031.359-.223 2.349.671 2.349 1.055 0 .449-2.647 5.579-2.879 5.579-.129 0-.286-.272-.35-.603zm-16.868-2.37c-.734-.907-1.334-1.723-1.334-1.812 0-.2 2.091-1.161 2.199-1.011.1.14.876 2.814 1.086 3.745.279 1.237-.502.868-1.95-.922z" id="path4742" fill="#212121" stroke-width=".265"></path></g></g></svg>