<svg width="129" height="129" xmlns="http://www.w3.org/2000/svg" viewBox="0 0 34.392 34.156"><title>shallie category paper</title><g fill="#212121" class="nc-icon-wrapper"><g id="layer1" transform="translate(-111.891 -74.657)"><path d="M112.73 108.176c-.41-.453-.498-1.02-.417-2.68.047-.945.092-.993.959-.993.86 0 .914.054.992.993.075.906.17 1.013 1.09 1.24 1.216.301 5.287-.22 6.083-.777.598-.419 1.934-.264 2.587.3.31.268 1.381.361 4.153.361h3.735l.349.728c.192.4.526.727.742.727.332 0 .406-.823.478-5.291.067-4.211.163-5.373.472-5.689.3-.307 1.093-.4 3.488-.408 6.677-.023 7.73-.094 7.73-.518 0-.265-.266-.397-.8-.397h-.8l.019-9.027c.01-4.964-.017-9.042-.06-9.062-.116-.05-18.165.323-19.262.4-.51.035-1.855-.036-2.99-.157-1.56-.167-2.224-.135-2.721.131-.523.28-.836.288-1.527.038-.478-.173-1.181-.315-1.562-.315-.615 0-.71.127-.845 1.125-.151 1.112-.355 8.093-.39 13.377-.012 1.708-.116 2.668-.278 2.567-.403-.248-1.33.36-1.32.866.012.636.629 1.38 1.145 1.38.366 0 .43.319.415 2.05-.011 1.246-.098 1.847-.221 1.532-.192-.49-.23-.478-.665.185-.274.419-.393.921-.293 1.237.22.691-.35 1.837-.662 1.333-.12-.192-.228-6.126-.242-13.186-.014-7.06-.094-13.264-.178-13.788-.204-1.278.276-1.633 2.389-1.767 1.472-.094 1.814-.021 2.678.565 1.16.788 1.75.836 2.779.228.705-.417.854-.417 2.372.005.89.248 1.735.379 1.877.291.701-.433 3.742-.6 6.315-.346 1.533.15 3.86.32 5.169.374 1.31.055 4.269.177 6.576.271l4.194.172-.16.798c-.087.439-.16 5.402-.16 11.03v10.233l-2.843 2.559a486.888 486.888 0 0 0-5.722 5.25l-2.876 2.692-4.929-.149c-3.78-.113-5.214-.256-6.155-.613-1.145-.434-1.32-.436-2.645-.036-.857.259-2.66.462-4.545.511-2.63.07-3.188.014-3.518-.35z" id="path4470" fill="#212121" stroke-width=".265"></path></g></g></svg>