<svg width="147" height="146" xmlns="http://www.w3.org/2000/svg" viewBox="0 0 39.14 38.81"><title>shallie category aroma</title><g fill="#212121" class="nc-icon-wrapper"><g id="layer1" transform="translate(-274.617 -72.86)"><path d="M281.364 111.523c-1.23-.326-2.47-1.046-2.77-1.607-.705-1.317.3-4.12 1.97-5.497 1.43-1.178 2.795-1.472 6.271-1.35 3.927.137 5.509.808 8.007 3.396 1.607 1.664 1.735 1.884 1.735 2.972 0 2.11-.049 2.125-7.74 2.217-3.674.044-7.037-.015-7.473-.13zm12.515-1.146c.174-.174.317-.627.317-1.005 0-.888-.45-1.323-1.37-1.323-.491 0-.878.219-1.168.661-.401.613-.401.71 0 1.323.472.721 1.66.905 2.22.344zm-6.562-1.005c.639-.64.648-.771.107-1.544-.571-.815-1.676-.68-2.207.269-.361.647-.353.757.1 1.257.624.69 1.321.696 2 .018zm-3.407-2.279c1.043-.943.346-2.484-1.123-2.484-1.324 0-2.35.69-2.35 1.58 0 1.508 2.18 2.075 3.473.904zm6.892-.011c.984-.89.264-2.473-1.126-2.473-1.528 0-2.054 1.43-.868 2.362.842.663 1.352.691 1.994.11zm5.702-3.465c-1.105-1.221-.04-3.611 2.347-5.264 1.936-1.34 4.061-1.946 6.83-1.946 1.987 0 2.023-.012 2.554-.86.564-.9.578-1.904.095-6.88-.118-1.215-.074-1.908.137-2.162.352-.425 3.866-.839 4.746-.56.644.205.724.849.2 1.606-.235.34-.406 1.644-.49 3.74-.115 2.852-.207 3.35-.814 4.386-.878 1.497-2.455 2.534-4.365 2.87-.83.145-2.301.438-3.268.65-.967.212-2.06.385-2.43.385-1.671 0-2.824 1.17-2.824 2.865 0 .896-.398 1.303-1.486 1.52-.565.113-.898.018-1.232-.35zm-19.799-3.05c-2.312-2.623-2.462-3.422-1.16-6.174.937-1.982.897-3.962-.134-6.491-.436-1.07-.793-2.144-.794-2.385 0-.242.347-.732.771-1.09.85-.714 3.98-1.676 4.635-1.424.569.218.518 1.195-.138 2.679-.485 1.096-.53 1.544-.37 3.676.215 2.873-.099 4.367-1.215 5.777-.978 1.235-1.017 2.447-.118 3.68 1.107 1.518 1.331 2.082 1.023 2.574-.526.84-1.24.605-2.5-.823zm9.024-.456c-.694-.693-.669-1.596.128-4.588.715-2.69 1.178-3.894 1.915-4.981.782-1.153 3.12-2.855 4.858-3.536.893-.35 1.789-.774 1.991-.942.477-.395.474-2.285-.006-4.036-.818-2.986-.876-2.716.957-4.461 2.245-2.138 6.309-4.708 7.443-4.708.22 0 .664.807 1.095 1.99.58 1.586.661 2.066.406 2.374-.176.212-1.303.92-2.504 1.576-2.837 1.546-2.974 1.718-2.574 3.213.424 1.585.396 3.682-.061 4.553-.816 1.554-3.25 3.437-5.557 4.3-2.113.791-4.385 3.059-4.89 4.88-1.319 4.769-1.945 5.623-3.201 4.366z" id="path4521" fill="#212121" stroke-width=".265"></path></g></g></svg>