<svg width="132" height="155" xmlns="http://www.w3.org/2000/svg" viewBox="0 0 35.166 41.098"><title>shallie category grain</title><g fill="#212121" class="nc-icon-wrapper"><g id="layer1" transform="translate(83.229 -99.76)"><path d="M-53.376 139.742c-1.545-2.181-2.065-3.33-1.763-3.894.504-.943 1.348-.455 2.732 1.58 1.148 1.686 1.276 2.008 1.053 2.643-.404 1.149-1.05 1.044-2.022-.329zm-8.408.113c-3.15-.275-5.2-.866-8.395-2.418-3.327-1.617-5.02-2.866-8.064-5.948-2.676-2.71-5.75-7.492-4.815-7.492.087 0 .831.646 1.654 1.434 3.232 3.098 3.488 3.25 9.67 5.728 2.472.992 5.038 2.195 5.701 2.675 1.996 1.44 3.987 2.608 6.498 3.809 2.32 1.108 3.517 1.858 3.288 2.057-.28.243-3.495.334-5.537.155zm.133-5.3c-.874-.446-1.72-.979-1.882-1.186-.161-.207-.485-.376-.72-.376-.65 0-3.12-1.21-4.008-1.962-1.233-1.045-.55-1.383 1.07-.53 1.846.973 4.117 1.422 6.27 1.242 1.235-.104 2.006-.043 2.446.193.786.42 1.983 2.173 1.983 2.903 0 .485-.168.535-1.786.53-1.462-.004-2.074-.153-3.373-.815zm6.088-1.028c-.919-1.455-.883-2.8.112-4.172.427-.59.903-1.15 1.058-1.246.155-.096.282-.882.282-1.746 0-1.368.065-1.572.503-1.572.471 0 .504.253.524 3.99.015 2.9-.082 4.237-.357 4.895-.523 1.25-1.272 1.198-2.122-.149zm-9.51-3.02c-.863-.34-1.78-.878-2.038-1.196-.258-.32-1.214-.96-2.124-1.426-.91-.465-1.7-.994-1.754-1.176-.136-.452 1.13-.428 1.872.036.741.462 5.832.786 7.012.445.833-.24.905-.2 1.779.99.858 1.17 1.17 2.254.725 2.518-.109.065-1.032.188-2.05.273-1.554.129-2.105.054-3.422-.464zm7.087-.488c-.603-.975-1.414-2.768-1.415-3.127 0-.227.173-.644.387-.926.214-.283.392-.712.397-.955.004-.243.172-.779.373-1.19 1.276-2.623 1.299-2.709 1.152-4.331-.119-1.307-.069-1.643.265-1.77.736-.283 1.19.705 1 2.176-.093.728-.148 1.62-.121 1.984.026.364.059 2.037.072 3.718.022 2.778-.03 3.133-.578 3.902-.63.886-1.189 1.075-1.532.52zm7.457-1.855c-.914-2.852-1.306-4.255-2.792-9.988-.132-.509-.313-1.64-.402-2.513-.264-2.576-.922-5.127-2.011-7.794-.563-1.377-1.023-2.538-1.023-2.58 0-.315.955.166 2.644 1.332 2.457 1.697 3.639 3.356 4.935 6.925.831 2.287.977 3.04 1.076 5.556.1 2.57.035 3.171-.566 5.14-.374 1.226-.68 2.497-.68 2.823 0 .326-.073.781-.16 1.012-.192.498-.871.556-1.021.087zm-17.208-2.724c-1.128-.393-2.1-.93-2.487-1.375-.35-.401-1.173-1.027-1.83-1.39-1.25-.693-1.89-1.422-1.548-1.764.11-.11.463-.035.784.168 2.008 1.272 5.173 1.929 6.623 1.375.824-.315.868-.29 2.384 1.27.85.875 1.494 1.74 1.434 1.924-.207.626-3.312.506-5.36-.208zm5.894-.848c-.74-.843-1.309-2.23-1.16-2.827.082-.323.451-.914.821-1.314 1.048-1.13 2.077-3.333 2.237-4.788.103-.935.262-1.323.543-1.323.32 0 .44.653.622 3.386.276 4.14.137 4.956-1.065 6.287-1.046 1.158-1.4 1.26-1.998.58zm-9.485-3.622c-1.58-.436-1.7-.52-3.53-2.463-1.646-1.746-1.516-2.211.302-1.087.828.511 1.172.552 3.577.42 2.502-.139 2.719-.109 3.633.496.957.633 2.123 1.973 2.123 2.439 0 .575-4.236.71-6.105.195zm7.262-.938c-.41-.165-.61-.551-.743-1.432-.099-.663-.292-1.274-.43-1.36-.344-.212-.314-1.638.04-1.857.16-.099.625-.925 1.034-1.837.41-.912.874-1.738 1.033-1.837.16-.098.29-.607.29-1.13 0-.935.01-.943.53-.472.335.304.533.826.54 1.43.006.523.183 1.427.393 2.01.567 1.573.475 2.59-.396 4.389-1.169 2.413-1.272 2.508-2.29 2.096zm-5.92-3.443c-.218-.141-.901-.259-1.518-.26-1.79-.007-3.683-.882-5.279-2.44-1.331-1.3-2.442-2.856-2.038-2.856.096 0 .59.257 1.098.57.527.326 1.883.725 3.155.929 2.455.393 3.659.93 5.22 2.332 1.01.906 1.023.94.554 1.459-.544.601-.64.623-1.192.266zm2.478-1.918c-.976-1.107-1.122-1.821-.857-4.192.136-1.224.359-2.641.494-3.15.149-.561.151-1.342.006-1.978-.132-.578-.201-1.089-.154-1.136.166-.166 2.268 2.403 2.952 3.608.631 1.113.668 1.329.402 2.353-.162.621-.298 1.335-.303 1.588-.005.253-.239.935-.52 1.518-.281.582-.515 1.194-.52 1.36-.007.24-.567.624-.91.624-.036 0-.301-.268-.59-.595zm-4.56-2.904c-1.996-.998-4.065-2.782-4.532-3.91-.291-.701-.272-.876.142-1.334.462-.51.456-.55-.209-1.25-.932-.982-3.902-4.884-3.902-5.127 0-.107.131-.276.292-.375.167-.103.981.597 1.905 1.638 3.245 3.657 3.758 4.064 5.15 4.094 2.904.06 3.473.78 3.622 4.58.117 2.985.125 2.98-2.467 1.684z" id="path4576" fill="#212121" stroke-width=".265"></path></g></g></svg>