<svg width="119" height="118" xmlns="http://www.w3.org/2000/svg" viewBox="0 0 31.679 31.233"><title>shallie race animal</title><g class="nc-icon-wrapper"><g id="layer1" transform="translate(-160.666 -88.577)"><path d="M167.41 119.347c-2.323-1.145-2.137-4.268.478-7.996.622-.886 1.799-2.165 2.615-2.841 3.23-2.677 5.954-3.178 8.999-1.657 4.387 2.193 8.334 7.921 7.463 10.83-.384 1.281-1.308 1.864-3.232 2.039-1.405.127-1.738.047-3.604-.87-1.4-.688-2.527-1.046-3.533-1.123-1.33-.102-1.68-.006-3.528.974-2.309 1.223-4.075 1.424-5.658.644zm-3.889-8.481c-2.427-.573-3.71-5.468-2.216-8.45 1.513-3.016 4.186-3.05 5.74-.073.534 1.021.601 1.47.516 3.44-.07 1.634-.241 2.512-.613 3.148-.834 1.424-2.236 2.216-3.427 1.935zm24.48-.11c-1.734-.674-2.652-2.527-2.652-5.352 0-5.232 4.201-7.209 6.323-2.975 1.925 3.842-.583 9.53-3.671 8.327zm-17.572-7.66c-1.579-1.242-2.408-4.153-2.218-7.785.165-3.163 1.227-5.688 2.684-6.382.792-.378 1.041-.391 1.76-.094 1.768.733 2.896 3.606 2.901 7.39.004 2.991-.602 5.088-1.852 6.403-1.135 1.192-2.167 1.34-3.275.468zm8.89-.101c-1.257-1.058-1.968-3.065-2.112-5.96-.202-4.092.818-7.063 2.792-8.127.838-.452.9-.45 1.845.06.703.378 1.203.968 1.779 2.095.77 1.51.8 1.7.8 5.027 0 3.078-.07 3.613-.63 4.854-.746 1.65-1.894 2.706-2.942 2.706-.415 0-1.102-.294-1.532-.655z" id="path3286-6" display="inline" fill="#000000" stroke-width=".265"></path></g></g></svg>