<svg width="114" height="139" xmlns="http://www.w3.org/2000/svg" viewBox="0 0 30.409 36.973"><title>shallie category apple</title><g fill="#212121" class="nc-icon-wrapper"><g id="layer1" transform="translate(-170.504 -123.52)"><path d="M178.43 159.592c-2.26-1.156-2.916-1.977-5.254-6.572-2.454-4.821-3.076-7.719-2.44-11.37.633-3.635 2.318-6.135 5.103-7.57 1.594-.822 5.54-.618 7.948.41.429.184.463-.078.463-3.481 0-3.89.122-4.315 1.232-4.315.377 0 .907-.388 1.443-1.055 1.279-1.59 2.603-2.12 5.305-2.12 2.737 0 3.134.288 3.131 2.27-.003 1.573-.58 2.55-2.126 3.588-1.374.923-2.396 1.123-4.905.962l-1.963-.126v2.238c0 1.904.06 2.214.407 2.081 3.228-1.238 7.305-1.428 9.471-.44 1.67.763 3.097 2.216 4.014 4.09.713 1.457.733 1.612.57 4.338-.22 3.66-.547 4.787-2.547 8.78-1.885 3.764-3.332 5.9-5.288 7.806l-1.358 1.323-1.775-.1c-3.014-.171-6.469-.139-7.992.075-1.36.19-1.584.138-3.44-.812zm13.533-2.934c1.73-1.78 3.386-4.183 4.287-6.22 1.464-3.31 2.17-8.627 1.477-11.122-.155-.558-.797-1.545-1.446-2.222l-1.168-1.218-2.498.175c-4.353.306-6.265 1.434-6.747 3.98-.365 1.928-.596 16.262-.272 16.868.152.284.56.49.979.496.395.005 1.016.18 1.38.388.363.208 1.082.382 1.595.387.796.008 1.155-.217 2.413-1.512zm-3.869-7.201c-.371-.41-.445-.833-.349-1.996.139-1.666.803-2.77 1.904-3.162 2.213-.788 2.622 2.738.557 4.803-1.009 1.009-1.452 1.083-2.112.355z" id="path4708" fill="#212121" stroke-width=".265"></path></g></g></svg>