<svg width="44" height="44" xmlns="http://www.w3.org/2000/svg" viewBox="0 0 11.642 11.642"><title>shallie water</title><g fill="#212121" class="nc-icon-wrapper"><g id="layer1" transform="translate(-159.894 -70.502)"><path d="M159.894 76.323v-5.82h11.642v11.64h-11.642zm7.865 3.036c.801-.801.796-.967.788-1.83-.014-1.418-1.457-3.309-2.237-4.245-.229-.275.934.938-.595-.628-.218-.222-.067-.311-.443-.003-.851.698-3.002 3.657-2.98 4.412-.115.91.288 1.595.714 2.168.576.773 1.208 1.059 2.45 1.059 1.215 0 1.476-.106 2.303-.933zm-2.545-.281c-1.304-.385-.316-2.48.216-3.02 1.284 1.406 1.222 2.934-.216 3.02z" id="path8221" fill="#212121" stroke-width=".265"></path></g></g></svg>