<svg width="162" height="107" xmlns="http://www.w3.org/2000/svg" viewBox="0 0 43.117 28.382"><title>shallie category clay</title><g fill="#212121" class="nc-icon-wrapper"><g id="layer1" transform="translate(-217.066 -78.602)"><path d="M231.44 106.616c-.287-.19-1.236-.558-2.109-.82-.873-.26-2.543-.99-3.71-1.622-1.169-.63-2.801-1.4-3.628-1.709-.877-.328-1.789-.902-2.189-1.377l-.685-.814.588-.626c.324-.344.748-.626.944-.626.492 0 6.756 3.017 7.956 3.832 1.25.85 2.747.892 3.54.1.524-.526.554-.75.404-3.035-.089-1.357-.301-2.69-.472-2.963-.538-.862-3.324-2.406-5.321-2.95-3.083-.839-3.456-.966-4.547-1.551-.569-.306-1.119-.504-1.222-.44-.103.064-.128.939-.056 1.944.187 2.62-.282 4.331-1.43 5.206-1.117.853-2.114.729-2.371-.294-.093-.37-.087-1.708.014-2.973.185-2.337.189-2.613.077-5.853-.081-2.368.37-3.016 2.717-3.908.945-.358 3.028-1.293 4.629-2.077 4.009-1.964 6.265-2.94 7.313-3.167.489-.105 2.078-.664 3.532-1.241l2.644-1.05 3.706.102c3.39.093 4.047.198 7.675 1.222a505.35 505.35 0 0 0 5.027 1.398c1.296.341 4.052 3.14 5.037 5.116.845 1.696.914 4.327.143 5.41-.38.533-.556 1.387-.691 3.348-.202 2.93-.62 3.963-1.507 3.731-.3-.078-1 .089-1.555.372-.555.283-1.169.515-1.364.515-.195 0-1.309.46-2.474 1.024-1.165.564-2.41 1.113-2.764 1.22-.355.108-1.42.53-2.365.94-.946.408-4.03 1.466-6.852 2.351-5.343 1.675-7.526 1.994-8.634 1.265zm9.42-4.45c1.372-.453 2.716-.941 2.986-1.083.271-.143 1.34-.494 2.376-.78 1.035-.288 2.004-.617 2.153-.733.149-.115 1.818-.894 3.71-1.73s3.589-1.709 3.77-1.94c.182-.23.333-.843.335-1.36.003-.518.176-1.418.386-2 .465-1.292.507-3.081.101-4.347-.943-2.946-.762-2.747-3.038-3.337-1.146-.296-2.591-.743-3.213-.992-.621-.249-1.31-.452-1.532-.452-.222 0-1.142-.344-2.045-.764-2.328-1.082-6.017-1.954-7.686-1.815-.877.072-2.644.659-4.937 1.638-1.965.839-4.501 1.798-5.637 2.13-1.135.334-2.71 1.036-3.501 1.56-.79.525-1.51.955-1.6.955-.609 0-2.054.998-2.392 1.651-.812 1.57-.057 2.307 2.381 2.323 1.288.008 7.393 2.189 9.132 3.262 1.928 1.19 2.913 1.23 4.879.196.805-.424 3.046-1.269 4.98-1.879 3.334-1.05 7.078-2.558 9.304-3.745 1.07-.57 1.41-.516 1.14.183-.149.39-6.814 3.753-8.367 4.222-.757.228-4.177 2.011-6.403 3.339-1 .595-1.603 1.158-1.786 1.666-.399 1.1-.36 4.315.053 4.481.785.317 2.12.122 4.452-.649z" id="path4504" fill="#212121" stroke-width=".265"></path></g></g></svg>