<?xml version="1.0" encoding="UTF-8" standalone="no"?>
<!-- Created with Inkscape (http://www.inkscape.org/) -->

<svg
   width="29.201153mm"
   height="37.551682mm"
   viewBox="0 0 29.201153 37.551681"
   version="1.1"
   id="svg5213"
   sodipodi:docname="shallie-category-supplement.svg"
   inkscape:version="1.1 (c68e22c387, 2021-05-23)"
   xmlns:inkscape="http://www.inkscape.org/namespaces/inkscape"
   xmlns:sodipodi="http://sodipodi.sourceforge.net/DTD/sodipodi-0.dtd"
   xmlns="http://www.w3.org/2000/svg"
   xmlns:svg="http://www.w3.org/2000/svg">
  <sodipodi:namedview
     id="namedview5215"
     pagecolor="#ffffff"
     bordercolor="#666666"
     borderopacity="1.0"
     inkscape:pageshadow="2"
     inkscape:pageopacity="0.0"
     inkscape:pagecheckerboard="0"
     inkscape:document-units="mm"
     showgrid="false"
     inkscape:zoom="0.47433592"
     inkscape:cx="-784.25433"
     inkscape:cy="384.74843"
     inkscape:window-width="1920"
     inkscape:window-height="1057"
     inkscape:window-x="1912"
     inkscape:window-y="-8"
     inkscape:window-maximized="1"
     inkscape:current-layer="layer1" />
  <defs
     id="defs5210" />
  <g
     inkscape:label="Layer 1"
     inkscape:groupmode="layer"
     id="layer1"
     transform="translate(-275.68719,28.578254)">
    <path
       d="m 282.63727,8.7165906 c -1.54959,-0.4425686 -3.31862,-1.6462375 -3.95674,-2.6921883 -0.4435,-0.7269427 -0.48432,-1.531329 -0.48525,-9.5588401 0,-9.1204252 -0.1,-10.0404082 -1.17631,-10.9336682 -0.57912,-0.480642 -0.51244,-1.221581 0.1669,-1.854464 0.43204,-0.402537 0.93581,-0.539486 1.98438,-0.539486 0.83587,0 1.4053,-0.116602 1.4053,-0.287734 0,-0.158247 -0.40547,-1.021451 -0.90106,-1.918229 -2.44414,-4.422643 -4.12163,-7.974383 -3.97883,-8.424307 0.20201,-0.636455 0.84288,-0.957236 2.11733,-1.059789 1.01669,-0.08181 1.06021,-0.04953 1.73947,1.290056 0.38317,0.755703 0.97849,1.817581 1.32292,2.359792 0.34441,0.542184 1.461,2.543281 2.48132,4.446879 l 1.8551,3.461041 1.46036,0.0294 c 1.60727,0.03233 2.69523,0.48641 3.67295,1.532969 0.35279,0.377613 0.78073,0.686594 0.95096,0.686594 0.17024,0 0.81032,-0.506016 1.42235,-1.124479 l 1.11281,-1.124479 5.1172,-0.08602 c 5.08363,-0.08543 5.12001,-0.08202 5.543,0.52189 0.58843,0.840132 0.53509,1.447774 -0.24376,2.776802 l -0.66953,1.142471 0.0627,9.2506005 c 0.0601,8.8562126 0.0407,9.2752597 -0.45492,9.8291384 -0.92657,1.0355263 -2.33577,1.7480492 -4.08953,2.0677188 -2.69156,0.4905904 -14.92846,0.6454775 -16.45912,0.2083319 z m 18.27527,-4.6078775 c 0.85918,-0.6389687 1.0912,-1.6561858 0.3778,-1.6561858 -0.26879,0 -0.7303,0.1692275 -1.02561,0.3760523 -0.2953,0.2068513 -0.94686,0.4817798 -1.44793,0.6109494 -0.66445,0.1713177 -0.93525,0.4018227 -1.00044,0.8516143 -0.0851,0.5871634 -0.0298,0.6099705 1.15469,0.4764617 0.68427,-0.077126 1.55795,-0.3736181 1.94149,-0.6588919 z m -0.75975,-2.4087666 c 0.97084,-0.3044031 1.48413,-0.6157912 1.54617,-0.93797436 0.17031,-0.88439623 -0.34298,-1.00742748 -1.83584,-0.44002853 -0.78552,0.29855583 -1.62951,0.54287207 -1.8756,0.54295145 -0.5493,1.5875e-4 -0.83995,0.42476204 -0.64267,0.93884744 0.18965,0.4942417 0.9956,0.4644496 2.80794,-0.103796 z m 0.0681,-2.7483593 c 0.83404,-0.353695 1.25677,-0.6925998 1.25677,-1.0075069 0,-0.6933142 -0.52327,-0.7591954 -1.71979,-0.2165085 -0.58209,0.2640012 -1.24021,0.4826264 -1.46249,0.4858014 -0.22227,0.00318 -0.67445,0.1951302 -1.00481,0.4265348 -0.4858,0.3402806 -0.53959,0.49426812 -0.28127,0.80552395 0.37557,0.45254333 1.32384,0.30673146 3.21159,-0.49384475 z m -3.52327,-2.3165594 c 2.99865,-0.5713677 4.49677,-1.3245835 5.13545,-2.5818835 0.30041,-0.5913702 0.32301,-1.3417285 0.11999,-3.9808149 -0.23558,-3.0621284 -0.21815,-3.3063924 0.29866,-4.1822954 0.30187,-0.511651 0.54885,-0.98298 0.54885,-1.047432 0,-0.06443 -1.82702,-0.117158 -4.06003,-0.117158 -3.73811,0 -4.09842,0.04241 -4.54395,0.534723 -0.54377,0.600869 -2.74733,2.111111 -3.08025,2.111111 -0.11901,0 -0.87085,-0.592667 -1.67074,-1.317043 -1.29231,-1.170332 -1.55051,-1.298708 -2.31791,-1.152605 -0.47495,0.09041 -0.89186,0.185526 -0.92644,0.211323 -0.0346,0.02567 0.52591,1.154377 1.24553,2.507959 0.71961,1.353555 1.40372,2.7470363 1.52024,3.0966038 0.20653,0.6196013 0.29832,0.6383073 3.64927,0.7441142 4.05018,0.1278996 5.81294,0.46355 6.87281,1.3086556 l 0.77489,0.6178814 -0.80656,0.8065559 c -0.44363,0.4436004 -1.27188,0.919771 -1.84057,1.0581745 -1.80327,0.438785 -5.77863,0.8032486 -6.21797,0.5700448 -0.64392,-0.3418152 -2.43362,-2.8535312 -3.19604,-4.4854547 -0.63005,-1.3486345 -1.95678,-3.7896795 -6.97307,-12.8297515 -2.70571,-4.876112 -2.86512,-5.136356 -3.23389,-5.279231 -0.58664,-0.227277 -0.35505,0.558747 0.7276,2.469303 0.58208,1.027218 1.05833,1.940639 1.05833,2.029857 0,0.08922 0.69734,1.372791 1.54967,2.852393 1.55575,2.700788 4.27117,7.913688 4.27117,8.19957 0,0.429895 3.54317,7.4264838 3.98423,7.8675442 0.69373,0.6937375 3.43082,0.6890544 7.11073,-0.012171 z m -13.80221,-1.3262504 c -0.19304,-0.3091127 -0.617,-0.5291666 -1.01957,-0.5291666 -0.37899,0 -0.87857,-0.2093648 -1.11016,-0.4652698 -0.386,-0.4265613 -0.38082,-0.5186363 0.0625,-1.1063023 0.52136,-0.691171 2.26367,-1.3283406 3.65003,-1.3348229 0.47294,-0.00265 0.85989,-0.1289844 0.85989,-0.2817548 0,-0.3810794 -0.60473,-1.5588985 -2.20072,-4.286329 -1.15792,-1.978766 -1.45566,-2.315104 -2.04954,-2.315104 -1.33316,0 -1.61108,0.691859 -1.55737,3.876754 0.0267,1.5785569 -0.0377,3.378385 -0.14295,3.9995738 -0.13555,0.8000206 -0.0867,1.2560035 0.16764,1.5632906 0.46022,0.5561542 2.29822,1.3949627 3.07321,1.4024768 0.53166,0.00503 0.56111,-0.052546 0.26707,-0.5233458 z"
       style="fill:#000000;stroke-width:0.264583"
       id="path2698-9"
       sodipodi:nodetypes="sscsssssssssscsssscssscssssssssssssssssssssssssssssssssssssssscssssssssssssssssscsssssscs" />
  </g>
</svg>
