<svg width="179" height="139" xmlns="http://www.w3.org/2000/svg" viewBox="0 0 47.517 37.034"><title>shallie category sand</title><g fill="#212121" class="nc-icon-wrapper"><g id="layer1" transform="translate(85.171 -161.06)"><path d="M-58.34 197.918c-.29-.07-1.482-.561-2.646-1.094l-2.116-.968h-6.625c-7.291 0-7.371-.016-8.632-1.72-.611-.828-2.868-1.852-4.081-1.852-.872 0-2.14-.668-2.483-1.308-.59-1.102-.13-2.023 1.383-2.776.609-.303.932-.767 3.901-5.596 4.483-7.29 8.08-12.51 10.832-15.72.812-.946 2.062-2.42 2.78-3.275 2.15-2.564 3.602-3.09 5.647-2.043 1.039.532 4.016 3.496 5.077 5.054.346.51 1.115 1.475 1.707 2.147.592.672 1.732 2.146 2.532 3.276s2.199 3.021 3.107 4.203a271.03 271.03 0 0 1 2.907 3.857c.691.94 2.49 2.965 3.998 4.498 3.743 3.807 4.109 4.66 2.474 5.774-.796.542-4.908 2.174-5.48 2.174-.529 0-4.895 1.44-5.823 1.921-.432.224-1.342.897-2.02 1.495-2.071 1.824-4.228 2.479-6.439 1.953zm5.415-2.821c1.2-1.157 2.439-1.754 3.635-1.754.35 0 1.136-.226 1.746-.501l2.86-1.29c.963-.434 1.834-.925 1.937-1.09.102-.167.595-.473 1.094-.682.61-.254.908-.555.908-.913 0-.367.125-.487.397-.382.234.09.393.005.387-.207-.014-.537-1.787-1.78-2.814-1.973-.622-.117-1.018-.398-1.284-.913-.256-.494-.632-.773-1.115-.829-.624-.072-.718-.19-.646-.806.06-.522-.189-1.048-.906-1.905-.544-.651-1.106-1.112-1.248-1.024-.377.233-.94-.654-.786-1.239.183-.703-1.127-2.367-1.737-2.208-.693.181-1.278-.62-.898-1.228.244-.39.152-.677-.506-1.572-.638-.867-.95-1.079-1.505-1.022-.643.066-.7-.007-.7-.9 0-.675-.209-1.199-.685-1.72-.376-.41-1.019-1.343-1.428-2.07-.409-.728-.78-1.367-.824-1.42-.045-.055-.28.1-.521.342-.508.507-.885.446-1.286-.211-.225-.369-.163-.563.299-.943l.582-.478-.582-.524c-.32-.288-.782-.594-1.025-.68-.243-.085-.482-.405-.53-.71-.172-1.108-.539-.634-.65.84-.098 1.31-.042 1.546.424 1.795.694.372.683.992-.028 1.568l-.565.457.697.698c.845.844.895 1.512.13 1.713-.555.145-.565.227-.402 3.48.092 1.834.248 4.334.346 5.558.124 1.535.093 2.171-.1 2.052-.302-.187-.328-.343-.99-5.864a252.372 252.372 0 0 0-.976-7.144 426.903 426.903 0 0 1-.67-4.432c-.076-.555-.284-.992-.472-.992-.74 0-6.68 7.056-9.8 11.642a3319.837 3319.837 0 0 1-3.504 5.138 111.984 111.984 0 0 0-1.518 2.26c-.145.234-.697 1.077-1.226 1.872-.529.795-1.157 1.921-1.396 2.504-.239.582-.808 1.368-1.264 1.748-.856.71-.905 1.559-.091 1.559.948 0 3.855 1.656 4.634 2.64.457.577 1.136 1.096 1.553 1.188 1.136.25 14.96.271 15.36.024.266-.164.31-.675.183-2.1-.15-1.683-.127-1.832.218-1.392.213.27.516 1.095.674 1.832.3 1.4 1.122 2.97 1.672 3.192.177.072 1.09.14 2.032.151 1.671.02 1.738-.006 2.91-1.135zm-3.254.186c-.349-.349-.166-1.133.325-1.396.643-.344 1.203.258.958 1.03-.165.52-.915.734-1.283.366zm2.117-3.175c-.32-.32-.185-.822.267-.996.52-.2 1.288.46 1.027.882-.197.32-1.017.392-1.294.114zm-3.79-.488c-.471-.351-.469-.383.069-.928.51-.518.591-.53.98-.14.796.796-.137 1.746-1.048 1.068zm4.772-2.101c-.22-.572.113-.939.85-.939.748 0 1.161.732.61 1.081-.565.358-1.296.286-1.46-.142zm3.497.19c-.38-.38-.133-1.129.371-1.129.343 0 .53.177.53.501 0 .503-.605.924-.9.627zm2.223-.467c0-.687.638-.933.86-.331.181.495-.061.992-.485.992-.223 0-.375-.267-.375-.661zm3.972.003c-.264-.319-.248-.425.087-.553.518-.199.968.064.968.565 0 .497-.638.49-1.055-.012zm-12.872-1.062c-.084-.218-.437-.397-.785-.397-.457 0-.633-.147-.633-.529 0-.561.885-.758 1.19-.264.09.145.454.264.81.264.512 0 .645.137.645.662 0 .488-.14.661-.537.661-.296 0-.606-.179-.69-.397zm11.61-.175c-.181-.18-.328-.601-.328-.936 0-.464.149-.609.629-.609.75 0 1.302.584 1.176 1.244-.11.572-1.02.758-1.478.301zm-14.249-1.936c-.398-.296-.44-.468-.206-.85.427-.695 1.538-.628 1.641.099.114.798-.758 1.254-1.435.75zm6.086.013c-.264-.687.106-1.254.756-1.162.437.062.596.262.596.746 0 .485-.159.685-.596.747-.358.05-.66-.082-.756-.331zm4.685-.586c-.834-.584-.674-1.785.253-1.893.78-.09 1.718.775 1.488 1.375-.277.722-1.1.967-1.74.518zm-6.259-1.534c-.41-.305-.455-.477-.22-.86.387-.63 1.522-.632 1.643-.003.09.465-.366 1.244-.727 1.244-.1 0-.413-.171-.696-.381zm-3.28-.532c-.534-.642-.08-1.512.737-1.417.857.1 1.104.953.42 1.453-.604.442-.765.437-1.158-.036zm5.913-1.316c-.283-.737.016-1.605.581-1.686.749-.107 1.266.576 1.06 1.399-.123.489-.343.664-.832.664-.365 0-.73-.17-.81-.377zm-3.279-2.136c0-.573.107-.683.596-.614.39.056.595.267.595.614s-.204.558-.595.614c-.489.07-.596-.041-.596-.614zm-4.172-.442c-.448-.448-.408-1.409.075-1.81.295-.245.324-.423.112-.679-.672-.809.223-2.246 1.171-1.882.588.226.55 1.428-.056 1.807-.451.281-.458.369-.093 1.1.59 1.183-.351 2.322-1.21 1.464zm2.904-1.873c-.392-.473.037-1.115.6-.9.475.183.462.991-.02 1.151-.16.054-.42-.06-.58-.251zm1.586-1.045c-.175-.175-.318-.659-.318-1.075 0-.695.071-.751.858-.675 1.017.098 1.275.79.58 1.558-.539.595-.69.62-1.12.192zm-2.476-2.782c-.786-.914-.783-1.104.023-1.521.747-.387.809-.379 1.083.134.67 1.25-.242 2.392-1.106 1.387zm-2.869-.613c0-.605.696-.99 1.085-.6.38.38-.009 1.137-.584 1.137-.327 0-.5-.186-.5-.537zm2.157-2.084c-.48-.297-.279-1.187.295-1.298a.582.582 0 0 1 .628.348c.217.565-.445 1.246-.923.95z" id="path4835" fill="#212121" stroke-width=".265"></path></g></g></svg>