<svg width="168" height="140" xmlns="http://www.w3.org/2000/svg" viewBox="0 0 44.615 37.143"><title>shallie category thread</title><g fill="#212121" class="nc-icon-wrapper"><g id="layer1" transform="translate(40.858 -111.793)"><path d="M-17 148.58c-1.492-.906-1.692-1.818-.715-3.258l.654-.963-.786-.895c-.432-.492-.786-1.147-.786-1.455 0-.308-.156-.56-.347-.56-.474 0-1.505-1.443-1.505-2.107 0-.395-.172-.54-.644-.54-.417 0-.704-.19-.816-.543-.095-.3-.747-1.138-1.45-1.863l-1.278-1.32-.42.607c-2.872 4.143-9.398 7.063-12.664 5.666-1.585-.678-3.1-2.98-3.1-4.707 0-.911 1.01-2.516 2.303-3.654 1.162-1.024 1.364-1.107 2.409-.99 1.555.175 2.431 1.025 2.431 2.36 0 .851-.112 1.06-.684 1.278-.376.143-.792.193-.926.11-.378-.233-.285-.84.155-1.008.905-.347-.096-1.756-1.249-1.756-.67 0-2.601 1.823-3.038 2.867-.91 2.174 1.28 4.806 3.998 4.806 1.207 0 4.51-1.2 5.845-2.125 1.43-.99 3.358-2.89 3.806-3.751.342-.658.304-.788-.573-1.983-.516-.703-1.187-1.504-1.49-1.778-.304-.275-.552-.646-.552-.825 0-.478-1.254-1.241-1.469-.894-.095.154-.429.377-.741.494-.852.322-1.901-.344-2.706-1.718-.69-1.178-.694-1.21-.209-1.759.272-.307 1.209-1.086 2.082-1.73 2.378-1.754 5.387-4.395 5.407-4.745.01-.17-.076-.349-.19-.397-.308-.131-2.583-3.187-2.789-3.745-.263-.716.248-1.453 1.318-1.9.522-.218 1.006-.396 1.077-.396.07 0 .99.835 2.044 1.857 1.892 1.835 1.924 1.853 2.655 1.474.7-.364 2.437-1.707 5.074-3.927 1.586-1.335 2.629-1.35 3.765-.057.944 1.075 1.059 2.087.292 2.566-.754.47-.664.913.463 2.272.546.658 1.078 1.325 1.183 1.482.12.18.363.041.655-.376 1.42-2.023 3.96-3.68 5.955-3.882 1.185-.12 1.518-.05 2.156.455.885.701 1.759 2.585 1.759 3.794 0 .791.065.853.923.877 1.215.035 2.508.815 3.138 1.894 1.059 1.813-.5 4.156-2.959 4.447-1.32.156-1.4.128-2.292-.82l-.926-.98-.265.696c-.618 1.627-.2 3.685 1.043 5.144l.995 1.167.808-.575c.444-.316.913-.575 1.042-.575.13 0 .736.51 1.348 1.134 1.165 1.187 1.425 2.13.667 2.42-.618.238-7.191 5.522-7.21 5.798-.01.123.639 1.197 1.439 2.388.8 1.19 1.455 2.361 1.455 2.601 0 .48-1.057 1.414-1.905 1.683-.42.134-.925-.205-2.294-1.54-.964-.941-1.972-1.787-2.238-1.88-.493-.171-3.326 1.923-5.547 4.1-.553.542-1.403 1.22-1.89 1.508-.866.51-.905.511-1.691.033zm4.745-4.136c1.397-1.138 5.088-4.135 8.202-6.659 3.113-2.524 5.702-4.7 5.752-4.837.146-.4-.508-1.025-1.071-1.025-.498 0-1.891 1.072-10.662 8.202a888.613 888.613 0 0 1-5.49 4.434c-.837.664-1.521 1.34-1.521 1.503 0 .163.187.563.415.889.493.703.298.815 4.375-2.507zm9.172.168c.042-.22-.483-1.263-1.168-2.317l-1.246-1.915-.738.708-.739.707 1.513 1.664c1.469 1.615 2.219 1.98 2.378 1.153zm-8.557-14.274c2.481-1.943 4.538-3.836 3.59-3.304-.56.314-4.424 3.35-5.688 4.47-1.9 1.685-.664.997 2.098-1.166zm8.618 1.072c0-.137-.12-.323-.265-.413-.145-.09-.265.022-.265.25 0 .226.12.412.265.412.146 0 .265-.112.265-.25zm-11.802-.7c.098-.257.04-.378-.154-.314-.396.132-.613.734-.266.734.143 0 .331-.189.42-.42zm.654-2.55c1.838-1.49 3.639-2.978 4.001-3.308.362-.33.75-.601.86-.601.11 0 .201-.12.201-.268 0-.147-.523.121-1.163.596-1.787 1.325-7.568 6.037-7.568 6.17 0 .32.588-.095 3.67-2.59zm10.354 2.19c0-.425-1.267-1.745-1.475-1.537-.109.108 0 .415.242.682.241.267.44.625.44.796 0 .17.178.31.396.31.218 0 .397-.113.397-.25zm-14.577-2.057c.523-.396 2.44-1.967 4.258-3.49a513.07 513.07 0 0 1 3.4-2.834c.051-.036.013-.194-.085-.352-.11-.177-.916.297-2.109 1.24-2.64 2.085-6.287 5.185-6.728 5.718-.593.715.172.545 1.264-.282zm-11.143-.955c1.108-1.02 12.267-10.174 14.89-12.216 1.09-.847 1.227-1.163.723-1.667-.63-.63-1.554-.328-2.94.957-.755.7-2.802 2.424-4.548 3.83a607.56 607.56 0 0 0-3.836 3.108c-.815.678-2.48 1.96-4.832 3.724-2.139 1.602-2.439 2.053-1.888 2.84.576.821 1.03.714 2.431-.576zm21.052-1.595c.416-.348.654-.695.53-.772-.126-.077-.704.338-1.286.922-1.08 1.084-.61.99.756-.15zm1.493.593c0-.146-.12-.191-.265-.101-.145.09-.264.282-.264.428 0 .145.119.191.264.101.146-.09.265-.283.265-.428zm-9.855-2.88c2.142-1.82 3.97-3.174 4.283-3.174.58 0 .73-.383.263-.672-.357-.221-8.898 6.286-8.957 6.823-.069.63 1.076-.143 4.411-2.976zm12.375 2.085c.2-.904 1.148-3.03 1.994-4.466 1.117-1.895.076-5.027-1.67-5.027-.454 0-1.346.253-1.983.561-1.284.622-3.772 2.997-3.772 3.602 0 .464 4.818 6.402 5.073 6.254.098-.057.26-.473.358-.924zm-16.014-2.64c.655-.601 1.012-.997.794-.88-.63.337-3.915 2.986-4.125 3.326-.283.458 1.965-1.193 3.331-2.446zm22.334 1.33c.788-.938.833-1.239.299-2.002-.58-.827-1.88-1.291-2.643-.944-.85.388-1.172 2.174-.562 3.106.642.979 2.01.903 2.906-.16zm-19.688-3.552c.342-.364.562-.662.49-.662-.074 0-.413.298-.755.662-.341.363-.561.661-.489.661.073 0 .412-.298.754-.661zm-6.139-2.317c.238-.286-.055-.714-1.396-2.044-1.461-1.448-1.755-1.633-2.114-1.335-.474.394-.364.628 1.395 2.97.958 1.276 1.335 1.349 2.115.409zm10.372-.032c0-.2-.168-.504-.373-.675-.503-.417-.847.129-.41.654.402.486.783.496.783.02z" id="path4602" fill="#212121" stroke-width=".265"></path></g></g></svg>