<svg width="135" height="141" xmlns="http://www.w3.org/2000/svg" viewBox="0 0 35.911 37.374"><title>shallie category antique</title><g fill="#212121" class="nc-icon-wrapper"><g id="layer1" transform="translate(84.66 -50.294)"><path d="M-67.348 87.424l-3.966-.143-.135-.67c-.073-.367-.8-1.618-1.613-2.777-.813-1.16-1.553-2.318-1.645-2.572-.201-.56-.668-.58-1.358-.058-.66.498-1.558.494-2.539-.013-.804-.416-1.382-1.736-.84-1.917.694-.232 1.643-1.2 1.643-1.677 0-.995-1.847-4.4-3.233-5.959-.768-.864-1.873-2.267-2.455-3.116-.972-1.42-1.065-1.71-1.15-3.592-.115-2.53.2-3.22 2.163-4.734 1.51-1.165 2.651-1.622 4.047-1.622.814 0 3.864 1.025 4.815 1.62.397.247.6.183 1.142-.358.362-.363.773-1.056.912-1.541l.253-.882 4.36-.039c2.398-.021 4.512.016 4.699.083.202.072.272.329.174.638-.096.304.008.707.254.978.384.425.345.597-.477 2.137l-.895 1.675.896 1.747c.494.96.898 2.11.898 2.554.003.914-1.705 3.442-3.222 4.773-.843.74-1.153.834-3.241.981-2.118.15-2.394.235-3.324 1.034-.558.48-1.025.96-1.037 1.07-.052.459.725.143 1.411-.573.75-.783 2.799-1.345 4.903-1.345.778 0 .85.062.691.595-.164.548-.577 3.05-1.209 7.311-.274 1.85-.158 2.346.433 1.855.28-.231.338-.621.216-1.433-.112-.746-.04-1.367.218-1.877.211-.42.458-1.537.549-2.483.307-3.217 1.03-4.869 3.606-8.244.63-.824.701-2.285.148-3.016-.213-.282-.392-.674-.397-.87-.004-.195-.246-.69-.536-1.097l-.528-.741.828-1.769c.693-1.481.914-1.746 1.364-1.628.306.08 1.001-.127 1.618-.481.595-.342 1.938-.77 2.984-.952 1.856-.322 1.936-.313 3.38.393 3.606 1.764 4.365 3.331 3.426 7.073-.527 2.102-1.424 3.72-3.795 6.848-2.303 3.038-2.363 3.504-.665 5.201 1.417 1.418 1.448 2.036.145 2.912-.93.626-2.767.83-3.069.342-.09-.145-.38-.38-.644-.521-.41-.22-.63-.014-1.483 1.387-2 3.287-4.354 6.132-4.708 5.691-.025-.03-1.83-.12-4.012-.198zm-10.468-19.117c.02-1.66.906-3.95 1.905-4.927.767-.75.782-.805.3-1.064-.281-.15-1.097-.343-1.813-.43-1.065-.129-1.495-.046-2.356.454-1.277.74-1.716 1.537-1.72 3.123-.005 1.392.549 2.594 2.156 4.677l1.145 1.484.184-1.035c.101-.57.19-1.596.2-2.282zm23.982 1.048c.237-.473.865-1.5 1.395-2.28 1.73-2.55 1.184-4.531-1.497-5.445-1.313-.447-2.636-.526-3.169-.188-.262.166-.212.376.219.924.307.39.965 1.49 1.463 2.446.777 1.49.906 1.998.906 3.57 0 1.008.056 1.833.125 1.833.07 0 .32-.387.558-.86zM-72.346 55.26c-.8-1.69-.842-1.977-.292-1.977.39 0 2.246 2.612 2.246 3.162 0 .153-.284.277-.63.277-.505 0-.77-.291-1.324-1.462zm3.806 1.287c0-.2 1.599-2.735 1.725-2.735.13 0 1.979 2.567 1.979 2.747 0 .09-.833.163-1.852.163-1.019 0-1.852-.078-1.852-.175zm5.027-.057c0-.127.189-.388.42-.58.23-.191.771-.86 1.202-1.487.565-.82.966-1.14 1.433-1.14.357 0 .649.06.649.135 0 .075-.487.848-1.082 1.72-.905 1.326-1.207 1.584-1.852 1.584-.423 0-.77-.104-.77-.232zm-10.56-4.372c-.35-.372-.56-.881-.508-1.23l.088-.593 7.762.056c4.27.03 7.93.12 8.136.2.566.217.467 1.605-.138 1.929-.317.17-3.228.274-7.627.274h-7.115z" id="path4402" fill="#212121" stroke-width=".265"></path></g></g></svg>