<?xml version="1.0" encoding="UTF-8" standalone="no"?>
<!-- Created with Inkscape (http://www.inkscape.org/) -->

<svg
   width="37.489601mm"
   height="25.971878mm"
   viewBox="0 0 37.4896 25.971878"
   version="1.1"
   id="svg5213"
   sodipodi:docname="shallie-category-medic-ing.svg"
   inkscape:version="1.1 (c68e22c387, 2021-05-23)"
   xmlns:inkscape="http://www.inkscape.org/namespaces/inkscape"
   xmlns:sodipodi="http://sodipodi.sourceforge.net/DTD/sodipodi-0.dtd"
   xmlns="http://www.w3.org/2000/svg"
   xmlns:svg="http://www.w3.org/2000/svg">
  <sodipodi:namedview
     id="namedview5215"
     pagecolor="#ffffff"
     bordercolor="#666666"
     borderopacity="1.0"
     inkscape:pageshadow="2"
     inkscape:pageopacity="0.0"
     inkscape:pagecheckerboard="0"
     inkscape:document-units="mm"
     showgrid="false"
     inkscape:zoom="0.47433592"
     inkscape:cx="202.38822"
     inkscape:cy="232.95727"
     inkscape:window-width="1920"
     inkscape:window-height="1057"
     inkscape:window-x="1912"
     inkscape:window-y="-8"
     inkscape:window-maximized="1"
     inkscape:current-layer="layer1" />
  <defs
     id="defs5210" />
  <g
     inkscape:label="Layer 1"
     inkscape:groupmode="layer"
     id="layer1"
     transform="translate(-9.2715334,-7.3114679)">
    <path
       d="m 20.673894,32.94647 c -0.234473,-0.611028 0.0748,-5.014277 0.393489,-5.602525 0.237596,-0.438573 1.691799,-1.620282 5.182923,-4.211638 l 1.305242,-0.968877 2.227421,0.270113 c 2.547197,0.308874 3.00744,0.624575 3.036941,2.083303 0.03387,1.674018 -0.25363,6.985105 -0.385234,7.116709 -0.222355,0.222382 -2.940499,0.659739 -6.559735,1.055529 -1.966648,0.21508 -3.903265,0.460454 -4.303553,0.54528 -0.533109,0.112977 -0.773219,0.03596 -0.897494,-0.287894 z M 16.081495,32.012571 C 15.281131,31.745342 14.075186,31.51944 13.40161,31.51055 12.085424,31.49309 12.172578,31.59122 11.329166,29.17928 11.104614,28.537189 9.6350917,23.04563 9.2833546,21.534171 c -0.09189,-0.394864 0.3483239,-1.280186 1.4472174,-2.910416 1.743367,-2.586355 2.523162,-3.412623 2.96372,-3.14034 0.984435,0.608409 1.853009,2.939785 2.264093,6.077003 0.09446,0.720937 0.577532,2.431785 1.073467,3.801877 0.771208,2.130505 0.901726,2.831121 0.901726,4.840737 0,1.292331 -0.0893,2.337462 -0.198437,2.322539 -0.109141,-0.01482 -0.853281,-0.245771 -1.653646,-0.513 z m 20.354502,-0.67265 c -0.251275,-0.30279 -0.271092,-0.540624 -0.07144,-0.857145 0.360336,-0.571235 2.993417,-2.139817 3.614261,-2.153099 0.652701,-0.01402 3.090175,2.075232 3.090175,2.648664 0,0.666327 -0.521467,0.780627 -3.561107,0.780627 -2.16273,0 -2.795772,-0.08636 -3.071891,-0.419047 z m 7.935965,-1.181392 c -0.498343,-0.450982 -1.538023,-1.436237 -2.310368,-2.189453 l -1.40425,-1.369483 0.09292,-1.638671 c 0.103187,-1.819248 0.662543,-2.726954 1.680448,-2.726954 0.719746,0 4.348242,3.096974 4.330356,3.696017 -0.03156,1.056058 -0.960517,4.874366 -1.205786,4.956122 -0.152479,0.05083 -0.684953,-0.276569 -1.183322,-0.727578 z M 34.060806,29.354646 c -0.302287,-0.564859 -0.172853,-2.393394 0.300804,-4.248785 0.203227,-0.796025 0.439553,-1.041903 1.352709,-1.407266 0.608542,-0.243496 1.418246,-0.664739 1.799299,-0.936096 0.381079,-0.27133 0.996924,-0.569648 1.368531,-0.66294 0.666406,-0.167243 0.674793,-0.150283 0.612404,1.239203 -0.03482,0.774806 -0.12782,1.587341 -0.206692,1.805622 -0.07887,0.218282 -0.210714,0.706597 -0.292973,1.085162 -0.09104,0.418968 -0.591423,0.985362 -1.278864,1.447589 -0.621136,0.417618 -1.520428,1.090162 -1.998424,1.494525 -1.041135,0.880772 -1.269815,0.906013 -1.656794,0.182986 z M 18.644302,25.739697 c -0.559832,-1.297914 -1.191524,-3.663447 -1.289447,-4.828646 -0.08861,-1.054259 -0.15486,-1.042247 2.430807,-0.439923 0.945885,0.220345 2.315104,0.519827 3.042708,0.66556 0.727604,0.145732 1.669494,0.397033 2.093092,0.558456 l 0.77015,0.293502 -0.862833,0.890244 c -0.474557,0.489611 -1.81692,1.403746 -2.983018,2.031365 -1.166072,0.627618 -2.178924,1.294235 -2.250731,1.481375 -0.221298,0.576686 -0.504561,0.382455 -0.950728,-0.651933 z m 14.555126,-3.905832 -0.741442,-0.929243 2.305315,-2.642394 c 2.436627,-2.792915 4.227592,-4.120092 5.160301,-3.824076 0.700193,0.222224 2.142305,3.376269 2.03372,4.447831 -0.06988,0.689398 -0.246328,0.833411 -1.53416,1.252247 -0.800365,0.26027 -1.713971,0.481118 -2.030228,0.490749 -0.316256,0.0095 -0.930672,0.316785 -1.365408,0.682572 -0.728742,0.613198 -2.392019,1.451583 -2.879725,1.451583 -0.113798,0 -0.540571,-0.418174 -0.948373,-0.929269 z m -4.550225,-1.590464 c -0.727604,-0.202035 -1.631685,-0.372586 -2.009113,-0.379015 -0.377375,-0.0064 -1.378294,-0.249793 -2.22422,-0.540835 -0.845926,-0.291042 -1.864042,-0.529167 -2.262505,-0.529167 -0.398462,0 -1.502516,-0.240321 -2.453455,-0.534035 l -1.728999,-0.534035 -1.191736,-2.384133 -1.191763,-2.384134 1.05365,-0.665136 c 0.579517,-0.36584 1.375305,-0.785443 1.768396,-0.932471 0.393118,-0.147029 2.42144,-1.118183 4.507389,-2.1581538 2.314363,-1.1538214 4.120753,-1.8908183 4.634441,-1.8908183 0.530516,0 2.60141,0.8791046 5.600065,2.3772548 6.065864,3.0305113 5.977546,2.7448403 1.993662,6.4472603 -2.003769,1.862217 -2.923937,2.899596 -2.923937,3.296418 0,1.248648 -1.097968,1.497938 -3.571875,0.811 z"
       style="fill:#000000;stroke-width:0.264583"
       id="path4148" />
  </g>
</svg>
