<svg width="180" height="135" xmlns="http://www.w3.org/2000/svg" viewBox="0 0 47.625 35.921"><title>shallie category ingot</title><g fill="#212121" class="nc-icon-wrapper"><g id="layer1" transform="translate(-159.25 -166.378)"><path d="M174.963 201.589c-.566-.388-1.981-1.087-3.146-1.553a156.508 156.508 0 0 1-5.027-2.16c-3.718-1.676-5.715-2.46-6.274-2.46-.575 0-1.266-.997-1.266-1.828 0-.358.23-.897.513-1.198.6-.637 2.03-4.548 2.401-6.561.418-2.263.954-3.163 2.409-4.039.724-.436 4.616-3.006 8.647-5.711 4.03-2.705 8.4-5.553 9.71-6.33 1.31-.777 2.656-1.623 2.991-1.88.336-.256 1.149-.726 1.807-1.045 1.157-.56 1.25-.566 2.83-.164.898.228 2.096.49 2.663.582.98.159 5.43 1.985 7.7 3.16.884.458 1.159.81 1.666 2.132 1.632 4.26 2.322 5.304 3.825 5.784.323.104.463.425.463 1.065 0 1.674-.377 2.158-2.696 3.46-1.21.68-2.794 1.68-3.522 2.223l-5.953 4.437c-9.211 6.86-11.724 8.83-13.827 10.83-.839.796-1.829 1.564-2.2 1.705a4.034 4.034 0 0 1-3.714-.449zm3.445-2.177c.415-.459.426-.756.133-3.374-.177-1.579-.334-3.764-.348-4.855l-.026-1.984 10.32-7.726c5.674-4.25 10.761-8 11.303-8.335.542-.334.988-.75.992-.923.015-.65-.518-.599-1.366.13-.482.414-3.257 2.522-6.167 4.685a7248.79 7248.79 0 0 0-10.338 7.697c-2.775 2.07-5.222 3.805-5.44 3.854-.216.048-1.874-.65-3.685-1.554-7.12-3.554-8.888-4.207-9.158-3.383-.048.146.3.4.773.566 2.351.823 6.637 2.782 8.449 3.862 1.118.667 2.279 1.29 2.58 1.385.527.168.547.352.547 5.14 0 2.73.08 5.044.176 5.14.313.313.789.19 1.255-.325zm2.538-25.692c.57-.29 1.345-.529 1.721-.529.4 0 .953-.29 1.327-.693.593-.639.754-.678 2.087-.512 1.379.172 1.478.144 2.167-.63.67-.752.85-.81 2.498-.81 2.265 0 2.866-.501 1.556-1.297-.473-.288-1.44-.663-2.15-.833-1.153-.277-1.432-.247-2.667.283-.76.325-2.088 1.129-2.954 1.786-.866.657-2.176 1.465-2.91 1.795-1.73.777-2.39 1.286-2.156 1.665.246.398.267.394 1.48-.225z" id="path4958" fill="#212121" stroke-width=".265"></path></g></g></svg>