<svg width="120" height="103" xmlns="http://www.w3.org/2000/svg" viewBox="0 0 31.94 27.487"><title>shallie race dragon</title><g class="nc-icon-wrapper"><g id="layer1" transform="translate(-193.27 -90.495)"><path d="M200.1 117.762c-.684-.373-3.125-.337-4.061.06-.466.198-.47.168-.067-.612.233-.45.424-1.037.424-1.304 0-.266.409-1.255.909-2.196 2.107-3.967 2.716-9.122 1.496-12.66-.988-2.865-2.256-4.306-4.327-4.918-.601-.177-1.14-.462-1.197-.633-.134-.403 1.785-1.243 4.326-1.892a96.423 96.423 0 0 0 4.505-1.313c2.894-.927 4.187-1.23 6.194-1.447.8-.086 2.002-.223 2.67-.303 1.832-.22 6.112.343 8.23 1.083 2.137.746 3.927 1.82 5.161 3.094l.848.874-2.435.023c-3.458.032-5.522 1.102-6.568 3.406-1.154 2.54-.157 5.203 2.732 7.296l.999.723-1.651-.128c-4.307-.333-8.388 3.244-8.396 7.359l-.003 1.48-1.521-.776c-1.35-.689-1.722-.763-3.299-.657-1.036.07-2.061.306-2.458.566-.61.4-.841.781-1.625 2.688-.204.496-.287.514-.886.187z" id="path3286-2" display="inline" fill="#000000" stroke-width=".265"></path></g></g></svg>