<svg width="113" height="126" xmlns="http://www.w3.org/2000/svg" viewBox="0 0 29.898 33.56"><title>shallie category a light armor</title><g fill="#212121" class="nc-icon-wrapper"><g id="layer1" transform="translate(-57.517 38.816)"><path d="M70.218-6.025c-2.053-1.07-6.86-4.987-9.58-7.808-3.238-3.355-3.12-2.819-3.12-14.249 0-8.84.029-9.415.505-10.004l.506-.625 13.907-.073c13.663-.071 13.917-.063 14.444.463.519.52.536.847.536 10.467 0 8.364-.065 10.085-.41 10.91-.51 1.221-5.808 6.5-8.786 8.753-2.473 1.871-4.587 2.95-5.753 2.935-.437-.006-1.449-.352-2.25-.769zm10.037-23.934c.175-.21.276-.939.23-1.654l-.08-1.277-7.674-.07c-6.979-.065-7.703-.03-8.003.38-.467.638-.411 1.941.107 2.514.404.446 1.003.483 7.773.483 6.019 0 7.39-.067 7.647-.376z" id="path3909" fill="#212121" stroke-width=".265"></path></g></g></svg>