<svg width="123" height="138" xmlns="http://www.w3.org/2000/svg" viewBox="0 0 32.687 36.57"><title>shallie category key item</title><g fill="#212121" class="nc-icon-wrapper"><g id="layer1" transform="translate(38.598 -5.717)"><path d="M-12.19 40.974c-.73-.818-1.899-2.312-2.599-3.32-4.095-5.896-5.683-7.888-6.29-7.888-.644 0-.936-.442-.936-1.418 0-.87-.75-1.806-1.308-1.629-.605.192-1.138-.454-1.033-1.254.052-.394-.282-1.131-.905-1.998-.919-1.279-1.063-1.373-2.094-1.373-.609 0-1.632-.254-2.273-.565l-1.166-.564-1.004.564c-1.125.632-2.021.7-3.578.27-1.32-.365-2.959-2.028-3.184-3.233-.196-1.043.39-2.634 1.336-3.62.623-.651.628-.693.227-1.853-.266-.767-.377-1.806-.315-2.94.086-1.552.203-1.877 1.016-2.821 1.147-1.332 2.242-1.735 4.3-1.586 1.539.111 1.652.17 2.73 1.412l1.123 1.295.957-.456c1.436-.684 3.007-.589 4.321.263 1.473.955 2.016 2.13 1.828 3.952-.17 1.643-.887 2.79-2.043 3.27-.593.246-.766.453-.634.762.1.234.24 1.08.313 1.88.106 1.162.306 1.649.99 2.412.472.526.969 1.153 1.104 1.394.134.241.507.489.828.55.95.183 1.167.43 1.027 1.166-.143.748.526 2.152 1.025 2.152.494 0 1.174.924 1.183 1.608.008.688 1.7 3.342 2.403 3.772.64.39 1.293.018 1.293-.736 0-.746 1.08-1.62 1.706-1.379.515.198 2.248 2.578 2.256 3.099.004.226-.401.806-.899 1.289-1.068 1.035-1.004 1.658.147 1.428.587-.117.937-.01 1.406.431.518.486.721.536 1.182.29.473-.254.657-.19 1.216.412.834.9.831 1.438-.01 2.228-.66.62-.678.622-1.481.148-.75-.443-.846-.447-1.243-.05-.396.396-.392.498.052 1.322.576 1.07.313 1.786-.882 2.404-.764.395-.772.392-2.093-1.09zm-.41-4.077c-.38-.575-.816-1.045-.968-1.045-.152 0-.188.149-.08.33 1.048 1.776 1.528 2.396 1.626 2.103.063-.188-.197-.813-.578-1.388zm-19.692-18.302c.461-.726.224-1.745-.559-2.404-.723-.608-.855-.633-1.747-.326-.53.182-1.07.498-1.198.7-.38.6-.276 1.613.221 2.163.383.423.69.486 1.766.358.717-.084 1.4-.305 1.517-.491zm2.956-3.235c.394-.299.429-.47.187-.921-.3-.561-.442-.542-1.58.217-.315.21-.32.325-.034.67.421.508.79.517 1.427.034zm4.693-1.742c.57-.305.693-1.54.238-2.39-.52-.97-2.902-.395-2.902.7 0 .5 1.312 1.963 1.761 1.963.215 0 .621-.123.903-.273zm-6.347-1.823c.445-.446.773-1.056.773-1.44 0-.954-1.015-1.941-2.166-2.106-.871-.125-1.048-.044-1.654.75-1.013 1.328-.815 2.397.586 3.157 1.065.578 1.6.5 2.46-.36z" id="path4131" fill="#212121" stroke-width=".265"></path></g></g></svg>