<svg width="126" height="126" xmlns="http://www.w3.org/2000/svg" viewBox="0 0 33.524 33.449"><title>shallie race slag</title><g class="nc-icon-wrapper"><g id="layer1" transform="translate(-92.018 -86.367)"><path d="M105.08 118.626c-.974-1.165-1.03-1.191-2.559-1.191h-1.562l-.174.929c-.096.51-.27.988-.386 1.06-.325.2-3.472-2.595-4.442-3.944-.473-.66-1.244-2.008-1.712-2.996-.816-1.724-.85-1.928-.85-5.103 0-1.949.132-3.668.323-4.185.294-.798.252-1.002-.459-2.262-1.663-2.947-1.655-6.682.023-10.09.887-1.8 3.37-4.799 3.686-4.448.106.118.757 1.457 1.445 2.974 1.225 2.7 1.243 2.778.84 3.623-.38.8-.375.908.07 1.458.471.582.464.624-.386 2.066-.476.809-.824 1.514-.772 1.566.052.052.433-.146.847-.442 1.49-1.06 3.996-1.705 6.759-1.738l2.587-.032.256-.951c.906-3.354 5.49-6.078 11.593-6.891 1.33-.177 2.47-.27 2.533-.207.063.063-.204 1.662-.593 3.553l-.707 3.438-1.147.363c-1.1.348-1.141.4-.99 1.212l.16.849-2.583.75c-1.42.413-2.628.786-2.682.828-.054.042.409.647 1.03 1.344 1.266 1.425 2.258 3.392 2.505 4.973.308 1.964.409 2.249.799 2.249.25 0 .45-.385.561-1.08.126-.786.335-1.14.771-1.306.988-.375.987-.707-.006-2.482l-.949-1.697 2.037-2.548c1.12-1.4 2.126-2.454 2.235-2.34.288.303 2.36 5.242 2.36 5.625 0 .18-.595 1.039-1.322 1.91-1.217 1.456-1.323 1.693-1.323 2.966v1.384l-1.438.453c-1.24.391-1.478.577-1.733 1.35-.252.764-.45.924-1.337 1.074-.942.159-1.072.28-1.368 1.277-.368 1.238-2.958 5.249-4.043 6.262l-.709.661-.627-.728c-.542-.63-.822-.727-2.081-.727-1.427 0-1.471.023-2.275 1.19-.45.655-.907 1.191-1.015 1.191-.107 0-.643-.536-1.19-1.19zm-8.302-7.373c.312-.936.012-2.532-.514-2.734-.577-.221-.876.385-.881 1.785-.006 1.824.898 2.44 1.395.949zm9.28.342c1.366-1.074.663-3.685-.992-3.685-1.11 0-1.87.86-1.87 2.117 0 .849.147 1.234.619 1.615.797.645 1.379.633 2.244-.047zm-5.816-5.505l1.272-1.292-.87-1.619c-.477-.89-.967-1.62-1.086-1.62-.363 0-3.12 1.91-3.12 2.161 0 .34 2.13 3.66 2.348 3.66.102 0 .757-.58 1.456-1.29z" id="path3286-9" display="inline" fill="#000000" stroke-width=".265"></path></g></g></svg>