<svg width="134" height="134" xmlns="http://www.w3.org/2000/svg" viewBox="0 0 35.644 35.653"><title>shallie category bomb</title><g fill="#212121" class="nc-icon-wrapper"><g id="layer1" transform="translate(-220.803 30.338)"><path d="M239.591 4.976a11.423 11.423 0 0 1-7.295-6.117c-.87-1.82-1.187-5.352-.698-7.765l.43-2.117c.1-.49-.083-.897-.702-1.57l-.837-.907-1.337.474c-1.322.47-1.34.469-1.787-.082-.324-.4-.412-.851-.312-1.597l.139-1.038-1.289-.167c-2.293-.297-2.436-.586-1.464-2.981l.562-1.386-1.185-1.335c-1.772-1.994-1.55-2.659 1.195-3.582 1.975-.665 2.117-.806 2.117-2.1 0-1.72.505-1.977 2.2-1.118.754.382 1.607.868 1.895 1.079.467.342.657.315 1.777-.252.69-.35 1.66-.636 2.157-.636.747 0 .957.133 1.222.77.175.424.28 1.226.231 1.783l-.087 1.013 1.315.188c2.2.315 2.382 1.413.5 3.009l-.642.545 1.083.87c1.06.852 1.073.882.603 1.406-.477.531-.472.533.71.304 1.922-.372 7.381-.217 8.632.245 4.463 1.65 8.225 7.806 7.668 12.548-.496 4.217-3.46 8.07-7.738 10.057-1.36.632-1.921.728-4.593.788-2.085.047-3.492-.057-4.47-.33zm14.27-14.292c.28-.336.267-.563-.067-1.264-.607-1.272-1.777-2.56-2.326-2.56-1.839 0-1.713 1.22.374 3.638.595.69 1.53.776 2.02.186zm-20.792-4.712c.318-.343.748-.69.956-.772.273-.107.031-.471-.859-1.295-.68-.63-1.313-1.414-1.406-1.741-.094-.327-.285-.595-.425-.595-.586 0-.515-.86.143-1.723.804-1.054 1.203-1.148 1.674-.394.182.291.522.53.755.53.234 0 .993.308 1.687.686 1.955 1.064 3.218.521 1.452-.623-1.093-.709-1.18-1.41-.26-2.133.862-.68.833-.841-.15-.841-1.515 0-1.835-.371-1.835-2.126 0-.896-.117-1.578-.27-1.578-.148 0-.741.297-1.318.661-1.344.849-1.639.833-3.085-.161-1.313-.904-1.597-.817-1.724.531-.096 1.006-.236 1.107-2.432 1.742l-1.554.449 1.09 1.11c1.234 1.258 1.333 1.856.578 3.517-.275.607-.431 1.173-.347 1.257.085.085.715.154 1.4.154 1.548 0 1.938.402 1.687 1.74-.2 1.073-.316 1.034 1.446.486.362-.112.697.106 1.222.794.398.522.785.949.86.949.076 0 .397-.28.715-.624zm3.614-2.627c-.216-.216-.295-.187-.295.111 0 .526.356.882.488.487.055-.167-.031-.436-.193-.598zm-1.882-1.123c0-.427-.704-.831-.975-.56-.189.188.41.965.743.965.127 0 .232-.182.232-.405zm-11.89 6.908c-.478-.577-.17-1.173.826-1.59 1.048-.441 1.539-.28 1.539.507 0 1.068-1.722 1.857-2.364 1.083zm-1.828-3.033c-.558-.354-.244-1.18.603-1.586.902-.432 1.56-.151 1.69.722.12.813-1.444 1.402-2.293.864zm19.019-13.38c-.256-.31-.2-.6.28-1.456.627-1.114.974-1.287 1.51-.752.482.482.38 1.472-.212 2.064-.627.627-1.139.673-1.578.143zm-3.065-1.293c-.211-.84.282-1.762.943-1.762.612 0 1.004 1.187.603 1.827-.45.72-1.359.681-1.546-.065z" id="path3998" fill="#212121" stroke-width=".265"></path></g></g></svg>