<svg width="101" height="119" xmlns="http://www.w3.org/2000/svg" viewBox="0 0 26.985 31.618"><title>shallie race humanoid</title><g class="nc-icon-wrapper"><g id="layer1" transform="translate(-195.92 -54.464)"><path d="M196.49 84.522c0-4.309 2.869-8.869 6.811-10.825l1.389-.69-1.311-1.146c-.855-.748-1.614-1.761-2.182-2.916-.766-1.557-.871-2.026-.871-3.898 0-1.867.105-2.342.862-3.88 1.624-3.297 4.457-5.073 8.139-5.1 1.882-.014 2.322.083 3.889.854a9.63 9.63 0 0 1 4.461 4.497c.485 1.008.602 1.707.608 3.63.006 2.09-.085 2.569-.748 3.92-.466.952-1.28 2.005-2.134 2.756l-1.379 1.216 1.331.664c2.102 1.047 4.511 3.596 5.634 5.96.794 1.672.983 2.406 1.1 4.269l.14 2.249h-25.74zm3.634-23.284c-.095-.362-.435-.618-.965-.723-.45-.09-.818-.222-.818-.294 0-.399 2.33-3.23 2.752-3.343.626-.17 1.97.085 2.172.412.083.134-.402.834-1.078 1.557s-1.384 1.682-1.573 2.132c-.313.745-.357.768-.49.259zm18.061-.094c0-.238-.655-1.14-1.455-2.004-.8-.864-1.455-1.63-1.455-1.703 0-.072.355-.278.788-.457 1.252-.519 1.998-.152 3.222 1.584.613.868 1.17 1.524 1.237 1.456.068-.067-.32-.69-.861-1.384l-.984-1.262 1.01-.182c.934-.169 1.078-.107 1.868.794.47.537.857 1.122.86 1.3.002.277-1.316 1.152-1.714 1.136-1.074-.042-1.524.089-1.976.574-.44.471-.54.499-.54.148zm-21.55-1.412c-.385-.385-.352-.515.381-1.512.73-.992.91-1.091 1.99-1.1.653-.006 1.187.019 1.187.054 0 .036-.506.72-1.124 1.52-1.17 1.515-1.721 1.75-2.434 1.038zm-.7-1.432c-.056-1.117.042-1.944.348-2.91l.293-.926.256.794c.14.436.408.972.595 1.19.284.333.193.57-.56 1.456-.864 1.017-.9 1.032-.932.396zm25.853-.426c-.595-.745-.674-.996-.416-1.308.176-.212.407-.772.513-1.244l.193-.858.322.794c.438 1.08.669 3.2.368 3.387-.134.083-.575-.264-.98-.771z" id="path3286-1" display="inline" fill="#000000" stroke-width=".265"></path></g></g></svg>