<svg width="141" height="98" xmlns="http://www.w3.org/2000/svg" viewBox="0 0 37.49 25.972"><title>shallie category elixir</title><g fill="#212121" class="nc-icon-wrapper"><g id="layer1" transform="translate(194.37 -102.313)"><path d="M-182.967 127.948c-.235-.61.075-5.014.393-5.602.238-.439 1.692-1.62 5.183-4.212l1.305-.969 2.228.27c2.547.31 3.007.625 3.037 2.084.034 1.674-.254 6.985-.385 7.116-.223.223-2.94.66-6.56 1.056-1.967.215-3.903.46-4.304.545-.533.113-.773.036-.897-.288zm-4.593-.934c-.8-.267-2.006-.493-2.68-.502-1.316-.017-1.229.081-2.072-2.33-.224-.643-1.694-6.135-2.046-7.646-.092-.395.349-1.28 1.447-2.91 1.744-2.587 2.524-3.413 2.964-3.14.985.608 1.853 2.94 2.264 6.076.095.721.578 2.432 1.074 3.802.771 2.13.901 2.831.901 4.84 0 1.293-.089 2.338-.198 2.323-.11-.014-.853-.245-1.654-.513zm20.355-.672c-.251-.303-.271-.54-.071-.857.36-.572 2.993-2.14 3.614-2.153.652-.014 3.09 2.075 3.09 2.648 0 .667-.522.78-3.561.78-2.163 0-2.796-.086-3.072-.418zm7.936-1.182a108.247 108.247 0 0 1-2.31-2.189l-1.405-1.37.093-1.638c.103-1.82.663-2.727 1.68-2.727.72 0 4.349 3.097 4.331 3.696-.032 1.056-.96 4.874-1.206 4.956-.152.05-.685-.277-1.183-.728zm-10.311-.803c-.303-.565-.173-2.394.3-4.25.204-.795.44-1.041 1.353-1.407.609-.243 1.418-.664 1.8-.936.38-.271.996-.57 1.368-.663.666-.167.675-.15.612 1.24-.034.774-.127 1.587-.206 1.805-.08.219-.21.707-.293 1.085-.091.42-.592.986-1.28 1.448-.62.418-1.52 1.09-1.997 1.495-1.042.88-1.27.906-1.657.183zm-15.417-3.615c-.56-1.298-1.191-3.664-1.29-4.83-.088-1.053-.154-1.041 2.432-.439.945.22 2.315.52 3.042.666.728.145 1.67.397 2.093.558l.77.294-.862.89c-.475.49-1.817 1.404-2.983 2.031-1.166.628-2.18 1.294-2.251 1.481-.221.577-.505.383-.95-.651zm14.555-3.906l-.741-.93 2.305-2.642c2.437-2.793 4.228-4.12 5.16-3.824.7.222 2.143 3.376 2.034 4.448-.07.69-.246.833-1.534 1.252-.8.26-1.714.481-2.03.49-.316.01-.93.318-1.366.683-.728.614-2.392 1.452-2.88 1.452-.113 0-.54-.418-.948-.93zm-4.55-1.59c-.727-.203-1.632-.373-2.009-.38-.377-.006-1.378-.25-2.224-.54-.846-.292-1.864-.53-2.263-.53-.398 0-1.502-.24-2.453-.534l-1.73-.534-1.19-2.384-1.193-2.384 1.054-.665c.58-.366 1.375-.786 1.768-.933.393-.147 2.422-1.118 4.508-2.158 2.314-1.154 4.12-1.89 4.634-1.89.53 0 2.602.878 5.6 2.377 6.066 3.03 5.978 2.744 1.994 6.447-2.004 1.862-2.924 2.9-2.924 3.296 0 1.249-1.098 1.498-3.572.811z" id="path4148" fill="#212121" stroke-width=".265"></path></g></g></svg>