<?xml version="1.0" encoding="UTF-8" standalone="no"?>
<!-- Created with Inkscape (http://www.inkscape.org/) -->

<svg
   width="29.201153mm"
   height="37.551682mm"
   viewBox="0 0 29.201153 37.551682"
   version="1.1"
   id="svg5213"
   sodipodi:docname="shallie-category-water.svg"
   inkscape:version="1.1 (c68e22c387, 2021-05-23)"
   xmlns:inkscape="http://www.inkscape.org/namespaces/inkscape"
   xmlns:sodipodi="http://sodipodi.sourceforge.net/DTD/sodipodi-0.dtd"
   xmlns="http://www.w3.org/2000/svg"
   xmlns:svg="http://www.w3.org/2000/svg">
  <sodipodi:namedview
     id="namedview5215"
     pagecolor="#ffffff"
     bordercolor="#666666"
     borderopacity="1.0"
     inkscape:pageshadow="2"
     inkscape:pageopacity="0.0"
     inkscape:pagecheckerboard="0"
     inkscape:document-units="mm"
     showgrid="false"
     inkscape:zoom="0.47433592"
     inkscape:cx="906.53055"
     inkscape:cy="407.93875"
     inkscape:window-width="1920"
     inkscape:window-height="1057"
     inkscape:window-x="1912"
     inkscape:window-y="-8"
     inkscape:window-maximized="1"
     inkscape:current-layer="layer1" />
  <defs
     id="defs5210" />
  <g
     inkscape:label="Layer 1"
     inkscape:groupmode="layer"
     id="layer1"
     transform="translate(176.83331,39.158938)">
    <path
       d="m -169.88323,-1.8640926 c -1.54959,-0.442569 -3.31862,-1.646238 -3.95674,-2.692189 -0.4435,-0.726942 -0.48432,-1.531329 -0.48525,-9.5588404 0,-9.120425 -0.1,-10.040408 -1.17631,-10.933668 -0.57912,-0.480642 -0.51244,-1.221581 0.1669,-1.854464 0.43204,-0.402537 0.93581,-0.539486 1.98438,-0.539486 0.83587,0 1.4053,-0.116602 1.4053,-0.287734 0,-0.158247 -0.40547,-1.021451 -0.90106,-1.918229 -2.44414,-4.422643 -4.12163,-7.974383 -3.97883,-8.424307 0.20201,-0.636455 0.84288,-0.957236 2.11733,-1.059789 1.01669,-0.08181 1.06021,-0.04953 1.73947,1.290056 0.38317,0.755703 0.97849,1.817581 1.32292,2.359792 0.34441,0.542184 1.461,2.543281 2.48132,4.446879 l 1.8551,3.461041 1.46036,0.0294 c 1.60727,0.03233 2.69523,0.48641 3.67295,1.532969 0.35279,0.377613 0.78073,0.686594 0.95096,0.686594 0.17024,0 0.81032,-0.506016 1.42235,-1.124479 l 1.11281,-1.124479 5.1172,-0.08602 c 5.08363,-0.08543 5.12001,-0.08202 5.543,0.52189 0.58843,0.840132 0.53509,1.447774 -0.24376,2.776802 l -0.66953,1.142471 0.0627,9.2506 c 0.0601,8.8562134 0.0407,9.2752604 -0.45492,9.8291394 -0.92657,1.035526 -2.33577,1.748049 -4.08953,2.067719 -2.69156,0.49059 -14.92846,0.645477 -16.45912,0.208332 z m 18.27527,-4.607878 c 0.85918,-0.638969 1.0912,-1.656186 0.3778,-1.656186 -0.26879,0 -0.7303,0.169228 -1.02561,0.376053 -0.2953,0.206851 -0.94686,0.481779 -1.44793,0.610949 -0.66445,0.171318 -0.93525,0.401823 -1.00044,0.851614 -0.0851,0.587164 -0.0298,0.609971 1.15469,0.476462 0.68427,-0.07713 1.55795,-0.373618 1.94149,-0.658892 z m -0.75975,-2.408767 c 0.97084,-0.304403 1.48413,-0.615791 1.54617,-0.937974 0.17031,-0.8843964 -0.34298,-1.0074274 -1.83584,-0.4400284 -0.78552,0.2985554 -1.62951,0.5428724 -1.8756,0.5429514 -0.5493,1.59e-4 -0.83995,0.424762 -0.64267,0.938847 0.18965,0.494242 0.9956,0.46445 2.80794,-0.103796 z m 0.0681,-2.7483594 c 0.83404,-0.353695 1.25677,-0.6926 1.25677,-1.007507 0,-0.693314 -0.52327,-0.759195 -1.71979,-0.216508 -0.58209,0.264001 -1.24021,0.482626 -1.46249,0.485801 -0.22227,0.0032 -0.67445,0.19513 -1.00481,0.426535 -0.4858,0.340281 -0.53959,0.494268 -0.28127,0.805524 0.37557,0.452543 1.32384,0.306731 3.21159,-0.493845 z m -3.52327,-2.316559 c 2.99865,-0.571368 4.49677,-1.324584 5.13545,-2.581884 0.30041,-0.59137 0.32301,-1.341728 0.11999,-3.980815 -0.23558,-3.062128 -0.21815,-3.306392 0.29866,-4.182295 0.30187,-0.511651 0.54885,-0.98298 0.54885,-1.047432 0,-0.06443 -1.82702,-0.117158 -4.06003,-0.117158 -3.73811,0 -4.09842,0.04241 -4.54395,0.534723 -0.54377,0.600869 -2.74733,2.111111 -3.08025,2.111111 -0.11901,0 -0.87085,-0.592667 -1.67074,-1.317043 -1.29231,-1.170332 -1.55051,-1.298708 -2.31791,-1.152605 -0.47495,0.09041 -0.89186,0.185526 -0.92644,0.211323 -0.0346,0.02567 0.52591,1.154377 1.24553,2.507959 0.71961,1.353555 1.40372,2.747036 1.52024,3.096604 0.20653,0.619601 0.29832,0.638307 3.64927,0.744114 4.05018,0.1279 5.81294,0.46355 6.87281,1.308656 l 0.77489,0.617881 -0.80656,0.806556 c -0.44363,0.4436 -1.27188,0.919771 -1.84057,1.058174 -1.80327,0.438785 -5.77863,0.803249 -6.21797,0.570045 -0.64392,-0.341815 -2.43362,-2.853531 -3.19604,-4.485454 -0.63005,-1.348635 -1.95678,-3.78968 -6.97307,-12.829752 -2.70571,-4.876112 -2.86512,-5.136356 -3.23389,-5.279231 -0.58664,-0.227277 -0.35505,0.558747 0.7276,2.469303 0.58208,1.027218 1.05833,1.940639 1.05833,2.029857 0,0.08922 0.69734,1.372791 1.54967,2.852393 1.55575,2.700788 4.27117,7.913688 4.27117,8.19957 0,0.429895 3.54317,7.426484 3.98423,7.867544 0.69373,0.693738 3.43082,0.689055 7.11073,-0.01217 z m -13.80221,-1.326251 c -0.19304,-0.309112 -0.617,-0.529166 -1.01957,-0.529166 -0.37899,0 -0.87857,-0.209365 -1.11016,-0.46527 -0.386,-0.426561 -0.38082,-0.518636 0.0625,-1.106302 0.52136,-0.691171 2.26367,-1.328341 3.65003,-1.334823 0.47294,-0.0026 0.85989,-0.128985 0.85989,-0.281755 0,-0.381079 -0.60473,-1.558898 -2.20072,-4.286329 -1.15792,-1.978766 -1.45566,-2.315104 -2.04954,-2.315104 -1.33316,0 -1.61108,0.691859 -1.55737,3.876754 0.0267,1.578557 -0.0377,3.378385 -0.14295,3.999574 -0.13555,0.80002 -0.0867,1.256003 0.16764,1.56329 0.46022,0.556155 2.29822,1.394963 3.07321,1.402477 0.53166,0.005 0.56111,-0.05255 0.26707,-0.523346 z"
       style="fill:#000000;stroke-width:0.264583"
       id="path2698-9"
       sodipodi:nodetypes="sscsssssssssscsssscssscssssssssssssssssssssssssssssssssssssssscssssssssssssssssscsssssscs" />
  </g>
</svg>
