<svg width="159" height="156" xmlns="http://www.w3.org/2000/svg" viewBox="0 0 42.174 41.522"><title>shallie category snack</title><g fill="#212121" class="nc-icon-wrapper"><g id="layer1" transform="translate(-16.454 -106.428)"><path d="M46.346 146.43c-3.922-1.936-6.721-3.631-7.994-4.842-.953-.907-1.002-1.03-.843-2.12.134-.916 1.74-4.285 2.965-6.22.807-1.275 3.464-4.211 4.326-4.782 1.265-.837 1.312-.826 6.183 1.516 3.734 1.795 7.091 4.322 7.537 5.673.265.802.15 1.13-1.585 4.55-2.772 5.461-4.795 7.784-6.746 7.745-.437-.01-2.166-.693-3.843-1.52zm5.781-1.533c.433-.525 1.003-1.355 1.267-1.845l.48-.891-.785-.821c-.43-.452-1.666-1.372-2.744-2.045l-1.96-1.224-1.037 1.178c-1.326 1.507-2.319 3.035-2.319 3.572 0 .507 4.537 2.726 6.133 3 .098.016.533-.4.965-.924zm-3.24-10.988c1.45-2.474 1.485-2.372-1.212-3.593l-1.455-.658-1.09 1.238c-1.12 1.27-1.863 2.44-1.666 2.62.11.103 4.043 2.525 4.12 2.538.023.004.609-.961 1.303-2.145zm-22.153 6.456c-1.267-1.185-1.426-1.256-2.965-1.317-1.374-.054-1.718-.17-2.221-.746-.503-.576-.596-.989-.596-2.64 0-1.076-.137-2.258-.305-2.626-.167-.368-1.18-1.387-2.248-2.265-1.577-1.294-1.945-1.736-1.945-2.34 0-1.364 2.453-3.005 5.487-3.67 1.13-.247 2.246-.633 2.48-.858.24-.23.501-1.074.597-1.925.424-3.757 1.924-5.752 5.654-7.516 2.935-1.388 3.978-1.439 7.534-.367.655.198.785.11 1.489-1.013.424-.677 1.218-2.094 1.764-3.15.99-1.917 2.438-3.504 3.195-3.504.637 0 1.676 1.211 2.405 2.802.37.808.809 1.503.975 1.544 1.621.399 4.282 1.436 4.855 1.893.904.721.92 1.997.043 3.557l-.618 1.1.855 1.544c.523.944.856 1.918.856 2.504 0 .83-.114 1.006-.86 1.317-2.044.854-4.386 1.29-7.038 1.312l-2.738.022-.569 1.395c-1.186 2.912-4.567 5.616-7.022 5.616-.75 0-1.087.114-1.087.367 0 .201-.272.544-.603.761-.413.27-.802 1.053-1.231 2.478-.691 2.293-2.186 5.454-3.017 6.382-.82.915-1.626.746-3.126-.657zm.853-5.006c-.156-1.556-.285-3.436-.285-4.177 0-1.034-.168-1.593-.722-2.401l-.722-1.054-.222 1.587c-.121.874-.153 2.927-.07 4.564.116 2.285.074 2.982-.18 2.999-.183.012.026.179.463.371.438.193 1.03.609 1.317.925.286.316.562.45.613.295.051-.153-.035-1.552-.192-3.109zm3.483-1.998c.452-1.687.316-2.327-.493-2.327-.277 0-.364.475-.364 1.985 0 1.091.094 1.984.208 1.984.115 0 .407-.739.649-1.642zm-9.324-4.973c0-1.018-.092-1.852-.206-1.852-.113 0-.482.194-.82.43-.693.487-.649 1.433.124 2.612.694 1.06.902.786.902-1.19zm13.116.258c.708-.27.713-.287.548-2.183-.091-1.051-.177-3.775-.19-6.053l-.025-4.142-.942-.177c-1.174-.22-1.254-.097-1.666 2.555-.328 2.108-.226 4.881.295 8.023.413 2.49.473 2.55 1.98 1.977zm5.563-4.666c.09-.482.02-1.622-.156-2.534a74.922 74.922 0 0 1-.438-2.45c-.325-2.213-.4-2.514-.634-2.514-.345 0-.318 3.377.053 6.644.267 2.345.352 2.631.658 2.212.194-.265.426-.876.517-1.358zm-12.589-1.81c-.114-2.13-.214-2.714-.374-2.18-.378 1.264-.33 4.298.077 4.79.202.245.387.414.41.374.024-.04-.027-1.383-.113-2.983zm19.013-2.314c.163-1.055.458-2.9.656-4.097l.36-2.179-.864-.51-.864-.51-.176.572c-.098.315-.244 2.388-.325 4.607-.144 3.916-.132 4.035.384 4.035.458 0 .574-.27.829-1.918zm4.526.997c.264-.318.191-.621-.388-1.608-.392-.67-.745-1.178-.785-1.13-.04.048-.14.772-.222 1.608-.143 1.456-.123 1.522.46 1.522.336 0 .756-.177.935-.392zm-8.991-1.287c0-.632.06-2.448.134-4.035.124-2.65.104-2.819-.245-2.075-.432.922-.84 5.542-.58 6.575.271 1.08.69.798.69-.465zm8.95-4.786c.106-.91-.37-.69-.55.254-.081.427-.02.64.167.578.163-.053.335-.428.383-.832z" id="path4657-7" fill="#212121" stroke-width=".265"></path></g></g></svg>