<svg width="148" height="129" xmlns="http://www.w3.org/2000/svg" viewBox="0 0 39.211 34.331"><title>shallie category meat</title><g fill="#212121" class="nc-icon-wrapper"><g id="layer1" transform="translate(-55.507 -67.69)"><path d="M75.946 101.72c-1.66-.54-5.734-2.87-8.033-4.598-4.49-3.372-8.16-6.669-8.98-8.065-.758-1.29-.805-1.52-.69-3.369.075-1.233.382-2.673.81-3.802.378-1 .687-1.908.687-2.02 0-.11-.685-.523-1.521-.917-2.349-1.105-2.712-1.549-2.712-3.312 0-1.312.095-1.583.793-2.252.52-.497.794-1.022.794-1.515 0-1.141.941-2.752 2.047-3.503 1.377-.936 2.715-.9 3.836.102.837.75.864.839.864 2.856 0 1.515.123 2.27.45 2.77l.451.689 1.795-.652c2.575-.935 4.574-.926 6.42.026.792.41 1.745.954 2.116 1.21.37.256 1.567.996 2.659 1.644 5.075 3.014 6.624 4.072 8.557 5.845 2.828 2.593 3.143 3.268 3.036 6.494l-.084 2.555 1.91-.094c1.831-.09 1.946-.06 2.713.707 1.132 1.133 1.139 2.942.016 4.493-.432.596-1.023 1.21-1.313 1.366-.29.155-.72.692-.959 1.192-.25.53-.963 1.252-1.702 1.726-1.26.809-1.277.812-2.336.388-1.139-.456-1.9-1.603-1.9-2.86 0-.642-.062-.614-1.258.58-1.71 1.71-3.464 2.523-5.622 2.61-.946.039-2.226-.094-2.844-.295zm4.853-1.906c1.114-.529 3.018-2.346 3.018-2.88 0-.677-.627-.44-1.4.528-.833 1.044-1.615 1.19-2.048.38-.361-.674-.855-.544-1.049.276-.345 1.465-1.443 1.288-2.315-.372-.541-1.03-.509-5.595.044-6.228.195-.223.547-.786.782-1.251.662-1.306 3.002-3.998 3.863-4.443 1.28-.662 2.658-.514 3.773.404 1.135.936 1.418 1.95 1.028 3.685-.458 2.035.754 2.694 1.26.685.71-2.819.035-4.949-1.93-6.101-1.145-.67-1.295-.694-2.522-.4-2.207.53-3.48 1.548-5.26 4.21-1.9 2.84-2.693 5.109-2.693 7.706 0 2.004.45 3.085 1.57 3.765.9.548 2.763.565 3.879.036zm8.88.14c.458-.246.521-.5.445-1.786l-.09-1.5 1.108.07c.892.055 1.188-.047 1.522-.523.532-.76.531-2.17-.003-2.703-.539-.539-.571-.535-2.368.26l-1.526.674-2.072-1.204c-1.14-.662-2.136-1.204-2.213-1.204-.078 0-.636-.358-1.24-.796-1.033-.748-1.128-.77-1.585-.356-.501.454-.63 1.311-.28 1.862.11.172.852.708 1.65 1.192A41.855 41.855 0 0 1 86 95.974c1.483 1.125 1.521 1.187 1.521 2.433 0 1.655.836 2.254 2.158 1.547zM70.576 82.658c.762-.918-.781-2.238-1.712-1.465-.507.42-.5.912.022 1.433.52.52 1.273.535 1.69.032zm-1.047-3.85c.907-.906.502-1.851-.794-1.851-1.328 0-1.788 1.232-.735 1.97.757.53.892.519 1.529-.118zm4.048-.294c.397-.63.03-1.293-.715-1.293-.77 0-1.166.879-.668 1.48.397.478 1.017.394 1.383-.187zM62.35 76.666c.612-.775.615-.803.132-1.337-.404-.447-.493-.975-.493-2.935 0-1.946-.082-2.442-.443-2.67-1.22-.77-2.862 1.373-2.296 2.998.398 1.142-.03 2.052-1.017 2.165-.536.062-.765.251-.827.682-.108.76.49 1 1.563.626.96-.335 1.706-.045 1.962.762.232.732.683.64 1.419-.291z" id="path4453" fill="#212121" stroke-width=".265"></path></g></g></svg>