<svg width="117" height="150" xmlns="http://www.w3.org/2000/svg" viewBox="0 0 30.977 39.915"><title>shallie category medicine</title><g fill="#212121" class="nc-icon-wrapper"><g id="layer1" transform="translate(43.035 47.285)"><path d="M-31.372-8.05c-1.382-.354-2.722-.832-2.976-1.062-.418-.378-.464-1.07-.464-7.024v-6.605l1.456-2.654c.8-1.46 1.455-2.747 1.455-2.861 0-.114-.238-.284-.53-.376-.433-.137-.528-.4-.528-1.45 0-.786.128-1.331.33-1.406.182-.067 1.373-.06 2.646.017 1.295.078 2.315.035 2.315-.098 0-.383-1.78-1.693-2.3-1.694-.726-.003-1.813-.77-4.694-3.322-2.479-2.195-2.69-2.324-3.73-2.27-1.816.094-2.363-1.3-.802-2.048.729-.35.743-.388.276-.73-.27-.198-.773-.36-1.117-.36-.343 0-.968-.178-1.388-.396-2.479-1.281-1.978-4.896.677-4.896.773 0 1.177.208 1.997 1.027.566.566 1.027 1.287 1.027 1.605 0 .697.452 1.601.8 1.601.138 0 .425-.416.638-.926.702-1.68 2.187-.992 1.933.896-.135 1.006-.082 1.08 3.02 4.297 1.736 1.8 3.397 3.769 3.691 4.373.295.604.766 1.308 1.048 1.562.281.255.512.609.512.787 0 .454 1.258.653 4.134.653h2.48v1.3c0 .73-.13 1.345-.297 1.401-.485.162-.012 1.668.87 2.775 1.75 2.195 1.738 2.117 1.567 9.976l-.155 7.118-1.041.36c-1.247.43-7.154 1.157-9.014 1.107-.727-.019-2.453-.324-3.836-.677zm11.2-7.123c1.143-.157 1.245-.238 1.658-1.318.605-1.583.397-3.637-.452-4.482-.586-.582-.854-.631-3.663-.668-3.016-.04-3.033-.036-3.672.706-.597.695-.631.897-.504 2.945.076 1.21.284 2.375.463 2.591.352.424 3.802.55 6.17.226zm-.986-1.125c-.248-.275-.815-.572-1.26-.661-.561-.112-.764-.279-.663-.543.102-.265-.072-.407-.564-.464-.41-.048-.746-.27-.795-.525-.062-.33.054-.406.46-.3.31.081.546.015.546-.153 0-.162-.15-.309-.331-.326l-.728-.066c-.237-.021-.397-.301-.397-.697 0-.525.15-.679.73-.745.475-.055.784.06.888.33.087.229.302.415.478.415.384 0 1.476 1.422 1.476 1.922 0 .196.298.76.662 1.253.363.493.661.933.661.978 0 .28-.786-.003-1.163-.418zm-8.097-18.49c0-.11-1.544-1.742-3.432-3.625l-3.43-3.424-.643.604-.642.603 1.097 1.006c2.977 2.731 5.912 5.018 6.454 5.028.328.006.596-.08.596-.191zm-12.522 8.016c-.658-.658-.558-2.08.211-2.994.817-.97 4.183-2.766 4.975-2.654.353.05.62.298.666.62.093.652-1.918 3.835-2.917 4.618-1.002.784-2.37.976-2.935.41zm19.782-7.403c-.518-.791-.322-1.533.596-2.255.895-.704 1.708-.678 2.416.076 1.233 1.312.434 2.827-1.49 2.827-.873 0-1.184-.132-1.522-.648zm4.197-5.16c-2.492-1.52-2.47-4.766.044-6.24 2.887-1.691 5.697-.086 5.697 3.254 0 1.059-.13 1.41-.728 1.984-.872.835-2.418 1.519-3.431 1.518-.405 0-1.117-.233-1.582-.517z" id="path3875" fill="#212121" stroke-width=".265"></path></g></g></svg>