<svg width="132" height="129" xmlns="http://www.w3.org/2000/svg" viewBox="0 0 35.117 34.261"><title>shallie race rare slag</title><g class="nc-icon-wrapper"><g id="layer1" transform="translate(-126.623 -85.858)"><path d="M139.743 119.226c-.62-.748-.995-.923-2.286-1.065-1.532-.169-1.545-.164-1.76.666-.12.46-.377.889-.572.954-.58.193-4.347-3.926-5.232-5.722-.71-1.442-.817-1.996-.9-4.712-.053-1.693.013-3.582.147-4.198.203-.93.132-1.344-.419-2.451-1.957-3.93-1.062-8.813 2.247-12.256l1.159-1.207 1.226 2.64c1.11 2.391 1.196 2.724.908 3.534-.248.694-.238 1.023.043 1.477.313.505.261.774-.386 1.99-.41.775-.663 1.363-.56 1.308 3.073-1.624 3.885-1.834 7.21-1.868l2.265-.023.343-1.147c.67-2.233 3.1-4.17 6.752-5.381 1.541-.511 5.799-1.188 6.028-.959.17.17-.865 5.641-1.157 6.113-.09.144-.579.437-1.088.65-.74.309-.91.526-.848 1.084.077.705-.475.962-4.42 2.062-.42.117-.32.338.657 1.446 1.516 1.72 1.915 2.538 2.326 4.768.249 1.346.473 1.882.816 1.948.363.07.474-.113.474-.782 0-.677.188-.98.838-1.35 1.015-.578 1.025-.732.149-2.156-.38-.615-.694-1.39-.699-1.723-.005-.332.586-1.34 1.312-2.239 2.099-2.597 2.003-2.595 3.217-.074.583 1.21 1.06 2.445 1.06 2.745 0 .3-.576 1.217-1.278 2.038-1.196 1.395-1.267 1.569-1.104 2.673l.175 1.182-1.299.327c-1.042.262-1.384.507-1.735 1.243-.323.678-.678.962-1.358 1.09-.754.141-.981.36-1.26 1.213-.314.954-1 2.238-1.379 2.579-.086.077-.575.803-1.087 1.613-1.246 1.969-1.657 2.173-2.586 1.286-.65-.62-.892-.681-2.013-.513-1.03.155-1.4.374-1.92 1.14-.356.52-.786.948-.956.95-.17 0-.643-.401-1.05-.893zm.507-5.996c.684-.262 1.31-1.673 1.106-2.488-.203-.81-1.102-1.535-1.903-1.535-1.607 0-2.193 2.546-.831 3.617.801.63.948.667 1.628.406zm-8.227-.695c.354-.661.131-2.365-.348-2.662-.716-.442-1.364 1.59-.897 2.809.24.624.873.55 1.245-.147zm3.194-4.932c1.057-1.058 1.262-1.41 1.019-1.75-.168-.233-.56-.896-.873-1.474-.313-.577-.662-1.049-.776-1.049-.115 0-.867.444-1.673.986l-1.464.987.73 1.182c1.33 2.156 1.519 2.442 1.616 2.442.053 0 .693-.596 1.42-1.324zm-6.697 11.71c-.11-.346-.582-.863-1.048-1.146l-.849-.516.87-.45c.493-.255.946-.756 1.047-1.16l.179-.712.524.862c.289.475.841 1.007 1.228 1.183l.704.32-.843.409c-.464.225-.843.494-.843.6 0 .105-.173.428-.384.717-.37.506-.392.502-.585-.106zm26.55-1.708c-.604-1.108-1.04-1.521-2.117-2.008-.746-.338-1.357-.707-1.357-.822 0-.114.42-.347.934-.516 1.187-.392 2.239-1.492 2.95-3.086l.56-1.252.297.78c.163.43.297.855.297.946 0 .521 1.508 2.001 2.49 2.444.631.285 1.147.593 1.147.685 0 .092-.599.482-1.33.867-.983.518-1.51 1.045-2.028 2.028-.384.73-.786 1.329-.892 1.33-.105 0-.534-.628-.952-1.396zm3.522-19.43c0-.59-1.377-2.12-1.913-2.126-.297-.002-.143-.21.429-.577.491-.315 1.057-.942 1.257-1.394.2-.452.429-.822.507-.822.08 0 .317.39.528.869.24.54.754 1.023 1.363 1.277l.977.409-.944.471c-.523.261-1.132.875-1.364 1.375-.44.948-.84 1.194-.84.517zM139.17 93.68c-.262-1.046-1.75-2.589-2.841-2.95-.99-.326-1.068-.833-.129-.833.807 0 2.134-1.275 2.836-2.726l.636-1.314.229.882c.284 1.095 1.634 2.476 2.981 3.05l1.019.433-1.22.583c-1.186.566-2.838 2.424-2.838 3.191 0 .645-.49.415-.673-.316z" id="path119409" display="inline" fill="#000000" fill-opacity="1" stroke-width=".28"></path></g></g></svg>