<svg width="108" height="120" xmlns="http://www.w3.org/2000/svg" viewBox="0 0 28.732 31.972"><title>shallie race beast</title><g class="nc-icon-wrapper"><g id="layer1" transform="translate(-162.573 -53.02)"><path d="M168.532 84.58c-.95-.515-1.264-1.155-1.264-2.57 0-2.582 3.23-6.928 6.35-8.546 2.088-1.082 4.33-1.074 6.35.023 2.128 1.156 4.79 3.92 5.787 6.01 1.096 2.297 1.112 3.664.055 4.722-.686.686-.957.773-2.39.773-1.278 0-1.951-.17-3.233-.816-.89-.45-2.226-.879-2.969-.954-1.185-.12-1.57-.02-3.14.817-1.471.784-2.06.951-3.308.943-.834-.006-1.842-.187-2.238-.402zm-4.119-7.94c-.782-.547-1.616-2.221-1.803-3.62-.111-.827.024-1.603.509-2.931.759-2.08 3.893-7.423 4.179-7.125.41.43 1.626 7.177 1.632 9.064.01 3.054-1.213 5.027-3.117 5.027-.444 0-1.074-.187-1.4-.414zm22.063-.392c-1.247-1.095-1.568-2.222-1.419-4.98.135-2.487 1.232-8.5 1.551-8.5.315 0 2.28 3.108 3.47 5.492 1.754 3.51 1.623 6.457-.36 8.126-1.076.906-2.103.862-3.242-.138zm-15.437-6.699c-1.066-1.213-1.774-3.887-1.584-5.98.157-1.729 1.195-3.905 3.086-6.464 1.278-1.73 3.192-3.965 3.495-4.083.34-.132.279 11.597-.069 13.238-.59 2.78-1.696 4.18-3.306 4.18-.622 0-1.043-.23-1.622-.89zm8.417.321c-.337-.314-.865-1.117-1.174-1.786-.493-1.065-.558-1.658-.528-4.787.029-2.985.16-4.065.794-6.566.417-1.646.873-3.015 1.013-3.042.379-.074 2.608 3.6 3.744 6.168.84 1.901.994 2.535.994 4.101 0 3.665-1.446 6.482-3.329 6.482-.558 0-1.135-.217-1.514-.57z" id="path3286" display="inline" fill="#000000" stroke-width=".265"></path></g></g></svg>