<svg width="118" height="140" xmlns="http://www.w3.org/2000/svg" viewBox="0 0 31.383 37.296"><title>shallie category magic tool</title><g fill="#212121" class="nc-icon-wrapper"><g id="layer1" transform="translate(-223.462 80.371)"><path d="M253.8-43.882c-.387-.559-.702-1.367-.699-1.796l.006-.78.476.619c.934 1.214 1.467 2.428 1.189 2.707-.18.18-.498-.065-.972-.75zm-2.358-2.64c-.823-.842-.999-1.217-1.032-2.195-.026-.785-.076-.936-.15-.452-.06.4-.207.728-.326.728-.295 0-2.13-2.053-2.13-2.382 0-.146-.149-.278-.33-.294-.183-.017-.974-.73-1.759-1.584l-1.427-1.553.34-2.055c.186-1.13.43-2.155.54-2.279.11-.123.7.651 1.31 1.72 1.3 2.278 1.3 2.278 2.584 4.287.545.852 1.333 1.983 1.75 2.514 1.603 2.036 1.98 2.814 1.796 3.711l-.174.85zm-3.727-6.484c-.074-.181-.134-.033-.134.331s.06.513.134.331c.073-.182.073-.48 0-.662zm-5.203-2.662c-.764-.392-.77-.823-.055-3.75.53-2.167 1.042-2.487 1.718-1.07.408.857.413 1.095.05 2.816-.543 2.583-.555 2.598-1.713 2.004zm-2.821-1.486c-.606-.1-1.29-.337-1.521-.529-.592-.491-.532-2.266.122-3.618.637-1.315 2.667-3.28 3.388-3.28 1.086 0 1.537 1.523.854 2.883-.264.525-.625 1.608-.803 2.409-.47 2.113-.557 2.385-.758 2.348-.1-.018-.676-.114-1.282-.213zm-2.839-4.406c-.088-.23-.16-.706-.16-1.058 0-.78-.43-.844-.666-.1-.129.408-.312.498-.745.368-1.358-.406-1.928-.839-2.41-1.829-1.075-2.2-.42-4.568 2.124-7.692 1.751-2.151 2.24-3.366 2.066-5.145l-.142-1.456.532.605c.292.333.723 1.266.958 2.074.356 1.225.376 1.714.12 2.95-.17.816-.444 1.715-.61 1.997-.231.394-.224.541.032.634.184.066.457.351.608.633.226.423.136.63-.513 1.175-.887.747-2.125 3.952-1.693 4.384.156.156.435-.363.746-1.39.533-1.762 2.045-3.544 3.266-3.85 1.078-.27 2.08 1.594 1.805 3.356-.075.479-.292.684-.785.743-.734.088-2.893 2.205-3.414 3.348-.346.758-.879.879-1.119.253zm-10.783-5.406c-1.16-.613-2.607-2.83-2.607-3.995 0-1.296.759-2.558 2.284-3.8 1.939-1.58 5.516-2.383 4.04-.907-.334.335-.504.8-.453 1.24.065.557.284.762 1.048.976 1.454.41 2.077 1.101 2.077 2.306 0 2.156-1.153 3.652-3.32 4.31-1.655.502-1.891.492-3.069-.13zm4.108-2.786c.09-.236.164-.616.164-.845 0-.364-.064-.358-.507.043-.86.778-2.097-.2-1.564-1.237.275-.534.222-.551-.665-.214-.872.331-1.175 1.644-.588 2.54.234.358.623.65.863.65.356 0 .322-.122-.188-.664-.511-.545-.561-.725-.277-.992.276-.26.372-.259.47.008.067.184.29.503.495.708.205.205.296.572.202.815-.157.41-.11.412.63.03.44-.228.875-.607.965-.842zm4.71-4.563c-.165-.552-.655-1.344-1.09-1.76-.688-.66-1.04-.771-2.783-.883-1.426-.091-1.995-.23-1.995-.482 0-.706-1.464.245-4.27 2.775-.715.645-1.287.998-1.287.794 0-.797 1.556-3.592 2.42-4.351 1.066-.936 1.78-1.236 4.375-1.84 1.769-.411 2.004-.412 3.401-.006 2.246.653 2.769 1.307 2.769 3.462 0 1.615-.547 3.294-1.074 3.294-.09 0-.3-.452-.466-1.003z" id="path3742" fill="#212121" stroke-width=".265"></path></g></g></svg>