<svg width="123" height="145" xmlns="http://www.w3.org/2000/svg" viewBox="0 0 32.707 38.528"><title>shallie category lumber</title><g fill="#212121" class="nc-icon-wrapper"><g id="layer1" transform="translate(33.846 -59.242)"><path d="M-12.228 97.12c-.366-.339-1.362-1.56-2.214-2.712-.852-1.153-2.606-3.14-3.9-4.414-2.444-2.41-6.936-6.288-7.265-6.273-.104.004-.666.301-1.248.66-1.378.849-2.416.824-4.468-.106-2.57-1.166-2.592-1.61-.136-2.774 1.39-.658 1.781-.732 3.039-.575 1.2.15 1.933.507 4.348 2.117 1.598 1.065 2.906 1.89 2.906 1.834 0-.057-.602-.848-1.337-1.758a56.114 56.114 0 0 1-2.566-3.507c-2.095-3.16-3.565-5.244-5.55-7.869-3.18-4.21-3.473-4.994-3.1-8.332.15-1.345.183-1.392 1.194-1.664.572-.154 1.04-.393 1.04-.53 0-.389 2.068-1.664 2.862-1.765 3.002-.383 3.194-.34 4.233.952.536.666 1.194 1.45 1.463 1.742.533.58 3.593 4.836 4.703 6.54.824 1.264.952 1.13 1.383-1.446.403-2.405.75-2.513 2.538-.79 1.322 1.274 1.339 1.311 1.339 2.906 0 1.66.91 6.09 1.344 6.538.134.138.243.574.243.97 0 .762 2.438 4.192 5.244 7.378 2.918 3.312 4.017 4.69 4.017 5.038 0 .193.256.88.569 1.526.508 1.05.524 1.2.15 1.41-.459.257-1.248 1.684-1.248 2.257 0 .659-1.698 1.907-3.521 2.589-2.464.921-5.104.946-6.062.058zm6.275-.707c.195-.316-.323-.316-1.058 0-.473.203-.453.229.183.246.391.01.785-.1.875-.246zm-3.204-.682c.08-.207.053-.377-.058-.377-.264 0-.839.575-.839.839 0 .329.74-.052.897-.462zm-.002-1.583c.08-.21.068-.381-.027-.381-.261 0-1.398 1.118-1.398 1.375 0 .328 1.253-.546 1.425-.994zm2.427.802c.498-.392.494-.403-.127-.331-.352.04-.69.223-.75.405-.148.45.255.416.877-.074zm-2.057-2.338c1.174-.74 1.795-1.43 1.528-1.695-.105-.106-.344.018-.532.274-.188.257-.607.434-.938.396-.423-.049-.623.085-.682.455-.046.289-.21.566-.363.618-.28.093-.398.578-.141.578.076 0 .583-.282 1.128-.626zm4.158.361c-.09-.146-.751-.265-1.47-.265-.72 0-1.308.12-1.308.265 0 .146.662.265 1.471.265.913 0 1.409-.1 1.307-.265zm1.088-.653c-.408-.624-.955-.903-.955-.488 0 .279 1.132 1.42 1.271 1.28.068-.067-.074-.424-.316-.792zm-2.146-.67c.09-.145-.022-.264-.249-.264s-.412.119-.412.264c0 .146.112.265.249.265.136 0 .322-.12.412-.265zm-8.364-.758c-.202-.279-1.01-1.416-1.794-2.527-.784-1.11-1.476-1.97-1.536-1.91-.164.164 1.989 3.63 2.773 4.465.748.797 1.141.778.557-.028zm-11.772-17.32c-1.25-2.282-3.346-4.946-3.655-4.648-.091.088.25.743.76 1.455.51.712 1.59 2.291 2.401 3.508.811 1.217 1.534 2.155 1.606 2.083.071-.072-.429-1.151-1.112-2.398zm-.006-5.007c-.108-.182-.584-.9-1.058-1.594-.474-.695-.936-1.499-1.027-1.786-.206-.65-.66-.686-.66-.052 0 .581.585 1.475 1.814 2.77.967 1.022 1.276 1.241.931.662zm-3.67-4.432c.09-.145.044-.264-.101-.264-.146 0-.339.119-.429.264-.09.146-.044.265.101.265.146 0 .339-.119.429-.265z" id="path4419" fill="#212121" stroke-width=".265"></path></g></g></svg>