<svg width="107" height="156" xmlns="http://www.w3.org/2000/svg" viewBox="0 0 28.445 41.275"><title>shallie category fruit</title><g fill="#212121" class="nc-icon-wrapper"><g id="layer1" transform="translate(-219.11 -169.522)"><path d="M226.826 209.772c-2.38-1.161-2.832-1.598-5.096-4.928-1.07-1.573-1.761-2.92-2.038-3.968-1.522-5.779.107-16.889 2.965-20.228l.915-1.069-.517-1.39c-.285-.765-.6-1.885-.7-2.489-.172-1.035-.128-1.141.771-1.852.525-.414 1.252-1.258 1.616-1.875.364-.617 1.102-1.42 1.64-1.786.889-.604 1.227-.665 3.722-.665h2.743l-.093 2.183c-.076 1.79-.208 2.344-.73 3.077-.737 1.032-2.876 2.107-4.729 2.376-1.138.166-1.24.24-1.16.837.05.36.19.761.315.89.124.13 1.3.212 2.615.183 3.663-.08 5.461.96 6.598 3.816 1.198 3.012 2.475 5.446 3.055 5.826.34.223 1.319.532 2.175.688 3.895.706 5.866 2.576 6.466 6.134.403 2.39.21 3.915-.8 6.342-1.563 3.756-5.266 7.343-8.66 8.391-1.37.424-2.463.532-5.346.532h-3.624zM237.137 208c2.829-.997 6.422-4.248 7.583-6.86.672-1.512.902-4.05.514-5.668-.507-2.113-1.27-2.72-4.817-3.826-4.015-1.254-4.716-1.975-6.07-6.244-.885-2.792-2.17-4.117-4.238-4.373-1.658-.205-3.77.274-5.369 1.217-.745.44-1.067.926-1.7 2.574-1.6 4.161-1.694 4.743-1.556 9.674.127 4.52.397 5.928 1.577 8.23 1.18 2.301 4.223 5.015 6.37 5.68 1.268.393 6.173.136 7.706-.404zm-8.587-4.63c-.345-.645.277-1.834.96-1.834 1.197 0 1.891 1.286 1.114 2.064-.52.52-1.745.384-2.074-.23zm6.46-.366c-.186-.485.085-.939.561-.939.545 0 .751.5.388.938-.408.49-.76.49-.949 0zm5.319-5.804c-.918-1.4.632-2.695 1.813-1.514.531.531.542.618.166 1.291-.545.973-1.423 1.072-1.98.223zm-4.99-1.622c-.236-.236-.43-.581-.43-.767 0-.389.84-1.213 1.237-1.213.505 0 1.188 1.014 1.1 1.632-.109.768-1.273.981-1.906.348zm-8.887-1.435c-.436-.813.095-1.658.974-1.553.886.107 1.37.838.973 1.471-.434.695-1.593.744-1.947.082zm-1.85-5.691c-.457-.55-.232-1.322.412-1.415.792-.113 1.28.56.909 1.253-.342.639-.872.704-1.321.162zm6.127-.992c-.503-.503-.385-1.744.195-2.054.764-.41 1.019-.342 1.504.398.836 1.277-.64 2.716-1.699 1.656z" id="path4975" fill="#212121" stroke-width=".265"></path></g></g></svg>