<svg width="109" height="111" xmlns="http://www.w3.org/2000/svg" viewBox="0 0 29.071 29.522"><title>shallie race alchemic</title><g class="nc-icon-wrapper"><g id="layer1" transform="translate(-90.505 -51.85)"><path d="M105.32 81.11c-3.188-.923-5.346-2.717-6.795-5.65-.856-1.731-.997-2.288-1.094-4.31-.075-1.582.016-2.752.287-3.677l.398-1.357-3.804-3.905c-3.137-3.22-3.805-4.042-3.807-4.682-.009-2.624 3.873-6.185 6.125-5.62.34.086 2.278 1.83 4.306 3.874 2.407 2.429 3.83 3.676 4.1 3.596 3.985-1.18 7.448-.695 10.274 1.441 2.982 2.254 4.44 5.503 4.25 9.472-.095 1.99-.25 2.623-1.049 4.307-1.928 4.06-5.554 6.554-9.818 6.754-1.318.062-2.655-.035-3.374-.243zm.838-8.528c.832-.283 1.709-.935 2.874-2.135 2.389-2.46 2.754-2.616 6.131-2.616h2.833l-.158-.662c-.569-2.369-2.606-4.802-5.008-5.982-1.383-.679-1.837-.765-4.05-.765-1.823 0-2.522.094-2.607.348-.063.191-.423.465-.8.608-.639.243-.898.045-4.02-3.07l-3.339-3.331-.837 1.292c-.74 1.142-1.89 2.145-3.285 2.867-.37.192.155.836 3.083 3.78 3.274 3.292 3.509 3.594 3.244 4.176-.157.345-.437.569-.621.498-.407-.156-.707 1.538-.582 3.275l.085 1.183 1.456.455c1.836.574 4.056.605 5.6.079zM93.622 57.668c1.276-.656 2.303-1.754 2.838-3.035.551-1.32.256-1.657-1.068-1.22-1.711.564-3.883 3.29-3.473 4.359.202.526.517.506 1.703-.104z" id="path3286-0" display="inline" fill="#000000" stroke-width=".265"></path></g></g></svg>