<svg width="124" height="118" xmlns="http://www.w3.org/2000/svg" viewBox="0 0 32.817 31.379"><title>shallie category gunpowder</title><g fill="#212121" class="nc-icon-wrapper"><g id="layer1" transform="translate(-59.233 -9.9)"><path d="M81.541 40.958c-1.753-.551-3.228-1.652-4.017-2.997-.634-1.083-.737-1.54-.729-3.247.016-3.309 1.202-4.709 4.592-5.422 2.318-.487 3.419-.272 5.104.999 1.53 1.154 2.326 2.78 2.326 4.75 0 2.693-1.146 4.508-3.572 5.655-1.478.699-2.161.747-3.704.262zm-17.614-8.08c-2.384-.466-4.361-3.313-4.647-6.691-.211-2.504.245-3.56 2.15-4.967 1.779-1.314 3.116-1.708 5.001-1.472 2.536.316 5.32 2.713 5.973 5.142.37 1.372-.444 4.487-1.518 5.816-1.597 1.975-4.05 2.741-6.959 2.172zm19.564-10.033c-1.737-.7-3.053-1.782-3.881-3.19-.963-1.637-1-4.346-.085-6.12 1.271-2.466 2.454-3.255 5.334-3.56 1.509-.16 1.947-.096 3.43.507 2.902 1.179 3.654 2.27 3.754 5.444.103 3.277-.913 5.26-3.307 6.457-1.936.968-3.622 1.116-5.245.462z" id="path4203" fill="#212121" stroke-width=".265"></path></g></g></svg>