<svg width="44" height="44" xmlns="http://www.w3.org/2000/svg" viewBox="0 0 11.642 11.642"><title>shallie wind</title><g fill="#212121" class="nc-icon-wrapper"><g id="layer1" transform="translate(-145.114 -83.318)"><path d="M145.114 89.139v-5.821h11.642v11.641h-11.642zm6.774 3.129c1.004-.633 2.146-1.315 2.539-1.516.807-.413 1.148-1.048.766-1.43-.243-.243-2.48.733-3.464 1.513-.219.173-.857.546-1.419.83-1.106.56-1.374.942-1.121 1.602.2.522.41.444 2.699-1zm-2.003-1.657c.796-.5 2.137-1.345 2.982-1.878 1.487-.938 1.787-1.49.903-1.662-.385-.075-1.353.499-4.498 2.663-.55.38-1.137.735-1.304.79-.328.11-.1.996.255.996.119 0 .867-.41 1.662-.91zm.251-2.937c2.8-1.84 3.154-2.165 2.599-2.378-.436-.167-1.64.45-4.115 2.107-1.89 1.265-2.09 1.475-1.742 1.824.324.324.612.186 3.258-1.553z" id="path8481" fill="#212121" stroke-width=".265"></path></g></g></svg>