<svg width="110" height="141" xmlns="http://www.w3.org/2000/svg" viewBox="0 0 29.112 37.384"><title>shallie category seasoning</title><g fill="#212121" class="nc-icon-wrapper"><g id="layer1" transform="translate(-171.152 -21.185)"><path d="M182.397 58.558c-8.81-.06-9.555-.1-9.922-.542-.218-.262-.605-.557-.86-.654-.431-.165-.463-.963-.463-11.547v-11.37l1.323-1.115 1.323-1.116v-2.413c0-1.717.114-2.577.397-2.98.497-.71 4.044-3.58 5.874-4.754l1.376-.882h13.416l.833.86c.762.786.84 1.028.911 2.84.07 1.747.142 1.992.608 2.064 1.122.172 2.466.93 2.748 1.55.201.442.295 4.015.295 11.244 0 12.2.314 10.724-3.03 14.25-1.035 1.091-2.295 2.49-2.8 3.11-.533.654-1.249 1.207-1.71 1.322-.437.11-5.08.169-10.32.133zm9.859-11.775l-.07-10.12-5.37-.072-5.371-.072.16.998c.392 2.434-.143 2.188 4.766 2.188 4.344 0 4.36-.002 4.364-.595.005-.787.393-1.37.76-1.143.338.209.433 17.347.096 17.351-.11.003-3.986.008-8.616.015l-8.417.012-.512-.652c-.481-.611-.513-1.134-.509-8.547.003-4.343.108-8.06.235-8.26.535-.844.82.07.82 2.629 0 2.63.145 3.015.827 2.191.2-.241 1.372-.903 2.606-1.47 1.234-.568 2.333-1.174 2.443-1.348.11-.173.203-1 .205-1.836l.004-1.522h-3.683c-2.025 0-3.852-.065-4.06-.145-.323-.124-.369 1.125-.317 8.666.034 4.845.075 9.494.092 10.331l.03 1.521h19.586zm3.313 6.51c1.747-1.868 2.835-3.24 2.835-3.577 0-.519-.904.245-2.118 1.79-.997 1.27-1.495 1.693-1.987 1.693-.575 0-.657.116-.657.926 0 .51.063.926.14.926.079 0 .882-.79 1.787-1.758zm-5.158-8.526c.073-.218-1.987-.3-7.595-.3-4.866 0-7.695.097-7.695.261 0 .162 2.573.287 6.813.33 8.264.086 8.352.083 8.477-.29zm5.738-3.203c1.63-1.655 1.378-2.068-.32-.523-1.476 1.345-1.834 1.84-1.33 1.84.194 0 .937-.593 1.65-1.317zm.994-2.224c.107-.163.196-1.292.199-2.51.004-2.082.035-2.205.533-2.075.488.128.53.008.53-1.557 0-.932-.11-1.695-.245-1.695-.309 0-1.64 1.069-3.262 2.617-1.15 1.098-1.256 1.305-1.256 2.442 0 1.111.055 1.227.529 1.103.463-.12.529-.008.529.907 0 .575.056 1.101.124 1.17.228.227 2.122-.1 2.32-.402zm-18.123-4.728c-.073-.214-.663-.33-1.675-.332-.86 0-1.685-.08-1.834-.177-.395-.256-2.052.136-2.178.516-.081.243.633.324 2.846.324 2.248 0 2.927-.08 2.841-.33zm10.917.071c0-.457-1.098-.555-5.402-.477-3.079.055-4.241.164-4.321.406-.086.257.99.33 4.807.33 3.037 0 4.916-.098 4.916-.259zm4.38-2.69c2.249-1.938 3.19-3.019 2.095-2.406-.615.344-4.847 4.137-4.868 4.364-.04.408.334.145 2.772-1.957zm-5.366-1.117c-.033-1-.197-1.982-.363-2.183-.243-.292-1.614-.365-6.885-.365h-6.582v1.422c0 .783.075 1.797.166 2.254l.166.831 6.78-.07 6.778-.071zm3.262.656c2.935-2.177 2.85-2.035 2.97-5.018.086-2.15.036-2.68-.254-2.67-.199.009-1.314.762-2.478 1.675-1.728 1.355-2.114 1.79-2.1 2.367.119 5.073.069 4.976 1.862 3.646zm-9.028-5.34c-.442-1.391 2.086-2.21 2.916-.944.225.344.334.82.242 1.059-.14.367.04.434 1.163.434.731 0 1.54-.081 1.799-.18.376-.145.288-.241-.441-.487-1.174-.394-1.305-1.06-.321-1.624.71-.407.742-.497.484-1.322-.33-1.055-.796-1.12-1.626-.224-.337.364-.795.662-1.017.662-.222 0-.598-.298-.837-.662-.52-.794-1.695-.922-1.695-.185 0 .262-.143.62-.318.794-.446.447-1.526.395-1.675-.08-.419-1.34-.338-1.284-1.119-.774-1.229.803-4.688 3.58-4.781 3.838-.052.141 1.482.244 3.655.244 3.667 0 3.74-.012 3.57-.548zm-3.434.034c-.617-.116-.812-.307-.876-.858-.1-.863.639-1.343 1.88-1.223.731.071.859.194.927.894.094.963-.659 1.425-1.931 1.187zm13.047-2.114c.895-.45 1.123-.7 1.059-1.155-.119-.832-1.516-.989-1.724-.194-.08.308-.488.736-.906.952-.792.41-.87.58-.595 1.296.143.374.22.381.595.052.237-.207.944-.635 1.571-.951z" id="path4237" fill="#212121" stroke-width=".265"></path></g></g></svg>