<svg width="151" height="152" xmlns="http://www.w3.org/2000/svg" viewBox="0 0 40.105 40.443"><title>shallie category natural</title><g fill="#212121" class="nc-icon-wrapper"><g id="layer1" transform="translate(-111.68 89.883)"><path d="M111.851-49.832c-.31-.375-.237-.53.563-1.201.996-.834 3.827-2.337 4.402-2.337.216 0 .355.304.355.776 0 .576-.153.821-.595.952-.328.096-1.27.64-2.093 1.208-1.652 1.14-2.1 1.242-2.632.602zm37.656-.502c-.655-.521-1.9-1.13-2.946-1.442-2.102-.626-2.707-1.138-2.084-1.761.982-.982 7.497 2.076 7.304 3.429-.125.876-1 .79-2.274-.226zm-30.282-1.501c-.836-.223-1.027-.412-1.235-1.23-.665-2.611-.695-2.477.875-3.961.797-.754 1.522-1.371 1.61-1.371.808 0 4.104 2.313 4.104 2.88 0 .421.22.461 2.05.37 2.46-.122 2.958.103 2.492 1.125-.3.66-.405.698-1.494.534-1.477-.221-2.995.053-3.1.56-.09.442-2.646 1.402-3.652 1.374-.364-.01-1.106-.137-1.65-.281zm1.65-1.661c0-.215-.298-.586-.663-.825-.52-.341-.744-.367-1.042-.12-.534.444-.231 1.02.603 1.148.388.06.795.126.904.148.109.022.198-.136.198-.351zm1.963-.035c.503-.193.561-.897.075-.897-.382 0-.98.517-.98.846 0 .253.332.271.905.051zm-.375-1.66c0-.355-1.234-1.09-1.827-1.09-.75 0-.955.502-.383.936.54.409 2.21.525 2.21.153zm8.65 3.379c-.968-.563-1.034-1.46-.303-4.142.702-2.577 1.365-3.958 1.72-3.581.392.415 1.574 4.622 1.57 5.583-.005 1.116-.134 1.362-1.047 1.986-.746.511-1.256.552-1.94.154zm1.933-2.103c0-.137-.119-.249-.264-.249-.146 0-.265.186-.265.413 0 .227.119.339.265.249.145-.09.264-.276.264-.413zm-.049-2.014c-.107-.912-.745-1.155-.745-.285 0 .67.192.992.591.992.131 0 .2-.318.154-.707zm9.756 3.976c-.1-.1-.182-.637-.182-1.192 0-.94-.088-1.054-1.261-1.649-.879-.445-1.4-.93-1.72-1.6-.551-1.157-.597-2.496-.093-2.69.68-.26 2.268.635 2.837 1.6.305.516.637.939.74.939.101 0 .333-.41.514-.912.537-1.486 2.921-2.62 3.32-1.58.543 1.413-.263 3.099-2.135 4.47-.85.622-1.114 1.002-1.185 1.706-.088.876-.461 1.282-.835.908zm-3.622-1.294c-.945-.182-2.215-.343-2.822-.36-1.136-.029-1.423-.312-1.197-1.183.117-.45.315-.477 2.272-.307 2.79.244 3.864.683 3.864 1.581 0 .371-.09.658-.198.637-.11-.02-.973-.187-1.919-.368zm-6.879-9.246c0-.63-.44-1.982-1.22-3.75-.48-1.088-.466-1.922.035-2.115.22-.084 1.173-.071 2.117.03 2.01.215 2.132.496.913 2.107-.548.724-.786 1.34-.786 2.033 0 1.16-.4 2.351-.788 2.351-.149 0-.27-.295-.27-.656zm-10.848-2.94c0-.884.875-1.932 1.68-2.013.676-.068.843-.249 1.176-1.27.698-2.14.831-2.381 1.306-2.37.526.012 2.718 1.89 2.718 2.327 0 .156-.42.482-.934.726-.513.243-1.155.725-1.427 1.07-.39.496-.746.628-1.693.628-.965 0-1.302.13-1.72.662-.592.752-1.106.863-1.106.24zm20.558-.615c-.87-.94-1.12-1.054-2.692-1.222-1.586-.17-3.049-.847-3.049-1.41 0-.106.596-.647 1.325-1.203 1.5-1.143 1.734-1.086 2.498.609.338.75.668 1.073 1.203 1.18.467.093.949.49 1.316 1.085.32.517.69.939.823.939.134 0 .243.238.243.53 0 .817-.614.63-1.667-.508zm-13.005-3.798c-2.366-1.34-3.651-4.331-3.068-7.14.385-1.855 1.026-2.763 2.697-3.816 1.24-.782 1.597-.878 3.257-.873 3.811.012 5.93 1.976 6.394 5.927.224 1.906-.362 3.497-1.751 4.751-1.907 1.723-5.538 2.278-7.529 1.15zm10.371-3.789c-.276-.276-.238-3.072.048-3.524.187-.295.392-.312.988-.082.413.16 1.14.367 1.614.46a8.008 8.008 0 0 1 1.677.577c.502.25 1.161.35 1.717.26.497-.081.903-.04.903.092 0 .425-.996.786-2.17.786-.79 0-1.452.208-2.128.667-1.053.716-2.33 1.084-2.649.764zm-15.967-.65c-.298-.299-1.23-.722-2.07-.942-2.039-.532-4.385-1.587-4.385-1.972 0-.326.241-.279 1.985.384 1.441.549 2.346.522 3.572-.103.57-.291 1.216-.53 1.435-.53.599 0 .946.869.946 2.365 0 1.108-.082 1.34-.47 1.34-.26 0-.715-.244-1.013-.542zm14.25-6.232c-.62-.519-1.125-1.092-1.125-1.275 0-.182.641-.646 1.425-1.03.906-.443 1.614-1.017 1.943-1.575.422-.716.776-.937 1.922-1.202.772-.178 1.462-.266 1.533-.194.071.07-.474.671-1.211 1.334-1.073.965-1.453 1.543-1.903 2.895-.453 1.362-.942 2.05-1.416 1.995-.024-.003-.55-.43-1.169-.948zm-12.973.277c-.401-.281-.588-.684-.588-1.267 0-.686-.229-1.047-1.158-1.824-.81-.676-1.21-1.244-1.33-1.881-.095-.502-.347-1.059-.561-1.237-.475-.394-.514-1.052-.062-1.052.18 0 1.043.749 1.918 1.665.875.915 2.275 2.113 3.113 2.66 1.66 1.087 1.692 1.314.382 2.752-.641.704-.927.735-1.714.184zm5.939-2.41c-.286-.286-.201-.962.222-1.773.217-.417.395-1.087.395-1.489 0-.402.161-.865.358-1.028.249-.206.32-.7.23-1.62-.1-1.044-.044-1.323.262-1.323.41 0 1.18 2.59 1.056 3.554-.035.281.127 1.09.362 1.796.594 1.788.424 2.059-1.29 2.059-.78 0-1.498-.08-1.595-.177z" id="path3670" fill="#212121" stroke-width=".265"></path></g></g></svg>