<svg width="152" height="156" xmlns="http://www.w3.org/2000/svg" viewBox="0 0 40.435 41.466"><title>shallie category food</title><g fill="#212121" class="nc-icon-wrapper"><g id="layer1" transform="translate(88.51 47.532)"><path d="M-72.932-6.537c-1.11-.252-2.538-.746-3.175-1.097-1.5-.827-1.491-.766-1.532-11.63-.044-11.898.025-12.064 5.269-12.783 1.237-.17 2.249-.424 2.249-.565 0-.142-.612-.555-1.36-.919-2.506-1.219-2.703-1.704-1.436-3.546l.777-1.129-.776-1.168c-.426-.642-.775-1.314-.776-1.493-.002-.45 1.133-1.149 2.743-1.689 1.34-.45 1.362-.474 1.754-1.999.218-.849.484-1.678.591-1.842.417-.642 1.307-.55 3.13.324 1.033.495 2.058.9 2.278.9.22 0 1.037-.544 1.816-1.21 1.99-1.7 2.458-1.58 3.176.814l.556 1.852h1.436c1.25 0 1.447.07 1.515.545.043.3-.166 1.114-.463 1.808-.704 1.641-.687 1.795.254 2.33.436.249.792.662.792.918 0 .257-.62 1.096-1.38 1.865l-1.38 1.397.454.769c.25.422.454.953.454 1.178 0 .42-1.448.96-2.588.962-.808.003-1.029.69-.432 1.35.45.497.485 1.258.512 11.001.025 9.146-.024 10.527-.385 10.939-.534.607-3.55 1.782-5.8 2.26-2.307.488-5.763.43-8.273-.142zm8.703-1.328c2.536-.608 4.294-1.427 4.294-2 0-.33-.102-.347-.578-.092-1.323.709-4.76 1.574-7.36 1.854l-2.777.298-2.646-.94c-2.394-.85-3.618-.966-2.723-.256.43.34 3.517 1.339 4.575 1.48 2.172.288 5.175.145 7.215-.344zm-2.031-4.505c3.392-.755 3.92-1.001 6.26-2.92.249-.204.29-1.038.161-3.369-.093-1.704-.196-3.132-.23-3.173-.033-.042-.76.194-1.617.525-1.377.531-2.012.598-5.525.585-3.036-.01-4.528-.143-6.35-.564-1.31-.302-2.47-.495-2.58-.428-.235.143-.218 4.113.027 6.161.212 1.773.702 2.12 4.314 3.053 3.031.783 2.649.774 5.54.13zm-6.194-3.288c-2.044-.729-2.563-1.806-1.337-2.771 1.516-1.193 4.745-1.381 6.446-.377.558.33.918.398 1.162.219 1.65-1.21 1.749-1.252 2.16-.91.307.254.388.764.33 2.079-.089 1.988-.44 2.264-1.894 1.486-.79-.423-.891-.418-2.109.107-1.461.63-3.282.693-4.758.167zm10.932-10.378c1.162-.386 1.473-.61 1.545-1.116.074-.523.005-.598-.397-.434-1.165.474-2.29.63-5.687.79-4.171.197-7.853-.18-9.168-.939-1.046-.602-1.374-.633-1.374-.126 0 1.198 2.45 2.008 6.879 2.275 4.3.26 6.413.144 8.202-.45zm.529-6.436c.444-.476 1.009-.794 1.407-.794 1.214 0 1.475-.233 1.322-1.178-.12-.74.012-1.042.864-1.986.842-.932.955-1.186.69-1.555-.867-1.204-.947-1.62-.492-2.573.243-.51.442-1.037.442-1.17 0-.132-.565-.277-1.256-.321-1.12-.072-1.265-.153-1.329-.742-.174-1.613-.367-2.381-.6-2.381-.137 0-.796.416-1.463.926-.667.509-1.403.926-1.635.926-.232 0-1.244-.38-2.249-.843-2.035-.938-2.154-.895-2.453.874-.199 1.177-1.004 1.963-2.244 2.189-1.618.295-1.736.499-.957 1.646.852 1.254.854 1.379.031 2.59-.364.537-.661 1.08-.661 1.206 0 .127.527.433 1.171.679 1.493.57 2.268 1.294 2.268 2.12 0 .574.118.653.992.665 1.198.016 3.331.268 3.484.412.06.057.519.103 1.018.103.668 0 1.105-.21 1.65-.793zm4.15 25.564c-.077-.2.463-2.195 1.2-4.432l1.34-4.067.194-4.71c.193-4.653.207-4.734 1.087-6.478.956-1.893 3.78-5.877 4.166-5.877.453 0 .888.797.758 1.387-.186.847-.876 3.176-1.627 5.492a338.726 338.726 0 0 0-1.487 4.762c-.464 1.528-.933 2.897-1.043 3.043-.109.145-.585 1.515-1.057 3.043-.883 2.858-1.976 6.192-2.45 7.474-.286.776-.85.965-1.081.363zm-23.916-1.024c-.138-.182-.51-1.343-.828-2.58a834.45 834.45 0 0 0-1.943-7.314c-1.307-4.842-1.403-5.081-2.164-5.424-.697-.314-.924-.723-1.806-3.254-.555-1.592-1.01-3.05-1.01-3.241 0-.477.524-.434 1.104.092.459.415.484.395.484-.388 0-.838.785-1.573 1.325-1.24.14.087.507.986.814 1.997.307 1.011.657 1.839.777 1.839s.15-.91.065-2.02c-.201-2.663.35-2.573 1.164.189.82 2.781.797 4.127-.082 5.045-.658.687-.681.797-.396 1.867.167.625.975 3.577 1.795 6.56 1.664 6.05 1.954 7.345 1.759 7.854-.17.44-.73.45-1.058.018z" id="path3858" fill="#212121" stroke-width=".265"></path></g></g></svg>