<svg width="140" height="133" xmlns="http://www.w3.org/2000/svg" viewBox="0 0 37.232 35.412"><title>shallie category animal</title><g fill="#212121" class="nc-icon-wrapper"><g id="layer1" transform="translate(-171.325 80.488)"><path d="M193.284-45.39c-1.855-.448-4.03-.496-7.845-.174-2.935.247-3.518.119-4.827-1.063-1.946-1.758-2.09-4.347-.432-7.704 1.18-2.388 2.134-3.517 4.096-4.85 2.703-1.835 5.964-2.314 8.276-1.215 1.318.626 5.663 4.742 6.273 5.942.764 1.502 1.603 4.476 1.602 5.678-.003 2.95-3.02 4.38-7.143 3.386zm-20.037-6.518c-1.06-.461-1.92-1.825-1.922-3.047-.003-2.152 2.789-6.086 4.317-6.086.337 0 1.229.183 1.981.407 1.045.31 1.406.554 1.526 1.031.249.993-.028 4.714-.405 5.441-1.193 2.303-3.35 3.187-5.497 2.254zm29.232-1.582c-2.326-1.619-3.298-6.379-1.686-8.253 1.287-1.496 4.156-.877 6.195 1.335 1.896 2.057 2.094 4.679.486 6.434-.73.796-1.032.926-2.419 1.042-1.397.117-1.701.05-2.576-.558zm-27.898-9.576c-.154-.395.904-2.473 1.26-2.473.255 0 .754.993 1.147 2.283.159.52.08.56-1.058.529-.676-.019-1.283-.17-1.349-.339zm6.59-.504c-1.962-1.375-1.83-4.637.32-7.876 1.582-2.383 3.628-2.911 5.773-1.49 1.332.881 1.79 1.792 1.781 3.534-.01 2.048-1.246 3.838-3.826 5.547-1.226.812-3.106.944-4.048.285zm22.868-.203l-1.019-.285.169-1.273c.41-3.09.971-2.765 2.719 1.578.157.39-.42.384-1.869-.02zm-9.123-.706c-1.708-1.237-2.514-2.712-2.642-4.83-.06-.984-.03-2.31.067-2.95.147-.98.304-1.217.999-1.505.996-.412 2.986-.414 4.231-.003 1.94.64 3.386 2.928 3.386 5.358 0 3.847-3.243 5.957-6.041 3.93zm-11.09-11.286c-.609-.251-.338-1.268.798-3.003.753-1.15 1.3-1.72 1.646-1.72.482 0 .513.163.435 2.25-.046 1.236-.103 2.263-.126 2.28-.18.139-2.493.3-2.753.193zm10.505-.503c-.28-.338-.259-.67.118-1.868.534-1.693 1.006-1.995 1.752-1.123 1.041 1.214 1.642 2.613 1.3 3.025-.436.526-2.726.501-3.17-.034z" id="path3725" fill="#212121" stroke-width=".265"></path></g></g></svg>