<?xml version="1.0" encoding="UTF-8" standalone="no"?>
<!-- Created with Inkscape (http://www.inkscape.org/) -->

<svg
   width="42.521095mm"
   height="41.68132mm"
   viewBox="0 0 42.521096 41.68132"
   version="1.1"
   id="svg5213"
   sodipodi:docname="shallie-category-cloth.svg"
   inkscape:version="1.1 (c68e22c387, 2021-05-23)"
   xmlns:inkscape="http://www.inkscape.org/namespaces/inkscape"
   xmlns:sodipodi="http://sodipodi.sourceforge.net/DTD/sodipodi-0.dtd"
   xmlns="http://www.w3.org/2000/svg"
   xmlns:svg="http://www.w3.org/2000/svg">
  <sodipodi:namedview
     id="namedview5215"
     pagecolor="#ffffff"
     bordercolor="#666666"
     borderopacity="1.0"
     inkscape:pageshadow="2"
     inkscape:pageopacity="0.0"
     inkscape:pagecheckerboard="0"
     inkscape:document-units="mm"
     showgrid="false"
     inkscape:zoom="0.47433592"
     inkscape:cx="-368.93685"
     inkscape:cy="-1.0541053"
     inkscape:window-width="1920"
     inkscape:window-height="1057"
     inkscape:window-x="1912"
     inkscape:window-y="-8"
     inkscape:window-maximized="1"
     inkscape:current-layer="layer1" />
  <defs
     id="defs5210" />
  <g
     inkscape:label="Layer 1"
     inkscape:groupmode="layer"
     id="layer1"
     transform="translate(-160.21417,-68.777589)">
    <path
       d="m 177.49609,109.80208 c -0.38074,-0.40526 -0.96703,-0.67741 -1.56748,-0.7276 -0.76366,-0.0638 -0.97647,-0.20159 -1.04383,-0.67586 -0.0683,-0.48101 -0.20473,-0.56557 -0.70845,-0.43915 -0.49879,0.1252 -0.70252,0.005 -1.01618,-0.60209 -0.21577,-0.41727 -1.1769,-1.94034 -2.13583,-3.38457 -0.9589,-1.44426 -1.74347,-2.71161 -1.74347,-2.81636 0,-0.21807 -3.24159,-5.784136 -4.06312,-6.976719 -1.81555,-2.635488 -3.07838,-4.689131 -3.70959,-6.032552 -0.66083,-1.406499 -0.69178,-1.611419 -0.3763,-2.490576 0.27356,-0.762265 0.27623,-0.980678 0.013,-1.069155 -0.1819,-0.06114 -0.33494,-0.309615 -0.3401,-0.552133 -0.005,-0.242543 -0.1725,-0.735647 -0.37189,-1.095798 -0.3165,-0.571712 -0.30097,-0.775494 0.12234,-1.6052 0.62219,-1.219597 0.96282,-1.487567 2.18006,-1.715056 1.14705,-0.214339 1.53794,0.0254 2.4838,1.523788 0.52184,0.826664 0.77875,0.996077 1.51051,0.996077 1.03055,0 1.32752,0.299985 2.61916,2.645833 1.06844,1.940428 4.22974,6.824927 6.84967,10.583334 1.84703,2.649643 4.28596,6.876287 4.08429,7.077977 -0.0655,0.0655 -0.65622,0.15287 -1.31273,0.1942 -1.42777,0.0899 -2.94045,0.96197 -3.63003,2.0928 -0.77965,1.27857 -0.60066,1.30207 0.62159,0.0816 1.10881,-1.1072 2.60273,-1.77363 3.97592,-1.77363 1.5063,0 2.59942,2.54984 1.63806,3.82087 -0.21365,0.2825 -0.38846,0.95846 -0.38846,1.50218 0,1.88005 -2.39798,2.81418 -3.69102,1.43782 z m 2.44871,-1.23383 c 0.19535,-0.31179 0.10758,-0.75528 -0.32731,-1.65365 -0.66546,-1.37464 -0.84894,-1.45483 -1.60309,-0.70069 -0.52607,0.52607 -0.52599,0.52861 0.058,1.73058 0.61584,1.2676 1.3217,1.50276 1.8724,0.62376 z M 163.43517,82.696259 c 0.41371,-0.318029 0.57793,-0.642355 0.46903,-0.926147 -0.40195,-1.047486 -1.7671,-0.669237 -1.7671,0.489611 0,1.039284 0.35764,1.159537 1.29807,0.436536 z m 19.21127,24.379771 c 0.42505,-1.01579 0.59957,-2.58877 0.34089,-3.07216 -0.14716,-0.27493 -0.67988,-1.04005 -1.18383,-1.70027 -0.50395,-0.66021 -1.22039,-1.80615 -1.59205,-2.546531 -0.81185,-1.617213 -3.82762,-6.145504 -5.91844,-8.886772 -0.83243,-1.091407 -1.90645,-2.69875 -2.3867,-3.571875 -0.48022,-0.873125 -1.3099,-2.242344 -1.84372,-3.042709 -0.5338,-0.800364 -1.1643,-1.832239 -1.40107,-2.293064 -0.29004,-0.564488 -0.69581,-0.896144 -1.2436,-1.01645 -1.17655,-0.258418 -0.91384,-0.893868 0.79063,-1.912382 2.0162,-1.204833 3.18646,-1.564163 6.34717,-1.949 5.43076,-0.66122 8.98652,-3.269059 10.24459,-7.513478 0.1793,-0.604864 0.39116,-0.79375 0.89037,-0.79375 0.69961,0 0.708,0.05485 0.46561,3.042708 -0.10731,1.322996 0.52986,1.202346 1.2954,-0.245322 0.34068,-0.64426 0.67699,-1.22891 0.74732,-1.299236 0.20892,-0.208915 1.18946,0.799782 1.18946,1.223618 0,0.456565 -0.91895,2.053352 -1.65801,2.881048 -0.55002,0.615924 -0.43016,1.144058 0.25958,1.144058 0.6358,0 2.19036,-1.283652 2.48129,-2.04888 l 0.25625,-0.673973 0.65336,0.61378 c 0.35936,0.337609 0.65336,0.758085 0.65336,0.934403 0,0.5325 -1.93365,2.253641 -2.71197,2.413899 -0.82797,0.170498 -0.90626,0.504667 -0.31573,1.347735 0.62928,0.898419 1.27825,0.713608 2.58059,-0.73488 0.65418,-0.727604 1.24608,-1.322917 1.31532,-1.322917 0.0693,0 0.2799,0.37174 0.4681,0.826082 0.33586,0.810869 0.317,0.849339 -1.02624,2.090791 -1.48905,1.37623 -1.63251,1.789191 -0.86328,2.48531 0.47556,0.430398 0.55679,0.43098 1.38906,0.01005 0.48617,-0.245877 1.14255,-0.683286 1.45862,-0.972026 l 0.5747,-0.52496 0.40389,0.78105 c 0.34928,0.675402 0.35348,0.853017 0.0312,1.313207 -0.205,0.292682 -0.73467,0.682069 -1.17703,0.865293 -0.93726,0.388223 -1.0255,0.990044 -0.26479,1.806549 0.62547,0.67138 0.93284,0.70178 1.84176,0.182192 1.0146,-0.579993 1.55512,-0.485775 1.75377,0.305752 0.2137,0.851429 -0.41019,1.414039 -1.56806,1.414039 -0.63098,0 -0.73678,0.08432 -0.58086,0.463021 0.10482,0.254662 0.2505,0.67138 0.32374,0.926042 0.18568,0.645821 0.52641,0.578723 1.23304,-0.242755 0.67715,-0.787242 1.32638,-0.720037 1.55683,0.161184 0.0944,0.360891 -0.0738,0.819838 -0.47527,1.296934 -1.12906,1.341808 -1.11821,3.135445 0.0114,1.887247 0.58475,-0.646113 1.14948,-0.667121 1.61044,-0.0599 0.57906,0.76282 0.41984,1.277991 -0.55774,1.804432 -0.50933,0.274294 -0.92605,0.643202 -0.92605,0.819811 0,0.613225 0.54378,0.651034 1.43569,0.0998 l 0.89688,-0.554302 0.55351,0.70366 c 0.30443,0.387032 0.55351,0.804412 0.55351,0.927523 0,0.12311 -0.52192,0.494003 -1.15983,0.824203 -1.03783,0.537237 -1.13504,0.665904 -0.92432,1.223354 0.17005,0.449924 0.36362,0.573379 0.69678,0.4445 1.22351,-0.473339 2.00072,-0.481488 2.33495,-0.02434 0.18645,0.254979 0.27725,0.624496 0.20177,0.821161 -0.17561,0.457623 -2.62298,1.27881 -3.1773,1.066112 -0.27462,-0.105384 -0.85651,0.246089 -1.675,1.011714 -1.28649,1.20333 -2.59453,1.74239 -4.23455,1.74509 -1.72778,0.003 -4.98602,0.77644 -6.71931,1.59538 -1.50429,0.71075 -1.84912,1.01791 -2.682,2.38895 -0.52567,0.86535 -1.13847,1.57335 -1.36178,1.57335 -0.28411,0 -0.34785,-0.13904 -0.21228,-0.46303 z"
       style="fill:#000000;stroke-width:0.264583"
       id="path4487" />
  </g>
</svg>
