<svg width="174" height="148" xmlns="http://www.w3.org/2000/svg" viewBox="0 0 46.148 39.246"><title>shallie category mystery</title><g fill="#212121" class="nc-icon-wrapper"><g id="layer1" transform="translate(-226.134 -25.016)"><path d="M244.911 64.125c-4.275-.246-5.678-.538-9.709-2.02-3.935-1.448-4.536-1.795-5.077-2.93-.741-1.553-.573-2.144 1.03-3.629 1.554-1.439 1.693-1.747 1.037-2.292-.23-.19-.651-.804-.937-1.366-.287-.562-1.44-2.12-2.56-3.465a347.537 347.537 0 0 1-2.387-2.88c-.295-.37-.24-.598.365-1.514.393-.592.787-1.076.877-1.074.09.003.979 1.311 1.976 2.909.997 1.598 2.103 3.174 2.457 3.502.354.329 1.246 1.353 1.981 2.276 1.509 1.893 1.417 1.877 4.862.836 3.898-1.179 12.878-1.753 16.542-1.058 2.407.456 2.562.407 3.368-1.077.4-.738 1.243-2.137 1.874-3.11 2.802-4.32 5.213-8.518 7.23-12.59 1.196-2.415 2.267-4.391 2.38-4.391.276 0 .598.635 1.393 2.747l.67 1.778-1.558 1.674c-.857.921-1.883 2.195-2.28 2.83-1.864 2.986-4.55 6.85-5.675 8.169-1.499 1.754-3.099 3.971-3.22 4.46-.054.223.357.492 1.104.722 1.68.516 1.782.49 2.349-.618.28-.546 1.664-2.54 3.077-4.432 1.412-1.892 2.756-3.827 2.986-4.3.509-1.048 1.113-1.13 1.113-.15 0 .391.187 1.38.417 2.198l.417 1.488-2.203 2.129c-1.212 1.17-2.71 2.577-3.328 3.125-.618.547-1.123 1.19-1.122 1.428 0 .237.477.703 1.058 1.035 1.868 1.067 2.909 2.147 2.909 3.02 0 2.048-5.361 5.336-10.143 6.218-2.558.472-8.47.63-13.273.352zm13.391-2.39c3.196-.598 4.853-1.285 6.057-2.513.636-.648 1.072-1.262.969-1.366-.103-.103-1.882.301-3.952.898-2.07.597-4.688 1.286-5.816 1.532-1.597.347-2.05.547-2.05.904 0 .253.08.538.176.635.266.266 3.002.212 4.616-.09zm-15.375-.21c0-.289-2.248-1.362-3.705-1.768-.654-.183-2.109-.673-3.232-1.09-1.52-.564-2.118-.68-2.341-.458-.903.903 1.1 2.246 4.118 2.762 1.019.174 2.269.406 2.778.515 1.282.274 2.382.292 2.382.04zm5.291-1.486c0-1.204-.259-1.476-1.417-1.488-.603-.007-1.573-.184-2.155-.393-1.155-.416-5.55-.542-5.308-.152.303.49 6.853 2.583 8.285 2.647.46.02.595-.119.595-.614zm5.784-.54c1.799-.508 3.675-1 4.17-1.093.495-.092.965-.274 1.045-.403.212-.342-6.333-.297-6.676.047-.155.155-.863.364-1.575.465-1.083.154-1.307.283-1.38.796-.13.913.148 1.426.682 1.257.255-.08 1.935-.562 3.734-1.07zm-2.143-2.583c-.332-.994-6.022-.945-6.022.052 0 .17 1.149.271 3.065.271 2.297 0 3.038-.08 2.957-.323zm-8.003-.846c.64-.69 2.132-1.208 3.487-1.21.464 0 .918-.122 1.009-.268.291-.472-.619-.59-2.049-.268-2.243.506-6.807 1.972-6.812 2.188-.003.109.846.198 1.884.198 1.657 0 1.96-.078 2.481-.64zm15.607.234c-.436-.2-1.01-.37-1.275-.376-.265-.006-1.634-.299-3.043-.65-3.224-.803-5.34-1.092-5.34-.728 0 .149.657.461 1.459.694.815.237 1.601.654 1.783.945.298.477.617.52 3.768.5 3.137-.02 3.371-.054 2.648-.385zm-20.879-.81c1.734-.524 3.42-1.014 3.747-1.09 1.145-.264.608-.638-.661-.461-1.663.232-6.95 2.017-6.781 2.29.193.312.26.298 3.695-.74zm26.303.694c0-.62-2.715-1.37-7.673-2.123-4.058-.616-3.35-.12 1.455 1.02 3.038.72 5.417 1.246 6.02 1.332.109.016.198-.087.198-.23zm-28.573-5.163c-.466-.814-2.027-4.124-3.47-7.356-1.442-3.232-2.983-6.458-3.424-7.168-.441-.71-.767-1.368-.725-1.462.43-.959 1.987-3.166 2.19-3.105.143.044 1.166 2.749 2.272 6.012 1.106 3.262 2.622 7.42 3.37 9.24 1.483 3.61 1.784 5.08 1.07 5.228-.297.062-.707-.383-1.283-1.39zm4.392-.29c-.088-.23-.16-.885-.16-1.455 0-.84.094-1.037.5-1.037.546 0 .822.49.822 1.456 0 .874-.264 1.455-.661 1.455-.187 0-.413-.188-.501-.419zm3.129-1.04c-.232-1.232.257-1.846.84-1.055.499.676.373 1.822-.212 1.933-.33.062-.495-.167-.628-.878zm4.119-.638c0-1.178.066-1.343.543-1.343.484 0 .535.14.463 1.255-.06.945-.194 1.276-.543 1.342-.392.074-.463-.119-.463-1.254zm3.886 1.132c-.327-.327-.191-1.344.226-1.69.617-.512 1.037.04.73.962-.252.755-.636 1.048-.956.728zm4.051-.243c0-.644.508-1.438.92-1.438.615 0 .716.474.251 1.183-.488.745-1.17.894-1.17.255zm-.684-3.488c-.362-1.21-.833-1.792-1.553-1.918-.97-.17-1.165-.72-.364-1.027.963-.368 1.575-1.216 1.734-2.403.19-1.421.66-1.243 1.009.384.226 1.056.42 1.347 1.124 1.68 1.025.486 1.071.765.182 1.104-.429.163-.854.684-1.182 1.448-.557 1.3-.738 1.44-.95.732zm-14.79-1.72c-.06-.182-.146-.629-.19-.992-.066-.557-.237-.675-1.07-.744-1.284-.106-1.423-.972-.2-1.24.683-.15.795-.295.795-1.03 0-1.918 1.482-2.377 1.636-.507.08.954.138 1.014 1.121 1.14 1.42.18 1.507.72.2 1.233-.703.276-1.016.542-.924.783.264.689-.164 1.687-.724 1.687-.293 0-.582-.148-.643-.33zm7.29-6.515c-.155-.29-.282-.926-.282-1.413 0-1.135-.65-2.06-1.449-2.06-.966 0-1.462-.275-1.462-.81 0-.348.263-.539.909-.66 1.244-.233 1.76-.898 1.962-2.528.213-1.712.7-1.963.938-.483.33 2.062.795 2.59 2.872 3.257.625.201.589.695-.052.695-1.003 0-1.897 1.109-2.23 2.766-.333 1.666-.748 2.091-1.206 1.236zm-10.385-1.555c-.218-.255-.672-1.177-1.01-2.05a44.46 44.46 0 0 0-1.519-3.365c-.527-1.037-.838-1.973-.747-2.249.206-.62 2.25-2.058 2.505-1.76.109.126.39 1.123.626 2.214.235 1.091.682 3.142.992 4.557.31 1.415.489 2.695.396 2.844-.253.411-.801.327-1.243-.191zm24.075-3.307c-.077-1.058-.136-1.133-.987-1.257-1.307-.191-1.327-.739-.047-1.242.686-.27 1.084-.594 1.084-.883 0-.25.158-.587.35-.747.49-.405.973.129.973 1.073 0 .67.089.74.926.74 1.238 0 1.281.806.072 1.342-.592.262-.929.642-1.097 1.238-.375 1.334-1.17 1.17-1.274-.264zm-5.82-2.273c-.157-1.069.438-5.564.782-5.907.326-.327 1.285-.149 1.994.37.453.331.428.461-.484 2.46-.53 1.16-1.13 2.495-1.334 2.968-.457 1.06-.813 1.1-.959.109z" id="path4254" fill="#212121" stroke-width=".265"></path></g></g></svg>