<?xml version="1.0" encoding="UTF-8" standalone="no"?>
<!-- Created with Inkscape (http://www.inkscape.org/) -->

<svg
   width="40.104504mm"
   height="40.443275mm"
   viewBox="0 0 40.104503 40.443274"
   version="1.1"
   id="svg5213"
   sodipodi:docname="shallie-category-synthesis.svg"
   inkscape:version="1.1 (c68e22c387, 2021-05-23)"
   xmlns:inkscape="http://www.inkscape.org/namespaces/inkscape"
   xmlns:sodipodi="http://sodipodi.sourceforge.net/DTD/sodipodi-0.dtd"
   xmlns="http://www.w3.org/2000/svg"
   xmlns:svg="http://www.w3.org/2000/svg">
  <sodipodi:namedview
     id="namedview5215"
     pagecolor="#ffffff"
     bordercolor="#666666"
     borderopacity="1.0"
     inkscape:pageshadow="2"
     inkscape:pageopacity="0.0"
     inkscape:pagecheckerboard="0"
     inkscape:document-units="mm"
     showgrid="false"
     inkscape:zoom="0.47433592"
     inkscape:cx="936.04549"
     inkscape:cy="-249.82295"
     inkscape:window-width="1920"
     inkscape:window-height="1057"
     inkscape:window-x="1912"
     inkscape:window-y="-8"
     inkscape:window-maximized="1"
     inkscape:current-layer="layer1" />
  <defs
     id="defs5210" />
  <g
     inkscape:label="Layer 1"
     inkscape:groupmode="layer"
     id="layer1"
     transform="translate(186.33118,-134.26938)">
    <path
       d="m -186.16053,174.31998 c -0.31099,-0.37473 -0.23786,-0.53079 0.5629,-1.20132 0.99608,-0.8341 3.82693,-2.3368 4.40217,-2.3368 0.21582,0 0.35462,0.30369 0.35462,0.77592 0,0.57615 -0.15328,0.82121 -0.59532,0.95181 -0.32742,0.0967 -1.26907,0.64053 -2.09256,1.20846 -1.65198,1.13924 -2.10069,1.24187 -2.63181,0.60193 z m 37.65534,-0.50176 c -0.65492,-0.52149 -1.8996,-1.13102 -2.94587,-1.44259 -2.10145,-0.62584 -2.70716,-1.13771 -2.08388,-1.76099 0.98216,-0.98216 7.49673,2.07611 7.30408,3.4289 -0.1248,0.87627 -0.99962,0.78959 -2.27433,-0.22532 z m -30.2818,-1.5017 c -0.83616,-0.22217 -1.02687,-0.41201 -1.23502,-1.22944 -0.66498,-2.61125 -0.69464,-2.47692 0.87468,-3.96115 0.79741,-0.75412 1.52239,-1.37115 1.61108,-1.37115 0.80708,0 4.10374,2.31309 4.10374,2.87938 0,0.42198 0.22,0.46175 2.05052,0.37073 2.45856,-0.12223 2.9569,0.10293 2.491,1.12549 -0.30062,0.65979 -0.40495,0.69707 -1.49381,0.53377 -1.47749,-0.22156 -2.99479,0.0529 -3.09962,0.56073 -0.091,0.44082 -2.64639,1.40152 -3.65226,1.37308 -0.3638,-0.0103 -1.10643,-0.13695 -1.65031,-0.28144 z m 1.65031,-1.66084 c 0,-0.21495 -0.29826,-0.58621 -0.66278,-0.82505 -0.52046,-0.34102 -0.74435,-0.36661 -1.04262,-0.11906 -0.53419,0.44336 -0.23121,1.01965 0.60331,1.14752 0.38788,0.0594 0.79451,0.12592 0.90366,0.14772 0.10914,0.0217 0.19843,-0.13621 0.19843,-0.35113 z m 1.96273,-0.0344 c 0.50282,-0.19293 0.56134,-0.89773 0.0746,-0.89773 -0.38126,0 -0.97895,0.51694 -0.97895,0.84667 0,0.25241 0.33104,0.27109 0.90439,0.0511 z m -0.37523,-1.66105 c 0,-0.35378 -1.23346,-1.08876 -1.82716,-1.08876 -0.74956,0 -0.95451,0.50159 -0.38213,0.93522 0.53977,0.40894 2.20929,0.52496 2.20929,0.15354 z m 8.65045,3.37976 c -0.96867,-0.56351 -1.03434,-1.45984 -0.30356,-4.14226 0.70199,-2.57686 1.36586,-3.95815 1.72101,-3.58098 0.39111,0.41531 1.57369,4.62185 1.56972,5.58347 -0.005,1.11535 -0.13438,1.36152 -1.04701,1.98607 -0.74663,0.51094 -1.25661,0.55134 -1.94016,0.1537 z m 1.93289,-2.10288 c 0,-0.13695 -0.11907,-0.24898 -0.26459,-0.24898 -0.14552,0 -0.26458,0.18564 -0.26458,0.41249 0,0.22688 0.11906,0.3389 0.26458,0.24897 0.14552,-0.0899 0.26459,-0.27556 0.26459,-0.41248 z m -0.0486,-2.01451 c -0.10787,-0.91123 -0.74517,-1.15496 -0.74517,-0.28499 0,0.67056 0.19153,0.99219 0.59084,0.99219 0.13091,0 0.20039,-0.31824 0.15433,-0.7072 z m 9.75548,3.97592 c -0.10004,-0.10007 -0.1819,-0.6363 -0.1819,-1.19169 0,-0.93937 -0.088,-1.05434 -1.26111,-1.64883 -0.87847,-0.44516 -1.40026,-0.93088 -1.7198,-1.60094 -0.55126,-1.15599 -0.5974,-2.49481 -0.0927,-2.68848 0.67956,-0.26078 2.26706,0.63434 2.83641,1.5993 0.30472,0.51644 0.63741,0.939 0.73933,0.939 0.10192,0 0.33366,-0.41034 0.51504,-0.91188 0.53721,-1.48564 2.92102,-2.62007 3.32012,-1.58001 0.54224,1.41303 -0.26326,3.09895 -2.13548,4.46955 -0.8501,0.62233 -1.11376,1.002 -1.18462,1.70606 -0.0882,0.87648 -0.46127,1.28193 -0.83531,0.90792 z m -3.62149,-1.29376 c -0.94588,-0.18169 -2.21588,-0.34319 -2.82223,-0.35891 -1.13607,-0.0294 -1.4228,-0.31303 -1.19684,-1.1838 0.117,-0.4509 0.3143,-0.47755 2.27163,-0.30681 2.78958,0.24334 3.86411,0.68294 3.86411,1.58086 0,0.37121 -0.0893,0.65786 -0.19844,0.63698 -0.10914,-0.0209 -0.97234,-0.18663 -1.91823,-0.36832 z m -6.87916,-9.24566 c 0,-0.63029 -0.43982,-1.98252 -1.21957,-3.74949 -0.48059,-1.08903 -0.46715,-1.92294 0.0341,-2.11527 0.22109,-0.0848 1.17359,-0.0716 2.11667,0.0294 2.01089,0.21535 2.13252,0.49583 0.91355,2.10685 -0.54813,0.72446 -0.78639,1.34046 -0.78639,2.03331 0,1.16017 -0.39881,2.35135 -0.78722,2.35135 -0.14911,0 -0.27111,-0.29525 -0.27111,-0.65612 z m -10.84792,-2.94108 c 0,-0.88331 0.87492,-1.93112 1.6801,-2.01211 0.67564,-0.068 0.84294,-0.24863 1.176,-1.26986 0.69781,-2.13977 0.83087,-2.38139 1.30542,-2.37041 0.52568,0.0122 2.71765,1.88968 2.71765,2.32781 0,0.15528 -0.41995,0.48165 -0.93324,0.72519 -0.51329,0.24358 -1.15549,0.72541 -1.42714,1.07075 -0.39005,0.49585 -0.74618,0.62791 -1.69338,0.62791 -0.96433,0 -1.30152,0.12969 -1.7198,0.66145 -0.59174,0.75224 -1.10561,0.86347 -1.10561,0.23927 z m 20.55749,-0.61402 c -0.86932,-0.93959 -1.12043,-1.05355 -2.69237,-1.2219 -1.5856,-0.16981 -3.04845,-0.84685 -3.04845,-1.41089 0,-0.10507 0.59642,-0.64585 1.32537,-1.20177 1.49982,-1.14376 1.73355,-1.08685 2.49799,0.60839 0.33803,0.74962 0.66728,1.0727 1.20221,1.1797 0.46702,0.0934 0.94901,0.49088 1.31673,1.08585 0.319,0.51617 0.68937,0.9385 0.82304,0.9385 0.13364,0 0.24299,0.23812 0.24299,0.52917 0,0.81761 -0.61484,0.63066 -1.66751,-0.50705 z m -13.00456,-3.79831 c -2.36596,-1.34009 -3.65141,-4.33115 -3.06838,-7.13965 0.38521,-1.85555 1.02651,-2.76307 2.69669,-3.81613 1.2409,-0.78243 1.597,-0.87781 3.25755,-0.87263 3.81101,0.0119 5.92958,1.97567 6.39397,5.92683 0.22395,1.9055 -0.3625,3.4966 -1.75119,4.75123 -1.90712,1.72294 -5.53818,2.27777 -7.52864,1.15035 z m 10.37076,-3.78833 c -0.27596,-0.27593 -0.23817,-3.07263 0.0476,-3.52406 0.18703,-0.29541 0.39243,-0.31261 0.98814,-0.0827 0.41362,0.15965 1.14019,0.36695 1.61462,0.46069 0.47439,0.0937 1.22891,0.35322 1.67669,0.57661 0.50146,0.25016 1.16091,0.34985 1.71712,0.25961 0.49665,-0.0806 0.90299,-0.0392 0.90299,0.0921 0,0.42545 -0.99613,0.78642 -2.17014,0.78642 -0.78954,0 -1.45219,0.20767 -2.12796,0.66685 -1.05347,0.71583 -2.32945,1.08408 -2.64904,0.76446 z m -15.96723,-0.65077 c -0.29832,-0.29831 -1.22994,-0.72194 -2.07031,-0.94138 -2.03856,-0.53235 -4.38407,-1.58745 -4.38407,-1.97213 0,-0.32578 0.24093,-0.27913 1.98438,0.38418 1.4411,0.54827 2.34598,0.5221 3.57187,-0.1033 0.5705,-0.29104 1.2164,-0.52916 1.43537,-0.52916 0.59859,0 0.94588,0.86788 0.94588,2.36386 0,1.10808 -0.0815,1.3403 -0.47037,1.3403 -0.25871,0 -0.71443,-0.24408 -1.01275,-0.54237 z m 14.24927,-6.23162 c -0.61847,-0.51856 -1.12448,-1.0922 -1.12448,-1.27482 0,-0.18259 0.64135,-0.64603 1.42523,-1.02986 0.90577,-0.44352 1.61393,-1.0177 1.94299,-1.57544 0.42236,-0.7158 0.77658,-0.93731 1.9217,-1.20163 0.77213,-0.17822 1.46214,-0.2658 1.53334,-0.19463 0.0712,0.0712 -0.47379,0.67183 -1.2111,1.33472 -1.07268,0.96443 -1.45288,1.54287 -1.90278,2.89478 -0.45329,1.3621 -0.94157,2.05005 -1.41592,1.99485 -0.0243,-0.003 -0.55052,-0.42944 -1.16898,-0.94797 z m -12.97186,0.2767 c -0.40137,-0.28115 -0.58804,-0.68329 -0.58804,-1.26688 0,-0.68604 -0.22899,-1.04645 -1.15863,-1.82351 -0.80905,-0.67627 -1.21031,-1.24399 -1.32993,-1.88153 -0.0942,-0.50218 -0.34671,-1.05865 -0.56116,-1.23661 -0.47453,-0.39383 -0.51316,-1.05251 -0.0617,-1.05251 0.18047,0 1.04368,0.74922 1.91823,1.66494 0.87453,0.91573 2.27526,2.1131 3.11272,2.66084 1.66116,1.08648 1.6927,1.31339 0.38253,2.75182 -0.64127,0.70409 -0.92704,0.73467 -1.71402,0.18344 z m 5.93836,-2.41036 c -0.28562,-0.28559 -0.20098,-0.96086 0.22212,-1.77207 0.21738,-0.41682 0.39523,-1.08685 0.39523,-1.48897 0,-0.40209 0.16111,-0.86481 0.35804,-1.02822 0.24876,-0.20648 0.31922,-0.70072 0.2309,-1.61991 -0.10036,-1.04434 -0.0453,-1.32276 0.26133,-1.32276 0.40912,0 1.17888,2.58993 1.05616,3.55359 -0.0358,0.28102 0.12697,1.08911 0.36169,1.79578 0.59383,1.78784 0.42399,2.05896 -1.28966,2.05896 -0.78068,0 -1.49881,-0.0794 -1.59581,-0.1764 z"
       style="fill:#000000;stroke-width:0.264583"
       id="path3670" />
  </g>
</svg>
