<svg width="44" height="44" xmlns="http://www.w3.org/2000/svg" viewBox="0 0 11.642 11.642"><title>shallie earth</title><g fill="#212121" class="nc-icon-wrapper"><g id="layer1" transform="translate(-159.894 -83.505)"><path d="M159.894 89.326v-5.821h11.642v11.642h-11.642zm10.211 3.664c.104-.168-.003-.445-.236-.616-.328-.239-.455-.946-.552-3.068-.07-1.517-.135-2.907-.145-3.09-.01-.181-.315-.33-.68-.33-.64 0-.66.055-.66 1.826 0 1.8-.014 1.834-.908 2.362-.698.411-.928.738-.993 1.413-.097 1.01-1.01 1.466-1.01.504 0-.678-.73-.73-1.22-.086-.303.4-.352.225-.36-1.29-.005-1.244.108-1.85.39-2.083.218-.181.396-.486.396-.678 0-.678-.537-.666-1.453.033-.901.687-.928.76-.928 2.515 0 1.4-.098 1.863-.434 2.05-.239.134-.35.378-.249.543.26.422 8.781.417 9.042-.005zm-3.398-4.152c.467-.575.436-2.423-.042-2.423-.516 0-2.802 2.596-2.802 3.182 0 .263.149.533.33.6.377.138 2.018-.749 2.514-1.36z" id="path8351" fill="#212121" stroke-width=".265"></path></g></g></svg>