<?xml version="1.0" encoding="UTF-8"?>
<svg width="8.9753mm" height="10.898mm" version="1.1" viewBox="0 0 8.9753 10.898" xmlns="http://www.w3.org/2000/svg">
 <g transform="translate(1.8521 3.175)">
  <path d="m0.51288 7.4333c-1.7697-0.74425-2.365-1.5744-2.365-3.2982 0-1.7942 1.3851-4.3119 3.42-6.2163l1.1687-1.0938 1.6005 1.7363c2.1829 2.3682 2.9124 3.9057 2.7688 5.8352-0.089218 1.1981-0.38367 1.8044-1.1551 2.378-1.2117 0.90106-4.0456 1.2444-5.4379 0.65889zm3.6955-1.3783c0.80992-0.80997 0.79539-0.90228-0.42558-2.6991l-1.0428-1.5347-0.89376 1.1209c-0.49154 0.61651-0.97875 1.4459-1.0826 1.8432-0.41587 1.5902 2.1708 2.5436 3.4448 1.2696z" style="fill:#0091ec;stroke-width:.39281"/>
 </g>
</svg>
