<?xml version="1.0" encoding="UTF-8"?>
<svg width="9.8364mm" height="10.266mm" version="1.1" viewBox="0 0 9.8364 10.266" xmlns="http://www.w3.org/2000/svg">
 <g transform="translate(-1.2634 -7.0873)">
  <path d="m4.8245 17.076c-0.46363-0.18883-0.83894-0.47519-0.83407-0.63638 0.012435-0.40563 7.1093-5.0564 7.1093-4.6588 0 0.48114-4.4829 5.4782-4.9916 5.5641-0.24238 0.0409-0.82002-0.08012-1.2836-0.26892zm-1.4986-2.3187c-0.46363-0.22611-0.84029-0.51181-0.83706-0.63484 0.0089958-0.34486 6.7304-4.6643 6.9368-4.4579 0.24887 0.24889-4.2659 5.34-4.8161 5.4309-0.24238 0.040058-0.82002-0.11213-1.2836-0.33822zm-1.5759-2.3313c-0.90673-0.50207-0.86341-0.5465 2.937-3.0127 2.1215-1.3768 3.94-2.4205 4.0409-2.3195 0.26421 0.26416-5.1338 5.8711-5.637 5.8552-0.23138-0.007144-0.83481-0.2426-1.3409-0.52287z" style="fill:#0a0;stroke-width:.37464"/>
 </g>
</svg>
