<svg xmlns="http://www.w3.org/2000/svg" width="71" height="95" viewBox="0 0 18.833 25.396"><title>ryza2 tool fishing rod</title><g fill="#212121" class="nc-icon-wrapper"><g transform="translate(124.192 -90.545)"><path d="M-108.015 115.94c-.379.004-.718-.254-.955-.723a8.23 8.23 0 0 1-.551-1.52c-.102-.437-.4-1.27-.663-1.853a37.428 37.428 0 0 1-.947-2.381c-.258-.728-.63-1.511-.83-1.74-.198-.23-.36-.612-.36-.849s-.485-1.537-1.077-2.89c-.592-1.352-2.214-4.632-3.604-7.287-1.39-2.656-2.636-4.83-2.77-4.83-.135 0-.781 1.111-1.437 2.468-.74 1.53-1.28 3.08-1.421 4.08-.137.97-.127 2.062.027 2.746.14.624.632 1.842 1.093 2.707.46.864 1.89 2.69 3.178 4.058 1.722 1.83 2.319 2.64 2.258 3.07-.067.47-.229.566-.832.496-.677-.08-.721-.038-.463.445.157.294.285.82.285 1.171 0 .351-.217.835-.483 1.076-.267.241-.657.438-.868.438-.21 0-.648-.185-.971-.412-.323-.226-.588-.667-.588-.979 0-.44.071-.496.318-.25.174.175.523.318.775.318.253 0 .533-.233.624-.519.09-.286.039-.754-.115-1.04-.153-.288-.28-.723-.28-.968 0-.332.169-.413.662-.318.364.069.662.043.662-.06 0-.101-.707-.734-1.572-1.406-.865-.671-2.168-2.069-2.896-3.105-.728-1.037-1.582-2.661-1.897-3.61-.419-1.257-.54-2.13-.45-3.22.067-.823.38-2.16.692-2.97.313-.811 1.104-2.273 1.759-3.248.654-.975 1.189-1.89 1.189-2.032 0-.142.182-.258.404-.258.222 0 1.566 1.16 2.986 2.58 1.42 1.419 3.4 3.77 4.4 5.225 1 1.455 2.297 3.539 2.884 4.63.586 1.092 1.223 2.08 1.414 2.196.19.117.347.429.347.694 0 .266.242 1.004.538 1.64.295.638.643 1.338.773 1.556.13.218.488 1.23.795 2.249.308 1.018.585 2.202.616 2.629.048.654-.11.873-1.002 1.385-.582.334-1.323.61-1.647.612zm-1.007-5.783c.504-.236.921-.579.926-.76.01-.182-.144-.331-.33-.331-.185 0-.602.185-.926.412-.323.226-.588.568-.588.76 0 .273.2.255.918-.081zm-1.248-1.754c.254-.105.671-.25.926-.324.254-.073.463-.298.463-.5 0-.2-.065-.365-.146-.365-.08 0-.496.181-.926.403-.43.222-.78.533-.78.69 0 .169.19.208.463.096zm-.77-1.514c.096-.05.505-.255.909-.457s.69-.496.634-.653c-.055-.157-.326-.245-.602-.195-.276.05-.708.274-.959.498-.251.225-.389.518-.306.652.083.134.228.203.324.155z" id="path1183-3-9" fill="#212121" stroke-width=".265"></path></g></g></svg>