<svg xmlns="http://www.w3.org/2000/svg" width="60" height="97" viewBox="0 0 15.914 25.762"><title>ryza2 category flowers</title><g fill="#212121" class="nc-icon-wrapper"><g transform="translate(63.207 93.566)"><path d="M-52.952-67.94c-.33.177-.51.18-.51.011 0-.144.291-.691.647-1.216.357-.525.729-1.492.827-2.15.106-.706.06-1.455-.113-1.835-.195-.43-.51-.64-.954-.64-.364 0-1.14.191-1.726.426-.702.28-1.403.367-2.056.254-.715-.123-.88-.096-.594.1.218.148.769.272 1.223.274.455.002 1.34-.177 1.966-.398.667-.235 1.238-.304 1.375-.167.138.138-.061.47-.48.8-.484.38-1.093.563-1.88.563-.64 0-1.586-.177-2.104-.394-.517-.216-1.407-.762-1.977-1.213-.57-.452-.969-.93-.887-1.062.082-.133.69-.242 1.352-.242 1.008 0 1.177-.07 1.037-.434-.147-.383.017-.416 1.36-.281l1.528.153-.624-.513-.625-.512h1.096c.603 0 1.51.172 2.014.383.871.364.917.356.917-.153 0-.295-.314-1.323-.699-2.284-.384-.961-.932-2.143-1.216-2.625-.472-.8-.631-.878-1.782-.878-.794 0-1.386-.145-1.59-.39-.246-.297-.254-.596-.032-1.231.16-.461.292-1.127.292-1.48 0-.468.126-.618.463-.555.255.047.672.502.926 1.011.337.675.463.78.463.39 0-.296-.192-.812-.427-1.148-.324-.462-.353-.684-.121-.916.232-.232.353-.23.501.01.108.174.667.47 1.243.66.666.218 1.082.53 1.146.86.055.286-.114.917-.376 1.403-.47.872-.467.899.219 2.259.598 1.187.696 1.278.71.666.009-.39.139-1.033.289-1.428.262-.689.288-.698.653-.216.35.464.38.422.392-.556.007-.582.16-1.347.34-1.699.18-.352.475-.69.657-.75.21-.069.272.044.17.31-.088.23-.029.42.132.42s.293-.175.293-.389c0-.213.37-.808.821-1.322.452-.515.918-.936 1.035-.936.118 0 .263.744.323 1.654.06.91 0 2.306-.134 3.103-.133.798-.41 1.777-.617 2.175-.206.4-.845 1.205-1.42 1.792-.575.586-1.117 1.066-1.206 1.066-.088 0-.078-.268.022-.595.1-.328.692-1.37 1.315-2.316.622-.945 1.27-2.237 1.44-2.87.17-.634.244-1.216.166-1.294-.078-.078-.265.18-.414.573-.15.394-.272.868-.272 1.054 0 .186-.472 1.068-1.048 1.96-.576.89-1.227 1.968-1.447 2.393-.357.69-.356.98.01 2.72.25 1.18.346 2.446.247 3.214-.09.697-.303 1.59-.472 1.985-.169.394-.53 1.044-.802 1.445-.271.4-.724.85-1.005 1.001zm-7.197-14.563c-.258 0-1.032-.502-1.72-1.117s-1.283-1.134-1.323-1.153c-.04-.02.004-.235.098-.48.094-.244.507-.618.92-.831.41-.213.984-.387 1.273-.387.289 0 .86.128 1.27.285l.745.285-.633.515c-.348.284-.568.58-.49.66.08.079.395-.012.7-.203.305-.19.555-.437.555-.547 0-.11.23-.201.513-.201.283 0 .563.089.623.198.06.11.003.59-.127 1.069-.148.544-.553 1.063-1.085 1.388-.468.285-1.061.518-1.32.519zm2.718-3.585c-.364.079-.87.018-1.125-.133-.254-.152-.463-.464-.463-.693 0-.319.18-.38.766-.264.662.132.748.083.631-.36-.086-.333.03-.577.331-.693.303-.116.6 0 .851.328.374.49.381.488.22-.052-.102-.346-.013-.684.235-.89.325-.27.429-.256.556.076.086.224.117.672.07.995-.049.324-.385.803-.75 1.066-.363.263-.958.542-1.322.62zm3.507.146c-.307 0-.75-.191-.984-.425-.329-.329-.355-.508-.118-.795.169-.203.68-.487 1.134-.63.809-.255.805-.258-.166-.12-.546.078-.992.068-.992-.023s.714-.88 1.586-1.752c.983-.982 1.763-1.552 2.05-1.498.363.07.483.405.547 1.527.045.791.016 1.702-.065 2.024-.09.354-.6.804-1.29 1.139-.629.304-1.395.553-1.702.553zm-5.558-.565c-.109-.02-.462-.087-.784-.15-.323-.062-.888-.472-1.257-.91-.423-.502-.67-1.121-.67-1.674 0-.786.088-.89.86-1.004a8.89 8.89 0 0 0 1.726-.487c.636-.263.987-.282 1.323-.072.265.166.49.696.54 1.27.045.54-.063 1.159-.241 1.373-.224.27-.408.305-.6.114-.15-.152-.579-.262-.95-.245-.546.024-.573.055-.145.158.29.07.642.234.78.366.157.149.132.239-.066.239-.174 0-.317.238-.317.529 0 .29-.09.513-.199.493zm2.696-2.16c-.155.05-.363.009-.463-.092-.1-.1-.182-.65-.182-1.222 0-.837.181-1.223.926-1.967.51-.51.926-1.106.926-1.325 0-.3.18-.357.728-.228.4.094.995.47 1.322.837.328.366.596.844.596 1.061 0 .218-.167.718-.37 1.11a5.168 5.168 0 0 1-.965 1.244c-.423.377-.628.434-.71.198-.064-.182-.285-.33-.49-.33-.207 0-.376-.096-.376-.212 0-.117.141-.353.313-.525.173-.172.24-.387.148-.478-.09-.091-.38.285-.644.836-.263.551-.605 1.043-.76 1.093z" id="path1196-1-8-0" fill="#212121" stroke-width=".265"></path></g></g></svg>