<svg xmlns="http://www.w3.org/2000/svg" width="73" height="71" viewBox="0 0 19.573 18.923"><title>ryza2 category dragon mat</title><g fill="#212121" class="nc-icon-wrapper"><g transform="translate(65.621 171.414)"><path d="M-59.517-152.491l-1.083-.217a7.652 7.652 0 0 1-1.72-.608c-.436-.231-1.114-.758-1.505-1.172-.392-.413-.955-1.287-1.251-1.941-.34-.752-.541-1.759-.545-2.73-.003-.846.124-1.78.282-2.076.158-.295 1.166-.938 2.24-1.427 1.602-.73 2.022-1.052 2.327-1.783.205-.49.7-1.15 1.102-1.465.401-.315.896-.574 1.1-.574.297 0 .31.113.066.568-.168.314-.244 1.095-.17 1.746.128 1.14.102 1.19-.784 1.56-.504.21-1.135.313-1.403.228-.268-.085-.564-.03-.658.121-.094.151-.001.275.205.275s.9.462 1.54 1.025c.64.564 1.43 1.56 1.757 2.212.4.801.592 1.664.592 2.655 0 1.34.047 1.455.532 1.328.293-.076.602-.417.687-.756.085-.339.091-1.069.013-1.622-.078-.553-.341-1.481-.585-2.064-.243-.582-.675-1.385-.96-1.785-.284-.4-.395-.728-.247-.728.148 0 .555.387.904.86.35.473.831 1.368 1.072 1.99.24.621.436 1.659.436 2.306 0 .973.074 1.149.426 1.014.344-.132.404-.464.314-1.712-.061-.851-.034-1.548.061-1.548s.311.304.48.674c.169.37.307.929.307 1.24 0 .533.048.521.815-.21.449-.428.983-1.175 1.187-1.66.204-.486.478-2.221.609-3.856.134-1.68.412-3.31.638-3.748.22-.427.63-.982.909-1.235.279-.252.976-.623 1.548-.824l1.04-.365-1.124-.341c-.618-.188-1.124-.435-1.124-.549 0-.114.1-.269.223-.345.123-.076.654-.02 1.18.126.545.15 1.187.59 1.496 1.023.297.418.54.83.54.917 0 .087-.422.158-.939.158-.516 0-1.275.174-1.687.386-.45.233-.918.814-1.177 1.46-.237.591-.43 1.638-.432 2.326 0 .688-.127 2.025-.28 2.971-.153.946-.534 2.234-.847 2.862-.314.628-1.069 1.602-1.678 2.164-.61.562-1.621 1.283-2.247 1.603-.626.319-1.788.804-2.581 1.077-.794.273-1.514.483-1.6.466zm-1.083-1.028c.194 0 .274-.08.177-.176a.25.25 0 0 0-.353 0c-.097.097-.018.176.176.176zm.794 0c.194 0 .273-.08.176-.176a.25.25 0 0 0-.352 0c-.097.097-.018.176.176.176zm-1.72-.265c.073 0 .133-.06.133-.132a.133.133 0 0 0-.133-.132.133.133 0 0 0-.132.132c0 .073.06.132.132.132zm2.382 0c.072 0 .132-.06.132-.132a.133.133 0 0 0-.132-.132.133.133 0 0 0-.133.132c0 .073.06.132.133.132zm-3.175-.529c.072 0 .132-.06.132-.132a.133.133 0 0 0-.132-.132.133.133 0 0 0-.133.132c0 .073.06.132.133.132zm3.704 0c.072 0 .132-.06.132-.132a.133.133 0 0 0-.132-.132.133.133 0 0 0-.133.132c0 .073.06.132.133.132zm-4.498-.529c.073 0 .132-.06.132-.132a.133.133 0 0 0-.132-.132.133.133 0 0 0-.133.132c0 .073.06.132.133.132zm-1.059-1.323c.073 0 .133-.06.133-.132a.133.133 0 0 0-.133-.132.133.133 0 0 0-.132.132c0 .073.06.132.132.132zm2.957 0c.193 0 .35-.05.35-.11 0-.061.083-.33.183-.596.147-.394.11-.428-.199-.184-.249.196-.596.218-1.005.064-.506-.192-.603-.386-.511-1.014.063-.428.017-.717-.103-.644-.119.074-.216.387-.216.697 0 .31.259.838.575 1.175.316.337.733.612.926.612zm2.6-.794c.072 0 .132-.06.132-.132a.133.133 0 0 0-.132-.132.133.133 0 0 0-.133.132c0 .073.06.132.133.132zm-6.086-.529c.073 0 .133-.06.133-.132a.133.133 0 0 0-.133-.132.133.133 0 0 0-.132.132c0 .073.06.132.132.132zm5.821-.264a.133.133 0 1 0 0-.265.133.133 0 0 0-.132.132c0 .073.06.133.132.133zm-.264-.53c.072 0 .132-.059.132-.132a.133.133 0 0 0-.132-.132.133.133 0 0 0-.133.132c0 .073.06.133.133.133zm-.265-.529c.073 0 .132-.06.132-.132a.133.133 0 0 0-.132-.132.133.133 0 0 0-.132.132c0 .073.06.132.132.132zm-5.512-.352a.25.25 0 0 0 0-.353c-.097-.097-.177-.018-.177.176 0 .194.08.274.177.177zm5.297-.177a.083.083 0 0 0 .083-.083c0-.045-.387-.432-.86-.86l-.86-.777.777.86c.427.473.814.86.86.86zm-5.077-.794c.073 0 .133-.06.133-.132a.133.133 0 0 0-.133-.132.133.133 0 0 0-.132.132c0 .073.06.132.132.132zm.232-.529c.055 0 .264-.208.463-.463.33-.42.32-.429-.1-.1-.254.2-.462.408-.462.463a.1.1 0 0 0 .1.1zm3.025-.268c.045.002.008-.115-.082-.26a.615.615 0 0 0-.478-.261c-.19.002-.157.106.081.26.219.141.434.258.479.26zm-1.691-.546c.279.011.435-.051.347-.14-.088-.087-.316-.097-.507-.02-.211.084-.149.147.16.16zm5.678-2.36c-.105 0-.264-.337-.354-.749-.09-.41-.033-1.095.128-1.52a4.972 4.972 0 0 1 .851-1.37c.307-.327.648-.595.759-.595.11 0 .19.363.178.806-.013.443.114.944.283 1.112.232.232.068.55-.675 1.31-.54.553-1.066 1.005-1.17 1.005zm2.668-2.911c-.134 0-.313-.273-.396-.606-.084-.333-.02-.958.144-1.389.163-.43.608-1.11.99-1.51.382-.401.761-.729.843-.729.082 0 .133.68.113 1.51-.03 1.283-.142 1.6-.742 2.116-.389.334-.817.608-.952.608zm3.075-1.956c-.31.119-.419-.004-.419-.47 0-.348.179-.887.398-1.2.218-.312.811-.704 1.317-.87.506-.168 1.057-.22 1.224-.117.212.131.172.262-.13.43-.238.134-.604.653-.814 1.155-.21.501-.555.911-.77.911a2.72 2.72 0 0 0-.806.16z" id="path1196-1-9-1" fill="#212121" stroke-width=".265"></path></g></g></svg>