<svg xmlns="http://www.w3.org/2000/svg" width="93" height="90" viewBox="0 0 24.606 23.913"><title>ryza2 category elixirs</title><g fill="#212121" class="nc-icon-wrapper"><g transform="translate(-2.898 91.18)"><path d="M15.816-67.278c-3.03.024-5.899.006-6.375-.04-.575-.055-1.012-.308-1.304-.754-.38-.58-.396-.835-.114-1.89.18-.67.519-1.625.754-2.12.406-.856.402-.917-.08-1.185-.279-.155-.835-.608-1.235-1.007-.577-.575-.728-.97-.728-1.906 0-.973-.118-1.258-.674-1.622-.37-.243-.906-.822-1.19-1.287-.283-.465-.515-1.12-.516-1.454 0-.335.167-.934.373-1.332s.682-.889 1.059-1.09c.418-.224.684-.593.684-.95 0-.322.19-.744.424-.937.234-.194.528-.625.655-.959.194-.51.422-.606 1.452-.606.985 0 1.248.1 1.356.51.074.282.29.571.48.644.19.073.422.483.516.912.1.452.599 1.122 1.192 1.598l1.021.82.271-.777c.175-.501.517-.84.96-.95.477-.12.85-.029 1.208.295.292.264.526.829.536 1.289.015.73.041.756.246.249.127-.314.591-.783 1.032-1.044.46-.272.869-.778.96-1.189.085-.393.388-.924.67-1.18.283-.256.514-.625.514-.821 0-.246.371-.356 1.2-.356.876 0 1.244.119 1.368.443.094.243.388.66.653.926.266.266.484.773.484 1.127 0 .408.19.704.522.81.287.09.763.472 1.058.846.316.402.536 1.078.536 1.646 0 .53-.205 1.258-.457 1.618-.251.36-.787.932-1.19 1.273-.567.478-.734.85-.734 1.633 0 .7-.208 1.262-.673 1.814-.37.44-.899.872-1.174.96-.483.152-.477.221.144 1.872.355.942.645 2.049.645 2.46 0 .41-.23.954-.51 1.207-.446.404-1.19.467-6.019.504zm-.7-.904c4.636.018 5.672-.047 5.998-.374.312-.311.34-.595.134-1.343a20.662 20.662 0 0 0-.773-2.14c-.281-.656-.511-1.361-.511-1.568 0-.206.247-.375.549-.375.302 0 .89-.34 1.305-.755.643-.643.737-.913.632-1.825-.114-.994-.057-1.11.818-1.651.518-.32 1.096-.898 1.285-1.284.189-.387.274-1.058.19-1.495-.104-.532-.48-1.004-1.144-1.434-.744-.481-.99-.819-.99-1.361 0-.414-.178-.79-.418-.882-.23-.088-.77-.16-1.2-.16-.43 0-.844.168-.924.376-.08.207-.186.594-.236.86-.05.266-.1.573-.112.682-.01.109-.183.198-.381.198-.199 0-.675.247-1.059.549-.547.43-.697.777-.697 1.618 0 .896.173 1.243 1.059 2.129.582.582 1.058 1.282 1.058 1.556s-.25.747-.554 1.052c-.328.328-.5.759-.421 1.058.093.356-.006.505-.336.505-.258 0-.931-.368-1.497-.818-.798-.634-1.21-.788-1.84-.686-.448.073-1.268.44-1.824.818-.555.377-1.172.686-1.37.686-.201 0-.36-.274-.36-.62 0-.342-.238-.837-.53-1.1-.29-.263-.528-.656-.528-.873 0-.217.535-.968 1.19-1.668.73-.78 1.19-1.52 1.19-1.91 0-.35-.235-.937-.524-1.304-.289-.367-.825-.743-1.19-.835-.522-.13-.666-.335-.666-.94 0-.425-.14-.86-.31-.964-.205-.127-.255-.05-.148.23.089.23.02.533-.154.671-.173.138-.605.227-.96.197-.356-.03-.7-.213-.765-.407-.065-.194.1-.512.366-.707.425-.31.431-.353.046-.353-.241 0-.561.23-.712.511-.15.282-.274.744-.274 1.027 0 .323-.298.637-.804.847-.442.183-.918.547-1.058.808-.14.262-.252.811-.249 1.22.003.41.212.992.463 1.292.252.3.785.75 1.185.998.63.392.728.622.728 1.728 0 .88.143 1.406.463 1.693.254.23.79.5 1.19.6.4.1.728.344.728.543 0 .2-.298 1.153-.662 2.12-.363.966-.661 2.03-.661 2.365 0 .334.149.668.33.741.183.073 2.853.143 5.935.154zm-.18-.52c-1.964-.002-3.78-.125-4.034-.274-.255-.148-.463-.434-.463-.634 0-.232.557-.481 1.52-.682.93-.193 2.643-.264 4.396-.182l2.874.136-.152-.83a31.228 31.228 0 0 0-.313-1.49c-.158-.643-.15-.647.26-.141.231.286.547.987.7 1.557.154.57.212 1.303.13 1.63-.082.327-.418.666-.747.755-.33.088-2.206.158-4.17.155zm.303-.517c2.215 0 2.89-.08 2.807-.33-.076-.228-.923-.355-2.715-.408-1.433-.042-2.77-.013-2.972.064-.202.078-.292.26-.202.407.095.153 1.409.267 3.082.267zm-5.55-5.3c-.242-.005-.664-.178-.937-.384-.287-.217-.43-.55-.34-.786.087-.225.34-.41.563-.41.28 0 .405-.263.404-.86 0-.769-.125-.91-1.19-1.348-.655-.27-1.19-.58-1.19-.689 0-.11.586-.143 1.303-.074 1.138.109 1.39.038 1.984-.556.375-.375.682-.96.682-1.302 0-.341-.141-.762-.313-.934-.173-.172-.24-.387-.149-.478.09-.09.47.14.843.513.372.373.677.924.677 1.225 0 .3-.476 1.064-1.058 1.695-.643.697-1.059 1.406-1.059 1.805 0 .362.238.873.53 1.136.29.263.529.626.529.807 0 .18-.189.4-.419.488a2.73 2.73 0 0 1-.86.152zm10.6.008c-.276 0-.581-.08-.678-.177-.097-.097-.177-.381-.177-.633 0-.25.179-.525.397-.609.242-.093.397-.493.397-1.028 0-.659-.23-1.093-.926-1.75-.707-.667-.926-1.087-.926-1.778 0-.552.206-1.11.53-1.434.29-.29.642-.529.78-.529.14 0 .05.356-.198.791-.409.718-.413.858-.046 1.518.223.4.732.842 1.13.982.48.168 1.084.16 1.779-.026.578-.154 1.052-.197 1.052-.094 0 .103-.218.384-.484.625-.266.24-.673.438-.904.438-.232 0-.58.06-.773.135-.197.076-.342.497-.328.958.014.471.212.928.463 1.069.241.135.439.414.439.62 0 .206-.23.497-.512.648-.282.15-.738.274-1.014.274zm3.122-5.821c-.15 0-.272-.231-.272-.514 0-.282-.12-.587-.265-.677-.146-.09-.265-.275-.265-.412 0-.137.175-.25.388-.25.213 0 .52.248.682.55.162.303.229.72.15.927-.08.207-.268.376-.418.376zm-2.261-3.017c-.398.043-.746-.08-.828-.294-.077-.202-.064-.493.03-.645.095-.153.515-.277.934-.277.42 0 .843.13.94.287.098.159.05.416-.106.572-.156.156-.593.317-.97.357zm-8.752 7.78c.113 0 .509-.239.879-.53.426-.335 1.071-.528 1.761-.527.641 0 1.415.218 1.883.527.436.29.913.524 1.058.52.146-.002-.13-.332-.611-.732-.794-.658-.85-.796-.596-1.465.155-.406.281-.859.281-1.006 0-.147-.308.099-.685.546-.377.448-.918.814-1.203.814-.284 0-.815-.297-1.179-.661-.363-.364-.705-.662-.758-.662-.054 0 .036.355.2.788.268.71.222.866-.47 1.587-.421.44-.674.8-.56.8zm-.674-1.059c.108 0 .339-.143.514-.317.174-.175.317-.475.317-.668 0-.268-.153-.25-.659.082-.363.238-.594.538-.514.668.08.13.234.235.342.235zm6.669 0c.119 0 .286-.113.372-.251.085-.138-.097-.386-.404-.55-.308-.165-.626-.234-.707-.153-.08.081.003.33.188.55.184.223.432.404.55.404zm-3.14-1.591c.1.002.368-.261.594-.584.227-.324.409-.89.404-1.257-.008-.634-.023-.641-.308-.14-.165.291-.43.618-.587.727-.164.112-.543-.116-.881-.53-.484-.592-.595-.637-.596-.245 0 .264.136.74.303 1.058.168.318.435.665.596.772.16.107.373.196.474.199zm-6.005-6.346a.133.133 0 1 0 0-.265.133.133 0 0 0-.132.132c0 .073.06.133.132.133zm15.202.403c-.13.081-.42-.289-.642-.822-.223-.533-.405-1.049-.405-1.147 0-.097-.506-.364-1.124-.592l-1.125-.415.988-.418c.73-.309 1.142-.735 1.574-1.624.323-.664.657-1.206.743-1.206.087 0 .34.506.564 1.124.313.866.646 1.24 1.444 1.629l1.037.504-1.104.49c-.84.372-1.177.709-1.409 1.41-.167.506-.41.987-.54 1.067zm.192-1.928c.204-.5.542-.86.812-.863.405-.005.393-.063-.094-.463-.307-.251-.652-.695-.767-.986-.195-.495-.226-.483-.479.178-.148.388-.517.827-.82.974-.481.233-.49.27-.076.285.292.011.593.351.776.875l.299.857zm-18.53 1.26c-.055 0-.295-.511-.534-1.136-.361-.947-.62-1.206-1.557-1.551l-1.123-.415.996-.422c.767-.324 1.116-.699 1.512-1.624.284-.66.62-1.202.747-1.202.128 0 .396.496.596 1.102.29.879.566 1.188 1.362 1.522.55.23 1 .49 1.002.579.002.088-.384.27-.857.406-.665.19-.995.53-1.453 1.494-.326.686-.637 1.247-.692 1.247zm.093-1.72c.146-.09.265-.329.265-.531 0-.203.208-.491.463-.641.387-.229.402-.313.089-.519-.206-.135-.515-.584-.687-.997l-.313-.751-.194.86c-.107.475-.362.86-.57.86-.207 0-.376.09-.376.2 0 .11.238.35.53.532.29.182.529.515.529.74 0 .226.119.337.264.247zm8.618.662c-.064 0-.268-.418-.453-.929-.241-.667-.58-1.017-1.207-1.244-.48-.173-.872-.384-.872-.468 0-.085.35-.286.778-.447.505-.191.918-.629 1.177-1.25.22-.524.463-.954.541-.954.078 0 .318.42.533.935.256.612.69 1.063 1.26 1.307l.87.372-.839.3c-.605.215-.954.587-1.254 1.338-.23.572-.47 1.04-.534 1.04zm.032-1.588c.078-.218.336-.55.574-.738.317-.25.347-.393.115-.536-.174-.108-.429-.49-.566-.85l-.25-.654-.189.728c-.104.4-.295.727-.425.727s-.236.12-.236.265c0 .145.179.264.397.264.229 0 .406.252.418.596.013.385.07.455.162.198z" id="path1196-1-8-04" fill="#212121" stroke-width=".265"></path></g></g></svg>