<svg xmlns="http://www.w3.org/2000/svg" width="85" height="75" viewBox="0 0 22.68 20.041"><title>ryza2 race sheep</title><g fill="#212121" class="nc-icon-wrapper"><g transform="translate(-276.808 -246.465)"><path d="M281.131 266.506c-.563-.004-1.24-.133-1.502-.286-.447-.26-.434-.32.198-.906.372-.345.677-.755.677-.91 0-.157-.328-.411-.728-.566a9.377 9.377 0 0 0-1.19-.375c-.255-.051-.757-.428-1.116-.836-.36-.409-.658-.892-.662-1.074 0-.182.237-.33.538-.33.3 0 .807-.134 1.125-.298.317-.163.905-.602 1.305-.975l.728-.679v.96c0 .693.164 1.076.588 1.373.323.227.867.412 1.208.412.34 0 .842-.12 1.114-.265.333-.178.733-.174 1.222.012.525.2.94.189 1.493-.04.422-.175 1.229-.318 1.794-.318s1.194.139 1.398.308c.203.169.337.606.297.972-.04.365-.351.903-.691 1.194-.34.292-1.06.766-1.6 1.053-.54.288-1.298.524-1.684.524-.607 0-.686-.09-.577-.662.102-.532.02-.661-.419-.661-.424 0-.474.07-.227.317.174.175.317.472.317.662 0 .189-.244.344-.542.344-.299 0-.904-.188-1.346-.416-.504-.26-.998-.853-1.323-1.588-.285-.644-.564-1.171-.62-1.171-.055 0 .024.386.176.86.152.472.302 1.24.333 1.703.031.465.21 1.03.398 1.257.3.362.217.412-.682.405zm9.691-.18c-.509.068-1.253.071-1.653.006-.4-.065-.728-.229-.728-.365 0-.136.125-.247.278-.247.153 0 .461-.438.685-.972.223-.535.436-1.25.472-1.588.036-.339.145-.695.241-.792a.654.654 0 0 0 .176-.396c0-.121-.171-.22-.381-.22s-.46-.127-.555-.282c-.096-.155.035-.512.29-.794.255-.281.737-.512 1.072-.512.334 0 .895-.131 1.247-.291.513-.234.96-.175 2.262.3.892.325 1.622.743 1.622.929 0 .186-.514.586-1.142.89-.628.304-1.336.553-1.572.553-.237 0-.51.13-.61.29-.099.16-.503.243-.9.184-.69-.101-.719-.06-.648.926.04.568.279 1.26.53 1.538.252.278.409.553.35.612-.06.059-.526.163-1.036.231zm2.952-.606c-.54 0-1.246-.185-1.57-.412-.335-.234-.588-.69-.588-1.058 0-.373.155-.646.365-.646.2 0 .5-.164.665-.363.166-.2.727-.432 1.248-.517.52-.084 1.358-.467 1.86-.851.736-.56.854-.77.605-1.071-.17-.205-.404-.373-.52-.373-.116 0-.757-.235-1.424-.52l-1.214-.521.53-.869c.29-.478.529-1.285.529-1.795 0-.509-.123-1.365-.272-1.902-.19-.684-.672-1.295-1.612-2.043-.737-.587-1.745-1.143-2.24-1.236-.496-.093-1.297-.095-1.78-.004-.485.09-1.229.528-1.654.973-.712.743-.774.963-.774 2.75 0 1.776.07 2.03.819 2.959.45.56 1.252 1.263 1.782 1.563.743.421.891.618.65.86-.173.172-.687.314-1.141.314-.521 0-1.028-.22-1.37-.596-.297-.327-.654-.95-.793-1.382-.233-.728-.263-.744-.403-.21-.086.33.064.98.351 1.515.36.671.409.945.171.966a7.802 7.802 0 0 1-.992-.023c-.364-.03-.93-.301-1.257-.605-.347-.321-.595-.864-.595-1.3 0-.41-.12-.747-.265-.747-.146 0-.264.268-.263.596 0 .327.18.936.397 1.353.217.417.395.804.395.86 0 .056-.414.102-.92.102-.664 0-1.026-.166-1.301-.596-.21-.327-.409-.833-.443-1.124-.034-.291.163-1.006.438-1.588.341-.725.5-1.655.502-2.955 0-1.606-.087-1.994-.591-2.53-.327-.349-.595-.938-.595-1.309s.246-.989.548-1.372c.302-.383.77-.697 1.04-.697.271 0 .566-.23.655-.513.09-.282.56-.86 1.043-1.285.839-.737 1.033-.781 4.206-.962 2.864-.163 3.46-.126 4.289.268.53.25 1.212.793 1.516 1.204.304.411.947.878 1.428 1.037.482.159 1.1.608 1.375.998.274.39.59 1.006.701 1.37.111.363.596 1.1 1.078 1.637.482.537.956 1.403 1.054 1.923.102.543.047 1.262-.13 1.687-.216.522-.227.95-.037 1.45.179.47.182.942.012 1.39-.142.375-.188.959-.103 1.299.085.34.037.838-.108 1.106-.145.268-.84 1.107-1.544 1.864-.704.757-1.615 1.502-2.025 1.654-.41.152-1.187.277-1.727.277zm-15.426-5.291c-.302 0-.61-.283-.772-.706-.191-.505-.181-.76.036-.894.213-.131.218-.218.017-.287-.158-.054-.22-.355-.137-.67.083-.316.651-.837 1.275-1.168.622-.33 1.32-.522 1.563-.429.286.11.436.469.432 1.036 0 .478-.227 1.156-.497 1.507l-.49.639-.307-.573c-.179-.334-.55-.565-.892-.555l-.586.016.6.242c.331.133.672.424.758.648.086.224.01.584-.17.8-.18.216-.554.394-.83.394zm11.892-.795c-.649 0-1.49-.216-1.959-.502-.452-.276-1.061-.9-1.355-1.388-.293-.488-.612-1.22-.707-1.625-.096-.406-.047-1.207.107-1.782.155-.574.554-1.361.888-1.75.478-.555.857-.71 1.777-.731 1.13-.026 1.168 0 1.116.733-.03.418-.254.98-.497 1.25-.43.475-.462.474-1.106-.033-.365-.287-.796-.518-.958-.514-.163.004.032.21.432.458.553.343.728.658.728 1.316 0 .536-.132.865-.347.865-.19 0-.577.18-.86.4-.478.375-.465.381.194.1.404-.173 1.114-.226 1.654-.125.52.098.944.321.94.497 0 .175-.235.824-.516 1.443-.28.618-.41 1.124-.289 1.124.122 0 .414-.405.649-.9.235-.495.428-1.12.429-1.389 0-.269.344-.684.764-.923.738-.42.772-.414 1.04.175.153.335.356 1.027.452 1.538.159.845.101.968-.632 1.347-.443.23-1.318.416-1.944.416zm3.26-1.513c-.219.22-.296.091-.296-.491 0-.433-.209-1.082-.463-1.442-.266-.375-.463-1.133-.463-1.778 0-.618.07-1.124.157-1.125.087 0 .38.245.65.544.34.376.526 1.075.602 2.27.068 1.066 0 1.839-.187 2.022zm-12.194-1.661c-.133.563-.23.706-.246.363-.015-.31-.204-.71-.42-.89-.32-.265-.645-.195-1.726.37l-1.333.697.414-.998c.227-.548.676-1.206.998-1.461.321-.256.881-.434 1.244-.397.403.04.782.325.974.728.204.431.237.984.095 1.588zm8.997-.265c-.524 0-.883-.183-1.08-.55-.16-.302-.228-.719-.149-.926.079-.207.38-.376.667-.376.287 0 .708.265.934.588.227.324.412.74.412.926 0 .198-.324.338-.784.338zm1.323-.801c-.206.326-.276.305-.432-.132-.102-.287-.415-.777-.695-1.09-.333-.37-.411-.628-.226-.743.157-.096.285-.407.285-.689s.1-.514.223-.514.421.218.662.484c.24.266.436.891.434 1.39 0 .497-.115 1.08-.25 1.294zm-12.054-1.498c-.506.241-.92.332-.92.202s.36-.54.8-.91c.441-.372.968-.61 1.173-.532.204.078.499.508.655.956.28.806.278.81-.252.33-.506-.458-.587-.46-1.456-.046z" id="path1215-9-45" fill="#212121" stroke-width=".265"></path></g></g></svg>