<svg xmlns="http://www.w3.org/2000/svg" width="73" height="79" viewBox="0 0 19.315 20.902"><path d="M10.993 20.902h-6.23v-.662c0-.382.152-.661.36-.661.2 0 .675-.247 1.059-.549.383-.301.697-.761.697-1.022 0-.398-.294-.496-1.815-.605-1.227-.087-2.173-.331-2.923-.753-.61-.343-1.341-.999-1.625-1.458C.232 14.732 0 14.178 0 13.96c0-.254.359-.457.992-.561.546-.09 1.31-.166 1.698-.167s.755-.152.815-.334c.084-.251 1.84-.35 7.298-.409l7.188-.078v.915c0 .87-.054.924-1.124 1.101-.618.103-1.437.347-1.818.542-.382.195-.751.573-.82.839-.07.266-.032.74.084 1.054.136.368.525.63 1.095.737.486.09 1.057.127 1.27.08.302-.066.405.281.466 1.569l.08 1.654zM5.394 12.17c-.053 0-.28-.44-.504-.978-.225-.538-.35-1.133-.277-1.323s.278-.344.456-.344q.32-.002-.077-.331c-.22-.182-.731-1.131-1.135-2.109-.696-1.685-.717-1.849-.388-3.13.264-1.03.524-1.445 1.088-1.737.698-.36.755-.348.977.22.13.333.481 1.17.781 1.861s.677 1.257.837 1.257 1.835-.771 3.722-1.713 3.82-2.01 4.296-2.373A10 10 0 0 1 17.005.405C17.539.182 18.095 0 18.241 0c.147 0 .448.35.67.78s.404.95.404 1.157c0 .234-2.196 1.361-5.82 2.99-3.2 1.437-5.82 2.762-5.82 2.944a.34.34 0 0 0 .346.33c.191 0 .558.442.815.98.45.943.449.995-.017 1.347-.266.201-1.124.653-1.906 1.004s-1.465.638-1.518.638z"/></svg>