<svg xmlns="http://www.w3.org/2000/svg" width="63" height="71" viewBox="0 0 16.703 18.823"><title>ryza2 category armor</title><g fill="#212121" class="nc-icon-wrapper"><g transform="translate(35.245 234.798)"><path d="M-27.135-215.975c-.155 0-.988-.417-1.853-.927-.864-.51-2.141-1.55-2.838-2.31-.697-.761-1.549-1.98-1.894-2.711-.345-.73-.825-2.089-1.066-3.019-.24-.93-.447-2.537-.459-3.571-.011-1.035.116-2.372.283-2.971.292-1.05.366-1.107 1.956-1.544.91-.25 2.618-.75 3.797-1.112l2.144-.658 2.75.793c1.514.436 3.248.923 3.856 1.082.973.255 1.159.431 1.56 1.482.357.936.422 1.663.3 3.369-.087 1.196-.413 3.009-.727 4.027-.313 1.02-.821 2.27-1.129 2.779-.308.509-1.16 1.568-1.892 2.352-.824.881-1.94 1.716-2.92 2.183-.874.416-1.714.756-1.868.756zm.13-1.323c.209 0 .896-.25 1.527-.555.63-.305 1.701-1.11 2.379-1.786.75-.75 1.593-2.006 2.156-3.215.825-1.774.936-2.279 1.042-4.762.104-2.438.058-2.848-.375-3.343-.3-.343-1.708-.956-3.596-1.565l-3.102-1-3.248 1.057c-2.587.842-3.314 1.188-3.575 1.697-.18.352-.328 1.541-.33 2.643-.002 1.1.188 2.649.422 3.44.235.79.72 2.014 1.077 2.72.358.708 1.174 1.795 1.814 2.416.64.622 1.673 1.384 2.297 1.692.623.309 1.303.561 1.512.561zm-.038-1.334c-.188-.006-.774-.24-1.303-.52-.528-.28-1.447-1.06-2.041-1.735-.595-.675-1.346-1.9-1.67-2.722-.435-1.1-.595-2.068-.605-3.667-.01-1.608.09-2.269.383-2.538.218-.2 1.468-.761 2.777-1.245l2.381-.88 2.514.874c1.383.48 2.693 1.04 2.911 1.244.293.274.393.94.383 2.545-.01 1.6-.17 2.567-.604 3.667-.325.822-1.077 2.047-1.672 2.723-.595.676-1.539 1.462-2.097 1.747-.559.285-1.17.513-1.357.507z" id="path1196-1-81" fill="#212121" stroke-width=".265"></path></g></g></svg>