<svg xmlns="http://www.w3.org/2000/svg" width="60" height="79" viewBox="0 0 16.132 21.113"><title>ryza2 category fuel</title><g fill="#212121" class="nc-icon-wrapper"><g transform="translate(10.697 120.182)"><path d="M-4.214-99.117c-.48.107-1.108.032-1.588-.19-.437-.201-1.593-1.124-2.57-2.05-.978-.927-1.901-2.02-2.051-2.43a5.256 5.256 0 0 1-.274-1.507c0-.423.825-2.373 1.852-4.38 1.019-1.99 1.852-3.902 1.852-4.248 0-.346.11-.629.246-.629.134 0 .297.208.361.463.082.325.259.125.592-.67.261-.622.605-1.088.763-1.036.158.052.418.681.577 1.397l.29 1.301.436-1.433c.24-.788.58-2.425.756-3.638.175-1.212.4-2.115.498-2.006.098.109.441 1.002.762 1.984.32.982.65 1.786.731 1.786.081 0 .281-.182.444-.405.242-.33.514.089 1.465 2.248.643 1.46 1.268 2.655 1.39 2.655.123 0 .422-.417.665-.926.242-.51.538-.926.657-.926.118 0 .215.04.215.089 0 .049.357 1.805.792 3.902.435 2.098.79 4.469.788 5.27-.002.848-.207 1.895-.492 2.513-.269.582-.772 1.318-1.119 1.636-.347.317-.977.709-1.402.87-.424.16-1.496.275-2.38.254-.886-.022-2.027-.046-2.537-.054a8.965 8.965 0 0 0-1.72.16zm4.716-1.237c.716-.056 1.58-.327 1.968-.616a7.28 7.28 0 0 0 1.224-1.23c.37-.496.568-1.257.646-2.48.062-.97-.033-2.576-.21-3.568s-.416-1.86-.53-1.931c-.114-.07-.192 1.469-.174 3.42l.032 3.55-.884.915c-.487.504-1.238.987-1.67 1.073-.442.088-1.176-.006-1.678-.216-.493-.205-1.077-.73-1.306-1.174-.228-.44-.415-1.051-.415-1.357 0-.305.181-.905.402-1.332.22-.427.683-.847 1.026-.933.344-.087.964-.118 1.378-.07.47.054.869.319 1.06.704.169.34.244.856.168 1.147-.076.291-.416.656-.755.81-.462.21-.723.194-1.036-.067a3.362 3.362 0 0 1-.681-.836c-.211-.395-.144-.537.345-.733l.607-.244-.586-.016c-.322-.01-.71.213-.86.495-.15.281-.274.739-.274 1.017 0 .278.216.701.48.94.265.24.848.508 1.296.598.616.123.947.03 1.358-.38.298-.298.683-1.055.855-1.681.253-.925.233-1.555-.11-3.358-.236-1.237-.86-3.15-1.41-4.324l-.988-2.106-.56 1.282-.56 1.282-.328-1.66c-.18-.913-.44-1.59-.577-1.506-.137.085-.25.331-.25.546 0 .216-.246.874-.546 1.464-.3.589-.677 1.804-.837 2.701l-.29 1.63-.334-.794c-.183-.436-.413-1.359-.51-2.05-.098-.691-.269-1.257-.38-1.257-.11 0-.725.713-1.364 1.585-.64.872-1.548 2.271-2.02 3.11-.52.924-.854 1.887-.85 2.449.002.51.18 1.157.393 1.44.364.48.388.45.388-.472 0-.542.164-1.378.365-1.858.2-.48.693-1.132 1.094-1.447.413-.325 1.107-.574 1.6-.574.48 0 1.06.188 1.288.416.229.229.425.556.437.728.012.171.247-.165.522-.747.276-.582.504-1.445.508-1.918.004-.473.126-.86.272-.86.148 0 .264.74.264 1.688 0 .928-.178 2.115-.397 2.637-.218.522-.396 1.56-.396 2.307 0 .747.199 1.777.442 2.29.254.536.787 1.088 1.256 1.3.473.215 1.351.328 2.092.27zm-5.319-.174c.404 0 .735-.045.735-.099 0-.055-.179-.605-.397-1.224-.218-.619-.397-1.467-.397-1.885 0-.63-.111-.76-.642-.76-.354 0-.83-.188-1.059-.417-.228-.228-.416-.518-.416-.644 0-.125.117-.534.258-.907.142-.373.389-.679.547-.679.173 0 .219.223.115.551-.148.464-.077.537.445.463.461-.065.62-.257.62-.749 0-.55-.142-.675-.844-.743-.671-.065-.938.062-1.306.624-.315.481-.462 1.225-.46 2.331.003.996.175 1.951.446 2.468.242.464.706 1.03 1.03 1.257.325.227.92.413 1.325.413zm6.77-14.29c-.102.002-.37-.262-.596-.586-.227-.323-.41-.948-.408-1.389.002-.44.163-1.333.357-1.983l.354-1.182.316.957c.173.527.28 1.683.237 2.57-.042.887-.16 1.613-.26 1.614z" id="path1196-1-2-33" fill="#212121" stroke-width=".265"></path></g></g></svg>