<svg xmlns="http://www.w3.org/2000/svg" width="70" height="69" viewBox="0 0 18.677 18.266"><title>ryza2 type synthesis</title><g fill="#212121" class="nc-icon-wrapper"><g transform="translate(20.304 -4.109)"><path d="M-11 22.374c-1.439-.01-3.107-.187-3.815-.405-.967-.297-1.389-.317-1.82-.087-.434.233-.61.222-.774-.045-.118-.19-.159-.435-.09-.544.067-.11-.196-.409-.586-.664-.39-.256-1.049-.934-1.464-1.507-.523-.722-.755-1.359-.755-2.074 0-.567.176-1.372.392-1.788.215-.417.816-1.107 1.335-1.535.878-.724.921-.828.62-1.489-.267-.586-.255-.78.07-1.104.216-.216.981-.616 1.7-.888 1.005-.381 2.102-.505 4.747-.535 1.892-.022 4.07.096 4.843.261.772.166 1.72.574 2.107.907.62.533.667.685.401 1.27-.275.604-.214.733.698 1.466.55.443 1.2 1.223 1.442 1.735.317.667.39 1.247.262 2.055-.125.78-.49 1.461-1.196 2.227-.56.606-1.017 1.35-1.017 1.652 0 .303-.13.631-.29.73-.159.098-.467.002-.683-.215-.348-.348-.576-.337-1.983.101-1.117.348-2.347.49-4.145.476zm-.255-9.265c1.412.013 3.198-.11 3.969-.272.771-.163 1.55-.415 1.733-.562.182-.146.33-.426.33-.623 0-.206-.627-.54-1.482-.788-.907-.264-2.524-.438-4.167-.45-1.477-.01-3.304.132-4.06.315-.758.183-1.52.506-1.696.718-.219.264-.234.47-.047.657.15.15.853.431 1.563.626s2.446.366 3.857.379zm-1.662-3.945c-.593 0-.772-.122-.772-.525 0-.33.219-.568.595-.645.328-.067 1.348-.177 2.269-.246 1.076-.08 1.855-.29 2.182-.586.28-.254.51-.687.51-.963 0-.323-.328-.639-.917-.885-.505-.211-1.271-.384-1.703-.384-.432 0-1.118.127-1.524.281-.407.155-.824.417-.926.583-.103.166-.128.397-.056.513.072.116.435.21.808.21.571 0 .627-.062.352-.393-.263-.317-.25-.423.067-.545.217-.083.962-.114 1.657-.07.841.055 1.357.235 1.548.538.21.337.197.545-.051.793-.198.197-1.222.377-2.482.434-1.18.053-2.601-.04-3.159-.207-.557-.167-1.126-.514-1.264-.771-.138-.258-.17-.594-.07-.748.099-.154.57-.48 1.046-.724.477-.244 1.549-.532 2.382-.64.833-.108 2.169-.098 2.97.022.8.12 1.871.422 2.38.67.792.386.926.583.926 1.362 0 .751-.153 1.001-.87 1.42-.491.287-1.756.607-2.908.737-1.121.125-2.08.35-2.129.498-.05.149-.437.27-.861.27z" id="path990" fill="#212121" stroke-width=".265"></path></g></g></svg>