<svg xmlns="http://www.w3.org/2000/svg" width="88" height="79" viewBox="0 0 23.396 21.133"><title>ryza2 race knight</title><g fill="#212121" class="nc-icon-wrapper"><g transform="translate(-309.86 -187.92)"><path d="M327.543 209.053c-.364-.005-1.063-.184-1.553-.397-.49-.213-1.812-1.313-2.937-2.446l-2.045-2.06.353-1.18c.194-.65.355-2.015.358-3.034 0-1.379.14-2.074.533-2.719.29-.476.834-.982 1.207-1.124.373-.142 1.117-.257 1.654-.256.536 0 1.293.212 1.683.468.39.257.955.781 1.257 1.165.301.383.548.818.548.965 0 .148-.387.352-.86.453a7.667 7.667 0 0 0-1.554.54c-.381.195-.758.6-.836.9-.08.301-.023.99.124 1.533.146.542.514 1.253.816 1.58.303.328.835.596 1.183.596.423 0 1.057-.46 1.917-1.39.934-1.01 1.365-1.31 1.58-1.1.218.211.215.49-.01 1.058-.168.424-.334 1.55-.369 2.502-.035.953-.207 2.001-.383 2.33-.175.328-.699.828-1.162 1.111-.464.283-1.141.51-1.505.505zm.179-1.313c.594 0 1.002-.204 1.39-.696.3-.383.548-.795.548-.914 0-.12-.303.086-.674.456-.397.397-.84.61-1.08.517a2.636 2.636 0 0 0-.781-.156c-.206 0-.837-.417-1.402-.928-.565-.51-1.306-1.552-1.646-2.315-.46-1.033-.617-1.859-.612-3.239 0-1.019.156-2.15.338-2.513l.33-.662-.544.625c-.45.516-.542.974-.532 2.646.01 1.111.173 2.473.37 3.027.197.553.698 1.495 1.113 2.094.415.599 1.111 1.307 1.548 1.573.436.266 1.172.485 1.634.485zm-14.769.001c-.07 0-.467-.354-.882-.788-.718-.748-.74-.84-.436-1.852.175-.585.439-1.064.586-1.064.147 0 .618.182 1.047.404.658.34.781.562.781 1.414 0 .643-.176 1.17-.484 1.448-.266.241-.541.438-.612.438zm4.281-.02c-.078-.01-.647-.213-1.265-.45-.933-.359-1.15-.58-1.286-1.305-.117-.622-.023-1.082.325-1.6.48-.713.492-.715.578-.13.066.45.263.595.813.595.477 0 .993-.29 1.503-.842l.777-.841-.763.577c-.42.317-.978.576-1.241.576-.263 0-.539-.098-.613-.217-.074-.12.812-1.16 1.97-2.31l2.103-2.09v-2.174c0-1.195.119-2.247.264-2.337.146-.09.265-.697.265-1.35 0-.908-.153-1.34-.65-1.837-.357-.357-.855-.65-1.107-.65s-.717.244-1.034.542l-.576.54-1.334-.829c-1.29-.802-1.382-.82-2.772-.53-1.087.225-1.578.487-2.01 1.07-.314.426-.571 1.129-.571 1.563 0 .434-.116.86-.257.947-.142.088-.333-.143-.426-.513-.093-.37-.088-1 .011-1.4.1-.4.874-1.405 1.723-2.234 1.298-1.266 1.848-1.598 3.46-2.088 1.662-.505 2.283-.56 4.659-.415 1.508.093 3.154.34 3.659.552.504.21 1.148.762 1.43 1.226.282.464.595 1.551.695 2.416.149 1.279.294 1.623.781 1.845.33.15.852.746 1.16 1.326.31.579.475 1.007.367.951a53.822 53.822 0 0 0-1.195-.556c-.548-.25-1.5-.523-2.116-.607-.908-.124-1.262-.04-1.879.447-.418.33-.912.966-1.099 1.415-.186.448-.417 1.53-.512 2.403-.096.873-.544 2.6-.996 3.836-.468 1.282-1.225 2.733-1.76 3.374-.516.618-1.003 1.115-1.08 1.105zm-3.029-3.685c-.159 0-.663-.23-1.122-.51-.59-.36-.995-.94-1.389-1.993-.305-.816-.555-1.562-.555-1.657 0-.094.336.15.747.545l.748.716 1.112-1.319c1.016-1.205 1.168-1.294 1.752-1.027.573.26.749.177 1.691-.803.579-.602 1.17-1.095 1.316-1.095.145 0 .452.072.682.16.302.117.418.519.418 1.45 0 1.287 0 1.287-.788 1.13-.657-.132-.943-.003-1.72.774-.512.512-.931 1.125-.931 1.362 0 .236-.377.843-.837 1.349-.46.505-.965.918-1.124.918zm13.712-.712c-.261.147-.64-.04-1.189-.59-.654-.654-.79-.987-.723-1.77l.082-.966 3.545-1.293c1.95-.712 3.58-1.258 3.624-1.214.044.044-1.054 1.326-2.438 2.849-1.384 1.523-2.69 2.866-2.901 2.984zm-15.453-3.52c-.113 0-.636-.477-1.162-1.06-.527-.582-.955-1.207-.953-1.389 0-.181.108-.494.236-.696.175-.277.385-.099.856.725.343.6.736 1.056.873 1.011.137-.044.876-.994 1.641-2.11 1.314-1.918 1.412-2.002 1.76-1.505.367.524.37.524.858-.015.359-.397.383-.5.09-.387-.222.085-.613-.085-.884-.385-.354-.39-.578-.462-.82-.26-.247.204-.51.044-1.018-.622-.377-.494-.685-.979-.685-1.078 0-.099.319-.301.708-.45.616-.233.896-.14 2.124.706.778.536 1.442.928 1.474.87.033-.056.191-.34.353-.631.188-.34.567-.53 1.058-.53.661 0 .817.151 1.149 1.111.348 1.007.342 1.158-.066 1.609-.248.273-.45.634-.45.8 0 .189-.276.25-.728.164-.595-.114-.936.065-1.873.983-.992.973-1.212 1.081-1.65.808-.277-.173-.541-.315-.586-.315-.045 0-.535.595-1.09 1.323-.555.727-1.102 1.323-1.215 1.323zm.692-3.307l-.893 1.482-.694-1.185c-.382-.652-.693-1.403-.692-1.668 0-.265.275-1.068.607-1.785l.602-1.302.982 1.197c.54.66.981 1.329.981 1.488 0 .16-.402.958-.893 1.773z" id="path1215-20-4" fill="#212121" stroke-width=".265"></path></g></g></svg>