<svg xmlns="http://www.w3.org/2000/svg" width="74" height="62" viewBox="0 0 19.75 16.657"><title>ryza2 category jewels</title><g fill="#212121" class="nc-icon-wrapper"><g transform="translate(-58.882 171.703)"><path d="M68.671-155.046c-.218-.006-2.59-2.596-5.271-5.754-4.862-5.729-4.873-5.744-4.101-5.91.616-.134.652-.174.178-.199-.327-.017-.595-.113-.595-.213 0-.1.623-1.172 1.385-2.382l1.385-2.199h7.015l7.016.001 1.448 2.31c.797 1.27 1.472 2.467 1.5 2.66.029.193-1.764 2.468-3.983 5.056-2.219 2.588-4.382 5.141-4.807 5.674-.425.532-.951.963-1.17.957zm-.201-1.84c.038 0 .054-2.203.035-4.895l-.035-4.895 4.93-.052c4.263-.045 4.547-.072 2.106-.198l-2.822-.147-1.75-1.664c-.961-.916-1.842-1.607-1.956-1.536-.115.07-.193.85-.175 1.73l.034 1.603-1.207.022c-.664.013-1.862.021-2.663.02-.8-.002-1.262.053-1.026.122.235.07.615.567.844 1.105.23.539.84 1.983 1.358 3.21.517 1.225.94 2.312.94 2.414 0 .101.297.854.659 1.673.362.818.69 1.488.728 1.488zm2.393-1.323c.369-.364 2.058-2.266 3.753-4.228 2.968-3.435 3.057-3.573 2.413-3.745-.368-.098-1.27-.152-2.005-.119-.736.033-1.44.17-1.564.306-.125.135-.845 1.853-1.6 3.817-.755 1.965-1.44 3.81-1.52 4.101-.131.468-.07.453.523-.132zm-10.526-8.467c.073 0 .132-.06.132-.132a.133.133 0 0 0-.132-.132.133.133 0 0 0-.132.132c0 .073.06.132.132.132zm.53 0c.072 0 .131-.06.131-.132a.133.133 0 0 0-.132-.132.133.133 0 0 0-.132.132c0 .073.06.132.132.132zm.528 0c.073 0 .133-.06.133-.132a.133.133 0 0 0-.133-.132.133.133 0 0 0-.132.132c0 .073.06.132.132.132zm.53 0c.072 0 .132-.06.132-.132a.133.133 0 0 0-.133-.132.133.133 0 0 0-.132.132c0 .073.06.132.132.132zm.925-.041c.364 0 .513-.06.331-.134a1.021 1.021 0 0 0-.661 0c-.182.074-.033.134.33.134zm1.231-.488c.072 0 .688-.574 1.369-1.275.68-.702 1.526-1.595 1.878-1.984l.642-.71h-5.66l.5.993c.274.545.642 1.438.819 1.984.176.546.38.992.452.992zm9.343-.126c.15-.093.274-.345.274-.56 0-.214.306-.993.68-1.73.373-.737.627-1.393.563-1.456-.063-.064-1.312-.082-2.775-.04l-2.66.076 1.822 1.94c1.002 1.067 1.945 1.863 2.096 1.77z" id="path1196-1-9" fill="#212121" stroke-width=".265"></path></g></g></svg>