<svg xmlns="http://www.w3.org/2000/svg" width="97" height="93" viewBox="0 0 25.922 24.655"><title>ryza2 shop</title><g fill="#212121" class="nc-icon-wrapper"><g id="layer1" transform="translate(278.705 -631.894)"><path d="M-265.101 656.531c-5.239.031-9.835.02-10.214-.023-.687-.08-.69-.088-.837-3.085-.081-1.653-.082-3.73 0-4.617.121-1.335.23-1.611.633-1.611.268 0 .936.172 1.485.383.548.21 2.285.758 3.858 1.218 1.574.459 2.926.77 3.004.693.078-.079-.376-.276-1.01-.44-.632-.164-2.368-.666-3.855-1.116-1.488-.45-2.946-1.042-3.241-1.317-.306-.285-.537-.837-.537-1.283 0-.614-.118-.784-.542-.784-.298 0-.883.176-1.3.391-.415.216-.817.543-.891.728-.074.185-.145.073-.156-.249-.011-.321.24-.827.558-1.124l.579-.54-.645-.008c-.634-.008-.636-.015-.116-.413.31-.237.816-.349 1.22-.27l.693.135-.494-.968c-.271-.533-.492-1.33-.49-1.772 0-.442.12-.983.261-1.201.228-.353.26-.353.28 0 .013.218.075.674.138 1.012.063.339.25.87.417 1.18l.302.566.217-.585c.12-.322.336-.586.481-.586.146 0 .197.18.113.398-.084.218-.078.695.013 1.058.144.575.312.661 1.29.661.617 0 1.538.228 2.045.506.507.278.893.631.859.784-.035.153.084.223.264.156.18-.068 1.006.315 1.835.851s1.435 1.101 1.347 1.257c-.088.155-.066.197.049.093.115-.104.744.193 1.397.661.653.469 1.41 1.135 1.684 1.482.274.348.498.727.498.843 0 .116-.328.26-.728.321-.677.103-.668.113.132.15.643.03.86-.072.86-.402 0-.244-.197-.661-.44-.928-.24-.267-.39-.535-.33-.594.06-.06.705.008 1.432.15.728.143 1.688.372 2.135.508.447.136 1.132.248 1.522.248.44 0 .708-.145.708-.382 0-.21-.131-.462-.292-.562-.205-.126-.185-.25.066-.408.197-.126 1.046-.23 1.886-.232l1.528-.004-.072 4.508-.072 4.507-9.525.057zm-8.864-.605h1.588v-3.399l-.813.406c-.486.242-1.126.343-1.588.251l-.774-.155V655.926zm7.996 0h5.967l.117-.793.116-.794-3.857-.031c-2.12-.018-4.214-.123-4.65-.234-.49-.125.773-.228 3.307-.27 2.256-.037 4.31-.066 4.564-.065.255 0 .463-.17.463-.379 0-.26-.167-.327-.53-.211-.293.092-.906-.018-1.363-.246-.635-.317-.919-.343-1.198-.111-.202.167-.728.294-1.17.281-.441-.013-.965-.158-1.163-.322-.274-.227-.523-.194-1.03.139-.56.367-.821.388-1.605.13-.515-.17-.937-.438-.937-.595 0-.157-.243-.064-.541.205-.325.294-.907.48-1.455.464-.868-.024-.914.02-.914.874v.9l2.447.034c1.347.02 2.805.066 3.242.104.436.038 1.32.083 1.962.098.643.016 1.11.088 1.037.16-.072.072-2.027.206-4.344.298-2.316.092-4.261.211-4.322.266-.06.054 2.575.098 5.857.098zm8.31 0h1.421v-2.804l-.992-.011c-.545-.006-1.26-.104-1.587-.217-.53-.182-.596-.118-.596.587 0 .435.074 1.164.166 1.618.16.803.206.827 1.587.827zm-8.522-6.106c.278.011.435-.051.347-.139-.088-.088-.316-.097-.507-.02-.211.084-.149.146.16.159zm.022-1.037a.133.133 0 1 0 0-.265.133.133 0 0 0 0 .265zm-2.91-1.853a.133.133 0 1 0-.001-.265.133.133 0 0 0 0 .265zm-1.324-.264a.133.133 0 1 0 0-.265.133.133 0 0 0 0 .265zm-2.602-1.147a.25.25 0 0 0 0-.352c-.097-.097-.176-.018-.176.176 0 .194.079.273.176.176zm-1.402-.463c.053-.06.238-.408.411-.771.297-.624.292-.632-.097-.148-.226.282-.411.63-.411.771 0 .142.043.209.097.148zm1.623-.242a.133.133 0 1 0 0-.265.133.133 0 0 0 0 .265zm1.323 0a.133.133 0 1 0 0-.265.133.133 0 0 0 0 .265zm12.146 3.967c-.278 0-.845-.18-1.262-.397-.417-.217-1.31-.398-1.985-.401-.674-.003-1.702-.222-2.285-.487-.582-.265-1.229-.688-1.438-.94-.33-.4-.33-.491 0-.7.264-.167.279-.242.05-.244-.183-.002-.331-.172-.331-.378 0-.205.352-.67.783-1.032.43-.363 1.353-.872 2.05-1.132.697-.26 1.604-.747 2.015-1.084.412-.336.872-.612 1.024-.612.15 0 .212.238.136.53-.12.462-.017.524.83.489.836-.034.865-.055.215-.152-.647-.097-.728-.202-.588-.76l.162-.649-.989.414c-.544.227-1.18.586-1.415.798-.234.212-1.01.561-1.723.776-1.282.386-1.306.382-2.031-.313-.404-.386-.734-.61-.734-.496 0 .114.225.524.5.91l.499.702-.878 1.015-.878 1.015-1.54-1.045a36.33 36.33 0 0 0-2.929-1.77c-1.048-.548-1.389-.871-1.389-1.32 0-.327.277-1 .615-1.494.338-.494.814-.882 1.058-.862.244.02.444-.045.444-.146 0-.1-.143-.325-.317-.5-.175-.174-.46-.317-.633-.317-.174 0-.39.295-.48.655-.114.454-.427.724-1.02.88-.472.124-1.066.173-1.32.108-.255-.064-.463-.206-.463-.315 0-.109.236-.498.525-.865.288-.368.824-.743 1.19-.835.426-.107.666-.353.666-.682 0-.283.23-.638.512-.789.281-.15.683-.273.892-.273.209 0 .813.803 1.344 1.785.568 1.053.892 1.47.789 1.018-.171-.751-.155-.765.723-.619.495.083 1.238.281 1.651.44.73.283.747.332.565 1.652-.166 1.212-.138 1.34.262 1.187.247-.094.522-.172.61-.172.09 0-.065-.165-.341-.367-.478-.35-.458-.395.404-.919.498-.303 1.446-.624 2.105-.713.66-.09 1.557-.321 1.993-.516a11.368 11.368 0 0 1 1.55-.543c.717-.179.74-.158.442.4-.173.322-.241.66-.15.75.09.09.954.215 1.922.277 1.5.095 1.69.16 1.3.447-.422.308-.394.383.345.909.744.53.85.542 1.395.16.325-.228.809-.414 1.076-.414s.413.118.325.261c-.09.144-.674.614-1.3 1.044-.752.518-1.33.732-1.706.634-.328-.086-.568-.36-.568-.647 0-.3-.185-.497-.463-.494a1.837 1.837 0 0 0-.86.272c-.295.2-.208.225.333.1.576-.134.7-.088.582.218-.1.26.13.504.69.736.641.266.94.275 1.27.041a16.06 16.06 0 0 1 1.155-.71l.723-.406-.166 1.211c-.136.994-.063 1.35.41 1.99l.575.777h-.687c-.378 0-.925-.127-1.216-.283-.408-.219-.688-.18-1.22.168-.653.428-.664.47-.206.805.442.323.446.369.043.523-.242.093-.825.113-1.296.044-.47-.07-1.183-.012-1.584.128-.4.14-.729.323-.729.406 0 .084.197.37.438.636.41.452.405.483-.066.482zm-2.456-1.78c.18-.18.262-.393.18-.474-.081-.082-.229.065-.328.326-.144.377-.113.407.148.148zm.405-1.058c.072-.179.077-.536.01-.793-.067-.258-.126-.111-.131.325 0 .437.05.647.121.468zm-2.422-.865a.398.398 0 0 0 .397-.396.398.398 0 0 0-.397-.397.398.398 0 0 0-.397.397c0 .218.179.396.397.396zm2.203-.79c.06-.176-.094-.517-.34-.757-.417-.41-.424-.389-.106.32.187.417.388.614.446.438zm-8.821-3.178c.49 0 1.079-.187 1.307-.416.229-.229.414-.616.412-.86 0-.306-.11-.238-.344.217-.284.552-.522.658-1.44.64-.604-.012-1.038.077-.963.198.075.121.538.22 1.028.22zm6.662 0c.194 0 .353-.179.353-.397a.39.39 0 0 0-.382-.397c-.21 0-.444.102-.522.228-.077.125-.065.303.03.396.092.094.327.17.521.17zm-6.923-1.059a.133.133 0 1 0 0-.265.133.133 0 0 0 0 .265zm-.265-.529a.133.133 0 1 0 0-.265.133.133 0 0 0 0 .265zm-1.338-2.381c.226 0 .412-.12.412-.265 0-.145-.112-.264-.249-.264s-.323.119-.412.264c-.09.146.022.265.249.265zm7.081 2.268c-.753.311-.892.307-1.022-.031-.083-.216-.103-1.22-.046-2.232.087-1.546.216-1.957.803-2.576.385-.405.738-1.082.786-1.503.048-.422.276-.886.508-1.032.233-.145.739-.184 1.125-.087.576.144.702.327.702 1.016 0 .548.244 1.095.7 1.57.498.52.734 1.098.822 2.01.092.962.018 1.366-.303 1.632-.377.313-.425.244-.425-.606 0-.527-.092-.958-.205-.958-.113 0-.16.476-.105 1.058.055.582 0 1.063-.125 1.068-.125.006-.703.078-1.285.16-.582.083-1.45.312-1.93.51zm3.318-3.436c.073-.073.055-.333-.039-.578-.094-.246-.23-.387-.303-.314-.073.073-.055.333.039.578.094.246.23.387.303.314zm-1.388-2.272a.133.133 0 1 0 0-.265.133.133 0 0 0 0 .265zm.044-.617a.25.25 0 0 0 0-.353c-.097-.097-.176-.017-.176.177s.079.273.176.176z" id="path1183-3" fill="#212121" stroke-width=".265"></path></g></g></svg>