<svg xmlns="http://www.w3.org/2000/svg" width="66" height="59" viewBox="0 0 17.716 15.61"><title>ryza2 type weapon</title><g fill="#212121" class="nc-icon-wrapper"><g transform="translate(82.912 -8.13)"><path d="M-66.779 23.741c-.505 0-.943-.233-1.308-.697-.301-.383-.548-.903-.548-1.154 0-.27-.474-.708-1.155-1.07l-1.156-.612-.732.576c-.403.317-.95.576-1.216.576s-.727-.262-1.026-.583c-.432-.464-.474-.644-.208-.887.183-.168.87-.512 1.524-.764.655-.253 1.327-.571 1.493-.709.166-.137.386-.81.489-1.497.103-.687.299-1.457.435-1.712.136-.254.404-.463.594-.463.19 0 .544.218.785.484.24.266.437.689.437.94 0 .25-.184.811-.41 1.247-.395.766-.381.828.42 1.839.607.766 1.024 1.047 1.56 1.047.401 0 .927.217 1.168.483.24.267.437.776.437 1.132 0 .357-.185.913-.411 1.236-.263.376-.687.588-1.172.588zm.128-1.058c.17 0 .38-.071.467-.158.087-.087.094-.325.016-.53-.078-.204-.368-.37-.643-.37-.276 0-.501.158-.501.352 0 .194.08.432.176.53.097.096.315.176.485.176zm-7.156-3.704c-.055 0-1.978-1.607-4.272-3.57-4.063-3.477-4.18-3.606-4.496-4.961-.179-.765-.33-1.6-.336-1.854-.01-.398.249-.463 1.842-.463h1.853l3.637 3.215c2 1.768 3.855 3.419 4.121 3.667.4.372.452.673.298 1.703-.176 1.17-.266 1.285-1.367 1.757-.649.278-1.224.506-1.28.506zm1.296-1.84c.174-.174.184-.36.026-.502a304.713 304.713 0 0 0-3.162-2.586c-1.6-1.3-3.37-2.716-3.932-3.15A93.59 93.59 0 0 0-81.1 9.753c-.275-.2-.5-.298-.5-.22 0 .08 1.4 1.423 3.11 2.987 1.709 1.565 3.692 3.306 4.405 3.871.904.716 1.38.943 1.574.75z" id="path1055" fill="#212121" stroke-width=".265"></path></g></g></svg>