<svg xmlns="http://www.w3.org/2000/svg" width="75" height="71" viewBox="0 0 20.085 18.791"><title>ryza2 category gases</title><g fill="#212121" class="nc-icon-wrapper"><g transform="translate(-34.099 148.546)"><path d="M43.733-129.783c-.364.08-1.049-.018-1.521-.22-.473-.202-.998-.67-1.167-1.042-.233-.51-.506-.674-1.125-.675-.45 0-1.232-.254-1.739-.563-.507-.309-1.068-.755-1.248-.99-.18-.237-.33-.895-.336-1.463-.007-.872-.172-1.174-1.057-1.932-.636-.544-1.154-1.276-1.315-1.858-.213-.773-.169-1.177.228-2.075.272-.614.863-1.39 1.315-1.723.67-.496.821-.793.821-1.624 0-.56.162-1.406.36-1.88.2-.476.74-1.183 1.204-1.573.463-.39 1.314-.836 1.892-.991.577-.156 1.486-.201 2.02-.101.569.107 1.414.589 2.046 1.168.918.84 1.3 1.003 2.58 1.106 1.101.088 1.753.312 2.443.839.518.395 1.082.98 1.253 1.3.171.32.323 1.143.337 1.829.02.912.179 1.389.594 1.776.312.29.7.932.864 1.426.225.683.215 1.14-.042 1.92-.205.623-.67 1.249-1.185 1.595l-.848.57.583.547c.321.3.919.673 1.328.828.41.155 1.065.283 1.455.284l.71.002-.789.52c-.434.287-1.327.608-1.984.714-.657.105-1.314.192-1.46.193-.145 0-.74-.094-1.322-.21-.582-.115-1.194-.321-1.36-.458-.207-.17-.462.063-.82.751-.284.55-.863 1.194-1.286 1.432-.422.237-1.065.497-1.43.578zm-.428-.964c.725-.097 1.287-.377 1.684-.838.328-.381.596-.988.596-1.349 0-.558-.074-.616-.493-.392-.347.186-.63.163-.96-.078-.374-.274-.409-.448-.175-.885.16-.298.46-.608.669-.688.208-.08.614-.084.9-.01.288.076.682.435.877.8.194.363.675.827 1.068 1.03.393.203 1.406.45 2.252.55l1.538.181-.721-.858c-.397-.471-.722-1.027-.722-1.234 0-.222-.263-.376-.642-.376s-.867-.286-1.19-.697c-.302-.384-.55-.798-.55-.92 0-.123.282-.407.625-.632.343-.225.826-.332 1.071-.237.246.094.41.363.365.598-.045.234-.288.466-.54.515-.345.066-.417-.032-.29-.394.134-.378.099-.416-.163-.174-.183.169-.253.437-.155.595.098.158.501.287.897.287.395 0 .974-.178 1.286-.397.312-.218.658-.784.77-1.257.11-.472.172-1.097.137-1.388-.036-.291-.317-.744-.626-1.007-.5-.426-.585-.433-.792-.064-.127.227-.696.65-1.265.94-.568.29-1.26.528-1.537.528-.278 0-.818-.247-1.202-.549-.383-.301-.697-.813-.697-1.137 0-.325.143-.733.318-.907.174-.175.65-.318 1.058-.318.408 0 .74.05.74.11 0 .062.073.3.16.528.108.28-.044.496-.462.657-.552.212-.57.261-.155.429.257.104.828.04 1.269-.143.44-.183.974-.667 1.186-1.076.211-.409.384-1.053.384-1.43 0-.38-.18-1.038-.401-1.465-.22-.427-.741-.951-1.156-1.166-.473-.245-1.107-.333-1.695-.238-.902.146-.948.207-1.126 1.504-.142 1.03-.392 1.557-1.052 2.217-.477.477-1.066.867-1.31.867-.386 0-.373.088.106.697.302.384.549.908.549 1.166 0 .322.15.43.478.344.263-.07.757.1 1.098.377.478.387.58.66.447 1.19-.095.379-.406.763-.69.853-.286.09-.762.035-1.059-.124-.296-.159-.539-.477-.539-.708 0-.332.079-.355.374-.11.255.211.427.222.544.032a.567.567 0 0 0 .008-.542c-.09-.146-.27-.265-.4-.265s-.535.298-.899.662c-.445.445-.954.661-1.558.661-.55 0-1.076-.197-1.358-.51-.254-.28-.421-.713-.372-.963.05-.25.294-.584.545-.741.333-.21.54-.203.77.026.24.242.241.4 0 .691-.243.292-.237.406.024.506.186.07.59.035.896-.08.308-.114.632-.397.72-.629.09-.231.057-.698-.072-1.037-.129-.34-.587-.913-1.017-1.276-.431-.362-.918-.91-1.082-1.216-.197-.368-.214-.776-.052-1.202.14-.37.546-.72.95-.823.411-.103.862-.048 1.079.131.204.17.371.58.371.91 0 .33-.16.662-.355.736a.858.858 0 0 1-.67-.059c-.174-.107-.24-.393-.146-.636.093-.244.046-.442-.106-.442-.151 0-.352.243-.447.542-.094.298-.028.714.147.926.176.21.653.384 1.061.384.48 0 .93-.238 1.272-.674.292-.37.606-1.02.7-1.442.11-.508-.014-1.179-.368-1.98-.422-.955-.776-1.32-1.672-1.727-.625-.284-1.349-.518-1.61-.521-.26-.003-.92.222-1.468.502-.548.28-1.139.82-1.313 1.203-.174.382-.317 1.165-.317 1.739 0 .757.146 1.134.53 1.374.29.181.529.42.529.531 0 .11-.482.201-1.07.201-.784 0-1.245.174-1.72.65-.452.451-.65.942-.65 1.612 0 .55.235 1.293.547 1.732.424.595.754.768 1.464.768.596 0 .973-.148 1.079-.423.09-.233.002-.523-.194-.644-.197-.121-.454-.16-.572-.087-.119.073-.147.244-.064.379.084.136.023.246-.136.246s-.357-.18-.442-.4c-.084-.22-.007-.577.173-.794.18-.216.586-.393.903-.393.317 0 .719.143.893.317.175.175.318.629.318 1.01 0 .422-.308.986-.794 1.451-.604.578-.794.996-.794 1.746 0 .775.174 1.131.814 1.67.476.4 1.141.685 1.6.685.486 0 1.039-.253 1.45-.664.364-.365.589-.783.498-.93-.09-.147-.278-.197-.415-.112-.138.085-.173.281-.078.436.1.161.017.228-.194.158-.202-.068-.367-.41-.367-.762 0-.554.123-.64.926-.64.853 0 .932.069 1.01.87.065.687-.085 1.026-.714 1.615-.757.706-.776.775-.379 1.343.356.507.585.576 1.507.452zm1.75-3.089c.195 0 .274-.08.177-.176a.25.25 0 0 0-.353 0c-.097.097-.017.176.177.176z" id="path1196-1-4-9" fill="#212121" stroke-width=".265"></path></g></g></svg>