<svg xmlns="http://www.w3.org/2000/svg" width="101" height="103" viewBox="0 0 26.954 27.408"><title>ryza2 lightning</title><g fill="#212121" class="nc-icon-wrapper"><g id="layer1" transform="translate(-.424 .132)"><path d="M13.876-.128c-.84.024-1.752.245-2.472.387-.72.142-1.22.228-1.852.441-.632.214-1.313.548-1.92.852-.606.304-1.228.622-1.72.965-.49.344-.734.578-1.23 1.057-.497.479-1.266 1.242-1.71 1.85A18.143 18.143 0 0 0 1.59 7.721c-.317.655-.71 1.595-.871 2.09-.162.494-.295 2.232-.295 3.862 0 2.15.132 3.36.48 4.417.264.801.791 1.98 1.17 2.62.38.642 1.273 1.782 1.985 2.534.712.751 1.941 1.751 2.732 2.222.791.47 2.093 1.065 2.893 1.321.951.304 2.366.473 4.083.489 1.444.013 3.052-.111 3.571-.277.52-.166 1.697-.672 2.616-1.125.92-.452 2.289-1.418 3.043-2.146.755-.727 1.568-1.577 1.807-1.889.24-.312.795-1.324 1.234-2.249.438-.925.949-2.6 1.135-3.721.276-1.665.274-2.44-.01-4.234-.244-1.547-.65-2.784-1.375-4.195-.601-1.168-1.588-2.508-2.448-3.418-.86-.91-1.722-1.544-2.576-2.075-.855-.53-1.747-.846-2.477-1.146-.73-.3-1.15-.513-1.888-.68a10.763 10.763 0 0 0-2.523-.25zM15.27 5.59c.223-.036.022.95.115 1.446-.115 1.061-.07.167-.058 1.359-.121.382-.008.649.25.649.206 0 .59-.238.853-.53.263-.29.3-.348.676-.501.192-.082.138-.047.052.148-.185.252-.221.22-.331.471-.075.17-.342 1.039-.76 1.896-.42.857-1.02 2.1-1.337 2.76-.316.66-.629 1.636-.695 2.167-.066.53-.01 1.033.122 1.115.132.082.405.086.604.01.2-.077.565-.465.81-.862.26-.416.45-.553.454-.324.003.218-.173.738-.39 1.155-.218.417-.396.863-.396.992l-.604 1.395c-.25.36-.454.953-.454 1.509v.833l1.217-.997c.865-.709 1.275-.903 1.417-.673.15.243.504.18 1.439-.26.681-.32 1.296-.526 1.366-.456.069.07-.53.56-1.33 1.092-.8.531-1.529.966-1.62.966-.09 0-.692.357-1.34.794-.646.436-1.384.794-1.64.794-.255 0-1.027-.358-1.715-.794-.688-.437-1.311-.794-1.385-.794-.073 0-.754-.423-1.512-.94-1.179-.802-1.263-.913-.585-.757.437.1.943.3 1.125.443.222.175.463.15.739-.079.345-.286.563-.188 1.4.63.545.532 1.076.968 1.179.968.103 0 .187-.276.187-.612 0-.337-.238-1.105-.529-1.707-.29-.602-.255-.807-.53-1.49-.08-.2 0 0-.264-.557 0 0-.278-.419-.392-.677-.209-.468-.133-.2-.209-.468-.136-.482-.063-.19.047-.299.11-.109.348.201.685.622.399.5.759.71 1.036.603.338-.13.394-.416.275-1.408-.083-.685-.369-1.553-.637-1.93-.268-.376-.976-1.683-1.572-2.903-.597-1.221-1.085-2.331-1.085-2.468 0-.136.366.061.814.438.448.377.917.685 1.044.685.125 0 .188-.587.138-1.305-.05-.718-.114-1.051-.254-1.569-.12-.398.03-.722.375-.187.26.31.207.387.595.346l.596-.063.145 2.91.147 2.91.094-2.778c.051-1.527.167-2.792.146-3.047.536-.076.233-.015.536-.076.38-.022.399.076.555-.162.195-.295.317-.42.39-.433zm6.15 2.16c.015 0 .027.005.036.014.07.07-.86 1.19-2.07 2.49-1.208 1.299-2.65 2.868-3.203 3.486-.553.619-1.125 1.125-1.271 1.125-.172 0-.167-.12.013-.337.154-.185.626-.99 1.05-1.786a111.428 111.428 0 0 1 2.098-3.78c.07-.118.51-.726.214.298-.11.57-.73 1.284 1.291-.09.422-.22.988-.655 1.258-.967.237-.273.48-.458.584-.453zm-15.307.318c.046.007.117.03.212.067.246.094.496.387.594.472.183.158.29.256.538.437.644.474.575.452.575.452.684.333.503.333.648.333.144 0-.057-.5-.136-.8-.118-.574-.08-.706.168-.442.152.115.69.748 1.155 1.536a66.867 66.867 0 0 1 1.686 3.099c.463.916.797 1.703.743 1.75-.055.045-.784-.704-1.622-1.666a148.97 148.97 0 0 0-2.646-2.955 100.666 100.666 0 0 1-1.637-1.798c-.327-.375-.415-.505-.278-.485zm.45 5.066c.106-.003.418.176.81.476.524.399 1.079.726 1.234.726.155 0 .282-.179.282-.397 0-.219.097-.397.216-.397.118 0 .46.446.759.992.298.546.826 1.528 1.173 2.183.347.655.72 1.23.829 1.279.11.048.198.257.198.463 0 .206-.108.374-.24.374s-1.353-1.196-2.712-2.66c-1.36-1.462-2.52-2.802-2.581-2.975-.015-.043-.003-.064.032-.064zm14.022.1c.035 0 .047.021.032.064-.06.174-1.222 1.512-2.58 2.975-1.36 1.463-2.58 2.66-2.713 2.66-.132 0-.24-.168-.24-.374 0-.207.089-.415.198-.463.109-.049.482-.625.829-1.28.347-.654.875-1.637 1.173-2.182.299-.546.64-.992.759-.992.118 0 .215.178.215.396 0 .219.127.397.283.397.155 0 .71-.326 1.234-.726.393-.3.704-.478.81-.476z" id="path34513" fill="#212121" stroke-width=".265"></path></g></g></svg>