<svg xmlns="http://www.w3.org/2000/svg" width="89" height="86" viewBox="0 0 23.803 22.986"><title>ryza2 race shark</title><g fill="#212121" class="nc-icon-wrapper"><g transform="translate(-417.255 -189.18)"><path d="M440.562 212.166c-.096 0-.381-.804-.633-1.786s-.457-2.001-.455-2.265c0-.27-.12-.403-.28-.304-.154.095-.482.002-.727-.21a3.598 3.598 0 0 0-.937-.556c-.315-.113-.432-.327-.328-.6.127-.329.06-.376-.303-.209-.256.118-1.27.26-2.252.316-1.091.062-1.786-.003-1.786-.166 0-.146.64-.58 1.422-.962.953-.467 1.868-.7 2.774-.707 1.246-.01 1.33-.05 1.082-.514-.148-.277-.444-.504-.657-.504-.224 0-.39-.25-.392-.595 0-.327-.096-.74-.207-.916-.112-.176-.646-.505-1.187-.731-.804-.336-1.2-.357-2.166-.113-.65.163-1.29.433-1.42.599-.131.165-.363.718-.515 1.227-.152.51-.355 1.388-.45 1.953-.095.564-.27.922-.387.794-.118-.129-.359-.686-.536-1.24-.177-.552-.4-.963-.495-.911-.095.051-.947.463-1.893.914-.946.452-2.017 1.142-2.381 1.533-.364.392-1.138.953-1.72 1.247-.582.294-1.237.678-1.455.854-.218.176-.655.333-.97.348-.317.016-.636-.13-.71-.325-.074-.194.03-.573.234-.842.204-.268.374-.61.38-.758.01-.157-.715-.268-1.721-.265-1.253.004-1.799-.104-1.98-.391-.139-.219-.254-.76-.256-1.202 0-.442.17-1.47.381-2.283.212-.813.708-2.16 1.102-2.993.395-.834 1.382-2.202 2.195-3.041.812-.84 1.69-1.638 1.948-1.774.437-.229.441-.318.066-1.215-.223-.533-.405-1.457-.405-2.053 0-.597.135-1.345.3-1.663.166-.317.338-.62.382-.672.045-.053.654.376 1.353.952.7.576 1.987 1.314 2.86 1.64a84.69 84.69 0 0 1 2.117.816c.43.18.356.226-.397.242-.51.01-1.384.146-1.943.302-.56.155-.972.327-.917.382.055.056 1.196-.094 2.535-.33 1.34-.238 2.517-.35 2.618-.25.1.101-.057.51-.35.908a13.526 13.526 0 0 0-.868 1.351c-.212.397-.227.561-.042.447.16-.1.784-.917 1.385-1.818.602-.9 1.345-1.843 1.653-2.095.307-.252.725-.398.928-.325.203.074.59-.066.86-.31.299-.27.49-.323.49-.134 0 .17-.654 1.614-1.453 3.209-.8 1.594-1.723 3.069-2.05 3.276-.329.208-1.45.648-2.492.978-1.836.581-1.887.62-1.643 1.262.139.365.178.85.087 1.08-.126.32-.247.232-.519-.376l-.353-.794-.023.794-.023.794-.525-.86c-.288-.473-.593-.86-.678-.86-.085 0-.069.267.034.593.167.528.14.553-.247.232-.39-.323-.435-.264-.435.56 0 .508.076 1.475.168 2.15.095.696.308 1.227.49 1.227.178 0 1.836-.922 3.686-2.05 1.85-1.128 3.775-2.26 4.277-2.518.555-.284 1.168-.402 1.565-.303.36.09.983.484 1.385.875.403.39.952.879 1.221 1.084.473.362.475.34.053-.671-.24-.576-.606-1.307-.814-1.624-.208-.318-.777-.883-1.265-1.255-.488-.372-1.265-.752-1.725-.844-.461-.093-.838-.27-.838-.394 0-.125.191-.705.425-1.29.234-.585.556-1.064.715-1.064.159 0 .986.717 1.838 1.593 1.061 1.092 1.875 2.28 2.582 3.77.568 1.198 1.11 2.505 1.204 2.906.133.56.075.727-.248.727-.347 0-.394.22-.265 1.257.086.691.441 1.846.79 2.565.413.856.63 1.772.628 2.646 0 .736-.075 1.605-.163 1.933-.088.327-.238.595-.335.595zm-19.078-6.646c.8-.097 1.796-.31 2.213-.474l.757-.298-.691-.543c-.38-.3-.691-.73-.691-.956 0-.226.376-1.07.837-1.874l.837-1.463-.843.168c-.464.093-1.27.46-1.793.814-.522.355-1.408 1.28-1.97 2.056-.56.776-1.024 1.67-1.029 1.987-.01.341.18.613.455.668.255.05 1.118.012 1.918-.085zm-1.807-3.718c.411-.058.616-.263.616-.616s-.176-.53-.529-.53c-.352 0-.558.206-.616.617-.073.513.016.602.529.53zm.087-.22c-.243 0-.398-.127-.346-.284.052-.156.208-.284.346-.284.138 0 .294.128.346.284.052.157-.103.285-.346.285zm1.603-1.587a.117.117 0 0 0 .117-.117c0-.064-.138-.201-.306-.305-.189-.117-.233-.073-.116.117.103.168.241.305.305.305zm.564-.529c.045 0 .082-.055.082-.123s-.268-.253-.595-.411c-.572-.278-.575-.273-.082.122.282.227.55.412.595.412zm.61-.441c.074-.072-.098-.3-.38-.507-.283-.206-.623-.375-.757-.375s.038.228.381.506c.344.279.684.448.757.376z" id="path1215-20" fill="#212121" stroke-width=".265"></path></g></g></svg>