<svg xmlns="http://www.w3.org/2000/svg" width="98" height="69" viewBox="0 0 26.19 18.494"><title>ryza2 category stone</title><g fill="#212121" class="nc-icon-wrapper"><g transform="translate(-60.32 85.211)"><path d="M68.89-66.72c-.857-.017-2.928-.326-4.601-.687-1.674-.361-3.251-.842-3.506-1.07-.386-.344-.463-.88-.463-3.243 0-2.606.05-2.884.624-3.503.342-.37 1.696-1.172 3.008-1.781l2.385-1.108.586-2.22c.474-1.794.755-2.366 1.466-2.99.651-.573 1.506-.917 3.304-1.33 1.334-.308 2.64-.559 2.9-.559.263 0 1.653.899 3.09 1.997 1.437 1.098 3.032 2.319 3.543 2.712.512.393 1.91 1.53 3.11 2.525 1.506 1.252 2.176 1.986 2.174 2.38-.003.464-.052.497-.255.176-.216-.342-.608-.273-2.85.506-1.672.58-2.831.843-3.25.737-.36-.092-1.546-.893-2.637-1.782a70.125 70.125 0 0 1-3.77-3.35c-.983-.953-1.786-1.878-1.786-2.056 0-.178.218-.52.484-.762.267-.241 1.176-.566 2.02-.722.844-.156 1.846-.21 2.227-.119.544.13.424-.028-.561-.739-1.15-.828-1.349-.885-2.382-.682-.62.122-1.603.299-2.185.393-.582.094-1.326.339-1.654.543-.327.205-.595.533-.595.73 0 .198 2.322 2.342 5.16 4.766 4.172 3.563 5.159 4.533 5.159 5.073 0 .366-.19 1.502-.423 2.523-.232 1.023-.589 1.92-.794 1.998-.215.083-1.29-.628-2.554-1.691-1.2-1.01-3.762-3.057-5.692-4.552l-3.51-2.716-2.418 1.017c-1.811.762-2.54 1.216-2.905 1.81-.368.598-.488 1.32-.489 2.924 0 1.305.122 2.253.317 2.448.174.174.417.317.538.317.122 0 .092-.241-.066-.536-.158-.295-.251-1.213-.208-2.041.073-1.38.155-1.556.979-2.11.522-.352.723-.604.478-.604-.23 0-.499-.127-.595-.283-.095-.155-.124-.332-.062-.393.06-.062 1.529.12 3.262.402 2.257.368 3.246.645 3.487.974.215.294.336 1.356.336 2.959 0 2.07-.08 2.56-.463 2.851-.43.327-.422.352.116.36.32.005.654-.11.744-.256.09-.145.424-.273.743-.282l.58-.018-.596-.287c-.553-.267-.595-.458-.59-2.694.001-1.324.11-2.575.239-2.78.185-.292.752.05 2.627 1.587 1.315 1.079 2.397 2.04 2.406 2.135.008.096-1.04.84-2.33 1.654-2.193 1.384-2.442 1.477-3.902 1.448zm-1.435-10.818c.15 0 .273-.179.273-.397 0-.218.209-.616.463-.883.255-.267.596-.714.757-.992.285-.49.325-.492 1.323-.037 1.026.468 1.024.465-.426-.837-.8-.719-1.499-1.264-1.551-1.211-.053.052-.38.905-.728 1.895s-.576 1.95-.508 2.131c.069.182.247.33.397.33zm12.317 9.26c-.221 0-.398-.208-.393-.463.005-.254.172-1.222.372-2.15.229-1.07.59-1.913.982-2.3.342-.336 1.592-.963 2.779-1.393 1.405-.51 2.248-.692 2.416-.523.169.168.12.873-.138 2.022-.218.97-.525 1.924-.682 2.119-.157.194-1.331.879-2.61 1.521-1.278.642-2.505 1.167-2.726 1.167z" id="path1196-1-8" fill="#212121" stroke-width=".265"></path></g></g></svg>