<svg xmlns="http://www.w3.org/2000/svg" width="98" height="94" viewBox="0 0 25.929 25.097"><title>ryza2 tool axe</title><g fill="#212121" class="nc-icon-wrapper"><g transform="translate(57.613 -114.953)"><path d="M-34.286 140.044a39.385 39.385 0 0 1-1.933-.147c-.95-.1-.97-.128-1.407-1.873-.244-.975-.922-2.963-1.506-4.418s-1.539-3.514-2.123-4.574c-.583-1.061-.996-2.098-.917-2.305.08-.207.644-.738 1.255-1.18.61-.442 1.184-.804 1.273-.804.09 0 .373.591.63 1.314.257.723 1.33 2.48 2.387 3.903 1.056 1.423 2.6 3.665 3.431 4.981.832 1.316 1.512 2.55 1.512 2.74 0 .19-.367.81-.816 1.377-.703.887-.95 1.024-1.786.986zm-15.543-5.069c-.134.042-1.014-1.082-1.956-2.498a301.595 301.595 0 0 1-3.77-5.868c-1.132-1.811-2.058-3.432-2.058-3.601 0-.185.678-.378 1.689-.482.929-.095 2.442-.42 3.362-.722.92-.303 2.453-.942 3.405-1.422.952-.479 2.445-1.411 3.318-2.07.873-.66 2.058-1.686 2.633-2.28.576-.593 1.124-1.079 1.22-1.079.094 0 .744.968 1.443 2.152.699 1.183 1.67 2.673 2.156 3.311.487.638.914 1.265.95 1.394.036.128-.828.821-1.92 1.54-1.091.718-3.115 2.316-4.498 3.551-1.509 1.348-3.02 3-3.78 4.135-.698 1.04-1.422 2.334-1.61 2.877-.188.542-.45 1.02-.584 1.062zm.338-3.262c.37-.705.906-1.539 1.192-1.852.519-.568.518-.571-.034-.747-.305-.096-.74-.535-.968-.975-.227-.439-.348-.966-.27-1.171.082-.215-.019-.373-.239-.373-.21 0-.578-.298-.816-.662-.239-.364-.37-.909-.29-1.21.089-.34-.05-.742-.366-1.058-.471-.471-.65-.485-2.428-.194-1.055.173-1.958.34-2.006.373-.048.032.295.753.762 1.603s1.736 2.895 2.82 4.546l1.97 3.002zm3.718-14.4c-.405.307-.463.282-.463-.2 0-.304.26-.795.58-1.091.318-.297.794-.54 1.057-.54.264 0 .48.098.48.219 0 .12-.268.453-.596.74-.327.287-.803.68-1.058.872z" id="path1183" fill="#212121" stroke-width=".265"></path></g></g></svg>