<svg xmlns="http://www.w3.org/2000/svg" width="34" height="93" viewBox="0 0 9.155 24.866"><title>ryza2 category essence</title><g fill="#212121" class="nc-icon-wrapper"><g transform="translate(85.844 62.132)"><path d="M-81.3-37.266c-.113-.003-1.203-.929-2.424-2.058-2.102-1.946-2.211-2.102-2.084-2.972.073-.505.73-2.823 1.457-5.151 1.3-4.16 1.314-4.243.828-4.78-.273-.3-.496-.732-.496-.96 0-.227.172-.556.382-.73.297-.246.319-.457.098-.942-.239-.523-.146-.87.568-2.135.755-1.338.814-1.582.515-2.141-.29-.542-.256-.798.237-1.814.316-.65.756-1.183.978-1.183.222 0 .66.527.973 1.172.526 1.081.538 1.219.156 1.802-.392.597-.364.713.519 2.156.796 1.3.89 1.618.645 2.157-.182.398-.194.69-.034.79.14.086.255.501.255.922 0 .444-.188.87-.45 1.016-.41.23-.35.58.693 4.048a614.578 614.578 0 0 0 1.535 5.045c.38 1.206.373 1.272-.228 1.984-.341.405-1.362 1.421-2.269 2.258-.906.837-1.74 1.519-1.854 1.516zm.015-3.042c.703-.068 1.626-.329 2.05-.58.425-.25.773-.559.773-.685s-.41.024-.91.333c-.499.309-1.422.673-2.05.808l-1.142.248zm-2.305-5.649c.235-.336.938-1.082 1.562-1.657.624-.574 1.324-1.445 1.556-1.934.232-.49.422-1 .422-1.134 0-.135-.387-.207-.86-.16l-.86.086.794-.376.794-.376-1.091.01-1.091.011-.827 2.815c-.455 1.549-.828 2.93-.828 3.071 0 .14.193-.02.429-.356zm3.017-2.076c.637-.614 1.059-1.21.937-1.323-.122-.114-.279-.048-.348.149-.07.196-.492.79-.937 1.322-.752.897-.727.886.348-.148zm-1.65-4.846c.041.004-.052-.23-.208-.521-.156-.291-.398-.53-.539-.53a.254.254 0 0 0-.255.252c0 .138.208.373.463.521.255.148.497.273.539.278zm2.418-.246c.302-.162.549-.342.549-.401 0-.06-.113-.178-.252-.263-.138-.085-.385.095-.549.401-.273.511-.252.533.252.263zm-2.03-2.131c.108.002.193-.502.186-1.12l-.01-1.125-.494.926c-.357.67-.408.98-.187 1.12.168.107.395.196.504.199zm.33-4.23c.218 0 .397-.05.397-.11 0-.061-.072-.299-.16-.528-.088-.23-.267-.351-.397-.27-.13.08-.237.317-.237.527 0 .21.179.381.397.381z" id="path1196-9" fill="#212121" stroke-width=".265"></path></g></g></svg>