<svg xmlns="http://www.w3.org/2000/svg" width="101" height="102" viewBox="0 0 26.987 27.171"><title>ryza2 magic</title><g fill="#212121" class="nc-icon-wrapper"><g id="layer1" transform="translate(-104.46 -2.928)"><path d="M114.235 29.81c-2.661-1.125-4.244-2.108-5.69-3.532-.895-.882-1.804-1.955-2.021-2.385a40.038 40.038 0 0 0-.693-1.31c-.164-.29-.543-1.327-.842-2.303-1.759-5.74 1.007-12.638 6.264-15.616 2.235-1.267 3.103-1.517 5.892-1.697 4.46-.289 7.77 1.016 10.75 4.235 1.68 1.814 2.297 2.844 3.122 5.214.472 1.355.603 6.895.151 7.787-.099.429-.155.36-.265.706-.301.952-1.695 3.738-3.318 5.361-1.546 1.546-3.698 2.828-5.96 3.552-1.174.376-6.494.366-7.39-.013zm-.794-2.448c0-.064-.12-.19-.265-.28-.145-.09-.264-.038-.264.116 0 .155.119.28.264.28.146 0 .265-.052.265-.116zm.839-1.909c.454-.41 1.033-2.225.397-1.968-.737.298-1.046.875-1.236 1.653-.205.841-.069 1.159.839.315zm8.764-1.407c.945-.426 1.234-.685 1.132-1.017-.076-.245-.193-1.221-.26-2.17-.066-.948-.297-2.258-.512-2.91a32.624 32.624 0 0 1-.722-2.71c-.331-1.526-.862-2.364-1.267-1.854-.019.057-.041.038-.11.13-.029.04-.034.02-.056.147-.007.04.294 1.355.312 1.515.004.036.085.734.052.731-.032-.003-.47-1.617-.498-1.635-.028-.017-.172-.635-.194-.666-.022-.032-.02-.076-.032-.12-.012-.046-.027-.094-.04-.151-.05-.226-.138-.688-.307-1.059-.37-.813-1.28-.916-1.28-.144 0 .073-.007.142-.019.205s.03.323.024.45c-.002.052.017.252.154.936.098.493.664 2.522.632 2.522-.032 0-.666-2.14-.7-2.166-.036-.027-.476-1.526-.51-1.574a1.027 1.027 0 0 1-.094-.168c-.029-.063-.074-.132-.093-.205a.704.704 0 0 0-.705-.53c-.515 0-.553.104-.413 1.125.153 1.12.308 1.16.851 2.91.19.4.363.797.278.881-.084.085-.353-.302-.596-.859-.755-1.732-1.144-2.337-1.505-2.337-.606 0-.32 1.864.854 5.546.311.974-.016 1.358-.8.939-.79-.423-1.856-.128-1.856.514 0 .279.242.583.538.677.907.288 4.475 2.784 4.771 3.338.336.627 1.1.552 2.971-.291zm-12.216-2.078c-.677-.95-.7-1.307-.124-1.943.53-.585.678-.897.98-.285.097.195.496.917.648.917.152 0-.07-.744-.093-.926-.09-.696.104-.62.54-.719.213-.048 1.12-.26.397-.274-.413-.015 0 0-.515.002-.743.088-.486 0-.7-.364-.238-.403-.546-2.25-.533-.012.112.757-.817.323-1.271.265-.639.057-.631-.647-.589-1.44.017-.302 2.347-.26 2.304-.43-.043-.168-2.405-.101-2.458-.217-.184-.403-.327-.54-.235-.974.403-1.907.582-2.236.479-2.294-.113-.038-.556.709-.821 2.14-.105.565-.005 1.005-.015 1.171-.01.166-1.788 0-1.786.251 0 .203 1.707.309 1.7.523-.023.857.354 1.438-.16 1.795-.226.157-.982.484-1.119.57-.47.297-.463.316.114.331.597.015 1.004-.18 1.473.192.47.372 1.003 1.31 1.266 1.953.103.29-.163.294-.172.722-.007.354.485-.358.858.237.075-.075 1.507 1.57 1.589 1.402.038-.078-1.463-1.645-1.387-1.919.18-.637 2.247-1.415 2.044-1.648-.092-.105-2.205 1.182-2.414.974zm1.378-8.45c-.449-.635-.595-.539-1.43-.775-1.483-.612.111 1.151 1.21 1.563.827.08.852.105.22-.788zm1.624-1.471s-.214-.468-.455-.658c-1.153-.554-.805.107-.371.599.198.225.268.163.826.059zm.868-3.643c.026-1.059 1.04-1.502-.224-1.017-.512.223-.67-.197-.934-.488-.921-.715-.75-.66-.697.57.079.7.394.772-.165 1.338-.134.135-.23.144-.23.31-.148.199.012.398.232.179.852-.513.784-.19 1.656.439.659.558 1.411 1.72 2.382 2.464-1.147-2.191-1.987-2.565-2.02-3.795zm5.783.355c.387-.51.5-2.182.146-2.182-.319 0-.836 1.234-.836 1.996 0 .767.207.822.69.186zm-2.718-2.183c.515-.207-.17-.158-.896-.173-.2-.004-.168-1.207-.414-1.156-.247.05.194 1.082-.035 1.165-.229.082-.662.373-.81.465-.146.091.127-.129-.313.258-.067.059.43-.07.77-.076.607-.195.516.067.592.297.223.676.265.296.254-.069-.281-.757.852-.596.852-.71z" id="path839-8" fill="#212121" stroke-width=".265"></path></g></g></svg>