<svg xmlns="http://www.w3.org/2000/svg" width="88" height="86" viewBox="0 0 23.443 22.946"><title>ryza2 race guardian</title><g fill="#212121" class="nc-icon-wrapper"><g transform="translate(-379.78 -247.906)"><path d="M392.818 269.613l-1.579 1.24-1.534-1.24c-.844-.681-1.75-1.366-2.013-1.52-.443-.26-.41-.36.427-1.3.499-.561.979-1.247 1.067-1.524.099-.312.312-.447.555-.354.217.083.55.152.739.152.19 0 .426.268.525.595l.181.595.249-.661c.136-.364.62-.874 1.076-1.133.455-.26.856-.438.89-.397.036.041.396.759.801 1.595.59 1.216.683 1.64.466 2.117-.15.328-.982 1.154-1.85 1.835zm3.327-1.636c-.117 0-.34-.238-.497-.53-.235-.44-.099-.8.803-2.13.598-.88 1.314-2.1 1.592-2.711.277-.611.507-1.334.51-1.607 0-.273-.59-1.037-1.317-1.697-1.131-1.026-1.323-1.341-1.323-2.174 0-.609.182-1.14.484-1.413.266-.24.615-.438.775-.438.16 0 .33-.258.376-.575.047-.316.234-.623.416-.683.181-.06.33.08.33.31 0 .23.179.419.397.419.265 0 .397.264.397.794 0 .436.119.793.265.793.145 0 .264.23.264.512 0 .293.246.59.577.694.318.101 1.04.518 1.605.928.565.41 1.154.786 1.31.838.189.063.142.57-.143 1.538-.25.848-.917 2.067-1.619 2.956-.656.831-2.047 2.111-3.09 2.844-1.044.733-1.994 1.332-2.112 1.332zm-9.228-1.063c-.218.002-.777-.23-1.242-.513-.465-.283-1.05-.826-1.298-1.206-.352-.537-.637-.675-1.277-.62-.577.05-1.2-.187-2.076-.79-.688-.473-1.248-1.063-1.245-1.31 0-.248.212-.708.463-1.023.252-.314.696-.613.987-.663.4-.07.549-.335.611-1.082.064-.775.193-.99.595-.99.352 0 .513-.183.513-.579 0-.318.264-.858.586-1.201.506-.539.54-.698.246-1.168-.186-.299-.301-.575-.255-.614.046-.039.345-.206.663-.371.318-.165.637-.3.71-.3.073 0 .15.327.174.727.024.4.061 1.293.084 1.984.023.692.13 1.257.24 1.257.109 0 .198-.58.198-1.29 0-.839.143-1.41.407-1.629.31-.257.365-.618.23-1.519-.104-.695-.036-1.768.166-2.609.277-1.154.43-1.4.797-1.283.324.102.624-.142 1.042-.85.567-.962.598-.977.987-.47.236.307.447.401.512.229.061-.162.273-.514.47-.784.305-.416.424-.437.785-.137.234.194.425.576.425.85 0 .273.082.496.182.496.1 0 .427-.225.727-.5.406-.372.7-.443 1.142-.274.425.163.592.438.583.964-.01.405-.171 1.185-.367 1.734-.332.93-.318 1.025.21 1.401.54.385.543.417.08.682-.353.203-.44.457-.318.94.09.365.035 1.062-.126 1.55-.161.487-.52.958-.796 1.046-.277.088-.745.03-1.042-.13-.296-.158-.541-.492-.543-.741 0-.39-.04-.398-.26-.057-.183.284-.125.495.203.744.433.328.431.367-.025.705-.266.197-.448.577-.404.844.044.267.01.604-.084.75-.09.145-.355.91-.588 1.701-.234.79-.425 1.82-.425 2.287 0 .511-.158.91-.397 1.002-.296.113-.397-.04-.397-.6 0-.415-.181-.904-.403-1.088-.222-.185-.343-.396-.268-.47.074-.075-.104-.521-.395-.993-.412-.667-.473-1.005-.275-1.526.192-.507.158-.75-.143-.999-.346-.287-.31-.4.276-.88.37-.303.967-1.137 1.325-1.854.358-.716.576-1.425.483-1.574-.101-.164-.209-.12-.27.112-.058.21-.23.681-.385 1.045-.154.364-.409.939-.565 1.277-.157.34-.516.74-.798.89-.474.254-.501.203-.358-.681.086-.53.044-.957-.093-.957-.136 0-.248.03-.248.068 0 .037-.108.443-.24.902-.167.584-.135 1.034.108 1.5.19.368.278.736.195.819-.083.083-.476.15-.872.15-.416 0-.79-.178-.883-.42-.09-.231-.1-.52-.024-.643.076-.122.016-.297-.132-.389-.148-.091-.269.012-.269.23 0 .217.12.708.265 1.091.204.535.387.658.794.529.413-.131.529-.048.529.383 0 .302-.379.889-.842 1.302-.796.712-.823.796-.502 1.57.186.451.992 1.437 1.79 2.192 1.084 1.025 1.362 1.43 1.098 1.597a1.685 1.685 0 0 1-.75.227zm2.688-8.727c.113 0 .14-.169.061-.376-.08-.207-.33-.448-.558-.535-.228-.088-.487-.087-.575 0-.088.089.071.33.353.536.282.206.606.375.719.375zm1.468-3.108c.063-.328.238-.596.389-.596.15 0 .21-.168.13-.375a.397.397 0 0 1 .221-.515c.2-.077.567-.447.813-.823.247-.377.382-.75.3-.832-.08-.081-.33.19-.554.604-.378.698-.407.709-.417.155-.01-.385-.174-.596-.474-.597-.254-.001-.612-.323-.794-.714-.181-.392-.339-.956-.349-1.255-.018-.536-.02-.536-.23-.013-.134.332-.069.813.176 1.293.319.627.329.875.055 1.386-.28.524-.264.7.107 1.11.242.267.456.774.476 1.126.035.621.04.623.15.046zm-1.8-1.54c.07-.07-.088-.332-.35-.583-.456-.437-.462-.431-.127.126.192.321.407.527.477.457zm5.882 12.302c-.421.226-.564.107-.978-.81-.443-.983-.448-1.096-.056-1.315.235-.132.51-.626.61-1.098.1-.472.377-1.078.613-1.346.237-.267.571-.803.743-1.19.172-.387.324-.525.338-.307.023.353.054.353.278 0 .214-.336.36-.29.952.3.639.638.674.777.4 1.588-.165.49-.696 1.524-1.178 2.299L396 265.37l-.445-.679c-.405-.618-.409-.764-.04-1.647.223-.533.363-1.011.31-1.063-.051-.052-.307.379-.568.957-.442.98-.445 1.098-.041 1.714.238.363.433.72.433.793 0 .073-.222.251-.494.396zm.934-4.302a.25.25 0 0 0 0-.353c-.097-.097-.176-.017-.176.177s.079.273.176.176zm.265-.794a.25.25 0 0 0 0-.353c-.097-.097-.176-.017-.176.177s.079.273.176.176zm-7.85 4.983c-.145.09-.264-.081-.264-.381s.12-.545.265-.545c.145 0 .264.172.264.381 0 .21-.119.455-.264.545zm-.743-.495c-.24.428-.369.37-1.331-.592-.586-.586-1.147-1.39-1.247-1.786-.128-.51-.044-.87.289-1.239.258-.285.572-.518.699-.518s.334.273.46.606c.127.334.419.762.648.953.23.19.492.741.583 1.224.09.483.045 1.09-.101 1.352zm5.222-1.754c-.098 0-.253-.372-.344-.827-.091-.454-.166-1.044-.166-1.31 0-.267.268-.774.596-1.128.327-.353.868-1.088 1.2-1.633.334-.545.564-1.032.513-1.083-.051-.052-.426.433-.833 1.077-.407.644-.935 1.333-1.174 1.53-.286.238-.75.303-1.36.192-.814-.148-.862-.197-.397-.411.291-.134.53-.48.53-.77 0-.374.222-.565.771-.661.425-.074.817-.268.87-.431.063-.188-.17-.254-.639-.181-.708.11-.717.098-.224-.3.282-.227.598-.414.701-.414.103 0 .417-.389.698-.864.396-.672.454-1.03.261-1.608-.21-.63-.156-.809.345-1.16l.592-.415-.569-.429c-.457-.345-.535-.597-.398-1.284.094-.47.272-.854.396-.854s.453-.445.732-.988l.506-.987.446 1.054c.31.73.399 1.425.291 2.262-.085.665-.02 1.595.144 2.066.265.763.23.931-.328 1.525-.522.556-.611.89-.535 1.988.08 1.14-.038 1.53-.86 2.862-.523.848-.952 1.768-.952 2.045 0 .276-.143.645-.317.82-.175.174-.398.317-.496.317z" id="path1215-9-41" fill="#212121" stroke-width=".265"></path></g></g></svg>