<svg xmlns="http://www.w3.org/2000/svg" width="86" height="92" viewBox="0 0 23.001 24.441"><title>ryza2 race ancient philuscha</title><g fill="#212121" class="nc-icon-wrapper"><g transform="translate(-414.023 -248.243)"><path d="M425.482 272.614c-1.09.12-1.463.088-1.276-.112.145-.156 1.121-.648 2.168-1.093 1.231-.523 2.35-.809 3.166-.809 1.122 0 1.218.044.865.397-.219.219-1.069.633-1.89.922-.82.288-2.185.601-3.033.695zm-2.04-.185a15.646 15.646 0 0 0-.887-.272c-.471-.136-1.12-.603-1.44-1.037l-.585-.79-.981.958-.981.958-.463-.706c-.255-.39-1.16-1.243-2.01-1.897-.85-.655-1.546-1.366-1.546-1.58 0-.315.117-.335.595-.105.417.201.338.06-.265-.473-.842-.744-.86-.804-.855-2.99 0-1.226.114-2.403.248-2.615.209-.33.323-.315.79.107.3.271.557.683.572.915.015.233.135-.054.268-.636s.311-1.237.397-1.455c.12-.307.207-.262.384.198.127.328.353.596.503.596.15 0 .273-.125.273-.278 0-.153-.193-.659-.429-1.125-.236-.465-.616-1.06-.846-1.322-.23-.262-.458-.678-.507-.926a51.59 51.59 0 0 1-.247-1.443c-.086-.545-.052-.991.076-.99.128 0 .633.244 1.121.542.489.297 1.174.881 1.524 1.297.35.415.992.88 1.427 1.03.435.153.791.225.791.162 0-.064-.417-.29-.926-.502-.62-.259-.926-.562-.926-.915 0-.29-.23-.689-.512-.886-.282-.197-.762-.994-1.068-1.77-.306-.775-.5-1.467-.43-1.537.07-.07.462.105.87.388.409.283.905.61 1.103.724.292.17.329-.035.193-1.08-.092-.71-.068-1.646.054-2.08.218-.774.237-.755 1.096 1.109.48 1.043 1.157 2.162 1.504 2.488.346.325.63.715.63.866 0 .151-.299.517-.663.814-.58.473-.63.636-.396 1.333l.265.793-.121-.836c-.083-.574 0-.882.265-.984.212-.081.866-.891 1.454-1.8.933-1.444 1.087-1.578 1.22-1.066.085.322.23.585.321.584.092-.001.525-.239.962-.528.436-.289.89-.526 1.008-.527.118-.001.186.742.151 1.652-.055 1.426-.175 1.777-.876 2.555l-.812.903 1.001-.77c.649-.499.962-.93.887-1.224-.074-.294.271-.766.983-1.344.604-.49 2.437-1.86 4.074-3.045 1.637-1.185 2.976-2.01 2.976-1.831 0 .178-.348 1.058-.772 1.956-.565 1.195-.932 1.656-1.368 1.72-.328.048-.645.236-.705.418-.06.182.032.33.203.33s.64-.233 1.04-.518c.401-.285 1.25-.636 1.886-.779.637-.143 1.211-.206 1.277-.14.066.066-.22.476-.637.911-.455.475-1.03.792-1.436.792-.373.001-1.065.237-1.538.526-.473.288-.86.649-.86.802 0 .192.157.194.512.004.281-.15.901-.274 1.378-.274h.866l-1.168 1.19c-1.013 1.033-1.093 1.191-.6 1.191.312 0 .631.102.708.227.077.124-.324.6-.891 1.056-.568.456-1.105 1.057-1.193 1.336-.09.279-.33.572-.537.651-.305.118-.325.011-.105-.57.148-.394.582-1.043.964-1.443.68-.713.683-.728.116-.728-.319 0-.58-.11-.58-.244s.499-.67 1.107-1.19c.608-.52 1.046-.947.973-.947-.073 0-.693.19-1.377.424-.96.327-1.33.353-1.617.115-.289-.24-.54-.212-1.118.122-.41.237-.507.353-.216.257.29-.096.708-.241.926-.323.218-.08.07.205-.33.636-.401.43-.728.91-.728 1.067 0 .156-.338.423-.75.594-.412.17-1.191.84-1.732 1.487-.939 1.123-.956 1.178-.376 1.187.552.01.51.096-.45.929-.582.505-1.435 1.146-1.896 1.423-.46.278-.907.435-.992.35-.085-.085-.154-.798-.154-1.585 0-1.287.122-1.596 1.214-3.065.668-.898.93-1.328.584-.955-.346.372-.831.755-1.077.85-.246.094-.385.335-.308.536.077.2-.037.51-.253.69-.25.208-.458 1.079-.575 2.42-.1 1.15-.336 2.303-.524 2.56-.187.257-.433.375-.546.262-.112-.113-.066-.59.105-1.06.17-.47.237-1.3.148-1.845-.088-.545-.267-.99-.397-.99s-.365.327-.523.727c-.207.527-.203 1.047.015 1.888.166.638.24 1.22.167 1.294-.074.074-.328-.026-.564-.222-.336-.279-.394-.632-.265-1.606.094-.706.055-1.317-.088-1.405-.14-.087-.291.232-.337.708-.046.475-.202.864-.348.864-.146 0-.303-.268-.35-.596-.046-.329.09-.945.301-1.37.25-.499.337-1.202.248-1.988-.103-.916-.325-1.375-.896-1.855-.417-.351-.758-.71-.758-.797 0-.087-.421-.58-.936-1.094l-.936-.936.174.747c.095.41.393 1.103.66 1.54.269.436.744 1.261 1.058 1.834.313.572.623 1.703.689 2.513.088 1.079.045 1.367-.158 1.076-.153-.218-.28-.59-.283-.827 0-.237-.182-.579-.4-.76-.219-.181-.397-.265-.397-.187 0 .079.236.694.524 1.366.288.673 1.136 1.87 1.884 2.661l1.36 1.438 1.138-1.266c.675-.751 1.82-1.606 2.812-2.1.921-.459 2.508-1.03 3.526-1.27 1.019-.24 2.538-.788 3.376-1.22.838-.43 1.73-.737 1.984-.68.359.08.108.454-1.126 1.683-.873.87-2.057 1.867-2.63 2.218-.574.35-1.611 1.142-2.305 1.758-.694.616-1.798 1.435-2.455 1.82-.656.384-1.316.623-1.466.53-.15-.092-.272.018-.272.245s.155.412.345.412c.19 0 .934-.37 1.653-.821.72-.452 1.578-1.07 1.907-1.372.392-.36 1.143-.615 2.173-.736 1.155-.136 1.874-.405 2.695-1.01.616-.453 1.22-.823 1.343-.823.122 0 .928-.715 1.79-1.588.862-.873 1.632-1.587 1.71-1.587.078 0 .136.268.128.595-.01.327-.402 1.667-.875 2.977l-.86 2.38-1.176.025c-.647.014-2.302.307-3.679.65-2.034.51-2.938.913-4.828 2.154-1.28.84-2.326 1.595-2.326 1.678 0 .083.148.055.33-.061a626.31 626.31 0 0 0 2.315-1.51c1.558-1.017 2.466-1.402 4.22-1.785 1.23-.269 2.6-.484 3.043-.478l.807.011-1.114 1.009c-1.063.96-1.2 1.008-2.921 1.008-1.565 0-2.119.147-4.148 1.097-1.287.604-2.354 1.087-2.37 1.074zm-5.2-3.151c.107 0-.273-.506-.843-1.124-.57-.618-1.103-1.449-1.182-1.846-.08-.398-.304-.855-.498-1.016-.23-.191-.297-.578-.192-1.106.11-.548.07-.754-.123-.635-.158.097-.35-.033-.428-.29-.078-.256-.077.01 0 .593.079.582.297 1.237.483 1.455.187.218.418.727.514 1.13.096.405.602 1.208 1.124 1.787.523.578 1.037 1.052 1.144 1.052zm.465-1.13c.07-.46-.112-1.096-.487-1.701-.328-.532-.642-.835-.696-.672-.054.162.148.54.448.84.3.3.563.933.585 1.406.037.808.046.816.15.126zm4.764-.326c.072-.29.25-.676.396-.857.147-.18.367-.265.49-.19.122.076.422-.167.667-.54.244-.373.359-.763.255-.867-.104-.105-.597.255-1.094.798-.52.568-.892 1.242-.874 1.586.028.54.044.547.16.07zm-6.144-2.513a.133.133 0 1 0 0-.265.133.133 0 0 0 0 .265zm2.546-3.105c.18-.18.262-.393.18-.474-.081-.082-.229.065-.328.326-.144.377-.113.408.148.148zm.068-.864c.073 0 .206-.119.296-.265.09-.145.104-.264.03-.264-.072 0-.205.119-.295.264-.09.146-.104.265-.03.265zm2.093-.61c.176-.065.292-.244.26-.398-.034-.154.116-.783.333-1.397.216-.615.346-1.165.288-1.223-.058-.058-.352.624-.653 1.515-.362 1.07-.439 1.58-.228 1.503zm-1.202-.503c.182-.15.713-.97 1.18-1.82.589-1.07.923-1.448 1.084-1.225.157.216.185.17.084-.141-.082-.255-.034-.463.107-.463.141 0 .257-.186.257-.413 0-.227-.11-.345-.243-.262-.134.082-.676.923-1.204 1.868-.528.944-1.003 1.717-1.055 1.717-.052 0-.063-.208-.025-.463s.018-.313-.045-.13c-.063.185-.195.285-.293.225-.098-.061-.178.225-.178.635 0 .567.08.68.33.472zm3.534-.21c.073 0 .537-.417 1.03-.926.494-.51.838-.926.766-.926-.073 0-.537.417-1.03.926-.494.51-.838.926-.766.926zm2.22-1.852a.133.133 0 1 0 0-.265.133.133 0 0 0 0 .265zm.662-.265c.194 0 .274-.079.177-.176a.25.25 0 0 0-.353 0c-.097.097-.018.176.176.176zm.794-.264c.194 0 .274-.08.177-.177a.25.25 0 0 0-.353 0c-.097.097-.018.177.176.177zm-8.731-2.117c.145 0 .264-.112.264-.249s-.119-.322-.264-.412c-.146-.09-.265.022-.265.249s.12.412.265.412zm-1.774 15.875c-.138 0-.54-.314-.892-.697-.572-.622-.582-.667-.091-.411.303.157.705.47.892.697.188.226.229.411.091.411zm12.132-5.291c-.893 0-.904-.013-.445-.52.259-.286.979-.714 1.6-.951.621-.237 1.346-.39 1.611-.339.377.073.227.282-.684.951-.785.578-1.467.859-2.082.859zm-6.522-5.821a.133.133 0 1 1 0-.265.133.133 0 0 1 0 .265zm2.19-7.06l-.985.726-.157-.625c-.115-.46.202-1.213 1.2-2.852l1.356-2.228-.18 2.117c-.1 1.164-.196 2.121-.215 2.127a35.91 35.91 0 0 0-1.019.736z" id="path1215-9" fill="#212121" stroke-width=".265"></path></g></g></svg>