<svg xmlns="http://www.w3.org/2000/svg" width="66" height="59" viewBox="0 0 17.623 15.859"><title>ryza2 category puniballs</title><g fill="#212121" class="nc-icon-wrapper"><g transform="translate(-61.274 147.122)"><path d="M68.94-131.263c-.67-.01-1.517-.136-1.881-.28-.364-.146-.94-.525-1.282-.844-.341-.319-.785-.896-.986-1.282-.201-.386-.388-1.041-.415-1.455-.028-.414.036-1.127.14-1.585.106-.458.423-1.042.706-1.298s.514-.552.514-.658c0-.106-.22-.25-.488-.32-.288-.076-.608.065-.78.342-.162.258-.662.55-1.111.65-.563.123-1.025.043-1.484-.258-.52-.34-.648-.62-.584-1.274.056-.582.283-.938.743-1.166.593-.294.661-.489.661-1.877 0-1.215.143-1.76.662-2.526.364-.537 1.145-1.213 1.737-1.502.592-.29 1.399-.526 1.794-.526.396 0 1.162.185 1.703.411.54.226 1.313.727 1.715 1.112.403.386.855 1.159 1.006 1.719.27 1.005.28 1.01.723.465.248-.303.912-.71 1.476-.903.652-.223 1.355-.277 1.924-.149.494.112 1.175.384 1.514.606.339.222.813.818 1.053 1.324.24.506.434 1.14.432 1.409a1.975 1.975 0 0 1-.252.882c-.177.278-.088.563.302.978.323.345.483.762.386 1.013-.09.235-.287.351-.437.259-.15-.093-.24-.014-.2.175.04.19-.204.386-.542.438-.338.05-.814.005-1.058-.103-.244-.108-1.012-.227-1.706-.265-.695-.037-1.636-.286-2.091-.552-.456-.266-1.062-.935-1.348-1.485-.479-.923-.547-.964-.877-.53-.197.26-.362.554-.367.653-.005.1.218.252.494.34.277.088.828.483 1.225.878.398.395.838 1.046.979 1.446.212.603.412.727 1.168.727.616 0 1.124.211 1.562.65.44.44.65.945.65 1.568 0 .678-.184 1.063-.698 1.467-.383.302-1.033.549-1.443.549-.41 0-1.028-.13-1.375-.287-.525-.24-.796-.174-1.637.397-.738.501-1.332.679-2.227.667zm-.029-.543c.364.004 1.019-.162 1.455-.368l.794-.374-.794.188c-.436.103-1.33.168-1.984.144-.86-.031-1.044.019-.662.18.291.123.827.226 1.191.23zm6.747-2.616c.073 0 .132-.059.132-.132a.133.133 0 0 0-.132-.132.133.133 0 0 0-.132.132c0 .073.06.132.132.132zm-1.809-.382c.388-.07.824-.247.97-.393.178-.178.127-.319-.155-.427-.23-.089-.667-.029-.97.133-.302.162-.55.412-.55.555 0 .143.317.203.705.132zm-1.302-.498c.063-.266.045-.554-.04-.64-.086-.085-.23-.081-.321.01-.091.09-.073.378.04.639.197.453.212.453.321-.01zm-6.764-.7c.222-.775.303-.847.518-.463.14.25.485.456.766.456.33 0 .703-.378 1.057-1.071.3-.59.72-1.138.931-1.22.212-.08.385-.253.385-.383s-.363-.236-.807-.236c-.444 0-1.156.18-1.583.4-.427.222-.956.751-1.177 1.178-.221.427-.39 1.11-.378 1.517.023.708.036.7.288-.178zm-2.708-2.388c.282 0 .576-.102.653-.227.077-.124-.154-.17-.514-.101-.359.069-.653.17-.653.226 0 .056.231.102.514.102zm13.59 0c.216 0 .463-.188.551-.416.111-.29.027-.39-.28-.331-.242.047-.49.234-.55.416-.061.182.065.33.28.33zm-.957-.548c.028.01.125-.1.214-.246.095-.154-.147-.257-.58-.246-.653.016-.679.046-.213.246.29.125.552.236.58.246zm-9.178-.287c.073 0 .549-.154 1.058-.343l.926-.344-1.389.033c-.763.018-1.389.113-1.389.21 0 .097.149.236.33.31.183.073.391.134.464.134zm-4.268-.734c.272-.146.57-.19.661-.098.092.092.167.029.167-.141 0-.17-.11-.309-.243-.309s-.431.072-.661.16c-.23.089-.419.272-.419.407 0 .144.204.136.495-.02zm2.034-.813a.117.117 0 0 0 .117-.116c0-.064-.137-.202-.305-.306-.19-.117-.234-.072-.117.117.104.168.241.305.305.305zm6.004-.86c.182-.036.412-.244.51-.462.1-.219.189-.546.2-.728.01-.19-.207-.107-.512.198-.29.291-.529.649-.529.794 0 .146.15.235.331.199zm3.59-.202c.045.002.313-.12.595-.27.329-.176.511-.553.511-1.058 0-.536-.131-.785-.414-.785-.228 0-.674.137-.992.305-.318.167-.665.435-.772.595-.107.16-.197.447-.199.637-.002.19.091.288.207.216.116-.071.384-.02.596.113.21.134.421.245.467.247zm-9.872-1.15c.27-.27.69-.352 1.297-.254.753.122.968.039 1.333-.518.273-.417.373-.91.268-1.328-.12-.48-.033-.746.32-.965.396-.247.316-.27-.442-.126-.509.096-1.251.342-1.649.545-.398.203-.904.719-1.124 1.146-.221.426-.402 1.028-.402 1.337 0 .5.044.518.4.162z" id="path1196-1-4" fill="#212121" stroke-width=".265"></path></g></g></svg>