<svg xmlns="http://www.w3.org/2000/svg" width="73" height="68" viewBox="0 0 19.522 18.184"><title>ryza2 category food</title><g fill="#212121" class="nc-icon-wrapper"><g transform="translate(36.07 204.954)"><path d="M-32.552-186.77c-.206 0-.517-.143-.692-.317-.174-.175-.317-.57-.317-.88 0-.357.795-1.327 2.183-2.664 1.2-1.157 2.6-2.47 3.109-2.919.509-.448 1.695-1.605 2.635-2.57 1.338-1.375 1.64-1.826 1.39-2.077-.177-.176-.321-.718-.321-1.204s.237-1.348.527-1.916c.29-.568.914-1.323 1.389-1.678a13.938 13.938 0 0 1 1.694-1.066c.458-.232 1.305-.496 1.883-.589.606-.097 1.285-.043 1.604.128.304.163.666.708.805 1.21.18.654.15 1.259-.108 2.115-.198.659-.73 1.735-1.18 2.39-.452.656-1.262 1.418-1.801 1.693-.539.274-1.217.536-1.507.58-.29.045-.871-.008-1.29-.118-.603-.158-.9-.072-1.42.41-.361.335-1.885 2.097-3.385 3.916-1.5 1.819-3.2 3.813-3.776 4.432-.576.618-1.216 1.124-1.422 1.124zm.065-.794c.106 0 .26-.178.345-.396.09-.238.002-.397-.221-.397-.205 0-.436.102-.514.227-.077.126-.064.304.029.397.093.093.255.17.361.17zm10.415-9.797c.544-.008.544-.011.02-.3-.29-.162-.797-.536-1.124-.833-.328-.296-.595-.437-.595-.311 0 .125.258.503.575.84.316.336.822.608 1.124.604zm2.96-1.315c.096 0 .44-.31.767-.69.326-.38.743-1.144.925-1.697.183-.553.254-1.318.158-1.7a1.468 1.468 0 0 0-.846-.95c-.369-.14-.937-.255-1.263-.255-.326 0-1.152.355-1.835.788-.683.434-1.243.91-1.243 1.059 0 .149.445.033.989-.259.543-.291 1.258-.53 1.587-.53.33 0 .838.239 1.129.53.29.29.529.772.529 1.069 0 .296-.24 1.01-.535 1.587-.294.576-.456 1.048-.361 1.048zm.047 11.906c-.05 0-.379-.202-.73-.448-.353-.247-1.26-1.11-2.016-1.918a77.657 77.657 0 0 1-2.577-2.923c-1.094-1.324-1.165-1.494-.797-1.9.375-.415.544-.335 2.298 1.09 1.042.847 2.578 2.258 3.415 3.138.837.88 1.521 1.782 1.521 2.006 0 .224-.23.53-.511.681-.282.15-.553.274-.603.274zm.069-.529c.121 0 .302-.132.402-.294.1-.162.024-.392-.17-.512s-.442-.162-.552-.094c-.11.068-.132.298-.05.512.082.213.248.388.37.388zm-8.017-8.257c-.238.198-.535.098-1.068-.36-.597-.514-.829-.579-1.214-.338-.314.196-.63.212-.928.045-.248-.139-1.585-1.368-2.97-2.733-1.386-1.364-2.631-2.689-2.768-2.943-.136-.255-.147-.525-.024-.601.124-.077.903.466 1.733 1.206.83.74 1.58 1.274 1.667 1.187.087-.087-.395-.83-1.07-1.65-.676-.82-1.229-1.597-1.229-1.726s.13-.234.289-.234c.158 0 .935.552 1.726 1.228.79.676 1.513 1.153 1.605 1.06.092-.091-.46-.889-1.227-1.77-.767-.883-1.327-1.672-1.245-1.755.083-.082.603.21 1.155.65.552.44 1.987 1.81 3.187 3.042 1.2 1.234 2.183 2.412 2.183 2.619 0 .207-.141.517-.314.69-.242.242-.182.455.265.93.318.339.578.742.578.897 0 .155-.149.405-.33.556zm-2.93-1.268c.193 0 .35-.048.35-.106 0-.059-.446-.368-.991-.688l-.993-.582.642.688c.353.378.799.688.992.688zm.824-.794c.121 0 .481-.243.8-.54.318-.296.579-.573.579-.615 0-.041-.314-.364-.698-.717l-.697-.641.32.613c.26.5.241.73-.103 1.256-.232.355-.323.644-.201.644z" id="path1196-1-6-2" fill="#212121" stroke-width=".265"></path></g></g></svg>