<svg xmlns="http://www.w3.org/2000/svg" width="53" height="71" viewBox="0 0 14.251 18.832"><title>ryza2 category neutralizers</title><g fill="#212121" class="nc-icon-wrapper"><g transform="translate(7.418 176.045)"><path d="M.373-157.213c-1.2.004-1.945-.165-2.97-.676-.754-.376-1.713-1.12-2.132-1.654-.419-.534-.91-1.424-1.09-1.978-.18-.554-.322-1.593-.316-2.309.006-.718.254-1.854.554-2.533.3-.676.542-1.542.539-1.924-.003-.382-.23-1.185-.502-1.786-.273-.6-.629-1.174-.792-1.275-.163-.1-.473-.606-.689-1.123-.216-.517-.393-1.093-.393-1.28 0-.188.8-.78 1.777-1.318l1.777-.976.604.702c.333.387.605.879.605 1.094 0 .215.314 1.01.698 1.769.384.758.89 1.52 1.125 1.692.234.173 1.119.438 1.966.588.847.15 1.946.524 2.443.83.496.308 1.323 1.05 1.837 1.65.514.6 1.064 1.574 1.222 2.162.159.589.238 1.667.176 2.396-.062.728-.33 1.78-.596 2.335-.265.556-.85 1.378-1.298 1.826-.448.449-1.294 1.033-1.879 1.299-.648.294-1.69.486-2.666.489zm-.118-.805c.928.002 1.839-.188 2.514-.523.582-.29.82-.446.529-.348-.291.098-1.37.231-2.397.295-1.027.064-2.307-.005-2.844-.153-.537-.148-.977-.214-.977-.146s.387.292.86.498c.473.205 1.515.375 2.315.377zm1.455-2.629c.073 0 .133-.06.133-.132a.133.133 0 0 0-.133-.132.133.133 0 0 0-.132.132c0 .073.06.132.132.132zm.265-.962c.218-.084.397-.259.397-.389s-.179-.236-.397-.236a.394.394 0 0 0-.397.388c0 .237.155.33.397.237zm1.74-.096c.099 0 .323-.173.5-.385.175-.212.242-.51.148-.662-.094-.152-.389-.276-.656-.276-.266 0-.548.164-.625.365-.077.2-.006.498.157.661.163.163.378.297.476.297zm-5.047-.623c.8-.041 1.767-.245 2.15-.453.381-.209 1.079-.598 1.55-.865.472-.266 1.497-.55 2.278-.631 1.374-.142 1.416-.17 1.256-.838a7.415 7.415 0 0 0-.501-1.353c-.185-.363-.674-.982-1.087-1.375-.414-.392-1.194-.898-1.735-1.124-.541-.226-1.45-.411-2.018-.411-.57 0-1.466.18-1.993.4-.527.22-.959.295-.959.165 0-.13.244-.4.542-.599.537-.36.535-.375-.307-1.95-.467-.873-.894-1.642-.95-1.709-.055-.066-.63.17-1.28.524-.649.354-1.18.695-1.18.757 0 .062.423.868.94 1.791.516.924 1.074 1.68 1.24 1.68.165 0-.006.327-.38.727a8.215 8.215 0 0 0-1.113 1.585c-.238.471-.419.947-.401 1.058.017.11.134.393.259.627.125.234.764.576 1.419.759a6.192 6.192 0 0 0 2.449.145c.691-.104 1.496-.356 1.788-.56.293-.205.952-.365 1.465-.355.898.017.909.028.272.293-.364.152-1.161.506-1.772.788-.61.281-1.622.62-2.249.755l-1.139.243zm5.424-2.615l-1.059.07.639-.544c.35-.299.827-.507 1.058-.463.23.045.42.258.42.474 0 .271-.33.415-1.058.463zm-3.32-.202c-.239 0-.657-.245-.928-.544-.377-.417-.427-.65-.212-.993.155-.246.587-.556.96-.69.507-.18.855-.127 1.362.205.49.321.682.678.682 1.267 0 .709-.055.774-.408.481-.309-.256-.482-.264-.714-.032a1.208 1.208 0 0 1-.742.306zm.01-1.51c.289-.075.464-.238.388-.36-.076-.123-.313-.156-.526-.074-.214.082-.389.244-.389.36 0 .117.237.15.526.074zm-6.896-5.898c.144 0 .238-.357.207-.793-.03-.436-.149-.794-.262-.794-.114 0-.276.178-.36.396a1.284 1.284 0 0 0 0 .794c.085.218.271.397.415.397zm1.739-2.117c.073 0 .132-.06.132-.132a.133.133 0 0 0-.132-.132.133.133 0 0 0-.132.132c0 .073.06.132.132.132z" id="path1196-1-9-54" fill="#212121" stroke-width=".265"></path></g></g></svg>