<svg xmlns="http://www.w3.org/2000/svg" width="85" height="85" viewBox="0 0 22.703 22.716"><title>ryza2 category gunpowder</title><g fill="#212121" class="nc-icon-wrapper"><g transform="translate(41.169 122.153)"><path d="M-30.385-99.437c-.157 0-.223-.984-.167-2.5.076-2.087.038-2.4-.23-1.886-.177.339-.559.677-.848.753-.29.076-.74-.025-1.001-.223-.261-.198-.903-.364-1.427-.369-.6-.005-1.124-.2-1.419-.526-.322-.356-.434-.81-.359-1.455.06-.516.013-.938-.105-.938-.117 0-.719.229-1.335.507-.617.28-1.706.757-2.42 1.062-.713.305-1.368.483-1.455.396-.087-.087.154-.415.535-.73s1.626-1.15 2.766-1.856c1.713-1.06 1.994-1.326 1.622-1.534-.248-.139-.629-.598-.847-1.02-.218-.422-.397-1.24-.397-1.818 0-.744.2-1.289.68-1.86.375-.446 1.15-.95 1.72-1.121.72-.216 1.04-.461 1.04-.799 0-.268.11-.487.244-.487s.366.387.516.86c.15.473.35 1.307.447 1.855.096.547.286 1.063.42 1.146.137.085.186-.122.111-.465-.074-.34-.516-2.611-.983-5.047-.467-2.436-.776-4.502-.687-4.59.088-.09.27-.095.404-.012.133.083.628 1.226 1.098 2.542.47 1.315.965 2.324 1.098 2.242.133-.082.242-.639.242-1.237 0-.597.09-1 .198-.893.11.107.402 1.169.65 2.36.402 1.926.442 2.011.369.767-.076-1.28-.015-1.454.727-2.079.697-.586.994-.663 2.13-.554 1.01.097 1.462.293 1.93.837.336.39.61.888.61 1.106 0 .291.243.21.927-.311.509-.389.926-.624.926-.522 0 .101-.735 1.098-1.632 2.214-1.491 1.855-1.531 1.936-.463.937.643-.6 1.317-1.037 1.5-.97.181.068.33.35.33.63 0 .281.182.507.41.507.226 0 .76.18 1.186.401.427.221.957.75 1.178 1.178.22.427.401 1.031.401 1.343 0 .313-.198.903-.44 1.312-.24.409-.907 1.007-1.48 1.329l-1.042.585 1.349 1.366c.741.751 1.348 1.455 1.348 1.563 0 .108-.35.015-.78-.207-.43-.222-.857-.403-.95-.403-.093 0 .633.895 1.612 1.99.98 1.095 1.726 2.046 1.658 2.115-.069.068-1.187-.723-2.486-1.757-1.298-1.035-2.897-2.242-3.551-2.683l-1.191-.802 1.038 1.09c.94.986 1.01 1.152.733 1.76-.168.368-.694.906-1.17 1.197-.476.29-1.23.528-1.675.528-.445 0-1.04-.174-1.323-.387-.282-.214-.58-.393-.663-.397-.083-.005-.424.884-.76 1.976-.334 1.091-.725 1.984-.867 1.984zm-.389-6.632c.264.01.704-.102.976-.248.332-.177.55-.177.66 0 .09.146.43.265.757.265.326 0 .736-.142.91-.317.175-.175.318-.416.318-.535 0-.12-.304-.019-.676.225-.65.425-.682.42-.825-.126-.081-.313-.24-.57-.35-.57-.11 0-.35.18-.53.397-.182.219-.725.397-1.209.397-.608 0-1.005-.18-1.29-.588-.227-.323-.424-1.067-.439-1.653l-.027-1.066-.273.851c-.198.616-.185 1.064.046 1.622.175.424.578.896.895 1.049.317.153.793.287 1.057.297z" id="path1196-1-2-6" fill="#212121" stroke-width=".265"></path></g></g></svg>