<svg xmlns="http://www.w3.org/2000/svg" width="83" height="89" viewBox="0 0 22.11 23.747"><title>ryza2 race hedgehog</title><g fill="#212121" class="nc-icon-wrapper"><g transform="translate(-363.415 -187.49)"><path d="M372.328 210.56c-.77.722-.957.78-1.791.57-.74-.188-.99-.42-1.21-1.126-.274-.874-.267-.885.372-.642.537.204.724.142 1.07-.353.232-.33.386-.869.342-1.198-.052-.395.06-.598.329-.598.223 0 .54-.25.704-.557.215-.401.218-.638.011-.845-.206-.207-.659-.168-1.612.136-.872.28-1.263.32-1.142.118.101-.169-.03-.133-.291.079-.36.292-.442.63-.34 1.39.094.709.034 1.002-.206 1.002-.186 0-.495.188-.685.417-.255.308-.592.371-1.28.242-.514-.096-1.249-.338-1.633-.537-.385-.199-.853-.73-1.04-1.183-.321-.775-.295-.86.472-1.533.447-.392.884-1.01.973-1.375.117-.483.019-.402-.367.299-.29.528-.715 1.032-.944 1.12-.247.095-.482-.007-.575-.25-.086-.225-.095-1.183-.019-2.13.1-1.24.291-1.883.684-2.302.387-.412.474-.696.298-.974-.136-.216-.25-.72-.252-1.12 0-.416.14-.728.334-.728.186 0 .589.176.896.391.511.358.571.345.701-.152.123-.47.22-.501.723-.232.483.258.706.218 1.331-.245.414-.306.829-.556.924-.556.095 0 .123.417.064.926-.06.51-.01.926.11.926s.334-.305.476-.678c.142-.374.258-.81.258-.97 0-.16-.078-.214-.173-.12-.095.095-.31-.016-.478-.246-.272-.372-.396-.343-1.115.263-.79.665-.82.67-1.263.18-.363-.402-.394-.612-.154-1.06.166-.31.43-.477.595-.375.198.122.235.023.11-.3-.101-.266-.051-1.398.112-2.515.164-1.117.399-2.195.523-2.397.125-.2.28-.31.346-.24.066.068.015.838-.113 1.712-.128.873-.29 1.993-.36 2.49-.07.499-.027.795.096.662s.367-1.417.542-2.854c.176-1.436.532-3.103.792-3.704.259-.6.708-1.304.997-1.562.288-.258.711-.398.94-.31.227.087.486.346.573.575.088.228.246 1.32.35 2.426l.192 2.012.158-1.455c.122-1.123.204-1.322.36-.87l.202.586.959-.652c.527-.358 1.036-.652 1.13-.652.094 0 .319.357.5.794.18.437.412.794.515.794.102 0 1.06-.298 2.13-.662 1.07-.364 1.99-.661 2.044-.661.054 0 .017.727-.084 1.617l-.182 1.616.765-.152a83.35 83.35 0 0 1 1.757-.323c.546-.094.992-.096.992-.004 0 .091-.298.638-.661 1.214-.364.577-.662 1.156-.662 1.287 0 .132.268.31.595.399.328.087.864.16 1.191.163.328.002.595.072.595.155s-.32.698-.712 1.367l-.712 1.215.632.42c.347.23.869.61 1.158.845.515.416.5.444-.58 1.16-.61.403-1.109.822-1.109.93 0 .11.417.516.927.905.509.388.926.796.926.905 0 .11-.83.466-1.843.793-1.425.459-1.975.786-2.425 1.441-.32.466-.83 1.125-1.132 1.463l-.551.616-.14-.59c-.077-.326-.375-.722-.662-.88-.288-.16-.553-.3-.59-.312-.035-.012.233-.754.596-1.649.364-.894.661-1.915.661-2.268 0-.617-.038-.63-.966-.346-.877.27-1.002.243-1.355-.289-.214-.322-.491-.586-.616-.586s-.085.31.087.689c.28.613.427.674 1.348.55l1.034-.138-.17 1.057c-.092.582-.525 1.763-.96 2.625-.783 1.552-.802 1.567-1.942 1.567-.89 0-1.308.158-1.848.698-.384.383-.698.955-.698 1.27 0 .316-.386.936-.86 1.38zm-8.004-2.826c.146 0 .443-.115.662-.256.218-.141.277-.257.132-.257-.146 0-.443.116-.662.257-.218.14-.277.256-.132.256zm8.122-.317c.174-.058.404-.436.512-.839.108-.403.131-.9.052-1.107-.092-.24-.491-.36-1.108-.335-.894.037-.906.048-.17.153.437.062.9.217 1.032.344.14.135.058.505-.199.896-.24.366-.436.74-.436.83 0 .09.142.116.316.058zm-6.688-.22c.207.009.594-.18.86-.422.266-.24.484-.604.484-.806 0-.203.189-.734.42-1.18.301-.584.338-.892.132-1.099-.158-.158-.287-.607-.287-1 0-.405.18-.78.418-.872.23-.089.802-.161 1.27-.161.469 0 .992.14 1.163.311.239.239.438.197.856-.181.3-.271.694-.798.876-1.171.274-.562.504-.673 1.332-.647.599.02.905-.065.761-.208-.132-.132-.666-.309-1.186-.393-.885-.144-.992-.083-1.634.935-.641 1.016-.77 1.09-1.893 1.09-.662 0-1.43.12-1.707.269-.405.216-.497.541-.468 1.653.019.762-.116 1.84-.3 2.395-.192.58-.577 1.109-.904 1.24-.313.126-.4.237-.193.247zm7.826-.777a.133.133 0 1 0 0-.265.133.133 0 0 0 0 .265zm1.43-1.168c.584-.57 1-1.136.924-1.259-.076-.123-.496-.408-.933-.634-.437-.226-1.114-.374-1.504-.329-.538.062-.726.243-.774.744-.063.652-.06.652.19.066.142-.333.486-.596.779-.596.289 0 .828.139 1.199.308.37.168.674.463.674.655 0 .191-.288.537-.64.767-.351.23-.715.62-.809.866-.093.246.309-.019.893-.588zm-5.134.638a.133.133 0 1 0 0-.265.133.133 0 0 0 0 .265zm.662-.264c.194 0 .273-.08.176-.177a.25.25 0 0 0-.353 0c-.097.097-.018.177.177.177zm-1.985-1.323a.133.133 0 1 0 0-.265.133.133 0 0 0 0 .265zm1.29 0c.056 0 .264-.208.464-.463.329-.42.32-.43-.1-.1-.255.2-.463.408-.463.463a.1.1 0 0 0 .1.1zm-.45-.454c.17-.064.38-.3.467-.526.087-.226.017-.58-.155-.787-.172-.207-.62-.34-.997-.297-.457.053-.71.261-.762.629-.052.363.127.642.529.823.334.151.747.222.918.158zm12.102-1.001c.375-.437.682-1.004.683-1.261 0-.257-.385-.703-.858-.991-.473-.289-.98-.524-1.125-.524-.145 0 .081.276.503.614.58.465.734.77.63 1.256-.077.352-.223.88-.326 1.17-.132.371.016.292.493-.264zm-10.78.044a.25.25 0 0 0 0-.353c-.098-.097-.177-.018-.177.176 0 .194.079.274.176.177zm-5.634-2.558c.055 0 .264-.208.463-.463.33-.42.32-.429-.1-.1-.254.2-.463.408-.463.463a.1.1 0 0 0 .1.1zm13.57-.617a.25.25 0 0 0 0-.353c-.096-.097-.176-.018-.176.176 0 .194.08.274.177.177zm.37-1.36c.129-.434.143-.88.032-.99-.111-.112-.792-.263-1.514-.337-1.256-.128-1.273-.121-.386.154.509.158 1.075.41 1.256.56.182.15.341.527.354.837.017.431.078.379.258-.225zm-7.425-.181c.364 0 .513-.06.33-.134a1.021 1.021 0 0 0-.66 0c-.183.074-.034.134.33.134zm1.009-.938c.045-.32-.053-.834-.218-1.143-.287-.536-.322-.517-.81.44-.28.55-.51 1.027-.51 1.06 0 .032.327.096.728.142.58.067.744-.035.81-.499zm.5-.267c.061-.322-.088-1.007-.331-1.522-.245-.515-.596-.936-.78-.936-.186 0-.508.268-.718.596a6.42 6.42 0 0 0-.562 1.124c-.111.326.117.174.595-.395.426-.508.828-.866.892-.794.064.072.252.39.418.709.165.318.316.853.336 1.19.036.606.037.607.15.028zm-2.7.188a.133.133 0 1 0 0-.265.133.133 0 0 0 0 .265zm-2.38-.264a.133.133 0 1 0-.001-.265.133.133 0 0 0 0 .265zm.528-.265a.133.133 0 1 0 0-.265.133.133 0 0 0 0 .265zm.498-.265c.073 0 .206-.119.296-.264.09-.146.104-.265.031-.265s-.206.12-.296.265c-.09.145-.104.264-.03.264zm8.552-.616c.07-.266.053-.772-.036-1.124-.108-.432-.348-.64-.734-.64h-.574l.579.539c.318.296.593.802.61 1.124.024.479.052.497.155.101zm-8.402-.784c.131-.406.304-1.538.383-2.514.109-1.342.086-1.549-.093-.848-.13.51-.303 1.64-.383 2.513-.106 1.147-.08 1.383.093.849zm1.775-.38c.072-.18.077-.537.01-.794-.067-.258-.126-.111-.132.325 0 .437.05.648.122.468zm2.664-.535a8.377 8.377 0 0 0 0-1.72c-.06-.472-.107-.086-.107.86s.048 1.333.107.86zm-2.4-1.318c.073-.179.078-.536.01-.793-.066-.258-.126-.111-.131.325-.01.437.049.648.122.468zm-.42-2.027c.418.015.697-.074.62-.199-.077-.124-.364-.226-.638-.226-.273 0-.552.09-.62.198-.066.11.22.211.638.227z" id="path1215-20-7" fill="#212121" stroke-width=".265"></path></g></g></svg>