<svg xmlns="http://www.w3.org/2000/svg" width="42" height="96" viewBox="0 0 11.349 25.533"><title>ryza2 category poisons</title><g fill="#212121" class="nc-icon-wrapper"><g transform="translate(12.398 92.575)"><path d="M-6.75-67.042h-4.869l-.416-.806c-.353-.682-.405-1.798-.338-7.29l.08-6.485 1.811-1.682 1.812-1.683-.108-1.412c-.059-.776-.16-1.59-.224-1.809-.081-.277.117-.423.657-.485.521-.059.661-.157.43-.3-.19-.118-.264-.346-.164-.508.1-.162.294-.294.431-.294s.25.232.25.516c0 .442.216.527 1.52.595 1.362.071 1.51.135 1.415.609-.059.29-.105 1.116-.103 1.833.003 1.264.058 1.356 1.76 2.96l1.757 1.657v6.876c0 5.899-.059 6.936-.416 7.292-.348.348-1.21.416-5.285.416zm.06-1.073c2.564.022 3.969-.07 4.214-.273.203-.169.369-.53.369-.803 0-.475-.023-.474-.53.032-.478.48-.881.53-4.23.53-3.416 0-3.728-.041-4.033-.53-.182-.29-.41-.529-.508-.529-.097 0-.149.195-.114.434.035.238.271.585.525.77.317.232 1.655.347 4.307.37zm.526-4.571a.25.25 0 0 0 0-.353c-.097-.097-.176-.018-.176.176 0 .194.079.274.176.177zm-1.54-.706c.278 0 .661-.188.853-.419.252-.304.271-.54.07-.86-.153-.242-.49-.44-.75-.44s-.593.192-.741.426c-.148.235-.195.622-.103.86.091.238.393.433.67.433zm2.482-1.012a.492.492 0 0 0 .072-.575c-.128-.208-.28-.223-.456-.046a.491.491 0 0 0-.073.575c.128.207.28.222.457.046zm-3.57-2.427c.043 0 .314-.148.603-.329.407-.254.638-.257 1.027-.015.413.258.584.223.967-.2.256-.283.677-.515.935-.515s.649.18.868.4c.247.246.462.297.564.131.09-.146.357-.266.591-.266.235 0 .644.197.91.438.466.42.484.352.484-1.754v-2.191L-3.4-82.624c-1.076-1.03-1.65-1.818-1.851-2.546-.161-.58-.293-1.382-.294-1.782-.001-.685-.07-.727-1.192-.727h-1.191v1.203c0 .662-.167 1.526-.37 1.919-.205.393-.979 1.288-1.72 1.989-1.306 1.234-1.35 1.323-1.37 2.778-.01.827-.06 1.706-.107 1.955-.07.365.055.423.662.301.472-.094.973.008 1.356.277.335.234.643.426.685.426zm.352-.794c-.265 0-.638-.189-.83-.42-.25-.302-.27-.54-.07-.86.151-.242.527-.478.834-.523.411-.062.604.092.726.58.091.365.089.79-.006.943-.095.154-.39.28-.654.28zm4.765-.316c-.156.053-.284-.103-.284-.346 0-.242.128-.398.284-.346.157.052.285.208.285.346 0 .139-.128.294-.285.346zm-.748-1.055c-.358.051-.66-.081-.756-.33a1.345 1.345 0 0 1 0-.831c.095-.25.398-.382.756-.331.437.062.596.261.596.746s-.16.684-.596.746zm-5.092-1.01c-.399 0-.542-.139-.48-.463.05-.255.265-.464.48-.464.214 0 .43.209.478.464.063.324-.08.463-.478.463zm2.513-.53a.398.398 0 0 1-.397-.397c0-.218.179-.396.397-.396.218 0 .397.178.397.396a.398.398 0 0 1-.397.397zm2.496-8.467c-.29 0-.597-.178-.68-.397a1.284 1.284 0 0 1 0-.793c.083-.219.443-.397.8-.397.356 0 .7.149.766.33.065.182.011.54-.12.794-.13.255-.476.463-.766.463zm-1.967-.794c-.573 0-.683-.107-.613-.595.055-.39.266-.595.613-.595.348 0 .558.204.614.595.07.488-.041.595-.614.595zm-1.587-1.058c-.384 0-.75-.188-.844-.433-.092-.238-.045-.625.103-.86.148-.234.481-.427.74-.427.26 0 .593.193.742.427.148.235.194.622.103.86-.094.245-.46.433-.844.433zm3.175-.264a.398.398 0 0 1-.397-.397c0-.219.178-.397.397-.397.218 0 .397.178.397.397a.398.398 0 0 1-.397.397z" id="path1196-1-8-94" fill="#212121" stroke-width=".265"></path></g></g></svg>