<svg xmlns="http://www.w3.org/2000/svg" width="87" height="87" viewBox="0 0 23.257 23.224"><title>ryza2 boss enemy</title><g fill="#212121" class="nc-icon-wrapper"><g transform="translate(-252.128 -245.7)"><path d="M259.617 268.874c-.13.13-.372.002-.556-.293-.208-.333-.617-.523-1.124-.523-.591 0-.874-.169-1.095-.654-.252-.552-.2-.8.336-1.586.577-.846.75-.931 1.9-.933.696 0 1.693.177 2.215.395.522.218 1.56.398 2.307.398.746.001 1.892-.17 2.547-.38.655-.209 1.72-.519 2.368-.688.685-.18 1.543-.674 2.05-1.182.762-.761.874-1.047.874-2.232 0-.775-.174-1.624-.406-1.978-.223-.34-.426-1.2-.45-1.909-.024-.709.043-1.544.15-1.854.14-.413 0-.79-.508-1.399-.386-.458-1.06-1.019-1.498-1.245-.437-.227-1.406-.594-2.15-.816-.769-.23-2.263-.393-3.45-.379-1.151.014-2.699.205-3.44.423-.74.219-1.736.64-2.214.934-.478.295-.943.73-1.033.965-.105.273.056.596.439.885.566.427.582.521.263 1.488-.188.567-.342 1.707-.343 2.532 0 1.076.19 1.885.672 2.86.556 1.123.622 1.47.379 1.985-.162.343-.475.635-.695.649-.22.013-.947.093-1.615.177-.927.115-1.32.047-1.654-.288-.279-.279-.439-.873-.439-1.63 0-.96-.148-1.341-.757-1.95-.534-.534-.674-.84-.476-1.038.154-.155.432-.281.616-.281.19 0 .27.173.184.397-.084.218-.026.397.127.397.154 0 .412-.209.574-.463.247-.388.27-.348.145.248-.083.391-.03.786.118.877.147.091.492.095.766.007.274-.087.644-.509.821-.938.178-.429.248-1.08.156-1.446-.108-.432-.352-.667-.692-.667-.288 0-.762-.238-1.053-.529-.29-.291-.529-.706-.529-.921 0-.216.3-.467.668-.56.368-.092.785-.384.926-.648.187-.349.143-.594-.158-.895-.229-.229-.764-.416-1.19-.416-.426 0-.775-.121-.775-.27 0-.149.324-.76.719-1.357a4.266 4.266 0 0 1 1.857-1.574c.756-.325 1.335-.822 1.728-1.487l.59-1 .133 1.19c.12 1.081.077 1.199-.463 1.275-.328.046-.712.3-.854.566-.216.404-.14.502.463.604.397.068.89.17 1.096.228.25.07.442-.205.576-.82.11-.51.4-1.046.646-1.191.245-.146.73-.482 1.078-.747.443-.338.633-.745.633-1.36 0-.51.23-1.139.548-1.502l.547-.624-.162.752c-.108.502 0 1.034.336 1.597.367.622.426.956.225 1.275-.195.31-.174.551.075.851.191.23.676.42 1.077.42.4 0 .876-.179 1.057-.396.18-.218.26-.653.179-.967-.082-.314.033-.923.255-1.352.227-.44.334-1.059.245-1.415-.087-.348-.095-.633-.018-.633.078 0 .377.387.665.86.289.473.525 1.171.526 1.552 0 .514.273.873 1.059 1.393.898.594 1.058.84 1.058 1.623 0 .626.123.922.382.922.21 0 .454-.12.544-.265.09-.145.459-.264.819-.264.573 0 .62-.066.372-.53-.156-.29-.517-.529-.803-.529-.445 0-.52-.182-.514-1.256l.01-1.257.517.661c.285.364.52.744.524.844 0 .1.6.506 1.328.902.848.461 1.323.895 1.323 1.207 0 .268.12.457.266.42.146-.036.515.322.82.794l.554.86h-.865c-.476 0-1.08.194-1.34.43-.372.337-.415.544-.198.95.2.373.45.476.89.365.387-.097.662-.022.749.204.075.196 0 .642-.177.99-.193.39-.591.665-1.036.717-.396.046-.849.322-1.004.612a4.43 4.43 0 0 0-.38 1.032c-.06.312.2.753.687 1.162.449.378.959.593 1.194.503.275-.106.359-.356.256-.767-.084-.335-.036-.681.107-.77.143-.088.53-.02.86.152.331.172.646.351.7.398.056.047-.213.457-.595.91-.512.61-.694 1.122-.694 1.955 0 .79-.157 1.272-.525 1.604-.427.387-.791.444-1.956.307-1.188-.14-1.46-.094-1.6.269-.102.266.062.68.42 1.06.483.516.541.751.33 1.349-.212.605-.416.728-1.24.75-.78.023-.985-.07-.985-.444 0-.26-.251-.552-.558-.65-.306-.097-1.48-.027-2.606.156-1.579.256-2.328.262-3.264.027-.668-.168-1.523-.306-1.9-.306-.376 0-.75.17-.829.376-.079.207 0 .637.165.955.175.326.21.678.08.807zm-4.141-5.402a.25.25 0 0 0 0-.353c-.097-.097-.177-.017-.177.177s.08.273.177.176zm-.706-.44c.194 0 .273-.08.176-.177a.25.25 0 0 0-.352 0c-.097.097-.018.176.176.176zm17.887-5.893c.088-.088.097-.316.02-.507-.083-.211-.146-.149-.159.16-.012.278.051.435.139.347zm-16.123-.281a.25.25 0 0 0 0-.353c-.097-.097-.177-.018-.177.176 0 .194.08.274.177.177zm-2.646-.265a.25.25 0 0 0 0-.353c-.097-.097-.176-.017-.176.177s.079.273.176.176zm1.323 0a.25.25 0 0 0 0-.353c-.097-.097-.176-.017-.176.177s.079.273.176.176zm16.36-.176a.133.133 0 1 0 0-.265.133.133 0 0 0 0 .265zm-14.92-.265c.16 0 .22-.188.132-.418-.088-.23-.161-.469-.161-.53 0-.06-.245-.11-.545-.11-.301 0-.47.12-.378.269.09.147.277.2.412.116.136-.083.246.034.246.26 0 .227.132.413.293.413zm4.91-8.555a.25.25 0 0 0 0-.353c-.097-.097-.176-.017-.176.177s.079.273.176.176zm1.182 16.493c-2.566 0-4.269-.102-4.269-.256 0-.14.238-.382.53-.538.49-.262.528-.552.524-3.912 0-1.996-.101-3.783-.22-3.97-.12-.189-.557-.433-.971-.544-.415-.111-.8-.338-.855-.504-.055-.166.356-.535.915-.82.559-.286 1.762-.666 2.674-.845.926-.182 2.325-.255 3.169-.166.83.089 2.119.343 2.863.565.743.223 1.666.72 2.05 1.103.41.411.698.993.698 1.415 0 .394-.212.908-.47 1.143-.26.234-.885.605-1.39.824-.526.229-.716.403-.444.409.26.006.921.239 1.469.518.547.28 1.138.82 1.312 1.203.174.383.317 1.059.317 1.503 0 .55-.245 1.036-.769 1.526-.423.395-1.24.86-1.817 1.032-.62.186-2.788.314-5.316.314zm1.519-.891c.52-.085 1.247-.377 1.614-.65s.707-.825.754-1.226c.048-.401-.062-1.089-.244-1.528-.2-.485-.672-.94-1.202-1.162-.48-.2-1.1-.364-1.379-.364-.302 0-.571.24-.666.595-.088.328-.161 1.27-.163 2.095 0 .825.073 1.7.168 1.947.133.348.38.412 1.118.293zm-.438-5.725c.332 0 .998-.241 1.48-.535.735-.448.862-.668.793-1.362a1.937 1.937 0 0 0-.767-1.336c-.376-.28-1.21-.562-1.852-.628-.87-.089-1.026-.056-.613.128.511.228.534.348.287 1.553-.147.718-.192 1.503-.1 1.743.092.241.44.438.771.437z" id="path1215-9-4" fill="#212121" stroke-width=".265"></path></g></g></svg>