<svg xmlns="http://www.w3.org/2000/svg" width="96" height="95" viewBox="0 0 25.5 25.359"><title>ryza2 tool staff</title><g fill="#212121" class="nc-icon-wrapper"><g transform="translate(91.711 -118.13)"><path d="M-69.258 143.488h-3.047l-2.773-2.791c-2.549-2.566-2.731-2.816-2.253-3.088.286-.163.766-.544 1.066-.847.3-.302.752-.846 1.004-1.208l.458-.658 4.295 4.296 4.296 4.296zm-10.128-5.923c-.616.09-1.21-.089-2.182-.656-.735-.428-1.477-.948-1.648-1.155-.257-.31-.067-.477 1.072-.95.761-.315 1.703-.869 2.093-1.23.39-.361 1-1.047 1.355-1.523.356-.476.793-1.322.972-1.879l.324-1.012.585.55c.322.301.846 1.036 1.164 1.632.318.596.578 1.412.578 1.812 0 .401-.334 1.226-.742 1.834-.408.608-1.188 1.408-1.734 1.778-.545.371-1.372.73-1.837.799zm-5.59-3.1c-.593-.015-1.494-.141-2.003-.28-.51-.139-1.4-.577-1.979-.974-.579-.396-1.407-1.295-1.841-1.997-.6-.968-.815-1.677-.895-2.941-.06-.936.04-2.112.229-2.684.184-.56.612-1.435.95-1.945.338-.51 1.141-1.257 1.786-1.662.644-.405 1.808-.87 2.585-1.032 1.169-.244 1.675-.219 2.926.146.831.243 1.841.724 2.244 1.07l.732.63 1.195-.973a35.477 35.477 0 0 1 2.254-1.677c.582-.387 1.988-1.013 3.123-1.392 1.62-.54 2.476-.672 3.969-.611 1.736.07 1.911.129 1.987.663.062.434-.076.62-.529.714-.337.07-1.307.203-2.156.296-.848.092-2.182.388-2.963.656-.782.27-1.933.794-2.558 1.166a18.708 18.708 0 0 0-2.146 1.54l-1.008.863.45 1.058c.256.601.446 1.72.44 2.587-.01 1.105-.204 1.928-.715 2.971-.388.794-1.138 1.8-1.666 2.235-.529.435-1.495.974-2.147 1.196-.653.222-1.671.392-2.264.377zm.639-1.197c.653-.083 1.509-.316 1.901-.52.393-.203.796-.5.896-.662.125-.203.01-.198-.394.015-.316.17-1.254.328-2.085.353-1.182.035-1.843-.117-3.03-.698-1.039-.508-1.759-1.093-2.273-1.848-.415-.607-.891-1.462-1.06-1.898-.29-.753-.298-.735-.164.358.078.634.317 1.491.531 1.905.214.414.776 1.118 1.25 1.566.472.447 1.395.985 2.05 1.196.72.231 1.66.323 2.378.233zm1.12-7.772c.647 0 1.187-.186 1.53-.529.29-.29.525-.737.52-.992-.01-.255-.175-.683-.378-.95-.203-.269-.816-.642-1.363-.83-.714-.245-1.209-.266-1.758-.075-.42.146-.874.557-1.01.913-.156.41-.148.827.022 1.144.146.274.53.683.852.909.323.226 1.036.41 1.586.41zm9.867 4.498c-.172 0-.391-.08-.488-.176-.097-.097-.177-.425-.176-.728 0-.364.447-.855 1.316-1.448.724-.493 1.94-1.059 2.703-1.257.763-.198 1.704-.36 2.09-.36.388 0 .852.178 1.031.394.18.216.264.558.186.76-.086.224-.684.41-1.555.482-.778.065-1.98.4-2.67.744-.69.345-1.45.844-1.69 1.108-.24.265-.576.481-.747.481zm-3.387-3.44c-.2 0-.444-.079-.54-.176-.098-.097-.177-.385-.177-.64 0-.256.506-.906 1.125-1.445.618-.538 1.838-1.314 2.712-1.724.873-.41 2.307-.89 3.188-1.068.88-.177 1.909-.245 2.286-.15.376.095.761.372.855.615.094.244.05.564-.097.71-.147.147-1.047.361-2 .476-.953.115-2.29.455-2.97.756-.682.302-1.864 1.02-2.628 1.597-.765.577-1.554 1.05-1.754 1.05z" id="path1183-2" fill="#212121" stroke-width=".265"></path></g></g></svg>