<svg xmlns="http://www.w3.org/2000/svg" width="60" height="64" viewBox="0 0 15.988 17.046"><title>ryza2 category lumber</title><g fill="#212121" class="nc-icon-wrapper"><g transform="translate(-9.838 148.843)"><path d="M14.723-131.82c-.692.08-1.408-.046-2.107-.373-.582-.273-1.212-.68-1.4-.907-.287-.348-.225-.505.398-1.01.511-.414.575-.535.208-.394a14.51 14.51 0 0 1-.942.324c-.257.075-.53-.14-.727-.572-.173-.38-.315-1.049-.315-1.486 0-.437.174-1.13.387-1.543.213-.411.58-.822.815-.912.236-.09.836-.165 1.333-.165.84 0 .906.062.925.86l.021.86.266-.728c.146-.4.356-.727.467-.727.111 0 .406.226.657.503.298.329.358.563.173.677-.155.096-.282.3-.282.455 0 .17.17.14.426-.072.361-.3.48-.277.796.154.204.28.488.93.631 1.446.144.516.262 1.146.262 1.4.001.255-.177.464-.395.464-.218 0-.63-.234-.917-.52-.467-.467-.56-.479-.926-.113-.223.223-.406.465-.406.537 0 .072.244.054.542-.04.32-.102.81.003 1.198.257.361.237.772.359.913.271.142-.087.258-.67.258-1.293 0-.798.156-1.276.529-1.613.29-.263.529-.592.529-.731 0-.14-.23.028-.51.371-.472.58-.523.59-.698.14-.142-.365.194-.885 1.37-2.116l1.558-1.632-1.624 1.55-1.624 1.55-1.12-1.087-1.12-1.087.76-.956c.417-.526.93-1.21 1.138-1.522.208-.31-.272.06-1.067.824-.922.886-1.675 1.389-2.079 1.389h-.633l.64-.728c.413-.47.29-.405-.351.185-.656.604-.99.777-.99.512 0-.22.368-.749.817-1.176.722-.686.803-.91.694-1.902-.068-.618-.028-1.124.09-1.124.116 0 .263.149.325.33.062.182.069.063.015-.264-.055-.328.018-.595.161-.595.143 0 .388.238.544.529.156.29.428.527.604.525.201-.003.223-.077.057-.199-.145-.107-.415-.387-.6-.623-.184-.237-.262-.621-.172-.856.124-.321.282-.362.649-.165.267.142.699.26.96.26.26 0 1.37-.882 2.465-1.96 1.336-1.315 2.272-2.018 2.85-2.137.587-.122.86-.08.86.135 0 .176.181.244.413.155.228-.087.734.008 1.125.211.39.204.989.668 1.328 1.032.34.363.72 1.119.844 1.678.124.56.143 1.392.043 1.85-.12.549-1.673 2.552-4.547 5.865-2.401 2.768-4.472 5.042-4.601 5.055-.13.012-.372.208-.539.436-.166.228-.775.47-1.352.537zm-1.578-3.334c.073 0 .132-.06.132-.132a.133.133 0 0 0-.132-.132.133.133 0 0 0-.132.132c0 .073.06.132.132.132zm-1.587-1.323c.072 0 .132-.06.132-.132a.133.133 0 0 0-.132-.132.133.133 0 0 0-.133.132c0 .073.06.132.133.132zm11.273-4.233c.073 0 .536-.417 1.03-.926.493-.51.838-.926.765-.926-.073 0-.536.417-1.03.926-.494.51-.838.926-.765.926zm-9.188-.264c.073 0 .206-.12.296-.265.09-.146.104-.265.031-.265s-.206.12-.296.265c-.09.145-.104.265-.031.265zm8.68 0c.073 0 .348-.239.612-.53.263-.29.419-.529.346-.529-.073 0-.348.238-.611.53-.263.29-.42.529-.347.529zm-4.945-1.588c.073 0 .133-.06.133-.132a.133.133 0 0 0-.133-.133.133.133 0 0 0-.132.133c0 .073.06.132.132.132zm.53-.265c.072 0 .132-.06.132-.132a.133.133 0 0 0-.132-.132.133.133 0 0 0-.133.132c0 .073.06.132.133.132zm6.572-.53c.414-.363.875-.898 1.025-1.19.15-.29.168-.41.04-.264-.128.146-.59.68-1.025 1.19l-.792.925zm-5.811.001c.055 0 .263-.208.463-.463.329-.42.32-.429-.1-.1-.255.2-.463.408-.463.463a.1.1 0 0 0 .1.1zm-1.555-.264a.133.133 0 1 0 0-.265.133.133 0 0 0-.133.132c0 .073.06.133.133.133zm.529-.265c.073 0 .132-.06.132-.132a.133.133 0 0 0-.132-.132.133.133 0 0 0-.132.132c0 .073.06.132.132.132zm.429-.264c.063 0 .886-.78 1.828-1.734.941-.953 1.533-1.652 1.315-1.553-.218.1-1.041.88-1.828 1.734-.787.854-1.38 1.553-1.315 1.553zm-1.05-.53c.072 0 .411-.297.753-.661.342-.364.562-.662.49-.662-.073 0-.413.298-.754.662-.342.364-.562.661-.49.661zm4.854-3.175c.073 0 .133-.06.133-.132a.133.133 0 0 0-.133-.132.133.133 0 0 0-.132.132c0 .073.06.132.132.132z" id="path1196-1-4-47" fill="#212121" stroke-width=".265"></path></g></g></svg>