<svg xmlns="http://www.w3.org/2000/svg" width="79" height="44" viewBox="0 0 20.978 11.881"><title>ryza2 category seeds</title><g fill="#212121" class="nc-icon-wrapper"><g transform="translate(66.616 204.14)"><path d="M-60.29-192.261a11.709 11.709 0 0 1-1.954-.26c-.546-.13-1.586-.535-2.31-.902s-1.511-.964-1.748-1.326c-.297-.453-.38-.937-.263-1.555.093-.495.65-1.444 1.242-2.118.759-.862 1.277-1.22 1.762-1.22.475 0 1.035.374 1.82 1.216.623.67 1.419 1.711 1.768 2.315.35.604.782 1.55.96 2.1.254.787.255 1.087.003 1.39-.183.22-.733.375-1.28.36zm-.563-.532c.515.012.337-.16-.801-.778-.805-.437-1.767-1.059-2.139-1.382a7.626 7.626 0 0 1-1.158-1.332c-.36-.555-.538-.656-.702-.397-.12.19-.221.594-.223.896-.002.302.263.794.59 1.093.328.3 1.012.755 1.52 1.013.509.257 1.223.558 1.588.67.365.11.96.208 1.325.217zm1.278-.596c.052-.269-.349-1.132-.89-1.918-.542-.786-1.39-1.786-1.887-2.221-.495-.436-1.033-.792-1.195-.792-.161 0 .297.625 1.019 1.39.722.763 1.66 1.983 2.085 2.71.57.973.798 1.192.868.831zm-1.456-.706c.121.004-.46-.617-1.292-1.38-.831-.765-1.615-1.43-1.74-1.478-.127-.048-.23.017-.23.145s.446.658.992 1.178c.546.52 1.23 1.077 1.522 1.237.29.16.628.294.748.298zm7.633 1.589c-.39-.004-1.395-.38-2.234-.835-.839-.455-2.007-1.35-2.597-1.99-.589-.639-1.033-1.354-.988-1.589.046-.235.5-.577 1.01-.76.509-.185 1.402-.343 1.984-.354.582-.01 1.495.103 2.03.252.534.148 1.337.612 1.785 1.03.645.603.815.98.815 1.81 0 .66-.203 1.307-.548 1.746-.353.448-.801.695-1.257.69zm-.261-.525c.246.001.513-.103.592-.232.08-.129-.003-.346-.183-.482s-1.399-.753-2.709-1.372l-2.38-1.124.793.84c.436.46 1.389 1.183 2.117 1.603.727.42 1.524.766 1.77.767zm.545-1.328c.109.005.198-.102.198-.237s-.625-.54-1.389-.9c-.764-.358-1.859-.78-2.433-.937-.573-.157-1.08-.248-1.126-.202-.045.045.734.403 1.731.794.998.391 2.04.883 2.317 1.092.277.21.592.385.702.39zm.28-1.588c.118.004.15-.096.07-.224-.079-.128-.55-.425-1.048-.661-.497-.236-1.183-.424-1.525-.418-.502.01-.443.076.304.345.51.183 1.165.472 1.456.642.29.17.625.312.743.316zm3.292.8c-1.047.002-1.522-.102-1.522-.33 0-.231.358-.305 1.17-.24.643.051 1.387-.034 1.653-.189.419-.243.375-.282-.327-.29-.447-.003-1.43-.19-2.183-.414-.754-.224-1.371-.522-1.371-.662s.284-.254.632-.254c.348 0 1.61.186 2.807.412 1.196.227 2.225.362 2.287.3.063-.063-.66-.308-1.604-.545-.944-.237-2.55-.432-3.566-.432s-1.91-.1-1.985-.222c-.076-.123.244-.582.712-1.02.467-.439 1.076-.878 1.352-.975.277-.098 1.17.014 1.985.25.814.234 1.87.666 2.347.958.477.292 1.046.878 1.265 1.302.294.57.326.905.123 1.286-.152.283-.721.638-1.265.79-.544.15-1.674.275-2.51.276zm2.05-2.662c.146 0 .032-.174-.252-.39-.285-.214-.94-.508-1.456-.651-.516-.143-1.235-.25-1.6-.235-.53.02-.477.068.265.246.51.122 1.343.403 1.852.625.51.221 1.046.404 1.191.405zm-8.963-.54c-.746.1-1.877.091-2.515-.019-.637-.11-1.44-.385-1.785-.611-.385-.252-.628-.669-.628-1.077 0-.44.404-1.057 1.199-1.83.714-.693 1.787-1.385 2.655-1.71.802-.3 1.695-.545 1.986-.545.29 0 .924.166 1.41.369.597.25.978.646 1.181 1.23.165.474.3 1.18.3 1.57 0 .397-.26.946-.595 1.25a6.95 6.95 0 0 1-1.224.867c-.346.18-1.24.407-1.984.507zm-.562-.42a18.69 18.69 0 0 0 1.796-.412c.55-.158 1.308-.57 1.683-.918.374-.347.609-.703.52-.791-.087-.089-.388.046-.668.3-.28.253-1.243.688-2.142.968-.898.28-2.069.523-2.602.54l-.968.031.794.204c.436.113 1.15.148 1.587.079zm-2.36-1.04c.716-.093 2.016-.463 2.89-.823.872-.36 1.738-.777 1.924-.928.185-.151.29-.322.231-.38-.058-.06-.746.185-1.528.542-.782.357-2.118.83-2.969 1.051-.85.222-1.615.471-1.698.555-.084.083.434.075 1.15-.017zm.246-1.403c1.4-.81 2.259-1.114 3.506-1.244.908-.095 1.65-.275 1.65-.4 0-.124-.267-.24-.595-.256a13.375 13.375 0 0 0-1.256.015c-.364.024-1.205.218-1.87.431-.722.232-1.627.818-2.249 1.457l-1.04 1.069 1.854-1.072z" id="path1196-1-6-1" fill="#212121" stroke-width=".265"></path></g></g></svg>