<svg xmlns="http://www.w3.org/2000/svg" width="57" height="63" viewBox="0 0 15.298 16.736"><title>ryza2 category fruit</title><g fill="#212121" class="nc-icon-wrapper"><g transform="translate(-35.323 116.824)"><path d="M38.91-100.116c-1.774.073-2.368.01-2.47-.258a1.517 1.517 0 0 1-.065-.711c.04-.197-.141-.759-.401-1.248-.26-.49-.539-1.527-.62-2.307-.08-.779-.002-2.164.173-3.079.176-.914.733-2.485 1.239-3.492.505-1.006.861-1.98.79-2.165-.07-.185.132-.723.452-1.195.319-.473 1.175-1.162 1.903-1.533 1.18-.601 1.665-.678 4.498-.715 2.328-.03 3.334.059 3.77.331.328.205.596.524.596.71 0 .185.414 1.105.92 2.044.842 1.563.92 1.897.926 3.963.004 1.58-.113 2.426-.39 2.82-.234.335-.583.515-.86.442-.31-.08-.619.137-.922.651-.251.425-.997 1.373-1.657 2.107-.66.734-1.823 1.745-2.585 2.245-.762.501-1.74.997-2.173 1.102-.433.105-1.839.235-3.123.288zm1.263-.731c.981-.08 2.123-.393 2.95-.813.779-.394 1.993-1.39 2.865-2.35.832-.917 1.746-2.12 2.03-2.674.302-.586.448-1.228.35-1.536-.092-.29-.871-1.28-1.732-2.2-1.042-1.114-2.025-1.872-2.94-2.265-.757-.326-2.044-.653-2.86-.727-1.422-.129-1.516-.098-2.212.73-.4.474-1.003 1.412-1.34 2.082-.338.67-.748 1.85-.912 2.621-.163.771-.297 1.996-.297 2.72 0 .726.162 1.708.36 2.183.199.475.76 1.2 1.249 1.61.812.684 1.024.736 2.489.619zm-.799-.729c-.505 0-.918-.104-.918-.23 0-.127.486-.309 1.08-.404.594-.095 1.642-.457 2.329-.805.686-.348 1.85-1.241 2.585-1.984.736-.744 1.56-1.766 1.833-2.272.272-.505.587-.92.7-.92.112 0 .204.159.204.352 0 .194-.36.896-.8 1.56-.44.665-1.342 1.708-2.004 2.317-.661.61-1.852 1.397-2.646 1.748-.794.351-1.857.638-2.363.638zm1-1.467c-.327.099-.595.072-.595-.06s.327-.388.727-.569c.4-.181 1.334-.795 2.075-1.365.741-.57 1.45-1.037 1.574-1.037.124 0-.185.425-.686.944-.502.519-1.27 1.16-1.706 1.425-.436.265-1.061.563-1.389.662zm9.106-7.088a.25.25 0 0 0 0-.352c-.097-.097-.176-.018-.176.176 0 .194.08.273.176.176zm-1.058-.264a.25.25 0 0 0 0-.353c-.097-.097-.177-.018-.177.176 0 .194.08.274.177.177zm-.573-.641c.363-.07.661-.172.661-.228 0-.056-.298-.101-.661-.101-.364 0-.662.102-.662.228 0 .125.298.17.662.101zm1.68-.269c.258-.1.296-.195.1-.26-.17-.057-.385-.511-.479-1.01-.093-.499-.259-.907-.368-.907-.11 0-.078.525.069 1.167.203.89.364 1.13.677 1.01zm-1.416-.325c.073 0 .132-.06.132-.132a.133.133 0 0 0-.132-.132.133.133 0 0 0-.132.132c0 .073.06.132.132.132zm-1.014-.353a.25.25 0 0 0 0-.352c-.097-.097-.176-.018-.176.176 0 .194.079.273.176.176zm.882-.176c.194 0 .273-.08.176-.176a.25.25 0 0 0-.352 0c-.097.097-.018.176.176.176zm-1-.697c.118-.073.15-.239.07-.368-.08-.13-.33-.164-.556-.077-.32.123-.336.203-.07.368.187.115.437.15.555.077zm.895.096c.088-.088.097-.316.021-.507-.084-.211-.147-.148-.16.16-.011.279.051.435.14.347zm-1.323-1.058c.088-.088.098-.316.021-.507-.084-.211-.147-.149-.16.16-.011.278.051.435.14.347z" id="path1196-1-2-69" fill="#212121" stroke-width=".265"></path></g></g></svg>