<svg xmlns="http://www.w3.org/2000/svg" width="80" height="66" viewBox="0 0 21.349 17.667"><title>ryza2 race puni</title><g fill="#212121" class="nc-icon-wrapper"><g transform="translate(-257.216 -169.31)"><path d="M267.853 186.977a36.415 36.415 0 0 1-3.266-.25c-.923-.12-2.42-.464-3.326-.766-1.07-.356-2.023-.909-2.716-1.574-.883-.85-1.099-1.262-1.248-2.385-.1-.747-.109-1.8-.022-2.341.087-.541.287-1.579.443-2.306.157-.728.574-1.9.927-2.603.352-.704 1.149-1.788 1.77-2.408.62-.62 1.91-1.514 2.867-1.985 1.361-.67 2.197-.887 3.845-1 1.714-.118 2.435-.038 3.885.43.979.317 2.216.855 2.75 1.196.533.342 1.282.962 1.664 1.379.382.416 1.002 1.234 1.378 1.816.376.582.925 1.832 1.22 2.778.337 1.08.539 2.46.54 3.708 0 1.435-.132 2.243-.485 2.901-.33.616-1.022 1.205-2.126 1.811-1.213.666-2.268.993-4.075 1.264-1.34.201-3.152.352-4.025.335zm-3.314-3.804c.367-.089.992-.482 1.388-.873.515-.51.651-.822.479-1.1-.21-.335-.367-.327-1.192.067-.523.25-1.088.453-1.256.453-.167 0-.581-.26-.92-.578-.441-.415-.697-.498-.902-.293-.157.157-.244.503-.193.768.051.265.506.76 1.01 1.1.635.428 1.124.568 1.586.456zm5.573-.924c.12 0 .404-.187.632-.415.23-.229.416-.527.416-.662s-.229-.475-.51-.755c-.312-.312-.718-.455-1.049-.368-.297.077-.618.389-.715.691-.124.391 0 .69.418 1.03.326.264.69.48.808.48zm-11.221-1.326c.164.002.442-.17.617-.38.175-.212.278-.599.227-.86-.064-.332-.331-.476-.881-.476-.632 0-.809.127-.88.631-.049.348.07.733.265.856.194.124.488.226.652.229zm8.926-1.32c.142 0 .477-.196.743-.437.35-.316.484-.817.484-1.8 0-.748-.143-1.504-.318-1.678-.175-.175-.577-.318-.894-.318-.316 0-.735.192-.93.427-.211.255-.333.97-.303 1.784.035.935.192 1.462.504 1.69.25.183.571.333.714.333zm-6.975-.793c.255 0 .604-.169.775-.375.182-.22.278-1 .23-1.89-.057-1.096-.208-1.597-.542-1.807-.337-.211-.59-.211-.927 0-.334.21-.485.71-.543 1.807-.047.89.048 1.67.231 1.89.171.206.52.375.776.375z" id="path1215-2-6" fill="#212121" stroke-width=".265"></path></g></g></svg>