<svg xmlns="http://www.w3.org/2000/svg" width="85" height="88" viewBox="0 0 22.584 23.317"><title>ryza2 race weasel</title><g fill="#212121" class="nc-icon-wrapper"><g transform="translate(-280.356 -163.178)"><path d="M288.16 186.451c-.436.075-1.16.053-1.61-.049-.45-.101-.955-.27-1.124-.375-.17-.104-.308-.408-.308-.675 0-.267.188-.558.419-.646.23-.088.676-.166.992-.172.346-.007 1.018-.521 1.695-1.296l1.121-1.283-.634-1.152c-.424-.77-.774-2.111-1.053-4.04-.23-1.587-.604-3.17-.831-3.517-.228-.347-.713-.744-1.08-.884-.366-.139-.939-.184-1.273-.1-.334.083-1.124.679-1.756 1.323-.633.644-1.303 1.17-1.491 1.17-.188 0-.342-.054-.342-.121 0-.068.247-.784.55-1.592.302-.808.852-1.829 1.222-2.268.37-.44.987-.962 1.372-1.161.384-.2 1.254-.445 1.933-.547.77-.115 1.608-.061 2.23.144.549.181 1.54.831 2.203 1.445.663.614 1.475 1.257 1.804 1.43.353.184.981.24 1.529.138.554-.104 1.051-.402 1.23-.738.167-.31.44-1.099.608-1.755.22-.855.227-1.45.028-2.104-.153-.502-.709-1.365-1.235-1.918-.792-.833-1.135-1.006-1.99-1.002-.568.002-1.199.109-1.402.237-.216.137-.308.464-.223.79.11.422.023.556-.359.556-.277 0-.504.12-.504.267 0 .158-.216.132-.53-.064-.29-.181-.529-.436-.529-.566 0-.13.506-.74 1.125-1.358.933-.932 1.36-1.155 2.503-1.312.758-.104 1.77-.104 2.249 0 .479.103 1.347.428 1.929.722a15 15 0 0 1 1.92 1.192c.5.38 1.255 1.452 1.799 2.553.603 1.22 1.081 2.73 1.34 4.226.22 1.281.363 2.356.317 2.389-.047.032-.65.383-1.342.779-.69.396-1.256.843-1.256.995 0 .15.446.005.992-.326.546-.33 1.255-.767 1.576-.97.32-.204.699-.299.84-.212.163.1.167.472.012 1.014-.135.47-.245 1.551-.245 2.404 0 .852-.184 1.937-.41 2.412-.225.475-.707.999-1.07 1.164-.364.166-1.052.302-1.529.302-.577 0-1.07-.216-1.473-.644-.332-.355-.698-1.04-.812-1.522-.2-.846-.209-.85-.235-.136-.015.407.15 1.085.368 1.505.218.42.66.95.982 1.175l.587.411-1.02 1.044c-.56.575-1.623 1.304-2.361 1.622-1.083.465-1.672.55-3.049.44-1.035-.083-2.08-.008-2.655.192-.522.18-1.306.39-1.743.464zm3.903-6.944c.255.006.463-.167.463-.385 0-.274.275-.397.888-.397.593 0 1.138-.233 1.643-.7l.755-.7-1.577-1.425c-.867-.783-1.814-1.553-2.105-1.711-.291-.158.24.499 1.18 1.46 1.07 1.094 1.614 1.838 1.455 1.99-.14.133-.71.366-1.266.516-.557.15-1.202.2-1.435.111-.315-.12-.38-.05-.253.28.102.266.04.44-.153.437-.177-.003-.578-.211-.89-.463-.313-.251-.819-.958-1.125-1.57-.306-.613-.556-1.176-.556-1.25 0-.076.305-.021.679.12.373.143.79.259.926.259s.244-.447.241-.992c0-.546-.229-1.484-.501-2.084-.273-.6-.63-1.175-.795-1.277-.164-.101-.058.45.237 1.224.295.775.536 1.617.536 1.872 0 .255-.15.459-.331.454-.182-.005-.628-.174-.992-.375-.44-.244-.816-.839-1.122-1.777l-.46-1.41.126 1.264c.069.696.434 1.946.812 2.778.378.832.822 1.792.987 2.132.165.34.72.84 1.235 1.112.515.272 1.144.5 1.398.507zm-6.977 3.928c-.668.056-1.006-.042-1.113-.321-.097-.253.158-.645.691-1.062.465-.364.927-.577 1.028-.473.101.104.222.546.268.982.078.74.018.8-.874.874zm2.168.052c-.148 0-.446-.339-.66-.754-.214-.414-.53-1.337-.701-2.05-.172-.713-.472-1.556-.669-1.872-.267-.43-.726-.622-1.824-.759-1.079-.135-1.677-.379-2.256-.92-.434-.405-.788-.867-.788-1.027 0-.16.133-.29.297-.29.193 0 .17-.155-.066-.441-.328-.398-.292-.423.364-.26.624.155.886.015 1.852-.993.619-.646 1.435-1.252 1.815-1.347.51-.128.876-.013 1.403.441.631.545.786 1.036 1.357 4.295.354 2.024.815 3.87 1.023 4.1.333.37.302.511-.248 1.15-.346.4-.75.727-.899.727zm-2.123-7.694c.226.012.553-.122.728-.296.175-.175.317-.568.317-.873 0-.306-.142-.699-.317-.873a1.238 1.238 0 0 0-.758-.318c-.242 0-.754.247-1.138.548-.383.302-.697.709-.697.904 0 .196.327.476.728.622.4.146.912.275 1.137.286zm5.084-6.346c-.111-.009-.619-.213-1.128-.454-.51-.24-.977-.473-1.04-.516-.062-.043.09-.505.339-1.026.387-.812.511-.9.863-.608.33.274.514.275.94.01.435-.272.643-.256 1.169.088.352.23.636.506.632.611 0 .106-.36.58-.79 1.053-.43.473-.874.852-.985.843z" id="path1215-2" fill="#212121" stroke-width=".265"></path></g></g></svg>