<svg xmlns="http://www.w3.org/2000/svg" width="58" height="81" viewBox="0 0 15.406 21.51"><title>ryza2 tool water</title><g fill="#212121" class="nc-icon-wrapper"><g transform="translate(47.134 -54.85)"><path d="M-39.009 76.346c-.897.051-2.099-.045-2.67-.214-.572-.168-1.533-.584-2.136-.923-.602-.338-1.39-1.04-1.748-1.56-.36-.521-.825-1.363-1.034-1.872-.21-.51-.437-1.43-.506-2.046-.07-.616-.018-1.712.114-2.437.131-.724.469-1.836.75-2.471.28-.636.973-1.682 1.539-2.326.565-.645 1.23-1.565 1.477-2.046.248-.48.515-1.433.594-2.116a5.738 5.738 0 0 0-.247-2.364l-.39-1.122.695.166c.383.091 1.441.442 2.352.78.911.338 2.176.971 2.81 1.408.635.436 1.715 1.418 2.402 2.181.686.764 1.526 1.938 1.867 2.61.34.672.819 1.987 1.064 2.922.321 1.229.408 2.325.31 3.95-.074 1.237-.316 2.666-.538 3.175-.222.51-.816 1.373-1.32 1.92-.504.546-1.555 1.285-2.335 1.642-.866.396-2.053.685-3.05.743zm4.388-11.243c.224-.043.518-.393.654-.777.164-.469.135-1.093-.09-1.897-.185-.66-.566-1.445-.846-1.746-.281-.302-.67-.548-.865-.548-.195 0-.49.329-.657.731-.237.571-.22 1.01.082 2.01.211.702.594 1.509.85 1.792.255.282.648.478.872.435z" id="path1183-3-3" fill="#212121" stroke-width=".265"></path></g></g></svg>