<svg xmlns="http://www.w3.org/2000/svg" width="74" height="67" viewBox="0 0 19.756 17.727"><title>ryza2 category key items</title><g fill="#212121" class="nc-icon-wrapper"><g transform="translate(-60.316 232.1)"><path d="M76.464-214.373c-.107 0-2.236-2.078-4.731-4.616-4.053-4.123-4.64-4.625-5.502-4.697-.66-.055-1.247.107-1.862.515-.493.328-1.187.595-1.541.595-.36 0-.987-.341-1.419-.773-.537-.537-.773-1.036-.773-1.633 0-.472.189-1.068.42-1.323.385-.426.373-.527-.15-1.232-.312-.423-.578-1.124-.59-1.558-.012-.434.182-1.1.43-1.48.25-.381.774-.803 1.164-.938.39-.136 1.004-.2 1.363-.145.359.055.899.262 1.2.46.484.316.633.285 1.28-.272.403-.347 1.008-.63 1.344-.63.336 0 .955.263 1.375.586.42.322.85.709.957.86.107.15.197.651.199 1.113.002.519-.254 1.146-.672 1.642-.625.743-.652.88-.363 1.845.227.757 1.026 1.753 2.92 3.64l2.607 2.597.94-.91c.744-.722 1.028-.853 1.375-.634.24.152.563.475.717.718.22.349.152.531-.313.858-.326.228-.593.586-.593.796 0 .21.065.382.144.382.08 0 .465-.297.857-.66l.713-.662 1.055 1.056 1.056 1.056-1.706 1.722c-.939.947-1.794 1.722-1.9 1.722zm-.294-1.059a.076.076 0 0 0 .076-.076c0-.042-.625-.667-1.389-1.389l-1.389-1.313 1.313 1.39c.722.763 1.347 1.388 1.39 1.388zm-3.215-3.175a.117.117 0 0 0 .116-.116c0-.065-.137-.202-.305-.306-.19-.117-.234-.073-.117.117.104.168.242.305.306.305zm-.769-.794c.05 0 .092-.04.092-.09 0-.051-.268-.319-.596-.596l-.595-.504.504.595c.277.328.545.595.595.595zm-1.099-1.322a.133.133 0 0 0 0-.265.133.133 0 0 0-.132.132c0 .073.06.133.132.133zm-.948-1.059c.073 0-.394-.536-1.036-1.19-.643-.655-1.228-1.191-1.301-1.191-.073 0 .393.536 1.036 1.19.643.655 1.228 1.191 1.3 1.191zm-7.147-1.619c.657-.03.652-.038-.1-.2-.465-.099-.923-.438-1.12-.828-.184-.363-.336-.49-.338-.284-.002.207.193.594.434.86.24.266.746.47 1.124.452zm3.597-.762c.073 0 .132-.06.132-.132a.133.133 0 0 0-.132-.133.133.133 0 0 0-.132.133c0 .072.06.132.132.132zm-3.639-.315c.293-.056.464-.33.464-.743 0-.414-.17-.688-.464-.744-.255-.049-.535.098-.623.327a1.348 1.348 0 0 0 0 .833c.088.23.368.376.623.327zm2.845.05c.073 0 .133-.06.133-.132a.133.133 0 0 0-.133-.132.133.133 0 0 0-.132.132c0 .073.06.132.132.132zm-1.509-.758c.055-.344-.01-.735-.143-.868-.147-.147-.186.1-.099.626.122.735.16.772.243.242zm-2.724-.035a.133.133 0 1 0 0-.265.133.133 0 0 0-.132.132c0 .073.06.133.132.133zm.597-2.382c.359 0 .33-.081-.141-.412-.324-.226-.598-.613-.61-.86-.01-.25-.077-.308-.149-.131-.07.173.002.56.163.86.16.299.492.543.737.543zm.659-.841c.437-.062.596-.261.596-.746s-.16-.684-.596-.746c-.358-.051-.66.081-.756.33a1.345 1.345 0 0 0 0 .831c.095.25.398.382.756.331zm5.453.048c.135 0 .318-.189.406-.419.089-.23.161-.632.161-.894 0-.26-.179-.623-.397-.804-.218-.181-.397-.247-.397-.147s.124.412.274.694c.19.355.187.673-.009 1.04-.16.299-.176.53-.037.53zm-1.22-.313c.437-.062.596-.26.596-.746 0-.485-.159-.684-.596-.746-.358-.05-.66.082-.756.33a1.345 1.345 0 0 0 0 .832c.096.249.398.381.756.33zm-2.746-.78c.053-.155-.097-.476-.335-.713-.398-.399-.405-.377-.096.282.183.392.377.586.43.43zm-3.008.034c.073 0 .133-.06.133-.132a.133.133 0 0 0-.133-.132.133.133 0 0 0-.132.132c0 .073.06.132.132.132zm1.852-1.058c.073 0 .133-.06.133-.132a.133.133 0 0 0-.133-.133.133.133 0 0 0-.132.133c0 .072.06.132.132.132z" id="path1196-1" fill="#212121" stroke-width=".265"></path></g></g></svg>