<svg xmlns="http://www.w3.org/2000/svg" width="81" height="103" viewBox="0 0 21.44 27.349"><title>ryza2 tool hammer</title><g fill="#212121" class="nc-icon-wrapper"><g transform="translate(97.95 -47.681)"><path d="M-79.189 75.03c-.364 0-.805-.511-1.474-1.708-.526-.939-1.719-3.231-2.652-5.093s-1.817-3.705-1.965-4.096c-.259-.684-.204-.746 1.47-1.666.956-.526 1.766-.92 1.8-.877.034.043.727 1.329 1.54 2.857a111.478 111.478 0 0 1 2.822 5.794c1.294 2.907 1.326 3.036.876 3.533-.257.284-.789.683-1.182.886-.394.203-.95.37-1.235.37zM-91.19 64.312c-1.126.1-1.915.03-2.454-.217-.436-.2-1.31-.926-1.941-1.613-.632-.687-1.392-1.799-1.689-2.47-.297-.672-.59-1.943-.65-2.825-.072-1.019.015-1.842.236-2.257.191-.36.66-.829 1.042-1.043.583-.327.872-.336 1.81-.055.691.207 1.553.783 2.26 1.51.715.736 1.312 1.69 1.6 2.554.251.76.543 2.037.646 2.841l.189 1.461.035-1.473c.019-.81-.146-2.081-.367-2.824-.22-.743-.818-1.97-1.327-2.728-.869-1.29-.898-1.399-.459-1.74.257-.2 1.344-.855 2.415-1.456 1.07-.6 3.035-1.488 4.365-1.97 1.33-.484 2.162-.885 1.848-.893-.315-.007-1.684.35-3.043.794-1.36.444-3.584 1.4-4.945 2.127-2.284 1.22-2.557 1.303-3.572 1.095l-1.098-.226 1.852-1.206c1.019-.663 2.447-1.505 3.175-1.87.728-.366 2.335-.989 3.572-1.384 1.37-.438 2.921-.734 3.969-.757 1.465-.033 1.87.065 2.737.664.56.386 1.41 1.285 1.89 1.997.48.712 1.064 1.858 1.297 2.547.234.688.426 1.657.426 2.151 0 .495-.127 1.235-.282 1.645-.155.41-.601 1.085-.992 1.5-.39.417-1.544 1.317-2.563 2.001-1.019.684-2.447 1.549-3.175 1.922-.728.372-2.183.987-3.235 1.365-1.05.378-2.658.753-3.571.833zm.721-1.717a.133.133 0 1 0 0-.265.133.133 0 0 0 0 .265z" id="path1183-3-9-7" fill="#212121" stroke-width=".265"></path></g></g></svg>