<svg xmlns="http://www.w3.org/2000/svg" width="67" height="81" viewBox="0 0 17.901 21.556"><title>ryza2 category spices</title><g fill="#212121" class="nc-icon-wrapper"><g transform="translate(94.894 203.716)"><path d="M-92.778-182.16a.265.265 0 0 1-.264-.265c0-.146.119-.265.264-.265a.265.265 0 0 1 0 .53zm-1.323-.265a.265.265 0 0 1-.264-.265c0-.145.119-.264.264-.264.146 0 .265.119.265.264 0 .146-.12.265-.265.265zm3.586-.312c-.24.05-.41-.096-.41-.35 0-.272.173-.402.462-.346.255.049.44.206.411.35-.028.143-.237.3-.463.346zm-2.637-.218a.42.42 0 0 1-.42-.418c0-.23.142-.372.315-.315a.749.749 0 0 1 .419.42c.057.172-.084.313-.314.313zm-1.478-.793c-.145 0-.264-.179-.264-.397 0-.218.119-.397.264-.397.146 0 .265.179.265.397 0 .218-.12.397-.265.397zm2.114-.867c-.312-.024-.619-.127-.683-.231a.202.202 0 0 1 .086-.29c.112-.056.372-.094.578-.085.206.01.422.16.48.333.062.186-.127.298-.461.273zm.709-1.338c-.097.097-.177.017-.177-.177s.08-.273.177-.176a.25.25 0 0 1 0 .353zm.637.037c-.157.052-.285-.212-.285-.588s.12-.684.265-.684c.145 0 .264.179.264.397 0 .218.01.483.02.589.011.105-.108.234-.264.286zm-.152-1.536a.398.398 0 0 1-.397-.397c0-.219.178-.397.397-.397.218 0 .396.178.396.397a.398.398 0 0 1-.396.397zm1.058-.811c-.146 0-.594-.246-.996-.546-.403-.3-.853-.773-1.002-1.05-.185-.346-.18-.67.014-1.033.155-.291.476-.53.711-.53.377 0 .37.066-.056.536-.358.396-.407.613-.188.832.22.22.343.114.473-.403.096-.385.271-.7.389-.7.117 0 .595.483 1.062 1.072.815 1.028.829 1.086.353 1.447-.272.206-.615.375-.76.375zm2.147-1.052c-.32-.006-1.168-.632-1.977-1.458-1.194-1.22-1.39-1.553-1.246-2.128.094-.375.482-.97.86-1.32.38-.352.902-.64 1.16-.64.259 0 .848.318 1.31.706.46.388 1.13 1.169 1.488 1.735.397.63.587 1.226.489 1.536-.089.28-.468.749-.843 1.043-.375.295-.933.532-1.24.526zm.102-.56c.364 0 .513-.06.33-.134a1.021 1.021 0 0 0-.66 0c-.183.073-.034.133.33.133zm-1.678-3.281c.386-.359.625-.73.53-.824-.094-.095-.41.044-.703.308-.292.265-.53.635-.53.824 0 .204.285.079.703-.308zm4.346 1.324c-.133.082-.46-.298-.727-.844-.269-.549-1.108-1.455-1.875-2.023-1.107-.821-1.389-1.182-1.389-1.78 0-.503-.212-.89-.644-1.173-.491-.322-.769-.354-1.173-.138-.291.156-.576.283-.633.283-.057 0-.094-.446-.083-.992.01-.546.139-1.08.284-1.186.146-.107.6-.197 1.01-.199.41-.002.97.117 1.245.264.275.147.624.713.775 1.257.15.544.275 1.318.276 1.72 0 .526.221.865.786 1.209.43.262 1.145.931 1.587 1.487.442.556.803 1.226.803 1.488 0 .263-.109.545-.242.627zm2.888-1.043l-1.984.168-.794-1.275c-.482-.775-1.193-1.483-1.812-1.805l-1.019-.529.151-1.868c.083-1.027.323-2.277.534-2.778.21-.5.72-1.221 1.132-1.602.412-.38 1.142-.823 1.622-.983.48-.16 1.254-.217 1.72-.126.466.091 1.33.37 1.922.622.591.25 1.576 1.025 2.188 1.72.702.798 1.265 1.788 1.525 2.681.226.78.339 1.747.25 2.15-.088.404-.398 1.125-.688 1.602-.309.507-.992 1.072-1.645 1.361-.615.272-2.01.57-3.102.662zm.287-.681c.497-.01 1.142-.122 1.433-.248.34-.148.057-.175-.794-.077-.727.084-1.372.196-1.433.248-.06.052.297.087.794.077zm-1.213-.246a.133.133 0 1 0 0-.265.133.133 0 0 0-.132.132c0 .073.06.133.132.133zm3.44-.265c.072 0 .132-.06.132-.132a.133.133 0 0 0-.132-.133.133.133 0 0 0-.133.133c0 .072.06.132.133.132zm-6.835-5.115a.25.25 0 0 0 0-.353c-.097-.097-.177-.018-.177.176 0 .194.08.274.177.177zm.869-1.664c.43-.584 1.09-1.203 1.468-1.375.377-.172 1.067-.312 1.534-.312.466 0 1.247.245 1.737.544.49.298.945.487 1.013.419.067-.068-.403-.431-1.046-.808-.75-.44-1.562-.685-2.27-.685-.931 0-1.263.163-2.159 1.058-.592.593-1.058 1.315-1.058 1.64 0 .49.122.415.781-.48z" id="path1196-1-6-0" fill="#212121" stroke-width=".265"></path></g></g></svg>