<svg xmlns="http://www.w3.org/2000/svg" width="76" height="77" viewBox="0 0 20.243 20.618"><title>ryza2 category ore</title><g fill="#212121" class="nc-icon-wrapper"><g transform="translate(94.019 120.519)"><path d="M-84.438-99.901c-.169 0-.59-.199-.935-.44l-.63-.442.6-.485c.33-.267.737-.485.904-.485.167 0 .458.247.647.55.265.424.272.635.031.926-.171.206-.45.376-.618.376zm-7.683-1.852c-.93 0-1.52-.135-1.738-.398-.27-.326-.216-.565.299-1.32.345-.506.792-.983.993-1.06.2-.079.526-.008.724.157.198.164.608.7.911 1.19.303.49.476 1.013.385 1.161-.092.148-.8.27-1.574.27zm-.423-.794c.296 0 .537-.09.534-.199-.002-.109-.108-.363-.236-.564-.185-.293-.293-.253-.534.198-.263.49-.232.565.236.565zm12.063.511c-.59-.01-1.61-.185-2.264-.39-.847-.264-1.45-.3-2.088-.125-.597.164-1.085.15-1.456-.04-.306-.157-1.748-1.244-3.203-2.416a881.26 881.26 0 0 0-2.743-2.203c-.053-.04.025-.421.174-.847.231-.665.148-.993-.592-2.328-.473-.855-.945-2.12-1.049-2.81-.141-.945-.086-1.401.225-1.845.227-.324.414-.83.416-1.126 0-.295.282-1.138.625-1.873.607-1.305.669-1.352 2.522-1.909l1.9-.571 1.775.646c.976.356 3.006 1.155 4.512 1.777l2.739 1.13.621 1.792c.342.987 1.164 2.937 1.826 4.335.662 1.398 1.204 2.639 1.204 2.757 0 .119-.728 1.383-1.617 2.81-.89 1.426-1.805 2.741-2.035 2.923-.23.182-.901.323-1.492.313zm.382-.9c.598-.034.926-.184.926-.427 0-.213-.427-.48-.99-.62-.722-.178-1.17-.147-1.659.114-.368.197-.578.445-.465.55.112.105.441.246.732.312.292.067.946.098 1.456.07zm-5.654-.484c.035-.035-.053-1.014-.195-2.175-.143-1.161-.313-2.365-.377-2.674-.072-.343-.745-.936-1.728-1.521-.885-.528-1.69-.961-1.789-.964-.098-.003-.713-.366-1.365-.808-.652-.442-1.223-.692-1.268-.556-.046.136.286.873.736 1.636.604 1.025.776 1.581.658 2.121-.148.676.048.897 2.552 2.868 1.492 1.175 2.741 2.108 2.776 2.073zm2.248-.715c.1 0 .651-.565 1.225-1.256 1.03-1.239 1.046-1.296 1.204-3.955l.159-2.697-1.245-1.044c-.684-.575-1.661-1.77-2.17-2.658-.51-.887-1.066-1.614-1.237-1.616-.17-.002-1.307-.342-2.525-.756-1.408-.48-2.41-.682-2.747-.557-.352.13-.692.715-1.013 1.745-.265.852-.592 1.765-.726 2.03-.135.263-.176.696-.091.961.084.265.595.783 1.137 1.15.54.368 1.458.917 2.038 1.221.58.304 1.32.553 1.646.553.44 0 .933-.506 1.93-1.984.736-1.092 1.397-1.985 1.468-1.985.071 0 .048.328-.051.728-.1.4-.453 1.589-.786 2.64l-.605 1.914 1.104 2.783c.607 1.53 1.185 2.783 1.285 2.783zm5.335-.365c.115-.163.561-.977.992-1.81.43-.832.783-1.624.783-1.758 0-.134-.478-.29-1.062-.346-.96-.091-1.137-.007-1.852.883-.466.58-.79 1.296-.79 1.745 0 .599.184.85.86 1.172.62.296.918.328 1.069.114zm-3.09-11.746c.351-.068.69-.204.751-.303.062-.1-1.494-.848-3.457-1.662-2.696-1.119-3.74-1.435-4.266-1.295-.613.164-.445.275 1.403.926 1.155.407 2.736 1.126 3.514 1.598.922.559 1.638.815 2.055.736zm6.302 4.695c-.16.16-.559.013-1.09-.403-.461-.36-.977-1.077-1.147-1.592-.28-.847-.243-1.038.381-1.98.38-.575.783-1.044.896-1.044.112 0 .64.521 1.173 1.159l.969 1.158-.465 1.225c-.256.673-.579 1.338-.717 1.477zm-.227-1.696c.208-.283.377-.621.377-.752s-.222-.521-.494-.867c-.271-.345-.57-.553-.661-.46-.092.092-.168.377-.168.635 0 .257.128.803.285 1.212.274.719.298.727.661.232z" id="path1196-1-2-3" fill="#212121" stroke-width=".265"></path></g></g></svg>