<svg xmlns="http://www.w3.org/2000/svg" width="79" height="74" viewBox="0 0 21.16 19.728"><title>ryza2 category metal</title><g fill="#212121" class="nc-icon-wrapper"><g transform="translate(-32.977 175.324)"><path d="M43.438-155.596c-.211 0-.75-.446-1.197-.992-.447-.546-2.713-3.492-5.035-6.548-2.323-3.056-4.226-5.758-4.23-6.004-.003-.246.14-.544.32-.661.178-.118.832-.393 1.452-.611.62-.219 1.142-.457 1.159-.53.017-.072-.245-.699-.581-1.391-.533-1.097-.562-1.306-.227-1.62.23-.216 2.189-.588 4.902-.932 2.485-.316 4.687-.504 4.895-.418.207.085 2.371 3.129 4.809 6.764 2.67 3.981 4.432 6.862 4.432 7.245s-.192.696-.483.789c-.359.114-.454.348-.372.912.101.689.005.798-1.038 1.184-.633.233-2.786.962-4.786 1.619-2 .657-3.809 1.194-4.02 1.194zm.38-1.087c.218-.006.813-.167 1.323-.356l.926-.345-.728-.193c-.4-.106-.727-.358-.727-.56 0-.203-.096-.37-.212-.37-.116 0-.346.135-.51.299-.164.164-.577.228-.917.143-.341-.086-1.28-.964-2.088-1.952-.807-.988-1.556-1.945-1.663-2.126-.114-.19.099-.715.505-1.247l.7-.919-.6-.869c-.33-.478-.64-.92-.69-.983-.05-.063-.48.265-.958.728-.677.655-.94.772-1.187.524-.175-.175-.318-.2-.318-.058 0 .142 1.322 1.918 2.938 3.946 1.616 2.028 3.134 3.837 3.374 4.019.24.182.614.326.832.32zm2.778-.765c.073 0 .132-.06.132-.132a.133.133 0 0 0-.132-.132.133.133 0 0 0-.132.132c0 .073.06.132.132.132zm1.72-.529c.194 0 .273-.08.176-.176a.25.25 0 0 0-.353 0c-.097.097-.017.176.177.176zm.585-.269c.104.002.802-.237 1.552-.533.75-.295 1.588-.466 1.862-.379.332.105.499.03.499-.224 0-.21-.155-.51-.344-.667-.246-.205-.664-.19-1.484.052-.627.185-1.266.567-1.42.848-.153.28-.408.598-.566.705-.158.107-.202.196-.099.198zm-2.853-1.699l1.073-.28-.858-.084c-.506-.049-.858-.23-.858-.443 0-.197.328-.755.728-1.24l.728-.88-1.172.992c-.645.546-1.27.993-1.388.993-.118 0-.884-1.006-1.702-2.235l-1.487-2.235 2.61-3.035c1.435-1.669 2.76-3.074 2.943-3.123.214-.056-.054-.632-.749-1.61-.91-1.278-1.21-1.52-1.883-1.52-.63 0-.766.091-.636.428.115.301-.544 1.15-2.221 2.86-1.312 1.338-2.385 2.533-2.385 2.655 0 .122 1.194-.957 2.654-2.398 1.46-1.44 2.819-2.656 3.018-2.7.2-.045.435.034.523.176.087.141-1.124 1.584-2.692 3.206l-2.851 2.95.773 1.24c.426.681 1.527 2.39 2.447 3.795.92 1.406 1.817 2.604 1.992 2.663.176.058.802-.02 1.393-.175zm2.93-.72c.29.01 1.005-.153 1.587-.362.582-.21 1.362-.383 1.733-.386.37-.002.817.14.992.314.247.247.317.21.317-.165 0-.265-.794-1.657-1.766-3.093-.971-1.436-1.779-2.582-1.794-2.547-.016.035-.204.302-.417.593-.356.485-.35.5.06.179.392-.308.528-.222 1.113.705.367.581.736 1.334.821 1.673.122.486-.087.852-.981 1.718-.625.605-1.375 1.156-1.666 1.226l-.529.126.53.019zm-.86-3.65c.69-.65 1.256-1.215 1.256-1.258a.077.077 0 0 0-.077-.077c-.043 0-.608.566-1.257 1.257l-1.18 1.257zm-12.29-1.989c.053-.052-.033-.335-.19-.629-.158-.294-.287-.784-.287-1.09 0-.306.197-.855.436-1.222.291-.443.348-.754.172-.93-.176-.176-.634-.117-1.373.179-.61.244-1.074.544-1.032.667.043.122.55.874 1.129 1.671.578.797 1.094 1.406 1.146 1.354zm3.36-1.727c.072 0 .132-.06.132-.132a.133.133 0 0 0-.132-.133.133.133 0 0 0-.133.133c0 .072.06.132.133.132zm-1.601-2.381c.03 0 .004-.344-.058-.765-.089-.602.104-1.005.905-1.896l1.018-1.132-.893.177c-.49.097-1.146.178-1.455.18-.31.002-.722.105-.917.229-.286.181-.242.447.23 1.385.323.638.705 1.309.85 1.49.146.183.29.332.32.332zm9.538-.53c.073 0 .132-.059.132-.132a.133.133 0 0 0-.132-.132.133.133 0 0 0-.132.132c0 .073.06.132.132.132z" id="path1196-1-9-0" fill="#212121" stroke-width=".265"></path></g></g></svg>