<svg xmlns="http://www.w3.org/2000/svg" width="58" height="61" viewBox="0 0 15.522 16.4"><title>ryza2 category furniture</title><g fill="#212121" class="nc-icon-wrapper"><g transform="translate(-34.626 233.88)"><path d="M42.423-217.479c-3.948-.002-7.329-.1-7.514-.217-.259-.165-.319-1.682-.264-6.677l.07-6.463H50.063l.07 6.317c.05 4.437-.018 6.425-.23 6.68-.243.293-1.71.363-7.48.36zm.08-1.38l6.236-.071.071-5.206c.066-4.795.035-5.215-.396-5.326-.258-.066-3.088-.088-6.29-.05-3.201.04-5.91.084-6.019.1-.11.017-.198 2.333-.198 5.146 0 2.814.081 5.197.18 5.296.1.1 2.987.15 6.417.11zm.001-.794c-2.992.04-5.522-.01-5.622-.11-.1-.1-.182-.988-.182-1.974 0-1.07.123-1.868.306-1.981.168-.104 2.614-.189 5.436-.189 3.082 0 5.236.106 5.396.266.146.146.23 1.087.186 2.091l-.079 1.826-5.44.072zm-.053-1.576c.253-.049.498-.28.543-.515.045-.235-.083-.49-.286-.568a.913.913 0 0 0-.713.072c-.192.12-.27.41-.175.657a.586.586 0 0 0 .631.354zm.053-3.45c-2.992.039-5.522-.011-5.622-.11-.1-.1-.182-.992-.182-1.981 0-1.454.09-1.84.463-2.017.255-.12 2.704-.199 5.442-.176 2.844.023 5.09.152 5.239.3.142.143.224 1.082.18 2.086l-.079 1.826-5.44.071zm-.053-1.577c.253-.049.498-.28.543-.515.045-.235-.083-.49-.286-.568a.913.913 0 0 0-.713.072c-.192.12-.27.41-.175.657a.586.586 0 0 0 .631.354zm-.062-5.506c-4.114 0-7.276-.104-7.276-.238 0-.13.42-.606.935-1.058l.935-.821h10.99l.846.872c.465.48.846.957.846 1.059 0 .102-3.274.186-7.276.186z" id="path1196-1-1" fill="#212121" stroke-width=".265"></path></g></g></svg>