<svg xmlns="http://www.w3.org/2000/svg" width="97" height="100" viewBox="0 0 25.819 26.501"><title>ryza2 large enemy</title><g fill="#212121" class="nc-icon-wrapper"><g transform="translate(-419.987 -218.65)"><path d="M433.494 245.134c-.51.057-1.768-.04-2.797-.217-1.03-.176-2.399-.56-3.043-.853-.644-.293-1.41-.72-1.7-.95-.298-.235-.385-.423-.199-.427.182-.005.33-.184.33-.399 0-.297-.2-.35-.837-.223-.7.14-.811.097-.675-.257.116-.304.049-.382-.236-.272-.26.1-.45-.044-.547-.41-.08-.31-.282-.566-.447-.568-.165-.002-.121-.12.097-.26.24-.156.272-.259.08-.261-.173-.002-.52-.35-.77-.774-.25-.423-.605-.71-.79-.64-.185.071-.507-.207-.715-.62-.209-.412-.576-1.351-.817-2.088-.24-.736-.439-1.867-.441-2.513v-2.695c0-.836.199-1.967.435-2.513.277-.639.475-.852.555-.597.068.218.18.572.249.786.109.338.157.34.361.008.13-.21.324-.294.43-.188.106.107-.092.46-.44.784-.567.529-.584.6-.16.682.426.082.434.137.077.531-.218.242-.398.5-.4.572 0 .073-.087.358-.193.634-.123.32-.052.607.195.794.213.16.542 1.007.73 1.88.189.873.561 2.09.828 2.705.267.615.871 1.597 1.342 2.183.47.586 1.006 1.065 1.19 1.065.183 0 .52-.187.749-.416.357-.357.415-1.407.411-7.474 0-3.883-.09-7.19-.198-7.35-.107-.16-.446-.424-.753-.585-.464-.244-.654-.193-1.116.298-.306.326-.902 1.225-1.325 1.998l-.768 1.404-.574-.806-.575-.807.56-1.095c.306-.602 1.053-1.632 1.657-2.288.605-.656 1.579-1.517 2.164-1.913.586-.397 1.272-.796 1.525-.888.268-.098.433-.048.396.12a.348.348 0 0 0 .21.39c.15.057.479-.248.732-.676.372-.63.747-.838 1.968-1.092.83-.172 2.346-.25 3.37-.174 1.022.076 2.455.34 3.182.587.728.247 2.01.863 2.848 1.368.88.531 1.45 1.04 1.348 1.204-.1.16-.053.209.106.11.155-.095.75.357 1.32 1.006.572.65 1.402 1.87 1.846 2.713.444.844.892 1.813.995 2.155.163.537.116.598-.344.452-.293-.093-.607-.05-.696.094-.09.145-.092.547 0 .893.087.346.308.63.492.63.208 0 .29-.235.216-.618-.066-.343.011-.617.173-.617.16 0 .359.327.443.727.084.4.195.938.246 1.196.051.257-.076.636-.282.843-.235.235-.276.437-.109.54.147.09.267.277.267.414 0 .136-.172.248-.382.248a.76.76 0 0 0-.58.324c-.11.177-.174.67-.141 1.095.032.424.135.896.23 1.048.1.162.258.065.383-.235.128-.307.15-.089.057.547-.086.582-.513 1.796-.95 2.698-.534 1.104-1.335 2.142-2.452 3.175-.913.844-1.847 1.684-2.076 1.866-.229.182-.481.33-.56.33-.079 0-.143-.18-.143-.402 0-.296-.174-.358-.662-.235-.491.123-.661.06-.661-.242 0-.224.238-.483.529-.576.29-.092.53-.279.53-.415 0-.137-1.498-.267-3.374-.294a990.84 990.84 0 0 0-6.214-.066c-2.73-.018-2.817-.001-2.249.434.325.248 1.246.695 2.046.993.8.297 1.872.592 2.382.654.51.062 1.194.122 1.521.131.376.012.595.183.595.466 0 .39.05.381.389-.066.351-.465.39-.47.397-.051.01.255.127.463.273.463.145 0 .264-.238.264-.53 0-.315.187-.541.463-.56.255-.017.612-.012.794.012.182.024.33-.081.33-.233 0-.152.153-.277.339-.277.186 0 .53.224.763.497.242.283.337.64.221.827-.112.182-.664.345-1.226.363-.836.027-1.008-.05-.945-.43.043-.254-.054-.463-.214-.463s-.223.111-.14.247c.085.135.03.322-.12.415-.15.093-.204.28-.12.417.084.136 0 .3-.194.364-.191.063-.764.162-1.274.22zm2.866-.868c.316 0 .574-.109.574-.241 0-.133-.176-.216-.39-.184-.214.031-.472.14-.573.24-.101.102.074.185.39.185zm3.39-2.036c.372-.143.369-.186-.029-.41-.245-.136-.508-.186-.584-.11-.076.077-.064.261.028.41.092.149.355.199.584.11zm.8-.169a.25.25 0 0 0 0-.353c-.097-.097-.177-.017-.177.177s.08.273.177.176zm-6.978-2.146c.727-.097 1.807-.423 2.4-.725.593-.303 1.423-.803 1.846-1.11.423-.309 1.32-1.066 1.993-1.683.675-.618 1.49-1.123 1.819-1.124.347-.002.595.158.595.384 0 .213-.243 1.005-.54 1.76-.298.754-.505 1.562-.46 1.794.05.267.38-.065.892-.9.446-.726 1.04-1.917 1.32-2.644.388-1.011.506-1.978.498-4.101-.01-2.697-.039-2.834-1.011-4.671-.551-1.041-1.601-2.499-2.334-3.239-.759-.766-2.087-1.714-3.089-2.203-.967-.472-1.802-.963-1.856-1.09-.054-.13-.183-.098-.286.07-.103.166-.39.225-.637.13-.308-.118-.397-.34-.281-.703.111-.353.07-.47-.125-.35-.161.1-.293.352-.293.561 0 .309-.427.364-2.249.29-1.737-.07-2.249-.01-2.249.26 0 .193-.327.433-.727.532-.4.099-1.177.476-1.726.837-.548.362-.934.72-.857.797.077.077 1.806.123 3.842.102 3.475-.036 3.702-.008 3.702.465 0 .277-.238.579-.528.67-.29.093-.707.347-.926.567-.335.335-.398 1.528-.398 7.501 0 3.907.077 7.305.171 7.55.143.373.394.419 1.494.273zm-3.65-19.197a.133.133 0 1 1 0-.265.133.133 0 0 1 0 .265zm14.023 7.408a.133.133 0 1 0 0-.265.133.133 0 0 0 0 .265zm-3.556-5.556c.137 0 .249-.12.249-.265 0-.145-.186-.264-.413-.264-.227 0-.339.119-.249.264.09.146.276.265.413.265zm-3.588-1.852a.133.133 0 1 0 0-.265.133.133 0 0 0 0 .265zm-7.937-.794a.133.133 0 1 0 0-.265.133.133 0 0 0 0 .265zm-6.35 19.844a.132.132 0 1 1 0-.265.132.132 0 0 1 0 .265zm22.49-6.35a.133.133 0 1 1 0-.265.133.133 0 0 1 0 .265zm-23.504-1.676c-.097.097-.177.018-.177-.176 0-.194.08-.274.177-.177a.25.25 0 0 1 0 .353z" id="path1215" fill="#212121" stroke-width=".265"></path></g></g></svg>