<svg xmlns="http://www.w3.org/2000/svg" width="73" height="79" viewBox="0 0 19.315 20.902"><title>ryza2 forge</title><g fill="#212121" class="nc-icon-wrapper"><g transform="translate(50.585 -85.218)"><path d="M-39.592 106.12h-6.23v-.662c0-.382.152-.661.36-.661.2 0 .675-.247 1.059-.549.383-.301.697-.761.697-1.022 0-.398-.294-.496-1.815-.605-1.227-.087-2.173-.331-2.923-.753-.61-.343-1.341-.999-1.625-1.458-.284-.46-.516-1.014-.516-1.232 0-.254.359-.457.992-.561.546-.09 1.31-.166 1.698-.167.388-.002.755-.152.815-.334.084-.251 1.84-.35 7.298-.409l7.188-.078v.915c0 .87-.054.924-1.124 1.101-.618.103-1.437.347-1.818.542-.382.195-.751.573-.82.839-.07.266-.032.74.084 1.054.136.368.525.63 1.095.737.486.09 1.057.127 1.27.08.302-.066.405.281.466 1.569l.08 1.654zm-5.599-8.732c-.053 0-.28-.44-.504-.978-.225-.538-.35-1.133-.277-1.323.073-.19.278-.344.456-.344.214 0 .188-.113-.077-.331-.22-.182-.731-1.131-1.135-2.109-.696-1.685-.717-1.849-.388-3.13.264-1.03.524-1.445 1.088-1.737.698-.36.755-.348.977.22.13.333.481 1.17.781 1.861.3.691.677 1.257.837 1.257.16 0 1.835-.771 3.722-1.713 1.887-.942 3.82-2.01 4.296-2.373a10.028 10.028 0 0 1 1.835-1.065c.534-.223 1.09-.405 1.236-.405.147 0 .448.35.67.78.222.43.404.95.404 1.157 0 .234-2.196 1.361-5.82 2.99-3.2 1.437-5.82 2.762-5.82 2.944-.001.182.155.33.346.33.191 0 .558.442.815.98.45.943.449.995-.017 1.347-.266.201-1.124.653-1.906 1.004-.782.351-1.465.638-1.518.638z" id="path1183-5" fill="#212121" stroke-width=".265"></path></g></g></svg>