<svg xmlns="http://www.w3.org/2000/svg" width="73" height="63" viewBox="0 0 19.374 16.882"><title>ryza2 category ingots</title><g fill="#212121" class="nc-icon-wrapper"><g transform="translate(-57.65 201.702)"><path d="M65.562-184.82c-.756 0-1.427-.053-1.491-.117-.065-.065-1.484-.257-3.153-.427-1.67-.17-3.123-.39-3.23-.488-.108-.098.023-1.534.29-3.19.458-2.832.541-3.06 1.387-3.8.494-.434 1.611-1.455 2.482-2.27.87-.815 2.018-1.839 2.55-2.275.532-.437 1.844-1.586 2.916-2.554l1.95-1.76 2.708.325c1.49.178 2.767.383 2.838.454.071.071-.32.568-.87 1.105-.966.944-1.096.987-4.097 1.36-2.64.327-3.241.492-4.055 1.113-.526.401-.82.774-.655.83.166.055 1.508-.031 2.983-.191s2.749-.225 2.831-.142c.083.082-.025.26-.239.396-.214.135-.806.264-1.315.285l-.926.039.831.164.831.163-2.55 2.69c-2.287 2.41-2.634 2.678-3.346 2.587-.436-.055-1.7-.18-2.806-.276-1.967-.172-2.017-.161-2.164.454-.082.347-.23 1.303-.329 2.124l-.179 1.494 1.02.16c.56.089 2.09.28 3.4.423 1.31.144 2.542.263 2.738.264.279.002.318-.332.18-1.52-.097-.836-.198-1.72-.224-1.966-.027-.244 1.262-1.848 2.862-3.564 1.601-1.715 3.816-4.068 4.923-5.227l2.012-2.108.72 2.162c.396 1.19.681 2.336.634 2.549-.048.213-2.336 2.715-5.085 5.56l-4.999 5.174zm-2.123-10.318a.133.133 0 1 0 0-.265.133.133 0 0 0-.133.132c0 .073.06.133.133.133zm2.38-.448c1.165-.08 2.167-.191 2.228-.246.06-.055-.356-.091-.926-.08-.57.01-1.572.12-2.227.245-.895.17-.665.19.926.08z" id="path1196-1-6" fill="#212121" stroke-width=".265"></path></g></g></svg>