<svg xmlns="http://www.w3.org/2000/svg" width="77" height="74" viewBox="0 0 20.486 19.585"><title>ryza2 category cloth</title><g fill="#212121" class="nc-icon-wrapper"><g transform="translate(91.781 231.798)"><path d="M-84.048-212.214c-.93.008-1.173-.096-1.37-.586-.131-.327-1.617-3.73-3.301-7.56-1.684-3.83-3.062-7.128-3.062-7.328 0-.199.287-.696.639-1.104.626-.727.691-.741 3.12-.672 1.91.055 2.826-.048 3.98-.445.826-.284 2.071-.6 2.768-.701.697-.102 1.715-.41 2.263-.687l.996-.501.26.686c.144.377.261.734.261.794 0 .06.728 1.802 1.616 3.871.89 2.07 2.024 4.6 2.522 5.623.498 1.023 1.204 2.172 1.569 2.553.587.613.617.732.257 1.03-.224.187-.408.658-.408 1.047 0 .39.132.84.292 1 .212.212.158.328-.199.427-.269.075-1.085.271-1.812.436-.728.165-2.395.523-3.704.797-1.31.273-3.096.68-3.97.903-.872.224-2.095.412-2.717.417zm-.98-1.578c.079 0 .562-.175 1.073-.389.512-.214 1.937-.53 3.166-.701 1.825-.256 2.181-.378 1.94-.67-.237-.284-.153-.357.412-.357.47 0 .646.104.52.306-.138.225.224.263 1.364.146.908-.094 2.152-.468 2.997-.901.794-.408 1.487-.872 1.54-1.032.053-.16-.155-.577-.462-.926-.307-.35-.473-.471-.369-.27.126.242.066.324-.178.242-.202-.067-.409-.335-.46-.595-.053-.279.023-.402.188-.3.153.095-.21-.9-.807-2.21-.596-1.31-1.174-2.326-1.283-2.258-.11.067-.268-.055-.35-.273-.084-.217-.041-.395.095-.395.137 0 .18-.179.096-.397-.084-.219-.318-.397-.52-.397-.204 0-.368-.208-.365-.463.003-.396.041-.405.26-.066.141.218.254.278.251.132-.003-.145-.17-.562-.371-.926-.201-.364-.465-.633-.586-.599-.12.035-.224-.155-.229-.42-.005-.267-.24-1.165-.523-1.997-.444-1.308-.586-1.489-1.05-1.338-.294.095-1.13.296-1.857.445-.728.149-2.031.494-2.896.767-1.085.342-2.365.496-4.126.496-2.104 0-2.624.082-2.951.463a5.9 5.9 0 0 0-.61.86c-.171.323-.144.335.146.066.196-.182.47-.33.609-.33s.038.236-.224.525c-.458.507-.456.576.071 1.919.301.765 1.137 2.702 1.857 4.302.721 1.601 1.8 3.953 2.4 5.226.599 1.273 1.153 2.315 1.232 2.315zm.492-.53c-.219 0-.324-.118-.234-.264.09-.145.342-.264.56-.264.219 0 .324.119.234.264-.09.146-.342.265-.56.265zm1.669-.532c-.118.002-.14-.115-.05-.26.09-.146.364-.264.61-.261.386.003.393.039.05.26-.218.141-.492.258-.61.26zm2.33-.577c-.436-.005-.583-.065-.325-.132.257-.067.614-.063.794.01.179.073-.032.127-.468.122zm4.102-.52c-.364 0-.513-.06-.331-.133.182-.073.48-.073.661 0 .182.073.033.134-.33.134zm1.587-.146c-.291.077-.53.03-.53-.101 0-.132.239-.24.53-.24.291 0 .53.046.53.102 0 .055-.239.163-.53.24zm1.555-.605a.235.235 0 0 1-.232-.237c0-.13.188-.308.418-.397.23-.088.483-.16.562-.16.079 0-.005.178-.186.397-.181.218-.434.397-.562.397zm-.601-3.247c-.065.064-.25-.131-.413-.435-.162-.304-.185-.552-.05-.552.136 0 .321.196.413.435.092.24.114.487.05.552zm-.794-1.852c-.064.064-.25-.132-.412-.435-.163-.304-.185-.552-.05-.552s.32.196.412.435c.092.239.114.487.05.552zm-15.043-6.297c-.109.01-.198-.1-.198-.246s.327-.256.727-.246c.645.016.668.044.199.246-.291.125-.619.236-.728.246zm2.183-.246c-.291 0-.53-.12-.53-.265 0-.145.239-.264.53-.264.291 0 .53.119.53.264 0 .146-.239.265-.53.265zm1.969 0c-.384 0-.606-.115-.514-.265.09-.145.395-.264.677-.264.283 0 .514.119.514.264 0 .146-.305.265-.677.265zm8.021-.113c-.062.062-.192.034-.289-.063-.097-.097-.172-.365-.168-.596.007-.344.058-.332.289.064.154.266.23.534.168.595zm-6.235-.42c-.386-.003-.393-.04-.05-.26.218-.142.492-.26.61-.261.118-.002.14.115.05.26-.09.146-.364.263-.61.26zm1.72-.544c-.118.01-.14-.1-.05-.246.089-.146.423-.256.742-.246.56.018.561.027.05.246-.29.125-.625.236-.742.246zm2.463-.51c-.291 0-.53-.046-.53-.102 0-.056.239-.164.53-.24.29-.076.529-.03.529.102 0 .131-.238.24-.53.24zm1.314 0c-.14 0-.256-.18-.256-.397 0-.219.047-.397.104-.397.057 0 .172.178.256.397.084.218.037.396-.104.396zm1.464 2.645c.072 0 .132-.06.132-.132a.133.133 0 0 0-.132-.132.133.133 0 0 0-.133.132c0 .073.06.132.133.132z" id="path1196-1-0" fill="#212121" stroke-width=".265"></path></g></g></svg>