<svg xmlns="http://www.w3.org/2000/svg" width="56" height="67" viewBox="0 0 14.931 17.978"><title>ryza2 category general goods</title><g fill="#212121" class="nc-icon-wrapper"><g transform="translate(-13.29 177.957)"><path d="M21.897-159.979c-.233-.008-1.197-.316-2.143-.685-.946-.369-2.408-.778-3.25-.91-.84-.13-1.875-.417-2.298-.636-.423-.218-.828-.493-.9-.61-.072-.116.105-.921.394-1.787.419-1.254.472-1.765.26-2.502-.146-.51-.245-1.343-.22-1.852.024-.51-.053-1.785-.172-2.836l-.216-1.91.913-.435c.502-.24 1.115-.779 1.363-1.198.247-.419.711-.825 1.031-.903.32-.077 1.628-.177 2.908-.221 1.28-.044 2.389.018 2.463.14.075.12.419.22.764.22.395 0 .69-.196.796-.528.092-.29.346-.707.566-.926.219-.22.747-.399 1.173-.399.426 0 .775.127.775.282 0 .155-.123.513-.274.794-.237.443-.184.512.397.512.369 0 .906.235 1.193.522.287.288.598.824.69 1.192.093.368-.035 1.887-.284 3.375-.249 1.487-.452 3.077-.452 3.532 0 .455.19 1.196.423 1.646.233.45.423 1.138.423 1.529 0 .39-.248 1.11-.55 1.6-.315.51-.854.965-1.257 1.061-.389.093-1.468.57-2.4 1.058-.931.489-1.884.883-2.116.875zm.112-1.95c.237-.93.254-1.523.06-2.078-.188-.54-.182-1.065.021-1.726.21-.687.212-1.481.004-2.882-.158-1.063-.362-1.933-.454-1.933-.091 0-.18.982-.197 2.182-.016 1.201-.054 2.6-.082 3.11-.029.509.03 1.759.132 2.777l.185 1.852.332-1.301zm.736 1.17c.08 0 .305-.149.498-.33.194-.182.856-.776 1.47-1.319.99-.874 1.2-.957 1.85-.726l.731.261-.6-.511-.602-.512.601-.115c.474-.09.43-.123-.202-.151-.638-.029-1.05.223-2 1.22-.657.692-1.352 1.466-1.544 1.72-.191.255-.282.463-.202.463zm1.898-4.762c.039 0 .055-.983.038-2.183-.018-1.2.07-2.778.197-3.506.144-.83.136-1.224-.02-1.058-.137.145-.407.764-.598 1.376-.229.728-.287 1.635-.17 2.634.099.838.248 1.797.332 2.13.083.334.183.607.221.607zm-3.566-6.125c.363.004 1.911-.61 3.44-1.366 2.296-1.135 2.761-1.465 2.685-1.902-.051-.291-.23-.62-.397-.73-.167-.11-.538-.169-.824-.131-.335.043-.658.442-.912 1.126-.216.582-.518 1.145-.671 1.252-.153.107-.38.197-.505.199-.125.002-.167-.145-.094-.327l.695-1.744c.323-.81.435-1.37.264-1.313-.165.055-.663.966-1.108 2.024-.602 1.434-1.007 2.027-1.588 2.328-.429.221-.735.303-.681.182.054-.121.372-.795.706-1.497.479-1.004.542-1.357.296-1.654-.172-.207-.393-.376-.491-.376-.098 0-.313.784-.477 1.744-.165.96-.368 1.813-.451 1.896-.084.084-.232.072-.33-.026-.097-.098-.032-.965.145-1.928.177-.962.284-1.788.238-1.835-.047-.046-.707.39-1.468.97-.86.656-1.383 1.256-1.383 1.587 0 .293-.119.46-.264.37-.146-.09-.265-.358-.265-.594 0-.237.256-.703.568-1.035.47-.5.51-.675.232-1.01-.184-.222-.598-.404-.918-.404-.321 0-.83.268-1.13.595-.3.328-.622.954-.715 1.392l-.168.797 2.455.702c1.35.386 2.752.705 3.116.708zm-4.837-1.945c-.104.428-.135.4-.16-.148-.017-.372.138-.908.345-1.19.206-.282.463-.425.571-.317.108.108.011.406-.215.661-.227.256-.47.703-.541.994zm-1.381.397c.218 0 .397-.12.397-.265 0-.145-.179-.264-.397-.264-.218 0-.397.119-.397.264 0 .146.179.265.397.265zm10.032-3.99c.279.012.435-.05.347-.139-.088-.088-.316-.097-.507-.02-.21.084-.148.146.16.16z" id="path1196-1-9-6" fill="#212121" stroke-width=".265"></path></g></g></svg>