<svg xmlns="http://www.w3.org/2000/svg" width="73" height="63" viewBox="0 0 19.339 16.669"><title>ryza2 category weapons</title><g fill="#212121" class="nc-icon-wrapper"><g transform="translate(66.965 230.505)"><path d="M-49.599-213.837c-.37 0-.915-.242-1.21-.537-.296-.296-.607-.881-.691-1.302-.111-.556-.46-.926-1.28-1.361l-1.126-.598-.732.576c-.403.317-1.015.576-1.359.576-.344 0-.871-.245-1.171-.545-.3-.3-.499-.687-.442-.859.058-.171.512-.513 1.01-.759a55.89 55.89 0 0 1 1.688-.795c.558-.248.85-.616 1.01-1.275.124-.51.341-1.372.483-1.918.187-.722.399-.992.776-.992.285 0 .757.238 1.048.529.29.29.529.773.529 1.071 0 .299-.189.907-.42 1.353-.406.786-.395.84.358 1.773.506.626 1.044.993 1.544 1.05.422.048 1.035.336 1.362.641.35.326.595.867.595 1.314 0 .454-.261 1.021-.65 1.409-.356.357-.952.65-1.322.65zm.21-1.397c.17-.056.346-.3.393-.543.05-.255-.084-.44-.315-.44-.22 0-.475.118-.565.264a.567.567 0 0 0 .01.543c.094.153.31.232.478.176zm-7.463-3.894c-.266 0-2.436-1.626-4.823-3.614-3.894-3.241-4.37-3.728-4.636-4.732a35.641 35.641 0 0 1-.475-2.075l-.18-.956 2.196.007 2.194.007 4.234 3.707c2.328 2.038 4.274 3.895 4.325 4.125.05.23.015.929-.08 1.554-.152 1.018-.278 1.179-1.22 1.556-.579.231-1.27.42-1.535.42zm1.039-1.852c.137 0 .249-.093.249-.206 0-.113-1.22-1.172-2.712-2.353a381.133 381.133 0 0 0-4.167-3.257c-1.34-1.021-1.297-.958.529.79a75.55 75.55 0 0 0 3.918 3.463c1.064.86 2.046 1.563 2.183 1.563zm-8.334-6.88a.117.117 0 0 0 .116-.116c0-.064-.137-.202-.305-.306-.19-.117-.234-.072-.117.117.104.168.241.305.306.305z" id="path1196-1-28" fill="#212121" stroke-width=".265"></path></g></g></svg>