<svg xmlns="http://www.w3.org/2000/svg" width="107" height="108" viewBox="0 0 28.339 28.663"><title>ryza2 fire</title><g fill="#212121" class="nc-icon-wrapper"><g id="layer1" transform="translate(-1.753 -30.011)"><path d="M17.14 58.64c-1.164.068-2.712.03-3.44-.082-.727-.112-1.68-.322-2.116-.465-.437-.144-1.436-.606-2.221-1.026-.786-.421-2.014-1.29-2.73-1.93-.716-.64-1.748-1.831-2.294-2.646-.546-.814-1.145-1.898-1.332-2.407a88.807 88.807 0 0 0-.548-1.455c-.114-.291-.35-1.315-.523-2.276-.238-1.316-.243-2.165-.02-3.44.163-.93.42-2.11.57-2.618.15-.51.636-1.665 1.08-2.568.535-1.085 1.448-2.261 2.697-3.472 1.341-1.3 2.449-2.058 3.87-2.759 1.297-.64 2.731-.985 4.15-1.27a9.962 9.962 0 0 1 2.15-.213c.523.01 1.041.115 1.554.218.88.176 1.752.406 2.605.685.698.228 1.396.473 2.05.807.366.187.703.427 1.039.664.104.073.203.155.303.235.68.546 1.104.752 2.013 1.672.91.92 1.974 2.259 2.366 2.976.393.718.944 2.02 1.225 2.892.375 1.165.51 2.328.504 4.366-.004 1.528-.144 3.243-.31 3.812-.166.568-.692 1.818-1.17 2.778-.56 1.124-1.492 2.357-2.622 3.469-1.08 1.063-2.404 2.042-3.45 2.552-.932.455-2.053.951-2.49 1.104-.436.152-1.745.33-2.91.398zm-1.455-4.587c.728 0 1.323-.12 1.323-.265 0-.145.357-.264.794-.264.436 0 .794-.12.794-.265 0-.145.299-.265.665-.265a3.06 3.06 0 0 0 1.256-.33c.326-.182 1.039-.742 1.584-1.244.761-.701.992-1.117.992-1.786 0-.48-.119-.873-.264-.873-.146 0-.265-.25-.265-.555 0-.306.357-.89.794-1.297.437-.408.794-.928.794-1.156 0-.229-.238-.84-.53-1.357-.35-.623-.529-1.433-.529-2.39 0-.796-.089-1.438-.198-1.428-.11.011-.556.228-.992.483-.437.255-.832.723-.878 1.04-.047.316-.255.575-.464.575-.208 0-.378-.214-.378-.474 0-.261-.541-1.005-1.203-1.654s-1.381-1.535-1.599-1.97c-.252-.504-.295-.823-.12-.882.152-.05.276-.626.276-1.279 0-.676-.163-1.35-.378-1.565-.208-.208-.589-.378-.846-.378-.365 0-.399.07-.152.317.175.175.318.627.318 1.006 0 .378-.143.83-.318 1.005-.174.175-.531.318-.793.318s-.477.119-.477.264c0 .146-.187.265-.415.265-.23 0-.586.17-.794.378-.208.208-.378.677-.378 1.042 0 .366.119.739.264.829.146.09.265.326.265.525 0 .2-.375.55-.834.778-.46.23-1.017.416-1.24.416-.223 0-.697.268-1.054.596-.45.413-.685.494-.767.264-.065-.182-.489-.33-.942-.33-.642 0-.755.07-.508.317.175.175.318.99.318 1.811 0 1.158-.12 1.601-.53 1.973-.386.35-.528.815-.528 1.73 0 .689.164 1.568.364 1.955.2.386.903 1.233 1.561 1.882.658.649 1.487 1.019 1.737 1.18.361.232.29.152.69.323.327.178.646.206 1.22.206.573 0 1.042.119 1.042.264 0 .146.595.265 1.323.265zm-.992-2.143c-.4-.014-.97-.163-1.267-.33-.297-.168-.862-.56-1.257-.873-.435-.344-.717-.825-.717-1.224 0-.361.176-.803.391-.982.215-.179.573-.688.794-1.131.221-.444.402-1.004.402-1.246 0-.241.328-.729.728-1.084.4-.354.994-.793 1.32-.975.325-.182.771-.33.991-.33.22 0 .4.1.4.223s-.237.439-.528.702c-.291.264-.53.588-.53.721 0 .134.17.413.378.62.208.209.566.379.794.379.286 0 .416-.249.416-.794 0-.436.095-.794.212-.794.116 0 .354.143.529.318.181.181.317 1.05.317 2.03 0 1.228.125 1.85.442 2.2l.442.489-.756.789c-.58.605-.99.789-1.765.789-.555 0-1.008.12-1.008.265 0 .145-.328.252-.728.238z" id="path34246" fill="#212121" stroke-width=".265"></path></g></g></svg>