<svg xmlns="http://www.w3.org/2000/svg" width="75" height="88" viewBox="0 0 20.058 23.454"><title>ryza2 category gemstones</title><g fill="#212121" class="nc-icon-wrapper"><g transform="translate(67.033 120.183)"><path d="M-57.5-96.953c-1.274.295-1.688.297-2.363.013-.45-.19-.935-.651-1.078-1.026-.215-.566-.41-.672-1.142-.622-.557.037-1.179-.151-1.68-.509-.44-.312-.937-.735-1.107-.94-.238-.287-.22-.587.079-1.302.231-.553.633-.995.994-1.093.561-.153.465-.304-1.315-2.055l-1.92-1.89.168-2.94c.092-1.617.242-3.019.333-3.115.09-.097 1.11-.025 2.267.16 1.7.27 2.182.453 2.514.954.226.341.615.864.865 1.163.453.543.454.543.486-.118.017-.363.17-1.79.34-3.17l.307-2.51 1.6-1.062c.88-.585 2.408-1.583 3.395-2.218 1.004-.646 1.895-1.055 2.02-.926.123.126 1.234 1.818 2.469 3.76l2.244 3.531-.506 1.472c-.278.809-.506 1.571-.506 1.694s.344.223.765.223c.421 0 .829.164.905.363.077.2.22.904.32 1.564.168 1.12.107 1.297-.905 2.638-.624.826-1.085 1.729-1.085 2.125 0 .525.115.666.486.595.267-.052.621-.01.788.093.206.128-.053.814-.817 2.16l-1.119 1.972-2.019.076c-1.581.06-2.117.186-2.473.58-.359.395-.592.449-1.11.252-.441-.168-1.156-.133-2.2.108zm3.426-2.201c.313-.168.632-.467.708-.664.075-.198-.005-.626-.18-.951-.249-.466-.36-.513-.519-.22-.111.206-.287.771-.39 1.257-.18.842-.163.869.38.578zm3.814.258c.183 0 .532-.419.777-.932l.444-.932-.775.401c-.427.22-.85.521-.94.668a.554.554 0 0 0-.002.53c.09.146.313.265.496.265zm-10.441-.797c.085-.002.428-.077.761-.166.575-.154.583-.188.158-.658-.247-.272-.725-.495-1.063-.495-.56 0-.588.059-.314.661.166.364.372.66.458.658zm-2.98-1.1a.788.788 0 0 0 .577-.577c.067-.35-.041-.458-.391-.39a.788.788 0 0 0-.577.576c-.067.35.041.459.39.391zm13.454-.917c.24-.092.393-.482.387-.984l-.01-.832-.387.89c-.213.49-.387.933-.387.984 0 .052.179.025.397-.058zm-9.234-.43c.057-.058.268-.648.468-1.312l.363-1.206-1.52-2.53c-.836-1.392-1.59-2.715-1.677-2.94-.086-.225-.25-.408-.364-.407-.114 0-.527.775-.918 1.72l-.712 1.719 2.127 2.53c1.17 1.392 2.175 2.483 2.233 2.426zm4.066.07c.12 0 .708-.278 1.305-.617l1.086-.617-.979-.3c-.539-.166-1.019-.262-1.067-.214-.048.049-.195.461-.326.918-.13.456-.14.83-.019.83zm-7.482-1.059c.036 0-.022-.208-.128-.463-.106-.255-.524-1.092-.927-1.862s-.818-1.353-.922-1.297a7.39 7.39 0 0 1-.7.284c-.45.161-.323.374 1.05 1.76.858.868 1.59 1.578 1.627 1.578zm6.412-.81l1.038-.833 1.37.455c1.24.412 1.409.416 1.782.042.227-.227 1.026-2.056 1.774-4.065 1.313-3.523 1.342-3.659.818-3.825-.299-.094-1.943-.183-3.653-.198-1.71-.014-3.108.003-3.108.04 0 .036-.237 1.911-.525 4.167-.29 2.256-.527 4.315-.53 4.577-.004.395.17.335 1.034-.36zm5.952-1.307c.203 0 .697-.565 1.099-1.256.401-.692.903-1.525 1.114-1.852.362-.563.346-.596-.3-.596-.393 0-.793.208-.945.49-.144.27-.504 1.104-.799 1.853-.426 1.082-.46 1.361-.169 1.361zm-8.814-2.38c.13 0 .22-1.697.2-3.771l-.037-3.77-.323 3.44c-.178 1.89-.268 3.588-.2 3.77.069.181.23.33.36.33zm-4.25-1.832c.43-.91.783-1.695.783-1.743 0-.047-.602-.215-1.336-.373-.735-.157-1.448-.286-1.584-.286-.136 0 0 .625.305 1.389.303.764.664 1.677.8 2.03.233.6.297.536 1.031-1.017zm12.16-3.46c1.268 0 2.116-.11 2.116-.272 0-.149-.493-1.071-1.096-2.05a124.913 124.913 0 0 0-1.786-2.816l-.69-1.037-.308 2.36c-.169 1.297-.318 2.687-.33 3.087l-.023.728zm-5.681-.847c.174-.19.924-1.39 1.667-2.67.743-1.279 1.206-2.238 1.029-2.132-.178.106-1.156.721-2.175 1.366-1.018.646-1.908 1.224-1.976 1.287-.069.062.16.649.507 1.303.505.952.694 1.12.948.846z" id="path1196-1-2-1" fill="#212121" stroke-width=".265"></path></g></g></svg>