<svg xmlns="http://www.w3.org/2000/svg" width="79" height="77" viewBox="0 0 20.969 20.43"><title>ryza2 equipment</title><g fill="#212121" class="nc-icon-wrapper"><g id="layer1" transform="translate(152.284 -6.906)"><path d="M-136.76 26.493c-2.043-.816-2.123-.885-6.283-5.381-2.318-2.505-4.214-4.665-4.214-4.8 0-.136.28-.509.62-.83l.622-.583 2.619 2.852c6.35 6.917 6.204 6.766 6.386 6.584.157-.156-.405-.804-4.937-5.688-3.777-4.071-3.673-3.901-2.872-4.702l.653-.653 4.231 4.582c3.46 3.746 4.33 4.847 4.77 6.037.636 1.725.981 3.446.686 3.424-.116-.009-1.142-.388-2.28-.842zm-4.888-.98c-2.195-1.42-5.22-4.444-5.864-5.863-.29-.64-.53-1.576-.533-2.082-.006-.904.002-.91.48-.396.268.287.628 1.021.8 1.632.398 1.406 3.098 4.196 5.795 5.986 1.748 1.16 2.186 1.767 1.279 1.767-.187 0-1.068-.47-1.957-1.045zm6.561-2.909c0-.306.456-1.06 1.012-1.675 1.53-1.692 1.767-2.52 1.764-6.146-.004-4.683.172-4.404-3.502-5.573-1.71-.544-3.408-.994-3.771-1-.908-.013-4.045.825-5.886 1.573-.837.34-1.7.55-1.919.466-.43-.165-.536-.773-.174-.997.37-.228 7.55-2.34 7.979-2.346.218-.003 2.06.536 4.092 1.198 4.372 1.423 4.11 1.038 4.17 6.15.05 4.157-.191 5.09-1.84 7.13-1.402 1.734-1.925 2.065-1.925 1.22zm-2.58-2.9l-1.917-2.105v-4.252c0-4.879-.198-4.601 2.627-3.695 3.356 1.077 3.558 1.183 3.777 1.989.34 1.249.32 5.437-.032 6.684-.196.696-.77 1.627-1.432 2.323l-1.104 1.161zm-13.441-2.239c-.24-.954.088-1.731.808-1.912.39-.098.735-.467.913-.98.248-.71.188-1.012-.445-2.224-.418-.799-.914-1.402-1.155-1.402-.612 0-1.297-.863-1.297-1.634 0-.796.746-1.541 1.542-1.541.715 0 1.633.885 1.633 1.576 0 .742 2.1 1.923 3.226 1.815.646-.063.96-.273 1.218-.812.347-.727 1.07-.93 2.016-.567.684.262.486.776-.706 1.838-.618.551-2.418 2.202-4 3.669-1.582 1.467-3.036 2.705-3.232 2.75-.197.047-.43-.21-.521-.576z" id="path925-5" fill="#212121" stroke-width=".265"></path></g></g></svg>