<svg xmlns="http://www.w3.org/2000/svg" width="82" height="79" viewBox="0 0 21.906 20.971"><title>ryza2 category sand</title><g fill="#212121" class="nc-icon-wrapper"><g transform="translate(-28.51 86.786)"><path d="M47.502-65.88c-.511.092-1.011.086-1.11-.014-.1-.1-3.79-.227-8.199-.283-4.409-.056-8.374-.199-8.81-.317-.57-.155-.815-.397-.867-.86-.056-.486.364-1.098 1.72-2.506a115.268 115.268 0 0 1 3.248-3.233c.8-.754 1.726-1.642 2.057-1.974.33-.332 1.36-1.36 2.285-2.284 1.344-1.342 1.796-1.646 2.241-1.504.307.097.74.36.965.584.307.307.334.496.111.765-.163.196-.215.49-.115.651.1.162.36.227.576.144.225-.087.606.104.89.445.273.327.501.744.506.926.005.182.187.33.406.33.218 0 .397.103.397.228 0 .124.571.81 1.27 1.521.7.712 1.701 1.83 2.227 2.485.526.655.966 1.31.978 1.455.012.146.132.265.265.265s.61.272 1.058.603c.523.387.816.835.816 1.247 0 .52-.189.692-.992.902-.546.142-1.41.333-1.923.425zm-.745-1.985c.121 0 .22-.179.22-.397 0-.219-.112-.397-.248-.397a.517.517 0 0 0-.39.228c-.078.125-.065.303.028.396a.64.64 0 0 0 .39.17zm1.034-.051c.157-.052.285-.208.285-.346 0-.138-.128-.294-.285-.346-.156-.052-.284.103-.284.346 0 .242.128.398.284.346zm-5.929-.302a.25.25 0 0 0 0-.353c-.097-.097-.176-.017-.176.176 0 .195.08.274.176.177zm-5.865-.177c.073 0 .133-.059.133-.132a.133.133 0 0 0-.133-.132.133.133 0 0 0-.132.132c0 .073.06.132.132.132zm7.012 0c.145 0 .264-.119.264-.264a.265.265 0 0 0-.264-.265.265.265 0 0 0-.265.265c0 .145.12.264.265.264zm2.63-.529c.137 0 .323-.119.412-.264.09-.146-.022-.265-.248-.265-.227 0-.413.12-.413.265 0 .145.112.264.249.264zm-6.158-.352a.25.25 0 0 0 0-.353c-.097-.097-.176-.018-.176.176 0 .194.079.274.176.177zm1.925.088c.154 0 .28-.12.28-.265 0-.145-.053-.264-.117-.264s-.19.119-.28.264c-.09.146-.037.265.117.265zm-3.557-.265c.073 0 .133-.06.133-.132a.133.133 0 0 0-.133-.132.133.133 0 0 0-.132.132c0 .073.06.132.132.132zm9.337-.228c.061-.184.04-.406-.049-.494a.226.226 0 0 0-.318 0c-.088.086-.066.309.048.493.167.27.23.27.319.001zm-6.971-.036c.064 0 .19-.12.28-.265.09-.146.038-.265-.116-.265-.155 0-.28.12-.28.265 0 .145.052.265.116.265zm2.661 0a.398.398 0 0 0 .397-.397.398.398 0 0 0-.397-.397.398.398 0 0 0-.396.397c0 .218.178.397.396.397zm2.426-.353a.25.25 0 0 0 0-.353c-.097-.097-.177-.018-.177.176 0 .194.08.274.177.177zm-8.731-.265a.25.25 0 0 0 0-.353c-.097-.097-.177-.017-.177.177s.08.273.177.176zm8.074-.736c.14-.663.083-.976-.218-1.207-.26-.199-.345-.509-.234-.86.096-.301.074-.548-.05-.548-.122 0-.504.197-.847.437-.502.352-.724.376-1.128.124-.277-.173-.618-.244-.757-.158-.14.087-.254.27-.254.406 0 .137.416.25.926.25s.926.094.926.21c0 .117-.141.353-.313.526-.172.172-.23.396-.128.498.102.102.326.044.498-.128s.48-.313.685-.313c.236 0 .312.158.208.43-.091.237-.017.61.165.83.282.338.36.264.52-.497zm-3.488.56a.265.265 0 0 0 0-.53.265.265 0 0 0-.265.265c0 .146.12.265.265.265zm4.878-.094c.136-.04.29-.198.342-.353.051-.154-.21-.339-.579-.41-.37-.07-.673-.08-.673-.021 0 .058.15.275.331.481.182.206.443.343.579.303zm-7.26-.17a.265.265 0 0 0 0-.53.265.265 0 0 0-.264.265c0 .145.119.264.264.264zm1.625-.42a.517.517 0 0 0 .228-.39c0-.137-.18-.25-.397-.25-.219 0-.397.1-.397.221a.64.64 0 0 0 .169.39c.093.093.272.106.397.029zm1.418-.64c.073 0 .132-.059.132-.131a.133.133 0 0 0-.132-.133.133.133 0 0 0-.132.133c0 .072.06.132.132.132zm3.969 0c.073 0 .132-.059.132-.131a.133.133 0 0 0-.132-.133.133.133 0 0 0-.132.133c0 .072.06.132.132.132zm-8.482-.528c.226 0 .412-.12.412-.265 0-.145-.112-.264-.249-.264s-.322.119-.412.264c-.09.146.022.265.249.265zm3.058-.53c.194 0 .273-.079.176-.176a.25.25 0 0 0-.352 0c-.097.097-.018.177.176.177zm-1.058-.264c.194 0 .273-.08.176-.176a.25.25 0 0 0-.353 0c-.097.097-.017.176.177.176zm3.638-.726c.182-.069.33-.227.33-.351 0-.125-.23-.35-.511-.501-.282-.15-.592-.274-.69-.274-.098 0-.11.178-.026.397.084.218.007.405-.17.415-.177.01-.084.113.207.228.29.115.678.154.86.086zm-2.183-.068a.398.398 0 0 0 .397-.397.398.398 0 0 0-.397-.397.398.398 0 0 0-.397.397c0 .219.179.397.397.397zm-2.117-.529c.073 0 .132-.06.132-.132a.133.133 0 0 0-.132-.133.133.133 0 0 0-.132.133c0 .073.06.132.132.132zm1.175-.794c.154 0 .28-.119.28-.264 0-.146-.052-.265-.116-.265-.065 0-.19.12-.28.265-.09.145-.038.264.116.264zm1.354-.264c.137 0 .25-.12.25-.265 0-.145-.186-.264-.413-.264-.227 0-.34.119-.25.264.09.146.276.265.413.265zm.91 0a.133.133 0 1 0 0-.265.133.133 0 0 0-.132.132c0 .073.06.133.133.133zm4.63-1.852c-.352 0-.528-.177-.528-.53 0-.352.176-.529.529-.529.353 0 .53.177.53.53 0 .352-.177.529-.53.529zm-8.201-3.44c-.146 0-.265-.112-.265-.249s.12-.322.265-.412c.145-.09.264.022.264.249 0 .226-.119.412-.264.412zm6.085-1.058c-.145 0-.264-.179-.264-.397 0-.218.119-.397.264-.397.146 0 .265.179.265.397 0 .218-.12.397-.265.397zm-3.004-1.884c-.278.23-.437.215-.668-.062-.23-.278-.216-.438.062-.668.278-.23.437-.216.668.062.23.278.216.437-.062.668zm1.269-2.085a.382.382 0 0 1-.381-.381c0-.21.095-.44.21-.512.117-.072.37-.033.564.087.193.12.27.35.17.512-.1.162-.353.294-.563.294z" id="path1196-1-8-2" fill="#212121" stroke-width=".265"></path></g></g></svg>