<svg xmlns="http://www.w3.org/2000/svg" width="96" height="104" viewBox="0 0 25.482 27.646"><title>ryza2 tool bug net</title><g fill="#212121" class="nc-icon-wrapper"><g transform="translate(126.016 -125.254)"><path d="M-101.016 152.89a1.701 1.701 0 0 1-.73-.087c-.186-.076-.834-.872-1.44-1.768s-2.41-3.415-4.008-5.598c-1.598-2.183-3.464-4.625-4.147-5.427-1.053-1.238-1.221-1.588-1.114-2.317.07-.48-.019-1.034-.201-1.254-.273-.33-.232-.395.251-.395.319 0 .81.124 1.09.274.281.15.76.763 1.066 1.36.305.599 2.635 4.051 5.178 7.673 2.622 3.733 4.586 6.78 4.536 7.036-.048.249-.264.476-.48.504zm-.234-.59c.136-.084.163-.293.06-.465-.102-.172-.417-.63-.7-1.019-.285-.393-.674-.644-.876-.567-.27.104-.155.402.454 1.17.45.568.927.964 1.063.88zm-18.72-7.102c-.564.064-1.39-.053-1.85-.261-.458-.207-1.314-.811-1.903-1.343-.786-.71-1.232-1.435-1.681-2.736-.48-1.39-.612-2.338-.612-4.416 0-2.446.06-2.746.773-3.969.426-.727 1.41-2.077 2.189-2.998.779-.922 1.651-2.138 1.94-2.703.288-.566.778-1.164 1.089-1.33.31-.166.975-.236 1.477-.154.502.081 1.5.525 2.22.987.718.46 1.826 1.449 2.462 2.195.635.747 1.58 2.132 2.099 3.08.518.946 1.079 2.353 1.244 3.126.166.773.246 1.461.178 1.53-.068.068-.437-.02-.82-.193-.568-.26-.695-.496-.695-1.296 0-.583-.343-1.643-.848-2.622-.466-.904-1.44-2.245-2.163-2.98-.723-.735-1.681-1.56-2.129-1.832-.447-.273-1.02-.497-1.27-.497-.252 0-.652.296-.89.659-.312.477-.382.932-.25 1.639.102.538.485 1.57.851 2.294.367.724 1.28 1.968 2.03 2.766.748.797 1.86 1.673 2.47 1.945.61.273 1.177.715 1.262.982.085.268.084.672 0 .897-.087.225-.506.555-.933.731-.427.177-1.133.729-1.57 1.227-.437.497-1.14 1.584-1.56 2.414-.421.83-1.063 1.788-1.427 2.127-.374.348-1.106.667-1.68.731zm-.357-.699c.073.006.49-.208.929-.475.504-.307 1.228-1.287 1.969-2.664.645-1.198 1.536-2.486 1.981-2.862.534-.452.692-.725.464-.802-.19-.064-.844-.498-1.453-.962-.61-.465-1.661-1.532-2.337-2.37-.676-.84-1.416-2.025-1.645-2.634l-.7-1.877-.284-.769-.756.724c-.416.398-1.192 1.357-1.724 2.13-.722 1.049-1.039 1.856-1.244 3.176-.19 1.217-.19 2.252 0 3.312.15.848.527 2.136.84 2.862.312.726.844 1.58 1.182 1.897.338.318 1.073.741 1.632.94.56.2 1.077.368 1.15.374z" id="path1183-3-9-9" fill="#212121" stroke-width=".265"></path></g></g></svg>