<svg xmlns="http://www.w3.org/2000/svg" width="43" height="76" viewBox="0 0 11.483 20.149"><title>ryza2 category magic tools</title><g fill="#212121" class="nc-icon-wrapper"><g transform="translate(-36.353 205.644)"><path d="M46.374-185.495c-.054-.002-.395-.153-.757-.337-.44-.223-.711-.636-.82-1.252-.088-.506-.483-1.634-.876-2.505-.394-.872-.959-1.844-1.256-2.16-.519-.553-.524-.635-.133-1.988.225-.776.535-2.208.69-3.183.154-.974.36-1.976.455-2.226.119-.309.075-.393-.135-.263-.207.128-.31-.046-.31-.527 0-.503-.33-1.022-1.102-1.735-.606-.56-1.306-1.018-1.556-1.018s-.765.409-1.146.909c-.382.5-.693 1.158-.693 1.463 0 .305.183.626.408.712.224.086.484.08.578-.013.093-.093.028-.31-.144-.482s-.312-.438-.31-.591c.002-.153.435-.557.962-.899l.958-.62.789.788c.755.756.775.832.459 1.812-.181.562-.458 1.183-.615 1.38-.157.198-.558.463-.892.59-.367.14-.892.121-1.333-.046-.4-.152-1.013-.536-1.362-.853l-.633-.578.439.687c.241.378.74.824 1.109.992.368.168.91.305 1.202.305.293 0 .459.12.369.265-.09.146-.64.265-1.224.265-.583 0-1.29-.123-1.57-.274-.282-.15-.75-.74-1.042-1.312-.35-.689-.53-1.56-.53-2.585 0-1.261.146-1.776.788-2.789.528-.832.97-1.242 1.34-1.242.304 0 .813.127 1.13.282.525.256.52.235-.052-.227-.46-.37-.542-.564-.303-.712.18-.112.832-.193 1.446-.18.615.012 1.43.14 1.81.285.381.145.883.554 1.116.909.232.355.488 1.051.57 1.548.08.497.018 1.366-.138 1.932-.156.565-.242 1.07-.19 1.121.052.052.31-.507.574-1.241.264-.735.558-1.336.653-1.336.094 0 .372.446.617.992.423.943.419 1.095-.094 3.092-.296 1.155-.717 2.375-.934 2.712l-.822 1.274c-.235.363-.364.661-.287.661.078 0 .4-.417.714-.926.315-.51.652-.925.75-.925.096.001.184.805.194 1.786.015 1.547.196 2.19 1.359 4.828.738 1.673 1.295 3.12 1.239 3.216-.057.095-.341.111-.632.035-.29-.076-.533-.333-.538-.57-.005-.238-.192-.73-.415-1.094-.285-.463-.356-.503-.237-.132.093.29.235.856.316 1.257.08.4.102.725.048.723zm-.571-2.743c.068-.068-.002-.34-.157-.606-.154-.266-.284-.404-.289-.307-.004.098.066.37.157.607.09.237.22.374.289.306zm-.586-1.222c.073 0 .132-.06.132-.132a.133.133 0 0 0-.132-.132.133.133 0 0 0-.132.132c0 .073.06.132.132.132zm-.265-.529c.073 0 .133-.06.133-.132a.133.133 0 0 0-.133-.132.133.133 0 0 0-.132.132c0 .073.06.132.132.132zm-.264-.529c.073 0 .132-.06.132-.132a.133.133 0 0 0-.132-.133.133.133 0 0 0-.133.133c0 .073.06.132.133.132zm-.265-.53c.073 0 .132-.059.132-.131a.133.133 0 0 0-.132-.133.133.133 0 0 0-.132.133c0 .072.06.132.132.132zm-.75-1.41a.25.25 0 0 0 0-.353c-.096-.097-.176-.018-.176.176 0 .194.08.274.177.177zm-6.086-6.99c.073-.182.073-.48 0-.661-.073-.182-.133-.033-.133.33 0 .364.06.513.133.331zm-.043-1.124c.073 0 .132-.06.132-.132a.133.133 0 0 0-.132-.133.133.133 0 0 0-.132.133c0 .072.06.132.132.132z" id="path1196-1-6-7" fill="#212121" stroke-width=".265"></path></g></g></svg>