<svg xmlns="http://www.w3.org/2000/svg" width="67" height="91" viewBox="0 0 17.93 24.077"><title>ryza2 type debuff</title><g fill="#212121" class="nc-icon-wrapper"><g transform="translate(61.246 20.745)"><path d="M-48.43 3.332c-2.702 0-3.07-.057-3.565-.552-.366-.366-.5-.746-.4-1.125.085-.315.224-.825.31-1.134.118-.424-.044-.704-.66-1.143-.604-.43-.84-.49-.908-.232-.05.192-.317 1.053-.594 1.914-.277.86-.696 1.683-.93 1.828-.236.145-.623.189-.86.097-.305-.117-.433-.491-.433-1.261 0-.603.264-2.104.587-3.335.477-1.819.72-2.318 1.294-2.657.388-.23.927-.803 1.198-1.275l.492-.858 1.323.504c.728.278 1.893.924 2.59 1.437.696.512 1.5 1.314 1.785 1.782.285.468.519 1.292.52 1.832 0 .54-.165 1.135-.366 1.323-.305.283-.142.386.966.606.788.156 1.452.46 1.624.744.235.389.172.576-.335.992-.537.44-1.048.513-3.638.513zm-7.657-7.816c-.43.071-1.032.023-1.34-.107-.306-.13-.812-.559-1.124-.955-.36-.458-.565-1.097-.565-1.762 0-.8.18-1.223.773-1.816.597-.597 1.015-.774 1.832-.774.75 0 1.293.198 1.863.678.458.385.874 1.042.964 1.524.088.466.037 1.167-.111 1.558-.149.39-.55.894-.892 1.118-.341.223-.971.465-1.4.536zm11.81-1.491l-1.248 1.409-1.26-1.475c-.843-.987-1.122-1.475-.842-1.475.34 0 .417-.342.417-1.852v-1.852h3.44v1.832c0 1.352.097 1.855.37 1.918.246.058-.046.555-.878 1.495zm-7.83-2.6c-.054 0-.997-1.16-2.095-2.58l-1.996-2.579.79-.083.79-.083V-20.745h5.291v6.844l.7.083c.683.082.65.146-1.34 2.664-1.122 1.419-2.085 2.58-2.14 2.58zm-7.495-2.126c-.096-.006-.56-.512-1.028-1.125-.642-.84-.756-1.135-.463-1.2.29-.063.39-.489.39-1.653v-1.569h2.38v1.566c0 .999.118 1.604.324 1.673.209.07.013.5-.551 1.213-.482.608-.955 1.1-1.052 1.095z" id="path1042" fill="#212121" stroke-width=".265"></path></g></g></svg>