<svg xmlns="http://www.w3.org/2000/svg" width="85" height="80" viewBox="0 0 22.654 21.397"><title>ryza2 category medicinal</title><g fill="#212121" class="nc-icon-wrapper"><g transform="translate(40.267 92.846)"><path d="M-30.04-71.45c-.114-.018-.564-.108-1.001-.198-.437-.09-.987-.282-1.223-.428-.236-.145-.74-.882-1.121-1.638-.38-.755-1.038-2.243-1.461-3.307a346.24 346.24 0 0 0-2.404-5.77c-.9-2.11-1.935-4.277-2.302-4.814-.368-.537-.686-1.357-.709-1.822-.04-.827.018-.871 2.605-1.995 1.456-.632 2.83-1.152 3.056-1.154.235-.003.565.419.773.987.2.546.38 1.17.403 1.39.021.218.894 2.162 1.939 4.32 1.044 2.158 1.9 3.982 1.9 4.053 0 .07.594 1.47 1.322 3.11.728 1.64 1.323 3.3 1.323 3.687v.704h2.605c2.31 0 2.662-.063 3.109-.556.45-.496.518-1.125.636-5.806l.132-5.251-5.402-.08c-3.968-.06-5.43-.167-5.51-.405-.06-.178-.128-.398-.154-.488-.025-.09 1.876-.148 4.226-.128l4.272.037 1.332-2.327c.732-1.28 1.524-2.594 1.76-2.921.27-.377.702-.596 1.176-.596.412 0 .864.15 1.004.331.14.182.183.569.095.86-.088.291-.604 1.405-1.148 2.476-.544 1.071-.99 2.008-.99 2.082 0 .074.246.07.546-.01.34-.088.602.005.695.248.082.214-.104.66-.413.989-.526.56-.563.879-.566 4.947-.002 2.392-.076 4.795-.166 5.34-.09.544-.44 1.288-.778 1.653-.588.634-.75.663-3.655.663-2.73 0-3.078.053-3.408.524-.201.288-.8.705-1.329.926-.53.221-1.056.386-1.17.367zm-.312-1.023c.586 0 1.292-.12 1.568-.269.276-.147.637-.716.8-1.264.28-.931.203-1.223-1.204-4.56a185.376 185.376 0 0 0-3.027-6.74c-.839-1.746-1.691-3.313-1.895-3.482-.204-.169-.728-.349-1.164-.4l-.794-.093.86-.466c.473-.257.858-.612.856-.79-.003-.178-.103-.48-.224-.67-.173-.273-.732-.142-2.613.61-2.073.83-2.374 1.03-2.253 1.494.077.295.279.589.448.654.17.065.744-.064 1.278-.287.533-.223 1.043-.405 1.134-.405.09 0-.144.366-.521.814-.377.447-.685 1.04-.685 1.316s.366 1.427.812 2.559a407.298 407.298 0 0 0 2.677 6.472c1.025 2.428 2.093 4.66 2.373 4.961.351.377.838.546 1.574.546zm.813-.55a3.415 3.415 0 0 1-.84-.166c-.219-.08-.665-.389-.993-.686-.57-.52-.595-.72-.595-4.846 0-2.367.106-4.37.237-4.45.13-.08.309.041.397.27.088.23.183 1.926.21 3.77.029 1.843.094 2.607.146 1.697.051-.91.207-1.653.345-1.653.139 0 .253.327.254.727 0 .4.125 1.174.277 1.72.194.7.423.992.777.992.275 0 .574.12.664.265.097.156-.2.264-.725.264-.489 0-1.03-.14-1.202-.313-.172-.172-.384-.242-.471-.155-.087.087-.025.407.137.71.232.433.55.552 1.477.552.65 0 1.181.11 1.181.246 0 .135-.187.433-.416.661-.228.229-.615.407-.86.395zm-4.898-8.18c-.194 0-.432-.08-.529-.177-.097-.097-.176-.395-.176-.662s.115-.485.255-.485.379.23.53.512c.15.281.273.579.273.661 0 .083-.159.15-.353.15zm-.989-1.853c-.138 0-.547-.668-.908-1.484s-.59-1.59-.51-1.72c.08-.13.26-.236.401-.236.14 0 .38.328.53.728.15.4.444 1.07.65 1.487.208.418.312.865.233.993a.526.526 0 0 1-.396.232zm14.147-4.127c.204-.078.918-1.07 1.588-2.204.67-1.135 1.218-2.198 1.218-2.364 0-.165-.15-.296-.331-.29-.182.005-.896 1.02-1.588 2.256-.69 1.235-1.256 2.358-1.256 2.495s.166.185.37.107zm-2.603 12.064c-.791 0-1.509-.112-1.593-.25-.085-.136.258-.444.762-.684.504-.239 1.114-.735 1.355-1.103.241-.368.606-1.578.812-2.69.205-1.11.44-2.482.521-3.047.084-.576.248-.924.375-.793.125.128.246.828.27 1.556.024.727.033 2.364.02 3.638-.02 1.942-.109 2.4-.553 2.844-.4.4-.882.529-1.969.529zm1.44-9.26c-.765 0-1.058-.11-1.058-.397 0-.265-.265-.397-.794-.397-.437 0-.794-.12-.794-.265 0-.15.794-.264 1.852-.264 1.8 0 1.852.019 1.852.661 0 .595-.106.662-1.058.662z" id="path1196-1-8-8" fill="#212121" stroke-width=".265"></path></g></g></svg>