<svg xmlns="http://www.w3.org/2000/svg" width="70" height="71" viewBox="0 0 18.521 19.048"><title>ryza2 category mushrooms</title><g fill="#212121" class="nc-icon-wrapper"><g transform="translate(94.327 152.474)"><path d="M-91.917-133.427c-.55 0-1.079-.08-1.176-.176-.097-.097-.176-.366-.176-.598 0-.232-.238-.57-.53-.752-.29-.182-.528-.617-.528-.966 0-.385.32-.906.814-1.32.447-.378.987-.686 1.199-.686.212 0 .798.173 1.302.384.7.292.918.54.918 1.042 0 .363-.12.733-.265.824-.172.106-.176.33-.013.636.178.332.134.641-.146 1.042-.29.413-.676.57-1.399.57zm.146-.575c.453-.052.751-.244.751-.483 0-.247-.25-.397-.658-.397-.426 0-.69.17-.75.483-.076.39.05.466.657.397zm8.404-.344c-1.299.058-2.82-.01-3.381-.15-.56-.142-1.355-.496-1.766-.788-.41-.292-.818-.863-.907-1.267-.094-.426.01-1.146.244-1.708.223-.535.406-1.333.406-1.774 0-.655-.11-.802-.595-.803-.328 0-.99-.242-1.471-.535-.482-.294-1.048-.944-1.257-1.446-.21-.501-.381-1.277-.381-1.724 0-.448.247-1.298.55-1.89.302-.593 1.344-1.873 2.315-2.844.972-.972 2.415-2.09 3.207-2.484.792-.395 1.863-.717 2.38-.715.56.002 1.507.327 2.337.803.768.44 2.164 1.553 3.102 2.473 1.017.997 1.922 2.176 2.241 2.923.295.687.537 1.603.537 2.035 0 .432-.176 1.124-.39 1.539-.218.421-.896.998-1.539 1.31-.632.305-1.409.556-1.727.556-.346 0-.578.165-.578.411 0 .226.254.97.565 1.652.516 1.133.534 1.33.199 2.276-.202.57-.674 1.264-1.049 1.541-.516.382-1.253.53-3.042.61zm-.256-.835c1.012-.078 2.164-.308 2.56-.513.397-.205.803-.63.902-.943.101-.319-.022-1.226-.278-2.054-.253-.815-.546-1.661-.65-1.88-.105-.218-.536-.567-.96-.775-.464-.228-1.45-.36-2.489-.335-.946.024-2.036.174-2.423.334-.59.244-.723.492-.82 1.526-.064.68-.278 1.618-.476 2.086-.331.785-.312.9.253 1.501.336.358 1.045.773 1.576.922.53.149 1.792.208 2.805.13zm-5.799-6.448c.189 0 .544-.077.789-.171.354-.136.271-.245-.403-.528-.466-.196-.96-.287-1.098-.202-.15.092-.126.304.06.528.17.205.464.373.652.373zm9.448-.004a5.682 5.682 0 0 0 1.191-.163c.327-.088.595-.3.595-.473 0-.172-.13-.443-.289-.602-.209-.209-.535-.132-1.18.278-.489.312-.895.656-.9.765-.007.11.256.197.583.195zm-7.392-.79c.512 0 .514-.017.05-.53-.263-.29-.717-.529-1.008-.529-.512 0-.514.017-.05.53.263.29.717.529 1.008.529zm6.12 0c.21 0 .566-.262.79-.582.31-.444.331-.63.087-.78-.176-.11-.53-.008-.79.226-.257.233-.468.584-.468.78 0 .196.172.356.382.356zm-4.291-.265c.113 0 .206-.14.206-.31 0-.17-.198-.527-.438-.793-.241-.267-.598-.484-.794-.484-.196 0-.356.172-.356.382 0 .21.265.567.588.793.323.227.68.412.794.412zm2.823 0c.13 0 .309-.188.397-.418.088-.23.16-.588.16-.794 0-.206-.178-.375-.396-.375-.265 0-.397.264-.397.794 0 .436.106.793.236.793zm-1.384-.264c.199 0 .354-.283.354-.646 0-.355-.125-.723-.277-.817-.153-.095-.45-.106-.66-.025-.31.119-.325.274-.077.817.168.369.465.67.66.67z" id="path1196-1-4-7" fill="#212121" stroke-width=".265"></path></g></g></svg>