<svg xmlns="http://www.w3.org/2000/svg" width="114" height="114" viewBox="0 0 30.28 30.421"><title>ryza2 tool bomb rod</title><g fill="#212121" class="nc-icon-wrapper"><g transform="translate(138.336 -48.212)"><path d="M-110.61 78.633l-2.728-.005-.86-1.036c-.473-.57-.86-1.149-.86-1.287 0-.139.308-.454.684-.7.375-.246 1.138-.858 1.693-1.36l1.01-.913 1.697 2.322c.933 1.277 1.785 2.471 1.894 2.653.153.256-.418.33-2.53.326zm-10.049-2.104l-.088.583-.499-.554c-.458-.51-.462-.569-.055-.725.245-.094.509-.107.587-.029.078.079.103.405.055.725zm-9.235-.009c-.084 0-.432-.296-.773-.659-.341-.363-.57-.701-.51-.75.062-.05.62-.289 1.242-.531.621-.242 1.306-.44 1.521-.44.242 0 .392.255.392.666 0 .466-.257.821-.86 1.19-.473.287-.929.524-1.012.524zm5.311-.792c-.242 0-.52-.08-.617-.177-.097-.097-.176-.44-.176-.761 0-.322.181-.736.403-.92.222-.184.464-.274.537-.2.074.073.239.498.367.943.127.446.163.879.08.962-.084.084-.351.153-.594.153zm8.488-.008c-.23-.004-.626-.13-.88-.278-.256-.148-.464-.489-.464-.757 0-.318.353-.628 1.015-.893.558-.224 1.385-.718 1.838-1.1.453-.38.9-.932.992-1.225.114-.359.356-.506.742-.451.4.057.597.298.655.798.05.436-.154 1.036-.524 1.537-.334.451-1.136 1.17-1.782 1.599-.646.428-1.362.774-1.592.77zm-2.667-1.868c-.427 0-.932-.322-1.426-.907l-.766-.905-.776.653c-.427.36-.993.653-1.258.653-.264 0-.754-.284-1.089-.631-.562-.585-.678-.607-1.554-.298-.52.184-1.553.417-2.294.52-.78.107-1.803.062-2.428-.106-.596-.16-1.324-.6-1.624-.982-.299-.38-.543-1.028-.543-1.44 0-.596.289-.968 1.413-1.817.777-.586 1.501-1.066 1.609-1.066.107 0 .116.36.019.8l-.176.801 1.213-.732c.667-.403 1.213-.89 1.213-1.08 0-.269-.135-.254-.588.063-.323.227-.66.412-.748.412-.088 0-.106-.37-.039-.821.116-.792.098-.81-.507-.486-.345.185-2.116 1.347-3.936 2.584-1.82 1.236-3.519 2.426-3.774 2.644-.256.219-.512.349-.57.289-.058-.06.95-1.359 2.24-2.887 1.29-1.528 2.35-2.898 2.355-3.044.01-.147-.339-.421-.766-.61-.491-.218-.99-.781-1.352-1.53-.511-1.057-.54-1.32-.267-2.406.169-.671.211-1.301.095-1.401-.117-.1-.895-.47-1.73-.821-.833-.351-1.518-.728-1.52-.837 0-.11.985-.199 2.194-.199h2.2l-.017-1.24c-.015-1.11.074-1.303.833-1.82l.85-.578-2.126-2.968c-1.17-1.633-2.081-3.013-2.026-3.069.055-.055.51.23 1.012.631.5.402 1.74 1.38 2.753 2.176l1.843 1.444-.87-1.521c-.478-.837-.756-1.522-.618-1.522.139 0 .405.185.591.41.187.225.667.642 1.067.927l.727.517.553-1.142c.361-.746.911-1.344 1.582-1.721.666-.375 1.48-.578 2.315-.577.812 0 1.601.193 2.14.52.468.287.99.743 1.16 1.014.206.33.517.454.935.375.345-.066.8.023 1.01.198.304.252.51.231.984-.1.33-.232 1.03-.42 1.558-.42.593 0 1.126.184 1.396.483.241.266.438.708.438.983 0 .274-.506 1.026-1.124 1.67-.619.646-.946 1.074-.728.953.218-.12 1.82-1.299 3.56-2.618s3.336-2.504 3.549-2.633c.212-.13-.02.323-.517 1.006s-1.434 1.975-2.084 2.872l-1.18 1.629 1.048-.629c.577-.346 1.256-.806 1.511-1.023.255-.217.463-.307.463-.2 0 .106-.574 1.048-1.276 2.092l-1.276 1.9.79.528c.436.29 1.023.84 1.306 1.225.283.383.575 1.239.65 1.901.075.663.055 1.635-.044 2.162-.114.606-.563 1.34-1.223 2-.574.575-1.044 1.198-1.044 1.386 0 .187.841.795 1.869 1.35s1.83 1.048 1.783 1.095c-.047.048-.977-.083-2.066-.29-1.456-.278-2.1-.536-2.438-.974-.338-.44-.46-.488-.465-.185 0 .226-.361.972-.796 1.657-.44.695-1.339 1.594-2.032 2.033-.699.444-1.8.862-2.52.957-1.044.139-1.224.237-.979.532.165.2.733.36 1.26.357.528-.003 1.437-.226 2.019-.494.582-.268 1.504-.926 2.05-1.461.545-.536 1.19-1.356 1.434-1.822l.442-.848.504 1.148.504 1.147-.67 1.014c-.37.558-1.093 1.335-1.608 1.728-.514.393-1.382.873-1.928 1.068-.546.195-1.29.354-1.654.354zm-2.32-3.416c.558 0 1.457-.184 1.998-.41.541-.225 1.417-.832 1.947-1.349.53-.516 1.177-1.412 1.438-1.99.462-1.024.46-1.12-.103-3.615-.318-1.41-.579-2.748-.579-2.973 0-.24-.852-.863-2.065-1.51-1.72-.916-2.462-1.146-4.432-1.371-1.301-.15-2.856-.272-3.455-.274l-1.09-.002-.322 3.287-.323 3.286.85 2.24.852 2.24 1.884.99c1.036.544 1.997 1.093 2.135 1.22.138.127.708.231 1.265.231zm1.473-1.323c-.046 0-.897-.545-1.89-1.212-.994-.666-1.833-1.172-1.864-1.124-.031.048-.17.352-.308.675l-.25.588-.86-.548c-.473-.301-.86-.76-.86-1.02 0-.266.26-.542.595-.632.328-.087.82-.16 1.095-.163.275-.002 1.32.667 2.321 1.487 1.002.82 1.886 1.593 1.964 1.72.078.126.104.23.057.23zm.84-.008c-.077.005-1.006-.795-2.066-1.777l-1.928-1.786.303-1.39.302-1.389h2.483l1.254 2.524 1.253 2.523-.73.644c-.403.353-.794.646-.87.651zm1.857-1.844c-.113 0-.396-.478-.63-1.063-.235-.585-.426-1.234-.426-1.443 0-.208.135-1.009.301-1.78l.301-1.402.327 1.106c.18.609.266 1.43.19 1.826-.095.498-.044.66.166.531.194-.12.301.032.299.424a5.6 5.6 0 0 1-.163 1.206c-.088.327-.252.595-.365.595zm-8.544-1.997c-.367.489-.423.445-1.084-.86l-.697-1.376.854-.763c.827-.739.88-.75 1.708-.356l.853.408-.624 1.215c-.343.669-.798 1.448-1.01 1.732zm7.245-2.633l-.466 1.323-.43-.83c-.314-.604-.387-1.197-.27-2.182.087-.745.197-1.354.243-1.354.046 0 .386.139.757.308.423.193.666.512.653.86-.011.303-.23 1.148-.487 1.875zm-6.138-1.508l-1.207.078-.472-1.744c-.26-.959-.415-1.8-.347-1.869.07-.069.924.043 1.9.247.976.205 1.837.435 1.913.511.077.077-.023.715-.22 1.418-.358 1.27-.37 1.28-1.567 1.359zm-4.423-2.064c.121 0 .22-.178.22-.397a.398.398 0 0 0-.396-.396c-.219 0-.397.099-.397.22s.079.3.176.397a.656.656 0 0 0 .397.176zm4.678-5.291c.123 0 .43-.229.683-.508.438-.485.435-.522-.074-.794-.294-.157-.601-.286-.683-.286-.082 0-.15.357-.15.794 0 .436.1.794.223.794zm12.93 12.404a6.556 6.556 0 0 1-.805-.155c-.458-.119-.46-.15-.025-.631.252-.278.737-.506 1.079-.506.34 0 .62.068.62.15 0 .082-.123.38-.274.661-.15.282-.418.498-.595.481z" id="path1183-3-9-0" fill="#212121" stroke-width=".265"></path></g></g></svg>