<svg xmlns="http://www.w3.org/2000/svg" width="93" height="80" viewBox="0 0 24.776 21.296"><title>ryza2 tool sickle</title><g fill="#212121" class="nc-icon-wrapper"><g transform="translate(49.182 -148.272)"><path d="M-26.378 169.569c-.19 0-.462-.149-.607-.33-.145-.183-1.988-3.427-4.095-7.21-2.107-3.784-4.027-7.26-4.266-7.725l-.435-.846 1.121-.668c.873-.52 1.187-.597 1.416-.346.162.178 1.189 1.872 2.283 3.763a1342.84 1342.84 0 0 0 4.272 7.32c1.256 2.133 2.284 4.058 2.284 4.275 0 .218-.367.705-.814 1.082-.448.377-.97.685-1.159.685zm-22.72-10.584c-.104 0-.112-.327-.019-.727.093-.4.78-1.358 1.527-2.128.746-.77 2.19-1.973 3.208-2.672 1.02-.7 2.437-1.492 3.152-1.761.714-.269 1.177-.53 1.028-.579-.149-.05-.918.152-1.709.448-.79.296-2.016.905-2.722 1.353-.707.448-1.995 1.49-2.864 2.316l-1.58 1.501.185-.926c.101-.509.477-1.54.834-2.291.357-.751 1.137-1.806 1.732-2.343.595-.538 1.99-1.411 3.1-1.94 1.829-.87 2.232-.961 4.268-.964 1.785-.002 2.43.107 3.124.527.481.291 1.169 1.028 1.528 1.639l.652 1.11-1.222.716c-1.005.589-1.264.65-1.457.345a3.957 3.957 0 0 1-.326-.63c-.057-.164-.625-.128-1.525.097-.79.196-2.287.756-3.328 1.244-1.042.487-2.709 1.5-3.705 2.248-.995.749-2.234 1.824-2.752 2.39-.518.565-1.027 1.027-1.13 1.027zm9.744-7.937a.133.133 0 1 0 0-.265.133.133 0 0 0 0 .265z" id="path1183-3-9-6" fill="#212121" stroke-width=".265"></path></g></g></svg>