<svg xmlns="http://www.w3.org/2000/svg" width="80" height="87" viewBox="0 0 21.359 23.091"><title>ryza2 race demon beast</title><g fill="#212121" class="nc-icon-wrapper"><g transform="translate(-329.972 -244.527)"><path d="M339.301 267.606c-.14.086-.55-.311-.912-.884s-.799-1.089-.971-1.146c-.218-.073-.181-.237.119-.537.237-.238.432-.556.432-.707 0-.152-.165-.212-.367-.135-.202.078-.437.49-.523.918-.12.6-.3.777-.788.777-.347 0-.954-.254-1.348-.563-.51-.4-.634-.646-.433-.847.156-.156.282-.409.28-.561 0-.153-.124-.1-.27.119-.23.343-.318.328-.657-.117-.216-.282-.392-.793-.392-1.134 0-.555.06-.588.577-.31.492.262.65.22 1.059-.285.345-.427.483-1.052.488-2.218.01-1.432.103-1.73.809-2.505.65-.715.872-.82 1.182-.563.21.175.383.481.383.682 0 .2.1.364.221.364.122 0 .421-.625.665-1.389.244-.764.546-1.806.672-2.315l.229-.926.966 2.05c.933 1.979 1 2.051 1.885 2.051.505 0 .918.052.918.115 0 .064-.114.415-.253.78-.217.572-.14.76.55 1.34.441.372.912.676 1.046.676.135 0 .245.112.245.25s-.626.29-1.39.338c-1.169.073-1.296.127-.802.347.322.143.886.667 1.253 1.165.367.497.616.956.552 1.02-.064.064-.465-.006-.89-.155-.609-.211-.863-.183-1.178.132-.22.22-.952.463-1.625.539-.673.076-1.291.246-1.373.379-.082.133-.001.42.18.638.242.291.25.474.034.691-.217.217-.403.206-.703-.043-.337-.28-.408-.27-.408.058 0 .218.178.545.396.726.219.181.397.486.397.678 0 .192-.114.42-.255.507zm-3.008-2.596a.25.25 0 0 0 0-.353c-.097-.097-.176-.018-.176.176 0 .194.079.274.176.177zm2.142-.97c.11 0 .522-.298.914-.662.392-.364.838-.661.99-.661.151 0 .276-.179.276-.397 0-.218-.06-.397-.133-.397-.073 0-.608.476-1.19 1.058-.582.582-.968 1.059-.857 1.059zm-1.387-1.323c.076 0 .629-.31 1.228-.689.772-.487.992-.75.75-.9-.188-.115-.265-.407-.172-.65.093-.242.29-.366.436-.276.146.09.266.339.266.551 0 .272.196.346.662.249l1.323-.275c.364-.075.661-.267.661-.426 0-.187-.349-.23-.992-.121-.877.148-.938.125-.53-.198.255-.202.464-.502.464-.668 0-.166-.076-.301-.17-.301-.092 0-.321.208-.507.462-.186.255-.427.374-.535.266-.108-.108.001-.414.243-.681.242-.267.44-.685.44-.928s-.098-.442-.217-.442c-.12 0-.387.38-.595.844-.209.464-.528.89-.71.948-.182.057-.33-.094-.33-.337 0-.243-.147-.392-.327-.332-.18.06-.43.635-.556 1.279-.126.643-.396 1.265-.6 1.381-.203.117-.37.444-.37.728s.063.516.138.516zm4.228-.794c.218 0 .397-.115.397-.256 0-.141-.179-.188-.397-.104-.218.084-.397.199-.397.256 0 .057.179.104.397.104zm6.245 4.781l-.46.758-1.248-1.266c-1.174-1.192-1.219-1.289-.775-1.67.26-.223.615-.487.79-.586.174-.1 1.096.071 2.048.379s1.792.659 1.867.78c.075.122-.29.362-.812.534-.543.18-1.146.638-1.41 1.071zm1.766-2.417c-.186-.01-.824-.17-1.419-.356-.594-.186-1.457-.561-1.918-.834-.461-.272-.913-.732-1.005-1.021-.117-.368.01-.64.404-.906.543-.36.549-.405.12-.88-.406-.448-.411-.542-.05-.903.22-.221 1.046-.565 1.834-.763.787-.199 1.967-.44 2.622-.538 1.176-.174 1.183-.17.567.278-.343.25-.847.944-1.119 1.544-.272.599-.497 1.482-.5 1.962 0 .48.176 1.224.398 1.654.307.595.323.776.066.763zm-14.359-3.166c-.147-.004-.475-.13-.73-.277-.254-.149-.47-.592-.481-.985-.016-.613-.047-.64-.222-.195-.188.481-.24.461-.703-.264-.275-.431-.574-.844-.664-.916-.091-.073-.308-.403-.482-.734-.174-.33-.233-.735-.13-.9.109-.177.067-.228-.103-.123-.158.098-.372.04-.476-.13-.105-.168-.18-.649-.169-1.067.012-.418-.09-.691-.225-.607-.136.084-.256-.123-.266-.459-.011-.336-.11-1.247-.22-2.024-.177-1.24-.112-1.596.528-2.91l.729-1.498.02 1.57c.01.864.22 2.293.463 3.176.38 1.37.69 1.844 2.132 3.248 1.516 1.476 1.657 1.701 1.384 2.211-.167.312-.262 1.09-.211 1.73.053.668-.021 1.159-.174 1.154zm11.794-3.004c-1.636.136-2.083.091-2.355-.237-.206-.248-.268-.695-.161-1.157.112-.486 1.302-1.856 3.357-3.867 1.75-1.713 3.237-3.06 3.303-2.995.066.066-.017.536-.184 1.043-.213.643-.538 1.004-1.074 1.19-.514.18-.905.593-1.177 1.245-.224.537-.408 1.371-.408 1.854 0 .483.134.96.297 1.062.163.1.908.321 1.654.49l1.356.308-1.295.448c-.712.246-2.203.523-3.313.616zm-8.466-1.221c-.085 0-.512-.56-.949-1.242-.436-.683-.879-1.457-.983-1.72-.12-.302-.071-.48.132-.486.177-.004.114-.129-.14-.277-.255-.149-.464-.568-.464-.931 0-.364-.181-1.013-.403-1.443-.222-.429-.327-.78-.233-.78s.024-.178-.156-.396c-.181-.217-.266-.634-.19-.926.076-.291.028-.53-.107-.53-.136 0-.347-.268-.47-.596a28.204 28.204 0 0 1-.42-1.23c-.167-.534-.125-.607.262-.459.436.168.437.14.01-.512-.248-.379-.387-.753-.308-.832.079-.078.713.34 1.41.928a39.65 39.65 0 0 1 2.493 2.349c.675.703 1.717 2.065 2.316 3.026.849 1.364 1.087 2.005 1.084 2.91v1.163l-.59-1.038c-.326-.57-.74-1.087-.923-1.147-.194-.063-.33.121-.33.447 0 .305-.198 1.268-.44 2.139-.243.87-.51 1.583-.596 1.583zm4.42-.265c-.254 0-.653-.292-.888-.65-.3-.458-.37-.909-.239-1.522a7.874 7.874 0 0 1 .56-1.598c.204-.4.487-.727.63-.727.14 0 .257.178.257.396 0 .219.083.397.184.397.101 0 .518-.32.926-.71.592-.568.742-.621.742-.265 0 .245.116.446.259.446.142 0 .453-.298.691-.661.239-.364.599-.662.8-.662.202 0 .367.134.367.297 0 .21.114.203.385-.023.212-.175.522-.235.69-.131.192.119-.65 1.146-2.299 2.8-1.432 1.438-2.81 2.613-3.065 2.613z" id="path1215-9-10" fill="#212121" stroke-width=".265"></path></g></g></svg>