<svg xmlns="http://www.w3.org/2000/svg" width="67" height="69" viewBox="0 0 17.99 18.278"><title>ryza2 material</title><g fill="#212121" class="nc-icon-wrapper"><g id="layer1" transform="translate(153.276 19.303)"><path d="M-146.28-1.368c-2.853-1.307-3.952-4.266-2.664-7.177.378-.854.884-1.419 1.787-1.99 1.59-1.01 1.823-1.002 1.82.06-.002.783.077.868.882.945.925.088 1.893-.517 1.893-1.184 0-.493.227-.45 1.245.24 1.047.707 2.195 2.853 2.195 4.103 0 1.88-1.284 3.883-3.175 4.956-.323.184-.318.13.029-.283.547-.654 1.03-2.095 1.03-3.075 0-.791-.73-2.482-.968-2.243-.074.073.01.401.184.728.373.697.186 2.823-.326 3.718-.846 1.476-2.337 1.932-3.932 1.202zm1.442-9.017c-.079-.205.044-.734.272-1.176.312-.603.35-.975.151-1.496-.145-.381-.263-1.056-.263-1.498 0-.662-.082-.772-.463-.616-2.463 1.007-5.421.621-7.751-1.01-.537-.376-.536-.383.166-1.217 2.079-2.47 6.367-2.555 7.938-.157l.448.683.46-.758c.617-1.014 2.026-1.642 3.682-1.642 1.713 0 2.811.47 3.986 1.703l.926.972-.661.501c-1.217.922-4.082 1.675-5.604 1.473-.752-.1-1.584-.298-1.85-.44-.39-.209-.484-.161-.484.247 0 .278.179.934.397 1.456.478 1.143.516 2.594.08 3.03-.433.433-1.255.401-1.43-.055zm1.655-6.3c.782-.461 1.408-.588 2.905-.588 2.053 0 2.35-.238.638-.512-1.269-.202-3.391.229-4.047.822-.437.396-.548.387-1.46-.115-1.191-.657-3.078-.953-4.162-.653-.687.19-.55.242 1.03.391 1.003.094 2.253.405 2.778.69 1.214.658 1.142.659 2.318-.035z" id="path925-6" fill="#212121" stroke-width=".265"></path></g></g></svg>