<svg xmlns="http://www.w3.org/2000/svg" width="103" height="105" viewBox="0 0 27.507 27.875"><title>ryza2 physical</title><g fill="#212121" class="nc-icon-wrapper"><g id="layer1" transform="translate(-67.137 -29.055)"><path d="M80.754 56.928c-2.098-.016-3.253-.152-4.137-.489-.674-.257-1.873-.837-2.664-1.29-.79-.452-2.113-1.531-2.94-2.397-.901-.946-1.827-2.277-2.315-3.334-.448-.967-.984-2.41-1.192-3.208-.208-.798-.374-2.129-.369-2.959.005-.83.167-2.24.36-3.136.191-.896.753-2.443 1.247-3.44.577-1.163 1.512-2.425 2.618-3.53 1.095-1.095 2.345-2.025 3.44-2.558.945-.46 2.136-.911 2.645-1.002.567-.149.927-.288 1.994-.439.863-.114 1.655-.171 3.44.138 1.56.271 3.048.745 4.35 1.387 1.247.614 2.497 1.5 3.375 2.392.767.78 1.687 1.86 2.046 2.403.358.542.953 1.818 1.322 2.836.572 1.579.67 2.3.67 4.899 0 2.372-.115 3.363-.52 4.472-.286.784-.911 2.074-1.389 2.868s-1.532 2.056-2.343 2.805c-.811.749-2.113 1.701-2.893 2.116-.78.416-1.962.92-2.626 1.122-.742.225-2.332.358-4.119.344zm-.217-4.738c2.893.003 3.561-.07 3.924-.433.355-.355.403-.732.255-2.002l-.181-1.564 1.863-1.922c1.025-1.057 1.944-2.242 2.042-2.632.118-.47-.02-1.196-.405-2.147-.32-.79-.894-1.917-1.274-2.503-.38-.586-.865-1.132-1.078-1.214-.213-.082-.51-.025-.66.125-.15.15-.457.273-.681.273-.225 0-1.279.43-2.343.956-1.546.764-1.919 1.063-1.855 1.487.05.33.46.68 1.093.931.853.34 1.172.35 2.041.062.83-.274 1.11-.275 1.433-.006.222.184.338.44.258.569-.08.129-1.009.234-2.064.234-1.755 0-1.977.063-2.592.728-.37.4-.75.949-.846 1.22-.168.475-.197.475-.898.013a37.58 37.58 0 0 0-1.842-1.105c-.64-.36-1.43-.592-1.852-.543-.519.06-.76.253-.817.657-.045.314.273 1.274.706 2.132.433.858.974 1.715 1.201 1.903.27.225.78.288 1.477.183l2.055-.31c.678-.103 1.16-.021 1.522.256.503.386.477.407-.53.425-.581.011-1.713.172-2.513.359l-1.455.338-.08 1.544c-.056 1.056.028 1.613.264 1.763.19.12 1.914.22 3.832.223zM74.91 41.61c.341 0 .769-.179.95-.398.225-.27.276-.819.16-1.698-.095-.715-.303-1.673-.462-2.13-.25-.715-.4-.818-1.092-.749-.441.045-.925.278-1.076.518-.192.308-.168.896.083 1.984.197.851.46 1.756.587 2.01.127.255.51.464.85.464zm3.21-.793c.333 0 .795-.072 1.025-.16.309-.12.416-.518.407-1.522-.006-.748-.113-1.89-.238-2.536-.125-.646-.44-1.331-.702-1.522-.262-.192-.72-.276-1.019-.188-.299.088-.7.357-.891.597-.215.269-.3.842-.223 1.494.068.583.207 1.535.309 2.117.102.582.306 1.207.454 1.39.148.181.543.33.877.33zm3.254-1.984c.518-.097 1.085-.373 1.26-.612.175-.24.287-.795.25-1.235a45.266 45.266 0 0 1-.108-1.785c-.028-.736-.206-1.097-.699-1.42-.613-.401-.71-.401-1.323 0-.58.38-.661.622-.661 1.982 0 .851.076 1.93.17 2.397.162.81.213.842 1.111.673zm2.822-1.456c.181 0 .761-.18 1.288-.4.89-.372.958-.48.95-1.521-.005-.617-.166-1.33-.36-1.584-.204-.27-.701-.463-1.188-.463-.66 0-.893.147-1.1.692-.145.38-.187 1.273-.092 1.984.101.765.306 1.292.502 1.292z" id="path930" fill="#212121" stroke-width=".265"></path></g></g></svg>