<svg xmlns="http://www.w3.org/2000/svg" width="101" height="102" viewBox="0 0 26.856 27.171"><title>ryza2 wind</title><g fill="#212121" class="nc-icon-wrapper"><g id="layer1" transform="translate(-31.221 .567)"><path d="M44.329 26.603c-1.17-.013-2.674-.174-3.342-.358-.667-.184-1.956-.73-2.862-1.214-1.041-.555-2.266-1.545-3.322-2.686-.92-.993-1.942-2.371-2.27-3.062-.328-.69-.758-1.78-.955-2.422-.196-.641-.357-2.316-.357-3.722 0-1.58.163-3.105.426-3.993.235-.79.7-1.978 1.036-2.64.335-.66 1.156-1.811 1.826-2.556.67-.744 1.84-1.764 2.603-2.265.762-.502 2.08-1.17 2.931-1.484.85-.315 2.398-.643 3.44-.729 1.041-.086 2.608-.024 3.48.136.874.161 2.439.71 3.479 1.221 1.04.51 2.485 1.464 3.213 2.118.727.654 1.702 1.78 2.167 2.504.464.724 1.068 1.907 1.343 2.629.274.722.622 2.083.772 3.025.192 1.2.187 2.332-.015 3.788a15.052 15.052 0 0 1-1.183 4.014c-.652 1.41-1.383 2.425-2.69 3.733-.989.988-2.42 2.111-3.18 2.497a17.5 17.5 0 0 1-2.898 1.095c-.833.217-2.473.384-3.643.371zm4.884-5.285c.655.003 1.667-.214 2.249-.483.582-.268 1.31-.772 1.617-1.118.307-.347.694-1.035.86-1.53.165-.495.3-1.31.3-1.812 0-.686-.223-1.138-.899-1.813-.691-.691-1.12-.9-1.856-.9-.795 0-1.045.145-1.48.86-.289.473-.525 1.03-.526 1.236 0 .207.196.594.437.86s.693.484 1.006.484c.312 0 .71-.143.885-.318a1.26 1.26 0 0 0 .317-.774c0-.251-.208-.511-.463-.578-.354-.092-.325-.128.123-.151a.98.98 0 0 1 .86.48c.15.282.274.764.274 1.072 0 .308-.18.908-.4 1.333-.22.425-.66.912-.978 1.082-.318.17-1.18.315-1.916.322-.774.007-1.698-.178-2.198-.441-.473-.25-1.158-.925-1.521-1.5-.422-.67-.66-1.43-.66-2.115 0-.914.105-1.114.728-1.381.4-.172 1.065-.542 1.478-.823.672-.457.86-.474 1.786-.169.792.261 1.191.27 1.699.04.365-.167.867-.73 1.115-1.252.407-.853.413-1.02.056-1.658-.252-.452-.663-.74-1.132-.795-.404-.047-.906.057-1.116.23-.21.175-.38.481-.38.682 0 .25.27.345.849.299.65-.052.874.05.952.43.056.274-.058.6-.254.724s-.618.228-.937.23c-.32.002-.766-.26-.993-.584-.226-.324-.411-.93-.411-1.35 0-.513-.294-1.054-.9-1.66-.495-.495-1.134-.9-1.42-.9-.285 0-.833.247-1.217.548-.383.302-.697.814-.697 1.138 0 .324.143.732.318.907.174.174.544.317.822.317.403 0 .472-.13.343-.645-.089-.355-.035-.724.12-.82.156-.095.513.035.795.29.282.255.513.793.513 1.196 0 .403-.309 1.099-.685 1.547-.481.571-.919.814-1.469.814-.43 0-1.133-.181-1.561-.403-.428-.221-.998-.846-1.266-1.389-.269-.542-.707-1.7-.974-2.573s-.807-1.909-1.2-2.302c-.393-.393-1.005-.787-1.359-.876-.369-.093-1.165.043-1.863.317-.67.263-1.24.598-1.268.743-.026.146.296.384.716.53 1.12.481 2.063.478.46 1.242-.533.255 1.553.365 2.026.874.947 1.019 2.175 2.48 2.727 3.246.553.766 1.231 1.515 1.508 1.663.364.194.504.558.504 1.308 0 .572.239 1.679.531 2.46.293.783.799 1.666 1.125 1.965.326.298 1.069.789 1.65 1.09.602.311 1.573.55 2.25.554zm-6.199-1.306c.208 0 .378-.065.378-.145 0-.08-.167-.469-.371-.863-.205-.395-.457-1.312-.562-2.038-.105-.726-.348-1.706-.541-2.18-.198-.483-.543-.86-.79-.86-.323 0-.4.158-.291.596.082.328.221 1.131.31 1.786s.211 1.44.271 1.743c.06.304.36.87.664 1.257.305.387.725.704.932.704z" id="path34336" fill="#212121" stroke-width=".265"></path></g></g></svg>