<svg xmlns="http://www.w3.org/2000/svg" width="97" height="99" viewBox="0 0 25.885 26.456"><title>ryza2 medium enemy</title><g fill="#212121" class="nc-icon-wrapper"><g transform="translate(-389.505 -214.635)"><path d="M403.423 241.025c-.62.09-1.734.087-2.476-.008-.742-.094-1.813-.319-2.38-.499-.569-.18-1.554-.626-2.19-.99-.786-.45-1.051-.728-.827-.867.183-.113.25-.338.15-.5-.108-.173-.468-.224-.872-.122-.55.138-.657.091-.533-.234.114-.296.024-.372-.328-.28-.325.085-.54-.055-.659-.427-.097-.304-.317-.555-.489-.557-.185-.002-.15-.109.084-.26.265-.172.287-.258.066-.261-.182-.002-.33-.183-.33-.401 0-.218-.12-.397-.265-.397-.145 0-.265-.175-.265-.389 0-.237-.155-.329-.398-.235-.287.11-.578-.245-1.04-1.265-.353-.78-.792-2.155-.974-3.056-.238-1.172-.254-1.812-.054-2.249.175-.386.186-.757.03-1.008-.157-.254-.119-.967.109-1.982.258-1.153.486-1.61.838-1.678.39-.075.447.02.299.487-.159.499-.107.555.371.403.305-.097.555-.064.555.074s-.268.438-.595.668c-.494.346-.53.46-.215.673.314.212.32.328.034.673-.19.23-.249.417-.129.417s.075.143-.1.318c-.175.175-.317.532-.317.794s.151.476.336.476c.205 0 .466.68.666 1.738.182.956.628 2.325.991 3.043.364.717.776 1.304.915 1.304.14 0 .43-.268.644-.595.214-.327.574-1.305.8-2.172.254-.975.41-2.72.41-4.574v-2.996l-1.21-.519c-.871-.374-1.186-.649-1.125-.983.047-.255.622-.728 1.277-1.052.655-.323 1.607-.704 2.116-.845a60.73 60.73 0 0 1 1.636-.428c.63-.152.771-.052 1.255.896.3.586.824 1.479 1.165 1.982.342.503 1.19 1.582 1.887 2.397.696.814 1.353 1.481 1.46 1.481.106 0 .77-.863 1.475-1.918.784-1.174 1.338-2.33 1.428-2.977l.145-1.058 2.326-.132 2.325-.133-1.209-1.224c-.665-.674-1.999-1.614-2.964-2.089-.966-.475-2.004-.891-2.307-.925-.304-.033-.641-.075-.75-.094-.11-.018-.199-.235-.199-.48 0-.4-.038-.396-.357.04-.312.427-.612.47-2.381.336-1.574-.12-2.024-.076-2.024.195 0 .19-.325.429-.723.529-.397.1-1.457.705-2.354 1.346-.898.64-2.06 1.748-2.585 2.462-.523.713-1.114 1.681-1.31 2.15l-.36.854-.61-.856-.609-.856.505-.945c.278-.52 1.14-1.632 1.914-2.47.775-.84 1.832-1.788 2.35-2.107.785-.486 1.025-.528 1.46-.256.287.18.546.288.576.241l.496-.791c.34-.546.79-.78 1.967-1.024.884-.184 2.36-.253 3.513-.165 1.156.088 2.673.423 3.625.8.9.355 2.06.97 2.577 1.364.517.394.87.83.784.97-.086.139.024.215.244.169.221-.046.89.452 1.485 1.106.596.655 1.44 1.895 1.875 2.755.434.86.79 1.77.79 2.02 0 .274-.186.444-.463.422-.346-.028-.474.18-.506.823-.035.69.058.86.472.86.429 0 .47-.087.241-.513-.194-.363-.188-.567.02-.696.162-.1.4-.018.526.183.127.2.233.87.235 1.489 0 .657-.12 1.124-.293 1.124-.193 0-.17.154.066.44.287.348.293.464.028.553-.184.062-.493.27-.685.462-.214.215-.299.693-.218 1.234.072.485.182.734.244.552.062-.182.215-.33.34-.33.125 0 .169.267.097.595-.072.327-.191.893-.265 1.257-.074.363-.536 1.375-1.026 2.249-.49.873-1.466 2.132-2.167 2.797-.702.666-1.622 1.425-2.044 1.687-.724.449-.758.45-.59.012.152-.397.062-.44-.621-.304-.595.12-.799.062-.799-.223 0-.211.351-.566.78-.788.43-.222.906-.403 1.06-.403.152 0 .277.132.277.293 0 .16-.189.22-.42.132-.268-.103-.375-.042-.297.17.067.182.285.286.485.23.2-.054.518-.104.706-.11.238-.006.292-.24.175-.77-.098-.448-.035-.92.154-1.147.277-.334-.024-.386-2.226-.386-1.993 0-2.546-.08-2.546-.366 0-.202.298-.562.662-.8.66-.433.661-.441.661-4.696v-4.262l-2.548 3.22c-1.401 1.772-2.681 3.177-2.844 3.123-.163-.054-.927-.982-1.698-2.061-.77-1.08-1.783-2.372-2.249-2.872l-.847-.91-.086 1.704c-.048.936.062 2.357.243 3.158.18.8.538 1.88.794 2.399.256.519.653 1.099.882 1.289.229.19.416.51.416.71 0 .28-.51.364-2.22.364-1.662 0-2.257.094-2.364.371-.078.204-.07.442.016.53.087.086.36.158.608.158.247 0 .762.246 1.145.547.382.3 1.413.838 2.29 1.195.878.356 2.314.723 3.19.815 1.187.124 1.56.258 1.458.524-.075.197-.022.358.119.358.14 0 .256-.178.256-.397 0-.218.12-.397.265-.397.145 0 .264.239.264.53 0 .317.177.529.441.529.243 0 .363.078.267.174-.096.095-.68.247-1.3.337zm8.815-7.416c.24-.319.627-1.187.86-1.93.234-.744.501-2.006.594-2.807.092-.8.04-2.145-.117-2.99-.157-.843-.527-2.079-.82-2.744-.454-1.025-.597-1.16-.934-.88-.33.274-.397 1.273-.397 5.941 0 3.087.085 5.697.189 5.8.103.104.384-.072.625-.39zm1.435-9.5a.133.133 0 1 0 0-.264.133.133 0 0 0 0 .265zm-3.54-5.555c.145 0 .19-.12.1-.265-.09-.146-.282-.265-.428-.265-.145 0-.19.12-.1.265.09.145.282.265.428.265zm-11.673-2.646c.194 0 .273-.08.176-.177a.25.25 0 0 0-.353 0c-.097.097-.018.177.177.177zm8.182 24.563c-.414.158-.837.161-1.108.01-.24-.135-.403-.39-.36-.569.043-.178.028-.234-.033-.125a.444.444 0 0 1-.353.198c-.134 0-.243-.166-.243-.368 0-.203.194-.443.43-.534.237-.09.594-.03.794.136.283.235.364.207.364-.127 0-.236.119-.43.264-.43.146 0 .489.224.763.498s.42.624.325.777c-.095.154-.474.394-.843.534zm-.554-.222c.316 0 .574-.108.574-.24 0-.133-.175-.216-.39-.185-.214.032-.472.14-.573.241-.1.102.074.184.39.184zm-11.333-3.703c-.194 0-.273-.08-.176-.177a.25.25 0 0 1 .353 0c.097.097.018.177-.177.177zm-2.778-.794a.133.133 0 1 1 0-.265.133.133 0 0 1 0 .265zm22.754-6.35a.132.132 0 1 1 0-.265.132.132 0 0 1 0 .265zm-23.503-1.676c-.097.097-.177.017-.177-.177s.08-.273.177-.176a.25.25 0 0 1 0 .353zm8.422-11.025a.133.133 0 1 1 0-.265.133.133 0 0 1 0 .265z" id="path1215-27" fill="#212121" stroke-width=".265"></path></g></g></svg>