<svg xmlns="http://www.w3.org/2000/svg" width="68" height="79" viewBox="0 0 18.023 21.007"><title>ryza2 category edibles</title><g fill="#212121" class="nc-icon-wrapper"><g transform="translate(-8.82 123.052)"><path d="M19.95-102.046c-1.973 0-2.377-.08-2.984-.589-.386-.324-.965-1.201-1.287-1.949-.472-1.096-.55-1.62-.4-2.704.132-.962.396-1.556.926-2.086.408-.408 1.019-.755 1.357-.77.339-.017.854-.014 1.145.006.335.023.694-.257.98-.764.252-.447.67-.8.948-.8.273 0 .573.075.666.168.093.093-.095.494-.419.891-.323.397-.72.945-.88 1.218-.262.446-.341.456-.77.102-.425-.35-.464-.35-.35.002.072.218.463.436.87.484.406.047.874-.06 1.038-.238.224-.243.216-.277-.032-.137-.199.112-.331.033-.331-.198 0-.21.188-.456.418-.544.23-.089.713-.16 1.072-.16.359 0 1.01.183 1.445.409.435.225.917.73 1.07 1.124.154.393.273 1.224.264 1.846-.01.622-.243 1.634-.52 2.249-.276.615-.826 1.416-1.222 1.78-.652.598-.936.66-3.003.66zm.592-.926c.063 0 .42-.116.793-.258.374-.142.917-.648 1.207-1.124.29-.477.529-1.194.53-1.594 0-.4-.113-.728-.252-.728-.138 0-.478.506-.755 1.124-.277.619-.759 1.352-1.07 1.629-.313.277-.568.605-.568.728s.052.223.115.223zm1.993-4.498c.15 0 .273-.171.273-.381s-.127-.46-.282-.556c-.155-.096-.349-.108-.43-.027-.08.081-.077.331.01.556.085.225.279.408.429.408zm-7.397 4.763c-.144 0-.679-.566-1.188-1.257-.509-.691-1.373-2.116-1.92-3.167l-.995-1.91.926-.791c.866-.74.886-.792.312-.802-.337-.006-.83.106-1.097.249-.4.214-.514.14-.657-.429-.095-.378-.137-.718-.093-.755.043-.038.59-.326 1.213-.64.623-.315 1.063-.687.976-.827-.086-.14-.334-.255-.551-.255-.217 0-.734.176-1.15.39-.672.349-.772.346-.913-.02-.087-.227-.158-.71-.158-1.073 0-.373.328-.988.754-1.414.416-.415 1.197-.837 1.74-.939.58-.109 1.256-.062 1.641.113.36.165.815.686 1.01 1.158.196.473.492 1.74.657 2.818.287 1.87.275 1.986-.286 2.583-.432.46-.618 1.044-.702 2.206-.074 1.027.036 2.039.314 2.89.236.72.429 1.436.429 1.59 0 .155-.118.282-.262.282zm3.66-8.688c-.614.666-1.017.942-1.017.696 0-.224.611-1.344 1.359-2.489.747-1.145 2.146-2.867 3.109-3.826 1.152-1.15 2.183-1.91 3.019-2.226.83-.315 1.359-.392 1.528-.222.17.17-.121.692-.841 1.51-.606.689-1.71 1.601-2.455 2.028-.744.427-1.145.777-.89.779.254 0 .463.103.463.227 0 .123-.49.445-1.087.714-.854.385-.986.525-.616.655.423.148.406.21-.163.608-.348.244-.804.444-1.012.444-.208 0-.837.496-1.396 1.102zm-2.075.75c-.146 0-.265-.262-.265-.581 0-.32.31-1.6.69-2.843.379-1.243.976-2.827 1.327-3.52.35-.692.572-1.258.491-1.258-.08 0-.608.955-1.172 2.123-.565 1.168-1.107 2.596-1.205 3.175-.098.579-.279 1.052-.403 1.052-.123 0-.302-.517-.397-1.15-.095-.631-.13-1.435-.076-1.785.053-.35.242-.607.42-.57.202.04.33-.262.34-.794.008-.473.157-1.277.33-1.786.174-.51.495-.926.713-.926.219 0 .637-.353.93-.783.292-.43 1.046-1.175 1.674-1.654.628-.479 1.436-.945 1.795-1.035.36-.09.72-.097.801-.016.081.082-.05.665-.29 1.297-.242.632-.906 1.74-1.476 2.463-.835 1.058-.956 1.342-.622 1.46.337.118.238.376-.535 1.389-.872 1.142-.904 1.244-.392 1.244.545 0 .547.016.09.728-.258.4-.927 1.156-1.486 1.679-.571.534-1.018 1.202-1.018 1.521 0 .314-.119.57-.264.57zm-6.798-5.028c-.028 0-.138-.148-.245-.33a41.322 41.322 0 0 0-.6-.964c-.4-.625-.395-.632.427-.511.7.103.857.025.986-.491.085-.337.316-.613.514-.613.197 0 .506.177.686.394.283.341.401.3.876-.303.51-.649.562-.662.745-.196.108.276.205.77.215 1.097.013.407-.134.595-.466.595-.266 0-1.07.297-1.786.66-.716.364-1.324.661-1.352.662z" id="path1196-1-2-2" fill="#212121" stroke-width=".265"></path></g></g></svg>