<svg xmlns="http://www.w3.org/2000/svg" width="73" height="91" viewBox="0 0 19.467 24.304"><title>ryza2 race spirit</title><g fill="#212121" class="nc-icon-wrapper"><g transform="translate(-261.034 -186.977)"><path d="M269.785 211.28c-.291-.01-.92-.22-1.399-.464l-.869-.446.642-.603c.428-.402 1.158-.675 2.192-.818.853-.118 1.578-.192 1.61-.164.034.029-.122.312-.345.631-.232.331-.71.593-1.118.61-.533.023-.58.06-.184.148.291.064.708.178.926.253.301.103.238.225-.264.504-.364.203-.9.36-1.191.35zm-2.831-.755c-.117 0-.212-.224-.212-.497s.179-.645.397-.826c.218-.182.397-.546.397-.81 0-.266-.12-.556-.265-.646-.145-.09-.264-.257-.264-.372 0-.114.254-.322.565-.46.5-.224.428-.284-.637-.528-1.175-.269-1.196-.262-.896.278.168.304.415.632.547.727.142.103.125.481-.041.926-.155.414-.362.99-.459 1.282-.171.513-.192.51-.686-.096-.28-.344-.523-.939-.54-1.323-.024-.548-.058-.584-.158-.169-.07.291-.235.642-.366.78-.15.158-.353.138-.544-.053-.197-.196-.465-.22-.751-.067-.246.131-.699.173-1.007.092-.335-.087-.677-.5-.85-1.022-.226-.687-.203-1.08.107-1.822.217-.52.71-1.26 1.094-1.644.625-.625.74-.656 1.1-.296.36.36.295.506-.617 1.388-.875.846-.895.888-.141.295l.879-.692.907.692c.498.38.907.606.907.5 0-.105-.298-.426-.662-.712-.364-.286-.661-.731-.661-.99 0-.257-.25-.695-.557-.971-.306-.277-.722-.826-.926-1.219-.203-.393-.37-.78-.37-.86 0-.08.192-.146.426-.146.304 0 .369-.132.228-.463-.109-.255-.253-1.123-.321-1.929s0-1.878.14-2.381c.145-.504.35-1.124.453-1.379.128-.313.067-.463-.19-.463-.208 0-.637-.275-.954-.612-.316-.337-.575-.694-.575-.794 0-.1.151-.181.337-.181.189 0 .479-.613.661-1.397.179-.768.325-1.698.325-2.066 0-.368.17-.9.378-1.183.312-.424.4-.444.508-.117.072.219.185.576.252.794.086.279.204.19.398-.296.152-.38.599-.946.993-1.257.418-.328 1.099-.563 1.634-.563h.916l-.754.9c-.414.494-1.349 1.166-2.076 1.494-.902.405-1.176.63-.86.707.254.062.463.236.463.388 0 .152-.437.676-.972 1.166-.95.87-.961.902-.488 1.424.266.294.646 1.1.844 1.792l.361 1.257-.13-1.245c-.112-1.062-.03-1.364.558-2.063.38-.45 1.24-1.096 1.912-1.433.672-.338 1.891-.696 2.708-.796 1.17-.143 1.846-.06 3.175.387.93.312 1.838.69 2.02.84.257.213.296.075.175-.619a14.292 14.292 0 0 0-.26-1.233c-.058-.187.087-.414.322-.504.27-.104.604.068.915.473.466.606.49.61.496.09 0-.3-.362-.895-.81-1.322-.45-.428-.93-.986-1.069-1.24-.213-.394-.132-.463.538-.463.445 0 1.101.27 1.509.62.555.478.712.837.684 1.571-.034.916 0 .956.948 1.034l.984.082-.767.727c-.44.418-1.064.728-1.467.728-.386 0-1.415.387-2.286.86-.872.473-1.826 1.038-2.12 1.257-.295.218-.638.575-.761.793-.124.219.062.148.413-.158.35-.305 1.309-.931 2.13-1.391l1.491-.837.812.925c.447.509.996 1.543 1.22 2.3.225.756.408 1.859.407 2.45 0 .593-.117 1.494-.259 2.003l-.257.926-2.261.066c-1.987.057-2.381-.01-3.247-.56-.542-.343-1.614-1.19-2.382-1.881-.767-.692-1.704-1.785-2.082-2.43-.378-.644-.792-1.136-.92-1.093-.13.043-.949 1.03-1.82 2.195-.873 1.163-1.577 2.294-1.566 2.513.018.352.037.352.171 0 .083-.219.594-.933 1.136-1.588.542-.655 1.22-1.577 1.505-2.05l.52-.858.994 1.443c.546.793 1.608 1.964 2.358 2.601s1.7 1.375 2.11 1.64c.562.364 1.211.474 2.645.447l1.901-.035-1.915.702c-1.054.386-1.866.752-1.804.813.06.061.781-.14 1.6-.446.82-.307 1.953-.661 2.52-.789.565-.127 1.1-.16 1.186-.074.087.087-.103.354-.42.593l-.578.436 1.063.598c.586.33 1.316 1.046 1.625 1.595.308.548.56 1.363.56 1.811 0 .534-.283 1.137-.821 1.75-.523.595-1.058.936-1.473.936-.358 0-.88-.123-1.16-.273-.38-.203-.674-.164-1.156.151-.497.326-.77.358-1.182.137-.49-.262-.524-.473-.4-2.466.076-1.199.26-2.299.412-2.444.185-.179.405-.071.678.33.341.503.643.596 1.944.596 1.292 0 1.607.095 1.952.588.227.323.412.45.412.283 0-.167-.187-.491-.416-.72-.263-.263-.884-.416-1.69-.416-.84 0-1.478-.165-1.872-.483l-.597-.484.964-.596c.531-.328.965-.658.965-.733 0-.075-.387.12-.86.436-.473.315-1.276.746-1.786.958-.509.212-1.057.472-1.217.578-.16.106-.815.547-1.455.98-1.034.701-1.098.8-.569.879.328.05.596.2.596.333 0 .135-.238.393-.53.575-.29.182-.529.54-.529.796 0 .31-.204.465-.608.465-.335 0-.752-.142-.926-.317-.226-.226-.318-.231-.318-.018 0 .165-.238.375-.529.468-.29.092-.53.374-.53.626s-.142.601-.317.776c-.174.175-.412.318-.529.318zm-1.932-3.175a.133.133 0 1 0 0-.265.133.133 0 0 0 0 .265zm.265-.53a.133.133 0 1 0 0-.265.133.133 0 0 0 0 .265zm1.984-1.587c.194 0 .274-.08.177-.177a.25.25 0 0 0-.353 0c-.097.097-.018.177.176.177zm-3-1.786c.074-.182.074-.48 0-.662-.072-.181-.133-.033-.133.331s.06.513.134.33zm1.272.198c.27 0 .405-.254.405-.761 0-.419-.177-.908-.393-1.088-.216-.18-.576-.256-.8-.17-.298.114-.34.28-.155.624a6.4 6.4 0 0 1 .395.932c.079.255.325.463.548.463zm4.255 0c.453 0 .737-.198.9-.628a7.47 7.47 0 0 0 .324-1.124c.064-.374-.099-.518-.659-.582-.41-.047-1.036.105-1.392.339-.62.406-.63.457-.24 1.21.286.553.602.785 1.067.785zm-5.766-1.792c.044-.13-.036-.525-.176-.876l-.255-.639-.017.684c-.01.376.07.77.176.876.106.106.228.086.272-.045zm2.858-2.44c.064 0 .117-.12.117-.266 0-.145-.126-.264-.28-.264-.155 0-.207.119-.117.264.09.146.216.265.28.265zm-.81-.266a.133.133 0 1 0 0-.265.133.133 0 0 0 0 .265zm-.248-.529c.064 0 .116-.119.116-.264 0-.146-.126-.265-.28-.265-.154 0-.206.12-.116.265.09.145.216.264.28.264zm1.276 0c.073 0 .206-.119.296-.264.09-.146.104-.265.03-.265-.072 0-.205.12-.295.265-.09.145-.104.264-.031.264zm-.63-.397c.145-.09.264-.335.264-.544 0-.21-.119-.382-.264-.382-.146 0-.265.246-.265.545 0 .3.12.471.265.381zm6.696-3.307c.336 0 .829-.16 1.095-.354.44-.321.444-.37.048-.522-.24-.092-.733-.055-1.095.083-.363.138-.66.373-.66.522 0 .15.276.271.612.271zm-.917 14.808c-.096.005-.115-.217-.042-.493.072-.276 0-.753-.166-1.059-.222-.415-.22-.556.01-.556.205 0 .245-.31.123-.961-.148-.788-.11-.935.213-.81.216.082.456-.013.533-.213.077-.2.366-.484.643-.632.47-.252.501-.168.465 1.24-.022.83-.202 1.806-.4 2.17-.199.364-.55.806-.78.984-.232.177-.499.326-.594.33z" id="path1215-20-3" fill="#212121" stroke-width=".265"></path></g></g></svg>