<svg xmlns="http://www.w3.org/2000/svg" width="85" height="69" viewBox="0 0 22.752 18.428"><title>ryza2 category water</title><g fill="#212121" class="nc-icon-wrapper"><g transform="translate(66.858 57.78)"><path d="M-52.06-39.567c-1.227.204-3.014.267-4.748.168-1.665-.095-3.575-.395-4.762-.749-1.09-.324-2.457-.912-3.037-1.307-.58-.395-1.324-1.118-1.654-1.607-.33-.488-.598-1.258-.597-1.71.001-.45.23-1.167.51-1.59.28-.425 1.005-1.105 1.612-1.513.607-.407 1.75-.983 2.542-1.28.792-.296 1.62-.538 1.842-.538.222 0 .335.11.252.244-.083.135-.51.323-.946.42-.438.095-1.21.565-1.717 1.043-.717.676-.922 1.078-.922 1.81 0 .63.23 1.214.696 1.767.383.455 1.267 1.117 1.965 1.47.698.354 2.13.777 3.18.94 1.097.17 2.655.217 3.657.11.96-.103 2.389-.428 3.177-.723.787-.294 1.834-.907 2.325-1.36.568-.526.947-1.163 1.04-1.752.112-.705.009-1.103-.433-1.664-.319-.406-1.193-1.09-1.942-1.519-.749-.43-1.154-.782-.9-.783.254-.001 1.207.253 2.117.565.91.313 2.16.913 2.779 1.336.618.422 1.303 1.113 1.521 1.535.219.422.397 1.213.397 1.756 0 .835-.198 1.18-1.287 2.229-.93.896-1.761 1.398-2.993 1.808-.938.312-2.59.715-3.673.894zm-3.801-3.255c-1.388-.006-2.643-.184-3.588-.51-.844-.292-1.759-.844-2.183-1.319-.401-.45-.73-1.037-.73-1.306 0-.27.249-.806.553-1.192.304-.386.893-.879 1.31-1.094.416-.215.911-.388 1.1-.383.19.005.017.252-.383.551-.487.363-.728.784-.728 1.274 0 .401.227.936.504 1.187.278.25 1.07.626 1.762.834.692.208 1.864.378 2.605.377.74 0 1.814-.13 2.384-.29.571-.158 1.375-.624 1.786-1.036.412-.411.749-.867.749-1.013 0-.145-.308-.63-.685-1.079-.377-.447-.583-.814-.458-.814.124 0 .657.293 1.184.651.527.358 1.074.984 1.216 1.39.142.408.165.991.051 1.298-.113.306-.53.812-.926 1.123-.396.312-1.32.745-2.054.963-.734.218-2.295.392-3.47.388zm.32-3.432c-.186 0-.747-.208-1.246-.463-.499-.254-1.147-.79-1.441-1.19-.373-.509-.538-1.158-.548-2.15-.012-1.226.201-1.843 1.56-4.513.865-1.702 1.654-3.143 1.752-3.204.098-.06.247.313.331.83.084.518.718 1.906 1.41 3.085 1.008 1.72 1.275 2.435 1.35 3.618.074 1.148-.027 1.668-.455 2.35-.302.482-.96 1.047-1.461 1.257-.502.21-1.065.38-1.251.38zm.302-1.597c.498.006 1.123-.187 1.39-.428.28-.255.483-.8.483-1.307 0-.478-.09-.925-.198-.992-.11-.067-.216.166-.237.52-.022.352-.2.835-.397 1.073-.197.237-.716.587-1.152.777l-.794.346.905.01zm-2.115-3.165c.117 0 .331-.595.475-1.323.144-.727.214-1.323.155-1.323-.06 0-.332.501-.606 1.113-.274.612-.44 1.207-.368 1.323.071.116.226.21.344.21z" id="path1196" fill="#212121" stroke-width=".265"></path></g></g></svg>