<svg xmlns="http://www.w3.org/2000/svg" width="98" height="100" viewBox="0 0 25.985 26.542"><title>ryza2 small enemy</title><g fill="#212121" class="nc-icon-wrapper"><g transform="translate(-361.77 -214.74)"><path d="M375.584 241.231c-.655.057-1.488.068-1.852.024a38.34 38.34 0 0 1-2.117-.371c-.8-.16-2.092-.652-2.87-1.093-.927-.524-1.303-.87-1.09-1.001.178-.11.239-.34.134-.508-.142-.23-.28-.231-.551-.007-.2.165-.494.218-.656.118-.162-.1-.228-.354-.147-.565.081-.211.037-.316-.097-.233-.135.083-.544-.149-.911-.515-.367-.367-.523-.669-.348-.671.2-.003.22-.076.054-.198-.146-.107-.435-.525-.643-.927-.222-.431-.45-.616-.554-.448-.108.176-.325.05-.563-.325-.213-.336-.585-1.147-.826-1.802-.24-.655-.542-1.87-.67-2.699-.127-.829-.144-1.648-.039-1.82.106-.17.135-.745.063-1.275-.07-.53.01-1.467.173-2.083.165-.615.402-1.119.525-1.119s.29.258.373.573c.126.483.213.52.56.232.342-.284.41-.27.41.089 0 .236-.166.429-.368.429-.203 0-.437.179-.521.397-.093.242 0 .397.236.397.214 0 .389.07.389.157s-.215.474-.478.86-.471.856-.463 1.043c.01.187.162.431.342.543.18.111.45.842.598 1.624.148.783.572 2.083.941 2.89.37.807.858 1.673 1.085 1.923.383.424.469.343 1.198-1.116.465-.93 1.247-1.95 1.917-2.499.623-.51 1.193-.927 1.269-.927.075 0 .198.549.274 1.22.076.672.365 1.535.643 1.919.279.383 1.062.976 1.742 1.317.951.477 1.47.58 2.257.447.562-.095 1.402-.404 1.866-.686.465-.282.964-.828 1.11-1.213.183-.48.175-.975-.023-1.579-.16-.483-.643-1.176-1.074-1.538-.432-.363-1.207-.74-1.723-.836-.606-.114-1.02-.376-1.166-.738-.2-.494-.23-.503-.244-.07-.015.435-.166.473-1.274.322-.69-.094-1.944-.37-2.784-.61-.84-.243-1.89-.744-2.333-1.116-.573-.481-.845-.98-.943-1.734-.107-.826 0-1.26.488-1.978.343-.506 1.027-1.192 1.52-1.524.493-.332 1.494-.782 2.225-.999.73-.216 2.254-.394 3.386-.394 1.132 0 2.955.133 4.051.297 1.5.223 2.298.22 3.225-.014.677-.17 1.324-.215 1.437-.098.112.116.142.533.065.925-.077.392-.554 1.195-1.059 1.786-.724.845-1.1 1.073-1.778 1.073-.632 0-1.366-.385-2.78-1.455-1.422-1.078-2.146-1.456-2.788-1.456-.478 0-1.182.247-1.565.549-.452.355-.698.805-.698 1.277 0 .418.254.96.596 1.27.327.3 1.012.672 1.521.83.51.156 1.998.48 3.307.72 1.31.239 2.798.607 3.308.819.51.211 1.268.705 1.686 1.098.418.392.924 1.097 1.124 1.565.2.468.365 1.224.365 1.679 0 .455-.196 1.158-.435 1.563-.238.404-1.042 1.1-1.786 1.544-.743.446-2.066 1.044-2.939 1.33-.873.286-2.42.6-3.44.698-1.336.128-2.396.054-3.81-.268-1.228-.28-2.407-.385-3.16-.282-.662.09-1.297.312-1.411.493-.115.181-.21.425-.213.543 0 .118.115.14.26.05.147-.09.95.253 1.787.763.836.51 2.252 1.112 3.146 1.339.894.227 1.996.412 2.448.412.603 0 .824.123.83.463.01.434.032.433.371-.016.23-.302.427-.375.537-.198.095.154.084.28-.025.28-.11 0 .032.17.314.375.283.207.454.434.382.506-.072.071-.668.176-1.323.233zm3.043-9.316a.133.133 0 1 0 0-.265.133.133 0 0 0 0 .265zm-.362 8.996c-.11 0-.43-.188-.712-.418-.47-.383-.472-.406-.029-.265.267.085.66.154.875.154.215 0 .318.119.228.265-.09.145-.253.264-.362.264zm1.247-.646c-.295.29-.442.285-.858-.023-.276-.205-.595-.315-.71-.244-.113.07-.286 0-.383-.157-.113-.183-.305-.114-.539.194-.342.452-.363.445-.371-.116 0-.382.157-.607.454-.627.255-.017.612-.012.794.012.182.023.331-.081.331-.233 0-.152.152-.277.338-.277.186 0 .554.253.819.562.401.469.422.618.125.91zm1.637-.677c-.141 0-.183-.192-.093-.426.137-.358.029-.397-.67-.244-.68.15-.805.11-.679-.219.085-.221.438-.588.784-.815.347-.227.813-.412 1.037-.412.223 0 .406.119.406.264 0 .146-.258.265-.574.265-.315 0-.499.074-.409.164.09.09.47.087.842-.006.57-.143.65-.276.507-.846-.135-.54.018-.872.763-1.648.513-.534 1.228-1.567 1.589-2.295.36-.727.79-1.953.953-2.725.164-.77.296-2.08.294-2.91 0-.83-.164-2.104-.36-2.831-.197-.728-.634-1.8-.972-2.381a22.884 22.884 0 0 0-1.39-2.062c-.427-.552-1.447-1.452-2.267-2-.82-.547-1.966-1.133-2.548-1.302-.582-.168-1.335-.38-1.673-.472-.386-.104-.561-.304-.471-.538.079-.205.028-.373-.113-.373-.141 0-.257.196-.257.436 0 .383-.272.417-2.249.277-1.661-.117-2.25-.075-2.252.16 0 .174-.718.66-1.591 1.08-1.032.495-2.099 1.314-3.045 2.336-.802.866-1.747 2.13-2.1 2.81-.355.68-.65 1.086-.657.904-.01-.182-.138-.33-.292-.33-.154 0-.207.119-.117.264.09.146.025.265-.145.265-.176 0-.237-.185-.143-.43a.87.87 0 0 0-.129-.785c-.224-.27-.065-.73.671-1.943.53-.873 1.584-2.112 2.34-2.753.756-.64 1.762-1.362 2.235-1.603.756-.384.86-.389.86-.034 0 .222.165.404.368.404.202 0 .44-.286.527-.635.102-.404.473-.748 1.021-.946.474-.171 1.785-.379 2.912-.461 1.35-.099 2.05-.055 2.05.127 0 .153.232.218.514.144.283-.074 1.295.125 2.25.443.954.318 2.424 1.085 3.266 1.704.841.62 1.964 1.634 2.495 2.254.53.62 1.259 1.74 1.618 2.49.359.75.738 1.648.842 1.998.151.506.107.603-.219.478a.663.663 0 0 0-.696.19c-.162.197-.2.564-.085.845.112.273.36.53.553.57.237.049.298-.095.188-.44-.09-.283-.045-.588.1-.677.145-.09.399.342.566.964.222.821.225 1.252.012 1.592-.16.256-.29.533-.29.617 0 .083.119.078.264-.012.146-.09.265.014.265.23 0 .217-.268.432-.596.479-.46.065-.614.285-.68.97-.047.486 0 1.082.095 1.323.159.386.208.375.42-.092.17-.371.198-.187.097.62-.079.632-.396 1.644-.704 2.249a18.238 18.238 0 0 1-1.234 2.026c-.37.51-1.136 1.368-1.703 1.907-.566.54-1.258 1.054-1.537 1.143-.28.088-.508.272-.508.407a.252.252 0 0 1-.256.247zm4.622-15.346a.133.133 0 1 0 0-.265.133.133 0 0 0 0 .265zm-3.572-5.556c.145 0 .264-.119.264-.264a.265.265 0 0 0-.264-.265.265.265 0 0 0-.265.265c0 .145.12.264.265.264zm.705-.353a.25.25 0 0 0 0-.352c-.097-.097-.176-.018-.176.176 0 .194.079.273.176.176zm-4.233-1.323a.25.25 0 0 0 0-.352c-.097-.097-.176-.018-.176.176 0 .194.079.273.176.176zm-1.367-.44a.133.133 0 1 0 0-.266.133.133 0 0 0 0 .266zm-6.615-.53a.133.133 0 1 0 0-.265.133.133 0 0 0 0 .265zm-6.35 19.844a.133.133 0 1 1 0-.265.133.133 0 0 1 0 .265zm22.755-6.35a.133.133 0 1 1 0-.265.133.133 0 0 1 0 .265zm-23.769-1.676c-.097.097-.176.018-.176-.176 0-.194.079-.273.176-.176a.25.25 0 0 1 0 .352zm8.423-11.024a.133.133 0 1 1 0-.265.133.133 0 0 1 0 .265z" id="path1215-8" fill="#212121" stroke-width=".265"></path></g></g></svg>