<svg xmlns="http://www.w3.org/2000/svg" width="96" height="99" viewBox="0 0 25.664 26.323"><title>ryza2 category uni</title><g fill="#212121" class="nc-icon-wrapper"><g transform="translate(92.637 95.308)"><path d="M-80.35-68.986c-.047 0-.136-.089-.198-.198-.062-.11-.376-1.002-.698-1.984-.323-.983-.674-1.786-.78-1.786-.107 0-.543.368-.97.818-.428.45-1.094 1.045-1.481 1.323l-.703.506.144-2.008.145-2.008-1.386.702c-.762.386-1.438.65-1.502.587-.063-.064.127-.731.424-1.483.296-.752.538-1.435.538-1.519 0-.083-.893-.106-1.984-.05-1.091.054-1.984.048-1.984-.016 0-.063.472-.975 1.05-2.027l1.049-1.913-1.975-.888c-1.087-.488-1.976-.978-1.976-1.09 0-.11.825-.595 1.835-1.077l1.835-.877-1.502-1.502-1.501-1.501 1.055-.018c.58-.01 1.464-.07 1.963-.135.498-.065.953-.164 1.01-.22.056-.057-.203-.707-.577-1.444-.373-.738-.679-1.395-.679-1.462 0-.066.387.071.86.305.473.235 1.485.824 2.25 1.311l1.388.885.01 1.646c.01 1.561.054 1.672.86 2.174.468.291 1.088 1.031 1.38 1.644.29.614.68 1.12.865 1.125.185.005.853.486 1.485 1.068.631.582 1.363 1.058 1.625 1.058.263 0 1.236.417 2.163.926.926.51 1.894.926 2.15.926.346 0 .543.356.77 1.39.168.763.543 2.198.833 3.187l.529 1.798-.977-.586a71.889 71.889 0 0 1-2.079-1.31l-1.101-.725-.185 1.629c-.101.896-.267 1.78-.367 1.965-.117.214-.508-.242-1.08-1.259-.493-.877-.975-1.505-1.07-1.394-.095.11-.444.944-.775 1.854-.331.91-.64 1.653-.687 1.653zm11.22-7.28c-.05.05-.862-.235-1.804-.635l-1.712-.726-.008-2.625c-.007-2.262-.098-2.802-.662-3.907-.36-.705-1.21-1.747-1.89-2.316-.68-.568-1.31-1.33-1.4-1.694-.14-.554-.326-.663-1.154-.673-.543-.007-1.339-.162-1.769-.345-.68-.29-.97-.256-2.249.27-.807.332-1.674.606-1.926.61-.308.004-.774-.617-1.407-1.873-.52-1.034-.881-1.944-.802-2.023.08-.08.633.18 1.232.576.598.396 1.14.668 1.204.604.064-.064.182-.758.263-1.541.08-.784.197-1.587.259-1.785.068-.217.578.241 1.294 1.163.723.932 1.223 1.379 1.287 1.153l.491-1.692.385-1.323.375 1.678.376 1.678 1.323-1.808 1.323-1.808.132 2.171.133 2.171 1.373-1.048c.755-.577 1.425-1.05 1.489-1.05.064 0-.05.793-.253 1.76-.203.968-.326 1.803-.273 1.856.053.053.903-.208 1.89-.58.987-.371 1.848-.62 1.915-.554.066.067-.287.964-.786 1.995l-.906 1.874 1.744.006 1.744.006-1.257 1.199c-.691.66-1.257 1.239-1.257 1.288 0 .048.774.361 1.72.695.946.334 1.72.705 1.72.823 0 .119-.149.223-.33.232-.183.009-.918.28-1.634.604l-1.303.589 1.404.9c1.188.762 1.328.932.906 1.097-.274.108-1.004.205-1.623.215-.618.01-1.124.086-1.124.17 0 .082.369.686.82 1.34.45.656.777 1.233.727 1.283zm-5.217-1.724c-.237-.005-.67-.191-.96-.414-.291-.223-1.453-.888-2.582-1.477-1.13-.59-2.35-1.425-2.711-1.855-.48-.57-.594-.903-.42-1.23.132-.245.46-.643.727-.883.269-.24 1.202-.698 2.075-1.016.874-.32 1.86-.642 2.193-.717.376-.086.81.049 1.152.357.302.273.78.951 1.064 1.508.327.639.525 1.584.539 2.567.012.855-.128 1.918-.312 2.362-.184.443-.528.802-.765.798zm.01-2.109c.121 0 .22-.178.22-.397 0-.218-.112-.396-.249-.396a.517.517 0 0 0-.39.227c-.077.125-.064.304.03.397a.64.64 0 0 0 .389.17zm-.246-1.758c.111-.069.201-.326.2-.572 0-.246-.236-.835-.524-1.308-.289-.473-.702-.86-.918-.86-.308 0-.238.31.323 1.432.395.788.808 1.376.919 1.308zm-6.494-2.1c-.813.62-.92.64-1.458.264-.32-.224-.758-.75-.976-1.171-.217-.42-.395-1.13-.395-1.575 0-.627.19-.927.838-1.32a6.127 6.127 0 0 1 1.805-.674c.533-.09 1.522-.024 2.2.147.676.17 1.534.613 1.905.985.371.371.633.804.58.962-.051.158-.887.608-1.857 1s-2.16 1.015-2.642 1.383zm-.942-2.775c.325-.174 1-.233 1.588-.139.78.125 1.023.076 1.023-.208 0-.204-.189-.444-.419-.532-.23-.088-.68-.16-1-.16-.319 0-.845.185-1.168.411-.324.227-.588.529-.588.671 0 .155.226.138.564-.043z" id="path1196-1-8-9" fill="#212121" stroke-width=".265"></path></g></g></svg>