<svg xmlns="http://www.w3.org/2000/svg" width="87" height="86" viewBox="0 0 23.216 23.018"><title>ryza2 race beetle</title><g fill="#212121" class="nc-icon-wrapper"><g transform="translate(-256.163 -218.256)"><path d="M273.103 241.274c-.192 0-.482-.288-.642-.641-.169-.37-.215-1.054-.11-1.617.101-.537.478-1.27.839-1.631.528-.528.73-.593 1.039-.337.21.176.512.797.67 1.38.271 1.01.244 1.104-.58 1.954-.476.49-1.023.892-1.216.892zm5.123-.01c-.166-.007-.766-.42-1.332-.92-.992-.877-1.023-.954-.857-2.162.094-.689.288-1.368.43-1.51.169-.169.5-.034.949.386.38.354.857.966 1.062 1.359.204.393.371 1.008.371 1.367 0 .36-.072.841-.16 1.072-.088.23-.297.413-.463.407zm-8.754-1.048c-.081 0-.148-.162-.148-.36 0-.196.423-.91.939-1.587.516-.675 1.11-1.228 1.323-1.228.284 0 .384.338.384 1.291v1.292l-1.175.296c-.647.163-1.242.296-1.323.296zm-7.737-.847c-.471.048-.926-.084-1.128-.327-.275-.332-.265-.59.056-1.395.217-.543.571-1.1.788-1.236.216-.137.581-.176.811-.088.23.089.501.603.603 1.144.102.546.067 1.17-.078 1.403-.145.23-.618.456-1.052.5zm-3.325-1.009c-.254.002-.463-.09-.463-.204 0-.114.63-.828 1.398-1.587.768-.76 1.542-1.38 1.72-1.38.177 0 .322.127.322.283 0 .156-.301.798-.67 1.427-.368.628-.934 1.214-1.257 1.3a5.13 5.13 0 0 1-1.05.161zm5.631.004c-.3 0-.547-.265-.657-.704-.097-.387-.585-1.181-1.085-1.765-.5-.584-.857-1.114-.793-1.177.063-.064.468.135.899.442.43.307 1.098.558 1.483.558s1.052.182 1.48.404c.43.222.781.509.781.638s-.366.542-.814.919c-.447.377-1.03.685-1.294.685zm11.316-.286c-.044-.011-.391-.392-.773-.846-.68-.81-.706-.817-1.38-.376-.66.432-.698.428-.986-.112-.191-.356-.235-1.104-.12-2.05.099-.82.399-2.783.665-4.364.267-1.581.614-3.004.772-3.162.18-.18.371-.193.513-.036.124.139.42.966.659 1.84.239.872.83 2.803 1.312 4.29.663 2.041.796 2.734.54 2.832-.186.072-.515.552-.73 1.068-.216.516-.428.928-.472.916zm-4.407-1.312c-.094-.006-.498-.189-.9-.406l-.728-.395.508-.719c.28-.395.583-1.016.675-1.38.154-.608.142-.619-.145-.132-.172.29-.615.855-.985 1.253-.37.399-1.053.796-1.517.883-.465.087-1.129.11-1.475.051-.555-.094-.487-.173.56-.654.655-.3 1.51-.887 1.9-1.304.39-.417.96-1.432 1.267-2.256.335-.9.827-1.674 1.232-1.94.37-.242.748-.368.837-.278.09.09-.046 1.594-.301 3.343-.256 1.75-.53 3.352-.611 3.563-.081.21-.224.377-.317.371zm6.527-.519c-.118 0-.215-.181-.215-.403 0-.222-.224-1.026-.499-1.786a66.616 66.616 0 0 0-.683-1.83c-.15-.36.013-.482.83-.627.557-.1 1.269-.414 1.58-.698l.568-.516.184 1.589c.101.873.1 1.864 0 2.202-.102.338-.492.942-.867 1.342-.375.4-.778.727-.896.727zm-13.006-.874l-1.378.142-1.875-1.837c-1.03-1.011-2.371-2.603-2.978-3.537-.608-.934-1.285-2.294-1.506-3.022-.22-.727-.461-2.097-.534-3.042-.09-1.146-.018-1.931.212-2.352.19-.348.464-.645.609-.661.145-.017.357.725.471 1.647.114.923.543 2.411.952 3.308.41.896 1.09 1.969 1.51 2.384.42.414 1.208.98 1.75 1.256.542.277 1.347.503 1.79.503.753 0 .803-.062.803-1 0-.55.186-1.264.412-1.587.227-.324.691-.588 1.033-.588.574 0 .612.086.499 1.124a26.494 26.494 0 0 1-.215 1.588c-.05.255.013.4.14.32.128-.079.314-.758.414-1.509.123-.925.388-1.572.825-2.009.638-.638.64-.647.126-1.16-.492-.493-.498-.595-.119-2.148.22-.896.474-1.716.566-1.822.092-.105.69.155 1.33.578 1.019.674 1.23.989 1.722 2.572.503 1.616.64 1.813 1.301 1.89.575.067.698.184.553.53-.102.243-.264.796-.36 1.227-.149.667-.42.878-1.827 1.415-1.325.506-1.73.567-2.042.308-.214-.178-.389-.716-.389-1.196 0-.557.252-1.173.695-1.699.381-.454.626-.893.542-.977-.083-.083-.45.19-.814.607-.364.417-.739 1.093-.832 1.503-.093.41-.02 1.106.163 1.548.308.743.408.791 1.325.645l.992-.159-.572 1.365c-.315.75-.892 1.686-1.282 2.077-.39.392-1.142.918-1.671 1.17-.53.25-1.583.52-2.341.598zm3.747-11.65c.322-.291.467-.672.38-1.002-.075-.292-.226-.434-.333-.316-.107.12-.279.57-.381 1.003-.182.768-.175.776.334.316zm1.4-.44c.13 0 .236-.105.236-.232 0-.128-.179-.38-.397-.562-.219-.181-.397-.265-.397-.186 0 .078.072.331.16.561.089.23.267.419.397.419zm6.887 7.937c-.712 0-.842-.12-1.077-.992a99.803 99.803 0 0 0-.655-2.278c-.367-1.22-.361-1.293.122-1.42.28-.072.447-.233.37-.357-.076-.123-.416-.119-.754.01-.34.129-1.098.17-1.687.09-.952-.127-1.087-.235-1.214-.971a84.83 84.83 0 0 1-.315-2.067c-.157-1.123-.078-1.392.835-2.872.554-.898 1.288-1.74 1.632-1.87.343-.13.853-.237 1.133-.237.3 0 .893.516 1.444 1.257.83 1.116.916 1.384.778 2.392l-.155 1.135.942-.393c.876-.366.96-.359 1.208.104.147.273.267 1.025.267 1.67 0 .976-.188 1.414-1.11 2.598-.611.783-.813 1.156-.448.83.512-.46.733-.522.977-.278.174.174.316.661.316 1.083 0 .52-.29 1.057-.9 1.667-.63.631-1.14.9-1.71.9zm-1.406-5.788c.445-.316.866-.78.937-1.032.07-.25.21-.872.31-1.382l.181-.926-.802.757c-.44.416-.876 1.07-.968 1.455-.09.384-.234.925-.316 1.201-.14.468-.094.463.658-.073zm3.61-.033c.077 0 .137-.387.132-.86-.01-.73-.05-.787-.286-.38-.154.263-.213.65-.133.86.08.21.21.38.287.38zm-1.63-.793c.226 0 .666-.357.977-.794.31-.437.46-.794.333-.794-.128 0-.41.149-.626.33-.217.183-.552.54-.745.795-.297.392-.287.463.061.463zm-4.45-2.587c.167-.25.627-1.022 1.024-1.713.64-1.115.667-1.256.247-1.251-.292.003-.796.554-1.307 1.43-.591 1.011-.75 1.506-.55 1.707.202.201.372.151.586-.173zm3.295-.105c.429-.339.786-.689.794-.778.01-.089-.342-.611-.779-1.16l-.794-1v3.553zm-12.505 7.983a.982.982 0 0 1-.597-.259c-.169-.168-.168-.86 0-1.984.202-1.333.362-1.726.703-1.726.243 0 .586.173.761.384.235.284.246.613.042 1.257-.152.48-.343 1.2-.423 1.6-.081.4-.3.728-.486.728z" id="path1215-4" fill="#212121" stroke-width=".265"></path></g></g></svg>