<svg xmlns="http://www.w3.org/2000/svg" width="48" height="69" viewBox="0 0 12.919 18.344"><title>ryza2 category threads</title><g fill="#212121" class="nc-icon-wrapper"><g transform="translate(11.722 147.153)"><path d="M-5.02-128.811a33.616 33.616 0 0 1-2.673-.228c-.826-.106-2.071-.477-2.766-.825l-1.263-.632.038-6.933c.024-4.314.145-7.131.32-7.458.154-.29 1.082-.92 2.061-1.402 1.627-.8 1.988-.875 4.167-.863 1.9.01 2.656.135 3.709.614.727.331 1.58.926 1.893 1.322.547.69.574 1.014.651 7.693l.08 6.973-.874.6c-.481.33-1.618.728-2.525.886-.907.158-2.176.272-2.819.253zm1.08-.631c1.3-.042 2.406-.25 3.211-.603.676-.297 1.313-.677 1.416-.844.103-.167.128-.364.055-.437-.074-.073-.605.108-1.182.402-.577.294-2.015.656-3.196.804-1.477.185-2.623.183-3.673-.008-.84-.153-2.047-.566-2.684-.918-.637-.352-1.203-.64-1.257-.64-.054 0-.099.184-.099.41 0 .234.513.64 1.182.935.65.288 1.87.622 2.712.742.841.121 2.423.192 3.514.157zm-1.522-1.215c.4.016.728-.075.728-.202s-.506-.322-1.125-.433l-1.124-.202 1.587-.327 1.588-.327-1.323-.038c-.728-.021-1.502-.16-1.72-.309-.299-.204-.136-.262.661-.235.582.02 1.416.016 1.852-.008.69-.038.725-.074.265-.272-.291-.125-.886-.245-1.323-.266-.453-.023-.625-.106-.401-.194a2.66 2.66 0 0 0 .746-.508c.296-.296.199-.354-.59-.354-.52 0-.945-.12-.945-.265 0-.146.178-.265.396-.265.219 0 .397-.119.397-.264 0-.146.268-.267.596-.269.481-.003.519-.053.198-.26-.218-.141-.814-.276-1.323-.298l-.926-.042 1.058-.19c.936-.167.966-.194.265-.23-.437-.024-.972-.158-1.19-.299-.282-.181.105-.268 1.322-.295 1.454-.033 1.577-.07.794-.234l-.926-.195 1.19-.08 1.191-.078-1.058-.093c-.582-.05-1.331-.153-1.665-.227-.333-.075-.534-.252-.447-.393.087-.141-.086-.257-.386-.257-.3 0-.545-.132-.545-.294 0-.176.315-.249.78-.18.429.062.72.016.646-.103-.074-.119-.395-.218-.714-.22-.418-.004-.481-.067-.227-.228.282-.179.264-.258-.087-.393a2.806 2.806 0 0 0-.83-.17c-.213 0-.878-.237-1.479-.527-.6-.29-1.129-.49-1.175-.444-.045.046.408.36 1.007.696.928.522 1.023.65.64.865-.249.139-.74.18-1.094.09-.471-.117-.642-.052-.642.247 0 .224.303.546.674.715l.673.307-.74.305-.74.305 1.06.561c.947.503.988.564.396.584-.625.022-.61.052.265.549l.926.526-1.125-.164c-.618-.09-1.124-.086-1.124.007 0 .094.538.409 1.197.7.658.291 1.133.633 1.055.76-.078.125.068.293.324.371.257.078-.129.103-.856.054-.728-.048-1.174-.034-.991.033.183.066.264.231.18.367-.084.136.243.43.726.653l.878.405-1.389-.133c-.764-.074-1.389-.073-1.389 0 0 .075.538.374 1.196.664.658.291 1.7.629 2.315.75.616.122 1.447.234 1.847.25zm2.05-.19c.583-.056 1.059-.149 1.059-.206 0-.058-.476-.105-1.058-.105-.583 0-1.059.093-1.059.206 0 .113.476.16 1.059.104zm1.588-.31c.194 0 .273-.08.176-.177a.25.25 0 0 0-.352 0c-.097.097-.018.176.176.176zm-3.043-3.756c.437.005.647-.05.468-.122-.179-.073-.536-.077-.793-.01-.258.067-.111.126.325.131zm1.323-.743c.073 0 .133-.059.133-.132a.133.133 0 0 0-.133-.132.133.133 0 0 0-.132.132c0 .073.06.132.132.132zm-2.116-3.175c.072 0 .132-.06.132-.132a.133.133 0 0 0-.132-.132.133.133 0 0 0-.133.132c0 .073.06.132.133.132zm.416-1.69c1.856-.078 2.9-.265 3.91-.7.758-.325 1.344-.627 1.302-.669-.043-.042-.79.166-1.662.462-1.316.446-2.057.518-4.363.423-1.946-.081-3.044-.254-3.663-.578-.486-.254-.937-.409-1.002-.344-.064.064.288.309.782.543.494.235 1.183.549 1.53.698.352.15 1.76.224 3.166.165zm.774-1.378c.8-.068 1.886-.24 2.413-.38.527-.142 1.265-.5 1.642-.796.46-.361.628-.686.514-.99-.094-.25-.356-.607-.584-.794-.227-.187-.66-.514-.963-.728-.302-.214-1.238-.516-2.08-.671-1.114-.206-2.023-.2-3.344.023-1.25.21-2.15.55-2.897 1.09-.794.576-1.062.941-1.001 1.367.05.358.441.757 1.016 1.039.513.25 1.585.57 2.381.71.796.14 2.103.199 2.903.13zm-.683-1.43c-.465 0-1.123-.224-1.462-.498-.516-.419-.56-.565-.275-.91.187-.225.668-.482 1.07-.57.4-.088 1.05-.038 1.443.112.393.149.79.469.883.71.104.271-.02.577-.322.798-.27.197-.871.359-1.337.359z" id="path1196-1-4-5" fill="#212121" stroke-width=".265"></path></g></g></svg>