<svg xmlns="http://www.w3.org/2000/svg" width="93" height="95" viewBox="0 0 24.836 25.249"><title>ryza2 race unknown3</title><g fill="#212121" class="nc-icon-wrapper"><g transform="translate(-310.31 -216.264)"><path d="M322.854 241.512c-.108 0-.31-.107-.448-.239-.138-.131-1.144-.543-2.235-.914-1.092-.372-2.223-.717-2.514-.767-.45-.077-.4-.16.33-.547.474-.251.86-.662.858-.913 0-.25-.178-1.033-.392-1.74-.277-.913-.312-1.427-.12-1.785.148-.277.503-.503.789-.503.286 0 .52-.098.52-.218s-.298-.498-.662-.84c-.364-.342-.661-.781-.661-.976 0-.195-.14-.577-.31-.85-.253-.406-.169-.769.471-2.027.43-.843.912-1.576 1.072-1.63.187-.062.402.877.6 2.627.17 1.498.408 2.902.531 3.12.14.248.534.372 1.046.33.453-.037.823.03.823.148s-.175.446-.389.729c-.213.282-.397.93-.408 1.44-.011.509-.192 1.401-.402 1.984-.381 1.055-.38 1.06.475 1.767l.856.71.794-.62c.461-.36.764-.823.724-1.106-.038-.268-.194-1.201-.346-2.074-.152-.873-.389-1.701-.526-1.84-.137-.137-.249-.478-.249-.755 0-.35.127-.456.416-.345.229.088.646.037.926-.113.368-.197.51-.557.51-1.29 0-.559.191-1.864.425-2.9.241-1.067.537-1.813.684-1.722.142.088.476.669.743 1.292s.621 1.216.786 1.318c.217.134.186.362-.11.814-.226.345-.411.761-.411.926 0 .164-.238.6-.53.97-.29.37-.529.762-.529.871 0 .11.238.26.528.336.29.076.606.341.701.59.095.247-.023 1.072-.263 1.833-.24.761-.436 1.52-.436 1.685 0 .165.387.506.86.757.732.389.781.47.33.551-.29.053-1.396.403-2.455.78-1.06.376-1.99.786-2.066.91-.077.125-.228.226-.336.226zm-2.495-3.704c.057 0 .276-.413.487-.917.21-.505.383-1.166.383-1.47 0-.51-.052-.494-.653.19l-.653.742-.01-1.045c-.01-.815-.078-.975-.328-.726-.248.249-.21.638.176 1.772.272.8.54 1.454.597 1.454zm5.127-.812c.266-.5.488-1.235.494-1.635.01-.4-.097-.728-.228-.728-.132 0-.181.225-.11.5.072.274-.018.59-.2.703-.204.126-.524-.036-.839-.424l-.51-.629.19 1.05c.105.577.31 1.279.455 1.56.243.469.304.436.748-.397zm-8.652 2.135c-.045 0-.327-.262-.625-.582-.299-.32-.741-1.212-.984-1.982-.33-1.046-.379-1.645-.195-2.374.135-.536.375-1.017.533-1.068.158-.052.478.356.711.905.233.55.473 1.923.533 3.05.06 1.129.072 2.051.027 2.051zm11.858-.052c-.25.076-.294-.09-.163-.611.1-.394.197-1.388.219-2.21.023-.876.24-1.868.526-2.403.46-.86.507-.883.851-.412.2.274.364.99.364 1.59 0 .67-.28 1.644-.727 2.518-.4.783-.882 1.471-1.07 1.528zm-14.599-2.165c-.13 1.753-.177 1.87-.674 1.685-.294-.11-.704-.517-.912-.906-.304-.568-.318-.875-.07-1.553.28-.766.273-.797-.08-.332-.213.283-.388.61-.388.728s-.268.212-.596.21c-.327-.002-.755-.105-.95-.23-.27-.17-.077-.503.802-1.384.637-.638 1.392-1.315 1.679-1.504.286-.188.341-.29.123-.223-.218.065-.596.2-.84.297-.277.112-.646-.026-.991-.371-.303-.302-.55-.717-.55-.922 0-.232.184-.324.49-.244.27.07 1.007-.01 1.638-.18.633-.171 1.528-.69 1.997-1.159.467-.467.998-1.346 1.18-1.952.267-.894.265-1.182-.014-1.517-.308-.372-.401-.36-.916.124-.315.296-.701.538-.858.538-.157 0-.656-.346-1.108-.768-.452-.422-.821-.901-.821-1.065 0-.194.283-.151.811.122.446.23 1.012.367 1.257.302.328-.087.296-.125-.124-.148-.353-.02-.78-.388-1.124-.972-.306-.518-.556-1.134-.556-1.369 0-.362.091-.345.596.108.327.295.773.632.992.75.218.118.138-.073-.177-.423-.316-.351-.763-1.37-.993-2.264-.23-.894-.417-1.847-.417-2.117s.302.102.669.825c.367.724.974 1.636 1.348 2.026.374.39 1.083.786 1.575.878.594.112 1.132.48 1.601 1.094.461.604.75 1.367.829 2.194.082.85-.015 1.523-.294 2.04-.228.424-.956 1.366-1.618 2.094-.662.728-1.467 1.859-1.79 2.514-.36.734-.638 1.912-.725 3.074zm17.516 1.953c-.125 0-.234-.76-.243-1.69-.012-1.236-.202-2.095-.71-3.204-.381-.834-1.344-2.218-2.138-3.076-.964-1.04-1.505-1.877-1.623-2.51-.098-.524-.04-1.41.13-1.98.17-.568.633-1.333 1.027-1.7.395-.368 1.145-.785 1.668-.926.522-.142 1.138-.467 1.368-.722.23-.255.731-1.09 1.114-1.853.383-.764.74-1.39.794-1.39.053 0 0 .388-.122.86-.121.473-.295 1.303-.387 1.845-.092.541-.47 1.345-.841 1.786-.371.44-.609.801-.528.801.081 0 .584-.384 1.119-.853.94-.825.965-.832.775-.199-.108.36-.397 1.008-.641 1.44-.245.43-.738.865-1.097.965l-.652.182.668.026c.368.015.941-.164 1.274-.397.333-.233.654-.375.713-.316.06.06-.254.548-.697 1.085-.444.538-.998.978-1.233.978-.235 0-.684-.242-1-.538-.494-.465-.615-.486-.892-.153-.241.29-.25.648-.033 1.453.158.587.674 1.477 1.147 1.978.513.545 1.314 1.034 1.99 1.216.622.167 1.353.234 1.625.148.272-.086.562-.047.645.087.083.135-.103.567-.414.962-.457.58-.711.689-1.332.565-.473-.095-.706-.054-.607.107.089.143.451.26.807.26.355 0 .645.11.645.244 0 .135.318.622.705 1.082.577.685.637.881.331 1.075-.206.13-.56.239-.786.24-.227.003-.548-.322-.714-.723-.227-.55-.297-.598-.285-.198.01.291 0 .802-.014 1.136-.017.334-.322.9-.68 1.257-.357.357-.751.65-.876.65zm-14.327-4.233c-.134 0-.506-.425-.827-.944l-.583-.944.747-.78c.66-.687.793-.733 1.138-.388.317.316.332.52.08 1.074-.172.376-.312.976-.312 1.333s-.11.649-.243.649zm10.898 0c-.2 0-.336-.331-.336-.811 0-.447-.131-1.056-.29-1.354-.228-.424-.2-.634.125-.96.23-.228.45-.363.489-.3.04.065.36.443.711.842l.639.725-.5.929c-.276.51-.652.929-.838.929zm-6.874-2.062c-.266.579-.286.564-.424-.32-.08-.509-.286-1.803-.458-2.876l-.313-1.95.963-.96c.776-.773 1.01-.886 1.201-.58.153.245.103.572-.14.919-.207.296-.373.72-.368.942.01.291.154.23.53-.22l.52-.625.52.625c.375.45.523.511.529.22.01-.222-.184-.679-.419-1.014-.287-.41-.34-.698-.16-.877.18-.18.496-.117.967.192.385.252.815.673.955.934.173.323.127.967-.143 2.003-.218.84-.397 2.03-.397 2.646 0 .616-.106 1.185-.235 1.264-.129.08-.3-.107-.381-.415-.11-.42-.268-.51-.625-.363-.264.11-.598.198-.744.198-.145 0-.452-.078-.682-.174-.282-.118-.509.022-.696.431zm-.983-6.275l-1.21.924v-.8c0-.442-.206-1.115-.456-1.498-.25-.382-.42-1.033-.377-1.446.043-.412-.038-.75-.18-.75s-.373-.327-.513-.728c-.14-.4-.65-1.114-1.134-1.587-.485-.473-1.106-.86-1.382-.86-.28 0-.454-.145-.395-.33.059-.183.694-.722 1.412-1.199.717-.477 1.96-1.072 2.76-1.323.996-.312 2.289-.449 4.1-.435 2.068.015 2.973.147 4.14.603.822.322 1.982.939 2.58 1.371.597.433 1.086.905 1.086 1.05 0 .145-.17.263-.377.263s-.759.322-1.226.715c-.468.394-1.014 1.108-1.215 1.588-.2.48-.496.872-.658.872-.184 0-.236.29-.14.772.109.542 0 .968-.364 1.43-.285.363-.518 1.052-.518 1.531v.872l-1.003-.98c-.552-.538-1.243-.98-1.535-.98-.292 0-.66.13-.819.288-.207.208-.337.208-.465 0-.098-.158-.34-.287-.539-.287-.198 0-.906.416-1.572.924zm.932-1.891c.36-.36.556-.894.556-1.515 0-.528.107-1.025.238-1.106.131-.081.238-.256.238-.388 0-.133-.178-.172-.397-.089-.218.084-.396.05-.395-.074 0-.125.238-.617.529-1.093.29-.477.528-1.05.528-1.273 0-.223.12-.33.269-.24.148.092.214.255.147.363-.067.109.11.547.391.974.282.428.513.94.514 1.137.001.213-.162.296-.401.204-.325-.125-.35-.057-.133.351.15.278.271.891.271 1.362 0 .471.194 1.072.432 1.334.415.459.46.457 1.168-.047.518-.37.79-.85.923-1.632.158-.94.102-1.176-.37-1.558l-.556-.45.657-.431c.361-.237.657-.652.657-.921 0-.27-.177-.638-.394-.818-.216-.18-.562-.261-.769-.182-.206.079-.583-.086-.838-.367-.344-.38-.815-.512-1.836-.512-1.04 0-1.49.13-1.855.533-.277.306-.673.473-.93.391-.246-.078-.597.038-.779.257-.184.222-.26.681-.172 1.033.087.348.418.701.736.784l.577.151-.616.5c-.596.482-.604.54-.244 1.773.228.778.553 1.322.836 1.397.254.067.463.254.463.415 0 .16.25.042.555-.263z" id="path1215-45" fill="#212121" stroke-width=".265"></path></g></g></svg>