<svg xmlns="http://www.w3.org/2000/svg" width="84" height="92" viewBox="0 0 22.268 24.409"><title>ryza2 race weasel king</title><g fill="#212121" class="nc-icon-wrapper"><g transform="translate(-351.841 -245.108)"><path d="M357.591 268.97c-.262.624-.357.687-.496.326-.094-.245-.115-1.12-.047-1.945s.058-1.288-.02-1.029c-.112.362-.4.084-1.24-1.19-.894-1.359-1.096-1.896-1.103-2.938-.01-1.184-.03-1.224-.3-.564-.208.51-.332.601-.44.323-.081-.214-.028-.95.118-1.638.217-1.017.348-1.213.704-1.055.241.107.914.234 1.496.283.98.083.952.06-.375-.313-.789-.222-1.8-.63-2.249-.908-.448-.278-1.036-.88-1.306-1.34l-.492-.833.69-.72c.38-.396.69-.868.69-1.05 0-.18.176-.67.392-1.088.216-.418.944-1.212 1.618-1.764.943-.773 1.48-1.014 2.334-1.048.854-.034 1.298-.233 1.933-.869.572-.571 1.08-.825 1.652-.825.524 0 1.063-.237 1.475-.65l.65-.649.01.848.01.848.4-.924c.221-.509.66-1.2.978-1.538.317-.338.972-.858 1.455-1.157.483-.298.918-.5.968-.446.049.053-.031.75-.18 1.551-.147.8-.392 1.797-.545 2.214-.152.418-.612.963-1.021 1.212-.446.271-1.067.405-1.55.334-.673-.099-.781-.211-.654-.682.15-.55.145-.55-.16-.035-.171.291-.616.857-.987 1.257-.372.4-.786.727-.92.727-.133 0-.17-.178-.082-.397l.309-.762c.12-.296-.068-.325-.992-.151-.628.118-1.32.284-1.538.368-.218.085-.62.48-.891.88-.272.398-1.243 1.2-2.157 1.782-.914.582-1.62 1.103-1.568 1.157.052.054.637-.22 1.3-.609.664-.389 1.316-.64 1.448-.557.133.082.517-.34.854-.939.336-.598.934-1.255 1.329-1.46.394-.203.961-.37 1.26-.37.298 0 .542.096.542.214s-.15.42-.335.671c-.183.252-.809.626-1.389.833-.973.346-.996.376-.3.387.494.008 1.063.321 1.653.911.495.495.9.82.9.72 0-.098-.186-.443-.412-.767-.227-.323-.375-.596-.33-.606.044-.01.497-.088 1.006-.174.51-.087 1.284-.149 1.72-.138.437.01 1.4.102 2.14.204 1.009.139 1.552.078 2.177-.245.644-.334 1.098-.99 2.014-2.91.65-1.364 1.492-2.723 1.87-3.02.378-.298 1.048-.62 1.488-.717.44-.097.88-.095.98.003.098.098-.02.318-.265.488-.243.17-.838.536-1.322.814-.855.49-.863.509-.261.663l.618.159-.817.728c-.449.4-.817.854-.817 1.008 0 .164.23.207.557.103l.557-.176-.54.754c-.298.415-.672 1.26-.832 1.877-.207.803-.21 1.276-.01 1.654.163.304.554.53.917.53.348 0 .812-.178 1.03-.396.219-.219.465-.397.548-.397.083 0 .152.24.152.533 0 .317-.348.745-.86 1.057-.473.288-1.098.528-1.39.533-.486.008-.491.031-.065.28.254.147.463.382.463.52 0 .139-.31.252-.69.252-.61 0-.67.08-.52.682.15.598.105.661-.368.512-.44-.14-.539-.055-.539.464 0 .349-.08.715-.179.813-.098.098-.395-.15-.66-.551-.264-.401-.481-.975-.482-1.274-.001-.3.153-.757.342-1.015.189-.259.754-.567 1.256-.685l.914-.215-.841-.027c-.62-.02-.99.163-1.41.697-.39.495-.535.977-.457 1.522.062.438.21 1.019.326 1.29.182.422.14.456-.29.235-.277-.143-1.007-.324-1.623-.402-1.025-.13-1.098-.101-.86.343.143.268.256.822.25 1.231-.01.41-.18 1.043-.387 1.407-.208.364-.382 1.104-.388 1.645-.01.718-.106.947-.369.846-.197-.076-.513-.425-.701-.776-.188-.352-.443-.576-.566-.5-.124.076-.229.4-.233.719 0 .318-.154.767-.331.996-.177.23-.651.63-1.053.892-.402.262-.802.758-.888 1.103-.087.345-.25.57-.365.5-.113-.07.018-.985.293-2.031.275-1.047.5-2.12.5-2.384 0-.265-.12-.481-.265-.481-.145 0-.264.488-.264 1.084 0 .597-.193 1.491-.429 1.987-.235.497-.905 1.28-1.488 1.743-.583.461-1.206 1.187-1.385 1.612zm-.484-3.847a2.158 2.158 0 0 0 0-.926c-.067-.255-.121-.046-.121.463 0 .51.054.718.12.463zm3.667-4.167c.08 0 .318-.413.53-.918.21-.504.373-1.19.362-1.521-.012-.332-.061-.485-.11-.34-.048.146-.167.622-.265 1.059l-.177.793-.393-.661c-.217-.364-.326-.443-.243-.177.083.267.15.773.15 1.125s.066.64.146.64zm3.856-.96c.107-.273.203-1.007.213-1.633.01-.626-.162-1.487-.383-1.914-.22-.427-.774-.969-1.23-1.205-.779-.402-.762-.365.269.616 1 .951 1.098 1.162 1.092 2.343l-.01 1.297-.492-1.084c-.27-.596-.712-1.168-.98-1.271-.427-.164-.417-.111.076.423.31.335.717 1.13.905 1.766.272.922.38 1.056.536.662zm-11.791-3.009c.064 0 .116-.12.116-.265 0-.145-.126-.264-.28-.264-.154 0-.206.119-.116.264.09.146.216.265.28.265zm4.747-.466c.582-.073 1.328-.378 1.659-.678.483-.44.535-.61.264-.87-.185-.178-.634-.347-.997-.375a7.76 7.76 0 0 0-.972-.022c-.17.016-.677.338-1.125.715-.447.376-.814.784-.814.906s.209.275.463.339c.255.064.94.057 1.522-.015zm9.128-1.94c.364.007 1.151-.21 1.75-.482.6-.272 1.264-.743 1.477-1.047.214-.305.336-.897.274-1.323l-.114-.772-.966 1.07c-.531.59-1.323 1.227-1.76 1.418-.436.19-.615.35-.397.353.219.004.895-.277 1.504-.625.611-.35 1.049-.483.978-.299-.071.184-.39.47-.71.636-.32.165-1.057.471-1.64.68-.853.305-.93.38-.396.391zm4.275 5.586c-.435.53-.442.528-.77-.185-.182-.396-.33-.887-.33-1.092 0-.266.19-.325.661-.207.401.1.661.053.661-.12 0-.159-.123-.518-.273-.8-.252-.469-.18-.51.86-.503.908.007 1.04.062.664.28-.444.26-.44.311.074.964.421.535.467.74.205.906-.187.118-.558.217-.826.219-.267.002-.684.244-.926.538zm-10.295-7.585c-.473.069-.86.032-.86-.083s.347-.278.77-.362c.425-.085 1.074-.457 1.444-.827.408-.408.972-.673 1.432-.673.469 0 .998.254 1.381.661l.622.662-1.038.002c-.571 0-1.455.112-1.965.248-.509.136-1.313.303-1.786.373z" id="path1215-9-6" fill="#212121" stroke-width=".265"></path></g></g></svg>