<svg xmlns="http://www.w3.org/2000/svg" width="72" height="68" viewBox="0 0 19.054 18.223"><title>ryza2 category tools</title><g fill="#212121" class="nc-icon-wrapper"><g transform="translate(-12.105 232.744)"><path d="M28.94-214.524a12.042 12.042 0 0 1-1.423-.15c-.384-.075-.65-.366-.75-.824a34.04 34.04 0 0 0-.564-2.033c-.224-.727-.997-2.543-1.718-4.035-.72-1.491-1.474-2.712-1.674-2.712-.2 0-1.002.626-1.782 1.39-.845.827-1.733 2.052-2.195 3.029-.427.902-.861 1.646-.966 1.654-.105.007-.782-.864-1.506-1.936a130.534 130.534 0 0 1-2.786-4.375c-.809-1.334-1.47-2.481-1.47-2.549 0-.068.386-.124.859-.126.473-.002 1.481-.169 2.24-.37.76-.203 2.156-.746 3.104-1.208.948-.462 2.502-1.545 3.454-2.407.951-.863 1.776-1.568 1.831-1.568.056 0 .487.684.957 1.521.47.837 1.21 1.973 1.644 2.526.435.552.746 1.035.692 1.072-.053.037-.425.273-.825.523-.45.282-.728.687-.728 1.063 0 .335.328 1.221.728 1.97.4.75 1.71 2.801 2.912 4.56l2.185 3.199-.695.911c-.55.72-.868.904-1.523.875zm-11.127-4.99c.01 0 .583-.826 1.272-1.834.689-1.008 2.05-2.519 3.023-3.356.974-.838 1.89-1.638 2.036-1.778.17-.164.124-.176-.133-.034-.218.12-1.017.674-1.774 1.229-.758.555-1.443 1.01-1.522 1.01-.079 0-.155-.388-.17-.86-.014-.473-.121-1.158-.238-1.522-.186-.58-.221-.596-.288-.132-.042.29-.083 1.232-.092 2.09-.012 1.075-.13 1.602-.38 1.687-.295.102-.341-.326-.25-2.29.062-1.327.04-2.413-.05-2.413-.089 0-.39.167-.67.372-.447.327-.525.82-.646 4.101-.076 2.051-.129 3.73-.118 3.73zm3.565-11.787c-.564.54-.806.65-.806.367 0-.223.231-.615.514-.87.282-.256.645-.421.806-.368.161.054-.07.446-.514.87z" id="path1196-1-04" fill="#212121" stroke-width=".265"></path></g></g></svg>