<svg xmlns="http://www.w3.org/2000/svg" width="91" height="97" viewBox="0 0 24.3 25.797"><title>ryza2 type buff</title><g fill="#212121" class="nc-icon-wrapper"><g transform="translate(89.143 21.437)"><path d="M-80.233 4.36c-.186 0-.48-.143-.655-.317-.175-.175-.318-.569-.318-.876 0-.307.355-1.98.788-3.718.647-2.593.76-3.476.625-4.93l-.163-1.771-1.683-1.487c-.926-.818-1.682-1.688-1.68-1.933 0-.245.345-1.041.765-1.769.42-.727 1.067-1.606 1.439-1.951.392-.365.849-.563 1.087-.472a.69.69 0 0 1 .41.596c0 .242-.354 1.135-.786 1.985l-.786 1.547.854.651c.47.358 1.21.837 1.646 1.064.435.228 1.218.414 1.738.415.614.001 1.373-.28 2.157-.8.666-.44 1.341-.959 1.5-1.151.218-.262.13-.654-.35-1.555-.351-.662-.663-1.424-.691-1.692a5.4 5.4 0 0 1-.02-.838c.017-.205.275-.314.625-.265.389.056.985.666 1.72 1.763.618.922 1.124 1.947 1.124 2.276 0 .398-.577 1.131-1.72 2.185l-1.72 1.587v2.013c0 1.3.241 2.947.68 4.648.373 1.45.64 3.09.595 3.647-.058.696-.223 1.038-.53 1.096-.251.048-.64-.21-.887-.588-.243-.37-.776-1.676-1.185-2.903-.41-1.226-.885-2.491-1.056-2.811-.171-.32-.41-.48-.529-.355-.12.125-.597 1.358-1.061 2.74-.464 1.383-1.013 2.842-1.22 3.242-.207.4-.528.727-.713.727zm10.651-.386c-.135.084-.247.042-.247-.094s.89-1.416 1.978-2.845c1.088-1.428 1.933-2.642 1.879-2.696-.054-.054-.6.036-1.21.2-.612.165-1.15.262-1.197.215-.047-.047.372-1.453.932-3.125.559-1.672.978-3.078.932-3.125-.047-.046-.808.28-1.692.726-.883.447-1.664.812-1.735.812-.07 0 .046-.492.257-1.092.212-.6.386-1.208.386-1.351 0-.143-.179-.188-.397-.1l-.793.322c-.259.104.06-.865.913-2.778.72-1.617 1.24-2.939 1.155-2.939-.085 0-.555.248-1.046.55l-.89.552v-.701c0-.56-.099-.67-.486-.547-.45.143-.477 0-.363-1.967.067-1.166.05-2.12-.04-2.12s-.578.446-1.085.992l-.923.992-.007-.712c-.004-.392-.112-.777-.24-.856-.13-.08-.382.21-.562.645-.18.435-.417.79-.527.79-.11 0-.275-.38-.368-.845a35.417 35.417 0 0 0-.44-1.852c-.15-.553-.356-1.002-.46-.997-.103.005-.66.776-1.238 1.712l-1.05 1.703-.569-.535-.57-.536-.141.543c-.079.299-.243.543-.366.542-.122 0-.64-.655-1.149-1.454-.51-.799-1.015-1.453-1.124-1.454-.11 0-.199 1.203-.199 2.675v2.676l-.644-.422c-.622-.408-.647-.399-.728.253l-.083.675-1.1-.945c-.606-.52-1.163-.944-1.238-.944-.076 0 .449 1.751 1.166 3.892.717 2.141 1.304 3.995 1.304 4.12 0 .124-.372-.04-.827-.364l-.828-.589.11.947.111.946-1.201-.685c-.66-.377-1.353-.801-1.538-.942-.186-.142-.383-.21-.438-.153-.055.057.406 1.496 1.025 3.199l1.125 3.095-.753.08-.754.08L-85.9.174c.909 1.117 1.88 2.427 2.157 2.91l.505.88-.737-.662c-.405-.364-1.555-1.715-2.555-3.003-1-1.287-1.818-2.448-1.818-2.58 0-.13.297-.238.661-.238.364 0 .662-.124.662-.276 0-.151-.477-1.664-1.059-3.36-.582-1.697-1.058-3.131-1.058-3.187 0-.056.764.325 1.697.847s1.746.949 1.806.949c.06 0 .055-.37-.011-.822-.107-.727-.059-.803.412-.654.524.167.523.132-.09-2.021-.344-1.206-.857-2.995-1.142-3.977-.285-.983-.458-1.786-.386-1.786.073 0 .697.476 1.388 1.058.69.582 1.336 1.058 1.436 1.058.1 0 .182-.252.182-.561 0-.473.063-.51.403-.227.222.184.45.288.506.23.056-.056.202-1.352.324-2.877l.222-2.775 1.304 1.83c1.21 1.698 1.323 1.788 1.562 1.253.142-.317.362-.577.49-.577s.3.179.385.397c.083.218.24.397.35.397.108 0 .774-.863 1.478-1.918l1.282-1.919.442 1.927c.243 1.06.503 1.99.579 2.065.076.075.419-.315.763-.869l.625-1.006.083.86c.046.473.16.86.255.86.094 0 .691-.506 1.326-1.125l1.155-1.124-.19 2.49c-.176 2.311-.157 2.477.276 2.311.385-.147.444-.063.339.487-.075.39-.006.662.166.657.162-.005.77-.302 1.353-.66.582-.359 1.14-.653 1.24-.654.1 0-.347 1.207-.992 2.683-.646 1.476-1.174 2.8-1.174 2.94 0 .14.3.179.672.086.659-.166.665-.154.298.566-.206.405-.459 1.01-.563 1.346-.185.602-.164.599 1.449-.216.9-.454 1.687-.776 1.748-.715.061.062-.367 1.522-.953 3.246-.585 1.725-1.064 3.213-1.064 3.307 0 .095.617.012 1.37-.183.753-.195 1.427-.299 1.496-.23.07.07-.912 1.496-2.181 3.168-1.27 1.673-2.419 3.11-2.554 3.194zm-1.702-4.112h-1.455v-1.587c0-.948-.114-1.588-.282-1.588-.156 0 .162-.543.706-1.206l.99-1.207.986 1.14c.543.628.88 1.18.749 1.23-.131.048-.239.792-.239 1.653v1.565zM-83.19-.93h-.926v-1.301c0-.804-.126-1.343-.33-1.411-.222-.074-.078-.44.444-1.125l.774-1.014.747.894c.41.492.746.988.746 1.102 0 .115-.119.209-.264.209-.146 0-.265.595-.265 1.323v1.323zm6.059-8.467a2.105 2.105 0 0 1-1.573-.65c-.449-.448-.65-.943-.65-1.599s.201-1.151.65-1.6c.441-.44.945-.649 1.573-.649.59 0 1.186.227 1.653.628.576.495.723.842.7 1.646-.021.751-.212 1.176-.73 1.621a2.556 2.556 0 0 1-1.623.603z" id="path1042-9" fill="#212121" stroke-width=".265"></path></g></g></svg>