<svg xmlns="http://www.w3.org/2000/svg" width="87" height="84" viewBox="0 0 23.237 22.336"><title>ryza2 race roadrunner</title><g fill="#212121" class="nc-icon-wrapper"><g transform="translate(-305.055 -246.144)"><path d="M312.279 268.48c-.218 0-.464-.176-.547-.391-.111-.291-.275-.325-.635-.133-.267.143-.68.26-.916.26-.255 0-.354-.123-.242-.303.102-.166.177-.642.165-1.058l-.022-.756h1.834c1.724 0 1.895-.055 2.858-.926.564-.509 1.1-.926 1.192-.926.09 0 .162.387.158.86 0 .473-.167 1.069-.36 1.323-.193.255-.534.463-.757.463-.223 0-.48.192-.57.427-.104.272-.355.377-.693.289-.348-.092-.621.034-.8.366-.148.278-.448.506-.666.506zm-5.888-1.602c-.479.787-.55.822-.78.375-.14-.27-.33-.813-.423-1.206-.109-.454.03-1.224.379-2.117.302-.771.671-1.521.82-1.667.182-.178.41-.06.695.36.232.344.876.91 1.43 1.26.553.35 1.006.81 1.006 1.022 0 .212-.387.507-.86.656-.743.233-.76.257-.132.176.483-.062.728.028.728.267 0 .198-.09.368-.199.378-.11.01-.552.064-.984.12-.432.057-.868-.03-.969-.194-.113-.184-.385.034-.71.57zm1.143-.779a.133.133 0 1 0 0-.265.133.133 0 0 0 0 .265zm3.73-.264c-1.38 0-1.45-.033-1.53-.727-.058-.5-.393-.927-1.072-1.365-.544-.35-1.139-.976-1.322-1.39-.183-.413-.415-.751-.517-.751-.101 0-.258.119-.348.264-.09.146-.265.265-.39.265s-.426-.52-.669-1.157c-.243-.636-.401-1.44-.353-1.786.057-.404.242-.604.516-.56.311.05.4-.093.325-.529-.056-.33.014-.776.157-.993.207-.314.327-.328.589-.066.18.18.423.328.54.328.116 0 .211-.155.211-.345 0-.19.38-.874.846-1.52a33.673 33.673 0 0 1 1.916-2.368c.59-.655 1.876-1.886 2.859-2.736.983-.85 1.788-1.393 1.788-1.208 0 .185.385-.166.857-.78.85-1.105.859-1.109 1.073-.467.136.41.599.8 1.265 1.067.577.23 1.25.42 1.497.42.246 0 .715-.328 1.043-.728.503-.614.597-.65.605-.232.01.422.072.444.43.147.23-.191.61-.826.844-1.41l.425-1.064.372.911c.205.502.598 1.23.875 1.618.277.39.503.77.503.845 0 .076-.208.193-.463.26-.271.07-.147.133.3.151.514.02 1.067.354 1.697 1.022.514.545 1.154 1.487 1.422 2.093.268.606.544 1.678.612 2.382l.125 1.28-.267-1.085c-.147-.598-.686-1.577-1.199-2.176-.583-.681-1.669-1.453-2.898-2.06-1.832-.906-2.078-.96-3.612-.8-.905.094-2.128.42-2.716.725-.589.304-1.279.739-1.533.965-.255.227-.463.733-.463 1.124 0 .392-.239.928-.53 1.191-.29.263-.529.71-.529.992 0 .283-.246.86-.547 1.282-.336.472-.424.769-.23.769.176 0 .765-.134 1.31-.297.624-.187 1.252-.21 1.692-.064l.7.234-.806 1.27c-.443.7-.737 1.384-.653 1.52.084.136.325.247.534.247.21 0 .381.125.381.277 0 .152-.303.58-.673.95-.543.543-.612.748-.356 1.057.259.311.149.562-.583 1.33-.495.521-1.284 1.112-1.752 1.313-.469.2-1.503.365-2.298.365zm-.82-1.852c.306 0 .699-.143.873-.318.175-.174.318-.754.318-1.287 0-.58.22-1.25.548-1.667.302-.383.437-.697.302-.697-.136 0-.71.309-1.276.686-.566.378-1.235.943-1.487 1.257-.251.314-.46.755-.463.98 0 .226.137.554.312.728.175.175.568.318.873.318zm-2.618-4.498c.23-.51.897-1.551 1.484-2.315.586-.764 1.17-1.39 1.299-1.39.127 0 .232.244.232.541 0 .369.148.516.463.464.368-.062.448.085.39.716-.057.607-.012.7.194.396.147-.218.27-.664.272-.992 0-.342-.157-.595-.375-.595-.209 0-.455-.238-.547-.53-.092-.29-.315-.528-.495-.528s-.689.387-1.131.86a16.701 16.701 0 0 0-1.342 1.653c-.296.437-.611 1.21-.7 1.72l-.162.926zm5.163-6.479a83.058 83.058 0 0 1 3.937-2.043l2.25-1.085-1.168-.27c-.944-.219-1.426-.18-2.514.199-.74.258-1.911.827-2.602 1.265-.692.437-1.259.991-1.26 1.23 0 .24-.078.712-.168 1.048-.157.587-.092.572 1.525-.344zm4.951 12.665c-.194.056-.546.05-.783-.013-.264-.07-.495-.513-.595-1.138-.09-.564-.096-1.2-.014-1.415.083-.216.017-.474-.147-.575-.192-.118-.013-.455.509-.953.443-.423 1.081-.77 1.418-.77.338 0 .83.159 1.094.352.457.334.446.387-.214 1.047-.382.382-.694.81-.694.953 0 .143-.236.334-.525.425-.506.161-.501.193.132.876.362.39.657.799.657.91 0 .11-.11.2-.243.2s-.401.046-.595.101zm-.43-5.158a10.265 10.265 0 0 1-.645-.151c-.417-.11-.401-.233.186-1.392.355-.699.839-1.346 1.075-1.436.237-.091.838-.166 1.336-.166.497 0 .904.045.904.1 0 .054-.297.63-.66 1.279-.363.65-.964 1.32-1.335 1.489-.372.169-.76.293-.862.277zm-1.56-3.712c-.773 0-1.405-.12-1.405-.266 0-.146.348-.614.774-1.04.607-.606 1.01-.773 1.874-.773.605 0 1.052.09.992.199-.06.109-.271.577-.47 1.04-.341.793-.44.84-1.765.84z" id="path1215-9-1" fill="#212121" stroke-width=".265"></path></g></g></svg>