<svg xmlns="http://www.w3.org/2000/svg" width="83" height="84" viewBox="0 0 22.043 22.302"><title>ryza2 race unknown2</title><g fill="#212121" class="nc-icon-wrapper"><g transform="translate(-338.016 -218.906)"><path d="M345.323 240.504l-.882.705-.121-.826c-.067-.455 0-1.158.157-1.563.224-.594.19-.834-.172-1.234-.248-.274-.45-.577-.45-.675 0-.098.285-.178.633-.178.348 0 .706-.188.794-.418.088-.23.16-.702.16-1.05 0-.346.34-1.021.754-1.499.415-.478.832-1.187.926-1.575.099-.408.562-.947 1.098-1.278.72-.445.927-.747.927-1.354 0-.53.279-1.06.87-1.65.478-.48 1.014-1.352 1.19-1.94.177-.59.32-1.398.32-1.797 0-.632.082-.705.632-.567.563.141.675.024 1.043-1.092.361-1.1.364-1.303.024-1.679-.352-.389-.238-.444 1.245-.599.898-.094 2.522-.17 3.61-.17h1.978l-.394.593c-.243.366-.817.676-1.503.812-.743.147-1.174.395-1.306.751-.108.293-.786.85-1.506 1.24l-1.309.707.091 1.794c.068 1.348-.019 1.961-.352 2.469-.243.371-.39.729-.324.794.065.065.488-.303.939-.817.452-.514 1.015-.935 1.251-.935.237 0 .775-.203 1.196-.452.759-.449.772-.445 1.694.449.511.495.93.996.93 1.113 0 .117-.468.213-1.038.213-.967 0-1.06.068-1.357.992-.175.546-.5 1.2-.723 1.455-.222.255-.542.463-.71.463-.167 0-.536.175-.818.39-.458.347-.384.353.677.055.972-.272 1.276-.514 1.655-1.315.312-.657.643-.982 1.002-.982.385 0 .683.342 1.056 1.213.286.667.52 1.434.52 1.704s-.106.557-.235.636c-.129.08-.371-.02-.538-.221-.168-.202-.518-.311-.779-.243-.376.099-.536.59-.777 2.391-.167 1.247-.347 2.312-.401 2.365-.054.054-.602-.08-1.219-.297-.994-.35-1.207-.35-1.884 0-.638.329-.793.612-.94 1.715-.095.726-.248 1.317-.339 1.312-.09-.005-.364-.16-.61-.347-.244-.186-.505-.629-.577-.984a48.03 48.03 0 0 1-.272-1.484c-.127-.768-.033-.907 1.116-1.644.893-.574 1.441-.76 1.907-.646.36.088.921.402 1.249.698.327.297.595.421.595.278 0-.144-.334-.581-.742-.972s-1.036-.711-1.394-.711c-.358 0-1.105.308-1.66.685l-1.008.685-1.328-.571c-.73-.315-1.387-.513-1.46-.44-.071.072.238.321.688.554.45.233.818.532.818.665s-.446.279-.992.324c-.866.072-1.003.176-1.077.823-.057.494-.297.822-.72.983-.35.133-.705.52-.79.858-.085.34-.552.934-1.037 1.321zm1.509-4.904c.38-.258.569-.622.523-1.008-.04-.332-.126-.658-.192-.724-.066-.066-.302.03-.524.214-.221.184-.403.692-.403 1.128 0 .767.021.78.596.39zm1.242-1.777c.137 0 .543-.268.901-.595.37-.337.728-1.038.826-1.614.136-.8.099-.975-.174-.816-.192.11-.676.428-1.076.705-.554.384-.727.72-.727 1.412 0 .5.112.908.25.908zm4.38-.054l1.587-.017-1.323-.206c-.727-.113-1.68-.208-2.116-.21-.675-.004-.715.029-.265.222.291.125 1.244.22 2.117.211zm-1.257-2.181c.4-.097 1.204-.304 1.786-.461.582-.158.92-.336.751-.397-.169-.06-.972.083-1.786.32-.813.236-1.478.493-1.478.571 0 .079.327.064.727-.033zm-7.523 8.84c-.119-.005-.528-.273-.909-.595-.55-.466-.722-.897-.84-2.107-.096-.987-.05-1.522.131-1.522.175 0 .228-.423.143-1.124-.076-.619-.223-1.333-.327-1.588-.135-.327-.066-.463.235-.463.292 0 .425-.238.425-.761 0-.419-.18-1.192-.4-1.718-.336-.806-.35-1.255-.087-2.85.243-1.468.51-2.135 1.189-2.978.482-.597 1.541-2.006 2.354-3.13 1.215-1.682 1.652-2.09 2.453-2.288a92.828 92.828 0 0 1 1.531-.367c.307-.07.753-.017.992.117.24.134.435.337.435.453 0 .115-.727.43-1.614.698-.943.286-1.762.715-1.969 1.034-.195.3-1.067 1.915-1.94 3.588-.871 1.674-1.89 3.35-2.264 3.726-.374.376-.68.75-.68.832 0 .08.292.22.648.31.57.143.657.33.727 1.55.068 1.184.158 1.387.61 1.387.412 0 .547-.204.612-.926.062-.69.413-1.264 1.374-2.249 1.116-1.142 1.317-1.515 1.476-2.737a6.022 6.022 0 0 1 1.029-2.646c.464-.677 1.427-1.674 2.14-2.216.737-.56 1.394-.885 1.526-.754.127.127.15.6.05 1.051-.149.68-.307.82-.922.82-.682 0-.758.101-.93 1.246-.102.685-.421 1.745-.708 2.355-.287.611-.753 1.32-1.034 1.574-.282.255-.512.792-.512 1.194 0 .546-.228.872-.897 1.286-.66.408-.946.81-1.08 1.521-.1.534-.456 1.183-.798 1.452-.377.296-.69.905-.8 1.556-.153.909-.294 1.091-.948 1.222-.423.085-.769.279-.769.43 0 .153.182.479.405.724.318.352.344.604.125 1.18-.153.404-.208.956-.122 1.228s.06.49-.059.485zm-1.605-7.674c-.11-.006-.527-.188-.929-.406-.504-.274-1.134-1.202-2.04-3.008-1.133-2.258-1.258-2.656-.919-2.937.316-.263.494-.234.918.15.29.262.57.427.624.367.054-.06.356-.619.67-1.243.339-.67.855-1.242 1.26-1.397.379-.143.734-.215.79-.158.058.057-.036.447-.207.867-.171.42-.454 1.625-.63 2.677-.285 1.715-.267 2.025.172 3.005.27.601.49 1.319.49 1.594 0 .275-.09.495-.199.49zm2.617-.409c-.126.078-.304.065-.397-.028-.093-.093-.17-.67-.17-1.284 0-.86-.135-1.205-.595-1.514l-.595-.4.68-.54c.375-.298 1.171-1.539 1.77-2.757.852-1.736 1.289-2.324 2.02-2.718.513-.276.996-.44 1.072-.363.077.077-.288 1.44-.81 3.031-.779 2.366-1.115 3.029-1.85 3.645-.734.616-.898.938-.898 1.77 0 .56-.102 1.08-.227 1.158z" id="path1215-67" fill="#212121" stroke-width=".265"></path></g></g></svg>