<svg xmlns="http://www.w3.org/2000/svg" width="38" height="80" viewBox="0 0 10.064 21.335"><title>ryza2 category medicine</title><g fill="#212121" class="nc-icon-wrapper"><g transform="translate(4.74 205.652)"><path d="M1.009-184.333c-.906.05-2.096-.022-2.644-.16s-1.47-.492-2.05-.788l-1.055-.538v-11.303l1.455-1.099c1.243-.938 1.456-1.224 1.456-1.963 0-.475-.15-1.015-.331-1.198-.265-.268-.237-.387.139-.6.39-.219.44-.483.301-1.535-.15-1.131-.1-1.318.45-1.703.339-.237 1.072-.432 1.628-.432.721 0 1.198.186 1.661.65.357.357.65.781.65.943 0 .161-.137.554-.305.872-.167.318-.435.665-.595.772-.169.113-.047.196.288.198.32.002.66.134.758.292.098.158.045.42-.117.582-.162.162-.294.658-.293 1.102 0 .665.257 1.004 1.46 1.934l1.46 1.127-.072 5.752-.071 5.752-1.263.626c-.803.399-1.862.66-2.91.717zm-.515-2.028c.769.013 1.812-.15 2.319-.361.507-.212.995-.577 1.085-.812.09-.235.029-.561-.136-.726-.223-.224-.3-.207-.3.063 0 .2-.197.58-.438.846-.24.267-.71.484-1.042.484-.333 0-.682-.124-.776-.276-.094-.152-.027-.45.15-.661.175-.212.535-.386.8-.386s.563-.132.663-.294c.1-.162.018-.398-.183-.525-.2-.127-1.02-.232-1.82-.233-.8-.001-1.877.114-2.393.258-.516.143-1.17.43-1.452.636-.505.37-.505.384-.009.932.277.307.871.664 1.32.794.448.13 1.444.248 2.212.26zm-3.195-3.08c.56-.365 1.256-.466 3.175-.46l2.459.01v-2.39l.001-2.39-1.64.092c-.903.05-2.08-.04-2.615-.2-.536-.16-1.138-.492-1.337-.737-.323-.397-.304-.42.167-.212.291.128 1.283.28 2.204.338.92.057 1.971.03 2.335-.062l.66-.166-.548-.931c-.303-.512-.55-1.007-.55-1.1 0-.093.417.235.927.729.66.64 1.008.816 1.21.614.203-.203-.101-.61-1.058-1.417-1.235-1.041-1.343-1.226-1.343-2.282 0-1.137-.01-1.15-.927-1.15-.913 0-.926.016-.926 1.129 0 1.053-.096 1.203-1.455 2.264l-1.455 1.137v7.654zm6.869.458c.048 0 .088-1.37.088-3.043 0-1.852-.104-3.043-.265-3.043-.16 0-.264 1.132-.264 2.867 0 1.576.08 2.945.176 3.042.097.097.216.177.265.177zm-2.955-13.23c.073 0 .133-.059.133-.132a.133.133 0 0 0-.133-.132.133.133 0 0 0-.132.132c0 .073.06.132.132.132zm-1.346-.793c.345 0 .697-.179.78-.397.084-.218.395-.397.69-.397.296 0 .538-.095.538-.212 0-.116-.143-.354-.318-.529-.174-.174-.763-.317-1.307-.317-.545 0-1.068.125-1.163.28-.095.153-.1.57-.01.925.115.459.345.647.79.647z" id="path1196-1-6-3" fill="#212121" stroke-width=".265"></path></g></g></svg>