<svg xmlns="http://www.w3.org/2000/svg" width="63" height="67" viewBox="0 0 16.767 17.778"><title>ryza2 category beehives</title><g fill="#212121" class="nc-icon-wrapper"><g transform="translate(-61.026 115.661)"><path d="M70.193-97.91c-.934.079-2.077-.025-2.939-.267-.775-.217-2.04-.814-2.812-1.326-.77-.511-1.723-1.416-2.116-2.01-.393-.594-.878-1.544-1.079-2.112-.2-.568-.28-1.033-.176-1.033.104 0 .35.366.548.813.198.447.852 1.325 1.454 1.95.602.626 1.57 1.447 2.152 1.824.582.376 1.811.877 2.73 1.112 1.033.264 2.065.36 2.697.254.564-.095 1.458-.394 1.988-.664.792-.404.935-.42.809-.09-.085.22-.154.448-.154.505 0 .057-.354.287-.787.51-.433.225-1.475.465-2.315.535zm-1.33-1.635c-.109.064-.469.015-.8-.11-.33-.125-.673-.417-.762-.648-.09-.232-.033-.55.124-.708.206-.205.478-.16.962.157.37.243.675.61.675.817 0 .206-.09.428-.199.492zm1.931.005c-.21.081-.647-.066-.97-.327-.373-.302-.525-.634-.418-.913.093-.241.342-.438.554-.438.213 0 .574.187.803.416.228.228.415.573.415.765 0 .192-.172.416-.384.497zm3.498-.185c-.201.124-.224.022-.074-.325.121-.279.273-1.372.339-2.429.104-1.678.031-2.101-.573-3.336-.38-.778-1.325-2.013-2.099-2.745-.774-.732-1.881-1.573-2.46-1.868-.58-.296-1.773-.686-2.653-.868-1.355-.28-1.786-.268-2.83.075-.677.223-1.23.325-1.23.227s.334-.426.743-.729c.41-.302 1.498-.93 2.42-1.396 1.253-.632 2.15-.88 3.556-.98 1.034-.073 2.389-.015 3.01.13.623.144 1.367.2 1.655.126.325-.085.522-.362.522-.735 0-.33.155-.727.344-.884.19-.157.577-.239.86-.18.284.057.843.173 1.243.258.4.084.728.265.728.402s-.473.39-1.05.563c-.83.25-1.135.245-1.455-.021-.334-.278-.406-.265-.406.072 0 .238.33.48.792.582.754.165.775.205.437.849-.309.59-.286.813.18 1.765.351.717.574 1.823.652 3.231.084 1.529-.01 2.588-.333 3.704-.248.86-.805 2.186-1.238 2.947-.432.761-.919 1.465-1.08 1.565zm-7.737-12.608c.142-.002.842-.18 1.556-.397.715-.217 2.144-.396 3.175-.398 1.31-.003 1.757-.082 1.48-.261-.218-.141-1.123-.258-2.011-.26-.888-.002-2.02.133-2.514.301-.494.169-1.134.466-1.421.662-.287.195-.406.354-.265.353zm4.756-.314c.436.005.647-.05.468-.122-.18-.072-.537-.077-.794-.01-.258.067-.111.127.326.132zm-4.394 12.593c-.058.051-.372-.03-.7-.18-.327-.149-.595-.372-.595-.495 0-.124.164-.225.365-.225.2 0 .515.182.699.404.184.222.288.445.23.496zm5.3-.095c-.37.198-.51.138-.641-.273-.092-.29-.09-.652.005-.805.094-.152.43-.2.745-.107.508.152.525.13.147-.188-.235-.196-.498-.563-.585-.814a.565.565 0 0 1 .277-.7c.27-.15.655-.142 1.015.022.42.191.54.42.437.832-.08.312-.32.84-.535 1.173-.215.333-.604.72-.865.86zm-5.206-.984c-.109.065-.45.022-.757-.094-.307-.116-.623-.381-.703-.588a.942.942 0 0 1 .077-.735c.176-.285.359-.295.901-.048.394.18.68.529.68.83 0 .285-.089.571-.198.636zm-2.01-.085c-.195 0-.573-.241-.84-.536-.312-.344-.393-.626-.228-.79.164-.166.463-.111.84.153.321.225.584.581.584.791 0 .21-.16.382-.355.382zm3.691 0c-.213 0-.579-.193-.814-.428s-.383-.562-.329-.727c.054-.165.338-.336.63-.38.293-.043.684.105.87.328.185.224.267.586.183.807-.085.22-.328.4-.54.4zm2.042-.004c-.171.002-.499-.183-.727-.412-.23-.229-.416-.573-.416-.765 0-.193.187-.422.416-.51.229-.087.631-.044.895.097.263.14.556.458.651.705.096.252.023.545-.167.665-.187.119-.48.218-.652.22zm-7.484-1.584c-.14 0-.378-.23-.53-.511-.15-.282-.273-.58-.273-.662 0-.082.166-.15.369-.15.202 0 .44.189.529.419.088.23.16.528.16.661a.25.25 0 0 1-.255.243zm1.595 0c-.265 0-.628-.177-.808-.393-.18-.217-.257-.574-.173-.794.085-.22.33-.4.544-.4.215 0 .57.257.791.572.22.315.34.672.264.794-.075.122-.353.221-.618.221zm2.063-.056c-.235.046-.627-.116-.87-.36-.243-.243-.402-.636-.352-.873.059-.28.312-.405.73-.358.35.04.732.219.848.397.115.178.178.502.14.718-.037.217-.26.431-.496.476zm2.617-.271c-.19.153-.57.176-.89.054-.307-.116-.639-.421-.737-.678-.104-.27-.018-.626.206-.85.3-.3.322-.525.097-1.019-.21-.459-.209-.714.002-.925.16-.16.589-.216.954-.124.364.091.74.41.835.708.094.297.034.707-.134.91-.169.202-.497.295-.73.205-.283-.109-.233.027.152.413.316.316.575.68.575.807 0 .128-.149.352-.33.499zm1.728.059c-.26-.002-.617-.097-.796-.21-.178-.114-.357-.499-.397-.856-.062-.557.037-.65.693-.65.42 0 .886.192 1.034.427.148.235.195.622.103.86a.726.726 0 0 1-.637.429zm2.222-.265a1.278 1.278 0 0 1-.596-.198c-.156-.107-.358-.394-.448-.638-.09-.247.01-.587.225-.766.213-.177.447-.261.521-.187.074.073.241.507.372.963.171.596.15.829-.074.826zm-10.505-1.054c-.277 0-.633-.24-.79-.535-.158-.294-.215-.651-.126-.794.088-.142.387-.259.664-.259s.633.24.79.535c.158.294.214.651.126.794-.088.142-.387.259-.664.259zm2.206-.07c-.173.056-.568-.15-.877-.46-.31-.309-.515-.703-.458-.876.058-.173.31-.354.559-.402.25-.048.632.06.85.242.219.18.362.568.319.86-.044.293-.22.579-.393.636zm2-.25c-.237.045-.624-.111-.86-.347s-.43-.603-.43-.816a.62.62 0 0 1 .377-.53c.207-.08.63-.008.942.158.366.196.537.506.484.878-.046.316-.276.612-.513.657zm5.022-.603c-.238.226-.553.266-.936.118-.318-.123-.703-.456-.855-.74-.208-.39-.18-.595.112-.838.216-.18.675-.25 1.035-.16.356.09.727.414.824.72.107.336.035.695-.18.9zm-10.37-.863c-.073.182-.133.033-.133-.33 0-.365.06-.513.134-.332.073.182.073.48 0 .662zm1.861-.134c-.174.131-.508.194-.742.14-.234-.053-.554-.377-.71-.72-.156-.342-.212-.694-.125-.781.087-.087.417-.159.734-.159.351 0 .688.25.867.642.218.48.212.7-.024.878zm1.796-.026c-.148.054-.542-.094-.875-.327-.38-.267-.575-.636-.524-.994.062-.43.24-.552.727-.498.354.04.687.115.738.167.052.051.12.423.15.825.029.402-.068.774-.216.827zm2.023-.201a13.405 13.405 0 0 1-.629-.152c-.255-.067-.538-.419-.629-.783-.091-.363-.044-.783.106-.933.149-.149.521-.192.827-.095.306.098.683.415.839.705.206.384.197.632-.033.908-.173.21-.39.366-.481.35zm2.233-.234c-.172 0-.498-.15-.724-.331-.226-.182-.48-.53-.564-.774a.738.738 0 0 1 .215-.75c.202-.168.62-.226.927-.128.308.097.657.435.776.75.127.333.106.709-.05.902-.146.182-.407.33-.58.33zm1.903-.53c-.225 0-.484-.195-.576-.434-.092-.24-.124-.478-.07-.531.052-.053.311.143.576.435.406.448.417.53.07.53zm-9.858-.793a.133.133 0 0 1-.133-.133.133.133 0 1 1 .265 0c0 .073-.06.133-.132.133zm1.536-.05a.807.807 0 0 1-.849-.43c-.213-.398-.165-.61.216-.955.457-.413.518-.413.93 0 .243.242.405.635.36.872-.045.237-.34.468-.657.513zm2.152-.215c-.21 0-.62-.238-.91-.529-.291-.291-.53-.634-.53-.761 0-.128.172-.374.38-.548.277-.23.524-.238.909-.033.29.156.603.52.695.81.092.29.093.647.002.794-.09.147-.337.267-.546.267zm2.298-.295a13.405 13.405 0 0 1-.628-.152c-.255-.066-.537-.415-.628-.775-.09-.36-.098-.72-.019-.8.08-.08.52-.063.976.038.457.1.895.35.975.557.079.207-.003.553-.183.77-.18.215-.401.379-.493.362zm1.702-.499c-.064 0-.202-.137-.305-.305-.117-.19-.073-.234.116-.117.168.104.306.242.306.306a.117.117 0 0 1-.117.116z" id="path1196-1-2" fill="#212121" stroke-width=".265"></path></g></g></svg>