<svg xmlns="http://www.w3.org/2000/svg" width="97" height="97" viewBox="0 0 25.805 25.898"><title>ryza2 ice</title><g fill="#212121" class="nc-icon-wrapper"><g id="layer1" transform="translate(-34.035 -28.658)"><path d="M47.053 54.555c-1.018-.015-2.448-.173-3.177-.352-.73-.178-1.8-.546-2.382-.817-.58-.27-1.527-.855-2.103-1.299-.577-.444-1.296-1.045-1.6-1.336-.303-.291-1.025-1.244-1.605-2.117-.58-.873-1.188-2.004-1.352-2.514-.164-.509-.44-1.722-.614-2.695-.246-1.373-.246-2.202 0-3.704.179-1.098.721-2.788 1.253-3.907.532-1.121 1.507-2.575 2.26-3.37.727-.77 1.845-1.692 2.484-2.049s1.85-.894 2.694-1.193c1.143-.406 2.182-.544 4.093-.544 1.931 0 2.968.14 4.215.569.91.313 2.327 1.023 3.147 1.577.821.555 1.931 1.52 2.467 2.143.536.624 1.397 2.024 1.947 3.12.305.605.607 1.229.74 1.893.41 2.037.388 4.166.15 6.23-.048.412-.189.81-.314 1.206-.231.736-.44 1.49-.807 2.168-.648 1.198-1.432 2.299-2.424 3.29-.889.89-1.556 1.397-1.97 1.616-.618.488-.886.645-1.35.869-.544.259-1.644.644-2.444.856-.8.212-2.289.374-3.308.36zm-.132-2.085c.09 0 .43-.359.755-.797.324-.439.57-.945.547-1.125a3.866 3.866 0 0 1-.01-.686c.017-.197.198-.295.402-.216.204.078.441.072.527-.014.086-.085.027-.31-.13-.5-.156-.188-.212-.46-.124-.603.089-.143.798-.624 1.577-1.07.778-.445 1.49-.81 1.581-.81.092 0 .167.18.167.397 0 .219.178.397.397.397.251 0 .404-.266.417-.727.013-.432.084-.566.176-.331.084.218.343.542.574.719.252.193.791.26 1.346.166.51-.086 1-.23 1.09-.322.09-.091 0-.553-.199-1.026-.2-.473-.556-.86-.792-.86-.34 0-.395-.173-.265-.822l.164-.822-.66.165-.66.166v-4.253l.69.173.69.173-.258-.499c-.142-.274-.204-.647-.139-.83.065-.181.262-.33.438-.33s.512-.424.747-.942l.427-.942-.654-.249c-.36-.137-.86-.248-1.112-.248-.253 0-.602.143-.777.317-.247.247-.388.247-.635 0-.175-.174-.472-.317-.661-.317-.19 0-.344.25-.344.555v.555l-.993-.597a36.61 36.61 0 0 0-1.72-.972c-.4-.206-.727-.544-.727-.751 0-.208.12-.378.265-.378.145 0 .264-.186.264-.415 0-.294-.153-.366-.529-.246-.34.108-.54.044-.56-.18a3.76 3.76 0 0 1 .013-.686c.024-.185-.138-.519-.36-.74a4.72 4.72 0 0 1-.654-.85l-.25-.447-.615.786c-.34.432-.629.966-.644 1.186-.014.22-.044.556-.066.744-.021.188-.235.307-.474.264-.24-.042-.488.072-.552.253-.063.182.014.331.171.331.158 0 .287.153.287.34 0 .186-.744.778-1.654 1.315-1.078.636-1.684.864-1.74.653-.048-.178-.14-.489-.204-.69-.094-.294-.22-.274-.636.102-.382.346-.61.395-.862.185-.19-.157-.847-.279-1.46-.27-.615.008-1.117.106-1.117.218s.167.525.37.918c.205.393.617.887.917 1.097l.546.382-.25.657-.25.657.657-.165.656-.165v4.327l-.57-.18c-.458-.146-.536-.096-.399.26.107.28-.053.658-.43 1.024-.33.319-.75.923-.934 1.342-.183.419-.299.789-.257.822.042.034.509.127 1.037.209.565.087 1.086.023 1.264-.155.226-.226.444-.213.871.054l.57.355.333-.456c.183-.25.432-.414.553-.362.12.052.902.509 1.736 1.016.835.506 1.518 1.012 1.518 1.124 0 .112-.189.203-.42.203-.23 0-.366.149-.303.33.064.182.298.3.521.26.223-.039.48.121.57.355.089.234.097.531.017.66-.08.13.12.595.446 1.035.325.44.665.8.756.8zm-1.008-5.053c-.1-.014-.422-.163-.716-.33a61.051 61.051 0 0 1-1.52-.922c-.585-.364-.99-.825-.99-1.125 0-.279.09-.504.2-.501.108.003.495.238.859.523.364.285.78.52.926.525.146.004.611.284 1.035.623.451.361.691.744.58.925-.105.17-.273.297-.374.282zm2.474.026c-.189 0-.49-.176-.669-.392l-.326-.393.853-.467a31.876 31.876 0 0 0 1.788-1.081c.74-.486.981-.541 1.156-.265.122.192.224.434.226.537.002.103-.562.515-1.253.916-.691.4-1.296.822-1.345.937-.048.115-.242.208-.43.208zm-2.194-3.193c-.109-.01-.466-.147-.793-.305-.328-.158-.596-.38-.596-.495 0-.115.115-.28.254-.366.14-.086.497-.005.794.18.297.186.54.488.54.671 0 .183-.09.325-.199.315zm1.456.01c-.11.004-.199-.162-.199-.37 0-.209.237-.455.527-.547.29-.092.663-.083.83.02.197.122.082.31-.329.537-.347.193-.72.354-.83.36zm-5.593-.81c-.189.157-.421.207-.517.11-.096-.095-.172-.898-.17-1.783.002-.885.115-1.784.25-1.999.135-.214.296-.333.356-.264.06.068.18.918.267 1.888.114 1.282.063 1.841-.186 2.048zm9.88.23c-.226.043-.494-.006-.596-.108-.102-.102-.186-.925-.186-1.829 0-1.161.12-1.743.41-1.983l.41-.34.424.422.094.441.09 1.65c.066 1.177-.36 1.693-.647 1.747zm-7.228-1.583l-.433.433v-.85c0-.468.123-.85.273-.85.15 0 .345.187.433.417.088.23-.035.612-.273.85zm4.594.32c-.145 0-.264-.358-.264-.794 0-.437.119-.794.264-.794.146 0 .265.357.265.794 0 .436-.12.794-.265.794zm-3.975-2.382c-.125 0-.29-.101-.366-.225-.077-.125.16-.363.526-.53.366-.166.72-.303.785-.303.066 0 .12.166.12.369 0 .202-.188.44-.419.529-.23.088-.52.16-.646.16zm3.1-.02a2.533 2.533 0 0 1-.646-.155.587.587 0 0 1-.33-.508c0-.206.053-.375.119-.375s.42.137.785.303c.367.167.603.405.526.53-.076.124-.28.216-.454.205zm2.514-1.303c-.117 0-.616-.297-1.11-.661-.493-.364-1.082-.661-1.31-.661-.228 0-.56-.233-.737-.517-.19-.305-.222-.58-.076-.67.136-.084.55-.076.92.017.371.093.674.253.674.355 0 .103.417.386.926.629.606.289.926.626.926.975 0 .293-.096.533-.213.533zm-8.14-.264c-.062 0-.113-.167-.113-.372 0-.204.667-.748 1.482-1.208.816-.46 1.65-.773 1.852-.695.204.078.37.26.37.404 0 .144-.782.624-1.738 1.066-.956.443-1.79.805-1.852.805z" id="path34270" fill="#212121" stroke-width=".265"></path></g></g></svg>