<svg xmlns="http://www.w3.org/2000/svg" width="83" height="65" viewBox="0 0 21.961 17.198"><title>ryza2 book</title><g fill="#212121" class="nc-icon-wrapper"><g id="layer1" transform="translate(213.452 -8.424)"><path d="M-213.452 19.33v-6.293l.937-1.498c.767-1.226 1.23-1.644 2.555-2.307.926-.462 2.036-.808 2.593-.808 1.474 0 3.422.677 4.263 1.483l.75.72.686-.686c.807-.808 2.74-1.522 4.072-1.506 2.186.027 4.322 1.294 5.382 3.193l.722 1.294v6.35c0 3.82-.1 6.35-.25 6.35-.138 0-1.024-.586-1.97-1.301-1.19-.902-2.158-1.4-3.156-1.622-1.66-.372-3.766-.149-3.985.422-.225.587-2.78.524-3.223-.08-.27-.369-.73-.46-2.278-.453-2.18.011-3.044.355-5.029 2.005-2.124 1.765-2.07 1.905-2.07-5.264zm4.561 3.226c.584-.206 1.337-.374 1.673-.374.449 0 .601-.141.572-.53-.051-.685-.697-.68-2.767.019-1.023.345-1.776.784-2.042 1.19-.232.354-.345.644-.251.644.094 0 .007.198-.192.44-.202.244.15.117.791-.287.635-.4 1.632-.896 2.216-1.102zm15.844.825c-.289-.617-.801-1.096-1.565-1.462-1.356-.65-3.678-1.043-3.388-.573.104.169.063.307-.09.307-.155 0-.281.119-.281.264 0 .146.293.265.652.265.942 0 3.021.754 4.099 1.486.51.347.945.63.965.63.021 0-.155-.412-.392-.917zm-16.507-2.105c2.208-.811 4.272-.817 6.228-.018.44.18.464-.13.397-5.185l-.072-5.376-1.13-.794c-.992-.696-1.356-.795-2.95-.795-1.56 0-2.004.114-3.104.794l-1.283.793-.071 5.643c-.08 6.335-.304 5.78 1.985 4.938zm16.262-2.997c.044-2 .046-4.537.004-5.636l-.076-1.998-1.071-.694c-.59-.382-1.54-.774-2.114-.871-1.376-.233-3.512.3-4.483 1.117l-.778.655v10.5l.86-.305c1.349-.476 4.109-.344 5.754.276.8.302 1.539.559 1.64.571.101.013.22-1.614.265-3.615zm-18.845-2.249c-.006-3.15-.074-3.92-.31-3.515-.334.577-.472 7.312-.145 7.112.109-.067.198.004.198.158s.06.28.132.28c.073 0 .13-1.816.125-4.035zm19.874 3.652c.395.244.307-6.906-.089-7.234-.262-.217-.337.56-.362 3.737-.017 2.207.023 3.863.089 3.68.066-.183.229-.265.362-.183z" id="path925-8" fill="#212121" stroke-width=".265"></path></g></g></svg>