<svg xmlns="http://www.w3.org/2000/svg" width="63" height="71" viewBox="0 0 16.71 18.797"><title>ryza2 type armor</title><g fill="#212121" class="nc-icon-wrapper"><g transform="translate(58.781 -6.238)"><path d="M-50.542 25.034c-.04-.003-.848-.417-1.794-.919-.991-.526-2.254-1.5-2.982-2.3-.694-.762-1.605-2.104-2.023-2.983-.418-.878-.918-2.252-1.11-3.052-.192-.8-.34-2.467-.33-3.704.01-1.237.145-2.557.299-2.933.21-.517.624-.785 1.691-1.096l3.787-1.11 2.374-.7 3.883 1.103c3.338.948 3.925 1.194 4.181 1.756.164.36.37 1.336.457 2.17.102.977-.001 2.304-.292 3.742-.247 1.225-.805 2.973-1.239 3.885-.434.912-1.413 2.297-2.176 3.078-.763.782-2.122 1.792-3.02 2.245-.898.454-1.666.822-1.706.818zm-.162-1.065c.097.007.718-.22 1.38-.503.663-.284 1.762-1.028 2.441-1.654.68-.625 1.53-1.6 1.888-2.167.358-.567.883-1.698 1.166-2.514.284-.816.585-2.444.67-3.62.1-1.369.04-2.483-.164-3.104-.316-.956-.367-.985-3.642-2.032-1.827-.584-3.515-1.058-3.751-1.054-.236.004-1.779.466-3.428 1.028-1.65.56-3.106 1.127-3.237 1.258-.131.131-.352.834-.49 1.561-.152.806-.158 2.058-.015 3.202.13 1.033.56 2.687.956 3.675.524 1.31 1.122 2.2 2.204 3.283.817.817 2.016 1.742 2.665 2.056.65.315 1.26.578 1.357.585zm.167-1.585c-.043-.005-.46-.175-.924-.378-.465-.202-1.363-.844-1.995-1.427-.632-.583-1.413-1.586-1.734-2.23-.322-.644-.704-1.799-.85-2.567-.145-.768-.263-1.887-.26-2.485.001-.599.15-1.38.33-1.735.247-.487.944-.866 2.82-1.532l2.493-.886 2.643.915c1.454.503 2.752 1.108 2.885 1.345.132.237.236 1.303.23 2.368-.006 1.291-.192 2.426-.558 3.404-.302.807-.894 1.901-1.315 2.431-.421.53-1.042 1.179-1.38 1.442-.336.262-.993.673-1.459.911-.465.24-.882.43-.926.424z" id="path1055-9" fill="#212121" stroke-width=".265"></path></g></g></svg>