<svg xmlns="http://www.w3.org/2000/svg" width="96" height="81" viewBox="0 0 25.448 21.476"><title>ryza2 race golem</title><g fill="#212121" class="nc-icon-wrapper"><g transform="translate(-281.648 -190.087)"><path d="M293.618 211.324c-.397.252-.791.305-1.171.157-.315-.122-.687-.426-.827-.675-.166-.297-.447-.403-.816-.306-.368.096-.563.024-.563-.21 0-.196.12-.43.265-.52.145-.09.265-.513.265-.941 0-.428-.066-.778-.146-.778-.08 0-.497.181-.926.403-.43.222-.78.498-.78.613 0 .114-.487.468-1.082.786-1.065.568-1.116.57-3.265.148-1.994-.392-2.22-.5-2.61-1.256-.326-.634-.383-1.19-.24-2.387.148-1.25.321-1.661.871-2.071l.687-.512 2.029 1.253c1.116.688 2.102 1.178 2.192 1.089.09-.09-.566-.614-1.456-1.165s-1.62-1.092-1.622-1.2c0-.11.255-.2.569-.2.314 0 1.203.478 1.976 1.062.773.583 1.628 1.3 1.9 1.592l.496.532.709-.558.709-.558-.667-.525c-.542-.426-.668-.757-.671-1.762 0-.68-.12-1.416-.261-1.634-.181-.28-.258.081-.26 1.228 0 1.27-.1 1.662-.446 1.795-.242.093-.516.076-.607-.038-.091-.114-.319-.657-.505-1.208-.311-.918-.285-1.092.315-2.117.36-.613 1.146-1.51 1.746-1.993l1.092-.877 1.037.82 1.036.822 1.706-.774 1.705-.773.672.672c.622.622.733.646 1.508.325.793-.329.869-.306 1.452.422.338.423.726 1.329.862 2.013.241 1.213.224 1.265-.724 2.19-.824.805-1.07.913-1.613.708-.45-.169-.867-.126-1.393.143-.74.378-.744.393-.265.96.268.317.584.648.703.735.118.087.505.103.86.035.404-.077.861-.508 1.223-1.152.416-.74.836-1.1 1.5-1.283.507-.14 1.552-.395 2.324-.568 1.349-.302 1.445-.285 2.534.44l1.133.754-.881.183c-.485.101-1.794.28-2.91.4-1.148.121-1.7.258-1.27.314.417.054 1.77-.036 3.006-.2 1.236-.165 2.296-.252 2.355-.192.06.059-.029.742-.195 1.519-.227 1.058-.576 1.698-1.395 2.557l-1.091 1.145-2.778-.534a174.226 174.226 0 0 0-2.844-.534c-.037 0-.053-.09-.035-.198.017-.11.017-.318 0-.464-.017-.146-.657-.257-1.42-.247l-1.39.02-.08 1.37c-.044.754-.2 1.371-.348 1.371-.147 0-.497-.122-.777-.272-.373-.2-.67-.171-1.107.106zm-.202-3.008c.39-.278.832-.66.984-.848.15-.189.354-.602.45-.917.168-.548.133-.561-.759-.287-.676.207-1.112.205-1.576-.006-.52-.237-.672-.215-.798.115-.086.224.101.867.416 1.427l.574 1.02.709-.505zm4.498-4.234c.152 0 .265-.8.265-1.868 0-1.178-.098-1.807-.265-1.704-.145.09-.264.93-.264 1.868 0 .96.115 1.704.264 1.704zm-6.91-1.114c.235-.045.464-.388.507-.763.044-.375-.097-.828-.312-1.007-.318-.265-.442-.231-.661.178-.148.277-.2.767-.117 1.088.094.355.322.553.582.504zm4.116-.026c.154-.05.32-.36.368-.686.048-.327.017-.777-.07-1.001-.125-.33-.231-.345-.55-.08-.216.179-.393.59-.393.91 0 .323.082.668.182.768.1.1.308.14.463.09zm5.745-2.3c-.117 0-.56-.428-.986-.952-.73-.897-.817-.933-1.507-.617-.667.306-.8.271-1.489-.389l-.756-.725-1.754.856-1.754.855-1.08-.869-1.08-.868-1.136 1.114-1.135 1.114-.428-.612c-.275-.392-.43-1.159-.43-2.132 0-.872.189-1.913.442-2.445.414-.868.413-.989-.019-1.947-.347-.77-.403-1.245-.227-1.928.214-.83.326-.913 1.343-.987.982-.072 1.14-.004 1.367.595.141.372.315.677.384.677.07 0 .577-.305 1.127-.678.932-.633 1.134-.666 2.988-.496 1.312.121 2.24.36 2.725.702.558.394 1.067.497 2.116.43l1.382-.09.076 1.323c.042.727.28 1.74.529 2.248.298.61.446 1.528.433 2.688-.013 1.184-.167 1.986-.47 2.447-.246.378-.544.686-.66.686zm-7.888-2.697c.32-.047.794-.503 1.114-1.076.491-.877.526-1.167.294-2.447-.245-1.353-.314-1.453-1.006-1.453-.555 0-.845.198-1.147.781-.222.43-.403 1.185-.403 1.68 0 .495.133 1.281.295 1.748.224.642.431.828.853.767zm6.922-4.446c.268 0 .396-.269.396-.827 0-.704-.059-.777-.396-.496-.219.18-.397.553-.397.826 0 .273.178.497.397.497zm-9.614-.53c.097 0 .23-.148.294-.33.065-.182-.106-.778-.38-1.323-.323-.645-.681-.992-1.021-.992-.288 0-.524.076-.524.17 0 .094.327.69.727 1.323.4.633.807 1.152.904 1.152z" id="path1215-20-33" fill="#212121" stroke-width=".265"></path></g></g></svg>