<svg xmlns="http://www.w3.org/2000/svg" width="92" height="89" viewBox="0 0 24.604 23.803"><title>ryza2 tool gather</title><g fill="#212121" class="nc-icon-wrapper"><g transform="translate(86.716 -82.527)"><path d="M-76.661 106.33c-.142 0-.454-.3-.694-.667-.406-.619-.406-.748 0-1.805.254-.667 1.035-1.716 1.886-2.535 1.248-1.203 1.451-1.536 1.451-2.383 0-.68-.184-1.157-.595-1.542a4.88 4.88 0 0 0-1.34-.84c-.41-.155-1.277-.282-1.927-.282-.65 0-1.625.184-2.166.41-.54.225-1.44.85-1.997 1.388-.558.54-1.183 1.301-1.39 1.694-.206.393-.377 1.167-.38 1.72 0 .553-.23 1.5-.505 2.104-.278.612-.75 1.179-1.065 1.279-.32.101-.734.04-.95-.14-.236-.195-.384-.793-.383-1.542.001-.674.125-1.982.275-2.906.15-.925.641-2.414 1.092-3.308.45-.894 1.145-2.102 1.545-2.684.428-.623 1.416-1.465 2.402-2.048.921-.544 2.334-1.174 3.14-1.4a300.21 300.21 0 0 0 3.234-.93c.973-.287 2.132-.826 2.575-1.2.444-.373 1.255-1.502 1.804-2.51.548-1.006 1.078-1.83 1.177-1.832.099 0 1.458 1.508 3.02 3.354l2.84 3.356-.638.4c-.352.22-1.197.976-1.879 1.682-.897.929-1.396 1.755-1.808 2.996-.314.942-1.035 2.409-1.604 3.26-.568.85-2.344 2.753-3.947 4.229-1.603 1.475-3.03 2.682-3.171 2.682zm-5.694-1.059c-.066 0-.3-.276-.522-.613-.22-.338-.479-1.35-.573-2.249-.164-1.57-.132-1.693.812-3.115.541-.814 1.035-1.43 1.098-1.366.063.062-.023.508-.192.99-.232.668-.229 1.377.016 2.974.28 1.831.268 2.18-.099 2.739-.23.352-.473.64-.54.64zm3.004-2.228c-.376.376-.455.373-.858-.03-.244-.243-.692-.93-.996-1.525-.534-1.049-.538-1.128-.11-2.486.33-1.045.639-1.505 1.21-1.8.422-.219.896-.397 1.054-.397.205 0 .206.17 0 .595l-.282.595.437-.595a1.467 1.467 0 0 1 1.198-.595c.42 0 .762.07.762.157s-.2.498-.446.913c-.42.711-.419.805.03 1.639.262.486.433 1.107.38 1.38-.053.274-.234.543-.402.599-.169.056-.734-.274-1.257-.733-.523-.46-.96-1.031-.972-1.27-.015-.32-.059-.34-.165-.074-.079.199.074 1.003.341 1.787.44 1.294.446 1.464.07 1.84zm-.093-4.65a.133.133 0 1 0 0-.266.133.133 0 0 0 0 .265zm16.537-7.682c-.073.005-1.472-1.59-3.11-3.542-1.636-1.953-2.976-3.724-2.976-3.936 0-.213.155-.515.344-.672.266-.22 1.082.59 3.591 3.563 3.015 3.573 3.212 3.874 2.765 4.213-.265.201-.541.37-.614.374z" id="path1183-4" fill="#212121" stroke-width=".265"></path></g></g></svg>