<svg xmlns="http://www.w3.org/2000/svg" width="79" height="76" viewBox="0 0 20.994 20.19"><title>ryza2 category seafood</title><g fill="#212121" class="nc-icon-wrapper"><g transform="translate(70.424 143.691)"><path d="M-52.237-124.931l-.132 1.43-.826-.697c-.454-.383-.97-1.046-1.147-1.473-.29-.702-.456-.784-1.743-.865-1.305-.082-1.428-.04-1.499.503-.075.574-.125.56-1.664-.439-.873-.567-2.085-1.11-2.693-1.208-1.026-.163-1.094-.136-.961.373.079.302.052.55-.06.55-.11 0-.82-.626-1.577-1.39a57.566 57.566 0 0 0-2.884-2.68c-.844-.723-1.778-1.83-2.12-2.514-.335-.672-.691-1.56-.79-1.973-.178-.733-.162-.746.689-.562.85.184.86.176.408-.328-.255-.284-.463-.643-.463-.797 0-.154.52-.358 1.154-.453.635-.095 1.915-.05 2.845.1.929.15 2.106.395 2.615.545.51.15 1.76.317 2.778.37 1.019.054 1.644.042 1.39-.025-.255-.067-.464-.22-.464-.34 0-.121-.412-.463-.917-.761-.579-.342-.977-.815-1.079-1.283a7.234 7.234 0 0 0-.452-1.341c-.226-.465-.197-.798.128-1.48.243-.51.792-1.052 1.304-1.29.486-.224 1.152-.49 1.48-.588.327-.099.595-.07.595.062 0 .133-.227.446-.503.696-.277.25-.56.673-.63.94-.11.42-.025.455.636.266.419-.12.761-.117.761.007 0 .124-.358.584-.796 1.021-.437.438-1.021.834-1.297.88-.444.075-.401.199.372 1.09l.873 1.005.755-.476c.415-.262.755-.644.755-.85 0-.207.149-.425.33-.486.182-.06.403.079.492.31.088.23.433.418.765.418.333 0 .674-.179.757-.397.084-.218.275-.397.426-.397.15 0 .273.209.274.463 0 .255.364.67.806.921l.805.458.809-.92c.444-.507 1.034-.922 1.31-.922s.502.166.502.37c0 .203-.421.739-.935 1.19-.515.452-1.058.821-1.207.821-.149 0-.197.12-.107.265.09.146.389.265.664.265.276 0 .792.132 1.146.293.355.162.782.594.949.96.167.367.23.741.138.831-.09.09-.388-.111-.661-.448-.374-.46-.714-.592-1.367-.53l-.87.084.957.565c.564.334 1.073.902 1.243 1.39.158.452.187.823.064.823-.122 0-.29-.178-.374-.395-.083-.217-.543-.634-1.02-.925-.478-.291-1.048-.528-1.266-.525-.29.004-.245.128.167.462.31.252.698.717.86 1.035.163.318.296.824.296 1.125 0 .3-.111.546-.247.546s-.318-.226-.406-.502c-.088-.276-.464-.808-.837-1.18-.615-.615-.73-.643-1.252-.301-.47.307-.742.317-1.496.055-.507-.176-1.38-.671-1.94-1.1-.887-.678-.963-.817-.595-1.087.233-.17.423-.444.423-.61 0-.166-.126-.302-.28-.302-.154 0-.21.113-.125.252.085.138-.086.38-.381.538-.296.158-.537.374-.537.48 0 .106.476.487 1.058.847.582.36 1.059.745 1.059.856 0 .111.123.202.273.202.15 0 .715.187 1.256.414.868.366.932.453.545.74-.397.293-.346.446.53 1.582.898 1.166 1.034 1.246 1.894 1.109.509-.081 1.275-.05 1.702.069.427.119.82.348.875.51.053.162-.144.37-.44.464-.295.094-.807.55-1.138 1.015-.377.528-.652 1.38-.735 2.274zm-13.626-5.795c.073 0 .132-.06.132-.132a.133.133 0 0 0-.132-.133.133.133 0 0 0-.132.133c0 .072.06.132.132.132zm.537-.268c.149.002.548-.19.887-.428.339-.237.96-.975 1.382-1.64.421-.664.766-1.326.766-1.472 0-.145-.341.273-.758.93-.417.658-1.161 1.514-1.654 1.902-.492.388-.773.707-.623.708zm-.272-4.23c.272 0 .402-.174.346-.463-.049-.255-.206-.44-.35-.411-.143.029-.3.237-.346.463-.05.24.095.41.35.41zm5.82-5.027c.073 0 .133-.06.133-.132a.133.133 0 0 0-.133-.133.133.133 0 0 0-.132.133c0 .072.06.132.132.132zm9.152.529c-.287 0-.723-.268-.967-.596-.3-.402-.394-.444-.288-.132.086.255.036.463-.112.463s-.561-.315-.918-.7c-.357-.385-.649-.798-.649-.918s.209-.143.463-.052c.255.09.612.28.794.42.233.181.33.133.33-.164 0-.23-.369-.84-.82-1.355-.452-.514-.705-.935-.563-.935.142 0 .755.175 1.362.389.606.214 1.275.562 1.487.774.212.211.49.661.617 1 .127.338.131.883.01 1.21-.128.342-.446.596-.745.596z" id="path1196-1-4-4" fill="#212121" stroke-width=".265"></path></g></g></svg>