<svg xmlns="http://www.w3.org/2000/svg" width="51" height="88" viewBox="0 0 13.617 23.414"><title>ryza2 type heal</title><g fill="#212121" class="nc-icon-wrapper"><g transform="translate(14.955 21.284)"><path d="M-7.232 2.105c-1.262.084-2.068-.034-3.405-.503-.964-.337-2.186-.944-2.718-1.35-.53-.405-1.145-1.01-1.365-1.346-.364-.555-.337-.843.3-3.223.384-1.438.915-3.448 1.18-4.466.264-1.019.626-2.375.805-3.013.307-1.096.434-1.211 2.253-2.052 1.06-.49 2.01-1.023 2.11-1.184.1-.162.196-.836.214-1.499.018-.67.172-1.251.347-1.31.174-.057 1.27.153 2.436.468 1.167.315 2.253.73 2.414.925.222.268.169.418-.224.628-.289.155-.592.688-.691 1.216-.157.837-.044 1.115 1.03 2.528l1.208 1.588-.374 1.514c-.206.833-.697 2.704-1.092 4.16-.395 1.455-.91 3.404-1.143 4.331-.292 1.159-.614 1.81-1.028 2.081-.332.218-1.347.445-2.257.507zm1.468-7.85c.408.002 1.089-.175 1.514-.395.425-.22.895-.629 1.045-.909.15-.28.273-.755.273-1.055 0-.476-.164-.547-1.257-.55-.691-.002-1.852-.162-2.58-.356-.727-.194-1.689-.542-2.136-.773-.447-.231-.983-.628-1.19-.881-.348-.424-.32-.422.353.015.401.261 1.532.684 2.512.939.98.255 2.128.409 2.552.342a8.411 8.411 0 0 0 1.386-.355c.44-.168.566-.367.445-.705-.093-.26-.614-1.11-1.159-1.89-.868-1.242-.96-1.52-.752-2.247.131-.456.238-.959.238-1.117 0-.159-.416-.416-.926-.573-.509-.156-.973-.206-1.031-.11-.058.095-.238.664-.398 1.264-.265.985-.464 1.178-2.046 1.985-.964.491-1.921 1.149-2.128 1.462-.207.312-.623 1.478-.925 2.59-.303 1.112-.492 2.08-.421 2.151.07.071.45.007.844-.143.394-.15 1.095-.27 1.558-.267.464.002 1.438.357 2.166.789.727.431 1.656.787 2.063.789zm1.805-10.579c.29 0 .455-.119.365-.264-.09-.146-.401-.265-.693-.265-.29 0-.455.12-.365.265.09.145.401.264.693.264zm.242-1.086c-.369-.015-1.087-.164-1.597-.33-.509-.167-1.075-.4-1.256-.518-.182-.117-.331-.68-.331-1.25 0-.81.143-1.13.653-1.465.472-.31.943-.378 1.703-.25.578.098 1.355.46 1.728.806.373.346.678.824.678 1.063 0 .24-.204.78-.454 1.203-.322.546-.648.76-1.124.741zm-.869-.797c.182.017.33-.1.33-.262 0-.182.255-.23.668-.126.457.115.714.047.814-.215.08-.21.017-.626-.143-.924-.159-.297-.763-.668-1.342-.824-.749-.202-1.205-.202-1.583 0-.291.156-.528.548-.526.87.002.322.092.721.199.886.106.165.432.36.723.433.291.072.678.146.86.162z" id="path1018" fill="#212121" stroke-width=".265"></path></g></g></svg>