<svg xmlns="http://www.w3.org/2000/svg" width="71" height="64" viewBox="0 0 19.017 16.946"><title>ryza2 category bombs</title><g fill="#212121" class="nc-icon-wrapper"><g transform="translate(-10.662 206.381)"><path d="M18.434-189.475c-.727.074-1.68.042-2.116-.072-.437-.113-1.282-.457-1.877-.763-.596-.306-1.471-.998-1.945-1.538-.473-.539-1.098-1.528-1.389-2.198-.417-.962-.504-1.617-.412-3.115.096-1.568.264-2.127.966-3.22.467-.729 1.258-1.636 1.757-2.017.499-.38 1.4-.866 2.003-1.078.602-.213 1.737-.387 2.521-.387.784 0 1.69-.149 2.014-.33.324-.183.747-.541.94-.798.194-.257.73-.625 1.194-.817.463-.193 1.455-.422 2.204-.51 1.244-.146 1.456-.087 2.465.685.644.492 1.163 1.138 1.247 1.55.079.388.487 1.035.908 1.438.42.403.765.83.765.948 0 .119-.19.215-.422.215-.231 0-.485.243-.562.54-.13.497-.178.506-.605.12-.43-.389-.478-.366-.65.32l-.187.74-.5-.615c-.35-.434-.657-.565-1.035-.446-.295.094-.536.073-.535-.046 0-.118.13-.679.287-1.245.225-.81.21-1.075-.068-1.25-.194-.122-.591-.158-.882-.08a7.613 7.613 0 0 0-1.125.436c-.327.161-.595.395-.595.52 0 .124.407.818.905 1.542.498.724 1.05 1.75 1.224 2.28.183.555.26 1.618.18 2.499-.077.843-.416 2.087-.754 2.764-.338.677-1.029 1.594-1.535 2.038-.505.444-1.401 1.02-1.99 1.281-.59.26-1.668.535-2.396.609zm-2.395-.902c.772-.008.75-.037-.475-.637-.705-.345-1.626-.958-2.047-1.361-.421-.404-.83-.67-.907-.592-.078.077-.06.35.038.607.098.256.72.81 1.38 1.229.667.422 1.563.758 2.01.754zm5.808-8.273c.16-.054.332-.308.382-.567.05-.258-.04-.6-.2-.76-.212-.212-.41-.172-.73.147-.366.367-.38.507-.09.857.191.23.478.376.638.323zm-7.42-2.392c.624-.476 1.483-.996 1.91-1.157.426-.16 1.013-.383 1.304-.495.498-.192.492-.21-.1-.312-.347-.06-1.143.087-1.77.327-.628.24-1.501.804-1.941 1.254-.44.45-.741.915-.668 1.033.073.118.643-.174 1.266-.65zm12.764-.297c.185-.253.455-.387.6-.297.145.09.34.04.433-.11.093-.15.28-.205.415-.121.136.083.243.056.238-.062-.005-.118-.3-.426-.657-.686-.59-.429-.719-.436-1.415-.076-.421.218-.834.573-.917.79-.102.265-.027.345.23.246.218-.083.458.052.559.315.168.439.194.439.514.001zm-4.995-1.22c.032.01-.005-.143-.08-.342-.077-.199-.436-.496-.798-.661-.363-.166-.851-.3-1.086-.3-.234 0 .1.288.74.64.642.354 1.193.652 1.224.662zm-3.255-.266c.28.011.436-.051.348-.14-.088-.087-.316-.097-.507-.02-.211.084-.149.147.16.16zm7.464-.244c.074 0 .364-.123.646-.274.281-.15.511-.441.511-.646 0-.204-.122-.447-.272-.54-.15-.092-.495.108-.769.446-.273.338-.442.704-.374.814.068.11.184.2.258.2zm-3.671-.273c.182.005.33-.285.33-.644 0-.373-.218-.769-.51-.925-.28-.15-.697-.201-.925-.113-.23.088-.417.276-.417.42 0 .142.268.483.596.756.327.273.744.5.926.506zm1.389-.59c.218-.037.434-.386.479-.775.057-.491-.08-.794-.444-.99-.29-.154-.706-.212-.925-.127-.351.134-.346.261.047 1.056.255.515.616.874.843.835zm1.452.07c.184 0 .479-.174.654-.385.175-.211.243-.622.151-.913-.092-.29-.409-.604-.703-.698-.295-.093-.57-.13-.61-.08-.042.05-.02.537.048 1.083.07.56.27.992.46.992z" id="path1196-1-6-9" fill="#212121" stroke-width=".265"></path></g></g></svg>