<svg xmlns="http://www.w3.org/2000/svg" width="82" height="81" viewBox="0 0 21.77 21.633"><title>ryza2 race scorpion</title><g fill="#212121" class="nc-icon-wrapper"><g transform="translate(-335.522 -189.716)"><path d="M353.02 211.348l-1.682-.01 1.436-.725c1.003-.506 1.51-.944 1.679-1.453.133-.4.172-.911.087-1.135-.092-.24-.399-.372-.745-.322-.435.063-.727.446-1.124 1.474-.294.764-.618 1.389-.72 1.389-.101 0-.291-.506-.422-1.125-.16-.757-.137-1.383.067-1.918.19-.496.67-.968 1.28-1.259.537-.255.976-.605.976-.776 0-.172.268-.604.595-.96l.595-.65-.72.131c-.497.09-.865-.027-1.18-.376-.396-.437-.406-.542-.074-.752.213-.135.655-.246.982-.249.351-.002.595-.166.595-.4 0-.219.11-.397.243-.397.134 0 .428.07.655.158.226.086.712.793 1.08 1.57.367.778.668 1.601.668 1.83 0 .23-.144.65-.321.933-.254.405-.25.711.014 1.442.239.661.256 1.076.062 1.44-.151.282-.74.881-1.31 1.332-.916.726-1.226.818-2.716.808zm-13.76-1.187c-.051.048-.773-.257-1.604-.679-.831-.422-1.635-.997-1.786-1.28-.15-.281-.274-1.464-.274-2.627 0-1.57.107-2.222.416-2.53.228-.23.658-.417.954-.417.372 0 .491-.123.385-.4-.084-.22-.029-.673.123-1.007.153-.334.603-.73 1.002-.881.41-.155.975-.18 1.303-.06.319.118.58.421.58.673 0 .362.067.39.323.134.256-.255.256-.433 0-.843-.178-.285-.324-.58-.324-.655 0-.074.328-.134.728-.132.4.002.991.074 1.314.16l.586.158-.525 1.03c-.304.595-.72 1.03-.984 1.032-.251 0-.602.314-.779.695-.262.566-.25.796.066 1.248.213.304.388 1.043.388 1.64 0 .991-.11 1.166-1.234 1.974-1.198.86-1.228.867-1.048.243.102-.354.243-1 .314-1.437.073-.452-.025-.987-.229-1.244-.227-.287-.564-.396-.932-.3-.498.13-.575.336-.575 1.537 0 1.184.139 1.568.952 2.633.524.686.91 1.287.86 1.335zm5.103-2.24c-.108 0-.577-.394-1.042-.873-.465-.48-.846-1.016-.846-1.191 0-.175.138-.318.306-.318.18 0 .122-.202-.142-.494-.376-.416-.404-.685-.175-1.704.149-.666.207-1.377.129-1.58-.078-.204.042-.523.267-.71.225-.187.409-.552.409-.811 0-.297.552-.783 1.492-1.313 1.005-.568 1.55-.746 1.674-.547.124.2.406.12.882-.255.385-.303.899-.515 1.142-.47.244.043.484-.04.533-.186.049-.146-.02-.436-.152-.646-.197-.312-.37-.324-.934-.066-.381.173-.857.315-1.057.315-.2 0-.732-.309-1.18-.687l-.817-.686 1.105-.743c1.065-.715 1.149-.729 2.294-.384.653.196 1.287.512 1.408.701.12.19.423.87.671 1.511l.452 1.168-1.177 1.014c-.647.559-1.075 1.015-.95 1.016.124 0 .574-.292.999-.65.435-.365.95-.582 1.177-.495.222.085.874-.057 1.448-.316.917-.413 1.044-.58 1.044-1.365 0-.554.152-.953.4-1.048.22-.084.574-.01.785.166.212.175.522.273.69.217.167-.056-.394-.513-1.248-1.017-1.218-.718-1.571-1.072-1.637-1.643-.067-.58.024-.728.448-.728.292 0 .591-.097.665-.217.074-.119-.505-.1-1.287.04-1.052.192-1.632.171-2.235-.079-.448-.185-.814-.429-.814-.54 0-.113.327-.292.727-.398.4-.107.589-.245.419-.308-.17-.063-1.003.232-1.852.657-.849.424-1.662.738-1.808.699-.145-.04-.592-.144-.992-.232-.4-.089-.728-.274-.728-.413 0-.138.387-.374.86-.523l.86-.271-.926.141c-.51.078-1.443.215-2.076.304l-1.15.16.579-1.133.578-1.134 2.132.146c1.362.094 2.303.04 2.606-.15.364-.227.83-.18 2.011.206.846.275 2.026.474 2.623.442 1.057-.057 1.098-.028 1.533 1.113.318.832.674 1.265 1.23 1.495.723.3.782.426.782 1.688 0 .791.169 1.605.401 1.937.364.52.35.678-.158 1.722-.307.633-.91 1.352-1.338 1.598-.43.246-.906.808-1.06 1.249-.186.533-.513.856-.98.968-.386.091-.853.286-1.038.432-.185.146-.267.487-.18.757.085.27.081.726-.01 1.012-.105.33-.5.583-1.077.691-.501.094-.911.267-.911.384 0 .117.149.267.33.334.25.09.26.242.039.617-.161.273-.726.726-1.255 1.006-.53.28-1.033.438-1.12.352-.085-.085.105-.415.423-.733.385-.385.49-.666.313-.843-.177-.176-.677-.023-1.5.46l-1.236.724-.765-.565c-.42-.311-.888-.565-1.04-.565-.15 0-.275.104-.275.232 0 .127.178.379.394.559.217.18.329.432.25.561-.08.13-.235.235-.343.235zm.126-2.384c.016.001-.031-.326-.106-.726-.074-.4-.35-1.005-.614-1.345l-.479-.617-.183.729c-.152.604-.051.835.585 1.344.422.338.78.615.797.615zm4.005-.308c.11-.05.645-.262 1.191-.472.82-.316.992-.512.992-1.123 0-.408-.054-.741-.12-.741s-.432.142-.813.316c-.382.174-.864.644-1.071 1.045-.207.401-.377.805-.377.897 0 .092.089.127.198.078zm-2.278-1.555c.093.007.69-.223 1.323-.51.635-.288 1.048-.527.92-.53-.129-.003-.675.127-1.214.288-.799.24-1.132.215-1.803-.132-.453-.235-.916-.426-1.028-.426-.112 0 .21.292.714.648.506.357.995.655 1.089.662zm-10.684-4.75c-.11 0 .662-1.726 1.714-3.836 1.053-2.11 2.01-3.837 2.13-3.837.12 0 .655.298 1.19.662.576.39.797.661.541.661-.237 0-.71.447-1.049.992-.34.546-.66 1.086-.713 1.2-.053.115.565-.116 1.373-.512s1.504-.922 1.547-1.17c.07-.404.222-.385 1.53.195l1.45.643-4.757 2.501c-2.617 1.376-4.847 2.501-4.956 2.501z" id="path1215-20-2" fill="#212121" stroke-width=".265"></path></g></g></svg>