<svg xmlns="http://www.w3.org/2000/svg" width="73" height="77" viewBox="0 0 19.544 20.476"><title>ryza2 category magical</title><g fill="#212121" class="nc-icon-wrapper"><g transform="translate(36.081 177.452)"><path d="M-25.38-156.976c-.196 0-.55-.296-.788-.657-.237-.362-.705-.838-1.04-1.058-.336-.22-1.346-.476-2.245-.57-.899-.094-1.756-.318-1.904-.497-.15-.179-.205-.496-.126-.704.08-.208.507-.592.949-.853.768-.454.783-.496.347-.978-.338-.374-.835-.509-1.936-.525-.814-.012-2.016-.16-2.67-.33-.91-.237-1.211-.448-1.275-.896-.062-.44.083-.628.587-.754.368-.092.644-.301.612-.464-.031-.162.314-.484.767-.716.82-.419.822-.424.331-1.03-.271-.335-.494-.882-.494-1.214 0-.36.376-.935.928-1.42.51-.447 1.611-1.02 2.447-1.274 1.107-.336 2.473-.464 5.025-.47 2.034-.005 3.47-.113 3.424-.255-.045-.135-.253-.344-.462-.463-.21-.12-.738-.352-1.175-.516l-.794-.298 1.116-.501c.91-.41 1.174-.697 1.43-1.555.174-.578.42-1.052.548-1.052.128 0 .457.524.73 1.163.394.918.7 1.23 1.45 1.477.521.172.887.414.811.536-.076.123-.495.302-.93.397-.437.096-.912.395-1.056.665-.144.27-.262.557-.262.64 0 .082.208.15.463.152.254.001 1.076.288 1.826.637.78.363 1.437.867 1.535 1.175.099.31-.01.856-.253 1.281-.234.407-.714 1.217-1.068 1.8-.353.581-.645 1.153-.647 1.27-.002.118.591.461 1.319.764.727.302 1.323.687 1.323.856 0 .168-.665.632-1.478 1.031-.813.399-2.014.798-2.669.888-1.05.144-1.344.347-2.485 1.719-.712.855-1.42 1.79-1.574 2.077-.154.287-.44.522-.637.522zm-.124-.793c.116 0 .579-.536 1.03-1.191.812-1.181.814-1.19.21-1.194a5.737 5.737 0 0 1-1.203-.163c-.328-.088-.595-.259-.595-.38 0-.12.625-.258 1.389-.306.764-.047 1.21-.163.992-.257-.218-.095-.856-.249-1.416-.342-.56-.094-.956-.234-.878-.311.077-.078 1.548-.16 3.268-.182 2.478-.032 3.336-.144 4.134-.54.555-.276.912-.58.794-.678-.117-.097-.54-.315-.939-.485-.563-.239-.711-.236-.661.013.04.201-.196.292-.63.244-.505-.057-.73.063-.829.443-.116.444-.41.533-2.02.61-1.035.048-1.882.004-1.882-.098 0-.103.387-.258.86-.345a16.182 16.182 0 0 1 1.426-.198c.31-.022.699-.254.862-.515.273-.438.164-.478-1.36-.503-1.478-.024-1.556-.05-.73-.248.51-.122 1.365-.292 1.9-.378.535-.087 1.226-.362 1.535-.612.537-.434.396-.454-3.222-.46-2.792-.003-4.167-.121-5.244-.452-.804-.246-1.726-.695-2.05-.997-.326-.303-.591-.79-.591-1.082 0-.37.344-.688 1.124-1.042.619-.28 1.63-.513 2.25-.516.618-.003 1.124.113 1.124.258 0 .146-.361.265-.802.265-.442 0-1.216.172-1.72.383-.505.211-.918.56-.918.776 0 .216.344.637.763.936.42.299 1.398.68 2.174.846.82.176 2.223.233 3.357.137 1.071-.09 2.576-.347 3.344-.57.768-.224 1.655-.682 1.972-1.02.34-.361.51-.786.413-1.037-.09-.234-.685-.624-1.323-.868-.637-.243-1.395-.381-1.683-.306-.289.076-.562.024-.609-.114-.046-.138-.915-.315-1.93-.392-1.016-.077-3.008-.018-4.427.13-1.786.188-2.902.452-3.626.86-.575.323-1.114.764-1.197.98-.082.215.027.663.244.994.217.33 1.082.859 1.922 1.173.84.314 2.123.638 2.852.72.73.08 1.505.247 1.723.368.25.14-.15.224-1.088.23a18.25 18.25 0 0 1-2.887-.259c-.771-.146-1.46-.208-1.53-.138-.07.07.039.178.242.24.202.063 1.412.331 2.689.597 1.521.316 2.159.546 1.852.668-.31.122-.128.191.54.204.553.01.94.128.856.262-.083.134-.925.327-1.871.428-.946.101-1.777.275-1.846.386-.068.111.241.662.688 1.224.446.562.95 1.11 1.12 1.218.17.108.577.198.904.2.328.002.596.121.596.264 0 .152-.522.205-1.257.127-.911-.095-1.111-.063-.728.12.291.137 1.006.272 1.588.3.582.026.856.102.608.167-.375.099-.4.225-.156.763.162.354.388.645.503.645zm1.161-9.13c-.873.046-2.155-.066-2.848-.249-.694-.182-1.334-.404-1.422-.492-.088-.088-.094-.334-.013-.546.082-.212.797-.53 1.59-.708.793-.178 1.86-.244 2.371-.148.512.096 1.068.34 1.236.543.24.287.201.43-.171.646-.433.252-.435.279-.027.286.247.004.758-.132 1.134-.304.392-.178.65-.489.605-.726-.05-.261-.568-.518-1.397-.694-.813-.173-1.156-.341-.896-.44.23-.09.884-.102 1.452-.029s1.328.272 1.69.442c.362.17.697.508.744.752.048.246-.202.633-.559.867-.355.232-.927.488-1.273.57-.345.08-1.343.184-2.216.23zm-.926-.461c.714-.008.9-.058.463-.124-.4-.06-.727-.213-.727-.34 0-.126.327-.282.727-.346.4-.064-.105-.102-1.124-.084-1.075.02-1.831.145-1.802.298.028.146.326.342.662.437.336.094 1.146.166 1.801.159zm-4.1 7.451c.4.011.44-.04.164-.216-.2-.127-.283-.363-.183-.525.1-.162.123-.294.051-.294-.072 0-.466.132-.875.293-.692.273-.708.31-.216.51.291.12.767.224 1.058.232zm-1.123-3.789c1.566.014 2.803-.02 2.748-.074-.054-.055-.383-.156-.73-.225-.347-.07-1.405-.198-2.35-.286-.947-.088-2.032-.341-2.412-.563-.643-.375-.732-.363-1.257.162-.311.31-.565.617-.565.68 0 .064.387.153.86.199.473.045 2.14.094 3.706.107zm9.093-8.008c.192-.462.612-.923.934-1.025.582-.185.581-.188-.107-.549-.38-.2-.768-.603-.861-.896-.093-.294-.28-.466-.415-.383-.135.084-.246.373-.246.644 0 .298-.286.591-.727.745l-.728.254.712.19c.517.137.764.419.9 1.025l.19.835zm-9.46-.086c-.123 0-.401-.427-.62-.948-.26-.622-.669-1.05-1.193-1.248-.44-.166-.799-.382-.799-.48 0-.097.307-.254.681-.348.484-.122.838-.527 1.226-1.403l.545-1.233.63 1.238c.418.825.848 1.293 1.287 1.403.362.091.656.242.653.335-.003.094-.389.349-.857.567-.58.27-.926.67-1.09 1.257-.133.473-.341.86-.464.86zm.034-1.456c.146-.09.265-.335.265-.544a.39.39 0 0 1 .397-.382c.218 0 .396-.119.396-.264 0-.146-.165-.265-.368-.265-.202 0-.455-.327-.562-.727l-.193-.728-.254.728c-.14.4-.453.733-.695.741-.351.011-.32.099.154.43.328.228.596.586.596.795 0 .209.119.306.264.216z" id="path1196-1-9-9" fill="#212121" stroke-width=".265"></path></g></g></svg>