<svg xmlns="http://www.w3.org/2000/svg" width="72" height="70" viewBox="0 0 19.076 18.764"><title>ryza2 category plants</title><g fill="#212121" class="nc-icon-wrapper"><g transform="translate(42.425 57.473)"><path d="M-32.193-38.71c-.277 0-.628-.23-.779-.51-.15-.282-.273-.967-.274-1.522 0-.555-.245-1.656-.545-2.445-.387-1.018-.528-1.936-.484-3.155l.063-1.719-1.703.062c-1.41.05-1.86-.045-2.62-.556-.503-.34-1.19-1.024-1.523-1.52-.335-.496-.91-1.922-1.28-3.168-.37-1.247-.795-2.587-.945-2.979-.15-.391-.187-.852-.08-1.024.132-.214.826-.274 2.208-.19 1.288.078 2.518.34 3.41.728.767.334 1.702.971 2.076 1.417.375.445.793 1.101.928 1.458.16.421.144.958-.046 1.536-.161.488-.354.888-.429.888-.074 0-.636-.516-1.249-1.146-.613-.63-1.495-1.28-1.96-1.442-.524-.182-.848-.197-.848-.038 0 .142.283.365.628.496.346.132 1.209.901 1.919 1.71.71.81 1.38 1.473 1.492 1.475.11.002.479-.622.818-1.386.339-.764.942-1.774 1.34-2.245.398-.47 1.5-1.227 2.45-1.68 1.567-.748 1.921-.816 3.805-.73 1.142.052 2.205.222 2.361.378.202.202.133.476-.24.95-.29.368-.753 1.515-1.03 2.55-.278 1.036-.703 2.186-.945 2.555-.242.369-.932.996-1.534 1.395-.888.588-1.463.742-3.059.823-1.115.056-2.08-.017-2.233-.169-.147-.147-.186-.526-.086-.841.12-.38.82-.867 2.077-1.445 1.042-.48 2.183-1.186 2.535-1.57.353-.383.58-.758.504-.833-.076-.076-.424.088-.774.363-.35.275-1.41.896-2.355 1.379-.946.483-1.928 1.051-2.182 1.264-.342.285-.463.781-.463 1.897 0 1.27.19 1.885 1.19 3.845.655 1.283 1.19 2.701 1.19 3.151 0 .45-.184 1.082-.411 1.406-.227.323-.64.588-.917.588z" id="path1196-5" fill="#212121" stroke-width=".265"></path></g></g></svg>