<svg xmlns="http://www.w3.org/2000/svg" width="84" height="82" viewBox="0 0 22.346 21.738"><title>ryza2 race wyrm</title><g fill="#212121" class="nc-icon-wrapper"><g transform="translate(-390.483 -189.079)"><path d="M391.767 210.74c-.1.123-.26.095-.357-.06-.096-.155-.04-.534.125-.841.165-.308.224-.861.131-1.23-.134-.535-.085-.638.243-.513.26.1.41.01.41-.247 0-.222.119-.33.264-.24.146.09.274.008.285-.183.011-.19.755-.985 1.654-1.766.898-.781 2.01-1.575 2.469-1.763.764-.314.884-.291 1.406.265l.571.608-.81.577c-.446.317-1.137.636-1.536.708-.398.072-1.09.41-1.535.75-.446.34-1.334 1.314-1.974 2.166-.64.851-1.245 1.648-1.346 1.77zm7.498-1.542c-.714.8-1.379 1.377-1.477 1.279-.098-.098-.177-.447-.177-.774 0-.348.562-1.212 1.349-2.073.742-.812 1.233-1.476 1.09-1.476-.143 0-.74.535-1.325 1.19-.587.655-1.137 1.19-1.223 1.19-.086 0-.156-.23-.156-.513 0-.282-.12-.587-.265-.677-.145-.09-.264-.28-.264-.423 0-.143.595-.63 1.323-1.082.727-.453 1.323-.902 1.323-.998 0-.097-.334-.496-.742-.887-.409-.39-.99-.71-1.291-.71-.302 0-.677-.156-.834-.345-.158-.19-.218-.607-.134-.926.098-.377.375-.596.782-.622.347-.021.754-.051.904-.066.15-.014.424.271.607.635.246.487.54.659 1.116.65.43-.008 1.05-.105 1.378-.217.432-.148.595-.102.595.17 0 .205.24.592.535.858.424.384.603.417.86.159.22-.222.311-1.204.282-3.061l-.043-2.735.711-.143c.391-.078 1.05-.408 1.462-.732.466-.367 1.35-1.84 2.33-3.877 1.338-2.785 1.706-3.34 2.417-3.639.461-.194.879-.312.928-.263.049.049-.219.543-.595 1.097-.552.812-.685 1.322-.685 2.619 0 .885.176 2.202.39 2.926.216.724.82 1.817 1.344 2.43.786.918.867 1.112.462 1.112-.27 0-.756.186-1.08.412-.448.315-.587.675-.587 1.526 0 .62.246 1.58.556 2.167.306.58.864 1.382 1.24 1.782.376.4.557.728.402.728-.155 0-.709-.179-1.231-.397-.523-.218-1.376-.397-1.897-.397-.679 0-1.127.194-1.58.683-.348.375-.709 1.03-.802 1.455-.093.425-.206.773-.25.773-.046 0-.423-.177-.84-.394-.417-.216-.996-.321-1.287-.233-.29.087-.797.473-1.124.856l-.596.697-.633-.764c-.5-.602-.774-.728-1.302-.595-.367.092-1.252.823-1.966 1.625zm3.175-2.78c.233 0 .729-.387 1.101-.86l.678-.86.821.465c.8.453.825.45.963-.077.078-.297.478-.715.888-.927.411-.213 1.39-.387 2.175-.387h1.427l-.774-1.521c-.636-1.25-.753-1.757-.655-2.844.066-.728.201-1.516.3-1.751.127-.298.019-.471-.355-.57-.296-.077-.68-.453-.854-.835-.257-.563-.24-.856.09-1.549.225-.47.483-1.27.575-1.779l.166-.925-.36.93c-.198.51-.73 1.659-1.18 2.552-.45.893-1.148 1.883-1.55 2.199-.402.315-1.044.637-1.426.713-.676.135-.689.175-.458 1.37.131.678.162 1.768.068 2.423-.093.655-.343 1.606-.554 2.113-.211.507-.638 1.192-.947 1.521-.462.492-.487.6-.139.6zm2.829-1.618l-.58-.152c-.256-.066-.462-.26-.459-.432 0-.171.125-1.138.271-2.147.146-1.01.313-1.884.37-1.942.059-.058.632.203 1.275.58.642.376 1.264.684 1.38.684.118 0-.34-.486-1.015-1.08-.675-.595-1.223-1.16-1.217-1.258.01-.096.533-.743 1.172-1.437l1.161-1.262.657.61c.522.483.601.708.385 1.094-.15.267-.218 1.045-.152 1.729.066.683.317 1.64.56 2.126.242.485.44.968.44 1.073 0 .104-.601.248-1.336.318-.969.093-1.535.32-2.065.828-.4.384-.782.685-.847.668zm3.85-12.934a.133.133 0 1 0 0-.265.133.133 0 0 0 0 .265zm-17.792 15.665c-.366.304-.39.198-.215-.967.183-1.219.165-1.283-.259-.931-.42.349-.44.307-.268-.543.102-.506.596-1.8 1.097-2.876.5-1.075 1.348-2.563 1.884-3.307a63.162 63.162 0 0 1 2.004-2.608c.566-.691 2.001-1.902 3.189-2.69 1.187-.79 3.29-1.92 4.672-2.514 1.52-.652 2.252-.874 1.852-.562-.363.284-1.477.965-2.473 1.513-.997.548-2.46 1.564-3.254 2.258-.792.693-1.658 1.377-1.923 1.519-.266.142-.685.684-.932 1.205s-.412 1.056-.365 1.19c.046.133 1.066-.462 2.267-1.323 1.2-.86 2.183-1.432 2.183-1.269 0 .163-.715 1-1.588 1.86-.873.859-1.587 1.732-1.587 1.94 0 .208.148.376.33.374.182-.002.85-.299 1.482-.661.634-.362 1.197-.658 1.252-.658.055 0 .024.553-.068 1.23-.138 1.006-.082 1.293.309 1.579.445.325.426.368-.269.633-.41.156-.905.222-1.1.148-.194-.075-.486-.428-.649-.784-.259-.569-.373-.613-.933-.357-.51.232-.724.204-1.066-.138-.394-.394-.393-.481.016-1.105.244-.372.329-.677.188-.677-.14 0-.441.264-.668.588-.226.323-.416.83-.421 1.124-.01.363-.364.708-1.107 1.066-.603.291-1.403.946-1.776 1.455-.374.51-.5.794-.282.632.218-.162.712-.37 1.098-.461.465-.111.794-.435.978-.963.152-.437.449-.795.659-.795.243 0 .425.36.502.992.066.546.049 1.024-.037 1.063-.087.04-.737.435-1.444.88-.708.443-1.346 1.035-1.42 1.314-.072.279-.237.442-.366.362-.13-.08-.235.048-.235.283 0 .236-.119.355-.264.265-.146-.09-.274.111-.286.447-.012.336-.083.458-.158.27-.112-.28-.213-.28-.548-.001zm11.641-8.797c-.109-.006-.664-.423-1.234-.926-.723-.638-.9-.915-.583-.915.25 0 .806.182 1.235.404.465.24.78.615.78.926 0 .287-.088.517-.198.511z" id="path1215-20-42" fill="#212121" stroke-width=".265"></path></g></g></svg>