<svg xmlns="http://www.w3.org/2000/svg" width="71" height="76" viewBox="0 0 18.884 20.225"><title>ryza2 category animal products</title><g fill="#212121" class="nc-icon-wrapper"><g transform="translate(95.386 173.818)"><path d="M-85.934-153.625c-.483.108-.894-.053-1.525-.598-.474-.41-1.01-.755-1.19-.767-.18-.011-.715-.142-1.188-.29-.571-.18-.86-.18-.86-.004 0 .146-.267.23-.595.188-.327-.042-.733.009-.902.114-.169.105-.492.12-.717.034-.226-.087-.484-.388-.574-.67-.089-.281-.45-.7-.801-.93-.352-.23-.578-.518-.504-.638.075-.121-.064-.332-.308-.468-.408-.228-.397-.324.127-1.172.314-.508.57-1.138.57-1.4 0-.263.197-.696.438-.962.286-.316.327-.484.116-.484-.23 0-.272-.33-.148-1.159.11-.736.068-1.225-.116-1.338-.16-.099-.29-.363-.29-.586 0-.224-.257-.768-.571-1.21-.464-.65-.514-.894-.265-1.293.17-.27.307-.795.307-1.165s.188-.746.417-.834c.23-.088.53-.454.666-.813.23-.607.29-.626.84-.265.327.214 1.06.36 1.636.324.762-.046 1.192-.25 1.597-.757.304-.381.686-.693.849-.693.165 0 .235-.233.158-.526-.087-.334.019-.586.29-.69.234-.09.426-.317.426-.504s.189-.412.419-.5c.23-.09.855-.15 1.389-.135.534.014 1.26.107 1.615.206.354.1.851.534 1.105.966.253.432.47.997.48 1.256.01.258.347.604.747.77.4.165.83.277.954.249.124-.029.401.093.615.27.263.218.448.234.568.048.098-.151.535-.283.972-.293.436-.01 1.006.138 1.266.328s.52.59.576.886c.058.297.301.84.542 1.208.41.627.408.71-.047 1.335-.267.366-.649.67-.849.674-.26.006-.32.229-.209.783.086.428.036.815-.11.864-.147.049-.258.325-.248.614.01.289.056.913.102 1.387.045.473.161.94.257 1.036.096.096.175.448.175.783 0 .334.235.734.522.887.414.222.488.455.362 1.134-.087.47-.362 1.033-.61 1.251-.25.219-.708.769-1.019 1.223-.357.522-.878.888-1.419.996-.621.124-.914.061-1.078-.232-.177-.315-.343-.34-.761-.116-.295.158-.683.23-.863.162-.18-.07-.616.097-.971.37s-.844.499-1.086.502c-.243.003-.48.116-.53.25-.048.136-.385.312-.749.394zm.198-1.115c.328-.208.596-.424.596-.48 0-.056-.476-.102-1.059-.102-1.015 0-1.04.02-.595.48.412.427.53.438 1.058.102zm1.125-.317c.194 0 .273-.08.176-.177a.25.25 0 0 0-.352 0c-.097.097-.018.177.176.177zm.926-.53c.073 0 .132-.059.132-.132a.133.133 0 0 0-.132-.132.133.133 0 0 0-.132.132c0 .073.06.133.132.133zm3.32 0c.121 0 .295-.12.387-.268.091-.148.267-.207.39-.13.123.075.481-.28.797-.79.315-.51.695-.928.845-.928.163 0 .2-.29.093-.728-.098-.4-.351-.903-.562-1.119-.31-.316-.483-.33-.898-.07a1.283 1.283 0 0 1-1.069.115c-.305-.113-.964-.157-1.466-.099-.5.059-.911.213-.911.342 0 .13-.218.236-.485.236s-.575-.09-.684-.198c-.11-.11-.695-.216-1.3-.237a54.673 54.673 0 0 1-2.822-.21c-.945-.096-1.832-.287-1.97-.426-.14-.138-.537-.252-.884-.252-.387 0-.588-.127-.52-.33.073-.215.752-.35 1.94-.383 1.007-.028 2.485-.1 3.285-.157.8-.059 1.738-.003 2.083.123.395.144.755.124.97-.055.189-.156.965-.256 1.725-.221 1.186.054 1.457-.029 1.91-.581.29-.355.65-.608.8-.564.174.051.167-.049-.018-.272-.162-.194-.283-.741-.27-1.215.014-.474.126-.924.25-1 .122-.076.223-.364.223-.639s.16-.596.355-.712c.195-.116.416-.458.492-.759.116-.465.013-.548-.686-.55-.452-.002-1.566-.076-2.476-.165-.914-.09-1.653-.057-1.653.073 0 .137-.305.139-.728.004-.4-.128-1.025-.21-1.39-.185-.363.026-.805.184-.982.35-.181.17-.876.264-1.588.214-.696-.05-2.065-.294-3.041-.543-.977-.25-1.714-.554-1.638-.676.075-.123.448-.223.827-.223.38 0 .62-.07.533-.157-.086-.087-.731-.16-1.433-.163a29.27 29.27 0 0 0-1.607.025c-.182.017-.33.261-.33.544 0 .282-.132.594-.292.693-.167.104-.225.51-.136.957.086.428.341.963.568 1.19.27.27.67.36 1.163.262.413-.083.824-.077.914.013.09.09.451.193.804.231.368.04.704-.095.789-.316.118-.308.529-.353 2.071-.226 1.058.087 2.698.198 3.643.247.946.048 2.17.175 2.719.282.55.106 1.067.304 1.15.44.085.135.083.317-.003.403-.086.085-.723.266-1.416.4-.692.136-1.973.303-2.847.373-.873.07-2.063.15-2.645.177-.582.027-1.208.145-1.39.263-.181.117-.436.149-.565.069-.129-.08-.381.032-.561.249-.18.216-.428.394-.551.394-.123 0-.156-.179-.072-.397.095-.248-.002-.397-.257-.397-.225 0-.483.12-.573.265-.09.145-.507.264-.926.264-.42 0-.83.11-.912.242-.083.133-.01.289.161.346.224.074.187.353-.13.99-.243.486-.442 1.09-.442 1.34 0 .252-.179.605-.397.786-.218.182-.397.464-.397.628 0 .182.596.316 1.522.344.836.025 1.52.062 1.52.082 0 .02.477.096 1.06.169.581.073 1.415.155 1.851.182.437.028.95.151 1.14.274.19.123.63.152.976.065s.694-.054.772.072c.079.127 1.327.184 2.775.127 1.627-.065 2.696 0 2.8.167.094.152-.072.272-.377.272-.3 0-.545.05-.545.11 0 .061.072.3.16.53.089.23.26.418.382.418zm-1.49-.55c.279.012.435-.05.347-.138-.088-.088-.316-.098-.507-.021-.21.084-.148.147.16.16zm-6.718-12.705c.223.015.667-.157.988-.382.41-.288.723-.334 1.054-.157.259.138.826.187 1.261.109.435-.08.94-.261 1.122-.405.223-.177.463-.152.739.077.308.256.482.264.713.033.23-.23.18-.404-.21-.712a29.914 29.914 0 0 0-1.111-.826c-.448-.314-.686-.345-.953-.123-.258.214-.582.217-1.17.012-.606-.211-.972-.2-1.429.043-.338.18-1.071.693-1.63 1.142-.992.794-1.002.819-.398.989.341.095.802.186 1.024.2z" id="path1196-1-9-5" fill="#212121" stroke-width=".265"></path></g></g></svg>