<svg width="90" height="85" xmlns="http://www.w3.org/2000/svg" viewBox="0 0 24.01 22.731"><title>meruru category housing</title><g class="nc-icon-wrapper"><g id="layer1" transform="translate(-134.922 -130.8)"><path d="M142.339 153.506c-.028-.028-1.629-.075-3.558-.105-1.929-.03-3.553-.13-3.61-.221-.057-.093-.137-2.86-.176-6.152l-.073-5.984.687-.887c.378-.488 1.48-1.72 2.448-2.74.968-1.018 1.829-2.183 1.913-2.589.084-.405.355-.844.6-.976.247-.132 3.266-.217 6.71-.19 6.752.055 6.532.102 6.532-1.375 0-.397.149-.922.33-1.168.3-.405.49-.413 2.05-.088l1.72.359-.074 1.426c-.041.785-.244 2.414-.452 3.621-.39 2.269-.227 3.494.463 3.494.19 0 .54.328.777.729.335.567.38.991.206 1.918-.124.654-.31 3.13-.414 5.503l-.19 4.314-.76.393c-.528.273-1.956.436-4.656.53-4.482.157-10.399.263-10.473.188zm1.726-5.24l.175-4.498-1.31-1.91c-.72-1.052-1.625-2.392-2.01-2.98l-.7-1.07-.773.731c-.425.402-1.469 1.577-2.32 2.612l-1.545 1.881.246 3.807c.135 2.094.248 4.254.25 4.8.006.885.08.992.68.992h.673l-.04-3.356c-.047-3.824.065-4.052 1.993-4.052 2.003 0 2.182.317 2.4 4.245l.19 3.455.958-.08.958-.08zm9.86 4.08c1.59-.15 2.97-.32 3.066-.379.096-.06.196-1.571.222-3.36.026-1.789.094-3.43.15-3.649.057-.218.18-.74.274-1.158l.17-.762-2.196.157c-2.409.172-3.76.301-7.784.744l-2.677.295-.165 1.751c-.21 2.233-.213 4.137-.006 5.65l.164 1.194 2.945-.107c1.62-.059 4.246-.228 5.836-.377zm-7.54-2.806c-.148-.39-.235-1.372-.192-2.183l.078-1.473H150.24l.079 1.81c.1 2.309-.103 2.556-2.102 2.556-1.451 0-1.581-.05-1.832-.71zm3.299-1.388c.148-.853.142-1.464-.015-1.622-.14-.14-.806-.177-1.495-.083l-1.241.17v1.376c0 .756.077 1.452.172 1.547.095.095.66.13 1.257.076 1.08-.095 1.085-.1 1.322-1.464zm3.325 1.189c-.14-.14-.256-.989-.256-1.886v-1.63l1.623-.147c.893-.08 1.786-.084 1.985-.008.392.15.436.94.144 2.596l-.187 1.058-1.527.136c-.84.075-1.642.022-1.782-.119zm2.753-1.274c.087-.327.16-.877.163-1.221.003-.521-.097-.6-.592-.467a5.187 5.187 0 0 1-1.058.163c-.364.003-.463.232-.463 1.062 0 1.026.027 1.058.895 1.058.705 0 .929-.126 1.055-.595zm-14.915 1.257v-3.308h-2.91l.003 1.522c0 .837.077 2.325.17 3.307l.169 1.786h2.569v-3.307zm-2.474.273c-.17-.442.225-.783.622-.538.396.245.32.926-.104.926-.203 0-.436-.175-.518-.388zm10.438-6.499c1.513-.16 3.347-.394 4.075-.521 1.117-.196.983-.214-.86-.116-5.133.272-6.416.438-6.416.827 0 .208.1.316.224.24.124-.077 1.463-.27 2.977-.43zm-1.88-1.116c-.003-.721-1.222-1.857-2.065-1.923-.464-.037-.844-.015-.844.049 0 .063.268.584.595 1.158.501.876.733 1.043 1.456 1.044.513.003.859-.131.858-.328zm-10.051-1.323a58.317 58.317 0 0 1 2.42-2.805c.725-.779 1.253-1.48 1.174-1.56-.296-.296-5.261 5.149-5.032 5.52.221.358.257.33 1.438-1.155zm12.765 1.234c.084-.085-.086-.56-.38-1.058-.461-.783-.67-.904-1.565-.904-.568 0-1.032.068-1.032.15 0 .083.312.559.693 1.058.49.642.904.909 1.41.909.396 0 .789-.07.874-.155zm7.077-.538c0-.071-.327-.47-.727-.888-.654-.681-.835-.738-1.786-.555-.804.154-.947.25-.596.404.499.216.642.938.187.938-.152 0-.58-.303-.95-.674-.587-.586-.865-.664-2.143-.595l-1.468.078.765.794.765.794 2.977-.083c1.637-.045 2.976-.141 2.976-.213zm-14.99-3.039c-.404-.743-.78-1.213-.836-1.045-.1.302 1.146 2.395 1.427 2.395.08 0-.186-.607-.59-1.35zm9.111.913c2.197-.095 4.148-.267 4.335-.383.258-.16.187-.372-.295-.885-.349-.372-.813-.676-1.031-.676-.293 0-.234.174.224.662.466.495.52.661.22.661-.221 0-.618-.238-.881-.529-.378-.417-.815-.53-2.067-.53-1.543 0-1.574.015-1.132.504.686.758.062.903-.645.15-.488-.52-.875-.653-1.89-.653-1.381 0-1.499.11-.864.813.26.286.314.52.146.623-.148.091-.535-.194-.86-.635-.55-.744-.712-.801-2.254-.801h-1.661l.546.926c.539.913.572.926 2.33.926.982 0 3.582-.078 5.78-.173zm5.981-4.851c.214-1.236.368-2.267.342-2.29-.026-.025-.6-.127-1.277-.228-1.384-.206-1.324-.3-1.68 2.647-.15 1.252-.105 1.385.841 2.467l1.001 1.144.192-.747c.106-.411.367-1.758.581-2.993zm-13.596 1.849c-.442-.62-.765-.794-1.482-.794-.829 0-.89.05-.64.518.368.688 1.033 1.052 1.942 1.062l.746.008zm3.255.53c.525 0 .523-.021-.08-.662-.452-.482-.896-.662-1.633-.662-1.136 0-1.112-.03-.742.94.236.622.374.69 1.091.547.452-.09 1.065-.164 1.364-.164zm3.89-.235c0-.478-1.34-1.089-2.385-1.089h-1.08l.475.653c.388.534.706.655 1.732.662.692.004 1.257-.097 1.257-.226zm2.084-.005c.56-.355.096-.82-.819-.82-.802 0-.809.012-.34.53.536.592.64.618 1.159.29zm.495-1.68c-.083-.248-1.6-.348-6.126-.401-4.18-.05-5.964.014-5.843.209.113.183 1.858.264 5.054.234 2.685-.025 4.957.03 5.05.122.326.327 1.98.183 1.865-.163z" id="path120260-7" display="inline" fill="#000000" fill-opacity="1" stroke-width=".265"></path></g></g></svg>