<svg width="85" height="94" xmlns="http://www.w3.org/2000/svg" viewBox="0 0 22.724 24.991"><title>meruru category farming</title><g class="nc-icon-wrapper"><g id="layer1" transform="translate(-45.933 -130.308)"><path d="M64.763 154.982c-.175-.175-.318-.472-.318-.661 0-.19-.102-.344-.227-.344s-.297-1.28-.382-2.845c-.152-2.782-.573-4.853-1.378-6.78-.365-.873-.45-.93-.949-.628-.3.182-.774.77-1.05 1.305-.496.96-4.492 4.714-5.017 4.714-.149 0-1.785-.878-3.637-1.951-5.088-2.95-5.863-3.446-5.872-3.768-.018-.621 2.442-5.428 3.529-6.897.626-.846 1.694-2.048 2.373-2.67 1.517-1.389 4.281-3.2 5.19-3.4.37-.082 1.058-.32 1.527-.53.82-.367.924-.342 2.607.62.963.55 2.596 1.758 3.627 2.682 1.032.924 2.15 1.86 2.487 2.08.434.285.607.643.593 1.23-.027 1.246-.25 1.595-1.776 2.798l-1.397 1.101.552.775c1.58 2.22 3.075 6.785 3.34 10.197.226 2.93.01 3.29-1.98 3.29-.838 0-1.667-.143-1.842-.318zm2.439-.901c.584-.224.543-2.538-.095-5.396-.506-2.266-2.23-6.744-2.71-7.041-.143-.088-.6.167-1.018.567l-.759.727.486.955c.866 1.702 1.577 4.455 1.858 7.192.15 1.472.341 2.784.423 2.916.169.274 1.192.319 1.815.08zm-10.975-6.653c1.805-2.216 4.25-5.693 4.25-6.043 0-.818-1.335-.381-2.5.818-1.227 1.262-1.796 1.418-3.283.9-.886-.31-1.149-.876-1.033-2.223.069-.793.068-.794-1.515-.875-1.67-.086-2.655-.634-2.388-1.329.121-.317.076-.325-.255-.05-.222.184-.403.523-.403.753 0 .23-.436 1.348-.969 2.483-.533 1.135-.92 2.1-.86 2.144.476.352 4.319 2.533 5.268 2.99.655.315 1.429.76 1.72.99.784.619 1.078.536 1.968-.558zm1.309-6.121c1.066-1.061 1.505-1.314 2.45-1.414.634-.067 1.344-.026 1.579.092.299.15.615.009 1.058-.47.347-.377 1.257-1.15 2.02-1.719.765-.569 1.39-1.157 1.39-1.307 0-.37-2.863-3.077-3.77-3.566-.837-.45-.894-.348-.308.547 1.064 1.624-1.175 4.237-3.195 3.73-.716-.18-1.723-1.66-1.723-2.533 0-.682 1.662-2.328 2.584-2.56.48-.12.543-.227.301-.518-.432-.52-.524-.497-3.229.819-3.246 1.579-4.843 3.006-5.479 4.896-.576 1.715-.47 1.846 1.491 1.852 1.653.005 2.03.38 1.908 1.898-.09 1.123.116 1.342 1.428 1.52.108.014.78-.556 1.495-1.267zm2.789-6.623c.546-.604.46-1.703-.144-1.818-.585-.111-2.086 1.197-2.086 1.82 0 .702 1.594.7 2.23-.003z" id="path120419-2" display="inline" fill="#000000" fill-opacity="1" stroke-width=".265"></path></g></g></svg>