<svg width="94" height="97" xmlns="http://www.w3.org/2000/svg" viewBox="0 0 25.108 25.8"><title>meruru category development</title><g class="nc-icon-wrapper"><g id="layer1" transform="translate(-17.702 -133.736)"><path d="M36.467 159.3c-5.002-.284-11.407-.957-12.335-1.296-.454-.166-2.054-.512-3.555-.769-1.502-.257-2.773-.594-2.825-.75-.052-.155.26-.406.695-.558.457-.159.974-.633 1.23-1.128.489-.946 1.354-6.836 1.618-11.026l.171-2.712H20.41c-1.138 0-1.57-.333-2.298-1.773-1.134-2.239.205-5.069 2.613-5.52.479-.09 1.747.019 2.817.241 1.07.223 2.6.48 3.401.57.8.09 1.742.35 2.093.579.56.363.984.375 3.44.096a144.47 144.47 0 0 0 5.25-.708l2.447-.389.885.872c1.747 1.721 2.23 5.228 1.261 9.163-.274 1.116-.635 3.636-.802 5.6-.684 8.04-.941 9.812-1.416 9.742-.179-.026-1.814-.132-3.633-.235zm3.014-.993c.225-.365.931-6.635 1.063-9.44.068-1.456.369-3.659.668-4.895.89-3.686.698-6.248-.57-7.602-.65-.694-1.571-.587-2.545.294-1.01.913-1.133 1.344-.692 2.4.43 1.03 1.045 1.443 1.488 1 .188-.188.1-.446-.283-.829-.614-.613-.625-.668-.393-1.828.199-.996.771-1.251 1.595-.711.485.317.624.646.624 1.474 0 1.286-.594 2.527-1.32 2.758-.94.298-.57.632.794.715.73.044 1.355.199 1.39.344.153.65-5.52.374-10.786-.524-2.651-.452-7.074-.766-7.754-.55-.447.142-.517.427-.537 2.206-.026 2.271-.15 3.597-.738 7.864-.4 2.903-.674 3.835-1.37 4.68-.538.651-.231.917 1.295 1.119.747.099 2.03.345 2.85.546.82.2 3.626.494 6.235.651 2.61.157 4.802.344 4.873.415.221.222 3.971.142 4.113-.087zm-3.543-.295c0-.155.149-.294.33-.31 1.032-.084-2.263-.603-7.414-1.167-5.138-.563-7.244-.97-6.885-1.329.055-.054 1.702.062 3.66.26 1.96.197 5.27.507 7.359.69 2.09.181 3.925.467 4.081.635.157.167.621.255 1.032.195 1.008-.148.944.126-.135.576-1.522.636-2.028.748-2.028.45zm-1.72-4.005a240.104 240.104 0 0 0-5.291-.772c-2.923-.377-5.91-1.042-6.107-1.36-.304-.493.089-.526 1.646-.14.852.21 2.265.453 3.138.539 2.008.196 8.787 1.212 9.635 1.444.683.187 1.098.853.507.813-.194-.013-1.781-.249-3.528-.524zm0-3.179c-1.209-.28-3.959-.582-6.412-.706-5.693-.286-6.169-.754-.652-.643 2.881.058 4.924.248 6.667.618 1.383.294 3.02.6 3.638.679.619.079 1.125.247 1.125.374 0 .364-2.058.212-4.366-.322zm.612-2.497c-.053-.052-1.84-.226-3.973-.385-3.757-.28-6.693-.827-7.209-1.342-.331-.331.777-.33 1.934.003.487.14 3.701.442 7.142.673 6.61.444 7.047.503 6.79.918-.146.237-4.458.36-4.684.133zm2.377-3.048c-.976-.114-1.902-.286-2.059-.383-.156-.097-2.156-.286-4.443-.421-4.278-.252-6.69-.69-6.876-1.248-.136-.41.167-.4 2.674.079 1.14.218 3.164.401 4.497.406 1.334.005 3.198.18 4.144.388.946.208 2.216.382 2.823.387 1.363.012 1.94.22 1.94.7 0 .398-.056.4-2.7.092zm-.627-5.743c-.51-1.432-.46-1.969.284-2.977.364-.493.662-.938.662-.99 0-.05-.387-.034-.86.037-.473.071-2.319.278-4.101.459-2.264.23-3.241.43-3.241.664 0 .507-.585 1.682-.837 1.682-.39 0-.237-1.27.207-1.713.235-.236.367-.49.292-.564-.075-.075-1.13-.314-2.346-.532a152.649 152.649 0 0 1-3.6-.687c-2.401-.505-4.306.455-4.296 2.166.005.766.584 2.553.944 2.913.147.146 1.866.148 4.344.006 3.02-.175 4.973-.145 7.408.114 1.82.193 3.8.365 4.4.382l1.094.032-.354-.992z" id="path120481-6" display="inline" fill="#000000" fill-opacity="1" stroke-width=".265"></path></g></g></svg>
