<svg width="101" height="93" xmlns="http://www.w3.org/2000/svg" viewBox="0 0 26.876 24.796"><title>meruru category tourism</title><g class="nc-icon-wrapper"><g id="layer1" transform="translate(-104.321 -131.045)"><path d="M111.316 155.658l-.554-1.752c-.48-1.52-.77-1.759-2.43-2.012-.61-.094-1.434-.293-1.83-.444-.69-.262-.699-.29-.215-.62.28-.191.91-.425 1.403-.52 1.742-.336 2.567-1.089 3.039-2.769.237-.846.431-1.851.431-2.233 0-.382.102-.758.226-.835.344-.212.833 1.068.833 2.18 0 1.702.899 2.542 3.307 3.091.82.187 1.323.444 1.323.676 0 .207-.712.669-1.602 1.038-.882.365-1.747.762-1.923.881-.39.264-1.105 1.922-1.105 2.562 0 .635-.743 1.258-.903.757zm3.086-4.842l1.124-.184-.926-.414c-.51-.228-1.13-.406-1.38-.396-.25.01-.74-.323-1.091-.74l-.637-.757-.284.624c-.156.343-.648.892-1.092 1.22-.98.725-1.005.92-.151 1.135.361.09.84.518 1.063.95l.406.786.922-1.02c.688-.762 1.206-1.067 2.046-1.204zm9.966.063c-.788-.268-2.743-1.14-4.344-1.937-1.6-.798-3.238-1.451-3.638-1.45-1.182.002-2.315-1.486-2.315-3.038 0-.501-.245-.712-1.257-1.084-.691-.254-1.959-.739-2.816-1.077-1.082-.427-1.852-.57-2.514-.465-1.306.206-2.3-.235-2.826-1.253-.972-1.88.253-6.063 2.455-8.378.91-.957 1.215-1.113 2.22-1.14 1.741-.047 1.882 0 2.886.954.96.913 5.307 3.641 6.307 3.959.315.1.572.292.572.428 0 .135.42.246.935.246 1.055 0 1.738.38 3.827 2.128.8.67 2.289 1.704 3.308 2.298 2.228 1.3 2.863 1.946 3.45 3.512.77 2.049.772 2.954.011 4.454-.378.747-.954 1.525-1.28 1.731-.968.61-3.355.663-4.98.112zm3.528-1.733c.856-.896 1.772-2.863 1.78-3.824.01-1.328-.536-1.954-2.973-3.407-1.322-.789-2.486-1.468-2.586-1.51-.1-.041-.246.556-.326 1.329-.199 1.928-1.37 4.292-2.628 5.302l-1.029.827.654.343c.36.188 1.363.507 2.228.71.866.201 1.797.496 2.07.654.909.528 2.067.353 2.81-.424zm-6.971-2.926c1.971-1.972 3.021-5.458 2.046-6.792-.323-.442-.373-.34-.483.988-.161 1.94-1.5 4.659-2.872 5.834-1.186 1.015-1.279 1.242-.506 1.242.298 0 1.115-.572 1.815-1.272zm-1.886-.459c1.252-1.07 2.67-3.725 2.898-5.419.107-.802.017-1.375-.312-1.987-.437-.811-.53-.853-1.682-.746-1.435.134-1.825.358-.625.358.775 0 1.896.752 1.896 1.27 0 .117-.424.225-.942.24-1.15.032-1.882.65-2.22 1.873-.277 1.006.145 2.204.934 2.645.362.203.328.34-.262 1.04-.65.773-1.758 1.213-2.418.96-.48-.184-.913-1.333-.91-2.418.003-1.212.97-3.341 2.107-4.635.47-.536.725-.975.566-.975-.387 0-1.822 1.971-2.456 3.374-.665 1.47-.903 3.516-.499 4.272.718 1.34 2.455 1.407 3.925.148zm-6.118-3.78c-.6-.663-.55-1.2.224-2.426.364-.576.661-1.151.661-1.277 0-.126.239-.445.53-.709.477-.43.64-.444 1.6-.126.996.328 1.11.313 1.645-.223.317-.317.443-.576.28-.576-.383 0-3.75-2.023-4.49-2.697l-.568-.518-.182 1.323c-.218 1.586-1.493 4.39-2.456 5.4-.826.867-.706 1.032 1.26 1.742 1.853.669 2.032.68 1.496.087zm2.627-3.545c-.75-.622-.92-.586-1.221.259-.143.4-.45 1.064-.682 1.475-.4.71-.391.781.175 1.384l.596.635.841-1.648.841-1.648zm-8.886 2.177a.272.272 0 0 0-.278-.264c-.477 0-1.107-1.895-.95-2.86.178-1.096 1.019-2.753 2.075-4.086.432-.545.657-.992.5-.992-.454 0-1.81 2.042-2.396 3.61-.642 1.714-.693 3.459-.126 4.269.418.597 1.175.806 1.175.323zm2.976-.992c1.851-1.9 2.885-5.23 2.121-6.832-.388-.815-.542-.907-1.508-.903-.591.003-1.254.12-1.472.26-.291.189-.101.258.713.261.834.003 1.208.146 1.51.576.472.674.346 1.015-.313.843-.859-.225-1.919.393-2.32 1.353-.538 1.287-.482 1.81.278 2.631.364.393.657.797.652.899-.014.304-.886 1.257-1.45 1.583-.497.288-.488.306.149.313.437.005 1.013-.34 1.64-.984z" id="path120325-7" display="inline" fill="#000000" fill-opacity="1" stroke-width=".265"></path></g></g></svg>
