<svg width="93" height="95" xmlns="http://www.w3.org/2000/svg" viewBox="0 0 24.736 25.26"><title>meruru category mushroom</title><g class="nc-icon-wrapper"><g id="layer1" transform="translate(37.254 -134.22)"><path id="path120202-4" d="M-23.556 159.307c-.483-.122-1.179-.502-1.547-.846-.727-.679-.713-.312-.2-5.337l.185-1.802-1.294.025c-2.69.05-8.01-.992-9.06-1.776-1.251-.935-1.869-2.512-1.772-4.53.13-2.703 1.077-4.304 4.246-7.174 2.108-1.909 4.925-3.382 6.92-3.618 1.793-.212 5.884.733 7.727 1.786 3.678 2.1 6.233 6.43 5.782 9.795-.257 1.915-2.47 3.936-4.31 3.936-.642 0-.684.063-.49.727.116.4.198 1.714.182 2.92-.022 1.671-.167 2.475-.61 3.39-1.01 2.086-3.361 3.109-5.76 2.504zm3.393-1.405c1.673-1.14 1.954-1.784 1.969-4.525.007-1.503-.108-2.616-.294-2.842-.17-.205-.393-.83-.498-1.39-.284-1.522-1.422-2.545-3.044-2.737-1.112-.132-1.424-.068-1.915.39-.536.5-4.834 1.974-7.069 2.424l-.926.186.962.281c1.332.39 2.74.071 4.662-1.055.912-.534 1.707-.846 1.794-.705.365.59.443 5.068.124 7.119-.384 2.47-.24 2.807 1.359 3.185 1.473.348 1.96.292 2.876-.331zm3.003-9.135c.07-.112-.35-.48-.934-.815l-1.061-.61.603.815c.584.79 1.132 1.03 1.392.61zm-9.852-1.252c.637-.22 1.396-.508 1.687-.642.29-.134.708-.311.926-.394.218-.082-.615-.109-1.852-.06-1.518.062-2.585.255-3.283.594l-1.033.504.901.163c1.414.257 1.432.256 2.654-.165zm12.24-.792c-.061-.55-1.36-.918-3.252-.922-1.926-.004-1.951.005-1.492.512.315.349.91.55 1.827.619 2.032.152 2.95.086 2.918-.209zm-11.26-1.195c1.067-.003 1.386-.078 1.104-.26-.619-.4-2.457-.294-3.043.176-.465.373-.47.404-.044.256.266-.092 1.16-.17 1.984-.172zm9.93-.657c-.186-.486-.768-.49-1.815-.01l-.794.363 1.381.022c1.124.017 1.353-.053 1.229-.376zm-7.239-.008c0-.227-1.169-.604-1.417-.457-.125.074-.065.237.132.362.397.251 1.285.317 1.285.095zm4.101-.378c1.073-.487 1.066-.514-.255-.924-.22-.069-.628.217-.944.661-.651.914-.373.975 1.2.263zm-1.873-.325c.474-.677.368-.892-.298-.605-.261.113-.77.175-1.133.138l-.658-.066.658.547c.833.693.937.692 1.431-.014z" display="inline" fill="#000000" fill-opacity="1" stroke-width=".265"></path></g></g></svg>
