<svg width="88" height="87" xmlns="http://www.w3.org/2000/svg" viewBox="0 0 23.535 23.106"><title>meruru category construction</title><g class="nc-icon-wrapper"><g id="layer1" transform="translate(9.615 -133.167)"><path d="M8.975 155.942c-.143-.182-.346-.687-.45-1.122-.105-.436-.509-1.305-.897-1.931-2.176-3.509-3.244-5.039-4.045-5.793l-.895-.843-2.611 1.485c-2.056 1.169-2.919 1.51-4.051 1.605-1.436.119-1.442.116-2.719-1.208-1.307-1.356-2.922-4.31-2.922-5.345 0-.87.483-1.594 1.26-1.89.386-.146 1.56-.81 2.609-1.474 1.825-1.157 1.902-1.246 1.77-2.062-.115-.704-.012-.952.594-1.428 1.037-.817 1.896-.978 2.464-.464.26.235.556.428.657.428.101 0 .934-.473 1.85-1.052 2.73-1.724 3.426-1.943 4.605-1.452 1.38.575 2.842 2.079 3.494 3.594.528 1.228.533 1.345.13 2.95-.382 1.52-.535 1.75-1.692 2.54l-1.272.867.563 1.017c1.126 2.034 3.882 5.783 5.179 7.045 1.514 1.472 1.655 2.145.802 3.816l-.534 1.048H11.05c-1.137 0-1.912-.124-2.075-.33zm1.56-2.58c.603-.436 1.257-.793 1.453-.793.568 0 .428-.303-.668-1.445-.564-.588-1.902-2.378-2.975-3.979-1.072-1.6-2.524-3.476-3.226-4.167-1.149-1.132-1.214-1.257-.655-1.257.34 0 .87.175 1.176.39.513.359.669.307 2.043-.677 1.377-.986 1.487-1.143 1.487-2.112 0-1.928-1.471-4.206-3.184-4.928-.559-.236-.937-.155-2.25.482-1.62.786-2.122 1.083-7.505 4.436l-3.142 1.956.831.836c.945.951 3.08 4.75 3.08 5.482 0 .672.155.63 2.253-.594 2.134-1.246 2.82-1.806 2.616-2.138-.185-.3.684-2.604.982-2.604.122 0 .086.3-.081.668-.257.562-.206.844.319 1.786.343.615 1.085 1.658 1.65 2.318 1.135 1.326 2.786 3.944 3.704 5.871.327.688.686 1.254.796 1.257.11.003.694-.35 1.296-.787zm-12.477-16.404c.619-.483.626-.517.119-.523-.545-.006-1.177.446-1.177.841 0 .341.35.236 1.058-.318z" id="path120540-5" display="inline" fill="#000000" fill-opacity="1" stroke-width=".265"></path></g></g></svg>