<svg width="84" height="98" xmlns="http://www.w3.org/2000/svg" viewBox="0 0 22.485 25.946"><title>meruru category security</title><g class="nc-icon-wrapper"><g id="layer1" transform="translate(-74.794 -130.47)"><path d="M77.303 155.16c-3.137-1.669-3.21-2.026-.9-4.43l1.648-1.717-.995-.991c-1.545-1.54-1.803-2.203-1.443-3.7.397-1.645 2.067-5.168 3.187-6.72 2.777-3.851 6.433-6.624 9.176-6.96l1.413-.172 2.315 2.327c3.476 3.493 5.076 6.729 5.468 11.054.179 1.97.166 2.031-.583 2.814-.42.44-1.17 1.05-1.665 1.356l-.9.557.667.55c1.017.838 2.588 3.038 2.588 3.624 0 1.068-5.659 3.159-9.655 3.568-2.65.271-3.476.011-4.353-1.37l-.748-1.18-.658 1.26c-.904 1.731-1.516 1.748-4.562.13zm4.16-1.471c.23-.46.487-1.046.569-1.3.168-.52.96-.64.96-.146 0 .175.382.948.848 1.718 1.08 1.783 1.62 1.897 5.4 1.146 2.732-.544 6.539-1.886 6.87-2.424.189-.304-1.54-2.466-2.446-3.06-.61-.399-.75-.383-2.312.258-2.363.97-4.481 1.288-8.024 1.201-2.825-.068-3.154-.13-3.85-.716l-.763-.64-1.471 1.47c-.975.976-1.418 1.612-1.313 1.886.087.227 1.086.883 2.22 1.46 2.309 1.17 2.297 1.173 3.312-.853zm4.441-3.357c.508-.148 1.727-.44 2.707-.646 2.004-.423 5.478-2.125 6.94-3.4l.968-.843-.402-2.28c-.751-4.27-2.1-6.777-5.29-9.832-1.857-1.777-1.884-1.79-3.028-1.62-1.884.283-4.47 1.885-6.792 4.208-2.451 2.453-3.897 4.939-4.358 7.49-.165.919-.363 1.833-.44 2.032-.076.198.285.816.804 1.372l.941 1.011-.524-1.048c-.882-1.765-.71-3.27.685-5.97 1.848-3.578 4.096-5.833 5.402-5.418.275.087 1.18.893 2.01 1.79 1.804 1.948 3.83 5.898 4.016 7.826.111 1.16.046 1.342-.768 2.157-.488.489-1.41 1.22-2.046 1.624-.94.597-2.17 1.817-1.832 1.817.045 0 .499-.121 1.007-.27z" id="path120372-4" display="inline" fill="#000000" fill-opacity="1" stroke-width=".265"></path></g></g></svg>