<?xml version="1.0" encoding="UTF-8" standalone="no"?>
<!-- Created with Inkscape (http://www.inkscape.org/) -->

<svg
   version="1.1"
   id="svg1"
   width="36.396008"
   height="37.784828"
   viewBox="0 0 36.396008 37.784828"
   xmlns="http://www.w3.org/2000/svg"
   xmlns:svg="http://www.w3.org/2000/svg">
  <defs
     id="defs1" />
  <g
     id="g1"
     transform="translate(-990.77521,-624.51758)">
    <path
       d="m 998.27416,660.70994 c -1.92557,-1.05002 -4.40057,-2.92649 -5.5,-4.16994 l -1.99895,-2.26082 2.5,0.77051 c 4.89445,1.50849 9.92179,1.72439 13.40269,0.57559 4.0133,-1.32451 8.5973,-6.21273 8.5973,-9.16786 0,-2.91483 1.6433,-1.39776 2.3583,2.17712 0.7197,3.59836 -1.143,8.62179 -4.2101,11.35444 -3.0907,2.75355 -10.753,3.11821 -15.14924,0.72096 z m 26.07854,-8.61678 c -0.1795,-8.45266 -7.1236,-14.9083 -15.2818,-14.20685 -4.199,0.36103 -4.6054,0.2199 -3.7845,-1.31399 1.1331,-2.11731 7.8435,-4.54286 11.0151,-4.53781 3.6843,0.006 7.9547,3.26893 9.5339,7.04843 1.79,4.28406 1.7801,10.07017 -0.024,14.01022 l -1.3737,3 z m -25.8794,-2.17281 c -11.32789,-5.5827 -5.98487,-21.49522 8.3019,-24.72464 l 3,-0.67813 -3.2777,2.63196 c -3.779,3.0345 -7.22229,9.20176 -7.22229,12.9359 0,3.60845 2.46529,9.10156 4.65629,10.37519 1.7543,1.01975 1.7468,1.07208 -0.1563,1.07935 -1.1,0.004 -3.4858,-0.72463 -5.3019,-1.61963 z m 5.7817,-2.36496 c -1.3772,-2.57326 -0.4352,-5.64815 2.155,-7.03436 4.2962,-2.29928 9.1258,4.41159 5.6652,7.87213 -1.9509,1.95095 -6.5939,1.45355 -7.8202,-0.83777 z"
       id="path1" />
  </g>
</svg>
