<?xml version="1.0" encoding="UTF-8"?>
<svg width="104.62" height="99.963" version="1.1" viewBox="0 0 104.62 99.963" xmlns="http://www.w3.org/2000/svg">
 <g transform="translate(-1605.5 -123.98)">
  <path d="m1645.1 220.53c-1.6125-4.886 0.6159-9.5212 8.5069-17.695 4.9009-5.0764 6.4648-7.3918 6.4648-9.5711 0-6.6983-6.0704-10.624-16.5-10.67-7.562-0.0336-12.52 1.8621-17.682 6.7599-5.6675 5.3783-7.537 8.8924-8.1748 15.366-0.9621 9.7663-3.3629 13.225-9.1801 13.225-3.3221 0-3.8668-4.1964-2.0665-15.922 1.6541-10.773 7.2943-23.517 13.4-30.275 4.2072-4.6569 13.858-9.7691 23.996-12.712 3.9638-1.1504 10.268-2.9775 14.009-4.0603 9.0394-2.6162 12.66-6.3713 19.377-20.095 2.9267-5.98 5.7712-10.885 6.3212-10.9 1.1747-0.0324 26.5 29.369 26.5 30.765 0 0.52197-3.5689 3.71-7.931 7.0844-10.42 8.0609-14.164 12.599-16.984 20.586-3.3227 9.4119-8.5038 16.72-19.22 27.109-16.353 15.854-18.809 17.152-20.837 11.005zm-21.915-7.1691c-1.6066-2.0425-2.1131-4.0957-2.1131-8.5662 0-5.3274 0.3263-6.2308 3.4729-9.6151l3.473-3.7353 0.027 3.4398c0.015 1.8919 0.547 5.9571 1.1825 9.0338 1.9848 9.6095-1.5571 15.145-6.0423 9.4431zm13.217-7.6667c-4.1364-4.6116-5.3304-7.266-5.3304-11.85 0-5.1489 1.0963-6.5692 5.7965-7.5092l3.1059-0.62118-0.9888 3.5813c-0.813 2.9443-0.6264 4.2917 1.0488 7.5754 4.0757 7.9891 1.4158 14.451-3.632 8.8238zm11.805-8.1499c-5.7132-4.2151-7.4417-7.9906-5.2453-11.457 0.9539-1.5054 7.1096-0.6947 7.1096 0.93635 0 0.5063 0.9256 1.8462 2.057 2.9775 1.4811 1.4811 1.971 3.0692 1.75 5.6727-0.3858 4.5442-1.534 4.9229-5.6713 1.8705z"/>
 </g>
</svg>
