<?xml version="1.0" encoding="UTF-8" standalone="no"?>
<!-- Created with Inkscape (http://www.inkscape.org/) -->

<svg
   version="1.1"
   id="svg1"
   width="221.24823"
   height="221.41039"
   viewBox="0 0 221.24823 221.41039"
   xmlns="http://www.w3.org/2000/svg"
   xmlns:svg="http://www.w3.org/2000/svg">
  <defs
     id="defs1" />
  <g
     id="g1"
     transform="translate(-682.87497,-225.50131)">
    <path
       d="m 796.22598,446.31161 c -52.78671,-8.21453 -88.4476,-58.08588 -78.98479,-110.4593 0.79499,-4.4 1.45429,-8.04982 1.46511,-8.11071 0.0108,-0.0609 -2.23007,-0.37716 -4.97977,-0.70282 -9.63284,-1.14087 -16.44127,-6.14275 -20.64291,-15.16552 -2.62132,-5.62915 -3.09686,-13.12774 -1.01323,-15.97728 2.11442,-2.89164 5.63436,-1.26911 10.48419,4.83275 2.38073,2.99533 5.63573,5.98749 7.23334,6.64924 5.60017,2.31966 18.56704,-2.06824 21.85505,-7.39561 1.9257,-3.12009 1.92413,-3.15666 -0.49257,-11.49335 -1.33343,-4.59981 -2.42442,-10.33731 -2.42442,-12.75 v -4.3867 h 4.3867 c 2.41269,0 8.15019,1.09099 12.75,2.42442 8.33668,2.4167 8.37326,2.41827 11.49335,0.49257 5.32737,-3.28801 9.71527,-16.25488 7.3956,-21.85505 -0.66174,-1.5976 -3.6539,-4.8526 -6.64924,-7.23334 -8.79936,-6.99385 -8.15782,-11.83966 1.56472,-11.81883 12.13674,0.026 23.25558,10.41208 24.76182,23.12995 0.52841,4.46154 0.82003,4.94607 2.69479,4.47742 13.35552,-3.33855 33.72347,-3.16648 47.07238,0.39768 33.89322,9.04948 59.60501,35.71341 68.22156,70.74787 2.23966,9.10635 2.28168,31.14921 0.0779,40.88102 -4.0078,17.69851 -12.70176,33.38222 -25.72272,46.40317 -12.92201,12.92201 -28.93577,21.83927 -45.89536,25.55679 -8.44475,1.85109 -26.84255,2.57084 -34.65152,1.35563 z m 31.93223,-22.54496 c 8.62246,-2.19687 21.06364,-8.46041 28.04354,-14.1186 11.67097,-9.46093 21.11372,-24.23117 25.12213,-39.29574 2.50111,-9.39979 2.29194,-26.16345 -0.45363,-36.3549 -5.35586,-19.88074 -19.39542,-37.2579 -37.14683,-45.97769 -5.22359,-2.56591 -12.42244,-5.43875 -15.99744,-6.38408 -8.01569,-2.11959 -26.18593,-2.32864 -34,-0.39118 -37.20022,9.22362 -62.09757,45.73001 -56.00747,82.12242 2.77042,16.55515 9.36345,29.49842 20.92552,41.0805 11.20106,11.22044 25.4423,18.43151 41.39694,20.96139 6.84751,1.08578 20.5519,0.28541 28.11724,-1.64212 z m -120.82884,-131.057 c -6.07212,-1.86426 -8.91323,-3.5929 -14.43758,-8.78434 -6.74223,-6.33594 -9.44091,-12.46512 -9.9389,-22.573 -0.57094,-11.58882 1.92947,-18.31639 9.69309,-26.08 7.76361,-7.76361 14.49117,-10.26403 26.08,-9.69308 10.61499,0.52296 16.55813,3.32087 23.73567,11.17425 5.52378,6.04388 7.97829,11.76791 8.94018,20.84883 0.70714,6.67595 0.56247,6.74728 -8.40044,4.14169 -3.51671,-1.02234 -7.86478,-1.4598 -11.93399,-1.2007 -5.58233,0.35546 -6.80734,0.81339 -9.57219,3.57824 -2.76485,2.76485 -3.22278,3.98986 -3.57824,9.5722 -0.2591,4.0692 0.17836,8.41727 1.20069,11.93398 2.41978,8.32373 2.294,8.73583 -2.64168,8.65494 -2.3375,-0.0383 -6.45348,-0.74616 -9.14661,-1.57301 z m -0.0579,-42.81189 c 3.51541,-3.5154 3.42435,-9.74217 -0.19148,-13.0932 -8.35397,-7.7422 -20.64392,4.54776 -12.90173,12.90173 3.35104,3.61582 9.5778,3.70688 13.09321,0.19147 z"
       id="path1" />
  </g>
</svg>
