<?xml version="1.0" encoding="UTF-8" standalone="no"?>
<!-- Created with Inkscape (http://www.inkscape.org/) -->

<svg
   version="1.1"
   id="svg1"
   width="193.22203"
   height="244.60587"
   viewBox="0 0 193.22203 244.60587"
   xmlns="http://www.w3.org/2000/svg"
   xmlns:svg="http://www.w3.org/2000/svg">
  <defs
     id="defs1" />
  <g
     id="g1"
     transform="translate(-1171.272,-250.97101)">
    <path
       d="m 1253.9128,489.04137 c -28.3271,-15.4133 -46.2814,-31.84646 -54.0931,-49.51002 -1.3291,-3.00549 -3.5376,-10.64897 -4.9076,-16.98552 -3.3545,-15.51546 -11.083,-48.50037 -18.4725,-78.84035 -4.8655,-19.97667 -5.821,-25.16636 -4.8006,-26.0756 0.7006,-0.62434 4.4238,-2.40474 8.2738,-3.95644 12.9289,-5.21086 45.9344,-22.50478 52.8347,-27.68384 3.7591,-2.8214 10.5091,-8.60827 15,-12.85971 7.0402,-6.66474 10.6112,-10.7099 18.6904,-21.17187 1.4617,-1.89274 1.7823,-1.64323 7.7042,5.99662 6.5394,8.43636 19.7861,21.1932 29.7707,28.66985 6.2413,4.67358 39.817,22.13873 52,27.04895 3.85,1.5517 7.5596,3.31844 8.2435,3.9261 0.9796,0.87033 -0.04,6.40484 -4.8041,26.0756 -9.2547,38.21269 -14.74,61.61985 -17.9583,76.63317 -3.2362,15.09611 -5.8063,21.74487 -11.8409,30.63124 -4.7144,6.94223 -16.0511,17.66652 -26.9496,25.4938 -7.4263,5.33354 -29.5971,17.90079 -33.6906,19.09709 -1.349,0.39425 -6.2311,-1.71777 -15,-6.48907 z m 37,-23.64946 c 11.4976,-7.39525 19.4649,-14.23209 25.638,-22.0003 10.3595,-13.03636 12.0437,-17.77473 21.5182,-60.53997 5.4458,-24.58094 8.0704,-38.29686 7.3729,-38.52937 -2.6041,-0.86802 -11.1178,-8.44724 -12.5075,-11.13459 -0.8385,-1.62153 -1.8614,-5.27526 -2.2731,-8.1194 l -0.7485,-5.17117 -9.5,-4.97947 c -20.8553,-10.93142 -38.52,-24.71055 -47.782,-37.27173 -2.4332,-3.3 -4.7152,-5.78418 -5.071,-5.52041 -0.3559,0.26378 -2.4851,2.96378 -4.7317,6 -9.144,12.35799 -26.78,26.01014 -47.4086,36.69933 l -9.4933,4.91918 -0.7759,5.39141 c -0.4267,2.96528 -1.5761,6.76161 -2.5542,8.4363 -1.5844,2.71293 -7.6701,8.06836 -11.786,10.37172 -1.2965,0.7256 -0.3226,6.18937 6.9431,38.95166 6.8947,31.08902 9.1179,39.49369 12.0708,45.63308 8.467,17.60361 23.3775,31.34592 47.9964,44.2359 l 9.9643,5.21715 8.0641,-4.04346 c 4.4352,-2.2239 11.214,-6.06954 15.064,-8.54586 z m -32.2185,-6.20919 c -22.4174,-12.22053 -35.3693,-24.96461 -41.1944,-40.53352 -1.0882,-2.90859 -4.9168,-19.33601 -8.508,-36.50538 l -6.5293,-31.21703 5.3762,-5.14044 c 5.2685,-5.0375 5.9331,-6.36949 9.1563,-18.35294 0.1794,-0.66687 3.1593,-2.62948 6.6219,-4.36136 15.6994,-7.85213 30.4918,-18.40285 38.8479,-27.70846 l 5.2402,-5.83563 8.1039,8.13462 c 8.6775,8.71049 22.1404,18.21683 34.8447,24.60446 4.3161,2.1701 8.0218,4.49311 8.2348,5.16225 0.2131,0.66914 1.1291,3.91662 2.0357,7.21662 1.3616,4.95652 2.5866,6.89399 7.0436,11.14044 l 5.3953,5.14044 -6.5294,31.21703 c -3.5912,17.16937 -7.4198,33.59679 -8.508,36.50538 -5.8672,15.68151 -21.2292,30.55083 -42.8268,41.45326 -3.316,1.6739 -6.8294,3.03712 -7.8076,3.02938 -0.9782,-0.008 -5.0268,-1.78484 -8.997,-3.94912 z"
       id="path1" />
  </g>
</svg>
