<?xml version="1.0" encoding="UTF-8" standalone="no"?>
<!-- Created with Inkscape (http://www.inkscape.org/) -->

<svg
   version="1.1"
   id="svg1"
   width="249.93471"
   height="204.48045"
   viewBox="0 0 249.93471 204.48045"
   xmlns="http://www.w3.org/2000/svg"
   xmlns:svg="http://www.w3.org/2000/svg">
  <defs
     id="defs1" />
  <g
     id="g1"
     transform="translate(-969.56228,-729.69573)">
    <path
       d="m 1023.0592,931.84638 c -6.7706,-3.15294 -14.8651,-12.08419 -16.3705,-18.06295 -1.3908,-5.52344 -0.3268,-11.15532 3.0981,-16.39853 2.2179,-3.39529 2.2927,-3.89384 0.9389,-6.25846 -3.3922,-5.92514 1.6404,-11.78486 16.3296,-19.01326 9.862,-4.85301 9.938,-4.91745 5.7992,-4.91745 -11.9969,0 -21.5113,-5.32019 -22.9172,-12.81472 -0.5112,-2.72466 -2.3869,-5.28514 -7.5018,-10.24018 -10.31337,-9.99121 -15.94556,-24.0539 -14.51744,-36.24781 0.52614,-4.49246 0.27845,-5.18854 -3.83424,-10.77524 -8.89896,-12.08838 -14.52154,-35.08067 -14.52154,-59.38264 v -7.53941 h 10.88953 c 23.90339,0 42.63799,6.43158 65.61049,22.52404 10.5835,7.41389 18.2161,15.01721 25.8611,25.762 6.1538,8.64897 15.1401,26.24305 19.5745,38.3242 2.253,6.13841 3.0537,7.44581 3.6068,5.88976 8.4977,-23.90557 19.0528,-43.00418 31.2255,-56.5 2.7284,-3.025 8.5341,-8.06902 12.9014,-11.20893 24.7496,-17.7936 42.6263,-24.38056 67.8423,-24.99768 l 11.9884,-0.29339 0.3239,6.5 c 1.113,22.33245 -6.3025,51.50295 -15.86,62.38829 -2.7748,3.16032 -2.9946,3.91105 -2.4285,8.29329 1.6456,12.73807 -3.9094,26.87423 -14.7018,37.41277 -3.8707,3.77961 -6.8336,7.52634 -6.8336,8.64135 0,3.33884 -4.3005,8.65528 -8.8694,10.96471 -2.4654,1.24622 -7.3782,2.4985 -11.329,2.8878 l -6.9759,0.68739 6.8371,2.99521 c 16.4291,7.19723 23.4523,15.08673 18.9326,21.26775 -1.2284,1.67994 -1.1688,2.25187 0.4751,4.56053 2.8859,4.05282 4.0979,7.95027 4.0702,13.08891 -0.029,5.44421 -1.8254,9.35032 -6.8637,14.92707 -10.5836,11.71485 -23.9602,12.59539 -36.1045,2.37666 -2.614,-2.19952 -3.4275,-2.42566 -5.2388,-1.45626 -7.5529,4.04221 -21.7764,-8.56753 -34.6509,-30.7195 -2.6305,-4.52622 -5.0375,-8.24894 -5.3487,-8.27273 -0.3112,-0.0238 -1.625,1.86926 -2.9196,4.20676 -13.7337,24.7977 -30.0818,39.78943 -37.9563,34.80715 -1.0118,-0.64017 -2.3538,-0.14198 -4.5,1.67049 -4.576,3.86445 -12.5452,7.25282 -17.0582,7.25282 -2.2,0 -6.2514,-1.04841 -9.0031,-2.32981 z m 19.6943,-9.94074 c 1.6834,-1.89 5.8045,-10.90812 5.8081,-12.70991 6e-4,-0.275 -2.5865,-0.46521 -5.7491,-0.42268 -5.6146,0.0755 -5.8029,0.16985 -7.9838,4 -2.4488,4.3007 -2.984,9.96648 -1.0164,10.7604 3.1106,1.25517 7.0047,0.54623 8.9412,-1.62781 z m 111.8745,1.25491 c 2.5609,-1.37052 2.4739,-5.16525 -0.243,-10.60529 l -2.1772,-4.35953 h -5.8418 -5.8418 l 0.6609,2.75 c 1.0775,4.48306 4.1909,10.0061 6.5863,11.68392 2.6151,1.83166 4.1972,1.95416 6.8566,0.5309 z m -127.1074,-15.92018 c 2.2781,-2.43875 2.8567,-4.14308 3.31,-9.75 0.3022,-3.73705 0.3891,-6.95847 0.1931,-7.15871 -0.6987,-0.71406 -7.421,4.02734 -9.9192,6.99626 -2.8928,3.43792 -3.2595,7.39874 -0.9855,10.6453 2.0981,2.99554 4.1043,2.79691 7.4016,-0.73285 z m 142.0065,0.0211 c 2.0218,-3.7777 1.2075,-7.82779 -2.2683,-11.28241 -3.3474,-3.32701 -8.3576,-6.46661 -9.0985,-5.7015 -0.2227,0.22999 -0.089,3.44287 0.2975,7.13972 0.5297,5.06914 1.2863,7.34314 3.0777,9.25 2.8262,3.0083 6.5514,3.28527 7.9916,0.59419 z m -115.4249,-5.61287 c 13.4421,-3.48931 23.4645,-10.53294 28.7156,-20.18109 2.3644,-4.34412 5.5908,-17.75876 4.5271,-18.82246 -0.2429,-0.24291 -2.8808,0.86058 -5.8621,2.45219 -5.1186,2.73267 -11.8613,5.0385 -25.2474,8.63398 -10.1879,2.73643 -17.6731,12.02046 -17.6731,21.92014 0,7.32714 4.1889,8.94374 15.5399,5.99724 z m 95.5453,-1.61215 c 1.692,-3.16142 0.4118,-11.31682 -2.5768,-16.41659 -3.377,-5.7624 -9.2368,-9.08324 -21.8566,-12.38654 -5.5835,-1.4615 -12.8518,-3.95877 -16.1518,-5.54948 -3.3,-1.59072 -6.4066,-3.08681 -6.9035,-3.32466 -1.6497,-0.78961 0.4206,11.19411 2.851,16.5028 6.0349,13.18199 21.7635,22.98824 37.2673,23.23488 5.3993,0.0859 6.3665,-0.18448 7.3704,-2.06041 z m -76.2097,-47.09072 c -3.9811,-5.7235 -18.2409,-19.30398 -22.3755,-21.30965 -3.0802,-1.49414 -6.0697,-1.93064 -13,-1.89813 -7.687,0.0361 -9.9041,0.45372 -15.1972,2.86283 -6.8906,3.13628 -8.8403,4.86558 -9.7936,8.68662 -0.4885,1.9582 0.01,3.37257 2.0418,5.78658 4.8387,5.75044 7.5347,6.31704 33.6916,7.08057 13.0584,0.38119 24.0459,0.99639 24.4167,1.36712 2.0085,2.00857 2.1589,0.217 0.2162,-2.57594 z m 10.6918,-7.71469 c -8.7687,-43.27496 -25.0322,-67.24768 -46.7052,-68.84417 -9.2976,-0.68489 -11.769,3.62305 -8.2501,14.38072 1.3981,4.27406 4.1606,7.44989 20.8138,23.92814 18.9286,18.72962 29.1545,30.42907 33.0742,37.84005 2.6979,5.10106 3.0679,2.56882 1.0673,-7.30474 z m 24.4938,2.46469 c 3.7526,-5.70745 11.3562,-14.01795 26.5329,-29 17.0895,-16.87028 21.7757,-22.08159 23.8297,-26.5 4.7536,-10.22578 2.6284,-16 -5.8888,-16 -9.7138,0 -20.0067,5.74206 -27.3464,15.25565 -9.5436,12.37025 -18.4691,36.31719 -21.9953,59.01247 -0.4929,3.17247 -0.7827,5.64747 -0.6442,5.5 0.1386,-0.14747 2.619,-3.86812 5.5121,-8.26812 z m 29.357,6.52386 c 25.1168,-0.0354 33.5424,-2.12104 37.5562,-9.29637 1.3676,-2.44486 1.3676,-3.01012 0,-5.45498 -3.2753,-5.8552 -10.8354,-9.12271 -23.093,-9.98088 -9.4119,-0.65894 -13.0071,0.44843 -21.026,6.47638 -4.7897,3.60045 -17.8553,18.01024 -17.8553,19.69219 0,0.18105 1.6875,-0.0627 3.75,-0.54165 2.0625,-0.47896 11.3631,-0.88157 20.6681,-0.89469 z m -120.3425,-27.74074 c 6.4728,-2.36864 8.9297,-2.72113 19.1689,-2.75 11.5066,-0.0325 11.699,-0.0699 9.5,-1.84867 -13.4165,-10.85242 -24.4707,-17.07096 -32.4808,-18.27215 -9.4252,-1.4134 -17.26372,3.90533 -17.26372,11.71409 0,7.08829 5.36062,13.87361 10.96052,13.87361 1.4799,0 6.0318,-1.2226 10.1151,-2.71688 z m 170.1508,0.012 c 4.7141,-4.26618 6.1426,-11.74696 3.2949,-17.25392 -0.9664,-1.8688 -3.0476,-3.45864 -6.0069,-4.58882 -8.9644,-3.42355 -20.0206,0.19368 -35.2535,11.53382 -4.5089,3.35672 -8.3938,6.42053 -8.6331,6.80847 -0.2392,0.38794 5.0341,0.74121 11.7186,0.78504 10.587,0.0694 13.0559,0.42023 19.1536,2.72153 7.7066,2.90852 12.5078,2.90665 15.7264,-0.006 z m -161.5629,-28.54512 c -0.3028,-0.6875 -1.7177,-4.175 -3.1442,-7.75 -1.4266,-3.575 -2.9455,-7.175 -3.3754,-8 -2.3478,-4.50517 -17.0635,-7.40685 -24.53526,-4.83792 -12.82394,4.40911 -4.14964,13.01243 19.39136,19.23268 10.969,2.89836 12.4171,3.06662 11.6635,1.35524 z m 149.1729,-1.7438 c 12.6256,-3.32005 22.8456,-8.21426 24.4344,-11.70124 3.2288,-7.08653 -15.0341,-11.06941 -25.9197,-5.65271 -4.1243,2.05228 -4.2112,2.17746 -7.8704,11.34775 -1.4266,3.575 -2.8415,7.0625 -3.1442,7.75 -0.7484,1.69935 -0.4192,1.65343 12.4999,-1.7438 z"
       id="path1" />
  </g>
</svg>
