<?xml version="1.0" encoding="UTF-8" standalone="no"?>
<!-- Created with Inkscape (http://www.inkscape.org/) -->

<svg
   version="1.1"
   id="svg1"
   width="195.90273"
   height="220.87091"
   viewBox="0 0 195.90273 220.87091"
   xmlns="http://www.w3.org/2000/svg"
   xmlns:svg="http://www.w3.org/2000/svg">
  <defs
     id="defs1" />
  <g
     id="g1"
     transform="translate(-1284.8658,-901.69843)">
    <path
       d="m 1442.8505,1121.4442 c -1.952,-0.5706 -7.6439,-0.7841 -12.8692,-0.4828 -17.3797,1.0021 -38.8403,-2.5552 -51.1308,-8.4756 -11.9696,-5.7658 -35.4569,-31.3644 -48.3574,-52.7044 -15.3447,-25.3829 -13.384,-42.1487 8.2878,-70.87031 7.0398,-9.3298 16.9137,-18.9599 23.0696,-22.5 10.1885,-5.8591 29.8469,-9.764 49,-9.7331 18.6488,0.03 27.2147,3.1683 36.8953,13.5169 13.3664,14.2888 28.7598,49.63101 32.3092,74.17991 1.0616,7.3423 0.9899,9.5178 -0.5626,17.0598 -2.9888,14.5201 -11.4417,34.068 -18.2098,42.1115 -1.3926,1.6549 -3.4709,5.8423 -4.6184,9.3053 -3.2783,9.8932 -5.2242,11.1036 -13.8137,8.5928 z m -11.2791,-12.4437 c 0.2075,-0.631 -3.9725,-3.4371 -9.2888,-6.2359 -20.1833,-10.6254 -36.9641,-23.9972 -45.9919,-36.6484 -10.3968,-14.5699 -21.3874,-42.593 -23.5194,-59.9685 -0.6749,-5.5 -1.5678,-10.38711 -1.9842,-10.86031 -1.8994,-2.158 -14.1716,19.45221 -17.4377,30.70611 l -1.6965,5.8459 5.1767,10.6541 c 7.4604,15.3542 15.1315,26.3891 25.4806,36.6542 15.8861,15.7572 34.0457,25.9327 53.5403,30.0008 7.5473,1.5749 15.178,1.5031 15.7209,-0.148 z m -136.3671,-90.844 c -6.6571,-6.9478 -10.3344,-14.0646 -10.3385,-20.00881 -0.01,-8.4639 2.7787,-24.0225 6.0827,-33.9867 5.4246,-16.359 15.9603,-32.31566 27.3038,-41.35228 l 5.4467,-4.33899 -1.4243,-4.03674 c -1.974,-5.59515 -1.8317,-6.53162 1.4989,-9.86221 4.0929,-4.09294 7.3965,-3.83879 12.1716,0.93637 l 3.8595,3.85946 5.2729,-1.36996 c 16.8415,-4.3756 40.9579,-5.87894 54.7729,-3.41436 13.4414,2.39794 25.1268,7.22521 31.3432,12.94795 3.4873,3.21029 6.9222,9.78272 9.1903,17.58462 2.3513,8.08823 1.4504,8.71192 -9.7479,6.74853 -12.3522,-2.16572 -43.0532,-2.06163 -53.1887,0.18032 -10.4799,2.31814 -19.3314,5.60185 -26.2193,9.72681 -15.2976,9.16128 -32.7271,32.52618 -42.9191,57.53479 -4.3194,10.5988 -5.9136,13.3424 -7.7524,13.3424 -0.5769,0 -2.9854,-2.021 -5.3523,-4.4912 z"
       id="path1" />
  </g>
</svg>
