<?xml version="1.0" encoding="UTF-8" standalone="no"?>
<!-- Created with Inkscape (http://www.inkscape.org/) -->

<svg
   version="1.1"
   id="svg1"
   width="227.87868"
   height="249.8515"
   viewBox="0 0 227.87868 249.8515"
   xmlns="http://www.w3.org/2000/svg"
   xmlns:svg="http://www.w3.org/2000/svg">
  <defs
     id="defs1" />
  <g
     id="g1"
     transform="translate(-1030.5483,-1334.0905)">
    <path
       d="m 1133.8889,1583.0175 c -4.499,-1.5497 -7.462,-6.4902 -7.4611,-12.4406 8e-4,-5.0161 3.6579,-14.3412 8.0348,-20.4881 l 2.0192,-2.8356 -35.7273,-49.3444 -35.7273,-49.3445 -7.0501,1.7702 c -13.442,3.375 -21.4674,1.9102 -25.5276,-4.6594 -1.8599,-3.0093 -2.1763,-4.5898 -1.7088,-8.5367 3.0208,-25.5057 53.6852,-69.9813 95.7875,-84.0869 10.8455,-3.6336 23.0652,-4.9149 27.8744,-2.9228 8.4476,3.4991 10.2628,11.7753 5.0154,22.8673 -1.6541,3.4964 -3.8788,7.5809 -4.9438,9.0765 l -1.9363,2.7194 25.0065,34.4234 c 13.7536,18.9329 25.4287,35.0985 25.9446,35.9235 0.817,1.3065 1.0719,1.2771 1.9752,-0.2277 0.5705,-0.9502 5.4705,-4.6508 10.8889,-8.2235 11.866,-7.8241 14.5805,-10.8549 16.0463,-17.9158 2.3294,-11.2204 -0.9751,-16.4683 -15.8327,-25.1442 -13.0445,-7.617 -17.6305,-15.097 -16.9933,-27.7162 0.295,-5.8407 1.061,-8.7515 3.7299,-14.1727 3.9932,-8.1114 12.8376,-17.5251 22.0662,-23.4866 l 6.4424,-4.1616 4.3012,7.7741 c 3.8043,6.8763 4.1125,7.8897 2.6682,8.7742 -13.0469,7.99 -17.5234,12.4094 -20.0769,19.821 -1.2803,3.7162 -1.2109,4.3356 0.9628,8.592 1.8127,3.5494 4.2531,5.8942 10.7884,10.3657 16.3685,11.1994 20.0354,16.8949 20.7447,32.2213 0.3496,7.5564 0.057,9.9543 -1.8249,14.9494 -2.856,7.5812 -8.9812,14.1967 -19.8562,21.446 -6.3121,4.2076 -9.0369,6.7393 -10.9316,10.157 l -2.5237,4.5525 4.3196,5.7211 c 3.5582,4.7128 4.6917,5.6017 6.4315,5.0432 7.988,-2.5642 18.1452,-3.1251 23.4028,-1.2923 3.933,1.3711 8.2092,6.9334 8.2092,10.6782 0,20.3151 -38.9514,59.2814 -79.5,79.5303 -18.6957,9.3361 -36.5181,13.5281 -45.0381,10.5933 z m 29.6993,-37.157 c 8.0665,-9.6755 17.0863,-24.399 19.2733,-31.4608 0.58,-1.8729 -0.5846,-1.3593 -7.1205,3.14 -9.5536,6.5767 -21.863,12.8541 -29.5768,15.0832 -3.859,1.1151 -5.5316,2.0536 -5.0629,2.8406 0.385,0.6464 3.5749,5.1103 7.0888,9.9198 7.4565,10.2058 7.2917,10.2007 15.3981,0.4772 z m 31.1629,-3.9612 c 7.424,-5.0168 18.8907,-15.8046 23.686,-22.2836 3.6896,-4.985 7.9899,-12.6395 7.9899,-14.2217 0,-0.4535 -3.5539,-5.6804 -7.8975,-11.6153 l -7.8976,-10.7906 -1.0325,3.3253 c -0.5679,1.829 -1.3375,5.3504 -1.7103,7.8254 -1.8626,12.3672 -10.993,34.8805 -19.3798,47.7859 -4.584,7.0537 -4.2318,7.0522 6.2418,-0.025 z m -54.2882,-25.8504 c 14.6295,-4.8026 30.9006,-14.9576 42.4143,-26.4713 7.3077,-7.3078 15.5498,-18.8557 15.5498,-21.7868 0,-1.0281 -2.0896,-4.7152 -4.6435,-8.1935 l -4.6436,-6.3243 -3.6892,5.6829 c -10.5083,16.1873 -42.8125,39.6122 -61.0859,44.2955 -2.7158,0.696 -4.9378,1.5404 -4.9378,1.8764 0,0.3359 2.0302,3.4009 4.5115,6.8109 5.2179,7.1709 6.3461,7.4516 16.5244,4.1102 z m -24.6802,-28.499 c 22.4274,-5.7997 49.578,-26.3829 59.3039,-44.959 l 2.7069,-5.1702 -4.8761,-6.641 c -2.6818,-3.6525 -4.9674,-6.6409 -5.079,-6.6409 -0.1116,0 -1.5786,2.1375 -3.26,4.75 -10.2736,15.9623 -38.8999,37.2771 -58.8942,43.8518 -5.5359,1.8204 -7.9672,3.0697 -7.4035,3.8043 0.4616,0.6017 2.7226,3.6814 5.0244,6.8439 2.3017,3.1625 4.6684,5.75 5.2591,5.75 0.5908,0 3.8391,-0.715 7.2185,-1.5889 z m -19.5096,-30.0273 c 22.2722,-6.3668 48.8836,-27.2124 58.2986,-45.6674 l 1.9566,-3.8352 -5.1453,-6.9406 c -2.8299,-3.8173 -5.3852,-6.9406 -5.6784,-6.9406 -0.2932,0 -5.0606,4.3457 -10.5943,9.657 -15.2425,14.6301 -34.2927,28.1039 -52.9766,37.469 -3.4137,1.7111 -6.3468,3.2353 -6.518,3.3872 -0.1712,0.1519 2.0216,3.4736 4.8729,7.3815 5.8168,7.9724 6.3946,8.1733 15.7845,5.4891 z m -6.0177,-52.7968 c 9.1641,-4.6438 19.1983,-15.4693 17.7754,-19.1773 -0.8629,-2.2485 -7.1574,-1.6696 -12.7698,1.1744 -9.0235,4.5726 -18.8616,15.2956 -17.4377,19.0062 0.8437,2.1985 7.1117,1.6927 12.4321,-1.0033 z"
       id="path1" />
  </g>
</svg>
