<?xml version="1.0" encoding="UTF-8" standalone="no"?>
<!-- Created with Inkscape (http://www.inkscape.org/) -->

<svg
   version="1.1"
   id="svg1"
   width="196.21112"
   height="206.10515"
   viewBox="0 0 196.21112 206.10515"
   xmlns="http://www.w3.org/2000/svg"
   xmlns:svg="http://www.w3.org/2000/svg">
  <defs
     id="defs1" />
  <g
     id="g1"
     transform="translate(-1068.5279,-698.89486)">
    <path
       d="m 1069.8335,903.8 c -1.7408,-1.74077 -1.7408,-201.85923 0,-203.6 1.7401,-1.74019 191.8598,-1.74019 193.6,0 1.7407,1.74077 1.7407,201.85923 0,203.6 -0.8064,0.80635 -5.3334,1.2 -13.8,1.2 -8.4667,0 -12.9937,-0.39365 -13.8,-1.2 -0.6729,-0.67282 -1.2,-3.89816 -1.2,-7.34171 v -6.14171 l -3.8661,-1.15829 c -5.4589,-1.63553 -122.809,-1.63553 -128.2679,0 l -3.866,1.15829 v 6.14171 c 0,3.44355 -0.5272,6.66889 -1.2,7.34171 -0.8064,0.80635 -5.3334,1.2 -13.8,1.2 -8.4667,0 -12.9937,-0.39365 -13.8,-1.2 z m 176.1651,-35.87258 2.6349,-2.07258 V 790 714.14516 l -2.6349,-2.07258 C 1243.3848,710.01654 1242.749,710 1166.313,710 h -77.0506 l -2.3145,2.17431 -2.3144,2.17432 v 75.51123 75.51124 l 2.1743,2.31445 2.1743,2.31445 h 77.1908 c 76.5777,0 77.2118,-0.0165 79.8257,-2.07258 z M 1095.8335,857.8 c -0.8793,-0.87928 -1.2,-9.11111 -1.2,-30.8 0,-21.68889 0.3207,-29.92072 1.2,-30.8 1.7358,-1.73583 139.8641,-1.73583 141.6,0 1.714,1.71408 1.714,59.88592 0,61.6 -1.7359,1.73583 -139.8642,1.73583 -141.6,0 z m 78.4,-38.2 c 2.6414,-2.64144 3.4,-4.22549 3.4,-7.1 0,-2.87451 -0.7586,-4.45856 -3.4,-7.1 -2.6415,-2.64144 -4.2255,-3.4 -7.1,-3.4 -2.8746,0 -4.4586,0.75856 -7.1,3.4 -2.6415,2.64144 -3.4,4.22549 -3.4,7.1 0,2.87451 0.7585,4.45856 3.4,7.1 2.6414,2.64144 4.2254,3.4 7.1,3.4 2.8745,0 4.4585,-0.75856 7.1,-3.4 z m -78.4,-36.8 c -0.8793,-0.87928 -1.2,-9.11111 -1.2,-30.8 0,-21.68889 0.3207,-29.92072 1.2,-30.8 1.7358,-1.73583 139.8641,-1.73583 141.6,0 1.714,1.71408 1.714,59.88592 0,61.6 -1.7359,1.73583 -139.8642,1.73583 -141.6,0 z m 78.4,-38.2 c 2.6414,-2.64144 3.4,-4.22549 3.4,-7.1 0,-2.87451 -0.7586,-4.45856 -3.4,-7.1 -2.6415,-2.64144 -4.2255,-3.4 -7.1,-3.4 -2.8746,0 -4.4586,0.75856 -7.1,3.4 -2.6415,2.64144 -3.4,4.22549 -3.4,7.1 0,2.87451 0.7585,4.45856 3.4,7.1 2.6414,2.64144 4.2254,3.4 7.1,3.4 2.8745,0 4.4585,-0.75856 7.1,-3.4 z"
       id="path1" />
  </g>
</svg>
