<?xml version="1.0" encoding="UTF-8" standalone="no"?>
<!-- Created with Inkscape (http://www.inkscape.org/) -->

<svg
   version="1.1"
   id="svg1"
   width="223.13535"
   height="243.98384"
   viewBox="0 0 223.13535 243.98384"
   xmlns="http://www.w3.org/2000/svg"
   xmlns:svg="http://www.w3.org/2000/svg">
  <defs
     id="defs1" />
  <g
     id="g1"
     transform="translate(-626.17397,-389.72242)">
    <path
       d="m 667.80961,632.14983 c -4.893,-2.54481 -7.3605,-5.43873 -9.4898,-11.12963 -2.7595,-7.37543 -2.5474,-10.79929 1.4,-22.60161 3.6016,-10.76817 6.3242,-22.29513 5.4682,-23.15109 -0.2807,-0.28066 -1.8895,0.0103 -3.5751,0.64655 -2.7993,1.05662 -4.3395,0.60785 -17.7745,-5.17923 -8.0903,-3.48485 -15.3439,-6.9704 -16.1192,-7.74567 -2.055,-2.055 -2.0623,-40.47119 -0.01,-42.52541 0.7709,-0.77085 7.5209,-4.05159 15,-7.29054 l 13.6004,-5.88901 v -3.61317 -3.61318 l -14.4331,-6.27219 c -7.9382,-3.44971 -14.6882,-6.93698 -15,-7.7495 -0.3118,-0.81252 -0.5669,-10.12949 -0.5669,-20.70439 0,-13.8616 0.3488,-19.67361 1.25,-20.8272 1.2026,-1.53946 28.729,-13.75932 31.0947,-13.80392 0.6354,-0.012 8.1631,2.94835 16.7282,6.57851 l 15.5729,6.6003 14.6771,-6.3192 14.6771,-6.31919 0.015,-13.00932 c 0.01,-7.15513 0.3825,-13.58793 0.8312,-14.29513 0.8434,-1.32937 29.5029,-14.21419 31.6163,-14.21419 1.9186,0 28.8691,12.03382 30.7872,13.74698 1.4947,1.33499 1.75,3.43676 1.75,14.40801 0,10.87385 0.2352,12.84501 1.533,12.84501 1.6963,0 29.2481,11.68357 31.187,13.22513 0.8071,0.64168 1.3148,5.0184 1.5,12.9316 l 0.28,11.96162 13.1384,5.72578 c 7.2262,3.14919 13.8637,6.32766 14.75,7.06327 1.3823,1.14715 1.6116,4.13908 1.6116,21.02392 0,14.18914 -0.3491,20.15415 -1.25,21.36142 -0.6875,0.92124 -7.325,4.29601 -14.75,7.49948 l -13.5,5.82448 -0.2791,12.59339 c -0.1871,8.44059 -0.6818,12.90284 -1.5,13.53179 -1.8646,1.43336 -29.702,13.25812 -31.2115,13.25812 -0.7294,0 -8.2603,-3.0673 -16.7354,-6.81623 -10.1523,-4.49081 -15.8979,-6.53283 -16.8415,-5.98556 -0.7877,0.45687 -7.7262,3.55913 -15.4188,6.8939 -10.1716,4.40939 -14.7404,5.91249 -16.75,5.51056 l -2.7634,-0.55267 v 7.32712 c 0,5.97114 -0.4219,7.95324 -2.28,10.71043 -5.8742,8.71673 -17.7361,7.63101 -22.0206,-2.01553 -1.8924,-4.26089 -1.9553,-5.32059 -0.9236,-15.57202 1.3385,-13.30106 0.6992,-14.51431 -5.9537,-11.29998 l -4.0971,1.97953 0.5881,6.66023 c 0.6374,7.21717 3.1646,17.16975 6.7699,26.66022 3.1193,8.2114 3.0642,16.47497 -0.153,22.95296 -4.4253,8.91057 -14.6709,13.0099 -22.43,8.97445 z m 132.4148,-82.12 c 4.7219,-1.98921 9.1477,-4.30815 9.8352,-5.15321 1.2795,-1.57275 1.7836,-15.6002 0.6653,-18.51443 -0.5866,-1.52853 -20.8665,-10.63977 -23.6822,-10.63977 -1.7901,0 -20.6919,7.75134 -22.4831,9.21999 -1.7729,1.45361 -1.7236,19.14208 0.057,20.62022 0.7191,0.5968 6.0066,3.06075 11.75,5.47543 8.2027,3.44866 10.9605,4.19924 12.8573,3.49943 1.3282,-0.49 6.2782,-2.51845 11,-4.50766 z m -128.7588,0.11471 c 11.9267,-5.14344 11.8086,-4.98806 11.8303,-15.56134 0.01,-4.89411 -0.4463,-7.17531 -1.7363,-8.67877 -1.7945,-2.09143 -19.8716,-10.18201 -22.75,-10.18201 -2.8784,0 -20.9555,8.09058 -22.75,10.18201 -1.29,1.50346 -1.7464,3.78466 -1.7363,8.67877 0.022,10.63736 -0.094,10.48487 11.8389,15.56279 5.8561,2.49195 11.5474,4.54504 12.6474,4.56242 1.1,0.0174 6.7952,-2.03636 12.656,-4.56387 z m 64.038,0.04 c 5.6291,-2.49584 10.5814,-5.08334 11.0051,-5.75 1.022,-1.60818 0.9926,-16.86179 -0.036,-18.48175 -0.9183,-1.44756 -21.2374,-10.23037 -23.6675,-10.23037 -1.8145,0 -20.3371,7.68765 -22.2456,9.23283 -1.8112,1.4664 -1.7203,19.13196 0.1062,20.64781 2.2316,1.85211 19.9687,9.05848 22.3734,9.09007 1.2262,0.0161 6.8352,-2.01276 12.4644,-4.50859 z m -34.694,-37.2473 11,-4.7233 v -10.40509 -10.4051 l -11.595,-4.92833 -11.595,-4.92833 -9.905,4.17989 c -15.1381,6.38823 -14.405,5.60822 -14.405,15.32736 0,5.05897 0.4868,8.94521 1.25,9.97899 1.1626,1.5748 21.0259,10.66364 23.25,10.6385 0.55,-0.006 5.95,-2.13678 12,-4.73459 z m 64,0 11,-4.7233 v -10.46048 -10.46048 l -11.6171,-4.86919 -11.6171,-4.86919 -10.8829,4.62449 c -5.9856,2.54348 -11.4454,5.36725 -12.1329,6.27505 -0.7462,0.98525 -1.25,4.72104 -1.25,9.26828 0,4.5245 0.5076,8.30527 1.25,9.31091 1.1626,1.5748 21.0259,10.66364 23.25,10.6385 0.55,-0.006 5.95,-2.13678 12,-4.73459 z m 63.5556,0.17312 c 6.0467,-2.53663 11.4328,-5.43205 11.9692,-6.43426 1.258,-2.35065 1.2674,-15.53912 0.013,-17.88352 -0.5293,-0.98909 -6.0566,-3.90787 -12.2829,-6.48617 l -11.3206,-4.68782 -10.967,4.57698 c -6.0318,2.51735 -11.5295,5.32672 -12.217,6.24305 -0.7448,0.99271 -1.25,4.74484 -1.25,9.2838 0,4.52718 0.5071,8.30263 1.25,9.30589 1.0645,1.43765 20.7471,10.54446 23.0308,10.65598 0.4295,0.021 5.7282,-2.0373 11.7748,-4.57393 z m -157.0423,-38.93799 c 11.9936,-5.06245 11.9594,-5.01972 11.9594,-14.94995 0,-9.93023 0.034,-9.8875 -11.9594,-14.94995 -5.9288,-2.50253 -11.5598,-4.55005 -12.5133,-4.55005 -0.9535,0 -6.5845,2.04752 -12.5133,4.55005 -11.9936,5.06245 -11.9594,5.01972 -11.9594,14.94995 0,9.89849 -0.021,9.87258 11.8236,14.89837 5.857,2.48529 11.4892,4.53736 12.5159,4.56016 1.0268,0.0228 6.7177,-2.00605 12.6465,-4.50858 z m 64.0188,-0.008 c 5.9391,-2.50689 11.0616,-5.2437 11.3832,-6.08179 0.3216,-0.83809 0.5847,-4.8252 0.5847,-8.86023 0,-4.03503 -0.2631,-8.02214 -0.5847,-8.86023 -0.6074,-1.58276 -20.9137,-10.6397 -23.8551,-10.6397 -1.9541,0 -18.0181,6.48223 -21.3102,8.59924 -2.0699,1.33103 -2.25,2.19577 -2.25,10.80137 0,6.27772 0.4111,9.68704 1.25,10.36553 2.04,1.64999 20.0914,9.15606 22.1168,9.19654 1.0268,0.0205 6.7261,-2.01377 12.6653,-4.52066 z m 64,0 c 5.9391,-2.50689 11.0616,-5.2437 11.3832,-6.08179 0.8976,-2.33925 0.6639,-16.68696 -0.2966,-18.20233 -0.9915,-1.56445 -20.7563,-10.1579 -23.363,-10.1579 -2.0397,0 -20.4643,7.51326 -22.4347,9.14854 -1.7939,1.48886 -1.8549,19.17477 -0.071,20.6176 2.04,1.64999 20.0914,9.15606 22.1168,9.19654 1.0268,0.0205 6.7261,-2.01377 12.6653,-4.52066 z m -33.5521,-41.04915 10.52,-4.60719 v -9.77036 c 0,-6.64178 -0.4003,-10.07527 -1.25,-10.72257 -1.8559,-1.41378 -20.6831,-9.29268 -22.2055,-9.29268 -2.7311,0 -21.1207,8.20258 -22.7945,10.16734 -1.3384,1.57102 -1.7464,3.85118 -1.7347,9.69344 0.01,4.20157 0.4118,8.26531 0.8964,9.03052 1.1981,1.89206 19.9192,9.95166 23.3183,10.03875 1.5015,0.0385 7.464,-2.00329 13.25,-4.53725 z"
       id="path1" />
  </g>
</svg>
