<?xml version="1.0" encoding="UTF-8" standalone="no"?>
<!-- Created with Inkscape (http://www.inkscape.org/) -->

<svg
   version="1.1"
   id="svg1"
   width="236.82874"
   height="230.73026"
   viewBox="0 0 236.82874 230.73026"
   xmlns="http://www.w3.org/2000/svg"
   xmlns:svg="http://www.w3.org/2000/svg">
  <defs
     id="defs1" />
  <g
     id="g1"
     transform="translate(-750.03309,-929.49619)">
    <path
       d="m 897.35053,1159.7054 c -22.1954,-1.1784 -43.9474,-4.8601 -60.8837,-10.3052 -23.6736,-7.6112 -36.0809,-14.4925 -49.4623,-27.4329 -21.8385,-21.1189 -31.7511,-39.3019 -35.6975,-65.4813 -2.4231,-16.0745 -1.4175,-30.1093 3.2564,-45.4491 l 1.7871,-5.8652 v 21.3652 c 0,19.2421 0.2255,22.1433 2.269,29.1955 2.1114,7.2866 9.1566,24.0775 9.8229,23.4111 0.163,-0.1629 -0.5875,-3.6589 -1.6678,-7.7688 -3.6357,-13.8325 -5.1669,-29.9867 -4.6419,-48.9726 0.7177,-25.95156 4.5488,-38.19387 16.6751,-53.28502 9.4829,-11.80143 19.7628,-20.49898 30.8966,-26.1409 5.7248,-2.90099 10.1461,-4.72413 10.1461,-4.18381 0,0.1874 -3.2969,3.06787 -7.3266,6.40104 -9.0206,7.46165 -19.0882,21.31288 -22.8714,31.46713 -3.6239,9.72639 -3.4883,10.0529 1.3224,3.18545 18.0714,-25.79789 46.1011,-43.27762 78.3756,-48.87624 11.2869,-1.95792 17.5012,-1.96319 29.5,-0.025 29.228,4.72124 50.6122,17.84379 64.2958,39.45565 2.3473,3.70729 1.9858,3.59375 -5.4267,-1.70463 -5.7361,-4.10008 -20.3638,-11.35916 -28.3691,-14.0783 -13.3244,-4.5259 -28.8041,-5.96931 -41.1353,-3.83569 -22.3737,3.87122 -41.6948,14.23316 -60.7048,32.55608 -15.7087,15.1408 -25.6897,30.60174 -29.1019,45.07954 -3.0134,12.7855 -1.3526,34.1949 3.7414,48.2286 1.9174,5.2823 12.0177,21.7562 13.3389,21.7562 0.3938,0 -0.7004,-2.6887 -4.5658,-11.2185 -5.6448,-12.4565 -8.4107,-34.3654 -6.1555,-48.7581 2.2311,-14.2395 9.0181,-28.7968 16.984,-36.4286 2.8226,-2.70424 2.7716,-2.49304 -1.4618,6.0516 -5.8228,11.7523 -7.8472,20.9258 -7.8019,35.3536 0.059,18.6449 6.5762,40.2492 16.4521,54.5353 18.8757,27.3046 54.2366,45.9151 100.7035,53.0004 4.1213,0.6284 4.2711,0.5608 3.747,-1.6905 -0.3003,-1.2899 -1.2286,-5.7202 -2.0629,-9.8452 -1.9236,-9.5104 -6.1883,-24.5429 -8.1324,-28.6662 -2.7314,-5.7927 -13.3699,-11.0909 -29.7414,-14.812 -8.561,-1.9459 -9.6453,-2.4014 -7.1032,-2.9842 18.2269,-4.1787 31.8665,-9.6455 35.4585,-14.2119 2.5849,-3.2862 5.2687,-12.324 10.0305,-33.778 2.5599,-11.5332 3.9684,-16.239 4.3544,-14.5477 0.3138,1.375 1.9909,9.025 3.727,17 6.2114,28.534 8.0198,32.1522 18.7511,37.5169 3.9787,1.9889 21.5359,7.2745 28.1785,8.4831 0.275,0.05 -4.5064,1.3746 -10.6253,2.9435 -17.7935,4.5623 -26.087,9.0389 -28.8071,15.5491 -2.6652,6.3786 -9.5676,34.2206 -9.5676,38.5923 0,1.3937 1.4848,1.7894 8.75,2.3321 15.0134,1.1213 19.4533,1.7797 18.4912,2.7418 -0.5003,0.5003 -8.0445,1.7942 -16.7651,2.8754 -14.7547,1.8293 -32.2291,2.2644 -50.9761,1.2691 z m -25.2887,-86.6926 c -3.7682,-17.339 -5.2197,-20.6974 -10.3005,-23.8316 -2.426,-1.4965 -7.3358,-3.435 -10.9108,-4.3078 -9.9391,-2.4267 -9.9909,-2.5251 -2.362,-4.4877 3.9258,-1.01 9.4019,-2.9836 12.1691,-4.3858 4.4038,-2.2316 5.279,-3.2119 7.0186,-7.8614 1.0931,-2.9215 3.035,-10.1324 4.3155,-16.0241 1.2804,-5.8918 2.5798,-10.7123 2.8875,-10.7123 0.3077,0 1.7278,5.3361 3.1558,11.8581 3.5886,16.39 5.3709,20.0851 11.051,22.9112 2.5085,1.2481 7.8692,3.1201 11.9127,4.16 4.0435,1.0398 6.6768,2.1186 5.8518,2.3973 -0.825,0.2786 -4.875,1.4849 -9,2.6807 -14.0991,4.087 -15.68,6.239 -20.1169,27.3846 -1.2242,5.8345 -2.4932,10.6081 -2.8199,10.6081 -0.3267,0 -1.61,-4.6752 -2.8519,-10.3893 z m 41.3942,-62.6851 c -3.3723,-15.69316 -4.5715,-17.14746 -16.7346,-20.29416 l -5.3709,-1.3895 4.5,-1.1201 c 2.475,-0.61607 6.525,-2.133 9,-3.37096 5.0158,-2.50882 5.7798,-4.066 8.9545,-18.25084 1.3768,-6.15183 1.9306,-7.42245 2.397,-5.5 0.3336,1.375 1.5234,6.30381 2.6439,10.95291 2.4292,10.07912 4.3814,12.48067 11.934,14.68065 3.0639,0.89244 6.2456,1.83834 7.0706,2.10204 0.825,0.2637 -1.3638,1.2815 -4.864,2.2618 -10.0572,2.8167 -11.2364,4.1125 -14.1831,15.58536 -1.4009,5.4545 -2.7727,10.5451 -3.0484,11.3126 -0.2758,0.7674 -1.3103,-2.369 -2.299,-6.9698 z"
       id="path1" />
  </g>
</svg>
