<?xml version="1.0" encoding="UTF-8" standalone="no"?>
<!-- Created with Inkscape (http://www.inkscape.org/) -->

<svg
   version="1.1"
   id="svg1"
   width="193.65202"
   height="240.57147"
   viewBox="0 0 193.65202 240.57147"
   xmlns="http://www.w3.org/2000/svg"
   xmlns:svg="http://www.w3.org/2000/svg">
  <defs
     id="defs1" />
  <g
     id="g1"
     transform="translate(-1233.5861,-1206.7216)">
    <path
       d="m 1310.9057,1446.993 c -26.4716,-2.7177 -46.169,-7.2701 -59,-13.6358 -7.1089,-3.5269 -14.4138,-9.6699 -16.6041,-13.9634 -2.6706,-5.2347 -2.2116,-11.8073 1.2968,-18.5696 1.3687,-2.6381 17.1853,-24.9681 35.1479,-49.6223 l 32.6594,-44.8259 v -30.8115 -30.8115 l -3.4211,-1.129 c -4.8631,-1.605 -11.2425,-6.4749 -13.043,-9.9567 -4.5326,-8.765 2.4079,-18.2671 16.7834,-22.9779 34.6715,-11.3616 78.2958,3.3481 68.1448,22.9779 -1.8005,3.4818 -8.1799,8.3517 -13.0431,9.9567 l -3.421,1.129 v 30.8115 30.8115 l 32.6594,44.8259 c 17.9626,24.6542 33.7792,46.9842 35.1479,49.6223 1.3686,2.6381 2.6966,6.962 2.9509,9.6088 1.5267,15.8891 -20.5484,28.4794 -60.7582,34.6529 -10.0631,1.545 -46.7482,2.8055 -55.5,1.9071 z m 40.1365,-20.4608 c 24.6431,-2.7479 41.5231,-10.6094 44.289,-20.6265 1.6708,-6.0514 -1.1995,-12.0956 -14.2748,-30.0583 -7.0847,-9.733 -12.4943,-16.2494 -13.4894,-16.2493 -0.9137,10e-5 -5.2613,0.7538 -9.6613,1.675 -5.9024,1.2357 -13.1129,1.6748 -27.5,1.6748 -14.3871,0 -21.5976,-0.4391 -27.5,-1.6748 -4.4,-0.9212 -8.7476,-1.6749 -9.6613,-1.675 -2.4175,-3e-4 -24.9001,31.2621 -27.0392,37.5984 -2.1474,6.3607 -1.1252,10.9218 3.4794,15.5265 6.1591,6.159 22.1542,11.839 38.7211,13.7502 10.9081,1.2584 31.6231,1.287 42.6365,0.059 z m -0.2437,-72.4505 c 10.3784,-4.9248 7.4532,-20.6217 -4.1325,-22.1757 -7.2556,-0.9732 -13.2603,4.7827 -13.2603,12.7107 0,2.403 0.9819,4.1984 3.8823,7.0988 4.3489,4.3489 7.9889,4.9864 13.5105,2.3662 z m -23.5378,-22.9088 c 6.7491,-3.4901 6.5467,-14.2484 -0.3271,-17.3803 -5.131,-2.3379 -10.723,-0.652 -13.1029,3.9503 -4.694,9.0772 4.3527,18.124 13.43,13.43 z m 12.145,-28.575 c 1.1,-1.1 2,-2.9 2,-4 0,-1.1 -0.9,-2.9 -2,-4 -1.1,-1.1 -2.9,-2 -4,-2 -1.1,0 -2.9,0.9 -4,2 -1.1,1.1 -2,2.9 -2,4 0,1.1 0.9,2.9 2,4 1.1,1.1 2.9,2 4,2 1.1,0 2.9,-0.9 4,-2 z m 7.2189,-67.9816 c 4.7582,-1.4013 9.7811,-5.6154 9.7811,-8.2061 0,-2.856 -5.0586,-7.2127 -10.1562,-8.7468 -10.4251,-3.1374 -27.9646,-2.2664 -35.7856,1.7771 -4.4599,2.3058 -7.0103,6.4233 -5.4809,8.8486 1.9944,3.1627 6.3341,5.6519 12.1464,6.9671 6.516,1.4745 23.5721,1.1044 29.4952,-0.6399 z"
       id="path1" />
  </g>
</svg>
