<?xml version="1.0" encoding="UTF-8" standalone="no"?>
<!-- Created with Inkscape (http://www.inkscape.org/) -->

<svg
   version="1.1"
   id="svg1"
   width="249.83"
   height="231.68796"
   viewBox="0 0 249.83 231.68796"
   xmlns="http://www.w3.org/2000/svg"
   xmlns:svg="http://www.w3.org/2000/svg">
  <defs
     id="defs1" />
  <g
     id="g1"
     transform="translate(-1200.0134,-1405.026)">
    <path
       d="m 1317.181,1625.9167 c -2.7315,-6.4264 -5.3873,-11.8 -5.9019,-11.9411 -0.5146,-0.1412 -4.5357,4.3199 -8.9357,9.9135 -4.4,5.5937 -8.4399,10.1813 -8.9775,10.1948 -0.5376,0.014 -1.7062,-6.394 -2.5969,-14.2389 -0.8906,-7.845 -1.8168,-14.461 -2.0581,-14.7023 -0.2413,-0.2414 -8.4665,4.0584 -18.2782,9.5551 -9.8117,5.4966 -18.0775,9.7558 -18.3685,9.4649 -0.2909,-0.291 1.2828,-6.8347 3.4973,-14.5416 2.2144,-7.7069 3.6995,-14.0126 3.3001,-14.0126 -0.3994,0 -8.0279,3.375 -16.9523,7.5 -8.9243,4.125 -16.4668,7.5 -16.761,7.5 -0.2942,0 0.2927,-1.2375 1.3041,-2.75 2.8322,-4.235 17.3477,-30.6266 17.0233,-30.9511 -0.2629,-0.2629 -19.8603,1.9055 -28.9745,3.206 -2.1132,0.3015 -3.6882,0.1514 -3.5,-0.3337 0.1882,-0.4851 6.1922,-5.7218 13.3422,-11.6372 7.15,-5.9155 12.907,-11.043 12.7933,-11.3947 -0.1137,-0.3516 -6.032,-1.6107 -13.1517,-2.798 -20.8817,-3.4822 -24.2942,-4.3295 -23.949,-5.9459 0.1691,-0.7915 8.5955,-5.2548 18.7253,-9.9185 10.1299,-4.6637 18.5603,-8.6218 18.7343,-8.7958 0.174,-0.174 -5.3015,-7.8703 -12.1679,-17.1029 -6.8664,-9.2326 -12.4843,-17.2571 -12.4843,-17.8322 0,-1.0376 11.9458,-0.6703 28.8963,0.8884 l 7.3963,0.6802 -13.827,-12.8284 c -7.6049,-7.0556 -15.1424,-14.3264 -16.7499,-16.1573 -2.8288,-3.2218 -2.8517,-3.3289 -0.7099,-3.3289 1.2171,0 6.8887,1.125 12.6036,2.5 5.7148,1.375 15.1737,3.6509 21.0197,5.0574 5.846,1.4066 11.1786,2.3466 11.8502,2.0889 0.6716,-0.2577 1.4998,-2.871 1.8404,-5.8074 2.054,-17.7063 6.0871,-44.8389 6.6649,-44.8389 0.3747,0 3.2265,5.5125 6.3375,12.25 l 5.6563,12.25 0.6668,14.8412 c 0.4666,10.3847 1.04,14.9845 1.9096,15.3182 0.6835,0.2623 3.5233,-0.6788 6.3107,-2.0913 2.7874,-1.4124 5.2645,-2.5681 5.5047,-2.5681 0.2401,0 -3.8425,10.4625 -9.0725,23.25 -5.23,12.7875 -9.7312,24.0076 -10.0027,24.9336 -0.4085,1.3936 1.8541,0.9382 13.1398,-2.6451 11.1161,-3.5294 13.5468,-4.0249 13.1642,-2.6836 -2.9151,10.2217 -4.7205,18.3861 -4.305,19.4688 0.2894,0.7541 8.3584,3.4568 18.6085,6.2328 9.9536,2.6957 18.0975,5.2076 18.0975,5.582 0,0.3744 -3.15,2.756 -7,5.2924 -3.85,2.5364 -7,4.9645 -7,5.3958 0,0.4313 2.4149,3.7118 5.3664,7.29 l 5.3663,6.5059 17.6697,7.4387 17.6698,7.4387 -4.2861,0.6759 c -2.3574,0.3717 -6.3111,0.7408 -8.7861,0.8203 -8.5853,0.2755 -8.5894,0.299 -2.0678,12.0038 5.2487,9.4202 5.9792,11.4535 7.104,19.7717 0.6896,5.0994 0.95,9.5754 0.5788,9.9467 -0.3713,0.3712 -4.149,-2.6821 -8.395,-6.7853 -14.6772,-14.1835 -15.8955,-15.1709 -17.9244,-14.5269 -1.39,0.4412 -3.2348,4.2981 -6.739,14.0896 -2.6538,7.4152 -5.3713,13.9355 -6.0389,14.4895 -0.9073,0.753 -2.4675,-1.9423 -6.1801,-10.6771 z m 63.0091,-10.5317 c -6.1344,-6.2021 -12.1011,-13.1794 -13.2594,-15.5051 l -2.1061,-4.2286 2.2594,-0.4663 c 1.2427,-0.2564 8.9747,-1.3938 17.1822,-2.5275 8.2075,-1.1337 15.0585,-2.1969 15.2243,-2.3628 0.1659,-0.1658 -10.2336,-5.1871 -23.1099,-11.1584 l -23.4115,-10.8568 7.1871,-4.4131 c 15.9577,-9.7983 17.5245,-14.7324 9.6387,-30.3541 -5.8638,-11.6161 -27.2383,-36.9642 -37.9403,-44.9937 -5.1421,-3.858 -5.8255,-4.0902 -10.8174,-3.6763 -5.1718,0.4289 -5.5929,0.7039 -14.3221,9.3541 l -8.9936,8.9121 1.9796,-5 c 1.0888,-2.75 5.3902,-13.325 9.5587,-23.5 4.1685,-10.175 7.5801,-18.8199 7.5813,-19.211 10e-4,-0.391 -4.7952,1.299 -10.6588,3.7556 -5.8635,2.4566 -10.7869,4.3407 -10.9408,4.1868 -0.5383,-0.5383 -2.605,-34.8578 -2.1278,-35.335 0.2649,-0.2649 3.8,3.8795 7.8557,9.2099 l 7.374,9.6916 2.4754,-5.649 c 1.3614,-3.1069 2.7114,-5.6361 3,-5.6205 0.2885,0.016 2.0752,2.5884 3.9703,5.7175 l 3.4457,5.6892 5.1994,-20.7793 c 2.8597,-11.4286 5.4041,-20.984 5.6542,-21.2341 0.4112,-0.4112 11.755,29.3664 11.755,30.8569 0,0.3458 -3.825,7.1566 -8.5,15.135 -4.675,7.9785 -8.5,15.434 -8.5,16.5678 0,2.4139 4.4855,4.9331 6.0312,3.3874 0.5374,-0.5374 2.4875,-3.8041 4.3337,-7.2594 2.9686,-5.5562 3.4289,-6.0123 3.9822,-3.9459 0.3441,1.2851 0.6379,4.1365 0.6529,6.3365 0.044,6.3865 0.9341,8.5 3.5815,8.5 3.8261,0 4.3689,-2.5932 3.7198,-17.7705 l -0.6023,-14.0822 11.5599,-13.3237 c 12.0252,-13.8599 17.4499,-19.4782 18.1046,-18.7507 0.2113,0.2349 -1.1794,10.0192 -3.0906,21.7428 -1.9111,11.7237 -3.1885,21.602 -2.8386,21.9519 0.3499,0.3499 4.0479,-1.0521 8.2179,-3.1154 4.17,-2.0634 7.7752,-3.5581 8.0117,-3.3217 0.2364,0.2365 -0.1186,3.4065 -0.7889,7.0445 -0.6703,3.638 -0.9625,6.8709 -0.6492,7.1841 0.3133,0.3133 4.5531,-0.8481 9.4219,-2.5809 29.2987,-10.4274 48.3523,-16.7806 48.3523,-16.1225 0,0.4156 -8.3326,10.7431 -18.5168,22.95 -15.0005,17.9796 -18.0971,22.1943 -16.3066,22.1943 2.5785,0 28.1274,-1.7852 35.0734,-2.4507 2.6125,-0.2503 4.75,-0.1191 4.75,0.2915 0,0.4106 -6.3294,5.2269 -14.0654,10.7029 l -14.0654,9.9563 13.5654,0.2782 c 7.461,0.153 13.5109,0.603 13.4442,1 -0.067,0.397 -4.5038,4.7718 -9.8602,9.7218 -5.3565,4.95 -10.0061,9.5451 -10.3326,10.2114 -0.3972,0.8105 1.9551,2.001 7.1102,3.5984 l 7.7038,2.387 -9.6884,4.5651 c -10.6926,5.0381 -9.5774,3.5036 -11.4375,15.7381 -0.2927,1.925 -1.3937,5.4632 -2.4467,7.8627 l -1.9146,4.3627 10.9194,12.1373 10.9195,12.1373 -4.1758,0.3364 c -2.2968,0.185 -9.737,-0.1789 -16.5338,-0.8087 -6.7969,-0.6298 -12.5445,-0.9586 -12.7725,-0.7306 -0.3561,0.3561 3.9702,13.7526 6.1207,18.9529 1.0426,2.5213 -0.244,2.2315 -9.9903,-2.25 -4.7845,-2.2 -8.8793,-4 -9.0996,-4 -0.2202,0 -0.453,2.5875 -0.5173,5.75 -0.064,3.1625 -0.4018,8.5744 -0.75,12.0265 l -0.6331,6.2764 z"
       id="path1" />
  </g>
</svg>
