<?xml version="1.0" encoding="UTF-8" standalone="no"?>
<!-- Created with Inkscape (http://www.inkscape.org/) -->

<svg
   version="1.1"
   id="svg1"
   width="224"
   height="168.0979"
   viewBox="0 0 224 168.0979"
   xmlns="http://www.w3.org/2000/svg"
   xmlns:svg="http://www.w3.org/2000/svg">
  <defs
     id="defs1" />
  <g
     id="g1"
     transform="translate(-1422.4911,-294.04801)">
    <path
       d="m 1422.4911,457.64591 v -4.5 h 112 112 v 4.5 4.5 h -112 -112 z m 0,-45 v -30.5 h 38.7396 38.7396 l 17.2604,17.23928 17.2604,17.23929 17.2604,-17.23929 17.2605,-17.23928 h 38.7395 38.7396 v 30.5 30.5 h -112 -112 z m 91.9968,-33.00323 -19.484,-19.50323 19.7436,-19.7436 19.7436,-19.74361 19.7436,19.74361 19.7436,19.7436 -19.484,19.50323 c -10.7162,10.72678 -19.7176,19.50323 -20.0032,19.50323 -0.2856,0 -9.287,-8.77645 -20.0032,-19.50323 z m 31.0092,-9.00281 10.4703,-10.50603 -10.7381,-10.73815 -10.7382,-10.73815 -10.7381,10.73815 -10.7382,10.73815 10.4703,10.50603 c 5.7586,5.77832 10.7114,10.50604 11.006,10.50604 0.2947,0 5.2474,-4.72772 11.006,-10.50604 z m -123.006,0.50604 v -3 h 31.8129 31.8129 l 2.8742,3 2.8742,3 h -34.6871 -34.6871 z m 157.5,0 2.8742,-3 h 31.8129 31.8129 v 3 3 h -34.6871 -34.6871 z m -157.5,-36.63398 c 0,-12.49239 0.4424,-21.13113 1.2161,-23.75 1.6229,-5.49284 9.9071,-13.77699 15.3999,-15.3999 5.9298,-1.75202 184.8382,-1.75202 190.768,0 5.4928,1.62291 13.777,9.90706 15.3999,15.3999 0.7738,2.61887 1.2161,11.25761 1.2161,23.75 v 19.63398 h -30.7428 -30.7428 l -25.2572,-25.24265 -25.2572,-25.24264 -25.2572,25.24264 -25.2572,25.24265 h -30.7428 -30.7428 z"
       id="path1" />
  </g>
</svg>
