<?xml version="1.0" encoding="UTF-8" standalone="no"?>
<!-- Created with Inkscape (http://www.inkscape.org/) -->

<svg
   version="1.1"
   id="svg1"
   width="236.72421"
   height="214.92867"
   viewBox="0 0 236.72421 214.92867"
   xmlns="http://www.w3.org/2000/svg"
   xmlns:svg="http://www.w3.org/2000/svg">
  <defs
     id="defs1" />
  <g
     id="g1"
     transform="translate(-772.11743,-375.87673)">
    <path
       d="m 896.50712,589.82853 c -14.7418,-2.10418 -33.247,-9.97124 -45.3362,-19.27364 -14.0096,-10.78016 -26.301,-27.39906 -32.1814,-43.51158 -4.6867,-12.84202 -6.3067,-23.71993 -5.6762,-38.11448 0.7033,-16.05752 3.1353,-25.3677 10.4795,-40.11771 l 5.7846,-11.61772 -3.3499,-4.88228 c -8.8458,-12.89219 -10.2936,-19.78314 -5.5844,-26.57854 1.4498,-2.09206 3.0413,-3.80375 3.5368,-3.80375 0.4954,0 3.6706,2.69362 7.056,5.98583 3.3854,3.29221 7.6732,6.48679 9.5284,7.09907 7.0443,2.32482 15.4495,-1.64942 19.252,-9.10299 3.4718,-6.80515 2.1678,-12.49239 -4.8951,-21.35103 -1.6967,-2.12802 -2.8808,-4.19943 -2.6313,-4.60313 0.2495,-0.40369 2.9593,-1.5221 6.0217,-2.48535 10.8693,-3.41881 16.9882,0.11435 29.0182,16.75567 l 2.0228,2.79808 9.4772,-1.16255 c 34.6351,-4.24858 69.462,10.62114 90.2352,38.52688 21.07918,28.31686 25.39168,64.09698 11.69188,97.00537 -16.75078,40.23732 -60.49218,64.70818 -104.44978,58.43385 z m 91.2603,-56.6497 c 7.1169,-13.46594 10.4483,-31.19786 9.0445,-48.14024 -2.2493,-27.1463 -19.3097,-52.9814 -43.9194,-66.50863 -9.8845,-5.43321 -25.2813,-10.38755 -26.4426,-8.50861 -0.521,0.8431 -3.5999,19.47277 -3.8317,23.18573 -0.083,1.32914 1.6056,2.38228 6.6862,4.16991 32.1126,11.29904 51.8274,36.45628 55.7716,71.16805 0.8739,7.69081 -0.037,23.38585 -1.6619,28.63379 -1.2011,3.87938 1.5013,1.39633 4.3533,-4 z m -106.5661,-80.26941 c 12.7814,-4.75409 22.3394,-12.2257 26.7836,-20.93698 4.839,-9.48529 6.0876,-22.08455 2.485,-25.07449 -1.4884,-1.23522 -7.0564,-0.46838 -9.2128,1.2688 -0.6875,0.55383 -1.25,2.50999 -1.25,4.34701 0,16.72997 -21.7976,35.02761 -44.5,37.35474 l -7,0.71754 3.827,1.71697 c 8.1814,3.67064 19.9636,3.91814 28.8672,0.60641 z m -11.5966,-26.77531 c 4.7676,-2.43224 11.0906,-9.1149 11.981,-12.66242 0.3461,-1.37916 0.1228,-3.9608 -0.4964,-5.73699 -1.3125,-3.76499 -7.2085,-12.74242 -8.3935,-12.78008 -0.4462,-0.0142 -0.5138,1.95771 -0.1503,4.38198 0.3636,2.42427 0.3547,5.80266 -0.02,7.50754 -0.9745,4.43694 -7.4468,12.61667 -13.6729,17.28004 -2.9401,2.20216 -5.5707,4.24364 -5.8457,4.53662 -1.3814,1.47165 13.0736,-0.72885 16.5976,-2.52669 z m -96.3976,-20.40528 c -2.9433,-2.94332 0.247,-10.13833 7.5064,-16.92857 14.8604,-13.90022 41.9237,-17.17542 57.3716,-6.94313 5.0988,3.37729 12.6636,12.19378 13.5736,15.81957 1.5356,6.11841 -7.5996,10.89031 -11.6142,6.06683 -1.0596,-1.27308 -3.3632,-4.0194 -5.1191,-6.10292 -1.7559,-2.08353 -5.2684,-5.00853 -7.8055,-6.5 -4.2253,-2.48398 -5.4948,-2.71178 -15.1128,-2.71178 -9.6111,0 -10.9584,0.2413 -15.915,2.85047 -2.9783,1.56776 -8.2526,5.73026 -11.7208,9.25 -6.2338,6.32653 -8.8287,7.53507 -11.1642,5.19953 z"
       id="path1" />
  </g>
</svg>
