<?xml version="1.0" encoding="UTF-8" standalone="no"?>
<!-- Created with Inkscape (http://www.inkscape.org/) -->

<svg
   version="1.1"
   id="svg1"
   width="236.37256"
   height="236.63695"
   viewBox="0 0 236.37256 236.63695"
   xmlns="http://www.w3.org/2000/svg"
   xmlns:svg="http://www.w3.org/2000/svg">
  <defs
     id="defs1" />
  <g
     id="g1"
     transform="translate(-1207.0427,-924.88256)">
    <path
       d="m 1405.6201,1160.5227 c -2.6273,-0.7395 -7.1337,-2.9678 -10.0144,-4.9518 -2.8806,-1.9839 -40.2805,-38.7254 -83.1108,-81.6478 -74.6706,-74.83094 -78.023,-78.04054 -81.5132,-78.04054 -4.4154,0 -7.402,-1.937 -9.0239,-5.8527 -2.4559,-5.92906 -1.2345,-8.30143 6.2541,-12.1473 12.7514,-6.54875 25.1934,-18.98205 31.6849,-31.66291 3.8459,-7.51273 6.2113,-8.73485 12.1473,-6.27607 3.9923,1.65364 5.8527,4.62429 5.8527,9.34522 0,3.91804 0.871,4.82862 79.901,83.5275 90.2576,89.8795 85.5699,84.4258 85.578,99.5616 0,6.0546 -0.5088,9.101 -2.1018,12.5047 -2.7055,5.7809 -8.6776,11.7321 -14.316,14.2659 -5.586,2.5103 -15.1204,3.1243 -21.3379,1.3742 z m 19.6278,-10.9587 c 9.0152,-6.8763 11.618,-15.142 8.1324,-25.8267 -1.5592,-4.7795 -3.8015,-7.4227 -20.8726,-24.6047 -21.813,-21.9548 -22.6638,-22.4244 -26.6356,-14.702 -7.4611,14.5067 -22.4267,16.5573 -28.4348,3.8962 -0.9422,-1.9857 -2.3072,-7.5638 -3.0333,-12.396 -1.4229,-9.4704 -3.4032,-14.387 -6.4518,-16.0186 -3.52,-1.8838 -7.8561,-1.1795 -11.2151,1.8217 -2.7794,2.4834 -3.2477,3.6328 -3.6292,8.9063 -0.7389,10.2164 1.0653,12.6 36.2424,47.878 34.333,34.4316 34.4942,34.5505 46.1765,34.0484 4.8915,-0.2103 6.8554,-0.8169 9.7211,-3.0026 z m -210.5447,-181.35954 -2.6935,-2.8219 6.0279,-2.82662 c 8.4241,-3.95022 22.45,-17.92554 26.5119,-26.41635 l 2.9866,-6.24296 2.8051,2.92788 c 2.2534,2.35203 2.6709,3.48157 2.1229,5.74297 -2.3997,9.90253 -22.6071,29.98075 -32.0673,31.86222 -2.4277,0.48283 -3.5139,0.0583 -5.6936,-2.22524 z m -7.5041,-11.97645 c -2.3299,-6.07169 22.0116,-31.34545 30.1892,-31.34545 7.8304,0 -8.2177,22.21584 -21.5853,29.88118 -6.166,3.53571 -7.7083,3.7982 -8.6039,1.46427 z"
       id="path1" />
  </g>
</svg>
