<?xml version="1.0" encoding="UTF-8" standalone="no"?>
<!-- Created with Inkscape (http://www.inkscape.org/) -->

<svg
   version="1.1"
   id="svg1"
   width="242.69017"
   height="181.93065"
   viewBox="0 0 242.69017 181.93065"
   xmlns="http://www.w3.org/2000/svg"
   xmlns:svg="http://www.w3.org/2000/svg">
  <defs
     id="defs1" />
  <g
     id="g1"
     transform="translate(-836.47865,-986.55872)">
    <path
       d="m 999.47865,1163.414 c -4.95,-2.7834 -18.55859,-10.0012 -30.24131,-16.0395 -11.68272,-6.0383 -21.46608,-11.3424 -21.74081,-11.7869 -0.27472,-0.4445 13.41174,-11.2346 30.41436,-23.9781 l 30.91381,-23.17 3.827,1.9533 c 8.5177,4.3473 52.8701,29.3116 53.8134,30.2895 0.6948,0.7204 -0.6039,2.517 -4.1303,5.7136 -36.4105,33.0058 -47.6431,42.1237 -51.8562,42.0934 -1.1,-0.01 -6.05,-2.2918 -10.99995,-5.0753 z m -113,-49.9897 c -47.37168,-28.0726 -50,-29.7732 -50,-32.3514 0,-1.2744 1.79118,-3.173 5,-5.2999 8.17464,-5.4183 35.58541,-21.7702 41.31151,-24.6443 l 5.31151,-2.666 34.53073,18.5421 34.53073,18.5421 10.21811,-7.9128 10.21811,-7.9128 9.74375,6.0064 c 5.35906,3.3035 9.60691,6.3745 9.43965,6.8243 -0.69101,1.8587 -67.78208,54.0058 -69.46878,53.9952 -1.00943,-0.01 -19.38532,-10.4116 -40.83532,-23.1229 z m 146.47035,-23.2547 c -1.3587,-0.7317 -9.9763,-6.006 -19.1502,-11.7207 -9.1739,-5.7146 -18.79937,-11.6547 -21.38999,-13.2002 -2.63576,-1.5724 -4.31824,-3.1775 -3.82019,-3.6444 3.02024,-2.8317 47.76798,-37.0456 48.45128,-37.0456 1.2105,0 40.1722,21.0182 41.8419,22.572 1.1831,1.101 -0.9181,3.747 -13.3967,16.8707 -14.1931,14.9269 -22.092,22.3461 -27.5361,25.864 -2.1646,1.3987 -2.8861,1.4426 -5,0.3042 z m -86.97035,-24.979 c -5.225,-2.8766 -20.16191,-11.0043 -33.19312,-18.0616 -13.03122,-7.0573 -23.96125,-13.5302 -24.28895,-14.3842 -0.32979,-0.8594 0.20294,-2.2943 1.19312,-3.2138 2.6019,-2.4159 76.71167,-42.97228 78.52451,-42.97228 1.97052,0 39.03339,12.6062 52.96119,18.01368 12.7856,4.964 14.1393,6.1475 10.3983,9.0902 -36.41515,28.6442 -73.43981,56.838 -74.59505,56.8033 -0.825,-0.025 -5.775,-2.3987 -11,-5.2753 z"
       id="path1" />
  </g>
</svg>
