<?xml version="1.0" encoding="UTF-8" standalone="no"?>
<svg
   width="48.74"
   height="33.585"
   version="1.1"
   viewBox="0 0 48.74 33.585"
   id="svg1"
   xmlns="http://www.w3.org/2000/svg"
   xmlns:svg="http://www.w3.org/2000/svg">
  <defs
     id="defs1" />
  <g
     transform="translate(-8.1117 -7.1975)"
     id="g1">
    <path
       d="m 10.162481,7.1975 -0.316406,4.441406 -0.3164062,4.439453 2.4296872,4.541016 -1.27539,7.460937 C 8.6805956,38.632213 10.6536,28.276438 8.1117,40.783437 l 2.599609,-0.04687 22.226563,-0.269531 23.914062,0.03516 c -2.33131,-14.06689 -1.1898,-7.396706 -2.25,-13.066406 L 53.338262,20.674062 55.797247,16.078359 55.480841,11.638906 55.162481,7.1975 Z"
       id="path2"
       style="display:inline" />
    <path
       d="M 8.1117,40.783 C 10.6536,28.276 8.67983,38.6319 10.6832,28.08 L 11.9594,20.6193 9.5295,16.079 9.84632,11.6381 10.16314,7.1972 h 45 l 0.31682,4.4409 0.31682,4.4409 -2.4589,4.5945 1.2644,6.7618 c 1.0602,5.6697 -0.08151,-0.99989 2.2498,13.067 l -23.915,-0.03567 -22.226,0.26907 z m 10.014,-7.8355 c -1.3347,-2.3252 0.51395,0.4516 -4.4621,-6.65 0.06009,3.8833 -0.08349,0.86137 -1.25,11.4 h 8.44 z m 27.73,-3.75 c 2.6407,-4.4 4.8027,-8.3375 4.8044,-8.75 0.0017,-0.4125 -1.8939,-0.75 -4.2125,-0.75 h -4.2157 l -9.5687,9.4248 -9.5687,-9.4248 h -4.2157 c -2.3186,0 -4.2157,0.29796 -4.2157,0.66214 0,0.69057 3.6373,7.1238 7.7051,13.628 l 2.3703,3.7898 16.316,-0.57967 z m 5.8076,-2.9 -0.86705,0.95 c -0.47688,0.5225 -2.0946,3.0875 -3.595,5.7 l -2.728,4.75 h 8.44 c -1.169,-10.924 -0.31422,-3.5378 -1.25,-11.4 z m -13.5,-5.6 4.9248,-5 h 9.5752 v -6 h -40 v 6 h 9.5752 l 4.9248,5 c 2.7086,2.75 5.1836,5 5.5,5 0.3164,0 2.7914,-2.25 5.5,-5 z m -7.5417,-1.5502 -1.2865,-1.5502 3.3282,-3.3282 3.3282,3.3282 -1.2865,1.5502 c -0.7076,0.8526 -1.6263,1.5502 -2.0417,1.5502 -0.4154,0 -1.3341,-0.69758 -2.0417,-1.5502 z"
       id="path1"
       style="display:inline;fill:#000000" />
  </g>
</svg>
