<?xml version="1.0" encoding="UTF-8" standalone="no"?>
<!-- Created with Inkscape (http://www.inkscape.org/) -->

<svg
   version="1.1"
   id="svg1"
   width="89.621109"
   height="89.714684"
   viewBox="0 0 89.621109 89.714684"
   xmlns="http://www.w3.org/2000/svg"
   xmlns:svg="http://www.w3.org/2000/svg">
  <defs
     id="defs1" />
  <g
     id="g1"
     transform="translate(-1110.6362,-300.58544)">
    <path
       d="m 1176.3468,385.55012 c -6e-4,-3.21644 -0.9896,-6.84855 -3.0633,-11.25 l -3.0626,-6.5 4.6806,4.5 c 4.5668,4.39047 9.4168,12.74253 9.4363,16.25 0.01,1.37663 -0.8436,1.75 -3.9902,1.75 h -4 z m -35.9886,-2.21002 c -7.7593,-2.67821 -12.0106,-7.50067 -12.0106,-13.62417 0,-5.8363 2.2639,-10.63329 6.8804,-14.57847 2.114,-1.80669 2.7877,-2.78959 1.6196,-2.36312 -1.1,0.40159 -4.7237,0.96366 -8.0526,1.24904 -7.2936,0.62525 -13.3519,-1.94217 -16.5499,-7.0136 -4.1575,-6.59315 0.266,-23.40026 7.2851,-27.67967 6.3572,-3.87585 16.0293,-2.05477 22.6824,4.27069 3.2153,3.05696 3.3265,3.08808 2.5,0.69932 -0.4758,-1.375 -0.865,-5.28033 -0.865,-8.67851 0,-10.65188 6.0225,-15.87227 17.2208,-14.92719 12.9389,1.09197 21.2792,7.05525 21.2792,15.21454 0,6.14075 -1.9348,10.20581 -7.058,14.82907 -2.4001,2.16585 -3.4814,3.57954 -2.4029,3.14155 11.2001,-4.54864 22.7711,-1.86801 26.0756,6.04089 1.8836,4.50796 1.7439,8.00812 -0.6259,15.68058 -2.2685,7.34461 -7.1272,12.62701 -11.7736,12.80039 -9.2895,0.34663 -11.7177,-0.47637 -17.6126,-5.96955 -2.7861,-2.59625 -3.6926,-3.06152 -3.179,-1.63177 1.4726,4.09961 1.7845,11.33923 0.6383,14.81235 -0.6512,1.97322 -2.7472,4.96017 -4.6578,6.63767 -3.0886,2.71182 -4.1628,3.04636 -9.6889,3.01733 -3.4184,-0.0179 -8.6855,-0.88527 -11.7046,-1.92737 z m 13.4103,-23.53284 5.44,-9.84529 12.0695,0.24198 c 6.6383,0.13309 12.0696,0.012 12.0696,-0.26902 0,-0.28106 -4.7302,-2.90136 -10.5116,-5.82291 l -10.5116,-5.3119 0.6026,-12 0.6026,-12 -1.9031,3 c -1.0467,1.65 -3.8299,6.50693 -6.1849,10.79317 l -4.2818,7.79317 -12.6561,-0.57367 -12.6561,-0.57368 11.2647,5.76738 11.2648,5.76739 -0.652,12.01312 c -0.3585,6.60722 -0.3694,11.75492 -0.024,11.43934 0.3452,-0.31558 3.0757,-5.00417 6.0677,-10.41908 z"
       id="path1" />
  </g>
</svg>
