<?xml version="1.0" encoding="UTF-8" standalone="no"?>
<!-- Created with Inkscape (http://www.inkscape.org/) -->

<svg
   width="22.832306mm"
   height="24.58604mm"
   viewBox="0 0 22.832306 24.58604"
   version="1.1"
   id="svg1"
   xml:space="preserve"
   xmlns="http://www.w3.org/2000/svg"
   xmlns:svg="http://www.w3.org/2000/svg"><defs
     id="defs1"><linearGradient
       id="swatch1"><stop
         style="stop-color:#000000;stop-opacity:1;"
         offset="0"
         id="stop1" /></linearGradient></defs><g
     id="layer1"
     transform="translate(-80.04181,-161.96193)"><path
       d="m 92.97483,184.8777 c -1.594631,-1.60893 -1.637305,-1.68665 -1.162148,-2.11666 0.271298,-0.24552 0.558651,-0.44641 0.638562,-0.44641 0.07991,0 0.827063,0.77655 1.660338,1.72567 1.253119,1.42732 1.458944,1.79325 1.19054,2.11666 -0.178479,0.21506 -0.402665,0.39101 -0.498191,0.39101 -0.09553,0 -0.918622,-0.75162 -1.829101,-1.67027 z m -4.889684,-0.51254 c -0.393834,-0.29349 -0.129436,-0.64828 2.347627,-3.15026 2.744016,-2.77162 2.796472,-2.80849 3.087343,-2.1701 0.276195,0.60618 0.130057,0.81596 -2.194532,3.15025 -1.369738,1.37546 -2.559324,2.50083 -2.643525,2.50083 -0.0842,0 -0.352812,-0.14882 -0.596913,-0.33072 z m 7.143326,-0.93278 c -0.397177,-0.43887 -0.349059,-0.51786 0.732114,-1.20186 1.402556,-0.88733 2.978534,-2.58656 3.445919,-3.71542 0.18916,-0.45687 0.673935,-2.40507 1.077285,-4.32934 l 0.73336,-3.49867 -0.70612,-0.55543 c -0.41006,-0.32255 -0.706121,-0.81821 -0.706121,-1.18217 0,-0.49831 -0.337335,-0.80612 -1.646221,-1.50215 -0.905422,-0.48148 -2.261628,-1.49007 -3.013793,-2.24131 l -1.367571,-1.3659 -1.417978,1.37106 c -0.779888,0.75409 -2.093207,1.75142 -2.918487,2.21629 -0.899265,0.50656 -1.57378,1.08758 -1.68337,1.45005 -0.100574,0.33265 -0.475612,0.91783 -0.833417,1.30039 -0.602285,0.64397 -0.628236,0.77847 -0.349761,1.81265 0.37153,1.37975 0.228522,1.5681 -0.493589,0.65009 -0.564382,-0.7175 -0.97469,-1.88497 -1.249468,-3.55519 l -0.152349,-0.92604 2.730469,-1.32292 c 2.136916,-1.03534 3.124936,-1.70895 4.545098,-3.09875 l 1.814628,-1.77583 1.716064,1.71606 c 1.381293,1.3813 2.277771,1.9858 4.595416,3.09875 1.58364,0.76048 2.84014,1.50175 2.79221,1.64727 -0.0479,0.14552 -0.58886,2.46724 -1.20209,5.15938 -1.36752,6.00362 -1.64813,6.81903 -2.730119,7.93348 -0.907023,0.93423 -2.794743,2.38526 -3.103113,2.38526 -0.101133,0 -0.375181,-0.21138 -0.608996,-0.46975 z M 87.455479,180.071 c -0.753072,-0.7757 -2.468594,-2.36865 -3.812271,-3.53988 -2.355662,-2.05335 -2.464818,-2.19818 -3.051591,-4.04889 -0.334698,-1.05566 -0.580695,-1.94722 -0.54666,-1.98125 0.03404,-0.034 0.921729,0.24459 1.972653,0.61918 1.8381,0.65516 1.985199,0.7736 3.867662,3.11405 1.07629,1.33814 2.619808,3.14902 3.430041,4.02417 l 1.473152,1.59118 -0.862187,0.83566 c -0.474202,0.45962 -0.916049,0.82677 -0.981882,0.8159 -0.06583,-0.0109 -0.735845,-0.65442 -1.488917,-1.43012 z m 7.139147,0.44369 0.982527,-1.0062 -0.839022,-1.57349 c -0.461463,-0.86542 -0.881933,-1.6256 -0.934378,-1.68928 -0.05245,-0.0637 -0.630361,0.40928 -1.284256,1.05103 l -1.188902,1.16682 -1.214457,-1.21446 c -1.119478,-1.11948 -1.251419,-1.39534 -1.687065,-3.52733 -0.458695,-2.24478 -0.458079,-2.3274 0.02093,-2.8064 0.271444,-0.27144 0.56232,-0.7676 0.646393,-1.10257 0.09162,-0.36504 0.650824,-0.88945 1.395792,-1.30895 0.683613,-0.38496 1.707774,-1.10247 2.275914,-1.59448 l 1.03298,-0.89456 0.819103,0.76472 c 0.450506,0.42059 1.444181,1.12286 2.208165,1.56058 0.763985,0.43772 1.389063,0.88694 1.389063,0.99827 0,0.11132 0.304416,0.65098 0.67648,1.19925 l 0.67648,0.99685 -0.583531,2.81038 c -0.827847,3.98706 -1.53571,5.17488 -3.944429,6.61888 -1.388083,0.83215 -1.545094,0.67468 -0.447783,-0.44906 z"
       id="path1" /></g></svg>
