<?xml version="1.0" encoding="UTF-8"?>
<svg width="64" height="64" version="1.1" viewBox="0 0 64 64" xmlns="http://www.w3.org/2000/svg">
 <g transform="translate(-1165.9 -321.46)">
  <path d="m1165.9 353.46v-32h64v64h-64zm52.59 20.091-6.8561-6.909 2.3829-3.341c3.4126-4.7847 3.4114-14.891 0-19.682l-2.3804-3.341 13.712-13.818-53.946 0.018 13.763 12.506-2.605 3.8386c-4.7196 6.9548-4.7196 14.32 0 21.275l2.605 3.8386-13.763 12.506 53.946 0.018zm-27.749-7.6151c-9.0234-4.9011-8.9836-20.248 0.065-24.927 3.8346-1.9829 10.353-1.9829 14.188 0 8.9223 4.6139 9.2842 19.201 0.6076 24.492-3.8046 2.3198-11.002 2.5307-14.86 0.43545zm12.173-7.9904 4.4306-4.5144-9.4448-9.4448-9.4448 9.4448 4.4306 4.5144c2.4369 2.483 4.6932 4.5144 5.0142 4.5144s2.5774-2.0315 5.0142-4.5144z"/>
 </g>
</svg>
