<?xml version="1.0" encoding="UTF-8" standalone="no"?>
<!-- Created with Inkscape (http://www.inkscape.org/) -->

<svg
   version="1.1"
   id="svg1"
   width="34"
   height="44.098965"
   viewBox="0 0 34 44.098965"
   xmlns="http://www.w3.org/2000/svg"
   xmlns:svg="http://www.w3.org/2000/svg">
  <defs
     id="defs1" />
  <g
     id="g1"
     transform="translate(-810.24736,-624.83476)">
    <path
       d="m 820.74736,667.58264 c -5.78954,-2.58421 -10.62164,-6.78375 -10.5,-15.1974 0.0899,-6.2186 2.40006,-7.96945 5.4894,-11.38524 1.2436,-1.375 2.69222,-3.85 3.21917,-5.5 0.55754,-1.74577 1.44534,-2.77635 1.78447,-3.28616 0.68077,0.28736 1.34431,1.1714 2.13662,2.72347 l 1.12966,2.21291 3.55009,-3.11702 c 1.95255,-1.71436 3.85062,-4.48534 4.21794,-6.15773 l 0.66785,-3.04071 2.50462,2.33262 c 1.04795,0.97598 2.45996,2.77545 1.85825,8.7417 -0.57551,5.70647 -0.47708,6.2686 0.89778,5.12756 2.38514,-1.97949 1.77656,-3.39975 2.54415,-4.03664 0.30843,0.13421 1,2.5301 1,5.62244 0,4.88435 0.19692,5.45902 1.5,4.37756 1.25796,-1.04401 1.5,-0.88079 1.5,1.01154 0,4.32416 -2.34465,10.03111 -5.76093,14.02226 -5.7573,6.72611 -11.25137,8.44468 -17.73907,5.54884 z m 9.47879,-7.07167 c 3.26808,-1.68999 4.49302,-4.49498 3.56963,-8.17406 -0.47616,-1.89719 -1.05368,-2.34119 -2.34029,-1.79924 -4.70295,1.98103 -6.55358,1.76685 -8.77192,-1.01521 -2.43894,-3.05872 -4.02725,-2.7283 -5.49953,1.14408 -1.39319,3.66437 -0.0712,7.28038 3.44561,9.42487 3.76083,2.29328 5.80067,2.38246 9.5965,0.41956 z"
       id="path1" />
  </g>
</svg>
