<?xml version="1.0" encoding="UTF-8" standalone="no"?>
<!-- Created with Inkscape (http://www.inkscape.org/) -->

<svg
   version="1.1"
   id="svg1"
   width="164.22195"
   height="237.85344"
   viewBox="0 0 164.22195 237.85344"
   xmlns="http://www.w3.org/2000/svg"
   xmlns:svg="http://www.w3.org/2000/svg">
  <defs
     id="defs1" />
  <g
     id="g1"
     transform="translate(-565.2053,-287.00513)">
    <path
       d="m 576.09497,524.06409 c -4.16391,-1.26509 -6.96318,-3.3681 -9.1446,-6.87008 -1.96335,-3.15189 -2.02917,-4.20986 -1.36853,-22 0.3817,-10.27888 0.84761,-19.81388 1.03535,-21.18888 0.18775,-1.375 0.61401,-11.725 0.94725,-23 0.33325,-11.275 0.8614,-23.05455 1.17367,-26.17679 l 0.56776,-5.67678 7.46242,5.01312 c 11.08567,7.44718 23.99088,12.9117 38.46938,16.2893 3.35073,0.78168 6.2386,1.56759 6.41748,1.74647 0.17889,0.17888 -3.69189,5.68482 -8.60171,12.23542 -4.90982,6.5506 -8.92272,12.62097 -8.91756,13.48972 0.0202,3.4081 6.12439,11.94198 13.7597,19.23672 9.04261,8.63924 11.99909,10.64437 12.73334,8.63594 0.26002,-0.71121 1.84746,-7.14312 3.52766,-14.29312 7.0326,-29.92694 13.96141,-39.52264 15.8378,-33.54664 4.2443,13.51739 5.33333,22.73471 8.26269,34.59431 1.70867,7.12378 3.41438,13.29092 3.79048,13.70476 0.76491,0.84167 5.18616,-2.42792 11.12766,-7.67717 7.64803,-6.75695 10.00994,-10.51085 10.7727,-11.88907 1.17985,-2.13184 4.17859,-7.01198 4.17859,-9.04536 0,-0.78411 -3.6,-6.19244 -8,-12.01851 -4.4,-5.82607 -8,-11.26591 -8,-12.08854 0,-0.82262 1.2375,-1.77204 2.75,-2.10982 16.78273,-3.74799 29.55622,-8.9025 41.27572,-16.65606 8.08212,-5.34709 8.50475,-5.50615 9.13278,-3.43722 0.36218,1.19313 1.1691,16.34432 1.79317,33.66932 0.62407,17.325 1.40791,37.85738 1.74188,45.62751 l 0.60721,14.1275 -3.93371,4.21715 c -2.95646,3.16949 -5.04336,4.43124 -8.40038,5.07894 -5.51861,1.06476 -137.49532,1.07211 -140.9982,0.008 z m 47.03153,-95.75458 c -29.09793,-4.92628 -46.29333,-20.0793 -51.00343,-24.7471 -5.74543,-5.69384 -5.99727,-6.15454 -6.01309,-11 -0.0279,-8.53652 2.12768,-60.9156 2.6053,-63.30728 l 0.44932,-2.25 h 77.9619 77.9619 l 0.45868,2.25 c 0.53272,2.6132 2.61161,52.13633 2.59241,61.75624 l -0.013,6.50623 -5.57997,5.76081 c -7.15633,7.38826 -15.77082,13.21198 -25.8852,17.49937 -9.29897,3.94175 -21.29647,7.22735 -26.39095,7.22735 h -3.5362 l 3.08836,-3.25 c 6.06778,-6.38533 7.79867,-11.21409 7.7964,-21.75 -0.002,-8.36202 -0.32053,-10.09894 -2.66084,-14.5 -3.1863,-5.992 -8.69955,-11.43448 -14.83159,-14.64121 -3.80552,-1.99009 -5.96613,-2.35326 -14,-2.35326 -8.03387,0 -10.19448,0.36317 -14,2.35326 -11.19438,5.85406 -17.08884,15.0612 -17.79075,27.78912 -0.39998,7.25281 -0.15577,8.79081 2.22296,14 1.46977,3.21865 4.31512,7.53959 6.323,9.60209 2.00788,2.0625 3.44686,3.68872 3.19774,3.61382 -0.24912,-0.0749 -1.57795,-0.32665 -2.95295,-0.55944 z m 19,-4.24341 c -10.49412,-2.10909 -17.32596,-10.41663 -17.31985,-21.06097 0.007,-12.20498 9.12368,-21.32301 21.31985,-21.32301 12.1981,0 21.3167,9.1213 21.3167,21.32301 0,13.70858 -12.04449,23.72839 -25.3167,21.06097 z m -73,-107.70073 c 0,-5.47021 -2.63616,-5.29407 79.75,-5.32844 l 76.25,-0.0318 v 4 4 h -78 -78 z m 49.48515,-18.11024 c 1.56771,-10.4552 3.51161,-11.25 27.51485,-11.25 23.35325,0 25.30254,0.95868 27.35901,10 0.62155,2.73266 0.88354,4.82548 0.94133,5.6582 -15.72341,0.66863 -13.75449,0.3418 -31.11325,0.3418 h -25.41418 z"
       id="path1" />
  </g>
</svg>
