<?xml version="1.0" encoding="UTF-8" standalone="no"?>
<!-- Created with Inkscape (http://www.inkscape.org/) -->

<svg
   version="1.1"
   id="svg1"
   width="36.557098"
   height="46.85342"
   viewBox="0 0 36.557098 46.85342"
   xmlns="http://www.w3.org/2000/svg"
   xmlns:svg="http://www.w3.org/2000/svg">
  <defs
     id="defs1" />
  <g
     id="g1"
     transform="translate(-1127.7475,-619.56732)">
    <path
       d="m 1157.5447,659.90081 c -3.132,-3.9963 -7.0313,-9.62849 -8.6651,-12.51599 -2.8844,-5.09789 -3.099,-5.25 -7.4064,-5.25 -5.4445,0 -7.0993,-2.45471 -3.322,-4.92771 7.8454,-5.13642 11.3607,-10.93277 7.5234,-12.40529 -4.0086,-1.53825 -12.4619,3.57843 -11.2273,6.79575 0.6816,1.77609 1.5526,1.90056 3.6527,0.52194 1.2583,-0.826 1.2779,-1.12783 0.1219,-1.87289 -1.9192,-1.23693 -0.4864,-3.1118 2.3781,-3.1118 5.5446,0 3.3455,5.41313 -3.4428,8.47419 -5.8601,2.64255 -9.6225,1.29819 -9.4004,-3.35891 0.1895,-3.97258 3.1498,-7.34275 8.7201,-9.92762 9.8841,-4.58668 16.6231,-3.35882 16.6231,3.0288 0,2.52897 -1.1084,4.24389 -5.4788,8.47694 -5.7657,5.58452 -5.8224,6.00476 -0.563,4.17134 3.6536,-1.27367 4.9987,-0.22508 5.0265,3.9185 0.019,2.80347 3.9987,10.80905 9.1518,18.40897 5.661,8.34902 2.9393,8.0348 -3.6918,-0.42622 z"
       id="path1" />
  </g>
</svg>
