<?xml version="1.0" encoding="UTF-8"?>
<svg width="173.9" height="173.93" version="1.1" viewBox="0 0 173.9 173.93" xmlns="http://www.w3.org/2000/svg">
 <g transform="translate(-1497.9 -102.53)">
  <path d="m1579.1 267.53c-2.8875-4.8968-5.25-9.0486-5.25-9.2261 0-0.17752 4.95-0.32277 11-0.32277s11 0.12867 11 0.28593c0 0.75635-10.545 18.211-10.99 18.19-0.2807-0.0131-2.8729-4.0304-5.7604-8.9272zm1.75-14.77c-8.6497-0.69815-16.128-2.7197-24-6.4878-12.007-5.7473-23.058-16.803-28.778-28.791-4.8734-10.213-6.5114-17.654-6.3836-29 0.1945-17.272 6.0803-31.096 18.568-43.611 6.5291-6.5433 9.7366-8.8892 16.594-12.136 4.675-2.2137 10.702-4.5489 13.393-5.1894 6.3878-1.5201 20.86-1.5574 28.254-0.0728 17.494 3.5121 35.298 17.557 43.111 34.009 5.0387 10.61 6.5728 17.169 6.5495 28-0.06 27.713-18.005 52.173-44.308 60.396-7.4306 2.3228-16.248 3.428-23 2.883zm17.458-11.81c13.499-3.5161 26.88-13.996 33.26-26.05 11.142-21.051 7.4499-46.249-9.219-62.918-20.83-20.83-54.17-20.83-75 0-10.253 10.253-15.5 22.948-15.5 37.5 0 23.958 16.202 45.258 39.112 51.419 7.1516 1.9233 20.062 1.9466 27.346 0.0494zm-23.133-7.5133c-11.738-2.3209-25.289-12.96-30.719-24.119-8.3924-17.245-4.8813-37.706 8.8219-51.409 18.43-18.43 47.011-17.844 64.607 1.3242 16.333 17.793 15.697 44.659-1.4636 61.819-11.169 11.169-25.55 15.487-41.246 12.384zm20.186-20.915c15.784-6.7542 19.743-28.632 7.4119-40.963-15.868-15.869-43.123-4.5408-43.123 17.923 0 18.653 18.329 30.478 35.711 23.04zm-21.018-13.046-9.9688-10.006 10.238-10.238 10.238-10.238 10.238 10.238 10.238 10.238-9.9688 10.006c-5.4828 5.5035-10.211 10.006-10.506 10.006s-5.0235-4.5028-10.506-10.006zm15.52-5.5081 4.4306-4.5144-9.4448-9.4448-9.4448 9.4448 4.4306 4.5144c2.4368 2.483 4.6932 4.5144 5.0142 4.5144s2.5774-2.0315 5.0142-4.5144zm-66.662 55.863c0.3023-1.0168 1.5098-5.6737 2.6833-10.349s2.2432-8.6101 2.3771-8.7446c0.1339-0.13455 3.6934 3.2054 7.9101 7.422 4.2166 4.2167 7.5566 7.7762 7.422 7.9101-0.1345 0.1339-4.0696 1.2036-8.7446 2.3771s-9.3319 2.381-10.349 2.6832c-1.4372 0.42724-1.7264 0.13803-1.2992-1.2991zm112.66-1.0091c-5.2173-1.363-9.6024-2.5947-9.7446-2.7369-0.1423-0.14225 3.1914-3.7086 7.408-7.9253 4.2167-4.2167 7.7762-7.5566 7.9101-7.422 0.1339 0.13454 1.2036 4.0696 2.3771 8.7446s2.3669 9.2875 2.6519 10.25c0.6246 2.1091 1.1166 2.1514-10.602-0.91035zm-129.24-53.632c-4.7987-2.8643-8.7255-5.4329-8.7261-5.7079 0-0.4553 17.377-11 18.128-11 0.1776 0 0.3228 4.95 0.3228 11s-0.225 10.981-0.5 10.958c-0.275-0.0232-4.4262-2.3857-9.225-5.25zm146.72-5.7079c0-6.05 0.1452-11 0.3228-11 0.7506 0 18.13 10.545 18.13 11s-17.379 11-18.13 11c-0.1776 0-0.3228-4.95-0.3228-11zm-127.82-51.226c-1.4104-5.6245-2.4643-10.326-2.342-10.449 0.242-0.24194 19.999 4.6826 20.402 5.0851 0.2264 0.22642-14.848 15.59-15.297 15.59-0.1092 0-1.3525-4.6019-2.7628-10.226zm107.3 2.2166-7.5211-7.6769 10.512-2.5826c5.7815-1.4204 10.602-2.4928 10.712-2.383 0.4759 0.47592-4.9907 20.636-5.555 20.486-0.3443-0.0916-4.0105-3.6211-8.1472-7.8434zm-58.979-19.813c0-0.75067 10.544-18.13 11-18.13s11 17.379 11 18.13c0 0.17753-4.95 0.32278-11 0.32278s-11-0.14525-11-0.32278z"/>
 </g>
</svg>
