<?xml version="1.0" encoding="UTF-8" standalone="no"?>
<!-- Created with Inkscape (http://www.inkscape.org/) -->

<svg
   version="1.1"
   id="svg1"
   width="220.67012"
   height="226.54292"
   viewBox="0 0 220.67012 226.54292"
   xmlns="http://www.w3.org/2000/svg"
   xmlns:svg="http://www.w3.org/2000/svg">
  <defs
     id="defs1" />
  <g
     id="g1"
     transform="translate(-872.59247,-687.77639)">
    <path
       d="m 956.42822,912.94933 c -23.556,-5.11446 -47.7599,-21.55312 -64.744,-43.97246 -5.8951,-7.78163 -13.7681,-23.86859 -16.6397,-34 -3.2558,-11.48687 -3.2719,-33.49918 -0.033,-44.7885 4.5333,-15.80022 11.7546,-28.2835 22.6833,-39.21221 12.7405,-12.74057 23.8285,-19.13492 34.9873,-20.17695 l 6.6468,-0.62069 5.2055,5.39918 c 2.8629,2.96954 7.0985,8.59849 9.4123,12.50877 6.8928,11.64876 12.0488,13.59531 22.0813,8.3364 5.4513,-2.85747 7.3788,-3.30547 15.9518,-3.70756 7.1671,-0.33616 11.34138,-0.0187 15.75128,1.19784 12.9035,3.55964 37.721,3.04387 48.7719,-1.01361 2.3255,-0.85381 4.9006,-1.6357 5.7225,-1.73753 2.1467,-0.26594 10.6159,17.0839 13.0069,26.64557 4.5015,18.00164 4.4722,44.15884 -0.07,62.57898 -2.3119,9.37499 -8.8393,24.16325 -14.0223,31.76852 -7.031,10.31684 -22.9882,24.80355 -32.8434,29.81691 -2.813,1.43093 -4.7136,1.61214 -10.5,1.00111 -14.4626,-1.52722 -15.4889,-1.37611 -23.49098,3.45881 -4.0521,2.44833 -9.6641,5.24535 -12.471,6.21559 -6.1083,2.11144 -16.5032,2.23493 -25.4065,0.30183 z m 8.5914,-165.82704 c -0.745,-0.74502 -3.115,-4.3647 -5.2666,-8.04373 -2.1515,-3.67904 -7.1991,-10.22751 -11.2168,-14.55216 -7.9479,-8.5551 -9.0183,-11.71204 -5.4607,-16.10541 1.4329,-1.7696 2.8648,-2.27745 6.4211,-2.27745 6.153,0 9.1269,2.18623 12.7576,9.37864 4.0499,8.02282 10.0771,24.75605 10.1935,28.29995 0.1395,4.24994 -4.4426,6.28569 -7.4281,3.30016 z m -9.9733,-31.89542 c 0.1824,-0.9625 -0.2638,-1.75277 -0.9917,-1.75616 -0.7278,-0.003 -2.6076,-0.676 -4.1774,-1.49469 -3.188,-1.66268 -4.6459,-1.23594 -4.6459,1.35987 0,2.79059 2.2269,4.25479 5.9874,3.9367 2.3874,-0.20195 3.6011,-0.85065 3.8276,-2.04572 z m 62.68498,29.69933 c -3.85,-0.72953 -10.975,-1.35408 -15.8333,-1.38788 -6.58948,-0.0458 -8.73298,-0.37898 -8.43808,-1.31145 1.1148,-3.52497 29.78528,-19.21774 49.82478,-27.27147 13.1571,-5.28773 14.1503,-5.95909 13.7472,-9.29207 -0.5765,-4.76539 -2.8979,-4.97626 -13.8751,-1.26039 -18.524,6.27052 -41.5518,18.66081 -52.42508,28.20774 -1.9252,1.69036 -3.5004,2.78593 -3.5004,2.43461 0,-0.35132 2.8552,-4.56044 6.345,-9.35359 3.4897,-4.79316 7.61088,-11.07674 9.15818,-13.96352 3.2087,-5.98652 11.8585,-14.64234 18.5215,-18.53429 8.296,-4.8459 15.7706,-6.0965 30.4753,-5.09893 7.15,0.48505 19.4196,0.84146 27.2657,0.79201 l 14.2656,-0.0899 -1.5067,2.0899 c -4.306,5.97268 -10.3791,17.19497 -14.1187,26.0899 -6.3749,15.16275 -14.7597,23.32918 -28.2612,27.52498 -7.4712,2.32178 -20.6954,2.49912 -31.6447,0.42435 z m -38.93348,-15.48776 c -0.2932,-0.80386 -1.1841,-3.34107 -1.9796,-5.63823 l -1.4464,-4.17666 3.079,-1.07334 c 1.6934,-0.59034 4.6652,-1.07334 6.604,-1.07334 h 3.5251 l -2.0999,2.25 c -1.155,1.2375 -3.2361,4.25771 -4.6246,6.71157 -1.686,2.97965 -2.7016,3.97611 -3.0576,3 z"
       id="path1" />
  </g>
</svg>
