<?xml version="1.0" encoding="UTF-8" standalone="no"?>
<!-- Created with Inkscape (http://www.inkscape.org/) -->

<svg
   version="1.1"
   id="svg1"
   width="236.05812"
   height="220.76122"
   viewBox="0 0 236.05812 220.76122"
   xmlns="http://www.w3.org/2000/svg"
   xmlns:svg="http://www.w3.org/2000/svg">
  <defs
     id="defs1" />
  <g
     id="g1"
     transform="translate(-761.93641,-1200.1274)">
    <path
       d="m 880.29646,1418.6799 c -1.86883,-1.2545 -4.27035,-3.8965 -5.3367,-5.871 -1.9383,-3.5891 -1.93821,-3.5916 0.35453,-9.469 3.91369,-10.0328 5.31781,-18.0629 4.12827,-23.6095 -1.28362,-5.9853 -3.08344,-9.5498 -6.37399,-12.6234 -2.44857,-2.2871 -2.7561,-2.3231 -10.84501,-1.2693 -23.27249,3.0319 -44.48611,2.3156 -57.43633,-1.9396 -11.47675,-3.7709 -18.8588,-12.6116 -26.42559,-31.6471 -5.77719,-14.5335 -9.31795,-21.4858 -13.18669,-25.892 l -3.23854,-3.6885 10.48109,0.6925 c 45.28472,2.9919 75.0076,14.1347 95.61664,35.8458 17.01871,17.9288 24.43891,39.6511 23.0759,67.5536 -0.3186,6.5221 -1.06046,11.9141 -1.75421,12.75 -1.73964,2.0962 -5.16568,1.7813 -9.05937,-0.8325 z m -11.90866,-62.206 c 2.41478,-2.9096 0.20474,-6.3775 -7.88865,-12.3784 -13.38338,-9.9232 -39.3402,-22.0442 -44.45685,-20.76 -2.88253,0.7234 -4.19813,3.721 -2.78886,6.3542 0.53111,0.9924 3.59354,2.6114 6.8054,3.5978 9.5905,2.9455 23.20385,9.9738 33.83974,17.4709 10.46791,7.3787 12.45755,8.1635 14.48922,5.7155 z m 39.76078,23.8199 c -2.6125,-0.2434 -4.75,-0.8261 -4.75,-1.295 0,-1.3271 9.92233,-9.9716 15.74802,-13.7201 2.88641,-1.8572 8.73641,-4.7338 13,-6.3925 4.26359,-1.6587 8.76448,-3.4358 10.00198,-3.9491 4.11624,-1.7075 2.21024,-6.9762 -2.52368,-6.9762 -7.41564,0 -28.41036,10.0732 -36.56483,17.5437 -4.70087,4.3065 -4.89494,2.2441 -0.59797,-6.3549 7.82143,-15.6521 26.31481,-23.8907 51.43648,-22.9146 11.3684,0.4417 29.5,4.0098 29.5,5.8052 0,0.3729 -1.40638,1.2605 -3.12529,1.9725 -6.68312,2.7682 -14.73766,9.8353 -19.85825,17.4237 -8.91326,13.2089 -18.84894,18.2463 -37.32791,18.9254 -5.6037,0.2059 -12.32605,0.1752 -14.93855,-0.068 z m -16.7418,-44.8705 c 0.005,-1.0793 0.44834,-5.8029 0.98627,-10.4969 2.92198,-25.4968 18.1193,-47.7034 50.00553,-73.0689 12.07498,-9.6056 12.614,-10.2536 11.16846,-13.4262 -2.32223,-5.0968 -7.92173,-3.0147 -21.82808,8.1163 -31.15893,24.9404 -46.38348,49.3288 -50.30197,80.5794 -0.56212,4.483 -1.19246,8.3213 -1.40076,8.5296 -0.2083,0.2083 -1.5427,-3.3505 -2.96533,-7.9085 -6.94766,-22.2595 -5.83357,-42.6805 3.41689,-62.6307 5.0535,-10.8988 10.89678,-18.9228 20.55373,-28.2246 17.11985,-16.4902 30.21646,-22.2998 62.93299,-27.917 15.20403,-2.6105 25.13799,-5.1903 32.92407,-8.5503 1.63933,-0.7074 1.49409,-0.2604 -0.80539,2.4787 -4.65669,5.5471 -10.04664,17.4044 -12.75366,28.0567 -0.62896,2.475 -1.43548,15.525 -1.79226,29 -0.61613,23.2703 -0.7714,24.751 -3.09357,29.5 -1.34468,2.75 -4.94468,7.4876 -8,10.528 -9.11716,9.0725 -22.48464,15.0326 -48.29292,21.5319 -17.87774,4.5021 -20.22368,5.5121 -26.0122,11.1986 -3.79346,3.7266 -4.74835,4.2711 -4.7418,2.7039 z"
       id="path1" />
  </g>
</svg>
