<?xml version="1.0" encoding="UTF-8" standalone="no"?>
<!-- Created with Inkscape (http://www.inkscape.org/) -->

<svg
   version="1.1"
   id="svg1"
   width="251.62793"
   height="211.4686"
   viewBox="0 0 251.62793 211.4686"
   xmlns="http://www.w3.org/2000/svg"
   xmlns:svg="http://www.w3.org/2000/svg">
  <defs
     id="defs1" />
  <g
     id="g1"
     transform="translate(-964.76147,-1185.3238)">
    <path
       d="m 1073.5765,1396.18 c -7.975,-0.4962 -17.875,-1.7626 -22,-2.8143 -4.125,-1.0516 -14.25,-3.0385 -22.5,-4.4154 -18.3761,-3.0669 -40.78299,-10.5878 -62.28699,-20.9066 -4.3644,-2.0943 -2.0153,-3.9694 10.287,-8.2112 18.3901,-6.3407 27.79129,-11.5176 35.69339,-19.6548 3.6813,-3.791 13.906,-16.4464 22.7215,-28.1233 34.0263,-45.0707 43.6386,-57.1735 46.9221,-59.0794 4.4642,-2.5912 12.8496,-2.5954 17.326,-0.01 1.8354,1.0606 6.037,5.514 9.337,9.8966 3.3,4.3825 16.4435,21.9743 29.2077,39.093 12.7643,17.1186 26.2643,34.2724 30,38.1195 8.0093,8.2479 17.3223,13.3886 35.7923,19.7569 12.3091,4.2441 14.6436,6.1101 10.287,8.2228 -7.5832,3.6772 -21.0075,9.3316 -25.287,10.6508 -2.75,0.8478 -8.825,2.94 -13.5,4.6494 -4.8435,1.771 -14.9527,4.1813 -23.5,5.6031 -8.25,1.3723 -18.375,3.3401 -22.5,4.3728 -4.125,1.0327 -12.45,2.1392 -18.5,2.4588 -6.05,0.3196 -13.7,0.7411 -17,0.9366 -3.3,0.1955 -12.525,-0.051 -20.5,-0.5468 z m 39.9614,-32.3362 c 4.742,-2.4522 7.0386,-6.211 7.0386,-11.52 0,-5.3793 -2.3012,-9.0701 -7.251,-11.6298 -9.1338,-4.7233 -20.5578,4.8362 -17.6976,14.8091 2.3092,8.0515 10.8119,12.0112 17.91,8.3407 z m -27.0674,-34.0843 c 3.7433,-3.1498 5.2979,-8.1569 3.9961,-12.8714 -1.4746,-5.3407 -6.0165,-8.5643 -12.0668,-8.5643 -4.3794,0 -5.4591,0.4358 -8.4233,3.4 -2.9949,2.9949 -3.4,4.0196 -3.4,8.6 0,4.5804 0.4051,5.6051 3.4,8.6 2.9642,2.9642 4.0439,3.4 8.4233,3.4 3.9328,0 5.6848,-0.5567 8.0707,-2.5643 z m 17.8835,-30.9924 c 4.5738,-3.2036 1.7734,-11.4433 -3.8892,-11.4433 -2.8275,0 -6.1383,3.4215 -6.1383,6.3436 0,5.5979 5.3973,8.3428 10.0275,5.0997 z m -32.5078,-61.9259 c -4.1713,-1.8134 -7.2622,-6.9282 -7.2622,-12.0174 0,-10.5785 11.4982,-17.0033 20.08,-11.22 4.6737,3.1496 6.0672,6.2357 5.6238,12.4545 -0.4188,5.8727 -2.3946,8.7726 -7.4292,10.9035 -4.0254,1.7038 -6.8879,1.6725 -11.0124,-0.1206 z m 25.807,-35.1063 c -2.5617,-2.1556 -3.0767,-3.3123 -3.0767,-6.9111 0,-3.5988 0.515,-4.7555 3.0767,-6.9111 1.7331,-1.4583 4.3199,-2.5889 5.9233,-2.5889 1.6034,0 4.1902,1.1306 5.9233,2.5889 4.2795,3.601 4.3444,9.2972 0.1536,13.488 -3.7265,3.7265 -7.8328,3.8409 -12.0002,0.3342 z"
       id="path1" />
  </g>
</svg>
