<?xml version="1.0" encoding="UTF-8" standalone="no"?>
<!-- Created with Inkscape (http://www.inkscape.org/) -->

<svg
   version="1.1"
   id="svg1"
   width="245.56725"
   height="155.03708"
   viewBox="0 0 245.56725 155.03708"
   xmlns="http://www.w3.org/2000/svg"
   xmlns:svg="http://www.w3.org/2000/svg">
  <defs
     id="defs1" />
  <g
     id="g1"
     transform="translate(-579.50534,-770.05937)">
    <path
       d="m 672.50534,921.90247 c -13.70926,-3.91877 -44.40779,-12.46457 -70,-19.48646 -20.52434,-5.63139 -23,-6.50901 -23,-8.15348 0,-0.86392 22.20558,-39.39237 23.44475,-40.67851 0.14217,-0.14755 13.71276,3.3873 30.15687,7.85524 16.44411,4.46793 33.49838,9.10103 37.89838,10.29577 l 8,2.17226 4.78095,23.47251 c 2.62952,12.90988 4.53345,24.48501 4.23095,25.72251 -0.69951,2.8616 -1.52759,2.79755 -15.5119,-1.19984 z m 28.62033,-0.35545 c -0.66926,-1.08289 -8.62256,-43.41973 -8.6133,-45.85013 0.005,-1.25775 3.58384,-4.11046 11.25,-8.96691 6.18363,-3.91729 25.86797,-16.47233 43.74297,-27.90009 49.24159,-31.48092 58.72323,-37.47758 59.25773,-37.47758 0.97894,0 18.86423,39.99364 18.29627,40.91263 -0.32127,0.51983 -5.18985,3.84197 -10.81907,7.38254 -5.62921,3.54057 -23.50993,15.11534 -39.73493,25.72171 -25.08114,16.39569 -67.7869,43.9866 -71.6809,46.31088 -0.6495,0.38767 -1.41394,0.3278 -1.69877,-0.13305 z m -55.12033,-67.85477 c -19.25,-5.23647 -35.60673,-10.10295 -36.34829,-10.8144 -1.11624,-1.07092 0.17456,-2.19116 7.5,-6.50897 4.86656,-2.86848 32.38149,-18.96159 61.14428,-35.76247 l 52.29599,-30.54704 9.20401,2.24116 c 5.06221,1.23264 20.00401,5.13298 33.20401,8.66743 23.00128,6.15885 27.05118,7.83645 25.90705,10.73155 -0.25057,0.63404 -15.40716,10.67205 -33.68132,22.30669 -18.27415,11.63464 -43.12573,27.49188 -55.22573,35.23831 -17.86948,11.44006 -22.65713,14.07355 -25.5,14.02651 -1.925,-0.0319 -19.25,-4.3423 -38.5,-9.57877 z m 61.44272,-36.68789 c 11.65709,-18.61638 21.05128,-33.96619 20.87599,-34.1107 -0.17529,-0.14451 -6.832,3.66836 -14.79269,8.47305 l -14.47399,8.73579 -14.75073,23.37491 c -8.11291,12.85619 -14.76212,23.60918 -14.77602,23.89553 -0.0401,0.8267 15.406,4.73674 16.09873,4.07525 0.34321,-0.32774 10.16163,-15.82746 21.81871,-34.44383 z m -47.20442,15.09795 c 9.66679,-15.62576 9.13181,-14.53592 6.22302,-12.67723 -1.35372,0.86502 -8.67835,5.29799 -16.27693,9.85105 -7.59859,4.55305 -13.61206,8.48184 -13.36326,8.73064 0.40783,0.40783 14.27467,5.00705 15.81814,5.2464 0.3516,0.0545 3.77116,-4.96336 7.59903,-11.15086 z"
       id="path1" />
  </g>
</svg>
