<?xml version="1.0" encoding="UTF-8" standalone="no"?>
<!-- Created with Inkscape (http://www.inkscape.org/) -->

<svg
   version="1.1"
   id="svg1"
   width="231.9917"
   height="229.50386"
   viewBox="0 0 231.9917 229.50386"
   xmlns="http://www.w3.org/2000/svg"
   xmlns:svg="http://www.w3.org/2000/svg">
  <defs
     id="defs1" />
  <g
     id="g1"
     transform="translate(-503.65755,-717.61215)">
    <path
       d="m 669.35587,945.19478 c -13.475,-0.98832 -25.21837,-1.83361 -26.09638,-1.87842 -1.08116,-0.0552 -2.77556,-3.26045 -5.25,-9.93132 -2.00949,-5.41742 -3.65362,-10.42308 -3.65362,-11.12369 0,-0.70062 4.6125,-6.8222 10.25,-13.60352 6.87788,-8.27337 11.23696,-12.65822 13.25,-13.32833 1.65,-0.54927 12.5055,-3.07942 24.12334,-5.62257 l 21.12334,-4.6239 12.83593,6.82593 12.83594,6.82592 3.33211,11.5 c 1.83266,6.325 3.42599,12.175 3.54073,13 0.13062,0.93922 -6.14688,5.70487 -16.79139,12.74742 -14.92147,9.87223 -17.48907,11.23286 -21,11.12841 -2.2,-0.0654 -15.025,-0.92762 -28.5,-1.91593 z m 20.39803,-8.7099 c -0.38093,-2.0625 -1.20686,-5.55 -1.83539,-7.75 l -1.14279,-4 -8.45993,-0.65075 c -13.16712,-1.01284 -27.95992,-0.95912 -27.95992,0.10153 0,0.52293 0.47964,3.18727 1.06587,5.92076 l 1.06587,4.96998 6.68413,1.11203 c 8.35857,1.3906 25.92172,3.77153 28.97944,3.92857 2.12087,0.10892 2.24268,-0.16712 1.60272,-3.63212 z m -80.39803,7.82001 c -1.925,-0.385 -8.45,-3.29578 -14.5,-6.46841 -9.16319,-4.80518 -11.99014,-6.88161 -16.92961,-12.435 -3.26129,-3.66663 -9.14521,-10.09269 -13.07539,-14.28014 l -7.14578,-7.61353 -15.35676,-0.74054 -15.35675,-0.74053 -11.37878,-9.47291 c -6.25833,-5.2101 -11.61805,-10.09645 -11.9105,-10.85856 -0.29245,-0.76211 0.87977,-8.26497 2.60493,-16.67302 7.40872,-36.10846 10.22618,-49.51505 11.14557,-53.03496 l 0.97886,-3.74758 3.71211,1.58454 c 2.04165,0.87151 15.67235,5.98824 30.29042,11.37053 14.61808,5.38229 27.53246,10.29661 28.69862,10.92072 1.66261,0.8898 3.98498,6.90745 10.75851,27.87707 20.31609,62.89492 26.76975,82.81593 27.21035,83.99231 0.5182,1.38357 -3.73043,1.52307 -9.7458,0.32001 z m -14.56195,-32.10606 c -6.17972,-19.43608 -12.35201,-40.81959 -16.0095,-55.46395 -4.32054,-17.29917 -4.24561,-17.08294 -5.48843,-15.84012 -0.54688,0.54688 -4.0638,9.05963 -7.81539,18.91722 l -6.82107,17.9229 -17.99661,-0.35595 c -15.41333,-0.30485 -18.46601,-0.11321 -21.26673,1.3351 -1.8749,0.96955 -2.89586,2.06531 -2.39292,2.56825 0.48246,0.48246 5.64852,2.87621 11.48014,5.31944 9.00648,3.77338 12.3171,4.62021 21.9877,5.62426 13.09112,1.3592 12.15659,0.76522 24.88476,15.81632 8.65042,10.22914 22.28045,20.66682 22.79151,17.45341 0.16034,-1.00811 -1.34872,-6.9917 -3.35346,-13.29688 z m -67.75844,14.41732 -11.8204,-11.69809 13.72851,0.65841 c 7.55068,0.36213 15.85786,0.65841 18.4604,0.65841 4.71333,0 4.76818,0.0394 13.97907,10.02949 5.08594,5.51621 9.07294,10.18887 8.85999,10.38367 -0.21295,0.1948 -7.36218,0.64939 -15.88718,1.01019 l -15.5,0.65601 z m 93.29564,-17.94637 c -0.53639,-1.4108 -0.97525,-3.39842 -0.97525,-4.41691 0,-1.0185 3.41512,-10.77671 7.58916,-21.6849 7.01034,-18.32043 11.2606,-26.90162 26.07093,-52.63667 1.83695,-3.19196 3.33991,-5.98708 3.33991,-6.21136 0,-0.22428 -6.94334,-3.75265 -15.42965,-7.84083 -15.03233,-7.24164 -15.49467,-7.55807 -17.95492,-12.28864 -1.3889,-2.67057 -4.52927,-7.98459 -6.97859,-11.80891 l -4.45331,-6.95333 -0.59907,4.45333 c -2.02356,15.04273 -3.94952,37.82947 -4.47566,52.95332 l -0.6088,17.5 -6.31395,-21 -6.31395,-21 3.96021,-19.86055 c 2.17812,-10.9233 4.5694,-20.4629 5.31395,-21.19912 1.54355,-1.52625 104.14838,-59.47903 104.5666,-59.06081 1.20896,1.20896 21.38814,112.6471 20.62611,113.90629 -0.40414,0.66781 -7.18492,9.39647 -15.0684,19.39704 -11.22033,14.23352 -15.03266,18.39591 -17.55208,19.16378 -1.77017,0.53952 -11.92549,3.13669 -22.56739,5.77149 -22.9643,5.68569 -24.31998,6.4991 -40.21994,24.13188 -5.57944,6.1875 -10.33259,11.25 -10.56255,11.25 -0.22996,0 -0.85697,-1.15429 -1.39336,-2.5651 z m 65.78334,-85.26427 c 6.19223,-0.46996 11.56896,-1.16485 11.94831,-1.54419 0.85835,-0.85835 5.19559,-61.51567 5.37184,-75.12644 0.21433,-16.5521 -0.23289,-16.55959 -10.17421,-0.17042 -4.72751,7.79373 -12.01751,19.79542 -16.20001,26.67042 -6.64092,10.91606 -8.29045,14.65415 -13.01764,29.5 -2.97721,9.35 -5.7352,17.75453 -6.12887,18.67674 -1.25992,2.95147 3.57952,4.59364 10.76978,3.65452 3.39472,-0.44338 11.23858,-1.19066 17.4308,-1.66063 z"
       id="path1" />
  </g>
</svg>
