<?xml version="1.0" encoding="UTF-8" standalone="no"?>
<!-- Created with Inkscape (http://www.inkscape.org/) -->

<svg
   version="1.1"
   id="svg1"
   width="174.58043"
   height="240.91927"
   viewBox="0 0 174.58043 240.91927"
   xmlns="http://www.w3.org/2000/svg"
   xmlns:svg="http://www.w3.org/2000/svg">
  <defs
     id="defs1" />
  <g
     id="g1"
     transform="translate(-1007.8667,-632.60498)">
    <path
       d="m 1033.4015,859.27413 c -13.0429,-7.79303 -24.2312,-14.69244 -24.8629,-15.33202 -0.6318,-0.63957 -0.8588,-1.63181 -0.5046,-2.20497 0.6488,-1.04976 19.2357,-12.44439 25.3967,-15.56933 l 3.315,-1.68141 19.0028,10.05929 c 10.4516,5.53261 19.269,10.05929 19.5942,10.05929 0.3252,0 3.0382,-1.84743 6.0288,-4.1054 l 5.4376,-4.1054 3.3185,1.78714 c 4.369,2.35285 8.0802,5.18315 7.4732,5.69921 -8.6083,7.3176 -38.1541,29.70163 -39.128,29.6436 -0.7464,-0.0445 -12.0285,-6.45697 -25.0713,-14.25 z m 76.7416,-21.18815 c -6.585,-4.11455 -12.3225,-7.481 -12.75,-7.481 -2.3861,0 0.5438,-2.8478 12.256,-11.91262 7.1684,-5.54806 13.4985,-10.08738 14.0669,-10.08738 1.4432,0 23.8997,12.18442 23.8997,12.96751 0,1.00864 -23.5814,24.03467 -24.5927,24.01349 -0.499,-0.0105 -6.295,-3.38546 -12.8799,-7.5 z m -54.3497,-14.83203 c -9.5272,-5.15073 -18.0204,-10.06309 -18.8737,-10.91635 -1.8969,-1.89696 -1.641,-2.06752 24.792,-16.52506 l 18.596,-10.17108 12.904,4.37339 c 16.1386,5.46966 24.4146,8.68895 24.3679,9.47891 -0.058,0.98528 -41.0742,32.33168 -42.8487,32.74706 -0.8884,0.20795 -9.4102,-3.83615 -18.9375,-8.98687 z m 98.7546,-10.68231 c -5.2471,-2.6341 -10.12,-5.48794 -10.8287,-6.34185 -0.7087,-0.85391 -1.6493,-4.46195 -2.0903,-8.01787 -1.6892,-13.62005 -9.5035,-24.31967 -24.4181,-33.43368 -9.7865,-5.98035 -14.4021,-10.96432 -19.1453,-20.67326 -4.4718,-9.1532 -6.4403,-17.17708 -6.4915,-26.4601 l -0.042,-7.5399 -3.2083,3.65006 c -4.8374,5.50337 -9.5498,13.83497 -12.4517,22.01502 -2.258,6.36524 -2.608,8.98743 -2.6471,19.83492 -0.033,9.10303 0.3889,13.6519 1.5518,16.73872 l 1.5969,4.23872 -2.6292,-0.60701 c -7.135,-1.64733 -14.4083,-8.09757 -17.6049,-15.61278 l -1.3856,-3.25765 -1.686,3.99715 c -2.1582,5.11674 -1.5578,15.21604 1.2871,21.64722 l 2.0401,4.61214 -12.3279,6.37175 -12.3279,6.37174 -4.1149,-4 c -13.475,-13.09864 -19.1384,-34.68816 -14.211,-54.17354 2.618,-10.35277 7.6788,-21.31459 14.7396,-31.92634 6.0019,-9.02028 7.8985,-10.98622 6.949,-7.20318 -0.6905,2.75119 1.0975,11.59719 2.7455,13.58287 0.8757,1.05511 1.5505,-0.71956 2.9979,-7.88404 2.0877,-10.33401 7.03,-23.06766 12.7632,-32.88423 4.6343,-7.93506 12.6936,-19.01154 13.8329,-19.01154 0.4567,0 1.3267,2.15064 1.9335,4.7792 2.6465,11.46531 8.297,22.2208 11.674,22.2208 0.9399,0 0.803,-1.34136 -0.5437,-5.33056 -0.9898,-2.9318 -2.1074,-8.33479 -2.4836,-12.00664 l -0.684,-6.67608 4.924,-5.24336 c 2.7081,-2.88385 8.0173,-8.95586 11.7983,-13.49336 3.7809,-4.5375 7.2278,-8.25 7.6597,-8.25 1.4108,0 14.9692,16.05134 19.5831,23.18371 2.4776,3.83007 5.8091,9.84025 7.4032,13.35594 3.6331,8.01269 7.9093,22.61749 7.9093,27.0132 0,1.83101 0.4228,3.5904 0.9395,3.90975 1.4789,0.91403 5.9198,-4.51708 7.7373,-9.4626 2.9207,-7.94726 2.9217,-7.94672 12.7112,6.5 14.9671,22.08761 22.9946,46.25803 24.2448,73 0.6786,14.51499 -0.3139,21.96894 -3.9802,29.89418 -2.3899,5.1659 -10.7348,16.03963 -12.9667,16.8961 -0.6674,0.25612 -5.5066,-1.68951 -10.7536,-4.32362 z"
       id="path1" />
  </g>
</svg>
