<?xml version="1.0" encoding="UTF-8" standalone="no"?>
<!-- Created with Inkscape (http://www.inkscape.org/) -->

<svg
   version="1.1"
   id="svg1"
   width="250.31181"
   height="250.35095"
   viewBox="0 0 250.31181 250.35095"
   xmlns="http://www.w3.org/2000/svg"
   xmlns:svg="http://www.w3.org/2000/svg">
  <defs
     id="defs1" />
  <g
     id="g1"
     transform="translate(-721.621,-1201.1493)">
    <path
       d="m 881.121,1449.8463 c -2.6804,-1.339 -4.44135,-3.5527 -7.51994,-9.4535 -5.89505,-11.2993 -10.8177,-15.7124 -19.45281,-17.4395 -2.91481,-0.5829 -3.81375,0.043 -12.93976,9.0091 -12.36521,12.1486 -12.91882,12.2246 -29.10114,3.9955 -11.79448,-5.9978 -19.34326,-12.2156 -20.1866,-16.6272 -0.27726,-1.4504 0.32937,-5.0039 1.34807,-7.8966 1.0187,-2.8927 1.84796,-6.6267 1.8428,-8.2978 -0.0205,-6.629 -10.67193,-19.7866 -19.35241,-23.9058 -4.28932,-2.0354 -9.31583,-2.0831 -13.98397,-0.1326 -6.64545,2.7766 -10.19353,2.0508 -15.21095,-3.1117 -5.56363,-5.7246 -15.58181,-25.2917 -15.73612,-30.7352 -0.0969,-3.4191 0.6819,-4.5079 9.7006,-13.5605 9.45519,-9.4908 9.7799,-9.9637 9.07707,-13.2178 -1.89516,-8.7745 -6.43216,-13.8925 -16.98484,-19.16 -10.09645,-5.0398 -11,-6.3187 -11,-15.5698 0,-4.8532 0.7108,-9.8361 1.94645,-13.645 1.71496,-5.2864 3.3104,-7.3974 13.41472,-17.75 8.50443,-8.7134 12.10458,-11.75 13.93043,-11.75 1.3542,0 5.72298,1.8 9.7084,4 3.98542,2.2 7.52832,4 7.87311,4 1.28715,0 0.52006,-1.961 -3.37311,-8.6232 -2.2,-3.7648 -4,-7.9845 -4,-9.3772 0,-1.8949 2.83303,-5.3572 11.2553,-13.7556 13.4198,-13.3817 17.85232,-15.5973 31.38692,-15.6889 9.88852,-0.067 10.92926,0.6648 16.3956,11.527 3.54706,7.0483 9.41327,13.7686 12.24698,14.03 0.66836,0.062 6.1652,0.03 12.2152,-0.071 11.69288,-0.1941 13.49323,-0.925 13.50558,-5.4826 0.011,-4.0736 2.12102,-9.5563 4.08149,-10.6055 4.49193,-2.404 25.28141,6.9951 34.54153,15.6165 3.60516,3.3565 4.3714,4.7035 4.3714,7.6849 0,1.9882 -0.48773,4.8818 -1.08385,6.4301 -1.00401,2.6077 -0.80234,3.0361 2.73749,5.8151 6.83396,5.3651 17.47411,15.8692 21.9799,21.6989 l 4.4047,5.6989 4.15941,-1.4675 c 8.55448,-3.0182 14.48382,2.149 23.78451,20.7275 7.60166,15.1845 6.84208,19.6333 -3.63993,21.3184 -6.83522,1.0989 -7.10201,1.6213 -7.5623,14.8091 l -0.41134,11.7853 3.43573,4.0139 c 2.09528,2.4479 6.41256,5.5119 11.06571,7.8536 9.30188,4.6811 11.2212,6.6917 11.86831,12.4328 0.53224,4.7221 -1.92721,17.4995 -4.14223,21.5199 -0.72446,1.315 -6.44246,7.5335 -12.70666,13.8189 -13.11603,13.1605 -12.48888,12.9939 -23.7475,6.3053 -3.71706,-2.2082 -7.05847,-4.015 -7.42537,-4.015 -1.02899,0 0.72423,3.9091 4.68289,10.4412 1.98029,3.2676 3.60053,7.0432 3.60053,8.39 0,1.7522 -2.77395,5.2739 -9.75,12.3782 -11.46756,11.6783 -14.08541,13.451 -23.52455,15.9291 -8.83595,2.3198 -13.24699,2.3472 -17.72545,0.1099 z m 15.06965,-8.3888 c 5.83044,-1.5979 8.60412,-2.9595 10.94214,-5.3718 l 3.1319,-3.2313 -4.79035,-0.096 c -6.48596,-0.1302 -9.11663,-2.3009 -13.59087,-11.2145 -4.65506,-9.2738 -9.80841,-14.2881 -16.82623,-16.3722 -10.65903,-3.1654 -18.75587,-1.3985 -20.82782,4.5451 -1.84097,5.281 -1.46007,6.88 1.64158,6.891 3.75521,0.013 12.13718,4.0837 15.58542,7.5684 1.55948,1.5759 4.65266,6.0281 6.87373,9.8936 4.21478,7.3353 6.19673,9.5282 8.61169,9.5282 0.79121,0 4.95318,-0.9632 9.24881,-2.1404 z m -62.70262,-13.7252 5.80442,-5.8657 -6.33572,-3.0234 c -9.89518,-4.722 -19.10018,-11.409 -21.30939,-15.4803 -1.78262,-3.285 -1.84549,-4.0547 -0.64953,-7.951 1.7274,-5.6278 2.48011,-12.2558 1.73085,-15.2411 -0.87057,-3.4686 -7.8201,-11.8799 -13.22513,-16.007 -7.40886,-5.6571 -10.86816,-6.2873 -19.31306,-3.5188 -6.78434,2.2242 -7.22145,2.2508 -10.58686,0.646 -4.05032,-1.9315 -8.10058,-7.2736 -14.54787,-19.188 l -4.56525,-8.4365 -5.68475,5.7447 c -3.12661,3.1596 -5.68474,6.6443 -5.68474,7.7439 0,2.5421 6.37708,15.9224 9.61757,20.1794 3.74598,4.921 5.08404,5.2955 12.92124,3.6158 12.77438,-2.7377 19.36584,-0.3436 30.23019,10.98 9.96065,10.3818 11.47802,15.3584 9.03196,29.6227 -1.17021,6.8242 -1.14017,7.0553 1.25,9.6159 3.31788,3.5544 20.03828,12.1701 23.98034,12.3566 0.84222,0.04 4.1433,-2.5671 7.33573,-5.7932 z m 113.15808,-31.7944 c 2.96735,-3.113 5.15627,-6.0465 4.86426,-6.519 -1.09267,-1.768 -10.43799,-5.821 -13.42187,-5.821 -3.8212,0 -6.51004,1.3337 -10.7175,5.3162 -3.81557,3.6115 -4.08889,5.2828 -1.02306,6.2558 1.22482,0.3888 4.26232,1.9855 6.75,3.5484 2.48768,1.5629 5.3398,2.8501 6.33803,2.8606 0.99823,0.01 4.24279,-2.528 7.21014,-5.641 z m -56.59689,-2.3264 c 11.50061,-2.181 23.53273,-8.7827 32.18268,-17.6577 l 4.3891,-4.5033 -7.5,4.0015 c -11.39398,6.0792 -18.03322,7.4476 -33.5,6.9047 -11.26372,-0.3954 -14.26882,-0.8847 -22.5,-3.6635 -32.05909,-10.823 -58.35189,-37.0364 -68.94055,-68.7323 -7.24353,-21.6826 -5.36785,-44.3742 4.9698,-60.1234 2.91186,-4.4361 2.66922,-4.2809 -3.78922,2.4229 -12.10705,12.567 -17.19752,25.4103 -17.22525,43.4593 -0.0371,24.1465 11.47479,48.9594 31.95587,68.8782 15.05818,14.6448 32.79373,24.5969 50.52935,28.354 8.22942,1.7434 22.07695,2.0538 29.42822,0.6596 z m 10.61168,-21.5453 c 14.14127,-3.6341 24.69348,-12.0589 30.88031,-24.6547 4.54473,-9.2527 5.96084,-16.8982 5.24426,-28.3136 -2.63887,-42.0377 -41.88745,-81.0751 -83.66447,-83.2142 -17.144,-0.8779 -29.65694,3.4365 -40.0831,13.8202 -9.46642,9.4279 -13.89522,21.0319 -13.89025,36.394 0.005,14.4917 3.76178,27.1776 12.41369,41.9152 4.8775,8.3083 18.63712,23.1119 27.08559,29.1406 8.20441,5.8545 22.02965,12.3774 30.80729,14.5352 9.01787,2.2168 23.37332,2.3904 31.20668,0.3773 z m -22.29006,-8.7183 c -0.54728,-0.6875 -1.93653,-3.4089 -3.08723,-6.0475 -3.66633,-8.4071 -8.17043,-12.7623 -15.19414,-14.6918 -4.81422,-1.3225 -10.52677,0.3823 -13.99117,4.1753 -3.78812,4.1475 -5.65187,3.3369 -15.70585,-6.8309 -8.2886,-8.3825 -10.26257,-12.3771 -6.77717,-13.7145 2.49801,-0.9586 5.49802,-6.9143 5.50198,-10.9227 0.002,-2.0802 -0.61739,-5.2687 -1.37654,-7.0856 -1.88246,-4.5054 -8.06831,-10.3056 -12.48113,-11.703 -7.46131,-2.3627 -8.14113,-3.2593 -8.11473,-10.7024 0.0262,-7.3888 1.23225,-13.883 2.88519,-15.536 0.7527,-0.7526 2.632,-0.5704 6.41563,0.6223 12.79216,4.0324 19.94667,0.4092 19.87242,-10.0638 -0.0185,-2.6122 -0.75584,-6.7479 -1.63849,-9.1906 -2.12197,-5.8724 -1.15777,-6.7552 8.99459,-8.2349 11.65769,-1.6991 12.7662,-1.2012 16.94865,7.6125 2.54391,5.3607 4.64041,8.2306 7.60566,10.4113 7.46107,5.4869 16.48049,5.049 21.23892,-1.0311 1.8014,-2.3018 2.88462,-2.878 4.46622,-2.3761 2.4161,0.7669 15.93459,13.7164 18.65627,17.8711 l 1.84186,2.8117 -3.16048,2.8866 c -3.54486,3.2377 -5.1503,6.6938 -5.1503,11.0873 0,7.4385 6.53911,15.4812 15.1917,18.685 6.74837,2.4988 8.04955,4.7806 7.25225,12.7178 -0.92969,9.2551 -2.26214,13.5016 -4.23249,13.4892 -0.9413,-0.01 -3.92048,-0.681 -6.62039,-1.5 -6.36454,-1.9308 -10.11721,-1.8822 -13.60157,0.1761 -5.18577,3.0633 -6.47524,10.618 -3.36856,19.7356 0.96861,2.8427 1.2563,5.1219 0.71486,5.6633 -2.55291,2.5529 -21.30562,3.9223 -23.08596,1.6858 z m 10.23275,-31.1869 c 2.50921,-1.4705 5.78962,-4.5284 7.2898,-6.7953 2.46687,-3.7277 2.72761,-4.989 2.72761,-13.1948 0,-7.7751 -0.38752,-9.9 -2.70897,-14.8542 -3.49738,-7.4638 -12.29039,-16.6403 -19.75942,-20.6213 -12.39238,-6.605 -24.16827,-6.2503 -32.37707,0.9754 -6.06108,5.3352 -8.07877,10.7539 -7.42202,19.9327 1.82406,25.4937 32.78016,45.9676 52.25007,34.5575 z m -24.98987,-11.8581 c -5.47418,-2.6108 -10.9658,-8.1997 -13.11782,-13.3502 -0.75619,-1.8098 -1.3749,-5.825 -1.3749,-8.9227 0,-5.0456 0.34586,-5.978 3.32113,-8.9532 5.67026,-5.6703 13.54093,-5.8548 21.9612,-0.5148 8.7074,5.5221 13.88101,16.2388 11.68282,24.2 -2.45538,8.8926 -12.54163,12.2772 -22.47243,7.5409 z m -101.03838,-2.1215 c 5.39959,-2.2561 6.93579,-5.5027 6.22175,-13.1493 -1.1492,-12.3065 -5.57781,-18.3626 -17.87896,-24.4495 -8.31694,-4.1154 -10.82245,-7.0297 -11.5435,-13.4269 l -0.52645,-4.6706 -2.8886,2.7674 c -3.25952,3.1229 -6.83858,13.3028 -6.83858,19.451 0,3.6619 0.3066,4.0596 5.12244,6.6447 12.40396,6.6584 18.95307,13.7596 20.95982,22.7266 1.3432,6.0021 1.9828,6.3584 7.37208,4.1066 z m 21.65389,-73.5766 c 4.71264,-4.954 5.75063,-9.4988 3.49442,-15.3 -0.89986,-2.3138 -2.5122,-5.3319 -3.58297,-6.7069 l -1.94687,-2.5 -6.24876,6.2224 -6.24876,6.2223 2.27476,3.7777 c 1.25112,2.0777 3.16773,5.6901 4.25915,8.0276 1.09141,2.3375 2.48301,4.25 3.09243,4.25 0.60942,0 2.81739,-1.7969 4.9066,-3.9931 z"
       id="path1" />
  </g>
</svg>
