<?xml version="1.0" encoding="UTF-8" standalone="no"?>
<!-- Created with Inkscape (http://www.inkscape.org/) -->

<svg
   version="1.1"
   id="svg1"
   width="238.98175"
   height="239.67224"
   viewBox="0 0 238.98175 239.67224"
   xmlns="http://www.w3.org/2000/svg"
   xmlns:svg="http://www.w3.org/2000/svg">
  <defs
     id="defs1" />
  <g
     id="g1"
     transform="translate(-705.83718,-608.89896)">
    <path
       d="m 881.74053,845.97479 c -2.9196,-2.72094 -2.9681,-2.94548 -4.5879,-21.25 -2.0275,-22.91251 -2.7402,-25.86341 -7.5718,-31.35235 -5.4131,-6.14969 -11.1282,-8.36497 -31.4741,-12.19993 -1.1292,-0.21284 -11.1732,-9.62565 -22.32,-20.91735 -11.1468,-11.2917 -20.5853,-20.53037 -20.9744,-20.53037 -1.819,0 -5.1525,3.32519 -5.1525,5.13971 0,1.27999 6.3227,8.44113 17.1669,19.44329 9.4418,9.57935 16.6188,17.417 15.949,17.417 -2.6831,0 -4.39,7.15156 -3.7826,15.84776 l 0.5831,8.34776 -4.7093,-4.34776 c -94.039,-86.81825 -99.9288,-92.50429 -103.6342,-100.04818 -4.4232,-9.0053 -5.9798,-17.02054 -5.2047,-26.79958 3.295,-41.56962 48.0609,-74.95823 85.2352,-63.57263 11.8418,3.62685 10.1899,1.95731 106.8966,108.03684 6.6,7.23967 18.6589,20.43806 26.7975,29.32975 8.8401,9.65801 15.5855,17.94802 16.7547,20.59124 1.1021,2.49131 2.2084,7.85233 2.5321,12.26967 l 0.5748,7.84513 -7.3295,-7.50263 c -4.0313,-4.12645 -15.3656,-16.27645 -25.1874,-27 -9.8217,-10.72356 -19.2067,-20.08053 -20.8554,-20.79327 -2.5466,-1.10089 -3.3581,-1.0598 -5.3923,0.27305 -1.4738,0.96566 -2.3945,2.53453 -2.3945,4.08007 0,2.50986 4.4516,7.49982 44.6612,50.062 7.3363,7.76558 13.3388,14.86202 13.3388,15.76987 0,3.23367 -4.9783,13.82657 -9.4298,20.06476 -8.086,11.33146 -21.6204,19.96777 -36.0989,23.03471 -9.5965,2.0328 -11.0109,1.91106 -14.3906,-1.23856 z m -24.0807,-81.25 c 1.1,-1.1 2,-2.84008 2,-3.86684 0,-1.08091 -12.7352,-15.24652 -30.25,-33.64775 -16.6375,-17.47951 -30.25,-32.27693 -30.25,-32.88316 0,-0.60624 2.1203,-4.30447 4.7118,-8.21829 11.4666,-17.31762 13.3048,-32.66472 5.7574,-48.06878 -10.0782,-20.56927 -36.6596,-26.09621 -60.868,-12.65597 -8.6641,4.81023 -21.6824,17.83583 -26.326,26.34079 -5.7321,10.49866 -7.2364,16.21098 -7.2417,27.5 0,8.89489 0.3119,10.68896 2.8604,16.23431 1.8607,4.04869 4.6603,7.88328 7.9856,10.93788 2.8163,2.58695 15.6098,14.7718 28.4301,27.07742 17.9455,17.22512 23.8137,22.30213 25.5,22.06213 1.3155,-0.18722 2.308,-1.13397 2.4849,-2.37027 0.2184,-1.52728 -4.2242,-6.49511 -17.2148,-19.25 l -17.5093,-17.19147 h 5.9167 c 7.8721,0 20.9278,-4.44214 29.1055,-9.90299 3.4993,-2.33678 6.6618,-4.32707 7.0277,-4.42285 0.3658,-0.0958 12.438,12.20084 26.827,27.32584 38.5753,40.54851 36.9175,39.13516 41.0527,35 z m -112.5,-61.16677 c -13.2485,-4.98959 -20.105,-17.75618 -17.5266,-32.63416 2.0731,-11.96238 10.2202,-25.19907 15.5099,-25.19907 4.1492,0 3.995,3.22272 -0.5505,11.5049 -10.7225,19.53692 -3.0598,37.5079 15.4848,36.31573 3.5572,-0.22869 8.018,-1.32993 10.7447,-2.6526 10.4016,-5.04553 20.6241,-17.38601 22.9272,-27.67755 3.914,-17.48945 -12.7952,-29.36095 -30.7605,-21.85459 -2.5416,1.06196 -3.8807,1.13921 -5.4246,0.31295 -1.835,-0.98205 -1.9029,-1.31852 -0.6477,-3.20899 0.7713,-1.16156 4.0665,-3.47687 7.3228,-5.14514 4.6008,-2.3571 7.5678,-3.12174 13.3104,-3.43033 9.7571,-0.52431 13.9655,0.87517 19.4937,6.48255 6.2359,6.3253 7.9914,11.314 7.4249,21.09987 -0.6551,11.31719 -4.7598,19.20749 -15.7936,30.35923 -11.029,11.14705 -20.251,16.02212 -31.2605,16.52541 -3.9899,0.18239 -8.6044,-0.1768 -10.2544,-0.79821 z m 7.0368,-25.97187 c -1.9952,-2.37117 -2.5671,-4.02171 -2.3389,-6.75 0.2733,-3.26749 0.5572,-3.58162 2.9813,-3.29907 6.0338,0.7033 11.4815,-4.8571 10.6056,-10.825 -0.3781,-2.57652 -0.039,-3.36997 1.7981,-4.207 3.3701,-1.53553 9.0215,-0.0987 11.3738,2.89175 4.0385,5.1341 1.634,13.9681 -5.5089,20.23963 -4.4375,3.89623 -7.3482,5.08833 -12.424,5.08833 -3.0835,0 -4.3696,-0.62229 -6.487,-3.13864 z m 86.2878,164.96173 c -2.0215,-1.17204 -4.3846,-3.5242 -5.2512,-5.22703 -1.2633,-2.48215 -6.5734,-38.04105 -6.5734,-44.01853 0,-2.36799 2.951,-4.57753 6.1136,-4.57753 9.273,0 26.5383,5.63154 30.3232,9.89074 2.2915,2.57874 6.9504,29.71787 5.9413,34.60926 -1.8246,8.84381 -6.1309,11.51114 -18.5292,11.47703 -6.6751,-0.0184 -9.0858,-0.45019 -12.0243,-2.15394 z m 18.7023,-3.93419 c 5.1608,-1.29949 6.8924,-2.9926 5.9848,-5.85188 -1.0406,-3.27865 -5.693,-5.03702 -13.3272,-5.03702 -5.5263,0 -7.4548,0.42476 -9.6041,2.11539 -7.6872,6.0468 3.9168,12.05442 16.9465,8.77351 z"
       id="path1" />
  </g>
</svg>
