<?xml version="1.0" encoding="UTF-8" standalone="no"?>
<!-- Created with Inkscape (http://www.inkscape.org/) -->

<svg
   width="23.295706mm"
   height="23.29719mm"
   viewBox="0 0 23.295706 23.29719"
   version="1.1"
   id="svg1"
   xml:space="preserve"
   xmlns="http://www.w3.org/2000/svg"
   xmlns:svg="http://www.w3.org/2000/svg"><defs
     id="defs1" /><g
     id="layer1"
     transform="translate(-89.598155,-151.7694)"><path
       style="fill:#000000"
       d="m 109.84388,173.74499 c -1.07782,-1.09427 -1.46368,-1.3216 -2.24324,-1.3216 -0.83363,0 -1.21305,-0.27282 -3.31172,-2.38125 l -2.37022,-2.38125 h 1.09066 c 0.67408,0 1.14326,0.13707 1.22837,0.35888 0.11506,0.29985 2.28509,1.06729 2.47654,0.87584 0.19145,-0.19145 -0.57599,-2.36147 -0.87584,-2.47654 -0.22181,-0.0851 -0.35888,-0.55429 -0.35888,-1.22837 v -1.09065 l 2.38125,2.37021 c 2.09082,2.08114 2.38125,2.48282 2.38125,3.29346 0,0.75317 0.24424,1.17056 1.3259,2.26582 l 1.32591,1.34258 -0.87413,0.84724 -0.87412,0.84723 z m -9.27453,-7.85168 c -0.29951,-0.0594 -2.116018,-1.6827 -4.036675,-3.60732 l -3.492104,-3.4993 1.792868,-1.77913 1.792867,-1.77913 3.533814,3.5411 3.5338,3.54109 0.13462,1.88139 0.13461,1.88138 -1.42461,-0.036 c -0.78354,-0.0198 -1.66968,-0.0846 -1.96919,-0.14405 z m -9.711228,-8.51693 -1.259967,-0.43467 2.595891,-2.58616 2.595891,-2.58615 0.417213,1.30466 0.417213,1.30466 -1.753137,1.71617 -1.753138,1.71617 z"
       id="path1" /></g></svg>
