<?xml version="1.0" encoding="UTF-8" standalone="no"?>
<!-- Created with Inkscape (http://www.inkscape.org/) -->

<svg
   width="54.504162mm"
   height="48.681637mm"
   viewBox="0 0 54.504162 48.681637"
   version="1.1"
   id="svg1"
   xml:space="preserve"
   xmlns="http://www.w3.org/2000/svg"
   xmlns:svg="http://www.w3.org/2000/svg"><defs
     id="defs1" /><g
     id="layer1"
     transform="translate(-124.44027,-82.927402)"><path
       d="m 148.38443,124.20506 -2.90979,-7.40568 -10.51719,-0.003 -10.51718,-0.003 V 99.860742 82.927402 h 27.25208 27.25208 v 16.93334 16.933328 l -10.78177,10e-4 -10.78177,0.001 -2.91042,7.40587 c -1.60072,4.07323 -2.97022,7.40643 -3.04333,7.4071 -0.0731,6.8e-4 -1.44232,-3.33132 -3.04271,-7.40444 z M 137.69492,103.9486 c 0.38788,-0.20058 1.01394,-0.73157 1.39125,-1.17997 2.50435,-2.976258 0.37934,-7.466868 -3.5334,-7.466868 -1.45605,0 -2.58994,0.52984 -3.5334,1.65109 -3.18703,3.787568 1.26577,9.276138 5.67555,6.995748 z m 14.84911,0.39841 c 2.05777,-0.5715 3.44271,-2.37876 3.44271,-4.492518 0,-2.60793 -1.94746,-4.55273 -4.55897,-4.55273 -1.83526,0 -3.33729,0.9516 -4.2308,2.6804 -0.4571,0.8844 -0.40975,2.951958 0.0897,3.917828 0.5298,1.02453 1.85569,2.14821 2.7724,2.34959 0.38897,0.0855 0.82627,0.19508 0.9718,0.24362 0.43191,0.14408 0.48722,0.13873 1.51313,-0.14619 z m 16.91003,-0.41352 c 1.7231,-0.86536 2.78144,-3.10369 2.35388,-4.978318 -1.10061,-4.82557 -7.90807,-4.87564 -8.99279,-0.0661 -0.84725,3.756568 3.15225,6.795508 6.63891,5.044458 z"
       id="path1" /></g></svg>
