<?xml version="1.0" encoding="UTF-8" standalone="no"?>
<!-- Created with Inkscape (http://www.inkscape.org/) -->

<svg
   version="1.1"
   id="svg1"
   width="87.614548"
   height="73.65535"
   viewBox="0 0 87.614548 73.65535"
   xmlns="http://www.w3.org/2000/svg"
   xmlns:svg="http://www.w3.org/2000/svg">
  <defs
     id="defs1" />
  <g
     id="g1"
     transform="translate(-719.4535,-279.60134)">
    <path
       d="m 764.21883,351.89579 c -20.81091,-4.15286 -37.11705,-12.9436 -42.08971,-22.69082 -7.97928,-15.64069 2.76697,-40.03613 20.59708,-46.75815 8.09683,-3.05253 19.11761,-3.714 27.80639,-1.66895 29.89056,7.03524 44.54609,33.87245 32.08374,58.75176 -5.97048,11.91921 -19.23297,16.19048 -38.3975,12.36616 z m -7.52568,-16.46532 c 4.13957,-8.00505 -0.81332,-17.61452 -7.2918,-14.14734 -2.7539,1.47384 -6.18252,7.27778 -6.18252,10.46571 0,3.91801 3.26329,6.63197 7.97432,6.63197 3.38963,0 4.19877,-0.43404 5.5,-2.95034 z m 23.59142,-1.08484 c 2.45458,-1.31366 2.43941,-2.45967 -0.0657,-4.96482 -3.95009,-3.95009 -13.30605,-1.48355 -9.90716,2.61186 2.52948,3.04784 6.79434,4.05407 9.9729,2.35296 z m -1.39891,-11.53896 c 0.39134,-1.01982 -0.86531,-3.07132 -3.56855,-5.82572 l -4.1726,-4.25157 6.03716,-1.67848 c 4.6596,-1.29549 6.03716,-2.10947 6.03716,-3.5673 0,-1.03885 -0.5625,-2.10136 -1.25,-2.36114 -1.58191,-0.59773 -16.59728,3.70563 -18.07065,5.179 -0.80074,0.80074 0.65159,2.86841 5.33116,7.58995 6.59172,6.65084 8.59836,7.67226 9.65632,4.91526 z m -43.81641,-2.85976 c 0.71032,-3.74241 -6.23756,-6.2144 -8.79737,-3.13002 -0.89841,1.08252 -0.91245,1.95811 -0.057,3.55646 1.53168,2.86197 8.29207,2.53638 8.85441,-0.42644 z m 8.98594,-9.22116 c 3.485,-0.89731 6.56758,-2.234 6.85017,-2.97043 0.71355,-1.85949 -10.4655,-14.37451 -12.84004,-14.37451 -3.73378,0 -3.25893,3.00405 1.19169,7.5389 4.63512,4.72285 4.71911,4.52855 -2.78818,6.45027 -3.01725,0.77236 -4.25,1.60851 -4.25,2.88271 0,2.4953 1.1002,3.34208 3.47457,2.67424 1.11399,-0.31334 4.87679,-1.30386 8.36179,-2.20118 z"
       id="path1" />
  </g>
</svg>
