<?xml version="1.0" encoding="UTF-8" standalone="no"?>
<!-- Created with Inkscape (http://www.inkscape.org/) -->

<svg
   version="1.1"
   id="svg1"
   width="183.14252"
   height="146.58611"
   viewBox="0 0 183.14252 146.58611"
   xmlns="http://www.w3.org/2000/svg"
   xmlns:svg="http://www.w3.org/2000/svg">
  <defs
     id="defs1" />
  <g
     id="g1"
     transform="translate(-393.73929,-196.69208)">
    <path
       d="m 469.00534,342.94939 c -20.14534,-2.01195 -32.97582,-5.07161 -44.5,-10.61184 -23.89716,-11.48853 -34.4325,-35.12589 -29.63092,-66.48066 2.70148,-17.6409 8.96478,-30.66784 20.50546,-42.64903 26.92701,-27.95482 77.74564,-34.81453 116.60198,-15.73944 17.48874,8.58546 28.9307,19.90425 36.97769,36.57962 6.22062,12.89068 8.00685,21.23631 7.91921,37 -0.0617,11.10281 -0.44332,14.13013 -2.61472,20.74394 -7.14388,21.75938 -23.04711,33.60384 -52.7587,39.29382 -8.20764,1.57182 -43.04083,2.80829 -52.5,1.86359 z m 11.73846,-36.27474 c 5.08507,-2.46164 7.65951,-5.66325 8.40887,-10.45738 1.05069,-6.72207 -5.06898,-8.89392 -7.63116,-2.70827 -1.68565,4.06952 -3.82774,5.72886 -9.27705,7.18633 -3.73037,0.99772 -5.93781,1.01415 -10.40362,0.0774 -5.3098,-1.1137 -10.3355,-4.30855 -10.3355,-6.57026 0,-1.69031 -3.21476,-4.65443 -5.048,-4.65443 -3.17388,0 -3.90224,5.20759 -1.44743,10.34887 1.81935,3.81041 6.61363,7.23397 12.00818,8.57496 6.6004,1.64074 18.48324,0.74062 23.72571,-1.79722 z m -53.48846,-6.67479 c 2.84569,-3.242 2.84527,-5.64825 -0.002,-8.95789 -4.55893,-5.30007 -15.36297,-4.25296 -17.84082,1.72909 -1.5152,3.65801 0.11464,7.43495 4.12261,9.5536 3.79629,2.00676 10.98725,0.78826 13.71977,-2.3248 z m 96.25894,1.92793 c 6.7189,-2.68838 7.92636,-7.57352 2.91433,-11.79086 -2.5947,-2.1833 -4.05986,-2.58889 -9.35211,-2.58889 -14.37875,0 -18.56698,11.14749 -5.57116,14.82831 5.11871,1.44978 7.48545,1.36138 12.00894,-0.44856 z m -18.50894,-17.95943 c 1.76491,-3.45952 1.97917,-5.67808 1.82279,-18.87451 -0.23994,-20.24798 -2.46805,-27.25262 -8.39,-26.37617 -5.71397,0.84567 -8.45749,11.99158 -7.71182,31.33036 0.46078,11.95029 2.10874,16.94223 6.08139,18.42152 3.36726,1.25386 5.99877,-0.19107 8.19764,-4.5012 z m -67.45523,3.55572 c 3.64338,-1.94988 5.28669,-10.93356 4.6538,-25.44149 -0.65188,-14.94318 -1.81546,-19.90981 -5.18113,-22.11508 -3.17882,-2.08284 -6.145,-0.50337 -8.28369,4.41102 -2.10447,4.83577 -2.96712,29.19615 -1.27264,35.93825 1.87987,7.47976 5.1745,9.8346 10.08366,7.2073 z"
       id="path1" />
  </g>
</svg>
