<?xml version="1.0" encoding="UTF-8" standalone="no"?>
<!-- Created with Inkscape (http://www.inkscape.org/) -->

<svg
   version="1.1"
   id="svg1"
   width="244.98831"
   height="251.62042"
   viewBox="0 0 244.98831 251.62042"
   xmlns="http://www.w3.org/2000/svg"
   xmlns:svg="http://www.w3.org/2000/svg">
  <defs
     id="defs1" />
  <g
     id="g1"
     transform="translate(-456.01172,-479.51465)">
    <path
       d="m 510.52152,726.15447 c -9.69162,-6.36245 -20.50444,-17.90374 -24.6356,-26.29533 -1.75167,-3.55814 -3.18485,-6.75162 -3.18485,-7.09662 0,-0.34501 3.2625,-0.62631 7.25,-0.62512 l 7.25,0.002 2.8065,8.88076 c 2.95508,9.35087 9.0966,19.82955 15.45242,26.36491 2.00584,2.0625 3.42232,3.75 3.14773,3.75 -0.27458,0 -3.91337,-2.24134 -8.0862,-4.98076 z m 48.32798,-6.46208 c -5.42696,-7.55691 -13.21175,-15.50996 -17.83243,-18.21786 -3.4178,-2.00296 -5.29639,-2.47114 -8.29939,-2.06835 -5.32418,0.71412 -13.8464,4.7627 -18.35115,8.71792 l -3.74328,3.28665 -2.31348,-2.17341 c -3.89304,-3.65732 -6.16601,-14.10211 -3.06886,-14.10211 3.42325,0 9.48696,-4.15139 11.68445,-7.9995 2.18231,-3.82154 2.48387,-3.98541 7.34757,-3.9928 5.64846,-0.009 13.51915,-2.32465 17.62205,-5.18557 2.40643,-1.67798 3.40754,-1.76443 9.38151,-0.81008 10.45733,1.67056 22.61482,1.46261 27.68456,-0.47353 2.41893,-0.9238 6.10781,-1.53539 8.19752,-1.35908 l 3.79947,0.32056 -4.72992,3.38498 c -9.31242,6.66446 -17.55409,20.49875 -21.61256,36.27839 -1.17928,4.58515 -2.24173,8.44838 -2.36099,8.58497 -0.11927,0.13659 -1.65155,-1.74945 -3.40507,-4.19118 z m 1.85157,-12.07866 c 0,-3.43685 4.6074,-13.17507 8.94456,-18.90525 l 4.73876,-6.26077 -5.09166,1.95616 c -3.58044,1.37556 -9.24691,2.20319 -19.09166,2.78845 -7.7,0.45776 -16.025,1.45048 -18.5,2.20604 l -4.5,1.37375 3.64952,0.70802 c 2.00723,0.38941 4.15328,1.31503 4.769,2.05692 0.61572,0.74189 3.09593,1.90227 5.51159,2.57861 2.99527,0.83863 6.56709,3.22775 11.231,7.51221 6.63476,6.09498 8.33889,6.90953 8.33889,3.98586 z m 91.5,7.38673 c -5.615,-5.5076 -15.02301,-11.68512 -18.90488,-12.41336 -4.4883,-0.84201 -10.51022,0.9533 -16.32659,4.86742 l -4.87555,3.28101 -4.27837,-4.43405 -4.27837,-4.43405 -5.66812,0.60359 c -3.11747,0.33198 -10.28062,2.16246 -15.91812,4.06773 -5.6375,1.90528 -10.25,3.33607 -10.25,3.17953 0,-0.15653 0.46994,-1.63267 1.04431,-3.2803 0.92839,-2.66319 2.01058,-3.2991 9.75,-5.72922 4.78813,-1.50344 12.13406,-2.98278 16.32428,-3.28741 7.60522,-0.55292 7.62522,-0.54782 11.39387,2.90589 l 3.77527,3.45978 5.60614,-3.05781 c 4.60539,-2.51196 6.76644,-3.06103 12.10613,-3.07589 7.68847,-0.0214 11.8905,1.77978 18.9413,8.11906 l 4.8627,4.37193 3.0909,-5.47685 c 4.1449,-7.34428 6.6022,-8.77597 15.9964,-9.31979 l 7.7226,-0.44706 1.7761,-5.0007 c 1.0572,-2.97667 3.4743,-6.67311 5.9719,-9.13269 4.0913,-4.02908 4.1653,-4.21916 2.9734,-7.63199 -2.1857,-6.25801 -1.7792,-7.66495 2.4147,-8.35815 6.1297,-1.01318 6.288,-0.94211 4.6969,2.10815 -1.6584,3.17907 -1.8987,8.39817 -0.4533,9.84359 0.6581,0.65813 -0.4867,2.23094 -3.3906,4.65835 -5.0197,4.19588 -8.603,10.79744 -8.603,15.84913 v 3.46962 l -9.8175,-0.39432 c -9.1955,-0.36934 -9.983,-0.24486 -12.4289,1.96465 -1.4667,1.32497 -3.6804,5.40796 -5.0503,9.31492 -1.3414,3.82577 -2.8359,7.04074 -3.3211,7.14437 -0.4852,0.10363 -2.6822,-1.57715 -4.8822,-3.73508 z m -173.773,-1.03518 -5.77299,-2.01205 3.77299,-3.00355 c 6.35115,-5.05593 7.01702,-5.21013 8.6727,-2.00841 0.80763,1.56179 2.1731,3.42445 3.03436,4.13924 0.86127,0.71478 1.56594,1.62228 1.56594,2.01665 0,0.59945 -4.66448,3.2052 -5.29705,2.95912 -0.11162,-0.0434 -2.8008,-0.98437 -5.97595,-2.091 z m -18.98648,-18.46829 c -5.46019,-16.52083 -4.42083,-24.2863 3.25948,-24.35277 2.8328,-0.0245 6,-4.5589 6,-8.59003 0,-2.15545 0.43574,-2.41896 4,-2.41896 h 4 v -7.51905 c 0,-7.49589 0.008,-7.51715 2.4691,-6.89935 2.84998,0.7153 7.44689,-1.78579 11.96799,-6.51155 3.56568,-3.72709 4.2764,-3.79297 5.76128,-0.53403 1.06311,2.33328 0.7616,2.94133 -3.77144,7.60586 l -4.92693,5.06983 4.11647,-2.05806 c 6.00121,-3.00034 10.38498,-7.01172 10.37376,-9.49254 -0.0179,-3.95974 -4.6995,-12.10327 -9.80411,-17.054 -4.89046,-4.74304 -4.99703,-4.96607 -3.4796,-7.28196 1.37191,-2.0938 1.76486,-2.21463 3.17943,-0.9777 2.57661,2.25306 7.82731,4.65255 10.18097,4.65255 1.87521,0 2.0672,-0.36945 1.42903,-2.75 -0.40546,-1.5125 -0.79542,-5.675 -0.86657,-9.25 -0.0712,-3.575 -0.45627,-7.00236 -0.8558,-7.61635 -0.39953,-0.614 0.15318,-1.91238 1.22824,-2.88529 1.88076,-1.70207 2.08962,-1.66599 5.52535,0.95456 1.96388,1.49793 4.18311,2.4885 4.93162,2.20127 1.8843,-0.72307 4.6231,-10.69774 5.26395,-19.17115 0.44599,-5.89709 0.18673,-7.74016 -1.57437,-11.19222 l -2.10829,-4.13258 2.44794,-5.53523 c 2.97324,-6.72303 5.28889,-16.37291 6.14855,-25.62252 0.4632,-4.98383 1.08692,-7.07149 2.25203,-7.53776 12.55745,-5.02542 17.30029,-6.39735 16.69899,-4.83039 -0.35154,0.9161 -1.35044,5.7611 -2.21978,10.76665 -2.52323,14.52858 -0.57175,25.18407 5.08425,27.76112 1.75667,0.80039 2.52252,2.18468 3.01106,5.44255 0.63939,4.26371 0.52708,4.49617 -4.65396,9.63324 -5.08541,5.04225 -10.06312,13.56385 -13.32745,22.81595 l -1.42094,4.02738 3.71961,-0.60701 c 2.04579,-0.33386 4.95712,-0.83744 6.46962,-1.11907 2.66837,-0.49686 2.74653,-0.38355 2.63312,3.81739 -0.0643,2.38121 -0.40179,7.2004 -0.75,10.70932 l -0.63312,6.37986 -7.5,2.737 -7.5,2.73699 -1,8.16619 c -0.94036,7.67913 -1.20876,8.32312 -4.5,10.79712 -1.925,1.447 -5.3,4.33384 -7.5,6.4152 -2.84624,2.69274 -6.59596,4.69769 -13,6.95102 -10.61709,3.73574 -21.79882,9.19782 -26,12.70056 -3.04436,2.53824 -6.4814,7.06494 -6.49341,8.55205 -0.004,0.44872 7.60842,0.67372 16.91566,0.5 16.32331,-0.30467 17.01349,-0.40166 19.5,-2.74016 1.41776,-1.33338 2.57775,-3.02088 2.57775,-3.75 0,-1.04288 3.24847,-1.32569 15.22727,-1.32569 h 15.22728 l -2.6449,2.6449 c -2.3025,2.30249 -3.65888,2.70235 -10.47728,3.08867 l -7.83237,0.44376 -5,5.38436 -5,5.38436 -4.57935,-1.10245 c -3.04105,-0.73212 -9.51719,-0.85561 -19.27882,-0.36763 l -14.69948,0.73483 -1.63925,3.1446 c -0.90158,1.72953 -2.15975,4.89031 -2.79593,7.02396 l -1.15668,3.87936 z m 190.75948,2.49855 c -9.6388,-7.44244 -19.93656,-8.99902 -29.04102,-4.38975 l -4.87998,2.47056 -5.31508,-2.60043 c -4.66577,-2.28274 -6.19764,-2.53965 -12.5395,-2.10294 -3.97343,0.27362 -10.08944,1.47953 -13.59114,2.67982 -3.5017,1.20028 -6.60661,1.94244 -6.8998,1.64924 -0.99877,-0.99877 13.28587,-14.05709 18.3601,-16.7839 13.69167,-7.35768 30.79551,-7.67451 44.40642,-0.82257 2.475,1.24595 5.434,3.11931 6.5756,4.16303 2.0579,1.88136 2.0966,1.86535 4.5056,-1.86285 3.7566,-5.81391 10.3403,-9.64245 20.0157,-11.63951 15.1674,-3.13065 13.8943,-3.13516 13.9734,0.0495 0.039,1.55621 0.4293,3.72946 0.8682,4.82946 0.6182,1.54949 -0.066,2.94401 -3.0364,6.19089 -2.1089,2.305 -4.1234,5.3425 -4.4766,6.75 -0.5839,2.32637 -1.1099,2.56111 -5.7839,2.58107 -8.1331,0.0347 -13.5961,3.14966 -18.1416,10.34413 -0.8729,1.38157 -1.5084,1.19016 -5,-1.50578 z m -9.2502,-25.42799 c -11.61058,-5.73807 -22.1293,-6.79162 -34.7498,-3.48052 -5.32413,1.39683 -7.33631,1.56259 -8.40473,0.69236 -2.2863,-1.86221 -14.90053,-1.21077 -21.27749,1.09884 l -5.68221,2.05798 -6.81779,-2.58892 c -6.48026,-2.46074 -8.05544,-2.61672 -31.81778,-3.15064 l -25,-0.56173 7.28169,-7.24569 c 4.00493,-3.98513 9.05815,-8.15197 11.22939,-9.25965 6.03042,-3.07649 8.83657,-10.67347 5.94102,-16.08385 -0.94816,-1.77166 -0.24907,-2.32533 7.34533,-5.81735 l 8.39322,-3.85934 0.65467,-6.2636 c 0.92043,-8.80613 0.8154,-24.75285 -0.16702,-25.36001 -0.45194,-0.27932 -2.07426,0.14199 -3.60517,0.93624 -3.5152,1.82371 -3.35262,1.3353 3.31103,-9.94649 3.90198,-6.6062 5.15499,-9.85739 6.05644,-15.71471 1.6458,-10.69384 4.98237,-24.4152 6.36603,-26.17974 0.84747,-1.08075 1.82419,-1.27587 3.3697,-0.67316 l 2.17634,0.84871 -1.95983,6.30948 c -1.07791,3.47021 -2.23686,9.36882 -2.57545,13.10802 -0.60405,6.67095 -0.55434,6.86176 2.64818,10.16593 l 3.26379,3.36738 -2.58423,5.33407 c -1.42133,2.93374 -3.233,7.86282 -4.02595,10.9535 -1.62378,6.32909 -4.11124,24.72184 -3.43488,25.39821 0.2425,0.24249 1.91562,-0.79024 3.71804,-2.29497 3.10041,-2.58834 3.40277,-3.45469 5.60689,-16.06543 1.28136,-7.33125 2.47848,-13.45534 2.66026,-13.60908 0.18178,-0.15374 2.00744,-1.06122 4.05701,-2.01663 2.04958,-0.95541 5.34706,-3.53087 7.32774,-5.72325 1.98068,-2.19237 3.85636,-3.73101 4.16818,-3.41919 0.31182,0.31181 0.78663,2.85332 1.05515,5.64779 0.43455,4.52251 0.25893,5.14081 -1.59811,5.62644 -2.50156,0.65417 -4.66931,3.73749 -5.5969,7.96081 -0.37386,1.70213 -2.04804,4.39553 -3.72042,5.98533 -2.76458,2.62806 -5.86214,7.34269 -5.86214,8.92244 0,0.34717 1.55644,-0.33071 3.45876,-1.50641 1.90231,-1.1757 4.71481,-2.7647 6.25,-3.53112 1.94945,-0.97324 3.32854,-2.90854 4.57285,-6.41715 1.16828,-3.29422 2.97564,-5.93439 5.25,-7.66913 2.98736,-2.27856 3.46839,-3.22794 3.46839,-6.84528 0,-5.61051 -2.56435,-13.94739 -5.78885,-18.81993 -2.57886,-3.89692 -2.59066,-3.99226 -0.66818,-5.40063 1.07637,-0.78852 4.09814,-2.19501 6.71504,-3.12553 3.03719,-1.07996 4.9569,-2.41968 5.30794,-3.70428 0.94686,-3.46503 3.7103,-9.51346 4.33592,-9.4902 0.32897,0.0122 1.58777,0.79973 2.79732,1.75 2.0063,1.57621 2.11051,2.13653 1.18813,6.38816 -0.55609,2.56323 -0.87073,6.53693 -0.6992,8.83045 l 0.31188,4.17005 4.14696,-3.01208 c 2.28083,-1.65665 5.43083,-4.69685 7,-6.756 2.61197,-3.42757 2.85304,-4.45119 2.85304,-12.11435 v -8.37043 l 3.61785,0.61155 c 4.47911,0.75714 4.88039,-0.0373 5.61046,-11.10754 l 0.53339,-8.08796 4.11915,1.43073 c 2.38505,0.82841 6.1499,1.23999 8.94295,0.97765 4.147,-0.3895 5.5235,-1.13917 9.8101,-5.34277 2.7425,-2.68934 9.5299,-10.85656 15.0832,-18.1494 5.5532,-7.29283 10.2791,-13.07743 10.5019,-12.85466 0.7851,0.78511 -1.8073,17.19642 -3.7588,23.79522 -2.237,7.56427 -5.3579,11.27799 -12.9505,15.41039 -7.9695,4.33752 -13.343,13.77573 -11.0267,19.3677 2.5491,6.15416 7.2297,4.44491 18.3336,-6.69504 l 7.6341,-7.65883 2.4473,2.29905 2.4472,2.29905 -3.4679,5.4212 c -4.0077,6.265 -7.1966,13.35566 -8.2185,18.27385 -0.663,3.19132 -1.2044,3.60049 -7.6324,5.76883 -3.8053,1.28364 -10.6704,2.98872 -15.2558,3.78909 -4.6889,0.81842 -10.45819,2.60966 -13.18436,4.09343 -6.32399,3.44195 -15.93862,11.25703 -19.34745,15.72624 l -2.70036,3.54035 4.81833,3.09192 c 6.00894,3.85592 9.17495,3.88168 16.14324,0.13136 3.025,-1.62805 6.4,-2.9977 7.5,-3.04366 1.1,-0.046 3.66,-0.67634 5.6889,-1.40083 6.077,-2.17003 6.4406,-0.067 1.018,5.88721 -2.5888,2.84258 -6.62444,9.02093 -8.96809,13.72967 l -4.26119,8.56135 -8.11481,1.18654 c -11.73438,1.7158 -22.57283,4.68029 -27.35248,7.48135 -7.38175,4.32599 -19.86675,15.11147 -25.31377,21.86792 -5.27618,6.54455 -5.34299,6.58688 -13,8.2377 -9.91057,2.13667 -22.73369,5.79199 -27.19656,7.75257 -3.45275,1.51683 -3.365,1.53821 6.5,1.58427 12.56913,0.0587 24.31094,-1.99467 29.77829,-5.20748 2.32194,-1.36446 5.48824,-4.49244 7.03621,-6.95108 l 2.8145,-4.47024 7.1855,-0.47122 c 9.0785,-0.59536 13.60067,-2.84704 29.25355,-14.56595 15.34546,-11.48874 16.81197,-12.20495 25.13229,-12.27401 8.98876,-0.0746 12.45166,-1.53063 16.51416,-6.94356 4.3532,-5.80041 7.6143,-6.83785 23.5719,-7.49878 l 12.7136,-0.52658 -6.5274,2.37187 c -11.4928,4.17621 -12.3573,4.85665 -14.3834,11.32134 -2.3333,7.44496 -4.8143,12.32385 -7.5037,14.7561 -2.0099,1.81772 -2.7199,1.85618 -12.8565,0.69645 -11.67199,-1.33539 -14.98735,-0.85279 -20.34388,2.9614 -4.04381,2.87945 -8.88512,10.54424 -8.88512,14.06698 0,2.3343 0.57519,2.91695 3.75,3.79864 4.83828,1.34366 12.35229,1.34106 15.9349,-0.006 1.5483,-0.58195 4.6759,-2.87495 6.9503,-5.09555 l 4.1352,-4.03745 5.1318,3.53006 c 7.1739,4.93473 15.0625,7.67479 25.8478,8.978 7.7894,0.94121 9.25,1.39917 9.25,2.90036 0,1.45818 -0.8646,1.78506 -4.75,1.79581 -7.154,0.0198 -22.3929,3.45915 -28.4145,6.41308 -2.9345,1.43953 -6.9105,4.29981 -8.8355,6.35617 l -3.5,3.73885 z m -159.2498,1.42951 -2.5,-1.01139 3,-1.58952 c 6.12198,-3.24367 13.5,-6.21035 13.5,-5.42831 0,0.44407 -1.61007,2.68839 -3.57792,4.98739 -3.70733,4.33118 -5.7566,4.92929 -10.42208,3.04183 z m -3.88228,-47.11398 c -2.82573,-1.74314 -3.85862,-1.90666 -6.27715,-0.99377 -2.56339,0.96757 -3.07038,0.82482 -4.42768,-1.24669 -2.56044,-3.90772 -8.61036,-21.79623 -7.19031,-21.26043 0.70258,0.26509 5.21492,1.76073 10.02742,3.32363 8.05498,2.61593 10.31436,4.34455 7.75,5.92941 -2.24612,1.38818 -0.98004,6.51633 2.58231,10.45943 1.97027,2.18085 3.29371,4.43215 2.94098,5.00288 -0.84923,1.37409 -1.41567,1.24683 -5.40557,-1.21446 z m 10.38228,-23.59753 c -1.1,-0.35768 -4.74494,-3.57532 -8.09987,-7.15032 -6.07996,-6.4788 -6.10373,-6.52773 -7.28587,-15 -0.65231,-4.675 -1.28237,-9.4 -1.40014,-10.5 -0.17565,-1.6407 1.02027,-2.41239 6.65703,-4.29552 3.77913,-1.26253 7.07182,-2.09485 7.31707,-1.84959 0.24526,0.24526 0.93091,3.75324 1.52367,7.79552 0.59476,4.05592 1.88049,8.38195 2.86904,9.65323 l 1.79129,2.30363 1.16932,-2.18489 c 0.69405,-1.29684 1.01245,-4.96113 0.78336,-9.01537 -0.32564,-5.76306 -0.8996,-7.5592 -3.67286,-11.49364 l -3.2869,-4.66317 2.51176,-2.6251 c 1.98029,-2.06965 2.57644,-3.85043 2.81743,-8.41612 l 0.30567,-5.79102 6.25,-3.51689 6.25,-3.51689 v 9.09003 c 0,5.9229 0.53659,10.37426 1.54006,12.77592 1.41621,3.38946 1.39692,3.9517 -0.2399,6.99109 -1.75805,3.2645 -1.74736,3.36341 0.86813,8.03199 2.31999,4.14111 4.86819,14.22679 3.59448,14.22679 -0.25538,0 -1.86851,-0.4895 -3.58473,-1.08778 -2.96696,-1.03429 -3.49066,-0.78524 -10.64923,5.06424 -4.14084,3.3836 -7.52881,6.58756 -7.52881,7.11989 0,0.53234 0.675,2.58339 1.5,4.55789 2.04765,4.90073 2.09035,4.8261 -2,3.49608 z"
       id="path1" />
  </g>
</svg>
