<?xml version="1.0" encoding="UTF-8" standalone="no"?>
<!-- Created with Inkscape (http://www.inkscape.org/) -->

<svg
   version="1.1"
   id="svg1"
   width="240.21204"
   height="230.07178"
   viewBox="0 0 240.21204 230.07178"
   xmlns="http://www.w3.org/2000/svg"
   xmlns:svg="http://www.w3.org/2000/svg">
  <defs
     id="defs1" />
  <g
     id="g1"
     transform="translate(-397.76401,-633.81052)">
    <path
       d="m 472.79056,862.88174 c -22.13181,-3.2466 -37.78304,-12.09162 -44.42836,-25.10793 -3.88349,-7.60665 -4.4771,-18.40604 -1.40436,-25.54884 2.71734,-6.31661 10.16345,-13.575 22.69655,-22.12434 11.18762,-7.63155 16.94953,-13.63742 17.88929,-18.64677 0.93451,-4.98139 -0.004,-15.61963 -1.60399,-18.18163 -0.71428,-1.14374 -2.54026,-2.81294 -4.05774,-3.70934 -1.59543,-0.94244 -3.27425,-3.1909 -3.98065,-5.33132 -1.0339,-3.13275 -1.33027,-3.3996 -1.92877,-1.73668 -1.95953,5.44451 -1.98217,12.19172 -0.0597,17.7796 l 1.95605,5.68524 h -2.4958 c -3.44577,0 -7.67604,-2.3551 -10.7128,-5.96408 -1.40501,-1.66976 -2.75519,-3.03592 -3.0004,-3.03592 -1.04759,0 -2.72687,9.52503 -2.14575,12.17086 0.52305,2.38144 0.0192,3.57734 -2.84063,6.74288 -2.61533,2.89486 -3.65081,5.11576 -4.18036,8.96602 -0.38715,2.8149 -1.06135,5.33892 -1.49822,5.60892 -1.52059,0.93977 -5.18813,-10.11909 -4.84632,-14.61327 0.25733,-3.38334 -0.0295,-4.38521 -1.33105,-4.64979 -2.52269,-0.51279 -5.43199,3.28224 -8.14706,10.62744 l -2.45141,6.63189 -1.14776,-5.49247 c -1.40752,-6.73562 -2.41955,-8.46554 -4.48807,-7.67178 -2.21957,0.85173 -5.59841,6.67514 -5.60291,9.65657 l -0.004,2.47728 -2.60616,-2.60617 -2.60617,-2.60617 1.56923,-5.39795 c 0.899,-3.09244 3.13722,-7.2298 5.24039,-9.68688 4.68741,-5.47618 3.44672,-7.61842 -2.19282,-3.78625 -2.08493,1.41674 -3.96204,2.40463 -4.17136,2.19531 -0.20932,-0.20932 0.28284,-1.66349 1.09368,-3.23148 0.81084,-1.568 3.31656,-8.38151 5.56825,-15.14113 2.25169,-6.75962 7.21326,-18.79214 11.02571,-26.73894 5.61976,-11.71401 7.248,-14.32737 8.60269,-13.80752 1.39209,0.53419 1.56109,1.52053 1.01265,5.91013 -0.59561,4.76704 -0.45907,5.33217 1.43339,5.93281 1.37418,0.43615 3.57075,-0.2029 6.4034,-1.86294 l 4.31169,-2.52682 1.90772,2.52618 c 2.50019,3.31073 4.40303,2.50988 9.0376,-3.80367 4.04201,-5.50632 5.82496,-5.76465 11.39,-1.65024 3.20535,2.36982 6.54328,1.98648 11.12776,-1.27796 l 2.76965,-1.97216 4.04135,2.5512 c 3.66827,2.31568 4.04135,2.9363 4.04135,6.72292 0,4.7235 -3.30607,12.36143 -5.96706,13.78555 -2.71795,1.45461 -5.2047,7.48509 -4.40329,10.67819 0.37787,1.50555 4.39141,6.58533 8.91896,11.2884 8.66779,9.0038 10.48673,12.60051 10.39316,20.55104 l -0.0471,4 -2.25834,-4.5 c -2.76271,-5.50498 -4.94783,-9 -5.62689,-9 -0.2802,0 -0.52029,2.8125 -0.53353,6.25 -0.0576,14.96217 -5.05591,21.93162 -22.39672,31.22936 -18.56948,9.95652 -23.91522,14.88619 -24.81683,22.8853 -0.68573,6.08375 3.22049,14.25826 9.12559,19.09704 8.68821,7.11934 23.09084,11.56422 31.41263,9.69444 2.41907,-0.54353 5.86337,-0.4688 9.1176,0.19782 12.74785,2.61137 34.65292,-6.12649 57.83181,-23.06893 l 7.25001,-5.29933 v 6.32901 c 0,17.51959 -8.28575,25.48242 -32,30.75289 -9.17042,2.03812 -33.92585,2.50621 -45.18604,0.85441 z M 580.9766,840.12848 c -6.53129,-2.18118 -14.55226,-6.17586 -17.9899,-8.95948 l -2.47081,-2.00074 6.98036,-0.67155 c 36.28866,-3.49116 47.45479,-10.32447 48.26556,-29.53698 0.51189,-12.13029 -3.38825,-16.36076 -21.16202,-22.9543 -5.89335,-2.18626 -12.0954,-4.95782 -13.78233,-6.15902 -5.86494,-4.1762 -7.52553,-13.57763 -3.83475,-21.71048 1.07921,-2.37809 5.94824,-8.45309 10.82008,-13.5 9.92879,-10.28559 11.73356,-13.96375 10.88514,-22.18416 -1.16689,-11.30615 -8.94649,-22.05444 -19.26741,-26.61987 -5.36909,-2.37501 -16.42322,-4.83069 -21.85364,-4.85481 l -3.90972,-0.0174 5.94633,2.97142 c 7.97113,3.98322 13.90014,9.22932 18.53465,16.39982 5.18159,8.01692 5.02652,8.73186 -1.41154,6.50774 -8.62976,-2.98128 -9.27503,-2.61442 -5.2517,2.98578 3.7659,5.24185 6.5017,11.90433 6.5017,15.83355 v 2.44685 l -2.63486,-2.07258 c -1.44917,-1.13992 -3.92417,-2.07258 -5.5,-2.07258 -2.46652,0 -2.86079,0.3826 -2.83387,2.75 0.0172,1.5125 1.12381,4.98089 2.45913,7.70754 1.33532,2.72665 2.30305,5.08234 2.15051,5.23488 -0.15253,0.15254 -2.02929,-0.61586 -4.17057,-1.70754 -6.26642,-3.19481 -10.36432,-2.23749 -10.55227,2.46512 -0.17892,4.47666 -4.64992,-8.20843 -5.1521,-14.61749 -0.62812,-8.01649 -3.14523,-13.56019 -7.46131,-16.43282 -1.75743,-1.16968 -7.03663,-3.09012 -11.73154,-4.26764 -9.26642,-2.32409 -19.54708,-6.49228 -20.77382,-8.42255 -0.42277,-0.66523 -0.77557,-3.36994 -0.78399,-6.01048 -0.0133,-4.17553 0.42758,-5.21774 3.38431,-8 4.13465,-3.89068 5.01744,-6.52903 3.73666,-11.16763 -0.9652,-3.49565 -0.90981,-3.58876 4.70506,-7.90931 5.52282,-4.2497 5.9472,-4.39218 15.17021,-5.09281 15.59689,-1.18482 23.52019,-3.10983 34.92115,-8.48427 5.81201,-2.73979 13.02525,-5.5035 16.02941,-6.14158 11.00256,-2.3369 26.16606,0.45276 36.95798,6.79923 l 4.57991,2.69334 -4,0.86885 c -2.50873,0.54492 -6.7201,0.44124 -11.29607,-0.27811 -4.01284,-0.63083 -9.15437,-0.833 -11.42561,-0.44928 l -4.12953,0.69768 6.94986,2.20347 c 13.14199,4.16671 25.52902,12.25217 29.65107,19.35433 l 1.74972,3.01471 -5.24972,-1.99741 c -4.45169,-1.69378 -17.93597,-4.81023 -20.81294,-4.81023 -0.49351,0 -0.45447,1.13837 0.088,2.5651 1.19741,3.14942 1.28834,10.4349 0.13024,10.4349 -0.46476,0 -1.66,-0.90055 -2.6561,-2.00122 -1.57876,-1.74448 -11.3191,-6.99878 -12.97426,-6.99878 -0.32955,0 1.156,2.5875 3.30122,5.75 12.85837,18.95591 16.21606,34.67724 9.75928,45.69489 -1.43243,2.44426 -5.92402,7.45067 -9.98131,11.12534 -4.05729,3.67467 -8.32796,8.37342 -9.49037,10.44165 -2.63912,4.69568 -2.7001,10.51377 -0.15396,14.68957 2.16965,3.55835 4.60746,5.02355 14.64307,8.80094 18.31012,6.89192 24.66272,15.37976 24.69656,32.99761 0.0213,11.10845 -2.44738,18.22408 -8.75783,25.24281 -6.62121,7.36438 -13.92531,10.55748 -25.04132,10.94719 -6.73746,0.23621 -10.38266,-0.14622 -14.5,-1.52125 z M 496.31646,828.2128 c 0.97432,-10.48325 3.99779,-18.92331 10.14462,-28.31884 5.92503,-9.0565 7.04504,-12.54399 6.26137,-19.4967 -0.2751,-2.44064 -0.0831,-4.43753 0.42665,-4.43753 1.35949,0 6.71839,2.86456 11.5775,6.18867 4.82772,3.30263 5.95762,1.75249 1.65048,-2.26436 -1.42973,-1.33337 -3.96353,-4.13831 -5.63067,-6.2332 l -3.03115,-3.80889 2.51651,-2.69111 c 2.93062,-3.13395 5.74483,-8.38504 5.74483,-10.71937 0,-1.19347 -1.11031,-0.6772 -4.16272,1.93555 -7.29093,6.24076 -13.6934,5.87547 -24.59321,-1.40314 -10.87679,-7.26325 -13.94597,-15.51075 -9.13316,-24.54271 1.161,-2.17879 2.77302,-5.20709 3.58227,-6.72954 0.80925,-1.52246 1.49353,-5.23496 1.52063,-8.25 0.0562,-6.25575 0.98355,-6.75911 6.34623,-3.44479 3.56374,2.20251 7.40409,1.91597 9.58792,-0.71539 0.94942,-1.14398 0.96597,-2.18154 0.0726,-4.54843 -1.69636,-4.49418 -0.50316,-5.22863 3.20504,-1.97278 1.94373,1.70662 6.66864,3.93303 11.67024,5.49911 4.62231,1.44731 9.35687,3.30559 10.52125,4.12951 1.16438,0.82393 4.76438,5.87363 8,11.22156 5.0537,8.35292 5.88294,10.41413 5.88294,14.623 0,4.1705 -0.43313,5.27204 -2.91109,7.40349 -2.16995,1.86652 -3.75964,2.40496 -6.24405,2.11492 l -3.33295,-0.38911 2.61152,2.72585 c 1.43634,1.49921 3.84088,3.23506 5.34343,3.85743 l 2.73189,1.13159 -1.7073,6.19107 c -2.28923,8.3012 -3.32898,15.69107 -2.20774,15.69107 0.49846,0 1.72077,-0.9 2.71626,-2 0.99549,-1.1 2.07773,-1.99831 2.40499,-1.99625 0.32725,0.002 1.43653,2.04991 2.46506,4.55077 1.02853,2.50086 4.06531,6.94898 6.7484,9.8847 l 4.87834,5.33768 -4.05916,6.07864 c -11.31605,16.94593 -32.59003,28.92206 -56.34375,31.71859 l -5.90612,0.69533 z M 430.64327,710.29306 c -0.36667,-0.36666 -0.66667,-3.19097 -0.66667,-6.27623 0,-13.47755 4.12498,-34.44473 8.04444,-40.88977 1.69749,-2.79131 2.19199,-3.02794 4.4965,-2.15177 1.42409,0.54144 5.63809,0.98444 9.36444,0.98444 5.57858,0 7.87296,-0.54857 12.99087,-3.10602 7.58111,-3.78833 10.49504,-7.81693 12.87675,-17.80254 l 1.727,-7.24065 9,0.62348 c 33.85683,2.34544 74.36918,7.23388 78.33287,9.45207 0.78343,0.43843 -2.21614,1.06662 -6.9795,1.4617 -4.59435,0.38105 -12.81832,1.36171 -18.27549,2.17923 -11.83326,1.77271 -20.59502,1.92206 -30.07788,0.5127 -3.85,-0.57219 -7.4262,-1.04927 -7.9471,-1.06016 -0.52091,-0.0109 2.77853,1.78187 7.33209,3.98392 4.55356,2.20204 8.11985,4.48175 7.9251,5.066 -0.19475,0.58425 -5.74419,5.26068 -12.33209,10.39205 l -11.978,9.32978 -3.25,-3.09195 c -3.1237,-2.97178 -3.25,-3.00437 -3.25,-0.8386 0,1.23934 0.49541,4.22078 1.1009,6.62542 1.25271,4.97496 -0.10959,10.91919 -2.73319,11.92596 -0.84455,0.32408 -4.76028,0.87361 -8.70163,1.22117 -4.10788,0.36224 -7.90341,1.27296 -8.89382,2.13402 -1.58711,1.37984 -1.90124,1.10452 -3.85945,-3.38274 -1.17245,-2.68666 -2.98133,-6.68484 -4.01973,-8.88484 l -1.88801,-4 0.46334,5 c 0.25484,2.75 0.74122,7.75514 1.08086,11.12253 0.60667,6.01504 0.56203,6.16203 -2.54292,8.37295 -2.33766,1.66456 -3.45279,1.95808 -4.28339,1.12748 -0.61763,-0.61763 -2.43544,-1.12296 -4.03959,-1.12296 -2.42544,0 -2.82845,0.33721 -2.393,2.00236 0.32494,1.24259 -0.1051,2.35718 -1.13337,2.93751 -1.25713,0.70948 -2.19115,0.28659 -3.87046,-1.75236 l -2.21346,-2.68751 -4.11173,4.25 c -4.4933,4.64441 -4.33842,4.53959 -5.29468,3.58333 z m 54.83333,-6.28462 c -6.00687,-0.72357 -14.5,-4.25779 -14.5,-6.03385 0,-2.35459 4.539,-3.26113 13.09457,-2.61527 l 8.73988,0.65977 0.67691,-6.27968 c 0.5508,-5.10984 1.30022,-7.02048 4.02286,-10.25625 1.84028,-2.18712 3.67231,-3.65024 4.07117,-3.25138 1.71673,1.71674 1.47887,16.25116 -0.36377,22.22795 -1.83826,5.96256 -1.87442,6.00085 -5.79571,6.13572 -2.17025,0.0747 -6.64591,-0.18951 -9.94591,-0.58701 z m -41.72617,-46.81732 c -1.59056,-0.68264 -1.53202,-1.15992 0.74514,-6.07492 5.3646,-11.57895 9.63874,-14.59952 22.32712,-15.77878 l 7.15391,-0.66489 -0.022,2.8936 c -0.0286,3.7689 -3.08041,10.31095 -6.10858,13.09475 -5.19583,4.77655 -19.285,8.5949 -24.09563,6.53024 z"
       id="path1" />
  </g>
</svg>
