<?xml version="1.0" encoding="UTF-8" standalone="no"?>
<!-- Created with Inkscape (http://www.inkscape.org/) -->

<svg
   version="1.1"
   id="svg1"
   width="243.30144"
   height="238.96767"
   viewBox="0 0 243.30144 238.96767"
   xmlns="http://www.w3.org/2000/svg"
   xmlns:svg="http://www.w3.org/2000/svg">
  <defs
     id="defs1" />
  <g
     id="g1"
     transform="translate(-1019.0617,-168.20459)">
    <path
       d="m 1171.0534,406.97046 c -11.7346,-1.90521 -23.2651,-9.97865 -30.6042,-21.42846 -2.349,-3.66462 -5.199,-6.95752 -6.3333,-7.31755 -2.7527,-0.87366 -2.6311,-2.51637 0.1875,-2.53347 1.2375,-0.008 3.1828,-0.26416 4.3229,-0.57033 1.5835,-0.42523 2.646,0.29796 4.5,3.06291 1.4787,2.20525 3.5157,3.84736 5.213,4.2025 1.5322,0.32061 3.4054,1.46752 4.1627,2.5487 1.347,1.92305 1.4125,1.9115 3.0129,-0.53104 3.4476,-5.26164 12.7019,-5.94319 20.6232,-1.51883 5.5572,3.10395 8.1813,2.22529 9.2279,-3.08991 0.6805,-3.45629 0.559,-4.58271 -0.5622,-5.21015 -5.0644,-2.83416 -5.6933,-4.14988 -4.5768,-9.57378 1.0305,-5.00579 0.9715,-5.27753 -1.6301,-7.51537 l -2.6993,-2.3218 2.0712,-5.25464 c 3.1455,-7.98027 7.0202,-15.30103 10.3074,-19.47491 l 2.9616,-3.7603 -2.599,0.98813 c -6.2567,2.37879 -8.7635,4.46674 -14.4949,12.07292 -6.4013,8.49514 -7.2244,11.29939 -4.5254,15.41854 1.3885,2.11919 1.3992,2.7074 0.095,5.21481 -0.8085,1.55441 -2.6273,3.90722 -4.0416,5.22847 l -2.5716,2.40226 -3.8272,-2.65226 c -2.105,-1.45875 -4.5794,-2.65227 -5.4987,-2.65227 -1.381,0 -1.502,-0.44574 -0.6962,-2.5651 0.5363,-1.4108 0.9752,-2.7085 0.9752,-2.88376 0,-0.17526 -2.7968,0.81102 -6.2151,2.19173 l -6.2151,2.51039 -15.0349,-1.6403 c -14.4379,-1.57516 -15.1422,-1.75736 -17.7371,-4.58887 -2.6773,-2.92147 -2.6879,-2.99029 -1.156,-7.48633 0.8504,-2.49577 1.8232,-4.53776 2.1617,-4.53776 0.3385,0 2.4747,2.025 4.747,4.5 l 4.1314,4.5 h 7.5365 7.5364 l 2.8726,-5.49762 c 1.5799,-3.0237 3.3509,-5.4987 3.9355,-5.5 0.5846,-0.001 2.3563,1.34762 3.9371,2.99762 1.5808,1.65 3.4323,3 4.1145,3 2.0075,0 5.0512,-4.59829 7.9727,-12.04492 2.6936,-6.86531 2.7766,-6.95508 6.4359,-6.95508 2.1369,0 4.7374,-0.81038 6.1393,-1.91314 1.3377,-1.05223 4.8859,-2.63257 7.8849,-3.51187 4.2507,-1.2463 5.9507,-2.36766 7.7119,-5.08686 l 2.2592,-3.48813 -2.2592,0.0402 c -1.2426,0.0221 -4.7342,1.10841 -7.7592,2.41405 -3.025,1.30563 -5.6735,2.20161 -5.8855,1.99105 -0.212,-0.21057 0.3505,-1.50605 1.25,-2.87887 1.5299,-2.33478 1.519,-2.55838 -0.1681,-3.46129 -1.4884,-0.79658 -2.4083,-0.14741 -5.264,3.71482 l -3.4604,4.68008 -16.486,0.63293 c -10.3967,0.39916 -18.5175,1.22584 -21.986,2.23814 -8.8299,2.57703 -16.089,2.16264 -21.4279,-1.22322 -5.5985,-3.55044 -17.8717,-5.93626 -22.4061,-4.35556 -2.547,0.88789 -3.2792,0.74008 -4.8316,-0.97528 -3.6384,-4.02033 -7.1818,-5.09047 -14.4757,-4.37175 -6.0819,0.5993 -7.2594,0.41093 -11.0818,-1.7729 -2.785,-1.59111 -8.6372,-3.22413 -16.7769,-4.6815 -6.875,-1.23093 -13.0625,-2.39332 -13.75,-2.58308 -2.1311,-0.58819 -1.3755,-3.40956 1.1725,-4.37832 2.4159,-0.91851 17.9367,-8.55266 24.5775,-12.0888 3.5135,-1.87091 12.1865,-9.19429 19.1744,-16.19066 2.06,-2.0625 4.2717,-3.75 4.9148,-3.75 0.6432,0 3.1366,2.11246 5.541,4.69436 l 4.3716,4.69436 -2.6184,2.73298 c -1.4401,1.50314 -4.028,3.31994 -5.7509,4.03734 l -3.1325,1.30436 4.9326,0.71153 c 4.531,0.65358 5.2057,0.47182 8.2848,-2.2317 3.997,-3.50937 4.9474,-3.60679 7.9222,-0.81205 1.5402,1.44693 4.7716,2.54045 10.0645,3.40588 4.2877,0.70109 8.4709,1.53733 9.2959,1.85832 0.825,0.32098 2.175,0.13834 3,-0.40588 1.3333,-0.87956 1.3333,-1.09891 0,-1.97419 -0.825,-0.54158 -2.749,-0.99158 -4.2755,-1 -4.2206,-0.0233 -20.9632,-8.65134 -25.1927,-12.98271 l -3.7187,-3.8083 7.1744,-2.22043 c 5.6625,-1.75253 8.7704,-3.55266 14.7484,-8.54265 4.1658,-3.47722 8.6078,-6.58165 9.8711,-6.89873 1.3593,-0.34115 5.6607,0.65107 10.5364,2.4305 5.9766,2.18118 10.0122,3.00701 14.6945,3.00701 5.664,0 7.0805,0.41489 11.5586,3.38548 5.5256,3.66548 11.187,5.60014 16.4135,5.60894 2.2372,0.004 4.7956,1.13994 7.8938,3.50558 3.4197,2.61114 5.5692,3.5 8.4641,3.5 2.7988,0 5.2984,0.9755 8.9684,3.5 5.6412,3.88044 8.5051,4.56028 7.3722,1.75 -0.3881,-0.9625 -0.9454,-3.43662 -1.2384,-5.49804 -0.4655,-3.27395 0.094,-4.67563 4.4213,-11.08138 2.7248,-4.03333 5.4775,-9.32171 6.1171,-11.75196 0.6396,-2.43024 2.1737,-8.24362 3.4092,-12.91862 2.9266,-11.07355 2.8246,-19.60001 -0.3288,-27.5 -2.1932,-5.49458 -2.6896,-6.04212 -5.8919,-6.5 -6.395,-0.91437 -4.4408,-8 2.2064,-8 1.6833,0 4.6442,-0.97873 6.5797,-2.17496 l 3.5192,-2.17497 2.3488,2.73073 c 2.4985,2.90462 2.9843,5.10848 1.3489,6.1192 -0.5946,0.3675 -1,6.68776 -1,15.59114 0,11.04719 -0.3933,15.91439 -1.5,18.5631 -1.7565,4.20399 -1.9688,13.70248 -0.4064,18.18444 0.981,2.81419 0.7893,3.5244 -1.863,6.89922 -4.4208,5.62521 -6.3837,10.02423 -6.0392,13.53452 0.2727,2.77956 0.8897,3.35193 5.3086,4.92499 2.75,0.97895 5.4996,2.46002 6.1102,3.29125 1.5371,2.09236 1.858,1.98661 6.3869,-2.10502 3.3626,-3.0379 4.0029,-4.23759 4.0029,-7.5 0,-3.14381 -0.3606,-3.88364 -1.893,-3.88364 -1.6808,0 -3.107,-1.7935 -3.107,-3.90725 0,-1.58399 15.0316,-10.22716 17.2409,-9.9135 3.6866,0.52342 3.6011,5.91114 -0.1754,11.04634 -1.686,2.29263 -3.0655,5.00163 -3.0655,6.02001 0,1.01838 -1.7574,4.49736 -3.9053,7.73107 -2.1478,3.23372 -3.6478,6.13685 -3.3333,6.45141 1.4095,1.40944 3.8776,0.21619 9.3386,-4.51474 4.4049,-3.81599 6.1587,-6.12669 7.0206,-9.25 0.6319,-2.28984 2.2444,-7.76334 3.5832,-12.16334 2.6444,-8.69076 2.545,-10.89183 -0.8648,-19.1535 -2.1398,-5.18444 -1.9953,-8.35661 0.3796,-8.33465 1.6886,0.0156 10.7814,8.80211 10.7814,10.41819 0,0.69127 -0.9159,3.91481 -2.0354,7.16341 -1.1195,3.2486 -2.7,9.73155 -3.5121,14.40655 -1.9365,11.1475 -4.0076,17.22786 -6.9491,20.40183 l -2.3973,2.5867 2.4354,0.61125 c 1.5825,0.39716 3.5472,-0.0927 5.6098,-1.39864 2.4939,-1.57902 3.6586,-1.78925 5.4332,-0.98067 1.8953,0.86356 2.0957,1.38722 1.2453,3.25383 -0.7097,1.55758 -2.4852,2.56431 -5.921,3.3574 -2.6991,0.62302 -8.0383,2.90692 -11.8649,5.07532 -3.8266,2.16841 -7.9849,4.0889 -9.2405,4.26777 -1.2556,0.17886 -2.4219,1.05453 -2.5916,1.94592 -0.3424,1.79794 2.3874,2.84385 7.4792,2.86564 4.6427,0.0199 4.8189,1.44772 0.6071,4.91947 -5.9795,4.92881 -9.3766,6.09418 -17.765,6.09418 -4.2155,0 -8.5018,0.44809 -9.5251,0.99575 -2.2874,1.22413 -9.9749,13.41133 -13.5222,21.43705 -2.7852,6.30148 -7.4891,22.71949 -7.4684,26.0672 0.01,1.61838 0.6702,1.23676 3.4599,-2 1.8962,-2.2 3.4645,-4.73514 3.4852,-5.63364 0.021,-0.8985 1.9132,-3.32822 4.2057,-5.39938 2.2926,-2.07117 5.8169,-6.21836 7.832,-9.216 4.357,-6.48163 10.5324,-10.90839 16.4568,-11.7968 4.9185,-0.73758 14.3741,0.94709 17.1615,3.05761 1.8164,1.37532 1.8074,1.4257 -0.2615,1.45641 -1.1787,0.0175 -2.4553,0.8193 -2.837,1.7818 -0.5248,1.32348 1.1296,3.45608 6.7878,8.75 6.8936,6.44971 7.4418,7.25549 6.9735,10.25 -0.5049,3.22824 -1.6127,4.1408 -2.7645,2.27717 -0.3307,-0.53505 -2.4406,-1.4681 -4.6887,-2.07345 -3.7207,-1.00189 -4.6421,-0.82753 -10.2712,1.94367 -11.1274,5.47798 -22.0985,19.25903 -25.5569,32.1026 -1.1326,4.20633 -1.2771,4.3416 -2.6425,2.47477 -2.3502,-3.21329 -2.7518,-6.57155 -1.365,-11.41571 0.7178,-2.50748 1.5124,-6.02155 1.7657,-7.80905 0.3892,-2.74616 0.1474,-3.25 -1.5596,-3.25 -2.7646,0 -5.6041,6.20688 -8.0918,17.68755 -2.2457,10.36356 -4.1341,14.64387 -7.3776,16.72163 -4.0098,2.56866 -16.265,4.7438 -21.7292,3.85665 z m -50.6415,-62.71106 c -3.5048,-1.52506 -5.8586,-6.71389 -4.8566,-10.70614 0.5416,-2.15801 1.1609,-2.37 7.4817,-2.56113 3.7902,-0.11461 8.4944,-0.87822 10.4538,-1.69692 l 3.5626,-1.48853 v 4.99864 c 0,6.37923 -2.0772,10.38197 -6.1188,11.79089 -4.1061,1.43138 -6.6459,1.35009 -10.5227,-0.33681 z m -64.906,-7.30477 c -4.2304,-4.60415 -6.8972,-12.06619 -6.0073,-16.8095 0.6193,-3.30117 2.7291,-4.5855 4.0423,-2.4607 0.3574,0.57826 3.0363,0.72575 6.5367,0.35989 5.1006,-0.53313 6.0263,-0.37175 6.6112,1.15266 0.3741,0.97492 0.074,2.72547 -0.667,3.89012 -3.1593,4.96543 -5.0901,10.01096 -5.2365,13.68441 -0.086,2.16321 -0.5342,3.93312 -0.9954,3.93312 -0.4611,0 -2.389,-1.6875 -4.284,-3.75 z m 20.8055,-0.005 c -2.8768,-5.11859 -3.3283,-11.11498 -0.9494,-12.60926 1.4444,-0.90734 2.0706,-0.78374 3.1102,0.61395 1.4152,1.90264 5.0888,2.35571 6.0812,0.75 0.3399,-0.55 1.2524,-1 2.0276,-1 1.784,0 0.9219,2.54087 -2.1119,6.2246 -1.2341,1.49852 -2.7674,4.31102 -3.4073,6.25 -0.6399,1.93897 -1.4957,3.5254 -1.9018,3.5254 -0.4061,0 -1.6879,-1.68961 -2.8486,-3.75469 z m 20.2407,-0.66704 c -0.2743,-0.86805 -0.7233,-2.28903 -0.9978,-3.15773 -0.6296,-1.99237 0.4406,-6.42054 1.5517,-6.42054 0.4597,0 2.0775,1.06804 3.5951,2.37342 l 2.7593,2.37342 -3.2048,3.20485 c -2.5623,2.56225 -3.3049,2.88839 -3.7035,1.62658 z m -62.2873,-8.8235 c -1.6243,-1.95721 -3.7396,-11.93601 -2.9605,-13.96628 0.5001,-1.30305 1.3145,-1.38165 5.1713,-0.49908 2.6206,0.59967 4.5778,1.61684 4.5778,2.37907 0,0.73233 -0.4342,1.33152 -0.9648,1.33152 -1.4067,0 -3.0541,3.49977 -3.8546,8.18901 -0.5952,3.48671 -0.8881,3.86833 -1.9692,2.56576 z m 141.3221,-66.03219 c 0.401,-1.59766 -0.3961,-3.61242 -2.6705,-6.75 -2.8858,-3.98107 -3.2684,-5.29678 -3.4815,-11.97258 -0.1316,-4.125 -0.3839,-9.3 -0.5604,-11.5 -0.3113,-3.87771 -0.1758,-4.07205 4.4299,-6.35659 7.8155,-3.8766 9.48,-1.60897 5.7552,7.84074 -2.979,7.55801 -3.6622,15.36578 -1.6174,18.48651 2.293,3.49957 3.7428,3.17944 6.7743,-1.49586 2.4551,-3.7863 2.6514,-5.01778 3.3076,-20.75 0.6254,-14.99234 0.4717,-17.81245 -1.4834,-27.2248 -2.2852,-11.00083 -5.2199,-19.11821 -7.6372,-21.12437 -0.7868,-0.65304 -4.1779,-1.4547 -7.5357,-1.78149 -7.0815,-0.68916 -9.716,-2.98319 -6.297,-5.48318 2.873,-2.10084 12.8618,-4.92845 17.756,-5.02639 l 4.2266,-0.0843 0.8409,5 c 0.4625,2.75 2.6065,12.43947 4.7644,21.53217 3.8205,16.09824 3.8973,16.78068 2.9264,26 -0.5484,5.20731 -1.0048,14.22818 -1.0144,20.04639 -0.016,10.09061 -0.1571,10.78958 -3.0477,15.15356 -3.1259,4.71934 -8.4276,7.76788 -13.5089,7.76788 -2.1009,0 -2.4078,-0.36263 -1.9272,-2.27742 z m -17.6194,-6.47227 c -1.7816,-1.5125 -6.6482,-5 -10.8146,-7.75 -9.3539,-6.17389 -9.9157,-7.66601 -10.0226,-26.62087 -0.068,-12.01275 -0.4304,-14.84628 -3.0707,-24 -4.2634,-14.78077 -4.0484,-15.87913 3.1088,-15.87913 1.6233,0 5.1218,-1.09977 7.7743,-2.44392 3.6198,-1.83426 5.1082,-2.15856 5.9668,-1.3 2.2116,2.21166 1.1211,5.70282 -3.3561,10.74392 l -4.5,5.06676 v 16.13471 c 0,27.35091 1.8191,32.52103 12.8169,36.42711 2.8507,1.01247 5.1831,2.34744 5.1831,2.96659 0,0.61916 1.0883,2.72946 2.4185,4.68957 2.0146,2.96865 2.1679,3.65999 0.9182,4.13955 -2.412,0.92558 -3.0093,0.72336 -6.4226,-2.17429 z m -29.2433,-11.98319 c -2.9508,-0.30592 -4.804,-1.41432 -8.0786,-4.8319 -3.2146,-3.35493 -4.9947,-4.43491 -7.31,-4.43491 -4.4943,0 -7.7548,-2.98094 -6.916,-6.32304 0.6467,-2.57637 1.5807,-3.23437 14.1937,-9.99914 4.9562,-2.65815 5.7382,-1.62474 4.9218,6.50405 l -0.6982,6.95262 4.6083,5.9341 c 4.6119,5.93886 5.2617,7.07788 3.8582,6.76331 -0.4125,-0.0925 -2.4731,-0.34675 -4.5792,-0.56509 z"
       id="path1" />
  </g>
</svg>
