<?xml version="1.0" encoding="UTF-8" standalone="no"?>
<!-- Created with Inkscape (http://www.inkscape.org/) -->

<svg
   version="1.1"
   id="svg1"
   width="225.99155"
   height="221.81152"
   viewBox="0 0 225.99155 221.81152"
   xmlns="http://www.w3.org/2000/svg"
   xmlns:svg="http://www.w3.org/2000/svg">
  <defs
     id="defs1" />
  <g
     id="g1"
     transform="translate(-983.73375,-1163.9489)">
    <path
       d="m 1055.2295,1383.9044 c -10.0352,-3.5769 -15.1187,-6.8738 -21.2123,-13.7575 l -6.0322,-6.8142 -0.7295,-15.6764 c -0.7425,-15.9521 0.2042,-23.5055 2.8242,-22.5346 0.6324,0.2344 3.5123,1.0253 6.3998,1.7576 l 5.25,1.3315 v 9.3308 c 0,8.2092 -0.298,9.8029 -2.4791,13.258 l -2.4791,3.9272 11.2291,10.1976 c 17.8201,16.1831 16.1774,14.1408 14.2978,17.7754 -0.891,1.7231 -1.721,3.1 -1.8443,3.0598 -0.1234,-0.04 -2.4744,-0.875 -5.2244,-1.8552 z m 75.9038,-1.2578 c -1.8466,-3.571 -3.4734,-1.5584 14.3254,-17.7222 l 11.2291,-10.1976 -2.4791,-3.9272 c -2.1812,-3.4551 -2.4792,-5.0488 -2.4792,-13.258 v -9.3308 l 5.25,-1.3315 c 2.8875,-0.7323 5.7675,-1.5232 6.3999,-1.7576 2.62,-0.9709 3.5666,6.5825 2.8242,22.5346 l -0.7296,15.6764 -6.0321,6.8142 c -6.1746,6.9751 -11.3337,10.2871 -21.4417,13.7647 l -5.2744,1.8146 z m -75.2496,-22.6214 -9.2942,-8.6925 0.32,-9 0.32,-9 2.8568,5 c 1.5713,2.75 5.2045,7.25 8.0739,10 4.8567,4.6547 5.3094,5.5011 6.5546,12.2553 0.7356,3.9904 1.1408,7.452 0.9003,7.6925 -0.2406,0.2405 -4.6197,-3.4744 -9.7314,-8.2553 z m 71.8815,6.6634 c 0.02,-1.2957 0.6765,-5.0405 1.4599,-8.3216 1.2059,-5.0509 2.1848,-6.6611 6.3836,-10.5 2.7276,-2.4939 6.2331,-6.7843 7.7901,-9.5343 l 2.8307,-5 0.2908,8.8762 c 0.333,10.1654 0.9874,8.9894 -11.0408,19.8427 -6.7898,6.1267 -7.7456,6.7011 -7.7143,4.637 z m -42.8052,-12.6439 c -4.4371,-1.9194 -9.8892,-5.8772 -18.6541,-13.5414 -6.8115,-5.9561 -12.6198,-11.7288 -12.9073,-12.8281 -0.3538,-1.353 0.5844,-3.2242 2.9041,-5.7918 2.7788,-3.0758 3.4268,-4.6032 3.4268,-8.0767 0,-3.6997 -0.5475,-4.8046 -4.0165,-8.1045 -2.2091,-2.1015 -5.4709,-4.1978 -7.2485,-4.6584 -1.7796,-0.4611 -3.3779,-1.5954 -3.5568,-2.5243 -0.2861,-1.4858 0.7951,-1.6868 9.0737,-1.6868 h 9.3984 l 3.9249,5.4784 c 4.2097,5.8761 5.7373,6.4456 10.5765,3.9432 2.907,-1.5033 3.1786,-1.4675 5.7004,0.75 1.4564,1.2806 2.8151,2.4206 3.0194,2.5332 0.2044,0.1127 -0.8081,2.2178 -2.25,4.6781 -1.4418,2.4603 -2.6215,5.8388 -2.6215,7.5079 0,2.5917 0.8812,3.6331 6.0367,7.1341 l 6.0366,4.0994 -2.5366,3.0146 c -1.3952,1.658 -2.5367,3.4416 -2.5367,3.9635 0,0.5219 -1.35,0.2508 -3,-0.6024 -2.98,-1.541 -3,-1.5332 -3,1.1822 0,1.7356 1.2294,4.0266 3.3675,6.2756 1.8521,1.9482 3.8537,5.0047 4.448,6.7922 0.5943,1.7875 0.9914,3.2329 0.8825,3.212 -0.1089,-0.021 -3.0192,-1.2585 -6.4675,-2.75 z m 17.972,-0.5133 c 0.5844,-1.7593 2.578,-4.7927 4.4301,-6.7409 2.1381,-2.249 3.3674,-4.54 3.3674,-6.2756 0,-2.7154 -0.02,-2.7232 -3,-1.1822 -1.65,0.8532 -3,1.1243 -3,0.6024 0,-0.5219 -1.1414,-2.3055 -2.5366,-3.9635 l -2.5366,-3.0146 6.0366,-4.0994 c 5.1555,-3.501 6.0366,-4.5424 6.0366,-7.1341 0,-1.6691 -1.1796,-5.0476 -2.6215,-7.5079 -1.4418,-2.4603 -2.4543,-4.5654 -2.25,-4.6781 0.2044,-0.1126 1.5631,-1.2526 3.0195,-2.5332 2.5218,-2.2175 2.7934,-2.2533 5.7003,-0.75 4.8392,2.5024 6.3669,1.9329 10.5766,-3.9432 l 3.9248,-5.4784 h 9.3985 c 8.2786,0 9.3598,0.201 9.0736,1.6868 -0.1788,0.9289 -1.7771,2.0632 -3.5567,2.5243 -1.7776,0.4606 -5.0394,2.5569 -7.2485,4.6584 -3.469,3.2999 -4.0166,4.4048 -4.0166,8.1045 0,3.4735 0.6481,5.0009 3.4268,8.0767 2.3464,2.5971 3.2597,4.4324 2.8966,5.8207 -0.7354,2.8124 -24.4551,23.217 -29.6098,25.4715 -9.062,3.9635 -8.704,3.9465 -7.5111,0.3558 z m -18.4161,-52.0461 c -2.0426,-1.7339 -4.6671,-5.3263 -5.8324,-7.983 -2.0222,-4.6105 -2.5884,-5.0588 -12.4374,-9.8473 l -10.3187,-5.0169 -0.6402,-4.2693 c -0.604,-4.0282 -0.8714,-4.3192 -4.7325,-5.1527 -4.0819,-0.8812 -4.1021,-0.9087 -7.9587,-10.8322 -2.1266,-5.4718 -3.8665,-10.2338 -3.8665,-10.5822 0,-0.7146 24.551,3.2287 25.3879,4.0777 0.2963,0.3006 -0.096,2.6575 -0.8729,5.2374 l -1.4118,4.6908 4.3805,3.0139 c 4.1019,2.8221 4.4866,3.4906 6.0481,10.5096 l 1.6677,7.4958 2.9988,-2.1354 2.9989,-2.1354 4.4432,4.4433 4.4432,4.4432 -0.2918,8.5976 -0.2918,8.5977 z m 20.2136,-5.3973 v -8.8389 l 4.4487,-4.366 4.4487,-4.3661 3.5513,2.7088 3.5513,2.7087 v -3.6081 c 0,-7.7154 1.9731,-12.3791 6.5774,-15.5469 l 4.3194,-2.9719 -1.4117,-4.6908 c -0.7764,-2.5799 -1.1692,-4.9368 -0.8729,-5.2374 0.8368,-0.849 25.3878,-4.7923 25.3878,-4.0777 0,0.3484 -1.7399,5.1104 -3.8664,10.5822 -3.8566,9.9235 -3.8768,9.951 -7.9587,10.8322 -3.8612,0.8335 -4.1285,1.1245 -4.7325,5.1527 l -0.6403,4.2693 -10.3439,5.0292 c -9.9754,4.85 -10.42,5.206 -12.4792,9.9927 -1.2631,2.9361 -3.7373,6.251 -6.0571,8.1153 l -3.9219,3.1516 z m -87.7273,3.8164 c -2.7061,-1.8175 -6.2133,-3.0837 -9.7728,-3.5284 l -5.5518,-0.6937 -8.97194,-11.8812 -8.97191,-11.8812 3.85993,-8.7936 3.85992,-8.7936 5.26278,-0.3066 c 4.44752,-0.2591 6.72042,-1.2342 14.67182,-6.2944 13.1241,-8.352 12.7245,-8.3624 9.7625,0.2542 -2.1267,6.1867 -2.4237,8.3989 -1.8806,14.0094 l 0.6449,6.6625 6.1572,0.6594 c 12.1459,1.3007 12.4894,2.2797 2.1267,6.0592 -4.1419,1.5106 -7.6865,3.0188 -7.877,3.3514 -0.1904,0.3327 -0.6108,3.7549 -0.9341,7.6049 l -0.588,7 2.5625,-5.617 2.5625,-5.6171 7.6524,-2.0562 c 4.2088,-1.131 7.9947,-1.7259 8.4132,-1.3221 0.4186,0.4038 -1.9854,2.0469 -5.3421,3.6512 -6.5075,3.1103 -7.5126,4.4106 -10.4062,13.4612 -0.9671,3.025 -2.042,5.8165 -2.3887,6.2032 -0.3467,0.3868 -2.5297,-0.5724 -4.8512,-2.1315 z m 154.4296,2.1946 c -0.2398,-0.4215 -1.2318,-3.2413 -2.2046,-6.2663 -2.9142,-9.0624 -3.9126,-10.3526 -10.4164,-13.4612 -3.3567,-1.6043 -5.7607,-3.2474 -5.3422,-3.6512 0.4185,-0.4038 4.2045,0.1911 8.4133,1.3221 l 7.6524,2.0562 2.5625,5.6171 2.5625,5.617 -0.588,-7 c -0.3234,-3.85 -0.7437,-7.2722 -0.9342,-7.6049 -0.1904,-0.3326 -3.735,-1.8408 -7.8769,-3.3514 -10.3628,-3.7795 -10.0192,-4.7585 2.1266,-6.0592 l 6.1573,-0.6594 0.6449,-6.6625 c 0.5431,-5.6105 0.2461,-7.8227 -1.8806,-14.0094 -2.9621,-8.6166 -3.3616,-8.6062 9.7625,-0.2542 7.9514,5.0602 10.2243,6.0353 14.6718,6.2944 l 5.2628,0.3066 3.8599,8.7936 3.8599,8.7936 -8.9719,11.8812 -8.9719,11.8812 -5.563,0.6951 c -3.0597,0.3822 -7.0089,1.673 -8.776,2.8683 -5.1022,3.4512 -5.5497,3.6637 -6.0107,2.8533 z m -77.4798,-6.823 c -1.8304,-1.2821 -2.2225,-2.51 -2.2225,-6.9611 v -5.4043 l -11.3722,-10.1359 c -11.1014,-9.8947 -11.3862,-10.2542 -11.9604,-15.1025 -0.5134,-4.3355 -0.1361,-5.8794 2.9702,-12.153 3.4394,-6.9463 3.9228,-7.429 14.4604,-14.4407 l 10.902,-7.2543 10.9021,7.2543 c 10.5376,7.0117 11.0209,7.4944 14.4604,14.4407 3.1063,6.2736 3.4836,7.8175 2.9701,12.153 -0.5742,4.8483 -0.8589,5.2078 -11.9604,15.1025 l -11.3722,10.1359 v 5.4043 c 0,4.4511 -0.392,5.679 -2.2225,6.9611 -1.2223,0.8562 -2.4722,1.5567 -2.7775,1.5567 -0.3052,0 -1.5551,-0.7005 -2.7775,-1.5567 z m -11.5655,-32.3425 c -1.35,-3.3742 -1.3993,-4.5638 -0.3225,-7.7915 1.0974,-3.2898 2.1778,-4.2496 7.922,-7.0382 l 6.6513,-3.2288 6.4271,2.8836 c 5.7401,2.5754 6.605,3.3497 8.0927,7.2452 1.5361,4.0222 1.5408,4.6604 0.061,8.2033 -0.8829,2.113 -1.4648,3.9822 -1.2932,4.1538 0.1716,0.1716 2.4376,-1.2625 5.0355,-3.1869 l 4.7235,-3.4988 -2.5399,-5.0123 c -2.4675,-4.8693 -2.4953,-5.1432 -0.9769,-9.5994 0.8596,-2.5229 1.5629,-4.7383 1.5629,-4.9231 0,-0.1849 -1.7553,0.8255 -3.9007,2.2453 l -3.9007,2.5813 -4.9745,-2.5207 c -5.44,-2.7567 -5.7395,-3.1992 -6.7572,-9.9858 -0.8853,-5.9041 -2.0484,-5.9041 -2.9338,0 -1.0177,6.7866 -1.3171,7.2291 -6.7572,9.9858 l -4.9745,2.5207 -3.9007,-2.5813 c -2.1454,-1.4198 -3.9007,-2.4302 -3.9007,-2.2453 0,0.1848 0.7034,2.4002 1.563,4.9231 1.5184,4.4562 1.4905,4.7301 -0.9769,9.5994 l -2.54,5.0123 4.7236,3.4988 c 2.5979,1.9244 4.8939,3.3285 5.1021,3.1203 0.2082,-0.2083 -0.3384,-2.1706 -1.2148,-4.3608 z m -80.1885,-31.7723 c -7.72887,-6.895 -8.52505,-7.9324 -7.86654,-10.25 0.40297,-1.4182 0.99488,-6.5979 1.31537,-11.5105 l 0.58271,-8.9319 6.99996,-4.2406 c 4.4429,-2.6914 8.8266,-6.4581 12,-10.3108 l 5,-6.0704 15.8206,-0.01 15.8206,-0.01 4.6814,-3.9474 c 4.297,-3.6233 11.8896,-7.6737 12.7576,-6.8058 0.2002,0.2002 -0.9528,3.1482 -2.5622,6.5512 -5.2877,11.1809 -8.6852,13.5019 -47.018,32.1209 -3.575,1.7364 -7.476,3.9275 -8.6689,4.8691 l -2.169,1.712 4.3971,7.5 c 2.4185,4.125 5.5227,8.2082 6.8984,9.0738 l 2.5011,1.5739 -3.2769,3.1761 c -5.0899,4.9333 -7.2879,4.3593 -17.2133,-4.4953 z m 171.7687,4.4162 -3.1551,-3.2552 2.9157,-1.6735 c 1.6037,-0.9203 3.5774,-3.168 4.3861,-4.9947 0.8086,-1.8267 2.6325,-5.1985 4.0531,-7.4929 l 2.5829,-4.1715 -5.76,-3.4783 c -3.1679,-1.9131 -8.6399,-4.6825 -12.1599,-6.1543 -11.8209,-4.9425 -29.4428,-14.8671 -33.369,-18.7934 -3.4431,-3.443 -10.2685,-15.5267 -9.3111,-16.4841 0.8679,-0.8679 8.4605,3.1825 12.7576,6.8058 l 4.6813,3.9474 15.8206,0.01 15.8206,0.01 5,6.0704 c 3.1735,3.8527 7.5572,7.6194 12,10.3108 l 7,4.2406 0.5827,8.9319 c 0.3205,4.9126 0.9124,10.0923 1.3154,11.5105 0.6585,2.3176 -0.1377,3.355 -7.8665,10.25 -10.0145,8.934 -12.34,9.5279 -17.2944,4.4162 z m -150.544,-14.445 c -2.0165,-0.5226 -4.2048,-5.2065 -2.9803,-6.3794 0.4329,-0.4148 9.6318,-4.8387 20.442,-9.8311 18.2855,-8.4446 19.975,-9.0331 24.25,-8.4472 2.5273,0.3464 4.5951,0.9023 4.5951,1.2353 0,0.3329 -1.633,2.9765 -3.629,5.8745 -4.4432,6.4514 -10.5046,9.6057 -28.3028,14.7286 -6.7255,1.9358 -12.3046,3.4674 -12.3981,3.4036 -0.093,-0.064 -0.9831,-0.3267 -1.9769,-0.5843 z m 131.9168,-2.8708 c -17.734,-5.1612 -23.5503,-8.244 -28.1474,-14.9187 -2.0874,-3.0309 -3.608,-5.678 -3.379,-5.8823 0.2291,-0.2044 2.4414,-0.6451 4.9164,-0.9793 4.1609,-0.562 6.0071,0.097 24.5,8.7411 18.2509,8.5313 19.9757,9.5553 19.7213,11.7084 -0.6093,5.1576 -3.6681,5.3888 -17.6113,1.3308 z m -84.8535,-29.6938 -3.7436,-3.2351 2.8156,-9 c 2.5239,-8.0681 3.1704,-9.181 6.2435,-10.7484 4.4421,-2.2657 5.6147,-2.2056 6.9868,0.3582 0.8712,1.6279 0.782,3.0553 -0.391,6.25 -0.836,2.2771 -1.8253,6.6152 -2.1983,9.6402 -0.5991,4.8569 -3.3971,10.0367 -5.3938,9.9851 -0.3166,-0.01 -2.2603,-1.4707 -4.3192,-3.25 z m 45.5223,1.0149 c -1.2903,-1.4026 -2.3253,-4.3215 -2.7482,-7.75 -0.3731,-3.025 -1.3623,-7.3631 -2.1984,-9.6402 -1.1729,-3.1947 -1.2622,-4.6221 -0.3909,-6.25 1.3721,-2.5638 2.5446,-2.6239 6.9868,-0.3582 3.073,1.5674 3.7195,2.6803 6.2435,10.7484 l 2.8155,9 -3.7435,3.2351 c -2.059,1.7793 -4.0026,3.2418 -4.3193,3.25 -0.3166,0.01 -1.5071,-0.9976 -2.6455,-2.2351 z"
       id="path1" />
  </g>
</svg>
