<?xml version="1.0" encoding="UTF-8" standalone="no"?>
<!-- Created with Inkscape (http://www.inkscape.org/) -->

<svg
   version="1.1"
   id="svg1"
   width="242.54871"
   height="241"
   viewBox="0 0 242.54871 241"
   xmlns="http://www.w3.org/2000/svg"
   xmlns:svg="http://www.w3.org/2000/svg">
  <defs
     id="defs1" />
  <g
     id="g1"
     transform="translate(-588.15944,-408.06762)">
    <path
       d="m 744.20819,647.6688 c -7.73634,-2.44669 -12.56908,-5.48816 -20.20616,-12.71672 -4.11933,-3.89898 -4.26682,-3.94979 -7.14503,-2.46142 -1.61637,0.83587 -4.77531,1.81341 -7.01986,2.17233 -3.77851,0.60421 -4.36073,0.36997 -7.85498,-3.16019 l -3.77397,-3.81277 3,-0.63756 c 3.54742,-0.75389 7.70341,-2.84008 8.73469,-4.38455 1.18632,-1.77669 0.81422,-5.95174 -0.70978,-7.96386 -0.77631,-1.02496 -3.45203,-2.84703 -5.94604,-4.04903 l -4.53457,-2.18546 3.00329,-3.64352 c 2.44126,-2.96167 3.88745,-3.75921 7.72785,-4.26174 6.63214,-0.86785 12.86289,-3.26315 18.93135,-7.27784 4.58241,-3.03156 5.56152,-3.32097 8.16499,-2.41339 3.27374,1.14123 4.12822,0.74005 4.12822,-1.9382 0,-0.98967 0.75063,-3.3735 1.66808,-5.2974 1.56871,-3.28962 1.56163,-3.73405 -0.11886,-7.46071 -2.63013,-5.83259 -6.40306,-8.90711 -14.66877,-11.95346 -5.82864,-2.14815 -7.44764,-3.18639 -7.7,-4.93788 -0.17575,-1.2198 0.14792,-2.21781 0.71927,-2.21781 0.57135,0 2.5887,-2.42285 4.48299,-5.3841 2.7247,-4.2594 4.66339,-5.98277 9.28073,-8.25 5.1973,-2.55201 6.87707,-2.86328 15.33656,-2.84202 11.37928,0.0286 17.51615,1.86813 26.35523,7.90001 3.37962,2.30628 10.64477,6.60323 16.14477,9.54877 11.85023,6.34643 17.01651,11.20611 17.98081,16.91374 0.3725,2.2048 0.2704,4.73575 -0.22689,5.62435 -0.8184,1.4624 -1.02719,1.46737 -2.20148,0.0524 -0.71353,-0.85972 -2.36723,-1.56315 -3.67488,-1.56315 -2.1391,0 -2.37756,0.43637 -2.37756,4.35078 0,4.50922 -1.67079,10.64922 -2.89783,10.64922 -0.38619,0 -1.30078,-0.5625 -2.03241,-1.25 -1.09749,-1.03129 -1.23069,-0.59221 -0.76133,2.5095 1.17289,7.75074 7.73546,13.38993 19.25467,16.54546 l 6.61346,1.81167 -4.22668,1.90597 c -7.90703,3.56557 -16.63321,2.31303 -25.75995,-3.69755 l -4.31008,-2.83847 -4.68992,3.16876 c -2.57946,1.74282 -4.86598,3.3094 -5.08116,3.48128 -0.80113,0.63993 8.20479,11.3794 12.4809,14.88334 2.43856,1.99822 4.17692,4.04868 3.86302,4.55658 -0.99728,1.61364 -10.29572,0.99619 -16.18854,-1.07497 -3.12723,-1.09913 -8.07965,-3.5878 -11.00537,-5.53037 -4.84953,-3.2199 -5.64811,-3.44569 -9.03914,-2.55563 -2.0458,0.53697 -6.53214,1.28376 -9.96964,1.65954 -3.4375,0.37577 -6.25,1.09302 -6.25,1.59389 0,2.47254 4.78784,9.74927 9.5442,14.50563 l 5.32537,5.32537 -4.18479,-0.0669 c -2.30163,-0.0368 -5.98478,-0.63616 -8.18478,-1.33192 z m -124.5,-7.31062 c -2.664,-0.97953 -5,-3.55127 -5,-5.50456 0,-1.04722 0.41993,-1.6445 0.93318,-1.3273 0.51325,0.31721 3.02989,0.96845 5.59255,1.44721 4.32965,0.80886 4.89678,0.66201 8.01429,-2.0752 3.23958,-2.84438 3.44183,-2.88871 5.88279,-1.28932 2.18299,1.43034 3.58744,1.51474 10.29383,0.6186 8.40426,-1.12302 11.28336,-3.10584 11.28336,-7.77077 0,-3.15655 2.98508,-3.14043 13.32647,0.072 10.99441,3.41524 15.65728,1.22171 12.18763,-5.73336 -0.83275,-1.6693 -1.5141,-3.23714 -1.5141,-3.48407 0,-0.24694 3.81267,-0.29031 8.4726,-0.0964 7.19404,0.29941 8.81419,0.69426 10.73612,2.61652 2.65965,2.66009 2.09712,4.054 -3.44685,8.54111 -5.11016,4.136 -29.27346,12.60175 -39.26187,13.75564 -8.5405,0.98661 -35.00083,1.14884 -37.5,0.22991 z m -17.27437,-24.42423 c -1.3775,-0.77088 -1.72563,-2.37593 -1.72563,-7.95586 0,-15.7345 7.80954,-22.3663 39.8387,-33.83071 26.50098,-9.48568 43.64937,-12.75703 62.19167,-11.86416 11.46099,0.55189 18.0858,3.20029 21.71818,8.68228 3.7443,5.6509 3.06716,9.10123 -2.74855,14.00511 -2.75,2.31883 -5,4.8946 -5,5.72392 0,0.96291 -0.63247,1.32428 -1.75,0.99989 -0.9625,-0.27939 -4.24859,-0.80046 -7.30242,-1.15793 -4.4123,-0.51649 -5.82258,-0.32441 -6.86816,0.93544 -1.02956,1.24054 -2.45222,1.45182 -6.54056,0.97131 -6.031,-0.70882 -7.77671,0.0103 -15.05595,6.2019 -6.29367,5.35331 -8.91824,6.01926 -15.81768,4.01354 -7.44527,-2.1644 -8.65892,-2.04136 -13.2632,1.34467 -2.82327,2.07626 -4.41795,2.66627 -5.447,2.01531 -2.64117,-1.67074 -6.75524,-0.99004 -9.87328,1.63363 l -3.0717,2.58466 -3.37306,-2.08466 c -4.59132,-2.83759 -6.69579,-2.63639 -9.63699,0.92136 -2.32649,2.81417 -2.71534,2.94225 -5.60254,1.84544 -3.96053,-1.50457 -6.16541,-0.63297 -7.71366,3.04922 -0.99592,2.36859 -1.56383,2.74595 -2.95817,1.96564 z M 815.1936,569.41067 c -1.05978,-1.96789 -3.35879,-4.67016 -5.10891,-6.00504 -1.75012,-1.33489 -3.44519,-3.41953 -3.76681,-4.63254 -0.80524,-3.03693 -15.05447,-12.35936 -19.96546,-13.06222 -2.12067,-0.30351 -5.00803,-1.30683 -6.41634,-2.22959 l -2.56057,-1.67775 4.41634,-1.69066 c 2.42899,-0.92986 8.91634,-4.00399 14.41634,-6.83141 9.60253,-4.93642 11.70853,-5.56941 17.7152,-5.32453 5.11966,0.20871 14.48922,10.80627 11.8699,13.42559 -0.59681,0.59681 -1.0851,3.77217 -1.0851,7.05636 0,3.94526 -0.51688,6.54241 -1.52342,7.65462 -0.83788,0.92585 -2.44382,5.00472 -3.56875,9.06415 -1.12492,4.05944 -2.14662,7.48209 -2.27043,7.6059 -0.12381,0.12381 -1.09221,-1.38498 -2.15199,-3.35288 z m -180.31621,-11.5401 c -1.27673,-1.54162 -2.80414,-2.80295 -3.39424,-2.80295 -0.59011,0 -2.59879,-1.57113 -4.46373,-3.4914 -3.67619,-3.78526 -3.57366,-5.15116 0.67534,-8.99645 2.16261,-1.95713 2.18847,-1.9559 6.08966,0.28933 3.79597,2.18469 4.10123,2.20729 9.81514,0.72667 3.24353,-0.84048 6.84486,-1.52815 8.00297,-1.52815 3.20849,0 2.51479,-1.45028 -1.36471,-2.85312 -1.9087,-0.6902 -4.41434,-2.5806 -5.56809,-4.20089 -1.54592,-2.17105 -2.90899,-2.94599 -5.18181,-2.94599 -2.38781,0 -4.26816,-1.18526 -8.32885,-5.25 -8.12445,-8.13255 -9.30584,-16.17803 -2.98384,-20.32036 7.84389,-5.13952 19.47146,6.17079 20.0707,19.52307 0.19222,4.28302 0.73197,5.84727 2.51614,7.292 3.31293,2.68265 5.23635,1.83403 6.18431,-2.72853 0.90986,-4.37916 5.15941,-9.51618 7.87218,-9.51618 3.0911,0 7.77507,4.8624 8.48696,8.81028 0.90915,5.04176 1.13059,5.27081 3.88316,4.01665 2.05042,-0.93423 2.87534,-0.7053 5.54102,1.53771 3.53163,2.97168 5.8581,3.26609 9.78051,1.23774 4.37181,-2.26075 6.27869,-5.08269 6.6687,-9.86885 0.54544,-6.69371 3.87533,-12.36285 9.27171,-15.78514 8.58289,-5.4431 14.56258,-2.9656 14.43909,5.98239 -0.11722,8.49313 -8.19259,18.06922 -15.2375,18.06922 -1.18542,0 -3.5206,1.14882 -5.18929,2.55292 -1.66868,1.40411 -4.32114,2.81036 -5.89435,3.125 -1.57321,0.31465 -2.86038,0.86616 -2.86038,1.22559 0,0.35943 3.19034,1.47536 7.08964,2.47985 l 7.08965,1.82633 2.78784,-3.33939 c 2.67922,-3.20926 2.89476,-3.28217 5.53146,-1.87105 1.50898,0.80758 2.95812,2.02734 3.2203,2.71058 0.26218,0.68324 -1.59096,3.66246 -4.11809,6.6205 l -4.59479,5.37826 -5.253,-1.37042 c -18.20403,-4.7491 -36.37863,-3.9431 -56.51763,2.50643 l -11.74486,3.7613 z m -22.69687,-21.80681 c -4.85099,-4.85098 -5.22959,-5.02665 -12.39265,-5.75 l -7.3888,-0.74614 7.58989,-6.5 c 4.17444,-3.575 7.28149,-6.78162 6.90456,-7.12582 -0.37693,-0.3442 -4.51033,-1.86258 -9.18533,-3.37418 -4.675,-1.5116 -8.89283,-3.1078 -9.37296,-3.54713 -0.48302,-0.44198 0.0633,-2.1136 1.22302,-3.74231 1.64375,-2.30843 2.65485,-2.83669 4.6862,-2.44838 2.16429,0.41373 3.41514,-0.43039 7.60696,-5.13351 2.75921,-3.09577 5.65575,-5.62867 6.43676,-5.62867 1.81664,0 1.79701,-2.43942 -0.0692,-8.59107 -0.81904,-2.69991 -1.49404,-5.85169 -1.5,-7.00394 -0.0158,-3.06109 3.56466,-5.86275 7.14394,-5.59002 l 3.03711,0.23142 -3.14176,-5.2732 c -6.60896,-11.09262 -6.7101,-11.44176 -4.11462,-14.20452 2.03555,-2.16675 2.88593,-2.3818 7.43154,-1.8794 6.26721,0.69267 11.60488,3.6371 11.02393,6.08113 -0.24119,1.01469 1.71714,4.4163 4.73784,8.2296 l 5.14896,6.5 -0.56704,-6.5 c -0.42823,-4.90873 -0.21062,-6.894 0.88887,-8.10941 1.22414,-1.3532 3.36629,-14.06031 3.39282,-20.126 0.007,-1.61432 0.35904,-1.59688 5.04461,0.25 2.77036,1.09198 5.24536,1.98541 5.5,1.98541 0.25464,0 0.46298,-5.18357 0.46298,-11.51905 v -11.51905 l 2.75,0.65972 c 3.33563,0.80023 2.53204,-0.0719 5.64655,6.12838 1.45043,2.8875 2.96706,5.23926 3.3703,5.22614 0.40323,-0.0131 2.48075,-0.42928 4.6167,-0.92481 3.3644,-0.78051 4.71497,-0.49095 10.10325,2.16613 l 6.21972,3.06708 -3.29829,13.07937 c -1.81405,7.19365 -3.14935,13.2283 -2.96733,13.41032 0.18202,0.18203 5.11312,-7.95216 10.958,-18.07596 l 10.62704,-18.40691 6.50644,-1.07816 c 5.79798,-0.96075 7.19692,-1.68436 12.84793,-6.64567 3.48782,-3.06214 6.72262,-5.56753 7.18843,-5.56753 0.46581,0 2.49695,1.61119 4.51363,3.58043 l 3.66669,3.58042 4.98866,-2.52794 4.98866,-2.52795 2.48292,2.69752 c 2.1311,2.31529 2.36227,3.19346 1.63139,6.19752 -1.1339,4.66058 -0.10568,13.50484 2.17687,18.72444 1.64178,3.75431 1.78216,6.06357 1.26146,20.75 -0.52003,14.66749 -0.40757,16.52556 1.00015,16.52556 1.91552,0 2.06509,-0.47375 4.73585,-15 3.12295,-16.98569 3.02327,-16.66812 4.56856,-14.55482 1.15073,1.57372 1.65808,1.03265 4.77479,-5.09218 2.69272,-5.29162 4.40437,-7.36564 7.51256,-9.103 2.21392,-1.2375 4.38615,-2.2492 4.82719,-2.24821 0.44103,9.8e-4 1.99775,1.91348 3.45937,4.25 2.2398,3.5805 2.81293,6.05572 3.64643,15.74821 0.55949,6.50607 0.63137,13.8884 0.16552,17 -0.45289,3.025 -0.81958,6.4 -0.81486,7.5 0.01,2.29151 0.93435,0.32587 5.29142,-11.25 1.90536,-5.06216 3.23866,-7.25 4.41824,-7.25 0.92917,0 4.68495,3.0375 8.34617,6.75 l 6.65678,6.75 -0.89001,10.5 c -0.4895,5.775 -0.89531,11.85 -0.90179,13.5 -0.0114,2.89898 0.04,2.93265 1.52488,1 0.84516,-1.1 1.93251,-2.675 2.41632,-3.5 0.69965,-1.19306 2.52729,0.13222 8.93153,6.47654 6.58842,6.52677 8.05188,8.53451 8.05188,11.04645 0,3.00624 -0.13999,3.0945 -6.75,4.25558 -9.7668,1.71559 -13.55668,2.94033 -17.60965,5.69075 -3.02754,2.05454 -6.60257,2.83736 -22.59406,4.94739 -10.44858,1.37866 -20.32356,3.19243 -21.94439,4.03059 l -2.94697,1.52394 -15.12436,-12.60948 -15.12437,-12.60948 -21.7031,-5.14405 c -18.90594,-4.48106 -21.83032,-5.43172 -22.69023,-7.37614 -0.54292,-1.22765 -1.25826,-2.23209 -1.58965,-2.23209 -0.33139,0 -5.06219,-2.9428 -10.51287,-6.53956 -10.44165,-6.89014 -13.06937,-8.02936 -15.2448,-6.60918 -1.06318,0.69407 -0.71436,2.09957 1.71586,6.91382 l 3.05032,6.04265 -4.64558,3.02191 -4.64558,3.02191 -4.75076,-2.40739 -4.75076,-2.40739 -14.31953,6.91498 c -7.87574,3.80324 -16.32746,7.56879 -18.78161,8.36787 -5.16687,1.68238 -6.49692,3.68038 -2.44999,3.68038 4.64832,0 6.3831,2.44905 5.71723,8.07123 -0.56985,4.81149 -0.51081,4.93932 5.05914,10.95553 3.09964,3.34798 5.63571,6.47706 5.63571,6.95351 0,1.08939 -4.94283,7.01973 -5.8508,7.01973 -0.37016,0 -2.92475,-2.25174 -5.67687,-5.00386 z"
       id="path1" />
  </g>
</svg>
