<?xml version="1.0" encoding="UTF-8" standalone="no"?>
<!-- Created with Inkscape (http://www.inkscape.org/) -->

<svg
   version="1.1"
   id="svg1"
   width="215.58917"
   height="251.99995"
   viewBox="0 0 215.58917 251.99995"
   xmlns="http://www.w3.org/2000/svg"
   xmlns:svg="http://www.w3.org/2000/svg">
  <defs
     id="defs1" />
  <g
     id="g1"
     transform="translate(-1359.8587,-76.519573)">
    <path
       d="m 1437.5231,323.65914 c 0,-6.49184 -1.0922,-14.13957 -2.0193,-14.13957 -0.4111,0 -1.0278,1.0125 -1.3704,2.25 l -0.623,2.25 -1.9769,-2.5 c -1.0873,-1.375 -2.7338,-4.525 -3.659,-7 -2.6654,-7.13117 -3.3486,-6.91971 -3.392,1.05 l -0.041,7.45 -2.8311,-3.30855 c -1.6667,-1.94784 -3.7498,-6.47185 -5.0651,-11 -1.2287,-4.2303 -3.9864,-10.93275 -6.1283,-14.89435 -2.1418,-3.96159 -3.9297,-8.01159 -3.9731,-9 -0.052,-1.18155 -0.4254,-0.84789 -1.0905,0.97415 -0.6977,1.91164 -0.6718,3.74553 0.083,5.91216 1.6233,4.65659 0.5999,4.55041 -2.5892,-0.26862 -2.5237,-3.81354 -2.8217,-5.12958 -2.7945,-12.34176 0.017,-4.60161 0.6151,-9.36304 1.39,-11.07303 l 1.3596,-3 1.3396,4.39867 c 0.7367,2.41927 2.0237,5.15471 2.86,6.07874 0.8362,0.92404 1.5204,2.67949 1.5204,3.90099 0,2.90252 2.2216,7.12194 5.0672,9.62396 2.2712,1.99699 2.2717,1.99699 1.5323,-0.002 -1.5755,-4.26066 -1.769,-7.45649 -0.6554,-10.83049 1.6901,-5.12125 3.0496,-5.87188 9.1654,-5.06059 6.943,0.92102 9.3722,3.36697 10.1884,10.25869 0.6168,5.20819 4.1031,13.79109 7.1324,17.55939 2.3037,2.86578 2.5672,1.69291 0.9877,-4.39627 -1.8207,-7.01892 -1.7998,-12.3917 0.062,-15.99223 1.1551,-2.2337 2.9666,-3.35097 8.25,-5.08813 9.5781,-3.14927 13.4998,-5.30924 17.1146,-9.42625 3.7343,-4.25315 3.9636,-5.58612 0.9053,-5.26233 -2.0493,0.21696 -2.3072,-0.29702 -2.8915,-5.76179 -0.3528,-3.3 -0.6903,-8.97074 -0.75,-12.60165 l -0.1085,-6.60166 6.0978,-6.89834 c 9.2144,-10.42404 9.1972,-10.36974 7.8501,-24.69154 -1.6324,-17.35643 -1.8296,-16.25111 3.9414,-22.09475 l 5.1394,-5.20397 -3.0895,-5.70405 -3.0885,-5.7044 h 3.6913 c 3.0929,0 4.7883,-0.97264 10.46,-6.00094 l 6.7687,-6.00094 10.3651,1.01847 c 15.5301,1.52598 19.133,2.51872 29.5798,8.15047 8.6731,4.67553 9.3936,5.28058 7.7336,6.49441 -1.0068,0.73619 -2.4196,1.33853 -3.1394,1.33853 -2.6615,0 -1.0989,1.91517 7.5959,9.31014 4.8976,4.16546 10.0358,9.06223 11.4182,10.88171 3.7797,4.97486 11.2078,24.80815 9.2912,24.80815 -0.2996,0 -2.6759,-1.35154 -5.2806,-3.00342 -7.2195,-4.57845 -15.0482,-7.12842 -23.3336,-7.60019 -7.2273,-0.41152 -7.3717,-0.37664 -3.9712,0.95936 12.384,4.86544 22.6331,12.90268 27.168,21.30489 3.6999,6.85516 5.2158,17.86297 4.4934,32.62989 -0.8222,16.8047 -0.7776,16.69899 -7.0568,16.75643 l -5.1334,0.0469 -8.4815,14.48643 -8.4816,14.48642 -8.1602,-0.66212 c -8.5004,-0.68971 -19.3767,0.16639 -19.3767,1.52518 0,0.43225 2.7,2.45244 6,4.48932 3.3,2.03687 6,4.09317 6,4.56955 0,0.47638 -1.1169,1.74469 -2.482,2.81846 -1.9002,1.49472 -4.7714,2.10568 -12.25,2.60667 -5.3724,0.3599 -11.4353,0.90016 -13.4731,1.20058 -3.6716,0.54128 -3.7465,0.48156 -8.2902,-6.60712 l -4.5852,-7.15333 5.7902,-7.89401 c 4.4997,-6.13448 6.3475,-7.90477 8.2903,-7.94229 4.1917,-0.0809 5.0146,-1.33721 5.6267,-8.58965 0.3215,-3.8104 2.4076,-12.6655 4.6357,-19.678 3.6709,-11.55339 4.271,-12.75 6.3943,-12.75 2.1378,0 2.3433,0.42821 2.3433,4.88337 0,4.17233 0.3165,4.96613 2.1735,5.45176 2.9392,0.7686 3.8243,0.0436 3.8384,-3.14415 0.017,-3.94157 2.3879,-12.20014 5.3742,-18.72314 1.4376,-3.14024 2.6139,-5.88015 2.6139,-6.08868 0,-0.20854 -0.997,-0.37916 -2.2157,-0.37916 -1.26,0 -4.1713,1.88892 -6.75,4.37955 -3.4963,3.37697 -5.5072,4.49981 -8.7843,4.90485 -2.3375,0.28891 -4.25,0.33618 -4.25,0.10506 0,-0.23113 1.6393,-2.88917 3.6428,-5.90676 l 3.6429,-5.48652 -2.5287,-5.58912 -2.5287,-5.58912 2.513,-5.82427 c 4.1633,-9.64882 1.3999,-16.25278 -8.9611,-21.41592 -6.7291,-3.35327 -8.0183,-3.2609 -12.6293,0.90485 -5.7529,5.19747 -9.3509,10.89259 -9.3509,14.80135 0,8.60917 9.1432,18.89575 19.4674,21.90184 l 4.7674,1.38812 -3.5508,3.44156 -3.5508,3.44156 -3.0173,-3.22851 c -4.7196,-5.04997 -6.4448,-4.13015 -2.8537,1.52148 6.7223,10.57937 7.3204,19.6393 2.3337,35.35032 -3.1073,9.78977 -3.5495,9.37351 -5.4092,-5.09249 -0.6712,-5.22069 -1.6822,-10.62069 -2.2466,-12 -0.8751,-2.13833 -1.2148,-1.08258 -2.3058,7.1656 -2.3021,17.40518 -6.6693,30.3179 -12.2144,36.11464 -2.402,2.51099 -2.7372,2.61037 -3.3732,1 -0.3884,-0.98344 -0.7694,-4.48807 -0.8467,-7.78807 -0.077,-3.3 -0.4963,-6.9 -0.931,-8 -0.6445,-1.63056 -0.9219,-1.23198 -1.5021,2.15777 -0.3913,2.28677 -1.3397,4.98677 -2.1074,6 -1.2969,1.71154 -1.4045,1.6294 -1.5171,-1.15777 -0.1042,-2.57852 -0.3059,-2.32865 -1.4355,1.77849 -1.212,4.40686 -3.9444,9.72151 -4.998,9.72151 -0.2448,0 -1.1164,-1.2375 -1.9369,-2.75 -1.4522,-2.67681 -1.493,-2.57518 -1.532,3.8185 -0.046,7.52002 -2.2392,15.99372 -5.3296,20.59002 -1.8006,2.67804 -2.2917,2.92874 -3.2282,1.64801 -0.9055,-1.23834 -1.3231,-0.78088 -2.3178,2.53897 -1.2812,4.27622 -6.3414,10.1545 -8.7413,10.1545 -1.0356,0 -1.4231,-1.32348 -1.4231,-4.86043 z m -51.5619,-12.3319 -10.0618,-2.98701 -6.6882,-13.41978 c -3.6784,-7.38088 -6.6881,-13.81545 -6.6881,-14.29904 0,-0.48359 1.575,-1.17473 3.5,-1.53586 1.925,-0.36113 3.5,-1.07863 3.5,-1.59445 0,-0.51581 -2.2879,-2.09719 -5.0842,-3.51418 -3.57,-1.80905 -4.9136,-3.0208 -4.5114,-4.06873 0.3149,-0.82081 4.0653,-6.38175 8.3341,-12.35763 6.4658,-9.05139 8.3972,-11.07593 11.5694,-12.12727 4.5152,-1.49649 9.566,-7.41068 10.7277,-12.56171 l 0.8081,-3.58285 -3.1719,3.07247 c -2.8868,2.79643 -3.5158,2.99479 -7.001,2.20786 -2.1061,-0.47553 -4.0287,-1.06408 -4.2725,-1.30787 -0.2438,-0.2438 4.1793,-4.71921 9.8292,-9.94535 9.1658,-8.47841 10.5149,-9.3932 12.5225,-8.49136 2.1545,0.96783 2.25,1.52662 2.25,13.16718 v 12.15645 l -4.8609,5.04312 c -4.1948,4.35201 -6.6334,8.85408 -8.7266,16.11102 -0.2019,0.69998 -0.9398,1.47412 -1.6398,1.72033 -0.7,0.24621 -2.5683,0.92194 -4.1517,1.50163 l -2.8791,1.05398 5.4063,5.72569 c 4.485,4.74999 5.815,7.04635 7.8051,13.47569 2.3078,7.45583 2.5155,7.75073 5.4728,7.76933 2.8183,0.0177 3.433,0.69367 7.3933,8.13062 2.3756,4.4612 3.9506,8.44693 3.5,8.85717 -0.7687,0.69973 -12.1459,5.11295 -12.6069,4.89022 -0.1169,-0.0565 -4.7403,-1.44681 -10.2744,-3.08967 z m 47.1495,-51.30767 c -2.0753,-2.23923 -3.1006,-2.5 -9.8298,-2.5 -5.4582,0 -7.8534,0.41024 -8.7578,1.5 -3.0884,3.72125 -6.6023,-0.33192 -5.619,-6.48124 0.3267,-2.04309 1.3808,-5.47063 2.3424,-7.61674 l 1.7485,-3.90202 0.2706,4 c 0.5563,8.22451 1.2598,10.5 3.2461,10.5 3.0573,0 5.0114,-3.87406 5.0114,-9.93544 0,-5.35797 -0.1327,-5.6159 -5.5,-10.69145 -4.3002,-4.06643 -5.5,-5.85865 -5.5,-8.21564 0,-3.07476 2.1771,-6.15747 4.3486,-6.15747 0.6631,0 3.1191,-3.85812 5.4578,-8.5736 2.4911,-5.02294 4.7576,-8.40763 5.4728,-8.17285 1.9717,0.64724 13.533,15.94598 14.7737,19.54956 1.8538,5.38425 0.6516,7.78206 -4.5595,9.09424 -2.6353,0.66357 -6.1949,2.64503 -8.5115,4.73797 -3.7655,3.40188 -3.9819,3.91053 -3.9819,9.3586 0,6.3059 0.8089,7.5173 6.0171,9.01099 2.8201,0.80879 3.5508,0.58108 6.0027,-1.87082 2.7978,-2.79785 4.9642,-8.49571 4.9746,-13.08409 0.01,-3.66564 1.5507,-1.43916 3.9268,5.66845 2.6963,8.06551 2.6211,10.83012 -0.3757,13.827 -3.281,3.28092 -7.8929,3.26179 -10.9579,-0.0455 z m -13.7936,-30.1335 c 0.3381,-2.2732 -3.1455,-5.8853 -4.731,-4.90544 -1.5805,0.97679 -1.2865,4.1726 0.5531,6.01215 1.9931,1.99314 3.7876,1.5178 4.1779,-1.10671 z m 11.178,0.64779 c 2.1408,-1.09214 4.152,-2.40586 4.4693,-2.91938 0.7287,-1.17897 -2.1175,-4.09491 -3.997,-4.09491 -2.4754,0 -7.843,5.51871 -7.1426,7.34376 0.822,2.14206 1.9333,2.08716 6.6703,-0.32947 z m 18.2344,-3.13995 c -0.5843,-1.44411 -1.5543,-4.45272 -2.1556,-6.6858 -0.8043,-2.98671 -2.6017,-5.38325 -6.7985,-9.06454 -3.1379,-2.75241 -5.4495,-5.26012 -5.1369,-5.5727 0.3125,-0.31257 3.8399,0.78082 7.8386,2.42975 l 7.2704,2.99805 10.3878,-8.01908 c 10.101,-7.79766 10.3878,-7.94235 10.3878,-5.24033 0,2.1717 -1.8464,4.5719 -8.4516,10.98677 -7.5301,7.31299 -8.6604,8.89421 -10.3657,14.50078 -1.8281,6.0104 -1.9616,6.17495 -2.9763,3.6671 z m -40.3643,-12.62434 c -1.4767,-3.66371 -2.3287,-13.25 -1.1777,-13.25 1.1062,0 8.3356,8.50428 8.3356,9.8056 0,1.35314 -3.9838,6.1944 -5.0973,6.1944 -0.5237,0 -1.451,-1.2375 -2.0606,-2.75 z m 93.67,-3.23661 c -1.4296,-1.57973 -1.5903,-2.33519 -0.6885,-3.23702 0.647,-0.647 1.1764,-2.86085 1.1764,-4.91967 0,-2.62349 0.605,-4.16705 2.0224,-5.15984 2.3576,-1.65134 1.7675,-4.31138 -1.1628,-5.24141 -2.8129,-0.8928 -5.1351,1.40876 -4.5288,4.48854 0.6956,3.53297 -0.3107,8.05601 -1.7924,8.05601 -1.7725,0 -4.5384,-3.34633 -4.5384,-5.49088 0,-1.00837 1.144,-3.78544 2.5422,-6.17126 2.1021,-3.58707 3.0609,-4.33786 5.5398,-4.33786 1.6487,0 4.7797,0.90915 6.9578,2.02032 3.6817,1.87826 3.958,2.31775 3.9295,6.25 -0.038,5.17078 -3.8994,15.09253 -6.0345,15.50371 -0.8568,0.16501 -2.397,-0.62728 -3.4227,-1.76064 z m -81.2518,-16.26339 c -0.5415,-0.6875 -1.2576,-2.39747 -1.5912,-3.79993 -0.3863,-1.62347 -1.9021,-3.1676 -4.1719,-4.25 -4.614,-2.20026 -4.9238,-2.14725 -3.0539,0.52244 1.5873,2.26621 2.1666,7.81655 0.8067,7.72946 -0.4125,-0.0264 -2.3145,-0.81392 -4.2266,-1.75 -4.6284,-2.2658 -5.9032,-5.93572 -3.9796,-11.45689 2.02,-5.79825 6.9684,-9.08465 12.7288,-8.45367 3.8218,0.41863 4.1429,0.29605 3.0432,-1.1617 -2.1356,-2.83103 -5.253,-5.08444 -7.0658,-5.10747 -1.3944,-0.0177 -1.75,-0.90402 -1.75,-4.36172 0,-3.64546 0.3954,-4.51966 2.4724,-5.466 1.3599,-0.61962 2.7799,-2.35167 3.1558,-3.84936 0.5721,-2.27918 -1.3078,-18.13011 -3.2465,-27.37447 -0.4438,-2.11605 0.017,-2.79056 2.8225,-4.12822 5.9851,-2.8541 9.6364,-6.8012 13.2592,-14.33326 2.9174,-6.06564 5.0172,-8.698872 11.7213,-14.699291 4.492,-4.020454 10.282,-9.447416 12.8667,-12.059916 2.5847,-2.6125 5.3608,-4.75 6.1691,-4.75 1.6443,0 4.7795,3.088684 4.7795,4.708595 0,0.578113 2.4273,2.883758 5.394,5.123656 8.5652,6.466735 14.3445,14.513276 17.5571,24.444706 0.993,3.06961 2.1888,4.26265 6.3854,6.3703 2.8399,1.42634 5.3391,2.75228 5.5537,2.94653 0.6639,0.60107 -7.8898,11.40621 -9.0296,11.40621 -2.6273,0 -14.2796,-6.47866 -17.9752,-9.99426 -3.9392,-3.74723 -4.0478,-3.78487 -3.4262,-1.18781 1.631,6.81432 5.0128,11.66681 10.0408,14.40732 2.75,1.49888 5.45,2.88757 6,3.08598 0.55,0.1984 -0.7176,2.45954 -2.8169,5.02475 -4.9018,5.98958 -8.0761,6.22176 -14.3849,1.05216 -2.4243,-1.98652 -4.5621,-3.44902 -4.7507,-3.25 -0.1886,0.19902 0.4545,2.92385 1.4291,6.05517 1.1487,3.69089 3.4675,7.67801 6.5928,11.33626 l 4.8209,5.64297 -3.9451,3.37948 c -2.3064,1.97566 -4.5683,3.13997 -5.4452,2.80289 -4.1601,-1.59916 -15.1656,-1.5634 -19.4245,0.0631 -7.8641,3.00333 -7.5856,4.34643 0.79,3.80892 9.0699,-0.58207 13.5643,0.79019 17.5845,5.36891 4.441,5.05804 4.0152,7.42493 -2.3078,12.82683 -2.9468,2.51752 -5.9843,4.56992 -6.75,4.56087 -0.7657,-0.009 -3.1922,-1.05378 -5.3922,-2.32162 l -4,-2.30517 -6.9252,2.32162 c -3.8088,1.27689 -7.4088,2.31716 -8,2.31171 -0.5911,-0.005 -2.5373,-2.12483 -4.3248,-4.70972 l -3.25,-4.69982 v 4.70972 c 0,3.94068 -0.3066,4.70973 -1.8776,4.70973 -1.0326,0 -2.3206,-0.5625 -2.8621,-1.25 z m 14.5256,-26.61322 c 3.6278,-2.3975 4.0598,-3.01992 2.814,-4.05391 -1.1414,-0.94726 -1.3455,-2.72896 -0.9091,-7.93514 0.4991,-5.95307 0.2557,-7.3198 -2.1487,-12.06471 l -2.7116,-5.35111 -3.9121,5.88404 c -3.4944,5.25592 -3.9124,6.54594 -3.9152,12.08436 0,4.78723 -0.3896,6.41657 -1.6988,7.1492 -1.5358,0.85952 -1.4417,1.28174 1,4.48297 1.4826,1.94374 2.6956,4.2023 2.6956,5.01901 0,0.81671 0.3074,2.28595 0.6831,3.26498 0.553,1.4412 0.9813,1.07313 2.25,-1.93365 0.9608,-2.2772 3.2247,-4.80925 5.8528,-6.54604 z"
       id="path1" />
  </g>
</svg>
