<?xml version="1.0" encoding="UTF-8" standalone="no"?>
<!-- Created with Inkscape (http://www.inkscape.org/) -->

<svg
   version="1.1"
   id="svg1"
   width="208.42838"
   height="237.69009"
   viewBox="0 0 208.42838 237.69009"
   xmlns="http://www.w3.org/2000/svg"
   xmlns:svg="http://www.w3.org/2000/svg">
  <defs
     id="defs1" />
  <g
     id="g1"
     transform="translate(-625.35953,-1068.1477)">
    <path
       d="m 705.12833,1302.0283 -3.7312,-3.8095 -3.3442,3.2413 c -3.2894,3.1883 -3.4278,3.2235 -8.4452,2.1474 -5.1618,-1.107 -10.2483,-4.7072 -10.2483,-7.2538 0,-0.7727 1.8864,-1.942 4.25,-2.6343 5.1702,-1.5144 11.5816,-5.1232 14.1562,-7.9681 2.6506,-2.9288 4.8563,-2.6441 10.7102,1.3827 6.5451,4.5023 11.2781,5.7288 22.6336,5.8656 8.2845,0.1 9.25,0.304 9.25,1.9567 0,2.7471 -5.1186,7.3501 -9.5788,8.6139 -2.1567,0.6111 -7.9712,1.3713 -12.9212,1.6893 l -9,0.5783 z m -29.1857,-17.8524 c -5.6401,-2.0264 -8.6276,-5.4333 -9.3176,-10.6256 -0.4064,-3.0589 -2.2128,-6.7831 -5.9187,-12.2024 -5.742,-8.3968 -7.1985,-12.1265 -5.6773,-14.5381 2.6047,-4.1293 7.0218,-3.9756 12.2533,0.4265 3.4115,2.8706 3.7649,2.2923 1.66,-2.7165 -2.4019,-5.7156 -7.357,-11.7072 -12.4924,-15.1054 -5.8559,-3.875 -6.4887,-6.1431 -5.0084,-17.9494 1.8415,-14.6857 7.7718,-27.284 15.8487,-33.6684 l 4.8246,-3.8136 -3.6481,-5.4268 c -5.3407,-7.9451 -7.1212,-14.5185 -8.1009,-29.9085 -0.4727,-7.425 -1.6171,-15.975 -2.5432,-19 -1.5272,-4.9886 -5.0915,-13 -5.7836,-13 -0.1539,0 0.1105,3.7125 0.5876,8.25 0.4771,4.5375 0.518,15.45 0.091,24.25 -0.4271,8.8 -0.7441,17.8154 -0.7046,20.0342 0.076,4.2581 2.309,9.5723 5.4852,13.0534 1.8747,2.0546 1.8726,2.1283 -0.1309,4.6754 -7.4976,9.5316 -15.1067,34.1026 -15.1601,48.9544 -0.018,5.085 0.5853,8.0487 2.4839,12.1958 l 2.5081,5.4783 -1.9199,3.7657 c -1.0559,2.0711 -1.9198,5.6895 -1.9198,8.0408 0,3.9962 0.2447,4.3769 3.75,5.8349 9.1901,3.8223 15.441,10.6956 8,8.7966 -1.7875,-0.4562 -7.8675,-0.8295 -13.5111,-0.8295 -8.7438,0 -10.1647,-0.2218 -9.6094,-1.5 1.2899,-2.9692 3.3705,-11.4846 3.3705,-13.7949 0,-2.9142 -5.1091,-8.2051 -7.9231,-8.2051 -1.1423,0 -2.0769,-0.2473 -2.0769,-0.5497 0,-1.7994 3.4669,-6.6895 6.5364,-9.2197 l 3.5781,-2.9494 -2.0485,-3.93 c -3.3886,-6.5013 -4.4813,-14.1933 -3.2205,-22.6708 1.8404,-12.3736 3.3249,-14.5315 7.7134,-11.2122 1.0676,0.8075 2.2786,1.4825 2.6911,1.5 1.6499,0.07 0.5992,-5.4747 -1.9117,-10.0879 -1.4639,-2.6897 -2.3891,-5.1629 -2.056,-5.496 0.3331,-0.3331 3.5559,-0.8424 7.1617,-1.1319 3.6058,-0.2894 6.5495,-0.8021 6.5414,-1.1393 -0.01,-0.3372 -0.6507,-2.4385 -1.4283,-4.6695 -1.0796,-3.0975 -1.5315,-12.7898 -1.9116,-41 -0.3515,-26.0818 -0.9165,-39.0752 -1.922,-44.1936 -0.7833,-3.9875 -1.3033,-7.25 -1.1554,-7.25 0.1478,0 1.2625,1.6079 2.4771,3.5732 3.4435,5.5717 4.6419,2.7163 1.4793,-3.5248 -1.9038,-3.757 -2.5389,-6.3508 -2.2949,-9.3716 l 0.3375,-4.1768 4.4439,9.5 c 11.2321,24.0117 18.6398,38.1253 26.1188,49.7629 4.4525,6.9282 8.9227,14.5268 9.9339,16.8856 2.9915,6.979 5.8186,6.8153 19.4363,-1.1258 3.3,-1.9244 6.3026,-3.5042 6.6724,-3.5108 0.3699,-0.01 1.2025,1.5939 1.8502,3.5566 1.3946,4.2258 1.4158,4.221 11.4743,-2.5664 l 7.5031,-5.063 v 5.4366 5.4366 l 5.1128,0.7032 5.1127,0.7032 6.1373,-5.9794 c 3.3754,-3.2886 13.5622,-11.4914 22.6372,-18.2285 13.3173,-9.8864 20.5025,-16.2616 37.25,-33.0512 11.8229,-11.8525 20.75,-20.0802 20.75,-19.1242 0,3.5366 -1.983,8.3206 -4.9318,11.898 -1.6875,2.0473 -3.0682,4.0698 -3.0682,4.4944 0,1.6972 3.4177,0.6095 7,-2.2278 2.0833,-1.65 4.0356,-3 4.3385,-3 0.7486,0 -3.3816,10.127 -4.8942,12 -5.1676,6.3992 -8.0038,17.6387 -8.958,35.5 -0.8586,16.0716 -2.1363,23.0511 -5.2811,28.8483 -2.9988,5.528 -10.3452,12.5133 -17.69,16.8205 l -5.0152,2.941 8.7502,-0.3049 c 5.0621,-0.1764 8.8866,0.1048 9.0739,0.667 0.1781,0.5346 -1.1324,2.8797 -2.9122,5.2114 -3.5054,4.5924 -5.0377,9.3889 -3.733,11.6857 0.6978,1.2284 1.999,1.0732 8.6659,-1.0336 4.3147,-1.3635 8.1114,-2.2125 8.4371,-1.8868 1.1444,1.1443 0.2339,16.7026 -1.3367,22.8434 -0.8734,3.4144 -2.8903,8.5363 -4.4822,11.3819 l -2.8942,5.174 5.2486,2.9621 c 7.9948,4.512 8.5285,5.6233 3.4255,7.1325 -2.3336,0.6901 -5.0304,1.9551 -5.9929,2.8111 -2.5121,2.2342 -2.1756,7.9598 0.7708,13.1138 l 2.4966,4.3675 -6.6565,-0.7129 -6.6566,-0.7129 0.68,6.6378 0.6801,6.6377 -3.2822,-1.7923 c -2.6691,-1.4575 -5.5239,-1.7769 -15.2822,-1.7098 -10.0689,0.069 -13.2562,0.4976 -19.8063,2.6617 -6.7064,2.2157 -7.7622,2.3502 -7.4934,0.9545 0.5753,-2.9878 10.0253,-9.1629 17.2997,-11.3046 3.85,-1.1335 7.5625,-2.2343 8.25,-2.4461 2.0623,-0.6356 1.5333,-9.2535 -0.7998,-13.0285 l -2.0498,-3.3167 2.9014,-1.5003 c 4.3296,-2.239 8.9979,-8.0668 9.8775,-12.3311 1.2412,-6.0174 0.6766,-22.1841 -1.0266,-29.393 -1.8915,-8.0062 -5.4458,-16.2638 -9.5977,-22.2985 l -3.0802,-4.4769 7.2522,-4.2356 c 7.9646,-4.6516 16.1745,-11.8094 18.3332,-15.9838 2.0276,-3.9211 3.1973,-9.9491 4.4402,-22.8836 1.1683,-12.158 3.3204,-22.4767 5.1468,-24.6774 1.5568,-1.8758 -0.1319,-1.6316 -3.6472,0.5274 -7.3036,4.4856 -13.3498,12.6859 -20.7556,28.15 -2.5023,5.225 -6.3595,12.2059 -8.5715,15.5131 -3.9091,5.8443 -14.735,16.8962 -20.5989,21.0289 l -2.8974,2.042 5.3103,3.4076 c 11.0352,7.0813 17.6434,24.9829 14.944,40.4838 -1.0017,5.7522 -1.5255,6.8211 -3.7965,7.7479 -10.3953,4.2421 -15.7484,7.2709 -20.1839,11.4198 -2.8066,2.6252 -5.5471,5.6032 -6.0901,6.6177 -0.9114,1.7029 -0.6701,1.6827 3.1446,-0.2634 2.2725,-1.1593 6.3259,-2.3677 9.0076,-2.6853 4.4706,-0.5295 5.1299,-0.3235 7.9316,2.4783 6.0246,6.0245 3.8044,11.0867 -8.4442,19.2534 -9.1843,6.1236 -12.6966,9.4198 -15.1127,14.1832 -3.1804,6.2701 -6.3041,7.773 -16.1561,7.773 -14.6108,0 -24.2312,-4.8881 -24.2312,-12.3118 0,-3.1493 0.3102,-3.5238 3.3986,-4.1032 6.6083,-1.2397 11.6014,-7.4923 11.6014,-14.5279 0,-2.8747 -0.1431,-2.9752 -3.25,-2.2821 -4.3565,0.9718 -23.3106,0.9242 -28,-0.07 l -3.75,-0.7953 v 4.9686 c 0,5.8445 3.0584,10.2905 8.4102,12.2257 3.0522,1.1037 3.2541,1.4399 2.58,4.2968 -1.3859,5.8742 -3.2782,8.5608 -7.394,10.4975 -5.9446,2.7972 -9.5856,3.2208 -14.013,1.6302 z m 25.3137,-67.0282 c 1.7737,-6.7224 1.271,-11.2861 -2.0745,-18.8324 -3.8628,-8.7135 -4.7218,-16.5792 -2.4137,-22.1033 0.8897,-2.1293 1.4969,-3.9148 1.3494,-3.9678 -0.1474,-0.053 -1.6915,-1.3829 -3.4312,-2.9552 l -3.1632,-2.8586 -1.5259,2.9508 c -1.5658,3.0279 -11.6341,11.6603 -19.6378,16.8372 -2.475,1.6008 -4.7841,3.305 -5.1314,3.787 -0.6552,0.9096 9.4597,10.6423 11.0602,10.6423 0.4992,0 1.7319,0.2971 2.7394,0.6601 1.5478,0.5578 1.4829,0.2764 -0.4182,-1.8144 -5.7043,-6.2737 0.777,-17.0687 8.2137,-13.6803 5.3817,2.4521 7.8464,12.281 7.983,31.8346 0.091,13.0684 0.409,16.1275 2.0248,19.5 l 1.9165,4 0.7268,-10 c 0.3997,-5.5 1.2017,-11.8 1.7821,-14 z m 11.1383,11.5 c 1.4864,-4.4032 2.2698,-9.4032 2.4287,-15.5 0.275,-10.5518 3.6892,-20.3993 9.0394,-26.0722 2.833,-3.0038 3.8367,-3.4251 8.1148,-3.4058 5.2826,0.024 13.0709,3.0041 13.9695,5.3457 0.8631,2.2492 -2.3378,7.5092 -5.8861,9.6728 -1.7608,1.0736 -2.5265,1.9512 -1.7015,1.9502 3.9788,0 9.6075,-2.5069 13.3547,-5.9362 2.2799,-2.0865 5.1578,-4.1076 6.3953,-4.4914 3.872,-1.2009 2.4505,-3.3643 -3.5336,-5.3777 -1.806,-0.6076 -5.856,-2.8721 -9,-5.0322 -3.144,-2.1601 -8.3039,-5.5477 -11.4664,-7.5279 -3.1625,-1.9803 -5.75,-4.3292 -5.75,-5.2199 0,-1.9107 -1.2414,-1.5406 -6.9767,2.0799 -3.4447,2.1746 -4.0095,2.9717 -3.4082,4.8106 1.8943,5.7927 0.6932,11.2063 -4.9421,22.2758 l -5.5635,10.9283 -0.4571,16.9096 c -0.4507,16.6733 -0.4316,16.869 1.3658,14 1.0026,-1.6003 2.8103,-5.8346 4.017,-9.4096 z m 11.9648,5.4856 c 3.025,-0.8199 11.35,-2.4116 18.5,-3.5372 7.15,-1.1256 13.9713,-2.6828 15.1583,-3.4605 3.8501,-2.5221 7.5997,-11.8279 8.1366,-20.193 0.4029,-6.2787 0.2504,-7.4028 -0.9052,-6.6728 -0.7643,0.4829 -3.8647,2.4813 -6.8897,4.4411 -3.025,1.9597 -10.5911,5.7419 -16.8137,8.4048 -15.1696,6.4917 -18.4674,8.9946 -21.091,16.0067 -2.0517,5.4837 -2.3502,6.5374 -1.8453,6.5134 0.1375,-0.01 2.725,-0.6826 5.75,-1.5025 z m -37.6841,-9.27 c -1.1981,-2.4515 -4.7077,-5.8612 -10.3159,-10.0222 -4.675,-3.4686 -9.7242,-7.4776 -11.2205,-8.9088 -2.574,-2.4622 -2.7623,-2.4995 -3.5,-0.6934 -0.4287,1.0498 -0.7795,5.3099 -0.7795,9.4668 0,10.8884 0.6588,11.5826 15.0861,15.8952 l 11.9139,3.5614 0.3159,-2.7917 c 0.1738,-1.5354 -0.5012,-4.4637 -1.5,-6.5073 z"
       id="path1" />
  </g>
</svg>
