<?xml version="1.0" encoding="UTF-8" standalone="no"?>
<!-- Created with Inkscape (http://www.inkscape.org/) -->

<svg
   version="1.1"
   id="svg1"
   width="227.84521"
   height="244.11211"
   viewBox="0 0 227.84521 244.11211"
   xmlns="http://www.w3.org/2000/svg"
   xmlns:svg="http://www.w3.org/2000/svg">
  <defs
     id="defs1" />
  <g
     id="g1"
     transform="translate(-1112.8247,-658.30182)">
    <path
       d="m 1226.522,897.95163 c -0.9126,-2.45427 -2.1598,-9.86231 -2.7717,-16.46231 -0.642,-6.92596 -2.1696,-15.44332 -3.6127,-20.14338 -2.4622,-8.0193 -2.4751,-8.24024 -0.8474,-14.5 1.1759,-4.52262 1.4321,-7.79921 0.8878,-11.35662 -0.4207,-2.75 -0.7815,-8.88656 -0.8017,-13.63679 -0.03,-7.1686 -0.339,-8.82553 -1.8146,-9.74704 -1.514,-0.94555 -1.8632,-0.70274 -2.3538,1.63679 -3.0247,14.42466 -3.8282,15.93048 -11.8753,22.25447 -3.4967,2.74795 -7.0839,6.10461 -7.9715,7.45924 -2.0621,3.14727 -2.0633,7.91756 0,11.06242 1.4814,2.26084 1.4814,2.78278 0,6.48505 -3.1188,7.79473 -1.2954,15.71994 5.3611,23.30124 3.941,4.48857 2.2281,4.83159 -4.0969,0.82041 -7.7977,-4.94512 -11.4953,-11.20794 -12.5446,-21.2472 -0.4944,-4.73036 -0.9981,-5.87168 -2.9918,-6.78008 -5.2911,-2.41078 -4.6697,-8.87672 1.7632,-18.3472 2.1692,-3.19352 3.898,-6.94527 3.898,-8.4592 0,-2.01805 1.326,-3.893 5.1355,-7.26131 19.986,-17.67184 27.5175,-29.07301 32.3958,-49.0408 1.4109,-5.775 3.4784,-12.9726 4.5945,-15.99466 2.6217,-7.099 10.9651,-21.13034 12.3247,-20.72693 0.5773,0.17126 2.0663,2.33841 3.3089,4.81589 1.7131,3.4152 2.4861,7.39444 3.1969,16.4551 0.5156,6.57283 1.6204,14.2006 2.4551,16.9506 2.1273,7.00838 7.8477,16.30061 12.8507,20.87452 l 4.2379,3.87451 -3.5,-0.72591 c -9.0783,-1.88288 -17.735,-7.54222 -23.2203,-15.1804 -1.7758,-2.47269 -3.4034,-3.97165 -3.6169,-3.33102 -0.7734,2.32005 2.0748,13.62989 4.9674,19.72562 2.5428,5.35841 4.3654,7.37556 12.9343,14.31493 10.4914,8.49624 12.3468,10.60677 13.5224,15.38169 0.3972,1.61367 2.4599,5.21367 4.5837,8 7.0849,9.29518 7.6118,16.49269 1.3583,18.55651 -3.3763,1.1143 -3.4561,1.26134 -2.8973,5.33805 1.2633,9.21697 -4.1927,18.38845 -13.8504,23.28237 l -4.8457,2.45551 3.7566,-5.65786 c 3.2186,-4.84759 3.811,-6.62073 4.1365,-12.38123 0.264,-4.67159 -0.08,-7.61274 -1.1271,-9.63769 -1.4229,-2.75147 -1.3671,-3.07705 0.9982,-5.82684 1.9895,-2.31296 2.39,-3.62256 1.9455,-6.36167 -0.7021,-4.32656 -2.905,-6.78836 -8.708,-9.73117 -6.0055,-3.04552 -6.3909,-3.59797 -9.7944,-14.04029 -2.2847,-7.00978 -3.3117,-8.92963 -4.7766,-8.92963 -2.8307,0 -4.089,13.65158 -3.2294,35.03791 0.3017,7.5084 0.051,9.51538 -1.4815,11.8593 -1.4203,2.17241 -2.0828,6.18455 -2.8801,17.44238 -0.5695,8.04153 -1.5543,16.41289 -2.1884,18.603 l -1.1529,3.98202 z m -73.4754,-81.21231 c -3.2603,-3.57948 -4.2993,-6.29201 -4.2993,-11.2241 0,-5.84698 3.1059,-12.02687 7.2904,-14.50583 6.6427,-3.93532 7.209,-5.91969 3.3216,-11.64051 l -2.3881,-3.51434 -3.1396,5.48758 c -2.3703,4.14277 -4.4195,6.21237 -8.362,8.44511 -8.3497,4.72871 -9.0801,5.9568 -8.4854,14.26796 0.5636,7.87804 -0.1887,7.95962 -4.1402,0.44894 -3.7075,-7.04698 -2.2219,-15.25394 3.9792,-21.98134 3.5584,-3.86035 3.9241,-4.7619 3.9241,-9.67279 0,-3.28314 0.613,-6.29083 1.5567,-7.63817 2.0135,-2.87464 0.3139,-2.92367 -4.2197,-0.12174 -3.6207,2.23773 -6.6217,7.17824 -7.8354,12.89923 -1.2149,5.72711 -3.3214,8.8695 -7.2722,10.84829 -8.6173,4.31611 -13.6449,3.68416 -7.2935,-0.91677 4.8676,-3.52606 8.0641,-9.44175 8.0641,-14.9238 0,-9.61792 6.1052,-15.95589 20.8871,-21.68339 5.2584,-2.03747 10.5836,-4.8082 11.8338,-6.15718 2.0858,-2.25055 2.771,-2.40065 8.3144,-1.82125 11.8608,1.23969 20.1974,7.07257 27.1763,19.01432 2.2324,3.82008 3.2209,4.63978 5.595,4.63978 4.372,0 5.9066,-2.57461 9.1598,-15.36768 4.9736,-19.5584 8.8377,-25.46157 17.2076,-26.28799 9.5143,-0.93941 12.2507,4.24658 6.5018,12.32212 -6.0808,8.54155 -13.1823,24.5487 -15.6757,35.33355 -3.0231,13.07596 -11.5609,22.92295 -22.4328,25.87267 l -3.9327,1.06701 4.5882,-4.71984 c 5.4721,-5.6291 9.7772,-11.86348 9.7772,-14.15859 0,-1.30532 -0.7411,-1.57312 -3.4716,-1.25436 -2.9,0.33856 -4.4806,-0.35314 -9.5991,-4.2008 -7.0459,-5.29655 -10.4305,-5.80253 -14.6235,-2.18614 -2.7511,2.37278 -2.8002,2.604 -2.5222,11.86301 0.3213,10.70258 0.3967,10.58621 -9.1674,14.15982 -7.8738,2.94205 -8.9549,4.57919 -8.3751,12.68262 0.2706,3.78103 0.4054,6.8746 0.2997,6.8746 -0.1057,0 -1.1143,-1.0125 -2.2415,-2.25 z m 145.457,-4.58809 c 0.5828,-8.14426 -0.4899,-9.77381 -8.3725,-12.71913 -9.564,-3.57361 -9.4887,-3.45724 -9.1673,-14.15982 0.278,-9.25901 0.2288,-9.49023 -2.5222,-11.86301 -4.0146,-3.46255 -7.6136,-3.13016 -11.6943,1.08005 -3.7263,3.8446 -6.3332,4.44279 -7.6264,1.75 -0.4623,-0.9625 -0.8479,-7.6 -0.857,-14.75 -0.018,-14.39666 -1.2048,-18.5307 -7.6556,-26.67554 -2.8407,-3.58662 -3.2011,-4.78226 -3.3676,-11.1705 -0.3338,-12.8082 -1.3198,-16.32984 -5.802,-20.72349 -4.0599,-3.97975 -6.1152,-4.3467 -9.4414,-1.68564 -1.7153,1.37232 -1.572,5.243 0.25,6.75517 2.6203,2.17464 1.8072,4.86314 -1.75,5.78598 -2.7621,0.7166 -3.5207,0.49934 -5.0536,-1.4473 -0.992,-1.25976 -3.692,-2.79155 -6,-3.40399 -2.308,-0.61244 -5.184,-2.02832 -6.391,-3.14641 -2.9127,-2.69807 -6.1954,-1.81651 -10.1939,2.7376 -3.1828,3.62498 -3.9925,8.36326 -2.2083,12.92314 0.5891,1.50543 -0.1405,2.80811 -3.2055,5.72376 -3.5937,3.41866 -3.9192,4.13915 -3.4499,7.63757 0.2849,2.12455 1.6672,6.26393 3.0717,9.19861 2.3934,5.00106 2.4579,5.52092 1.0276,8.28677 l -1.526,2.95098 -4.5276,-7.87335 c -7.4016,-12.87132 -7.5713,-15.95119 -1.2361,-22.43201 2.9946,-3.0635 3.1446,-3.56555 2.5576,-8.56028 -1.166,-9.92113 -4.769,-13.47585 -10.111,-9.97565 -3.2103,2.10351 -8.0823,10.66828 -9.5509,16.79042 -0.6339,2.64229 -1.5321,4.80416 -1.9961,4.80416 -1.0962,0 -3.957,-4.09016 -3.957,-5.65741 0,-0.66681 -0.469,-2.44602 -1.0422,-3.95379 l -1.0423,-2.7414 -4.6022,6.9263 c -5.7605,8.66957 -5.2922,8.21535 -6.4103,6.21733 -0.5209,-0.93076 -1.6936,-2.43886 -2.6061,-3.35131 -3.3833,-3.3833 -15.0118,0.20057 -23.092,7.11688 -4.6888,4.0135 -5.7199,4.31193 -4.1233,1.1934 2.1569,-4.21276 9.4032,-10.88533 15.6134,-14.37723 7.8328,-4.40428 11.1849,-8.23597 14.8211,-16.94183 4.1606,-9.96143 6.9322,-14.0894 14.4188,-21.47542 17.4834,-17.24849 40.3998,-25.00303 65.0651,-22.01702 13.4716,1.63089 20.2074,3.5296 30.566,8.61604 15.1107,7.41991 25.0262,17.8133 37.2649,39.06088 4.5247,7.85531 8.6558,11.94905 16.5591,16.40941 5.8334,3.29216 9.049,6.3813 10.0358,9.64101 1.125,3.7166 -1.0464,3.49208 -6.2865,-0.65003 -13.0305,-10.3 -20.1393,-10.87908 -20.1393,-1.64057 0,5.88061 -5.5361,4.35268 -7.1274,-1.96714 -0.6171,-2.45044 -2.039,-5.62128 -3.1599,-7.0463 l -2.0381,-2.59096 -2.7756,6.11458 c -1.5266,3.36302 -3.1891,6.11458 -3.6944,6.11458 -0.5053,0 -1.1846,-3.4875 -1.5095,-7.75 -0.6422,-8.42506 -1.9619,-13.73834 -4.1102,-16.54729 -2.076,-2.71456 -15.2329,-6.18409 -18.2456,-4.81143 -2.0038,0.91299 -2.2622,1.52538 -1.6236,3.84727 0.9011,3.27659 0.8724,5.9401 -0.1865,17.33224 -0.7703,8.28747 -0.715,8.65243 1.6727,11.04015 2.0687,2.06874 2.5695,3.76808 3.0867,10.47476 0.8935,11.58674 1.0254,11.74364 5.9969,7.13288 6.1133,-5.66972 11.1897,-7.94468 18.9747,-8.50351 6.2049,-0.4454 6.9462,-0.28444 9.0261,1.95976 1.2462,1.34476 6.5683,4.11203 11.8267,6.1495 14.7818,5.7275 20.887,12.06547 20.887,21.68339 0,5.48205 3.1966,11.39774 8.0642,14.9238 6.3514,4.60093 1.3238,5.23288 -7.2936,0.91677 -3.9507,-1.97879 -6.0572,-5.12118 -7.2722,-10.84829 -1.2136,-5.72099 -4.2146,-10.6615 -7.8353,-12.89923 -4.5336,-2.80193 -6.2332,-2.7529 -4.2198,0.12174 0.9437,1.34734 1.5567,4.35503 1.5567,7.63817 0,4.91089 0.3658,5.81244 3.9241,9.67279 6.2011,6.7274 7.6868,14.93436 3.9792,21.98134 -3.9515,7.51068 -4.7038,7.4291 -4.1401,-0.44894 0.5947,-8.31116 -0.1357,-9.53925 -8.4854,-14.26796 -3.9425,-2.23274 -5.9917,-4.30234 -8.362,-8.44511 l -3.1397,-5.48758 -2.388,3.51434 c -3.8874,5.72082 -3.3212,7.70519 3.3216,11.64051 8.3992,4.9759 9.8112,19.6736 2.5236,26.26881 -1.9475,1.76245 -1.9654,1.70008 -1.477,-5.12697 z"
       id="path1" />
  </g>
</svg>
