<?xml version="1.0" encoding="UTF-8" standalone="no"?>
<!-- Created with Inkscape (http://www.inkscape.org/) -->

<svg
   version="1.1"
   id="svg1"
   width="249.60022"
   height="245.46739"
   viewBox="0 0 249.60022 245.46739"
   xmlns="http://www.w3.org/2000/svg"
   xmlns:svg="http://www.w3.org/2000/svg">
  <defs
     id="defs1" />
  <g
     id="g1"
     transform="translate(-870.20882,-151.40969)">
    <path
       d="m 1070.4431,391.66181 c -6.2169,-6.48458 -17.8728,-15.2421 -26.7131,-20.07051 l -6.713,-3.66656 -0.6033,2.82144 c -1.8667,8.72939 -7.2432,15.95707 -13.2206,17.77276 -2.1022,0.63856 -2.25,0.38663 -2.25,-3.83471 0,-9.78094 -2.5065,-17.11649 -9.6804,-28.33109 l -3.5774,-5.59247 -2.4486,7.76632 -2.4486,7.76631 -2.6725,-2.54976 c -3.58888,-3.42403 -12.62512,-7.49733 -18.16568,-8.1886 -2.47877,-0.30926 -6.38987,-0.79358 -8.69133,-1.07626 l -4.18447,-0.51395 -0.67058,-5.36708 c -0.36881,-2.95189 -0.35621,-7.65273 0.028,-10.4463 l 0.69858,-5.07922 5.32063,0.62534 c 2.92634,0.34393 9.00279,0.0869 13.50322,-0.57112 7.98239,-1.16718 8.27319,-1.1365 11.88566,1.25412 7.57937,5.01582 24.64337,12.48057 25.82607,11.29783 0.217,-0.21698 -0.3127,-2.08724 -1.1772,-4.15613 -0.8644,-2.0689 -1.3666,-3.96672 -1.1159,-4.21739 0.9486,-0.94862 32.1195,22.20479 39.8205,29.57823 l 3.75,3.59051 v -3.32461 c 0,-4.74555 -2.8466,-23.52534 -4.6143,-30.44191 -0.8238,-3.22335 -1.3199,-6.03859 -1.1023,-6.25611 0.6832,-0.68323 7.5061,14.75922 10.1964,23.07778 2.9963,9.26488 4.7579,23.60046 4.3248,35.19368 l -0.3046,8.15474 z M 959.49533,375.69308 c -10.20872,-14.30624 -14.25321,-31.8157 -11.89171,-51.48166 l 0.64318,-5.3562 3.47216,0.56346 c 4.36299,0.70801 7.02494,3.0439 9.28643,8.14894 1.54222,3.48136 1.64511,5.16693 0.79355,13 -1.09074,10.03316 -0.3948,25.00154 1.61087,34.64688 0.72659,3.49422 1.18832,6.49612 1.02605,6.6709 -0.16226,0.17477 -2.3855,-2.61177 -4.94053,-6.19232 z m -46.4709,3.78607 c -6.87598,-1.84867 -11.13558,-4.48866 -15.53461,-9.62794 -6.21405,-7.25971 -7.09714,-14.86344 -1.95336,-16.8191 3.43568,-1.30624 5.62104,0.021 9.55044,5.8005 5.35343,7.87397 9.47751,12.53329 14.79508,16.71529 2.78359,2.18915 5.06108,4.32665 5.06108,4.75 0,1.19648 -5.94115,0.78835 -11.91863,-0.81875 z m 7.03698,-13.92357 c -5.06903,-4.57957 -11.60821,-15.56718 -9.89486,-16.62608 0.69261,-0.42806 3.73816,-1.05548 6.7679,-1.39428 6.75817,-0.75572 17.03831,-5.52575 20.32381,-9.43034 l 2.43868,-2.89821 0.71346,8.17895 c 0.3924,4.49842 1.37209,9.75463 2.17709,11.68047 1.41644,3.38862 1.37747,3.57027 -1.20847,5.63324 -3.23179,2.57821 -10.30979,6.18492 -14.49079,7.38401 -2.68717,0.77067 -3.51521,0.46407 -6.82682,-2.52776 z m 181.88169,-5.09061 c 0,-2.84685 -7.7037,-18.1419 -12.9868,-25.78413 -8.0271,-11.61155 -25.452,-27.73835 -37.92,-35.09499 -1.9206,-1.13319 -0.9909,9.61191 2.7455,31.73177 1.5561,9.2125 2.714,16.75 2.5731,16.75 -0.1409,0 -4.0421,-2.8125 -8.6693,-6.25 -4.6273,-3.4375 -12.5093,-9.0972 -17.5156,-12.57712 -5.0063,-3.47992 -12.2767,-8.99242 -16.1565,-12.25 -3.8797,-3.25758 -7.2278,-5.92288 -7.4402,-5.92288 -0.2123,0 0.1831,2.8125 0.8787,6.25 0.6956,3.4375 1.5656,7.96197 1.9334,10.05439 l 0.6687,3.80439 -3.2127,-1.66137 c -4.6078,-2.38279 -12.47198,-10.01003 -16.11041,-15.62509 -1.71862,-2.65227 -3.33892,-4.82232 -3.60068,-4.82232 -0.26176,0 -0.2143,3.45937 0.10548,7.68749 l 0.5814,7.68749 -2.3824,-2.93749 c -6.9571,-8.57806 -10.69601,-19.86992 -10.40946,-31.43749 0.27141,-10.95624 0.0237,-15 -0.91875,-15 -1.25331,0 -5.90798,9.8264 -7.25205,15.30968 -2.2739,9.27663 0.50711,20.30093 7.65858,30.35962 1.83144,2.57597 3.10085,5.05418 2.82091,5.50714 -0.27995,0.45296 -1.95181,0.82356 -3.71526,0.82356 -2.92403,0 -3.35558,-0.42042 -4.90259,-4.77613 -2.51297,-7.07543 -6.52355,-10.4557 -13.04718,-10.99669 -4.68635,-0.38863 -5.70654,-0.11437 -8.58536,2.30799 -1.79686,1.51196 -5.96209,6.28941 -9.25606,10.61655 -7.90197,10.38045 -12.46725,12.98381 -27.76615,15.83371 -13.62665,2.53838 -19.75639,5.45747 -23.21502,11.05541 l -2.40334,3.88989 -7.11712,-7.71386 -7.11712,-7.71386 12.40319,-12.87433 c 12.95877,-13.45103 19.80815,-21.73458 22.83237,-27.6132 2.24509,-4.36411 2.24673,-15.02957 0.004,-23.46191 l -1.58184,-5.94642 11.77282,-11.80358 c 8.30757,-8.32965 12.45858,-11.80357 14.10381,-11.80357 4.00448,0 5.58778,-1.51093 17.20432,-16.41787 l 11.30661,-14.50922 0.1855,-10.78645 c 0.20159,-11.72208 4.68489,-38.11628 7.14029,-42.03646 3.06174,-4.88826 8.81472,-1.86239 21.64448,11.38424 18.84973,19.4622 27.71873,33.05247 27.71873,42.47443 0,4.50844 -0.3067,4.98909 -9.1313,14.31358 -5.0223,5.30666 -8.94524,9.83459 -8.71777,10.06205 0.22746,0.22746 2.42405,-0.0916 4.88127,-0.709 3.1922,-0.80206 6.5209,-2.96185 11.6586,-7.56447 8.0595,-7.22004 10.7982,-11.81002 9.996,-16.75334 -0.4783,-2.94721 -0.2114,-3.41178 2.638,-4.59203 1.7435,-0.72221 6.3715,-4.47488 10.2844,-8.33928 l 7.1144,-7.02618 -0.4769,6.5 c -0.4004,5.45837 -0.1567,6.89496 1.5212,8.96466 1.9745,2.43555 2.0851,2.45055 9.3651,1.27039 21.0553,-3.41329 36.0221,-2.49973 42.0427,2.56626 l 3.1557,2.65536 -0.7263,-2.97834 c -1.2127,-4.97306 -5.8409,-9.79567 -11.6549,-12.1444 l -5.3619,-2.16607 3.6983,-0.69381 c 2.0341,-0.38159 4.3644,-0.43821 5.1785,-0.12581 2.0976,0.80491 4.253,-2.67778 6.714,-10.84824 1.1597,-3.85 3.1903,-9.1651 4.5126,-11.81133 3.9773,-7.95968 1.5007,-10.50439 -9.1531,-9.40482 -6.0312,0.62248 -11.879,3.3201 -17.0619,7.87073 -4.4819,3.93513 -6.4767,7.72888 -6.4767,12.3172 0,2.84199 0.5121,3.80446 2.5085,4.71407 4.8902,2.22811 11.0393,-3.84964 6.9329,-6.85237 -1.715,-1.25397 -1.6878,-1.44235 0.5517,-3.82619 2.9103,-3.09783 3.4966,-3.10845 6.4875,-0.11753 3.0404,3.04037 2.4334,5.60049 -2.3165,9.77101 -6.4664,5.67759 -23.3188,11.87708 -28.1327,10.3492 -3.3923,-1.07665 -5.3541,-4.97645 -4.5798,-9.10378 0.4977,-2.65313 2.4933,-5.42007 7.5716,-10.49836 6.9824,-6.98247 9.9717,-12.92487 9.9798,-19.83934 v -2.56849 l 15.247,-0.013 c 16.5204,-0.0141 22.3807,-1.21549 30.0887,-6.16828 2.113,-1.35768 4.0906,-2.2197 4.3947,-1.91559 0.3041,0.3041 0.7578,2.70031 1.0082,5.32491 0.4767,4.99595 -0.094,6.97767 -7.2767,25.27198 -3.3374,8.50008 -3.7384,10.49992 -3.8102,19 -0.086,10.19014 0.6932,12.67748 5.1811,16.53783 l 2.6134,2.24791 -4.0678,4.41304 c -2.2373,2.42718 -4.5259,5.23155 -5.0857,6.23194 -0.9688,1.73102 -1.3266,1.69566 -7.4083,-0.73195 -3.5148,-1.40296 -10.4405,-3.31235 -15.3905,-4.2431 -22.6635,-4.26145 -40.8787,2.69908 -47.7428,18.24385 -3.5433,8.02419 -4.1226,11.42135 -2.3567,13.81994 1.4498,1.96919 1.4792,1.96931 5.1246,0.0215 2.0166,-1.07748 4.9208,-3.78213 6.4539,-6.01032 1.8046,-2.62299 3.9743,-4.40018 6.1542,-5.04094 2.6607,-0.78212 3.3668,-1.514 3.3668,-3.48968 0,-1.9839 -0.5677,-2.56532 -2.75,-2.81642 -4.1459,-0.47704 -3.8499,-4.60448 0.4374,-6.09903 5.9702,-2.08125 13.0165,-2.21528 18.2413,-0.34696 4.0757,1.4574 5.1442,2.36813 6.174,5.26241 2.9296,8.23446 0.8423,14.49191 -6.6427,19.91404 -4.8183,3.4904 -11.1264,4.97058 -25.167,5.90544 l -10.2206,0.68051 2.7687,1.80904 c 2.1765,1.42204 5.1638,1.86474 13.9639,2.0694 13.1512,0.30585 17.6213,1.75216 29.0592,9.40234 10.3989,6.95518 17.1823,9.34634 28.2786,9.96816 l 9.1427,0.51235 -0.8712,3.03758 c -1.6575,5.7794 -10.5115,16.68417 -13.5565,16.6965 -0.6283,0.003 -3.6658,-2.72102 -6.75,-6.05237 -3.0843,-3.33135 -5.6077,-5.80283 -5.6077,-5.49218 0,0.31066 2.1937,5.42688 4.8749,11.36939 8.7482,19.38917 10.5701,25.54336 10.5629,35.67979 -0.01,9.04415 -1.6862,17.5 -3.4764,17.5 -0.5288,0 -0.9614,-0.72119 -0.9614,-1.60265 z m -186.11403,-56.8384 c 1.53268,-0.79258 4.07302,-3.15508 5.6452,-5.25 1.57218,-2.09492 3.55833,-4.22882 4.41365,-4.742 0.85533,-0.51318 2.80975,-2.18317 4.34315,-3.71109 l 2.78802,-2.77804 -0.69487,3.71109 c -0.6238,3.3315 -0.53052,3.57496 0.91195,2.38017 3.22572,-2.67184 5.90074,-9.94287 5.67484,-15.4249 -0.30449,-7.38902 -0.37388,-7.20978 3.881,-10.02552 4.17195,-2.76087 10.15105,-10.94232 10.15105,-13.8901 0,-2.78572 -1.17785,-2.24663 -6.04179,2.76523 -2.45202,2.52658 -6.70821,6.05122 -9.45821,7.83251 -2.75,1.7813 -8.36987,6.98031 -12.48859,11.55335 -7.21438,8.01017 -7.49054,8.50148 -7.54193,13.41749 -0.0408,3.90706 -0.79903,6.33314 -3.23546,10.35286 -3.32186,5.48055 -3.00286,6.21606 1.65199,3.80895 z m 64.61052,-79.99305 c 4.3399,-1.81333 4.9553,-4.15472 4.18956,-15.93989 -1.05145,-16.18227 -7.76151,-36.12601 -12.15459,-36.12601 -1.6423,0 -2.1721,1.33954 -3.55959,9 -0.89656,4.95 -2.44314,11.39102 -3.43684,14.31337 -2.12037,6.23574 -1.60819,15.14511 1.20852,21.02199 l 1.75641,3.66464 0.5,-8.70442 c 0.74483,-12.96669 4.4036,-14.53063 6.86741,-2.93548 0.86189,4.05617 0.7208,6.31511 -0.91711,14.68375 -0.56515,2.88753 0.57754,3.0981 5.54623,1.02205 z m 110.50351,51.79557 c -4.6247,-3.71941 -15.3322,-9.31871 -18,-9.41279 -0.825,-0.0291 0.8857,-0.96955 3.8016,-2.08992 2.9158,-1.12036 7.092,-3.74026 9.2804,-5.82198 2.5259,-2.40286 5.3117,-4.00127 7.6291,-4.37733 2.0077,-0.32581 4.3264,-1.26846 5.1528,-2.09478 1.3365,-1.33655 1.2986,-1.7276 -0.3436,-3.54218 -1.0153,-1.12187 -3.5082,-2.5378 -5.5399,-3.14651 -2.9169,-0.87392 -4.1449,-2.03474 -5.8372,-5.51811 -1.1788,-2.42626 -2.1432,-4.57694 -2.1432,-4.77931 0,-1.11357 7.1981,1.5243 10.967,4.01902 3.9107,2.58859 5.3045,2.91778 12.8904,3.0445 l 8.5057,0.14208 1.3033,4.35792 c 1.9218,6.42636 1.6552,8.89485 -1.6819,15.57289 -1.9989,4.00018 -4.2743,6.86028 -6.75,8.48428 -3.946,2.58855 -14.2396,8.80751 -14.551,8.79104 -0.1009,-0.005 -2.2085,-1.6383 -4.6835,-3.62882 z m -155.78973,-52.0796 c -1.31836,-9.96125 -6.46461,-21.74295 -12.64136,-28.94083 -2.20417,-2.56857 -3.56895,-5.2026 -3.56895,-6.8881 v -2.72913 l 6.25,0.66544 c 3.4375,0.36599 10.07229,1.44063 14.74398,2.38809 7.6993,1.56149 8.63192,2.00334 9.96822,4.72266 0.81083,1.65 1.64401,6.38445 1.85151,10.521 0.32658,6.51058 0.0248,8.26537 -2.24616,13.06175 -1.44289,3.04741 -5.00203,7.88981 -7.9092,10.76087 l -5.28577,5.22011 z"
       id="path1" />
  </g>
</svg>
