<?xml version="1.0" encoding="UTF-8" standalone="no"?>
<!-- Created with Inkscape (http://www.inkscape.org/) -->

<svg
   version="1.1"
   id="svg1"
   width="216.43568"
   height="241.58089"
   viewBox="0 0 216.43568 241.58089"
   xmlns="http://www.w3.org/2000/svg"
   xmlns:svg="http://www.w3.org/2000/svg">
  <defs
     id="defs1" />
  <g
     id="g1"
     transform="translate(-1309.9293,-296.55697)">
    <path
       d="m 1379.5067,537.06506 c -0.5966,-0.74922 -1.6256,-3.67123 -2.2868,-6.49336 -0.7715,-3.2928 -2.2478,-6.13286 -4.1206,-7.9271 -1.605,-1.53777 -3.104,-2.60375 -3.331,-2.36885 -0.2271,0.23491 -1.0482,3.5771 -1.8249,7.4271 -1.309,6.48936 -1.5897,6.98206 -3.8476,6.75414 -5.4615,-0.55132 -20.6013,-9.17001 -27.7745,-15.81131 l -7.1612,-6.6301 v -7.40636 c 0,-4.07351 -0.3586,-7.40637 -0.797,-7.40637 -0.4384,0 -2.5547,1.8 -4.703,4 -2.1482,2.2 -4.377,3.99331 -4.9529,3.98512 -0.5759,-0.008 -2.7865,-1.48664 -4.9125,-3.28547 l -3.8654,-3.2706 2.6407,-3.89142 c 3.6314,-5.35103 4.0272,-7.67231 2.2581,-13.23954 -1.2997,-4.08963 -3.668,-14.34457 -3.668,-15.88249 0,-0.26728 0.8705,-0.0201 1.9343,0.54922 3.2866,1.75892 3.5757,1.25025 3.2468,-5.71257 -0.2798,-5.92396 1.9044,-20.67104 3.2628,-22.02945 0.2706,-0.2706 1.7439,0.029 3.2741,0.66571 2.6969,1.12227 2.7833,1.39426 2.8242,8.8846 0.045,8.30926 1.5112,12.40225 6.2591,17.47689 l 2.5729,2.75 h -3.128 c -1.7205,0 -3.407,0.45131 -3.748,1.00292 -1.084,1.75409 4.7263,10.98911 8.7978,13.98337 2.1577,1.58676 6.1013,3.44329 8.7636,4.12562 l 4.8406,1.24059 0.6861,5.57375 c 1.2218,9.92501 1.5026,10.09003 6.431,3.77968 4.1324,-5.29108 5.9827,-6.28928 5.9827,-3.2275 0,2.68008 9.8127,12.10529 15.5044,14.89228 3.1229,1.52913 5.7868,2.63378 5.9198,2.45477 0.133,-0.17902 1.8902,-3.02548 3.9049,-6.32548 6.4331,-10.53754 6.0144,-10.23731 10.6474,-7.63336 4.2025,2.3619 18.0235,7.36233 18.0235,6.52086 0,-0.27135 -1.204,-4.51552 -2.6755,-9.4315 -1.4716,-4.91599 -2.3786,-9.23523 -2.0155,-9.59833 0.3631,-0.3631 2.8658,1.40285 5.5614,3.92434 3.1984,2.99165 6.1912,4.82651 8.6138,5.281 4.9987,0.93775 13.063,0.009 18.3585,-2.11345 l 4.3426,-1.74086 -4.7067,-2.26843 c -5.8905,-2.83895 -7.6485,-4.44027 -4.8749,-4.44027 3.9844,0 12.3961,-5.23243 17.8067,-11.07648 5.0192,-5.42139 12.2682,-18.14168 14.144,-24.81951 0.6452,-2.29699 0.5134,-2.37047 -3.1906,-1.7782 -2.1251,0.33978 -4.8726,0.35394 -6.1057,0.0315 -2.1178,-0.55386 -2.0314,-0.73882 1.559,-3.33975 5.9609,-4.318 11.0498,-10.91938 12.8706,-16.69583 0.9185,-2.91359 1.4426,-5.52472 1.1648,-5.80251 -0.8914,-0.89142 -10.9788,-2.51922 -15.6114,-2.51922 -3.9057,0 -4.3223,-0.19713 -3.221,-1.52417 0.6957,-0.83829 0.9444,-1.84472 0.5526,-2.23651 -0.3918,-0.39178 -5.6309,-0.88069 -11.6425,-1.08645 l -10.9302,-0.37412 v -2.83547 -2.83548 l -5.25,1.52207 c -11.5423,3.34632 -22.4279,12.5055 -29.0138,24.41234 -3.3421,6.04231 -4.7077,6.92078 -10.795,6.94414 -4.6192,0.0177 -6.7007,-1.59705 -8.3782,-6.49958 -1.8229,-5.3274 -4.6755,-5.82979 -6.3775,-1.12318 -1.4684,4.06094 -4.8071,6.51334 -9.3603,6.87559 -3.2321,0.25715 -3.2872,0.18987 -3.9167,-4.77784 -0.7986,-6.3016 -2.9027,-10.43563 -7.1225,-13.99376 -11.4788,-9.67875 -24.2909,-6.56586 -35.1181,8.53242 l -1.7928,2.5 -3.7567,-4.17488 c -3.5649,-3.96168 -6.1184,-9.78733 -6.1184,-13.9589 0,-1.7849 0.4778,-1.84515 7.7761,-0.98068 9.2347,1.09382 14.2833,0.32764 17.8057,-2.70223 l 2.5897,-2.22754 -3.549,-5.27386 c -1.952,-2.90062 -3.8471,-6.8623 -4.2113,-8.80375 -0.8207,-4.37456 0.1066,-11.57975 1.9409,-15.08047 l 1.3812,-2.63611 1.2001,3.63648 c 1.2941,3.92112 6.1799,8.70185 8.8934,8.70209 1.4963,1.3e-4 1.677,-1.77072 1.7085,-16.75 0.032,-15.32685 0.2555,-17.40439 2.6277,-24.44963 1.4259,-4.23472 4.3243,-10.05866 6.441,-12.9421 2.1166,-2.88343 5.4341,-8.25062 7.3722,-11.92709 l 3.5238,-6.68448 0.07,7.62658 c 0.056,6.11757 0.5728,8.60304 2.6119,12.56169 l 2.5421,4.93513 -2.0218,4.56487 c -2.5846,5.83537 -2.7296,14.3852 -0.3208,18.92354 l 1.7826,3.35865 2.863,-2.74287 c 2.2107,-2.11803 3.022,-4.0222 3.5614,-8.35866 1.5182,-12.20535 6.4955,-21.96991 15.9012,-31.19537 9.4387,-9.25774 15.5139,-12.64966 34.8125,-19.43669 2.641,-0.9288 7.099,-3.23463 9.9067,-5.12407 2.8077,-1.88945 5.4831,-3.66904 5.9452,-3.95465 0.4621,-0.28562 0.3916,0.66071 -0.1567,2.10295 -2.1733,5.71619 -1.1979,11.72448 3.4557,21.28572 5.9143,12.15175 7.552,18.05892 7.5235,27.13783 -0.035,11.22485 -3.8726,19.46255 -14.4006,30.91377 l -3.0756,3.34527 3.9877,-1.64357 c 14.3511,-5.91493 24.0534,-17.21237 27.1475,-31.6108 1.489,-6.92914 1.968,-7.85482 4.7602,-9.19903 3.7224,-1.79201 12.7561,-8.85388 22.6897,-17.73714 5.9748,-5.34307 7.1494,-6.05503 6.599,-4 -0.3683,1.375 -1.3766,9.7 -2.2408,18.5 -2.0216,20.5879 -2.6921,22.10681 -22.4369,50.82742 -0.8215,1.19492 1.494,-0.52742 5.1456,-3.82742 3.6516,-3.3 9.2477,-7.56984 12.4358,-9.48854 6.6015,-3.97294 17.4884,-7.94742 21.8744,-7.98564 l 2.9623,-0.0258 -3.2358,2.75 c -2.2049,1.87397 -4.6717,6.07914 -7.7435,13.20064 -7.1353,16.5418 -14.0952,24.20702 -25.4791,28.06084 l -4.9342,1.67039 8.9662,1.10397 c 11.151,1.37297 23.74,5.64245 33.1886,11.25575 6.1089,3.62927 6.925,4.41712 5.2707,5.08853 -1.0766,0.43693 -10.7324,2.65579 -21.4574,4.93081 -10.725,2.27502 -19.6856,4.3151 -19.9124,4.53351 -1.5524,1.49468 6.8958,12.92066 19.1527,25.90348 l 8.4948,8.99792 -2.5759,5.25208 c -1.4167,2.88864 -3.0486,5.25208 -3.6264,5.25208 -0.5778,0 -4.6466,-2.39917 -9.0417,-5.33149 -13.6821,-9.12841 -13.9416,-9.28144 -12.9212,-7.62114 0.5116,0.83236 3.7426,5.64495 7.1801,10.69465 3.4375,5.04969 6.25,9.86509 6.25,10.70088 0,2.23837 -12.3304,14.9189 -18.1187,18.63329 l -5.0033,3.21058 -3.8011,-3.71168 -3.8011,-3.71169 -0.6788,5.11688 -0.6788,5.11688 -5.6735,-4.50082 c -3.1205,-2.47545 -5.7656,-4.40874 -5.8782,-4.29621 -0.1125,0.11254 0.5952,4.11872 1.5727,8.90263 l 1.7774,8.69801 -6.1083,2.4284 c -6.7988,2.70288 -15.1217,4.67081 -19.7541,4.67081 -2.1436,0 -4.4275,-1.21528 -7.7008,-4.09757 -8.2189,-7.23708 -8.4874,-7.2069 -7.6771,0.86247 0.6209,6.18224 0.4945,7.04184 -1.139,7.7449 -1.0105,0.43496 -9.0528,0.99869 -17.8718,1.25273 -12.7582,0.36751 -16.256,0.18355 -17.119,-0.90032 z m 6.6674,-131.86221 c 0.028,5.80265 1.017,6.29037 6.0233,2.96915 2.4545,-1.62832 4.8002,-2.96251 5.2127,-2.96487 0.4125,-0.002 0.75,2.0011 0.75,4.45212 v 4.45641 l 7.3533,-5.27568 c 4.0442,-2.90163 13.1567,-8.14664 20.25,-11.65558 11.1829,-5.53209 12.5645,-6.47306 10.3967,-7.08104 -3.9121,-1.0972 -14.1076,-0.99829 -18.3437,0.17796 -2.1141,0.58703 -4.0724,0.83867 -4.3519,0.55921 -0.9848,-0.98484 2.7547,-10.2394 7.6966,-19.04768 2.7495,-4.90051 4.999,-9.09175 4.999,-9.31387 0,-1.60011 -13.342,9.42065 -17.426,14.39417 -2.7867,3.39367 -5.1761,6.06084 -5.3099,5.92705 -1.0064,-1.00632 7.0588,-21.99397 13.0495,-33.95815 4.0316,-8.05156 6.9164,-14.6392 6.4107,-14.6392 -0.5056,0 -5.2864,4.3875 -10.6238,9.75 -9.5825,9.62761 -19.1547,22.68306 -25.4266,34.67941 l -3.1739,6.07059 -0.2988,-7.49883 c -0.1643,-4.12436 -0.7163,-7.91627 -1.2265,-8.42647 -0.9498,-0.94985 -5.9278,9.09102 -9.5066,19.1753 -1.0247,2.8875 -2.163,5.25 -2.5296,5.25 -0.3665,0 -1.9652,-1.88012 -3.5525,-4.17805 -2.7164,-3.93261 -2.9067,-4.03542 -3.2393,-1.75 -0.1943,1.33543 -0.03,7.60305 0.3643,13.92805 l 0.7176,11.5 3.8857,-4.37861 3.8857,-4.37861 0.048,6.37861 0.048,6.37861 6.9508,-7.5 6.9508,-7.5 z m -9.6289,90.17015 c -4.2219,-3.06464 -9.3851,-11.67295 -9.3851,-15.64726 0,-1.38051 -0.9768,-2.45312 -2.8925,-3.17623 -2.0263,-0.76486 -3.0944,-2.01082 -3.5666,-4.16059 -0.8998,-4.09703 0.7994,-6.95922 4.7322,-7.97107 2.6732,-0.68776 3.2803,-1.37251 3.5379,-3.99057 0.171,-1.73819 -0.6165,-5.25697 -1.75,-7.81951 -1.1335,-2.56253 -2.0589,-4.71445 -2.0565,-4.78204 0,-0.0676 1.6396,-0.20772 3.6381,-0.31141 2.0218,-0.10491 5.201,-1.30379 7.1673,-2.70279 l 3.5337,-2.51425 3.3543,2.94514 c 1.8474,1.62208 5.0513,3.2165 7.1318,3.54919 l 3.7775,0.60404 -3.3662,3.3662 c -2.8034,2.8034 -3.3139,3.98247 -3.0536,7.05232 0.3247,3.82875 1.4048,4.86744 6.0881,5.85456 3.8574,0.81304 6.7245,3.99053 6.7245,7.45233 0,4.28283 -0.9087,5.98322 -4.0715,7.61878 -3.5009,1.81039 -3.9285,1.81801 -3.9285,0.07 0,-1.50021 -2.0916,-2.60699 -4.9268,-2.60699 -3.63,0 -5.4799,3.72014 -6.0404,12.14736 l -0.5328,8.00977 z m 34.0301,-28.59156 c -3.3144,-1.4431 -7.4152,-5.98533 -7.4152,-8.21345 0,-0.95128 1.3643,-1.36514 4.5,-1.36514 3.8065,0 4.5,0.30281 4.5,1.96482 0,6.27598 13.6744,3.26191 19.4287,-4.28244 3.1508,-4.13081 5.5713,-10.83245 5.5713,-15.42474 0,-3.12932 -0.233,-3.42945 -2.25,-2.89762 -1.2375,0.3263 -4.8989,-0.14776 -8.1366,-1.05349 -4.5768,-1.28034 -6.7463,-1.41732 -9.75,-0.61558 -4.8161,1.28548 -5.0117,0.15792 -0.849,-4.89225 3.009,-3.65035 13.7233,-9.7987 17.0756,-9.7987 1.7875,0 1.6455,1.74275 -0.5899,7.24235 -0.6652,1.63654 -0.4437,1.64793 3.6459,0.18754 2.3947,-0.85515 7.3729,-1.81541 11.0625,-2.13391 l 6.7085,-0.57909 -1.0688,3.89155 c -1.3154,4.78942 -3.3518,8.91245 -6.442,13.04316 l -2.3578,3.15161 3.9758,-0.53328 c 4.6289,-0.62086 4.8666,0.0637 1.9842,5.71362 -4.1729,8.17954 -13.4772,14.51873 -24.8076,16.90186 -6.8565,1.44214 -10.9645,1.35689 -14.7856,-0.30682 z m -67.4308,-1.42156 c -3.6346,-1.92243 -9.3713,-10.16953 -10.2419,-14.72387 -0.4521,-2.3652 -0.2818,-2.49089 2.5366,-1.87188 2.6625,0.5848 2.9339,0.44247 2.2856,-1.19885 -1.2681,-3.21053 -3.5291,-14.71781 -3.5473,-18.05341 -0.022,-3.97598 0.7657,-4.46231 7.3194,-4.5212 6.3824,-0.0574 11.0515,2.16101 13.7037,6.51073 2.6242,4.30372 2.463,5.07746 -0.6346,3.0478 -2.4451,-1.60205 -2.7798,-1.59975 -5.8247,0.04 -2.1062,1.13425 -4.1616,1.50606 -5.9058,1.0683 l -2.6754,-0.67147 v 6.93027 c 0,8.4003 2.1151,15.06458 5.9461,18.73486 3.2682,3.13115 6.1078,3.05428 7.5411,-0.20415 0.6799,-1.54585 1.8468,-2.24416 3.75,-2.24416 3.6635,0 3.6025,2.31423 -0.1602,6.07692 -3.5108,3.51077 -8.7394,3.91151 -14.0926,1.08011 z"
       id="path1" />
  </g>
</svg>
