<?xml version="1.0" encoding="UTF-8" standalone="no"?>
<!-- Created with Inkscape (http://www.inkscape.org/) -->

<svg
   version="1.1"
   id="svg1"
   width="247.01398"
   height="251.57031"
   viewBox="0 0 247.01398 251.57031"
   xmlns="http://www.w3.org/2000/svg"
   xmlns:svg="http://www.w3.org/2000/svg">
  <defs
     id="defs1" />
  <g
     id="g1"
     transform="translate(-693.06343,-437.92442)">
    <path
       d="m 785.52491,687.04078 -8,-2.71872 -1.2846,-5 c -0.7066,-2.75 -1.5642,-9.88817 -1.9058,-15.86259 l -0.6211,-10.86259 5.93,4.36259 c 3.2616,2.39942 7.7345,5.17463 9.9399,6.16712 l 4.0099,1.80454 -0.034,5.85851 c -0.026,4.411 0.4827,6.55946 2.0576,8.69547 1.8305,2.48273 1.9468,3.26642 0.9311,6.27658 -0.6383,1.8918 -1.5796,3.56522 -2.0917,3.71872 -0.5121,0.1535 -4.5311,-0.94434 -8.9311,-2.43963 z m 37.5,-10.84613 c -2.534,-1.45077 -9.9339,-1.43332 -13.1824,0.0311 -3.2807,1.47892 -6.417,-10.07211 -4.2606,-15.69169 0.3064,-0.79838 5.6438,-6.2108 11.8609,-12.02761 l 11.3038,-10.57603 6.3891,3.01995 c 3.5141,1.66097 7.8898,4.16352 9.7238,5.56123 2.4531,1.86949 3.6294,2.24643 4.45,1.42588 1.6277,-1.62771 2.4135,-1.37783 3.0254,0.96206 0.4319,1.65138 -2.2002,4.83045 -12.8328,15.5 -7.3568,7.38239 -13.5113,13.37841 -13.6766,13.32448 -0.1653,-0.0539 -1.4256,-0.74214 -2.8006,-1.52936 z m 54.0371,-13.29991 c -1.1218,-2.19887 -4.0731,-6.49456 -6.5585,-9.54596 -4.4202,-5.42677 -4.486,-5.61171 -3.0114,-8.46322 0.8291,-1.60336 1.9935,-7.2741 2.5876,-12.60163 0.9857,-8.84046 2.2669,-14.46187 3.296,-14.46187 0.2202,0 3.0438,1.17734 6.2748,2.61631 4.753,2.11686 13.9943,5.61317 26.2116,9.91679 0.9727,0.34265 0.5913,1.35622 -1.3996,3.71896 -1.5051,1.78637 -4.9206,7.80665 -7.5898,13.3784 -4.1596,8.68277 -5.603,10.6981 -10.1005,14.10251 -7.6848,5.81717 -7.443,5.78381 -9.7102,1.33971 z m -84.7561,-12.5622 c -14.2895,-5.50449 -38.4602,-18.75527 -40.6374,-22.2782 -0.9149,-1.48029 4.095,-15.4286 7.4309,-20.68878 l 2.9701,-4.68334 7.332,6.56209 7.332,6.5621 0.5927,7.0692 c 0.8161,9.73477 2.9915,13.72736 9.6364,17.68564 l 5.4377,3.2392 3.809,-3.7392 c 3.8006,-3.73098 5.7995,-8.34758 5.81,-13.41901 0,-2.20707 1.6934,-3.97118 9.5732,-10 5.2622,-4.0261 10.5548,-8.11533 11.7613,-9.08718 2.0304,-1.63552 2.5648,-1.65395 7.1824,-0.24757 2.7438,0.83569 6.0609,2.35281 7.3714,3.37138 2.3407,1.81937 2.4487,1.80868 6.1394,-0.60766 l 3.7567,-2.4596 0.3815,-13.89222 0.3815,-13.89223 7.7819,-7.82781 7.7819,-7.82781 -5.9751,-3.68807 c -3.2863,-2.02844 -7.0782,-4.99897 -8.4264,-6.60119 -1.5483,-1.84003 -2.8012,-2.56314 -3.4013,-1.96304 -2.8641,2.86415 -6.3028,-8.53626 -6.3028,-20.89606 v -6.43157 l -5.75,0.65515 c -3.1625,0.36032 -7.6625,0.91327 -10,1.22876 -3.9983,0.53966 -4.25,0.42874 -4.25,-1.87325 0,-3.72056 -0.9297,-3.93559 -4.6727,-1.08071 l -3.4258,2.61301 0.2992,-6.90625 0.2993,-6.90626 5.5,-1.15357 c 3.025,-0.63447 7.8203,-1.19697 10.6562,-1.25 l 5.1561,-0.0964 0.6343,-5.25 c 1.2675,-10.4916 2.8076,-19.28682 3.6632,-20.91991 0.4812,-0.91846 2.5658,-2.21685 4.6325,-2.88533 9.4196,-3.04673 10.765,-4.286 13.7219,-12.63879 3.1524,-8.90512 6.4281,-14.91674 9.911,-18.18877 l 2.407,-2.26124 5.028,2.54788 5.028,2.54789 2.5799,-4.40225 c 1.419,-2.42123 4.23,-5.76234 6.2467,-7.4247 l 3.6667,-3.02245 5.3276,4.86908 c 2.9301,2.67799 6.923,5.39562 8.8729,6.03916 4.0343,1.33144 4.0528,0.92816 -0.5788,12.66271 -3.1361,7.94559 -6.8811,14.41892 -10.7262,18.54046 l -2.5317,2.71374 -6.2845,-3.51447 -6.2844,-3.51448 -3.3977,5.30074 c -4.362,6.80524 -6.0301,8.15724 -8.9292,7.23709 -1.9577,-0.62135 -1.738,-0.11073 1.4892,3.46141 2.0821,2.30466 4.4984,5.68494 5.3695,7.51175 l 1.5839,3.32146 -4.7099,5.78256 c -7.4714,9.17281 -7.4448,8.6245 -0.9711,20.00835 3.1209,5.48796 7.1291,13.14931 8.9073,17.02522 2.6299,5.73282 4.7374,8.42332 11.2999,14.42627 7.1766,6.56461 8.2334,7.99443 9.5738,12.95289 3.5954,13.30054 3.1543,16.8321 -3.1534,25.24383 -3.8654,5.1548 -5.897,10.26135 -6.4318,16.16671 l -0.2569,2.83681 -8.759,-4.40557 c -9.8254,-4.94189 -9.6798,-4.97139 -13.4826,2.73195 -2.3899,4.84118 -3.0278,7.36929 -4.7941,19 -0.7518,4.95 -2.0321,10.8 -2.8451,13 l -1.4783,4 -0.07,-3.55887 c -0.093,-4.67697 -2.0434,-7.19113 -5.5797,-7.19113 -1.5693,0 -4.6072,-1.27058 -6.751,-2.8235 -2.1437,-1.55293 -5.4413,-3.33295 -7.328,-3.9556 -1.8866,-0.62264 -3.1539,-1.57913 -2.8162,-2.12552 0.3376,-0.54639 -0.4069,-2.08002 -1.6545,-3.40806 l -2.2684,-2.41462 -9.0864,8.78532 c -8.0673,7.80007 -19.2576,16.4657 -22.8164,17.66878 -0.6984,0.23611 -4.0684,-0.64873 -7.4889,-1.96632 z m -3.9589,-19.14165 c -1.0312,-1.57379 -1.9122,-5.27202 -2.1516,-9.03202 l -0.4054,-6.36704 -6.7423,-6.23488 c -3.7083,-3.42919 -9.4489,-8.35782 -12.7569,-10.9525 -5.6088,-4.39933 -6.1176,-4.60173 -7.5414,-3 -3.8527,4.33386 -10.5149,18.86683 -12.2481,26.71761 l -0.6622,3 -4.5554,-5 c -11.289,-12.39095 -13.577,-18.71379 -11.2449,-31.07384 1.3205,-6.99797 2.1794,-6.98148 3.4487,0.0662 0.9883,5.4877 1.2451,5.71012 4.5942,3.97827 2.8928,-1.49595 2.9432,-1.66174 2.9432,-9.68188 0,-7.08196 0.2972,-8.47795 2.25,-10.5678 l 2.25,-2.40794 1,5.56923 1,5.56922 3.25,-2.54822 c 3.099,-2.42978 3.25,-2.86467 3.25,-9.35705 0,-6.60636 0.1041,-6.88821 3.5,-9.47841 l 3.5,-2.66958 v 6.06545 6.06545 l 3.75,-2.36617 c 3.2037,-2.02146 3.7944,-2.9628 4.0549,-6.46152 0.3029,-4.0677 0.3366,-4.09952 5,-4.71273 10.0111,-1.3164 9.9882,-1.30464 10.6945,-5.48529 0.6241,-3.6939 0.9353,-3.96659 6.7776,-5.93959 l 6.1235,-2.06794 3.1645,3.06713 3.1645,3.06713 10.3852,-1.06628 c 5.7119,-0.58646 12.3343,-1.32379 14.7164,-1.63851 l 4.3312,-0.57223 -0.6811,5.45115 -0.6811,5.45115 9.673,5.23005 9.6731,5.23005 -2.1519,2.29051 c -1.267,1.34867 -3.8953,2.55195 -6.392,2.92636 l -4.2402,0.63585 0.4356,8.71588 c 0.2396,4.79373 1.0552,10.22637 1.8125,12.07253 1.2143,2.96027 1.175,3.69832 -0.3323,6.25 -2.1305,3.60668 -2.6363,3.6031 -5.2283,-0.037 -1.7625,-2.47515 -2.9769,-3.02632 -7.8181,-3.54813 -6.6387,-0.71558 -5.4742,-0.1058 -16.7519,-8.77151 -4.8315,-3.7125 -9.166,-6.75 -9.6321,-6.75 -1.7359,0 -0.7158,3.77047 3.6232,13.39226 l 4.4609,9.89226 -8.0793,9.00079 -8.0793,9.00078 0.4707,4.89821 c 0.386,4.01762 0.1429,5.07361 -1.3524,5.87387 -1.4568,0.77965 -2.1738,0.44025 -3.5692,-1.68934 z m -77.3221,-47.36608 c -1.375,-1.10306 -5.9875,-4.07269 -10.25,-6.59919 -7.7096,-4.56969 -7.7498,-4.6153 -7.7061,-8.7486 0.024,-2.28523 0.7509,-5.95496 1.6151,-8.15496 0.8642,-2.2 2.8043,-7.6 4.3115,-12 3.9874,-11.64098 9.3615,-21.70631 13.5556,-25.3888 2.0175,-1.77135 10.7119,-6.59835 19.321,-10.72667 8.6091,-4.12831 16.7314,-8.04119 18.0495,-8.69528 1.9745,-0.97975 3.332,-4.09589 7.7063,-17.68925 5.1669,-16.05613 5.4521,-16.63971 10.6034,-21.69353 l 5.2937,-5.19353 5.9602,2.02649 c 3.3563,1.14114 7.1558,1.78737 8.6968,1.47917 l 2.7366,-0.54733 -3.4222,7.99547 -3.4222,7.99547 4.7254,-3.24632 c 2.599,-1.78548 7.5703,-5.89014 11.0473,-9.12147 5.3289,-4.95233 6.7261,-5.7737 8.8952,-5.2293 2.0131,0.50527 3.249,-0.006 5.678,-2.34935 2.9362,-2.83245 3.3514,-2.94222 7.6409,-2.02013 7.3152,1.57246 17.1031,6.96997 19.7332,10.88174 l 2.338,3.47739 -6.6456,1.22652 c -3.6551,0.67459 -7.3489,1.80977 -8.2085,2.52262 -2.6635,2.20878 -4.2059,7.33437 -4.8916,16.25491 l -0.6589,8.57177 -5.6013,1.55248 c -3.0807,0.85386 -6.906,1.97198 -8.5005,2.4847 -1.5946,0.51273 -3.0672,0.93223 -3.2724,0.93223 -0.2052,0 -2.3767,-1.84691 -4.8257,-4.10424 l -4.4525,-4.10423 -7.7751,4.4809 c -4.7142,2.71683 -8.4855,5.68518 -9.5796,7.53989 -1.7654,2.9928 -1.7598,3.08291 0.2595,4.16358 1.7753,0.95015 2.1972,0.75407 3.017,-1.40238 0.6171,-1.62299 3.0582,-3.56959 6.9231,-5.52056 l 5.9699,-3.0136 5.4349,4.42726 5.4349,4.42726 0.711,10.02769 0.7109,10.02769 3.6716,1.01979 c 2.0195,0.56089 6.8645,1.02231 10.7667,1.02537 5.6419,0.004 7.4397,0.38647 8.778,1.86528 1.6258,1.7964 1.3843,1.87886 -7.095,2.42288 -4.8279,0.30975 -11.4393,1.28639 -14.692,2.1703 l -5.9139,1.60712 -2.7106,-2.59689 -2.7106,-2.59689 -6.9169,2.10094 c -8.0524,2.44585 -13.334,5.39708 -13.334,7.45075 0,0.79602 -0.9,1.70264 -2,2.0147 -1.1,0.31207 -2.9,0.82271 -4,1.13478 -1.7135,0.48611 -2,0.0899 -2,-2.76627 0,-1.83352 -1.3007,-6.70134 -2.8905,-10.81739 l -2.8905,-7.48373 3.6405,-1.869 c 5.3059,-2.72402 6.9922,-4.48193 6.4154,-6.68782 -0.6249,-2.3895 -1.0953,-2.41507 -3.5537,-0.19318 -1.1665,1.05429 -3.5317,1.75 -5.9494,1.75 h -4.0131 l -2.8545,7.75704 c -2.8092,7.6339 -2.8232,7.77663 -0.8794,8.99055 1.0864,0.67843 1.9752,2.0476 1.9752,3.04262 0,0.99501 0.7167,3.19506 1.5927,4.889 1.5006,2.90183 1.4767,3.19585 -0.4131,5.08563 l -2.0057,2.00574 -3.703,-2.28856 -3.703,-2.28857 0.6954,2.40328 c 0.3825,1.3218 0.9047,3.15826 1.1605,4.08103 0.3299,1.18995 -1.8011,3.34357 -7.3293,7.40713 -10.3968,7.64222 -19.0244,14.86037 -23.2945,19.48893 -4.3832,4.75121 -7.6456,5.61987 -11,2.92893 z m -0.2,-23.20275 c 3.0257,-3.02569 -0.1723,-9.30914 -3.6338,-7.13988 -2.0974,1.31434 -2.6958,4.9968 -1.1205,6.89492 1.4599,1.75915 3.1529,1.84637 4.7543,0.24496 z m 22.1274,-14.43486 c 1.1399,-1.44917 2.0726,-3.63848 2.0726,-4.86514 0,-3.92345 -3.6928,-7.5 -7.7438,-7.5 -6.8574,0 -9.4676,6.08562 -5.1881,12.09563 2.7989,3.93071 7.8802,4.05682 10.8593,0.26951 z m 156.5726,-3.56776 c -6.0958,-4.34685 -8.2722,-6.97117 -8.8672,-10.69251 -0.3292,-2.05834 -1.7235,-5.85824 -3.0984,-8.44422 l -2.5,-4.70177 4.4828,-6.08945 c 2.4655,-3.3492 4.4828,-6.9544 4.4828,-8.01156 0,-2.76384 -2.6516,-8.71225 -5.6161,-12.59897 -1.98,-2.59596 -2.2978,-3.65771 -1.4136,-4.72311 0.9549,-1.15064 1.9862,-0.99537 6.3352,0.95384 9.8807,4.42858 10.8489,4.32609 15.9358,-1.68703 7.1039,-8.39724 13.7587,-20.5683 13.7587,-25.16336 v -3.90258 l 4.015,0.53853 c 5.2654,0.70623 11.2531,3.88512 17.7612,9.42943 l 5.2763,4.49487 -3.5044,3.8789 c -3.4954,3.86904 -10.5703,16.89867 -13.1578,24.23255 -0.9151,2.59358 -1.052,4.45264 -0.4156,5.64181 0.677,1.26494 0.3865,2.87727 -1.0127,5.62187 -1.0791,2.11654 -1.962,4.45467 -1.962,5.19584 0,0.74117 -0.4772,1.05267 -1.0604,0.69224 -2.824,-1.74536 -7.2895,2.23344 -16.4569,14.66323 -5.2223,7.08074 -9.6048,12.85981 -9.7389,12.84239 -0.1341,-0.0174 -1.5938,-0.99435 -3.2438,-2.17094 z"
       id="path1" />
  </g>
</svg>
