<?xml version="1.0" encoding="UTF-8" standalone="no"?>
<!-- Created with Inkscape (http://www.inkscape.org/) -->

<svg
   version="1.1"
   id="svg1"
   width="232.5538"
   height="240.76848"
   viewBox="0 0 232.5538 240.76848"
   xmlns="http://www.w3.org/2000/svg"
   xmlns:svg="http://www.w3.org/2000/svg">
  <defs
     id="defs1" />
  <g
     id="g1"
     transform="translate(-995.58982,-337.94669)">
    <path
       d="m 1082.2924,577.50594 c -2.01,-1.03117 -4.2049,-3.26624 -5.1463,-5.24046 -1.5544,-3.25962 -5.9669,-6.1357 -12.5404,-8.17386 -2.0281,-0.62884 -1.9192,-0.23947 1.25,4.47004 1.9095,2.83739 3.4717,5.6129 3.4717,6.16781 0,0.61186 -1.4758,0.7595 -3.75,0.37515 -2.0625,-0.34856 -7.575,-0.9607 -12.25,-1.36031 -7.2177,-0.61695 -9.1789,-1.19608 -13,-3.8388 -2.475,-1.71174 -6.3732,-4.06295 -8.6628,-5.22492 -3.0817,-1.56402 -5.0044,-3.6122 -7.4038,-7.88685 -1.8735,-3.33781 -7.3955,-9.88796 -13.0872,-15.52387 -5.4154,-5.36233 -9.8584,-10.31233 -9.8732,-11 -0.015,-0.68766 -1.35766,-4.37008 -2.98389,-8.18313 -1.62623,-3.81306 -2.84885,-7.04076 -2.71694,-7.17267 0.1319,-0.13191 3.34282,2.31287 7.13533,5.43283 3.7926,3.11997 9.8625,7.27981 13.4887,9.2441 5.9104,3.2016 6.6547,3.95037 7.1879,7.23078 1.2019,7.39426 3.9537,11.68325 9.2024,14.34294 2.7018,1.36912 5.0718,2.32991 5.2666,2.13509 0.1948,-0.19482 -1.4218,-3.05669 -3.5924,-6.35971 l -3.9466,-6.00548 1.1411,-11.20753 c 0.7751,-7.61362 1.5372,-11.20752 2.3766,-11.20752 1.4414,0 8.4682,7.51125 8.4682,9.05212 0,0.5755 2.5875,3.70845 5.75,6.96212 3.1625,3.25367 6.8137,7.30196 8.1137,8.9962 2.7837,3.62777 4.6207,3.4304 4.6757,-0.50235 0.028,-2.0307 1.9713,-5.00234 6.9708,-10.66175 3.8123,-4.31549 7.285,-7.84634 7.717,-7.84634 1.6218,0 22.7873,17.16753 22.2458,18.04372 -0.311,0.50322 -0.067,1.84587 0.5417,2.98367 1.3141,2.4554 3.8278,1.98167 8.6515,-1.63045 3.8124,-2.85478 17.708,-25.79391 19.9903,-33.00031 l 1.6163,-5.10337 4.2446,2.37237 c 2.3346,1.3048 5.8732,4.46267 7.8636,7.01748 2.8865,3.70495 3.619,5.52166 3.619,8.97596 0,3.68344 -0.7229,5.22799 -4.8359,10.33217 -5.4459,6.75834 -9.6415,14.70255 -10.6747,20.21225 -0.6436,3.43189 -1.4688,4.16175 -11.2519,9.95189 -10.117,5.98772 -10.6115,6.16697 -11.8539,4.29651 -3.8321,-5.76936 -4.0731,-5.95447 -5.8413,-4.48698 -0.9208,0.76419 -2.3666,2.72834 -3.2128,4.3648 -1.3855,2.6792 -4.8449,6.15793 -9.2609,9.3125 -1.2393,0.8853 -2.3872,0.7378 -5.1036,-0.65584 z m 59.7636,-3.5288 -3.539,-4.54243 3.9052,-9.13694 c 2.1479,-5.02533 3.9052,-9.28123 3.9052,-9.45758 0,-0.17634 0.6679,-0.32062 1.4842,-0.32062 0.8164,0 2.9405,-1.30114 4.7203,-2.89143 2.7501,-2.45716 3.2406,-3.58487 3.2658,-7.50844 0.021,-3.22572 0.4817,-4.74784 1.5297,-5.05117 15.6205,-4.52119 23.5388,-6.29711 28.2772,-6.34196 13.0143,-0.12318 20.2234,-10.89312 15.2535,-22.78774 -1.5644,-3.74411 -0.9305,-12.97456 1.5741,-22.92117 1.1751,-4.6669 2.8457,-4.60241 2.8799,0.11118 0.01,1.1601 1.5681,4.07157 3.466,6.46994 3.1187,3.94104 3.3917,4.79128 2.8374,8.83545 l -0.6133,4.47478 3.5482,-2.0935 3.5482,-2.0935 1.1329,2.48651 c 0.6478,1.42167 2.7831,3.1347 4.9863,4.00012 3.81,1.49663 3.8423,1.55456 2.8718,5.16227 -0.5398,2.00676 -1.1168,12.42366 -1.2821,23.14866 l -0.3007,19.5 -6.8397,7.26222 -6.8397,7.26223 -16.3686,4.98777 c -9.0027,2.74328 -16.5333,4.98778 -16.7346,4.98778 -0.2014,0 1.4256,-2.3625 3.6155,-5.25 4.7828,-6.30633 7.2192,-13.09425 6.7981,-18.93998 l -0.3104,-4.31002 -2.7243,4.63423 c -5.988,10.18594 -18.2662,17.86574 -28.5632,17.8658 -4.1871,3e-5 -5.0239,0.39025 -7.5051,3.5 -1.536,1.92498 -3.1633,3.49997 -3.6163,3.49997 -0.4529,0 -2.4161,-2.04409 -4.3625,-4.54243 z M 1017.4165,520.4202 c -8.7641,-5.85242 -11.0735,-9.28521 -12.1812,-18.10649 -0.503,-4.00648 -1.351,-8.63668 -1.8843,-10.28933 -0.5334,-1.65264 -0.6444,-5.10716 -0.2467,-7.67669 l 0.7231,-4.67188 10.75,5.37192 c 5.9981,2.99734 10.7431,4.84146 10.7344,4.17188 -0.01,-0.66002 -0.6498,-3.89633 -1.4249,-7.19179 -0.7751,-3.29547 -1.2189,-6.18222 -0.9861,-6.41502 0.2328,-0.2328 2.9636,0.28379 6.0684,1.14797 l 5.6452,1.57124 2.4454,-2.90622 c 2.2304,-2.6507 3.008,-2.90622 8.8439,-2.90622 h 6.3986 l 3.6236,-7.25 c 4.4048,-8.81291 6.4106,-11.33883 7.5626,-9.52363 0.4445,0.70049 0.8152,2.10562 0.8236,3.1225 0.01,1.01688 0.7532,3.40391 1.6551,5.30451 2.276,4.79638 0.4742,8.34662 -4.2362,8.34662 -2.223,0 -3.842,0.74184 -5.0948,2.33456 -1.4023,1.78275 -3.2513,2.49879 -7.8226,3.0294 -7.566,0.87823 -8.7984,2.4035 -10.4011,12.87306 -1.1818,7.71974 -4.5935,16.76298 -6.3242,16.76298 -0.4623,0 -2.6188,-0.90718 -4.7922,-2.01597 l -3.9516,-2.01596 0.6434,10.51596 c 0.3539,5.78379 0.4013,10.51597 0.1054,10.51597 -0.2959,0 -3.3005,-1.84472 -6.6768,-4.09937 z m 74.7815,-0.95757 c -6.2414,-1.0014 -12.7219,-3.98544 -20.5705,-9.47202 -3.5947,-2.51282 -6.7442,-4.36031 -6.9989,-4.10555 -0.7525,0.75249 1.707,4.88412 5.0688,8.51504 l 3.13,3.38053 -4.5,-0.67326 c -11.338,-1.69632 -18.1287,-8.0036 -18.772,-17.43557 -0.7487,-10.97807 4.1593,-12.25162 19.8449,-5.14955 10.8962,4.93351 17.7459,6.9687 23.5104,6.98545 6.431,0.0187 5.9896,-1.14942 -1.3283,-3.51565 -3.7152,-1.20131 -9.455,-3.40578 -12.755,-4.89883 l -6,-2.71462 3.2493,-1.38095 c 3.3262,-1.41364 4.2227,-2.88673 6.1575,-10.11826 1.3522,-5.05399 7.2798,-10.73624 12.9822,-12.4447 3.172,-0.95035 4.9722,-0.93392 8.5879,0.0784 5.3649,1.50207 6.2581,2.51696 4.2417,4.81948 -0.8126,0.92785 -2.2379,3.18743 -3.1673,5.02131 -1.5994,3.15592 -1.3292,3.0284 5.0503,-2.38357 11.3884,-9.66104 18.6432,-11.90809 32.252,-9.98939 l 5.3535,0.7548 -6.9112,3.34304 c -5.9128,2.86005 -8.7769,5.3204 -19.8245,17.02943 -8.8193,9.34728 -12.1299,13.44411 -10.4423,12.92219 4.9339,-1.52592 7.9442,-3.59799 11.6256,-8.00203 4.9822,-5.96039 15.0568,-14.0518 20.479,-16.44774 5.3484,-2.36332 14.8663,-3.79841 14.8663,-2.2415 0,2.18854 -5.307,17.82522 -7.5279,22.18045 -5.5751,10.93274 -11.0106,11.75457 -22.0834,3.33889 l -3.1113,-2.36469 -2.1179,5.80866 c -2.7558,7.55788 -7.9269,13.48972 -14.4352,16.55877 -6.3691,3.00338 -9.8195,3.56957 -15.8537,2.60143 z m 61.6723,-0.19306 c -1.0961,-3.47398 -1.2184,-8.78074 -0.3094,-13.4258 l 1.0128,-5.1758 7.2157,-0.0377 c 3.9686,-0.0207 8.4904,-0.52235 10.0485,-1.11472 l 2.8329,-1.07705 -3.9543,-1.95641 c -5.0955,-2.52102 -7.3891,-6.46321 -7.3891,-12.70015 0,-2.71097 0.2617,-5.19074 0.5816,-5.5106 0.3198,-0.31986 2.1054,0.0551 3.9678,0.83334 4.5636,1.90676 4.6282,1.88786 7.2197,-2.11263 2.1088,-3.25521 2.2209,-4.1888 1.5868,-13.20957 l -0.6823,-9.7068 2.628,1.72195 c 1.4454,0.94707 3.3347,1.72194 4.1984,1.72194 0.8637,0 2.6963,0.73772 4.0724,1.63938 2.3788,1.55863 2.6233,1.52542 4.9648,-0.67432 2.2045,-2.07099 2.4628,-3.12323 2.4628,-10.03122 v -7.71753 l 4.5,-5.00509 c 4.8661,-5.41223 5.2298,-6.36062 3.1135,-8.11702 -1.0759,-0.89295 -1.167,-2.01557 -0.4064,-5.01197 l 0.9801,-3.86127 8.4774,-0.70616 c 4.6625,-0.38839 8.6094,-0.55061 8.7708,-0.36048 0.1614,0.19012 0.5418,4.70653 0.8453,10.03645 l 0.5519,9.69077 -6.5494,4.10648 -6.5494,4.10649 0.5052,6.29421 0.5052,6.29421 -3.4225,1.84317 c -11.8773,6.39636 -18.8109,24.54924 -16.5464,43.32023 0.6164,5.11016 0.5572,7.45441 -0.1945,7.70138 -8.3331,2.73758 -31.7864,9.45229 -33.0153,9.45229 -0.8955,0 -1.8057,-0.5625 -2.0226,-1.25 z m -110.5429,-52.87073 c -6.0833,-2.41862 -11.2913,-9.97074 -12.5183,-18.15274 -0.3898,-2.59959 -1.0292,-4.72653 -1.4209,-4.72653 -1.2721,0 -4.9001,4.42761 -5.9942,7.3151 -0.5866,1.5483 -1.0666,5.0358 -1.0666,7.75 0,5.76868 -1.3248,6.32546 -5.1987,2.1849 -4.366,-4.66639 -6.1135,-9.27451 -6.5416,-17.25 -0.3435,-6.39871 -0.062,-8.14559 1.9188,-11.89659 1.8783,-3.55725 3.2296,-4.73248 7.0784,-6.15598 2.6163,-0.96767 7.2236,-4.01381 10.2385,-6.76921 6.9846,-6.38355 13.2523,-8.61428 24.0046,-8.54347 6.2042,0.0409 9.5203,0.64895 14.7728,2.70897 10.8789,4.26665 16.0669,3.64116 37.044,-4.46616 15.7425,-6.08421 19.3645,-6.37754 26.8266,-2.1726 4.2846,2.41443 5.422,3.59653 5.6836,5.90678 0.5375,4.74841 1.7888,4.80611 4.9512,0.22828 6.6627,-9.64464 15.4596,-16.19296 23.5078,-17.499 7.7131,-1.25167 21.7986,5.66899 20.1709,9.91067 -0.5537,1.44306 -1.943,1.74831 -7.9569,1.74831 -5.4336,0 -7.4271,0.3677 -7.841,1.44625 -0.3052,0.79543 -4.385,3.30006 -9.0661,5.56585 -7.2468,3.50767 -8.6938,4.62483 -9.741,7.52082 -1.0589,2.92837 -1.8,3.48671 -5.331,4.01621 -4.6261,0.69373 -14.9019,-0.91752 -20.7341,-3.25111 -3.6937,-1.47791 -3.9945,-1.45149 -6.1108,0.53667 -1.2243,1.15012 -4.6897,2.73384 -7.701,3.51938 -5.0982,1.32998 -5.282,1.47856 -2.6707,2.15913 2.6424,0.68868 6.6236,0.32271 11.2172,-1.03115 2.8412,-0.83741 9.7052,4.36855 11.9236,9.04345 0.9808,2.06686 2.0297,5.59544 2.3309,7.8413 l 0.5477,4.08338 -3.1364,-2.63915 c -4.1691,-3.50804 -9.4555,-5.20068 -16.3745,-5.24295 -4.5391,-0.0277 -6.1671,0.4161 -8.0644,2.19859 -2.9066,2.73056 -3.2835,2.74414 -6.4755,0.23333 -3.65,-2.8711 -7.5981,-2.53134 -11.6201,1 -1.8793,1.65 -3.6949,3 -4.0348,3 -0.3399,0 -0.618,-1.39307 -0.618,-3.09571 0,-4.42437 -2.8929,-8.78304 -7.3469,-11.06922 -2.1158,-1.08603 -4.0615,-1.76002 -4.3237,-1.49776 -0.2623,0.26226 0.3104,1.98115 1.2727,3.81976 1.9014,3.63292 3.3219,19.84293 1.7389,19.84293 -0.5004,0 -1.7232,-1.37703 -2.7174,-3.06006 -2.2406,-3.79296 -7.483,-6.44303 -10.9997,-5.56038 -4.2495,1.06653 -9.7521,6.71208 -12.7795,13.11135 -1.5635,3.305 -2.8432,6.57159 -2.8436,7.25909 -9e-4,1.45885 -0.6074,1.47844 -4.0008,0.12927 z m 95.4562,-24.3919 c -0.7831,-4.31568 -2.8603,-9.03025 -5.1144,-11.6077 -1.2955,-1.48135 -0.9638,-1.53793 3.868,-0.65973 9.4053,1.70946 21.4857,0.62328 28.2873,-2.54338 7.2537,-3.37721 10.193,-5.98921 11.0305,-9.80214 0.5922,-2.69654 0.9395,-2.87442 5.6109,-2.87442 3.2744,0 4.7537,0.36548 4.3199,1.06731 -0.3632,0.5877 0.2843,1.31415 1.441,1.61663 1.478,0.3865 2.1006,1.34734 2.1006,3.24156 0,3.56097 -0.8112,4.44943 -12.342,13.51803 l -9.8421,7.7404 -6.2709,-3.08717 c -5.6745,-2.79354 -17.7997,-5.5087 -19.044,-4.26445 -0.2755,0.27556 -0.501,2.14001 -0.501,4.14323 0,2.00321 -0.6346,4.51003 -1.4102,5.5707 -1.3186,1.8033 -1.4571,1.66962 -2.1336,-2.05887 z m 58.7938,-33.74338 c -1.4156,-0.66036 -2.25,-1.93851 -2.25,-3.44646 0,-4.71455 -4.2472,-10.18461 -12.0236,-15.48559 l -2.4764,-1.68806 3,-2.52598 c 3.939,-3.31663 4.7978,-3.2303 4,0.4021 -0.557,2.53583 -0.3561,3 1.2981,3 5.4741,0 5.2297,-5.39601 -0.8304,-18.32777 -2.1822,-4.65681 -3.9677,-8.73813 -3.9677,-9.06958 0,-0.33146 0.9827,-0.60265 2.1838,-0.60265 1.3162,0 4.1307,2.01974 7.0835,5.08324 2.6947,2.79578 5.0376,4.93328 5.2064,4.75 0.1688,-0.18328 -0.1307,-3.18384 -0.6654,-6.6679 -0.5348,-3.48406 -0.74,-6.567 -0.456,-6.85098 0.284,-0.28399 2.1209,0.70752 4.082,2.20334 3.1975,2.43881 3.5657,2.52506 3.5657,0.83512 0,-1.03651 -1.8,-4.96482 -4,-8.72958 -2.2,-3.76476 -4,-7.25924 -4,-7.76552 0,-2.10068 3.1064,-1.85752 6.6003,0.51667 2.0536,1.39544 4.0758,2.32579 4.4938,2.06746 0.418,-0.25834 1.2621,-1.99099 1.8757,-3.85033 0.6306,-1.91087 1.9666,-3.60314 3.073,-3.89245 1.0764,-0.28151 1.9572,-0.35688 1.9572,-0.1675 0,0.18938 -0.6971,3.35015 -1.5491,7.02394 -0.852,3.67379 -1.3758,6.85287 -1.1641,7.06464 0.2118,0.21177 3.0043,-0.51614 6.2057,-1.61756 10.2151,-3.51452 10.1119,-2.38843 -0.6095,6.65261 -7.1328,6.01485 -10.8456,10.71553 -9.5148,12.04632 0.3739,0.37388 7.8133,-0.70996 15.8818,-2.31379 5.1976,-1.03318 2.9854,2.40011 -5.6982,8.84354 -7.0475,5.22936 -8.7051,7.00151 -9.9971,10.68831 -0.8519,2.43077 -1.3955,4.5729 -1.2082,4.76028 0.1874,0.18739 4.7565,-1.01855 10.1535,-2.67986 5.397,-1.66131 9.9893,-2.84403 10.2051,-2.62828 0.2157,0.21576 0.1077,1.52602 -0.2401,2.91169 -0.452,1.80113 -3.8159,4.63608 -11.7987,9.94366 -16.9173,11.24796 -15.868,10.7057 -18.4163,9.51692 z m -114.6062,-0.39914 c -1.4861,-0.42624 -1.7323,-1.15229 -1.2347,-3.64056 1.9526,-9.76265 16.3888,-13.84724 28.5909,-8.08948 l 5.5,2.59527 -5.4173,1.41727 c -2.9795,0.7795 -7.7909,2.77535 -10.6921,4.43522 -5.1626,2.95377 -12.7248,4.43591 -16.7468,3.28228 z m 56.4264,-10.50461 c -1.3365,-0.49987 -4.3418,-0.62214 -6.6785,-0.27172 -3.9706,0.59541 -4.5316,0.37018 -8.5702,-3.4407 l -4.3215,-4.07781 3.25,-0.025 c 1.7875,-0.0137 3.25,-0.32002 3.25,-0.68061 0,-0.36058 -1.2008,-2.23001 -2.6686,-4.15428 l -2.6685,-3.49867 4.1071,0.55089 c 3.2382,0.43433 4.4734,0.14626 5.838,-1.36163 1.5977,-1.76545 1.6049,-2.0074 0.094,-3.1466 -2.1469,-1.61864 -4.2843,-7.04485 -5.1559,-13.08896 -0.4574,-3.17189 -1.9298,-6.5665 -4.2474,-9.7924 -4.2791,-5.95627 -3.922,-7.12274 0.7158,-2.33776 1.8578,1.91676 3.7206,3.48502 4.1396,3.48502 0.419,0 0.8932,-3.4875 1.0538,-7.75 l 0.2921,-7.75 2.4251,7 c 1.4441,4.16845 2.4553,9.42143 2.5,12.98612 l 0.075,5.98612 5.3684,0.859 5.3684,0.859 -0.6586,5.82083 c -0.77,6.80634 0.036,10.98893 2.117,10.98893 0.8132,0 1.9881,-1.35 2.6109,-3 1.9982,-5.29394 3.6939,-3.68729 3.6939,3.5 0,3.65415 -0.4366,6.5 -0.9972,6.5 -0.5484,0 -2.6859,1.51854 -4.75,3.37454 -3.1402,2.82363 -4.1495,3.22617 -6.1827,2.4657 z"
       id="path1" />
  </g>
</svg>
