<?xml version="1.0" encoding="UTF-8" standalone="no"?>
<!-- Created with Inkscape (http://www.inkscape.org/) -->

<svg
   version="1.1"
   id="svg1"
   width="235.11963"
   height="226.28166"
   viewBox="0 0 235.11963 226.28166"
   xmlns="http://www.w3.org/2000/svg"
   xmlns:svg="http://www.w3.org/2000/svg">
  <defs
     id="defs1" />
  <g
     id="g1"
     transform="translate(-949.51425,-145.72636)">
    <path
       d="m 1082.361,367.41047 c 4.8629,-4.47518 6.9796,-5.35922 8.1803,-3.41649 0.9099,1.47231 -1.2594,3.77902 -5.6703,6.02929 -6.7508,3.44398 -7.8492,2.30064 -2.51,-2.6128 z m 16.6532,3.6518 c 0,-1.50974 9.9991,-10.23069 11.0122,-9.60455 1.8556,1.14678 0.9903,3.38883 -2.2666,5.87296 -3.7129,2.83193 -8.7456,4.97931 -8.7456,3.73159 z m -29.6685,-7.56369 c 2.8551,-2.16378 11.6141,-4.0028 12.907,-2.70992 0.769,0.76901 0.7109,1.51758 -0.2033,2.61914 -0.9236,1.11289 -3.1256,1.53352 -7.9076,1.51058 -5.87,-0.0282 -6.4182,-0.19047 -4.7961,-1.4198 z m 44.2755,-0.13019 c -1.6671,-4.34452 -0.5599,-7.48707 4.643,-13.17781 2.8875,-3.15822 6.3076,-7.99181 7.6002,-10.74131 1.7547,-3.73232 4.138,-6.37293 9.4053,-10.42072 l 7.055,-5.42162 -0.6717,4.20087 c -1.185,7.41074 -4.9534,17.39939 -8.1413,21.57974 -2.7784,3.64342 -17.0355,15.5419 -18.6405,15.55671 -0.3536,0.003 -0.9161,-0.70587 -1.25,-1.57586 z m -21.0124,-1.03241 c -0.4221,-1.10002 -1.4231,-1.46057 -3.1424,-1.1319 -2.96,0.56583 -5.5416,-2.62185 -2.9339,-3.62255 2.0272,-0.77788 1.8697,-4.31487 -0.2448,-5.49817 -1.8909,-1.05823 -1.1418,-1.61057 8.7265,-6.43377 3.0238,-1.4779 4.6038,-2.92907 4.8162,-4.42365 l 0.3162,-2.22423 -5.6946,2.5184 c -14.8193,6.55383 -33.2627,7.64397 -51.5781,3.04868 -10.3932,-2.60761 -19.3019,-5.80936 -27.3597,-9.83295 l -4,-1.99737 5,5.15499 c 2.9148,3.00515 7.8616,6.58939 11.8616,8.59444 3.7738,1.8917 6.2488,3.65424 5.5,3.91677 -0.7489,0.26252 -6.2039,1.57555 -12.1223,2.91783 l -10.7608,2.44051 -9.9112,-5.72619 -9.91134,-5.72618 9.02494,-1.27734 c 4.9637,-0.70254 8.6411,-1.59543 8.172,-1.9842 -0.4691,-0.38877 -3.1029,-1.26132 -5.8529,-1.93899 -10.78646,-2.65808 -20.05037,-8.73921 -25.5992,-16.80416 -5.90629,-8.58449 -10.7171,-25.47599 -12.34803,-43.35577 l -0.5929,-6.5 3.00524,8.75396 c 5.17571,15.0763 8.14802,19.61132 17.41978,26.5783 5.51306,4.14262 5.5326,2.37478 0.0921,-8.33267 -5.80607,-11.42692 -7.7191,-18.46191 -7.66304,-28.18017 0.0898,-15.56198 7.81332,-28.25437 24.68615,-40.56762 9.5326,-6.95662 12.5,-9.79667 12.5,-11.96364 0,-5.54618 -18.41775,-4.38701 -27.42596,1.72613 -4.64096,3.14943 -4.95152,3.11626 -3.1652,-0.33811 0.80314,-1.55309 3.33099,-4.0618 5.61744,-5.57491 2.28645,-1.5131 3.93614,-2.97213 3.66598,-3.24229 -0.75915,-0.75916 -13.88157,5.0793 -21.76686,9.68456 -3.8941,2.27428 -7.26885,3.9464 -7.49942,3.71582 -0.23058,-0.23058 0.30404,-2.85478 1.18805,-5.83156 1.12939,-3.80306 2.91212,-6.71716 5.99573,-9.80076 l 4.38843,-4.38844 -3.65959,0.59387 -3.65959,0.59387 3.39798,-3.50582 c 4.68468,-4.83337 12.87042,-8.61673 20.26052,-9.3642 l 6.16244,-0.6233 -3.5,-2.23997 c -1.925,-1.23199 -5.37184,-2.7226 -7.65965,-3.31248 l -4.15966,-1.0725 1.97509,-3.34752 c 1.56161,-2.64674 1.74584,-3.77586 0.88001,-5.39368 -2.19529,-4.10193 -12.41957,-7.32651 -27.53579,-8.68438 l -8,-0.71863 3.5,-1.44525 c 10.00866,-4.13285 22.44468,-6.40856 35,-6.40477 14.49965,0.004 24.23915,2.11388 35.35055,7.65666 l 6.8799,3.43194 -0.5739,-2.86956 c -0.5625,-2.81287 -0.5105,-2.85174 2.6348,-1.96769 1.7648,0.49603 5.9008,2.28067 9.1913,3.96588 l 5.9826,3.064 -2.9826,-3.17425 c -1.6405,-1.74583 -4.3327,-4.01554 -5.9827,-5.04379 l -3,-1.86955 4.5,0.006 c 13.8582,0.0186 29.6883,16.52846 30.8176,32.14092 0.4732,6.54188 -0.7679,7.63737 -2.6756,2.36173 -1.4823,-4.09945 -9.5953,-13.23927 -14.0543,-15.83333 l -3.1237,-1.81717 3.4687,6.31717 c 3.6401,6.62951 6.5712,16.13385 6.5618,21.27727 0,1.67194 -0.5038,4.8344 -1.1127,7.02768 l -1.1071,3.98779 -2.6373,-5.18059 c -5.5695,-10.9402 -19.8108,-24.17107 -33.7336,-31.34008 -4.3471,-2.23834 -9.2538,-5.58474 -10.9038,-7.43644 -2.9173,-3.27398 -3.3168,-3.3992 -14.49997,-4.5451 -6.325,-0.64811 -11.8375,-1.3838 -12.25,-1.63488 -0.4125,-0.25108 -0.75,-0.24772 -0.75,0.007 0,0.2552 1.96328,1.61456 4.36285,3.0208 2.39956,1.40624 5.70158,4.08153 7.33781,5.94509 2.69282,3.06695 3.61524,3.43969 9.72631,3.93023 15.4016,1.23629 34.548,15.62469 42.2597,31.75792 1.79,3.74474 2.7757,7.74466 3.0888,12.5335 0.4272,6.5348 0.2662,7.26356 -2.2705,10.27825 -1.5017,1.78462 -7.9671,6.34379 -14.3676,10.13149 -18.195,10.76738 -23.4707,17.83575 -23.5535,31.55676 -0.045,7.37513 1.4593,11.57961 5.9015,16.5 1.2413,1.375 2.5514,3.74885 2.9112,5.27521 1.0735,4.55396 7.5541,10.76479 15.1034,14.47462 l 7,3.4399 -6.2357,-0.49874 c -3.4742,-0.27787 -8.2928,-1.49457 -10.8807,-2.74738 -6.3636,-3.08056 -15.1019,-12.08667 -18.1168,-18.67209 -2.251,-4.91687 -2.4483,-6.38028 -2.0365,-15.10787 0.2507,-5.31501 1.1816,-11.67108 2.0685,-14.1246 0.887,-2.45353 1.466,-4.60764 1.2867,-4.78691 -1.0106,-1.01059 -10.1121,9.65648 -12.28049,14.39287 -3.349,7.31519 -2.93912,16.21819 1.11435,24.20442 2.99848,5.9077 4.07654,6.36648 2.56357,1.09094 -1.10063,-3.83766 -1.15127,-14.11845 -0.0884,-17.93939 0.57869,-2.08028 0.98085,-1.34142 2.40007,4.40944 2.5075,10.1613 5.9536,16.91442 11.7695,23.06383 6.6994,7.08364 13.103,11.12638 22.692,14.32598 6.8875,2.2982 9.3475,2.58613 22.2439,2.60362 11.4599,0.0156 15.4435,-0.34706 19,-1.72944 5.0422,-1.95986 15,-7.75563 15,-8.73049 0,-0.34843 -2.3625,0.16183 -5.25,1.13392 -6.8739,2.31412 -21.7293,4.34282 -22.9395,3.13268 -0.562,-0.56202 1.2838,-2.00047 4.7315,-3.68728 7.1406,-3.49304 20.458,-12.35956 20.458,-13.62007 0,-0.52396 -1.3002,-1.2127 -2.8893,-1.53053 -2.8673,-0.57346 -2.9046,-0.67454 -4.8775,-13.225 -1.0934,-6.95592 -1.8115,-12.84137 -1.5956,-13.07878 0.2158,-0.2374 1.8658,0.99642 3.6666,2.74182 3.1158,3.02 3.3843,3.09631 5.5522,1.5779 1.3341,-0.93444 2.0434,-2.20696 1.7118,-3.07107 -0.4516,-1.17678 0.036,-1.34313 2.4103,-0.82172 4.3122,0.94712 7.018,-0.25715 8.5007,-3.78349 0.9584,-2.2794 1.0218,-3.71293 0.2401,-5.42853 -1.2658,-2.77825 -5.1516,-3.99923 -7.2323,-2.27248 -1.2672,1.05171 -1.487,0.72334 -1.487,-2.22167 0,-4.49568 0.3835,-4.76537 4.6773,-3.28925 6.1362,2.10954 8.3049,0.67558 9.8301,-6.49986 0.6718,-3.16092 1.9546,-4.9427 3.5885,-4.98469 0.3278,-0.008 0.5528,1.97994 0.5,4.41858 -0.078,3.60942 0.4463,4.99992 2.82,7.47789 l 2.916,3.044 -4.666,4.1071 c -4.6811,4.12048 -5.9665,6.93712 -3.1659,6.93712 1.6855,0 2.0154,1.56343 0.5244,2.48495 -1.6808,1.0388 -7.719,12.76448 -9.5343,18.51505 -2.5232,7.99269 -4.9919,11.53425 -10.5514,15.13666 -2.7151,1.75934 -4.7557,3.37962 -4.5347,3.60064 0.6653,0.66529 10.8109,-3.91152 15.1532,-6.8358 5.4979,-3.70246 11.6388,-10.6615 11.2254,-12.72077 -0.2265,-1.12783 -1.2936,-1.66306 -3.2439,-1.62703 -2.7605,0.051 -2.5478,-0.27537 4.2379,-6.5 l 7.1443,-6.5537 0.2896,-7.49028 0.2895,-7.49028 7.6982,7.31816 c 4.518,4.29501 8.1446,8.67109 8.779,10.59323 0.5945,1.80129 2.1928,4.31968 3.5519,5.59643 l 2.4709,2.32137 0.07,-3.42432 c 0.039,-1.88337 0.4074,-4.28397 0.8194,-5.33467 0.6661,-1.69896 0.9876,-1.52432 2.9051,1.5783 1.1859,1.91876 3.2991,4.00943 4.6961,4.64595 2.4396,1.11152 2.514,1.04909 1.8827,-1.5783 -0.3616,-1.50457 -1.5026,-4.42309 -2.5358,-6.48559 -2.2936,-4.57885 -1.0756,-4.77573 3.6852,-0.59567 l 3.5926,3.15433 -0.7042,-2.90433 c -0.3873,-1.59738 -1.0883,-3.94612 -1.5578,-5.21943 -1.3204,-3.58124 -1.0612,-5.47856 0.6582,-4.81875 1.3426,0.51518 1.3466,0.26068 0.036,-2.27313 -3.7141,-7.1824 -7.6604,-9.93096 -19.5402,-13.60977 -2.274,-0.70417 -2.367,-0.62096 -1.0628,0.95051 0.7861,0.94724 3.5507,2.79724 6.1435,4.1111 8.339,4.22571 10.7722,10.33796 5.5668,13.98395 -3.9884,2.79363 -6.9703,1.8322 -13.2708,-4.27881 -3.2605,-3.1625 -7.5949,-6.875 -9.632,-8.25 -2.0371,-1.375 -4.4358,-3.85804 -5.3306,-5.51787 -1.7306,-3.21047 -1.9102,-2.48737 4.3095,-17.34846 0.4504,-1.07635 0.1533,-1.14234 -1.4002,-0.31094 -1.6683,0.89285 -2.244,0.59495 -3.7381,-1.93435 -1.2017,-2.03419 -2.138,-2.69558 -2.9296,-2.06938 -1.9164,1.51585 -8.549,3.36985 -9.641,2.69493 -2.0037,-1.23832 4.2684,-7.5292 8.612,-8.6379 6.7522,-1.72347 14.2909,-10.87603 8.9583,-10.87603 -0.709,0 -2.1008,1.8 -3.0929,4 -1.6005,3.54946 -2.1938,4 -5.267,4 -2.6437,0 -4.205,0.79623 -6.5981,3.36485 -5.2441,5.62884 -9.6349,6.74298 -9.6349,2.44483 0,-1.33823 -0.4814,-1.83891 -1.4214,-1.47822 -1.1615,0.44573 -1.325,-0.4945 -0.8945,-5.14301 0.6963,-7.51726 7.3629,-18.15142 13.2677,-21.16385 4.7625,-2.42963 5.1577,-2.47347 4.3957,-0.48761 -0.3244,0.84534 -1.8246,2.17551 -3.3338,2.95594 -2.0914,1.08152 -2.9028,2.41242 -3.412,5.59652 -0.9126,5.70727 -0.147,5.93185 2.1924,0.64313 1.505,-3.40225 2.6294,-4.56843 4.8336,-5.01304 2.9885,-0.60283 4.4412,-3.35954 6.2905,-11.93741 0.7307,-3.38934 6.0233,-9.78213 8.0987,-9.78213 1.7129,0 5.9831,-6.28595 5.9831,-8.8074 0,-1.45967 -0.9964,-5.05797 -2.2142,-7.99622 -2.1003,-5.06725 -2.1284,-5.48008 -0.5461,-8.01932 0.9174,-1.47239 3.063,-5.29961 4.7679,-8.50494 3.3856,-6.36501 5.2103,-6.50959 6.5265,-0.51711 0.5407,2.46168 0.075,3.74866 -2.5336,6.99403 -2.89,3.59625 -3.0512,4.1388 -1.6822,5.66409 0.8327,0.92778 2.2756,3.59937 3.2064,5.93687 1.1707,2.93966 2.2853,4.25 3.6153,4.25 2.4452,0 3.2049,-1.96283 1.9932,-5.14986 -0.8462,-2.22561 -0.5784,-2.69412 2.4828,-4.34264 1.8872,-1.01634 4.3422,-3.32177 5.4555,-5.12318 1.1134,-1.80142 3.3527,-4.69742 4.9764,-6.43557 1.6237,-1.73814 2.9908,-3.67517 3.0381,-4.30451 0.047,-0.62933 0.449,0.0583 0.8927,1.52805 0.4438,1.46975 0.4248,5.96975 -0.042,10 -1.1691,10.09265 -1.2254,9.71712 1.5634,10.41707 3.8652,0.97009 2.9783,3.13458 -2.4014,5.86065 -7.7702,3.93748 -10.6451,8.79189 -8.0634,13.61573 1.5684,2.93063 5.1421,2.33031 9.7848,-1.64366 3.788,-3.24242 4.18,-3.38013 4.18,-1.46862 0,1.16012 -0.6402,2.35498 -1.4227,2.65524 -2.2795,0.87475 -2.7456,3.48546 -1.077,6.0322 1.3717,2.09336 1.3752,2.3591 0.031,2.3591 -0.833,0 -2.0766,0.9 -2.7636,2 -0.6869,1.1 -1.7606,2 -2.386,2 -0.6253,0 -1.7042,0.68344 -2.3975,1.51876 -1.6344,1.96939 0.8748,4.93927 5.6242,6.65667 4.3282,1.56511 4.8782,3.2756 1.7187,5.34577 -2.2225,1.45627 -2.4738,2.16097 -1.9465,5.45871 0.8573,5.3613 -1.446,7.24695 -4.8946,4.00713 -2.017,-1.8949 -2.8594,-2.11996 -4.7207,-1.26114 -1.7861,0.82418 -3.0607,0.60647 -6.0233,-1.02881 l -3.7579,-2.0742 -3.3851,3.28101 c -2.8604,2.7724 -3.7016,3.11166 -5.4264,2.18855 -2.8369,-1.51823 -6.4322,-1.36351 -8.7317,0.37575 -1.816,1.37357 -1.6926,1.47024 1.9146,1.5 2.6638,0.022 4.8136,0.8379 6.9548,2.63964 2.6225,2.20668 3.7481,2.51891 7.3169,2.02975 3.9123,-0.53623 4.4496,-0.31398 7.4202,3.06943 4.5362,5.16643 5.6458,8.42924 7.2682,21.37233 2.2256,17.75541 0.4899,30.76317 -5.6574,42.39877 -3.7451,7.08873 -17.9631,21.66827 -28.302,29.02188 l -7.0299,5 -1.1687,6.80061 c -2.0049,11.66608 -7.1631,18.62951 -16.8878,22.79797 -5.4168,2.32195 -6.8737,2.37646 -7.6754,0.28722 z m 13.4054,-135.3858 c 0,-0.55 -1.1515,-1 -2.559,-1 -1.4513,0 -2.2915,0.43284 -1.941,1 0.34,0.55 1.4915,1 2.5591,1 1.0675,0 1.9409,-0.45 1.9409,-1 z m 9.6401,-8.9402 c 4.6387,-2.24117 5.8391,-3.53256 6.7212,-7.23053 0.5606,-2.35024 0.2842,-2.74823 -2.3035,-3.31657 -5.4869,-1.20513 -8.9515,2.25234 -8.7673,8.74923 0.058,2.05594 0.1572,3.73807 0.2199,3.73807 0.063,0 1.9211,-0.87309 4.1297,-1.9402 z m 21.2825,-1.51975 c 2.9945,-1.54855 4.0416,-3.96083 4.0638,-9.36263 l 0.014,-3.32258 -2.3126,1.82258 c -8.9419,7.04712 -8.9618,7.07499 -6.9958,9.77569 2.162,2.96984 1.7538,2.88502 5.2309,1.08694 z m -102.5037,-10.61928 c 0.3151,-0.31858 -3.881,-2.71539 -9.3246,-5.32625 l -9.8976,-4.74701 -10.0983,2.27737 c -5.55412,1.25256 -10.09837,2.5539 -10.09837,2.89186 0,0.33797 5.18137,2.17785 11.51417,4.08862 11.0991,3.34889 11.7994,3.43666 19.4229,2.43439 4.3498,-0.57186 8.1666,-1.30041 8.4818,-1.61898 z m 117.3311,-1.00847 c 1.7631,-1.09186 2.25,-2.31516 2.25,-5.65285 0,-2.3427 -0.2429,-4.25945 -0.5398,-4.25945 -0.2969,0 -2.3219,0.90915 -4.5,2.02032 -3.831,1.95442 -3.9602,2.18653 -3.9602,7.11501 0,5.04995 0.02,5.08185 2.25,3.63252 1.2375,-0.80419 3.2625,-2.08919 4.5,-2.85555 z m -17.0967,-1.40198 c 3.568,-1.05956 5.3465,-2.21447 6.1601,-4 1.1233,-2.46546 1.0682,-2.51018 -3.0848,-2.50262 -3.8815,0.007 -4.4157,0.3354 -6.5084,4 -1.2539,2.19577 -2.1231,3.9923 -1.9315,3.9923 0.1916,0 2.6057,-0.67035 5.3646,-1.48968 z m -64.5331,152.58508 c -1.442,-0.91327 6.5735,-3.0954 11.37,-3.0954 2.8678,0 4.3147,1.87613 2.388,3.09649 -1.7882,1.13261 -11.9694,1.13181 -13.758,-0.001 z m -50.6949,-72.53713 c -0.3826,-1.52457 -0.1564,-5.18185 0.5028,-8.12731 1.6062,-7.1772 7.5355,-13.71659 17.1809,-18.94875 10.5638,-5.73035 19.5494,-14.9384 24.7213,-25.33325 4.7143,-9.4753 5.8038,-9.09864 4.8663,1.68241 -0.7578,8.71401 -2.3637,13.16863 -4.7473,13.16863 -3.3602,0 -6.7333,2.18371 -8.5318,5.52348 -1.6629,3.08768 -1.6686,3.44428 -0.094,5.84719 2.337,3.56676 2.1927,3.97104 -2.3241,6.50958 -3.3892,1.90485 -3.8472,2.53534 -2.9964,4.12497 1.4173,2.6483 -2.227,4.99478 -7.7575,4.99478 -7.4641,0 -14.2572,3.86241 -18.3179,10.4151 l -1.8065,2.9151 z m 154.8297,-15.05827 c -3.4653,-5.33946 -3.7689,-7.77734 -1.0343,-8.30399 2.1442,-0.41292 4.996,5.99851 4.5754,10.28629 l -0.2961,3.0177 z m 8.8084,-1.72325 c -0.035,-0.94779 -1.0531,-3.76051 -2.2629,-6.25049 -2.2842,-4.70159 -1.6229,-7.43956 1.5068,-6.23857 1.8528,0.71097 3.0545,8.61903 1.7904,11.78247 -0.6778,1.69636 -0.99,1.90966 -1.0343,0.70659 z m -16.5899,-14.51597 c -0.9169,-3.15391 -2.3316,-7.01964 -3.144,-8.59051 -0.8123,-1.57087 -1.2625,-3.07055 -1.0004,-3.33262 0.7578,-0.75781 15.3983,5.62887 16.8142,7.33492 1.0782,1.29922 0.8519,1.85548 -1.4313,3.51871 -1.4916,1.08654 -2.712,2.82388 -2.712,3.86074 0,1.21885 -0.5025,1.69235 -1.4218,1.33959 -0.782,-0.30009 -2.3254,-0.062 -3.4298,0.52897 -1.8386,0.98402 -2.1483,0.5913 -3.6749,-4.6598 z m -78.7628,-33.75552 c -4.2057,-3.21131 -4.7107,-4.01837 -4.7107,-7.52891 0,-2.24467 1.1573,-6.29158 2.6967,-9.43042 l 2.6966,-5.49837 -2.1966,-2.33823 c -2.881,-3.06671 -2.7785,-3.90306 0.8033,-6.55121 2.8554,-2.11104 3,-2.56893 3,-9.49561 v -7.27761 l 4.0171,-1.77234 c 2.6265,-1.15881 4.6385,-2.98356 5.8122,-5.27126 1.5983,-3.11544 1.9413,-3.32267 3.1297,-1.89079 1.1379,1.37118 0.9969,1.96759 -0.9574,4.04778 -2.2647,2.41073 -2.2801,2.59715 -1.2971,15.72068 0.8059,10.75902 0.7386,13.6556 -0.3548,15.25354 -0.7423,1.08487 -1.3595,2.88487 -1.3716,4 -0.012,1.11512 -0.9809,4.05249 -2.153,6.52749 -1.172,2.475 -2.6423,6.88548 -3.2673,9.80107 l -1.1364,5.30106 z m 14.2893,-14.22671 c 0,-1.05725 0.7301,-4.06502 1.6225,-6.68393 1.2688,-3.72377 1.3778,-5.29863 0.5,-7.22519 -1.7804,-3.90765 -1.2963,-5.16602 0.7192,-1.86943 1.0088,1.65 2.5821,3.6176 3.4963,4.37244 0.9141,0.75485 1.662,1.66696 1.662,2.02692 0,0.35995 -1.8,3.05004 -4,5.97796 -2.7665,3.68187 -4,4.73072 -4,3.40123 z"
       id="path1" />
  </g>
</svg>
