<?xml version="1.0" encoding="UTF-8" standalone="no"?>
<!-- Created with Inkscape (http://www.inkscape.org/) -->

<svg
   version="1.1"
   id="svg1"
   width="228.78531"
   height="225.41389"
   viewBox="0 0 228.78531 225.41389"
   xmlns="http://www.w3.org/2000/svg"
   xmlns:svg="http://www.w3.org/2000/svg">
  <defs
     id="defs1" />
  <g
     id="g1"
     transform="translate(-361.99911,-1085.5447)">
    <path
       d="m 373.95346,1305.3392 c -4.77938,-12.7741 -4.79391,-22.917 -0.0444,-30.9669 1.09124,-1.8495 2.61144,-6.3612 3.37823,-10.0261 1.35205,-6.4621 1.78105,-7.1748 9.58473,-15.9225 0.41283,-0.4628 2.48697,2.3347 4.6092,6.2165 3.64759,6.672 4.22905,7.2288 10.63259,10.181 5.27179,2.4304 7.0677,3.8238 8.09846,6.2834 1.71462,4.0915 6.19954,9.3899 8.59053,10.1488 1.70492,0.5411 1.74689,0.841 0.46224,3.3034 -0.77709,1.4896 -1.41567,3.222 -1.41906,3.8499 -0.003,0.6279 -1.14251,1.4268 -2.53137,1.7754 -1.38887,0.3486 -4.20137,2.131 -6.25,3.9609 -3.12739,2.7936 -4.76729,3.4323 -10.22479,3.9828 -7.97704,0.8046 -15.94162,4.532 -19.87154,9.2996 l -2.91236,3.5332 z m 54.46504,-22.8241 c 1.84158,-6.9177 1.95229,-6.5598 -2.27425,-7.3527 -3.93335,-0.7379 -13.30439,-9.0056 -13.30439,-11.738 0,-0.7897 -2.83815,-3.2154 -6.307,-5.3904 l -6.30701,-3.9545 -2.34422,-8.8738 c -2.16934,-8.2118 -2.25789,-9.5224 -1.18689,-17.5664 2.5097,-18.85 10.6586,-39.2286 21.30543,-53.2802 5.29979,-6.9946 14.99011,-15.6411 22.6458,-20.2064 l 4.19389,-2.501 v 4.8752 c 0,8.4727 -2.56382,14.9307 -7.82097,19.7006 -13.74402,12.4699 -13.70216,12.2995 -1.15602,4.705 9.21158,-5.576 17.41755,-8.8548 24.63796,-9.8445 l 4.56443,-0.6256 -0.56339,2.9013 c -0.30987,1.5958 -1.05582,5.4327 -1.65768,8.5265 -1.48034,7.6097 -5.84072,14.1774 -11.87929,17.893 -2.71039,1.6677 -5.66916,4.1634 -6.57505,5.5459 l -1.64707,2.5138 5.79854,-2.9241 c 7.2751,-3.6687 17.13937,-6.74 24.6687,-7.6807 l 5.79882,-0.7246 -2.00345,3.9271 c -2.48216,4.8655 -9.39073,11.8792 -14.06119,14.2753 l -3.5106,1.8011 3.45313,0.8219 c 1.89922,0.4521 5.55701,0.694 8.12842,0.5377 10.89931,-0.6628 23.73099,4.3069 32.59991,12.6258 l 4.7248,4.4318 -4,3.5115 c -8.35802,7.3374 -23.15797,13.1104 -41.87545,16.3342 -9.27489,1.5975 -9.8883,1.8379 -7.30945,2.8645 1.5483,0.6164 5.97042,1.1207 9.82692,1.1207 6.4889,0 7.24015,0.2283 10.07336,3.0615 3.76593,3.766 3.06684,4.6355 -4.92137,6.121 l -6.04827,1.1248 2.62713,2.2858 c 3.43115,2.9853 2.38974,4.7312 -5.39218,9.0403 -7.64665,4.2341 -19.42907,7.3666 -27.70828,7.3666 h -6.59139 z m -0.66178,-22.6123 c 6.02618,-0.288 10.49642,-2.1729 12.0535,-5.0823 1.12513,-2.1023 1.39104,-9.95 0.42265,-12.4736 -0.36738,-0.9574 -1.84769,-1.605 -3.75,-1.6406 -2.84379,-0.053 -2.96079,-0.1722 -1.22897,-1.25 4.25072,-2.6454 7.79084,-6.3702 7.4487,-7.8373 -0.31279,-1.3412 -1.52547,-1.1798 -8.80597,1.1724 -6.44437,2.0819 -9.20878,3.5631 -11.67692,6.2563 -4.873,5.3173 -6.81536,14.8115 -4.35442,21.2843 0.91903,2.4172 1.20435,2.5483 2.75,1.2634 0.94851,-0.7886 4.16216,-1.5502 7.14143,-1.6926 z m 74.05252,26.3498 c -5.81541,-1.8228 -12.73022,-7.7512 -15.08325,-12.9317 -3.14671,-6.9278 -2.84733,-7.35 4.86387,-6.8588 5.77038,0.3675 7.25795,0.1 10.25,-1.8436 l 3.5,-2.2735 -5.5247,-0.6342 c -3.03859,-0.3488 -6.60649,-1.2131 -7.92867,-1.9207 -2.31709,-1.2401 -2.08126,-1.4438 6.52526,-5.6352 4.91108,-2.3917 12.07898,-6.8751 15.92867,-9.9632 l 6.99944,-5.6147 6,0.4759 c 3.3328,0.2643 8.5712,1.6219 11.7841,3.0541 6.9909,3.1161 17.0935,10.0593 19.1061,13.1309 l 1.4645,2.2351 -9.2053,0.6047 c -8.5219,0.5598 -14.0307,1.892 -25.6494,6.2032 -2.77386,1.0293 -6.26165,1.5045 -9.09258,1.2389 l -4.59258,-0.4309 1.55424,3.0881 c 1.00545,1.9977 1.56778,5.9129 1.59258,11.0881 l 0.0383,8 -4,0.2038 c -2.2,0.1121 -6.03878,-0.4352 -8.53062,-1.2163 z M 370.3856,1244.3814 c -8.77726,-12.3002 -10.87515,-20.7907 -5.29574,-21.4327 2.74335,-0.3157 2.75,-0.3357 2.75,-8.2816 0,-5.3795 0.66425,-9.9369 2.04627,-14.0393 2.12175,-6.2984 4.62243,-10.8627 5.95136,-10.8627 0.42218,0 2.28293,4.0457 4.13499,8.9904 1.85206,4.9447 3.6062,8.9947 3.89809,9 0.2919,0.01 2.25084,-3.4779 4.35321,-7.7404 11.26742,-22.8444 33.26531,-50.8438 53.4008,-67.9698 10.46031,-8.8969 18.3227,-17.7197 21.82318,-24.4889 2.20839,-4.2705 3.42721,-12.1821 2.41854,-15.6991 -0.75997,-2.6499 -0.62602,-3.0922 0.93638,-3.0922 2.16484,0 3.03718,1.9074 3.03718,6.6408 0,4.7764 1.29579,3.5556 3.9487,-3.7203 l 2.23908,-6.1409 1.79332,2.9489 c 2.97244,4.8878 6.027,6.5985 26.41372,14.7929 10.75601,4.3234 19.41855,7.9986 19.2501,8.167 -0.16846,0.1685 -2.96998,-0.2042 -6.2256,-0.8282 -10.06128,-1.9283 -28.91713,-1.4606 -36.16746,0.8971 -12.86942,4.185 -22.87472,13.1798 -30.09259,27.0535 -4.01026,7.7082 -4.3999,8.1133 -10.589,11.0095 -13.03811,6.1013 -24.40509,15.5255 -33.33574,27.6382 -9.30006,12.6137 -17.66394,33.2364 -20.29516,50.0415 -0.97613,6.2344 -2.23213,9.7104 -5.69101,15.75 -2.44114,4.2625 -4.82293,7.75 -5.29287,7.75 -0.46994,0 -2.90433,-2.8727 -5.40975,-6.3837 z m 163.45426,-12.2576 c -2.475,-0.7939 -6.56272,-1.3119 -9.08383,-1.1511 -4.30359,0.2745 -4.93969,-0.033 -10.40439,-5.025 -3.2013,-2.9246 -7.77608,-6.2367 -10.16616,-7.3602 -2.39009,-1.1234 -4.34562,-2.2065 -4.34562,-2.4068 0,-0.2004 1.4625,-1.1039 3.25,-2.0078 10.49311,-5.3066 19.12834,-14.8453 23.73546,-26.2188 3.04054,-7.5062 3.76294,-7.93 13.78764,-8.0893 6.2702,-0.1 6.2724,-0.099 4.8451,2.1503 -0.7853,1.2375 -1.7338,4.725 -2.1077,7.75 -0.9056,7.3275 -3.756,13.0856 -8.6794,17.5336 -4.2569,3.8459 -12.9353,8.3831 -16.3311,8.5382 -1.44481,0.066 -1.04275,0.5084 1.44834,1.5936 3.91563,1.7058 9.86556,1.1865 14.57826,-1.2723 2.7445,-1.4319 3.764,-1.3764 13.2424,0.7208 5.865,1.2977 10.1188,2.7226 9.9189,3.3225 -0.2956,0.8866 -18.4555,13.7549 -19.0017,13.4647 -0.1024,-0.054 -2.2112,-0.7484 -4.6862,-1.5424 z m -42.81583,-24.0381 -4.31583,-2.6014 3.517,-3.6096 c 1.93435,-1.9853 4.22002,-5.2971 5.07925,-7.3596 l 1.56225,-3.75 -3.76342,0.054 c -2.06988,0.03 -7.36342,0.4347 -11.76342,0.9001 -4.4,0.4653 -8.15146,0.7021 -8.33657,0.5261 -0.18511,-0.1759 1.44929,-2.5792 3.632,-5.3405 4.1464,-5.2456 7.63048,-11.7552 8.73857,-16.3269 0.59886,-2.4708 0.35667,-2.7426 -3.00572,-3.3734 -2.01138,-0.3773 -8.73012,-0.4919 -14.93052,-0.2545 l -11.27347,0.4315 0.96813,-4.5392 c 0.66489,-3.1175 0.60387,-6.5162 -0.19482,-10.8508 -0.63962,-3.4714 -0.92821,-6.6914 -0.64132,-7.1556 0.79551,-1.2871 6.8111,-2.1672 10.19187,-1.4911 l 3.01097,0.6022 -1.74962,3.6591 c -0.96229,2.0125 -2.06218,5.6841 -2.4442,8.1591 l -0.69457,4.5 7.36464,-7.0649 c 9.46099,-9.076 14.51834,-12.4671 28.2581,-18.9479 22.15715,-10.4513 35.07943,-19.4329 40.69203,-28.2831 2.4656,-3.8878 2.8091,-4.1116 3.4089,-2.2216 0.6213,1.9575 0.042,8.1149 -1.1621,12.3533 -0.4558,1.6044 -0.249,1.69 1.6402,0.6789 2.8251,-1.5119 7.8339,-9.466 8.6287,-13.7023 0.344,-1.834 0.9668,-3.5454 1.384,-3.8032 0.4171,-0.2579 2.4618,2.1096 4.5436,5.261 2.0818,3.1514 6.8645,9.8935 10.6282,14.9825 3.7636,5.089 6.843,9.4325 6.843,9.6522 0,0.2197 -1.4625,0.9438 -3.25,1.6091 l -3.25,1.2096 4.7828,1.293 c 5.7804,1.5626 6.9232,2.4505 10.0628,7.8183 4.3778,7.4847 5.6593,13.918 5.5968,28.0966 -0.032,7.1877 -0.3809,14.8685 -0.7759,17.0685 l -0.7182,4 -1.327,-6 c -3.1784,-14.3708 -12.2236,-30.5278 -22.7507,-40.6383 -11.3568,-10.9074 -21.7965,-15.3929 -34.1076,-14.6547 -8.74856,0.5247 -14.44475,2.9168 -22.94527,9.6361 l -5.06388,4.0028 -0.10439,7.327 c -0.0961,6.7489 -0.67024,10.0013 -2.70544,15.3271 -1.37361,3.5945 4.45432,-2.4524 7.5393,-7.8226 l 2.7704,-4.8226 1.12314,3.2218 c 1.77333,5.087 1.38992,13.9553 -0.77822,18.0005 l -1.90135,3.5476 2.81241,-0.4128 c 9.82693,-1.4423 2.7138,19.6365 -10.02418,29.7053 -2.84081,2.2455 -5.46221,4.0652 -5.82532,4.0438 -0.36311,-0.022 -2.60232,-1.2097 -4.97603,-2.6404 z"
       id="path1" />
  </g>
</svg>
