<?xml version="1.0" encoding="UTF-8" standalone="no"?>
<!-- Created with Inkscape (http://www.inkscape.org/) -->

<svg
   version="1.1"
   id="svg1"
   width="239.19754"
   height="230.69478"
   viewBox="0 0 239.19754 230.69478"
   xmlns="http://www.w3.org/2000/svg"
   xmlns:svg="http://www.w3.org/2000/svg">
  <defs
     id="defs1" />
  <g
     id="g1"
     transform="translate(-762.48067,-245.92751)">
    <path
       d="m 922.77573,471.86317 c 0.5341,-5.55847 -1.2228,-15.0478 -3.2861,-17.74856 -1.2478,-1.63331 -1.5698,-1.68363 -2.4411,-0.38151 -0.552,0.825 -1.0106,3.11776 -1.019,5.09501 -0.017,4.10423 -0.5459,4.67447 -10.9434,11.80841 -6.9959,4.80011 -7.7812,5.09199 -13.5,5.01763 l -6.0719,-0.0789 4.1758,-1.47965 c 9.1597,-3.24566 18.2746,-14.63118 22.5328,-28.14592 l 2.2165,-7.0348 4.8695,2.46757 c 5.5387,2.80665 8.02,7.14884 9.2007,16.10069 0.3808,2.8875 1.1181,5.25 1.6384,5.25 2.2692,0 8.6999,-4.1789 12.5685,-8.16748 10.6881,-11.01975 11.7707,-25.9187 3.4028,-46.83252 -2.9101,-7.27302 -3.9309,-11.42116 -4.3547,-17.6954 -1.1328,-16.76809 -10.4675,-28.90022 -23.7503,-30.86789 l -4.5,-0.66661 4.5,2.44172 c 7.9716,4.32544 12.9609,14.5137 12.9881,26.52213 l 0.012,5.23395 -3.8939,-2.0296 c -2.1416,-1.11628 -5.6291,-2.25643 -7.75,-2.53368 l -3.8561,-0.50409 3.5,1.94879 c 6.5729,3.65979 12.651,9.95782 16.2674,16.85594 3.3794,6.44629 6.7391,18.93338 6.727,25.00258 -0.01,4.48557 -1.907,10.07903 -4.406,12.98434 l -2.3186,2.69547 -2.6119,-4.13744 c -3.2681,-5.17705 -8.2219,-10.16614 -14.1312,-14.23184 -4.9402,-3.39892 -17.3735,-9.50491 -18.0259,-8.85249 -0.2203,0.22031 0.9299,2.44586 2.556,4.94567 2.7423,4.21583 2.8885,4.90411 2.0168,9.50042 -1.809,9.53855 -5.0258,16.22241 -10.8194,22.48021 -3.067,3.31265 -6.8538,6.68365 -8.4152,7.4911 l -2.839,1.46808 v -4.4603 c 0,-4.12344 -1.7698,-13.93309 -3.8052,-21.09106 -0.8478,-2.98151 -0.8643,-2.9661 -2.6793,2.5 -3.2411,9.76092 -8.8584,16.56101 -16.2334,19.65154 -4.8765,2.04354 -5.086,1.78906 -3.5361,-4.29632 1.2808,-5.02897 1.0603,-14.35522 -0.3394,-14.35522 -0.259,0 -2.0863,0.675 -4.0608,1.5 -4.1879,1.7498 -12.0051,1.96022 -16.0263,0.43139 -1.5458,-0.58774 -4.2756,-2.18602 -6.0662,-3.55174 l -3.2555,-2.48313 6.1594,-5.69826 c 7.1377,-6.60337 9.7901,-11.66773 9.8208,-18.75192 0.028,-6.53526 -3.7036,-14.14051 -8.4316,-17.18228 -3.3794,-2.17416 -11.3384,-4.62727 -18.6435,-5.74629 -2.5292,-0.38745 -3.9256,-1.27226 -4.7041,-2.9807 -0.6088,-1.33633 -2.7929,-4.2958 -4.8535,-6.57658 l -3.7464,-4.14689 2.6569,-4.72657 c 2.6141,-4.65026 2.6317,-4.80616 1.0907,-9.6568 -1.9948,-6.27941 -2.2666,-21.48533 -0.4931,-27.58548 l 1.3535,-4.65525 3.1465,1.80257 c 1.7306,0.99141 4.1591,2.1041 5.3966,2.47264 2.1854,0.65083 2.25,0.46564 2.25,-6.44992 0,-9.42747 2.4179,-19.97344 6.4803,-28.26479 1.8189,-3.7125 2.8357,-6.75 2.2595,-6.75 -1.9713,0 -13.2348,6.85931 -19.1961,11.69019 -7.6377,6.18944 -15.4256,17.62969 -18.5911,27.30981 -2.0741,6.34266 -2.4519,9.4289 -2.4483,20 0,6.875 0.3982,15.05707 0.8797,18.18237 l 0.8755,5.68238 -3.3798,1.46155 c -1.8588,0.80386 -4.9172,2.62511 -6.7963,4.04723 -7.3045,5.52798 -8.5709,10.66879 -5.2538,21.32683 l 1.8296,5.87855 -2.2677,1.71055 c -1.2472,0.9408 -2.4522,1.71054 -2.6777,1.71054 -0.2255,0 -1.2659,-1.9008 -2.3119,-4.22401 -3.8024,-8.44497 -1.9565,-18.29013 4.757,-25.37206 l 2.935,-3.09607 -1.6371,-7.19784 c -1.8345,-8.066 -1.5036,-10.11002 1.6368,-10.11002 1.9049,0 2.0775,-0.37905 1.4802,-3.25 -0.3719,-1.7875 -0.9205,-5.5 -1.219,-8.25 -0.3381,-3.11456 -2.401,-8.77087 -5.4705,-15 -8.0809,-16.39927 -9.401,-27.59829 -4.7325,-40.14709 2.2562,-6.06451 8.5234,-13.56152 12.8271,-15.34419 2.7651,-1.14534 3.4048,-1.01484 6.901,1.40803 2.1193,1.4687 4.8142,3.69316 5.9886,4.94324 2.0664,2.19962 2.0841,2.43182 0.548,7.20643 -0.873,2.71347 -1.7886,5.57133 -2.0347,6.3508 -0.3303,1.04635 -0.7406,1.12402 -1.5678,0.2968 -1.8839,-1.88396 -4.7813,0.51687 -7.372,6.10865 -3.2342,6.98058 -3.9503,12.45375 -2.1888,16.72899 l 1.4207,3.44834 0.7457,-5 c 1.5238,-10.21777 6.2411,-17.05205 9.0853,-13.16248 3.0032,4.10723 5.6907,1.50225 10.1491,-9.83752 2.5897,-6.58689 2.7549,-7.9516 2.7991,-23.12473 l 0.047,-16.12473 3.2311,3.62473 c 4.4182,4.95649 8.4135,13.22802 9.0296,18.69402 0.3174,2.81637 0.9346,4.35428 1.6255,4.05062 0.6126,-0.26923 4.949,-2.02329 9.6365,-3.89789 11.9546,-4.78084 12.7404,-5.29364 16.1551,-10.54312 l 3.0436,-4.6789 -0.5268,5.63748 c -0.2898,3.10062 -1.2669,7.06856 -2.1714,8.81765 -1.5963,3.08691 -1.5873,3.14952 0.3083,2.13506 2.5715,-1.37624 7.1091,-6.82072 8.3624,-10.03382 0.5484,-1.406 1.9784,-7.69423 3.1777,-13.97383 l 2.1804,-11.41746 6.2755,9.16244 6.2755,9.16244 -3.1191,4.53345 c -6.7549,9.81787 -10.9472,23.20754 -10.9512,34.97659 0,8.07402 0.9226,9.23855 3.8945,4.90122 1.311,-1.91319 4.6729,-5.30134 7.471,-7.52922 5.047,-4.01843 5.0927,-4.03206 5.745,-1.71134 0.3616,1.28663 0.7023,4.70184 0.7571,7.58934 0.09,4.75517 0.3118,5.24793 2.3497,5.22804 6.2749,-0.0613 16.9817,-8.03919 23.4564,-17.47804 l 3.4298,-5 -0.3338,9 c -0.2785,7.51192 -0.8192,9.99205 -3.2701,15 -1.615,3.3 -3.1314,6.40778 -3.3697,6.90618 -0.7835,1.63836 13.8784,-0.37046 21.5843,-2.95728 11.8468,-3.9768 18.5282,-9.29533 22.2515,-17.71235 4.4291,-10.01275 3.5112,-21.03527 -2.7512,-33.03763 -5.6123,-10.75625 -13.8983,-16.70676 -24.3632,-17.49624 -11.2784,-0.85086 -16.0972,4.13115 -14.0166,14.49131 1.4903,7.42082 1.4296,11.66545 -0.2232,15.58813 -1.9644,4.66248 -8.7766,11.24456 -14.7931,14.29331 -4.9639,2.51544 -5.2815,2.55642 -6.5343,0.84313 -0.7242,-0.99045 -1.3168,-2.36325 -1.3168,-3.05067 0,-2.32732 -1.9165,-2.45113 -5.9657,-0.38539 -2.2189,1.13198 -4.0343,1.58455 -4.0343,1.00571 0,-2.86354 3.5624,-8.88967 8.0775,-13.66368 2.7669,-2.92558 6.1469,-7.75728 7.5111,-10.73709 2.4241,-5.29496 5.3594,-16.88716 5.394,-21.30226 0.027,-3.48123 3.3905,-4.62024 11.4316,-3.8715 24.3517,2.26747 25.3459,2.43104 30.4281,5.00639 6.047,3.06426 15.0532,11.7327 17.4605,16.80559 0.9335,1.96713 1.7129,5.30859 1.7321,7.42547 0.019,2.11688 0.6853,7.44887 1.4803,11.84887 0.795,4.4 1.4543,9.51875 1.4651,11.375 0.019,3.26606 0.1246,3.35491 3.2697,2.75248 4.9167,-0.94176 8.1542,-5.33422 11.6369,-15.78814 2.9099,-8.7344 7.2027,-16.83934 8.9191,-16.83934 1.0329,0 8.4647,12.25447 12.095,19.94375 6.3516,13.45314 6.3286,21.962 -0.095,35.05625 l -3.1886,6.5 -1.2826,-8.85277 c -1.2976,-8.95681 -4.3389,-17.07971 -8.1049,-21.64723 l -2.0614,-2.5 -0.6731,3 c -2.5377,11.31049 -6.5723,18.71418 -14.2167,26.08808 l -4.7789,4.60988 4,-1.6515 c 7.8493,-3.24081 12.7101,-6.76063 15.3519,-11.11672 1.4565,-2.40159 2.9532,-4.38075 3.3261,-4.39813 1.2017,-0.056 2.1016,11.00628 1.578,19.39813 -0.3384,5.42393 -1.3532,10.24571 -3.0304,14.39787 l -2.5216,6.24287 4.648,-2.68933 c 7.2209,-4.17805 21.654,-14.17784 23.6555,-16.38939 2.87567,-3.17769 3.60687,-2.35965 2.91217,3.25824 -3.45497,27.93823 -14.24137,46.78725 -29.16967,50.97312 -4.8556,1.3615 -5.3922,2.45211 -1.6664,3.38722 4.1161,1.03306 12.1077,-0.32238 18.1144,-3.07237 3.049,-1.39588 5.6931,-2.53797 5.8757,-2.53797 0.9141,0 -1.1307,11.43182 -3.2818,18.34818 -2.0384,6.55385 -3.2945,8.71781 -7.6164,13.12118 -2.8465,2.90016 -5.8505,5.51689 -6.6755,5.81497 -1.1389,0.4115 -0.7175,1.18221 1.7506,3.20176 6.667,5.45525 11.2005,16.92214 11.2338,28.41395 l 0.016,5.40004 -2.8924,-3.99279 c -5.451,-7.52496 -11.1937,-10.32584 -18.0731,-8.81487 -2.2069,0.48471 -3.8771,1.90521 -5.6988,4.84663 -3.7882,6.11678 -7.1301,9.47084 -13.7573,13.80745 -5.407,3.5382 -16.3987,7.70357 -24.1763,9.16182 l -3.0979,0.58083 z m -40.8322,-87.52702 c 7.2589,-2.96832 13.4436,-5.64265 13.7439,-5.94296 0.8762,-0.87618 2.6183,-17.7019 1.9066,-18.41367 -0.3558,-0.35571 -6.0502,2.02499 -12.6544,5.29046 -8.9279,4.41444 -12.4652,6.71281 -13.7918,8.96122 -1.5784,2.67524 -2.8832,3.28895 -11.3127,5.32113 -8.3657,2.01675 -9.9984,2.77821 -13.3777,6.23894 l -3.8491,3.94183 h 13.0687 13.0686 z m -53.2365,-4.60305 c 5.7482,-3.38322 9.6069,-5 11.9333,-5 7.0596,0 14.9635,-5.27648 18.5383,-12.37579 1.1422,-2.26832 3.6278,-6.03688 5.5234,-8.3746 2.4242,-2.98946 3.2585,-4.84359 2.8121,-6.25 -0.7831,-2.46725 -1.2288,-2.47144 -7.3243,-0.0688 -4.4836,1.76729 -5.2569,1.80729 -9.1314,0.4724 -5.4671,-1.88357 -10.2221,-0.97355 -14.1667,2.71125 -5.0404,4.70847 -6.5151,3.72132 -2.4339,-1.62931 2.6629,-3.49126 8.0355,-6.48512 11.6378,-6.48512 2.0888,0 14.9186,-7.53863 14.9186,-8.76599 0,-1.09293 -16.7381,0.70079 -21.442,2.2978 -6.1644,2.09288 -11.9492,5.89014 -14.1957,9.31843 -2.1228,3.23937 -2.1709,10.28323 -0.104,15.22743 l 1.4956,3.57766 -6.3516,8.42234 c -3.4934,4.63228 -6.3631,8.69106 -6.377,9.01952 -0.027,0.6337 3.8925,2.72102 5.3235,2.83513 0.4668,0.0372 4.6716,-2.18232 9.344,-4.93232 z m 47.7728,-17.59177 6.5344,-3.59177 v -5.30124 c 0,-4.02604 -0.401,-5.45514 -1.6672,-5.94101 -1.9593,-0.75187 -1.6331,-1.07419 -8.2995,8.19987 -3.0219,4.20398 -4.9898,7.89701 -4.6624,8.75 0.7527,1.96167 0.6075,1.99963 8.0947,-2.11585 z m 28.9838,-15.15823 c 8.7815,-5.31515 9.5019,-5.99069 9.5253,-8.93261 0.018,-2.28707 -0.5215,-3.35618 -1.9181,-3.79942 -1.9985,-0.63429 -18.5724,3.92282 -20.8066,5.72092 -0.7441,0.59886 -1.25,3.38471 -1.25,6.88355 0,5.58669 0.1225,5.87756 2.4747,5.87756 1.3611,0 6.7497,-2.5875 11.9747,-5.75 z m -114.1502,127 c -0.3509,-0.9625 -3.0849,-8.05 -6.0755,-15.75 -2.9906,-7.7 -5.8283,-15.0125 -6.3059,-16.25 -0.8211,-2.12781 -0.6249,-2.25 3.6135,-2.25 h 4.4818 l 4.7257,9.51325 c 5.44,10.95106 6.082,10.68541 6.1909,-2.56155 l 0.07,-8.5483 8.25,-0.0952 c 4.5375,-0.0524 10.1143,-0.53447 12.3928,-1.07131 l 4.1428,-0.97609 -0.9017,3.11961 c -0.4959,1.71579 -1.4184,9.64462 -2.0499,17.61962 -0.6315,7.975 -1.2588,14.64381 -1.394,14.81958 -0.1352,0.17577 -2.8365,0.99609 -6.0028,1.82294 l -5.757,1.50336 -3.892,-4.32294 -3.8921,-4.32294 0.6132,4.75 0.6132,4.75 h -4.0926 c -2.9881,0 -4.2649,-0.47233 -4.7307,-1.75 z m -12.6643,-45.32258 c -2.0217,-1.59026 -2.6349,-2.95805 -2.6349,-5.87756 0,-4.30722 1.2821,-5.75628 5.9124,-6.68235 2.3975,-0.47949 3.9269,-0.12309 5.9774,1.39288 2.647,1.95704 2.8003,1.96543 3.8948,0.21296 0.6266,-1.00335 4.3331,-3.50261 8.2367,-5.55389 5.28,-2.77458 7.6584,-4.71221 9.2881,-7.56684 2.3805,-4.16982 3.1532,-4.37568 10.5058,-2.79883 3.2462,0.69618 5.8929,2.07591 7.7992,4.06567 2.5063,2.616 2.8856,3.77805 2.8856,8.84122 0,4.41262 -0.4861,6.37621 -2,8.07951 -6.1414,6.90958 -29.8413,10.04708 -35.2251,4.66326 -1.2583,-1.25828 -1.7482,-1.13929 -3.8139,0.92642 -2.9511,2.95109 -7.3007,3.07064 -10.8261,0.29755 z"
       id="path1" />
  </g>
</svg>
