<?xml version="1.0" encoding="UTF-8" standalone="no"?>
<!-- Created with Inkscape (http://www.inkscape.org/) -->

<svg
   version="1.1"
   id="svg1"
   width="69.811249"
   height="66.413635"
   viewBox="0 0 69.811249 66.413635"
   xmlns="http://www.w3.org/2000/svg"
   xmlns:svg="http://www.w3.org/2000/svg">
  <defs
     id="defs1" />
  <g
     id="g1"
     transform="translate(-780.95133,-458.83737)">
    <path
       d="m 792.09369,522.63254 c -12.2883,-13.45397 -14.75222,-36.42808 -5.6921,-53.07449 2.88554,-5.3017 8.66737,-11.84091 9.16076,-10.36076 0.18406,0.5522 -1.11821,5.23544 -2.89393,10.4072 -2.99035,8.70929 -3.2286,10.36253 -3.2286,22.4032 0,12.04067 0.23825,13.69391 3.2286,22.4032 1.77572,5.17176 3.06471,9.89485 2.86441,10.49575 -0.2003,0.6009 -1.74791,-0.42245 -3.43914,-2.2741 z m 43.73879,1.90066 c 0,-0.50144 1.43601,-5.09982 3.19113,-10.21861 2.93758,-8.56743 3.19335,-10.3398 3.21901,-22.3069 0.026,-12.11104 -0.19445,-13.64301 -3.2234,-22.4032 -1.7882,-5.17176 -3.08739,-9.89485 -2.88709,-10.49575 0.58804,-1.76411 6.53265,5.41306 9.67371,11.67947 7.70777,15.37695 6.34708,34.02516 -3.52898,48.36476 -3.35026,4.86443 -6.44438,7.44762 -6.44438,5.38023 z M 798.4856,513.25769 c -4.01201,-7.01346 -5.10424,-11.70337 -5.06532,-21.75 0.0386,-9.97428 2.12077,-17.50469 6.35528,-22.98506 2.80859,-3.63491 3.18179,-2.24621 1.35123,5.02801 -2.80049,11.12849 -2.21938,29.15775 1.36039,42.20705 0.90452,3.29723 -1.56948,1.75159 -4.00158,-2.5 z m 30.69218,2.5 c 3.62561,-13.21637 4.19257,-30.886 1.3543,-42.20705 -0.89035,-3.55138 -1.38123,-6.69466 -1.09082,-6.98506 0.92563,-0.92564 4.29802,4.25812 6.46802,9.94211 4.39105,11.5017 3.30213,26.55858 -2.65599,36.72535 -2.50971,4.28248 -4.97702,5.81091 -4.07551,2.52465 z m -24.04041,-11.5 c -1.29185,-2.404 -2.18408,-5.81157 -2.18408,-12.4688 0,-6.65723 0.89223,-9.6272 2.18408,-12.0312 0.96056,-1.7875 1.86727,-3.25 2.01491,-3.25 0.14764,0 0.26844,6.975 0.26844,15.5 0,8.525 -0.1208,15.5 -0.26844,15.5 -0.14764,0 -1.05435,-1.4625 -2.01491,-3.25 z m 19.10687,-12.20158 c 0,-12.17587 0.26271,-15.23355 1.23918,-14.42315 1.97012,1.63505 3.64154,11.80235 2.98026,18.12908 -0.49724,4.75733 -2.84797,11.74565 -3.951,11.74565 -0.14764,0 -0.26844,-6.95321 -0.26844,-15.45158 z m -12.7769,5.379 c -5.70076,-4.48423 -1.46148,-12.74361 4.36514,-12.92742 3.35236,-0.10576 7,3.9064 7,7.5 0,3.5936 -3.64597,7.5 -7,7.5 -0.95166,0 -2.91597,-0.93266 -4.36514,-2.07258 z"
       id="path1" />
  </g>
</svg>
