<?xml version="1.0" encoding="UTF-8"?>
<svg width="74.071" height="81.553" version="1.1" viewBox="0 0 74.071 81.553" xmlns="http://www.w3.org/2000/svg">
 <g transform="translate(-1430.4 -849.04)">
  <path d="m1462.9 929.35c-1.0849-0.74866-5.1225-3.0418-8.9725-5.0958-26.096-13.923-23.5-10.114-23.5-34.477 0-18.88 0.1207-20.19 2.0114-21.826 1.1063-0.95711 9.0938-5.7089 17.75-10.56 12.009-6.7296 16.357-8.697 18.35-8.3028 1.436 0.2841 7.961 3.6271 14.5 7.4288 6.5389 3.8017 12.851 7.2149 14.028 7.5848s3.3137 1.7617 4.75 3.0928l2.6115 2.4202v20.048c0 22.484-0.01 22.503-7.8376 25.734-2.0143 0.83088-5.0949 2.5914-6.8457 3.9124-1.7508 1.3209-3.3865 2.4017-3.6349 2.4017s-3.991 2.0216-8.3167 4.4926c-8.2329 4.7026-11.605 5.415-14.893 3.1462zm20.528-10.639c0.9997-0.64605-4.337-0.96937-16-0.96937s-17 0.32332-16 0.96937c0.825 0.53316 8.025 0.96937 16 0.96937s15.175-0.43621 16-0.96937zm13.485-7.544 4.5151-2.646v-37.65l-34.022-19.274-33.478 18.843-0.2713 19.041-0.2712 19.041 9.8541 5.6896 49.158-0.39798zm-51.485-20.849c0-18.585 0.2076-21.473 1.5818-22 0.87-0.33385 10.058-0.60699 20.418-0.60699s19.548 0.27314 20.418 0.60699c1.3742 0.52732 1.5818 3.4149 1.5818 22v21.393h-44zm31.77 8.1237 9.2308-9.2693-18.943-18.865-19.063 18.86 9.2331 9.2717c5.0783 5.0994 9.476 9.2717 9.7727 9.2717s4.6933-4.1712 9.7702-9.2693zm-15.283-3.7437-4.9376-5.0129 5.2251-5.2252 5.2252-5.2252 5.2252 5.2252 5.2251 5.2252-4.9376 5.0129c-2.7156 2.7571-5.1963 5.0129-5.5127 5.0129s-2.7971-2.2558-5.5127-5.0129z"/>
 </g>
</svg>
