<?xml version="1.0" encoding="UTF-8" standalone="no"?>
<!-- Created with Inkscape (http://www.inkscape.org/) -->

<svg
   version="1.1"
   id="svg1"
   width="116.93175"
   height="116.46589"
   viewBox="0 0 116.93175 116.46589"
   xmlns="http://www.w3.org/2000/svg"
   xmlns:svg="http://www.w3.org/2000/svg">
  <defs
     id="defs1" />
  <g
     id="g1"
     transform="translate(-976.61445,-530.28625)">
    <path
       d="m 1024.0803,636.25214 c -5.7553,-5.775 -11.081,-10.5 -11.8347,-10.5 -2.2714,0 -18.07148,7.7462 -23.0311,11.29127 -6.71648,4.80085 -7.60835,5.28982 -6.59052,3.61324 0.46896,-0.77248 2.30108,-3.43119 4.07139,-5.90825 3.70557,-5.18492 11.38497,-20.64969 11.38497,-22.92703 0,-0.84512 -4.82983,-6.38142 -10.73295,-12.3029 l -10.73294,-10.76633 10.73294,-10.76633 c 5.90312,-5.92148 10.73295,-11.45778 10.73295,-12.3029 0,-2.27734 -7.6794,-17.74211 -11.38497,-22.92703 -5.23717,-7.32798 -5.17695,-7.45986 1.37475,-3.01068 6.46891,4.39295 21.77768,12.00694 24.14128,12.00694 0.7349,0 6.1811,-4.82983 12.1026,-10.73295 l 10.7663,-10.73294 10.7664,10.73294 c 5.9215,5.90312 11.3676,10.73295 12.1026,10.73295 2.3636,0 17.6724,-7.61399 24.1413,-12.00694 6.5517,-4.44918 6.6119,-4.3173 1.3747,3.01068 -3.7056,5.18492 -11.385,20.64969 -11.385,22.92703 0,0.84512 4.8299,6.38142 10.733,12.3029 l 10.7329,10.76633 -10.7329,10.76633 c -5.9031,5.92148 -10.733,11.45778 -10.733,12.3029 0,2.39132 7.4781,17.27196 12.1005,24.07874 4.3674,6.43129 4.2309,6.47955 -3.2346,1.1433 -4.9596,-3.54507 -20.7597,-11.29127 -23.0311,-11.29127 -0.7538,0 -6.0794,4.725 -11.8348,10.5 -5.7553,5.775 -10.7053,10.5 -11,10.5 -0.2946,0 -5.2446,-4.725 -11,-10.5 z m 35.0027,-24.00267 23.4867,-23.50268 -23.7447,-23.74469 -23.7447,-23.7447 -23.7446,23.7447 -23.74475,23.74469 23.48675,23.50268 c 12.9177,12.92647 23.7189,23.50267 24.0026,23.50267 0.2838,0 11.085,-10.5762 24.0027,-23.50267 z m -43.0061,-5.00073 -18.48309,-18.50341 18.74329,-18.74326 18.7432,-18.74326 18.7433,18.74326 18.7433,18.74326 -18.4832,18.50341 c -10.1657,10.17687 -18.7172,18.5034 -19.0034,18.5034 -0.2861,0 -8.8376,-8.32653 -19.0034,-18.5034 z m 16.4606,-4.4966 c -1.3056,-6.325 -2.3925,-12.0625 -2.4155,-12.75 -0.032,-0.94881 3.7499,-1.25 15.6939,-1.25 h 15.7356 l -12.9549,-12.98374 c -8.266,-8.28441 -13.1869,-12.5372 -13.5957,-11.75 -0.3525,0.67856 -1.6623,6.52124 -2.9107,12.98374 l -2.2698,11.75 h -10.6056 -10.6056 l 12.9367,12.96551 c 7.1152,7.13103 13.0332,12.86853 13.1511,12.75 0.1179,-0.11853 -0.8538,-5.39051 -2.1595,-11.71551 z"
       id="path1" />
  </g>
</svg>
