<?xml version="1.0" encoding="UTF-8" standalone="no"?>
<!-- Created with Inkscape (http://www.inkscape.org/) -->

<svg
   version="1.1"
   id="svg1"
   width="125.47413"
   height="121"
   viewBox="0 0 125.47413 121"
   xmlns="http://www.w3.org/2000/svg"
   xmlns:svg="http://www.w3.org/2000/svg">
  <defs
     id="defs1" />
  <g
     id="g1"
     transform="translate(-660.87339,-1419.0661)">
    <path
       d="m 663.79647,1537.143 c -1.74693,-1.7469 -2.92308,-3.9799 -2.92308,-5.5496 0,-3.3283 2.43281,-8.0957 4.5448,-8.9061 0.89033,-0.3417 6.53197,-0.6212 12.53699,-0.6212 h 10.91821 v -15.5321 c 0,-25.5616 -0.11151,-25.4679 30.31866,-25.4679 11.95549,0 21.65767,0.4444 23.46613,1.0748 5.38663,1.8778 6.62799,5.0356 7.04654,17.9252 l 0.37342,11.5 4.63757,3.5 c 10.4056,7.8532 13.15768,10.989 13.15768,14.9925 0,7.1909 -5.96893,11.381 -12.24158,8.5933 -4.48166,-1.9918 -21.94216,-16.5783 -23.47804,-19.6137 -0.71428,-1.4116 -1.25722,-6.2394 -1.26564,-11.2538 l -0.0147,-8.7818 -11.75,0.2818 -11.75,0.2817 -0.24885,17 c -0.14652,10.0091 -0.70574,17.8798 -1.35987,19.1395 -1.93716,3.7306 -5.18986,4.3605 -22.51526,4.3605 h -16.52987 z m 97.53586,-36.418 c -5.92857,-5.9285 -5.88607,-13.3207 0.10684,-18.5825 8.21305,-7.2112 20.43422,-1.5752 20.43422,9.4236 0,7.6382 -5.07588,12.5 -13.05034,12.5 -3.37153,0 -4.77616,-0.6265 -7.49072,-3.3411 z m -19.45894,-46.1589 -14.47413,-14.5 h 5.96728 5.96728 l 8.76979,8.7292 8.76978,8.7291 8.76978,-8.7291 8.76979,-8.7292 h 5.96728 5.96728 l -14.47413,14.5 c -7.96077,7.975 -14.71077,14.5 -15,14.5 -0.28923,0 -7.03923,-6.525 -15,-14.5 z m 0,-21 -14.47413,-14.5 h 5.96728 5.96728 l 8.76979,8.7292 8.76978,8.7291 8.76978,-8.7291 8.76979,-8.7292 h 5.96728 5.96728 l -14.47413,14.5 c -7.96077,7.975 -14.71077,14.5 -15,14.5 -0.28923,0 -7.03923,-6.525 -15,-14.5 z"
       id="path1" />
  </g>
</svg>
