<?xml version="1.0" encoding="UTF-8"?>
<svg width="74" height="81.618" version="1.1" viewBox="0 0 74 81.618" xmlns="http://www.w3.org/2000/svg">
 <g transform="translate(-1692.2 -854.5)">
  <path d="m1723.7 934.01c-2.1919-1.1716-7.1352-3.9426-10.985-6.1577s-9.475-5.3147-12.5-6.888c-3.025-1.5733-6.0625-3.6133-6.75-4.5334-0.9017-1.2068-1.25-7.1956-1.25-21.492 0-18.552 0.1275-19.93 1.9944-21.559 1.097-0.95711 9.0845-5.697 17.75-10.533 11.551-6.4463 16.427-8.6672 18.271-8.3219 2.7164 0.5086 31.354 16.43 34.235 19.033 1.5545 1.4049 1.75 3.7939 1.75 21.39 0 14.288-0.3484 20.275-1.25 21.482-0.6875 0.92012-3.725 2.961-6.75 4.5354-3.025 1.5744-8.425 4.5873-12 6.6954-9.0784 5.3534-15.236 8.4106-17.015 8.4473-0.8332 0.0172-3.3082-0.92731-5.5-2.0989zm10.087-3.4648c3.8805-2.2741 4.4281-3.0217 4.4281-6.0455 0-2.3743-0.8034-4.2539-2.576-6.0265-2.2371-2.2371-3.1859-2.5073-7.2106-2.0536-5.5019 0.62015-8.2134 3.3518-8.2134 8.2747 0 2.8544 0.6098 3.698 4.25 5.8798 2.3375 1.401 4.3949 2.5515 4.5719 2.5567 0.1771 5e-3 2.3146-1.1583 4.75-2.5856zm-30.014-30.405c1.8336 0 1.8111-0.50715-0.1557-3.5089-1.4965-2.284-1.4544-2.6706 0.6649-6.0996 2.1392-3.4614 2.3378-3.5583 3.6412-1.7763 2.3342 3.1913 2.6132 6.2452 0.8206 8.9811-1.6077 2.4536-1.6012 2.5643 0.1305 2.2308 1.1519-0.22184 5.0508-6.0473 10.601-15.839 4.8283-8.5184 9.151-15.615 9.6061-15.77 0.455-0.15523 4.7586 6.7038 9.5635 15.242s9.1788 15.798 9.7198 16.132c1.6651 1.029 1.9824-0.20895 0.7481-2.9181-0.9159-2.0101-0.8953-3.2654 0.093-5.6507 1.8219-4.3983 2.5688-4.4732 5.0222-0.50356 2.0409 3.3022 2.079 3.6915 0.5854 5.971-1.9637 2.997-1.9887 3.5089-0.1712 3.5089 0.7846 0 2.8427 2.475 4.5734 5.5s3.3388 5.5 3.5734 5.5 0.4266-7.8391 0.4266-17.42v-17.42l-34.022-19.274-33.478 18.842-0.248 18.386-0.2479 18.386 3.5559-6.25c1.9557-3.4375 4.2048-6.25 4.9979-6.25zm32.222 4.7221 6.2221-6.2779-13.002-12.886-13.002 12.886 6.2221 6.2779c3.4222 3.4528 6.4731 6.2779 6.7799 6.2779s3.3577-2.8251 6.7799-6.2779zm-10.587-3.0229-3.1993-3.3008 7.0062-6.7907 7.0062 6.7907-3.1993 3.3008c-1.7596 1.8154-3.4727 3.3008-3.8069 3.3008s-2.0473-1.4854-3.8069-3.3008z"/>
 </g>
</svg>
