<?xml version="1.0" encoding="UTF-8"?>
<svg width="102.06" height="114.66" version="1.1" viewBox="0 0 102.06 114.66" xmlns="http://www.w3.org/2000/svg">
 <g transform="translate(-775.59 -520.36)">
  <path d="m809.59 634.71c-1.375-0.26048-5.9586-1.3874-10.186-2.5044-6.99-1.8469-8.1789-2.5478-13.134-7.7425-2.9964-3.1415-6.625-8.0343-8.0635-10.873l-2.6154-5.1613 2.1243-1.1369c1.7185-0.91972 15.619-5.9327 16.451-5.9327 0.12434 0 1.1444 1.5565 2.2668 3.4588l2.0408 3.4588-4.4245 2.2097c-5.0125 2.5034-4.7605 3.6702 1.4737 6.8223 16.653 8.4196 58.931 6.3533 66.918-3.2706 1.016-1.2242 0.46629-1.8309-3.3203-3.6639l-4.5379-2.1968 2.1796-3.1591c1.1988-1.7375 2.2493-3.2707 2.3346-3.407 0.23644-0.37802 13.948 4.3858 16.399 5.6975l2.1561 1.1539-3.0968 5.8102c-1.7032 3.1956-5.359 8.0843-8.1239 10.864-4.3914 4.4145-6.0585 5.342-13.184 7.3351-6.7621 1.8914-10.979 2.3184-24.657 2.4966-9.075 0.11826-17.625 2e-3 -19-0.25859zm4.1965-22.41c-14.283-7.1371-18.482-20.635-12.153-39.066 4.2879-12.488 23.333-52.875 24.935-52.875 0.62864 0 11.101 20.558 17.394 34.148 13.195 28.492 13.864 41.536 2.7022 52.672-8.768 8.7483-21.613 10.749-32.877 5.12zm1.5122-29.19c3.1672-3.4638 5.0286-7.7704 6.1774-14.292 1.1848-6.7261 2.6752-32.226 1.8386-31.458-1.0662 0.9798-13.467 26.567-14.667 30.264-1.6092 4.9567-1.6476 14.32-0.0666 16.225 1.7846 2.1504 4.3319 1.8701 6.7177-0.73917z"/>
 </g>
</svg>
