<?xml version="1.0" encoding="UTF-8"?>
<svg width="198.91" height="221.95" version="1.1" viewBox="0 0 198.91 221.95" xmlns="http://www.w3.org/2000/svg">
 <g transform="translate(-785.8 -124.01)">
  <path d="m871.46 340.13-36.75-5.6258v-13.521l4.25 0.0174c5.606 0.0229 18.16 2.7135 18.583 3.9827 0.18334 0.54996 1.2182 0.99993 2.2997 0.99993 3.7741 0 7.484-2.8802 10.246-7.9544l2.7821-5.1116 3.4629 3.0405c5.5064 4.8347 15.07 9.1874 21.459 9.7668l5.694 0.51631-1.7787-5.3788c-0.9783-2.9583-2.033-8.5288-2.3438-12.379-0.55742-6.9047-0.54682-6.9444 0.77888-2.9161 2.2799 6.9279 4.6448 10.67 10.781 17.061 5.4142 5.6383 5.9801 6.656 6.7568 12.151 0.46624 3.2985 1.3385 6.9143 1.9383 8.0351 0.59982 1.1208 1.0906 2.2924 1.0906 2.6035 0 1.5272-15.846-0.1741-49.25-5.2877zm59.25-13.828c-13.11-7.7553-25.856-19.336-28.654-26.034-2.2999-5.5045-5.0313-19.122-7.3771-36.78-1.1687-8.7972-2.2694-16.139-2.446-16.316-1.5724-1.5724-2.6382 48.638-1.2552 59.134 0.75474 5.7276 0.73019 5.812-1.5 5.1574-5.7433-1.6856-11.522-5.2548-17.38-10.734-4.1723-3.903-6.5178-5.4901-6.8006-4.6018-0.23742 0.74578-1.154 3.6469-2.0368 6.447-1.3502 4.2825-4.6234 9.409-6.0075 9.409-0.20874 0-1.364-2.9585-2.5674-6.5744l-2.1878-6.5744-2.1437 1.9575c-3.3442 3.0536-8.3668 5.2674-13.99 6.1661-2.8345 0.45301-5.2976 0.68765-5.4734 0.52142-0.17587-0.16624 0.54778-2.0334 1.6081-4.1492 2.4761-4.9409 3.447-9.0302 2.7015-11.379-0.51159-1.6119-1.0877-1.3108-4.2904 2.242-3.6193 4.015-11.97 8.7608-15.449 8.7802-2.1034 0.0117-2.268-1.3154-0.3596-2.8993 2.2293-1.8501 5.3773-10.093 6.6537-17.423 0.64913-3.7276 0.9952-6.9624 0.76903-7.1886-0.22616-0.22616-2.6029 0.69837-5.2816 2.0545-2.6787 1.3562-5.6361 2.4657-6.572 2.4657-1.4237 0-1.8164 1.4677-2.4047 8.9888-0.54878 7.0151-1.3431 10.254-3.6177 14.75-3.0978 6.1235-11.154 15.855-15.956 19.275l-2.8957 2.0619 1.509-5.2877c3.544-12.419 12.226-39.068 20.507-62.948 8.5486-24.651 8.8986-26.002 8.8986-34.356 0-7.8596-0.24488-8.9864-2.5478-11.723-4.8294-5.7395-6.8589-10.863-6.907-17.438-0.0349-4.7663 0.43537-6.8214 2.0593-9 3.0311-4.0663 7.5399-6.3795 13.668-7.012 4.6984-0.48492 5.6433-0.97413 7.7115-3.9925 3.5825-5.2283 11.774-12.168 18.18-15.401 11.09-5.5984 34.812-11.019 54.769-12.516 19.656-1.4738 38.593 4.797 51.295 16.985l4.728 4.5368 2.4534-3.2165c5.2863-6.9307 6.1397-14.964 2.2048-20.754-7.1409-10.509-28.664-13.314-37.662-4.9087-1.6238 1.5168-2.9524 2.659-2.9524 2.5382s0.67986-2.509 1.5108-5.3071c1.7861-6.0146 7.0706-11.289 11.274-11.252 3.6299 0.0317 12.617 3.8076 21.478 9.0237 13.069 7.6934 26.738 17.134 26.738 18.467 0 1.5126-11.722 12.552-17.25 16.246-3.6958 2.4694-4.6941 4.5384-2.7651 5.7305 0.5417 0.33479 2.7297 3.6238 4.8623 7.309 14.823 25.615 15.831 51.87 2.7408 71.409-3.4834 5.1993-4.8565 6.3889-9.0954 7.8802-7.0488 2.4797-8.2995 2.3991-5.7007-0.36711 3.2216-3.4292 5.3126-10.304 5.846-19.222l0.47856-8-2.3082 6.5c-1.2695 3.575-3.6023 8.7016-5.1839 11.392-3.3526 5.704-17.469 20.826-18.973 20.325-0.56456-0.18819-1.95-3.014-3.0787-6.2797l-2.0522-5.9375-0.64342 6.5c-1.0556 10.664-0.94059 45.016 0.17368 51.883 0.56968 3.5109 1.7028 7.6734 2.5181 9.25 0.81529 1.5766 1.3583 2.8623 1.2067 2.8571-0.15162-5e-3 -2.3007-1.2074-4.7757-2.6716zm15-10.232-5.5-0.587-0.5482-32.22 5.2741-4.0636c3.5229-2.7143 8.7079-5.2438 15.616-7.6179 9.978-3.4294 10.425-3.4935 12.719-1.8266 1.3074 0.95024 2.3913 2.0565 2.4086 2.4583 0.0173 0.40182-1.4842 3.1018-3.3365 6-4.7304 7.401-12.887 24.012-15.723 32.019-1.6072 4.5376-2.8853 6.6966-3.8997 6.587-0.82992-0.0896-3.9839-0.42714-7.0089-0.75z"/>
 </g>
</svg>
