<svg width="82" height="95" xmlns="http://www.w3.org/2000/svg" viewBox="0 0 21.766 25.32"><title>ryza3 race mechanic</title><g fill="#212121" class="nc-icon-wrapper"><g id="1680145626131-3699125_layer1" transform="translate(-94.4 -135.927)"><path d="M105.293 160.758c-.627-.285-1.202-.785-1.4-1.219-.478-1.05-.174-1.15.764-.251.766.732.825.747 1.09.275.153-.275.703-.989 1.221-1.587.917-1.06.908-1.056-.33.137l-1.272 1.227-1.158-.782c-.638-.43-1.159-.835-1.159-.9 0-.064.386-.461.857-.882.638-.57.97-.705 1.305-.526.742.397.958.283 1.273-.672.286-.867.37-.917 1.664-.993 1.2-.07 1.383-.158 1.536-.74.168-.64.188-.629.622.361l.449 1.023.645-.606c.355-.333.645-.78.645-.991 0-.295.224-.35.952-.231.59.095 1.348-.004 1.995-.263.574-.23 1.099-.362 1.167-.295.145.146-2.249 3.403-3.41 4.64-.639.68-1.02.86-1.82.86-.88 0-1.197.19-2.422 1.455-.775.8-1.576 1.452-1.78 1.45-.204-.004-.85-.224-1.434-.49zm-2.89-4.673c-.601-.455-2.85-.518-3.627-.102-.294.157-.599.222-.677.143-.079-.078.136-.933.477-1.898.532-1.508.654-1.679.864-1.208.287.643 1.012.929 1.757.692.548-.174.69-.872.562-2.778l-.061-.926.85 1.021c.831.997.886 1.018 2.33.912.821-.06 1.805-.324 2.214-.594.97-.638.77-.794-.32-.25-.777.387-2.715.404-3.092.027-.066-.066.293-.532.797-1.035.705-.706 1.018-.86 1.36-.668 1.072.6 2.723-1.367 2.43-2.896-.158-.831.361-1.226 1.196-.908 1.19.452 1.322 2.638.328 5.45-.36 1.018-.655 2.053-.655 2.3-.001.347-.286.467-1.258.53-1.125.071-1.299.17-1.654.934-.218.47-.528.857-.687.86-.389.008-3.282-3.041-3.282-3.458 0-.18-.069-.26-.153-.175-.241.24.391 1.296 1.422 2.375.922.964.932.997.457 1.522-.57.63-.882.656-1.578.13zm-5.525-1.883c.168-1.227.167-1.229-.535-1.053-.908.228-.911-.14-.018-2.289 1.023-2.459 1.32-2.644 1.542-.963.126.946.087 1.445-.123 1.575-.23.141-.222.243.028.397.21.13.518-.018.822-.393l.486-.6-.001.624c-.001.344-.239.982-.528 1.419-.289.436-.526.983-.527 1.215-.002.406-.787 1.298-1.142 1.298-.095 0-.097-.553-.004-1.23zm13.85-.739c-.43-1.132-.434-1.424-.04-3.387.426-2.125.23-3.468-.633-4.33-.897-.897-2.025-.837-2.858.153l-.661.786-.95-1.051c-.955-1.058-1.245-2.21-.619-2.462.182-.074.06-.143-.27-.154-.523-.019-.578.072-.427.706l.174.728-.859-.794-.858-.794.188 1.149c.178 1.083.159 1.132-.33.871-.423-.227-.634-.148-1.164.44-.356.393-.808.953-1.003 1.245-.196.29.048.077.542-.474.843-.942.942-.982 1.607-.664.39.186.768.578.839.87.071.293.212.8.314 1.127.152.492.084.596-.393.596-1.408 0-2.39 1.378-2.399 3.365-.005 1.23-.404 1.981-.76 1.43-.13-.201-.311-.915-.404-1.588-.104-.746-.476-1.628-.956-2.262-.94-1.242-.964-1.586-.2-2.797l.584-.926.174.926.174.926.035-.94c.019-.516-.088-1.061-.238-1.211-.186-.187-.104-.486.262-.95l.533-.679-2.251-2.197c-1.498-1.462-2.478-2.676-2.927-3.625-.371-.785-.615-1.488-.541-1.562.073-.073.886.4 1.805 1.051 1.756 1.245 8.996 5.258 9.17 5.083.056-.055-.083-.643-.309-1.306-.226-.663-.32-1.205-.212-1.205.356 0 3.237 3.18 3.093 3.413-.077.125.19.293.592.373.402.08 1.286.635 1.964 1.232 1.548 1.362 2.451 3.512 2.215 5.269-.223 1.654-.664 3.006-1.225 3.748l-.485.643zm-10.722-5.968c.09-.146.038-.265-.116-.265-.155 0-.28.12-.28.265 0 .145.052.264.116.264s.19-.119.28-.264zm7.078-4.156a3.768 3.768 0 0 0-1.19 0c-.328.063-.06.115.595.115.654 0 .922-.052.595-.115zm5.912 8.96c-.076-.123-.01-.688.147-1.256.42-1.518.123-3.602-.68-4.784-.896-1.318-.885-1.683.044-1.435.399.107 1.036.077 1.416-.066.915-.345 1.743-.05 1.313.468-.237.286-.21.713.12 1.844.725 2.496-.127 5.452-1.572 5.452-.357 0-.712-.1-.788-.224zm-14.533-2.6c-.097-.097-.173-.364-.168-.595.006-.344.058-.332.288.064.285.49.203.854-.12.531zm4.49-.485c.084-.218.25-.397.367-.397.118 0 .403-.072.633-.16.267-.103.419-.017.419.236 0 .401-.531.718-1.204.718-.218 0-.305-.161-.215-.397zm2.056-.937c-.396-.147-.687-.679-1.02-1.87-.257-.914-.526-1.848-.597-2.073-.072-.226.532.303 1.34 1.176 1.844 1.99 1.985 3.403.277 2.767zm-7.9-2.984c-.396-.677-.68-1.341-.632-1.475.05-.134.586.013 1.192.327l1.102.571-.47.904-.47.904zm15.096-.943c-.462-.181-.443-.243.247-.785l.748-.589.547.548c.471.473.492.583.15.8-.463.294-.99.302-1.692.026z" id="1680145626131-3699125_path5593" fill="#212121" stroke-width=".265"></path></g></g></svg>