<svg width="88" height="92" xmlns="http://www.w3.org/2000/svg" viewBox="0 0 23.452 24.47"><title>ryza3 race king philuscha</title><g fill="#212121" class="nc-icon-wrapper"><g id="1680145866537-145321_layer1" transform="translate(-112.777 -137.22)"><path d="M121.693 161.397a1.244 1.244 0 0 1-.318-.762c0-.245-.268-.52-.595-.609-.465-.127-.515-.215-.229-.4.577-.37.155-1.527-.629-1.723-.705-.177-.92-.686-.289-.686.207 0 .417-.124.467-.275.058-.174.41-.117.948.151.885.442 1.136.918.484.918-.571 0-.193 1.022.56 1.516.52.34.573.466.266.638-.24.133-.335.465-.255.882.142.744.057.817-.41.35zm1.68-.277c-.056-.182-.304-1.224-.552-2.316-.247-1.09-.624-2.262-.837-2.602-.458-.733-.189-1.177.305-.502.303.415.36.35.51-.6.158-.983 1.73-3.175 2.278-3.175.11 0-.088.798-.442 1.774-.38 1.047-.58 2.032-.486 2.403.1.402.058.569-.117.46-.177-.11-.275.31-.275 1.169 0 .736.119 1.338.264 1.338.146 0 .265-.317.265-.704 0-.963 1.31-2.923 2.764-4.138.662-.553 1.204-.901 1.204-.774 0 .4-1.236 3.886-1.715 4.838-.479.95-2.468 3.16-2.846 3.16-.12 0-.264-.15-.32-.331zm2.39-.507c1.21-1.353 1.707-2.374 2.616-5.372.52-1.719.895-3.178.832-3.241-.064-.064-.603.324-1.198.862-.595.537-1.081.841-1.081.676 0-.565 2.244-2.74 4.167-4.038 1.055-.712 1.92-1.38 1.924-1.485.003-.105.242-.488.53-.852l.526-.662-.423 1.059c-.232.582-.799 1.453-1.258 1.935l-.836.877.79-.299c1.273-.482 2.458-1.299 3.193-2.201l.684-.841-.18.926c-.269 1.394-1.439 3.392-2.451 4.187-1.635 1.284-3.756 3.4-3.756 3.746 0 .187.24.035.533-.338.618-.785 2.257-1.86 2.64-1.73.42.141-2.218 4.504-3.202 5.297-.493.397-1.73 1.035-2.75 1.417l-1.851.694zm-7.183-.552c-1.325-.898-2.449-2.186-2.16-2.474.092-.093.782.282 1.533.833l1.365 1.002-.427-.825c-.234-.453-.42-1.039-.413-1.3.012-.477 1.342 1.906 1.69 3.029.25.807-.091.75-1.588-.265zm-1.794-3.328c-.24-.266-.438-.796-.438-1.177 0-1.11-.553-3.382-.788-3.237-.118.073-.111.58.016 1.126.309 1.332.3 2.184-.021 2.184-.146 0-.265-.185-.265-.412 0-.243-.125-.335-.303-.225-.29.18-.232-.354.201-1.81.076-.255.01-.463-.145-.463s-.282-.16-.282-.356c0-.196-.19-.737-.423-1.203-.248-.497-.354-1.118-.258-1.502.114-.455.041-.702-.239-.81-.222-.085-.403-.398-.403-.696 0-.525.016-.527.529-.063.291.263.53.641.53.84 0 .2.292.495.65.658.502.23.725.634.979 1.78.227 1.03.353 1.282.41.823.195-1.553.627-2.59 1.133-2.722.289-.076.643-.447.786-.824.144-.378.413-.706.599-.728l.602-.073c.145-.018.882-.689 1.637-1.49 1.27-1.347 3.522-2.923 3.522-2.465 0 .109-.259.473-.574.81-.316.335-.525.66-.463.722.061.061.696.003 1.412-.131.715-.134 1.345-.198 1.4-.143.218.218-2.308 1.486-3.484 1.75-.686.153-1.698.51-2.25.79-.551.282-1.067.448-1.146.369-.08-.08-.276.102-.437.403l-.292.547.926-.547c.797-.47 3.272-1.283 3.936-1.292.352-.005-3.049 3.708-3.782 4.13l-.67.384.661-.177c.364-.097 1.122-.59 1.684-1.094 1.024-.92 2.875-1.907 3.596-1.918.228-.003-.014.402-.596.998-1.057 1.083-1.24 1.643-.536 1.643.781 0-.684 1.294-1.676 1.48-1.115.21-2.602-.061-3.106-.565-.46-.461-.797-.512-.53-.08.128.208.012.26-.365.161-.347-.09-.609 0-.702.245-.268.698-.158 2.878.162 3.198.24.24.23.467-.044.98-.426.794-.577.818-1.153.182zm-1.136-5.998c-.158-.412-1.154-.565-1.154-.177 0 .355.317.574.83.574.315 0 .425-.135.324-.397zm3.046.104c1.023-.357 1.655-1.295.872-1.295-.552 0-1.897.952-1.897 1.342 0 .307.01.307 1.025-.047zm5.69 4.526c.258-1.4 2.043-4.96 3.708-7.39 1.535-2.243 1.588-2.38 1.309-3.422-.151-.564-.274-.61-1.253-.471-.598.084-1.42.232-1.827.328l-.742.174.844-1.25c.893-1.324 2.14-2.254 3.024-2.256.914-.003 2.315.926 2.82 1.868.297.553.483 1.451.483 2.326 0 1.56-.108 1.704-3.425 4.51-.757.64-2.097 2.247-2.98 3.571-2.01 3.02-2.178 3.193-1.961 2.012zm-4.863.342c-.894-.327-1.587-1.24-1.587-2.092 0-.476.1-.926.22-1.001.438-.27 2.157.469 2.879 1.239l.737.786-1.027-.185c-.871-.157-1.003-.121-.86.23l.328.813c.166.41-.004.461-.69.21zm-4.507-7.1c-1.711-2.068-2.02-2.554-1.492-2.351.231.088.448-.09.57-.467.188-.588.202-.58.38.183l.184.794.218-.648c.214-.635.227-.628.61.33.214.539.466.979.56.978.093 0 .382-.374.64-.828.457-.802.486-.812.993-.355.507.46.521.453.521-.236 0-.684.022-.694.626-.298.482.315.79.347 1.34.138.393-.15.785-.272.87-.272.366 0-.957 1.19-2.228 2.005-.81.52-1.577 1.273-1.862 1.829l-.485.945zm.801-3.463c-.412-1.375-.115-1.97 1.343-2.692l1.091-.54-.19.575c-.104.316-.247 1.085-.317 1.709-.102.906-.198 1.075-.48.842-.271-.225-.44-.124-.738.446l-.386.737zm3.353.123c-.635-.356-.575-1.939.1-2.613.566-.566 1.606-1.047 2.264-1.047.303 0 .328.113.115.511-.462.864-.306.89.387.067.552-.656 1.067-.937 2.25-1.23.073-.017.513-.235.979-.484 1.082-.578 1.218-.568.882.06-.573 1.072-.24 1.108.522.057.437-.604.913-1.098 1.057-1.098.144 0 .739-.43 1.321-.957 1.224-1.106 1.316-.982.412.56-.667 1.138-2.722 2.7-6.392 4.861-2.2 1.295-3.278 1.659-3.897 1.313zm4.999-3.528c.123-.53.097-.706-.08-.53-.145.146-.347.622-.45 1.059-.123.53-.096.706.08.53.146-.146.348-.623.45-1.06zm-10.93 3.231c-.84-1.087-.505-2.855.765-4.037.666-.62.799-.673.647-.252a9.534 9.534 0 0 0-.328 1.322c-.105.612-.071.703.147.397.155-.218.284-.568.287-.777.005-.447 1.104-2.129 1.393-2.131.109 0 .203.206.209.46.007.296.145.177.384-.33.206-.436.737-1.206 1.18-1.71.748-.849.806-.872.806-.313 0 .84-.417 1.547-1.837 3.109-.675.742-1.386 1.832-1.581 2.423-.408 1.234-1.673 2.357-2.073 1.84z" id="1680145866537-145321_path5690" fill="#212121" stroke-width=".265"></path></g></g></svg>