<svg width="97" height="87" xmlns="http://www.w3.org/2000/svg" viewBox="0 0 25.794 23.257"><title>ryza3 race sloth</title><g fill="#212121" class="nc-icon-wrapper"><g id="1680145626131-1158144_layer1" transform="translate(-161.683 -96.805)"><path d="M172.073 119.127c-.245-.515-.446-1.235-.446-1.601 0-.508-.214-.756-.902-1.043-.852-.356-2.008-1.515-2.008-2.013 0-.425.573-.233 1.097.366l.52.596-.287-.593c-.158-.326-.649-.78-1.09-1.007-.638-.33-.785-.56-.72-1.128.046-.391.172-.682.281-.646.11.037.604.066 1.098.066.748 0 .993.157 1.447.926.677 1.149.915 1.161 1.237.066.241-.82.327-.867 1.84-1.015a38.4 38.4 0 0 0 2.66-.356c1.191-.223 1.537.009 1.846 1.24.158.63.104.727-.412.727-.326 0-.87.297-1.206.661-.425.459-.498.662-.238.662.206 0 .502-.239.658-.53.156-.29.517-.529.803-.529.62 0 .624.032.145 1.178-.393.942-1.095 1.468-1.958 1.468-.58 0-1.787 1.449-2.205 2.647-.216.618-.435.793-.995.793-.563 0-.816-.204-1.165-.935zm-8.384-6.023c0-.213-.426-.713-.947-1.11-.784-.599-.918-.838-.778-1.395.093-.37.037-.99-.123-1.377a1.78 1.78 0 0 1-.022-1.415c.34-.895.9-.91 1.299-.036.4.877.398 1.53-.002 1.283-.211-.13-.253-.045-.132.27.097.254.18.78.185 1.168.005.461.258.882.728 1.214l.719.508-.616-.679c-.531-.586-.59-.845-.432-1.9.115-.768.064-1.51-.138-1.997-.247-.597-.25-.99-.011-1.712.17-.516.419-1.006.552-1.088.133-.082.176.021.096.23-.08.209.04.825.268 1.37.227.543.413 1.402.413 1.907 0 .517.231 1.211.53 1.59.316.403.529 1.074.529 1.67 0 .878-.102 1.037-.86 1.336-.473.187-.95.387-1.059.445-.109.058-.198-.07-.198-.282zm19.421-.586c-.24-.365-.718-.736-1.064-.822-.752-.189-.769-.29-.168-1.006.397-.474.368-.468-.216.045-.372.328-.818.595-.99.595-.532 0-.347-.935.307-1.55.368-.345.767-1.2.978-2.096.545-2.312 2.564-4.11 2.864-2.55.054.28.377.788.719 1.13.341.342.692.848.78 1.124.088.277.39.503.67.503.782 0 .614.64-.447 1.7-.87.87-.943 1.054-.792 2 .138.863.078 1.09-.347 1.317-.898.48-1.827.323-2.294-.39zm.012-2.577c.055-.181.17-.747.256-1.256.11-.658.079-.811-.106-.53-.143.219-.262.715-.264 1.103-.002.388-.153.766-.335.839-.259.104-.257.138.008.154a.458.458 0 0 0 .44-.31zm-12.62.403c-.836-.054-1.52-.19-1.52-.303 0-.113.297-.485.66-.827l.662-.622.612.576c.712.668 1.172.71 1.886.17.649-.491.907-.487 2.153.034.743.31.91.477.628.627-.525.28-3.232.464-5.08.345zm.863-1.524c-.733-.781-.984-.816-1.635-.227-.633.573-.614.176.042-.9.569-.933.788-1.028 1.268-.547.513.512.712-.003.213-.552-.422-.467-.425-.571-.044-1.308.607-1.174.839-1.206 1.591-.22.818 1.072.838 1.237.15 1.237-.368 0-.53.177-.53.58 0 .562.012.565.372.072.553-.756 1.714-.252 2.453 1.065.322.575.544 1.089.492 1.141-.053.052-.575-.181-1.162-.519l-1.067-.614-.76.728-.759.728zm-4.546-1.32c-.165-.362-.532-.731-.816-.821-.41-.13-.485-.324-.364-.93.191-.956.918-2.091 1.339-2.091.174 0 .477.407.672.906.196.498.594.968.885 1.044.503.131.507.17.087.748a10.94 10.94 0 0 0-.746 1.204c-.391.77-.687.753-1.057-.06zm10.125-.82c-.944-1.253-.897-1.591.24-1.743.53-.071.687-.272.793-1.015.122-.85.213-.933 1.124-1.008.838-.07.993 0 .993.437 0 .333.27.614.755.783.558.194.8.49.93 1.133.096.485.055.99-.095 1.139-.18.18-.267.13-.267-.154 0-1.16-1.868-.665-2.679.709-.302.511-.626.926-.721.922-.095-.004-.577-.546-1.073-1.203zm-7.384-1.669c-.23-.142-.13-.294.34-.508.703-.32.909-.051.33.43-.188.155-.489.19-.67.078zm4.713-.427c-.278-.336-.224-.397.349-.397.798 0 1.152.404.554.633-.551.212-.525.219-.903-.236zm-6.615-.943c0-.656-.098-.795-.517-.728-.284.046-.54.024-.57-.05-.116-.287.68-2.116.921-2.116.141 0 .458-.182.703-.404.413-.373.46-.29.623 1.09.122 1.043.074 1.616-.16 1.898-.29.349-.245.376.325.203 1.01-.307 1.157-.57.69-1.236-.944-1.348-.25-4.094 1.271-5.02.984-.6 1.212-.621 1.212-.11 0 .215-.334.563-.742.774-.937.485-1.387 1.46-1.33 2.884l.044 1.112.103-.972c.067-.63.306-1.104.683-1.351.572-.375.58-.36.575.971-.007 1.69-.26 2.18-.873 1.695-.366-.288-.359-.223.045.407.263.413.44.775.392.804-.298.18-2.791.962-3.064.96-.192 0-.33-.34-.33-.811zm6.962.04c-.755-.092-1.451-.245-1.546-.34-.096-.096.373-.698 1.042-1.339 1.064-1.019 1.215-1.302 1.215-2.268 0-1.086-.507-1.92-1.356-2.228-.288-.105-.296-.204-.04-.476.46-.488 1.596.073 1.93.953.545 1.432.322 2.694-.668 3.79-.912 1.01-.918 1.03-.331 1.188.329.088.824.162 1.102.164.462.003.47-.035.086-.46-.363-.402-.37-.55-.05-1.124.202-.364.371-1.157.376-1.763l.01-1.1 1.43.704c1.143.563 1.485.885 1.708 1.607.343 1.116.192 1.395-.645 1.185-.808-.203-1.436.287-1.436 1.12 0 .69-.156.712-2.828.387zm-1.935-1.558c0-.116.133-.344.295-.506.162-.162.248-.781.191-1.376-.114-1.2-.013-1.261 1.115-.678 1 .518.983.884-.092 1.926-.831.806-1.509 1.09-1.509.634z" id="1680145626131-1158144_path5330" fill="#212121" stroke-width=".265"></path></g></g></svg>