<svg width="89" height="82" xmlns="http://www.w3.org/2000/svg" viewBox="0 0 23.716 21.858"><title>ryza3 race small devil</title><g fill="#212121" class="nc-icon-wrapper"><g id="1680145626132-4870278_layer1" transform="translate(-186.133 -96.405)"><path d="M193.273 118.079c-1.813-.32-3.134-.968-3.782-1.855-.472-.647-.476-.746-.075-1.706.791-1.893 1.648-2.765 2.738-2.788 1.011-.022.963-.085-.273-.357-1.299-.286-1.968-2.4-1.073-3.388.349-.386.376-.547.12-.706-.258-.159-.236-.286.093-.56.274-.227.371-.573.272-.968-.085-.339-.035-.615.112-.615.146 0 .859-.59 1.583-1.31.843-.839 1.698-1.413 2.374-1.595.58-.157 1.116-.381 1.189-.5.325-.526 4.917.66 4.917 1.27 0 .132.424.502.942.822.535.33.885.73.81.926-.072.188.048.412.267.496.26.1.34.337.23.68-.092.291-.076.677.036.857.211.342.252.508.514 2.076.202 1.209-.733 2.406-2.343 3.002l-1.118.413 1.058-.084c.583-.046 1.235-.134 1.45-.195.244-.07.423.106.479.47.054.35.226.527.437.446.231-.088.407.185.526.816.098.522.285.883.416.802.375-.232.61 1.602.284 2.213-.504.941-2.657 1.412-6.899 1.507-2.11.047-4.488-.029-5.284-.17zm5.157-2.627c.603-.292 1.385-.842 1.737-1.22l.639-.69-1.054.56c-.694.367-1.538.559-2.465.559-1.49 0-2.19-.252-3.16-1.137-.86-.782-.952-.442-.187.683 1.202 1.77 2.604 2.158 4.49 1.245zm1.252-4.673c.109-.065.198-.29.198-.5 0-.28-.348-.363-1.323-.38-1.62-.03-1.623-.292-.886-.924.529-.452.244-.929-.57-.929-.851 0-1.129.537-.503.983.583.415.413.652.015.735-.328.068-.281.035-.907.127-.216.031-.516.024-.75.115-.551.21-.064.863.776 1.04.62.13 3.622-.073 3.95-.267zm-4.46-1.909c.428-.473.417-.538-.208-1.256-.635-.73-.687-.743-1.402-.348-.56.31-.72.57-.65 1.058.162 1.126 1.453 1.438 2.26.546zm6.369-.02c.572-.632.383-1.234-.516-1.643-.58-.265-.76-.222-1.33.313-.776.728-.834 1.192-.196 1.563.728.424 1.53.332 2.042-.233zm4.497 8.176c-.218-.353.378-1.836.738-1.836.156 0 .206-.377.12-.91-.113-.695-.05-.93.266-.993.32-.063.23-.278-.403-.955-.45-.48-.754-1.037-.677-1.237.079-.206-.129-.517-.476-.714-.459-.26-.618-.587-.623-1.276a10.1 10.1 0 0 0-.178-1.72c-.16-.736-.093-.828.91-1.256.596-.255 1.109-.433 1.14-.397.388.457 1.557 3.268 2.227 5.357.997 3.107.964 4.289-.152 5.453-.553.577-.976.765-1.726.765-.546 0-1.07-.127-1.166-.28zm-19.228-1.586c-.77-.77-.802-.888-.662-2.427.105-1.162.45-2.218 1.224-3.755 1.474-2.924 1.692-3.18 2.39-2.807.33.177.479.426.364.612-.206.334-.304.903-.374 2.174-.024.436-.232 1.01-.463 1.273-.318.364-.34.527-.095.679.232.143.137.374-.338.82-.488.458-.588.71-.381.958.193.233.195.495.007.846-.15.28-.202.942-.117 1.472.13.793.077.963-.295.963-.249 0-.816-.364-1.26-.808zm2.528-9.635c-1.188-.832-.818-2.546.629-2.91.402-.1.874-.301 1.048-.446.412-.342.148-1.017-.398-1.017-.377 0-.372-.054.037-.463.341-.341.895-.463 2.107-.463 1.502 0 1.652-.052 1.73-.593.06-.425-.109-.68-.596-.903-.725-.33-.853-.615-.4-.895.155-.096.244-.48.199-.853-.118-.978.455-1.023 1.372-.106.666.666.795 1.003.791 2.072-.005 1.58-.08 1.698-1.716 2.653-.727.425-1.56 1.152-1.852 1.615-.29.463-.808.918-1.15 1.011-.505.138-.599.31-.508.928.128.873-.371 1.016-1.293.37zm15.122-.56c-.29-.222-.494-.575-.451-.785.043-.21-.092-.383-.299-.383s-.93-.647-1.606-1.44c-.677-.791-1.458-1.511-1.736-1.6-.622-.197-1.15-1.695-.92-2.61.205-.819 1.27-2.022 1.79-2.022.225 0 .436.379.53.95.117.728.03 1.083-.371 1.514-1.085 1.165-.051 2.154 1.485 1.42.939-.447.989-.444 1.91.126l.948.586-.64.274c-1.304.559-1.159 1.391.329 1.889 1.128.378 1.355 1.44.443 2.079-.728.51-.746.51-1.412.003zm-15.414-2.821c.41-.622 1.788-.982 1.788-.467 0 .256-1.523 1.062-2.008 1.062-.095 0 .004-.268.22-.595zm15.832.157c-.598-.42-.605-.455-.14-.794.266-.196.581-.355.699-.355.304 0 1.272 1.006 1.272 1.323 0 .417-1.142.308-1.831-.174zm-12.86-2.484c-.257-.414.387-1.047 1.065-1.047.678 0 1.322.633 1.066 1.047-.094.152-.574.276-1.066.276-.492 0-.972-.124-1.065-.276zm9.26 0c-.256-.413.609-1.576 1.171-1.576.27 0 .65.192.846.427.304.367.266.499-.262.926-.678.55-1.49.652-1.755.223z" id="1680145626132-4870278_path5068" fill="#212121" stroke-width=".265"></path></g></g></svg>