<svg width="88" height="95" xmlns="http://www.w3.org/2000/svg" viewBox="0 0 23.53 25.187"><title>ryza3 race skeleton</title><g fill="#212121" class="nc-icon-wrapper"><g id="1680145626131-4756092_layer1" transform="translate(-141.689 -106.815)"><path d="M151.489 130.67c-.92-.998-1.443-1.82-1.548-2.432-.086-.508-.305-1.07-.485-1.251-.18-.18-.404-.78-.498-1.33-.216-1.282-.297-1.391-1.758-2.386-.98-.666-1.286-1.067-1.56-2.047-.257-.916-.266-1.294-.038-1.522.227-.227.303-.18.303.19 0 1.05.858 2.442 1.756 2.85.494.223.962.299 1.043.168a.286.286 0 0 1 .394-.086c.135.083.246.013.246-.157s.179-.24.397-.156c.233.09.397.004.397-.207 0-.197.204-.342.453-.322.558.045.79-.873.3-1.189-.504-.325.174-.744.899-.554.361.095.692-.066 1.023-.496l.488-.635.006.707c.003.39-.274 1.044-.616 1.456-1.416 1.702-1.527 2.425-.557 3.622 2.704 3.334 3.094 4.547 1.84 5.725-.363.341-.661.772-.661.956 0 .773-.515.518-1.824-.904zm-3.411-.39c-.755-.802-.81-1.535-.066-.862.33.3.77.423 1.205.34.578-.11.672-.044.604.43-.113.794-1.039.843-1.743.093zm8.453-.445c-1.523-.71-1.31-1.164.64-1.356.861-.085 1.942-.35 2.402-.59.936-.487 1.942-1.64 1.942-2.224 0-.21.149-.33.33-.266.468.165.309 1.94-.26 2.91-1.083 1.85-3.07 2.45-5.054 1.526zm-9.023-1.39c-.813-.554-2.003-2.279-1.748-2.533.059-.06.45.276.869.745.515.577 1.098.907 1.804 1.022.807.13 1.043.288 1.043.694 0 .757-.915.791-1.968.073zm7.903-1.229l-.606-.49.984-.185c.683-.128 1.388-.586 2.3-1.494.989-.983 1.513-1.309 2.107-1.309.63 0 .79.115.79.564 0 .96-1.024 2.283-2.21 2.857-1.403.679-2.572.699-3.365.057zm-8.514-1.118c-.533-.31-1.371-1.804-1.141-2.034.085-.085.503.18.93.588.51.49.956.696 1.303.606.537-.14.967.42.679.885-.197.319-1.19.294-1.771-.045zm6.584-.527c-.902-.71-.883-1.039.06-1.039.418 0 1.07-.245 1.452-.545.47-.37.99-.52 1.617-.463.887.079.91.108.595.736-.379.755-1.907 1.86-2.573 1.86-.25 0-.768-.247-1.151-.549zm-8.8-2.213c-.793-.345-1.803-1.444-1.555-1.692.066-.066.301.03.523.215.513.425.516.159.008-.617-.567-.865-.794-2.92-.422-3.818.547-1.32 2.67-2.132 2.67-1.02 0 .206-.236.894-.524 1.529-.704 1.55-.668 2.927.116 4.488.698 1.39.58 1.522-.815.915zm7.574-.31c0-.087.379-.638.842-1.223.628-.794.898-1.472 1.062-2.677.437-3.19 2.289-4.682 6.005-4.84l2.012-.086-1.621.525c-1.995.645-3.472 2.002-4.588 4.213-.751 1.488-.999 2.397-.652 2.397.082 0 .388-.128.68-.284.517-.277.52-.267.074.412-.536.818-2.187 1.724-3.142 1.724-.37 0-.672-.072-.672-.16zm6.51-.655c1.692-1.344 1.893-1.976.548-1.724-1.177.221-1.308.01-.713-1.156.835-1.637 3.629-3.687 5.052-3.706.465-.006 1.567 1.056 1.567 1.511 0 .16-.592.489-1.315.73-1.55.514-2.654 1.682-2.654 2.809 0 .569.162.842.595 1.002.576.213.566.237-.33.784-.642.391-1.364.564-2.351.565h-1.426zm-16.67-.284c-.583-.833-.531-2.68.11-3.937.295-.577.563-1.048.596-1.048.122 0-.027 5.335-.152 5.46-.072.072-.32-.142-.554-.475zm14.128.43c0-.079.192-.435.426-.792.58-.884.316-1.58-.444-1.174-.781.418-.815.268-.231-1.035 1.267-2.83 3.614-4.53 6.254-4.53.772 0 1.404.09 1.404.202 0 .11-.577.407-1.282.657-1.554.552-3.516 2.223-4.13 3.517-.554 1.168-.383 1.708.541 1.708.607 0 .656.056.358.415-.659.794-2.896 1.59-2.896 1.031zm-8.308-.847a.829.829 0 0 0-.511-.203c-.36 0-.717-1.664-.88-4.1-.064-.947-.179-2.57-.256-3.608-.116-1.57-.04-2.118.447-3.253.674-1.566 2.27-3.069 3.67-3.458 1.222-.34 2.928-.34 2.928 0 0 .146-.242.265-.538.265-.836 0-2.43.75-3.239 1.524-.861.826-1.515 2.813-1.515 4.609 0 .964.098 1.275.402 1.275.29 0 .359-.174.245-.625-.123-.492.024-.76.69-1.257a20.61 20.61 0 0 0 1.739-1.51c.491-.484.893-.752.893-.596 0 .41.714.348 1.433-.123.557-.365.636-.365.776 0 .202.528.671.516 1.276-.031.654-.592.614-.064-.06.793-.493.627-1.019.846-3.222 1.342-.397.09-1.141.53-1.653.98-.864.758-.931.777-.931.26 0-.649-.402-.742-.63-.145-.09.235-.046.341.104.249.144-.09.261.076.261.367 0 .512.038.508 1.125-.113.618-.354 2.052-.954 3.187-1.333 1.765-.591 2.35-.957 4.056-2.54 2.526-2.342 4.185-3.043 5.764-2.437.642.246.22.633-.691.633-.848 0-2.162 1.161-4.102 3.623-.466.591-1.419 1.403-2.117 1.803-.698.4-1.834 1.196-2.525 1.768-.699.578-1.261.886-1.266.694-.016-.687-.747.63-.921 1.662-.156.92-.258 1.034-.932 1.034-.834 0-1.317.59-1.115 1.36.07.27.025.501-.101.512-.748.066-1.257.245-1.412.495-.097.158-.268.196-.379.084zm-.54-3.656c-.094-.502-.285-.912-.424-.912-.352 0-.316 1.239.056 1.935.401.749.597.202.368-1.023zm2.343.39c.846-1.006.953-1.994.17-1.575-.617.33-.78.574-1.075 1.604-.29 1.01.04.999.905-.029z" id="1680145626131-4756092_path5453" fill="#212121" stroke-width=".265"></path></g></g></svg>