<svg width="81" height="96" xmlns="http://www.w3.org/2000/svg" viewBox="0 0 21.654 25.4"><title>ryza3 race dryad</title><g fill="#212121" class="nc-icon-wrapper"><g id="1680145626129-4762334_layer1" transform="translate(-172.734 -102.238)"><path d="M179.86 127c0-.346.164-.691.364-.768.2-.077.349 0 .33.17-.018.17.086.337.232.37.145.032.265-.352.265-.854 0-.503.089-.916.198-.92.11-.003.32-.006.468-.006.149 0 .202.272.118.606-.084.333-.04.903.099 1.267.243.639.213.662-.911.711-1.062.046-1.163-.004-1.163-.577zm4.398-.09c.096-.4.213-.772.26-.828.047-.055-.033-.323-.179-.595-.22-.41-.17-.495.295-.495.485 0 .547.132.472.993-.065.744.013.992.31.992.218 0 .367-.15.33-.331-.095-.48.378-.406.569.09.255.665-.056.902-1.184.902-1.009 0-1.041-.027-.873-.727zm-2.943-2.66c-1.232-.578-1.56-.929-2.114-2.254-.399-.953-.395-.972.192-.971.33 0 1.016.255 1.525.567.773.472.848.594.456.732-.404.143-.33.301.53 1.132l.999.965 1.158-1.037c1.148-1.027 1.152-1.037.43-1.037-.646 0-.687-.049-.364-.438.49-.59 1.886-1.15 2.868-1.15.656 0 .802.109.801.595-.004 2.39-3.876 4.12-6.48 2.896zm.93-.843c-.565-.426-.58-.484-.145-.569.847-.166-.714-1.704-2.245-2.213-1.58-.524-1.918-.924-.782-.924.457 0 .79-.09.741-.199-.05-.109-.424-.835-.833-1.614-.41-.778-.667-1.492-.574-1.585.176-.176 1.565 1.227 2.843 2.869l.72.926.004-1.006c.002-.553-.161-1.327-.362-1.72-.475-.93-.731-4.187-.291-3.699.431.48 1.45 3.085 1.45 3.711 0 .488.036.482.544-.101l.544-.625-.17 1.556-.172 1.556.812-.578c.447-.318.94-.78 1.095-1.027.223-.355.263-.242.19.544-.079.852-.015.992.45.996.299.003.718.115.932.25.438.277.535.227-1.546.794-1.11.303-2.415 1.292-2.415 1.832 0 .142.227.296.504.342.474.08.47.111-.08.522-.547.407-.628.405-1.215-.038zm7.036.13c-.484-.157-.854-.48-.91-.794-.078-.428-.03-.465.247-.198.496.477 1.41.406 1.912-.149.338-.373.38-.665.192-1.322-.24-.835.052-1.212.346-.447.247.644.643.456.83-.394.183-.834 1.248-1.855 1.934-1.855.319 0 .282.134-.168.612-.657.7-.748 1.098-.204.89.672-.258.643.106-.064.813l-.696.696.856.222c1.045.27 1.126.734.128.74-.899.005-1.574.38-1.152.64.615.38.243.63-1.07.72-.75.05-1.732-.028-2.18-.174zm-13.875-.062c-.923-.083-1.115-.186-.983-.528.19-.498-.27-.855-1.112-.861-.803-.006-.757-.482.067-.69.806-.201.826-.405.107-1.057l-.555-.501.577-.137.577-.136-.57-.726c-.397-.504-.462-.726-.215-.726.665 0 1.492.791 1.799 1.72.355 1.078.594 1.155 1.02.33.263-.505.287-.409.16.646-.131 1.084-.078 1.278.425 1.548.317.169.918.239 1.337.155.443-.089.762-.039.762.12 0 .273-1.657 1.077-2.042.991-.114-.025-.723-.092-1.354-.148zm11.653-3.953c-.263-.105-.27-.223-.034-.508.45-.543 1.037-.454 1.037.158 0 .516-.314.626-1.003.35zm-1.028-.636c.095-.352.173-.906.175-1.232.004-.704 1.22-2.076 2.048-2.314.583-.167.585-.158.204.922-.426 1.209-1.179 2.27-2.036 2.87-.533.374-.553.361-.39-.246zm-5.113-.773c0-.145.112-.264.25-.264.136 0 .322.119.412.264.09.146-.022.265-.25.265-.226 0-.412-.12-.412-.265zm3.175 0a.265.265 0 0 1 .53 0 .265.265 0 0 1-.53 0zm-4.586-1.653c-.704-.94-1.132-2.052-.79-2.05.12 0 .604.237 1.077.525.707.432.86.69.86 1.455 0 1.157-.318 1.176-1.147.07zm4.724.3c.41-1.32 2.372-3.335 3.019-3.1.367.134-.404 2.086-1.09 2.761-.336.33-.952.685-1.368.786-.705.172-.744.14-.561-.447zm-1.594-1.825c-.426-.944-.44-1.18-.12-2.15.349-1.055.338-1.109-.344-1.695-.387-.333-1.337-.79-2.11-1.015-1.41-.41-4.174-2.136-4.367-2.728-.162-.496 1.647-.708 3.04-.357.688.173 1.74.717 2.341 1.209l1.092.895-.13-1.803c-.074-1.043.004-2.202.184-2.75.34-1.03 1.235-2.303 1.62-2.303.395 0 1.243 1.906 1.474 3.314l.215 1.316.14-1.058c.125-.938.282-1.133 1.382-1.714.682-.36 1.322-.574 1.42-.475.1.1.1.836-.001 1.638-.18 1.433-.205 1.47-1.605 2.227l-1.423.771-.08-.681c-.064-.537-.14-.426-.354.522l-.273 1.203 1.041-.754c.573-.415 1.482-.873 2.021-1.018.975-.262 3.349-.091 3.564.257.16.258-2.23 2.036-3.383 2.517-.528.221-1.236.402-1.572.402-.336 0-.888.194-1.228.432-.616.432-.67 1.246-.167 2.516.164.415-1.236 2.344-1.702 2.344-.108 0-.412-.478-.675-1.062zm-2.51-7.819c-.508-.358-1.006-.858-1.106-1.111-.218-.551-.28-2.708-.077-2.708.331 0 2.168 1.05 2.467 1.411.328.395.155 3.101-.196 3.074-.09-.007-.58-.307-1.088-.666z" id="1680145626129-4762334_path5248" fill="#212121" stroke-width=".265"></path></g></g></svg>