<svg width="85" height="84" xmlns="http://www.w3.org/2000/svg" viewBox="0 0 22.689 22.44"><title>ryza3 category core ingredients</title><g fill="#212121" class="nc-icon-wrapper"><g id="1680145626129-4576007_layer1" transform="translate(-175.979 -96.158)"><path d="M182.826 118.182c-3.398-.917-5.296-2.472-5.49-4.499-.107-1.108-.026-1.393.611-2.15.702-.834 2.14-1.872 3.066-2.213.315-.116.47.02.56.495.106.548-.043.74-.908 1.182-1.185.605-2.137 1.972-1.919 2.755.24.858 1.85 2.13 3.349 2.645 1.795.617 6.794.84 9.018.403 2.907-.572 4.942-1.908 4.942-3.243 0-1.121-.397-1.689-1.724-2.467-.884-.518-1.186-.857-1.186-1.331 0-.774.011-.774 1.4-.078 4.699 2.359 3.98 6.208-1.533 8.2-2.232.807-7.714.969-10.186.301zm.528-2.396c-1.897-.495-3.316-1.362-3.577-2.185-.211-.666.468-1.753 1.344-2.152.958-.437 1.135-.011.28.67-1.13.902-.881 1.738.764 2.558 2.51 1.252 9.203 1.005 11.378-.42.934-.612.874-1.598-.132-2.17-.811-.462-.963-.713-.575-.953.344-.212 2.076 1.075 2.228 1.656.675 2.58-6.385 4.387-11.71 2.996zm2.017-2.428c-1.544-.485-3.055-2.622-3.068-4.337-.017-2.266 1.546-4.441 3.584-4.986.672-.18 1.232-.506 1.314-.764.144-.452-.234-2.428-.705-3.69-.278-.745-1.49-1.58-2.256-1.554-.371.012-.33.08.173.28.824.329 1.853 1.276 1.853 1.705 0 .867-2.187.855-3.332-.019-.478-.364-1.501-.802-2.274-.973-.773-.171-1.455-.349-1.514-.394-.06-.046.118-.335.396-.643.712-.788 2.856-1.825 3.772-1.825 1.17 0 2.564.685 3.294 1.619.655.836.658.836.968.257.552-1.033 1.846-1.61 3.61-1.61 1.376 0 1.777.116 2.713.794 1.206.873 1.393 1.321.551 1.321-.664 0-1.434.394-2.13 1.089-.685.685-1.634 1.029-2.83 1.024-1.349-.006-1.772-.308-1.401-1 .412-.771 1.593-1.642 2.225-1.642.296 0 .467-.071.38-.158-.313-.313-1.76.207-2.425.872-.807.807-.853 1.543-.224 3.554.41 1.305.61 1.566 1.624 2.104a4.96 4.96 0 0 1 2.31 6.166c-.242.636-.645 1.34-.894 1.566-.424.383-.455.293-.468-1.374-.016-1.957-.62-3.309-1.833-4.104-.973-.637-1.008-.529-.214.671.565.853.747 1.487.825 2.864.088 1.56.027 1.852-.522 2.472-.701.791-2.252 1.108-3.502.715zm-7.638-6.526c-1.785-.952-2.093-1.36-1.439-1.902.267-.222.71.077 1.91 1.29.86.869 1.507 1.576 1.439 1.572-.068-.004-.928-.436-1.91-.96zm18.702-.578c1.208-1.24 1.651-1.546 1.919-1.324.664.552.336.958-1.571 1.944l-1.918.992zm-17.154-2.02c-.711-.506-1.337-.963-1.39-1.016-.052-.053.125-.296.395-.54.467-.422.537-.374 1.46 1.016.533.803.937 1.46.9 1.46-.04 0-.653-.414-1.365-.92zm15.616-.532c.927-1.396.998-1.446 1.463-1.025.269.243.489.466.489.496 0 .03-.658.49-1.463 1.025l-1.464.972zm-13.88-1.81c-.516-.55-.534-.972-.041-.972.21 0 .856 1.347.714 1.489-.053.053-.356-.18-.673-.517zm12.15-.129c.29-.833.609-1.056.88-.617.077.125-.156.504-.517.844l-.657.617z" id="1680145626129-4576007_path3391" fill="#212121" stroke-width=".265"></path></g></g></svg>