<svg xmlns="http://www.w3.org/2000/svg" width="93" height="93" viewBox="0 0 24.696 24.724"><title>ryza3 race wyvern</title><g fill="#212121" class="nc-icon-wrapper"><g transform="translate(-283.194 -217.695)"><path d="M297.425 241.246c-1.67 1.151-1.897 1.244-1.757.718.09-.332.164-.882.166-1.223 0-.376.194-.67.487-.747.265-.07.807-.787 1.203-1.594s.662-1.525.592-1.595c-.07-.07-.504.539-.964 1.354-.534.946-1.01 1.482-1.315 1.482-.332 0-.44-.147-.354-.478.069-.263-.102-.758-.379-1.1-.287-.355-.636-.541-.811-.433-.17.105-.308.561-.308 1.014v.825l-.612-.576c-.542-.509-.908-.575-3.175-.575-1.41 0-2.563-.103-2.563-.229 0-.125.525-.428 1.166-.673.705-.27 1.803-1.087 2.778-2.068.887-.892 1.631-1.87 1.654-2.17.023-.302.037-.694.031-.871-.01-.178.197-.389.451-.47.42-.133.432-.276.13-1.574-.182-.785-.41-1.556-.508-1.713-.097-.157-.06-.286.08-.286.141 0 .566.367.943.815l.685.815.233-.617c.129-.339.171-.676.095-.748-.076-.073-.19.014-.254.194-.08.227-.405.13-1.073-.324-.526-.358-1.001-.606-1.056-.551-.054.055.078.697.295 1.427l.394 1.328-.822 1.07c-.586.762-.914.996-1.138.81-.2-.165-.552-.172-.958-.017-.353.134-1.209.794-1.9 1.466-.692.673-1.375 1.15-1.518 1.062-.143-.089-.428-.022-.633.148-.205.17-.55.27-.766.221-.322-.072-.264-.354.318-1.546a24.678 24.678 0 0 1 1.638-2.777c.51-.725 1.717-2.122 2.684-3.105.968-.983 1.89-1.788 2.051-1.788.16 0 .292-.225.292-.5s.246-.78.546-1.124c.375-.429.59-.52.684-.294.075.182.306.33.512.33.206 0 .376.15.379.331 0 .223.085.203.252-.061.207-.328.38-.265 1.054.38.443.425.802.84.798.922-.01.082-.185.382-.4.667-.373.493-.428.497-1.144.073l-.753-.444.136.713c.116.602.164.636.31.218.158-.45.223-.43.74.227l.566.72.426-.88c.235-.485.725-1.417 1.09-2.072.57-1.022.642-1.41.512-2.743-.13-1.342-.098-1.51.236-1.233.212.176.629.969.925 1.762.297.792.54 1.756.54 2.142 0 .386-.143 1.389-.316 2.229-.278 1.345-.262 1.585.133 2.021.246.273.368.575.271.673-.097.097-.397.177-.666.177s-.934.413-1.477.918c-.544.506-.86.923-.704.927.157.004.564-.291.906-.655.342-.364.727-.661.856-.661.128 0 .155.127.059.284-.097.156.388-.147 1.076-.672.689-.526 1.305-.903 1.37-.838.065.065-.189.603-.563 1.195-.375.593-.678 1.17-.675 1.282 0 .112.245-.094.537-.458.291-.363.707-1.066.923-1.561.216-.496.347-.947.292-1.003-.056-.055-.411.04-.79.212-.538.245-.775.241-1.09-.02-.22-.183-.335-.44-.254-.572a.28.28 0 0 1 .383-.094c.129.08.65-.028 1.156-.24.725-.303.98-.316 1.192-.06.148.178.397.616.552.971.193.44.248.478.173.119a6.2 6.2 0 0 0-.275-.929c-.137-.327.04-.382.988-.307.635.05 1.578-.025 2.097-.168.85-.235.957-.205 1.094.307.084.312.154 1.063.156 1.67 0 .606-.218 1.62-.49 2.253-.27.632-.676 1.303-.902 1.49-.275.228-.465.249-.58.062-.095-.153-.302-.277-.462-.277-.16 0-.077.235.183.522.26.288.564.468.674.4.11-.069.138 1.154.062 2.718-.076 1.563-.152 2.855-.17 2.87-.017.015-.418.102-.89.192-.736.14-.86.088-.86-.359 0-.287-.09-.522-.2-.522-.108 0-.593.242-1.075.537l-.878.535-.464-.573c-.418-.516-.555-.542-1.404-.262-.517.171-1.803.905-2.859 1.632zm-1.588-2.928c.146 0 .265-.052.265-.117 0-.064-.12-.19-.265-.28-.145-.09-.264-.037-.264.117s.119.28.264.28zm.53-.53c.194 0 .273-.078.176-.175a.25.25 0 0 0-.353 0c-.097.097-.018.176.177.176zm-1.44-.528a.117.117 0 0 0 .117-.117c0-.064-.138-.202-.306-.305-.19-.117-.234-.073-.117.116.104.168.242.306.306.306zm1.836 0a.133.133 0 1 0 0-.265.133.133 0 0 0 0 .265zm2.008-.265c.1 0 .26-.409.353-.91.139-.74.304-.924.89-.991.527-.061.696-.212.636-.566-.045-.265.048-.64.208-.832.226-.273.157-.35-.315-.348a6.251 6.251 0 0 1-1.266-.162c-.364-.091-.483-.09-.265.005.219.093.606.351.86.573.255.222.463.548.463.726 0 .178-.343.391-.763.475-.64.128-.781.305-.873 1.092-.06.516-.028.939.072.939zm-3.463-.264c.146 0 .265-.053.265-.117s-.12-.19-.265-.28c-.145-.09-.264-.038-.264.116 0 .155.119.28.264.28zm1.72 0a.133.133 0 1 0 0-.265.133.133 0 0 0 0 .265zm-1.043-.53a.117.117 0 0 0 .117-.116c0-.064-.138-.202-.306-.306-.189-.117-.233-.072-.116.117.104.168.241.305.305.305zm1.572-.264a.133.133 0 1 0 0-.265.133.133 0 0 0 0 .265zm-1.323-.265a.133.133 0 1 0 0-.265.133.133 0 0 0 0 .265zm.53-.264a.133.133 0 1 0-.001-.265.133.133 0 0 0 0 .265zm1.058 0a.133.133 0 1 0 0-.265.133.133 0 0 0 0 .265zm-2.25-.53c.354 0 .53-.176.53-.529 0-.29-.095-.529-.212-.529-.116 0-.354.143-.529.318-.175.174-.317.412-.317.529 0 .116.238.212.529.212zm7.577-.553c.02.013.377-.165.794-.395l.758-.42-.723.159c-.685.15-.709.123-.463-.524.143-.375.248-.883.233-1.128-.015-.245-.148.008-.295.563-.185.696-.381.963-.634.86l-.764-.31c-.218-.088-.397-.058-.396.067 0 .124.327.424.727.665.4.241.744.45.763.463zm-8.723-.328a.25.25 0 0 0 0-.353c-.097-.097-.176-.018-.176.176 0 .194.079.274.176.177zm2.57-.706c.074 0 .207-.119.297-.265.09-.145.104-.264.03-.264-.072 0-.205.119-.295.264-.09.146-.104.265-.031.265zm6.939-2.188c.088-.088.097-.316.02-.507-.083-.211-.146-.149-.16.16-.011.278.052.435.14.347zm-8.495-2.84a.133.133 0 1 0 0-.264.133.133 0 0 0 0 .265zm-11.752 13.098l-.494 1.058.111-1.587c.061-.873.16-2.137.22-2.808.059-.672-.01-1.335-.145-1.474-.16-.16.05-.92.578-2.086.457-1.008 1.156-2.31 1.554-2.892.397-.582.673-1.2.613-1.372-.06-.172.136-.444.436-.604.3-.161.545-.428.545-.593 0-.165.197-.518.438-.784.262-.29.315-.484.132-.484-.168 0-.305-.092-.305-.205 0-.112.416-.428.926-.703.51-.274.926-.669.926-.877 0-.209.268-.603.595-.876.51-.425.528-.498.132-.505-.254-.005-.463-.106-.463-.225 0-.118.417-.414.926-.657.612-.292.926-.625.926-.982 0-.324-.25-.635-.626-.778-.363-.138-1.055-.14-1.646-.008-.561.127-1.058.192-1.105.146-.047-.047.304-.412.78-.812.8-.674.986-.716 2.524-.572.914.085 1.657.07 1.652-.034-.01-.103-.218-.439-.474-.745a4.4 4.4 0 0 0-1.082-.886c-.344-.184-.982-.262-1.444-.176l-.828.155.743-.657c.408-.362 1.003-.65 1.323-.642.32.008.958.157 1.42.33.461.174 1.301.741 1.866 1.26.565.52 1.184 1.323 1.375 1.784.19.461.81 1.256 1.374 1.767.565.51 1.028 1.115 1.028 1.343 0 .228-.124.646-.275.928-.26.486-.36.454-1.844-.592-1.39-.981-1.644-1.073-2.226-.808-.361.165-.832.639-1.046 1.053-.214.414-1.322 1.714-2.46 2.889-1.14 1.174-2.464 2.647-2.945 3.272-.48.625-1.221 1.86-1.646 2.745-.425.885-.955 2.48-1.177 3.544-.222 1.065-.407 2.196-.411 2.514 0 .317-.23 1.054-.501 1.636zm17.302-13.097c-.612 0-.621-.036-.47-1.918.083-1.055.285-2.157.447-2.448.254-.456.305-.356.375.728.044.691.163 1.253.265 1.248.1-.005.54-.623.977-1.373.437-.75.932-1.407 1.1-1.46.216-.068.247.162.107.777-.11.48-.286 1.172-.393 1.535-.166.57-.12.547.335-.17.29-.456.65-.905.798-.997.175-.108.221.187.131.83l-.14.999.81-1.323c.445-.728 1.022-1.561 1.283-1.852.261-.291.678-.69.928-.887.426-.337.428-.276.037 1.045-.382 1.286-.381 1.463.014 2.132.381.647.388.833.054 1.633-.302.723-.57.938-1.344 1.084-.532.1-1.496.102-2.142.005-1.1-.165-1.167-.222-1.033-.875.13-.631.107-.62-.238.123-.209.451-.582.897-.828.992-.246.095-.729.172-1.072.172z" id="path1215-6" fill="#212121" stroke-width=".265"></path></g></g></svg>