<svg width="89" height="91" xmlns="http://www.w3.org/2000/svg" viewBox="0 0 23.58 24.332"><title>ryza3 race chameleon</title><g fill="#212121" class="nc-icon-wrapper"><g id="1680145626129-4337236_layer1" transform="translate(-148.036 -109.25)"><path d="M148.527 133.062c-1.407-1.408.358-4.632 3.392-6.195 1.042-.537 1.996-.498 1.362.055-.213.187-1.037.722-1.83 1.19-1.643.967-2.991 3.041-2.492 3.833.542.86 1.062.976 2.928.657 2.906-.496 6.613-2.498 9.473-5.115 2.83-2.591 3.688-3.154 4.81-3.155 1.19-.003 1.672.595 1.67 2.068-.006 2.343-2.402 5.339-4.27 5.339-.923 0-1.05-.443-.456-1.59.37-.714.786-1.035 1.81-1.399.937-.333 1.444-.698 1.726-1.242.527-1.02.503-1.78-.065-2.078-.694-.364-1.296-.023-3.865 2.189-1.29 1.11-2.87 2.38-3.512 2.82-3.76 2.588-9.344 3.96-10.68 2.623zm3.241-3.233c-.652-.315-.86-1.423-.22-1.178.206.08.445-.04.532-.264.092-.241.326-.342.575-.246.279.107.466-.017.558-.37.077-.294.36-.53.637-.53.274 0 .498-.179.498-.397 0-.22.235-.397.53-.397.293 0 .528-.176.528-.397 0-.238.245-.396.615-.396 1.039 0 3.075-.816 3.48-1.395.308-.439.648-.542 1.704-.518.725.016 1.636.196 2.024.4l.705.369-1.182.968c-.737.604-1.462.97-1.924.97-.408 0-1.14.304-1.628.676-.488.372-1.57.854-2.406 1.071-.836.217-2.143.746-2.905 1.176-.762.43-1.416.772-1.455.763-.039-.01-.338-.148-.666-.305zm1.786-3.655c-.343-.23-.327-.319.117-.658.604-.46.683-.468 1.206-.118.344.23.328.318-.116.657-.604.46-.684.469-1.207.119zm1.953-1.7c-.189-.49-.797-.539-.984-.077-.073.182-.142.075-.154-.237-.023-.613-.694-1.032-.962-.599-.245.396-.91-.25-.91-.883 0-.412-.08-.464-.356-.234-.421.35-.703.133-.703-.539 0-.267-.12-.485-.265-.485a.272.272 0 0 0-.264.277c0 .153-.428-.137-.95-.644-.711-.691-.906-1.059-.776-1.468.224-.706.458-.688 1.4.105.626.527.96.621 1.74.495.851-.138.967-.092.967.39 0 .398.196.568.727.63.608.069.742.226.811.948.106 1.095 1.055 1.785 2.096 1.524 1.066-.268 1.379-.62 1.56-1.757.216-1.347.59-1.635 1.646-1.268 1.125.392 1.052.921-.332 2.422-.979 1.06-1.31 1.257-2.131 1.257-.535 0-1.204.124-1.488.276-.4.213-.551.183-.672-.133zm7.837-1.07c-.51-.196-1.313-.365-1.786-.376-.833-.02-1.129-.352-.603-.677.141-.087.336-.754.432-1.48.178-1.339.606-1.832 1.591-1.832.746 0 2.747 1.072 2.747 1.471 0 .378-1.23 3.307-1.374 3.271-.045-.01-.498-.18-1.007-.376zm1.852.029c0-.098.306-.783.68-1.521l.681-1.343-.548-.584c-.302-.32-.548-.817-.548-1.104 0-.286-.426-1.201-.947-2.033l-.946-1.513-1.369.159-1.369.159-.296-.97c-.283-.925-.245-1.041.836-2.509.623-.846 1.41-1.732 1.748-1.97.58-.405.64-.399 1.022.106.52.69 1.817.48 2.671-.429.422-.449.882-.632 1.59-.632.549 0 1.066.112 1.15.249.13.208-.2 1.957-1.052 5.572-.113.478-.003.385.394-.33.302-.546.695-.994.873-.996.179-.003.593-.076.92-.164.81-.217.79.505-.066 2.442-.364.822-.661 1.55-.661 1.616 0 .066.372.038.828-.062l.829-.182-.186 1.02c-.193 1.063-.94 2.309-2.359 3.936-.726.832-1.026.974-2.354 1.108-.836.084-1.52.073-1.52-.025zm5.524-4.56c.405-.89.307-.97-.473-.381-.352.265-.547.607-.443.775.294.476.574.356.916-.395zm-.207-3.49c.16-.483.238-.931.173-.997-.264-.264-1.521 1.956-1.52 2.683l.003.78.526-.794c.29-.437.658-1.19.818-1.672zm-6.436-.838c.207-.003.288-.23.212-.6-.068-.327-.198-1.28-.289-2.116-.09-.837-.259-1.521-.373-1.521-.115 0-.45.655-.744 1.455-.427 1.158-.462 1.455-.17 1.455.421 0 .496.682.102.926-.508.314-.268.724.33.564.328-.088.747-.161.932-.163zm3.756-.251c.15-.282.273-.836.273-1.232 0-.717-.002-.718-.574-.216-.636.558-.535.322.574-1.348 1.197-1.799 1.204-1.835.278-1.295-.578.337-1.154 1.084-1.76 2.28-.494.98-.899 1.902-.899 2.051 0 .15.413.272.917.272.636 0 1-.157 1.19-.512zm-12.109 8.66c-.175-.174-.318-.626-.318-1.005 0-1.395 1.506-1.833 2.274-.661.401.613.401.71 0 1.323-.465.709-1.423.877-1.956.344zm1.21-1.054c-.164-.49-.734-.572-.734-.105 0 .23.189.419.42.419.23 0 .37-.141.313-.314zm-2.652-1.217c-.605-.076-.728-.22-.728-.859 0-.482-.307-1.117-.829-1.71-.456-.52-.783-.988-.727-1.042.056-.053.756.006 1.556.133 1.17.184 1.624.411 2.315 1.16.94 1.016 1.112 1.732.418 1.732-.243 0-.63.153-.86.34-.23.186-.745.297-1.145.246zm3.307-.38c-.327-.157-.595-.51-.595-.782 0-.273-.52-1.017-1.157-1.653l-1.158-1.158.79-.158c.435-.086 1.182-.585 1.661-1.107l.87-.95.19.862c.103.474.532 1.335.952 1.914.951 1.314.955 1.75.02 2.644-.831.797-.761.78-1.573.388zm2.315-.455c0-.137.12-.322.265-.412.437-.27.3-1.191-.302-2.037-.67-.94-.491-1.131 1.306-1.4.649-.098 1.328-.234 1.508-.303.377-.145 2.25 2.336 2.25 2.98 0 .43-.372.421-2.01-.048-.398-.114-.783.07-1.368.655-.785.785-1.649 1.08-1.649.565zm-8.98-.516c-.163-.303-.598-.627-.969-.72-.888-.223-.505-.531.877-.704.92-.115 1.233-.03 1.786.483.783.726.863 1.176.209 1.18-.255.004-.72.073-1.036.158-.41.11-.657-.003-.867-.397zm8.187-4.392c0-1.35.283-1.378.947-.093.464.898.47.882-.352 1.134-.558.172-.595.106-.595-1.04z" id="1680145626129-4337236_path5412" fill="#212121" stroke-width=".265"></path></g></g></svg>