<svg width="83" height="93" xmlns="http://www.w3.org/2000/svg" viewBox="0 0 22.047 24.862"><title>ryza3 race fenrir</title><g fill="#212121" class="nc-icon-wrapper"><g id="1680145626130-2935791_layer1" transform="translate(-168.145 -95.226)"><path d="M176.653 119.574c-.24-.266-.546-1.067-.68-1.78-.165-.888-.478-1.512-.992-1.98-.431-.391-.773-.995-.804-1.418-.05-.709-.03-.72.53-.325.32.226.969.649 1.442.94l.86.53v-.643c0-.616-1.406-2.514-1.861-2.514-.12 0-.119.35.005.779.214.747.197.768-.433.529-1.01-.384-1.201-.31-.857.333.246.46.239.607-.035.698-.223.075-.025.379.555.853 1.051.857.95 1.167-.246.75-.463-.16-1.137-.219-1.498-.128-.755.19-.915-.36-.263-.901.217-.18.328-.434.247-.565-.249-.402-2.171-1.289-2.813-1.298l-.606-.01.609-.507.61-.508-1.14-.606-1.138-.607.86-.084c.473-.047.86-.134.86-.194s-.237-.499-.528-.975c-.29-.477-.529-.951-.53-1.055 0-.103 1.381.46 3.07 1.254 2.072.974 3.018 1.307 2.91 1.024-.392-1.02-.466-1.693-.188-1.693.586 0 .268-1.156-.917-3.33-1.774-3.254-1.438-3.513 1.032-.798 1.139 1.252 2.226 2.276 2.415 2.276.19 0 .49-.348.666-.774.176-.426.548-.98.826-1.232.486-.44.505-.427.505.37 0 .593.103.787.364.686.231-.088.426.108.534.538.094.372.359.677.59.677.23 0 1.778-1.03 3.438-2.29 1.66-1.259 3.074-2.233 3.144-2.164.069.07-1.064 1.397-2.517 2.95-1.454 1.553-2.643 2.936-2.643 3.072 0 .136.25.285.556.332l.555.084-.585.742c-.323.408-.543.78-.49.829.229.208 5.44-1.238 6.648-1.845.73-.367 1.375-.619 1.433-.56.058.058-.31.65-.817 1.315l-.923 1.209.918.081c1.302.115 1.116.534-.48 1.077-1.67.567-2.18.989-1.194.989.423 0 .862.232 1.111.588.583.833.513 1.025-.267.728-.818-.311-3.554-.345-3.554-.044 0 .118.174.445.388.728.214.282.392.725.397.984.008.428-.063.418-.768-.102-.766-.567-1.794-.591-3.368-.08-.267.087.02-.18.637-.594s1.123-.842 1.124-.951c.001-.11-.385-.187-.858-.172-.798.024-.813.04-.198.216l.661.19-.839.441c-.946.497-1.82 1.6-2.076 2.622-.412 1.643-2.399 2.411-3.393 1.313zm1.894-.377c.065-.344-.087-.463-.593-.463-.512 0-.68.136-.68.548 0 .416.142.527.592.463.326-.047.632-.293.68-.548zm2.283-4.688c1.413-.808 2.169-1.026 1.867-.537-.263.425.035.304.43-.175.332-.401.265-.427-.76-.29-1.155.154-1.363.015-.808-.54.235-.235.237-.318.012-.318-.614 0-2.446 2.018-2.425 2.67.012.35.08.492.152.315.072-.178.761-.684 1.532-1.125zm-3.54-1.829c-.155-.29-.281-.772-.281-1.072 0-.3-.118-.547-.262-.547-.144 0-.337-.474-.43-1.053-.092-.579-.327-1.263-.52-1.52-.304-.403-.331-.264-.198.986.085.8.259 1.568.385 1.706.127.139.23.53.23.869 0 .339.175.683.388.765.212.081.474.405.58.72.159.469.21.49.291.12.054-.246-.028-.685-.183-.974zm2.894-.679c0-.156.238-.432.529-.614.322-.201.529-.617.529-1.063 0-.403.19-1.005.424-1.338.233-.332.367-.662.297-.731-.216-.217-1.515 1.498-1.515 2 0 .262-.178.625-.397.806-.218.181-.397.445-.397.586 0 .141-.238.56-.529.93-.804 1.022-.632 1.327.265.469.436-.419.794-.888.794-1.045zm-1.815.582c.073-.647.137-1.4.182-2.14.028-.472.167-.705.376-.631.182.064.301.379.265.698-.038.333.047.512.198.419.146-.09.264-.32.264-.512s.179-.497.397-.679c.552-.458.496-.77-.11-.611-.345.09-.651-.09-.961-.562l-.455-.695-.392.56c-.247.352-.578.512-.89.43-.52-.136-.715.45-.246.739.14.086.19.319.114.518s-.011.44.144.536c.166.102.283-.05.283-.37 0-.3.103-.545.228-.545.126 0 .229.477.229 1.059s-.092 1.058-.204 1.058c-.112 0-.141.238-.065.53.153.584.584.717.643.198zm-7.12-3.374c-.476-.29-.967-.796-1.09-1.124-.124-.327-.468-1.22-.766-1.985-.561-1.44-.42-1.755.395-.881.46.493.475.47.513-.767.042-1.395 1.164-4.193 1.975-4.927.48-.434.5-.419.5.37 0 .896.485 2.17.827 2.17.118 0 .144-.183.058-.406-.37-.966.7-2.708 2.616-4.256 1.154-.932 1.806-1.323 1.683-1.01-.36.913-.487 2.162-.235 2.317.135.083.671-.666 1.192-1.666l.947-1.818 1.02 1.292c.56.711 1.12 1.298 1.24 1.303.123.006.357-.346.522-.783.165-.436.373-.793.463-.793.267 0 1.572 2.741 1.577 3.31.002.29.109.692.238.896.178.28.365.122.778-.662l.544-1.03.011.859c.014 1.007.102 1.036.998.33.606-.475 1.395-.71 1.395-.413 0 .063-.126.448-.281.855-.218.572-.179 1.066.17 2.177.413 1.312.483 1.394.81.946.602-.822.462 2.226-.18 3.942-.617 1.65-.843 1.886-2.063 2.147l-.883.189.445-.68c.359-.547 1.161-4.748 1.183-6.192.007-.49-.95.055-4.042 2.295-1.426 1.033-2.752 1.879-2.948 1.879-.195 0-.43-.294-.52-.653-.109-.437-.293-.602-.557-.5-.287.11-.394-.037-.394-.539 0-.951-.307-.868-1.447.394l-.979 1.084-2.216-2.164c-1.22-1.19-2.34-2.088-2.492-1.994-.344.212-.366 4.982-.028 6.16.287 1.001.182 1.036-.98.328z" id="1680145626130-2935791_path5289" fill="#212121" stroke-width=".265"></path></g></g></svg>