<svg width="69" height="91" xmlns="http://www.w3.org/2000/svg" viewBox="0 0 18.456 24.133"><title>ryza3 category key items</title><g fill="#212121" class="nc-icon-wrapper"><g id="1680145626129-2969507_layer1" transform="translate(-152.78 -76.899)"><path d="M159.405 95.857c-4.692-6.909-4.356-6.296-3.906-7.137l.375-.7.452.559c.53.655.5.697 1.292-1.765l.616-1.916 1.673-.782c.92-.43 1.672-.846 1.672-.922 0-.077-.356-.324-.79-.549l-.792-.41.99-1.589c.544-.874 1.235-1.9 1.535-2.279l.546-.689 3.93 5.849 3.931 5.849-1.542 2.317c-1.67 2.51-1.499 2.484-2.328.344l-.359-.925-.642 1.693c-.535 1.41-.83 1.807-1.767 2.378-.618.378-1.124.774-1.124.881 0 .107.476.438 1.058.735.582.297 1.058.663 1.058.814 0 .292-2.058 3.42-2.25 3.42-.063 0-1.696-2.33-3.628-5.176zm3.762-3.688V89.39h3.175c1.746 0 3.175-.062 3.175-.138 0-.076-1.459-2.308-3.241-4.96l-3.241-4.824-.072 4.952-.072 4.952-2.971.075-2.97.075 2.116.59c2.483.692 2.907 1.105 3.354 3.269.178.86.419 1.565.535 1.565.117 0 .212-1.25.212-2.778zm3.166 5.99c-.27-.874-.568-1.253-1.232-1.57-1.075-.512-1.097-.72-.11-1.063.556-.195.854-.544 1.09-1.283.478-1.496.66-1.55 1.067-.317.232.704.636 1.264 1.101 1.53.924.524.922.674-.013 1.061-.56.232-.853.628-1.15 1.554l-.396 1.242zm1.368-1.768c.599-.19.638-.538.085-.75-.224-.086-.573-.546-.774-1.02-.377-.89-.367-.896-.804.483-.073.232-.37.484-.661.56-.68.178-.676.505.007.684.302.079.67.525.846 1.023l.312.883.248-.853c.137-.47.47-.924.741-1.01zm-11.57-10.247c-.496-1.572-.586-1.68-1.935-2.326l-1.415-.679 1.326-.55c1.275-.53 1.348-.619 1.907-2.3.32-.96.62-1.746.669-1.746.048 0 .4.819.783 1.82.655 1.713.767 1.848 1.908 2.284l1.213.463-1.416.693c-1.343.657-1.44.773-1.866 2.238-.246.85-.495 1.592-.551 1.649-.057.056-.337-.639-.623-1.546zm1.068-1.136c.145-.772.36-1.026 1.155-1.36l.976-.411-.843-.403c-.584-.28-1-.777-1.356-1.62l-.513-1.216-.322 1.23c-.276 1.053-.462 1.285-1.29 1.606l-.967.375.972.359c.83.306 1.015.529 1.264 1.514.333 1.324.667 1.297.924-.074zm11.249-2.995c-.288-.93-.545-1.238-1.299-1.556l-.94-.395.856-.409c.61-.291.984-.745 1.304-1.581l.447-1.173.45 1.153c.266.677.764 1.342 1.211 1.613l.76.46-.828.313c-.65.246-.911.573-1.215 1.524l-.388 1.21zm1.434-1.702c.36-.138.325-.26-.236-.82-.362-.363-.658-.85-.658-1.084 0-.234-.12-.351-.265-.261-.145.09-.265.39-.265.668 0 .282-.322.676-.727.89l-.728.384.728.279c.432.166.727.479.727.77 0 .841.347.89.681.096.175-.418.51-.832.743-.922z" id="1680145626129-2969507_path3405" fill="#212121" stroke-width=".265"></path></g></g></svg>