<svg width="78" height="69" xmlns="http://www.w3.org/2000/svg" viewBox="0 0 20.733 18.488"><title>ryza3 secret keys</title><g fill="#212121" class="nc-icon-wrapper"><g id="1680145626133-9250842_layer1" transform="translate(-144.399 -79.145)"><path d="M157.924 94.127c-1.937-1.926-3.604-3.624-3.704-3.772-.317-.47-2.86-.457-3.782.019-.804.416-.903.409-2.097-.15-.86-.403-1.595-.555-2.344-.483-.676.064-1.054 0-.992-.168.056-.15-.062-.673-.262-1.164-.513-1.263-.45-2.795.167-4.003.29-.57.529-1.559.529-2.197 0-1.478.602-2.079 2.02-2.015.577.026 1.541-.196 2.213-.51 1.421-.665 2.332-.707 3.623-.168.528.22 1.15.341 1.38.267.352-.111.407.073.336 1.12-.057.84.09 1.643.444 2.43.461 1.027.483 1.262.173 1.863-.196.378-.388 1.377-.427 2.22-.07 1.495-.05 1.542.796 1.951.476.231.962.673 1.08.982.351.924.987 1.328 1.466.931.36-.299.354-.39-.051-.837-.434-.48-.413-.544.466-1.422l.92-.92.885.913c.569.587.827 1.066.722 1.34-.127.332-.276.365-.679.15-1.581-.847-1.42.391.256 1.958 1.082 1.012 1.407 1.19 1.714.935.289-.24.311-.441.095-.845-.203-.38-.2-.612.01-.823.215-.215.556-.032 1.272.685l.979.978-.9.928c-.831.858-.934.896-1.363.508-.46-.416-1.026-.312-1.026.188 0 .143.257.607.571 1.032.473.64.513.841.232 1.18-.186.224-.532.406-.769.405-.237-.003-2.016-1.579-3.953-3.506zm-7.477-5.923c.083-.091-.005-.222-.197-.29-.192-.068-.653-.385-1.024-.705-.532-.457-.673-.818-.66-1.691.016-1.208-.527-1.75-1.593-1.591-1.506.224-1.964 2.61-.6 3.128.36.137.654.37.654.52 0 .722 2.854 1.248 3.42.629zm3.04-5.17c-.259-.572-.69-1.159-.96-1.303-.268-.144-.427-.361-.351-.483.22-.355-.592-.876-1.365-.876-.44 0-.94.264-1.309.693-.51.593-.556.81-.32 1.488.25.718.388.795 1.419.795.95 0 1.256.137 1.826.814.377.448.69.954.696 1.125.006.17.195-.032.422-.45.377-.696.372-.848-.058-1.802zm-5.456-.9c.102-.71-.561-1.26-1.256-1.039-.534.17-.757 1.156-.354 1.56.401.4 1.531.035 1.61-.52z" id="1680145626133-9250842_path1757" fill="#212121" stroke-width=".265"></path></g></g></svg>