<svg width="92" height="95" xmlns="http://www.w3.org/2000/svg" viewBox="0 0 24.463 25.211"><title>ryza3 race elder treant</title><g fill="#212121" class="nc-icon-wrapper"><g id="1680145626130-5403304_layer1" transform="translate(-122.173 -118.574)"><path d="M132.209 142.865c0-.705-.171-1.345-.438-1.64-.409-.452-.407-.484.026-.484.826 0 1.944-1.505 2.265-3.048.164-.793.4-1.503.523-1.58.433-.267.619-2.3.232-2.545-.616-.39-1.021-.26-1.334.426-.166.364-.417.661-.559.661-.141 0-.717.447-1.28.993-.769.746-1.023 1.203-1.023 1.842 0 .58-.169.941-.53 1.134-.352.19-.528.554-.528 1.097 0 .784-.034.808-.906.644-.76-.142-.933-.083-1.076.368-.094.295-.09.79.007 1.098.176.556.172.557-.636.08-.784-.464-1.358-1.527-1.358-2.515 0-.517 1.299-1.566 1.94-1.566 1.088 0 1.626-1.687.801-2.512-.524-.524-.67-3.325-.182-3.495.17-.06.363.166.427.502.103.542.12.53.152-.117.03-.6.158-.728.733-.728.665 0 .69.05.546 1.117l-.15 1.116.874-1.04c.838-.999.88-1.016 1.061-.447.207.653-.693 2.44-1.677 3.33-.306.278-.557.636-.557.798 0 .161-.24.743-.535 1.292l-.535.998.668-.437c.375-.247.667-.69.667-1.015 0-.328.466-1.028 1.08-1.623.594-.575 1.252-1.373 1.462-1.773.446-.851 2.005-1.58 3.142-1.468.78.077.797.109.763 1.452-.023.905-.234 1.696-.617 2.316-.472.764-.506.94-.179.94 1.139 0 .665 1.232-1.07 2.779-.968.864-1.23 1.299-1.43 2.37-.333 1.784-.77 2.17-.77.68zm7.143-1.575c0-.28.277-.845.616-1.257 1.186-1.442 2.56-3.717 2.543-4.214-.015-.447-.043-.44-.247.067-.274.679-2.105 3.267-2.312 3.267-.301 0 .165-3.234.527-3.657.21-.244.458-.682.553-.973l.174-.53-.427.53c-.234.291-.634.98-.888 1.53-.397.86-.508.943-.795.597-.183-.221-.272-.73-.196-1.132.076-.402.212-1.207.302-1.789.157-1.014.146-1.003-.286.265-.248.728-.467 1.35-.487 1.384-.02.034-.422-.083-.893-.26-.816-.309-.847-.372-.684-1.385.271-1.693 1.799-2.607 3.31-1.981 1.414.585 2.925 1.853 3.311 2.777.76 1.82-.43 4.434-3.003 6.599-.956.805-1.118.828-1.118.162zm-12.964-4.518c0-1.009-.735-1.745-2.115-2.116-.708-.19-1.161-.494-1.307-.874-.452-1.183-.811-3.848-.792-5.89l.02-2.1.619 1.77c1.007 2.88 2.5 5.443 4.142 7.11 1.537 1.562 1.79 2.365.743 2.365-.267 0-.559.119-.649.264-.322.522-.661.25-.661-.529zm17.887-1.604c-.088-.55-.46-1.357-.826-1.793-.764-.907-2.77-2.156-3.482-2.167-.384-.006-.306-.168.382-.794.598-.544 1.137-.786 1.753-.786 1.027 0 1.825.68 1.117.952-.687.263-.49.662.236.48.416-.105.91-.006 1.323.265.797.522.838.857.13 1.081-.788.25-.64.586.205.463.501-.074.889.063 1.224.434.482.533.471.56-.706 1.704l-1.196 1.162zm-11.14-3.668c.776-.81 1.058-1.327 1.058-1.938 0-.65.196-.965.899-1.441 1.1-.745 1.937-.817 1.696-.146-.133.369-.033.342.488-.133.642-.583 2.169-.823 2.44-.384.17.275-1.526 2.367-2.877 3.549-.667.583-1.45.987-2.117 1.091-.582.091-1.415.242-1.852.336l-.794.171zm4.56-.519c1.308-1.033 2.51-2.654 3.92-5.281.778-1.448 2.537-3.214 4.105-4.121l.88-.509-.675 1.17c-.37.644-1.24 2.219-1.933 3.5-1.148 2.124-1.445 2.463-3.366 3.837-2.903 2.075-3.468 2.43-3.877 2.431-.195 0 .23-.461.946-1.027zm-7.04.317c-.252-.273-.632-.343-1.242-.229-.836.157-.892.118-1.152-.823-.223-.808-.194-1.074.159-1.464.598-.662.76-.604 1.077.383l.276.86.027-.992c.026-.953.064-.992.956-.992h.93l-.18 1.124-.18 1.125.69-.794c.648-.747.715-.768 1.144-.345.431.424.417.5-.265 1.394-.397.52-.838.873-.98.785-.142-.088-.402-.042-.578.101-.217.178-.435.135-.682-.133zm2.018-3.191l-.692-.728.858-3.307c.538-2.072 1.139-3.73 1.608-4.437.412-.622.78-1.098.82-1.058.038.039-.23.964-.598 2.055a15.869 15.869 0 0 0-.764 4.101l-.098 2.117.365-1.571c.331-1.429.907-2.265 1.56-2.265.14 0 .167.37.061.86a31.356 31.356 0 0 0-.332 1.918l-.146 1.058.894-.812c1.098-.998 2.348-1.79 2.532-1.607.076.076-.045.502-.267.947-.54 1.084-.11 1.03.746-.092.661-.867 1.397-1.36 1.651-1.106.066.066-.21.708-.615 1.427l-.734 1.307-1.862.156c-1.496.125-2.086.314-3.003.96-.627.443-1.175.805-1.216.805-.041 0-.387-.328-.768-.728zm-2.846-.508c0-.097.13-.92.288-1.827.204-1.175.478-1.83.949-2.27l.662-.62-.19 2.248c-.104 1.237-.24 2.339-.303 2.448-.141.245-1.406.265-1.406.021z" id="1680145626130-5403304_path5535" fill="#212121" stroke-width=".265"></path></g></g></svg>