<svg width="96" height="95" xmlns="http://www.w3.org/2000/svg" viewBox="0 0 25.506 25.212"><title>ryza3 race code of the universe</title><g fill="#212121" class="nc-icon-wrapper"><g id="1680145626129-5497445_layer1" transform="translate(-96.209 -141.608)"><path d="M105.537 166.223c-.544-.748-.647-2.642-.132-2.429.182.076.767.28 1.301.455 1.295.423 1.511 1.226.542 2.02-.91.745-1.14.74-1.711-.046zm5.028.166c-.863-.52-1.055-1.893-.265-1.896.254 0 .808-.181 1.23-.401.892-.465.84-.492 1.064.553.13.608.034.988-.385 1.521-.639.812-.664.815-1.644.223zm-6.484-.223c-.182-.318-.33-.748-.33-.957 0-.208-.47-.69-1.044-1.07-1.159-.767-2.256-2.448-2.82-4.32-.203-.677-.846-2.114-1.428-3.193-1.226-2.273-1.438-3.253-.259-1.197.982 1.712 1.845 2.348 2.623 1.932.485-.26.55-.552.57-2.599.03-3.115.436-1.838.74 2.33.238 3.27.753 4.771 1.96 5.72.578.454.615.625.472 2.212-.139 1.542-.189 1.66-.484 1.142zm9.012-1.227c-.037-1.468.036-1.715.719-2.428 1.209-1.263 1.607-2.585 1.862-6.18.129-1.818.35-3.42.49-3.562.166-.165.203.266.105 1.211-.185 1.797.064 3.27.588 3.47.788.303 1.701-.355 2.529-1.821.458-.812.892-1.418.963-1.347.071.071-.42 1.137-1.09 2.368-.671 1.23-1.222 2.398-1.223 2.594-.001.196-.306 1.011-.678 1.811-.737 1.59-2.023 3.094-2.957 3.46-.388.15-.596.453-.596.867 0 .35-.15.761-.335.914-.264.22-.344-.07-.377-1.357zm-13.31-.972c-.304-.567-1.779-1.4-3-1.694-.607-.146-.692-.252-.444-.551.169-.204.626-.407 1.015-.452.56-.065.695-.209.645-.682-.056-.528.022-.58.661-.427.971.233 1.16.356.98.646-.083.134.263.949.768 1.81.505.863.85 1.638.764 1.723-.337.337-1.122.126-1.39-.373zm16.852.36c-.093-.094.23-.897.72-1.787.488-.89.832-1.766.763-1.948-.073-.195.093-.33.406-.33.291 0 .719-.073.95-.162.32-.122.404-.013.353.452-.049.433.088.646.46.723.292.06.756.267 1.032.46.46.322.397.378-.747.666-.748.188-1.63.672-2.193 1.204-.92.867-1.4 1.066-1.744.721zm-10.37-1.064c-.893-.469-2.514-1.93-2.514-2.266 0-.121.368-.03.818.203.45.233.853.385.894.338.041-.047.326-.584.633-1.192.719-1.426 1.026-1.594 1.692-.927.525.525.528.569.08 1.252-.352.537-.422.99-.29 1.87.196 1.309.004 1.414-1.313.722zm3.891-.172c.122-.64.057-.691-.954-.766-.895-.065-1.1-.183-1.17-.675-.121-.855.515-.978 1.637-.316 1.762 1.04 3.607-.006 3.607-2.044 0-1.11-.654-2.203-1.316-2.203-.353 0-1.021-1.376-.872-1.795.222-.62-.484-1.152-1.294-.974-.64.14-.751.082-.751-.392 0-.738-1.136-1.194-1.855-.745-.36.225-.596.237-.793.04-.881-.88 1.296-1.772 3.508-1.436 1.535.233 3.53 1.414 4.033 2.388.517 1.001.506 2.113-.03 2.877-.325.466-.353.683-.117.919.236.235.436.15.842-.353l.534-.662-.17 1.323c-.337 2.653-2.014 4.759-4.23 5.315-.688.173-.731.137-.61-.5zm3.385-7.327c.393-.736-.1-1.588-.918-1.588-.757 0-1.096.792-.675 1.578.369.689 1.226.694 1.593.01zm-3.267 4.808c-.574-.635-.555-1.445.046-1.99.713-.644 1.809-.554 2.296.189.99 1.51-1.13 3.14-2.342 1.8zm-6.081-.261c-.335-.37-.363-.552-.12-.794.423-.424.869-.395 1.266.083.262.317.262.477 0 .794-.427.514-.619.5-1.146-.083zm-1.283-1.921c-.056-.593-.007-1.138.111-1.21.278-.172 1.79.16 1.78.39-.008.2-1.512 1.898-1.68 1.898-.06 0-.154-.485-.21-1.078zm4.545-.004c-1.037-.848-2.694-1.552-3.669-1.558-.793-.005-.873-.071-.73-.602.087-.327.16-.699.162-.826.002-.127.184-.08.404.102.264.219.806.277 1.588.17.923-.127 1.187-.08 1.187.21 0 .604 1.396 1.465 1.909 1.178.647-.362.788.107.316 1.052-.226.455-.433.824-.459.82-.025-.002-.344-.249-.708-.546zm1.718-1.567c-.09-.147-.503-.242-.915-.21-.812.061-1.597-.43-1.597-1.002 0-.26-.371-.34-1.379-.298-1.804.075-1.975-.484-.57-1.867.768-.757 1.021-.887 1.09-.56.129.608 1.15 1.024 1.683.686.543-.343 1.328-.056 1.146.418-.18.47 1.032 1.051 1.408.676.33-.33.473-.096.695 1.135.152.846.101.979-.429 1.121-.82.22-.941.21-1.132-.1zm-9.64-.512c-.622-.622-.928-2.07-.718-3.4.085-.54-.007-1.754-.205-2.7-.197-.946-.33-1.752-.294-1.79.036-.04.382.386.77.946.466.673.83 1.726 1.076 3.114.204 1.152.505 2.444.668 2.869.538 1.4-.264 1.995-1.298.961zm17.55.135c-.09-.232-.081-.748.018-1.146.1-.398.36-1.676.578-2.84.27-1.442.65-2.496 1.194-3.307.718-1.071.78-1.11.61-.397-.104.437-.27 2.073-.368 3.637-.14 2.245-.29 2.994-.71 3.556-.657.88-1.11 1.05-1.322.497zm-13.861-5.684c0-1.087-.249-1.61-.767-1.61-.298 0-.541-.353-.73-1.058-.155-.582-.209-1.054-.12-1.048.34.02 1.543 1.204 1.719 1.692.177.495.202.493.768-.075.387-.387.487-.65.295-.776-.383-.25-.718-1.645-.396-1.645.138 0 .475.286.75.634.377.48.606.574.945.384.547-.307.584-1.367.062-1.8-.393-.327-.818-2.359-.618-2.957.061-.184.5.231.976.924.513.744.8 1.429.704 1.678-.089.231.039.641.283.911.526.582 1.548.676 1.336.124-.077-.202.01-.946.196-1.654l.336-1.286.199 1.653c.157 1.303.295 1.654.65 1.654.665 0 1.085-.537 1.085-1.386 0-.429.407-1.344.947-2.13l.946-1.379-.181 1.72c-.1.946-.347 1.908-.55 2.138-.453.513-.477 1.352-.05 1.778.41.412.74.405.74-.016 0-.183.238-.482.53-.663.47-.295.528-.265.528.28 0 .336-.14.75-.311.922-.239.238-.2.435.168.84.526.581.932.495.945-.201.008-.427 1.236-1.54 1.457-1.32.272.272-.528 1.99-1.031 2.214-.435.193-.55.45-.5 1.109l.068.857h-1.621c-1.46 0-1.586-.043-1.268-.426.3-.361.278-.48-.15-.794-.598-.436-.843-.46-1.064-.103-.318.514-.662.254-.662-.501 0-1.348-1.747-1.423-1.901-.082-.074.642-.175.706-.98.625-.876-.088-.894-.07-.735.728l.164.817h-1.581c-1.57 0-1.581-.005-1.581-.772zm-6.284-3.904c-.587-.41-.754-1.216-.43-2.064.287-.746 1.422.553 1.422 1.627 0 .98-.13 1.038-.992.437zm23.217-.578c0-.799.144-1.13.631-1.449.613-.401.636-.39.794.4.24 1.2.23 1.227-.631 1.673l-.794.41z" id="1680145626129-5497445_path5607" fill="#212121" stroke-width=".265"></path></g></g></svg>