<svg width="98" height="85" xmlns="http://www.w3.org/2000/svg" viewBox="0 0 26.066 22.573"><title>ryza3 race raptor</title><g fill="#212121" class="nc-icon-wrapper"><g id="1680145626131-7147339_layer1" transform="translate(-157.116 -99.403)"><path d="M163.255 121.837c-.074-.194.003-1.055.173-1.912.298-1.51.344-1.572 1.428-1.947 1.614-.558 1.856-.176.97 1.53-.784 1.513-2.342 2.924-2.57 2.329zm1.936-.411c0-.136.231-.32.514-.41.738-.234 5.902-5.356 6.71-6.655.576-.925.887-1.144 2.011-1.414.731-.175 2.006-.792 2.833-1.372 1.683-1.179 2.088-1.052 1.805.564-.228 1.302-.742 2.189-1.816 3.131-1.277 1.122-2.651 1.367-3.365.6-.45-.481-.607-.52-.976-.239-.242.185-.484.364-.539.399-.054.034.24.038.652.009.513-.037.778.083.84.383.068.327-.672.814-2.917 1.918-1.909.939-3.307 1.818-3.828 2.406-.754.852-1.924 1.265-1.924.68zm.53-1.01c0-.11.239-.588.529-1.065.29-.476.528-1.045.528-1.263 0-.219.286-.506.636-.639.35-.133.714-.368.81-.523.095-.154.396-.28.668-.28.773 0 1.394-.783 1.24-1.565-.1-.511.091-.95.754-1.736l.887-1.052.287.754c.244.642.186.925-.39 1.907-.371.634-1.113 1.483-1.649 1.886-.535.402-1.647 1.416-2.47 2.253-1.445 1.466-1.832 1.746-1.83 1.323zm13.192-2.193c-.822-.924-1.58-.985-3.602-.287-.764.264-1.389.38-1.389.258 0-.312 2.119-1.813 2.56-1.813.679 0 2.598-2.21 2.954-3.4.335-1.123.216-3.076-.203-3.335-.11-.068-.6.288-1.088.792-.488.504-.97.916-1.07.916-.1 0-.12-.774-.044-1.72s.038-1.72-.085-1.72-.658.424-1.189.943l-.965.942-.164-1.193c-.121-.888-.03-1.486.353-2.332.284-.626.52-1.484.523-1.907.006-.762-.01-.755-1.648.809-1.441 1.375-4.167 3.468-4.167 3.198 0-.204 2.565-6.024 2.726-6.185.202-.202.345.19.58 1.599l.172 1.032.653-.652c.359-.36 1.168-1.642 1.797-2.85.697-1.34 1.22-2.076 1.338-1.885.107.172.26 1.265.34 2.428.136 2 .113 2.122-.424 2.262-.723.19-.773 1.407-.084 2.03.266.241.542.438.614.438.071 0 1.134-.66 2.36-1.469 1.606-1.058 2.253-1.361 2.311-1.084.208.99-1.802 4.034-2.49 3.77-.42-.162-1.232.573-1.017.921.242.391 1.333.283 2.813-.28.757-.287 1.425-.473 1.484-.414.06.06-.026.516-.19 1.013-.339 1.026-1.22 1.943-2.003 2.084-.308.055-.565.343-.614.688-.08.558.01.592 1.521.592.884 0 1.606.071 1.606.158 0 .856-2.534 2.88-3.257 2.603-.259-.1-.573.096-.86.534-.599.914-.42 1.022.912.552.898-.316 1.137-.326 1.243-.048.244.634-.899 2.842-1.452 2.806-.087-.006-.471-.363-.855-.794zm-20.866-.289c-1.042-.483-1.125-.579-.662-.77a3.64 3.64 0 0 1 1.038-.235c.28-.01 1.861-.63 3.515-1.378 2.63-1.188 3.112-1.327 3.857-1.107.715.21.842.368.798.985-.079 1.093-.427 1.366-2.888 2.256-2.625.95-4.015 1.01-5.658.25zm8.623-.72c-.077-.124.095-.867.381-1.65.287-.784.521-1.795.521-2.247 0-.893.428-1.382 1.836-2.096.5-.254 1.124-.715 1.385-1.024l.474-.563.162.573c.089.315.453.646.81.736.718.18 1.247 1.182.845 1.602-.167.174-.342.106-.515-.199-.38-.674-1.197-.567-1.744.23-.261.38-1.057 1.243-1.769 1.918-.711.674-1.457 1.612-1.657 2.085-.381.902-.5 1.006-.729.635zm2.087-1.37c-.102-.167-.062-.427.09-.58.356-.355 1.185-.045 1.04.39-.147.442-.896.568-1.13.19zm-3.838-2.544c-.36-.24-.806-.624-.992-.854-.281-.349-.26-.45.132-.605.259-.102.844-.194 1.302-.204 1.07-.024 1.316-.644.475-1.195-1.001-.656-.852-1.268.258-1.06 1.587.298 3.506-.486 6.2-2.535 1.36-1.034 2.522-1.831 2.581-1.772.06.06-.19.67-.555 1.357-.506.951-.601 1.368-.399 1.745.422.788.312 1.526-.314 2.108-.635.592-.949.653-1.514.295-.306-.194-.246-.39.33-1.075.724-.86.92-1.59.427-1.59-.682 0-1.793.839-2.104 1.59-.227.548-.75 1.028-1.575 1.446-1.413.716-1.721 1.04-1.964 2.057-.138.575-.326.727-.904.727-.402 0-1.024-.196-1.384-.435zm10.449-1.961c-.118-.19-.558-.252-1.149-.162l-.959.146.641-.448c.352-.246 1.094-.91 1.648-1.477.877-.897 1.03-.968 1.189-.554.215.56-.431 2.56-.874 2.703-.168.055-.392-.039-.496-.208z" id="1680145626131-7147339_path5371" fill="#212121" stroke-width=".265"></path></g></g></svg>