<svg width="86" height="87" xmlns="http://www.w3.org/2000/svg" viewBox="0 0 22.754 23.213"><title>ryza3 race elemental</title><g fill="#212121" class="nc-icon-wrapper"><g id="1680145626130-4908972_layer1" transform="translate(-175.433 -98.005)"><path d="M182.573 120.73c-.727-.385-1.03-.797-1.432-1.944l-.51-1.455.604-.848c.332-.467.792-.812 1.021-.768.677.13 2.21 2.497 2.365 3.65.143 1.06-.21 1.854-.824 1.854-.166 0-.717-.22-1.224-.49zm6.53.312c-.457-.457-.149-2.523.536-3.6 1.298-2.036 1.877-2.23 2.697-.902.522.843.526.928.112 2.224-.343 1.072-.632 1.46-1.417 1.9-1.012.57-1.618.688-1.928.378zm-5.017-4.796c-1.156-1.174-1.22-1.307-.859-1.786.543-.718.506-.89-.253-1.179-.67-.255-.854-.644-.427-.907.384-.238 1.882.4 1.882.8 0 .445.134.46.82.093.464-.248.503-.21.358.366-.089.355.03 1.208.264 1.897.323.953.352 1.339.12 1.618-.443.534-.533.49-1.905-.902zm3.43 1.092c-.301-.301-.192-1.243.241-2.072.248-.474.354-1.1.263-1.554-.136-.684-.107-.724.289-.397.348.288.463.293.553.027.062-.185.474-.523.916-.752.704-.364.85-.367 1.19-.028.339.34.286.422-.43.672-.926.322-.98.452-.42 1.011.622.622.483 1.006-.788 2.177-1.187 1.095-1.485 1.245-1.814.916zm-9.64-3.031c-1.018-.294-2.443-2.097-2.443-3.091 0-.912 1.207-2.432 1.932-2.434.32 0 .985-.246 1.477-.546.82-.5.878-.505.696-.065-.43 1.04-.719 2.472-.573 2.85.11.289.523.39 1.495.369.738-.017 1.426.054 1.53.157.102.103-.2.506-.674.895-.473.389-.86.842-.858 1.007.002.312-1.146 1.173-1.51 1.131-.114-.013-.596-.136-1.072-.273zm15.774-.302c-.373-.345-.725-.741-.782-.88-.058-.137-.436-.507-.84-.82-.913-.705-.596-.954 1.162-.915l1.293.03v-1.268c0-.749-.168-1.478-.41-1.781-.394-.493-.402-.486-.208.148.111.363.207 1.078.212 1.587.009.838-.053.917-.652.833-.724-.103-1.115-.527-.862-.937.09-.144.135-.774.103-1.402-.06-1.16.138-1.39.706-.822.175.174.318.234.318.132 0-.103.444.052.988.344.543.29 1.253.53 1.578.53.61 0 1.931 1.61 1.931 2.353 0 .71-1.36 2.7-2.015 2.95-1.487.565-1.836.554-2.522-.082zm-8.229-1.547c-.254-.144-.463-.497-.463-.784 0-.315-.264-.623-.666-.776-.366-.14-.78-.553-.92-.92-.139-.366-.36-.666-.493-.666-.132 0-.298-.3-.368-.668-.11-.58-.054-.645.432-.497.81.246 1.444.871 1.544 1.524.048.312.219.542.38.512.547-.104 1.19.907 1.102 1.734-.072.679-.156.762-.548.541zm1.919-.268c0-.44-.077-.497-.355-.266-.456.377-.704.122-.704-.723 0-.368-.305-.988-.679-1.378-.651-.68-.663-.746-.288-1.642.443-1.06 1.116-1.381 2.109-1.004.987.375 1.256 1.934.478 2.763-.309.328-.552.828-.54 1.11.015.382.06.41.175.115.196-.506.926-1.05 1.19-.887.11.068.201-.1.201-.375 0-.536.89-1.464 1.671-1.74.4-.142.45-.071.296.423-.102.327-.288.634-.414.682-.127.049-.23.319-.23.6 0 .324-.34.673-.926.953-.645.308-.926.619-.926 1.026 0 .32-.188.656-.419.744-.61.234-.64.216-.64-.4zm-7.938-2.313c0-.66.211-1.291.595-1.78l.596-.758.171 1.582c.2 1.838.149 1.979-.716 1.979-.573 0-.646-.115-.646-1.023zm4.611-1.445c-.074-.193-.006-.69.152-1.104.254-.67.33-.709.683-.356.306.306.335.558.128 1.104-.289.759-.744.927-.963.356zm4.534-.336c-.102-.41-.036-.85.164-1.091.292-.352.377-.306.648.356.216.526.229.863.04 1.092-.414.503-.662.4-.851-.357zm-10.318-.819c-.092-.239-.044-.557.106-.708.15-.15.273-.605.273-1.01 0-.602.183-.814.989-1.15.544-.228 1.246-.656 1.561-.952.316-.296 1.061-.603 1.658-.683.925-.124 1.084-.238 1.084-.776 0-.347-.141-.857-.314-1.133-.246-.394-.236-.743.046-1.598.199-.601.46-1.154.58-1.229.644-.398.982 2.908.476 4.66-.324 1.121-2.202 2.381-3.55 2.381-1.013 0-1.596.555-1.394 1.327.104.396-.054.636-.604.92-.667.346-.762.34-.911-.049zm15.912-.109c-.3-.174-.418-.454-.322-.758.214-.672-.536-1.33-1.514-1.33-.643 0-3.378-1.386-3.378-1.712 0-.038-.123-.71-.273-1.494-.31-1.619.085-3.994.63-3.785.51.196 1.017 2.167.706 2.749-.148.276-.27.794-.27 1.15 0 .567.153.673 1.191.828.655.098 1.191.289 1.191.423s.595.545 1.323.914c1.134.575 1.323.781 1.323 1.447 0 .444.185.88.434 1.019.46.257.282.847-.251.833-.174-.004-.529-.132-.79-.284zm-9.035-.424c-.172-.45.447-1.04 1.349-1.289.473-.13 1.173.147 2.18.86.056.041-.042.249-.22.463-.25.301-.46.325-.943.105-.435-.198-.858-.2-1.414-.006-.647.226-.824.201-.952-.133zm-8.163-.658c-1.29-.94-.799-3.38.975-4.834.94-.77 1.357-.935 2.362-.935.986 0 1.399-.157 2.15-.816l.929-.816-.277.794c-.217.621-.184.972.15 1.617.515.998.35 1.337-.65 1.337-.417 0-1.095.27-1.506.601-.411.331-1.194.805-1.74 1.054-.864.395-.992.57-.992 1.355 0 1.114-.463 1.326-1.4.643zm18.665.396c-.182-.068-.33-.537-.33-1.042 0-.81-.116-.965-.993-1.326a10.008 10.008 0 0 1-1.835-1.045c-.463-.35-1.151-.636-1.53-.636-.869 0-1.08-.535-.59-1.497.239-.47.302-.95.17-1.28-.386-.962-.26-.99.685-.16.752.66 1.17.82 2.132.82 1.047 0 1.348.143 2.396 1.133.961.909 1.246 1.39 1.442 2.44.23 1.231.202 1.347-.486 2.012-.402.388-.88.65-1.061.581z" id="1680145626130-4908972_path5207" fill="#212121" stroke-width=".265"></path></g></g></svg>