<svg width="38" height="35" xmlns="http://www.w3.org/2000/svg" viewBox="0 0 10.187 9.489"><title>escha heal</title><g fill="#212121" class="nc-icon-wrapper"><g id="layer1" transform="translate(-79.732 -58.678)"><path d="M83.304 68.024c0-.13.584-.443 1.297-.696 1.178-.418 2.936-1.949 2.936-2.555 0-.124-.316-.306-.702-.403l-.703-.176 1.288-1.308c.709-.719 1.367-1.307 1.464-1.307.143 0 1.035 3.061 1.035 3.551 0 .075-.263.039-.584-.08-.487-.18-.657-.08-1.02.604-.275.514-.97 1.09-1.864 1.547-1.537.784-3.147 1.205-3.147.823zm-.27-3.055c-1.486-1.182-2.97-2.731-3.202-3.343-.313-.825.15-2.332.83-2.695.814-.436 1.833-.297 2.453.333l.586.595.583-.595c.617-.63 1.641-.769 2.456-.333.592.317 1.163 1.912.938 2.62-.159.502-2.01 2.409-3.322 3.424-.662.512-.672.512-1.323-.006z" id="path5067" fill="#212121" stroke-width=".265"></path></g></g></svg>