<svg width="38" height="33" xmlns="http://www.w3.org/2000/svg" viewBox="0 0 10.314 8.788"><title>escha bomb</title><g fill="#212121" class="nc-icon-wrapper"><g id="layer1" transform="translate(-64.098 -59.677)"><path d="M66.865 68.316c-1.756-.545-2.93-2.356-2.749-4.242.322-3.35 3.96-4.824 6.481-2.626.55.479 1.08 1.06 1.179 1.29.332.775.22 2.713-.208 3.617-.736 1.551-2.992 2.492-4.703 1.961zm6.35-3.197c-.882-.694-.895-1.667-.031-2.467.879-.815.883-1.918.008-2.317-.493-.224-.748-.22-1.035.019-.245.203-.44.222-.545.052-.232-.377.832-.88 1.448-.685 1.44.457 1.841 2.418.653 3.197-.855.56-.84 1.256.04 1.897.404.295.586.583.428.68-.15.093-.585-.076-.966-.376zm-2.506-3.899c-1.045-.903-1.11-1.029-.711-1.36.387-.322.569-.237 1.516.71.593.593.994 1.207.894 1.368-.272.44-.444.367-1.699-.718z" id="path2774" fill="#212121" stroke-width=".265"></path></g></g></svg>