<svg width="29" height="38" xmlns="http://www.w3.org/2000/svg" viewBox="0 0 7.9 10.066"><title>escha accessory</title><g fill="#212121" class="nc-icon-wrapper"><g id="layer1" transform="translate(-62.751 -75.984)"><path d="M64.576 85.437c-1.066-.713-1.824-2.097-1.825-3.333 0-.894.96-2.946 1.38-2.946.47 0 .516.836.071 1.327-.64.708-.61 2.49.06 3.39.746 1.006 1.639 1.408 2.814 1.268 1.247-.148 2.201-.999 2.595-2.313.255-.853.219-1.148-.264-2.124-.68-1.374-.33-2.092.496-1.019 1.013 1.316.995 3.559-.039 4.873-1.23 1.563-3.658 1.966-5.288.877zm.414-5.942c-1.69-2.112-1.642-1.975-.658-1.879.813.08.925.204 1.371 1.52.267.79.443 1.477.392 1.529-.052.052-.55-.475-1.105-1.17zm1.589.854c-.111-.291-.363-.931-.56-1.422-.513-1.28-.473-1.357.7-1.357 1.206 0 1.228.08.54 1.985-.399 1.102-.512 1.235-.68.794zm.828-.133c.61-2.217.8-2.511 1.672-2.598.757-.074.823-.03.584.397-.148.265-.757 1.017-1.354 1.672-.898.987-1.053 1.078-.902.53zm-3.201-3.58c1.167-.957 1.717-.85 1.295.251-.107.279-.484.416-1.125.41l-.964-.01zm1.692.075c.14-.378.44-.596.822-.596.381 0 .68.218.82.596.205.553.148.595-.82.595-.97 0-1.026-.042-.822-.595zm2.04.176c-.422-1.1.128-1.208 1.295-.25l.794.65-.964.01c-.641.006-1.018-.131-1.125-.41z" id="path4809" fill="#212121" stroke-width=".265"></path></g></g></svg>