<svg width="32" height="36" xmlns="http://www.w3.org/2000/svg" viewBox="0 0 8.481 9.538"><title>escha armor</title><g fill="#212121" class="nc-icon-wrapper"><g id="layer1" transform="translate(-73.176 -76.91)"><path d="M74.14 85.38l-.964-1.067.074-3.629.073-3.629 4.168-.073 4.167-.073v7.58l-1.004.98c-1 .975-1.012.979-3.276.979h-2.273zm5.912-.936c.828-.943.83-.953.755-3.638l-.075-2.692h-6.615l-.075 2.692c-.075 2.685-.073 2.695.755 3.638.799.91.898.946 2.627.946 1.73 0 1.829-.036 2.628-.946zm-4.827-.061c-.677-.707-.711-.872-.711-3.448v-2.707l2.977.075 2.976.075.076 2.452c.072 2.305.034 2.507-.627 3.373-.669.878-.78.922-2.341.922-1.45 0-1.721-.085-2.35-.742z" id="path4902" fill="#212121" stroke-width=".265"></path></g></g></svg>