<svg width="108" height="143" xmlns="http://www.w3.org/2000/svg" viewBox="0 0 28.588 37.994"><title>escha category liquid</title><g fill="#212121" class="nc-icon-wrapper"><g id="layer1" transform="translate(45.059 100.642)"><path d="M-33.328-62.73c-2.618-.314-6.239-1.931-7.032-3.142-.423-.646-.693-2.154-1.175-6.562-.171-1.569-.477-3.474-.68-4.233-.201-.76-.368-1.85-.37-2.424-.003-.574-.181-2.122-.399-3.44-.217-1.318-.817-4.926-1.332-8.018-.701-4.204-.867-5.752-.66-6.14.42-.785 1.926-1.839 3.497-2.447 3.194-1.238 11.286-1.866 16.618-1.291 2.58.278 6.137 1.254 7.213 1.979 1.337.9 1.444 1.594.777 5.017-.32 1.646-.94 5.84-1.374 9.32-.435 3.48-.961 7.101-1.17 8.047-.364 1.654-1.003 5.57-1.358 8.331-.252 1.95-.762 2.734-2.185 3.358-2.828 1.24-7.526 1.984-10.37 1.644zm8.977-4.241c.605-.77.737-1.95.218-1.948-.755.003-2.05 1.058-2.05 1.67 0 1.2.99 1.35 1.832.278zm2.293-4.199c.322-.491.482-1.851.678-5.745.151-3.03.41-5.58.638-6.278.245-.754.29-1.267.127-1.43-.325-.325-.986.2-1.23.976-.098.315-.4.856-.671 1.203-.562.72-.637 2.108-.181 3.368.275.762.198 1.21-.663 3.855-1.073 3.296-1.178 4.205-.557 4.826.502.502 1.218.204 1.86-.775zm-4.013-12.17c2.62-.555 4.697-2.043 3.927-2.812-.175-.175-.6-.036-1.262.414-.55.373-1.248.679-1.552.679-.304 0-1.477.198-2.608.441-1.923.414-2.288.413-5.672-.007-3.768-.467-5.667-1.074-6.142-1.96-.378-.707.124-1.348 1.297-1.653.505-.132 1.574-.43 2.374-.663 1.18-.344 2.43-.405 6.615-.32 4.509.093 5.342.178 6.614.678 2.745 1.08 3.63.602 3.878-2.097.146-1.597.107-1.792-.462-2.322-.683-.637-1.142-.626-4.926.119-3.263.642-13.052.291-15.04-.54-1.262-.527-1.6-.514-2.2.086-.733.733-.932 2.655-.462 4.461.219.84.468 1.865.555 2.278.325 1.547 2.805 3.006 5.681 3.343 2.954.346 7.445.286 9.385-.125zm6.502-2.513c0-.291-.112-.53-.25-.53-.354 0-.605.482-.412.794.277.448.662.294.662-.264zm-4.546-9.431c3.653-.692 4.184-1.698 1.455-2.756-2.09-.81-9.291-1.275-12.255-.792-3.415.556-6.88 1.9-6.88 2.669 0 1.102 13.071 1.752 17.68.879z" id="path3581" fill="#212121" stroke-width=".265"></path></g></g></svg>