<svg width="19.972mm" height="19.972mm" version="1.1" viewBox="0 0 19.972 19.972" xml:space="preserve" xmlns="http://www.w3.org/2000/svg" xmlns:xlink="http://www.w3.org/1999/xlink"><g transform="translate(-124.91 -260.92)"><rect transform="rotate(-45)" x="-103.24" y="279.88" width="14.122" height="14.122" stroke-width=".389"/><g transform="translate(42.119 -29.722)"><path d="m90.997 299.25c0.10208 0.20415-0.0603 0.34348-0.14254-0.0568-0.61492-2.9932-0.59997-2.8841-0.59326-2.8879 2.5213-1.4129-0.0115 8e-3 2.2518-1.2772l0.48122 0.60273c0.33064 0.42035 0.94945 0.9894 0.91026 1.1767-0.0444 0.21243-0.80148 0.0143-1.3541 0.0143-0.9891 0-0.64249 0.19403-0.35553 1.6288 0.13725 0.68624-0.11569 0.75241 0.49004 0.75241 0.55038 0 0.67531-0.292 0.80158-0.92982 0.0448-0.22617 0.24875-0.47413 0.25093-0.79811 1e-3 -0.18102-0.0591-0.48823 0.0833-0.63142 0.13847-0.13921 0.50594-0.23108 0.68763-0.28191l0.87395-0.24121-0.5108 2.8263c-0.27623 1.5284-0.52582 0.63219-2.2686 0.58535-0.39238-0.0106-0.92526 0.083-1.2515-0.0849-0.33579-0.17282-0.4579-0.60425-0.35451-0.39746z" fill="#b3b3b3"/><path d="m91.059 305.97c-2.6042-2.7572-1.0769-4.375-0.18673-5.4898-1.6539-0.40251-0.33784-2.1581 0.17698-1.5378 0.0567 0.0683 0.39318 0.7111 0.53924 0.70998 1.0979-8e-3 0.70855-5e-3 2.242 3e-3 0.42915 2e-3 0.40805-0.71262 0.73587-0.87876 0.64539-0.32709 1.6291 1.2175 0.21997 1.705-0.50726 0.17547 0.80006-0.242 1.1517 2.7025 7e-3 4.3294-4.8738 2.778-4.8788 2.7858zm3.32-1.1443c0.61385-0.55553 0.8814-1.999 0.50193-2.7081-0.44219-0.82623-1.7621-1.4189-2.7008-1.2128-1.5142 0.33258-2.2357 2.5494-1.2258 3.7662 0.76684 0.92398 2.4886 1.0017 3.4247 0.15459zm-2.8087-7.9822c1.1691-0.071 5e-3 -4e-3 2.3196-0.0513 0.0163-3.3e-4 -0.11203 0.79211-0.24283 1.5423-0.0606 0.34759-0.12174 0.6861-0.16929 0.9325-8e-3 0.0427-1.2245 0.023-1.4286 0.0429zm0.9461-1.8254c0.99638 0.34454 1.8864 0.91731 2.867 1.299-1.4818 0.46715-1.4734 0.50328-1.4962 0.47401-1.3754-1.7642-0.01-3e-3 -1.3708-1.773z" fill="#fff"/></g></g></svg>
