<svg width="19.972mm" height="19.972mm" version="1.1" viewBox="0 0 19.972 19.972" xml:space="preserve" xmlns="http://www.w3.org/2000/svg" xmlns:xlink="http://www.w3.org/1999/xlink"><g transform="translate(-124.91 -260.92)"><rect transform="rotate(-45)" x="-103.24" y="279.88" width="14.122" height="14.122" stroke-width=".389"/><g transform="translate(72.329 -12.089)"><path d="m62.46 287.9c-1.8968-0.0674-4.1704-2.2118-4.2779-4.8257-0.0908-0.46675 0.0388-2.423 2e-3 -3.4754 5.7866-2.0399 3.7878-1.3567 4.3432-1.4986 0.70723 0.27047 3.7368 1.401 4.4517 1.6534l-0.0579 3.5305c-0.0493 3.006-3.2207 4.6159-4.4614 4.6159zm3.9074-4.6602c-0.0159-1.4209 0.0458-2.9751-0.0386-2.9897-0.59906-0.10343-3.7348-1.4726-3.7911-1.4508-0.42113 0.18508-2.0233 0.805-2.6486 0.99441l-1.137 0.34438-9e-3 2.7647c0.14395 2.011 1.5425 4.1991 3.7415 4.376 2.0188-0.0432 3.7008-2.0848 3.8827-4.039zm-3.8528-3.9522c0.0239 0 0.8288 0.13171 3.5282 1.1978 2e-3 0.0172-2e-3 0.0291-0.038 2.7672-0.51291 1.7467-1.623 3.3716-3.5091 3.552-0.0658-3.4562-0.70865-5.7633 4e-3 -7.5108z" fill="#fff"/><path d="m61.207 286.33c-1.2404-0.79455-1.8726-1.8357-2.0968-3.5673l0.0139-2.3548c2.7326-0.93449 2.2587-0.75514 3.39-1.1267-0.0915 2.4932-3e-3 5.018-8e-3 7.5218-0.10914-2e-3 -0.83506-0.17574-1.2993-0.47308z" fill="#b3b3b3"/></g></g></svg>
