<?xml version="1.0" encoding="UTF-8" standalone="no"?>
<!-- Created with Inkscape (http://www.inkscape.org/) -->

<svg
   width="16.738657mm"
   height="16.738657mm"
   viewBox="0 0 16.738657 16.738657"
   version="1.1"
   id="svg1"
   xml:space="preserve"
   inkscape:version="1.3 (0e150ed6c4, 2023-07-21)"
   sodipodi:docname="combat.svg"
   xmlns:inkscape="http://www.inkscape.org/namespaces/inkscape"
   xmlns:sodipodi="http://sodipodi.sourceforge.net/DTD/sodipodi-0.dtd"
   xmlns:xlink="http://www.w3.org/1999/xlink"
   xmlns="http://www.w3.org/2000/svg"
   xmlns:svg="http://www.w3.org/2000/svg"><sodipodi:namedview
     id="namedview1"
     pagecolor="#505050"
     bordercolor="#ffffff"
     borderopacity="1"
     inkscape:showpageshadow="0"
     inkscape:pageopacity="0"
     inkscape:pagecheckerboard="1"
     inkscape:deskcolor="#505050"
     inkscape:document-units="mm"
     inkscape:zoom="4"
     inkscape:cx="14.25"
     inkscape:cy="44.125"
     inkscape:window-width="1920"
     inkscape:window-height="1057"
     inkscape:window-x="3832"
     inkscape:window-y="-8"
     inkscape:window-maximized="1"
     inkscape:current-layer="layer1" /><defs
     id="defs1"><linearGradient
       id="1696378089771-7775320_linearGradient275556"><stop
         offset="0"
         id="1696378089771-7775320_stop275556"
         stop-color="#7f7f7f"
         stop-opacity="1" /><stop
         offset=".795"
         id="1696378089771-7775320_stop275558"
         stop-color="#a39c8c"
         stop-opacity="1" /></linearGradient><linearGradient
       xlink:href="#1696378089771-7775320_linearGradient275556"
       id="1696378089771-7775320_linearGradient275557"
       x1="106.133"
       y1="266.09601"
       x2="105.981"
       y2="276.85901"
       gradientUnits="userSpaceOnUse" /><linearGradient
       id="linearGradient275557-3"
       x1="106.13"
       x2="105.98"
       y1="266.10001"
       y2="280.79001"
       gradientUnits="userSpaceOnUse"><stop
         stop-color="#7f7f7f"
         offset="0"
         id="stop1" /><stop
         stop-color="#a39c8c"
         offset=".79503"
         id="stop2" /></linearGradient></defs><g
     inkscape:label="Layer 1"
     inkscape:groupmode="layer"
     id="layer1"
     transform="translate(-97.840358,-260.83648)"><circle
       style="fill:#000000;fill-opacity:1;stroke-width:0.389426"
       id="path275535"
       cx="106.20969"
       cy="269.20581"
       r="8.3693285" /><g
       id="g275589"
       transform="translate(21.003258,-1.6677785)"><path
         style="fill:#ffffff"
         d="m 81.020826,275.80067 c -0.93798,-0.99843 -1.41868,-3.5294 -0.91809,-4.8339 l 0.18004,-0.46918 0.29841,0.88628 0.29841,0.88628 0.57439,-1.57532 c 0.88734,-2.43364 3.12261,-4.71798 5.09168,-5.2035 l 0.66985,-0.16516 -1.21689,1.2625 c -1.20038,1.24538 -2.15762,2.92033 -2.48088,4.34099 -0.24125,1.06028 0.16344,0.88428 0.7415,-0.32248 0.27505,-0.5742 0.78106,-1.30796 1.12447,-1.63058 l 0.62439,-0.58658 -0.66146,1.89324 c -0.3638,1.04127 -0.66146,2.04839 -0.66146,2.23803 0,0.18964 -0.19319,0.73229 -0.60057,1.0234 l -0.482,0.34445 -0.588561,0.89776 c -0.165866,0.25301 -0.313889,1.13101 -0.314699,1.31291 -0.002,0.54585 -1.05653,0.36294 -1.67853,-0.29914 z"
         id="path275537"
         sodipodi:nodetypes="sscccsscsssscssscscs" /><path
         style="fill:#b3b3b3;fill-opacity:1"
         d="m 82.699376,275.29037 0.24217,-1.12448 c 1.42038,-1.01816 0.13699,-0.11219 4.08232,-3.29736 l -0.43233,-0.55802 -0.34087,-0.49704 0.0367,-0.65533 0.59335,0.0493 0.95273,1.0984 c 0.079,0.0911 0.92848,-0.0153 0.98469,-0.71781 l 0.0344,-0.43052 c 1.67191,-0.16575 0.0196,0 1.65884,-0.15091 l -0.11299,0.76983 -0.11299,0.76982 -0.49592,0.0233 c -0.58492,0.0275 -1.07727,0.32881 -0.85032,0.91663 0.34308,0.385 0.80152,0.96334 0.80152,0.96334 l 0.0686,0.79042 -0.78068,-0.0686 -0.74813,-0.83551 c -2.59784,2.95294 -2.51087,2.86898 -2.59456,2.95463 l -1.09867,1.12448 h -1.06503 -1.06502 z"
         id="path275538"
         sodipodi:nodetypes="cccccccssccccscccccscccc" /></g></g></svg>
