<svg width="16.739mm" height="16.739mm" version="1.1" viewBox="0 0 16.739 16.739" xml:space="preserve" xmlns="http://www.w3.org/2000/svg" xmlns:xlink="http://www.w3.org/1999/xlink"><g transform="translate(-97.84 -260.84)"><circle cx="106.21" cy="269.21" r="8.3693" stroke-width=".38943"/><g transform="translate(26.289 -14.942)"><path d="m79.125 286.95c4e-3 -0.0782 1.3505-0.0426 1.304-0.14959l-1.3725-1.745 1.0044-0.337 0.76462-0.22125-0.99121-0.99121c-1.0386-1.0386-1.0502-1.1213-0.44121-3.135 0.28672-0.94808 1.3382-1.649 2.4735-1.649 0.86921 0 2.2404 1.3206 2.2454 2.1625 2e-3 0.33862 0.072 0.87059 0.15561 1.1822 0.1104 0.41143-0.0954 0.82128-0.75199 1.4974l-0.904 0.93087 0.7601 0.15202c1.0364 0.20727 1.3044 0.29489 1.367 3.3521l-2e-3 1.571c-5.7074 0.0102 0.0231-0.0255-5.6424 2e-3z" fill="#fff"/><path d="m76.179 286.69c1e-5 -2e-3 -0.54836-0.0191-1.0444-0.0661-0.0871-8e-3 -0.0346-0.057 0.678-0.87442 0.41525-0.47639 0.96337-1.161 1.218-1.5214l0.46302-0.6552 0.43222 0.59994c0.23772 0.32997 0.76991 0.98481 1.1826 1.4552 0.69667 0.794 0.7627 0.97708 0.7336 0.95635-0.63433 0.0308-0.95025 7e-3 -0.95113 0.0414l-0.0744 2.9003h-2.6458z" fill="#b3b3b3"/></g></g></svg>
