<svg width="16.739mm" height="16.739mm" version="1.1" viewBox="0 0 16.739 16.739" xml:space="preserve" xmlns="http://www.w3.org/2000/svg" xmlns:xlink="http://www.w3.org/1999/xlink"><g transform="translate(-97.84 -260.84)"><circle cx="106.21" cy="269.21" r="8.3693" stroke-width=".38943"/><g transform="translate(-19.45 -.19374)"><g stroke-width="1.2604"><path d="m125.03 274.17c-0.97122-0.78264-0.70777-0.40576-1.1875-0.98644-0.0267-0.0323 0.13066-0.21299-0.24797-0.30992-1.3285-0.34012-0.89958-0.19025-1.5276-0.38835-0.34858-0.10991-0.40796-0.64008-0.32834-1.092 0.086-0.48791 0.015-0.0582 0.46743-2.3894 0.43559-2.5479 0.48338-2.7672 0.73076-2.7699 1.3472 0.0242 0.96067-0.0231 1.5771-8.3e-4 1.0995 0.0453 0.74601 0.86158 0.64843 1.3833-0.51857 2.7722-0.26791 1.8914-0.26453 2.0663 0.0183 0.94802 0.63988-2.1184 0.86598-2.6776 0.52878-1.1541 1.6727-0.26057 2.8302 0.35619 0.47189 0.47191 0.34333 1.0698 0.15348 1.1227-0.13541 0.0377-2.807-0.60529-2.807-1.0502 0-0.65375-0.28018-0.0692-1.2799 2.6701l-0.74132 2.3316 0.29516-0.49252c0.90721-1.5139 3.2846 2.3582 2.0004 2.3117-0.51606-0.0188-0.94633 0.0415-0.85425-0.1084z" fill="#999"/><path d="m123.85 273.73c-0.26314-0.20265-0.49284-0.5073-0.35585-0.77994l0.20516-0.46303c0.2511 8e-3 0.41906-0.57521 0.19622 0.49522 0.0221 0.0991 0.0963 0.17385 0.20142 0.2599l0.44467 0.4802c0.28451 0.17528 0.31992 0.2185 1.4091 0.40153 1.0935-0.54997-0.43813-0.4359-1.0382-0.65414l-1.213-0.98467 0.86972-2.3607c1.4168-3.832 1.3601-3.483 1.3405-3.2112-9e-3 0.12835 0.15445 0.19322 0.46862 0.47757 0.6685 0.74326 1.5624 0.91546 2.5183 0.89403-0.11559 0.27513-0.66189 1.8968-1.144 3.2724-1.1781 2.8227-1.2605 3.3532-1.9925 3.0262zm3.1755-6.8396c-0.29625-0.772 1.9315-2.8933 2.4728-2.342 0.2842 0.28945-0.0212 0.34921-0.53333 0.76893-0.37577 0.30798-0.73165 0.32234-0.77116 1.1644-0.28211 1.1496-0.89147 1.1303-1.1684 0.40867zm-3.3177-0.72283c0-0.0834 0.0732-0.57157 0.0595-0.71032-0.034-0.34586-0.0989-0.34465-0.33415-0.65553-0.15877-0.64683-0.0806-1.2243 0.81559 0.27445 0.54957 0.91908 0.10159 1.1406 0.0829 1.4353-0.11117 0.57537-0.86356 0.57469-0.86356 0.10424z" fill="#fff"/></g></g></g></svg>
