<svg width="16.739mm" height="16.739mm" version="1.1" viewBox="0 0 16.739 16.739" xml:space="preserve" xmlns="http://www.w3.org/2000/svg" xmlns:xlink="http://www.w3.org/1999/xlink"><g transform="translate(-97.84 -260.84)"><circle cx="106.21" cy="269.21" r="8.3693" stroke-width=".38943"/><g transform="translate(36.225 3.76)"><path d="m68.359 268.24 1.026-1.4737c0.0148-0.0188 5e-3 -0.038-0.76965-0.038h-0.66146v-2.9104h-0.39687c-0.21828 0-0.42356 9e-3 -0.42737-0.0273-0.0559-0.53304 1.2962-2.2078 2.143-2.6578 0.68431-0.50941 1.2458-0.48991 2.059-0.48991 2.203 0 3.9747 1.3173 4.548 3.3816 0.40191 1.4472 0.34284 1.9975-0.31999 2.9811-0.39396 0.66147-1.3984 1.9509-3.6924 1.9921-2.4807-0.0192-2.3172-0.24463-3.5084-0.75765zm2.0041-3.0298c-0.85811 1.1573 0.51082-0.1383 2.8463 0.51595-0.1225-0.88018-1.7952-1.4938-2.8463-0.51595zm0.12506-1.3756c0.0833-0.13478-0.97317-0.82113-1.2942-1.046-0.0366-0.0488-0.23324 0.31899-0.19993 0.3419l0.94433 0.64965c-0.2944 0.24284-0.92604 0.32919-0.92604 0.42917v0.42099l0.51443-0.27532c0.28293-0.15142 0.87816-0.38559 0.96146-0.52037zm3.4664 0.556c0.0315-0.0452 0.11305-0.18615 0.04-0.20568l-1.0522-0.41492 0.91359-0.65683c0.079-0.088-0.25354-0.39667-0.3313-0.32828-0.69975 0.61547-1.2885 0.96525-1.2437 1.001 0.88215 0.47858 1.5373 0.80004 1.5373 0.80004z" fill="#fff"/><path d="m63.862 267.03c-0.0254-0.0328-0.22196-0.0164 1.1767-0.0164 0.0733-2.9348 0.0121 0.0372 0.0609-2.9306l2.6126-9e-3v2.9394c-0.21692 0.0296 1.1422 4e-3 1.0736 0.0903-1.4588 1.837-1.1764 1.6068-2.3714 3.147-2.3621-2.9796-1.3988-1.755-2.5524-3.221z" fill="#b3b3b3"/></g></g></svg>
