<svg width="16.739mm" height="16.739mm" version="1.1" viewBox="0 0 16.739 16.739" xml:space="preserve" xmlns="http://www.w3.org/2000/svg" xmlns:xlink="http://www.w3.org/1999/xlink"><g transform="translate(-97.84 -260.84)"><circle cx="106.21" cy="269.21" r="8.3693" stroke-width=".38943"/><g transform="matrix(1.1683 0 0 1.1683 -19.732 -65.021)"><path d="m106.69 286.6c-3.0004-3.0898-2.6068-2.3432-2.8137-3.3221-0.0478-0.22609 0.0119 0.0945-0.1123-0.79949-0.0306-0.22024 1.3096 1.0324 2.7209 2.4379 0.21459 0.2137 0.45664 0.43706 0.65582 0.63956 1.084 1.1021 2.2438 2.0961 2.2438 2.1908 0 0.34581 0.04 1.2534-0.55724 0.86754-0.11127-0.0719-0.33313-0.27034-0.59644-0.51882-0.0888-0.0838-0.76705 0.35865-0.86267 0.26636-0.11515-0.11116 0.0123-1.1208-0.10424-1.2349-0.37098-0.36311-0.38614-0.3523-0.57393-0.52687z" fill="#b3b3b3"/><path d="m109.98 289.2c-0.58926-0.64452-0.56516-0.3569-0.97036-0.01-0.24896 0.21317-0.4014 0.47052-0.33874 0.57189 0.0627 0.10138-0.1886 0.18432-0.55834 0.18432-0.47999 0-0.62995-0.11024-0.52434-0.38544 0.0814-0.212 0.1479-0.5018 0.1479-0.644 0-0.14221 0.0978-0.1981 0.21739-0.12421 0.11957 0.0739 0.39109-0.13241 0.67027-0.39457 0.19784-0.18578 0.71676-0.59658 0.67697-0.63478-2.8879-2.7727 8e-3 0.011-2.6141-2.5054-0.14741-0.14148-2.9847-2.8096-2.9155-2.8094 1.3435 5e-3 1.4731 0.21864 2.2143 0.92883 1.6472 1.5782 2.0202 2.1344 2.6189 2.6341 0.0803 0.067 0.9018-0.2492 0.96854-0.19555 0.0879 0.0707 0.0365 0.84147 0.10337 0.89183 0.34144 0.25699 0.42764 0.27038 0.44905 0.25715 0.14591-0.0902 0.20365-0.26369 0.12832-0.38559-0.0753-0.12189 0.71283-0.54733 0.99398-0.47377 0.33542 0.0877 0.23012 0.18777 0.095 1.0525-0.0437 0.27993-0.16825-0.21209-0.83268 0.53893-0.31168 0.40614-0.18603 0.1741 0.76372 1.1332 0.17815 0.17991 0.61159 0.68894 0.50909 0.95595-6e-3 0.0153-0.35446 0.90562-1.5217-0.37102zm-6.1014 0.51373c-0.23583-0.38159 2.534-2.9828 2.6315-2.9046 0.3241 0.2599 0.52148 0.47023 0.45954 0.64576-1.2833 1.1838-0.64606 0.58738-1.6424 1.4939-1.0636 0.96778-1.148 1.2514-1.4487 0.76495zm4.1288-4.4639c0.0196-0.3538 0.5055-0.85528 1.2096-0.67858 0.74949 0.18811 1.6967-0.3296 1.5071-0.82371-0.20373-0.5309-0.82341-0.41782-0.91908 0.16772-0.0826 0.50555-0.0994 0.5062-0.72873 0.0281-0.61523-0.4673-0.62483-0.51884-0.21346-1.1467 0.41434-0.63236 1.4658-0.95161 1.9652-0.61847 0.12507 0.0834 0.66409 0.4335 0.83339 0.92799 0.23959 0.69979 0.23453 0.99301-0.0228 1.3229-0.62466 0.8008-1.1257 1.0442-1.852 0.8995-0.44846-0.0893-0.58001 0.0438-0.72761 0.15273-0.48526 0.35807-0.55082 0.25758-0.82335-0.0194z" fill="#fff"/></g></g></svg>
