<svg width="16.739mm" height="16.739mm" version="1.1" viewBox="0 0 16.739 16.739" xml:space="preserve" xmlns="http://www.w3.org/2000/svg" xmlns:xlink="http://www.w3.org/1999/xlink"><g transform="translate(-97.84 -260.84)"><circle cx="106.21" cy="269.21" r="8.3693" stroke-width=".38943"/><path d="m104.82 273.7c-0.62046-2.9301 0.0492-2.7611-2.5846-3.4449-1.1242-0.29188-1.1344-0.3532 0.18174-0.72253 2.0472-0.25148 1.9828-1.5409 2.2868-3.0585l0.31887-1.5053 0.3025 1.4831c0.16178 1.0701 0.11806 2.4332 1.2163 2.8777l1.0538 0.16852c1.2854 0.20553 1.362 0.54509 0.17008 0.73694-2.1013 0.33822-2.2288 0.90306-2.6246 3.8618l-0.0983 0.66146zm4.1181-5.5187c-0.0809-0.14102-0.29356-0.62775-0.38865-1.0257l-0.17291-0.72358-1.3472-0.33812c1.5742-0.71259-0.0573-8.5e-4 1.5768-0.71074l0.1758-0.98454 0.20275-0.75278 0.48266 1.7556 0.77196 0.32458 0.77196 0.32459-1.5384 0.58066-0.22813 0.88036c-0.12547 0.4842-0.24098 0.69638-0.30668 0.66968z" fill="#fff"/></g></svg>
