<svg width="106.12mm" height="106.12mm" version="1.1" viewBox="0 0 106.12 106.12" xml:space="preserve" xmlns="http://www.w3.org/2000/svg" xmlns:xlink="http://www.w3.org/1999/xlink"><defs><linearGradient id="linearGradient4" x1="32.787" x2="166.66" y1="156.63" y2="290.51" gradientUnits="userSpaceOnUse"><stop stop-color="#367575" offset="0"/><stop stop-color="#a1c5c5" offset="1"/></linearGradient></defs><g transform="translate(-15.238 -136.46)"><circle cx="68.296" cy="189.52" r="53.058" fill="url(#linearGradient4)" stroke-width=".48078"/><path d="m68.503 242.34c-0.0118-0.37064-0.30855-1.2918-0.66022-2.0471l-0.63937-1.3731-2.5909-0.18212c-7.1305-0.50123-15.354-3.085-20.862-6.5547-0.78122-0.49213-1.4856-0.89477-1.5652-0.89477-0.26966 0-3.6638-2.5514-5.6426-4.2417-2.0516-1.7525-6.7146-6.7068-7.58-8.0535-0.275-0.428-0.59613-0.89948-0.71364-1.0477-0.11751-0.14823-0.79339-1.1794-1.502-2.2912-3.9139-6.1417-6.7602-14.789-7.232-21.972-0.12373-1.8836-0.26384-2.5576-0.53168-2.5576-0.20003 0-0.36368-0.10662-0.36368-0.23684 0-0.26489-1.0037-0.70079-2.4259-1.0536l-0.94344-0.23406 1.0657-0.20368c0.58613-0.11208 1.5075-0.42907 2.0475-0.70455l0.98182-0.50089 0.18074-2.758c0.78727-12.014 7.2071-24.746 16.516-32.758 2.3538-2.0258 5.8378-4.6794 6.1435-4.6794 0.07967 0 0.78396-0.40247 1.5652-0.89439 0.78122-0.49193 2.0269-1.1755 2.7682-1.519 0.74128-0.34355 2.1362-0.99111 3.0999-1.439 3.5398-1.6453 10.326-3.2689 15.055-3.6012l2.5335-0.17809 0.64041-1.4481c0.35223-0.79644 0.64998-1.7176 0.6617-2.047 0.0118-0.32934 0.05914-0.47751 0.10559-0.32925 0.04631 0.14826 0.28834 0.95961 0.53774 1.803 0.2494 0.8434 0.59611 1.6456 0.77049 1.7827 0.17438 0.137 1.4411 0.32524 2.8149 0.4182 5.5202 0.37351 12.061 2.1643 17.314 4.7401 3.5991 1.7648 3.9551 1.9671 5.843 3.3186 0.77659 0.55595 1.4897 1.0108 1.5846 1.0108 0.6718 0 9.4373 8.4694 10.139 9.7969 0.16901 0.31952 0.71297 1.0787 1.2088 1.6869 0.49583 0.60822 0.90153 1.2052 0.90153 1.3266 0 0.12137 0.17184 0.41207 0.38183 0.64612 0.21002 0.23406 0.81938 1.214 1.3542 2.1777 3.4561 6.228 5.4831 12.592 6.2035 19.479 0.19957 1.9079 0.4053 3.5071 0.45717 3.5538 0.29422 0.26507 2.7013 1.23 3.112 1.2475 0.26758 0.0118 1e-3 0.18988-0.5917 0.39664-1.9041 0.66384-2.0217 0.71978-2.0217 0.96186 0 0.13096-0.16406 0.23812-0.36455 0.23812-0.26812 0-0.41212 0.67684-0.54444 2.559-0.29759 4.2335-1.3071 8.8729-2.8269 12.993-0.91264 2.4735-2.9703 6.7179-4.0912 8.4391-0.43444 0.66715-0.87046 1.3949-0.96891 1.6173-0.76406 1.7259-5.9393 7.5043-9.3646 10.456-7.7062 6.6407-17.782 10.822-27.93 11.589-2.2632 0.17115-2.5694 0.25547-2.6593 0.73253-0.05589 0.2965-0.22425 0.61634-0.37401 0.71076-0.14976 0.0944-0.43078 0.76155-0.6245 1.4825-0.22806 0.84881-0.35956 1.0734-0.37304 0.63701zm8.992-4.7341c6.1249-1.0982 12.451-3.6049 17.229-6.8276 1.013-0.68315 2.0826-1.3787 2.3768-1.5456 0.29427-0.16693 0.94892-0.65213 1.4548-1.0782 0.5059-0.42605 1.4018-1.1386 1.9909-1.5834 0.58914-0.44476 1.0768-0.96029 1.0837-1.1456 7e-3 -0.18532 0.18302-0.33694 0.39148-0.33694 0.65839 0 7.4381-8.0088 7.4381-8.7866 0-0.1106 0.16989-0.39252 0.37752-0.62658 1.1071-1.248 4.1288-7.5592 5.1079-10.669 1.3027-4.1373 2.3286-9.3365 2.3306-11.812 9.4e-4 -1.1192-0.0518-1.2468-0.37956-0.919-0.48089 0.48089-0.84227 1.8695-1.2438 4.7793-0.78345 5.6775-3.2435 12.411-6.276 17.179-0.39891 0.62716-0.72529 1.1961-0.72529 1.2642 0 0.55254-4.3291 5.7185-6.8076 8.1234-2.8915 2.8058-6.1119 5.5105-6.561 5.5105-0.11075 0-0.39292 0.1695-0.62698 0.37667-0.23404 0.20716-0.9714 0.69308-1.6385 1.0798-4.7292 2.7415-11.363 5.1763-16.173 5.9362-4.6383 0.73274-5.9302 1.1149-5.9302 1.7538 0 0.23817 3.4941-0.11872 6.5816-0.67242zm-11.362 0.2799c-0.58066-0.4067-1.0199-0.50517-6.0027-1.3458-3.3303-0.56186-6.7867-1.5598-9.9735-2.8795-2.7841-1.1531-2.7956-1.1584-4.6037-2.1632-2.2629-1.2576-2.4994-1.4115-5.2222-3.3999-4.3356-3.1661-8.4419-7.3279-10.963-11.112-5.0417-7.5654-7.3083-13.515-8.3353-21.88-0.18978-1.5456-0.4746-2.7488-0.69376-2.9307-1.1224-0.93152 0.16954 7.2228 2.097 13.235 0.52492 1.6374 1.7055 4.3673 2.9723 6.8737 1.246 2.4648 4.6215 7.3711 6.4961 9.442 0.26459 0.29231 0.8711 0.9657 1.3478 1.4965 2.2348 2.4883 7.7729 6.8692 10.975 8.6818 6.6047 3.7386 14.64 6.1813 20.883 6.3486 1.5139 0.0406 1.5749 0.0186 1.0234-0.36771zm-0.72138-3.2956c0.01755-1.3699-0.07315-1.9542-0.30326-1.9542-0.18054 0-0.69048-0.0724-1.1332-0.16099l-0.80495-0.16098-0.19237 1.9521c-0.21863 2.2189-0.06636 2.463 1.4653 2.3487l0.94345-0.0703zm9.1664 1.7479c0.12034-0.12034-0.56432-3.6634-0.73816-3.8202-0.05339-0.0482-0.49135-0.0276-0.97318 0.0457-0.85794 0.13066-0.87596 0.16204-0.87236 1.518 0.0015 0.7615 0.08038 1.6711 0.17412 2.0213 0.15171 0.5668 0.28696 0.62108 1.2316 0.49439 0.58362-0.0782 1.1137-0.19492 1.178-0.25921zm-12.31-0.81394c0.16073-0.48701 0.27503-1.1844 0.25398-1.55-0.02094-0.36546 0.04572-0.86079 0.14824-1.1007 0.13361-0.31252 0.01032-0.48355-0.43523-0.60282-1.0103-0.27058-1.8335-0.19809-1.8521 0.16306-0.0091 0.18532-0.17203 1.0648-0.36114 1.9542l-0.34383 1.6173 0.69808 0.17028c1.3655 0.33306 1.5929 0.25473 1.892-0.65142zm4.332 0.27987c0-0.15311 0.18637-0.41468 0.41416-0.58124 0.22778-0.16655 0.58126-0.78641 0.7855-1.3775l0.37137-1.0746-0.94734-0.0852c-0.52103-0.0469-0.98384-0.0469-1.0285 0-0.04469 0.0469-0.16808 0.90572-0.27432 1.9085-0.17115 1.6154-0.14349 1.8042 0.24297 1.6558 0.23988-0.0922 0.43613-0.29263 0.43613-0.44576zm4.8964-1.3896-0.0904-1.7786h-2.3424l0.25074 0.87427c0.13789 0.48086 0.25074 0.90118 0.25074 0.93407 0 0.22596 1.7071 1.9419 1.8466 1.8562 0.0963-0.0591 0.13435-0.9078 0.08465-1.886zm5.9658 1.4623c0.11813-0.10618 0.01608-1.0666-0.22664-2.1341-0.36018-1.5836-0.50919-1.8847-0.80948-1.6354-0.20241 0.16799-0.48371 0.23395-0.62506 0.14659-0.14143-0.0874-0.45672-0.0822-0.70076 0.0118-0.36919 0.14172-0.41485 0.4248-0.27181 1.6856 0.27504 2.4241 0.2859 2.4414 1.4203 2.27 0.54927-0.083 1.0953-0.2379 1.2135-0.34412zm-17.889-1.768c0.34465-1.9791 0.17894-2.3544-1.1517-2.6088-0.62454-0.11945-0.80049-0.0276-1.0118 0.52829-0.14069 0.37003-0.27524 0.99172-0.29897 1.3815-0.02374 0.38975-0.15733 0.86031-0.29684 1.0457-0.32508 0.4318 0.18584 1.0734 0.97752 1.2275 1.4419 0.28068 1.462 0.26297 1.7819-1.5741zm20.693 1.0728c0.25444-0.25444 0.223-0.70077-0.14394-2.042-0.49609-1.8138-0.47189-1.7977-2.1489-1.4304-0.43088 0.0944-0.58142 0.27826-0.49028 0.59892 0.07226 0.25451 0.26885 1.1556 0.43666 2.0025l0.30513 1.5398 0.85784-0.17158c0.4718-0.0944 1.0044-0.31807 1.1834-0.49717zm-24.29-0.32592c0.31145-0.21033 0.91974-2.3671 0.91974-3.261 0-0.6858-1.436-1.0653-1.9785-0.52289-0.48258 0.48259-1.1174 3.1622-0.81661 3.4468 0.19512 0.18455 0.67195 0.35195 1.4473 0.50808 0.07417 0.0149 0.26674-0.0619 0.42803-0.17091zm27.547-0.45433c0.09188-0.0919-0.12698-1.0144-0.48624-2.0503-0.49898-1.4389-0.75034-1.8457-1.0651-1.7238-0.22664 0.0879-0.74879 0.22754-1.1604 0.3106-0.52702 0.10633-0.71111 0.28012-0.62256 0.58762 0.06917 0.24015 0.26658 0.98247 0.43868 1.6496 0.1721 0.66715 0.37699 1.3178 0.45532 1.446 0.15028 0.24584 2.1552 0.0653 2.4403-0.21971zm-30.132-1.1352c0-0.21014 0.24259-0.8576 0.5391-1.4388 0.29652-0.58121 0.53911-1.1284 0.53911-1.216 0-0.1829-1.7301-0.94043-2.1478-0.94043-0.15301 0-0.27821 0.13332-0.27821 0.29621 0 0.16292-0.1649 0.67843-0.36645 1.1456-1.0426 2.4166-1.0455 2.2485 0.04554 2.6868 1.0436 0.41929 1.6687 0.21955 1.6687-0.5333zm32.978-0.0761c0.12491-0.12461 0.06858-0.51251-0.12521-0.86199-0.1938-0.34949-0.36183-0.69609-0.37341-0.77021-0.0118-0.0742-0.17407-0.58103-0.36108-1.1265l-0.34004-0.99167-0.99623 0.34491c-0.54795 0.1897-0.99624 0.45399-0.99621 0.58734 1.4e-5 0.13332 0.23844 1.0519 0.52982 2.0412l0.52979 1.7988 0.95272-0.39771c0.524-0.21877 1.055-0.4997 1.1799-0.6243zm-35.358-1.9692c0.33786-0.92659 0.61729-1.7443 0.62098-1.8169 0.0041-0.0727-0.41604-0.33184-0.93272-0.57581l-0.93942-0.44358-0.7453 1.6029c-0.90326 1.9425-0.92336 2.3249-0.1388 2.6403 1.2544 0.50422 1.4967 0.34463 2.1353-1.4067zm37.254 1.2767c0.537-0.22437 0.97636-0.53513 0.97636-0.69057 0-0.23786-1.2755-3.1588-1.5027-3.4412-0.11857-0.14732-1.015 0.20845-1.5493 0.61485-0.4744 0.36093-0.47455 0.42039-0.0044 1.7449 0.26786 0.7542 0.57986 1.3713 0.69331 1.3713 0.11341 0 0.20627 0.18196 0.20627 0.40434 0 0.49624-0.01637 0.4963 1.1801-4e-3zm-19.788-0.73766c0.17663-0.43943 0.24848-0.48093 0.26087-0.15069 0.0088 0.25069 0.1081 0.5083 0.21925 0.57244 0.41911 0.24177 6.2347-0.3459 8.5615-0.86514 2.6886-0.59997 6.1712-1.7108 7.7972-2.4868 0.58381-0.27864 1.1627-0.50663 1.2865-0.50663 0.18597 0 2.5223-1.3215 4.9154-2.7801 4.0632-2.4767 9.958-8.2029 12.468-12.111 4.4012-6.8532 6.5579-13.283 7.234-21.566 0.14968-1.8337 0.11592-2.089-0.27606-2.089-0.41448 0-0.4147-0.0319-3e-3 -0.44349 0.33439-0.33439 0.4077-0.74887 0.29801-1.6847-0.0799-0.68266-0.22129-2.0296-0.31395-2.9933-0.38177-3.9708-1.8903-9.21-3.7562-13.046-1.7782-3.6551-2.0166-4.0555-4.0283-6.767-8.0678-10.875-18.907-16.858-32.162-17.757-2.1548-0.14614-2.2249-0.13228-2.2605 0.4472l-0.03672 0.59806-0.1168-0.6065c-0.0643-0.33356-0.19934-0.60639-0.30022-0.60626-0.10087 1.2e-4 -1.5177 0.12152-3.1486 0.26966-4.3405 0.39446-9.1033 1.4853-11.995 2.7473-4.6195 2.0159-5.1853 2.3371-10.303 5.8467-2.2619 1.5513-6.0428 5.3533-7.9169 7.961-0.64805 0.90175-1.4417 1.9793-1.7635 2.3944-1.1925 1.5382-3.9496 7.0553-4.7218 9.4484-0.24621 0.76312-0.54224 1.6301-0.65785 1.9265-0.66375 1.7024-1.347 5.6791-1.7253 10.041-0.15279 1.762-0.12143 1.9573 0.31859 1.9855 0.4708 0.0302 0.4708 0.0357-2.04e-4 0.15774-0.44024 0.114-0.47056 0.34283-0.30842 2.3273 0.77141 9.4413 3.9422 17.502 9.8002 24.912 1.13 1.4297 6.8606 6.7434 7.574 7.0231 0.39465 0.15475 0.722 0.38997 1.4599 1.049 0.80692 0.72073 5.8673 3.386 8.1261 4.28 4.0929 1.62 9.7228 2.8021 14.48 3.0405 0.54607 0.0274 0.81624-0.12727 0.99374-0.56892zm-20.098-1.8617 0.76176-1.6596-0.63828-0.49086c-1.0244-0.78777-1.442-0.60512-2.4869 1.0878-0.53996 0.87481-0.98176 1.6594-0.98176 1.7434 0 0.26334 1.4562 0.95672 2.033 0.96802 0.41611 9e-3 0.73626-0.39411 1.3122-1.6488zm42.209 1.39c0-0.14824 0.09099-0.2503 0.20216-0.22676 0.38749 0.082 1.1456-0.37232 1.1456-0.68656 0-0.1741-0.42725-0.99958-0.94944-1.8344l-0.94942-1.5179-0.87006 0.42218c-0.47853 0.23219-0.92198 0.46551-0.98542 0.51848-0.2326 0.19426 1.7083 3.5945 2.0517 3.5945 0.19516 0 0.3548-0.12122 0.3548-0.26954zm-44.655-3.2716 0.7277-1.2417-0.66978-0.43885c-0.36837-0.24138-0.83318-0.43886-1.0328-0.43886-0.37219 0-1.5428 1.3983-1.5428 1.843 0 0.13612-0.18194 0.39846-0.40433 0.58303-0.59366 0.49269-0.50321 0.75645 0.46035 1.3425 0.81886 0.49797 0.88772 0.50111 1.2994 0.0593 0.23906-0.25659 0.76212-1.0253 1.1623-1.7083zm47.82 1.513c0.48089-0.29292 0.87511-0.65457 0.87605-0.80367 0.0029-0.41064-1.7161-3.083-1.9882-3.0911-0.13081-4e-3 -0.65049 0.2479-1.1549 0.55968l-0.91721 0.56689 0.72865 1.2526c1.1672 2.0065 1.3 2.2016 1.4443 2.1228 0.07536-0.041 0.53034-0.31429 1.0112-0.6072zm-50.879-2.2846c0.3136-0.25869 1.4085-1.9185 1.3124-1.9897-0.05318-0.0394-0.46569-0.32596-0.91655-0.63665l-0.81976-0.56486-1.2521 1.5648-1.2521 1.5648 1.9513 1.3884 0.40671-0.59596c0.22369-0.32778 0.48024-0.65661 0.5701-0.73075zm54.409-0.17065c0.12757-0.0802-2.1426-3.064-2.3312-3.064-0.08421 0-0.53764 0.26348-1.0076 0.58552l-0.8545 0.58553 2.2148 3.3338 0.94343-0.69157c0.51891-0.38039 0.98471-0.71755 1.0351-0.74927zm-55.544-3.5753c-0.04432-0.23021-0.37042-0.56305-0.72462-0.73965-0.80686-0.40226-1.2103-0.16533-2.4251 1.4243l-0.9175 1.2004 0.59111 0.41402c0.32512 0.22772 0.73657 0.56976 0.91436 0.76008 0.25815 0.27635 0.55673 0.0453 1.4828-1.1473 0.63777-0.82132 1.1233-1.6816 1.079-1.9119zm57.764 1.8591c0.47017 0 0.233-0.40715-1.0769-1.8487l-1.3124-1.4444-0.83732 0.61905c-0.46054 0.34048-0.83732 0.65309-0.83732 0.69469s0.50058 0.80507 1.1124 1.6966l1.1124 1.621 0.79516-0.66907c0.43734-0.368 0.90715-0.6691 1.0441-0.6691zm-59.87-3.4674c-0.01209-0.24199-0.57817-0.91174-1.1509-1.3616-0.43862-0.34457-0.62406-0.24468-1.918 1.0332l-1.4324 1.4146 1.9098 1.8548 1.3-1.3846c0.715-0.76156 1.2961-1.4619 1.2914-1.5562zm61.467 1.8549 0.94344-0.7894-2.7768-2.7943-0.83544 0.59489c-0.45948 0.32717-0.83542 0.69546-0.83542 0.81841 0 0.25486 2.2203 2.966 2.4259 2.9623 0.0742-1e-3 0.55933-0.35764 1.0782-0.79181zm-64.691-2.5675 1.4661-1.4846-1.6869-1.6869-3.0906 3.066 0.76167 0.79501c0.41892 0.43725 0.83409 0.79502 0.92262 0.79502 0.08853 0 0.8207-0.66807 1.6271-1.4846zm67.656-0.4788c0-0.32052-2.4825-2.5948-2.8473-2.6083-0.15757-6e-3 -0.63686 0.35499-1.065 0.80194l-0.77856 0.81265 2.9169 2.9536 0.88704-0.85974c0.48787-0.47287 0.88704-0.96788 0.88704-1.1001zm-68.198-3.1344c0-0.10589-0.33711-0.51543-0.74912-0.91018l-0.74913-0.71769-1.5588 1.2235c-0.85737 0.67291-1.5209 1.3204-1.4747 1.4389 0.04625 0.11857 0.38252 0.58596 0.74722 1.0388l0.66307 0.82333 1.5608-1.3521c0.85841-0.74367 1.5608-1.4387 1.5608-1.5446zm69.446 1.5591 0.86981-0.84306-1.6047-1.2062c-1.6985-1.2767-2.0252-1.2778-2.7046-9e-3 -0.23074 0.43115-0.0667 0.70306 1.0255 1.701 0.71512 0.65328 1.3551 1.1905 1.4221 1.1937 0.0671 3e-3 0.51338-0.37344 0.99178-0.83712zm-71.808-3.3003c0.3157-0.48506 0.24154-0.87493-0.29171-1.5335l-0.49801-0.615-1.6501 1.1575c-1.7583 1.2334-1.8088 1.4423-0.66489 2.7558 0.36323 0.41711 0.48998 0.37837 1.65-0.50438 0.69114-0.5259 1.3457-1.0932 1.4546-1.2604zm73.759 0.77394c0.30616-0.51891 0.44367-0.94345 0.30557-0.94345-0.13803 0-0.64952-0.34611-1.1366-0.76915-1.6254-1.4119-1.8989-1.4572-2.575-0.42583l-0.59953 0.91458 1.3709 1.0836c0.754 0.59601 1.53 1.0837 1.7244 1.0837s0.60401-0.42454 0.91015-0.94344zm-75.201-3.1429c0.35357-0.27289 0.53552-0.49692 0.40433-0.49785-0.13118-9.4e-4 -0.44022-0.35626-0.68674-0.78957-0.54125-0.9514-1.09-0.88088-2.9805 0.38298-1.2608 0.84288-1.2682 0.85649-0.81808 1.5055 0.9198 1.3263 0.93606 1.3305 2.2251 0.59101 0.66714-0.38274 1.5023-0.91916 1.8558-1.1921zm76.818 0.78423 0.55542-0.87605-0.85706-0.67186c-0.47139-0.36953-1.2333-0.87351-1.6931-1.12-0.80569-0.43182-0.85008-0.42699-1.2218 0.13273-0.79267 1.1935-0.74512 1.3346 0.80444 2.3872 0.82793 0.56245 1.5844 1.0229 1.681 1.0233 0.0966 3.6e-4 0.42564-0.39358 0.73112-0.8754zm-79.752-2.4437c1.6598-0.99839 1.8697-1.4311 1.1344-2.3391l-0.50606-0.62497-1.3922 0.62918c-0.76568 0.34603-1.3922 0.72884-1.3922 0.85067 0 0.12181-0.1722 0.22151-0.38265 0.22151-0.32368 0-0.31737 0.16616 0.04085 1.0782 0.23295 0.59303 0.55676 1.0777 0.71959 1.0771 0.16283-6e-4 0.96297-0.40227 1.7781-0.89255zm81.254-0.23131c0.23178-0.46458 0.4214-0.9857 0.4214-1.1581 0-0.17232-0.69401-0.60856-1.5422-0.96941-0.84824-0.36086-1.635-0.69596-1.7482-0.74467-0.11326-0.0487-0.35689 0.25454-0.54133 0.67389-0.18442 0.41935-0.45557 0.84684-0.60255 0.94997-0.32028 0.22471-0.39812 0.15702 1.5791 1.3731 0.87582 0.5387 1.6869 0.92103 1.8024 0.84962 0.11547-0.0714 0.39967-0.50993 0.63145-0.97452zm-82.618-2.4369c0.97252-0.47652 1.8038-0.88606 1.8472-0.91006 0.19511-0.1078-0.88388-1.997-1.1397-1.9955-0.15786 9.7e-4 -0.65091 0.24277-1.0957 0.53732-0.44477 0.29456-1.0668 0.53636-1.3822 0.53733-0.95433 3e-3 -1.1774 0.55332-0.68361 1.6865 0.24227 0.55597 0.49567 1.0108 0.56312 1.0108 0.06744 0 0.91832-0.38988 1.8909-0.86644zm83.974-0.46409c0.36764-0.71094 0.36638-0.83427-0.0118-1.213-0.23186-0.23188-0.56922-0.42159-0.74967-0.42159s-0.78161-0.23123-1.3359-0.51384l-1.0078-0.51383-0.52186 1.023-0.52186 1.0229 1.5401 0.68616c1.9779 0.88124 2.1196 0.87745 2.6094-0.0698zm-84.588-2.5041 1.3912-0.65147-0.44773-0.96444c-0.41006-0.88329-0.50442-0.94066-1.1216-0.682-0.37064 0.15535-0.8404 0.31653-1.044 0.35818-1.0014 0.20488-1.9212 0.76548-1.9212 1.1709 0 0.24897 0.14828 0.76685 0.32949 1.1508 0.36402 0.77136 0.34559 0.77385 2.8138-0.38198zm85.511 0.26301c0.66337-1.7733 0.6984-1.6981-1.1103-2.385-0.9299-0.35316-1.7745-0.68135-1.8769-0.72932-0.2044-0.0957-0.91157 2.0408-0.73303 2.2146 0.0842 0.0821 3.0284 1.3588 3.4193 1.4826 0.0407 0.0133 0.17615-0.24943 0.30094-0.58302zm-86.003-3.2185c0.0494-0.12004 0.27133-0.21836 0.49313-0.21836 0.31383 0 0.36161-0.19433 0.21539-0.87605-0.10334-0.48182-0.2417-0.96745-0.30746-1.0791-0.19915-0.33831-3.3212 0.25283-3.3212 0.62885 0 0.13642-0.18194 0.24813-0.40433 0.24813-0.47766 0-0.48653 0.0976-0.12668 1.3931l0.27464 0.98882 1.5434-0.43352c0.84884-0.23842 1.5838-0.53177 1.6332-0.65186zm87.33-0.42052c0.23464-0.7032 0.21973-0.87605-0.0755-0.87605-0.20232 0-0.40827-0.0957-0.45769-0.21258-0.0494-0.11694-0.77316-0.40001-1.6083-0.62908l-1.5185-0.41651-0.29435 0.95905c-0.34164 1.1132-0.21897 1.2346 1.9784 1.9568 1.4982 0.49244 1.5588 0.46846 1.9759-0.78162zm-90.789-1.6492c0-0.12875 0.45488-0.2984 1.0108-0.37707 0.55595-0.0786 1.3591-0.27913 1.7847-0.44552 0.68754-0.26881 0.75485-0.39739 0.60368-1.1533-0.09363-0.46788-0.22172-0.90228-0.28476-0.96531-0.24281-0.24282-3.9036 0.57931-4.0285 0.90467-0.18077 0.47111 0.34006 2.2705 0.65721 2.2705 0.14128 0 0.25688-0.10529 0.25688-0.23407zm91.472-1.0432c0.2167-1.3354-0.13096-1.6296-2.1658-1.8333l-1.6685-0.16696-0.18337 0.97745c-0.10087 0.5376-0.11842 1.0424-0.0391 1.1218 0.20683 0.20684 2.6448 0.85609 3.322 0.88467 0.45729 0.0192 0.60384-0.17691 0.73475-0.98362zm-88.507-3.0903c4e-5 -0.87953-0.61332-1.8613-1.0566-1.6913-0.23181 0.0889-1.029 0.22517-1.7715 0.30269-0.74252 0.0776-1.4456 0.23237-1.5624 0.34407-0.11679 0.11164-0.13525 0.68517-0.04106 1.2744l0.1713 1.0713 2.1301-0.42104c1.6616-0.32845 2.1301-0.52198 2.1301-0.88007zm89.108-0.0926c0.0987-0.52581 0.11709-1.0183 0.0409-1.0945-0.18219-0.1822-3.7494-0.68543-3.8866-0.54829-0.0583 0.0582-0.17365 0.52296-0.25635 1.0326-0.1495 0.92124-0.14276 0.92823 1.1571 1.2093 2.4612 0.5321 2.7435 0.47466 2.945-0.59909zm-90.231-2.3171c0.04942-0.12713 0.23734-0.23102 0.41759-0.23102 0.21584 0 0.29014-0.32214 0.2176-0.94345-0.12236-1.048-0.35936-1.1125-2.8383-0.77278-1.1478 0.15732-1.2582 0.24029-1.4121 1.0608-0.09179 0.48953-0.08415 1.0241 0.01712 1.1879 0.21325 0.34505 3.4523 0.0737 3.5982-0.30142zm90.615-0.90492v-1.213h-2.0217c-1.8132 0-2.0217 0.0532-2.0217 0.51706 0 0.28438-0.0681 0.69445-0.15128 0.91127-0.11252 0.29339 0.18041 0.46321 1.1456 0.66407 0.71328 0.14842 1.6911 0.2842 2.173 0.30172 0.8633 0.0314 0.87606 0.0147 0.87606-1.1812zm-91.042-1.7296c0.97709-0.0217 1.0108-0.0549 1.0108-0.99474 0-0.77586-0.08619-0.93923-0.42637-0.80867-0.2345 0.09-0.57656 0.16362-0.76012 0.16362-0.3256 0-2.0482 1.3992-2.0482 1.6637 0 0.0732 0.27292 0.10279 0.6065 0.0658 0.33357-0.037 1.0614-0.0773 1.6173-0.0898zm90.503-0.15179c0-0.2045-2.7931-1.7522-3.1673-1.7551-0.19378-1e-3 -0.33695 0.33444-0.33695 0.79062 0 0.73724 0.0808 0.80044 1.1456 0.89635 2.1199 0.19094 2.3586 0.19783 2.3586 0.068zm-89.492-3.8773c0-1.0348-0.0081-1.0427-1.2507-1.213-1.8415-0.25239-2.8505-0.21342-2.6552 0.1025 0.09312 0.15069 0.28224 0.20417 0.42024 0.11887 0.13801-0.0853 0.25093 0.0252 0.25093 0.24562 0 0.60139 1.6484 1.7811 2.4934 1.7845 0.68128 3e-3 0.74127-0.0813 0.74127-1.0386zm87.666 0.73966c0.74929-0.401 2.3655-1.8819 2.3655-2.1675 0-0.21909-3.433-0.0186-3.8412 0.2244-0.1112 0.0661-0.20216 0.59835-0.20216 1.1826 0 0.89389 0.0883 1.0623 0.55684 1.0623 0.30625 0 0.81067-0.13582 1.121-0.30191zm-92.421-3.7534c0.28863-2.8109 0.72275-5.0967 1.4131-7.4402 0.35577-1.2078 0.64685-2.3394 0.64685-2.5148 0-0.55532 1.3385-3.8177 2.7122-6.6106 3.1597-6.4239 8.2542-12.706 13.327-16.434 1.1861-0.87158 2.2777-1.7229 2.4259-1.8918 0.14823-0.16891 0.45151-0.3909 0.67389-0.4933 0.22238-0.10234 1.1321-0.60954 2.0217-1.127 6.0024-3.4919 13.088-5.8138 19.734-6.4668 1.2425-0.12211 2.0685-0.34276 2.2912-0.6121 0.31318-0.37882 0.09468-0.4021-2.1727-0.23155-7.6001 0.57168-16.77 3.9018-22.741 8.2585-1.0116 0.7381-1.913 1.3421-2.0031 1.3421-0.23764 0-2.0261 1.6076-4.9123 4.4154-2.3592 2.2952-5.8372 6.5397-6.8737 8.3884-0.24935 0.44476-0.71162 1.2332-1.0272 1.7521-0.66134 1.0872-2.9153 5.601-2.9153 5.8383 0 0.0874-0.47079 1.448-1.0462 3.0233-1.1521 3.1542-2.0971 7.5228-2.41 11.142-0.1886 2.1812-0.17172 2.3144 0.23775 1.8749 0.25892-0.27794 0.51449-1.191 0.61944-2.2132zm95.999-2.5052c-0.50432-3.4484-1.0786-5.7141-2.3681-9.3431-0.95314-2.6825-3.1096-7.1926-4.3174-9.03-0.97042-1.4762-2.9119-4.2247-3.3321-4.7172-0.18977-0.22238-0.80326-0.95006-1.3632-1.617-1.3644-1.625-5.7802-5.9305-6.0823-5.9305-0.13243 0-0.56942-0.3103-0.97126-0.68957-0.40183-0.37924-0.98737-0.83412-1.3012-1.0108-0.31384-0.17671-1.3994-0.88446-2.4125-1.5728-3.9435-2.6796-9.8807-5.1851-15.043-6.3484-3.3842-0.76251-8.4614-1.4366-8.6403-1.1472-0.24331 0.39369 0.5878 0.74769 2.1647 0.92208 5.9626 0.65939 11.112 2.1467 16.308 4.7102 5.728 2.8259 7.7484 4.277 12.871 9.2443 1.2231 1.186 2.2238 2.2483 2.2238 2.3607 0 0.11238 0.19784 0.36862 0.43967 0.5693 0.49057 0.40714 3.6036 4.4386 3.6036 4.6668 0 0.0799 0.40362 0.78463 0.89694 1.5659 2.2885 3.6241 4.2416 8.4523 5.536 13.685 0.26615 1.0759 1.1146 6.5494 1.1146 7.1903 0 0.13612 0.21228 0.51101 0.47172 0.83307l0.47173 0.58554 0.0851-0.95892c0.0468-0.5274-0.11297-2.3128-0.35494-3.9676zm-91.126 2.917c0.09781-0.52142 0.11472-1.0502 0.03759-1.175-0.07713-0.12477-0.94444-0.30935-1.9273-0.41005-2.0417-0.20918-2.541 0.0292-2.541 1.2132 0 0.93301 0.74303 1.2023 2.5642 0.92914 0.78716-0.11798 1.2095-0.0815 1.2095 0.10471 0 0.6956 0.49605 0.19578 0.65696-0.66196zm89.173 0.43846c0.78508-0.0313 0.92988-0.5107 0.56537-1.872-0.14246-0.5323-0.298-0.60786-1.0072-0.48954-0.46124 0.077-1.3542 0.21928-1.9842 0.31623-0.94209 0.14497-1.1449 0.27982-1.1414 0.75909 9e-3 1.0961 0.59302 1.4968 2.0175 1.3814 0.44476-0.0361 1.1423-0.0789 1.55-0.0951zm-88.733-3.5753 0.15864-0.98499-1.986-0.29538c-1.0923-0.16247-2.0886-0.29539-2.214-0.29539-0.3061 0-0.51493 1.5216-0.26445 1.9268 0.22085 0.35735 2.094 0.73492 3.3416 0.67355 0.70834-0.0348 0.82471-0.15847 0.96419-1.0246zm89.12 0.48619c0.0516-0.0516-6e-3 -0.56688-0.12845-1.1452-0.24454-1.1574-0.1317-1.1283-2.9536-0.76218-0.93077 0.12078-1.4152 0.31024-1.4152 0.55362 0 0.20353 0.10456 0.37005 0.23218 0.37005 0.12771 0 0.17052 0.32254 0.0951 0.71678l-0.13701 0.71679 2.1066-0.17808c1.1587-0.0979 2.1487-0.22022 2.2003-0.27177zm-88.618-3.0576c0.15121-0.54762 0.24788-1.0082 0.21483-1.0237-1.3296-0.61885-4.0263-1.5406-4.1178-1.4076-0.1522 0.22099-0.60937 2.4886-0.5198 2.5782 0.10465 0.10471 3.1048 0.74536 3.8236 0.81659 0.17835 0.0177 0.44798-0.41593 0.59919-0.96355zm87.877-0.83741c-0.11518-0.51061-0.31191-1.0309-0.43724-1.1562-0.32995-0.32994-3.8573 0.58156-3.8573 0.99678 0 0.18886 0.12328 0.41958 0.27395 0.5127 0.15066 0.0931 0.20056 0.28804 0.1109 0.43315-0.0897 0.14512-0.10132 0.42484-0.0258 0.62161 0.11297 0.2942 0.49329 0.28338 2.1411-0.0609l2.0038-0.4187zm-87.127-1.7775c0.15446-0.50329 0.20514-1.0307 0.11261-1.172-0.20784-0.31746-3.5821-1.4215-3.846-1.2584-0.27615 0.17067-0.8503 2.0071-0.68057 2.1768 0.10893 0.10899 2.8247 0.88378 3.9762 1.1344 0.08629 0.0189 0.28332-0.3776 0.43778-0.88089zm84.253 0.45703c0.41078-0.0829 0.81217-0.25635 0.89195-0.38546 0.0798-0.12904 0.39041-0.23474 0.69026-0.23474 0.47636 0 0.52668-0.12757 0.39862-1.0108-0.0805-0.55597-0.15117-1.0936-0.15677-1.1946-0.019-0.34286-2.9247 0.29428-3.7388 0.81979-0.55184 0.35628 0.14964 2.5507 0.74204 2.3214 0.23414-0.0907 0.76181-0.23264 1.1726-0.31554zm-83.113-3.675c0.24077-0.63326 0.17171-0.70101-1.2794-1.2548-0.84361-0.32198-1.7265-0.68585-1.9621-0.80859-0.31527-0.16429-0.54642-0.0232-0.87605 0.53485-0.73481 1.2439-0.57873 1.4958 1.3691 2.2093 1.9726 0.72254 2.24 0.65629 2.7484-0.68072zm83.039 0.4635c1.1906-0.35638 1.4299-0.78242 1.042-1.855-0.34005-0.94037-0.70237-1.1567-1.1903-0.71066-0.14084 0.12875-0.83223 0.44849-1.5364 0.71051-1.3272 0.49382-1.4537 0.72086-1.0269 1.8434 0.26702 0.70233 0.40261 0.70292 2.7116 0.0118zm-81.954-3.4315c0.0052-0.28586-0.23531-0.56098-0.5669-0.64769-0.31706-0.0829-1.1119-0.43546-1.7664-0.78343-0.65445-0.34798-1.2425-0.63268-1.3068-0.63268-0.14049 0-0.93279 1.8552-0.93279 2.1842 0 0.12728 0.33357 0.30891 0.74127 0.40348 0.4077 0.0945 0.99277 0.32826 1.3002 0.51927 1.3688 0.85056 2.5041 0.38279 2.5315-1.0431zm82.181 0.19371c0.19912-0.13125-0.64903-2.0634-0.95776-2.1819-0.24398-0.0936-2.6792 1.0716-3.5262 1.6871-0.0434 0.0316 0.1227 0.48036 0.36928 0.99732l0.44822 0.93994 1.7872-0.69088c0.98293-0.37999 1.8286-0.71821 1.8793-0.75161zm-80.988-2.1065 0.40898-0.79245-1.2682-0.84948c-0.6975-0.46721-1.5885-0.92836-1.9798-1.0248-0.62021-0.15274-0.76922-0.054-1.1597 0.76886-0.46485 0.9796-0.3815 1.4772 0.24744 1.4772 0.20127 0 0.4064 0.091 0.4558 0.20218 0.15059 0.33879 2.5031 1.3707 2.7012 1.1847 0.10192-0.0957 0.36936-0.53053 0.59431-0.96636zm78.152 0.0377 1.7061-0.88954-0.62599-0.98912c-0.70545-1.1147-0.81145-1.107-2.8671 0.20743-1.1901 0.76101-1.5722 1.213-1.0253 1.213 0.13214 0 0.31645 0.30325 0.40948 0.67389 0.0931 0.37064 0.28786 0.67389 0.43298 0.67389 0.14511 0 1.0316-0.40031 1.9699-0.88954zm-76.805-2.3666c0.3997-0.80122 0.38866-0.85231-0.3172-1.4668-0.40224-0.35014-1.2012-0.85082-1.7753-1.1126-1.0377-0.47313-1.047-0.47217-1.5613 0.16285-0.28451 0.35136-0.48164 0.82394-0.43807 1.0502 0.08141 0.42251 2.7921 2.1934 3.3605 2.1954 0.17447 6.2e-4 0.50356-0.37245 0.73134-0.82904zm74.749 0.25049c0.56442-0.3188 1.3036-0.7491 1.6428-0.95623l0.61655-0.3766-0.59881-1.0654c-0.32933-0.58599-0.70266-1.0654-0.82962-1.0654-0.12698 0-0.62014 0.27292-1.096 0.60649-1.7872 1.2529-2.3484 1.7873-2.0625 1.9639 0.15797 0.0976 0.39803 0.46898 0.53348 0.82521 0.30208 0.79455 0.49495 0.80187 1.7941 0.0681zm-73.119-2.53c0.43555-0.66475 0.42357-0.70958-0.43265-1.6173-0.48434-0.51349-0.996-0.93362-1.1371-0.93362-0.14102 0-0.49024-0.21163-0.77605-0.47029-0.49886-0.45145-0.54548-0.43799-1.1655 0.33694-0.35522 0.44399-0.64161 0.92852-0.63644 1.0768 0.01298 0.37184 2.7163 2.2612 3.2589 2.2778 0.2424 7e-3 0.6423-0.29422 0.8887-0.67026zm71.12 0.14452c0.37695-0.2965 0.79671-0.53911 0.9328-0.53911 0.13612 0 0.525-0.29544 0.86424-0.65655l0.61679-0.65655-0.58817-0.82599c-0.32348-0.4543-0.65944-0.826-0.74652-0.826-0.41245 0-3.0396 2.2118-3.0396 2.559 0 0.2843 0.86737 1.4844 1.0729 1.4844 0.1112 0 0.51062-0.24262 0.88757-0.53912zm-69.444-2.3586 0.59977-0.74128-1.5213-1.4152c-0.83666-0.77833-1.5872-1.4064-1.6679-1.3957-0.08068 0.0103-0.48249 0.42417-0.89295 0.91879l-0.74629 0.89932 0.82082 0.63116c0.45146 0.34714 1.1512 0.90024 1.555 1.2292 0.95142 0.77497 1.1336 0.76255 1.8528-0.12624zm68.589-0.49336 1.6045-1.2347-0.74892-0.90235c-0.4119-0.49629-0.80957-0.90584-0.88369-0.91012-0.0742-4e-3 -0.78744 0.57694-1.5851 1.2916l-1.4504 1.2995 0.62498 0.84533c0.34373 0.46492 0.67203 0.84532 0.72953 0.84532s0.82659-0.55559 1.709-1.2347zm-67.387-3.9865-1.5996-1.5996-1.8774 2.0493 3.3124 2.8512 0.88205-0.85064 0.88206-0.85064zm66.001 1.3549 1.1451-1.0359-1.7844-1.8411-1.1787 1.1478c-1.7233 1.6779-1.8275 1.9646-1.0112 2.7809 0.77864 0.77862 0.82492 0.76141 2.8292-1.0518zm-63.206-0.98082 0.77004-0.80376-1.5117-1.5848-1.5117-1.5848-1.7182 1.7727 1.4207 1.5022c0.78139 0.82622 1.5017 1.5022 1.6007 1.5022 0.09903 0 0.52654-0.36167 0.95006-0.80375zm60.847-0.73607c0.7093-0.69863 1.2897-1.3596 1.2897-1.4688 0-0.10913-0.42718-0.52441-0.9493-0.92266-0.93451-0.71278-0.95808-0.71614-1.5123-0.21587-0.30961 0.2795-0.93677 0.97959-1.3937 1.5558l-0.83075 1.0476 0.74068 0.63711c0.40739 0.3504 0.88139 0.63711 1.0533 0.63711 0.17196 0 0.89298-0.5716 1.6023-1.2702zm-58.873-1.0124c0.5495-0.57948 0.58094-0.72848 0.26956-1.2776-0.53246-0.939-1.9516-2.8883-2.1046-2.8909-0.07417-1e-3 -0.53453 0.36122-1.0231 0.80558l-0.88833 0.80793 1.4004 1.6102c0.77026 0.88557 1.4733 1.608 1.5622 1.6055 0.08894-1e-3 0.44166-0.29984 0.78378-0.66063zm56.483-1.0811 1.275-1.4768-1.7399-1.5546-2.6564 3.1791 0.77238 0.66424c0.4248 0.36535 0.84022 0.6644 0.92313 0.66459 0.08288 1.8e-4 0.72452-0.66426 1.4258-1.4765zm-54.14-0.74697 0.70286-0.60649-1.2534-1.6847c-0.68937-0.92657-1.3325-1.6809-1.4292-1.6762-0.09669 4e-3 -0.51725 0.30898-0.93471 0.67622l-0.75901 0.66769 0.57388 0.73895c1.2681 1.6328 2.0288 2.491 2.208 2.491 0.10375 0 0.50493-0.27291 0.8915-0.60649zm52.338-1.6095c0.34648-0.46963 0.62996-0.92879 0.62996-1.0203 0-0.0916-0.37434-0.44324-0.83184-0.78151l-0.83185-0.615-0.65071 0.6113c-0.35788 0.33622-0.65506 0.74179-0.6604 0.90126-0.0044 0.15948-0.29808 0.6427-0.65056 1.0738l-0.64089 0.78385 0.85274 0.58561 0.85274 0.58563 0.65043-0.63537c0.35773-0.34945 0.93391-1.0196 1.2804-1.4893zm-50.235 0.16002c0.47446-0.24124 0.90161-0.47225 0.94922-0.51333 0.12823-0.11076-1.6334-3.4674-1.9244-3.6667-0.29595-0.20278-2.3403 0.83587-2.3403 1.189 0 0.26367 2.1635 3.4297 2.3436 3.4297 0.06001 0 0.4973-0.19739 0.97177-0.43861zm46.431-0.0373c0.15594-0.10898 0.68009-0.7931 1.1648-1.5203l0.8813-1.3224-0.76048-0.6216c-0.41826-0.34188-0.88177-0.58847-1.03-0.548-0.41396 0.11296-2.0217 2.6018-2.0217 3.1297 0 0.25709 0.27293 0.59907 0.60651 0.75996 0.75003 0.36172 0.80849 0.3679 1.1596 0.1227zm-43.406-2.4413c-0.13677-0.5552-1.0061-2.5826-1.3871-3.2351-0.02802-0.0479-0.45647 0.1286-0.95207 0.39237-0.49561 0.26379-0.99208 0.45469-1.1032 0.42422-0.36526-0.10014-0.21108 0.67982 0.20217 1.0228 0.22238 0.18455 0.40434 0.44461 0.40434 0.5779 0 0.13331 0.31679 0.72102 0.70398 1.3061 0.70078 1.0589 0.70764 1.0619 1.5069 0.64862 0.68138-0.35237 0.77598-0.52443 0.62509-1.137zm42.2-0.82295c0.4087-0.91169 0.45769-1.265 0.21585-1.5565-0.17209-0.20735-0.3707-0.3192-0.44135-0.24856-0.07064 0.0706-0.30463-0.0476-0.51994-0.26304-0.61616-0.61614-0.80885-0.48587-1.5142 1.0237-1.1205 2.3978-1.1534 2.6746-0.31169 2.6185 0.07949-4e-3 0.34273 0.1887 0.58514 0.43112 0.40795 0.40793 0.47856 0.39361 0.94913-0.19254 0.2796-0.34831 0.7463-1.1641 1.0371-1.8127zm-40.055 0.6248 0.88482-0.41988-0.48965-1.0134c-0.26931-0.5574-0.57161-1.34-0.67178-1.7391-0.10015-0.3991-0.29295-0.79415-0.4284-0.87785-0.40221-0.24857-1.8751 0.17734-2.0326 0.58776-0.16886 0.44004 1.2644 3.8824 1.6165 3.8824 0.12993 0 0.63439-0.18893 1.1211-0.41986zm36.282-0.32139c0.21014-0.40772 0.4429-0.80193 0.51727-0.87607 0.27081-0.26994 1.1622-2.1619 1.0545-2.2383-0.32977-0.23411-1.6681-0.72685-1.9741-0.72685-0.29584 0-1.6146 2.8886-1.6347 3.5805-0.0044 0.18855 1.1 0.90826 1.4982 0.97547 0.08613 0.0147 0.32855-0.30714 0.53868-0.71485zm-32.938-1.042c0.156-0.12964-1.0838-3.4262-1.4244-3.7874-0.22521-0.23887-0.53524-0.2174-1.2901 0.0894l-0.99359 0.40377 0.7164 1.6628c0.94861 2.2017 1.0786 2.3264 2.0758 1.9908 0.4468-0.15034 0.85896-0.31203 0.91591-0.35933zm30.774-0.84482c0.33797-0.85247 0.71746-1.6855 0.8433-1.8512 0.25659-0.33775-0.06843-0.6427-1.2005-1.1264-0.67537-0.28852-0.7713-0.26063-0.97788 0.28424-0.77683 2.049-1.1067 3.2986-0.88994 3.371 0.137 0.0457 0.47849 0.25672 0.75896 0.46904 0.28046 0.21232 0.58682 0.3899 0.68079 0.3946 0.09394 4e-3 0.44738-0.68889 0.78535-1.5413zm-28.087 0.0353c0.05165-0.0363-0.11385-1.0277-0.36782-2.2031l-0.46178-2.1372-1.1148 0.33447c-1.037 0.31118-1.1128 0.3996-1.0877 1.269 0.01488 0.514 0.22717 1.3356 0.47172 1.8259 0.24454 0.49019 0.44463 1.0432 0.44463 1.229 0 0.26292 0.22376 0.27242 1.0108 0.0428 0.55596-0.16218 1.0531-0.32451 1.1048-0.36074zm25.509-1.1134c0.2413-0.85245 0.4994-1.7582 0.57355-2.0127 0.13184-0.45268 0.0088-0.51142-1.8347-0.87203-0.3584-0.07-0.53953 0.26619-0.84353 1.5662-0.21292 0.91052-0.4321 1.8267-0.48707 2.036-0.05825 0.22182 0.1811 0.46352 0.57398 0.57962 1.4134 0.4177 1.559 0.32411 2.0178-1.297zm-22.885-0.44341c-0.08894-0.46033-0.23754-1.3553-0.33017-1.9888-0.20561-1.4063-0.38538-1.5335-1.6004-1.1325-1.0506 0.3467-1.042 0.26197-0.32795 3.256l0.29603 1.2413 1.0621-0.26961c1.0054-0.25519 1.0534-0.31428 0.90036-1.1065zm19.975 0.17387c0.2355-0.55597 0.44157-1.4277 0.45796-1.9373 0.02684-0.83268-0.07315-0.9662-0.98709-1.3192-0.55929-0.21604-1.0885-0.32121-1.176-0.23369-0.15849 0.15847-0.87953 3.2713-0.89755 3.8748-0.01032 0.33591 0.53218 0.54347 1.5543 0.595 0.474 0.0239 0.72122-0.20708 1.0484-0.97955zm-17.303 0.20216c0.29652-0.12742 0.3968-0.24018 0.22288-0.2506-0.20299-0.0118-0.30682-0.5258-0.28992-1.4342 0.01475-0.77835-0.06725-1.6993-0.18162-2.0467-0.18438-0.56004-0.31927-0.61072-1.1905-0.44725-0.54046 0.10131-1.0525 0.22754-1.138 0.28035-0.08548 0.0528 0.03128 1.0122 0.25933 2.1319 0.38676 1.8988 0.46062 2.0347 1.0967 2.017 0.37512-0.0103 0.92464-0.12314 1.2211-0.2506zm2.6057-0.4908c0.2454-0.2501 0.29395-0.73089 0.25664-2.5417-0.03097-1.5044-0.05383-1.5498-0.77322-1.5462-1.527 7e-3 -1.965 0.26485-1.7676 1.038 0.09984 0.39078 0.16702 0.92039 0.14935 1.1769-0.0177 0.25652 0.08141 0.5366 0.22024 0.62241 0.13878 0.0858 0.25242 0.52587 0.25242 0.97795 0 0.76139 0.05457 0.80848 0.74127 0.63891 0.4077-0.10072 0.8221-0.26547 0.92091-0.36617zm8.8038 0.019c0.41062-0.80084 0.59927-3.3653 0.27622-3.7546-0.16256-0.19588-0.69563-0.35613-1.1846-0.35613-0.77123 0-0.91285 0.10855-1.069 0.81951-0.09896 0.45073-0.09822 1.4141 0.0015 2.1407 0.18221 1.3247 0.18443 1.327 1.5411 1.5854 0.10604 0.0202 0.30152-0.17557 0.43454-0.43501zm3.2056-1.3993c0.19243-0.95496 0.25785-1.8183 0.14541-1.9186-0.11252-0.10028-0.60259-0.25675-1.0891-0.34772-1.0134-0.18947-1.1936 0.0886-1.5267 2.3557-0.22079 1.5025 0.03215 1.8308 1.3226 1.7172 0.75278-0.0662 0.8179-0.16874 1.148-1.8065zm-8.8197 1.3213c0-0.71717-1.8292-3.4934-2.3017-3.4934-0.06843 0-0.12432 0.73171-0.12432 1.626 0 1.4342 0.07153 1.6547 0.6065 1.8698 0.83753 0.33665 1.8195 0.33539 1.8195-1e-3zm2.9688-1.0001c0.0015-0.70421 0.08067-1.5836 0.17471-1.9542l0.17103-0.67389-0.74006 0.67389c-0.72571 0.66084-1.7658 2.401-1.7658 2.9544 0 0.15416 0.4852 0.28029 1.0782 0.28029h1.0782z" fill="#79bcbf" fill-opacity=".49693" stroke-width="1.0188"/></g></svg>
