<svg width="104.14mm" height="104.12mm" version="1.1" viewBox="0 0 104.14 104.12" xml:space="preserve" xmlns="http://www.w3.org/2000/svg" xmlns:xlink="http://www.w3.org/1999/xlink"><g transform="translate(44.253 -206.93)"><path d="m8.0175 310.84c-0.0112-0.3638-0.30286-1.268-0.64804-2.0093l-0.62758-1.3478-2.5431-0.17876c-6.999-0.49198-15.071-3.0281-20.477-6.4338-0.76681-0.48304-1.4582-0.87826-1.5363-0.87826-0.26469 0-3.5962-2.5044-5.5385-4.1635-2.0138-1.7202-6.5908-6.5831-7.4402-7.905-0.26993-0.42011-0.58514-0.8829-0.70048-1.0284s-0.77876-1.1576-1.4743-2.249c-3.8417-6.0284-6.6355-14.516-7.0986-21.567-0.12145-1.8489-0.25897-2.5104-0.52187-2.5104-0.19634 0-0.35697-0.10462-0.35697-0.23248 0-0.25999-0.98518-0.68787-2.3812-1.0342l-0.92604-0.22974 1.046-0.19992c0.57532-0.10995 1.4797-0.42115 2.0097-0.69156l0.96371-0.49165 0.17741-2.7071c0.77275-11.792 7.0742-24.29 16.211-32.154 2.3104-1.9884 5.7301-4.5931 6.0302-4.5931 0.0782 0 0.7695-0.39506 1.5363-0.8779 0.76681-0.48285 1.9895-1.1538 2.7171-1.491 0.72761-0.33721 2.0968-0.97284 3.0427-1.4125 3.4745-1.615 10.136-3.2086 14.777-3.5348l2.4868-0.17481 0.62861-1.4214c0.34573-0.78176 0.638-1.6859 0.64949-2.0092 0.0115-0.32327 0.0581-0.4687 0.10362-0.32318 0.0455 0.14552 0.28302 0.94191 0.52782 1.7698 0.24479 0.82784 0.58511 1.6152 0.75627 1.7498 0.17116 0.13453 1.4145 0.31925 2.763 0.41049 5.4184 0.36662 11.839 2.1244 16.995 4.6527 3.5327 1.7323 3.8822 1.9308 5.7352 3.2574 0.76227 0.5457 1.4622 0.99219 1.5554 0.99219 0.65941 0 9.2633 8.3132 9.9525 9.6162 0.16589 0.31363 0.69982 1.0588 1.1865 1.6558s0.88491 1.183 0.88491 1.3021c0 0.11908 0.16866 0.40447 0.37479 0.63421 0.20614 0.22974 0.80426 1.1916 1.3292 2.1375 3.3924 6.1132 5.382 12.36 6.0891 19.12 0.1959 1.8727 0.39784 3.4424 0.44875 3.4883 0.28878 0.26019 2.6515 1.2073 3.0546 1.2245 0.26265 0.0112 1e-3 0.18638-0.58079 0.38932-1.869 0.65161-1.9844 0.70651-1.9844 0.94413 0 0.12854-0.16102 0.23372-0.35782 0.23372-0.26318 0-0.40452 0.66436-0.53439 2.5118-0.2921 4.1554-1.283 8.7093-2.7748 12.753-0.89581 2.4279-2.9155 6.594-4.0157 8.2835-0.42644 0.65484-0.85441 1.3692-0.95105 1.5875-0.74997 1.6941-5.8298 7.3659-9.1919 10.263-7.5641 6.5182-17.454 10.622-27.415 11.375-2.2215 0.16799-2.522 0.25076-2.6103 0.71901-0.0549 0.29104-0.22011 0.60498-0.36711 0.69765-0.147 0.0927-0.42284 0.74751-0.61299 1.4552-0.22385 0.83315-0.35293 1.0536-0.36616 0.62526zm8.8262-4.6468c6.0119-1.078 12.221-3.5384 16.911-6.7017 0.99432-0.67056 2.0442-1.3533 2.333-1.5171 0.28885-0.16385 0.93143-0.6401 1.428-1.0583s1.3759-1.1176 1.9542-1.5542c0.57827-0.43656 1.0569-0.94258 1.0637-1.1245 7e-3 -0.1819 0.17965-0.33073 0.38426-0.33073 0.64625 0 7.3009-7.8611 7.3009-8.6246 0-0.10853 0.16675-0.38529 0.37056-0.61503 1.0867-1.225 4.0527-7.4198 5.0137-10.472 1.2787-4.061 2.2856-9.1643 2.2876-11.594 9.2e-4 -1.0986-0.0508-1.2238-0.37256-0.90204-0.47202 0.47202-0.82673 1.835-1.2209 4.6912-0.769 5.5728-3.1837 12.182-6.1603 16.862-0.39155 0.61558-0.7119 1.174-0.7119 1.2409 0 0.54235-4.2493 5.613-6.6821 7.9736-2.8382 2.7541-5.9992 5.4089-6.44 5.4089-0.10874 0-0.38567 0.16637-0.61541 0.36972-0.22974 0.20334-0.95349 0.6803-1.6083 1.0599-4.642 2.6909-11.153 5.0808-15.875 5.8267-4.5528 0.71923-5.8208 1.0943-5.8208 1.7215 0 0.23379 3.4297-0.1166 6.4602-0.66001zm-11.152 0.27474c-0.56994-0.39919-1.0011-0.49585-5.892-1.321-3.2689-0.5515-6.6615-1.531-9.7896-2.8264-2.7328-1.1318-2.744-1.137-4.5188-2.1233-2.2212-1.2344-2.4533-1.3855-5.1259-3.3372-4.2556-3.1077-8.2862-7.1928-10.761-10.907-4.9487-7.4259-7.1735-13.266-8.1816-21.476-0.18628-1.5171-0.46585-2.6981-0.68097-2.8767-1.1017-0.91434 0.16641 7.0896 2.0583 12.991 0.51524 1.6072 1.674 4.2868 2.9175 6.7469 1.223 2.4194 4.5363 7.2352 6.3763 9.2679 0.25971 0.28692 0.85503 0.9479 1.3229 1.4689 2.1936 2.4424 7.6296 6.7425 10.773 8.5217 6.4829 3.6697 14.37 6.0673 20.498 6.2315 1.486 0.0398 1.5459 0.0183 1.0045-0.36093zm-0.70807-3.2348c0.0172-1.3446-0.0718-1.9182-0.29766-1.9182-0.17721 0-0.67775-0.0711-1.1123-0.15802l-0.7901-0.15802-0.18881 1.9161c-0.21461 2.178-0.0651 2.4176 1.4383 2.3054l0.92605-0.0691zm8.9974 1.7157c0.11807-0.11807-0.55391-3.5958-0.72455-3.7498-0.0524-0.0473-0.48228-0.0271-0.95523 0.0449-0.84213 0.12826-0.85982 0.15905-0.85628 1.49 2e-3 0.74746 0.0789 1.6403 0.17091 1.984 0.14892 0.55634 0.28167 0.60963 1.2089 0.48527 0.57286-0.0768 1.0932-0.19133 1.1563-0.25443zm-12.083-0.79892c0.15777-0.47804 0.26995-1.1626 0.2493-1.5214-0.0206-0.35871 0.0448-0.84491 0.14551-1.0804 0.13113-0.30675 0.01-0.47462-0.42721-0.5917-0.99162-0.26558-1.7997-0.19444-1.8179 0.16006-9e-3 0.1819-0.16886 1.0451-0.35448 1.9182l-0.33749 1.5875 0.68521 0.16714c1.3403 0.32691 1.5635 0.25004 1.8571-0.63941zm4.2521 0.2747c0-0.15029 0.18293-0.40702 0.40652-0.57051 0.22358-0.16349 0.57054-0.77192 0.77102-1.3521l0.36452-1.0548-0.92987-0.0837c-0.51142-0.046-0.9657-0.046-1.0095 0-0.0438 0.046-0.16498 0.88902-0.26926 1.8733-0.16799 1.5856-0.14081 1.7709 0.23849 1.6253 0.23545-0.0904 0.42809-0.28724 0.42809-0.43753zm4.8061-1.364-0.0887-1.7458h-2.2992l0.24611 0.85815c0.13537 0.47198 0.24612 0.88456 0.24612 0.91684 0 0.22179 1.6756 1.9061 1.8126 1.822 0.0945-0.058 0.13186-0.89106 0.0831-1.8512zm5.8558 1.4353c0.11595-0.10428 0.0158-1.0469-0.22247-2.0947-0.35354-1.5544-0.4998-1.8499-0.79455-1.6052-0.19868 0.16489-0.47478 0.22964-0.61354 0.14388-0.13876-0.0858-0.44829-0.0807-0.68784 0.0112-0.36238 0.13906-0.4072 0.41698-0.26679 1.6545 0.26997 2.3794 0.28062 2.3964 1.3941 2.2281 0.53914-0.0815 1.0751-0.2335 1.1911-0.33777zm-17.559-1.7354c0.33829-1.9426 0.17564-2.311-1.1305-2.5607-0.61302-0.11719-0.78573-0.027-0.99315 0.51854-0.1381 0.36322-0.27016 0.97344-0.29346 1.356s-0.15443 0.84445-0.29137 1.0264c-0.31909 0.42384 0.18241 1.0536 0.95949 1.2049 1.4153 0.2755 1.435 0.25811 1.749-1.5451zm20.311 1.053c0.24975-0.24975 0.21888-0.68785-0.14124-2.0044-0.48695-1.7803-0.46319-1.7645-2.1093-1.404-0.42294 0.0926-0.5707 0.27312-0.48124 0.58787 0.071 0.24981 0.26388 1.1343 0.4286 1.9656l0.2995 1.5114 0.84202-0.16841c0.46311-0.0926 0.98585-0.31222 1.1616-0.48801zm-23.842-0.31992c0.30571-0.20645 0.90278-2.3234 0.90278-3.2009 0-0.67316-1.4095-1.0457-1.942-0.51325-0.47368 0.47368-1.0968 3.1039-0.80155 3.3832 0.19152 0.18115 0.65956 0.34546 1.4206 0.49871 0.0728 0.0146 0.26182-0.0608 0.42014-0.16775zm27.039-0.44595c0.0901-0.0901-0.1247-0.99569-0.47728-2.0125-0.48978-1.4124-0.73651-1.8117-1.0455-1.692-0.22246 0.0862-0.73499 0.22335-1.139 0.30487-0.5173 0.10439-0.698 0.27495-0.61107 0.57679 0.0679 0.23571 0.26166 0.96435 0.43059 1.6192 0.16892 0.65484 0.37004 1.2935 0.44692 1.4193 0.14751 0.24131 2.1155 0.0641 2.3953-0.21566zm-29.576-1.1143c0-0.20626 0.23812-0.84178 0.52916-1.4123 0.29105-0.57049 0.52917-1.1076 0.52917-1.1936 0-0.17953-1.6982-0.92308-2.1082-0.92308-0.15019 0-0.27308 0.13083-0.27308 0.29074s-0.16186 0.66592-0.35969 1.1245c-1.0234 2.372-1.0262 2.207 0.0447 2.6372 1.0244 0.41157 1.6379 0.2155 1.6379-0.52346zm32.37-0.0747c0.12262-0.1223 0.0673-0.50305-0.12292-0.84609-0.19022-0.34305-0.35516-0.68325-0.36652-0.75601-0.0114-0.0728-0.17085-0.57031-0.35442-1.1057l-0.33376-0.97339-0.97787 0.33855c-0.53783 0.18621-0.97786 0.44563-0.97784 0.57651s0.23405 1.0325 0.52006 2.0036l0.52001 1.7656 0.93516-0.39039c0.51433-0.21472 1.0355-0.49047 1.1581-0.61278zm-34.706-1.9329c0.33163-0.9095 0.60591-1.7121 0.60953-1.7834 4e-3 -0.0714-0.40837-0.32573-0.91552-0.5652l-0.92209-0.43539-0.73155 1.5733c-0.8866 1.9067-0.90633 2.282-0.13624 2.5916 1.2313 0.49492 1.4691 0.33826 2.0959-1.3808zm36.567 1.2532c0.5271-0.22023 0.95836-0.52526 0.95836-0.67784 0-0.23347-1.252-3.1005-1.475-3.3777-0.11637-0.14464-0.99633 0.20459-1.5207 0.6035-0.46565 0.35427-0.46579 0.41264-4e-3 1.7127 0.26292 0.74028 0.56916 1.346 0.68052 1.346 0.11137 0 0.20248 0.17859 0.20248 0.39687 0 0.4871-0.0161 0.48715 1.1583-4e-3zm-19.423-0.72405c0.17337-0.43133 0.2439-0.47207 0.25606-0.14791 9e-3 0.24607 0.10606 0.49892 0.2152 0.56188 0.41138 0.23731 6.1197-0.33952 8.4036-0.84919 2.639-0.5889 6.0574-1.6792 7.6534-2.4409 0.57304-0.27351 1.1413-0.4973 1.2628-0.4973 0.18253 0 2.4758-1.2971 4.8248-2.7288 3.9883-2.431 9.7744-8.0516 12.238-11.888 4.32-6.7268 6.437-13.038 7.1006-21.168 0.14692-1.7999 0.1138-2.0505-0.27097-2.0505-0.40684 0-0.40706-0.0313-3e-3 -0.43531 0.32822-0.32822 0.40018-0.73505 0.29251-1.6536-0.0785-0.67008-0.21721-1.9922-0.30815-2.9381-0.37474-3.8976-1.8554-9.0402-3.6869-12.805-1.7454-3.5877-1.9794-3.9807-3.954-6.6422-7.919-10.674-18.558-16.547-31.569-17.43-2.1151-0.14349-2.1839-0.12988-2.2188 0.43895l-0.036 0.58703-0.11467-0.59531c-0.0631-0.32742-0.19567-0.59522-0.29469-0.59509-0.099 1.2e-4 -1.4897 0.11924-3.0905 0.2647-4.2604 0.38717-8.9354 1.4579-11.774 2.6966-4.5343 1.9787-5.0897 2.294-10.113 5.7389-2.2202 1.5227-5.9314 5.2546-7.7709 7.8142-0.6361 0.88513-1.4151 1.9428-1.731 2.3503-1.1705 1.5098-3.8768 6.9252-4.6347 9.2742-0.24167 0.74903-0.53224 1.6-0.64572 1.891-0.65151 1.671-1.3222 5.5744-1.6935 9.8557-0.14997 1.7295-0.1192 1.9212 0.31271 1.9489 0.46212 0.0296 0.46212 0.0351-2e-4 0.15482-0.43212 0.11192-0.46188 0.33652-0.30273 2.2844 0.75718 9.2672 3.8695 17.179 9.6195 24.453 1.1092 1.4033 6.7341 6.619 7.4343 6.8936 0.38737 0.1519 0.70868 0.38278 1.433 1.0297 0.79204 0.70743 5.7591 3.3236 7.9762 4.2011 4.0174 1.5901 9.5435 2.7504 14.213 2.9844 0.53601 0.0269 0.80118-0.12495 0.97542-0.55842zm-19.727-1.8274 0.74771-1.629-0.62651-0.48181c-1.0055-0.77325-1.4154-0.59397-2.441 1.0677-0.53 0.85868-0.96365 1.6288-0.96365 1.7113 0 0.25848 1.4293 0.93907 1.9955 0.95017 0.40844 8e-3 0.72268-0.38685 1.288-1.6184zm41.431 1.3644c0-0.14552 0.0893-0.24568 0.19844-0.22258 0.38034 0.0805 1.1245-0.36546 1.1245-0.6739 0-0.17089-0.41936-0.98114-0.93192-1.8006l-0.93191-1.4899-0.85402 0.41439c-0.46971 0.22791-0.90497 0.45693-0.96724 0.50893-0.22832 0.19067 1.6768 3.5282 2.0139 3.5282 0.19155 0 0.34826-0.11906 0.34826-0.26458zm-43.831-3.2113 0.71428-1.2188-0.65743-0.43077c-0.36158-0.23692-0.81782-0.43076-1.0138-0.43076-0.36533 0-1.5143 1.3725-1.5143 1.809 0 0.1336-0.17859 0.39112-0.39687 0.57228-0.58271 0.48361-0.49393 0.74251 0.45186 1.3177 0.80376 0.48879 0.87135 0.49187 1.2754 0.0582 0.23465-0.25187 0.74807-1.0064 1.1409-1.6768zm46.938 1.4851c0.47202-0.28751 0.85897-0.64249 0.85989-0.78885 3e-3 -0.40306-1.6845-3.0261-1.9515-3.0341-0.12834-4e-3 -0.63849 0.24334-1.1336 0.54937l-0.9003 0.55642 0.71521 1.2295c1.1457 1.9695 1.276 2.161 1.4177 2.0837 0.0739-0.0403 0.52056-0.30849 0.99259-0.596zm-49.941-2.2425c0.30781-0.25392 1.3825-1.8831 1.2882-1.953-0.0522-0.0387-0.4571-0.31995-0.89965-0.6249l-0.80464-0.55445-1.229 1.5359-1.229 1.5359 0.95767 0.68139 0.95766 0.68139 0.39921-0.58498c0.21957-0.32173 0.47138-0.6445 0.55959-0.71726zm53.406-0.1675c0.12521-0.0787-2.1031-3.0075-2.2882-3.0075-0.0826 0-0.52772 0.25863-0.98905 0.57473l-0.83876 0.57473 2.174 3.2723 0.92604-0.67883c0.50933-0.37336 0.96655-0.70431 1.016-0.73545zm-54.52-3.5094c-0.0435-0.22596-0.36359-0.55266-0.71126-0.726-0.79198-0.39484-1.188-0.16229-2.3804 1.398l-0.90058 1.1783 0.58021 0.4064c0.31912 0.22352 0.72299 0.55924 0.8975 0.74605 0.25339 0.27126 0.54646 0.0445 1.4555-1.1261 0.62601-0.80617 1.1026-1.6506 1.0591-1.8766zm56.699 1.8248c0.46149 0 0.2287-0.39964-1.057-1.8146l-1.2882-1.4178-0.82188 0.60764c-0.45204 0.3342-0.82189 0.64104-0.82189 0.68187 0 0.0408 0.49135 0.79022 1.0919 1.6653l1.0919 1.5911 0.7805-0.65674c0.42927-0.36121 0.89042-0.65675 1.0248-0.65675zm-58.766-3.4035c-0.0119-0.23753-0.56751-0.89492-1.1297-1.3365-0.43053-0.33821-0.61255-0.24017-1.8826 1.0141l-1.406 1.3885 0.93729 0.91028 0.93729 0.91029 1.276-1.3591c0.70181-0.74752 1.2722-1.4349 1.2676-1.5275zm60.333 1.8207 0.92605-0.77485-1.3628-1.3714-1.3628-1.3714-0.82003 0.58391c-0.45101 0.32115-0.82002 0.68264-0.82002 0.80332 0 0.25016 2.1794 2.9113 2.3812 2.9077 0.0728-1e-3 0.54901-0.35105 1.0583-0.77722zm-63.498-2.5202 1.4391-1.4572-1.6558-1.6558-3.0336 3.0095 0.74762 0.78035c0.41119 0.42919 0.81871 0.78035 0.9056 0.78035 0.0869 0 0.80557-0.65574 1.5971-1.4572zm66.408-0.46996c0-0.31462-2.4367-2.5469-2.7948-2.5602-0.15467-6e-3 -0.62512 0.34844-1.0454 0.78715l-0.76421 0.79766 2.8631 2.8991 0.87068-0.84389c0.47887-0.46414 0.87067-0.95003 0.87067-1.0798zm-66.94-3.0766c0-0.1039-0.33089-0.50592-0.73531-0.89338l-0.73531-0.70447-1.5301 1.2009c-0.84156 0.66051-1.4929 1.2961-1.4475 1.4124 0.0454 0.11632 0.37547 0.57515 0.73344 1.0196l0.65084 0.80814 1.532-1.3272c0.84258-0.72994 1.532-1.4122 1.532-1.5161zm68.165 1.5304 0.85378-0.82752-1.5751-1.184c-1.6672-1.2532-1.9878-1.2542-2.6547-8e-3 -0.22648 0.42319-0.0655 0.69009 1.0066 1.6696 0.70192 0.64122 1.3301 1.1685 1.3959 1.1717 0.0658 3e-3 0.5039-0.36655 0.97348-0.82168zm-70.484-3.2394c0.30988-0.47612 0.23708-0.8588-0.28633-1.5052l-0.48883-0.60367-1.6197 1.1362c-1.7259 1.2106-1.7754 1.4157-0.65263 2.705 0.35653 0.40941 0.48094 0.37138 1.6196-0.49508 0.67839-0.5162 1.3209-1.073 1.4278-1.2372zm72.399 0.75966c0.30051-0.50933 0.43548-0.92605 0.29993-0.92605s-0.63755-0.33972-1.1156-0.75495c-1.5954-1.3859-1.8639-1.4303-2.5275-0.41799l-0.58847 0.89772 1.3456 1.0636c0.74009 0.58501 1.5018 1.0637 1.6926 1.0637s0.59286-0.41672 0.89336-0.92604zm-73.814-3.0849c0.34705-0.26785 0.52564-0.48775 0.39687-0.48867-0.12876-9.2e-4 -0.4321-0.34968-0.67407-0.77501-0.53127-0.93384-1.0699-0.86462-2.9255 0.37593-1.2375 0.82733-1.2448 0.84069-0.80299 1.4777 0.90284 1.3018 0.9188 1.306 2.1841 0.5801 0.65484-0.37568 1.4746-0.90221 1.8216-1.1701zm75.401 0.76977 0.54519-0.85989-0.84126-0.65947c-0.46269-0.36271-1.2106-0.8574-1.6619-1.0993-0.79083-0.42386-0.8344-0.41912-1.1993 0.1303-0.77806 1.1715-0.73139 1.31 0.78959 2.3432 0.81267 0.55207 1.5552 1.004 1.65 1.0044 0.0948 3.4e-4 0.41779-0.38633 0.71764-0.85927zm-78.281-2.3986c1.6292-0.97999 1.8352-1.4047 1.1135-2.296l-0.49673-0.61345-1.3665 0.61758c-0.75156 0.33966-1.3665 0.7154-1.3665 0.83498s-0.16902 0.21742-0.37559 0.21742c-0.31771 0-0.31152 0.1631 0.0401 1.0583 0.22865 0.58209 0.54649 1.0578 0.70632 1.0572s0.94521-0.39485 1.7453-0.8761zm79.756-0.22705c0.22749-0.45602 0.41362-0.96753 0.41362-1.1367 0-0.16915-0.68121-0.59734-1.5138-0.95154-0.83259-0.35421-1.6048-0.68313-1.716-0.73094-0.11121-0.0478-0.35031 0.24985-0.53134 0.66147-0.18102 0.41161-0.44717 0.83121-0.59144 0.93244-0.31437 0.22057-0.39078 0.15412 1.55 1.3478 0.85966 0.52876 1.6558 0.90404 1.7692 0.83396 0.11339-0.0701 0.3923-0.50053 0.6198-0.95656zm-81.094-2.392c0.95459-0.46774 1.7705-0.86972 1.8131-0.89328 0.19151-0.10587-0.86758-1.9602-1.1187-1.9587-0.15495 9.6e-4 -0.63891 0.2383-1.0755 0.52742-0.43657 0.28913-1.0471 0.52647-1.3567 0.52743-0.93673 3e-3 -1.1557 0.5431-0.671 1.6554 0.2378 0.54571 0.48653 0.99219 0.55273 0.99219s0.90139-0.3827 1.856-0.85046zm82.425-0.45553c0.36086-0.69783 0.35963-0.81889-0.0121-1.1906-0.22759-0.2276-0.55872-0.41381-0.73584-0.41381s-0.7672-0.22696-1.3113-0.50436l-0.98926-0.50436-0.51223 1.0041-0.51223 1.004 1.5117 0.67351c1.9414 0.86499 2.0805 0.86127 2.5613-0.0685zm-83.028-2.4579 1.3655-0.63946-0.43947-0.94664c-0.4025-0.867-0.49512-0.92332-1.1009-0.66942-0.3638 0.15248-0.8249 0.31068-1.0247 0.35156-0.9829 0.20112-1.8858 0.75137-1.8858 1.1493 0 0.24437 0.14554 0.7527 0.32341 1.1296 0.35731 0.75713 0.33922 0.75958 2.7619-0.37494zm83.934 0.25816c0.65115-1.7406 0.68553-1.6668-1.0898-2.341-0.91274-0.34665-1.7418-0.6688-1.8423-0.71589-0.20063-0.094-0.89476 2.0032-0.71951 2.1738 0.0827 0.0806 2.9726 1.3337 3.3562 1.4553 0.04 0.0127 0.17291-0.24483 0.2954-0.57226zm-84.417-3.1591c0.0485-0.11788 0.26633-0.21433 0.48404-0.21433 0.30804 0 0.35494-0.19075 0.21142-0.8599-0.10143-0.47294-0.23724-0.94961-0.30179-1.0592-0.19548-0.33207-3.26 0.24817-3.26 0.61725 0 0.13396-0.17859 0.24356-0.39687 0.24356-0.46885 0-0.47756 0.0958-0.12435 1.3674l0.26957 0.97058 1.5149-0.42552c0.83319-0.23403 1.5546-0.52196 1.6031-0.63984zm85.719-0.41277c0.23032-0.69023 0.21569-0.8599-0.0741-0.8599-0.19859 0-0.40075-0.0939-0.44926-0.20865-0.0485-0.11477-0.7589-0.39263-1.5786-0.61748l-1.4905-0.40883-0.28892 0.94137c-0.33534 1.0927-0.21493 1.2118 1.9419 1.9207 1.4706 0.48336 1.5301 0.45982 1.9395-0.76721zm-89.115-1.6188c0-0.12636 0.44649-0.2929 0.99219-0.3701s1.334-0.27398 1.7518-0.43731c0.67486-0.26385 0.74093-0.39006 0.59255-1.132-0.0919-0.45925-0.21763-0.88564-0.27951-0.94752-0.23833-0.23833-3.8316 0.56863-3.9542 0.888-0.17744 0.46242 0.33379 2.2286 0.64509 2.2286 0.13868 0 0.25214-0.10339 0.25214-0.22975zm89.785-1.024c0.21271-1.3108-0.12848-1.5996-2.1259-1.7995l-1.6377-0.16389-0.17999 0.95943c-0.099 0.52769-0.11624 1.0232-0.0383 1.1011 0.20302 0.20303 2.596 0.8403 3.2607 0.86835 0.44886 0.0189 0.59271-0.17364 0.72121-0.96548zm-86.875-3.0333c4e-5 -0.86331-0.60201-1.827-1.0371-1.6601-0.22753 0.0873-1.01 0.22101-1.7388 0.29711-0.72883 0.0761-1.4189 0.22808-1.5336 0.33772-0.11463 0.10964-0.13276 0.67253-0.0403 1.2509l0.16814 1.0515 2.0908-0.41327c1.631-0.32239 2.0908-0.51235 2.0908-0.86384zm87.465-0.0909c0.0968-0.51611 0.11487-0.99955 0.0401-1.0743-0.17883-0.17882-3.6803-0.67278-3.8149-0.53817-0.0572 0.0572-0.17045 0.51332-0.25163 1.0136-0.14674 0.90425-0.14018 0.91111 1.1358 1.187 2.4158 0.52228 2.6929 0.4659 2.8907-0.58804zm-88.567-2.2744c0.0485-0.12472 0.23296-0.22676 0.40989-0.22676 0.21186 0 0.28479-0.31618 0.21359-0.92604-0.1201-1.0287-0.35273-1.092-2.786-0.75853-1.1266 0.15442-1.235 0.23586-1.3861 1.0412-0.0901 0.48051-0.0826 1.0052 0.0168 1.166 0.20932 0.33869 3.3886 0.0724 3.5318-0.29587zm88.944-0.88822v-1.1906h-1.9844c-1.7798 0-1.9844 0.0523-1.9844 0.50752 0 0.27914-0.0668 0.68165-0.14848 0.89447-0.1105 0.28797 0.17707 0.45467 1.1245 0.65182 0.70013 0.14568 1.6599 0.27896 2.1329 0.29616 0.84738 0.0308 0.85989 0.0139 0.85989-1.1594zm-89.363-1.6977c0.95907-0.0213 0.99218-0.0539 0.99218-0.9764 0-0.76154-0.0846-0.9219-0.41851-0.79375-0.23018 0.0883-0.56593 0.1606-0.7461 0.1606-0.3196 0-2.0104 1.3734-2.0104 1.633 0 0.0718 0.26789 0.10091 0.59532 0.0646 0.32742-0.0363 1.0418-0.0759 1.5875-0.0881zm88.834-0.14899c0-0.20072-2.7416-1.7199-3.1089-1.7227-0.19021-1e-3 -0.33073 0.32829-0.33073 0.77605 0 0.72365 0.0793 0.78568 1.1245 0.87982 2.0808 0.18742 2.3151 0.19418 2.3151 0.0668zm-87.842-3.8058c0-1.0157-8e-3 -1.0235-1.2276-1.1906-1.8075-0.24774-2.7979-0.20949-2.6062 0.10064 0.0914 0.1479 0.27703 0.2004 0.41249 0.11668 0.13547-0.0837 0.2463 0.0248 0.2463 0.24109 0 0.5903 1.618 1.7483 2.4474 1.7516 0.66872 3e-3 0.7276-0.0798 0.7276-1.0194zm86.049 0.72603c0.73546-0.39361 2.3219-1.8472 2.3219-2.1275 0-0.21504-3.3697-0.0182-3.7703 0.22027-0.10914 0.0649-0.19844 0.58732-0.19844 1.1608 0 0.87739 0.0867 1.0427 0.54657 1.0427 0.3006 0 0.79573-0.13335 1.1003-0.29634zm-90.717-3.6842c0.28331-2.7591 0.70942-5.0027 1.387-7.303 0.34921-1.1855 0.63492-2.2962 0.63492-2.4684 0-0.54508 1.3138-3.7473 2.6622-6.4887 3.1014-6.3054 8.102-12.472 13.081-16.131 1.1642-0.85551 2.2357-1.6911 2.3812-1.8569s0.44318-0.3837 0.66146-0.4842 1.1112-0.59831 1.9844-1.1062c5.8917-3.4275 12.847-5.7066 19.37-6.3475 1.2196-0.11982 2.0304-0.33645 2.249-0.60081 0.30739-0.37184 0.0929-0.3947-2.1326-0.22729-7.4599 0.56114-16.461 3.8299-22.322 8.1062-0.99297 0.72449-1.8777 1.3173-1.9662 1.3173-0.23326 0-1.9887 1.5779-4.8217 4.334-2.3157 2.2529-5.7296 6.4191-6.7469 8.2337-0.24475 0.43656-0.6985 1.2105-1.0083 1.7198-0.64914 1.0671-2.8615 5.4977-2.8615 5.7306 0 0.0859-0.46211 1.4213-1.0269 2.9675-1.1309 3.096-2.0584 7.3841-2.3656 10.937-0.18512 2.141-0.16855 2.2717 0.23337 1.8403 0.25415-0.27281 0.505-1.169 0.60802-2.1724zm94.229-2.459c-0.49503-3.3848-1.0587-5.6087-2.3244-9.1708-0.93556-2.633-3.0522-7.06-4.2378-8.8635-0.95253-1.449-2.8582-4.1468-3.2707-4.6302-0.18627-0.21828-0.78844-0.93253-1.3381-1.5872-1.3392-1.595-5.6736-5.8211-5.9701-5.8211-0.12992 0-0.55893-0.30458-0.95335-0.67685-0.39442-0.37226-0.96917-0.81875-1.2772-0.99218-0.30806-0.17344-1.3736-0.86814-2.368-1.5438-3.8708-2.6302-9.6985-5.0895-14.766-6.2313-3.3218-0.74845-8.3054-1.4101-8.481-1.126-0.23881 0.38642 0.57696 0.73389 2.1248 0.90507 5.8526 0.64723 10.907 2.1071 16.007 4.6233 5.6224 2.7738 7.6055 4.1981 12.634 9.0738 1.2005 1.1641 2.1828 2.2068 2.1828 2.3172 0 0.11035 0.1942 0.36181 0.43156 0.5588 0.48152 0.39962 3.5372 4.3567 3.5372 4.5807 0 0.0785 0.39617 0.77017 0.88039 1.537 2.2463 3.5573 4.1634 8.2964 5.4339 13.433 0.26124 1.0561 1.094 6.4286 1.094 7.0577 0 0.13363 0.20836 0.5016 0.46302 0.81771l0.46302 0.57475 0.0835-0.94124c0.0459-0.51768-0.11084-2.2702-0.34839-3.8944zm-89.445 2.8632c0.096-0.5118 0.11261-1.0308 0.0369-1.1533-0.0757-0.12253-0.92702-0.30365-1.8918-0.40249-2.004-0.20531-2.4941 0.0287-2.4941 1.1908 0 0.9158 0.72933 1.1801 2.5169 0.91201 0.77264-0.11587 1.1872-0.08 1.1872 0.10276 0 0.68277 0.4869 0.19217 0.64485-0.64975zm87.528 0.43038c0.7706-0.0307 0.91272-0.50129 0.55494-1.8375-0.13989-0.52248-0.29251-0.59666-0.98857-0.48051-0.45273 0.0756-1.3292 0.21523-1.9476 0.31039-0.92472 0.14229-1.1238 0.27466-1.1204 0.74509 8e-3 1.0759 0.58207 1.4692 1.9803 1.3559 0.43656-0.0354 1.1212-0.0774 1.5214-0.0934zm-87.097-3.5094 0.15571-0.96683-1.9494-0.28994c-1.0722-0.15947-2.0501-0.28994-2.1732-0.28994-0.30046 0-0.50543 1.4935-0.25957 1.8913 0.21678 0.35076 2.0554 0.72136 3.28 0.66113 0.69528-0.0342 0.8095-0.15556 0.94641-1.0057zm87.476 0.47721c0.0506-0.0506-6e-3 -0.55642-0.12608-1.1241-0.24002-1.1361-0.12925-1.1075-2.8991-0.74813-0.9136 0.11852-1.3891 0.30453-1.3891 0.54342 0 0.19977 0.10256 0.36321 0.2279 0.36321s0.16737 0.31661 0.0934 0.70357l-0.13449 0.70357 2.0678-0.17479c1.1373-0.0961 2.1091-0.21617 2.1597-0.26676zm-86.984-3.0012c0.14842-0.53752 0.24331-0.98966 0.21087-1.0048-1.3051-0.60744-3.952-1.5122-4.0419-1.3817-0.14939 0.21692-0.59813 2.4427-0.51021 2.5307 0.10272 0.10271 3.0475 0.73161 3.7531 0.80152 0.17506 0.0173 0.43972-0.40825 0.58814-0.94577zm86.256-0.82197c-0.11303-0.50119-0.30616-1.0119-0.42918-1.1349-0.32386-0.32386-3.7862 0.57085-3.7862 0.9784 0 0.18538 0.121 0.41185 0.2689 0.50325 0.14789 0.0914 0.19687 0.28273 0.10884 0.42516-0.088 0.14243-0.0994 0.417-0.0253 0.61015 0.11082 0.28878 0.4842 0.27815 2.1016-0.0598l1.9669-0.41098zm-85.52-1.7447c0.15161-0.494 0.20136-1.0117 0.11054-1.1504-0.20401-0.31161-3.516-1.3953-3.7751-1.2352-0.27106 0.16753-0.83462 1.9701-0.66802 2.1367 0.10692 0.10692 2.7726 0.86748 3.9029 1.1135 0.0847 0.0185 0.2781-0.37065 0.42971-0.86465zm82.699 0.44861c0.40321-0.0814 0.79719-0.25162 0.87551-0.37835 0.0783-0.12672 0.38321-0.23041 0.67753-0.23041 0.46757 0 0.51697-0.12527 0.39126-0.99218-0.0791-0.54571-0.14838-1.0734-0.15388-1.1726-0.0186-0.33653-2.8708 0.28887-3.6698 0.80468-0.54167 0.34971 0.14688 2.5037 0.72836 2.2786 0.22982-0.089 0.74776-0.22837 1.151-0.30973zm-81.58-3.6072c0.23633-0.62159 0.16854-0.68809-1.2558-1.2317-0.82805-0.31605-1.6947-0.67321-1.9259-0.79369-0.30946-0.16125-0.53634-0.0227-0.85989 0.52499-0.72126 1.221-0.56806 1.4682 1.3439 2.1686 1.9362 0.70921 2.1987 0.64418 2.6977-0.66818zm81.508 0.45495c1.1686-0.3498 1.4035-0.76798 1.0228-1.8208-0.33377-0.92302-0.68941-1.1354-1.1683-0.69755-0.13824 0.12639-0.8169 0.44022-1.5081 0.6974-1.3027 0.48472-1.4269 0.70758-1.008 1.8094 0.2621 0.68938 0.39519 0.68995 2.6616 0.0115zm-80.443-3.3682c5e-3 -0.28059-0.23097-0.55064-0.55645-0.63575-0.31121-0.0814-1.0914-0.42743-1.7338-0.76898-0.64238-0.34156-1.2196-0.62102-1.2827-0.62102-0.1379 0-0.91559 1.821-0.91559 2.1439 0 0.12498 0.32742 0.3032 0.7276 0.39604 0.40018 0.0928 0.97446 0.3222 1.2762 0.50968 1.3436 0.83489 2.4579 0.37573 2.4848-1.0239zm80.665 0.19014c0.19545-0.12882-0.63705-2.0254-0.94009-2.1417-0.23949-0.0919-2.6298 1.0518-3.4612 1.656-0.0426 0.031 0.12049 0.4715 0.36247 0.97893l0.43996 0.9226 1.7542-0.67814c0.96481-0.37298 1.7949-0.70497 1.8446-0.73775zm-79.494-2.0677 0.40144-0.77783-1.2448-0.83381c-0.68464-0.4586-1.5592-0.91124-1.9433-1.0059-0.60877-0.14993-0.75503-0.053-1.1383 0.75468-0.45628 0.96154-0.37446 1.45 0.24288 1.45 0.19756 0 0.3989 0.0893 0.4474 0.19844 0.14781 0.33256 2.4569 1.3454 2.6514 1.1629 0.10004-0.0939 0.36255-0.52074 0.58335-0.94854zm76.711 0.037 1.6746-0.87314-0.61445-0.97088c-0.69243-1.0941-0.79648-1.0866-2.8142 0.20362-1.1682 0.74697-1.5432 1.1906-1.0064 1.1906 0.12975 0 0.31061 0.29766 0.40192 0.66146 0.0913 0.3638 0.28256 0.66146 0.42499 0.66146 0.14244 0 1.0126-0.39292 1.9336-0.87314zm-75.389-2.323c0.39233-0.78645 0.38149-0.8366-0.31135-1.4397-0.39482-0.34369-1.179-0.83513-1.7426-1.0921-1.0186-0.46442-1.0277-0.46347-1.5325 0.15984-0.27926 0.34488-0.47276 0.80875-0.42999 1.0308 0.0799 0.41471 2.7406 2.1529 3.2985 2.1549 0.17125 6.1e-4 0.49428-0.36558 0.71785-0.81374zm73.37 0.24587c0.55402-0.31293 1.2796-0.7353 1.6125-0.93861l0.60518-0.36964-0.58776-1.0458c-0.32326-0.57518-0.68971-1.0458-0.81433-1.0458-0.12461 0-0.6087 0.26789-1.0758 0.59531-1.7542 1.2298-2.3051 1.7543-2.0245 1.9277 0.15505 0.0958 0.39068 0.46032 0.52363 0.80999 0.29651 0.7799 0.48583 0.78708 1.761 0.0668zm-71.771-2.4834c0.42752-0.65249 0.41576-0.69649-0.42467-1.5875-0.47541-0.50403-0.97763-0.91641-1.1161-0.91641-0.13842 0-0.4812-0.20772-0.76174-0.46161-0.48966-0.44313-0.53542-0.42991-1.144 0.33073-0.34867 0.43579-0.62978 0.9114-0.6247 1.0569 0.0127 0.36497 2.6662 2.2195 3.1988 2.2358 0.23793 7e-3 0.63046-0.28879 0.87231-0.65789zm69.808 0.14192c0.37-0.29104 0.78202-0.52917 0.9156-0.52917s0.51532-0.28999 0.8483-0.64444l0.60542-0.64444-0.57732-0.81077c-0.31752-0.44592-0.64727-0.81076-0.73276-0.81076-0.40483 0-2.9835 2.171-2.9835 2.5118 0 0.27907 0.85136 1.457 1.0531 1.457 0.10916 0 0.5012-0.23813 0.8712-0.52917zm-68.163-2.3151 0.58871-0.72761-1.4932-1.3891c-0.82123-0.76398-1.5579-1.3805-1.6371-1.37-0.0792 0.0105-0.47359 0.41634-0.87648 0.90184l-0.73253 0.88274 0.80568 0.61951c0.44313 0.34074 1.13 0.88364 1.5263 1.2065 0.93388 0.76068 1.1127 0.74849 1.8186-0.12393zm67.324-0.48426 1.5749-1.2119-0.73511-0.8857c-0.40431-0.48713-0.79464-0.88914-0.8674-0.89334-0.0728-4e-3 -0.77291 0.56631-1.5559 1.2678l-1.4236 1.2755 0.61345 0.82974c0.3374 0.45635 0.65964 0.82973 0.71608 0.82973 0.0564 0 0.81134-0.54534 1.6775-1.2119zm-66.144-3.913-1.5701-1.5701-1.8428 2.0115 3.2513 2.7986 0.86578-0.83495 0.86579-0.83495zm64.784 1.3299 1.124-1.0168-1.7515-1.8071-1.157 1.1266c-1.6915 1.647-1.7938 1.9284-0.99252 2.7296 0.76428 0.76427 0.80971 0.74738 2.777-1.0324zm-62.04-0.96273 0.75584-0.78893-1.4838-1.5556-1.4838-1.5556-1.6865 1.74 1.3945 1.4745c0.76698 0.81097 1.474 1.4745 1.5712 1.4745 0.0972 0 0.51683-0.35501 0.93254-0.78892zm59.725-0.72249c0.69622-0.68575 1.2659-1.3345 1.2659-1.4417s-0.41931-0.51474-0.9318-0.90564c-0.91728-0.69964-0.94041-0.70294-1.4844-0.2119-0.3039 0.27435-0.91949 0.96154-1.368 1.5271l-0.81542 1.0283 0.72703 0.62536c0.39987 0.34395 0.86513 0.62537 1.0339 0.62537 0.16878 0 0.87652-0.56107 1.5727-1.2468zm-57.787-0.99375c0.53937-0.5688 0.57023-0.71505 0.26459-1.254-0.52264-0.92167-1.9156-2.835-2.0658-2.8376-0.0728-1e-3 -0.52467 0.35457-1.0042 0.79074l-0.87195 0.79303 1.3746 1.5805c0.75605 0.86925 1.4461 1.5784 1.5334 1.5759 0.0873-2e-3 0.43352-0.29432 0.76933-0.64846zm55.441-1.0612 1.2515-1.4496-1.7078-1.5259-2.6074 3.1205 0.75813 0.652c0.41698 0.35861 0.82473 0.65215 0.90611 0.65233 0.0814 1.8e-4 0.71116-0.65201 1.3995-1.4493zm-53.142-0.73319 0.6899-0.59531-1.2303-1.6536c-0.67666-0.9095-1.3079-1.6499-1.4028-1.6453-0.0949 5e-3 -0.50771 0.30328-0.91747 0.66374l-0.74501 0.65538 0.5633 0.72532c1.2447 1.6027 1.9914 2.4451 2.1673 2.4451 0.10184 0 0.49562-0.26789 0.87506-0.59531zm51.373-1.5798c0.34009-0.46096 0.61834-0.91166 0.61834-1.0015 0-0.0899-0.36743-0.43507-0.8165-0.76709l-0.81651-0.60367-0.6387 0.60003c-0.35129 0.33002-0.64299 0.72811-0.64822 0.88464-5e-3 0.15654-0.29259 0.63084-0.63857 1.054l-0.62906 0.76939 0.83701 0.57481 0.83701 0.57482 0.63843-0.62364c0.35113-0.343 0.91668-1.0008 1.2568-1.4618zm-49.309 0.15708c0.46571-0.23679 0.88498-0.46353 0.93171-0.50387 0.12587-0.10869-1.6033-3.4034-1.8889-3.5991-0.29049-0.19904-2.2971 0.82045-2.2971 1.1671 0 0.25881 2.1236 3.3664 2.3004 3.3664 0.0589 0 0.48813-0.19373 0.95385-0.43052zm45.575-0.0366c0.15306-0.10691 0.66755-0.77846 1.1433-1.4923l0.86505-1.298-0.74645-0.61013c-0.41055-0.33557-0.86551-0.57763-1.011-0.5379-0.40633 0.11092-1.9844 2.5538-1.9844 3.072 0 0.25235 0.2679 0.58803 0.59532 0.74594 0.7362 0.35506 0.79359 0.36113 1.1382 0.12043zm-42.606-2.3963c-0.13424-0.54497-0.98754-2.535-1.3615-3.1754-0.0275-0.0471-0.44805 0.1262-0.93451 0.38513-0.48647 0.25893-0.97378 0.44631-1.0829 0.41639-0.35852-0.0983-0.20719 0.66729 0.19844 1.0039 0.21828 0.18116 0.39688 0.43642 0.39688 0.56724s0.31095 0.70774 0.691 1.282c0.68786 1.0394 0.69459 1.0423 1.4791 0.63665 0.66881-0.34586 0.76167-0.51475 0.61356-1.116zm41.422-0.80777c0.40116-0.89488 0.44925-1.2417 0.21186-1.5278-0.16892-0.20353-0.36386-0.31331-0.43321-0.24397-0.0694 0.0693-0.29901-0.0468-0.51036-0.25819-0.60479-0.60478-0.79393-0.47692-1.4863 1.0048-1.0998 2.3536-1.1321 2.6253-0.30593 2.5702 0.078-5e-3 0.33641 0.18522 0.57435 0.42316 0.40042 0.40042 0.46973 0.38636 0.93161-0.18899 0.27445-0.34188 0.73255-1.1426 1.018-1.7793zm-39.316 0.61327 0.8685-0.41213-0.48062-0.99477c-0.26434-0.54712-0.56107-1.3153-0.65939-1.707-0.0983-0.39175-0.28755-0.7795-0.4205-0.86167-0.39479-0.24399-1.8405 0.17407-1.9951 0.57693-0.16575 0.43193 1.2411 3.8108 1.5867 3.8108 0.12753 0 0.62269-0.18546 1.1004-0.41213zm35.613-0.31547c0.20626-0.40018 0.43474-0.78714 0.50773-0.8599 0.26582-0.26497 1.1408-2.122 1.0351-2.197-0.32369-0.22979-1.6373-0.71345-1.9377-0.71345-0.29037 0-1.5848 2.8353-1.6045 3.5145-5e-3 0.18507 1.0797 0.89151 1.4706 0.95748 0.0846 0.0143 0.32249-0.30148 0.52875-0.70166zm-32.331-1.0228c0.15312-0.12717-1.0638-3.363-1.3981-3.7176-0.22106-0.23446-0.52537-0.21338-1.2663 0.0877l-0.97527 0.39633 0.70319 1.6321c0.93112 2.1611 1.0587 2.2835 2.0375 1.9541 0.43856-0.14757 0.84312-0.30628 0.89902-0.3527zm30.206-0.82924c0.33173-0.83674 0.70422-1.6544 0.82774-1.817 0.25186-0.33153-0.0672-0.63085-1.1784-1.1056-0.66291-0.2832-0.75708-0.25582-0.95986 0.27901-0.7625 2.0112-1.0863 3.2378-0.87353 3.3088 0.13443 0.0448 0.46966 0.25199 0.74496 0.46039 0.27529 0.20841 0.57601 0.38271 0.66824 0.38733 0.0922 5e-3 0.43913-0.67619 0.77087-1.5129zm-27.569 0.0346c0.0507-0.0356-0.11175-1.0087-0.36104-2.1625l-0.45326-2.0978-1.0942 0.32831c-1.0179 0.30543-1.0923 0.39223-1.0676 1.2456 0.0146 0.50452 0.22298 1.311 0.46302 1.7922 0.24003 0.48116 0.43643 1.024 0.43643 1.2063 0 0.25808 0.21963 0.26739 0.99218 0.042 0.54571-0.15919 1.0337-0.31853 1.0844-0.35409zm25.039-1.0929c0.23685-0.83674 0.49019-1.7258 0.56297-1.9756 0.12947-0.44432 8e-3 -0.50198-1.8009-0.85594-0.35178-0.0688-0.52957 0.26128-0.82797 1.5373-0.209 0.89372-0.42414 1.793-0.47808 1.9984-0.0572 0.21773 0.17775 0.45497 0.56339 0.56894 1.3873 0.40999 1.5302 0.31813 1.9806-1.2731zm-22.463-0.43525c-0.0873-0.45184-0.23316-1.3303-0.32408-1.9521-0.20182-1.3804-0.37827-1.5052-1.5709-1.1116-1.0312 0.34031-1.0228 0.25714-0.3219 3.196l0.29057 1.2184 1.0425-0.26463c0.98686-0.25049 1.034-0.30849 0.88376-1.0861zm19.607 0.17067c0.23116-0.54571 0.43344-1.4014 0.44952-1.9016 0.0263-0.81733-0.0718-0.94839-0.96889-1.2949-0.54897-0.21206-1.0684-0.31529-1.1543-0.22939-0.15557 0.15556-0.86331 3.211-0.881 3.8034-0.01 0.32971 0.52237 0.53345 1.5256 0.58402 0.46527 0.0235 0.70792-0.20325 1.0291-0.96149zm-16.984 0.19844c0.29104-0.12507 0.38948-0.23576 0.21876-0.24599-0.19924-0.0119-0.30116-0.5161-0.28457-1.4077 0.0142-0.76399-0.066-1.668-0.17826-2.009-0.18098-0.5497-0.31339-0.59944-1.1686-0.439-0.53049 0.0995-1.0331 0.22335-1.117 0.27519-0.0839 0.0518 0.0307 0.99352 0.25455 2.0926 0.37963 1.8638 0.45213 1.9972 1.0765 1.9798 0.36821-0.0102 0.9076-0.12092 1.1986-0.24598zm2.5576-0.48175c0.24088-0.2455 0.28853-0.71741 0.2519-2.4948-0.0304-1.4766-0.0528-1.5212-0.75895-1.5177-1.4988 7e-3 -1.9288 0.25996-1.735 1.0188 0.098 0.38358 0.16394 0.90343 0.14659 1.1552-0.0174 0.2518 0.0799 0.52671 0.21619 0.61093 0.13626 0.0842 0.24775 0.51618 0.24775 0.95993 0 0.74734 0.0536 0.79357 0.7276 0.62712 0.40019-0.0988 0.80695-0.26057 0.90393-0.35941zm8.6414 0.0187c0.40304-0.78607 0.58822-3.3032 0.27112-3.6853-0.15956-0.19227-0.68279-0.34957-1.1627-0.34957-0.75701 0-0.89602 0.10656-1.0493 0.8044-0.0972 0.44242-0.0964 1.388 2e-3 2.1012 0.17884 1.3003 0.18103 1.3025 1.5127 1.5562 0.10402 0.0198 0.29596-0.17233 0.42653-0.42699zm3.1465-1.3735c0.18888-0.93736 0.2531-1.7848 0.1427-1.8832-0.1104-0.0984-0.59147-0.25202-1.069-0.34131-0.99473-0.18598-1.1716 0.087-1.4986 2.3123-0.21671 1.4748 0.0315 1.797 1.2982 1.6855 0.73889-0.065 0.80282-0.16563 1.1268-1.7732zm-8.657 1.2969c0-0.70395-1.7955-3.429-2.2593-3.429-0.0671 0-0.12198 0.71821-0.12198 1.596 0 1.4078 0.0702 1.6242 0.59531 1.8353 0.82208 0.33044 1.7859 0.3292 1.7859-2e-3zm2.914-0.98165c2e-3 -0.69123 0.0792-1.5544 0.17149-1.9182l0.16788-0.66146-0.72641 0.66146c-0.71234 0.64865-1.7332 2.3567-1.7332 2.8999 0 0.15131 0.47625 0.27512 1.0583 0.27512h1.0583z"/></g></svg>
