<svg width="37" height="49" xmlns="http://www.w3.org/2000/svg" viewBox="0 0 10.039 13.169"><title>resleri fire</title><g fill="#212121" class="nc-icon-wrapper"><g id="1696903029067-3696132_layer1" transform="translate(-105.661 -135.493)"><path d="M108.307 148.411c-.51-.144-1.203-.519-1.54-.833-.555-.516-.597-.72-.437-2.101.138-1.183.082-1.676-.246-2.176-.232-.356-.423-.718-.423-.806 0-.297 1.186.199 2.08.869.936.702.936.7.407 3.03-.133.585 0 .866.718 1.522.94.859.888.905-.56.495zm1.818-.946a38.71 38.71 0 0 0-.095-1.041c-.04-.374.298-.93.955-1.571.56-.547 1.147-1.386 1.305-1.865.353-1.069.058-1.722-.38-.843-.17.338-.632.729-1.03.868-1.499.528-2.976-.659-3.276-2.632l-.16-1.052.762.982c.47.605.991.986 1.358.992.68.011.764-.312.221-.855-.553-.553-1.044-2.426-.844-3.22.174-.697 1.534-1.733 2.276-1.735.308 0 .014.282-.043 1.256-.07 1.216.333 1.286 1.507 2.16 2.2 1.637 2.52 3.14 1.05 4.935-.51.621-.926 1.2-.926 1.284 0 .697 2.21-1.264 2.66-2.36.154-.377.221-.132.233.851.015 1.227-.083 1.48-.879 2.276-.855.856-1.86 1.239-3.246 1.239-.35 0-.705.178-.79.397-.207.542-.616.5-.658-.066z" id="1696903029067-3696132_path1" fill="#212121"></path></g></g></svg>