<svg width="44" height="52" xmlns="http://www.w3.org/2000/svg" viewBox="0 0 11.816 13.867"><title>resleri ice</title><g fill="#212121" class="nc-icon-wrapper"><g id="1696903029067-6719551_layer1" transform="translate(-100.753 -144.047)"><path d="M106.405 157.85c0-.162-.346-.525-.645-.916-.459-.6-.48-.623-.31-1.02.346-.802-.076.056.669-1.567.245-.858.343-1.327.57-.794.267.623.175.44.78 2.174.228.652.228.853.183.896-.165.156-.554.509-.8.869s-.447.521-.447.358zm-5.135-3.526c-.546-.17-.674-.083-.317-.926.385-.909.305-.883.98-.926.378-.024 1.056-.18 1.536-.295 1.307-.315 1.316-.081.21.994-.538.522-.818 1.192-.978 1.316-.485.374-.356.172-1.431-.163zm7.864-1.417c-.605-.605-.812-1.014-.568-.964 3.16.64-.031-.005 3.197.672.115.024-.037-.22.61 1.386.247.73.386.588-.375.588-.433 0-.965.068-1.182.151-.485-.542-.206-.356-1.682-1.833zm-3.93.343c-.088-.144-.037-.227.012-1.05.044-.73.098-.664-.51-.786-.98-.199-1.025-.532-.087-.842.685-.187.587-.228.537-1.077-.149-.993.058-1.194.776-.544.462.418.543.419 1.24.007.885-.522.813-.517.826.567.007.591.078.783.649 1.043.855.208.755.59.058.85-.74.01-1.09.166-.73 1.142.193.522.022.721-.089.706a1.24 1.24 0 0 1-.687-.397c-.435-.525-.59-.577-1.313.123-.306.296-.588.41-.681.258zm2.146-1.487c-.078-.203.038-.438.258-.523.904-.309.463-.303.077-.586-.328-.3-.325-.277-.296-.477.197-.554.036-.682-.78-.231-.56.02-1.03-.74-.93.201.078.748-1.012.638-.37.897.182.074.476.386.476.628 0 .309-.26.839.816.318.589.02.92.539.749-.227zm-5.4-2.466c-.983-.345-.76-.171-.99-.903-.282-.901-.28-.902.663-1.017.545-.066.991.008 1.053.175.404.44.565.75 1.124 1.313.56.563 1.018 1.04 1.018 1.058-1.002-.104-1.936-.266-2.868-.626zm7.63-.684c.655-.715 1.28-1.288 1.39-1.274.108.015.478.044.82.066.583.037.604.096.34.938-.245.785.038.668-1.349 1.041-.588.08-1.366.23-1.73.337-.579.169-.513.03.53-1.108zm-3.422-1.076c-.177-.702-.444-1.424-.594-1.605-.272-.527-.09-.547.382-1.107l.655-.778.57.772c.533.72.545.824.167 1.554-.222.43-.373 1.135-.537 1.656-.247 1.226-.333.74-.643-.492z" id="1696903029067-6719551_path4" fill="#212121"></path></g></g></svg>