<svg width="54" height="33" xmlns="http://www.w3.org/2000/svg" viewBox="0 0 14.419 8.927"><title>resleri pierce</title><g fill="#212121" class="nc-icon-wrapper"><g id="1696903029068-9492795_layer1" transform="translate(-67.673 -164.85)"><path d="M74.948 173.203c-.582-.318-2.457-1.225-4.167-2.016-1.71-.79-3.109-1.504-3.108-1.585 0-.081 2.048-1.184 4.55-2.45l4.552-2.302-1.575 1.43-1.575 1.43 1.588.013 1.587.013-.926.59c-.906.577-.912.591-.264.672.363.045 1.97.235 3.571.42l2.91.34-2.38.184c-1.31.102-2.973.272-3.695.378l-1.314.193 1.314.856c1.542 1.006 1.417 1.037-1.334.334-1.139-.291-2.12-.48-2.179-.421-.06.06.673.546 1.63 1.08.955.534 1.804 1.081 1.887 1.215.194.314.178.308-1.072-.375z" id="1696903029068-9492795_path12" fill="#212121"></path></g></g></svg>