<svg width="45" height="49" xmlns="http://www.w3.org/2000/svg" viewBox="0 0 12.006 13.135"><title>resleri slash</title><g fill="#212121" class="nc-icon-wrapper"><g id="1696903029068-8962335_layer1" transform="translate(-101.876 -157.329)"><path d="M104.03 170.255c-.436-.16-1.214-.532-1.548-.987-.467-.636-.678-1.075-.584-2.81.027-.499.365-2.503 1.127-4.024 1.013-2.022 3.337-5.105 3.848-5.105.167 0-.058.387-.5.86-2.32 2.48-3.498 6.089-2.603 7.975.579 1.22.957 1.235.623.026-.17-.613-.162-1.439.022-2.435.379-2.047.734-2.286.597-.401-.12 1.675.531 3.52 1.578 4.466 1.13 1.02 4.736.24 6.637-1.435.255-.226.536-.338.624-.25.269.269-1.209 2.325-3.827 3.597-1.255.61-4.722.991-5.993.523zm4.895-2.882c-1.393-.236-2.12-.73-2.536-1.723-.442-1.5-.51-1.97.06-1.162.933 1.501 3.519 2.389 4.822 1.855.226-.092.635-.138.565-.034-.291.43-1.94 1.228-2.91 1.064z" id="1696903029068-8962335_path10" fill="#212121"></path></g></g></svg>