<svg width="129" height="143" xmlns="http://www.w3.org/2000/svg" viewBox="0 0 34.164 37.896"><title>resleri icon</title><g fill="#212121" class="nc-icon-wrapper"><g id="1696903029068-5833106_layer1" transform="translate(-29.973 -140.236)"><path d="M36.237 178.05c-.004-.145.408-.954.917-1.798.51-.844.926-1.572.926-1.617 0-.046.49-.962 1.089-2.038 1.526-2.738 4.262-8.1 4.778-9.363.823-2.014.818-2.074-.244-3.082-1.753-1.663-5.916-4.846-9.783-7.48-4.013-2.732-5.143-3.736-2.569-2.282 2.893 1.635 3.165 1.786 5.15 2.851 4.155 2.232 6.045 3.148 9.12 4.424l1.058.44.765-.875c.42-.481 1.141-1.292 1.602-1.801.46-.51 1.545-1.924 2.41-3.144.865-1.22 2.014-2.827 2.553-3.572.539-.744 1.303-1.89 1.697-2.545.394-.654.79-1.25.881-1.322.091-.073.862-1.178 1.714-2.455 1.716-2.573 2.33-2.954.86-.533a68.179 68.179 0 0 0-1.7 2.992c-.42.798-1.453 2.622-2.296 4.052-1.814 3.082-4.85 9.315-5.069 10.407-.133.667.016.926 1.125 1.954.703.652 1.606 1.44 2.006 1.749.4.31.728.668.728.797 0 .262-.964 1.145-1.25 1.145-.102 0-1.24-.437-2.53-.972l-2.344-.971-.928 1.037c-1.967 2.198-4.905 6.097-8.162 10.834-1.92 2.791-2.493 3.518-2.504 3.169zm5.14-5.144c.086-.137 1.492-.946 3.125-1.797 8.897-4.633 14.393-9.953 16.196-15.454 1.611-4.916.746-6.79-3.727-8.402-.37-.126.208-1.11.304-1.097 1.253.181 9.216.467 6.176 10.331-1.637 5.31-8.483 10.071-17.81 14.707-3.888 1.933-4.568 2.206-4.263 1.712zm8.471-1.842c-.668-1.715-.714-1.34.13-1.637.25-.088.166-.007.363 2.028.066.676.08 1.082-.187.394zm13.457-.36c-.314-.18-2.19-1.197-4.167-2.262-1.978-1.065-3.596-2.004-3.596-2.087 0-.084.207-.303.46-.488.392-.287.637-.208 1.654.528.656.475 2.086 1.478 3.178 2.229 2.965 2.04 4.166 3.05 2.471 2.08zm-15.637-4.318l-.725-1.478 1.005-1.229c.193-.235-.058-.264 1.794.836.003.621-.018.468-.008 3.084 0 .176-.829.687-.896.687-.068 0-.771-1.087-1.17-1.9zm-9.964-3.512c.134-.117 1.014-.433 1.862-.896 1.764-.96 2.188-1.299 3.245-2.011l.446.506c.694.787.748.992.286 1.813-.428.76.204.485-3.325.647-1.516.084-2.647.057-2.514-.06zm13.422-2.577c-.589-.588-.602-.667-.214-1.26.692-.878.004-.649 3.382-.761 1.633-.055 3.157-.289 3.431-.326.33-.046.463-.082.463.072 0 .147-.643.47-1.429.717-.785.248-2.233.84-3.216 1.318l-1.789.869zm-5.823-3.588c-.471-.311-.342-.938-.424-2.868-.059-1.382-.05-1.407-.242-3.24-.053-.503-.045-.728.065-.728s.281.327.38.727c.1.4.665 1.827 1.256 3.171.886 2.016.998 2.5.741 2.844-.592.797-.593.876-1.776.094zm-3.255-4.42c1.455-1.076 1.853-1.268 1.852-.895 0 .178-2.382 1.65-3.04 1.879-.147.05.388-.392 1.188-.984zm3.705-2.105c0-.535 8.314-3.992 8.692-3.614.386.387-.47.902-2.329 1.4-1.187.317-3.062.994-4.166 1.504-2.217 1.025-2.197 1.018-2.197.71z" id="1696903029068-5833106_path363" fill="#212121"></path></g></g></svg>