<svg width="35" height="38" xmlns="http://www.w3.org/2000/svg" viewBox="0 0 9.311 10.071"><title>resleri wind</title><g fill="#212121" class="nc-icon-wrapper"><g id="1696903029068-2142273_layer1" transform="translate(-101.218 -131.54)"><path d="M104.433 141.485c0-.068.744-.494 1.654-.945.91-.451 1.862-1.009 2.116-1.239.624-.564.584-.197-.1.908-.309.5-.852 1.021-1.207 1.156-.667.253-2.463.341-2.463.12zm-3.107-1.805c.486-3.283 1.974-4.846 5.823-6.123 1.833-.608 2.49-.967 2.705-1.406.416-.853.58-.8.664.08.169 1.765-1.61 3.404-4.546 4.604-1.597.653-2.31 1.13-3.248 2.173-.66.735-1.049 1.236-1.201 1.69-.062.183-.1.413-.22.488-.122.075-.111-.603.023-1.506zm1.256 1.326c.003-1.01 1.127-2.03 3.742-3.392 1.507-.785 2.898-1.468 3.092-1.518.88-.223-2.988 3.373-4.385 4.079-2.22 1.12-2.45 1.198-2.45.831z" id="1696903029068-2142273_path6" fill="#212121"></path></g></g></svg>