<svg width="19.972mm" height="19.972mm" version="1.1" viewBox="0 0 19.972 19.972" xml:space="preserve" xmlns="http://www.w3.org/2000/svg" xmlns:xlink="http://www.w3.org/1999/xlink"><g transform="translate(-124.91 -260.92)"><rect transform="rotate(-45)" x="-103.24" y="279.88" width="14.122" height="14.122" stroke-width=".389"/><g transform="translate(53.607 -30.264)"><path d="m79.216 297.43c2.0166-2.8444-0.0854 0.0941 1.7841-2.5294 0.0193-0.027 0.0504 0.3419 0.0504 3.9434 0 3.6683 0.98904 4.3914-0.85607 4.1232z" fill="#b3b3b3"/><path d="m80.664 303.88c-0.0307-0.20761-1.0846 0.0104-1.2291 8e-3 -0.67034-0.01-0.69605-0.5927-0.48931-0.73353 0.0939-0.15189 0.58248-0.21186 0.9903-0.21186h1.188l-0.0791-4.1014c-0.0446-2.3128-0.10631-4.0764-0.0304-3.9471 1.095 1.3977-0.24877-0.28294 2.0246 2.5607-0.79715 5.5061-0.83425 5.5446-0.7538 5.546 0.54407 0.0623 1.4565 0.026 1.4565 0.41033 0 0.4543-0.0115 0.70918-0.89713 0.63077l-1.0316-0.0913-0.0186 1.6608c-4e-3 0.3826 1.1837 0.20855-0.42606 1.8291-0.13818 0.13911-1.705-1.4426-0.67695-1.7848z" fill="#fff"/></g></g></svg>
